,note_name,start_time,duration,velocity,tempo
0,C#2,0.0,0.25,87,148.0
1,C#2,2.0,0.25,86,148.0
2,C#2,4.0,0.25,85,148.0
3,C#2,6.0,0.25,85,148.0
4,E2,8.0,3.0,122,148.0
5,F#4,8.0,1.0,115,148.0
6,G4,8.0,1.0,114,148.0
7,E4,8.0,1.0,114,148.0
8,B3,8.0,1.0,114,148.0
9,E4,9.0,1.0,99,148.0
10,B3,9.0,1.0,75,148.0
11,G4,9.0,1.0,75,148.0
12,E4,9.0,1.0,75,148.0
13,G4,10.0,1.0,109,148.0
14,G4,10.0,1.0,114,148.0
15,E4,10.0,1.0,114,148.0
16,B3,10.0,1.0,114,148.0
17,E4,11.0,1.0,91,148.0
18,B3,11.0,0.5,66,148.0
19,G4,11.0,0.5,66,148.0
20,E4,11.0,0.5,66,148.0
21,E2,11.5,0.5,112,148.0
22,E4,11.5,0.5,111,148.0
23,G4,11.5,0.5,111,148.0
24,B3,11.5,0.5,111,148.0
25,B3,12.0,0.5,81,148.0
26,E2,12.0,1.0,112,148.0
27,F#4,12.0,1.0,111,148.0
28,B3,12.5,0.5,110,148.0
29,G4,12.5,0.5,110,148.0
30,E2,13.0,2.5,111,148.0
31,E4,13.0,1.0,90,148.0
32,B3,13.0,1.0,74,148.0
33,E4,13.0,1.0,74,148.0
34,G4,13.0,1.0,74,148.0
35,G4,14.0,1.0,109,148.0
36,E4,14.0,1.0,110,148.0
37,G4,14.0,1.0,110,148.0
38,B3,14.0,1.0,110,148.0
39,E4,15.0,0.5,92,148.0
40,G4,15.0,0.5,68,148.0
41,E4,15.0,0.5,68,148.0
42,B3,15.0,0.5,68,148.0
43,B3,15.5,0.5,109,148.0
44,G4,15.5,0.5,109,148.0
45,E4,15.5,0.5,109,148.0
46,E2,15.5,0.5,109,148.0
47,C4,16.0,1.0,113,148.0
48,C2,16.0,3.0,110,148.0
49,F#4,16.0,1.0,108,148.0
50,G4,17.0,0.5,82,148.0
51,C4,17.0,1.0,75,148.0
52,E4,17.0,1.0,90,148.0
53,E4,18.0,1.5,118,148.0
54,G4,18.0,0.5,115,148.0
55,C4,18.0,1.0,113,148.0
56,G4,18.0,1.0,107,148.0
57,E4,19.0,0.5,88,148.0
58,G4,19.0,0.5,68,148.0
59,C4,19.0,0.5,68,148.0
60,E4,19.5,0.5,111,148.0
61,C2,19.5,0.5,113,148.0
62,G4,19.5,0.5,111,148.0
63,C4,19.5,0.5,111,148.0
64,E4,20.0,0.5,111,148.0
65,C2,20.0,1.0,113,148.0
66,F#4,20.0,1.0,109,148.0
67,G4,20.0,0.5,68,148.0
68,C4,20.0,0.5,68,148.0
69,E4,20.5,1.0,100,148.0
70,G4,20.5,0.5,106,148.0
71,C4,20.5,0.5,106,148.0
72,C2,21.0,2.0,113,148.0
73,E4,21.0,1.0,90,148.0
74,C4,21.0,1.0,78,148.0
75,G4,21.0,1.0,78,148.0
76,E4,22.0,1.5,115,148.0
77,G4,22.0,1.0,110,148.0
78,C4,22.0,1.0,112,148.0
79,G4,22.0,1.0,112,148.0
80,E4,23.0,1.0,95,148.0
81,G4,23.0,0.5,77,148.0
82,C4,23.0,0.5,77,148.0
83,E4,23.5,0.5,108,148.0
84,G4,23.5,0.5,109,148.0
85,C4,23.5,0.5,109,148.0
86,C2,23.5,0.5,109,148.0
87,C4,24.0,1.5,107,148.0
88,A3,24.0,1/200,113,148.0
89,E4,24.0,1.0,108,148.0
90,F#4,24.0,1.0,108,148.0
91,E4,25.0,1.5,81,148.0
92,A3,25.0,1.0,73,148.0
93,E4,25.0,1.0,94,148.0
94,A3,26.0,1.0,113,148.0
95,A4,26.0,1.0,107,148.0
96,G4,26.0,1.5,118,148.0
97,C4,26.0,1.5,118,148.0
98,E4,27.0,1.0,81,148.0
99,A3,27.0,0.5,64,148.0
100,E4,27.0,1.0,96,148.0
101,A3,27.5,1/200,106,148.0
102,G4,27.5,0.5,114,148.0
103,C4,27.5,0.5,114,148.0
104,E4,28.0,0.5,74,148.0
105,F#4,28.0,1.0,108,148.0
106,G4,28.0,0.5,114,148.0
107,C4,28.0,0.5,114,148.0
108,A3,28.5,0.5,102,148.0
109,G4,28.5,1.0,110,148.0
110,C4,28.5,1.0,110,148.0
111,E4,29.0,1.5,82,148.0
112,A3,29.0,1/200,79,148.0
113,E4,29.0,1.0,95,148.0
114,A3,30.0,1.0,110,148.0
115,A4,30.0,1.0,109,148.0
116,G4,30.0,1.5,114,148.0
117,C4,30.0,1.5,114,148.0
118,E4,31.0,1.0,79,148.0
119,A3,31.0,0.5,79,148.0
120,E4,31.0,0.5,103,148.0
121,A3,31.5,1/200,114,148.0
122,E-4,32.0,1.0,100,148.0
123,F#4,32.0,1.0,100,148.0
124,B3,32.0,1.0,100,148.0
125,F#4,33.0,1.0,84,148.0
126,B3,33.0,2.0,82,148.0
127,E-4,33.0,1.0,91,148.0
128,F#4,34.0,1.0,124,148.0
129,A3,34.0,1.5,114,148.0
130,G4,34.0,1.0,113,148.0
131,F#4,35.0,1.0,77,148.0
132,B3,35.0,0.5,77,148.0
133,E-4,35.0,1.0,99,148.0
134,A3,35.5,0.5,108,148.0
135,B1,35.5,0.5,115,148.0
136,B3,36.0,0.5,81,148.0
137,F#4,36.0,1/200,77,148.0
138,B1,36.0,1.0,115,148.0
139,A4,36.0,1.0,109,148.0
140,A3,36.5,1.0,115,148.0
141,F#4,37.0,1.0,81,148.0
142,B3,37.0,1.5,82,148.0
143,B1,37.0,3.0,108,148.0
144,E-4,37.0,1.0,105,148.0
145,F#4,38.0,1.0,121,148.0
146,A3,38.0,1.5,121,148.0
147,G4,38.0,1.0,103,148.0
148,F#4,39.0,0.5,77,148.0
149,B3,39.0,1.0,70,148.0
150,F#4,39.0,1.0,113,148.0
151,A3,39.5,0.5,116,148.0
152,F#4,39.5,0.5,116,148.0
153,E2,40.0,3.0,122,148.0
154,E4,40.0,4.0,99,148.0
155,F#4,40.0,0.125,113,148.0
156,G4,40.0,1.0,114,148.0
157,E4,40.0,1.0,114,148.0
158,B3,40.0,1.0,114,148.0
159,B3,41.0,1.0,75,148.0
160,G4,41.0,1.0,75,148.0
161,E4,41.0,1.0,75,148.0
162,B4,41.969,112/125,109,148.0
163,G4,42.0,1.0,114,148.0
164,E4,42.0,1.0,114,148.0
165,B3,42.0,1.0,114,148.0
166,A4,42.917,1083/1000,91,148.0
167,B3,43.0,0.5,66,148.0
168,G4,43.0,0.5,66,148.0
169,E4,43.0,0.5,66,148.0
170,E2,43.5,0.5,112,148.0
171,E4,43.5,0.5,111,148.0
172,G4,43.5,0.5,111,148.0
173,B3,43.5,0.5,111,148.0
174,B4,43.974,13/500,110,148.0
175,B3,44.0,0.5,81,148.0
176,E2,44.0,1.0,112,148.0
177,B4,44.0,99/100,110,148.0
178,E4,44.0,4.0,99,148.0
179,B3,44.5,0.5,110,148.0
180,G4,44.5,0.5,110,148.0
181,A4,44.99,0.625,96,148.0
182,E2,45.0,2.5,111,148.0
183,B3,45.0,1.0,74,148.0
184,E4,45.0,1.0,74,148.0
185,G4,45.0,1.0,74,148.0
186,B4,45.516,901/1000,107,148.0
187,E4,46.0,1.0,110,148.0
188,G4,46.0,1.0,110,148.0
189,B3,46.0,1.0,110,148.0
190,D5,46.391,0.531,104,148.0
191,C5,46.964,259/250,104,148.0
192,G4,47.0,0.5,68,148.0
193,E4,47.0,0.5,68,148.0
194,B3,47.0,0.5,68,148.0
195,E2,47.5,0.5,109,148.0
196,B3,47.5,0.5,109,148.0
197,G4,47.5,0.5,109,148.0
198,E4,47.5,0.5,109,148.0
199,C5,48.0,1401/1000,104,148.0
200,C2,48.005,3.0,110,148.0
201,C4,48.005,1.0,113,148.0
202,E2,48.005,1/200,109,148.0
203,B3,48.005,1/200,109,148.0
204,G4,48.005,1/200,109,148.0
205,E4,48.005,1/200,109,148.0
206,G4,49.005,0.5,82,148.0
207,C4,49.005,1.0,75,148.0
208,C5,49.51,0.359,107,148.0
209,E4,50.005,1.5,118,148.0
210,G4,50.005,0.5,115,148.0
211,C4,50.005,1.0,113,148.0
212,C5,50.031,667/1000,104,148.0
213,G4,51.005,0.5,68,148.0
214,C4,51.005,0.5,68,148.0
215,C5,51.031,0.641,109,148.0
216,C2,51.505,0.5,113,148.0
217,E4,51.505,0.5,111,148.0
218,G4,51.505,0.5,111,148.0
219,C4,51.505,0.5,111,148.0
220,B4,51.599,401/1000,109,148.0
221,B4,52.0,0.156,109,148.0
222,C2,52.005,1.0,113,148.0
223,E4,52.005,0.5,111,148.0
224,G4,52.005,0.5,68,148.0
225,C4,52.005,0.5,68,148.0
226,C5,52.068,71/125,106,148.0
227,E4,52.505,1.0,100,148.0
228,G4,52.505,0.5,106,148.0
229,C4,52.505,0.5,106,148.0
230,D5,52.573,729/1000,112,148.0
231,C2,53.005,2.0,113,148.0
232,C4,53.005,1.0,78,148.0
233,G4,53.005,1.0,78,148.0
234,E4,54.005,1.5,115,148.0
235,B4,54.005,849/1000,112,148.0
236,C4,54.005,1.0,112,148.0
237,G4,54.005,1.0,112,148.0
238,B4,55.005,199/200,114,148.0
239,G4,55.005,0.5,77,148.0
240,C4,55.005,0.5,77,148.0
241,E4,55.505,0.5,108,148.0
242,C2,55.505,0.5,109,148.0
243,G4,55.505,0.5,109,148.0
244,C4,55.505,0.5,109,148.0
245,A4,55.964,9/250,95,148.0
246,A4,56.0,1099/500,95,148.0
247,A3,56.005,1/200,83,148.0
248,C4,56.005,1.5,107,148.0
249,E4,56.005,1.0,108,148.0
250,E4,57.005,1.5,81,148.0
251,A3,57.005,1.0,73,148.0
252,A3,58.005,1.0,113,148.0
253,G4,58.005,1.5,118,148.0
254,C4,58.005,1.5,118,148.0
255,A4,58.958,0.422,106,148.0
256,E4,59.005,1.0,81,148.0
257,A3,59.005,0.5,64,148.0
258,A3,59.505,1/200,79,148.0
259,A4,59.505,99/200,112,148.0
260,G4,59.505,0.5,114,148.0
261,C4,59.505,0.5,114,148.0
262,A4,60.0,73/250,112,148.0
263,E4,60.005,0.5,74,148.0
264,G4,60.005,0.5,114,148.0
265,C4,60.005,0.5,114,148.0
266,A4,60.469,37/100,104,148.0
267,A3,60.505,0.5,102,148.0
268,G4,60.505,1.0,110,148.0
269,C4,60.505,1.0,110,148.0
270,A4,60.964,443/1000,98,148.0
271,A3,61.005,1/200,81,148.0
272,E4,61.005,1.5,82,148.0
273,A4,61.495,823/1000,100,148.0
274,A3,62.005,1.0,110,148.0
275,G4,62.005,1.5,114,148.0
276,C4,62.005,1.5,114,148.0
277,E4,63.005,1.0,79,148.0
278,A3,63.005,0.5,79,148.0
279,C5,63.057,443/1000,109,148.0
280,A3,63.505,1/200,80,148.0
281,C5,63.599,401/1000,103,148.0
282,C5,64.0,199/200,103,148.0
283,B3,64.005,1.0,100,148.0
284,F#4,64.005,1.0,100,148.0
285,B4,65.0,411/1000,92,148.0
286,F#4,65.005,1.0,84,148.0
287,B3,65.005,2.0,82,148.0
288,B4,65.583,0.953,104,148.0
289,F#4,66.005,1.0,124,148.0
290,A3,66.005,1.5,114,148.0
291,B4,66.635,54/125,101,148.0
292,F#4,67.005,1.0,77,148.0
293,B3,67.005,0.5,77,148.0
294,B4,67.214,393/500,111,148.0
295,B1,67.505,0.5,115,148.0
296,A3,67.505,0.5,108,148.0
297,B4,68.0,99/100,111,148.0
298,B3,68.005,0.5,81,148.0
299,F#4,68.005,1/200,77,148.0
300,B1,68.005,1.0,115,148.0
301,A3,68.505,1.0,115,148.0
302,B1,69.005,3.0,108,148.0
303,F#4,69.005,1.0,81,148.0
304,B3,69.005,1.5,82,148.0
305,B4,69.453,63/100,109,148.0
306,F#4,70.005,1.0,121,148.0
307,A3,70.005,1.5,121,148.0
308,B5,70.109,87/100,105,148.0
309,A5,70.948,123/200,103,148.0
310,F#4,71.005,0.5,77,148.0
311,B3,71.005,1.0,70,148.0
312,B5,71.5,0.5,112,148.0
313,A3,71.505,0.5,116,148.0
314,F#4,71.505,0.5,116,148.0
315,B5,72.0,1177/1000,112,148.0
316,F#4,72.0,1.0,115,148.0
317,E2,72.005,3.0,122,148.0
318,G4,72.005,1.0,114,148.0
319,E4,72.005,1.0,114,148.0
320,B3,72.005,1.0,114,148.0
321,E4,73.0,1.0,99,148.0
322,B3,73.005,1.0,75,148.0
323,G4,73.005,1.0,75,148.0
324,E4,73.005,1.0,75,148.0
325,G4,74.0,1.0,109,148.0
326,B3,74.0,2.0,104,148.0
327,E4,74.0,2.0,104,148.0
328,G4,74.0,2.0,104,148.0
329,G4,74.005,1.0,114,148.0
330,E4,74.005,1.0,114,148.0
331,B3,74.005,1.0,114,148.0
332,B4,74.125,901/1000,112,148.0
333,E4,75.0,1.0,91,148.0
334,B3,75.005,0.5,66,148.0
335,G4,75.005,0.5,66,148.0
336,E4,75.005,0.5,66,148.0
337,A4,75.052,901/1000,94,148.0
338,E2,75.505,0.5,112,148.0
339,E4,75.505,0.5,111,148.0
340,G4,75.505,0.5,111,148.0
341,B3,75.505,0.5,111,148.0
342,B4,75.99,1/100,103,148.0
343,B4,76.0,1.094,103,148.0
344,F#4,76.0,1.0,111,148.0
345,B3,76.0,3.0,104,148.0
346,E4,76.0,3.0,104,148.0
347,G4,76.0,3.0,104,148.0
348,B3,76.005,0.5,81,148.0
349,E2,76.005,1.0,112,148.0
350,B3,76.505,0.5,110,148.0
351,G4,76.505,0.5,110,148.0
352,E4,77.0,1.0,90,148.0
353,E2,77.005,2.5,111,148.0
354,B3,77.005,1.0,74,148.0
355,E4,77.005,1.0,74,148.0
356,G4,77.005,1.0,74,148.0
357,A4,77.089,589/1000,90,148.0
358,B4,77.604,1.0,105,148.0
359,G4,78.0,1.0,109,148.0
360,E4,78.005,1.0,110,148.0
361,G4,78.005,1.0,110,148.0
362,B3,78.005,1.0,110,148.0
363,D5,78.542,271/500,98,148.0
364,E4,79.0,0.5,92,148.0
365,G4,79.005,0.5,68,148.0
366,E4,79.005,0.5,68,148.0
367,B3,79.005,0.5,68,148.0
368,E5,79.062,0.938,109,148.0
369,B3,79.505,0.5,109,148.0
370,G4,79.505,0.5,109,148.0
371,E4,79.505,0.5,109,148.0
372,E2,79.505,0.5,109,148.0
373,E5,80.0,1021/1000,109,148.0
374,F#4,80.0,1.0,108,148.0
375,C4,80.005,1.0,113,148.0
376,C2,80.005,3.0,110,148.0
377,E4,81.0,1.0,90,148.0
378,G4,81.005,0.5,82,148.0
379,C4,81.005,1.0,75,148.0
380,C5,81.536,0.391,101,148.0
381,G4,82.0,1.0,107,148.0
382,E4,82.0,2.0,116,148.0
383,C4,82.0,2.0,116,148.0
384,G4,82.0,2.0,116,148.0
385,E4,82.005,1.5,118,148.0
386,G4,82.005,0.5,115,148.0
387,C4,82.005,1.0,113,148.0
388,C5,82.078,69/125,111,148.0
389,D5,82.594,99/125,100,148.0
390,E4,83.0,0.5,88,148.0
391,G4,83.005,0.5,68,148.0
392,C4,83.005,0.5,68,148.0
393,E5,83.359,0.641,106,148.0
394,E4,83.505,0.5,111,148.0
395,C2,83.505,0.5,113,148.0
396,G4,83.505,0.5,111,148.0
397,C4,83.505,0.5,111,148.0
398,E5,84.0,583/1000,106,148.0
399,F#4,84.0,1.0,109,148.0
400,E4,84.0,3.0,116,148.0
401,C4,84.0,3.0,116,148.0
402,G4,84.0,3.0,116,148.0
403,E4,84.005,0.5,111,148.0
404,C2,84.005,1.0,113,148.0
405,G4,84.005,0.5,68,148.0
406,C4,84.005,0.5,68,148.0
407,E4,84.505,1.0,100,148.0
408,G4,84.505,0.5,106,148.0
409,C4,84.505,0.5,106,148.0
410,E4,85.0,1.0,90,148.0
411,C2,85.005,2.0,113,148.0
412,C4,85.005,1.0,78,148.0
413,G4,85.005,1.0,78,148.0
414,E5,85.552,0.438,104,148.0
415,A5,85.995,0.453,101,148.0
416,G4,86.0,1.0,110,148.0
417,E4,86.005,1.5,115,148.0
418,C4,86.005,1.0,112,148.0
419,G4,86.005,1.0,112,148.0
420,G5,86.583,56/125,115,148.0
421,E4,87.0,1.0,95,148.0
422,G4,87.005,0.5,77,148.0
423,C4,87.005,0.5,77,148.0
424,F#5,87.203,0.797,102,148.0
425,E4,87.505,0.5,108,148.0
426,G4,87.505,0.5,109,148.0
427,C4,87.505,0.5,109,148.0
428,C2,87.505,0.5,109,148.0
429,F#5,88.0,1.016,102,148.0
430,F#4,88.0,1.0,108,148.0
431,C4,88.005,1.5,107,148.0
432,A3,88.005,1/200,113,148.0
433,E4,88.005,1.0,108,148.0
434,G5,88.969,1.344,107,148.0
435,E4,89.0,1.0,94,148.0
436,E4,89.005,1.5,81,148.0
437,A3,89.005,1.0,73,148.0
438,A4,90.0,1.0,107,148.0
439,E4,90.0,2.0,112,148.0
440,C4,90.0,2.0,112,148.0
441,G4,90.0,2.0,112,148.0
442,A3,90.005,1.0,113,148.0
443,G4,90.005,1.5,118,148.0
444,C4,90.005,1.5,118,148.0
445,E5,90.641,73/250,112,148.0
446,E4,91.0,1.0,96,148.0
447,E4,91.005,1.0,81,148.0
448,A3,91.005,0.5,64,148.0
449,E5,91.083,49/100,104,148.0
450,A3,91.505,1/200,106,148.0
451,G4,91.505,0.5,114,148.0
452,C4,91.505,0.5,114,148.0
453,F#5,91.589,411/1000,108,148.0
454,F#5,92.0,0.094,108,148.0
455,F#4,92.0,1.0,108,148.0
456,E4,92.0,3.062,112,148.0
457,C4,92.0,3.062,112,148.0
458,G4,92.0,3.062,112,148.0
459,E4,92.005,0.5,74,148.0
460,G4,92.005,0.5,114,148.0
461,C4,92.005,0.5,114,148.0
462,G5,92.083,1.047,111,148.0
463,A3,92.505,0.5,102,148.0
464,G4,92.505,1.0,110,148.0
465,C4,92.505,1.0,110,148.0
466,E4,93.0,1.0,95,148.0
467,E4,93.005,1.5,82,148.0
468,A3,93.005,1/200,79,148.0
469,E5,93.375,0.516,102,148.0
470,A5,93.859,0.5,104,148.0
471,A4,94.0,1.0,109,148.0
472,A3,94.005,1.0,110,148.0
473,G4,94.005,1.5,114,148.0
474,C4,94.005,1.5,114,148.0
475,G5,94.401,58/125,111,148.0
476,F#5,94.927,409/500,109,148.0
477,E4,95.0,0.5,103,148.0
478,E4,95.005,1.0,79,148.0
479,A3,95.005,0.5,79,148.0
480,A3,95.505,1/200,114,148.0
481,F#5,95.854,73/500,111,148.0
482,F#5,96.0,0.906,111,148.0
483,E-4,96.0,1.0,100,148.0
484,F#4,96.005,1.0,100,148.0
485,B3,96.005,1.0,100,148.0
486,F#5,96.906,3.094,105,148.0
487,E-4,97.0,1.0,91,148.0
488,F#4,97.005,1.0,84,148.0
489,B3,97.005,2.0,82,148.0
490,G4,98.0,1.0,113,148.0
491,E-4,98.0,2.0,110,148.0
492,F#4,98.0,2.0,110,148.0
493,B3,98.0,2.0,110,148.0
494,F#4,98.005,1.0,124,148.0
495,A3,98.005,1.5,114,148.0
496,E-4,99.0,1.0,99,148.0
497,F#4,99.005,1.0,77,148.0
498,B3,99.005,0.5,77,148.0
499,A3,99.505,0.5,108,148.0
500,B1,99.505,0.5,115,148.0
501,F#5,100.0,151/250,105,148.0
502,A4,100.0,1.0,109,148.0
503,E-4,100.0,3.0,110,148.0
504,F#4,100.0,3.0,110,148.0
505,B3,100.0,3.0,110,148.0
506,B3,100.005,0.5,81,148.0
507,F#4,100.005,1/200,77,148.0
508,B1,100.005,1.0,115,148.0
509,A3,100.505,1.0,115,148.0
510,E-4,101.0,1.0,105,148.0
511,F#4,101.005,1.0,81,148.0
512,B3,101.005,1.5,82,148.0
513,B1,101.005,3.0,108,148.0
514,E5,101.125,0.812,115,148.0
515,E5,101.969,927/1000,113,148.0
516,G4,102.0,1.0,103,148.0
517,F#4,102.005,1.0,121,148.0
518,A3,102.005,1.5,121,148.0
519,G5,102.859,97/125,112,148.0
520,F#4,103.0,1.0,113,148.0
521,F#4,103.005,0.5,77,148.0
522,B3,103.005,1.0,70,148.0
523,A3,103.505,0.5,116,148.0
524,F#4,103.505,0.5,116,148.0
525,G5,103.906,0.094,109,148.0
526,G5,104.0,138/125,109,148.0
527,B3,104.0,4.0,108,148.0
528,G4,104.0,2.0,108,148.0
529,E4,104.0,1.0,113,148.0
530,F#4,104.0,0.125,113,148.0
531,G4,104.0,1.0,110,148.0
532,E4,104.0,1.0,110,148.0
533,E2,104.005,3.0,122,148.0
534,G4,104.005,1.0,114,148.0
535,E4,104.005,1.0,114,148.0
536,B3,104.005,1.0,114,148.0
537,B3,105.0,1.0,99,148.0
538,B3,105.0,1.0,101,148.0
539,B3,105.005,1.0,75,148.0
540,G4,105.005,1.0,75,148.0
541,E4,105.005,1.0,75,148.0
542,F#4,106.0,2.0,108,148.0
543,F#4,106.0,1.0,114,148.0
544,E4,106.0,1.0,110,148.0
545,F#4,106.0,1.0,110,148.0
546,G4,106.005,1.0,114,148.0
547,E4,106.005,1.0,114,148.0
548,B3,106.005,1.0,114,148.0
549,E5,106.359,0.422,111,148.0
550,E5,106.917,49/100,113,148.0
551,B3,107.0,1.0,96,148.0
552,B3,107.0,1.0,101,148.0
553,B3,107.005,0.5,66,148.0
554,G4,107.005,0.5,66,148.0
555,E4,107.005,0.5,66,148.0
556,F#5,107.37,0.516,117,148.0
557,E2,107.505,0.5,112,148.0
558,E4,107.505,0.5,111,148.0
559,G4,107.505,0.5,111,148.0
560,B3,107.505,0.5,111,148.0
561,G5,107.854,73/500,116,148.0
562,G5,108.0,427/500,116,148.0
563,G4,108.0,2.0,108,148.0
564,B3,108.0,4.0,108,148.0
565,E4,108.0,1.0,110,148.0
566,E4,108.0,1.0,101,148.0
567,G4,108.0,1.0,101,148.0
568,B3,108.005,0.5,81,148.0
569,E2,108.005,1.0,112,148.0
570,B3,108.505,0.5,110,148.0
571,G4,108.505,0.5,110,148.0
572,B3,109.0,1.0,101,148.0
573,B3,109.0,1.0,101,148.0
574,E2,109.005,2.5,111,148.0
575,B3,109.005,1.0,74,148.0
576,E4,109.005,1.0,74,148.0
577,G4,109.005,1.0,74,148.0
578,E5,109.49,0.469,110,148.0
579,A5,109.948,69/125,112,148.0
580,F#4,110.0,2.0,112,148.0
581,F#4,110.0,1.0,117,148.0
582,E4,110.0,1.0,106,148.0
583,F#4,110.0,1.0,106,148.0
584,E4,110.005,1.0,110,148.0
585,G4,110.005,1.0,110,148.0
586,B3,110.005,1.0,110,148.0
587,G5,110.427,271/500,114,148.0
588,F#5,110.922,839/1000,111,148.0
589,B3,111.0,0.938,102,148.0
590,B3,111.0,1.0,106,148.0
591,G4,111.005,0.5,68,148.0
592,E4,111.005,0.5,68,148.0
593,B3,111.005,0.5,68,148.0
594,B3,111.505,0.5,109,148.0
595,G4,111.505,0.5,109,148.0
596,E4,111.505,0.5,109,148.0
597,E2,111.505,0.5,109,148.0
598,G5,111.688,0.312,113,148.0
599,G5,112.0,833/1000,113,148.0
600,C4,112.0,4.0,77,148.0
601,G4,112.0,2.0,108,148.0
602,E4,112.0,1.0,111,148.0
603,E4,112.0,1.0,108,148.0
604,G4,112.0,1.0,108,148.0
605,C4,112.005,1.0,113,148.0
606,C2,112.005,3.0,110,148.0
607,G5,112.885,301/200,88,148.0
608,B3,113.0,1.0,103,148.0
609,C4,113.0,1.0,110,148.0
610,G4,113.005,0.5,82,148.0
611,C4,113.005,1.0,75,148.0
612,F#4,114.0,2.0,112,148.0
613,F#4,114.0,1.0,112,148.0
614,E4,114.0,1.0,113,148.0
615,F#4,114.0,1.0,113,148.0
616,E4,114.005,1.5,118,148.0
617,G4,114.005,0.5,115,148.0
618,C4,114.005,1.0,113,148.0
619,E5,114.51,0.328,110,148.0
620,E5,114.979,479/1000,115,148.0
621,B3,115.0,1.0,98,148.0
622,C4,115.0,1.0,101,148.0
623,G4,115.005,0.5,68,148.0
624,C4,115.005,0.5,68,148.0
625,F#5,115.422,101/200,113,148.0
626,E4,115.505,0.5,111,148.0
627,C2,115.505,0.5,113,148.0
628,G4,115.505,0.5,111,148.0
629,C4,115.505,0.5,111,148.0
630,G5,115.917,83/1000,113,148.0
631,G5,116.0,1073/1000,113,148.0
632,G4,116.0,2.0,112,148.0
633,C4,116.0,4.0,77,148.0
634,E4,116.0,1.0,110,148.0
635,E4,116.0,1.0,101,148.0
636,G4,116.0,1.0,101,148.0
637,E4,116.005,0.5,111,148.0
638,C2,116.005,1.0,113,148.0
639,G4,116.005,0.5,68,148.0
640,C4,116.005,0.5,68,148.0
641,E4,116.505,1.0,100,148.0
642,G4,116.505,0.5,106,148.0
643,C4,116.505,0.5,106,148.0
644,B3,117.0,1.0,100,148.0
645,C4,117.0,1.0,101,148.0
646,C2,117.005,2.0,113,148.0
647,C4,117.005,1.0,78,148.0
648,G4,117.005,1.0,78,148.0
649,E5,117.458,573/1000,106,148.0
650,F#4,118.0,2.0,111,148.0
651,F#4,118.0,1.0,114,148.0
652,E4,118.0,1.0,106,148.0
653,F#4,118.0,1.0,106,148.0
654,E4,118.005,1.5,115,148.0
655,C4,118.005,1.0,112,148.0
656,G4,118.005,1.0,112,148.0
657,A5,118.01,521/1000,109,148.0
658,G5,118.531,0.469,115,148.0
659,B3,119.0,1.0,103,148.0
660,C4,119.0,0.5,101,148.0
661,G4,119.005,0.5,77,148.0
662,C4,119.005,0.5,77,148.0
663,F#5,119.047,97/125,112,148.0
664,E4,119.505,0.5,108,148.0
665,G4,119.505,0.5,109,148.0
666,C4,119.505,0.5,109,148.0
667,C2,119.505,0.5,109,148.0
668,G5,119.776,28/125,117,148.0
669,G5,120.0,0.75,117,148.0
670,A4,120.0,2.0,110,148.0
671,C4,120.0,4.0,77,148.0
672,A4,120.0,1.0,117,148.0
673,E4,120.0,1.0,110,148.0
674,A4,120.0,1.0,110,148.0
675,C4,120.005,1.5,107,148.0
676,A3,120.005,1/200,113,148.0
677,E4,120.005,1.0,108,148.0
678,G5,120.885,1.344,121,148.0
679,C4,121.0,1.0,100,148.0
680,C4,121.0,1.0,101,148.0
681,E4,121.005,1.5,81,148.0
682,A3,121.005,1.0,73,148.0
683,G4,122.0,2.0,110,148.0
684,G4,122.0,1.0,117,148.0
685,G4,122.0,1.0,92,148.0
686,E4,122.0,1.0,92,148.0
687,A3,122.005,1.0,113,148.0
688,G4,122.005,1.5,118,148.0
689,C4,122.005,1.5,118,148.0
690,E5,122.422,77/200,103,148.0
691,E5,122.953,0.484,106,148.0
692,C4,123.0,1.0,96,148.0
693,C4,123.0,1.0,92,148.0
694,E4,123.005,1.0,81,148.0
695,A3,123.005,0.5,64,148.0
696,F#5,123.422,0.531,117,148.0
697,A3,123.505,1/200,106,148.0
698,G4,123.505,0.5,114,148.0
699,C4,123.505,0.5,114,148.0
700,G5,123.927,73/1000,114,148.0
701,G5,124.0,1.016,114,148.0
702,A4,124.0,2.0,108,148.0
703,C4,124.0,4.0,77,148.0
704,F#4,124.0,1.0,117,148.0
705,E4,124.0,1.0,106,148.0
706,A4,124.0,1.0,106,148.0
707,E4,124.005,0.5,74,148.0
708,G4,124.005,0.5,114,148.0
709,C4,124.005,0.5,114,148.0
710,A3,124.505,0.5,102,148.0
711,G4,124.505,1.0,110,148.0
712,C4,124.505,1.0,110,148.0
713,C4,125.0,1.0,99,148.0
714,C4,125.0,1.0,101,148.0
715,E4,125.005,1.5,82,148.0
716,A3,125.005,1/200,79,148.0
717,E5,125.5,69/125,105,148.0
718,G4,126.0,2.0,120,148.0
719,G4,126.0,1.0,113,148.0
720,E4,126.0,1.0,83,148.0
721,G4,126.0,1.5,101,148.0
722,A3,126.005,1.0,110,148.0
723,G4,126.005,1.5,114,148.0
724,C4,126.005,1.5,114,148.0
725,A5,126.052,99/200,108,148.0
726,G5,126.5,589/1000,114,148.0
727,C4,127.0,1.0,96,148.0
728,C4,127.0,0.5,101,148.0
729,E4,127.005,1.0,79,148.0
730,A3,127.005,0.5,79,148.0
731,F#5,127.016,0.578,109,148.0
732,A3,127.505,1/200,114,148.0
733,E5,127.583,417/1000,109,148.0
734,E5,128.0,0.953,109,148.0
735,B3,128.0,4.0,108,148.0
736,G4,128.0,4.0,120,148.0
737,G4,128.0,1.0,118,148.0
738,E-4,128.0,1.0,110,148.0
739,G4,128.0,1.0,110,148.0
740,F#4,128.005,1.0,100,148.0
741,B3,128.005,1.0,100,148.0
742,F#5,128.865,627/200,121,148.0
743,B3,129.0,1.0,95,148.0
744,B3,129.0,1.0,101,148.0
745,F#4,129.005,1.0,84,148.0
746,B3,129.005,2.0,82,148.0
747,G4,130.0,1.0,117,148.0
748,E-4,130.0,1.0,110,148.0
749,F#4,130.0,1.0,110,148.0
750,F#4,130.005,1.0,124,148.0
751,A3,130.005,1.5,114,148.0
752,B3,131.0,1.0,95,148.0
753,B3,131.0,1.0,101,148.0
754,F#4,131.005,0.812,77,148.0
755,B3,131.005,0.5,77,148.0
756,A3,131.505,0.5,108,148.0
757,B1,131.505,0.5,115,148.0
758,F#5,132.0,573/1000,121,148.0
759,B3,132.0,4.0,108,148.0
760,G4,132.0,4.0,120,148.0
761,G4,132.0,3.938,112,148.0
762,E-4,132.0,4.0,101,148.0
763,G4,132.0,4.0,101,148.0
764,B1,132.005,1.0,115,148.0
765,E5,132.911,833/1000,114,148.0
766,G5,132.911,833/1000,114,148.0
767,E5,133.922,237/250,109,148.0
768,G5,133.922,237/250,109,148.0
769,B5,134.896,839/1000,108,148.0
770,D6,134.896,839/1000,108,148.0
771,B5,135.943,57/1000,111,148.0
772,D6,135.943,57/1000,111,148.0
773,B5,136.0,2.156,111,148.0
774,D6,136.0,2.156,111,148.0
775,B3,136.0,0.5,105,148.0
776,E4,136.0,0.5,105,148.0
777,E3,136.0,0.5,105,148.0
778,C#3,136.0,0.125,109,148.0
779,C2,136.0,0.125,109,148.0
780,E4,136.005,1.5,123,148.0
781,B3,136.005,1.0,116,148.0
782,E3,136.005,1.0,116,148.0
783,C2,136.5,0.125,124,148.0
784,B3,136.5,0.5,74,148.0
785,E3,136.5,0.5,74,148.0
786,E4,137.0,1.0,85,148.0
787,B3,137.0,0.5,82,148.0
788,E3,137.0,0.5,82,148.0
789,B-2,137.0,0.125,109,148.0
790,C2,137.0,0.125,109,148.0
791,B3,137.005,1.0,78,148.0
792,E3,137.005,1.0,78,148.0
793,B3,137.5,0.5,71,148.0
794,E3,137.5,0.5,71,148.0
795,E4,138.0,0.5,98,148.0
796,B3,138.0,0.5,98,148.0
797,E3,138.0,0.5,98,148.0
798,B-2,138.0,0.125,109,148.0
799,E2,138.0,0.125,109,148.0
800,E4,138.005,1.5,124,148.0
801,B3,138.005,1.0,123,148.0
802,E3,138.005,1.0,123,148.0
803,G5,138.385,0.438,115,148.0
804,B5,138.385,0.438,115,148.0
805,B3,138.5,107/500,104,148.0
806,E4,138.5,107/500,104,148.0
807,G4,138.5,107/500,104,148.0
808,G5,138.943,411/1000,119,148.0
809,B5,138.943,411/1000,119,148.0
810,B-2,139.0,0.125,94,148.0
811,E4,139.0,107/500,100,148.0
812,B3,139.0,107/500,100,148.0
813,G4,139.0,107/500,100,148.0
814,B3,139.005,0.5,60,148.0
815,E3,139.005,0.5,60,148.0
816,G5,139.453,37/100,118,148.0
817,B5,139.453,37/100,118,148.0
818,C2,139.5,0.125,124,148.0
819,G4,139.5,107/500,100,148.0
820,E4,139.5,107/500,100,148.0
821,B3,139.5,107/500,100,148.0
822,E4,139.505,0.5,110,148.0
823,B3,139.505,0.5,110,148.0
824,E3,139.505,0.5,110,148.0
825,D6,139.948,13/250,124,148.0
826,E6,139.948,13/250,124,148.0
827,D6,140.0,0.438,124,148.0
828,E6,140.0,0.438,124,148.0
829,B-2,140.0,0.125,94,148.0
830,B3,140.0,0.5,104,148.0
831,E4,140.0,0.5,104,148.0
832,E3,140.0,0.5,104,148.0
833,C6,140.464,1.078,122,148.0
834,D6,140.464,1.078,122,148.0
835,E2,140.5,0.125,124,148.0
836,B3,140.5,0.5,75,148.0
837,E3,140.5,0.5,75,148.0
838,E4,140.505,1.0,115,148.0
839,E3,140.505,0.5,111,148.0
840,B-2,141.0,0.125,94,148.0
841,B3,141.0,0.5,84,148.0
842,E4,141.0,0.5,84,148.0
843,E3,141.0,0.5,84,148.0
844,B3,141.005,1.0,81,148.0
845,E3,141.005,1.0,81,148.0
846,B3,141.5,1.0,74,148.0
847,E3,141.5,0.5,70,148.0
848,C2,141.5,0.125,124,148.0
849,B5,141.802,349/500,124,148.0
850,D6,141.802,349/500,124,148.0
851,E4,142.0,0.5,90,148.0
852,E3,142.0,0.5,90,148.0
853,B-2,142.0,0.125,109,148.0
854,E2,142.0,0.125,109,148.0
855,E4,142.005,1.5,120,148.0
856,B3,142.005,1.0,122,148.0
857,E3,142.005,1.0,122,148.0
858,C2,142.5,0.125,124,148.0
859,B3,142.5,0.5,66,148.0
860,E3,142.5,0.5,66,148.0
861,A5,142.521,1443/1000,116,148.0
862,C6,142.521,1443/1000,116,148.0
863,B-2,143.0,0.125,94,148.0
864,B3,143.0,0.5,82,148.0
865,E4,143.0,0.5,82,148.0
866,E3,143.0,0.5,82,148.0
867,B3,143.005,0.5,74,148.0
868,E3,143.005,0.5,74,148.0
869,B3,143.5,0.5,67,148.0
870,E3,143.5,0.5,67,148.0
871,E4,143.505,0.5,113,148.0
872,E3,143.505,0.5,104,148.0
873,B3,143.505,0.5,104,148.0
874,G5,143.854,73/500,111,148.0
875,B5,143.854,73/500,111,148.0
876,G5,144.0,2167/1000,111,148.0
877,B5,144.0,2167/1000,111,148.0
878,E3,144.0,0.5,92,148.0
879,E4,144.0,1.0,108,148.0
880,G3,144.0,1.0,108,148.0
881,B-2,144.0,0.125,109,148.0
882,C2,144.0,0.125,109,148.0
883,E4,144.005,1.5,113,148.0
884,G3,144.005,1.0,96,148.0
885,E3,144.005,1.0,96,148.0
886,C4,144.005,1.0,96,148.0
887,C4,144.5,1/200,63,148.0
888,C2,144.5,0.125,124,148.0
889,G3,145.0,1.0,101,148.0
890,E4,145.0,0.5,88,148.0
891,E3,145.0,0.5,88,148.0
892,B-2,145.0,0.125,109,148.0
893,C2,145.0,0.125,109,148.0
894,E3,145.005,1.0,77,148.0
895,C4,145.005,1.0,77,148.0
896,C4,145.5,1/200,76,148.0
897,E4,146.0,0.5,100,148.0
898,G3,146.0,0.5,100,148.0
899,E3,146.0,0.5,100,148.0
900,B-2,146.0,0.125,109,148.0
901,E2,146.0,0.125,109,148.0
902,C4,146.005,1.0,113,148.0
903,E3,146.005,1.0,113,148.0
904,G3,146.005,1.5,120,148.0
905,E4,146.005,1.5,120,148.0
906,G5,146.385,99/250,115,148.0
907,B5,146.385,99/250,115,148.0
908,E4,146.5,107/500,106,148.0
909,C4,146.5,107/500,106,148.0
910,G4,146.5,107/500,106,148.0
911,G5,146.927,0.422,115,148.0
912,B5,146.927,0.422,115,148.0
913,B-2,147.0,0.125,94,148.0
914,E4,147.0,107/500,96,148.0
915,G4,147.0,107/500,96,148.0
916,C4,147.0,107/500,96,148.0
917,E3,147.005,0.5,69,148.0
918,C4,147.005,0.5,69,148.0
919,C2,147.5,0.125,124,148.0
920,E4,147.5,107/500,101,148.0
921,G4,147.5,107/500,101,148.0
922,C4,147.5,107/500,101,148.0
923,G3,147.505,0.5,113,148.0
924,E4,147.505,0.5,109,148.0
925,E3,147.505,0.5,109,148.0
926,C4,147.505,0.5,109,148.0
927,E5,147.536,58/125,105,148.0
928,G5,147.536,58/125,105,148.0
929,G5,147.547,91/500,62,148.0
930,B5,147.547,91/500,62,148.0
931,E5,148.0,0.141,105,148.0
932,G5,148.0,0.141,105,148.0
933,B-2,148.0,0.125,94,148.0
934,G3,148.0,0.5,103,148.0
935,E4,148.0,0.5,103,148.0
936,E3,148.0,0.5,103,148.0
937,E3,148.01,0.5,61,148.0
938,G3,148.01,0.5,113,148.0
939,E4,148.01,1/200,109,148.0
940,E3,148.01,1/200,109,148.0
941,C4,148.01,1/200,109,148.0
942,G5,148.078,927/1000,120,148.0
943,B5,148.078,927/1000,120,148.0
944,C4,148.5,1/200,63,148.0
945,G3,148.5,0.5,64,148.0
946,E2,148.5,0.125,124,148.0
947,G3,148.51,1.0,106,148.0
948,E4,148.51,1.0,106,148.0
949,C4,148.51,0.5,112,148.0
950,E3,148.51,0.5,112,148.0
951,E5,148.969,0.484,102,148.0
952,G5,148.969,0.484,102,148.0
953,B-2,149.0,0.125,94,148.0
954,G3,149.0,0.5,90,148.0
955,E4,149.0,0.5,90,148.0
956,E3,149.0,0.5,90,148.0
957,E3,149.01,1.0,78,148.0
958,C4,149.01,1.0,78,148.0
959,B5,149.5,241/250,112,148.0
960,D6,149.5,241/250,112,148.0
961,C4,149.5,1/200,67,148.0
962,G3,149.5,0.5,64,148.0
963,C2,149.5,0.125,124,148.0
964,G3,150.0,0.5,94,148.0
965,E4,150.0,0.5,94,148.0
966,E3,150.0,0.5,94,148.0
967,B-2,150.0,0.125,109,148.0
968,E2,150.0,0.125,109,148.0
969,G3,150.01,1.5,118,148.0
970,E4,150.01,1.5,118,148.0
971,C4,150.01,1.0,112,148.0
972,E3,150.01,1.0,112,148.0
973,C4,150.5,1/200,64,148.0
974,G3,150.5,0.5,62,148.0
975,C2,150.5,0.125,124,148.0
976,A5,150.516,0.406,112,148.0
977,C6,150.516,0.406,112,148.0
978,B-2,151.0,0.125,94,148.0
979,G3,151.0,0.5,85,148.0
980,E4,151.0,0.5,85,148.0
981,E3,151.0,0.5,85,148.0
982,E3,151.01,1.0,79,148.0
983,C4,151.01,0.5,70,148.0
984,A5,151.021,979/1000,115,148.0
985,C6,151.021,979/1000,115,148.0
986,C4,151.5,1/200,64,148.0
987,G3,151.5,0.5,67,148.0
988,E2,151.5,0.125,124,148.0
989,G3,151.51,0.5,92,148.0
990,E4,151.51,0.5,92,148.0
991,C4,151.51,0.5,92,148.0
992,A5,152.0,1.062,115,148.0
993,C6,152.0,1.062,115,148.0
994,A3,152.0,0.5,102,148.0
995,D4,152.0,0.5,102,148.0
996,D3,152.0,0.5,102,148.0
997,C#3,152.0,0.125,109,148.0
998,C2,152.0,0.125,109,148.0
999,A3,152.01,1.5,111,148.0
1000,D4,152.01,1.0,112,148.0
1001,F#3,152.01,1.0,112,148.0
1002,C2,152.5,0.125,124,148.0
1003,A3,152.5,0.5,69,148.0
1004,D3,152.5,0.5,69,148.0
1005,A3,153.0,0.5,96,148.0
1006,D4,153.0,0.5,96,148.0
1007,D3,153.0,0.5,96,148.0
1008,B-2,153.0,0.125,109,148.0
1009,C2,153.0,0.125,109,148.0
1010,D4,153.01,1.0,78,148.0
1011,F#3,153.01,1.0,78,148.0
1012,D3,153.5,0.5,82,148.0
1013,A3,153.5,0.5,82,148.0
1014,A3,154.0,0.5,100,148.0
1015,D4,154.0,0.5,100,148.0
1016,D3,154.0,0.5,100,148.0
1017,B-2,154.0,0.125,109,148.0
1018,E2,154.0,0.125,109,148.0
1019,D4,154.01,1.0,119,148.0
1020,A3,154.01,1.0,119,148.0
1021,F#3,154.01,1.0,119,148.0
1022,A5,154.391,19/50,113,148.0
1023,C6,154.391,19/50,113,148.0
1024,F#4,154.5,107/500,101,148.0
1025,A4,154.5,107/500,101,148.0
1026,D4,154.5,107/500,101,148.0
1027,A5,154.922,0.328,107,148.0
1028,C6,154.922,0.328,107,148.0
1029,B-2,155.0,0.125,94,148.0
1030,F#4,155.0,107/500,91,148.0
1031,A4,155.0,107/500,91,148.0
1032,D4,155.0,107/500,91,148.0
1033,F#3,155.01,0.5,76,148.0
1034,D4,155.01,0.5,76,148.0
1035,A5,155.401,37/100,111,148.0
1036,C6,155.401,37/100,111,148.0
1037,C2,155.5,0.125,124,148.0
1038,F#4,155.5,107/500,98,148.0
1039,A4,155.5,107/500,98,148.0
1040,D4,155.5,107/500,98,148.0
1041,F#3,155.51,0.5,108,148.0
1042,D4,155.51,0.5,108,148.0
1043,A3,155.51,0.5,108,148.0
1044,A5,155.979,21/1000,111,148.0
1045,C6,155.979,21/1000,111,148.0
1046,A5,156.0,0.891,111,148.0
1047,C6,156.0,0.891,111,148.0
1048,B-2,156.0,0.125,94,148.0
1049,A3,156.0,0.5,103,148.0
1050,D4,156.0,0.5,103,148.0
1051,D3,156.0,0.5,103,148.0
1052,F#3,156.01,0.5,64,148.0
1053,E2,156.5,0.125,124,148.0
1054,A3,156.5,0.5,72,148.0
1055,D3,156.5,0.5,72,148.0
1056,A3,156.51,1.0,108,148.0
1057,D4,156.51,0.5,112,148.0
1058,F#3,156.51,0.5,112,148.0
1059,G5,156.854,583/1000,113,148.0
1060,B5,156.854,583/1000,113,148.0
1061,B-2,157.0,0.125,94,148.0
1062,A3,157.0,0.5,90,148.0
1063,D4,157.0,0.5,90,148.0
1064,D3,157.0,0.5,90,148.0
1065,F#3,157.01,1.0,79,148.0
1066,D4,157.01,1.0,79,148.0
1067,F#5,157.427,1.031,118,148.0
1068,A5,157.427,1.031,118,148.0
1069,C2,157.5,0.125,124,148.0
1070,D3,157.5,0.5,71,148.0
1071,A3,157.5,0.5,71,148.0
1072,A3,158.0,0.5,94,148.0
1073,D4,158.0,0.5,94,148.0
1074,D3,158.0,0.5,94,148.0
1075,B-2,158.0,0.125,109,148.0
1076,E2,158.0,0.125,109,148.0
1077,A3,158.01,1.5,115,148.0
1078,D4,158.01,1.0,110,148.0
1079,F#3,158.01,1.0,110,148.0
1080,E5,158.438,1.0,120,148.0
1081,G5,158.438,1.0,120,148.0
1082,C2,158.5,0.125,124,148.0
1083,A3,158.5,0.5,70,148.0
1084,D3,158.5,0.5,70,148.0
1085,D4,159.0,1.0,93,148.0
1086,B-2,159.0,0.125,94,148.0
1087,A3,159.0,0.5,94,148.0
1088,D3,159.0,0.5,94,148.0
1089,F#3,159.01,0.5,80,148.0
1090,D4,159.01,1.0,79,148.0
1091,E-5,159.474,263/500,121,148.0
1092,F#5,159.474,263/500,121,148.0
1093,A3,159.5,0.5,84,148.0
1094,D3,159.5,0.5,84,148.0
1095,F#3,159.51,0.5,76,148.0
1096,A3,159.51,0.5,76,148.0
1097,E-5,160.0,4.0,121,148.0
1098,F#5,160.0,4.0,121,148.0
1099,B3,160.0,1.0,106,148.0
1100,F#3,160.0,0.5,104,148.0
1101,B2,160.0,0.5,104,148.0
1102,C#3,160.0,0.125,109,148.0
1103,C2,160.0,0.125,109,148.0
1104,A3,160.01,1.5,112,148.0
1105,E-4,160.01,1.0,102,148.0
1106,F#3,160.01,1.0,102,148.0
1107,C2,160.5,0.125,124,148.0
1108,F#3,160.5,0.5,59,148.0
1109,B2,160.5,0.5,59,148.0
1110,B3,161.0,1.0,82,148.0
1111,F#3,161.0,0.5,74,148.0
1112,B2,161.0,0.5,74,148.0
1113,B-2,161.0,0.125,109,148.0
1114,C2,161.0,0.125,109,148.0
1115,E-4,161.01,1.0,80,148.0
1116,F#3,161.01,1.0,80,148.0
1117,F#3,161.5,0.5,62,148.0
1118,B2,161.5,0.5,62,148.0
1119,B3,162.0,1.0,101,148.0
1120,F#3,162.0,0.5,105,148.0
1121,B2,162.0,0.5,105,148.0
1122,B-2,162.0,0.125,109,148.0
1123,E2,162.0,0.125,109,148.0
1124,A3,162.01,1.5,113,148.0
1125,E-4,162.01,1.0,119,148.0
1126,F#3,162.01,1.0,119,148.0
1127,F#3,162.5,1.0,50,148.0
1128,B2,162.5,0.5,45,148.0
1129,B3,163.0,1.0,78,148.0
1130,B2,163.0,0.5,83,148.0
1131,C2,163.0,0.125,109,148.0
1132,B-2,163.0,0.125,109,148.0
1133,E-4,163.01,0.5,63,148.0
1134,F#3,163.01,0.5,63,148.0
1135,C2,163.5,0.125,124,148.0
1136,F#3,163.5,0.5,50,148.0
1137,B2,163.5,0.5,50,148.0
1138,A3,163.51,0.5,115,148.0
1139,E-4,163.51,0.5,104,148.0
1140,F#3,163.51,0.5,104,148.0
1141,E-5,164.0,167/1000,121,148.0
1142,F#5,164.0,167/1000,121,148.0
1143,B3,164.0,1.0,97,148.0
1144,B-2,164.0,0.125,94,148.0
1145,F#3,164.0,0.5,97,148.0
1146,B2,164.0,0.5,97,148.0
1147,F#3,164.01,0.5,56,148.0
1148,A3,164.01,0.5,115,148.0
1149,F#3,164.5,1.0,48,148.0
1150,B2,164.5,0.5,48,148.0
1151,E2,164.5,0.125,124,148.0
1152,A3,164.51,1.5,93,148.0
1153,E-4,164.51,0.5,110,148.0
1154,F#3,164.51,0.5,110,148.0
1155,E-5,164.906,0.469,118,148.0
1156,F#5,164.906,0.469,118,148.0
1157,B3,165.0,1.0,68,148.0
1158,B2,165.0,0.5,70,148.0
1159,C2,165.0,0.125,109,148.0
1160,B-2,165.0,0.125,109,148.0
1161,E-4,165.01,1.0,81,148.0
1162,F#3,165.01,1.0,81,148.0
1163,E-5,165.5,729/1000,124,148.0
1164,F#5,165.5,729/1000,124,148.0
1165,C2,165.5,0.125,124,148.0
1166,F#3,165.5,0.5,56,148.0
1167,B2,165.5,0.5,56,148.0
1168,B3,166.0,1.0,94,148.0
1169,F#3,166.0,0.5,96,148.0
1170,B2,166.0,0.5,96,148.0
1171,B-2,166.0,0.125,109,148.0
1172,E2,166.0,0.125,109,148.0
1173,A3,166.01,1.5,113,148.0
1174,E-4,166.01,1.0,112,148.0
1175,F#3,166.01,1.0,112,148.0
1176,F#3,166.5,1.0,53,148.0
1177,B2,166.5,0.5,54,148.0
1178,E2,166.75,0.125,124,148.0
1179,B3,167.0,1.0,79,148.0
1180,B2,167.0,0.5,84,148.0
1181,E2,167.0,0.125,124,148.0
1182,E-4,167.01,0.5,68,148.0
1183,F#3,167.01,0.5,68,148.0
1184,G5,167.062,771/1000,122,148.0
1185,B5,167.062,771/1000,122,148.0
1186,E2,167.25,0.125,124,148.0
1187,F2,167.5,0.125,117,148.0
1188,F#3,167.5,0.5,54,148.0
1189,B2,167.5,0.5,54,148.0
1190,E-4,167.51,0.5,105,148.0
1191,F#3,167.51,0.5,105,148.0
1192,A3,167.51,0.5,105,148.0
1193,F2,167.75,0.125,117,148.0
1194,B3,168.0,0.5,105,148.0
1195,E4,168.0,0.5,105,148.0
1196,E3,168.0,0.5,105,148.0
1197,C#3,168.0,0.125,109,148.0
1198,C2,168.0,0.125,109,148.0
1199,E4,168.01,1.5,123,148.0
1200,B3,168.01,1.0,116,148.0
1201,E3,168.01,1.0,116,148.0
1202,G5,168.016,276/125,116,148.0
1203,B5,168.016,276/125,116,148.0
1204,C2,168.5,0.125,124,148.0
1205,B3,168.5,0.5,74,148.0
1206,E3,168.5,0.5,74,148.0
1207,E4,169.0,1.0,85,148.0
1208,B3,169.0,0.5,82,148.0
1209,E3,169.0,0.5,82,148.0
1210,B-2,169.0,0.125,109,148.0
1211,C2,169.0,0.125,109,148.0
1212,B3,169.01,1.0,78,148.0
1213,E3,169.01,1.0,78,148.0
1214,B3,169.5,0.5,71,148.0
1215,E3,169.5,0.5,71,148.0
1216,E4,170.0,0.5,98,148.0
1217,B3,170.0,0.5,98,148.0
1218,E3,170.0,0.5,98,148.0
1219,B-2,170.0,0.125,109,148.0
1220,E2,170.0,0.125,109,148.0
1221,E4,170.01,1.5,124,148.0
1222,B3,170.01,1.0,123,148.0
1223,E3,170.01,1.0,123,148.0
1224,E5,170.464,411/1000,112,148.0
1225,G5,170.464,411/1000,112,148.0
1226,B3,170.5,107/500,104,148.0
1227,E4,170.5,107/500,104,148.0
1228,G4,170.5,107/500,104,148.0
1229,B-2,171.0,0.125,94,148.0
1230,E4,171.0,107/500,100,148.0
1231,B3,171.0,107/500,100,148.0
1232,G4,171.0,107/500,100,148.0
1233,E5,171.01,73/250,115,148.0
1234,G5,171.01,73/250,115,148.0
1235,B3,171.01,0.5,60,148.0
1236,E3,171.01,0.5,60,148.0
1237,E5,171.458,49/100,106,148.0
1238,G5,171.458,49/100,106,148.0
1239,C2,171.5,0.125,124,148.0
1240,G4,171.5,107/500,100,148.0
1241,E4,171.5,107/500,100,148.0
1242,B3,171.5,107/500,100,148.0
1243,E4,171.51,0.5,110,148.0
1244,B3,171.51,0.5,110,148.0
1245,E3,171.51,0.5,110,148.0
1246,A5,171.943,57/1000,113,148.0
1247,C6,171.943,57/1000,113,148.0
1248,A5,172.0,49/100,113,148.0
1249,C6,172.0,49/100,113,148.0
1250,B-2,172.0,0.125,94,148.0
1251,B3,172.0,0.5,104,148.0
1252,E4,172.0,0.5,104,148.0
1253,E3,172.0,0.5,104,148.0
1254,E2,172.5,0.125,124,148.0
1255,B3,172.5,0.5,75,148.0
1256,E3,172.5,0.5,75,148.0
1257,G5,172.505,1167/1000,115,148.0
1258,B5,172.505,1167/1000,115,148.0
1259,E4,172.51,1.0,115,148.0
1260,E3,172.51,0.5,111,148.0
1261,B-2,173.0,0.125,94,148.0
1262,B3,173.0,0.5,84,148.0
1263,E4,173.0,0.5,84,148.0
1264,E3,173.0,0.5,84,148.0
1265,B3,173.01,1.0,81,148.0
1266,E3,173.01,1.0,81,148.0
1267,B3,173.5,1.0,74,148.0
1268,E3,173.5,0.5,70,148.0
1269,C2,173.5,0.125,124,148.0
1270,F#5,173.589,1021/1000,119,148.0
1271,A5,173.589,1021/1000,119,148.0
1272,E4,174.0,0.5,90,148.0
1273,E3,174.0,0.5,90,148.0
1274,B-2,174.0,0.125,109,148.0
1275,E2,174.0,0.125,109,148.0
1276,E4,174.01,1.5,120,148.0
1277,B3,174.01,1.0,122,148.0
1278,E3,174.01,1.0,122,148.0
1279,C2,174.5,0.125,124,148.0
1280,B3,174.5,0.5,66,148.0
1281,E3,174.5,0.5,66,148.0
1282,G5,174.516,1193/1000,115,148.0
1283,B5,174.516,1193/1000,115,148.0
1284,B-2,175.0,0.125,94,148.0
1285,B3,175.0,0.5,82,148.0
1286,E4,175.0,0.5,82,148.0
1287,E3,175.0,0.5,82,148.0
1288,B3,175.01,0.5,74,148.0
1289,E3,175.01,0.5,74,148.0
1290,B3,175.5,0.5,67,148.0
1291,E3,175.5,0.5,67,148.0
1292,E4,175.51,0.5,113,148.0
1293,E3,175.51,0.5,104,148.0
1294,B3,175.51,0.5,104,148.0
1295,C5,175.589,411/1000,106,148.0
1296,E5,175.589,411/1000,106,148.0
1297,C5,176.0,1.922,106,148.0
1298,E5,176.0,1.922,106,148.0
1299,E3,176.0,0.5,92,148.0
1300,E4,176.0,1.0,108,148.0
1301,G3,176.0,1.0,108,148.0
1302,B-2,176.0,0.125,109,148.0
1303,C2,176.0,0.125,109,148.0
1304,E4,176.01,1.5,113,148.0
1305,G3,176.01,1.0,96,148.0
1306,E3,176.01,1.0,96,148.0
1307,C4,176.01,1.0,96,148.0
1308,C4,176.5,1/200,63,148.0
1309,C2,176.5,0.125,124,148.0
1310,G3,177.0,1.0,101,148.0
1311,E4,177.0,0.5,88,148.0
1312,E3,177.0,0.5,88,148.0
1313,B-2,177.0,0.125,109,148.0
1314,C2,177.0,0.125,109,148.0
1315,E3,177.01,1.0,77,148.0
1316,C4,177.01,1.0,77,148.0
1317,C4,177.5,1/200,76,148.0
1318,E4,178.0,0.5,100,148.0
1319,G3,178.0,0.5,100,148.0
1320,E3,178.0,0.5,100,148.0
1321,B-2,178.0,0.125,109,148.0
1322,E2,178.0,0.125,109,148.0
1323,C4,178.01,1.0,113,148.0
1324,E3,178.01,1.0,113,148.0
1325,G3,178.01,1.5,120,148.0
1326,E4,178.01,1.5,120,148.0
1327,E5,178.469,77/200,111,148.0
1328,G5,178.469,77/200,111,148.0
1329,E4,178.5,107/500,106,148.0
1330,C4,178.5,107/500,106,148.0
1331,G4,178.5,107/500,106,148.0
1332,E5,178.99,323/1000,116,148.0
1333,G5,178.99,323/1000,116,148.0
1334,B-2,179.0,0.125,94,148.0
1335,E4,179.0,107/500,96,148.0
1336,G4,179.0,107/500,96,148.0
1337,C4,179.0,107/500,96,148.0
1338,E3,179.01,0.5,69,148.0
1339,C4,179.01,0.5,69,148.0
1340,E5,179.438,69/125,113,148.0
1341,G5,179.438,69/125,113,148.0
1342,C2,179.5,0.125,124,148.0
1343,E4,179.5,107/500,101,148.0
1344,G4,179.5,107/500,101,148.0
1345,C4,179.5,107/500,101,148.0
1346,G3,179.51,0.5,113,148.0
1347,E4,179.51,0.5,109,148.0
1348,E3,179.51,0.5,109,148.0
1349,C4,179.51,0.5,109,148.0
1350,G5,180.0,22/25,115,148.0
1351,B5,180.0,22/25,115,148.0
1352,B-2,180.0,0.125,94,148.0
1353,G3,180.0,0.5,103,148.0
1354,E4,180.0,0.5,103,148.0
1355,E3,180.0,0.5,103,148.0
1356,E3,180.016,0.5,61,148.0
1357,G3,180.016,0.5,113,148.0
1358,E4,180.016,1/200,109,148.0
1359,E3,180.016,1/200,109,148.0
1360,C4,180.016,1/200,109,148.0
1361,C4,180.5,1/200,63,148.0
1362,G3,180.5,0.5,64,148.0
1363,E2,180.5,0.125,124,148.0
1364,G3,180.516,1.0,106,148.0
1365,E4,180.516,1.0,106,148.0
1366,C4,180.516,0.5,112,148.0
1367,E3,180.516,0.5,112,148.0
1368,E5,180.922,443/1000,104,148.0
1369,G5,180.922,443/1000,104,148.0
1370,B-2,181.0,0.125,94,148.0
1371,G3,181.0,0.5,90,148.0
1372,E4,181.0,0.5,90,148.0
1373,E3,181.0,0.5,90,148.0
1374,E3,181.016,1.0,78,148.0
1375,C4,181.016,1.0,78,148.0
1376,B5,181.417,0.922,113,148.0
1377,D6,181.417,0.922,113,148.0
1378,C4,181.5,1/200,67,148.0
1379,G3,181.5,0.5,64,148.0
1380,C2,181.5,0.125,124,148.0
1381,G3,182.0,0.5,94,148.0
1382,E4,182.0,0.5,94,148.0
1383,E3,182.0,0.5,94,148.0
1384,B-2,182.0,0.125,109,148.0
1385,E2,182.0,0.125,109,148.0
1386,G3,182.016,1.5,118,148.0
1387,E4,182.016,1.5,118,148.0
1388,C4,182.016,1.0,112,148.0
1389,E3,182.016,1.0,112,148.0
1390,A5,182.453,0.453,113,148.0
1391,C6,182.453,0.453,113,148.0
1392,C4,182.5,1/200,64,148.0
1393,G3,182.5,0.5,62,148.0
1394,C2,182.5,0.125,124,148.0
1395,B-2,183.0,0.125,94,148.0
1396,G3,183.0,0.5,85,148.0
1397,E4,183.0,0.5,85,148.0
1398,E3,183.0,0.5,85,148.0
1399,A5,183.01,99/100,122,148.0
1400,C6,183.01,99/100,122,148.0
1401,E3,183.016,1.0,79,148.0
1402,C4,183.016,0.5,70,148.0
1403,C4,183.5,1/200,64,148.0
1404,G3,183.5,0.5,67,148.0
1405,G3,183.516,0.5,92,148.0
1406,E4,183.516,0.5,92,148.0
1407,C4,183.516,0.5,92,148.0
1408,A5,184.0,2073/1000,122,148.0
1409,C6,184.0,2073/1000,122,148.0
1410,A3,184.0,0.5,102,148.0
1411,D4,184.0,0.5,102,148.0
1412,D3,184.0,0.5,102,148.0
1413,C#3,184.0,0.125,109,148.0
1414,C2,184.0,0.125,109,148.0
1415,A3,184.016,1.5,111,148.0
1416,D4,184.016,1.0,112,148.0
1417,F#3,184.016,1.0,112,148.0
1418,C2,184.5,0.125,124,148.0
1419,A3,184.5,0.5,69,148.0
1420,D3,184.5,0.5,69,148.0
1421,A3,185.0,0.5,96,148.0
1422,D4,185.0,0.5,96,148.0
1423,D3,185.0,0.5,96,148.0
1424,B-2,185.0,0.125,109,148.0
1425,C2,185.0,0.125,109,148.0
1426,D4,185.016,1.0,78,148.0
1427,F#3,185.016,1.0,78,148.0
1428,D3,185.5,0.5,82,148.0
1429,A3,185.5,0.5,82,148.0
1430,A3,186.0,0.5,100,148.0
1431,D4,186.0,0.5,100,148.0
1432,D3,186.0,0.5,100,148.0
1433,B-2,186.0,0.125,109,148.0
1434,E2,186.0,0.125,109,148.0
1435,D4,186.016,1.0,119,148.0
1436,A3,186.016,1.0,119,148.0
1437,F#3,186.016,1.0,119,148.0
1438,F#4,186.5,107/500,101,148.0
1439,A4,186.5,107/500,101,148.0
1440,D4,186.5,107/500,101,148.0
1441,A5,186.516,37/100,111,148.0
1442,C6,186.516,37/100,111,148.0
1443,B-2,187.0,0.125,94,148.0
1444,F#4,187.0,107/500,91,148.0
1445,A4,187.0,107/500,91,148.0
1446,D4,187.0,107/500,91,148.0
1447,F#3,187.016,0.5,76,148.0
1448,D4,187.016,0.5,76,148.0
1449,A5,187.036,0.344,109,148.0
1450,C6,187.036,0.344,109,148.0
1451,C2,187.5,0.125,124,148.0
1452,F#4,187.5,107/500,98,148.0
1453,A4,187.5,107/500,98,148.0
1454,D4,187.5,107/500,98,148.0
1455,A5,187.516,0.344,108,148.0
1456,C6,187.516,0.344,108,148.0
1457,F#3,187.516,0.5,108,148.0
1458,D4,187.516,0.5,108,148.0
1459,A3,187.516,0.5,108,148.0
1460,B-2,188.0,0.125,94,148.0
1461,A3,188.0,0.5,103,148.0
1462,D4,188.0,0.5,103,148.0
1463,D3,188.0,0.5,103,148.0
1464,F#3,188.016,0.5,64,148.0
1465,A5,188.036,901/1000,110,148.0
1466,C6,188.036,901/1000,110,148.0
1467,E2,188.5,0.125,124,148.0
1468,A3,188.5,0.5,72,148.0
1469,D3,188.5,0.5,72,148.0
1470,A3,188.516,1.0,108,148.0
1471,D4,188.516,0.5,112,148.0
1472,F#3,188.516,0.5,112,148.0
1473,G5,188.927,0.578,110,148.0
1474,B5,188.927,0.578,110,148.0
1475,B-2,189.0,0.125,94,148.0
1476,A3,189.0,0.5,90,148.0
1477,D4,189.0,0.5,90,148.0
1478,D3,189.0,0.5,90,148.0
1479,F#3,189.016,1.0,79,148.0
1480,D4,189.016,1.0,79,148.0
1481,C2,189.5,0.125,124,148.0
1482,D3,189.5,0.5,71,148.0
1483,A3,189.5,0.5,71,148.0
1484,F#5,189.521,301/200,119,148.0
1485,A5,189.521,301/200,119,148.0
1486,A3,190.0,0.5,94,148.0
1487,D4,190.0,0.5,94,148.0
1488,D3,190.0,0.5,94,148.0
1489,B-2,190.0,0.125,109,148.0
1490,E2,190.0,0.125,109,148.0
1491,A3,190.016,1.5,115,148.0
1492,D4,190.016,1.0,110,148.0
1493,F#3,190.016,1.0,110,148.0
1494,C2,190.5,0.125,124,148.0
1495,A3,190.5,0.5,70,148.0
1496,D3,190.5,0.5,70,148.0
1497,E5,190.979,0.578,117,148.0
1498,G5,190.979,0.578,117,148.0
1499,D4,191.0,1.0,93,148.0
1500,B-2,191.0,0.125,94,148.0
1501,A3,191.0,0.5,94,148.0
1502,D3,191.0,0.5,94,148.0
1503,F#3,191.016,0.5,80,148.0
1504,D4,191.016,1.0,79,148.0
1505,A3,191.5,0.5,84,148.0
1506,D3,191.5,0.5,84,148.0
1507,E-5,191.51,49/100,118,148.0
1508,F#5,191.51,49/100,118,148.0
1509,F#3,191.516,0.5,76,148.0
1510,A3,191.516,0.5,76,148.0
1511,E-5,192.0,583/1000,118,148.0
1512,F#5,192.0,583/1000,118,148.0
1513,B3,192.0,1.0,106,148.0
1514,F#3,192.0,0.5,104,148.0
1515,B2,192.0,0.5,104,148.0
1516,C#3,192.0,0.125,109,148.0
1517,C2,192.0,0.125,109,148.0
1518,A3,192.016,1.5,112,148.0
1519,E-4,192.016,1.0,102,148.0
1520,F#3,192.016,1.0,102,148.0
1521,F#3,192.5,0.5,59,148.0
1522,B2,192.5,0.5,59,148.0
1523,C5,192.922,677/1000,111,148.0
1524,E5,192.922,677/1000,111,148.0
1525,B3,193.0,1.0,82,148.0
1526,F#3,193.0,0.5,74,148.0
1527,B2,193.0,0.5,74,148.0
1528,B-2,193.0,0.125,109,148.0
1529,C2,193.0,0.125,109,148.0
1530,E-4,193.016,1.0,80,148.0
1531,F#3,193.016,1.0,80,148.0
1532,C2,193.5,0.125,124,148.0
1533,F#3,193.5,0.5,62,148.0
1534,B2,193.5,0.5,62,148.0
1535,B4,193.516,2.484,112,148.0
1536,E-5,193.516,2.484,112,148.0
1537,B3,194.0,1.0,101,148.0
1538,F#3,194.0,0.5,105,148.0
1539,B2,194.0,0.5,105,148.0
1540,E3,194.0,0.125,120,148.0
1541,E2,194.0,0.125,120,148.0
1542,A3,194.016,1.5,113,148.0
1543,E-4,194.016,1.0,119,148.0
1544,F#3,194.016,1.0,119,148.0
1545,F#3,194.5,1.0,50,148.0
1546,B2,194.5,0.5,45,148.0
1547,B3,195.0,1.0,78,148.0
1548,B2,195.0,0.5,83,148.0
1549,C2,195.0,0.125,109,148.0
1550,B-2,195.0,0.125,109,148.0
1551,E-4,195.016,0.5,63,148.0
1552,F#3,195.016,0.5,63,148.0
1553,C2,195.5,0.125,124,148.0
1554,F#3,195.5,0.5,50,148.0
1555,B2,195.5,0.5,50,148.0
1556,A3,195.516,0.5,115,148.0
1557,E-4,195.516,0.5,104,148.0
1558,F#3,195.516,0.5,104,148.0
1559,B4,196.0,153/125,112,148.0
1560,E-5,196.0,153/125,112,148.0
1561,B3,196.0,1.0,97,148.0
1562,B-2,196.0,0.125,94,148.0
1563,F#3,196.0,0.5,97,148.0
1564,B2,196.0,0.5,97,148.0
1565,F#3,196.016,0.5,56,148.0
1566,A3,196.016,0.5,115,148.0
1567,F#3,196.5,1.0,48,148.0
1568,B2,196.5,0.5,48,148.0
1569,E2,196.5,0.125,124,148.0
1570,A3,196.516,1.5,93,148.0
1571,E-4,196.516,0.5,110,148.0
1572,F#3,196.516,0.5,110,148.0
1573,B3,197.0,1.0,68,148.0
1574,B2,197.0,0.5,70,148.0
1575,C2,197.0,0.125,109,148.0
1576,B-2,197.0,0.125,109,148.0
1577,E-4,197.016,1.0,81,148.0
1578,F#3,197.016,1.0,81,148.0
1579,C2,197.5,0.125,124,148.0
1580,F#3,197.5,0.5,56,148.0
1581,B2,197.5,0.5,56,148.0
1582,B3,198.0,1.0,94,148.0
1583,F#3,198.0,0.5,96,148.0
1584,B2,198.0,0.5,96,148.0
1585,E3,198.0,0.125,120,148.0
1586,E2,198.0,0.125,120,148.0
1587,A3,198.016,1.5,113,148.0
1588,E-4,198.016,1.0,112,148.0
1589,F#3,198.016,1.0,112,148.0
1590,F#5,198.036,31/50,122,148.0
1591,F#3,198.5,1.0,53,148.0
1592,B2,198.5,0.5,54,148.0
1593,C2,198.5,0.125,124,148.0
1594,G5,198.583,479/1000,115,148.0
1595,B3,199.0,1.0,79,148.0
1596,B2,199.0,0.5,84,148.0
1597,G2,199.0,0.125,106,148.0
1598,B-2,199.0,0.125,106,148.0
1599,E-4,199.016,0.5,68,148.0
1600,F#3,199.016,0.5,68,148.0
1601,E5,199.135,173/200,115,148.0
1602,F#3,199.5,0.5,54,148.0
1603,B2,199.5,0.5,54,148.0
1604,E-4,199.516,0.5,105,148.0
1605,F#3,199.516,0.5,105,148.0
1606,A3,199.516,0.5,105,148.0
1607,E5,200.0,4.0,115,148.0
1608,E3,200.0,4.0,111,148.0
1609,B2,200.0,4.0,106,148.0
1610,E2,200.0,4.0,106,148.0
1611,C#3,200.0,0.125,109,148.0
1612,C2,200.0,0.125,109,148.0
1613,G4,200.016,1.0,114,148.0
1614,E4,200.016,1.0,114,148.0
1615,B3,200.016,1.0,114,148.0
1616,F#2,201.0,0.125,94,148.0
1617,B3,201.016,1.0,75,148.0
1618,G4,201.016,1.0,75,148.0
1619,E4,201.016,1.0,75,148.0
1620,F#2,202.0,0.125,109,148.0
1621,D2,202.0,0.125,109,148.0
1622,G4,202.016,1.0,114,148.0
1623,E4,202.016,1.0,114,148.0
1624,B3,202.016,1.0,114,148.0
1625,F#2,203.0,0.125,94,148.0
1626,B3,203.016,0.5,66,148.0
1627,G4,203.016,0.5,66,148.0
1628,E4,203.016,0.5,66,148.0
1629,E4,203.516,0.5,111,148.0
1630,G4,203.516,0.5,111,148.0
1631,B3,203.516,0.5,111,148.0
1632,E5,204.0,13/125,115,148.0
1633,F#2,204.0,0.125,94,148.0
1634,B3,204.016,0.5,81,148.0
1635,B3,204.516,0.5,110,148.0
1636,G4,204.516,0.5,110,148.0
1637,F#2,205.0,0.125,94,148.0
1638,B3,205.016,1.0,74,148.0
1639,E4,205.016,1.0,74,148.0
1640,G4,205.016,1.0,74,148.0
1641,D2,206.0,0.125,109,148.0
1642,F#2,206.0,0.125,109,148.0
1643,E4,206.016,1.0,110,148.0
1644,G4,206.016,1.0,110,148.0
1645,B3,206.016,1.0,110,148.0
1646,E3,207.0,4.0,111,148.0
1647,F#2,207.0,0.125,94,148.0
1648,B2,207.0,3.0,106,148.0
1649,E2,207.0,3.0,106,148.0
1650,G4,207.016,0.5,68,148.0
1651,E4,207.016,0.5,68,148.0
1652,B3,207.016,0.5,68,148.0
1653,B3,207.516,0.5,108,148.0
1654,G4,207.516,0.5,108,148.0
1655,E4,207.516,0.5,108,148.0
1656,C2,208.0,0.125,109,148.0
1657,F#2,208.0,0.125,109,148.0
1658,C4,208.021,1.0,113,148.0
1659,B3,208.021,1/200,108,148.0
1660,G4,208.021,1/200,108,148.0
1661,E4,208.021,1/200,108,148.0
1662,F#2,209.0,0.125,94,148.0
1663,G4,209.021,0.5,82,148.0
1664,C4,209.021,1.0,75,148.0
1665,F#2,210.0,0.125,109,148.0
1666,D2,210.0,0.125,109,148.0
1667,E4,210.021,1.5,118,148.0
1668,G4,210.021,0.5,115,148.0
1669,C4,210.021,1.0,113,148.0
1670,E3,211.0,0.5,111,148.0
1671,C2,211.0,4.0,109,148.0
1672,C3,211.0,4.0,109,148.0
1673,F#2,211.0,0.125,109,148.0
1674,D2,211.0,0.125,109,148.0
1675,G4,211.021,0.5,68,148.0
1676,C4,211.021,0.5,68,148.0
1677,E4,211.521,0.5,111,148.0
1678,G4,211.521,0.5,111,148.0
1679,C4,211.521,0.5,111,148.0
1680,F#2,212.0,0.125,94,148.0
1681,E4,212.021,0.5,111,148.0
1682,G4,212.021,0.5,68,148.0
1683,C4,212.021,0.5,68,148.0
1684,E3,212.5,2.5,109,148.0
1685,E4,212.521,1.0,100,148.0
1686,G4,212.521,0.5,106,148.0
1687,C4,212.521,0.5,106,148.0
1688,F#2,213.0,0.125,94,148.0
1689,C4,213.021,1.0,78,148.0
1690,G4,213.021,1.0,78,148.0
1691,B3,214.0,1.0,109,148.0
1692,F#2,214.0,0.125,109,148.0
1693,D2,214.0,0.125,109,148.0
1694,E4,214.021,1.5,115,148.0
1695,C4,214.021,1.0,112,148.0
1696,G4,214.021,1.0,112,148.0
1697,C2,214.5,0.125,124,148.0
1698,G2,215.0,0.125,117,148.0
1699,G4,215.021,0.5,77,148.0
1700,C4,215.021,0.5,77,148.0
1701,F2,215.5,0.125,117,148.0
1702,E4,215.521,0.5,108,148.0
1703,G4,215.521,0.5,114,148.0
1704,C4,215.521,0.5,114,148.0
1705,F2,215.667,0.125,117,148.0
1706,F2,215.833,0.125,117,148.0
1707,F#4,216.0,1.0,115,148.0
1708,F#2,216.0,0.125,112,148.0
1709,F2,216.0,0.125,112,148.0
1710,C2,216.0,0.125,112,148.0
1711,E3,216.021,4.0,115,148.0
1712,B3,216.021,4.0,114,148.0
1713,E4,216.021,1.5,108,148.0
1714,E4,217.0,1.0,99,148.0
1715,F#2,217.0,0.125,94,148.0
1716,A4,217.438,0.5,109,148.0
1717,B4,217.969,112/125,109,148.0
1718,G4,218.0,1.0,109,148.0
1719,B3,218.0,2.0,104,148.0
1720,E4,218.0,2.0,104,148.0
1721,G4,218.0,2.0,104,148.0
1722,D2,218.0,0.125,109,148.0
1723,F#2,218.0,0.125,109,148.0
1724,A4,218.917,323/500,91,148.0
1725,E4,219.0,1.0,91,148.0
1726,E3,219.0,4.0,109,148.0
1727,B3,219.0,4.0,109,148.0
1728,F#2,219.0,0.125,94,148.0
1729,C2,219.0,4.0,109,148.0
1730,C3,219.0,4.0,109,148.0
1731,B4,219.604,99/250,110,148.0
1732,B4,220.0,123/200,110,148.0
1733,F#4,220.0,1.0,111,148.0
1734,F#2,220.0,0.125,94,148.0
1735,B3,220.0,3.0,104,148.0
1736,E4,220.0,3.0,104,148.0
1737,G4,220.0,3.0,104,148.0
1738,E3,220.021,4.0,115,148.0
1739,B3,220.021,4.0,114,148.0
1740,A4,220.99,0.625,96,148.0
1741,E4,221.0,1.0,90,148.0
1742,F#2,221.0,0.125,94,148.0
1743,B4,221.516,901/1000,107,148.0
1744,G4,222.0,1.0,109,148.0
1745,F#2,222.0,0.125,109,148.0
1746,D2,222.0,0.125,109,148.0
1747,D5,222.391,0.531,104,148.0
1748,C5,222.964,259/250,104,148.0
1749,E4,223.0,0.5,92,148.0
1750,F#2,223.0,0.125,94,148.0
1751,C5,224.0,1401/1000,104,148.0
1752,F#4,224.0,1.0,108,148.0
1753,F#2,224.0,0.125,109,148.0
1754,C2,224.0,0.125,109,148.0
1755,E3,224.021,0.5,115,148.0
1756,E4,225.0,1.0,90,148.0
1757,F#2,225.0,0.125,94,148.0
1758,C5,225.51,0.359,107,148.0
1759,G4,226.0,1.0,107,148.0
1760,E4,226.0,2.0,116,148.0
1761,C4,226.0,2.0,116,148.0
1762,G4,226.0,2.0,116,148.0
1763,F#2,226.0,0.125,109,148.0
1764,D2,226.0,0.125,109,148.0
1765,C5,226.031,667/1000,104,148.0
1766,E4,227.0,0.5,88,148.0
1767,F#2,227.0,0.125,94,148.0
1768,B4,227.042,151/250,112,148.0
1769,C5,227.599,401/1000,118,148.0
1770,C5,228.0,0.609,118,148.0
1771,F#4,228.0,1.0,109,148.0
1772,F#2,228.0,0.125,94,148.0
1773,E4,228.0,3.0,116,148.0
1774,C4,228.0,3.0,116,148.0
1775,G4,228.0,3.0,116,148.0
1776,B4,228.625,729/500,118,148.0
1777,E4,229.0,1.0,90,148.0
1778,F#2,229.0,0.125,94,148.0
1779,D2,229.667,0.125,124,148.0
1780,D2,229.833,0.125,124,148.0
1781,G4,230.0,1.0,110,148.0
1782,F#2,230.0,0.125,109,148.0
1783,D2,230.0,0.125,109,148.0
1784,D5,230.37,341/500,112,148.0
1785,D2,230.5,0.125,124,148.0
1786,E4,231.0,1.0,95,148.0
1787,F#2,231.0,0.125,94,148.0
1788,B4,231.026,0.578,112,148.0
1789,A4,231.469,0.531,118,148.0
1790,D2,231.5,0.125,124,148.0
1791,A4,232.0,2.0,118,148.0
1792,F#4,232.0,1.0,108,148.0
1793,C#3,232.0,0.125,109,148.0
1794,C2,232.0,0.125,109,148.0
1795,C4,232.021,1.5,107,148.0
1796,A3,232.021,1/200,113,148.0
1797,E4,233.0,1.0,94,148.0
1798,B-2,233.0,0.125,109,148.0
1799,C2,233.0,0.125,109,148.0
1800,E4,233.021,1.5,81,148.0
1801,A3,233.021,1.0,73,148.0
1802,A4,234.0,1.0,107,148.0
1803,E4,234.0,2.0,112,148.0
1804,C4,234.0,2.0,112,148.0
1805,G4,234.0,2.0,112,148.0
1806,E2,234.0,0.125,109,148.0
1807,B-2,234.0,0.125,109,148.0
1808,A3,234.021,1.0,113,148.0
1809,G4,234.021,1.5,118,148.0
1810,C4,234.021,1.5,118,148.0
1811,A4,234.568,37/100,107,148.0
1812,E4,235.0,1.0,96,148.0
1813,B-2,235.0,0.125,94,148.0
1814,E4,235.021,1.0,81,148.0
1815,A3,235.021,0.5,64,148.0
1816,A4,235.089,19/50,113,148.0
1817,C2,235.5,0.125,124,148.0
1818,A3,235.521,1/200,106,148.0
1819,G4,235.521,0.5,114,148.0
1820,C4,235.521,0.5,114,148.0
1821,A4,235.609,0.391,116,148.0
1822,A4,236.0,0.016,116,148.0
1823,F#4,236.0,1.0,108,148.0
1824,B-2,236.0,0.125,94,148.0
1825,E4,236.0,3.062,112,148.0
1826,C4,236.0,3.062,112,148.0
1827,G4,236.0,3.062,112,148.0
1828,E4,236.021,0.5,74,148.0
1829,G4,236.021,0.5,114,148.0
1830,C4,236.021,0.5,114,148.0
1831,A4,236.151,1.0,116,148.0
1832,A3,236.521,0.5,102,148.0
1833,G4,236.521,1.0,110,148.0
1834,C4,236.521,1.0,110,148.0
1835,E4,237.0,1.0,95,148.0
1836,B-2,237.0,0.125,109,148.0
1837,C2,237.0,0.125,109,148.0
1838,E4,237.021,1.5,82,148.0
1839,A3,237.021,1/200,79,148.0
1840,B4,237.089,583/1000,109,148.0
1841,C5,237.594,327/200,118,148.0
1842,A4,238.0,1.0,109,148.0
1843,B-2,238.0,0.125,109,148.0
1844,E2,238.0,0.125,109,148.0
1845,A3,238.021,1.0,110,148.0
1846,G4,238.021,1.5,114,148.0
1847,C4,238.021,1.5,114,148.0
1848,C2,238.5,0.125,124,148.0
1849,E4,239.0,0.5,103,148.0
1850,B-2,239.0,0.125,94,148.0
1851,E4,239.021,1.0,79,148.0
1852,A3,239.021,0.5,79,148.0
1853,D5,239.078,271/500,112,148.0
1854,A3,239.521,1/200,114,148.0
1855,B4,239.63,37/100,114,148.0
1856,B4,240.0,1583/1000,114,148.0
1857,E-4,240.0,1.0,100,148.0
1858,B-2,240.0,0.125,109,148.0
1859,C2,240.0,0.125,109,148.0
1860,F#4,240.021,1.0,100,148.0
1861,B3,240.021,1.0,100,148.0
1862,E-4,241.0,1.0,91,148.0
1863,B-2,241.0,0.125,109,148.0
1864,C2,241.0,0.125,109,148.0
1865,F#4,241.021,1.0,84,148.0
1866,B3,241.021,2.0,82,148.0
1867,B4,241.677,0.406,116,148.0
1868,G4,242.0,1.0,113,148.0
1869,E-4,242.0,2.0,110,148.0
1870,F#4,242.0,2.0,110,148.0
1871,B3,242.0,2.0,110,148.0
1872,B-2,242.0,0.125,109,148.0
1873,E2,242.0,0.125,109,148.0
1874,F#4,242.021,1.0,124,148.0
1875,A3,242.021,1.5,114,148.0
1876,B4,242.208,99/125,118,148.0
1877,E-4,243.0,1.0,99,148.0
1878,B-2,243.0,0.125,94,148.0
1879,F#4,243.021,1.0,77,148.0
1880,B3,243.021,0.5,77,148.0
1881,B4,243.188,0.375,109,148.0
1882,C2,243.5,0.125,124,148.0
1883,A3,243.521,0.5,108,148.0
1884,B4,243.677,323/1000,124,148.0
1885,B4,244.0,0.469,124,148.0
1886,A4,244.0,1.0,109,148.0
1887,B-2,244.0,0.125,94,148.0
1888,E-4,244.0,3.0,110,148.0
1889,F#4,244.0,3.0,110,148.0
1890,B3,244.0,3.0,110,148.0
1891,B3,244.021,0.5,81,148.0
1892,F#4,244.021,1/200,77,148.0
1893,A3,244.521,1.0,115,148.0
1894,B4,244.62,401/1000,112,148.0
1895,E-4,245.0,1.0,105,148.0
1896,B-2,245.0,0.125,109,148.0
1897,C2,245.0,0.125,109,148.0
1898,F#4,245.021,1.0,81,148.0
1899,B3,245.021,1.5,82,148.0
1900,B4,245.125,667/1000,124,148.0
1901,G4,246.0,1.0,103,148.0
1902,B-2,246.0,0.125,109,148.0
1903,E2,246.0,0.125,109,148.0
1904,F#4,246.021,1.0,121,148.0
1905,A3,246.021,1.5,121,148.0
1906,D5,246.656,651/1000,118,148.0
1907,F#4,247.0,1.0,113,148.0
1908,B-2,247.0,0.125,109,148.0
1909,E2,247.0,0.125,109,148.0
1910,F#4,247.021,0.5,77,148.0
1911,B3,247.021,1.0,70,148.0
1912,C5,247.417,583/1000,113,148.0
1913,E2,247.5,0.125,124,148.0
1914,A3,247.521,0.5,116,148.0
1915,F#4,247.521,0.5,116,148.0
1916,C5,248.0,0.125,113,148.0
1917,B3,248.0,4.0,108,148.0
1918,G4,248.0,2.0,108,148.0
1919,E4,248.0,1.0,113,148.0
1920,F#4,248.0,0.125,113,148.0
1921,C#3,248.0,0.125,109,148.0
1922,C2,248.0,0.125,109,148.0
1923,G4,248.0,1.0,110,148.0
1924,E4,248.0,1.0,110,148.0
1925,G4,248.021,1.0,114,148.0
1926,E4,248.021,1.0,114,148.0
1927,B3,248.021,1.0,114,148.0
1928,B4,248.161,3839/1000,118,148.0
1929,B3,249.0,1.0,99,148.0
1930,B3,249.0,1.0,101,148.0
1931,B-2,249.0,0.125,109,148.0
1932,C2,249.0,0.125,109,148.0
1933,B3,249.021,1.0,75,148.0
1934,G4,249.021,1.0,75,148.0
1935,E4,249.021,1.0,75,148.0
1936,F#4,250.0,2.0,108,148.0
1937,F#4,250.0,1.0,114,148.0
1938,E2,250.0,0.125,109,148.0
1939,B-2,250.0,0.125,109,148.0
1940,E4,250.0,1.0,110,148.0
1941,F#4,250.0,1.0,110,148.0
1942,G4,250.021,1.0,114,148.0
1943,E4,250.021,1.0,114,148.0
1944,B3,250.021,1.0,114,148.0
1945,B3,251.0,1.0,96,148.0
1946,B-2,251.0,0.125,94,148.0
1947,B3,251.0,1.0,101,148.0
1948,B3,251.021,0.5,66,148.0
1949,G4,251.021,0.5,66,148.0
1950,E4,251.021,0.5,66,148.0
1951,C2,251.5,0.125,124,148.0
1952,E4,251.521,0.5,111,148.0
1953,G4,251.521,0.5,111,148.0
1954,B3,251.521,0.5,111,148.0
1955,B4,252.0,99/100,118,148.0
1956,G4,252.0,2.0,108,148.0
1957,B3,252.0,4.0,108,148.0
1958,E4,252.0,1.0,110,148.0
1959,B-2,252.0,0.125,94,148.0
1960,E4,252.0,1.0,101,148.0
1961,G4,252.0,1.0,101,148.0
1962,B3,252.021,0.5,81,148.0
1963,B3,252.521,0.5,110,148.0
1964,G4,252.521,0.5,110,148.0
1965,B3,253.0,1.0,101,148.0
1966,B3,253.0,1.0,101,148.0
1967,B-2,253.0,0.125,109,148.0
1968,C2,253.0,0.125,109,148.0
1969,B3,253.021,1.0,74,148.0
1970,E4,253.021,1.0,74,148.0
1971,G4,253.021,1.0,74,148.0
1972,E5,253.49,0.469,110,148.0
1973,A5,253.948,69/125,112,148.0
1974,F#4,254.0,2.0,112,148.0
1975,F#4,254.0,1.0,117,148.0
1976,B-2,254.0,0.125,109,148.0
1977,E2,254.0,0.125,109,148.0
1978,E4,254.0,1.0,106,148.0
1979,F#4,254.0,1.0,106,148.0
1980,E4,254.021,1.0,110,148.0
1981,G4,254.021,1.0,110,148.0
1982,B3,254.021,1.0,110,148.0
1983,G5,254.427,271/500,114,148.0
1984,C2,254.5,0.125,124,148.0
1985,F#5,254.922,839/1000,111,148.0
1986,B3,255.0,0.938,102,148.0
1987,B-2,255.0,0.125,94,148.0
1988,B3,255.0,1.0,106,148.0
1989,G4,255.021,0.5,68,148.0
1990,E4,255.021,0.5,68,148.0
1991,B3,255.021,0.5,68,148.0
1992,B3,255.521,0.5,108,148.0
1993,G4,255.521,0.5,108,148.0
1994,E4,255.521,0.5,108,148.0
1995,G5,255.688,0.312,113,148.0
1996,G5,256.0,833/1000,113,148.0
1997,C4,256.0,4.0,77,148.0
1998,G4,256.0,2.0,108,148.0
1999,E4,256.0,1.0,111,148.0
2000,B-2,256.0,0.125,109,148.0
2001,C2,256.0,0.125,109,148.0
2002,E4,256.0,1.0,108,148.0
2003,G4,256.0,1.0,108,148.0
2004,C4,256.026,1.0,113,148.0
2005,B3,256.026,1/200,108,148.0
2006,G4,256.026,1/200,108,148.0
2007,E4,256.026,1/200,108,148.0
2008,G5,256.885,2427/1000,88,148.0
2009,B3,257.0,1.0,103,148.0
2010,C4,257.0,1.0,110,148.0
2011,B-2,257.0,0.125,109,148.0
2012,C2,257.0,0.125,109,148.0
2013,G4,257.026,0.5,82,148.0
2014,C4,257.026,1.0,75,148.0
2015,F#4,258.0,2.0,112,148.0
2016,F#4,258.0,1.0,112,148.0
2017,B-2,258.0,0.125,109,148.0
2018,E2,258.0,0.125,109,148.0
2019,E4,258.0,1.0,113,148.0
2020,F#4,258.0,1.0,113,148.0
2021,E4,258.026,1.5,118,148.0
2022,G4,258.026,0.5,115,148.0
2023,C4,258.026,1.0,113,148.0
2024,B3,259.0,1.0,98,148.0
2025,B-2,259.0,0.125,94,148.0
2026,C4,259.0,1.0,101,148.0
2027,G4,259.026,0.5,68,148.0
2028,C4,259.026,0.5,68,148.0
2029,C2,259.5,0.125,124,148.0
2030,E4,259.526,0.5,111,148.0
2031,G4,259.526,0.5,111,148.0
2032,C4,259.526,0.5,111,148.0
2033,F#5,259.599,401/1000,115,148.0
2034,F#5,260.0,0.25,115,148.0
2035,G4,260.0,2.0,112,148.0
2036,C4,260.0,4.0,77,148.0
2037,E4,260.0,1.0,110,148.0
2038,B-2,260.0,0.125,94,148.0
2039,E4,260.0,1.0,101,148.0
2040,G4,260.0,1.0,101,148.0
2041,E4,260.026,0.5,111,148.0
2042,G4,260.026,0.5,68,148.0
2043,C4,260.026,0.5,68,148.0
2044,E5,260.208,521/500,103,148.0
2045,E4,260.526,1.0,100,148.0
2046,G4,260.526,0.5,106,148.0
2047,C4,260.526,0.5,106,148.0
2048,B3,261.0,1.0,100,148.0
2049,C4,261.0,1.0,101,148.0
2050,B-2,261.0,0.125,109,148.0
2051,C2,261.0,0.125,109,148.0
2052,C4,261.026,1.0,78,148.0
2053,G4,261.026,1.0,78,148.0
2054,E5,261.458,573/1000,106,148.0
2055,F#4,262.0,2.0,111,148.0
2056,F#4,262.0,1.0,114,148.0
2057,B-2,262.0,0.125,109,148.0
2058,E2,262.0,0.125,109,148.0
2059,E4,262.0,1.0,106,148.0
2060,F#4,262.0,1.0,106,148.0
2061,A5,262.01,521/1000,109,148.0
2062,E4,262.026,1.5,115,148.0
2063,C4,262.026,1.0,112,148.0
2064,G4,262.026,1.0,112,148.0
2065,C2,262.5,0.125,124,148.0
2066,G5,262.531,0.469,115,148.0
2067,B3,263.0,1.0,103,148.0
2068,B-2,263.0,0.125,94,148.0
2069,C4,263.0,0.5,101,148.0
2070,G4,263.026,0.5,77,148.0
2071,C4,263.026,0.5,77,148.0
2072,A5,263.12,22/25,122,148.0
2073,E4,263.526,0.5,108,148.0
2074,G4,263.526,0.5,114,148.0
2075,C4,263.526,0.5,114,148.0
2076,A5,264.0,0.141,122,148.0
2077,A4,264.0,2.0,110,148.0
2078,C4,264.0,4.0,77,148.0
2079,A4,264.0,1.0,117,148.0
2080,C#3,264.0,0.125,109,148.0
2081,C2,264.0,0.125,109,148.0
2082,E4,264.0,1.0,110,148.0
2083,A4,264.0,1.0,110,148.0
2084,C4,264.026,1.5,107,148.0
2085,A3,264.026,1/200,113,148.0
2086,E4,264.026,1.0,108,148.0
2087,B5,264.031,393/500,123,148.0
2088,D6,264.781,573/500,118,148.0
2089,C4,265.0,1.0,100,148.0
2090,C4,265.0,1.0,101,148.0
2091,B-2,265.0,0.125,109,148.0
2092,C2,265.0,0.125,109,148.0
2093,E4,265.026,1.5,81,148.0
2094,A3,265.026,1.0,73,148.0
2095,A5,265.797,2.203,124,148.0
2096,G4,266.0,2.0,110,148.0
2097,G4,266.0,1.0,117,148.0
2098,E2,266.0,0.125,109,148.0
2099,B-2,266.0,0.125,109,148.0
2100,G4,266.0,1.0,92,148.0
2101,E4,266.0,1.0,92,148.0
2102,A3,266.026,1.0,113,148.0
2103,G4,266.026,1.5,118,148.0
2104,C4,266.026,1.5,118,148.0
2105,C4,267.0,1.0,96,148.0
2106,B-2,267.0,0.125,94,148.0
2107,C4,267.0,1.0,92,148.0
2108,E4,267.026,1.0,81,148.0
2109,A3,267.026,0.5,64,148.0
2110,C2,267.5,0.125,124,148.0
2111,A3,267.526,1/200,106,148.0
2112,G4,267.526,0.5,114,148.0
2113,C4,267.526,0.5,114,148.0
2114,A5,268.0,0.375,124,148.0
2115,A4,268.0,2.0,108,148.0
2116,C4,268.0,4.0,77,148.0
2117,F#4,268.0,1.0,117,148.0
2118,B-2,268.0,0.125,94,148.0
2119,E4,268.0,1.0,106,148.0
2120,A4,268.0,1.0,106,148.0
2121,E4,268.026,0.5,74,148.0
2122,G4,268.026,0.5,114,148.0
2123,C4,268.026,0.5,114,148.0
2124,A3,268.526,0.5,102,148.0
2125,G4,268.526,1.0,110,148.0
2126,C4,268.526,1.0,110,148.0
2127,C4,269.0,1.0,99,148.0
2128,C4,269.0,1.0,101,148.0
2129,B-2,269.0,0.125,109,148.0
2130,C2,269.0,0.125,109,148.0
2131,E4,269.026,1.5,82,148.0
2132,A3,269.026,1/200,79,148.0
2133,E5,269.5,69/125,105,148.0
2134,G4,270.0,2.0,120,148.0
2135,G4,270.0,1.0,113,148.0
2136,E4,270.0,1.0,83,148.0
2137,G4,270.0,1.5,101,148.0
2138,B-2,270.0,0.125,109,148.0
2139,E2,270.0,0.125,109,148.0
2140,A3,270.026,1.0,110,148.0
2141,G4,270.026,1.5,114,148.0
2142,C4,270.026,1.5,114,148.0
2143,A5,270.052,99/200,108,148.0
2144,G5,270.5,589/1000,114,148.0
2145,C4,271.0,1.0,96,148.0
2146,B-2,271.0,0.125,94,148.0
2147,C4,271.0,0.5,101,148.0
2148,F#5,271.016,0.578,109,148.0
2149,E4,271.026,1.0,79,148.0
2150,A3,271.026,0.5,79,148.0
2151,A3,271.526,1/200,114,148.0
2152,E5,271.583,417/1000,109,148.0
2153,F#5,271.938,0.062,121,148.0
2154,F#5,272.0,1.438,121,148.0
2155,B3,272.0,4.0,108,148.0
2156,G4,272.0,4.0,120,148.0
2157,G4,272.0,1.0,118,148.0
2158,B-2,272.0,0.125,109,148.0
2159,C2,272.0,0.125,109,148.0
2160,E-4,272.0,1.0,110,148.0
2161,G4,272.0,1.0,110,148.0
2162,F#4,272.026,1.0,100,148.0
2163,B3,272.026,1.0,100,148.0
2164,C2,272.5,0.125,124,148.0
2165,B3,273.0,1.0,95,148.0
2166,B-2,273.0,0.125,94,148.0
2167,B3,273.0,1.0,101,148.0
2168,F#4,273.026,1.0,84,148.0
2169,B3,273.026,2.0,82,148.0
2170,C2,273.5,0.125,124,148.0
2171,F#5,273.682,0.344,113,148.0
2172,C2,273.75,0.125,124,148.0
2173,G4,274.0,1.0,117,148.0
2174,E3,274.0,0.125,120,148.0
2175,E2,274.0,0.125,120,148.0
2176,E-4,274.0,1.0,110,148.0
2177,F#4,274.0,1.0,110,148.0
2178,F#4,274.026,1.0,124,148.0
2179,A3,274.026,1.5,114,148.0
2180,F#5,274.177,401/1000,111,148.0
2181,E3,274.5,0.125,120,148.0
2182,E2,274.5,0.125,120,148.0
2183,G5,274.604,443/1000,106,148.0
2184,B3,275.0,1.0,95,148.0
2185,C2,275.0,0.125,124,148.0
2186,B3,275.0,1.0,101,148.0
2187,F#4,275.026,0.812,77,148.0
2188,B3,275.026,0.5,77,148.0
2189,F#5,275.161,0.516,111,148.0
2190,F2,275.5,0.125,117,148.0
2191,A3,275.526,0.5,108,148.0
2192,G5,275.615,77/200,112,148.0
2193,G5,276.0,73/500,112,148.0
2194,B3,276.0,4.0,108,148.0
2195,G4,276.0,4.0,120,148.0
2196,G4,276.0,3.938,112,148.0
2197,B-2,276.0,0.125,109,148.0
2198,E2,276.0,0.125,109,148.0
2199,E-4,276.0,4.0,101,148.0
2200,G4,276.0,4.0,101,148.0
2201,F#5,276.135,149/200,122,148.0
2202,E5,276.911,833/1000,114,148.0
2203,G5,276.911,833/1000,114,148.0
2204,F2,277.667,0.125,117,148.0
2205,F2,277.833,0.125,117,148.0
2206,E5,277.922,237/250,109,148.0
2207,G5,277.922,237/250,109,148.0
2208,F2,278.0,0.125,120,148.0
2209,C2,278.0,0.125,120,148.0
2210,B5,278.896,839/1000,108,148.0
2211,D6,278.896,839/1000,108,148.0
2212,B5,279.943,57/1000,111,148.0
2213,D6,279.943,57/1000,111,148.0
2214,B5,280.0,2.156,111,148.0
2215,D6,280.0,2.156,111,148.0
2216,C#3,280.0,0.125,109,148.0
2217,C2,280.0,0.125,109,148.0
2218,E4,280.026,1.5,123,148.0
2219,B3,280.026,1.0,116,148.0
2220,E3,280.026,1.0,116,148.0
2221,C2,280.5,0.125,124,148.0
2222,B-2,281.0,0.125,109,148.0
2223,C2,281.0,0.125,109,148.0
2224,B3,281.026,1.0,78,148.0
2225,E3,281.026,1.0,78,148.0
2226,B-2,282.0,0.125,109,148.0
2227,E2,282.0,0.125,109,148.0
2228,E4,282.026,1.5,124,148.0
2229,B3,282.026,1.0,123,148.0
2230,E3,282.026,1.0,123,148.0
2231,G5,282.385,0.438,115,148.0
2232,B5,282.385,0.438,115,148.0
2233,G5,282.943,411/1000,119,148.0
2234,B5,282.943,411/1000,119,148.0
2235,B-2,283.0,0.125,94,148.0
2236,B3,283.026,0.5,60,148.0
2237,E3,283.026,0.5,60,148.0
2238,G5,283.453,37/100,118,148.0
2239,B5,283.453,37/100,118,148.0
2240,C2,283.5,0.125,124,148.0
2241,E4,283.526,0.5,110,148.0
2242,B3,283.526,0.5,110,148.0
2243,E3,283.526,0.5,110,148.0
2244,D6,283.948,13/250,124,148.0
2245,E6,283.948,13/250,124,148.0
2246,D6,284.0,0.438,124,148.0
2247,E6,284.0,0.438,124,148.0
2248,B-2,284.0,0.125,94,148.0
2249,C6,284.464,1.078,122,148.0
2250,D6,284.464,1.078,122,148.0
2251,E2,284.5,0.125,124,148.0
2252,E4,284.526,1.0,115,148.0
2253,E3,284.526,0.5,111,148.0
2254,B-2,285.0,0.125,94,148.0
2255,B3,285.026,1.0,81,148.0
2256,E3,285.026,1.0,81,148.0
2257,C2,285.5,0.125,124,148.0
2258,B5,285.802,349/500,124,148.0
2259,D6,285.802,349/500,124,148.0
2260,B-2,286.0,0.125,109,148.0
2261,E2,286.0,0.125,109,148.0
2262,E4,286.026,1.5,120,148.0
2263,B3,286.026,1.0,122,148.0
2264,E3,286.026,1.0,122,148.0
2265,C2,286.5,0.125,124,148.0
2266,A5,286.521,1443/1000,116,148.0
2267,C6,286.521,1443/1000,116,148.0
2268,B-2,287.0,0.125,94,148.0
2269,B3,287.0,0.5,105,148.0
2270,E4,287.0,0.5,105,148.0
2271,E3,287.0,0.5,105,148.0
2272,B3,287.026,0.5,74,148.0
2273,E3,287.026,0.5,74,148.0
2274,B3,287.5,0.5,74,148.0
2275,E3,287.5,0.5,74,148.0
2276,E4,287.526,0.5,113,148.0
2277,E3,287.526,0.5,104,148.0
2278,B3,287.526,0.5,104,148.0
2279,G5,287.854,73/500,111,148.0
2280,B5,287.854,73/500,111,148.0
2281,G5,288.0,2167/1000,111,148.0
2282,B5,288.0,2167/1000,111,148.0
2283,E4,288.0,1.0,85,148.0
2284,B3,288.0,0.5,82,148.0
2285,E3,288.0,0.5,82,148.0
2286,B-2,288.0,0.125,109,148.0
2287,C2,288.0,0.125,109,148.0
2288,E4,288.026,1.5,113,148.0
2289,G3,288.026,1.0,96,148.0
2290,E3,288.026,1.0,96,148.0
2291,C4,288.026,1.0,96,148.0
2292,C2,288.5,0.125,124,148.0
2293,B3,288.5,0.5,71,148.0
2294,E3,288.5,0.5,71,148.0
2295,E4,289.0,0.5,98,148.0
2296,B3,289.0,0.5,98,148.0
2297,E3,289.0,0.5,98,148.0
2298,B-2,289.0,0.125,109,148.0
2299,C2,289.0,0.125,109,148.0
2300,E3,289.026,1.0,77,148.0
2301,C4,289.026,1.0,77,148.0
2302,B3,289.5,107/500,104,148.0
2303,E4,289.5,107/500,104,148.0
2304,G4,289.5,107/500,104,148.0
2305,E4,290.0,107/500,100,148.0
2306,B3,290.0,107/500,100,148.0
2307,G4,290.0,107/500,100,148.0
2308,B-2,290.0,0.125,109,148.0
2309,E2,290.0,0.125,109,148.0
2310,C4,290.026,1.0,113,148.0
2311,E3,290.026,1.0,113,148.0
2312,G3,290.026,1.5,120,148.0
2313,E4,290.026,1.5,120,148.0
2314,G5,290.385,99/250,115,148.0
2315,B5,290.385,99/250,115,148.0
2316,G4,290.5,107/500,100,148.0
2317,E4,290.5,107/500,100,148.0
2318,B3,290.5,107/500,100,148.0
2319,G5,290.927,0.422,115,148.0
2320,B5,290.927,0.422,115,148.0
2321,B-2,291.0,0.125,94,148.0
2322,B3,291.0,0.5,104,148.0
2323,E4,291.0,0.5,104,148.0
2324,E3,291.0,0.5,104,148.0
2325,E3,291.026,0.5,69,148.0
2326,C4,291.026,0.5,69,148.0
2327,C2,291.5,0.125,124,148.0
2328,B3,291.5,0.5,75,148.0
2329,E3,291.5,0.5,75,148.0
2330,G3,291.526,0.5,113,148.0
2331,E4,291.526,0.5,109,148.0
2332,E3,291.526,0.5,109,148.0
2333,C4,291.526,0.5,109,148.0
2334,E5,291.536,58/125,105,148.0
2335,G5,291.536,58/125,105,148.0
2336,G5,291.547,91/500,62,148.0
2337,B5,291.547,91/500,62,148.0
2338,E5,292.0,0.141,105,148.0
2339,G5,292.0,0.141,105,148.0
2340,B-2,292.0,0.125,94,148.0
2341,B3,292.0,0.5,84,148.0
2342,E4,292.0,0.5,84,148.0
2343,E3,292.0,0.5,84,148.0
2344,E3,292.031,0.5,61,148.0
2345,G3,292.031,0.5,113,148.0
2346,E4,292.031,1/200,109,148.0
2347,E3,292.031,1/200,109,148.0
2348,C4,292.031,1/200,109,148.0
2349,G5,292.078,927/1000,120,148.0
2350,B5,292.078,927/1000,120,148.0
2351,B3,292.5,1.0,74,148.0
2352,E3,292.5,0.5,70,148.0
2353,E2,292.5,0.125,124,148.0
2354,G3,292.531,1.0,106,148.0
2355,E4,292.531,1.0,106,148.0
2356,C4,292.531,0.5,112,148.0
2357,E3,292.531,0.5,112,148.0
2358,E5,292.969,0.484,102,148.0
2359,G5,292.969,0.484,102,148.0
2360,B-2,293.0,0.125,94,148.0
2361,E4,293.0,0.5,90,148.0
2362,E3,293.0,0.5,90,148.0
2363,E3,293.031,1.0,78,148.0
2364,C4,293.031,1.0,78,148.0
2365,B5,293.5,241/250,112,148.0
2366,D6,293.5,241/250,112,148.0
2367,C2,293.5,0.125,124,148.0
2368,B3,293.5,0.5,66,148.0
2369,E3,293.5,0.5,66,148.0
2370,B3,294.0,0.5,82,148.0
2371,E4,294.0,0.5,82,148.0
2372,E3,294.0,0.5,82,148.0
2373,B-2,294.0,0.125,109,148.0
2374,E2,294.0,0.125,109,148.0
2375,G3,294.031,1.5,118,148.0
2376,E4,294.031,1.5,118,148.0
2377,C4,294.031,1.0,112,148.0
2378,E3,294.031,1.0,112,148.0
2379,C2,294.5,0.125,124,148.0
2380,B3,294.5,0.5,67,148.0
2381,E3,294.5,0.5,67,148.0
2382,A5,294.516,0.406,112,148.0
2383,C6,294.516,0.406,112,148.0
2384,E3,295.0,0.5,92,148.0
2385,B-2,295.0,0.125,94,148.0
2386,E4,295.0,1.0,108,148.0
2387,G3,295.0,1.0,108,148.0
2388,A5,295.021,979/1000,115,148.0
2389,C6,295.021,979/1000,115,148.0
2390,E3,295.031,1.0,79,148.0
2391,C4,295.031,0.5,70,148.0
2392,C4,295.5,1/200,63,148.0
2393,G3,295.531,0.5,92,148.0
2394,E4,295.531,0.5,92,148.0
2395,C4,295.531,0.5,92,148.0
2396,A5,296.0,1.062,115,148.0
2397,C6,296.0,1.062,115,148.0
2398,G3,296.0,1.0,101,148.0
2399,E4,296.0,0.5,88,148.0
2400,E3,296.0,0.5,88,148.0
2401,C#3,296.0,0.125,109,148.0
2402,C2,296.0,0.125,109,148.0
2403,A3,296.031,1.5,111,148.0
2404,D4,296.031,1.0,112,148.0
2405,F#3,296.031,1.0,112,148.0
2406,C4,296.5,1/200,76,148.0
2407,C2,296.5,0.125,124,148.0
2408,E4,297.0,0.5,100,148.0
2409,G3,297.0,0.5,100,148.0
2410,E3,297.0,0.5,100,148.0
2411,B-2,297.0,0.125,109,148.0
2412,C2,297.0,0.125,109,148.0
2413,D4,297.031,1.0,78,148.0
2414,F#3,297.031,1.0,78,148.0
2415,E4,297.5,107/500,106,148.0
2416,C4,297.5,107/500,106,148.0
2417,G4,297.5,107/500,106,148.0
2418,E4,298.0,107/500,96,148.0
2419,G4,298.0,107/500,96,148.0
2420,C4,298.0,107/500,96,148.0
2421,B-2,298.0,0.125,109,148.0
2422,E2,298.0,0.125,109,148.0
2423,D4,298.031,1.0,119,148.0
2424,A3,298.031,1.0,119,148.0
2425,F#3,298.031,1.0,119,148.0
2426,A5,298.391,19/50,113,148.0
2427,C6,298.391,19/50,113,148.0
2428,E4,298.5,107/500,101,148.0
2429,G4,298.5,107/500,101,148.0
2430,C4,298.5,107/500,101,148.0
2431,A5,298.922,0.328,107,148.0
2432,C6,298.922,0.328,107,148.0
2433,G3,299.0,0.5,103,148.0
2434,E4,299.0,0.5,103,148.0
2435,E3,299.0,0.5,103,148.0
2436,C2,299.0,0.125,109,148.0
2437,B-2,299.0,0.125,109,148.0
2438,F#3,299.031,0.5,76,148.0
2439,D4,299.031,0.5,76,148.0
2440,A5,299.401,37/100,111,148.0
2441,C6,299.401,37/100,111,148.0
2442,C4,299.5,1/200,63,148.0
2443,G3,299.5,0.5,64,148.0
2444,C2,299.5,0.125,124,148.0
2445,F#3,299.531,0.5,108,148.0
2446,D4,299.531,0.5,108,148.0
2447,A3,299.531,0.5,108,148.0
2448,A5,299.979,21/1000,111,148.0
2449,C6,299.979,21/1000,111,148.0
2450,A5,300.0,0.891,111,148.0
2451,C6,300.0,0.891,111,148.0
2452,B-2,300.0,0.125,94,148.0
2453,G3,300.0,0.5,90,148.0
2454,E4,300.0,0.5,90,148.0
2455,E3,300.0,0.5,90,148.0
2456,F#3,300.031,0.5,64,148.0
2457,C4,300.5,1/200,67,148.0
2458,G3,300.5,0.5,64,148.0
2459,E2,300.5,0.125,124,148.0
2460,A3,300.531,1.0,108,148.0
2461,D4,300.531,0.5,112,148.0
2462,F#3,300.531,0.5,112,148.0
2463,G5,300.854,583/1000,113,148.0
2464,B5,300.854,583/1000,113,148.0
2465,B-2,301.0,0.125,94,148.0
2466,G3,301.0,0.5,94,148.0
2467,E4,301.0,0.5,94,148.0
2468,E3,301.0,0.5,94,148.0
2469,F#3,301.031,1.0,79,148.0
2470,D4,301.031,1.0,79,148.0
2471,F#5,301.427,1.031,118,148.0
2472,A5,301.427,1.031,118,148.0
2473,C4,301.5,1/200,64,148.0
2474,G3,301.5,0.5,62,148.0
2475,C2,301.5,0.125,124,148.0
2476,G3,302.0,0.5,85,148.0
2477,E4,302.0,0.5,85,148.0
2478,E3,302.0,0.5,85,148.0
2479,B-2,302.0,0.125,109,148.0
2480,E2,302.0,0.125,109,148.0
2481,A3,302.031,1.5,115,148.0
2482,D4,302.031,1.0,110,148.0
2483,F#3,302.031,1.0,110,148.0
2484,E5,302.438,1.0,120,148.0
2485,G5,302.438,1.0,120,148.0
2486,C4,302.5,1/200,64,148.0
2487,G3,302.5,0.5,67,148.0
2488,C2,302.5,0.125,124,148.0
2489,B-2,303.0,0.125,94,148.0
2490,A3,303.0,0.5,102,148.0
2491,D4,303.0,0.5,102,148.0
2492,D3,303.0,0.5,102,148.0
2493,F#3,303.031,0.5,80,148.0
2494,D4,303.031,1.0,79,148.0
2495,E-5,303.474,263/500,121,148.0
2496,F#5,303.474,263/500,121,148.0
2497,A3,303.5,0.5,69,148.0
2498,D3,303.5,0.5,69,148.0
2499,F#3,303.531,0.5,76,148.0
2500,A3,303.531,0.5,76,148.0
2501,E-5,304.0,4.0,121,148.0
2502,F#5,304.0,4.0,121,148.0
2503,A3,304.0,0.5,96,148.0
2504,D4,304.0,0.5,96,148.0
2505,D3,304.0,0.5,96,148.0
2506,C#3,304.0,0.125,109,148.0
2507,C2,304.0,0.125,109,148.0
2508,A3,304.031,1.5,112,148.0
2509,E-4,304.031,1.0,102,148.0
2510,F#3,304.031,1.0,102,148.0
2511,C2,304.5,0.125,124,148.0
2512,D3,304.5,0.5,82,148.0
2513,A3,304.5,0.5,82,148.0
2514,A3,305.0,0.5,100,148.0
2515,D4,305.0,0.5,100,148.0
2516,D3,305.0,0.5,100,148.0
2517,B-2,305.0,0.125,109,148.0
2518,C2,305.0,0.125,109,148.0
2519,E-4,305.031,1.0,80,148.0
2520,F#3,305.031,1.0,80,148.0
2521,F#4,305.5,107/500,101,148.0
2522,A4,305.5,107/500,101,148.0
2523,D4,305.5,107/500,101,148.0
2524,F#4,306.0,107/500,91,148.0
2525,A4,306.0,107/500,91,148.0
2526,D4,306.0,107/500,91,148.0
2527,B-2,306.0,0.125,109,148.0
2528,E2,306.0,0.125,109,148.0
2529,A3,306.031,1.5,113,148.0
2530,E-4,306.031,1.0,119,148.0
2531,F#3,306.031,1.0,119,148.0
2532,F#4,306.5,107/500,98,148.0
2533,A4,306.5,107/500,98,148.0
2534,D4,306.5,107/500,98,148.0
2535,A3,307.0,0.5,103,148.0
2536,D4,307.0,0.5,103,148.0
2537,D3,307.0,0.5,103,148.0
2538,C2,307.0,0.125,109,148.0
2539,B-2,307.0,0.125,109,148.0
2540,E-4,307.031,0.5,63,148.0
2541,F#3,307.031,0.5,63,148.0
2542,C2,307.5,0.125,124,148.0
2543,A3,307.5,0.5,72,148.0
2544,D3,307.5,0.5,72,148.0
2545,A3,307.531,0.5,115,148.0
2546,E-4,307.531,0.5,104,148.0
2547,F#3,307.531,0.5,104,148.0
2548,E-5,308.0,167/1000,121,148.0
2549,F#5,308.0,167/1000,121,148.0
2550,B-2,308.0,0.125,94,148.0
2551,A3,308.0,0.5,90,148.0
2552,D4,308.0,0.5,90,148.0
2553,D3,308.0,0.5,90,148.0
2554,F#3,308.031,0.5,56,148.0
2555,A3,308.031,0.5,115,148.0
2556,E2,308.5,0.125,124,148.0
2557,D3,308.5,0.5,71,148.0
2558,A3,308.5,0.5,71,148.0
2559,A3,308.531,1.5,93,148.0
2560,E-4,308.531,0.5,110,148.0
2561,F#3,308.531,0.5,110,148.0
2562,E-5,308.906,0.469,118,148.0
2563,F#5,308.906,0.469,118,148.0
2564,A3,309.0,0.5,94,148.0
2565,D4,309.0,0.5,94,148.0
2566,D3,309.0,0.5,94,148.0
2567,C2,309.0,0.125,109,148.0
2568,B-2,309.0,0.125,109,148.0
2569,E-4,309.031,1.0,81,148.0
2570,F#3,309.031,1.0,81,148.0
2571,E-5,309.5,729/1000,124,148.0
2572,F#5,309.5,729/1000,124,148.0
2573,C2,309.5,0.125,124,148.0
2574,A3,309.5,0.5,70,148.0
2575,D3,309.5,0.5,70,148.0
2576,D4,310.0,1.0,93,148.0
2577,A3,310.0,0.5,94,148.0
2578,D3,310.0,0.5,94,148.0
2579,B-2,310.0,0.125,109,148.0
2580,E2,310.0,0.125,109,148.0
2581,A3,310.031,1.5,113,148.0
2582,E-4,310.031,1.0,112,148.0
2583,F#3,310.031,1.0,112,148.0
2584,A3,310.5,0.5,84,148.0
2585,D3,310.5,0.5,84,148.0
2586,E2,310.75,0.125,124,148.0
2587,B3,311.0,1.0,106,148.0
2588,E2,311.0,0.125,124,148.0
2589,F#3,311.0,0.5,104,148.0
2590,B2,311.0,0.5,104,148.0
2591,E-4,311.031,0.5,68,148.0
2592,F#3,311.031,0.5,68,148.0
2593,G5,311.062,771/1000,122,148.0
2594,B5,311.062,771/1000,122,148.0
2595,E2,311.25,0.125,124,148.0
2596,F2,311.5,0.125,117,148.0
2597,F#3,311.5,0.5,59,148.0
2598,B2,311.5,0.5,59,148.0
2599,E-4,311.531,0.5,105,148.0
2600,F#3,311.531,0.5,105,148.0
2601,A3,311.531,0.5,105,148.0
2602,F2,311.75,0.125,117,148.0
2603,B3,312.0,1.0,82,148.0
2604,F#3,312.0,0.5,74,148.0
2605,B2,312.0,0.5,74,148.0
2606,C#3,312.0,0.125,109,148.0
2607,C2,312.0,0.125,109,148.0
2608,G5,312.016,276/125,116,148.0
2609,B5,312.016,276/125,116,148.0
2610,E4,312.031,1.5,123,148.0
2611,B3,312.031,1.0,116,148.0
2612,E3,312.031,1.0,116,148.0
2613,C2,312.5,0.125,124,148.0
2614,F#3,312.5,0.5,62,148.0
2615,B2,312.5,0.5,62,148.0
2616,B3,313.0,1.0,101,148.0
2617,F#3,313.0,0.5,105,148.0
2618,B2,313.0,0.5,105,148.0
2619,B-2,313.0,0.125,109,148.0
2620,C2,313.0,0.125,109,148.0
2621,B3,313.031,1.0,78,148.0
2622,E3,313.031,1.0,78,148.0
2623,F#3,313.5,1.0,50,148.0
2624,B2,313.5,0.5,45,148.0
2625,B3,314.0,1.0,78,148.0
2626,B2,314.0,0.5,83,148.0
2627,B-2,314.0,0.125,109,148.0
2628,E2,314.0,0.125,109,148.0
2629,E4,314.031,1.5,124,148.0
2630,B3,314.031,1.0,123,148.0
2631,E3,314.031,1.0,123,148.0
2632,E5,314.464,411/1000,112,148.0
2633,G5,314.464,411/1000,112,148.0
2634,F#3,314.5,0.5,50,148.0
2635,B2,314.5,0.5,50,148.0
2636,B3,315.0,1.0,97,148.0
2637,B-2,315.0,0.125,94,148.0
2638,F#3,315.0,0.5,97,148.0
2639,B2,315.0,0.5,97,148.0
2640,E5,315.01,73/250,115,148.0
2641,G5,315.01,73/250,115,148.0
2642,B3,315.031,0.5,60,148.0
2643,E3,315.031,0.5,60,148.0
2644,E5,315.458,49/100,106,148.0
2645,G5,315.458,49/100,106,148.0
2646,F#3,315.5,1.0,48,148.0
2647,B2,315.5,0.5,48,148.0
2648,C2,315.5,0.125,124,148.0
2649,E4,315.531,0.5,110,148.0
2650,B3,315.531,0.5,110,148.0
2651,E3,315.531,0.5,110,148.0
2652,A5,315.943,57/1000,113,148.0
2653,C6,315.943,57/1000,113,148.0
2654,A5,316.0,49/100,113,148.0
2655,C6,316.0,49/100,113,148.0
2656,B3,316.0,1.0,68,148.0
2657,B2,316.0,0.5,70,148.0
2658,B-2,316.0,0.125,94,148.0
2659,E2,316.5,0.125,124,148.0
2660,F#3,316.5,0.5,56,148.0
2661,B2,316.5,0.5,56,148.0
2662,G5,316.505,1167/1000,115,148.0
2663,B5,316.505,1167/1000,115,148.0
2664,E4,316.531,1.0,115,148.0
2665,E3,316.531,0.5,111,148.0
2666,B3,317.0,1.0,94,148.0
2667,B-2,317.0,0.125,94,148.0
2668,F#3,317.0,0.5,96,148.0
2669,B2,317.0,0.5,96,148.0
2670,B3,317.031,1.0,81,148.0
2671,E3,317.031,1.0,81,148.0
2672,F#3,317.5,1.0,53,148.0
2673,B2,317.5,0.5,54,148.0
2674,C2,317.5,0.125,124,148.0
2675,F#5,317.589,1021/1000,119,148.0
2676,A5,317.589,1021/1000,119,148.0
2677,B3,318.0,1.0,79,148.0
2678,B2,318.0,0.5,84,148.0
2679,B-2,318.0,0.125,109,148.0
2680,E2,318.0,0.125,109,148.0
2681,E4,318.031,1.5,120,148.0
2682,B3,318.031,1.0,122,148.0
2683,E3,318.031,1.0,122,148.0
2684,C2,318.5,0.125,124,148.0
2685,F#3,318.5,0.5,54,148.0
2686,B2,318.5,0.5,54,148.0
2687,G5,318.516,1193/1000,115,148.0
2688,B5,318.516,1193/1000,115,148.0
2689,B-2,319.0,0.125,94,148.0
2690,B3,319.0,0.5,105,148.0
2691,E4,319.0,0.5,105,148.0
2692,E3,319.0,0.5,105,148.0
2693,B3,319.031,0.5,74,148.0
2694,E3,319.031,0.5,74,148.0
2695,B3,319.5,0.5,74,148.0
2696,E3,319.5,0.5,74,148.0
2697,E4,319.531,0.5,113,148.0
2698,E3,319.531,0.5,104,148.0
2699,B3,319.531,0.5,104,148.0
2700,C5,319.589,411/1000,106,148.0
2701,E5,319.589,411/1000,106,148.0
2702,C5,320.0,1.922,106,148.0
2703,E5,320.0,1.922,106,148.0
2704,E4,320.0,1.0,85,148.0
2705,B3,320.0,0.5,82,148.0
2706,E3,320.0,0.5,82,148.0
2707,B-2,320.0,0.125,109,148.0
2708,C2,320.0,0.125,109,148.0
2709,E4,320.031,1.5,113,148.0
2710,G3,320.031,1.0,96,148.0
2711,E3,320.031,1.0,96,148.0
2712,C4,320.031,1.0,96,148.0
2713,C2,320.5,0.125,124,148.0
2714,B3,320.5,0.5,71,148.0
2715,E3,320.5,0.5,71,148.0
2716,E4,321.0,0.5,98,148.0
2717,B3,321.0,0.5,98,148.0
2718,E3,321.0,0.5,98,148.0
2719,B-2,321.0,0.125,109,148.0
2720,C2,321.0,0.125,109,148.0
2721,E3,321.031,1.0,77,148.0
2722,C4,321.031,1.0,77,148.0
2723,B3,321.5,107/500,104,148.0
2724,E4,321.5,107/500,104,148.0
2725,G4,321.5,107/500,104,148.0
2726,E4,322.0,107/500,100,148.0
2727,B3,322.0,107/500,100,148.0
2728,G4,322.0,107/500,100,148.0
2729,B-2,322.0,0.125,109,148.0
2730,E2,322.0,0.125,109,148.0
2731,C4,322.031,1.0,113,148.0
2732,E3,322.031,1.0,113,148.0
2733,G3,322.031,1.5,120,148.0
2734,E4,322.031,1.5,120,148.0
2735,E5,322.469,77/200,111,148.0
2736,G5,322.469,77/200,111,148.0
2737,G4,322.5,107/500,100,148.0
2738,E4,322.5,107/500,100,148.0
2739,B3,322.5,107/500,100,148.0
2740,E5,322.99,323/1000,116,148.0
2741,G5,322.99,323/1000,116,148.0
2742,B-2,323.0,0.125,94,148.0
2743,B3,323.0,0.5,104,148.0
2744,E4,323.0,0.5,104,148.0
2745,E3,323.0,0.5,104,148.0
2746,E3,323.031,0.5,69,148.0
2747,C4,323.031,0.5,69,148.0
2748,E5,323.438,69/125,113,148.0
2749,G5,323.438,69/125,113,148.0
2750,C2,323.5,0.125,124,148.0
2751,B3,323.5,0.5,75,148.0
2752,E3,323.5,0.5,75,148.0
2753,G3,323.531,0.5,113,148.0
2754,E4,323.531,0.5,109,148.0
2755,E3,323.531,0.5,109,148.0
2756,C4,323.531,0.5,109,148.0
2757,G5,324.0,22/25,115,148.0
2758,B5,324.0,22/25,115,148.0
2759,B-2,324.0,0.125,94,148.0
2760,B3,324.0,0.5,84,148.0
2761,E4,324.0,0.5,84,148.0
2762,E3,324.0,0.5,84,148.0
2763,E3,324.036,0.5,61,148.0
2764,G3,324.036,0.5,113,148.0
2765,E4,324.036,1/200,109,148.0
2766,E3,324.036,1/200,109,148.0
2767,C4,324.036,1/200,109,148.0
2768,B3,324.5,1.0,74,148.0
2769,E3,324.5,0.5,70,148.0
2770,E2,324.5,0.125,124,148.0
2771,G3,324.536,1.0,106,148.0
2772,E4,324.536,1.0,106,148.0
2773,C4,324.536,0.5,112,148.0
2774,E3,324.536,0.5,112,148.0
2775,E5,324.922,443/1000,104,148.0
2776,G5,324.922,443/1000,104,148.0
2777,B-2,325.0,0.125,94,148.0
2778,E4,325.0,0.5,90,148.0
2779,E3,325.0,0.5,90,148.0
2780,E3,325.036,1.0,78,148.0
2781,C4,325.036,1.0,78,148.0
2782,B5,325.417,0.922,113,148.0
2783,D6,325.417,0.922,113,148.0
2784,C2,325.5,0.125,124,148.0
2785,B3,325.5,0.5,66,148.0
2786,E3,325.5,0.5,66,148.0
2787,B3,326.0,0.5,82,148.0
2788,E4,326.0,0.5,82,148.0
2789,E3,326.0,0.5,82,148.0
2790,B-2,326.0,0.125,109,148.0
2791,E2,326.0,0.125,109,148.0
2792,G3,326.036,1.5,118,148.0
2793,E4,326.036,1.5,118,148.0
2794,C4,326.036,1.0,112,148.0
2795,E3,326.036,1.0,112,148.0
2796,A5,326.453,0.453,113,148.0
2797,C6,326.453,0.453,113,148.0
2798,C2,326.5,0.125,124,148.0
2799,B3,326.5,0.5,67,148.0
2800,E3,326.5,0.5,67,148.0
2801,E3,327.0,0.5,92,148.0
2802,B-2,327.0,0.125,94,148.0
2803,E4,327.0,1.0,108,148.0
2804,G3,327.0,1.0,108,148.0
2805,A5,327.01,99/100,122,148.0
2806,C6,327.01,99/100,122,148.0
2807,E3,327.036,1.0,79,148.0
2808,C4,327.036,0.5,70,148.0
2809,C4,327.5,1/200,63,148.0
2810,G3,327.536,0.5,92,148.0
2811,E4,327.536,0.5,92,148.0
2812,C4,327.536,0.5,92,148.0
2813,A5,328.0,2073/1000,122,148.0
2814,C6,328.0,2073/1000,122,148.0
2815,G3,328.0,1.0,101,148.0
2816,E4,328.0,0.5,88,148.0
2817,E3,328.0,0.5,88,148.0
2818,C#3,328.0,0.125,109,148.0
2819,C2,328.0,0.125,109,148.0
2820,A3,328.036,1.5,111,148.0
2821,D4,328.036,1.0,112,148.0
2822,F#3,328.036,1.0,112,148.0
2823,C4,328.5,1/200,76,148.0
2824,C2,328.5,0.125,124,148.0
2825,E4,329.0,0.5,100,148.0
2826,G3,329.0,0.5,100,148.0
2827,E3,329.0,0.5,100,148.0
2828,B-2,329.0,0.125,109,148.0
2829,C2,329.0,0.125,109,148.0
2830,D4,329.036,1.0,78,148.0
2831,F#3,329.036,1.0,78,148.0
2832,E4,329.5,107/500,106,148.0
2833,C4,329.5,107/500,106,148.0
2834,G4,329.5,107/500,106,148.0
2835,E4,330.0,107/500,96,148.0
2836,G4,330.0,107/500,96,148.0
2837,C4,330.0,107/500,96,148.0
2838,B-2,330.0,0.125,109,148.0
2839,E2,330.0,0.125,109,148.0
2840,D4,330.036,1.0,119,148.0
2841,A3,330.036,1.0,119,148.0
2842,F#3,330.036,1.0,119,148.0
2843,E4,330.5,107/500,101,148.0
2844,G4,330.5,107/500,101,148.0
2845,C4,330.5,107/500,101,148.0
2846,A5,330.516,37/100,111,148.0
2847,C6,330.516,37/100,111,148.0
2848,B-2,331.0,0.125,94,148.0
2849,G3,331.0,0.5,103,148.0
2850,E4,331.0,0.5,103,148.0
2851,E3,331.0,0.5,103,148.0
2852,A5,331.036,0.344,109,148.0
2853,C6,331.036,0.344,109,148.0
2854,F#3,331.036,0.5,76,148.0
2855,D4,331.036,0.5,76,148.0
2856,C4,331.5,1/200,63,148.0
2857,G3,331.5,0.5,64,148.0
2858,C2,331.5,0.125,124,148.0
2859,A5,331.516,0.344,108,148.0
2860,C6,331.516,0.344,108,148.0
2861,F#3,331.536,0.5,108,148.0
2862,D4,331.536,0.5,108,148.0
2863,A3,331.536,0.5,108,148.0
2864,B-2,332.0,0.125,94,148.0
2865,G3,332.0,0.5,90,148.0
2866,E4,332.0,0.5,90,148.0
2867,E3,332.0,0.5,90,148.0
2868,F#3,332.036,0.5,64,148.0
2869,A5,332.036,901/1000,110,148.0
2870,C6,332.036,901/1000,110,148.0
2871,C4,332.5,1/200,67,148.0
2872,G3,332.5,0.5,64,148.0
2873,E2,332.5,0.125,124,148.0
2874,A3,332.536,1.0,108,148.0
2875,D4,332.536,0.5,112,148.0
2876,F#3,332.536,0.5,112,148.0
2877,G5,332.927,0.578,110,148.0
2878,B5,332.927,0.578,110,148.0
2879,B-2,333.0,0.125,94,148.0
2880,G3,333.0,0.5,94,148.0
2881,E4,333.0,0.5,94,148.0
2882,E3,333.0,0.5,94,148.0
2883,F#3,333.036,1.0,79,148.0
2884,D4,333.036,1.0,79,148.0
2885,C4,333.5,1/200,64,148.0
2886,G3,333.5,0.5,62,148.0
2887,C2,333.5,0.125,124,148.0
2888,F#5,333.521,301/200,119,148.0
2889,A5,333.521,301/200,119,148.0
2890,G3,334.0,0.5,85,148.0
2891,E4,334.0,0.5,85,148.0
2892,E3,334.0,0.5,85,148.0
2893,B-2,334.0,0.125,109,148.0
2894,E2,334.0,0.125,109,148.0
2895,A3,334.036,1.5,115,148.0
2896,D4,334.036,1.0,110,148.0
2897,F#3,334.036,1.0,110,148.0
2898,C4,334.5,1/200,64,148.0
2899,G3,334.5,0.5,67,148.0
2900,C2,334.5,0.125,124,148.0
2901,E5,334.979,0.578,117,148.0
2902,G5,334.979,0.578,117,148.0
2903,B-2,335.0,0.125,94,148.0
2904,A3,335.0,0.5,102,148.0
2905,D4,335.0,0.5,102,148.0
2906,D3,335.0,0.5,102,148.0
2907,F#3,335.036,0.5,80,148.0
2908,D4,335.036,1.0,79,148.0
2909,A3,335.5,0.5,69,148.0
2910,D3,335.5,0.5,69,148.0
2911,E-5,335.51,49/100,118,148.0
2912,F#5,335.51,49/100,118,148.0
2913,F#3,335.536,0.5,76,148.0
2914,A3,335.536,0.5,76,148.0
2915,E-5,336.0,583/1000,118,148.0
2916,F#5,336.0,583/1000,118,148.0
2917,A3,336.0,0.5,96,148.0
2918,D4,336.0,0.5,96,148.0
2919,D3,336.0,0.5,96,148.0
2920,C#3,336.0,0.125,109,148.0
2921,C2,336.0,0.125,109,148.0
2922,A3,336.036,1.5,112,148.0
2923,E-4,336.036,1.0,102,148.0
2924,F#3,336.036,1.0,102,148.0
2925,C2,336.5,0.125,124,148.0
2926,D3,336.5,0.5,82,148.0
2927,A3,336.5,0.5,82,148.0
2928,C5,336.922,677/1000,111,148.0
2929,E5,336.922,677/1000,111,148.0
2930,A3,337.0,0.5,100,148.0
2931,D4,337.0,0.5,100,148.0
2932,D3,337.0,0.5,100,148.0
2933,B-2,337.0,0.125,109,148.0
2934,C2,337.0,0.125,109,148.0
2935,E-4,337.036,1.0,80,148.0
2936,F#3,337.036,1.0,80,148.0
2937,F#4,337.5,107/500,101,148.0
2938,A4,337.5,107/500,101,148.0
2939,D4,337.5,107/500,101,148.0
2940,B4,337.516,2.484,112,148.0
2941,E-5,337.516,2.484,112,148.0
2942,F#4,338.0,107/500,91,148.0
2943,A4,338.0,107/500,91,148.0
2944,D4,338.0,107/500,91,148.0
2945,B-2,338.0,0.125,109,148.0
2946,E2,338.0,0.125,109,148.0
2947,A3,338.036,1.5,113,148.0
2948,E-4,338.036,1.0,119,148.0
2949,F#3,338.036,1.0,119,148.0
2950,F#4,338.5,107/500,98,148.0
2951,A4,338.5,107/500,98,148.0
2952,D4,338.5,107/500,98,148.0
2953,A3,339.0,0.5,103,148.0
2954,D4,339.0,0.5,103,148.0
2955,D3,339.0,0.5,103,148.0
2956,C2,339.0,0.125,109,148.0
2957,B-2,339.0,0.125,109,148.0
2958,E-4,339.036,0.5,63,148.0
2959,F#3,339.036,0.5,63,148.0
2960,C2,339.5,0.125,124,148.0
2961,A3,339.5,0.5,72,148.0
2962,D3,339.5,0.5,72,148.0
2963,A3,339.536,0.5,115,148.0
2964,E-4,339.536,0.5,104,148.0
2965,F#3,339.536,0.5,104,148.0
2966,B4,340.0,153/125,112,148.0
2967,E-5,340.0,153/125,112,148.0
2968,B-2,340.0,0.125,94,148.0
2969,A3,340.0,0.5,90,148.0
2970,D4,340.0,0.5,90,148.0
2971,D3,340.0,0.5,90,148.0
2972,F#3,340.036,0.5,56,148.0
2973,A3,340.036,0.5,115,148.0
2974,E2,340.5,0.125,124,148.0
2975,D3,340.5,0.5,71,148.0
2976,A3,340.5,0.5,71,148.0
2977,A3,340.536,1.5,93,148.0
2978,E-4,340.536,0.5,110,148.0
2979,F#3,340.536,0.5,110,148.0
2980,B-2,341.0,0.125,94,148.0
2981,A3,341.0,0.5,94,148.0
2982,D4,341.0,0.5,94,148.0
2983,D3,341.0,0.5,94,148.0
2984,E-4,341.036,1.0,81,148.0
2985,F#3,341.036,1.0,81,148.0
2986,C2,341.5,0.125,124,148.0
2987,A3,341.5,0.5,70,148.0
2988,D3,341.5,0.5,70,148.0
2989,B5,341.661,37/50,124,148.0
2990,D6,341.661,37/50,124,148.0
2991,D4,342.0,1.0,93,148.0
2992,A3,342.0,0.5,94,148.0
2993,D3,342.0,0.5,94,148.0
2994,B-2,342.0,0.125,109,148.0
2995,E2,342.0,0.125,109,148.0
2996,A3,342.036,1.5,113,148.0
2997,E-4,342.036,1.0,112,148.0
2998,F#3,342.036,1.0,112,148.0
2999,A3,342.5,0.5,84,148.0
3000,D3,342.5,0.5,84,148.0
3001,B5,342.526,479/1000,121,148.0
3002,D6,342.526,479/1000,121,148.0
3003,E2,342.75,0.125,124,148.0
3004,B3,343.0,1.0,106,148.0
3005,E2,343.0,0.125,124,148.0
3006,F#3,343.0,0.5,104,148.0
3007,B2,343.0,0.5,104,148.0
3008,E-4,343.036,0.5,68,148.0
3009,F#3,343.036,0.5,68,148.0
3010,B5,343.094,0.906,124,148.0
3011,D6,343.094,0.906,124,148.0
3012,E2,343.25,0.125,124,148.0
3013,F2,343.5,0.125,117,148.0
3014,F#3,343.5,0.5,59,148.0
3015,B2,343.5,0.5,59,148.0
3016,E-4,343.536,0.5,105,148.0
3017,F#3,343.536,0.5,105,148.0
3018,A3,343.536,0.5,105,148.0
3019,F2,343.75,0.125,117,148.0
3020,B5,344.0,4.0,124,148.0
3021,D6,344.0,4.0,124,148.0
3022,B3,344.0,1.0,82,148.0
3023,F#3,344.0,0.5,74,148.0
3024,B2,344.0,0.5,74,148.0
3025,C#3,344.0,0.125,109,148.0
3026,C2,344.0,0.125,109,148.0
3027,G5,344.0,0.141,124,148.0
3028,G4,344.0,0.141,124,148.0
3029,E4,344.036,1.5,123,148.0
3030,B3,344.036,1.0,116,148.0
3031,E3,344.036,1.0,116,148.0
3032,C2,344.5,0.125,124,148.0
3033,F#3,344.5,0.5,62,148.0
3034,B2,344.5,0.5,62,148.0
3035,G5,344.5,0.141,117,148.0
3036,G4,344.5,0.141,117,148.0
3037,B3,345.0,1.0,101,148.0
3038,F#3,345.0,0.5,105,148.0
3039,B2,345.0,0.5,105,148.0
3040,B-2,345.0,0.125,109,148.0
3041,C2,345.0,0.125,109,148.0
3042,E5,345.0,0.141,118,148.0
3043,E4,345.0,0.141,118,148.0
3044,B3,345.036,1.0,78,148.0
3045,E3,345.036,1.0,78,148.0
3046,F#3,345.5,1.0,50,148.0
3047,B2,345.5,0.5,45,148.0
3048,E5,345.5,0.141,117,148.0
3049,E4,345.5,0.141,117,148.0
3050,B3,346.0,1.0,78,148.0
3051,B2,346.0,0.5,83,148.0
3052,B-2,346.0,0.125,109,148.0
3053,E2,346.0,0.125,109,148.0
3054,E4,346.036,1.5,124,148.0
3055,B3,346.036,1.0,123,148.0
3056,E3,346.036,1.0,123,148.0
3057,F#3,346.5,0.5,50,148.0
3058,B2,346.5,0.5,50,148.0
3059,B3,347.0,1.0,97,148.0
3060,B-2,347.0,0.125,94,148.0
3061,F#3,347.0,0.5,97,148.0
3062,B2,347.0,0.5,97,148.0
3063,G5,347.0,0.141,122,148.0
3064,G4,347.0,0.141,122,148.0
3065,B3,347.036,0.5,60,148.0
3066,E3,347.036,0.5,60,148.0
3067,F#3,347.5,1.0,48,148.0
3068,B2,347.5,0.5,48,148.0
3069,C2,347.5,0.125,124,148.0
3070,G5,347.5,0.141,115,148.0
3071,G4,347.5,0.141,115,148.0
3072,E4,347.536,0.5,110,148.0
3073,B3,347.536,0.5,110,148.0
3074,E3,347.536,0.5,110,148.0
3075,B5,348.0,0.125,124,148.0
3076,D6,348.0,0.125,124,148.0
3077,B3,348.0,1.0,68,148.0
3078,B2,348.0,0.5,70,148.0
3079,B-2,348.0,0.125,94,148.0
3080,E5,348.0,0.141,118,148.0
3081,E4,348.0,0.141,118,148.0
3082,E2,348.5,0.125,124,148.0
3083,F#3,348.5,0.5,56,148.0
3084,B2,348.5,0.5,56,148.0
3085,E5,348.5,0.141,118,148.0
3086,E4,348.5,0.141,118,148.0
3087,E4,348.536,1.0,115,148.0
3088,E3,348.536,0.5,111,148.0
3089,B3,349.0,1.0,94,148.0
3090,B-2,349.0,0.125,94,148.0
3091,F#3,349.0,0.5,96,148.0
3092,B2,349.0,0.5,96,148.0
3093,B3,349.036,1.0,81,148.0
3094,E3,349.036,1.0,81,148.0
3095,F#3,349.5,1.0,53,148.0
3096,B2,349.5,0.5,54,148.0
3097,C2,349.5,0.125,124,148.0
3098,B3,350.0,1.0,79,148.0
3099,B2,350.0,0.5,84,148.0
3100,B-2,350.0,0.125,109,148.0
3101,E2,350.0,0.125,109,148.0
3102,G4,350.0,0.141,124,148.0
3103,G5,350.0,0.141,124,148.0
3104,E4,350.036,1.5,120,148.0
3105,B3,350.036,1.0,122,148.0
3106,E3,350.036,1.0,122,148.0
3107,C2,350.5,0.125,124,148.0
3108,F#3,350.5,0.5,54,148.0
3109,B2,350.5,0.5,54,148.0
3110,G4,350.5,0.141,124,148.0
3111,G5,350.5,0.141,124,148.0
3112,B-2,351.0,0.125,94,148.0
3113,B3,351.0,0.5,105,148.0
3114,E4,351.0,0.5,105,148.0
3115,E3,351.0,0.5,105,148.0
3116,A4,351.0,0.141,122,148.0
3117,A5,351.0,0.141,122,148.0
3118,B3,351.036,0.5,74,148.0
3119,E3,351.036,0.5,74,148.0
3120,B3,351.5,0.5,74,148.0
3121,E3,351.5,0.5,74,148.0
3122,E4,351.536,0.5,113,148.0
3123,E3,351.536,0.5,104,148.0
3124,B3,351.536,0.5,104,148.0
3125,E4,352.0,1.0,85,148.0
3126,B3,352.0,0.5,82,148.0
3127,E3,352.0,0.5,82,148.0
3128,C#3,352.0,0.125,109,148.0
3129,C2,352.0,0.125,109,148.0
3130,G4,352.0,0.141,123,148.0
3131,G5,352.0,0.141,123,148.0
3132,E4,352.036,1.5,113,148.0
3133,G3,352.036,1.0,96,148.0
3134,E3,352.036,1.0,96,148.0
3135,C4,352.036,1.0,96,148.0
3136,C2,352.5,0.125,124,148.0
3137,B3,352.5,0.5,71,148.0
3138,E3,352.5,0.5,71,148.0
3139,G4,352.5,0.141,122,148.0
3140,G5,352.5,0.141,122,148.0
3141,E4,353.0,0.5,98,148.0
3142,B3,353.0,0.5,98,148.0
3143,E3,353.0,0.5,98,148.0
3144,B-2,353.0,0.125,109,148.0
3145,C2,353.0,0.125,109,148.0
3146,E4,353.0,0.141,122,148.0
3147,E5,353.0,0.141,122,148.0
3148,E3,353.036,1.0,77,148.0
3149,C4,353.036,1.0,77,148.0
3150,B3,353.5,107/500,104,148.0
3151,E4,353.5,107/500,104,148.0
3152,G4,353.5,107/500,104,148.0
3153,E4,353.5,0.141,122,148.0
3154,E5,353.5,0.141,122,148.0
3155,E4,354.0,107/500,100,148.0
3156,B3,354.0,107/500,100,148.0
3157,G4,354.0,107/500,100,148.0
3158,B-2,354.0,0.125,109,148.0
3159,E2,354.0,0.125,109,148.0
3160,C4,354.036,1.0,113,148.0
3161,E3,354.036,1.0,113,148.0
3162,G3,354.036,1.5,120,148.0
3163,E4,354.036,1.5,120,148.0
3164,G4,354.5,107/500,100,148.0
3165,E4,354.5,107/500,100,148.0
3166,B3,354.5,107/500,100,148.0
3167,B3,355.0,0.5,104,148.0
3168,E4,355.0,0.5,104,148.0
3169,E3,355.0,0.5,104,148.0
3170,C2,355.0,0.125,109,148.0
3171,B-2,355.0,0.125,109,148.0
3172,G5,355.0,0.141,124,148.0
3173,G4,355.0,0.141,124,148.0
3174,E3,355.036,0.5,69,148.0
3175,C4,355.036,0.5,69,148.0
3176,C2,355.5,0.125,124,148.0
3177,B3,355.5,0.5,75,148.0
3178,E3,355.5,0.5,75,148.0
3179,G5,355.5,0.141,124,148.0
3180,G4,355.5,0.141,124,148.0
3181,G3,355.536,0.5,113,148.0
3182,E4,355.536,0.5,109,148.0
3183,E3,355.536,0.5,109,148.0
3184,C4,355.536,0.5,109,148.0
3185,B-2,356.0,0.125,94,148.0
3186,B3,356.0,0.5,84,148.0
3187,E4,356.0,0.5,84,148.0
3188,E3,356.0,0.5,84,148.0
3189,E5,356.0,0.141,120,148.0
3190,E4,356.0,0.141,120,148.0
3191,E3,356.042,0.5,61,148.0
3192,G3,356.042,0.5,113,148.0
3193,E4,356.042,1/200,109,148.0
3194,E3,356.042,1/200,109,148.0
3195,C4,356.042,1/200,109,148.0
3196,B3,356.5,1.0,74,148.0
3197,E3,356.5,0.5,70,148.0
3198,E2,356.5,0.125,124,148.0
3199,E5,356.5,0.141,120,148.0
3200,E4,356.5,0.141,120,148.0
3201,G3,356.542,1.0,106,148.0
3202,E4,356.542,1.0,106,148.0
3203,C4,356.542,0.5,112,148.0
3204,E3,356.542,0.5,112,148.0
3205,B-2,357.0,0.125,94,148.0
3206,E4,357.0,0.5,90,148.0
3207,E3,357.0,0.5,90,148.0
3208,E3,357.042,1.0,78,148.0
3209,C4,357.042,1.0,78,148.0
3210,C2,357.5,0.125,124,148.0
3211,B3,357.5,0.5,66,148.0
3212,E3,357.5,0.5,66,148.0
3213,B3,358.0,0.5,82,148.0
3214,E4,358.0,0.5,82,148.0
3215,E3,358.0,0.5,82,148.0
3216,B-2,358.0,0.125,109,148.0
3217,E2,358.0,0.125,109,148.0
3218,G5,358.0,0.141,123,148.0
3219,G4,358.0,0.141,123,148.0
3220,G3,358.042,1.5,118,148.0
3221,E4,358.042,1.5,118,148.0
3222,C4,358.042,1.0,112,148.0
3223,E3,358.042,1.0,112,148.0
3224,C2,358.5,0.125,124,148.0
3225,B3,358.5,0.5,67,148.0
3226,E3,358.5,0.5,67,148.0
3227,G5,358.5,0.141,120,148.0
3228,G4,358.5,0.141,120,148.0
3229,E3,359.0,0.5,92,148.0
3230,E4,359.0,1.0,108,148.0
3231,G3,359.0,1.0,108,148.0
3232,E2,359.0,0.125,120,148.0
3233,E3,359.0,0.125,120,148.0
3234,A5,359.0,0.141,124,148.0
3235,A4,359.0,0.141,124,148.0
3236,E3,359.042,1.0,79,148.0
3237,C4,359.042,0.5,70,148.0
3238,C4,359.5,1/200,63,148.0
3239,G3,359.542,0.5,92,148.0
3240,E4,359.542,0.5,92,148.0
3241,C4,359.542,0.5,92,148.0
3242,G3,360.0,1.0,101,148.0
3243,E4,360.0,0.5,88,148.0
3244,E3,360.0,0.5,88,148.0
3245,C#3,360.0,0.125,109,148.0
3246,C2,360.0,0.125,109,148.0
3247,G5,360.0,0.141,123,148.0
3248,G4,360.0,0.141,123,148.0
3249,A3,360.042,1.5,111,148.0
3250,D4,360.042,1.0,112,148.0
3251,F#3,360.042,1.0,112,148.0
3252,C4,360.5,1/200,76,148.0
3253,C2,360.5,0.125,124,148.0
3254,G5,360.5,0.141,121,148.0
3255,G4,360.5,0.141,121,148.0
3256,E4,361.0,0.5,100,148.0
3257,G3,361.0,0.5,100,148.0
3258,E3,361.0,0.5,100,148.0
3259,B-2,361.0,0.125,109,148.0
3260,C2,361.0,0.125,109,148.0
3261,E5,361.0,0.141,117,148.0
3262,E4,361.0,0.141,117,148.0
3263,D4,361.042,1.0,78,148.0
3264,F#3,361.042,1.0,78,148.0
3265,E4,361.5,107/500,106,148.0
3266,C4,361.5,107/500,106,148.0
3267,G4,361.5,107/500,106,148.0
3268,E5,361.5,0.141,113,148.0
3269,E4,361.5,0.141,113,148.0
3270,E4,362.0,107/500,96,148.0
3271,G4,362.0,107/500,96,148.0
3272,C4,362.0,107/500,96,148.0
3273,B-2,362.0,0.125,109,148.0
3274,E2,362.0,0.125,109,148.0
3275,D4,362.042,1.0,119,148.0
3276,A3,362.042,1.0,119,148.0
3277,F#3,362.042,1.0,119,148.0
3278,E4,362.5,107/500,101,148.0
3279,G4,362.5,107/500,101,148.0
3280,C4,362.5,107/500,101,148.0
3281,B-2,363.0,0.125,94,148.0
3282,G3,363.0,0.5,103,148.0
3283,E4,363.0,0.5,103,148.0
3284,E3,363.0,0.5,103,148.0
3285,G5,363.0,0.141,119,148.0
3286,G4,363.0,0.141,119,148.0
3287,F#3,363.042,0.5,76,148.0
3288,D4,363.042,0.5,76,148.0
3289,C4,363.5,1/200,63,148.0
3290,G3,363.5,0.5,64,148.0
3291,C2,363.5,0.125,124,148.0
3292,G5,363.5,0.141,113,148.0
3293,G4,363.5,0.141,113,148.0
3294,F#3,363.542,0.5,108,148.0
3295,D4,363.542,0.5,108,148.0
3296,A3,363.542,0.5,108,148.0
3297,B-2,364.0,0.125,94,148.0
3298,G3,364.0,0.5,90,148.0
3299,E4,364.0,0.5,90,148.0
3300,E3,364.0,0.5,90,148.0
3301,E5,364.0,0.141,118,148.0
3302,E4,364.0,0.141,118,148.0
3303,F#3,364.042,0.5,64,148.0
3304,C4,364.5,1/200,67,148.0
3305,G3,364.5,0.5,64,148.0
3306,E2,364.5,0.125,124,148.0
3307,E5,364.5,0.141,116,148.0
3308,E4,364.5,0.141,116,148.0
3309,A3,364.542,1.0,108,148.0
3310,D4,364.542,0.5,112,148.0
3311,F#3,364.542,0.5,112,148.0
3312,G3,365.0,0.5,94,148.0
3313,E4,365.0,0.5,94,148.0
3314,E3,365.0,0.5,94,148.0
3315,C2,365.0,0.125,109,148.0
3316,B-2,365.0,0.125,109,148.0
3317,F#3,365.042,1.0,79,148.0
3318,D4,365.042,1.0,79,148.0
3319,C4,365.5,1/200,64,148.0
3320,G3,365.5,0.5,62,148.0
3321,C2,365.5,0.125,124,148.0
3322,G3,366.0,0.5,85,148.0
3323,E4,366.0,0.5,85,148.0
3324,E3,366.0,0.5,85,148.0
3325,B-2,366.0,0.125,109,148.0
3326,E2,366.0,0.125,109,148.0
3327,G5,366.0,0.141,124,148.0
3328,G4,366.0,0.141,124,148.0
3329,A3,366.042,1.5,115,148.0
3330,D4,366.042,1.0,110,148.0
3331,F#3,366.042,1.0,110,148.0
3332,C4,366.5,1/200,64,148.0
3333,G3,366.5,0.5,67,148.0
3334,C2,366.5,0.125,124,148.0
3335,G5,366.5,0.141,116,148.0
3336,G4,366.5,0.141,116,148.0
3337,B-2,367.0,0.125,94,148.0
3338,A3,367.0,0.5,102,148.0
3339,D4,367.0,0.5,102,148.0
3340,D3,367.0,0.5,102,148.0
3341,A5,367.0,0.141,124,148.0
3342,A4,367.0,0.141,124,148.0
3343,F#3,367.042,0.5,80,148.0
3344,D4,367.042,1.0,79,148.0
3345,A3,367.5,0.5,69,148.0
3346,D3,367.5,0.5,69,148.0
3347,F#3,367.542,0.5,76,148.0
3348,A3,367.542,0.5,76,148.0
3349,A3,368.0,0.5,96,148.0
3350,D4,368.0,0.5,96,148.0
3351,D3,368.0,0.5,96,148.0
3352,C#3,368.0,0.125,109,148.0
3353,C2,368.0,0.125,109,148.0
3354,B5,368.0,1.0,108,148.0
3355,B4,368.0,1.0,108,148.0
3356,A3,368.042,1.5,112,148.0
3357,E-4,368.042,1.0,102,148.0
3358,F#3,368.042,1.0,102,148.0
3359,C2,368.5,0.125,124,148.0
3360,D3,368.5,0.5,82,148.0
3361,A3,368.5,0.5,82,148.0
3362,A3,369.0,0.5,100,148.0
3363,D4,369.0,0.5,100,148.0
3364,D3,369.0,0.5,100,148.0
3365,B-2,369.0,0.125,109,148.0
3366,C2,369.0,0.125,109,148.0
3367,A5,369.0,0.5,100,148.0
3368,A4,369.0,0.5,100,148.0
3369,E-4,369.042,1.0,80,148.0
3370,F#3,369.042,1.0,80,148.0
3371,E2,369.5,0.125,124,148.0
3372,F#4,369.5,107/500,101,148.0
3373,A4,369.5,107/500,101,148.0
3374,D4,369.5,107/500,101,148.0
3375,G5,369.5,1.0,110,148.0
3376,G4,369.5,1.0,110,148.0
3377,B-2,370.0,0.125,94,148.0
3378,F#4,370.0,107/500,91,148.0
3379,A4,370.0,107/500,91,148.0
3380,D4,370.0,107/500,91,148.0
3381,A3,370.042,1.5,113,148.0
3382,E-4,370.042,1.0,119,148.0
3383,F#3,370.042,1.0,119,148.0
3384,E2,370.5,0.125,124,148.0
3385,F#4,370.5,107/500,98,148.0
3386,A4,370.5,107/500,98,148.0
3387,D4,370.5,107/500,98,148.0
3388,F#5,370.5,0.5,100,148.0
3389,F#4,370.5,0.5,100,148.0
3390,A3,371.0,0.5,103,148.0
3391,D4,371.0,0.5,103,148.0
3392,D3,371.0,0.5,103,148.0
3393,C#3,371.0,0.125,104,148.0
3394,C2,371.0,0.125,104,148.0
3395,B-2,371.0,0.125,104,148.0
3396,A5,371.0,1.0,113,148.0
3397,A4,371.0,1.0,113,148.0
3398,E-4,371.042,0.5,63,148.0
3399,F#3,371.042,0.5,63,148.0
3400,C2,371.5,0.125,124,148.0
3401,A3,371.5,0.5,72,148.0
3402,D3,371.5,0.5,72,148.0
3403,A3,371.542,0.5,115,148.0
3404,E-4,371.542,0.5,104,148.0
3405,F#3,371.542,0.5,104,148.0
3406,A3,372.0,0.5,90,148.0
3407,D4,372.0,0.5,90,148.0
3408,D3,372.0,0.5,90,148.0
3409,C2,372.0,0.125,109,148.0
3410,B-2,372.0,0.125,109,148.0
3411,G5,372.0,0.5,104,148.0
3412,G4,372.0,0.5,104,148.0
3413,F#3,372.042,0.5,56,148.0
3414,A3,372.042,0.5,115,148.0
3415,E3,372.5,1/200,117,148.0
3416,E2,372.5,0.125,124,148.0
3417,D3,372.5,0.5,71,148.0
3418,A3,372.5,0.5,71,148.0
3419,F#5,372.5,1.0,109,148.0
3420,F#4,372.5,1.0,109,148.0
3421,A3,372.542,1.5,93,148.0
3422,E-4,372.542,0.5,110,148.0
3423,F#3,372.542,0.5,110,148.0
3424,B-2,373.0,0.125,94,148.0
3425,A3,373.0,0.5,94,148.0
3426,D4,373.0,0.5,94,148.0
3427,D3,373.0,0.5,94,148.0
3428,E-4,373.042,1.0,81,148.0
3429,F#3,373.042,1.0,81,148.0
3430,E5,373.052,0.75,117,148.0
3431,G5,373.052,0.75,117,148.0
3432,C2,373.5,0.125,124,148.0
3433,A3,373.5,0.5,70,148.0
3434,D3,373.5,0.5,70,148.0
3435,E5,373.5,0.5,109,148.0
3436,E4,373.5,0.5,109,148.0
3437,D4,374.0,1.0,93,148.0
3438,A3,374.0,0.5,94,148.0
3439,D3,374.0,0.5,94,148.0
3440,C#3,374.0,0.125,104,148.0
3441,B-2,374.0,0.125,104,148.0
3442,E2,374.0,0.125,104,148.0
3443,E-5,374.0,0.5,107,148.0
3444,E-4,374.0,0.5,107,148.0
3445,E5,374.026,0.984,113,148.0
3446,G5,374.026,0.984,113,148.0
3447,A3,374.042,1.5,113,148.0
3448,E-4,374.042,1.0,112,148.0
3449,F#3,374.042,1.0,112,148.0
3450,A3,374.5,0.5,84,148.0
3451,D3,374.5,0.5,84,148.0
3452,E5,374.5,0.5,110,148.0
3453,E4,374.5,0.5,110,148.0
3454,E2,374.75,0.125,124,148.0
3455,G5,374.964,0.75,119,148.0
3456,B5,374.964,0.75,119,148.0
3457,B3,375.0,1.0,106,148.0
3458,E2,375.0,0.125,124,148.0
3459,F#3,375.0,0.5,104,148.0
3460,B2,375.0,0.5,104,148.0
3461,E5,375.0,1.0,106,148.0
3462,E4,375.0,1.0,106,148.0
3463,E-4,375.042,0.5,68,148.0
3464,F#3,375.042,0.5,68,148.0
3465,E2,375.25,0.125,124,148.0
3466,F2,375.5,0.125,117,148.0
3467,F#3,375.5,0.5,59,148.0
3468,B2,375.5,0.5,59,148.0
3469,E-4,375.542,0.5,105,148.0
3470,F#3,375.542,0.5,105,148.0
3471,A3,375.542,0.5,105,148.0
3472,F2,375.75,0.125,117,148.0
3473,G5,375.958,21/500,113,148.0
3474,B5,375.958,21/500,113,148.0
3475,G5,376.0,1849/1000,113,148.0
3476,B5,376.0,1849/1000,113,148.0
3477,B3,376.0,1.0,82,148.0
3478,F#3,376.0,0.5,74,148.0
3479,B2,376.0,0.5,74,148.0
3480,C#3,376.0,0.125,109,148.0
3481,C2,376.0,0.125,109,148.0
3482,E4,376.042,1.5,123,148.0
3483,B3,376.042,1.0,116,148.0
3484,E3,376.042,1.0,116,148.0
3485,C2,376.5,0.125,124,148.0
3486,F#3,376.5,0.5,62,148.0
3487,B2,376.5,0.5,62,148.0
3488,B3,377.0,1.0,101,148.0
3489,F#3,377.0,0.5,105,148.0
3490,B2,377.0,0.5,105,148.0
3491,B-2,377.0,0.125,109,148.0
3492,C2,377.0,0.125,109,148.0
3493,B3,377.042,1.0,78,148.0
3494,E3,377.042,1.0,78,148.0
3495,F#3,377.5,1.0,50,148.0
3496,B2,377.5,0.5,45,148.0
3497,B3,378.0,1.0,78,148.0
3498,B2,378.0,0.5,83,148.0
3499,B-2,378.0,0.125,109,148.0
3500,E2,378.0,0.125,109,148.0
3501,E4,378.042,1.5,124,148.0
3502,B3,378.042,1.0,123,148.0
3503,E3,378.042,1.0,123,148.0
3504,E5,378.406,229/500,113,148.0
3505,G5,378.406,229/500,113,148.0
3506,F#3,378.5,0.5,50,148.0
3507,B2,378.5,0.5,50,148.0
3508,E5,378.99,0.5,119,148.0
3509,G5,378.99,0.5,119,148.0
3510,B3,379.0,1.0,97,148.0
3511,B-2,379.0,0.125,94,148.0
3512,F#3,379.0,0.5,97,148.0
3513,B2,379.0,0.5,97,148.0
3514,B3,379.042,0.5,60,148.0
3515,E3,379.042,0.5,60,148.0
3516,F#5,379.448,0.5,121,148.0
3517,A5,379.448,0.5,121,148.0
3518,F#3,379.5,1.0,48,148.0
3519,B2,379.5,0.5,48,148.0
3520,C2,379.5,0.125,124,148.0
3521,E4,379.542,0.5,110,148.0
3522,B3,379.542,0.5,110,148.0
3523,E3,379.542,0.5,110,148.0
3524,G5,379.938,0.062,120,148.0
3525,B5,379.938,0.062,120,148.0
3526,G5,380.0,1073/1000,120,148.0
3527,B5,380.0,1073/1000,120,148.0
3528,B3,380.0,1.0,68,148.0
3529,B2,380.0,0.5,70,148.0
3530,B-2,380.0,0.125,94,148.0
3531,E2,380.5,0.125,124,148.0
3532,F#3,380.5,0.5,56,148.0
3533,B2,380.5,0.5,56,148.0
3534,E4,380.542,1.0,115,148.0
3535,E3,380.542,0.5,111,148.0
3536,B3,381.0,1.0,94,148.0
3537,B-2,381.0,0.125,94,148.0
3538,F#3,381.0,0.5,96,148.0
3539,B2,381.0,0.5,96,148.0
3540,B3,381.042,1.0,81,148.0
3541,E3,381.042,1.0,81,148.0
3542,E5,381.432,0.578,111,148.0
3543,G5,381.432,0.578,111,148.0
3544,F#3,381.5,1.0,53,148.0
3545,B2,381.5,0.5,54,148.0
3546,C2,381.5,0.125,124,148.0
3547,A5,381.99,0.531,112,148.0
3548,C6,381.99,0.531,112,148.0
3549,B3,382.0,1.0,79,148.0
3550,B2,382.0,0.5,84,148.0
3551,B-2,382.0,0.125,109,148.0
3552,E2,382.0,0.125,109,148.0
3553,E4,382.042,1.5,120,148.0
3554,B3,382.042,1.0,122,148.0
3555,E3,382.042,1.0,122,148.0
3556,C2,382.5,0.125,124,148.0
3557,F#3,382.5,0.5,54,148.0
3558,B2,382.5,0.5,54,148.0
3559,G5,382.521,0.453,117,148.0
3560,B5,382.521,0.453,117,148.0
3561,B-2,383.0,0.125,94,148.0
3562,B3,383.0,0.5,105,148.0
3563,E4,383.0,0.5,105,148.0
3564,E3,383.0,0.5,105,148.0
3565,F#5,383.016,0.625,122,148.0
3566,A5,383.016,0.625,122,148.0
3567,B3,383.042,0.5,74,148.0
3568,E3,383.042,0.5,74,148.0
3569,B3,383.5,0.5,74,148.0
3570,E3,383.5,0.5,74,148.0
3571,E4,383.542,0.5,113,148.0
3572,E3,383.542,0.5,104,148.0
3573,B3,383.542,0.5,104,148.0
3574,G5,383.594,0.406,121,148.0
3575,B5,383.594,0.406,121,148.0
3576,G5,384.0,19/25,121,148.0
3577,B5,384.0,19/25,121,148.0
3578,E4,384.0,1.0,85,148.0
3579,B3,384.0,0.5,82,148.0
3580,E3,384.0,0.5,82,148.0
3581,B-2,384.0,0.125,109,148.0
3582,C2,384.0,0.125,109,148.0
3583,E4,384.042,1.5,113,148.0
3584,G3,384.042,1.0,96,148.0
3585,E3,384.042,1.0,96,148.0
3586,C4,384.042,1.0,96,148.0
3587,C2,384.5,0.125,124,148.0
3588,B3,384.5,0.5,71,148.0
3589,E3,384.5,0.5,71,148.0
3590,G5,384.891,1.562,124,148.0
3591,B5,384.891,1.562,124,148.0
3592,E4,385.0,0.5,98,148.0
3593,B3,385.0,0.5,98,148.0
3594,E3,385.0,0.5,98,148.0
3595,B-2,385.0,0.125,109,148.0
3596,C2,385.0,0.125,109,148.0
3597,E3,385.042,1.0,77,148.0
3598,C4,385.042,1.0,77,148.0
3599,B3,385.5,107/500,104,148.0
3600,E4,385.5,107/500,104,148.0
3601,G4,385.5,107/500,104,148.0
3602,E4,386.0,107/500,100,148.0
3603,B3,386.0,107/500,100,148.0
3604,G4,386.0,107/500,100,148.0
3605,B-2,386.0,0.125,109,148.0
3606,E2,386.0,0.125,109,148.0
3607,C4,386.042,1.0,113,148.0
3608,E3,386.042,1.0,113,148.0
3609,G3,386.042,1.5,120,148.0
3610,E4,386.042,1.5,120,148.0
3611,G4,386.5,107/500,100,148.0
3612,E4,386.5,107/500,100,148.0
3613,B3,386.5,107/500,100,148.0
3614,E5,386.557,0.359,120,148.0
3615,G5,386.557,0.359,120,148.0
3616,B-2,387.0,0.125,94,148.0
3617,B3,387.0,0.5,104,148.0
3618,E4,387.0,0.5,104,148.0
3619,E3,387.0,0.5,104,148.0
3620,E5,387.042,0.438,121,148.0
3621,G5,387.042,0.438,121,148.0
3622,E3,387.042,0.5,69,148.0
3623,C4,387.042,0.5,69,148.0
3624,F#5,387.495,49/100,119,148.0
3625,A5,387.495,49/100,119,148.0
3626,C2,387.5,0.125,124,148.0
3627,B3,387.5,0.5,75,148.0
3628,E3,387.5,0.5,75,148.0
3629,G3,387.542,0.5,113,148.0
3630,E4,387.542,0.5,109,148.0
3631,E3,387.542,0.5,109,148.0
3632,C4,387.542,0.5,109,148.0
3633,G5,387.979,21/1000,116,148.0
3634,B5,387.979,21/1000,116,148.0
3635,G5,388.0,1.156,116,148.0
3636,B5,388.0,1.156,116,148.0
3637,B-2,388.0,0.125,94,148.0
3638,B3,388.0,0.5,84,148.0
3639,E4,388.0,0.5,84,148.0
3640,E3,388.0,0.5,84,148.0
3641,E3,388.047,0.5,61,148.0
3642,G3,388.047,0.5,113,148.0
3643,E4,388.047,1/200,109,148.0
3644,E3,388.047,1/200,109,148.0
3645,C4,388.047,1/200,109,148.0
3646,B3,388.5,1.0,74,148.0
3647,E3,388.5,0.5,70,148.0
3648,E2,388.5,0.125,124,148.0
3649,G3,388.547,1.0,106,148.0
3650,E4,388.547,1.0,106,148.0
3651,C4,388.547,0.5,112,148.0
3652,E3,388.547,0.5,112,148.0
3653,B-2,389.0,0.125,94,148.0
3654,E4,389.0,0.5,90,148.0
3655,E3,389.0,0.5,90,148.0
3656,E3,389.047,1.0,78,148.0
3657,C4,389.047,1.0,78,148.0
3658,C2,389.5,0.125,124,148.0
3659,B3,389.5,0.5,66,148.0
3660,E3,389.5,0.5,66,148.0
3661,E5,389.604,521/1000,109,148.0
3662,G5,389.604,521/1000,109,148.0
3663,B3,390.0,0.5,82,148.0
3664,E4,390.0,0.5,82,148.0
3665,E3,390.0,0.5,82,148.0
3666,B-2,390.0,0.125,109,148.0
3667,E2,390.0,0.125,109,148.0
3668,G3,390.047,1.5,118,148.0
3669,E4,390.047,1.5,118,148.0
3670,C4,390.047,1.0,112,148.0
3671,E3,390.047,1.0,112,148.0
3672,A5,390.115,49/100,111,148.0
3673,C6,390.115,49/100,111,148.0
3674,C2,390.5,0.125,124,148.0
3675,B3,390.5,0.5,67,148.0
3676,E3,390.5,0.5,67,148.0
3677,G5,390.568,54/125,116,148.0
3678,B5,390.568,54/125,116,148.0
3679,E3,391.0,0.5,92,148.0
3680,B-2,391.0,0.125,94,148.0
3681,E4,391.0,1.0,108,148.0
3682,G3,391.0,1.0,108,148.0
3683,F#5,391.026,123/200,120,148.0
3684,A5,391.026,123/200,120,148.0
3685,E3,391.047,1.0,79,148.0
3686,C4,391.047,0.5,70,148.0
3687,C4,391.5,1/200,63,148.0
3688,G3,391.547,0.5,92,148.0
3689,E4,391.547,0.5,92,148.0
3690,C4,391.547,0.5,92,148.0
3691,G5,391.604,99/250,122,148.0
3692,B5,391.604,99/250,122,148.0
3693,G5,392.0,667/1000,122,148.0
3694,B5,392.0,667/1000,122,148.0
3695,G3,392.0,1.0,101,148.0
3696,E4,392.0,0.5,88,148.0
3697,E3,392.0,0.5,88,148.0
3698,C#3,392.0,0.125,109,148.0
3699,C2,392.0,0.125,109,148.0
3700,A3,392.047,1.5,111,148.0
3701,D4,392.047,1.0,112,148.0
3702,F#3,392.047,1.0,112,148.0
3703,C4,392.5,1/200,76,148.0
3704,C2,392.5,0.125,124,148.0
3705,G5,392.792,1427/1000,124,148.0
3706,B5,392.792,1427/1000,124,148.0
3707,E4,393.0,0.5,100,148.0
3708,G3,393.0,0.5,100,148.0
3709,E3,393.0,0.5,100,148.0
3710,B-2,393.0,0.125,109,148.0
3711,C2,393.0,0.125,109,148.0
3712,D4,393.047,1.0,78,148.0
3713,F#3,393.047,1.0,78,148.0
3714,E4,393.5,107/500,106,148.0
3715,C4,393.5,107/500,106,148.0
3716,G4,393.5,107/500,106,148.0
3717,E4,394.0,107/500,96,148.0
3718,G4,394.0,107/500,96,148.0
3719,C4,394.0,107/500,96,148.0
3720,B-2,394.0,0.125,109,148.0
3721,E2,394.0,0.125,109,148.0
3722,D4,394.047,1.0,119,148.0
3723,A3,394.047,1.0,119,148.0
3724,F#3,394.047,1.0,119,148.0
3725,E4,394.5,107/500,101,148.0
3726,G4,394.5,107/500,101,148.0
3727,C4,394.5,107/500,101,148.0
3728,E5,394.521,177/500,112,148.0
3729,G5,394.521,177/500,112,148.0
3730,E5,395.0,479/1000,115,148.0
3731,G5,395.0,479/1000,115,148.0
3732,B-2,395.0,0.125,94,148.0
3733,G3,395.0,0.5,103,148.0
3734,E4,395.0,0.5,103,148.0
3735,E3,395.0,0.5,103,148.0
3736,F#3,395.047,0.5,76,148.0
3737,D4,395.047,0.5,76,148.0
3738,F#5,395.458,0.531,119,148.0
3739,A5,395.458,0.531,119,148.0
3740,C4,395.5,1/200,63,148.0
3741,G3,395.5,0.5,64,148.0
3742,C2,395.5,0.125,124,148.0
3743,F#3,395.547,0.5,108,148.0
3744,D4,395.547,0.5,108,148.0
3745,A3,395.547,0.5,108,148.0
3746,G5,395.99,1/100,120,148.0
3747,B5,395.99,1/100,120,148.0
3748,G5,396.0,237/250,120,148.0
3749,B5,396.0,237/250,120,148.0
3750,B-2,396.0,0.125,94,148.0
3751,G3,396.0,0.5,90,148.0
3752,E4,396.0,0.5,90,148.0
3753,E3,396.0,0.5,90,148.0
3754,F#3,396.047,0.5,64,148.0
3755,C4,396.5,1/200,67,148.0
3756,G3,396.5,0.5,64,148.0
3757,E2,396.5,0.125,124,148.0
3758,A3,396.547,1.0,108,148.0
3759,D4,396.547,0.5,112,148.0
3760,F#3,396.547,0.5,112,148.0
3761,B-2,397.0,0.125,94,148.0
3762,G3,397.0,0.5,94,148.0
3763,E4,397.0,0.5,94,148.0
3764,E3,397.0,0.5,94,148.0
3765,F#3,397.047,1.0,79,148.0
3766,D4,397.047,1.0,79,148.0
3767,E5,397.469,271/500,111,148.0
3768,G5,397.469,271/500,111,148.0
3769,C4,397.5,1/200,64,148.0
3770,G3,397.5,0.5,62,148.0
3771,C2,397.5,0.125,124,148.0
3772,A5,397.995,99/200,110,148.0
3773,C6,397.995,99/200,110,148.0
3774,G3,398.0,0.5,85,148.0
3775,E4,398.0,0.5,85,148.0
3776,E3,398.0,0.5,85,148.0
3777,B-2,398.0,0.125,109,148.0
3778,E2,398.0,0.125,109,148.0
3779,A3,398.047,1.5,115,148.0
3780,D4,398.047,1.0,110,148.0
3781,F#3,398.047,1.0,110,148.0
3782,G5,398.458,427/1000,113,148.0
3783,B5,398.458,427/1000,113,148.0
3784,C4,398.5,1/200,64,148.0
3785,G3,398.5,0.5,67,148.0
3786,C2,398.5,0.125,124,148.0
3787,F#5,398.901,427/1000,115,148.0
3788,A5,398.901,427/1000,115,148.0
3789,B-2,399.0,0.125,94,148.0
3790,A3,399.0,0.5,102,148.0
3791,D4,399.0,0.5,102,148.0
3792,D3,399.0,0.5,102,148.0
3793,F#3,399.047,0.5,80,148.0
3794,D4,399.047,1.0,79,148.0
3795,E5,399.406,0.594,112,148.0
3796,G5,399.406,0.594,112,148.0
3797,A3,399.5,0.5,69,148.0
3798,D3,399.5,0.5,69,148.0
3799,F#3,399.547,0.5,76,148.0
3800,A3,399.547,0.5,76,148.0
3801,E5,400.0,0.906,112,148.0
3802,G5,400.0,0.906,112,148.0
3803,A3,400.0,0.5,96,148.0
3804,D4,400.0,0.5,96,148.0
3805,D3,400.0,0.5,96,148.0
3806,C#3,400.0,0.125,109,148.0
3807,C2,400.0,0.125,109,148.0
3808,A3,400.047,1.5,112,148.0
3809,E-4,400.047,1.0,102,148.0
3810,F#3,400.047,1.0,102,148.0
3811,C2,400.5,0.125,124,148.0
3812,D3,400.5,0.5,82,148.0
3813,A3,400.5,0.5,82,148.0
3814,F#5,400.802,1599/500,123,148.0
3815,A5,400.802,1599/500,123,148.0
3816,A3,401.0,0.5,100,148.0
3817,D4,401.0,0.5,100,148.0
3818,D3,401.0,0.5,100,148.0
3819,B-2,401.0,0.125,109,148.0
3820,C2,401.0,0.125,109,148.0
3821,E-4,401.047,1.0,80,148.0
3822,F#3,401.047,1.0,80,148.0
3823,F#4,401.5,107/500,101,148.0
3824,A4,401.5,107/500,101,148.0
3825,D4,401.5,107/500,101,148.0
3826,F#4,402.0,107/500,91,148.0
3827,A4,402.0,107/500,91,148.0
3828,D4,402.0,107/500,91,148.0
3829,B-2,402.0,0.125,109,148.0
3830,E2,402.0,0.125,109,148.0
3831,A3,402.047,1.5,113,148.0
3832,E-4,402.047,1.0,119,148.0
3833,F#3,402.047,1.0,119,148.0
3834,F#4,402.5,107/500,98,148.0
3835,A4,402.5,107/500,98,148.0
3836,D4,402.5,107/500,98,148.0
3837,B-2,403.0,0.125,94,148.0
3838,A3,403.0,0.5,103,148.0
3839,D4,403.0,0.5,103,148.0
3840,D3,403.0,0.5,103,148.0
3841,E-4,403.047,0.5,63,148.0
3842,F#3,403.047,0.5,63,148.0
3843,C2,403.5,0.125,124,148.0
3844,A3,403.5,0.5,72,148.0
3845,D3,403.5,0.5,72,148.0
3846,A3,403.547,0.5,115,148.0
3847,E-4,403.547,0.5,104,148.0
3848,F#3,403.547,0.5,104,148.0
3849,F#5,404.0,771/1000,123,148.0
3850,A5,404.0,771/1000,123,148.0
3851,B-2,404.0,0.125,94,148.0
3852,A3,404.0,0.5,90,148.0
3853,D4,404.0,0.5,90,148.0
3854,D3,404.0,0.5,90,148.0
3855,F#3,404.047,0.5,56,148.0
3856,A3,404.047,0.5,115,148.0
3857,E2,404.5,0.125,124,148.0
3858,D3,404.5,0.5,71,148.0
3859,A3,404.5,0.5,71,148.0
3860,A3,404.547,1.5,93,148.0
3861,E-4,404.547,0.5,110,148.0
3862,F#3,404.547,0.5,110,148.0
3863,B-2,405.0,0.125,94,148.0
3864,A3,405.0,0.5,94,148.0
3865,D4,405.0,0.5,94,148.0
3866,D3,405.0,0.5,94,148.0
3867,E-4,405.047,1.0,81,148.0
3868,F#3,405.047,1.0,81,148.0
3869,E5,405.182,1.0,116,148.0
3870,C2,405.5,0.125,124,148.0
3871,A3,405.5,0.5,70,148.0
3872,D3,405.5,0.5,70,148.0
3873,D4,406.0,1.0,93,148.0
3874,A3,406.0,0.5,94,148.0
3875,D3,406.0,0.5,94,148.0
3876,B-2,406.0,0.125,109,148.0
3877,E2,406.0,0.125,109,148.0
3878,A3,406.047,1.5,113,148.0
3879,E-4,406.047,1.0,112,148.0
3880,F#3,406.047,1.0,112,148.0
3881,E5,406.333,0.875,115,148.0
3882,E2,406.5,0.125,124,148.0
3883,A3,406.5,0.5,84,148.0
3884,D3,406.5,0.5,84,148.0
3885,E2,406.75,0.125,124,148.0
3886,B3,407.0,1.0,106,148.0
3887,E2,407.0,0.125,124,148.0
3888,F#3,407.0,0.5,104,148.0
3889,B2,407.0,0.5,104,148.0
3890,E-4,407.047,0.5,68,148.0
3891,F#3,407.047,0.5,68,148.0
3892,B5,407.12,401/500,123,148.0
3893,C2,407.5,0.125,124,148.0
3894,F#3,407.5,0.5,59,148.0
3895,B2,407.5,0.5,59,148.0
3896,E-4,407.547,0.5,105,148.0
3897,F#3,407.547,0.5,105,148.0
3898,A3,407.547,0.5,105,148.0
3899,B3,408.0,1.0,82,148.0
3900,F#3,408.0,0.5,74,148.0
3901,B2,408.0,0.5,74,148.0
3902,C#3,408.0,0.125,109,148.0
3903,C2,408.0,0.125,109,148.0
3904,B5,408.047,2651/1000,124,148.0
3905,E4,408.047,0.5,123,148.0
3906,B3,408.047,0.5,123,148.0
3907,E3,408.047,0.5,123,148.0
3908,F#3,408.5,0.5,62,148.0
3909,B2,408.5,0.5,62,148.0
3910,E3,408.5,0.125,120,148.0
3911,C2,408.5,0.125,120,148.0
3912,B3,408.547,0.5,84,148.0
3913,E3,408.547,0.5,84,148.0
3914,B3,409.0,1.0,101,148.0
3915,F#3,409.0,0.5,105,148.0
3916,B2,409.0,0.5,105,148.0
3917,C#3,409.0,0.125,109,148.0
3918,C2,409.0,0.125,109,148.0
3919,E4,409.047,3.0,120,148.0
3920,B3,409.047,3.0,120,148.0
3921,E3,409.047,3.0,120,148.0
3922,F#3,409.5,1.0,50,148.0
3923,B2,409.5,0.5,45,148.0
3924,B3,410.0,1.0,78,148.0
3925,B2,410.0,0.5,83,148.0
3926,F#2,410.0,0.125,94,148.0
3927,F#3,410.5,0.5,50,148.0
3928,B2,410.5,0.5,50,148.0
3929,G5,410.531,77/200,111,148.0
3930,B3,411.0,1.0,97,148.0
3931,F#3,411.0,0.5,97,148.0
3932,B2,411.0,0.5,97,148.0
3933,G5,411.052,0.422,114,148.0
3934,F#3,411.5,1.0,48,148.0
3935,B2,411.5,0.5,48,148.0
3936,G5,411.557,443/1000,102,148.0
3937,G5,412.0,23/200,102,148.0
3938,B3,412.0,1.0,68,148.0
3939,B2,412.0,0.5,70,148.0
3940,F#2,412.0,0.125,94,148.0
3941,D6,412.042,0.703,112,148.0
3942,F#3,412.5,0.5,56,148.0
3943,B2,412.5,0.5,56,148.0
3944,C6,412.646,591/500,114,148.0
3945,B3,413.0,1.0,94,148.0
3946,F#3,413.0,0.5,96,148.0
3947,B2,413.0,0.5,96,148.0
3948,F#3,413.5,1.0,53,148.0
3949,B2,413.5,0.5,54,148.0
3950,B5,413.792,237/250,122,148.0
3951,B3,414.0,1.0,79,148.0
3952,B2,414.0,0.5,84,148.0
3953,F#2,414.0,0.125,94,148.0
3954,F#3,414.5,0.5,54,148.0
3955,B2,414.5,0.5,54,148.0
3956,A5,414.729,99/100,114,148.0
3957,E3,415.005,799/200,103,148.0
3958,B2,415.005,799/200,103,148.0
3959,E2,415.005,799/200,103,148.0
3960,G3,415.526,521/1000,110,148.0
3961,C4,415.646,401/1000,110,148.0
3962,G5,415.667,333/1000,114,148.0
3963,E4,415.859,0.188,112,148.0
3964,G5,416.0,987/500,114,148.0
3965,F#2,416.0,0.125,94,148.0
3966,G4,416.047,4.0,113,148.0
3967,G3,416.047,2.0,110,148.0
3968,C4,416.047,7917/1000,110,148.0
3969,E4,416.047,3987/500,112,148.0
3970,E3,417.047,1.5,124,148.0
3971,F#2,418.0,0.125,94,148.0
3972,G3,418.047,2.0,115,148.0
3973,E5,418.568,71/125,104,148.0
3974,C3,418.953,1.094,110,148.0
3975,B3,419.047,1.0,115,148.0
3976,E3,419.052,199/200,114,148.0
3977,G5,419.062,71/125,108,148.0
3978,E5,419.594,0.406,101,148.0
3979,E5,420.0,0.219,101,148.0
3980,F#2,420.0,0.125,94,148.0
3981,G5,420.156,99/100,108,148.0
3982,E5,421.062,0.578,90,148.0
3983,B5,421.615,249/200,105,148.0
3984,F#2,422.0,0.125,94,148.0
3985,A5,422.812,101/200,112,148.0
3986,A5,423.401,599/1000,104,148.0
3987,A5,424.0,47/25,104,148.0
3988,F#2,424.0,0.125,94,148.0
3989,G4,424.021,4.0,113,148.0
3990,C3,424.021,3.0,110,148.0
3991,G3,424.021,3.875,115,148.0
3992,B3,424.021,3.0,115,148.0
3993,E3,424.021,388/125,114,148.0
3994,F#2,426.0,0.125,94,148.0
3995,A5,426.536,37/100,112,148.0
3996,C3,427.021,0.5,117,148.0
3997,A5,427.042,0.359,115,148.0
3998,A5,427.51,0.344,111,148.0
3999,B2,427.521,0.5,115,148.0
4000,A3,427.818,0.203,108,148.0
4001,C4,427.938,83/1000,112,148.0
4002,F#2,428.0,0.125,94,148.0
4003,A2,428.021,1.0,107,148.0
4004,A3,428.021,3.0,108,148.0
4005,C4,428.021,3.0,112,148.0
4006,A5,428.052,0.938,109,148.0
4007,E4,428.172,3849/1000,111,148.0
4008,G5,428.927,573/1000,103,148.0
4009,A2,429.021,3.0,112,148.0
4010,F#5,429.458,223/200,115,148.0
4011,F#2,430.0,0.125,94,148.0
4012,E3,430.021,1.0,102,148.0
4013,E5,430.521,101/100,113,148.0
4014,E3,431.021,1.0,94,148.0
4015,C4,431.021,1.0,110,148.0
4016,A3,431.021,1.0,110,148.0
4017,E-5,431.521,479/1000,110,148.0
4018,E-5,432.0,4.0,110,148.0
4019,F#2,432.0,0.125,94,148.0
4020,A2,432.021,3.0,112,148.0
4021,E4,432.021,3.688,111,148.0
4022,E3,432.021,3.0,94,148.0
4023,C4,432.021,723/200,110,148.0
4024,A3,432.021,723/200,110,148.0
4025,F#2,433.0,0.125,94,148.0
4026,F#2,434.0,0.125,94,148.0
4027,F#2,435.0,0.125,94,148.0
4028,A2,435.021,1.0,118,148.0
4029,A3,435.672,349/1000,115,148.0
4030,E-4,435.771,0.25,102,148.0
4031,F#4,435.969,13/250,108,148.0
4032,E-5,436.0,0.031,110,148.0
4033,F#2,436.0,0.125,94,148.0
4034,B2,436.021,4.0,108,148.0
4035,A3,436.021,8.094,115,148.0
4036,E-4,436.021,813/100,102,148.0
4037,F#4,436.021,1.0,108,148.0
4038,F#2,437.0,0.125,94,148.0
4039,F#4,437.021,3.0,124,148.0
4040,E-5,437.104,229/500,116,148.0
4041,E-5,437.661,0.922,124,148.0
4042,B3,438.0,2.0,123,148.0
4043,F#2,438.0,0.125,94,148.0
4044,G4,438.021,1.0,124,148.0
4045,F#2,439.0,0.125,94,148.0
4046,E4,439.021,1.0,115,148.0
4047,G5,439.167,833/1000,118,148.0
4048,G5,440.0,21/500,118,148.0
4049,E6,440.0,77/200,110,148.0
4050,C#3,440.0,0.125,109,148.0
4051,C2,440.0,0.125,109,148.0
4052,G5,440.25,1839/1000,114,148.0
4053,E5,440.5,0.359,119,148.0
4054,E6,440.5,0.266,101,148.0
4055,E3,440.5,0.125,120,148.0
4056,C2,440.5,0.125,120,148.0
4057,E5,441.0,1/200,101,148.0
4058,E6,441.0,177/500,119,148.0
4059,C#3,441.0,0.125,109,148.0
4060,C2,441.0,0.125,109,148.0
4061,C#3,442.0,0.125,109,148.0
4062,E2,442.0,0.125,109,148.0
4063,E5,442.464,19/50,107,148.0
4064,C2,442.5,0.125,124,148.0
4065,E5,442.984,0.344,112,148.0
4066,C#3,443.0,0.125,109,148.0
4067,C2,443.0,0.125,109,148.0
4068,E5,443.474,263/500,112,148.0
4069,E2,443.5,0.125,124,148.0
4070,E5,444.0,21/1000,112,148.0
4071,C#3,444.0,0.125,94,148.0
4072,A5,444.031,0.641,112,148.0
4073,A4,444.151,1.0,116,148.0
4074,B2,444.151,3.5,108,148.0
4075,F#4,444.151,4.0,124,148.0
4076,E4,444.151,4.0,115,148.0
4077,B-2,444.5,0.125,109,148.0
4078,E2,444.5,0.125,109,148.0
4079,G5,444.661,1.75,120,148.0
4080,C#3,445.0,0.125,109,148.0
4081,C2,445.0,0.125,109,148.0
4082,A4,445.151,3.0,116,148.0
4083,C2,445.5,0.125,124,148.0
4084,C#3,446.0,0.125,109,148.0
4085,E2,446.0,0.125,109,148.0
4086,F#5,446.276,0.703,121,148.0
4087,C2,446.5,0.125,124,148.0
4088,G5,446.896,1057/1000,121,148.0
4089,B3,447.0,0.406,104,148.0
4090,E4,447.0,0.406,104,148.0
4091,E3,447.0,0.406,104,148.0
4092,E3,447.0,0.125,120,148.0
4093,E2,447.0,0.125,120,148.0
4094,C2,447.5,0.125,124,148.0
4095,B3,447.5,0.344,100,148.0
4096,E4,447.5,0.344,100,148.0
4097,E3,447.5,0.344,100,148.0
4098,C5,447.854,73/500,111,148.0
4099,C5,448.0,1.906,111,148.0
4100,E3,448.0,159/500,87,148.0
4101,B3,448.0,159/500,87,148.0
4102,E4,448.0,159/500,87,148.0
4103,C#3,448.0,0.125,109,148.0
4104,C2,448.0,0.125,109,148.0
4105,C5,448.0,0.344,106,148.0
4106,C6,448.0,0.344,106,148.0
4107,E4,448.151,1.0,124,148.0
4108,F#4,448.151,0.141,124,148.0
4109,B3,448.151,0.5,124,148.0
4110,E3,448.151,0.5,124,148.0
4111,E3,448.5,263/500,112,148.0
4112,E4,448.5,0.406,96,148.0
4113,B3,448.5,0.406,96,148.0
4114,E3,448.5,0.125,120,148.0
4115,C2,448.5,0.125,120,148.0
4116,C6,448.5,73/250,101,148.0
4117,C5,448.5,73/250,101,148.0
4118,B3,448.651,0.5,82,148.0
4119,E3,448.651,0.5,82,148.0
4120,C#3,449.0,0.125,109,148.0
4121,C2,449.0,0.125,109,148.0
4122,C6,449.0,0.266,106,148.0
4123,C5,449.0,0.266,106,148.0
4124,E4,449.151,1.5,115,148.0
4125,B3,449.151,1.0,120,148.0
4126,E3,449.151,1.0,120,148.0
4127,E2,450.0,83/1000,124,148.0
4128,E2,450.083,0.125,124,148.0
4129,E5,450.49,0.422,113,148.0
4130,E2,450.5,0.125,124,148.0
4131,C2,451.0,0.125,124,148.0
4132,E5,451.047,49/100,120,148.0
4133,C#3,451.5,0.125,104,148.0
4134,E2,451.5,0.125,104,148.0
4135,B-2,451.5,0.125,104,148.0
4136,F#5,451.51,49/100,118,148.0
4137,F#5,452.0,0.094,118,148.0
4138,G5,452.031,927/1000,118,148.0
4139,A2,452.5,83/1000,117,148.0
4140,A2,452.583,0.125,117,148.0
4141,E5,452.964,237/500,107,148.0
4142,G2,453.0,0.125,117,148.0
4143,B5,453.464,591/500,112,148.0
4144,C2,453.5,0.125,124,148.0
4145,E3,454.0,0.125,112,148.0
4146,B-2,454.0,0.125,112,148.0
4147,E2,454.0,0.125,112,148.0
4148,C2,454.5,0.125,124,148.0
4149,A5,454.698,651/500,123,148.0
4150,G2,455.0,83/1000,117,148.0
4151,C4,455.0,151/500,99,148.0
4152,C3,455.0,151/500,99,148.0
4153,G3,455.0,151/500,99,148.0
4154,G2,455.083,0.125,117,148.0
4155,C2,455.5,0.125,124,148.0
4156,C3,455.5,73/250,93,148.0
4157,C4,455.5,73/250,93,148.0
4158,G3,455.5,73/250,93,148.0
4159,A5,456.0,2.141,123,148.0
4160,C3,456.0,73/250,94,148.0
4161,C4,456.0,73/250,94,148.0
4162,G3,456.0,73/250,94,148.0
4163,C#3,456.0,0.125,109,148.0
4164,C2,456.0,0.125,109,148.0
4165,D6,456.0,13/50,114,148.0
4166,D5,456.0,13/50,114,148.0
4167,E4,456.151,0.5,124,148.0
4168,G3,456.151,0.5,124,148.0
4169,G3,456.5,177/500,88,148.0
4170,C3,456.5,443/1000,100,148.0
4171,C4,456.5,443/1000,100,148.0
4172,E3,456.5,0.125,120,148.0
4173,C2,456.5,0.125,120,148.0
4174,D5,456.5,13/50,110,148.0
4175,D6,456.5,13/50,110,148.0
4176,C4,456.651,1.0,77,148.0
4177,G3,456.651,0.5,82,148.0
4178,E4,456.651,0.5,82,148.0
4179,C#3,457.0,0.125,109,148.0
4180,C2,457.0,0.125,109,148.0
4181,D5,457.0,51/200,110,148.0
4182,D6,457.0,51/200,110,148.0
4183,E4,457.151,1.0,124,148.0
4184,G3,457.151,1.0,124,148.0
4185,E3,458.0,0.125,120,148.0
4186,E2,458.0,0.125,120,148.0
4187,C2,458.5,0.125,124,148.0
4188,A5,458.536,0.359,114,148.0
4189,C#3,459.0,0.125,109,148.0
4190,C2,459.0,0.125,109,148.0
4191,A5,459.031,73/200,114,148.0
4192,E2,459.5,0.125,124,148.0
4193,A5,459.521,0.344,115,148.0
4194,C#3,460.0,0.125,94,148.0
4195,A5,460.031,479/500,113,148.0
4196,E3,460.5,0.125,120,148.0
4197,E2,460.5,0.125,120,148.0
4198,G5,460.969,651/1000,112,148.0
4199,C2,461.0,0.125,109,148.0
4200,C#3,461.0,0.125,109,148.0
4201,C2,461.5,0.125,124,148.0
4202,F#5,461.562,192/125,121,148.0
4203,C#3,462.0,0.125,109,148.0
4204,E2,462.0,0.125,109,148.0
4205,C2,462.5,0.125,124,148.0
4206,D3,463.0,333/1000,100,148.0
4207,A3,463.0,333/1000,100,148.0
4208,D4,463.0,333/1000,100,148.0
4209,E2,463.0,0.125,109,148.0
4210,C#3,463.0,0.125,109,148.0
4211,E5,463.089,0.578,119,148.0
4212,E2,463.25,0.125,124,148.0
4213,F2,463.5,0.125,117,148.0
4214,A3,463.5,0.312,94,148.0
4215,D3,463.5,0.312,94,148.0
4216,D4,463.5,0.312,94,148.0
4217,E-5,463.594,0.406,121,148.0
4218,F2,463.75,0.125,117,148.0
4219,E-5,464.0,1.25,121,148.0
4220,A3,464.0,177/500,94,148.0
4221,D4,464.0,177/500,94,148.0
4222,D3,464.0,177/500,94,148.0
4223,C#3,464.0,0.125,109,148.0
4224,C2,464.0,0.125,109,148.0
4225,B4,464.0,143/500,110,148.0
4226,B5,464.0,143/500,110,148.0
4227,F#4,464.151,1.0,124,148.0
4228,A3,464.151,0.5,119,148.0
4229,D4,464.151,0.5,119,148.0
4230,A3,464.5,427/1000,98,148.0
4231,D4,464.5,427/1000,98,148.0
4232,D3,464.5,427/1000,98,148.0
4233,E3,464.5,0.125,120,148.0
4234,C2,464.5,0.125,120,148.0
4235,B4,464.5,13/50,110,148.0
4236,B5,464.5,13/50,110,148.0
4237,D4,464.651,0.5,80,148.0
4238,A3,464.651,0.5,80,148.0
4239,C5,465.0,0.703,114,148.0
4240,C#3,465.0,0.125,109,148.0
4241,C2,465.0,0.125,109,148.0
4242,B4,465.0,229/1000,114,148.0
4243,B5,465.0,229/1000,114,148.0
4244,F#4,465.151,1.0,120,148.0
4245,D4,465.151,1.0,120,148.0
4246,A3,465.151,1.0,120,148.0
4247,B4,465.604,599/250,115,148.0
4248,C#3,466.0,0.125,109,148.0
4249,E2,466.0,0.125,109,148.0
4250,C2,466.5,0.125,124,148.0
4251,C2,467.0,0.125,109,148.0
4252,C#3,467.0,0.125,109,148.0
4253,E2,467.5,0.125,124,148.0
4254,B4,468.0,1.281,115,148.0
4255,B-2,468.0,0.125,109,148.0
4256,C2,468.0,0.125,109,148.0
4257,E2,468.5,0.125,120,148.0
4258,E3,468.5,0.125,120,148.0
4259,E5,468.911,833/1000,114,148.0
4260,G5,468.911,833/1000,114,148.0
4261,E2,469.0,0.125,120,148.0
4262,E3,469.0,0.125,120,148.0
4263,E5,469.922,237/250,109,148.0
4264,G5,469.922,237/250,109,148.0
4265,C#3,470.0,0.125,109,148.0
4266,E2,470.0,0.125,109,148.0
4267,E2,470.25,0.125,124,148.0
4268,B-2,470.5,0.125,94,148.0
4269,E2,470.75,0.125,124,148.0
4270,B5,470.896,839/1000,108,148.0
4271,D6,470.896,839/1000,108,148.0
4272,E2,471.0,0.125,124,148.0
4273,F#3,471.0,443/1000,106,148.0
4274,B3,471.0,443/1000,106,148.0
4275,B2,471.0,443/1000,106,148.0
4276,G2,471.25,0.125,117,148.0
4277,F2,471.5,0.125,117,148.0
4278,B3,471.5,73/250,90,148.0
4279,B2,471.5,73/250,90,148.0
4280,F#3,471.5,73/250,90,148.0
4281,E2,471.75,0.125,124,148.0
4282,B5,471.943,57/1000,111,148.0
4283,D6,471.943,57/1000,111,148.0
4284,B5,472.0,2.156,111,148.0
4285,D6,472.0,2.156,111,148.0
4286,F#3,472.0,37/100,80,148.0
4287,B3,472.0,37/100,80,148.0
4288,B2,472.0,37/100,80,148.0
4289,C#3,472.0,0.125,109,148.0
4290,C2,472.0,0.125,109,148.0
4291,G5,472.0,0.141,124,148.0
4292,G4,472.0,0.141,124,148.0
4293,B4,472.151,1.0,124,148.0
4294,F#4,472.151,0.5,124,148.0
4295,B3,472.151,0.5,124,148.0
4296,B3,472.5,479/1000,105,148.0
4297,B2,472.5,479/1000,105,148.0
4298,F#3,472.5,479/1000,105,148.0
4299,E3,472.5,0.125,120,148.0
4300,C2,472.5,0.125,120,148.0
4301,G5,472.5,0.141,117,148.0
4302,G4,472.5,0.141,117,148.0
4303,F#4,472.651,0.5,82,148.0
4304,B3,472.651,0.5,82,148.0
4305,C#3,473.0,0.125,109,148.0
4306,C2,473.0,0.125,109,148.0
4307,E5,473.0,0.141,118,148.0
4308,E4,473.0,0.141,118,148.0
4309,B4,473.151,1.0,121,148.0
4310,B3,473.151,1.0,121,148.0
4311,F#4,473.151,1.0,121,148.0
4312,E5,473.5,0.141,117,148.0
4313,E4,473.5,0.141,117,148.0
4314,B-2,474.0,0.125,109,148.0
4315,E2,474.0,0.125,109,148.0
4316,G5,474.385,0.438,115,148.0
4317,B5,474.385,0.438,115,148.0
4318,G5,474.943,411/1000,119,148.0
4319,B5,474.943,411/1000,119,148.0
4320,B-2,475.0,0.125,94,148.0
4321,G4,475.0,0.141,122,148.0
4322,G5,475.0,0.141,122,148.0
4323,G5,475.453,37/100,118,148.0
4324,B5,475.453,37/100,118,148.0
4325,E4,475.5,193/1000,87,148.0
4326,C2,475.5,0.125,124,148.0
4327,B3,475.5,0.281,87,148.0
4328,B2,475.5,0.281,87,148.0
4329,G4,475.5,0.141,115,148.0
4330,G5,475.5,0.141,115,148.0
4331,D6,475.948,13/250,124,148.0
4332,E6,475.948,13/250,124,148.0
4333,D6,476.0,0.438,124,148.0
4334,E6,476.0,0.438,124,148.0
4335,B-2,476.0,0.125,94,148.0
4336,B3,476.0,0.328,89,148.0
4337,E4,476.0,0.328,89,148.0
4338,B2,476.0,0.328,89,148.0
4339,E4,476.0,0.141,118,148.0
4340,E5,476.0,0.141,118,148.0
4341,C6,476.464,1.078,122,148.0
4342,D6,476.464,1.078,122,148.0
4343,E2,476.5,0.125,124,148.0
4344,B3,476.5,159/500,92,148.0
4345,E4,476.5,159/500,92,148.0
4346,B2,476.5,159/500,92,148.0
4347,E4,476.5,0.141,118,148.0
4348,E5,476.5,0.141,118,148.0
4349,B4,476.651,1.0,121,148.0
4350,F#4,476.651,0.5,116,148.0
4351,B3,476.651,0.5,116,148.0
4352,B-2,477.0,0.125,94,148.0
4353,B3,477.0,177/500,95,148.0
4354,B2,477.0,177/500,95,148.0
4355,E4,477.0,177/500,95,148.0
4356,F#4,477.151,1.0,73,148.0
4357,B3,477.151,0.5,67,148.0
4358,C2,477.5,0.125,124,148.0
4359,B2,477.5,0.344,98,148.0
4360,B3,477.5,0.344,98,148.0
4361,E4,477.5,0.344,98,148.0
4362,B4,477.651,1.0,106,148.0
4363,B3,477.651,0.5,113,148.0
4364,B5,477.802,349/500,124,148.0
4365,D6,477.802,349/500,124,148.0
4366,B3,478.0,0.344,99,148.0
4367,B2,478.0,0.344,99,148.0
4368,E4,478.0,0.344,99,148.0
4369,B-2,478.0,0.125,109,148.0
4370,E2,478.0,0.125,109,148.0
4371,G5,478.0,0.141,124,148.0
4372,G4,478.0,0.141,124,148.0
4373,F#4,478.151,1.0,73,148.0
4374,B3,478.151,0.5,77,148.0
4375,C2,478.5,0.125,124,148.0
4376,B2,478.5,417/1000,98,148.0
4377,E4,478.5,417/1000,98,148.0
4378,B3,478.5,417/1000,102,148.0
4379,E4,478.5,417/1000,102,148.0
4380,G5,478.5,0.141,124,148.0
4381,G4,478.5,0.141,124,148.0
4382,A5,478.521,1443/1000,116,148.0
4383,C6,478.521,1443/1000,116,148.0
4384,B4,478.651,1.0,115,148.0
4385,B3,478.651,0.5,110,148.0
4386,B-2,479.0,0.125,94,148.0
4387,B3,479.0,0.5,105,148.0
4388,E4,479.0,0.5,105,148.0
4389,E3,479.0,0.5,105,148.0
4390,A5,479.0,0.141,122,148.0
4391,A4,479.0,0.141,122,148.0
4392,F#4,479.151,1.0,79,148.0
4393,B3,479.151,0.5,79,148.0
4394,B3,479.5,0.5,74,148.0
4395,E3,479.5,0.5,74,148.0
4396,B4,479.651,0.5,112,148.0
4397,B3,479.651,0.5,112,148.0
4398,G5,479.854,73/500,111,148.0
4399,B5,479.854,73/500,111,148.0
4400,G5,480.0,2167/1000,111,148.0
4401,B5,480.0,2167/1000,111,148.0
4402,E4,480.0,1.0,85,148.0
4403,B3,480.0,0.5,82,148.0
4404,E3,480.0,0.5,82,148.0
4405,B-2,480.0,0.125,109,148.0
4406,C2,480.0,0.125,109,148.0
4407,G5,480.0,0.141,123,148.0
4408,G4,480.0,0.141,123,148.0
4409,E4,480.151,1.5,123,148.0
4410,B3,480.151,1.0,116,148.0
4411,E3,480.151,1.0,116,148.0
4412,C2,480.5,0.125,124,148.0
4413,B3,480.5,0.5,71,148.0
4414,E3,480.5,0.5,71,148.0
4415,G5,480.5,0.141,122,148.0
4416,G4,480.5,0.141,122,148.0
4417,E4,481.0,0.5,98,148.0
4418,B3,481.0,0.5,98,148.0
4419,E3,481.0,0.5,98,148.0
4420,B-2,481.0,0.125,109,148.0
4421,C2,481.0,0.125,109,148.0
4422,E5,481.0,0.141,122,148.0
4423,E4,481.0,0.141,122,148.0
4424,B3,481.151,1.0,78,148.0
4425,E3,481.151,1.0,78,148.0
4426,B3,481.5,107/500,104,148.0
4427,E4,481.5,107/500,104,148.0
4428,G4,481.5,107/500,104,148.0
4429,E5,481.5,0.141,122,148.0
4430,E4,481.5,0.141,122,148.0
4431,E4,482.0,107/500,100,148.0
4432,B3,482.0,107/500,100,148.0
4433,G4,482.0,107/500,100,148.0
4434,B-2,482.0,0.125,109,148.0
4435,E2,482.0,0.125,109,148.0
4436,E4,482.151,1.5,124,148.0
4437,B3,482.151,1.0,123,148.0
4438,E3,482.151,1.0,123,148.0
4439,G5,482.385,99/250,115,148.0
4440,B5,482.385,99/250,115,148.0
4441,G4,482.5,107/500,100,148.0
4442,E4,482.5,107/500,100,148.0
4443,B3,482.5,107/500,100,148.0
4444,G5,482.927,0.422,115,148.0
4445,B5,482.927,0.422,115,148.0
4446,B-2,483.0,0.125,94,148.0
4447,B3,483.0,0.5,104,148.0
4448,E4,483.0,0.5,104,148.0
4449,E3,483.0,0.5,104,148.0
4450,G5,483.0,0.141,124,148.0
4451,G4,483.0,0.141,124,148.0
4452,B3,483.151,0.5,60,148.0
4453,E3,483.151,0.5,60,148.0
4454,C2,483.5,0.125,124,148.0
4455,B3,483.5,0.5,75,148.0
4456,E3,483.5,0.5,75,148.0
4457,G5,483.5,0.141,124,148.0
4458,G4,483.5,0.141,124,148.0
4459,E5,483.536,58/125,105,148.0
4460,G5,483.536,58/125,105,148.0
4461,G5,483.547,91/500,62,148.0
4462,B5,483.547,91/500,62,148.0
4463,E4,483.651,0.5,110,148.0
4464,B3,483.651,0.5,110,148.0
4465,E3,483.651,0.5,110,148.0
4466,E5,484.0,0.141,105,148.0
4467,G5,484.0,0.141,105,148.0
4468,B-2,484.0,0.125,94,148.0
4469,B3,484.0,0.5,84,148.0
4470,E4,484.0,0.5,84,148.0
4471,E3,484.0,0.5,84,148.0
4472,E5,484.0,0.141,120,148.0
4473,E4,484.0,0.141,120,148.0
4474,G5,484.078,927/1000,120,148.0
4475,B5,484.078,927/1000,120,148.0
4476,B3,484.5,1.0,74,148.0
4477,E3,484.5,0.5,70,148.0
4478,E2,484.5,0.125,124,148.0
4479,E5,484.5,0.141,120,148.0
4480,E4,484.5,0.141,120,148.0
4481,E4,484.651,1.0,115,148.0
4482,E3,484.651,0.5,111,148.0
4483,E5,484.969,0.484,102,148.0
4484,G5,484.969,0.484,102,148.0
4485,B-2,485.0,0.125,94,148.0
4486,E4,485.0,0.5,90,148.0
4487,E3,485.0,0.5,90,148.0
4488,B3,485.151,1.0,81,148.0
4489,E3,485.151,1.0,81,148.0
4490,B5,485.5,241/250,112,148.0
4491,D6,485.5,241/250,112,148.0
4492,C2,485.5,0.125,124,148.0
4493,B3,485.5,0.5,66,148.0
4494,E3,485.5,0.5,66,148.0
4495,B3,486.0,0.5,82,148.0
4496,E4,486.0,0.5,82,148.0
4497,E3,486.0,0.5,82,148.0
4498,B-2,486.0,0.125,109,148.0
4499,E2,486.0,0.125,109,148.0
4500,G5,486.0,0.141,123,148.0
4501,G4,486.0,0.141,123,148.0
4502,E4,486.151,1.5,120,148.0
4503,B3,486.151,1.0,122,148.0
4504,E3,486.151,1.0,122,148.0
4505,C2,486.5,0.125,124,148.0
4506,B3,486.5,0.5,67,148.0
4507,E3,486.5,0.5,67,148.0
4508,G5,486.5,0.141,120,148.0
4509,G4,486.5,0.141,120,148.0
4510,A5,486.516,0.406,112,148.0
4511,C6,486.516,0.406,112,148.0
4512,E3,487.0,0.5,92,148.0
4513,B-2,487.0,0.125,94,148.0
4514,E4,487.0,1.0,108,148.0
4515,G3,487.0,1.0,108,148.0
4516,A5,487.0,0.141,124,148.0
4517,A4,487.0,0.141,124,148.0
4518,A5,487.021,979/1000,115,148.0
4519,C6,487.021,979/1000,115,148.0
4520,B3,487.151,0.5,74,148.0
4521,E3,487.151,0.5,74,148.0
4522,C4,487.5,1/200,63,148.0
4523,E4,487.651,0.5,113,148.0
4524,E3,487.651,0.5,104,148.0
4525,B3,487.651,0.5,104,148.0
4526,A5,488.0,1.062,115,148.0
4527,C6,488.0,1.062,115,148.0
4528,G3,488.0,1.0,101,148.0
4529,E4,488.0,0.5,88,148.0
4530,E3,488.0,0.5,88,148.0
4531,C#3,488.0,0.125,109,148.0
4532,C2,488.0,0.125,109,148.0
4533,G5,488.0,0.141,123,148.0
4534,G4,488.0,0.141,123,148.0
4535,E4,488.151,1.5,113,148.0
4536,G3,488.151,1.0,96,148.0
4537,E3,488.151,1.0,96,148.0
4538,C4,488.151,1.0,96,148.0
4539,C4,488.5,1/200,76,148.0
4540,C2,488.5,0.125,124,148.0
4541,G5,488.5,0.141,121,148.0
4542,G4,488.5,0.141,121,148.0
4543,E4,489.0,0.5,100,148.0
4544,G3,489.0,0.5,100,148.0
4545,E3,489.0,0.5,100,148.0
4546,B-2,489.0,0.125,109,148.0
4547,C2,489.0,0.125,109,148.0
4548,E5,489.0,0.141,117,148.0
4549,E4,489.0,0.141,117,148.0
4550,E3,489.151,1.0,77,148.0
4551,C4,489.151,1.0,77,148.0
4552,E4,489.5,107/500,106,148.0
4553,C4,489.5,107/500,106,148.0
4554,G4,489.5,107/500,106,148.0
4555,E5,489.5,0.141,113,148.0
4556,E4,489.5,0.141,113,148.0
4557,E4,490.0,107/500,96,148.0
4558,G4,490.0,107/500,96,148.0
4559,C4,490.0,107/500,96,148.0
4560,B-2,490.0,0.125,109,148.0
4561,E2,490.0,0.125,109,148.0
4562,C4,490.151,1.0,113,148.0
4563,E3,490.151,1.0,113,148.0
4564,G3,490.151,1.5,120,148.0
4565,E4,490.151,1.5,120,148.0
4566,A5,490.391,19/50,113,148.0
4567,C6,490.391,19/50,113,148.0
4568,E4,490.5,107/500,101,148.0
4569,G4,490.5,107/500,101,148.0
4570,C4,490.5,107/500,101,148.0
4571,A5,490.922,0.328,107,148.0
4572,C6,490.922,0.328,107,148.0
4573,B-2,491.0,0.125,94,148.0
4574,G3,491.0,0.5,103,148.0
4575,E4,491.0,0.5,103,148.0
4576,E3,491.0,0.5,103,148.0
4577,G5,491.0,0.141,119,148.0
4578,G4,491.0,0.141,119,148.0
4579,E3,491.151,0.5,69,148.0
4580,C4,491.151,0.5,69,148.0
4581,A5,491.401,37/100,111,148.0
4582,C6,491.401,37/100,111,148.0
4583,C4,491.5,1/200,63,148.0
4584,G3,491.5,0.5,64,148.0
4585,C2,491.5,0.125,124,148.0
4586,G5,491.5,0.141,113,148.0
4587,G4,491.5,0.141,113,148.0
4588,G3,491.651,0.5,113,148.0
4589,E4,491.651,0.5,109,148.0
4590,E3,491.651,0.5,109,148.0
4591,C4,491.651,0.5,109,148.0
4592,A5,491.979,21/1000,111,148.0
4593,C6,491.979,21/1000,111,148.0
4594,A5,492.0,0.891,111,148.0
4595,C6,492.0,0.891,111,148.0
4596,B-2,492.0,0.125,94,148.0
4597,G3,492.0,0.5,90,148.0
4598,E4,492.0,0.5,90,148.0
4599,E3,492.0,0.5,90,148.0
4600,E5,492.0,0.141,118,148.0
4601,E4,492.0,0.141,118,148.0
4602,E3,492.156,0.5,61,148.0
4603,G3,492.156,0.5,113,148.0
4604,E4,492.156,1/200,109,148.0
4605,E3,492.156,1/200,109,148.0
4606,C4,492.156,1/200,109,148.0
4607,C4,492.5,1/200,67,148.0
4608,G3,492.5,0.5,64,148.0
4609,E2,492.5,0.125,124,148.0
4610,E5,492.5,0.141,116,148.0
4611,E4,492.5,0.141,116,148.0
4612,G3,492.656,1.0,106,148.0
4613,E4,492.656,1.0,106,148.0
4614,C4,492.656,0.5,112,148.0
4615,E3,492.656,0.5,112,148.0
4616,G5,492.854,583/1000,113,148.0
4617,B5,492.854,583/1000,113,148.0
4618,B-2,493.0,0.125,94,148.0
4619,G3,493.0,0.5,94,148.0
4620,E4,493.0,0.5,94,148.0
4621,E3,493.0,0.5,94,148.0
4622,E3,493.156,1.0,78,148.0
4623,C4,493.156,1.0,78,148.0
4624,F#5,493.427,1.031,118,148.0
4625,A5,493.427,1.031,118,148.0
4626,C4,493.5,1/200,64,148.0
4627,G3,493.5,0.5,62,148.0
4628,C2,493.5,0.125,124,148.0
4629,G3,494.0,0.5,85,148.0
4630,E4,494.0,0.5,85,148.0
4631,E3,494.0,0.5,85,148.0
4632,B-2,494.0,0.125,109,148.0
4633,E2,494.0,0.125,109,148.0
4634,G5,494.0,0.141,124,148.0
4635,G4,494.0,0.141,124,148.0
4636,G3,494.156,1.5,118,148.0
4637,E4,494.156,1.5,118,148.0
4638,C4,494.156,1.0,112,148.0
4639,E3,494.156,1.0,112,148.0
4640,E5,494.438,1.0,120,148.0
4641,G5,494.438,1.0,120,148.0
4642,C4,494.5,1/200,64,148.0
4643,G3,494.5,0.5,67,148.0
4644,C2,494.5,0.125,124,148.0
4645,G5,494.5,0.141,116,148.0
4646,G4,494.5,0.141,116,148.0
4647,B-2,495.0,0.125,94,148.0
4648,A3,495.0,0.5,102,148.0
4649,D4,495.0,0.5,102,148.0
4650,D3,495.0,0.5,102,148.0
4651,A5,495.0,0.141,124,148.0
4652,A4,495.0,0.141,124,148.0
4653,E3,495.156,1.0,79,148.0
4654,C4,495.156,0.5,70,148.0
4655,E-5,495.474,263/500,121,148.0
4656,F#5,495.474,263/500,121,148.0
4657,A3,495.5,0.5,69,148.0
4658,D3,495.5,0.5,69,148.0
4659,G3,495.656,0.5,92,148.0
4660,E4,495.656,0.5,92,148.0
4661,C4,495.656,0.5,92,148.0
4662,E-5,496.0,4.0,121,148.0
4663,F#5,496.0,4.0,121,148.0
4664,A3,496.0,0.5,96,148.0
4665,D4,496.0,0.5,96,148.0
4666,D3,496.0,0.5,96,148.0
4667,C#3,496.0,0.125,109,148.0
4668,C2,496.0,0.125,109,148.0
4669,B4,496.0,1.0,115,148.0
4670,B5,496.0,1.0,115,148.0
4671,A3,496.156,1.5,111,148.0
4672,D4,496.156,1.0,112,148.0
4673,F#3,496.156,1.0,112,148.0
4674,C2,496.5,0.125,124,148.0
4675,D3,496.5,0.5,82,148.0
4676,A3,496.5,0.5,82,148.0
4677,A3,497.0,0.5,100,148.0
4678,D4,497.0,0.5,100,148.0
4679,D3,497.0,0.5,100,148.0
4680,B-2,497.0,0.125,109,148.0
4681,C2,497.0,0.125,109,148.0
4682,A4,497.0,0.5,107,148.0
4683,A5,497.0,0.5,107,148.0
4684,D4,497.156,1.0,78,148.0
4685,F#3,497.156,1.0,78,148.0
4686,C2,497.5,0.125,124,148.0
4687,F#4,497.5,107/500,101,148.0
4688,A4,497.5,107/500,101,148.0
4689,D4,497.5,107/500,101,148.0
4690,G4,497.5,1.0,117,148.0
4691,G5,497.5,1.0,117,148.0
4692,F#4,498.0,107/500,91,148.0
4693,A4,498.0,107/500,91,148.0
4694,D4,498.0,107/500,91,148.0
4695,B-2,498.0,0.125,109,148.0
4696,E2,498.0,0.125,109,148.0
4697,D4,498.156,1.0,119,148.0
4698,A3,498.156,1.0,119,148.0
4699,F#3,498.156,1.0,119,148.0
4700,F#4,498.5,107/500,98,148.0
4701,A4,498.5,107/500,98,148.0
4702,D4,498.5,107/500,98,148.0
4703,F#4,498.5,0.5,107,148.0
4704,F#5,498.5,0.5,107,148.0
4705,A3,499.0,0.5,103,148.0
4706,D4,499.0,0.5,103,148.0
4707,D3,499.0,0.5,103,148.0
4708,C2,499.0,0.125,109,148.0
4709,B-2,499.0,0.125,109,148.0
4710,A4,499.0,1.0,121,148.0
4711,A5,499.0,1.0,121,148.0
4712,F#3,499.156,0.5,76,148.0
4713,D4,499.156,0.5,76,148.0
4714,A3,499.5,0.5,72,148.0
4715,D3,499.5,0.5,72,148.0
4716,C#3,499.5,0.125,109,148.0
4717,C2,499.5,0.125,109,148.0
4718,F#3,499.656,0.5,108,148.0
4719,D4,499.656,0.5,108,148.0
4720,A3,499.656,0.5,108,148.0
4721,E-5,500.0,167/1000,121,148.0
4722,F#5,500.0,167/1000,121,148.0
4723,B-2,500.0,0.125,94,148.0
4724,A3,500.0,0.5,90,148.0
4725,D4,500.0,0.5,90,148.0
4726,D3,500.0,0.5,90,148.0
4727,G4,500.0,0.5,111,148.0
4728,G5,500.0,0.5,111,148.0
4729,F#3,500.156,0.5,64,148.0
4730,E2,500.5,0.125,124,148.0
4731,D3,500.5,0.5,71,148.0
4732,A3,500.5,0.5,71,148.0
4733,F#4,500.5,1.0,116,148.0
4734,F#5,500.5,1.0,116,148.0
4735,A3,500.656,1.0,108,148.0
4736,D4,500.656,0.5,112,148.0
4737,F#3,500.656,0.5,112,148.0
4738,E-5,500.906,0.469,118,148.0
4739,F#5,500.906,0.469,118,148.0
4740,A3,501.0,0.5,94,148.0
4741,D4,501.0,0.5,94,148.0
4742,D3,501.0,0.5,94,148.0
4743,C2,501.0,0.125,109,148.0
4744,B-2,501.0,0.125,109,148.0
4745,F#3,501.156,1.0,79,148.0
4746,D4,501.156,1.0,79,148.0
4747,E-5,501.5,729/1000,124,148.0
4748,F#5,501.5,729/1000,124,148.0
4749,C2,501.5,0.125,124,148.0
4750,A3,501.5,0.5,70,148.0
4751,D3,501.5,0.5,70,148.0
4752,E5,501.5,0.5,116,148.0
4753,E4,501.5,0.5,116,148.0
4754,D4,502.0,1.0,93,148.0
4755,A3,502.0,0.5,94,148.0
4756,D3,502.0,0.5,94,148.0
4757,E3,502.0,0.125,120,148.0
4758,E2,502.0,0.125,120,148.0
4759,E-5,502.0,0.5,114,148.0
4760,E-4,502.0,0.5,114,148.0
4761,A3,502.156,1.5,115,148.0
4762,D4,502.156,1.0,110,148.0
4763,F#3,502.156,1.0,110,148.0
4764,E2,502.5,0.125,124,148.0
4765,A3,502.5,0.5,84,148.0
4766,D3,502.5,0.5,84,148.0
4767,E5,502.5,0.5,117,148.0
4768,E4,502.5,0.5,117,148.0
4769,E2,502.75,0.125,124,148.0
4770,B3,503.0,1.0,106,148.0
4771,E2,503.0,0.125,124,148.0
4772,F#3,503.0,0.5,104,148.0
4773,B2,503.0,0.5,104,148.0
4774,E5,503.0,1.0,113,148.0
4775,E4,503.0,1.0,113,148.0
4776,G5,503.062,771/1000,122,148.0
4777,B5,503.062,771/1000,122,148.0
4778,F#3,503.156,0.5,80,148.0
4779,D4,503.156,1.0,79,148.0
4780,F2,503.25,0.125,117,148.0
4781,E2,503.5,0.125,124,148.0
4782,F#3,503.5,0.5,59,148.0
4783,B2,503.5,0.5,59,148.0
4784,F#3,503.656,0.5,76,148.0
4785,A3,503.656,0.5,76,148.0
4786,F2,503.75,0.125,117,148.0
4787,B3,504.0,1.0,82,148.0
4788,F#3,504.0,0.5,74,148.0
4789,B2,504.0,0.5,74,148.0
4790,C#3,504.0,0.125,109,148.0
4791,C2,504.0,0.125,109,148.0
4792,G5,504.0,0.141,124,148.0
4793,G4,504.0,0.141,124,148.0
4794,G5,504.016,276/125,116,148.0
4795,B5,504.016,276/125,116,148.0
4796,A3,504.156,1.5,112,148.0
4797,E-4,504.156,1.0,102,148.0
4798,F#3,504.156,1.0,102,148.0
4799,C2,504.5,0.125,124,148.0
4800,F#3,504.5,0.5,62,148.0
4801,B2,504.5,0.5,62,148.0
4802,G5,504.5,0.141,117,148.0
4803,G4,504.5,0.141,117,148.0
4804,B3,505.0,1.0,101,148.0
4805,F#3,505.0,0.5,105,148.0
4806,B2,505.0,0.5,105,148.0
4807,B-2,505.0,0.125,109,148.0
4808,C2,505.0,0.125,109,148.0
4809,E5,505.0,0.141,118,148.0
4810,E4,505.0,0.141,118,148.0
4811,E-4,505.156,1.0,80,148.0
4812,F#3,505.156,1.0,80,148.0
4813,F#3,505.5,1.0,50,148.0
4814,B2,505.5,0.5,45,148.0
4815,E5,505.5,0.141,117,148.0
4816,E4,505.5,0.141,117,148.0
4817,B3,506.0,1.0,78,148.0
4818,B2,506.0,0.5,83,148.0
4819,B-2,506.0,0.125,109,148.0
4820,E2,506.0,0.125,109,148.0
4821,A3,506.156,1.5,113,148.0
4822,E-4,506.156,1.0,119,148.0
4823,F#3,506.156,1.0,119,148.0
4824,E5,506.464,411/1000,112,148.0
4825,G5,506.464,411/1000,112,148.0
4826,F#3,506.5,0.5,50,148.0
4827,B2,506.5,0.5,50,148.0
4828,B3,507.0,1.0,97,148.0
4829,B-2,507.0,0.125,94,148.0
4830,F#3,507.0,0.5,97,148.0
4831,B2,507.0,0.5,97,148.0
4832,G4,507.0,0.141,122,148.0
4833,G5,507.0,0.141,122,148.0
4834,E5,507.01,73/250,115,148.0
4835,G5,507.01,73/250,115,148.0
4836,E-4,507.156,0.5,63,148.0
4837,F#3,507.156,0.5,63,148.0
4838,E5,507.458,49/100,106,148.0
4839,G5,507.458,49/100,106,148.0
4840,F#3,507.5,1.0,48,148.0
4841,B2,507.5,0.5,48,148.0
4842,C2,507.5,0.125,124,148.0
4843,G4,507.5,0.141,115,148.0
4844,G5,507.5,0.141,115,148.0
4845,A3,507.656,0.5,115,148.0
4846,E-4,507.656,0.5,104,148.0
4847,F#3,507.656,0.5,104,148.0
4848,A5,507.943,57/1000,113,148.0
4849,C6,507.943,57/1000,113,148.0
4850,A5,508.0,49/100,113,148.0
4851,C6,508.0,49/100,113,148.0
4852,B3,508.0,1.0,68,148.0
4853,B2,508.0,0.5,70,148.0
4854,B-2,508.0,0.125,94,148.0
4855,E4,508.0,0.141,118,148.0
4856,E5,508.0,0.141,118,148.0
4857,F#3,508.156,0.5,56,148.0
4858,A3,508.156,0.5,115,148.0
4859,E2,508.5,0.125,124,148.0
4860,F#3,508.5,0.5,56,148.0
4861,B2,508.5,0.5,56,148.0
4862,E4,508.5,0.141,118,148.0
4863,E5,508.5,0.141,118,148.0
4864,G5,508.505,1167/1000,115,148.0
4865,B5,508.505,1167/1000,115,148.0
4866,A3,508.656,1.5,93,148.0
4867,E-4,508.656,0.5,110,148.0
4868,F#3,508.656,0.5,110,148.0
4869,B3,509.0,1.0,94,148.0
4870,B-2,509.0,0.125,94,148.0
4871,F#3,509.0,0.5,96,148.0
4872,B2,509.0,0.5,96,148.0
4873,E-4,509.156,1.0,81,148.0
4874,F#3,509.156,1.0,81,148.0
4875,F#3,509.5,1.0,53,148.0
4876,B2,509.5,0.5,54,148.0
4877,C2,509.5,0.125,124,148.0
4878,F#5,509.589,1021/1000,119,148.0
4879,A5,509.589,1021/1000,119,148.0
4880,B3,510.0,1.0,79,148.0
4881,B2,510.0,0.5,84,148.0
4882,B-2,510.0,0.125,109,148.0
4883,E2,510.0,0.125,109,148.0
4884,G5,510.0,0.141,124,148.0
4885,G4,510.0,0.141,124,148.0
4886,A3,510.156,1.5,113,148.0
4887,E-4,510.156,1.0,112,148.0
4888,F#3,510.156,1.0,112,148.0
4889,C2,510.5,0.125,124,148.0
4890,F#3,510.5,0.5,54,148.0
4891,B2,510.5,0.5,54,148.0
4892,G5,510.5,0.141,124,148.0
4893,G4,510.5,0.141,124,148.0
4894,G5,510.516,1193/1000,115,148.0
4895,B5,510.516,1193/1000,115,148.0
4896,B-2,511.0,0.125,94,148.0
4897,B3,511.0,0.5,105,148.0
4898,E4,511.0,0.5,105,148.0
4899,E3,511.0,0.5,105,148.0
4900,A5,511.0,0.141,122,148.0
4901,A4,511.0,0.141,122,148.0
4902,E-4,511.156,0.5,68,148.0
4903,F#3,511.156,0.5,68,148.0
4904,B3,511.5,0.5,74,148.0
4905,E3,511.5,0.5,74,148.0
4906,C5,511.589,411/1000,106,148.0
4907,E5,511.589,411/1000,106,148.0
4908,E-4,511.656,0.5,105,148.0
4909,F#3,511.656,0.5,105,148.0
4910,A3,511.656,0.5,105,148.0
4911,C5,512.0,1.922,106,148.0
4912,E5,512.0,1.922,106,148.0
4913,E4,512.0,1.0,85,148.0
4914,B3,512.0,0.5,82,148.0
4915,E3,512.0,0.5,82,148.0
4916,C#3,512.0,0.125,109,148.0
4917,C2,512.0,0.125,109,148.0
4918,G5,512.0,0.141,123,148.0
4919,G4,512.0,0.141,123,148.0
4920,E4,512.156,1.5,123,148.0
4921,B3,512.156,1.0,116,148.0
4922,E3,512.156,1.0,116,148.0
4923,C2,512.5,0.125,124,148.0
4924,B3,512.5,0.5,71,148.0
4925,E3,512.5,0.5,71,148.0
4926,G5,512.5,0.141,122,148.0
4927,G4,512.5,0.141,122,148.0
4928,E4,513.0,0.5,98,148.0
4929,B3,513.0,0.5,98,148.0
4930,E3,513.0,0.5,98,148.0
4931,B-2,513.0,0.125,109,148.0
4932,C2,513.0,0.125,109,148.0
4933,E5,513.0,0.141,122,148.0
4934,E4,513.0,0.141,122,148.0
4935,B3,513.156,1.0,78,148.0
4936,E3,513.156,1.0,78,148.0
4937,B3,513.5,107/500,104,148.0
4938,E4,513.5,107/500,104,148.0
4939,G4,513.5,107/500,104,148.0
4940,E5,513.5,0.141,122,148.0
4941,E4,513.5,0.141,122,148.0
4942,E4,514.0,107/500,100,148.0
4943,B3,514.0,107/500,100,148.0
4944,G4,514.0,107/500,100,148.0
4945,B-2,514.0,0.125,109,148.0
4946,E2,514.0,0.125,109,148.0
4947,E4,514.156,1.5,124,148.0
4948,B3,514.156,1.0,123,148.0
4949,E3,514.156,1.0,123,148.0
4950,E5,514.469,77/200,111,148.0
4951,G5,514.469,77/200,111,148.0
4952,G4,514.5,107/500,100,148.0
4953,E4,514.5,107/500,100,148.0
4954,B3,514.5,107/500,100,148.0
4955,E5,514.99,323/1000,116,148.0
4956,G5,514.99,323/1000,116,148.0
4957,B-2,515.0,0.125,94,148.0
4958,B3,515.0,0.5,104,148.0
4959,E4,515.0,0.5,104,148.0
4960,E3,515.0,0.5,104,148.0
4961,G5,515.0,0.141,124,148.0
4962,G4,515.0,0.141,124,148.0
4963,B3,515.156,0.5,60,148.0
4964,E3,515.156,0.5,60,148.0
4965,E5,515.438,69/125,113,148.0
4966,G5,515.438,69/125,113,148.0
4967,C2,515.5,0.125,124,148.0
4968,B3,515.5,0.5,75,148.0
4969,E3,515.5,0.5,75,148.0
4970,G5,515.5,0.141,124,148.0
4971,G4,515.5,0.141,124,148.0
4972,E4,515.656,0.5,110,148.0
4973,B3,515.656,0.5,110,148.0
4974,E3,515.656,0.5,110,148.0
4975,G5,516.0,22/25,115,148.0
4976,B5,516.0,22/25,115,148.0
4977,B-2,516.0,0.125,94,148.0
4978,B3,516.0,0.5,84,148.0
4979,E4,516.0,0.5,84,148.0
4980,E3,516.0,0.5,84,148.0
4981,E5,516.0,0.141,120,148.0
4982,E4,516.0,0.141,120,148.0
4983,B3,516.5,1.0,74,148.0
4984,E3,516.5,0.5,70,148.0
4985,E2,516.5,0.125,124,148.0
4986,E5,516.5,0.141,120,148.0
4987,E4,516.5,0.141,120,148.0
4988,E4,516.656,1.0,115,148.0
4989,E3,516.656,0.5,111,148.0
4990,E5,516.922,443/1000,104,148.0
4991,G5,516.922,443/1000,104,148.0
4992,B-2,517.0,0.125,94,148.0
4993,E4,517.0,0.5,90,148.0
4994,E3,517.0,0.5,90,148.0
4995,B3,517.156,1.0,81,148.0
4996,E3,517.156,1.0,81,148.0
4997,B5,517.417,0.922,113,148.0
4998,D6,517.417,0.922,113,148.0
4999,C2,517.5,0.125,124,148.0
5000,B3,517.5,0.5,66,148.0
5001,E3,517.5,0.5,66,148.0
5002,B3,518.0,0.5,82,148.0
5003,E4,518.0,0.5,82,148.0
5004,E3,518.0,0.5,82,148.0
5005,B-2,518.0,0.125,109,148.0
5006,E2,518.0,0.125,109,148.0
5007,G5,518.0,0.141,123,148.0
5008,G4,518.0,0.141,123,148.0
5009,E4,518.156,1.5,120,148.0
5010,B3,518.156,1.0,122,148.0
5011,E3,518.156,1.0,122,148.0
5012,A5,518.453,0.453,113,148.0
5013,C6,518.453,0.453,113,148.0
5014,C2,518.5,0.125,124,148.0
5015,B3,518.5,0.5,67,148.0
5016,E3,518.5,0.5,67,148.0
5017,G5,518.5,0.141,120,148.0
5018,G4,518.5,0.141,120,148.0
5019,E3,519.0,0.5,92,148.0
5020,B-2,519.0,0.125,94,148.0
5021,E4,519.0,1.0,108,148.0
5022,G3,519.0,1.0,108,148.0
5023,A5,519.0,0.141,124,148.0
5024,A4,519.0,0.141,124,148.0
5025,A5,519.01,99/100,122,148.0
5026,C6,519.01,99/100,122,148.0
5027,B3,519.156,0.5,74,148.0
5028,E3,519.156,0.5,74,148.0
5029,C4,519.5,1/200,63,148.0
5030,E4,519.656,0.5,113,148.0
5031,E3,519.656,0.5,104,148.0
5032,B3,519.656,0.5,104,148.0
5033,A5,520.0,2073/1000,122,148.0
5034,C6,520.0,2073/1000,122,148.0
5035,G3,520.0,1.0,101,148.0
5036,E4,520.0,0.5,88,148.0
5037,E3,520.0,0.5,88,148.0
5038,C#3,520.0,0.125,109,148.0
5039,C2,520.0,0.125,109,148.0
5040,G5,520.0,0.141,123,148.0
5041,G4,520.0,0.141,123,148.0
5042,E4,520.156,1.5,113,148.0
5043,G3,520.156,1.0,96,148.0
5044,E3,520.156,1.0,96,148.0
5045,C4,520.156,1.0,96,148.0
5046,C4,520.5,1/200,76,148.0
5047,C2,520.5,0.125,124,148.0
5048,G5,520.5,0.141,121,148.0
5049,G4,520.5,0.141,121,148.0
5050,E4,521.0,0.5,100,148.0
5051,G3,521.0,0.5,100,148.0
5052,E3,521.0,0.5,100,148.0
5053,B-2,521.0,0.125,109,148.0
5054,C2,521.0,0.125,109,148.0
5055,E5,521.0,0.141,117,148.0
5056,E4,521.0,0.141,117,148.0
5057,E3,521.156,1.0,77,148.0
5058,C4,521.156,1.0,77,148.0
5059,E4,521.5,107/500,106,148.0
5060,C4,521.5,107/500,106,148.0
5061,G4,521.5,107/500,106,148.0
5062,E5,521.5,0.141,113,148.0
5063,E4,521.5,0.141,113,148.0
5064,E4,522.0,107/500,96,148.0
5065,G4,522.0,107/500,96,148.0
5066,C4,522.0,107/500,96,148.0
5067,B-2,522.0,0.125,109,148.0
5068,E2,522.0,0.125,109,148.0
5069,C4,522.156,1.0,113,148.0
5070,E3,522.156,1.0,113,148.0
5071,G3,522.156,1.5,120,148.0
5072,E4,522.156,1.5,120,148.0
5073,E4,522.5,107/500,101,148.0
5074,G4,522.5,107/500,101,148.0
5075,C4,522.5,107/500,101,148.0
5076,A5,522.516,37/100,111,148.0
5077,C6,522.516,37/100,111,148.0
5078,B-2,523.0,0.125,94,148.0
5079,G3,523.0,0.5,103,148.0
5080,E4,523.0,0.5,103,148.0
5081,E3,523.0,0.5,103,148.0
5082,G5,523.0,0.141,119,148.0
5083,G4,523.0,0.141,119,148.0
5084,A5,523.036,0.344,109,148.0
5085,C6,523.036,0.344,109,148.0
5086,E3,523.156,0.5,69,148.0
5087,C4,523.156,0.5,69,148.0
5088,C4,523.5,1/200,63,148.0
5089,G3,523.5,0.5,64,148.0
5090,C2,523.5,0.125,124,148.0
5091,G5,523.5,0.141,113,148.0
5092,G4,523.5,0.141,113,148.0
5093,A5,523.516,0.344,108,148.0
5094,C6,523.516,0.344,108,148.0
5095,G3,523.656,0.5,113,148.0
5096,E4,523.656,0.5,109,148.0
5097,E3,523.656,0.5,109,148.0
5098,C4,523.656,0.5,109,148.0
5099,B-2,524.0,0.125,94,148.0
5100,G3,524.0,0.5,90,148.0
5101,E4,524.0,0.5,90,148.0
5102,E3,524.0,0.5,90,148.0
5103,E5,524.0,0.141,118,148.0
5104,E4,524.0,0.141,118,148.0
5105,A5,524.036,901/1000,110,148.0
5106,C6,524.036,901/1000,110,148.0
5107,E3,524.161,0.5,61,148.0
5108,G3,524.161,0.5,113,148.0
5109,E4,524.161,1/200,109,148.0
5110,E3,524.161,1/200,109,148.0
5111,C4,524.161,1/200,109,148.0
5112,C4,524.5,1/200,67,148.0
5113,G3,524.5,0.5,64,148.0
5114,E2,524.5,0.125,124,148.0
5115,E5,524.5,0.141,116,148.0
5116,E4,524.5,0.141,116,148.0
5117,G3,524.661,1.0,106,148.0
5118,E4,524.661,1.0,106,148.0
5119,C4,524.661,0.5,112,148.0
5120,E3,524.661,0.5,112,148.0
5121,G5,524.927,0.578,110,148.0
5122,B5,524.927,0.578,110,148.0
5123,B-2,525.0,0.125,94,148.0
5124,G3,525.0,0.5,94,148.0
5125,E4,525.0,0.5,94,148.0
5126,E3,525.0,0.5,94,148.0
5127,E3,525.161,1.0,78,148.0
5128,C4,525.161,1.0,78,148.0
5129,C4,525.5,1/200,64,148.0
5130,G3,525.5,0.5,62,148.0
5131,C2,525.5,0.125,124,148.0
5132,F#5,525.521,301/200,119,148.0
5133,A5,525.521,301/200,119,148.0
5134,G3,526.0,0.5,85,148.0
5135,E4,526.0,0.5,85,148.0
5136,E3,526.0,0.5,85,148.0
5137,B-2,526.0,0.125,109,148.0
5138,E2,526.0,0.125,109,148.0
5139,G5,526.0,0.141,124,148.0
5140,G4,526.0,0.141,124,148.0
5141,G3,526.161,1.5,118,148.0
5142,E4,526.161,1.5,118,148.0
5143,C4,526.161,1.0,112,148.0
5144,E3,526.161,1.0,112,148.0
5145,C4,526.5,1/200,64,148.0
5146,G3,526.5,0.5,67,148.0
5147,C2,526.5,0.125,124,148.0
5148,G5,526.5,0.141,116,148.0
5149,G4,526.5,0.141,116,148.0
5150,E5,526.979,0.578,117,148.0
5151,G5,526.979,0.578,117,148.0
5152,B-2,527.0,0.125,94,148.0
5153,A3,527.0,0.5,102,148.0
5154,D4,527.0,0.5,102,148.0
5155,D3,527.0,0.5,102,148.0
5156,A5,527.0,0.141,124,148.0
5157,A4,527.0,0.141,124,148.0
5158,E3,527.161,1.0,79,148.0
5159,C4,527.161,0.5,70,148.0
5160,A3,527.5,0.5,69,148.0
5161,D3,527.5,0.5,69,148.0
5162,E-5,527.51,49/100,118,148.0
5163,F#5,527.51,49/100,118,148.0
5164,G3,527.661,0.5,92,148.0
5165,E4,527.661,0.5,92,148.0
5166,C4,527.661,0.5,92,148.0
5167,E-5,528.0,583/1000,118,148.0
5168,F#5,528.0,583/1000,118,148.0
5169,A3,528.0,0.5,96,148.0
5170,D4,528.0,0.5,96,148.0
5171,D3,528.0,0.5,96,148.0
5172,C#3,528.0,0.125,109,148.0
5173,C2,528.0,0.125,109,148.0
5174,B4,528.0,1.0,115,148.0
5175,B5,528.0,1.0,115,148.0
5176,A3,528.161,1.5,111,148.0
5177,D4,528.161,1.0,112,148.0
5178,F#3,528.161,1.0,112,148.0
5179,C2,528.5,0.125,124,148.0
5180,D3,528.5,0.5,82,148.0
5181,A3,528.5,0.5,82,148.0
5182,C5,528.922,677/1000,111,148.0
5183,E5,528.922,677/1000,111,148.0
5184,A3,529.0,0.5,100,148.0
5185,D4,529.0,0.5,100,148.0
5186,D3,529.0,0.5,100,148.0
5187,B-2,529.0,0.125,109,148.0
5188,C2,529.0,0.125,109,148.0
5189,A4,529.0,0.5,107,148.0
5190,A5,529.0,0.5,107,148.0
5191,D4,529.161,1.0,78,148.0
5192,F#3,529.161,1.0,78,148.0
5193,F#4,529.5,107/500,101,148.0
5194,A4,529.5,107/500,101,148.0
5195,D4,529.5,107/500,101,148.0
5196,G4,529.5,1.0,117,148.0
5197,G5,529.5,1.0,117,148.0
5198,B4,529.516,2.484,112,148.0
5199,E-5,529.516,2.484,112,148.0
5200,F#4,530.0,107/500,91,148.0
5201,A4,530.0,107/500,91,148.0
5202,D4,530.0,107/500,91,148.0
5203,E3,530.0,0.125,120,148.0
5204,E2,530.0,0.125,120,148.0
5205,D4,530.161,1.0,119,148.0
5206,A3,530.161,1.0,119,148.0
5207,F#3,530.161,1.0,119,148.0
5208,F#4,530.5,107/500,98,148.0
5209,A4,530.5,107/500,98,148.0
5210,D4,530.5,107/500,98,148.0
5211,F#4,530.5,0.5,107,148.0
5212,F#5,530.5,0.5,107,148.0
5213,A3,531.0,0.5,103,148.0
5214,D4,531.0,0.5,103,148.0
5215,D3,531.0,0.5,103,148.0
5216,C2,531.0,0.125,109,148.0
5217,B-2,531.0,0.125,109,148.0
5218,A4,531.0,1.0,121,148.0
5219,A5,531.0,1.0,121,148.0
5220,F#3,531.161,0.5,76,148.0
5221,D4,531.161,0.5,76,148.0
5222,C2,531.5,0.125,124,148.0
5223,A3,531.5,0.5,72,148.0
5224,D3,531.5,0.5,72,148.0
5225,F#3,531.661,0.5,108,148.0
5226,D4,531.661,0.5,108,148.0
5227,A3,531.661,0.5,108,148.0
5228,B4,532.0,153/125,112,148.0
5229,E-5,532.0,153/125,112,148.0
5230,B-2,532.0,0.125,94,148.0
5231,A3,532.0,0.5,90,148.0
5232,D4,532.0,0.5,90,148.0
5233,D3,532.0,0.5,90,148.0
5234,G4,532.0,0.5,111,148.0
5235,G5,532.0,0.5,111,148.0
5236,F#3,532.161,0.5,64,148.0
5237,E2,532.5,0.125,124,148.0
5238,D3,532.5,0.5,71,148.0
5239,A3,532.5,0.5,71,148.0
5240,F#4,532.5,1.0,116,148.0
5241,F#5,532.5,1.0,116,148.0
5242,A3,532.661,1.0,108,148.0
5243,D4,532.661,0.5,112,148.0
5244,F#3,532.661,0.5,112,148.0
5245,E5,532.911,833/1000,114,148.0
5246,G5,532.911,833/1000,114,148.0
5247,A3,533.0,0.5,94,148.0
5248,D4,533.0,0.5,94,148.0
5249,D3,533.0,0.5,94,148.0
5250,C2,533.0,0.125,109,148.0
5251,B-2,533.0,0.125,109,148.0
5252,F#3,533.161,1.0,79,148.0
5253,D4,533.161,1.0,79,148.0
5254,C2,533.5,0.125,124,148.0
5255,A3,533.5,0.5,70,148.0
5256,D3,533.5,0.5,70,148.0
5257,E5,533.5,0.5,116,148.0
5258,E4,533.5,0.5,116,148.0
5259,E5,533.922,237/250,109,148.0
5260,G5,533.922,237/250,109,148.0
5261,D4,534.0,1.0,93,148.0
5262,A3,534.0,0.5,94,148.0
5263,D3,534.0,0.5,94,148.0
5264,E3,534.0,0.125,120,148.0
5265,E2,534.0,0.125,120,148.0
5266,E-5,534.0,0.5,114,148.0
5267,E-4,534.0,0.5,114,148.0
5268,A3,534.161,1.5,115,148.0
5269,D4,534.161,1.0,110,148.0
5270,F#3,534.161,1.0,110,148.0
5271,A3,534.5,0.5,84,148.0
5272,D3,534.5,0.5,84,148.0
5273,E5,534.5,0.5,117,148.0
5274,E4,534.5,0.5,117,148.0
5275,E2,534.75,0.125,124,148.0
5276,B5,534.896,839/1000,108,148.0
5277,D6,534.896,839/1000,108,148.0
5278,B3,535.0,1.0,106,148.0
5279,E2,535.0,0.125,124,148.0
5280,F#3,535.0,0.5,104,148.0
5281,B2,535.0,0.5,104,148.0
5282,E5,535.0,1.0,113,148.0
5283,E4,535.0,1.0,113,148.0
5284,F#3,535.161,0.5,80,148.0
5285,D4,535.161,1.0,79,148.0
5286,E2,535.25,0.125,124,148.0
5287,F2,535.5,0.125,117,148.0
5288,F#3,535.5,0.5,59,148.0
5289,B2,535.5,0.5,59,148.0
5290,F#3,535.661,0.5,76,148.0
5291,A3,535.661,0.5,76,148.0
5292,F2,535.75,0.125,117,148.0
5293,B5,535.943,57/1000,111,148.0
5294,D6,535.943,57/1000,111,148.0
5295,B5,536.0,2.156,111,148.0
5296,D6,536.0,2.156,111,148.0
5297,B3,536.0,1.0,82,148.0
5298,F#3,536.0,0.5,74,148.0
5299,B2,536.0,0.5,74,148.0
5300,C#3,536.0,0.125,109,148.0
5301,C2,536.0,0.125,109,148.0
5302,G5,536.0,0.141,124,148.0
5303,G4,536.0,0.141,124,148.0
5304,A3,536.161,1.5,112,148.0
5305,E-4,536.161,1.0,102,148.0
5306,F#3,536.161,1.0,102,148.0
5307,C2,536.5,0.125,124,148.0
5308,F#3,536.5,0.5,62,148.0
5309,B2,536.5,0.5,62,148.0
5310,G5,536.5,0.141,117,148.0
5311,G4,536.5,0.141,117,148.0
5312,B3,537.0,1.0,101,148.0
5313,F#3,537.0,0.5,105,148.0
5314,B2,537.0,0.5,105,148.0
5315,B-2,537.0,0.125,109,148.0
5316,C2,537.0,0.125,109,148.0
5317,E5,537.0,0.141,118,148.0
5318,E4,537.0,0.141,118,148.0
5319,E-4,537.161,1.0,80,148.0
5320,F#3,537.161,1.0,80,148.0
5321,F#3,537.5,1.0,50,148.0
5322,B2,537.5,0.5,45,148.0
5323,E5,537.5,0.141,117,148.0
5324,E4,537.5,0.141,117,148.0
5325,B3,538.0,1.0,78,148.0
5326,B2,538.0,0.5,83,148.0
5327,B-2,538.0,0.125,109,148.0
5328,E2,538.0,0.125,109,148.0
5329,A3,538.161,1.5,113,148.0
5330,E-4,538.161,1.0,119,148.0
5331,F#3,538.161,1.0,119,148.0
5332,G5,538.385,0.438,115,148.0
5333,B5,538.385,0.438,115,148.0
5334,F#3,538.5,0.5,50,148.0
5335,B2,538.5,0.5,50,148.0
5336,G5,538.943,411/1000,119,148.0
5337,B5,538.943,411/1000,119,148.0
5338,B3,539.0,1.0,97,148.0
5339,B-2,539.0,0.125,94,148.0
5340,F#3,539.0,0.5,97,148.0
5341,B2,539.0,0.5,97,148.0
5342,G4,539.0,0.141,122,148.0
5343,G5,539.0,0.141,122,148.0
5344,E-4,539.161,0.5,63,148.0
5345,F#3,539.161,0.5,63,148.0
5346,G5,539.453,37/100,118,148.0
5347,B5,539.453,37/100,118,148.0
5348,F#3,539.5,1.0,48,148.0
5349,B2,539.5,0.5,48,148.0
5350,C2,539.5,0.125,124,148.0
5351,G4,539.5,0.141,115,148.0
5352,G5,539.5,0.141,115,148.0
5353,A3,539.661,0.5,115,148.0
5354,E-4,539.661,0.5,104,148.0
5355,F#3,539.661,0.5,104,148.0
5356,D6,539.948,13/250,124,148.0
5357,E6,539.948,13/250,124,148.0
5358,D6,540.0,0.438,124,148.0
5359,E6,540.0,0.438,124,148.0
5360,B3,540.0,1.0,68,148.0
5361,B2,540.0,0.5,70,148.0
5362,B-2,540.0,0.125,94,148.0
5363,E4,540.0,0.141,118,148.0
5364,E5,540.0,0.141,118,148.0
5365,F#3,540.161,0.5,56,148.0
5366,A3,540.161,0.5,115,148.0
5367,C6,540.464,1.078,122,148.0
5368,D6,540.464,1.078,122,148.0
5369,E2,540.5,0.125,124,148.0
5370,F#3,540.5,0.5,56,148.0
5371,B2,540.5,0.5,56,148.0
5372,E4,540.5,0.141,118,148.0
5373,E5,540.5,0.141,118,148.0
5374,A3,540.661,1.5,93,148.0
5375,E-4,540.661,0.5,110,148.0
5376,F#3,540.661,0.5,110,148.0
5377,B3,541.0,1.0,94,148.0
5378,B-2,541.0,0.125,94,148.0
5379,F#3,541.0,0.5,96,148.0
5380,B2,541.0,0.5,96,148.0
5381,E-4,541.161,1.0,81,148.0
5382,F#3,541.161,1.0,81,148.0
5383,F#3,541.5,1.0,53,148.0
5384,B2,541.5,0.5,54,148.0
5385,C2,541.5,0.125,124,148.0
5386,B5,541.802,349/500,124,148.0
5387,D6,541.802,349/500,124,148.0
5388,B3,542.0,1.0,79,148.0
5389,B2,542.0,0.5,84,148.0
5390,B-2,542.0,0.125,109,148.0
5391,E2,542.0,0.125,109,148.0
5392,G5,542.0,0.141,124,148.0
5393,G4,542.0,0.141,124,148.0
5394,A3,542.161,1.5,113,148.0
5395,E-4,542.161,1.0,112,148.0
5396,F#3,542.161,1.0,112,148.0
5397,C2,542.5,0.125,124,148.0
5398,F#3,542.5,0.5,54,148.0
5399,B2,542.5,0.5,54,148.0
5400,G5,542.5,0.141,124,148.0
5401,G4,542.5,0.141,124,148.0
5402,A5,542.521,1443/1000,116,148.0
5403,C6,542.521,1443/1000,116,148.0
5404,B-2,543.0,0.125,94,148.0
5405,B3,543.0,0.5,105,148.0
5406,E4,543.0,0.5,105,148.0
5407,E3,543.0,0.5,105,148.0
5408,A5,543.0,0.141,122,148.0
5409,A4,543.0,0.141,122,148.0
5410,E-4,543.161,0.5,68,148.0
5411,F#3,543.161,0.5,68,148.0
5412,B3,543.5,0.5,74,148.0
5413,E3,543.5,0.5,74,148.0
5414,E-4,543.661,0.5,105,148.0
5415,F#3,543.661,0.5,105,148.0
5416,A3,543.661,0.5,105,148.0
5417,G5,543.854,73/500,111,148.0
5418,B5,543.854,73/500,111,148.0
5419,G5,544.0,2167/1000,111,148.0
5420,B5,544.0,2167/1000,111,148.0
5421,E4,544.0,1.0,85,148.0
5422,B3,544.0,0.5,82,148.0
5423,E3,544.0,0.5,82,148.0
5424,C#3,544.0,0.125,109,148.0
5425,C2,544.0,0.125,109,148.0
5426,G5,544.0,0.141,123,148.0
5427,G4,544.0,0.141,123,148.0
5428,E4,544.161,1.5,123,148.0
5429,B3,544.161,1.0,116,148.0
5430,E3,544.161,1.0,116,148.0
5431,C2,544.5,0.125,124,148.0
5432,B3,544.5,0.5,71,148.0
5433,E3,544.5,0.5,71,148.0
5434,G5,544.5,0.141,122,148.0
5435,G4,544.5,0.141,122,148.0
5436,E4,545.0,0.5,98,148.0
5437,B3,545.0,0.5,98,148.0
5438,E3,545.0,0.5,98,148.0
5439,B-2,545.0,0.125,109,148.0
5440,C2,545.0,0.125,109,148.0
5441,E5,545.0,0.141,122,148.0
5442,E4,545.0,0.141,122,148.0
5443,B3,545.161,1.0,78,148.0
5444,E3,545.161,1.0,78,148.0
5445,B3,545.5,107/500,104,148.0
5446,E4,545.5,107/500,104,148.0
5447,G4,545.5,107/500,104,148.0
5448,E5,545.5,0.141,122,148.0
5449,E4,545.5,0.141,122,148.0
5450,E4,546.0,107/500,100,148.0
5451,B3,546.0,107/500,100,148.0
5452,G4,546.0,107/500,100,148.0
5453,B-2,546.0,0.125,109,148.0
5454,E2,546.0,0.125,109,148.0
5455,E4,546.161,1.5,124,148.0
5456,B3,546.161,1.0,123,148.0
5457,E3,546.161,1.0,123,148.0
5458,G5,546.385,99/250,115,148.0
5459,B5,546.385,99/250,115,148.0
5460,G4,546.5,107/500,100,148.0
5461,E4,546.5,107/500,100,148.0
5462,B3,546.5,107/500,100,148.0
5463,G5,546.927,0.422,115,148.0
5464,B5,546.927,0.422,115,148.0
5465,B-2,547.0,0.125,94,148.0
5466,B3,547.0,0.5,104,148.0
5467,E4,547.0,0.5,104,148.0
5468,E3,547.0,0.5,104,148.0
5469,G5,547.0,0.141,124,148.0
5470,G4,547.0,0.141,124,148.0
5471,B3,547.161,0.5,60,148.0
5472,E3,547.161,0.5,60,148.0
5473,C2,547.5,0.125,124,148.0
5474,B3,547.5,0.5,75,148.0
5475,E3,547.5,0.5,75,148.0
5476,G5,547.5,0.141,124,148.0
5477,G4,547.5,0.141,124,148.0
5478,E5,547.536,58/125,105,148.0
5479,G5,547.536,58/125,105,148.0
5480,G5,547.547,91/500,62,148.0
5481,B5,547.547,91/500,62,148.0
5482,E4,547.661,0.5,110,148.0
5483,B3,547.661,0.5,110,148.0
5484,E3,547.661,0.5,110,148.0
5485,E5,548.0,0.141,105,148.0
5486,G5,548.0,0.141,105,148.0
5487,B-2,548.0,0.125,94,148.0
5488,B3,548.0,0.5,84,148.0
5489,E4,548.0,0.5,84,148.0
5490,E3,548.0,0.5,84,148.0
5491,E5,548.0,0.141,120,148.0
5492,E4,548.0,0.141,120,148.0
5493,G5,548.078,927/1000,120,148.0
5494,B5,548.078,927/1000,120,148.0
5495,B3,548.5,1.0,74,148.0
5496,E3,548.5,0.5,70,148.0
5497,E2,548.5,0.125,124,148.0
5498,E5,548.5,0.141,120,148.0
5499,E4,548.5,0.141,120,148.0
5500,E4,548.661,1.0,115,148.0
5501,E3,548.661,0.5,111,148.0
5502,E5,548.969,0.484,102,148.0
5503,G5,548.969,0.484,102,148.0
5504,B-2,549.0,0.125,94,148.0
5505,E4,549.0,0.5,90,148.0
5506,E3,549.0,0.5,90,148.0
5507,B3,549.161,1.0,81,148.0
5508,E3,549.161,1.0,81,148.0
5509,B5,549.5,241/250,112,148.0
5510,D6,549.5,241/250,112,148.0
5511,C2,549.5,0.125,124,148.0
5512,B3,549.5,0.5,66,148.0
5513,E3,549.5,0.5,66,148.0
5514,B3,550.0,0.5,82,148.0
5515,E4,550.0,0.5,82,148.0
5516,E3,550.0,0.5,82,148.0
5517,B-2,550.0,0.125,109,148.0
5518,E2,550.0,0.125,109,148.0
5519,G5,550.0,0.141,123,148.0
5520,G4,550.0,0.141,123,148.0
5521,E4,550.161,1.5,120,148.0
5522,B3,550.161,1.0,122,148.0
5523,E3,550.161,1.0,122,148.0
5524,C2,550.5,0.125,124,148.0
5525,B3,550.5,0.5,67,148.0
5526,E3,550.5,0.5,67,148.0
5527,G5,550.5,0.141,120,148.0
5528,G4,550.5,0.141,120,148.0
5529,A5,550.516,0.406,112,148.0
5530,C6,550.516,0.406,112,148.0
5531,E3,551.0,0.5,92,148.0
5532,B-2,551.0,0.125,94,148.0
5533,E4,551.0,1.0,108,148.0
5534,G3,551.0,1.0,108,148.0
5535,A5,551.0,0.141,124,148.0
5536,A4,551.0,0.141,124,148.0
5537,A5,551.021,979/1000,115,148.0
5538,C6,551.021,979/1000,115,148.0
5539,B3,551.161,0.5,74,148.0
5540,E3,551.161,0.5,74,148.0
5541,C4,551.5,1/200,63,148.0
5542,E4,551.661,0.5,113,148.0
5543,E3,551.661,0.5,104,148.0
5544,B3,551.661,0.5,104,148.0
5545,A5,552.0,1.062,115,148.0
5546,C6,552.0,1.062,115,148.0
5547,G3,552.0,1.0,101,148.0
5548,E4,552.0,0.5,88,148.0
5549,E3,552.0,0.5,88,148.0
5550,C#3,552.0,0.125,109,148.0
5551,C2,552.0,0.125,109,148.0
5552,G5,552.0,0.141,123,148.0
5553,G4,552.0,0.141,123,148.0
5554,E4,552.161,1.5,113,148.0
5555,G3,552.161,1.0,96,148.0
5556,E3,552.161,1.0,96,148.0
5557,C4,552.161,1.0,96,148.0
5558,C4,552.5,1/200,76,148.0
5559,C2,552.5,0.125,124,148.0
5560,G5,552.5,0.141,121,148.0
5561,G4,552.5,0.141,121,148.0
5562,E4,553.0,0.5,100,148.0
5563,G3,553.0,0.5,100,148.0
5564,E3,553.0,0.5,100,148.0
5565,B-2,553.0,0.125,109,148.0
5566,C2,553.0,0.125,109,148.0
5567,E5,553.0,0.141,117,148.0
5568,E4,553.0,0.141,117,148.0
5569,E3,553.161,1.0,77,148.0
5570,C4,553.161,1.0,77,148.0
5571,E4,553.5,107/500,106,148.0
5572,C4,553.5,107/500,106,148.0
5573,G4,553.5,107/500,106,148.0
5574,E5,553.5,0.141,113,148.0
5575,E4,553.5,0.141,113,148.0
5576,E4,554.0,107/500,96,148.0
5577,G4,554.0,107/500,96,148.0
5578,C4,554.0,107/500,96,148.0
5579,B-2,554.0,0.125,109,148.0
5580,E2,554.0,0.125,109,148.0
5581,C4,554.161,1.0,113,148.0
5582,E3,554.161,1.0,113,148.0
5583,G3,554.161,1.5,120,148.0
5584,E4,554.161,1.5,120,148.0
5585,A5,554.391,19/50,113,148.0
5586,C6,554.391,19/50,113,148.0
5587,E4,554.5,107/500,101,148.0
5588,G4,554.5,107/500,101,148.0
5589,C4,554.5,107/500,101,148.0
5590,A5,554.922,0.328,107,148.0
5591,C6,554.922,0.328,107,148.0
5592,B-2,555.0,0.125,94,148.0
5593,G3,555.0,0.5,103,148.0
5594,E4,555.0,0.5,103,148.0
5595,E3,555.0,0.5,103,148.0
5596,G5,555.0,0.141,119,148.0
5597,G4,555.0,0.141,119,148.0
5598,E3,555.161,0.5,69,148.0
5599,C4,555.161,0.5,69,148.0
5600,A5,555.401,37/100,111,148.0
5601,C6,555.401,37/100,111,148.0
5602,C4,555.5,1/200,63,148.0
5603,G3,555.5,0.5,64,148.0
5604,C2,555.5,0.125,124,148.0
5605,G5,555.5,0.141,113,148.0
5606,G4,555.5,0.141,113,148.0
5607,G3,555.661,0.5,113,148.0
5608,E4,555.661,0.5,109,148.0
5609,E3,555.661,0.5,109,148.0
5610,C4,555.661,0.5,109,148.0
5611,A5,555.979,21/1000,111,148.0
5612,C6,555.979,21/1000,111,148.0
5613,A5,556.0,0.891,111,148.0
5614,C6,556.0,0.891,111,148.0
5615,B-2,556.0,0.125,94,148.0
5616,G3,556.0,0.5,90,148.0
5617,E4,556.0,0.5,90,148.0
5618,E3,556.0,0.5,90,148.0
5619,E5,556.0,0.141,118,148.0
5620,E4,556.0,0.141,118,148.0
5621,E3,556.167,0.5,61,148.0
5622,G3,556.167,0.5,113,148.0
5623,E4,556.167,1/200,109,148.0
5624,E3,556.167,1/200,109,148.0
5625,C4,556.167,1/200,109,148.0
5626,C4,556.5,1/200,67,148.0
5627,G3,556.5,0.5,64,148.0
5628,E2,556.5,0.125,124,148.0
5629,E5,556.5,0.141,116,148.0
5630,E4,556.5,0.141,116,148.0
5631,G3,556.667,1.0,106,148.0
5632,E4,556.667,1.0,106,148.0
5633,C4,556.667,0.5,112,148.0
5634,E3,556.667,0.5,112,148.0
5635,G5,556.854,583/1000,113,148.0
5636,B5,556.854,583/1000,113,148.0
5637,B-2,557.0,0.125,94,148.0
5638,G3,557.0,0.5,94,148.0
5639,E4,557.0,0.5,94,148.0
5640,E3,557.0,0.5,94,148.0
5641,E3,557.167,1.0,78,148.0
5642,C4,557.167,1.0,78,148.0
5643,F#5,557.427,1.031,118,148.0
5644,A5,557.427,1.031,118,148.0
5645,C4,557.5,1/200,64,148.0
5646,G3,557.5,0.5,62,148.0
5647,C2,557.5,0.125,124,148.0
5648,G3,558.0,0.5,85,148.0
5649,E4,558.0,0.5,85,148.0
5650,E3,558.0,0.5,85,148.0
5651,B-2,558.0,0.125,109,148.0
5652,E2,558.0,0.125,109,148.0
5653,G5,558.0,0.141,124,148.0
5654,G4,558.0,0.141,124,148.0
5655,G3,558.167,1.5,118,148.0
5656,E4,558.167,1.5,118,148.0
5657,C4,558.167,1.0,112,148.0
5658,E3,558.167,1.0,112,148.0
5659,E5,558.438,1.0,120,148.0
5660,G5,558.438,1.0,120,148.0
5661,C4,558.5,1/200,64,148.0
5662,G3,558.5,0.5,67,148.0
5663,C2,558.5,0.125,124,148.0
5664,G5,558.5,0.141,116,148.0
5665,G4,558.5,0.141,116,148.0
5666,B-2,559.0,0.125,94,148.0
5667,A3,559.0,0.5,102,148.0
5668,D4,559.0,0.5,102,148.0
5669,D3,559.0,0.5,102,148.0
5670,A5,559.0,0.141,124,148.0
5671,A4,559.0,0.141,124,148.0
5672,E3,559.167,1.0,79,148.0
5673,C4,559.167,0.5,70,148.0
5674,E-5,559.474,263/500,121,148.0
5675,F#5,559.474,263/500,121,148.0
5676,A3,559.5,0.5,69,148.0
5677,D3,559.5,0.5,69,148.0
5678,G3,559.667,0.5,92,148.0
5679,E4,559.667,0.5,92,148.0
5680,C4,559.667,0.5,92,148.0
5681,E-5,560.0,4.0,121,148.0
5682,F#5,560.0,4.0,121,148.0
5683,A3,560.0,0.5,96,148.0
5684,D4,560.0,0.5,96,148.0
5685,D3,560.0,0.5,96,148.0
5686,C#3,560.0,0.125,109,148.0
5687,C2,560.0,0.125,109,148.0
5688,B4,560.0,1.0,115,148.0
5689,B5,560.0,1.0,115,148.0
5690,A3,560.167,1.5,111,148.0
5691,D4,560.167,1.0,112,148.0
5692,F#3,560.167,1.0,112,148.0
5693,C2,560.5,0.125,124,148.0
5694,D3,560.5,0.5,82,148.0
5695,A3,560.5,0.5,82,148.0
5696,A3,561.0,0.5,100,148.0
5697,D4,561.0,0.5,100,148.0
5698,D3,561.0,0.5,100,148.0
5699,B-2,561.0,0.125,109,148.0
5700,C2,561.0,0.125,109,148.0
5701,A4,561.0,0.5,107,148.0
5702,A5,561.0,0.5,107,148.0
5703,D4,561.167,1.0,78,148.0
5704,F#3,561.167,1.0,78,148.0
5705,F#4,561.5,107/500,101,148.0
5706,A4,561.5,107/500,101,148.0
5707,D4,561.5,107/500,101,148.0
5708,G4,561.5,1.0,117,148.0
5709,G5,561.5,1.0,117,148.0
5710,F#4,562.0,107/500,91,148.0
5711,A4,562.0,107/500,91,148.0
5712,D4,562.0,107/500,91,148.0
5713,B-2,562.0,0.125,109,148.0
5714,E2,562.0,0.125,109,148.0
5715,D4,562.167,1.0,119,148.0
5716,A3,562.167,1.0,119,148.0
5717,F#3,562.167,1.0,119,148.0
5718,F#4,562.5,107/500,98,148.0
5719,A4,562.5,107/500,98,148.0
5720,D4,562.5,107/500,98,148.0
5721,F#4,562.5,0.5,107,148.0
5722,F#5,562.5,0.5,107,148.0
5723,A3,563.0,0.5,103,148.0
5724,D4,563.0,0.5,103,148.0
5725,D3,563.0,0.5,103,148.0
5726,C2,563.0,0.125,109,148.0
5727,B-2,563.0,0.125,109,148.0
5728,A4,563.0,1.0,121,148.0
5729,A5,563.0,1.0,121,148.0
5730,F#3,563.167,0.5,76,148.0
5731,D4,563.167,0.5,76,148.0
5732,C2,563.5,0.125,124,148.0
5733,A3,563.5,0.5,72,148.0
5734,D3,563.5,0.5,72,148.0
5735,F#3,563.667,0.5,108,148.0
5736,D4,563.667,0.5,108,148.0
5737,A3,563.667,0.5,108,148.0
5738,E-5,564.0,167/1000,121,148.0
5739,F#5,564.0,167/1000,121,148.0
5740,B-2,564.0,0.125,94,148.0
5741,A3,564.0,0.5,90,148.0
5742,D4,564.0,0.5,90,148.0
5743,D3,564.0,0.5,90,148.0
5744,G4,564.0,0.5,111,148.0
5745,G5,564.0,0.5,111,148.0
5746,F#3,564.167,0.5,64,148.0
5747,E2,564.5,0.125,124,148.0
5748,D3,564.5,0.5,71,148.0
5749,A3,564.5,0.5,71,148.0
5750,F#4,564.5,1.0,116,148.0
5751,F#5,564.5,1.0,116,148.0
5752,A3,564.667,1.0,108,148.0
5753,D4,564.667,0.5,112,148.0
5754,F#3,564.667,0.5,112,148.0
5755,E-5,564.906,0.469,118,148.0
5756,F#5,564.906,0.469,118,148.0
5757,A3,565.0,0.5,94,148.0
5758,D4,565.0,0.5,94,148.0
5759,D3,565.0,0.5,94,148.0
5760,C2,565.0,0.125,109,148.0
5761,B-2,565.0,0.125,109,148.0
5762,F#3,565.167,1.0,79,148.0
5763,D4,565.167,1.0,79,148.0
5764,E-5,565.5,729/1000,124,148.0
5765,F#5,565.5,729/1000,124,148.0
5766,C2,565.5,0.125,124,148.0
5767,A3,565.5,0.5,70,148.0
5768,D3,565.5,0.5,70,148.0
5769,E5,565.5,0.5,116,148.0
5770,E4,565.5,0.5,116,148.0
5771,D4,566.0,1.0,93,148.0
5772,A3,566.0,0.5,94,148.0
5773,D3,566.0,0.5,94,148.0
5774,B-2,566.0,0.125,109,148.0
5775,E2,566.0,0.125,109,148.0
5776,E-5,566.0,0.5,114,148.0
5777,E-4,566.0,0.5,114,148.0
5778,A3,566.167,1.5,115,148.0
5779,D4,566.167,1.0,110,148.0
5780,F#3,566.167,1.0,110,148.0
5781,A3,566.5,0.5,84,148.0
5782,D3,566.5,0.5,84,148.0
5783,E5,566.5,0.5,117,148.0
5784,E4,566.5,0.5,117,148.0
5785,E2,566.75,0.125,124,148.0
5786,B3,567.0,1.0,106,148.0
5787,E2,567.0,0.125,124,148.0
5788,F#3,567.0,0.5,104,148.0
5789,B2,567.0,0.5,104,148.0
5790,E5,567.0,1.0,113,148.0
5791,E4,567.0,1.0,113,148.0
5792,G5,567.062,771/1000,122,148.0
5793,B5,567.062,771/1000,122,148.0
5794,F#3,567.167,0.5,80,148.0
5795,D4,567.167,1.0,79,148.0
5796,E2,567.25,0.125,124,148.0
5797,F2,567.5,0.125,117,148.0
5798,F#3,567.5,0.5,59,148.0
5799,B2,567.5,0.5,59,148.0
5800,F#3,567.667,0.5,76,148.0
5801,A3,567.667,0.5,76,148.0
5802,F2,567.75,0.125,117,148.0
5803,B3,568.0,1.0,82,148.0
5804,F#3,568.0,0.5,74,148.0
5805,B2,568.0,0.5,74,148.0
5806,C#3,568.0,0.125,109,148.0
5807,C2,568.0,0.125,109,148.0
5808,G5,568.0,0.141,124,148.0
5809,G4,568.0,0.141,124,148.0
5810,G5,568.016,276/125,116,148.0
5811,B5,568.016,276/125,116,148.0
5812,A3,568.167,1.5,112,148.0
5813,E-4,568.167,1.0,102,148.0
5814,F#3,568.167,1.0,102,148.0
5815,C2,568.5,0.125,124,148.0
5816,F#3,568.5,0.5,62,148.0
5817,B2,568.5,0.5,62,148.0
5818,G5,568.5,0.141,117,148.0
5819,G4,568.5,0.141,117,148.0
5820,B3,569.0,1.0,101,148.0
5821,F#3,569.0,0.5,105,148.0
5822,B2,569.0,0.5,105,148.0
5823,B-2,569.0,0.125,109,148.0
5824,C2,569.0,0.125,109,148.0
5825,E5,569.0,0.141,118,148.0
5826,E4,569.0,0.141,118,148.0
5827,E-4,569.167,1.0,80,148.0
5828,F#3,569.167,1.0,80,148.0
5829,F#3,569.5,1.0,50,148.0
5830,B2,569.5,0.5,45,148.0
5831,E5,569.5,0.141,117,148.0
5832,E4,569.5,0.141,117,148.0
5833,B3,570.0,1.0,78,148.0
5834,B2,570.0,0.5,83,148.0
5835,B-2,570.0,0.125,109,148.0
5836,E2,570.0,0.125,109,148.0
5837,A3,570.167,1.5,113,148.0
5838,E-4,570.167,1.0,119,148.0
5839,F#3,570.167,1.0,119,148.0
5840,E5,570.464,411/1000,112,148.0
5841,G5,570.464,411/1000,112,148.0
5842,F#3,570.5,0.5,50,148.0
5843,B2,570.5,0.5,50,148.0
5844,B3,571.0,1.0,97,148.0
5845,B-2,571.0,0.125,94,148.0
5846,F#3,571.0,0.5,97,148.0
5847,B2,571.0,0.5,97,148.0
5848,G4,571.0,0.141,122,148.0
5849,G5,571.0,0.141,122,148.0
5850,E5,571.01,73/250,115,148.0
5851,G5,571.01,73/250,115,148.0
5852,E-4,571.167,0.5,63,148.0
5853,F#3,571.167,0.5,63,148.0
5854,E5,571.458,49/100,106,148.0
5855,G5,571.458,49/100,106,148.0
5856,F#3,571.5,1.0,48,148.0
5857,B2,571.5,0.5,48,148.0
5858,C2,571.5,0.125,124,148.0
5859,G4,571.5,0.141,115,148.0
5860,G5,571.5,0.141,115,148.0
5861,A3,571.667,0.5,115,148.0
5862,E-4,571.667,0.5,104,148.0
5863,F#3,571.667,0.5,104,148.0
5864,A5,571.943,57/1000,113,148.0
5865,C6,571.943,57/1000,113,148.0
5866,A5,572.0,49/100,113,148.0
5867,C6,572.0,49/100,113,148.0
5868,B3,572.0,1.0,68,148.0
5869,B2,572.0,0.5,70,148.0
5870,B-2,572.0,0.125,94,148.0
5871,E4,572.0,0.141,118,148.0
5872,E5,572.0,0.141,118,148.0
5873,F#3,572.167,0.5,56,148.0
5874,A3,572.167,0.5,115,148.0
5875,E2,572.5,0.125,124,148.0
5876,F#3,572.5,0.5,56,148.0
5877,B2,572.5,0.5,56,148.0
5878,E4,572.5,0.141,118,148.0
5879,E5,572.5,0.141,118,148.0
5880,G5,572.505,1167/1000,115,148.0
5881,B5,572.505,1167/1000,115,148.0
5882,A3,572.667,1.5,93,148.0
5883,E-4,572.667,0.5,110,148.0
5884,F#3,572.667,0.5,110,148.0
5885,B3,573.0,1.0,94,148.0
5886,B-2,573.0,0.125,94,148.0
5887,F#3,573.0,0.5,96,148.0
5888,B2,573.0,0.5,96,148.0
5889,E-4,573.167,1.0,81,148.0
5890,F#3,573.167,1.0,81,148.0
5891,F#3,573.5,1.0,53,148.0
5892,B2,573.5,0.5,54,148.0
5893,C2,573.5,0.125,124,148.0
5894,F#5,573.589,1021/1000,119,148.0
5895,A5,573.589,1021/1000,119,148.0
5896,B3,574.0,1.0,79,148.0
5897,B2,574.0,0.5,84,148.0
5898,B-2,574.0,0.125,109,148.0
5899,E2,574.0,0.125,109,148.0
5900,G5,574.0,0.141,124,148.0
5901,G4,574.0,0.141,124,148.0
5902,A3,574.167,1.5,113,148.0
5903,E-4,574.167,1.0,112,148.0
5904,F#3,574.167,1.0,112,148.0
5905,C2,574.5,0.125,124,148.0
5906,F#3,574.5,0.5,54,148.0
5907,B2,574.5,0.5,54,148.0
5908,G5,574.5,0.141,124,148.0
5909,G4,574.5,0.141,124,148.0
5910,G5,574.516,1193/1000,115,148.0
5911,B5,574.516,1193/1000,115,148.0
5912,B-2,575.0,0.125,94,148.0
5913,B3,575.0,0.5,105,148.0
5914,E4,575.0,0.5,105,148.0
5915,E3,575.0,0.5,105,148.0
5916,A5,575.0,0.141,122,148.0
5917,A4,575.0,0.141,122,148.0
5918,E-4,575.167,0.5,68,148.0
5919,F#3,575.167,0.5,68,148.0
5920,B3,575.5,0.5,74,148.0
5921,E3,575.5,0.5,74,148.0
5922,C5,575.589,411/1000,106,148.0
5923,E5,575.589,411/1000,106,148.0
5924,E-4,575.667,0.5,105,148.0
5925,F#3,575.667,0.5,105,148.0
5926,A3,575.667,0.5,105,148.0
5927,C5,576.0,1.922,106,148.0
5928,E5,576.0,1.922,106,148.0
5929,E4,576.0,1.0,85,148.0
5930,B3,576.0,0.5,82,148.0
5931,E3,576.0,0.5,82,148.0
5932,C#3,576.0,0.125,109,148.0
5933,C2,576.0,0.125,109,148.0
5934,G5,576.0,0.141,123,148.0
5935,G4,576.0,0.141,123,148.0
5936,E4,576.167,1.5,123,148.0
5937,B3,576.167,1.0,116,148.0
5938,E3,576.167,1.0,116,148.0
5939,C2,576.5,0.125,124,148.0
5940,B3,576.5,0.5,71,148.0
5941,E3,576.5,0.5,71,148.0
5942,G5,576.5,0.141,122,148.0
5943,G4,576.5,0.141,122,148.0
5944,E4,577.0,0.5,98,148.0
5945,B3,577.0,0.5,98,148.0
5946,E3,577.0,0.5,98,148.0
5947,B-2,577.0,0.125,109,148.0
5948,C2,577.0,0.125,109,148.0
5949,E5,577.0,0.141,122,148.0
5950,E4,577.0,0.141,122,148.0
5951,B3,577.167,1.0,78,148.0
5952,E3,577.167,1.0,78,148.0
5953,B3,577.5,107/500,104,148.0
5954,E4,577.5,107/500,104,148.0
5955,G4,577.5,107/500,104,148.0
5956,E5,577.5,0.141,122,148.0
5957,E4,577.5,0.141,122,148.0
5958,E4,578.0,107/500,100,148.0
5959,B3,578.0,107/500,100,148.0
5960,G4,578.0,107/500,100,148.0
5961,B-2,578.0,0.125,109,148.0
5962,E2,578.0,0.125,109,148.0
5963,E4,578.167,1.5,124,148.0
5964,B3,578.167,1.0,123,148.0
5965,E3,578.167,1.0,123,148.0
5966,E5,578.469,77/200,111,148.0
5967,G5,578.469,77/200,111,148.0
5968,G4,578.5,107/500,100,148.0
5969,E4,578.5,107/500,100,148.0
5970,B3,578.5,107/500,100,148.0
5971,E5,578.99,323/1000,116,148.0
5972,G5,578.99,323/1000,116,148.0
5973,B-2,579.0,0.125,94,148.0
5974,B3,579.0,0.5,104,148.0
5975,E4,579.0,0.5,104,148.0
5976,E3,579.0,0.5,104,148.0
5977,G5,579.0,0.141,124,148.0
5978,G4,579.0,0.141,124,148.0
5979,B3,579.167,0.5,60,148.0
5980,E3,579.167,0.5,60,148.0
5981,E5,579.438,69/125,113,148.0
5982,G5,579.438,69/125,113,148.0
5983,C2,579.5,0.125,124,148.0
5984,B3,579.5,0.5,75,148.0
5985,E3,579.5,0.5,75,148.0
5986,G5,579.5,0.141,124,148.0
5987,G4,579.5,0.141,124,148.0
5988,E4,579.667,0.5,110,148.0
5989,B3,579.667,0.5,110,148.0
5990,E3,579.667,0.5,110,148.0
5991,G5,580.0,22/25,115,148.0
5992,B5,580.0,22/25,115,148.0
5993,B-2,580.0,0.125,94,148.0
5994,B3,580.0,0.5,84,148.0
5995,E4,580.0,0.5,84,148.0
5996,E3,580.0,0.5,84,148.0
5997,E5,580.0,0.141,120,148.0
5998,E4,580.0,0.141,120,148.0
5999,B3,580.5,1.0,74,148.0
6000,E3,580.5,0.5,70,148.0
6001,E2,580.5,0.125,124,148.0
6002,E5,580.5,0.141,120,148.0
6003,E4,580.5,0.141,120,148.0
6004,E4,580.667,1.0,115,148.0
6005,E3,580.667,0.5,111,148.0
6006,E5,580.922,443/1000,104,148.0
6007,G5,580.922,443/1000,104,148.0
6008,B-2,581.0,0.125,94,148.0
6009,E4,581.0,0.5,90,148.0
6010,E3,581.0,0.5,90,148.0
6011,B3,581.167,1.0,81,148.0
6012,E3,581.167,1.0,81,148.0
6013,B5,581.417,0.922,113,148.0
6014,D6,581.417,0.922,113,148.0
6015,C2,581.5,0.125,124,148.0
6016,B3,581.5,0.5,66,148.0
6017,E3,581.5,0.5,66,148.0
6018,B3,582.0,0.5,82,148.0
6019,E4,582.0,0.5,82,148.0
6020,E3,582.0,0.5,82,148.0
6021,B-2,582.0,0.125,109,148.0
6022,E2,582.0,0.125,109,148.0
6023,G5,582.0,0.141,123,148.0
6024,G4,582.0,0.141,123,148.0
6025,E4,582.167,1.5,120,148.0
6026,B3,582.167,1.0,122,148.0
6027,E3,582.167,1.0,122,148.0
6028,A5,582.453,0.453,113,148.0
6029,C6,582.453,0.453,113,148.0
6030,C2,582.5,0.125,124,148.0
6031,B3,582.5,0.5,67,148.0
6032,E3,582.5,0.5,67,148.0
6033,G5,582.5,0.141,120,148.0
6034,G4,582.5,0.141,120,148.0
6035,E3,583.0,0.5,92,148.0
6036,B-2,583.0,0.125,94,148.0
6037,E4,583.0,1.0,108,148.0
6038,G3,583.0,1.0,108,148.0
6039,A5,583.0,0.141,124,148.0
6040,A4,583.0,0.141,124,148.0
6041,A5,583.01,99/100,122,148.0
6042,C6,583.01,99/100,122,148.0
6043,B3,583.167,0.5,74,148.0
6044,E3,583.167,0.5,74,148.0
6045,C4,583.5,1/200,63,148.0
6046,E4,583.667,0.5,113,148.0
6047,E3,583.667,0.5,104,148.0
6048,B3,583.667,0.5,104,148.0
6049,A5,584.0,2073/1000,122,148.0
6050,C6,584.0,2073/1000,122,148.0
6051,G3,584.0,1.0,101,148.0
6052,E4,584.0,0.5,88,148.0
6053,E3,584.0,0.5,88,148.0
6054,C#3,584.0,0.125,109,148.0
6055,C2,584.0,0.125,109,148.0
6056,G5,584.0,0.141,123,148.0
6057,G4,584.0,0.141,123,148.0
6058,E4,584.167,1.5,113,148.0
6059,G3,584.167,1.0,96,148.0
6060,E3,584.167,1.0,96,148.0
6061,C4,584.167,1.0,96,148.0
6062,C4,584.5,1/200,76,148.0
6063,C2,584.5,0.125,124,148.0
6064,G5,584.5,0.141,121,148.0
6065,G4,584.5,0.141,121,148.0
6066,E4,585.0,0.5,100,148.0
6067,G3,585.0,0.5,100,148.0
6068,E3,585.0,0.5,100,148.0
6069,B-2,585.0,0.125,109,148.0
6070,C2,585.0,0.125,109,148.0
6071,E5,585.0,0.141,117,148.0
6072,E4,585.0,0.141,117,148.0
6073,E3,585.167,1.0,77,148.0
6074,C4,585.167,1.0,77,148.0
6075,E4,585.5,107/500,106,148.0
6076,C4,585.5,107/500,106,148.0
6077,G4,585.5,107/500,106,148.0
6078,E5,585.5,0.141,113,148.0
6079,E4,585.5,0.141,113,148.0
6080,E4,586.0,107/500,96,148.0
6081,G4,586.0,107/500,96,148.0
6082,C4,586.0,107/500,96,148.0
6083,B-2,586.0,0.125,109,148.0
6084,E2,586.0,0.125,109,148.0
6085,C4,586.167,1.0,113,148.0
6086,E3,586.167,1.0,113,148.0
6087,G3,586.167,1.5,120,148.0
6088,E4,586.167,1.5,120,148.0
6089,E4,586.5,107/500,101,148.0
6090,G4,586.5,107/500,101,148.0
6091,C4,586.5,107/500,101,148.0
6092,A5,586.516,37/100,111,148.0
6093,C6,586.516,37/100,111,148.0
6094,B-2,587.0,0.125,94,148.0
6095,G3,587.0,0.5,103,148.0
6096,E4,587.0,0.5,103,148.0
6097,E3,587.0,0.5,103,148.0
6098,G5,587.0,0.141,119,148.0
6099,G4,587.0,0.141,119,148.0
6100,A5,587.036,0.344,109,148.0
6101,C6,587.036,0.344,109,148.0
6102,E3,587.167,0.5,69,148.0
6103,C4,587.167,0.5,69,148.0
6104,C4,587.5,1/200,63,148.0
6105,G3,587.5,0.5,64,148.0
6106,C2,587.5,0.125,124,148.0
6107,G5,587.5,0.141,113,148.0
6108,G4,587.5,0.141,113,148.0
6109,A5,587.516,0.344,108,148.0
6110,C6,587.516,0.344,108,148.0
6111,G3,587.667,0.5,113,148.0
6112,E4,587.667,0.5,109,148.0
6113,E3,587.667,0.5,109,148.0
6114,C4,587.667,0.5,109,148.0
6115,B-2,588.0,0.125,94,148.0
6116,G3,588.0,0.5,90,148.0
6117,E4,588.0,0.5,90,148.0
6118,E3,588.0,0.5,90,148.0
6119,E5,588.0,0.141,118,148.0
6120,E4,588.0,0.141,118,148.0
6121,A5,588.036,901/1000,110,148.0
6122,C6,588.036,901/1000,110,148.0
6123,E3,588.172,0.5,61,148.0
6124,G3,588.172,0.5,113,148.0
6125,E4,588.172,1/200,109,148.0
6126,E3,588.172,1/200,109,148.0
6127,C4,588.172,1/200,109,148.0
6128,C4,588.5,1/200,67,148.0
6129,G3,588.5,0.5,64,148.0
6130,E2,588.5,0.125,124,148.0
6131,E5,588.5,0.141,116,148.0
6132,E4,588.5,0.141,116,148.0
6133,G3,588.672,1.0,106,148.0
6134,E4,588.672,1.0,106,148.0
6135,C4,588.672,0.5,112,148.0
6136,E3,588.672,0.5,112,148.0
6137,G5,588.927,0.578,110,148.0
6138,B5,588.927,0.578,110,148.0
6139,B-2,589.0,0.125,94,148.0
6140,G3,589.0,0.5,94,148.0
6141,E4,589.0,0.5,94,148.0
6142,E3,589.0,0.5,94,148.0
6143,E3,589.172,1.0,78,148.0
6144,C4,589.172,1.0,78,148.0
6145,C4,589.5,1/200,64,148.0
6146,G3,589.5,0.5,62,148.0
6147,C2,589.5,0.125,124,148.0
6148,F#5,589.521,301/200,119,148.0
6149,A5,589.521,301/200,119,148.0
6150,G3,590.0,0.5,85,148.0
6151,E4,590.0,0.5,85,148.0
6152,E3,590.0,0.5,85,148.0
6153,B-2,590.0,0.125,109,148.0
6154,E2,590.0,0.125,109,148.0
6155,G5,590.0,0.141,124,148.0
6156,G4,590.0,0.141,124,148.0
6157,G3,590.172,1.5,118,148.0
6158,E4,590.172,1.5,118,148.0
6159,C4,590.172,1.0,112,148.0
6160,E3,590.172,1.0,112,148.0
6161,C4,590.5,1/200,64,148.0
6162,G3,590.5,0.5,67,148.0
6163,C2,590.5,0.125,124,148.0
6164,G5,590.5,0.141,116,148.0
6165,G4,590.5,0.141,116,148.0
6166,E5,590.979,0.578,117,148.0
6167,G5,590.979,0.578,117,148.0
6168,B-2,591.0,0.125,94,148.0
6169,A3,591.0,0.5,102,148.0
6170,D4,591.0,0.5,102,148.0
6171,D3,591.0,0.5,102,148.0
6172,A5,591.0,0.141,124,148.0
6173,A4,591.0,0.141,124,148.0
6174,E3,591.172,1.0,79,148.0
6175,C4,591.172,0.5,70,148.0
6176,A3,591.5,0.5,69,148.0
6177,D3,591.5,0.5,69,148.0
6178,E-5,591.51,49/100,118,148.0
6179,F#5,591.51,49/100,118,148.0
6180,G3,591.672,0.5,92,148.0
6181,E4,591.672,0.5,92,148.0
6182,C4,591.672,0.5,92,148.0
6183,E-5,592.0,583/1000,118,148.0
6184,F#5,592.0,583/1000,118,148.0
6185,A3,592.0,0.5,96,148.0
6186,D4,592.0,0.5,96,148.0
6187,D3,592.0,0.5,96,148.0
6188,C#3,592.0,0.125,109,148.0
6189,C2,592.0,0.125,109,148.0
6190,B4,592.0,1.0,115,148.0
6191,B5,592.0,1.0,115,148.0
6192,A3,592.172,1.5,111,148.0
6193,D4,592.172,1.0,112,148.0
6194,F#3,592.172,1.0,112,148.0
6195,C2,592.5,0.125,124,148.0
6196,D3,592.5,0.5,82,148.0
6197,A3,592.5,0.5,82,148.0
6198,C5,592.922,677/1000,111,148.0
6199,E5,592.922,677/1000,111,148.0
6200,A3,593.0,0.5,100,148.0
6201,D4,593.0,0.5,100,148.0
6202,D3,593.0,0.5,100,148.0
6203,B-2,593.0,0.125,109,148.0
6204,C2,593.0,0.125,109,148.0
6205,A4,593.0,0.5,107,148.0
6206,A5,593.0,0.5,107,148.0
6207,D4,593.172,1.0,78,148.0
6208,F#3,593.172,1.0,78,148.0
6209,F#4,593.5,107/500,101,148.0
6210,A4,593.5,107/500,101,148.0
6211,D4,593.5,107/500,101,148.0
6212,G4,593.5,1.0,117,148.0
6213,G5,593.5,1.0,117,148.0
6214,B4,593.516,2.484,112,148.0
6215,E-5,593.516,2.484,112,148.0
6216,F#4,594.0,107/500,91,148.0
6217,A4,594.0,107/500,91,148.0
6218,D4,594.0,107/500,91,148.0
6219,B-2,594.0,0.125,109,148.0
6220,E2,594.0,0.125,109,148.0
6221,D4,594.172,1.0,119,148.0
6222,A3,594.172,1.0,119,148.0
6223,F#3,594.172,1.0,119,148.0
6224,F#4,594.5,107/500,98,148.0
6225,A4,594.5,107/500,98,148.0
6226,D4,594.5,107/500,98,148.0
6227,F#4,594.5,0.5,107,148.0
6228,F#5,594.5,0.5,107,148.0
6229,A3,595.0,0.5,103,148.0
6230,D4,595.0,0.5,103,148.0
6231,D3,595.0,0.5,103,148.0
6232,C2,595.0,0.125,109,148.0
6233,B-2,595.0,0.125,109,148.0
6234,A4,595.0,1.0,121,148.0
6235,A5,595.0,1.0,121,148.0
6236,F#3,595.172,0.5,76,148.0
6237,D4,595.172,0.5,76,148.0
6238,C2,595.5,0.125,124,148.0
6239,A3,595.5,0.5,72,148.0
6240,D3,595.5,0.5,72,148.0
6241,F#3,595.672,0.5,108,148.0
6242,D4,595.672,0.5,108,148.0
6243,A3,595.672,0.5,108,148.0
6244,B4,596.0,153/125,112,148.0
6245,E-5,596.0,153/125,112,148.0
6246,B-2,596.0,0.125,94,148.0
6247,A3,596.0,0.5,90,148.0
6248,D4,596.0,0.5,90,148.0
6249,D3,596.0,0.5,90,148.0
6250,G4,596.0,0.5,111,148.0
6251,G5,596.0,0.5,111,148.0
6252,F#3,596.172,0.5,64,148.0
6253,E2,596.5,0.125,124,148.0
6254,D3,596.5,0.5,71,148.0
6255,A3,596.5,0.5,71,148.0
6256,F#4,596.5,1.0,116,148.0
6257,F#5,596.5,1.0,116,148.0
6258,A3,596.672,1.0,108,148.0
6259,D4,596.672,0.5,112,148.0
6260,F#3,596.672,0.5,112,148.0
6261,E5,596.911,833/1000,114,148.0
6262,G5,596.911,833/1000,114,148.0
6263,A3,597.0,0.5,94,148.0
6264,D4,597.0,0.5,94,148.0
6265,D3,597.0,0.5,94,148.0
6266,C2,597.0,0.125,109,148.0
6267,B-2,597.0,0.125,109,148.0
6268,F#3,597.172,1.0,79,148.0
6269,D4,597.172,1.0,79,148.0
6270,C2,597.5,0.125,124,148.0
6271,A3,597.5,0.5,70,148.0
6272,D3,597.5,0.5,70,148.0
6273,E5,597.5,0.5,116,148.0
6274,E4,597.5,0.5,116,148.0
6275,E5,597.922,237/250,109,148.0
6276,G5,597.922,237/250,109,148.0
6277,D4,598.0,1.0,93,148.0
6278,A3,598.0,0.5,94,148.0
6279,D3,598.0,0.5,94,148.0
6280,B-2,598.0,0.125,109,148.0
6281,E2,598.0,0.125,109,148.0
6282,E-5,598.0,0.5,114,148.0
6283,E-4,598.0,0.5,114,148.0
6284,A3,598.172,1.5,115,148.0
6285,D4,598.172,1.0,110,148.0
6286,F#3,598.172,1.0,110,148.0
6287,A3,598.5,0.5,84,148.0
6288,D3,598.5,0.5,84,148.0
6289,E5,598.5,0.5,117,148.0
6290,E4,598.5,0.5,117,148.0
6291,E2,598.75,0.125,124,148.0
6292,B5,598.896,839/1000,108,148.0
6293,D6,598.896,839/1000,108,148.0
6294,B3,599.0,1.0,106,148.0
6295,E2,599.0,0.125,124,148.0
6296,F#3,599.0,0.5,104,148.0
6297,B2,599.0,0.5,104,148.0
6298,E5,599.0,1.0,113,148.0
6299,E4,599.0,1.0,113,148.0
6300,F#3,599.172,0.5,80,148.0
6301,D4,599.172,1.0,79,148.0
6302,E2,599.25,0.125,124,148.0
6303,F2,599.5,0.125,117,148.0
6304,F#3,599.5,0.5,59,148.0
6305,B2,599.5,0.5,59,148.0
6306,F#3,599.672,0.5,76,148.0
6307,A3,599.672,0.5,76,148.0
6308,F2,599.75,0.125,117,148.0
6309,B5,599.943,57/1000,111,148.0
6310,D6,599.943,57/1000,111,148.0
6311,B5,600.0,2.156,111,148.0
6312,D6,600.0,2.156,111,148.0
6313,B3,600.0,1.0,82,148.0
6314,F#3,600.0,0.5,74,148.0
6315,B2,600.0,0.5,74,148.0
6316,C#3,600.0,0.125,109,148.0
6317,C2,600.0,0.125,109,148.0
6318,G5,600.0,0.141,124,148.0
6319,G4,600.0,0.141,124,148.0
6320,A3,600.172,1.5,112,148.0
6321,E-4,600.172,1.0,102,148.0
6322,F#3,600.172,1.0,102,148.0
6323,C2,600.5,0.125,124,148.0
6324,F#3,600.5,0.5,62,148.0
6325,B2,600.5,0.5,62,148.0
6326,G5,600.5,0.141,117,148.0
6327,G4,600.5,0.141,117,148.0
6328,B3,601.0,1.0,101,148.0
6329,F#3,601.0,0.5,105,148.0
6330,B2,601.0,0.5,105,148.0
6331,B-2,601.0,0.125,109,148.0
6332,C2,601.0,0.125,109,148.0
6333,E5,601.0,0.141,118,148.0
6334,E4,601.0,0.141,118,148.0
6335,E-4,601.172,1.0,80,148.0
6336,F#3,601.172,1.0,80,148.0
6337,F#3,601.5,1.0,50,148.0
6338,B2,601.5,0.5,45,148.0
6339,E5,601.5,0.141,117,148.0
6340,E4,601.5,0.141,117,148.0
6341,B3,602.0,1.0,78,148.0
6342,B2,602.0,0.5,83,148.0
6343,B-2,602.0,0.125,109,148.0
6344,E2,602.0,0.125,109,148.0
6345,A3,602.172,1.5,113,148.0
6346,E-4,602.172,1.0,119,148.0
6347,F#3,602.172,1.0,119,148.0
6348,G5,602.385,0.438,115,148.0
6349,B5,602.385,0.438,115,148.0
6350,F#3,602.5,0.5,50,148.0
6351,B2,602.5,0.5,50,148.0
6352,G5,602.943,411/1000,119,148.0
6353,B5,602.943,411/1000,119,148.0
6354,B3,603.0,1.0,97,148.0
6355,B-2,603.0,0.125,94,148.0
6356,F#3,603.0,0.5,97,148.0
6357,B2,603.0,0.5,97,148.0
6358,G4,603.0,0.141,122,148.0
6359,G5,603.0,0.141,122,148.0
6360,E-4,603.172,0.5,63,148.0
6361,F#3,603.172,0.5,63,148.0
6362,G5,603.453,37/100,118,148.0
6363,B5,603.453,37/100,118,148.0
6364,F#3,603.5,1.0,48,148.0
6365,B2,603.5,0.5,48,148.0
6366,C2,603.5,0.125,124,148.0
6367,G4,603.5,0.141,115,148.0
6368,G5,603.5,0.141,115,148.0
6369,A3,603.672,0.5,115,148.0
6370,E-4,603.672,0.5,104,148.0
6371,F#3,603.672,0.5,104,148.0
6372,D6,603.948,13/250,124,148.0
6373,E6,603.948,13/250,124,148.0
6374,D6,604.0,0.438,124,148.0
6375,E6,604.0,0.438,124,148.0
6376,B3,604.0,1.0,68,148.0
6377,B2,604.0,0.5,70,148.0
6378,B-2,604.0,0.125,94,148.0
6379,E4,604.0,0.141,118,148.0
6380,E5,604.0,0.141,118,148.0
6381,F#3,604.172,0.5,56,148.0
6382,A3,604.172,0.5,115,148.0
6383,C6,604.464,1.078,122,148.0
6384,D6,604.464,1.078,122,148.0
6385,E2,604.5,0.125,124,148.0
6386,F#3,604.5,0.5,56,148.0
6387,B2,604.5,0.5,56,148.0
6388,E4,604.5,0.141,118,148.0
6389,E5,604.5,0.141,118,148.0
6390,A3,604.672,1.5,93,148.0
6391,E-4,604.672,0.5,110,148.0
6392,F#3,604.672,0.5,110,148.0
6393,B3,605.0,1.0,94,148.0
6394,B-2,605.0,0.125,94,148.0
6395,F#3,605.0,0.5,96,148.0
6396,B2,605.0,0.5,96,148.0
6397,E-4,605.172,1.0,81,148.0
6398,F#3,605.172,1.0,81,148.0
6399,F#3,605.5,1.0,53,148.0
6400,B2,605.5,0.5,54,148.0
6401,C2,605.5,0.125,124,148.0
6402,B5,605.802,349/500,124,148.0
6403,D6,605.802,349/500,124,148.0
6404,B3,606.0,1.0,79,148.0
6405,B2,606.0,0.5,84,148.0
6406,B-2,606.0,0.125,109,148.0
6407,E2,606.0,0.125,109,148.0
6408,G5,606.0,0.141,124,148.0
6409,G4,606.0,0.141,124,148.0
6410,A3,606.172,1.5,113,148.0
6411,E-4,606.172,1.0,112,148.0
6412,F#3,606.172,1.0,112,148.0
6413,C2,606.5,0.125,124,148.0
6414,F#3,606.5,0.5,54,148.0
6415,B2,606.5,0.5,54,148.0
6416,G5,606.5,0.141,124,148.0
6417,G4,606.5,0.141,124,148.0
6418,A5,606.521,1443/1000,116,148.0
6419,C6,606.521,1443/1000,116,148.0
6420,B-2,607.0,0.125,94,148.0
6421,B3,607.0,0.5,105,148.0
6422,E4,607.0,0.5,105,148.0
6423,E3,607.0,0.5,105,148.0
6424,A5,607.0,0.141,122,148.0
6425,A4,607.0,0.141,122,148.0
6426,E-4,607.172,0.5,68,148.0
6427,F#3,607.172,0.5,68,148.0
6428,B3,607.5,0.5,74,148.0
6429,E3,607.5,0.5,74,148.0
6430,E-4,607.672,0.5,105,148.0
6431,F#3,607.672,0.5,105,148.0
6432,A3,607.672,0.5,105,148.0
6433,G5,607.854,73/500,111,148.0
6434,B5,607.854,73/500,111,148.0
6435,G5,608.0,2167/1000,111,148.0
6436,B5,608.0,2167/1000,111,148.0
6437,E4,608.0,1.0,85,148.0
6438,B3,608.0,0.5,82,148.0
6439,E3,608.0,0.5,82,148.0
6440,C#3,608.0,0.125,109,148.0
6441,C2,608.0,0.125,109,148.0
6442,G5,608.0,0.141,123,148.0
6443,G4,608.0,0.141,123,148.0
6444,E4,608.172,1.5,123,148.0
6445,B3,608.172,1.0,116,148.0
6446,E3,608.172,1.0,116,148.0
6447,C2,608.5,0.125,124,148.0
6448,B3,608.5,0.5,71,148.0
6449,E3,608.5,0.5,71,148.0
6450,G5,608.5,0.141,122,148.0
6451,G4,608.5,0.141,122,148.0
6452,E4,609.0,0.5,98,148.0
6453,B3,609.0,0.5,98,148.0
6454,E3,609.0,0.5,98,148.0
6455,B-2,609.0,0.125,109,148.0
6456,C2,609.0,0.125,109,148.0
6457,E5,609.0,0.141,122,148.0
6458,E4,609.0,0.141,122,148.0
6459,B3,609.172,1.0,78,148.0
6460,E3,609.172,1.0,78,148.0
6461,B3,609.5,107/500,104,148.0
6462,E4,609.5,107/500,104,148.0
6463,G4,609.5,107/500,104,148.0
6464,E5,609.5,0.141,122,148.0
6465,E4,609.5,0.141,122,148.0
6466,E4,610.0,107/500,100,148.0
6467,B3,610.0,107/500,100,148.0
6468,G4,610.0,107/500,100,148.0
6469,B-2,610.0,0.125,109,148.0
6470,E2,610.0,0.125,109,148.0
6471,E4,610.172,1.5,124,148.0
6472,B3,610.172,1.0,123,148.0
6473,E3,610.172,1.0,123,148.0
6474,G5,610.385,99/250,115,148.0
6475,B5,610.385,99/250,115,148.0
6476,G4,610.5,107/500,100,148.0
6477,E4,610.5,107/500,100,148.0
6478,B3,610.5,107/500,100,148.0
6479,G5,610.927,0.422,115,148.0
6480,B5,610.927,0.422,115,148.0
6481,B-2,611.0,0.125,94,148.0
6482,B3,611.0,0.5,104,148.0
6483,E4,611.0,0.5,104,148.0
6484,E3,611.0,0.5,104,148.0
6485,G5,611.0,0.141,124,148.0
6486,G4,611.0,0.141,124,148.0
6487,B3,611.172,0.5,60,148.0
6488,E3,611.172,0.5,60,148.0
6489,C2,611.5,0.125,124,148.0
6490,B3,611.5,0.5,75,148.0
6491,E3,611.5,0.5,75,148.0
6492,G5,611.5,0.141,124,148.0
6493,G4,611.5,0.141,124,148.0
6494,E5,611.536,58/125,105,148.0
6495,G5,611.536,58/125,105,148.0
6496,G5,611.547,91/500,62,148.0
6497,B5,611.547,91/500,62,148.0
6498,E4,611.672,0.5,110,148.0
6499,B3,611.672,0.5,110,148.0
6500,E3,611.672,0.5,110,148.0
6501,E5,612.0,0.141,105,148.0
6502,G5,612.0,0.141,105,148.0
6503,B-2,612.0,0.125,94,148.0
6504,B3,612.0,0.5,84,148.0
6505,E4,612.0,0.5,84,148.0
6506,E3,612.0,0.5,84,148.0
6507,E5,612.0,0.141,120,148.0
6508,E4,612.0,0.141,120,148.0
6509,G5,612.078,927/1000,120,148.0
6510,B5,612.078,927/1000,120,148.0
6511,B3,612.5,1.0,74,148.0
6512,E3,612.5,0.5,70,148.0
6513,E2,612.5,0.125,124,148.0
6514,E5,612.5,0.141,120,148.0
6515,E4,612.5,0.141,120,148.0
6516,E4,612.672,1.0,115,148.0
6517,E3,612.672,0.5,111,148.0
6518,E5,612.969,0.484,102,148.0
6519,G5,612.969,0.484,102,148.0
6520,B-2,613.0,0.125,94,148.0
6521,E4,613.0,0.5,90,148.0
6522,E3,613.0,0.5,90,148.0
6523,B3,613.172,1.0,81,148.0
6524,E3,613.172,1.0,81,148.0
6525,B5,613.5,241/250,112,148.0
6526,D6,613.5,241/250,112,148.0
6527,C2,613.5,0.125,124,148.0
6528,B3,613.5,0.5,66,148.0
6529,E3,613.5,0.5,66,148.0
6530,B3,614.0,0.5,82,148.0
6531,E4,614.0,0.5,82,148.0
6532,E3,614.0,0.5,82,148.0
6533,B-2,614.0,0.125,109,148.0
6534,E2,614.0,0.125,109,148.0
6535,G5,614.0,0.141,123,148.0
6536,G4,614.0,0.141,123,148.0
6537,E4,614.172,1.5,120,148.0
6538,B3,614.172,1.0,122,148.0
6539,E3,614.172,1.0,122,148.0
6540,C2,614.5,0.125,124,148.0
6541,B3,614.5,0.5,67,148.0
6542,E3,614.5,0.5,67,148.0
6543,G5,614.5,0.141,120,148.0
6544,G4,614.5,0.141,120,148.0
6545,A5,614.516,0.406,112,148.0
6546,C6,614.516,0.406,112,148.0
6547,E3,615.0,0.5,92,148.0
6548,B-2,615.0,0.125,94,148.0
6549,E4,615.0,1.0,108,148.0
6550,G3,615.0,1.0,108,148.0
6551,A5,615.0,0.141,124,148.0
6552,A4,615.0,0.141,124,148.0
6553,A5,615.021,979/1000,115,148.0
6554,C6,615.021,979/1000,115,148.0
6555,B3,615.172,0.5,74,148.0
6556,E3,615.172,0.5,74,148.0
6557,C4,615.5,1/200,63,148.0
6558,E4,615.672,0.5,113,148.0
6559,E3,615.672,0.5,104,148.0
6560,B3,615.672,0.5,104,148.0
6561,A5,616.0,1.062,115,148.0
6562,C6,616.0,1.062,115,148.0
6563,G3,616.0,1.0,101,148.0
6564,E4,616.0,0.5,88,148.0
6565,E3,616.0,0.5,88,148.0
6566,C#3,616.0,0.125,109,148.0
6567,C2,616.0,0.125,109,148.0
6568,G5,616.0,0.141,123,148.0
6569,G4,616.0,0.141,123,148.0
6570,E4,616.172,1.5,113,148.0
6571,G3,616.172,1.0,96,148.0
6572,E3,616.172,1.0,96,148.0
6573,C4,616.172,1.0,96,148.0
6574,C4,616.5,1/200,76,148.0
6575,C2,616.5,0.125,124,148.0
6576,G5,616.5,0.141,121,148.0
6577,G4,616.5,0.141,121,148.0
6578,E4,617.0,0.5,100,148.0
6579,G3,617.0,0.5,100,148.0
6580,E3,617.0,0.5,100,148.0
6581,B-2,617.0,0.125,109,148.0
6582,C2,617.0,0.125,109,148.0
6583,E5,617.0,0.141,117,148.0
6584,E4,617.0,0.141,117,148.0
6585,E3,617.172,1.0,77,148.0
6586,C4,617.172,1.0,77,148.0
6587,E4,617.5,107/500,106,148.0
6588,C4,617.5,107/500,106,148.0
6589,G4,617.5,107/500,106,148.0
6590,E5,617.5,0.141,113,148.0
6591,E4,617.5,0.141,113,148.0
6592,E4,618.0,107/500,96,148.0
6593,G4,618.0,107/500,96,148.0
6594,C4,618.0,107/500,96,148.0
6595,B-2,618.0,0.125,109,148.0
6596,E2,618.0,0.125,109,148.0
6597,C4,618.172,1.0,113,148.0
6598,E3,618.172,1.0,113,148.0
6599,G3,618.172,1.5,120,148.0
6600,E4,618.172,1.5,120,148.0
6601,A5,618.391,19/50,113,148.0
6602,C6,618.391,19/50,113,148.0
6603,E4,618.5,107/500,101,148.0
6604,G4,618.5,107/500,101,148.0
6605,C4,618.5,107/500,101,148.0
6606,A5,618.922,0.328,107,148.0
6607,C6,618.922,0.328,107,148.0
6608,B-2,619.0,0.125,94,148.0
6609,G3,619.0,0.5,103,148.0
6610,E4,619.0,0.5,103,148.0
6611,E3,619.0,0.5,103,148.0
6612,G5,619.0,0.141,119,148.0
6613,G4,619.0,0.141,119,148.0
6614,E3,619.172,0.5,69,148.0
6615,C4,619.172,0.5,69,148.0
6616,A5,619.401,37/100,111,148.0
6617,C6,619.401,37/100,111,148.0
6618,C4,619.5,1/200,63,148.0
6619,G3,619.5,0.5,64,148.0
6620,C2,619.5,0.125,124,148.0
6621,G5,619.5,0.141,113,148.0
6622,G4,619.5,0.141,113,148.0
6623,G3,619.672,0.5,113,148.0
6624,E4,619.672,0.5,109,148.0
6625,E3,619.672,0.5,109,148.0
6626,C4,619.672,0.5,109,148.0
6627,A5,619.979,21/1000,111,148.0
6628,C6,619.979,21/1000,111,148.0
6629,A5,620.0,0.891,111,148.0
6630,C6,620.0,0.891,111,148.0
6631,B-2,620.0,0.125,94,148.0
6632,G3,620.0,0.5,90,148.0
6633,E4,620.0,0.5,90,148.0
6634,E3,620.0,0.5,90,148.0
6635,E5,620.0,0.141,118,148.0
6636,E4,620.0,0.141,118,148.0
6637,E3,620.177,0.5,61,148.0
6638,G3,620.177,0.5,113,148.0
6639,E4,620.177,1/200,109,148.0
6640,E3,620.177,1/200,109,148.0
6641,C4,620.177,1/200,109,148.0
6642,C4,620.5,1/200,67,148.0
6643,G3,620.5,0.5,64,148.0
6644,E2,620.5,0.125,124,148.0
6645,E5,620.5,0.141,116,148.0
6646,E4,620.5,0.141,116,148.0
6647,G3,620.677,1.0,106,148.0
6648,E4,620.677,1.0,106,148.0
6649,C4,620.677,0.5,112,148.0
6650,E3,620.677,0.5,112,148.0
6651,G5,620.854,583/1000,113,148.0
6652,B5,620.854,583/1000,113,148.0
6653,B-2,621.0,0.125,94,148.0
6654,G3,621.0,0.5,94,148.0
6655,E4,621.0,0.5,94,148.0
6656,E3,621.0,0.5,94,148.0
6657,E3,621.177,1.0,78,148.0
6658,C4,621.177,1.0,78,148.0
6659,F#5,621.427,1.031,118,148.0
6660,A5,621.427,1.031,118,148.0
6661,C4,621.5,1/200,64,148.0
6662,G3,621.5,0.5,62,148.0
6663,C2,621.5,0.125,124,148.0
6664,G3,622.0,0.5,85,148.0
6665,E4,622.0,0.5,85,148.0
6666,E3,622.0,0.5,85,148.0
6667,B-2,622.0,0.125,109,148.0
6668,E2,622.0,0.125,109,148.0
6669,G5,622.0,0.141,124,148.0
6670,G4,622.0,0.141,124,148.0
6671,G3,622.177,1.5,118,148.0
6672,E4,622.177,1.5,118,148.0
6673,C4,622.177,1.0,112,148.0
6674,E3,622.177,1.0,112,148.0
6675,E5,622.438,1.0,120,148.0
6676,G5,622.438,1.0,120,148.0
6677,C4,622.5,1/200,64,148.0
6678,G3,622.5,0.5,67,148.0
6679,C2,622.5,0.125,124,148.0
6680,G5,622.5,0.141,116,148.0
6681,G4,622.5,0.141,116,148.0
6682,B-2,623.0,0.125,94,148.0
6683,A3,623.0,0.5,102,148.0
6684,D4,623.0,0.5,102,148.0
6685,D3,623.0,0.5,102,148.0
6686,A5,623.0,0.141,124,148.0
6687,A4,623.0,0.141,124,148.0
6688,E3,623.177,1.0,79,148.0
6689,C4,623.177,0.5,70,148.0
6690,E-5,623.474,263/500,121,148.0
6691,F#5,623.474,263/500,121,148.0
6692,A3,623.5,0.5,69,148.0
6693,D3,623.5,0.5,69,148.0
6694,G3,623.677,0.5,92,148.0
6695,E4,623.677,0.5,92,148.0
6696,C4,623.677,0.5,92,148.0
6697,E-5,624.0,4.0,121,148.0
6698,F#5,624.0,4.0,121,148.0
6699,A3,624.0,0.5,96,148.0
6700,D4,624.0,0.5,96,148.0
6701,D3,624.0,0.5,96,148.0
6702,C#3,624.0,0.125,109,148.0
6703,C2,624.0,0.125,109,148.0
6704,B4,624.0,1.0,115,148.0
6705,B5,624.0,1.0,115,148.0
6706,A3,624.177,1.5,111,148.0
6707,D4,624.177,1.0,112,148.0
6708,F#3,624.177,1.0,112,148.0
6709,C2,624.5,0.125,124,148.0
6710,D3,624.5,0.5,82,148.0
6711,A3,624.5,0.5,82,148.0
6712,A3,625.0,0.5,100,148.0
6713,D4,625.0,0.5,100,148.0
6714,D3,625.0,0.5,100,148.0
6715,B-2,625.0,0.125,109,148.0
6716,C2,625.0,0.125,109,148.0
6717,A4,625.0,0.5,107,148.0
6718,A5,625.0,0.5,107,148.0
6719,D4,625.177,1.0,78,148.0
6720,F#3,625.177,1.0,78,148.0
6721,F#4,625.5,107/500,101,148.0
6722,A4,625.5,107/500,101,148.0
6723,D4,625.5,107/500,101,148.0
6724,G4,625.5,1.0,117,148.0
6725,G5,625.5,1.0,117,148.0
6726,F#4,626.0,107/500,91,148.0
6727,A4,626.0,107/500,91,148.0
6728,D4,626.0,107/500,91,148.0
6729,B-2,626.0,0.125,109,148.0
6730,E2,626.0,0.125,109,148.0
6731,D4,626.177,1.0,119,148.0
6732,A3,626.177,1.0,119,148.0
6733,F#3,626.177,1.0,119,148.0
6734,F#4,626.5,107/500,98,148.0
6735,A4,626.5,107/500,98,148.0
6736,D4,626.5,107/500,98,148.0
6737,F#4,626.5,0.5,107,148.0
6738,F#5,626.5,0.5,107,148.0
6739,A3,627.0,0.5,103,148.0
6740,D4,627.0,0.5,103,148.0
6741,D3,627.0,0.5,103,148.0
6742,C2,627.0,0.125,109,148.0
6743,B-2,627.0,0.125,109,148.0
6744,A4,627.0,1.0,121,148.0
6745,A5,627.0,1.0,121,148.0
6746,F#3,627.177,0.5,76,148.0
6747,D4,627.177,0.5,76,148.0
6748,C2,627.5,0.125,124,148.0
6749,A3,627.5,0.5,72,148.0
6750,D3,627.5,0.5,72,148.0
6751,F#3,627.677,0.5,108,148.0
6752,D4,627.677,0.5,108,148.0
6753,A3,627.677,0.5,108,148.0
6754,E-5,628.0,167/1000,121,148.0
6755,F#5,628.0,167/1000,121,148.0
6756,B-2,628.0,0.125,94,148.0
6757,A3,628.0,0.5,90,148.0
6758,D4,628.0,0.5,90,148.0
6759,D3,628.0,0.5,90,148.0
6760,G4,628.0,0.5,111,148.0
6761,G5,628.0,0.5,111,148.0
6762,F#3,628.177,0.5,64,148.0
6763,E2,628.5,0.125,124,148.0
6764,D3,628.5,0.5,71,148.0
6765,A3,628.5,0.5,71,148.0
6766,F#4,628.5,1.0,116,148.0
6767,F#5,628.5,1.0,116,148.0
6768,A3,628.677,1.0,108,148.0
6769,D4,628.677,0.5,112,148.0
6770,F#3,628.677,0.5,112,148.0
6771,E-5,628.906,0.469,118,148.0
6772,F#5,628.906,0.469,118,148.0
6773,A3,629.0,0.5,94,148.0
6774,D4,629.0,0.5,94,148.0
6775,D3,629.0,0.5,94,148.0
6776,C2,629.0,0.125,109,148.0
6777,B-2,629.0,0.125,109,148.0
6778,F#3,629.177,1.0,79,148.0
6779,D4,629.177,1.0,79,148.0
6780,E-5,629.5,729/1000,124,148.0
6781,F#5,629.5,729/1000,124,148.0
6782,C2,629.5,0.125,124,148.0
6783,A3,629.5,0.5,70,148.0
6784,D3,629.5,0.5,70,148.0
6785,E5,629.5,0.5,116,148.0
6786,E4,629.5,0.5,116,148.0
6787,D4,630.0,1.0,93,148.0
6788,A3,630.0,0.5,94,148.0
6789,D3,630.0,0.5,94,148.0
6790,B-2,630.0,0.125,109,148.0
6791,E2,630.0,0.125,109,148.0
6792,E-5,630.0,0.5,114,148.0
6793,E-4,630.0,0.5,114,148.0
6794,A3,630.177,1.5,115,148.0
6795,D4,630.177,1.0,110,148.0
6796,F#3,630.177,1.0,110,148.0
6797,A3,630.5,0.5,84,148.0
6798,D3,630.5,0.5,84,148.0
6799,E5,630.5,0.5,117,148.0
6800,E4,630.5,0.5,117,148.0
6801,E2,630.75,0.125,124,148.0
6802,B3,631.0,1.0,106,148.0
6803,E2,631.0,0.125,124,148.0
6804,F#3,631.0,0.5,104,148.0
6805,B2,631.0,0.5,104,148.0
6806,E5,631.0,1.0,113,148.0
6807,E4,631.0,1.0,113,148.0
6808,G5,631.062,771/1000,122,148.0
6809,B5,631.062,771/1000,122,148.0
6810,F#3,631.177,0.5,80,148.0
6811,D4,631.177,1.0,79,148.0
6812,E2,631.25,0.125,124,148.0
6813,F2,631.5,0.125,117,148.0
6814,F#3,631.5,0.5,59,148.0
6815,B2,631.5,0.5,59,148.0
6816,F#3,631.677,0.5,76,148.0
6817,A3,631.677,0.5,76,148.0
6818,F2,631.75,0.125,117,148.0
6819,B3,632.0,1.0,82,148.0
6820,F#3,632.0,0.5,74,148.0
6821,B2,632.0,0.5,74,148.0
6822,C#3,632.0,0.125,109,148.0
6823,C2,632.0,0.125,109,148.0
6824,G5,632.0,0.141,124,148.0
6825,G4,632.0,0.141,124,148.0
6826,G5,632.016,276/125,116,148.0
6827,B5,632.016,276/125,116,148.0
6828,A3,632.177,1.5,112,148.0
6829,E-4,632.177,1.0,102,148.0
6830,F#3,632.177,1.0,102,148.0
6831,C2,632.5,0.125,124,148.0
6832,F#3,632.5,0.5,62,148.0
6833,B2,632.5,0.5,62,148.0
6834,G5,632.5,0.141,117,148.0
6835,G4,632.5,0.141,117,148.0
6836,B3,633.0,1.0,101,148.0
6837,F#3,633.0,0.5,105,148.0
6838,B2,633.0,0.5,105,148.0
6839,B-2,633.0,0.125,109,148.0
6840,C2,633.0,0.125,109,148.0
6841,E5,633.0,0.141,118,148.0
6842,E4,633.0,0.141,118,148.0
6843,E-4,633.177,1.0,80,148.0
6844,F#3,633.177,1.0,80,148.0
6845,F#3,633.5,1.0,50,148.0
6846,B2,633.5,0.5,45,148.0
6847,E5,633.5,0.141,117,148.0
6848,E4,633.5,0.141,117,148.0
6849,B3,634.0,1.0,78,148.0
6850,B2,634.0,0.5,83,148.0
6851,B-2,634.0,0.125,109,148.0
6852,E2,634.0,0.125,109,148.0
6853,A3,634.177,1.5,113,148.0
6854,E-4,634.177,1.0,119,148.0
6855,F#3,634.177,1.0,119,148.0
6856,E5,634.464,411/1000,112,148.0
6857,G5,634.464,411/1000,112,148.0
6858,F#3,634.5,0.5,50,148.0
6859,B2,634.5,0.5,50,148.0
6860,B3,635.0,1.0,97,148.0
6861,B-2,635.0,0.125,94,148.0
6862,F#3,635.0,0.5,97,148.0
6863,B2,635.0,0.5,97,148.0
6864,G4,635.0,0.141,122,148.0
6865,G5,635.0,0.141,122,148.0
6866,E5,635.01,73/250,115,148.0
6867,G5,635.01,73/250,115,148.0
6868,E-4,635.177,0.5,63,148.0
6869,F#3,635.177,0.5,63,148.0
6870,E5,635.458,49/100,106,148.0
6871,G5,635.458,49/100,106,148.0
6872,F#3,635.5,1.0,48,148.0
6873,B2,635.5,0.5,48,148.0
6874,C2,635.5,0.125,124,148.0
6875,G4,635.5,0.141,115,148.0
6876,G5,635.5,0.141,115,148.0
6877,A3,635.677,0.5,115,148.0
6878,E-4,635.677,0.5,104,148.0
6879,F#3,635.677,0.5,104,148.0
6880,A5,635.943,57/1000,113,148.0
6881,C6,635.943,57/1000,113,148.0
6882,A5,636.0,49/100,113,148.0
6883,C6,636.0,49/100,113,148.0
6884,B3,636.0,1.0,68,148.0
6885,B2,636.0,0.5,70,148.0
6886,B-2,636.0,0.125,94,148.0
6887,E4,636.0,0.141,118,148.0
6888,E5,636.0,0.141,118,148.0
6889,F#3,636.177,0.5,56,148.0
6890,A3,636.177,0.5,115,148.0
6891,E2,636.5,0.125,124,148.0
6892,F#3,636.5,0.5,56,148.0
6893,B2,636.5,0.5,56,148.0
6894,E4,636.5,0.141,118,148.0
6895,E5,636.5,0.141,118,148.0
6896,G5,636.505,1167/1000,115,148.0
6897,B5,636.505,1167/1000,115,148.0
6898,A3,636.677,1.5,93,148.0
6899,E-4,636.677,0.5,110,148.0
6900,F#3,636.677,0.5,110,148.0
6901,B3,637.0,1.0,94,148.0
6902,B-2,637.0,0.125,94,148.0
6903,F#3,637.0,0.5,96,148.0
6904,B2,637.0,0.5,96,148.0
6905,E-4,637.177,1.0,81,148.0
6906,F#3,637.177,1.0,81,148.0
6907,F#3,637.5,1.0,53,148.0
6908,B2,637.5,0.5,54,148.0
6909,C2,637.5,0.125,124,148.0
6910,F#5,637.589,1021/1000,119,148.0
6911,A5,637.589,1021/1000,119,148.0
6912,B3,638.0,1.0,79,148.0
6913,B2,638.0,0.5,84,148.0
6914,B-2,638.0,0.125,109,148.0
6915,E2,638.0,0.125,109,148.0
6916,G5,638.0,0.141,124,148.0
6917,G4,638.0,0.141,124,148.0
6918,A3,638.177,1.5,113,148.0
6919,E-4,638.177,1.0,112,148.0
6920,F#3,638.177,1.0,112,148.0
6921,C2,638.5,0.125,124,148.0
6922,F#3,638.5,0.5,54,148.0
6923,B2,638.5,0.5,54,148.0
6924,G5,638.5,0.141,124,148.0
6925,G4,638.5,0.141,124,148.0
6926,G5,638.516,1193/1000,115,148.0
6927,B5,638.516,1193/1000,115,148.0
6928,B-2,639.0,0.125,94,148.0
6929,B3,639.0,0.5,105,148.0
6930,E4,639.0,0.5,105,148.0
6931,E3,639.0,0.5,105,148.0
6932,A5,639.0,0.141,122,148.0
6933,A4,639.0,0.141,122,148.0
6934,E-4,639.177,0.5,68,148.0
6935,F#3,639.177,0.5,68,148.0
6936,B3,639.5,0.5,74,148.0
6937,E3,639.5,0.5,74,148.0
6938,C5,639.589,411/1000,106,148.0
6939,E5,639.589,411/1000,106,148.0
6940,E-4,639.677,0.5,105,148.0
6941,F#3,639.677,0.5,105,148.0
6942,A3,639.677,0.5,105,148.0
6943,C5,640.0,1.922,106,148.0
6944,E5,640.0,1.922,106,148.0
6945,E4,640.0,1.0,85,148.0
6946,B3,640.0,0.5,82,148.0
6947,E3,640.0,0.5,82,148.0
6948,C#3,640.0,0.125,109,148.0
6949,C2,640.0,0.125,109,148.0
6950,G5,640.0,0.141,123,148.0
6951,G4,640.0,0.141,123,148.0
6952,E4,640.177,1.5,123,148.0
6953,B3,640.177,1.0,116,148.0
6954,E3,640.177,1.0,116,148.0
6955,C2,640.5,0.125,124,148.0
6956,B3,640.5,0.5,71,148.0
6957,E3,640.5,0.5,71,148.0
6958,G5,640.5,0.141,122,148.0
6959,G4,640.5,0.141,122,148.0
6960,E4,641.0,0.5,98,148.0
6961,B3,641.0,0.5,98,148.0
6962,E3,641.0,0.5,98,148.0
6963,B-2,641.0,0.125,109,148.0
6964,C2,641.0,0.125,109,148.0
6965,E5,641.0,0.141,122,148.0
6966,E4,641.0,0.141,122,148.0
6967,B3,641.177,1.0,78,148.0
6968,E3,641.177,1.0,78,148.0
6969,B3,641.5,107/500,104,148.0
6970,E4,641.5,107/500,104,148.0
6971,G4,641.5,107/500,104,148.0
6972,E5,641.5,0.141,122,148.0
6973,E4,641.5,0.141,122,148.0
6974,E4,642.0,107/500,100,148.0
6975,B3,642.0,107/500,100,148.0
6976,G4,642.0,107/500,100,148.0
6977,B-2,642.0,0.125,109,148.0
6978,E2,642.0,0.125,109,148.0
6979,E4,642.177,1.5,124,148.0
6980,B3,642.177,1.0,123,148.0
6981,E3,642.177,1.0,123,148.0
6982,E5,642.469,77/200,111,148.0
6983,G5,642.469,77/200,111,148.0
6984,G4,642.5,107/500,100,148.0
6985,E4,642.5,107/500,100,148.0
6986,B3,642.5,107/500,100,148.0
6987,E5,642.99,323/1000,116,148.0
6988,G5,642.99,323/1000,116,148.0
6989,B-2,643.0,0.125,94,148.0
6990,B3,643.0,0.5,104,148.0
6991,E4,643.0,0.5,104,148.0
6992,E3,643.0,0.5,104,148.0
6993,G5,643.0,0.141,124,148.0
6994,G4,643.0,0.141,124,148.0
6995,B3,643.177,0.5,60,148.0
6996,E3,643.177,0.5,60,148.0
6997,E5,643.438,69/125,113,148.0
6998,G5,643.438,69/125,113,148.0
6999,C2,643.5,0.125,124,148.0
7000,B3,643.5,0.5,75,148.0
7001,E3,643.5,0.5,75,148.0
7002,G5,643.5,0.141,124,148.0
7003,G4,643.5,0.141,124,148.0
7004,E4,643.677,0.5,110,148.0
7005,B3,643.677,0.5,110,148.0
7006,E3,643.677,0.5,110,148.0
7007,G5,644.0,22/25,115,148.0
7008,B5,644.0,22/25,115,148.0
7009,B-2,644.0,0.125,94,148.0
7010,B3,644.0,0.5,84,148.0
7011,E4,644.0,0.5,84,148.0
7012,E3,644.0,0.5,84,148.0
7013,E5,644.0,0.141,120,148.0
7014,E4,644.0,0.141,120,148.0
7015,B3,644.5,1.0,74,148.0
7016,E3,644.5,0.5,70,148.0
7017,E2,644.5,0.125,124,148.0
7018,E5,644.5,0.141,120,148.0
7019,E4,644.5,0.141,120,148.0
7020,E4,644.677,1.0,115,148.0
7021,E3,644.677,0.5,111,148.0
7022,E5,644.922,443/1000,104,148.0
7023,G5,644.922,443/1000,104,148.0
7024,B-2,645.0,0.125,94,148.0
7025,E4,645.0,0.5,90,148.0
7026,E3,645.0,0.5,90,148.0
7027,B3,645.177,1.0,81,148.0
7028,E3,645.177,1.0,81,148.0
7029,B5,645.417,0.922,113,148.0
7030,D6,645.417,0.922,113,148.0
7031,C2,645.5,0.125,124,148.0
7032,B3,645.5,0.5,66,148.0
7033,E3,645.5,0.5,66,148.0
7034,B3,646.0,0.5,82,148.0
7035,E4,646.0,0.5,82,148.0
7036,E3,646.0,0.5,82,148.0
7037,B-2,646.0,0.125,109,148.0
7038,E2,646.0,0.125,109,148.0
7039,G5,646.0,0.141,123,148.0
7040,G4,646.0,0.141,123,148.0
7041,E4,646.177,1.5,120,148.0
7042,B3,646.177,1.0,122,148.0
7043,E3,646.177,1.0,122,148.0
7044,A5,646.453,0.453,113,148.0
7045,C6,646.453,0.453,113,148.0
7046,C2,646.5,0.125,124,148.0
7047,B3,646.5,0.5,67,148.0
7048,E3,646.5,0.5,67,148.0
7049,G5,646.5,0.141,120,148.0
7050,G4,646.5,0.141,120,148.0
7051,E3,647.0,0.5,92,148.0
7052,B-2,647.0,0.125,94,148.0
7053,E4,647.0,1.0,108,148.0
7054,G3,647.0,1.0,108,148.0
7055,A5,647.0,0.141,124,148.0
7056,A4,647.0,0.141,124,148.0
7057,A5,647.01,99/100,122,148.0
7058,C6,647.01,99/100,122,148.0
7059,B3,647.177,0.5,74,148.0
7060,E3,647.177,0.5,74,148.0
7061,C4,647.5,1/200,63,148.0
7062,E4,647.677,0.5,113,148.0
7063,E3,647.677,0.5,104,148.0
7064,B3,647.677,0.5,104,148.0
7065,A5,648.0,2073/1000,122,148.0
7066,C6,648.0,2073/1000,122,148.0
7067,G3,648.0,1.0,101,148.0
7068,E4,648.0,0.5,88,148.0
7069,E3,648.0,0.5,88,148.0
7070,C#3,648.0,0.125,109,148.0
7071,C2,648.0,0.125,109,148.0
7072,G5,648.0,0.141,123,148.0
7073,G4,648.0,0.141,123,148.0
7074,E4,648.177,1.5,113,148.0
7075,G3,648.177,1.0,96,148.0
7076,E3,648.177,1.0,96,148.0
7077,C4,648.177,1.0,96,148.0
7078,C4,648.5,1/200,76,148.0
7079,C2,648.5,0.125,124,148.0
7080,G5,648.5,0.141,121,148.0
7081,G4,648.5,0.141,121,148.0
7082,E4,649.0,0.5,100,148.0
7083,G3,649.0,0.5,100,148.0
7084,E3,649.0,0.5,100,148.0
7085,B-2,649.0,0.125,109,148.0
7086,C2,649.0,0.125,109,148.0
7087,E5,649.0,0.141,117,148.0
7088,E4,649.0,0.141,117,148.0
7089,E3,649.177,1.0,77,148.0
7090,C4,649.177,1.0,77,148.0
7091,E4,649.5,107/500,106,148.0
7092,C4,649.5,107/500,106,148.0
7093,G4,649.5,107/500,106,148.0
7094,E5,649.5,0.141,113,148.0
7095,E4,649.5,0.141,113,148.0
7096,E4,650.0,107/500,96,148.0
7097,G4,650.0,107/500,96,148.0
7098,C4,650.0,107/500,96,148.0
7099,B-2,650.0,0.125,109,148.0
7100,E2,650.0,0.125,109,148.0
7101,C4,650.177,1.0,113,148.0
7102,E3,650.177,1.0,113,148.0
7103,G3,650.177,1.5,120,148.0
7104,E4,650.177,1.5,120,148.0
7105,E4,650.5,107/500,101,148.0
7106,G4,650.5,107/500,101,148.0
7107,C4,650.5,107/500,101,148.0
7108,A5,650.516,37/100,111,148.0
7109,C6,650.516,37/100,111,148.0
7110,B-2,651.0,0.125,94,148.0
7111,G3,651.0,0.5,103,148.0
7112,E4,651.0,0.5,103,148.0
7113,E3,651.0,0.5,103,148.0
7114,G5,651.0,0.141,119,148.0
7115,G4,651.0,0.141,119,148.0
7116,A5,651.036,0.344,109,148.0
7117,C6,651.036,0.344,109,148.0
7118,E3,651.177,0.5,69,148.0
7119,C4,651.177,0.5,69,148.0
7120,C4,651.5,1/200,63,148.0
7121,G3,651.5,0.5,64,148.0
7122,C2,651.5,0.125,124,148.0
7123,G5,651.5,0.141,113,148.0
7124,G4,651.5,0.141,113,148.0
7125,A5,651.516,0.344,108,148.0
7126,C6,651.516,0.344,108,148.0
7127,G3,651.677,0.5,113,148.0
7128,E4,651.677,0.5,109,148.0
7129,E3,651.677,0.5,109,148.0
7130,C4,651.677,0.5,109,148.0
7131,B-2,652.0,0.125,94,148.0
7132,G3,652.0,0.5,90,148.0
7133,E4,652.0,0.5,90,148.0
7134,E3,652.0,0.5,90,148.0
7135,E5,652.0,0.141,118,148.0
7136,E4,652.0,0.141,118,148.0
7137,A5,652.036,901/1000,110,148.0
7138,C6,652.036,901/1000,110,148.0
7139,E3,652.182,0.5,61,148.0
7140,G3,652.182,0.5,113,148.0
7141,E4,652.182,1/200,109,148.0
7142,E3,652.182,1/200,109,148.0
7143,C4,652.182,1/200,109,148.0
7144,C4,652.5,1/200,67,148.0
7145,G3,652.5,0.5,64,148.0
7146,E2,652.5,0.125,124,148.0
7147,E5,652.5,0.141,116,148.0
7148,E4,652.5,0.141,116,148.0
7149,G3,652.682,1.0,106,148.0
7150,E4,652.682,1.0,106,148.0
7151,C4,652.682,0.5,112,148.0
7152,E3,652.682,0.5,112,148.0
7153,G5,652.927,0.578,110,148.0
7154,B5,652.927,0.578,110,148.0
7155,B-2,653.0,0.125,94,148.0
7156,G3,653.0,0.5,94,148.0
7157,E4,653.0,0.5,94,148.0
7158,E3,653.0,0.5,94,148.0
7159,E3,653.182,1.0,78,148.0
7160,C4,653.182,1.0,78,148.0
7161,C4,653.5,1/200,64,148.0
7162,G3,653.5,0.5,62,148.0
7163,C2,653.5,0.125,124,148.0
7164,F#5,653.521,301/200,119,148.0
7165,A5,653.521,301/200,119,148.0
7166,G3,654.0,0.5,85,148.0
7167,E4,654.0,0.5,85,148.0
7168,E3,654.0,0.5,85,148.0
7169,B-2,654.0,0.125,109,148.0
7170,E2,654.0,0.125,109,148.0
7171,G5,654.0,0.141,124,148.0
7172,G4,654.0,0.141,124,148.0
7173,G3,654.182,1.5,118,148.0
7174,E4,654.182,1.5,118,148.0
7175,C4,654.182,1.0,112,148.0
7176,E3,654.182,1.0,112,148.0
7177,C4,654.5,1/200,64,148.0
7178,G3,654.5,0.5,67,148.0
7179,C2,654.5,0.125,124,148.0
7180,G5,654.5,0.141,116,148.0
7181,G4,654.5,0.141,116,148.0
7182,E5,654.979,0.578,117,148.0
7183,G5,654.979,0.578,117,148.0
7184,B-2,655.0,0.125,94,148.0
7185,A3,655.0,0.5,102,148.0
7186,D4,655.0,0.5,102,148.0
7187,D3,655.0,0.5,102,148.0
7188,A5,655.0,0.141,124,148.0
7189,A4,655.0,0.141,124,148.0
7190,E3,655.182,1.0,79,148.0
7191,C4,655.182,0.5,70,148.0
7192,A3,655.5,0.5,69,148.0
7193,D3,655.5,0.5,69,148.0
7194,E-5,655.51,49/100,118,148.0
7195,F#5,655.51,49/100,118,148.0
7196,G3,655.682,0.5,92,148.0
7197,E4,655.682,0.5,92,148.0
7198,C4,655.682,0.5,92,148.0
7199,E-5,656.0,583/1000,118,148.0
7200,F#5,656.0,583/1000,118,148.0
7201,A3,656.0,0.5,96,148.0
7202,D4,656.0,0.5,96,148.0
7203,D3,656.0,0.5,96,148.0
7204,C#3,656.0,0.125,109,148.0
7205,C2,656.0,0.125,109,148.0
7206,B4,656.0,1.0,115,148.0
7207,B5,656.0,1.0,115,148.0
7208,A3,656.182,1.5,111,148.0
7209,D4,656.182,1.0,112,148.0
7210,F#3,656.182,1.0,112,148.0
7211,C2,656.5,0.125,124,148.0
7212,D3,656.5,0.5,82,148.0
7213,A3,656.5,0.5,82,148.0
7214,C5,656.922,677/1000,111,148.0
7215,E5,656.922,677/1000,111,148.0
7216,A3,657.0,0.5,100,148.0
7217,D4,657.0,0.5,100,148.0
7218,D3,657.0,0.5,100,148.0
7219,B-2,657.0,0.125,109,148.0
7220,C2,657.0,0.125,109,148.0
7221,A4,657.0,0.5,107,148.0
7222,A5,657.0,0.5,107,148.0
7223,D4,657.182,1.0,78,148.0
7224,F#3,657.182,1.0,78,148.0
7225,F#4,657.5,107/500,101,148.0
7226,A4,657.5,107/500,101,148.0
7227,D4,657.5,107/500,101,148.0
7228,G4,657.5,1.0,117,148.0
7229,G5,657.5,1.0,117,148.0
7230,B4,657.516,2.484,112,148.0
7231,E-5,657.516,2.484,112,148.0
7232,F#4,658.0,107/500,91,148.0
7233,A4,658.0,107/500,91,148.0
7234,D4,658.0,107/500,91,148.0
7235,B-2,658.0,0.125,109,148.0
7236,E2,658.0,0.125,109,148.0
7237,D4,658.182,1.0,119,148.0
7238,A3,658.182,1.0,119,148.0
7239,F#3,658.182,1.0,119,148.0
7240,F#4,658.5,107/500,98,148.0
7241,A4,658.5,107/500,98,148.0
7242,D4,658.5,107/500,98,148.0
7243,F#4,658.5,0.5,107,148.0
7244,F#5,658.5,0.5,107,148.0
7245,A3,659.0,0.5,103,148.0
7246,D4,659.0,0.5,103,148.0
7247,D3,659.0,0.5,103,148.0
7248,C2,659.0,0.125,109,148.0
7249,B-2,659.0,0.125,109,148.0
7250,A4,659.0,1.0,121,148.0
7251,A5,659.0,1.0,121,148.0
7252,F#3,659.182,0.5,76,148.0
7253,D4,659.182,0.5,76,148.0
7254,C2,659.5,0.125,124,148.0
7255,A3,659.5,0.5,72,148.0
7256,D3,659.5,0.5,72,148.0
7257,F#3,659.682,0.5,108,148.0
7258,D4,659.682,0.5,108,148.0
7259,A3,659.682,0.5,108,148.0
7260,B4,660.0,153/125,112,148.0
7261,E-5,660.0,153/125,112,148.0
7262,B-2,660.0,0.125,94,148.0
7263,A3,660.0,0.5,90,148.0
7264,D4,660.0,0.5,90,148.0
7265,D3,660.0,0.5,90,148.0
7266,G4,660.0,0.5,111,148.0
7267,G5,660.0,0.5,111,148.0
7268,F#3,660.182,0.5,64,148.0
7269,E2,660.5,0.125,124,148.0
7270,D3,660.5,0.5,71,148.0
7271,A3,660.5,0.5,71,148.0
7272,F#4,660.5,1.0,116,148.0
7273,F#5,660.5,1.0,116,148.0
7274,A3,660.682,1.0,108,148.0
7275,D4,660.682,0.5,112,148.0
7276,F#3,660.682,0.5,112,148.0
7277,A3,661.0,0.5,94,148.0
7278,D4,661.0,0.5,94,148.0
7279,D3,661.0,0.5,94,148.0
7280,C2,661.0,0.125,109,148.0
7281,B-2,661.0,0.125,109,148.0
7282,F#3,661.182,1.0,79,148.0
7283,D4,661.182,1.0,79,148.0
7284,C2,661.5,0.125,124,148.0
7285,A3,661.5,0.5,70,148.0
7286,D3,661.5,0.5,70,148.0
7287,E5,661.5,0.5,116,148.0
7288,E4,661.5,0.5,116,148.0
7289,D4,662.0,1.0,93,148.0
7290,A3,662.0,0.5,94,148.0
7291,D3,662.0,0.5,94,148.0
7292,B-2,662.0,0.125,109,148.0
7293,E2,662.0,0.125,109,148.0
7294,E-5,662.0,0.5,114,148.0
7295,E-4,662.0,0.5,114,148.0
7296,A3,662.182,1.5,115,148.0
7297,D4,662.182,1.0,110,148.0
7298,F#3,662.182,1.0,110,148.0
7299,A3,662.5,0.5,84,148.0
7300,D3,662.5,0.5,84,148.0
7301,E5,662.5,0.5,117,148.0
7302,E4,662.5,0.5,117,148.0
7303,E2,662.75,0.125,124,148.0
7304,B3,663.0,1.0,106,148.0
7305,E2,663.0,0.125,124,148.0
7306,F#3,663.0,0.5,104,148.0
7307,B2,663.0,0.5,104,148.0
7308,E5,663.0,1.0,113,148.0
7309,E4,663.0,1.0,113,148.0
7310,F#3,663.182,0.5,80,148.0
7311,D4,663.182,1.0,79,148.0
7312,E2,663.25,0.125,124,148.0
7313,F2,663.5,0.25,117,148.0
7314,F#3,663.5,0.5,59,148.0
7315,B2,663.5,0.5,59,148.0
7316,F#3,663.682,0.5,76,148.0
7317,A3,663.682,0.5,76,148.0
7318,F2,663.75,0.25,117,148.0
7319,B3,664.0,1.0,82,148.0
7320,F#3,664.0,0.5,74,148.0
7321,B2,664.0,0.5,74,148.0
7322,C2,664.0,0.25,109,148.0
7323,C#3,664.0,0.25,109,148.0
7324,A3,664.182,1.5,112,148.0
7325,E-4,664.182,1.0,102,148.0
7326,F#3,664.182,1.0,102,148.0
7327,F#3,664.5,0.5,62,148.0
7328,B2,664.5,0.5,62,148.0
7329,B3,665.0,1.0,101,148.0
7330,F#3,665.0,0.5,105,148.0
7331,B2,665.0,0.5,105,148.0
7332,E-4,665.182,1.0,80,148.0
7333,F#3,665.182,1.0,80,148.0
7334,F#3,665.5,1.0,50,148.0
7335,B2,665.5,0.5,45,148.0
7336,B3,666.0,1.0,78,148.0
7337,B2,666.0,0.5,83,148.0
7338,A3,666.182,1.5,113,148.0
7339,E-4,666.182,1.0,119,148.0
7340,F#3,666.182,1.0,119,148.0
7341,F#3,666.5,0.5,50,148.0
7342,B2,666.5,0.5,50,148.0
7343,B3,667.0,1.0,97,148.0
7344,F#3,667.0,0.5,97,148.0
7345,B2,667.0,0.5,97,148.0
7346,E-4,667.182,0.5,63,148.0
7347,F#3,667.182,0.5,63,148.0
7348,F#3,667.5,1.0,48,148.0
7349,B2,667.5,0.5,48,148.0
7350,A3,667.682,0.5,115,148.0
7351,E-4,667.682,0.5,104,148.0
7352,F#3,667.682,0.5,104,148.0
7353,B3,668.0,1.0,68,148.0
7354,B2,668.0,0.5,70,148.0
7355,F#3,668.182,0.5,56,148.0
7356,A3,668.182,0.5,115,148.0
7357,F#3,668.5,0.5,56,148.0
7358,B2,668.5,0.5,56,148.0
7359,A3,668.682,1.5,93,148.0
7360,E-4,668.682,0.5,110,148.0
7361,F#3,668.682,0.5,110,148.0
7362,B3,669.0,1.0,94,148.0
7363,F#3,669.0,0.5,96,148.0
7364,B2,669.0,0.5,96,148.0
7365,E-4,669.182,1.0,81,148.0
7366,F#3,669.182,1.0,81,148.0
7367,F#3,669.5,1.0,53,148.0
7368,B2,669.5,0.5,54,148.0
7369,B3,670.0,1.0,79,148.0
7370,B2,670.0,0.5,84,148.0
7371,A3,670.182,1.5,113,148.0
7372,E-4,670.182,1.0,112,148.0
7373,F#3,670.182,1.0,112,148.0
7374,F#3,670.5,0.5,54,148.0
7375,B2,670.5,0.5,54,148.0
7376,E3,671.062,3.938,101,148.0
7377,B3,671.062,3.938,101,148.0
7378,E4,671.062,3.938,101,148.0
7379,E-4,671.182,0.5,68,148.0
7380,F#3,671.182,0.5,68,148.0
7381,E-4,671.682,0.5,105,148.0
7382,F#3,671.682,0.5,105,148.0
7383,A3,671.682,0.5,105,148.0
7384,E5,672.062,4.0,113,148.0
7385,E4,672.062,4.0,113,148.0
7386,G4,672.198,3.984,121,148.0
7387,B3,672.198,3.984,121,148.0
7388,E3,672.198,3.984,121,148.0
7389,E3,675.0,4.0,101,148.0
7390,B3,675.0,4.0,101,148.0
7391,E4,675.0,4.0,101,148.0
7392,G4,676.182,4.0,121,148.0
7393,B3,676.182,4.0,121,148.0
7394,E3,676.182,4.0,121,148.0
7395,E3,679.156,0.156,101,148.0
7396,B3,679.156,0.156,101,148.0
7397,E4,679.156,0.156,101,148.0
7398,E5,680.125,4.0,113,148.0
7399,E4,680.125,4.0,113,148.0
7400,G4,680.281,99/1000,121,148.0
7401,B3,680.281,99/1000,121,148.0
7402,E3,680.281,99/1000,121,148.0
7403,E5,684.188,0.062,113,148.0
7404,E4,684.188,0.062,113,148.0
