,note_name,start_time,duration,velocity,tempo
0,E3,0.0,3.0,98,145.01
1,C#2,0.0,0.25,104,145.01
2,B3,0.0,4.0,98,145.01
3,G#3,0.0,4.0,98,145.01
4,C#2,2.0,0.25,103,145.01
5,C#2,4.0,0.25,103,145.01
6,C#2,5.0,0.25,103,145.01
7,C#2,6.0,0.25,103,145.01
8,C#2,7.0,0.25,103,145.01
9,B4,7.583,417/1000,123,145.01
10,E3,8.0,1.5,92,145.01
11,B4,8.0,17/250,123,145.01
12,G#5,8.172,729/1000,113,145.01
13,F#3,8.5,0.5,102,145.01
14,F#5,8.839,661/1000,111,145.01
15,B3,9.0,1.0,102,145.01
16,E5,9.443,323/500,111,145.01
17,F#3,9.5,0.5,112,145.01
18,E-3,10.0,1.5,102,145.01
19,E-5,10.104,323/500,113,145.01
20,F#3,10.5,1.0,92,145.01
21,E5,10.688,667/1000,111,145.01
22,B3,11.0,1.0,92,145.01
23,F#5,11.359,0.641,123,145.01
24,F#3,11.5,0.5,112,145.01
25,C#3,12.0,2.5,102,145.01
26,F#5,12.0,0.125,123,145.01
27,G#5,12.099,181/250,111,145.01
28,E3,12.5,3.5,92,145.01
29,C#5,12.938,173/200,111,145.01
30,G#3,13.0,0.5,102,145.01
31,C#4,13.5,2.5,102,145.01
32,B4,13.792,589/1000,100,145.01
33,C#5,14.365,63/50,123,145.01
34,G#3,14.5,1.5,112,145.01
35,B4,15.396,151/250,100,145.01
36,C#3,15.5,0.5,92,145.01
37,E3,16.0,1.5,92,145.01
38,B4,16.0,21/1000,100,145.01
39,G#5,16.01,729/1000,123,145.01
40,F#3,16.5,0.5,102,145.01
41,F#5,16.656,0.656,113,145.01
42,B3,17.0,1.0,102,145.01
43,E5,17.302,357/500,111,145.01
44,F#3,17.5,0.5,112,145.01
45,E-5,17.948,409/500,113,145.01
46,E-3,18.0,1.5,102,145.01
47,F#3,18.5,1.0,92,145.01
48,E5,18.729,771/1000,113,145.01
49,B3,19.0,1.0,92,145.01
50,F#5,19.427,573/1000,113,145.01
51,F#3,19.5,0.5,112,145.01
52,C#3,20.0,2.5,102,145.01
53,F#5,20.0,0.156,113,145.01
54,G#5,20.167,1599/1000,113,145.01
55,E3,20.5,3.5,92,145.01
56,G#3,21.0,0.5,102,145.01
57,C#4,21.5,2.5,102,145.01
58,G#3,22.5,1.5,112,145.01
59,B4,23.354,573/1000,123,145.01
60,C#3,23.5,0.5,92,145.01
61,G#5,23.948,13/250,113,145.01
62,E3,24.0,1.5,92,145.01
63,G#5,24.0,661/1000,113,145.01
64,F#3,24.5,0.5,102,145.01
65,F#5,24.583,0.609,111,145.01
66,B3,25.0,1.0,102,145.01
67,E5,25.177,112/125,100,145.01
68,F#3,25.5,0.5,112,145.01
69,E-5,25.969,409/500,113,145.01
70,E-3,26.0,1.5,102,145.01
71,F#3,26.5,1.0,92,145.01
72,E5,26.693,151/200,100,145.01
73,B3,27.0,1.0,92,145.01
74,F#5,27.349,651/1000,123,145.01
75,F#3,27.5,0.5,112,145.01
76,C#3,28.0,2.5,102,145.01
77,F#5,28.0,0.156,123,145.01
78,G#5,28.141,87/100,113,145.01
79,E3,28.5,3.5,92,145.01
80,C#5,28.99,0.797,113,145.01
81,G#3,29.0,0.5,102,145.01
82,C#4,29.5,2.5,102,145.01
83,B4,29.755,0.688,113,145.01
84,C#5,30.432,1.078,127,145.01
85,G#3,30.5,1.5,112,145.01
86,B4,31.385,123/200,123,145.01
87,E2,31.5,0.5,122,145.01
88,F#5,31.932,17/250,123,145.01
89,F#2,32.0,1.25,102,145.01
90,B4,32.0,13/500,123,145.01
91,F#5,32.0,0.641,123,145.01
92,C#3,32.5,3.5,112,145.01
93,F#3,32.75,1.75,102,145.01
94,F#5,32.771,323/500,123,145.01
95,A3,33.0,0.75,112,145.01
96,C#4,33.5,2.5,122,145.01
97,F#5,33.62,411/1000,113,145.01
98,F#5,34.151,99/200,113,145.01
99,A3,34.5,1.0,102,145.01
100,E-5,34.771,37/50,123,145.01
101,E5,35.422,0.578,113,145.01
102,A3,35.5,0.5,119,145.01
103,B2,36.0,4.0,122,145.01
104,E5,36.0,91/500,113,145.01
105,F#5,36.109,2021/1000,123,145.01
106,E-3,36.5,0.75,102,145.01
107,F#3,36.75,1.0,102,145.01
108,B3,37.0,1.0,92,145.01
109,E-3,37.5,2.5,112,145.01
110,E4,38.0,1.75,122,145.01
111,B4,39.583,417/1000,123,145.01
112,E3,40.0,1.5,92,145.01
113,E3,40.0,2.0,103,145.01
114,B4,40.0,17/250,123,145.01
115,C2,40.0,0.5,106,145.01
116,B-2,40.0,0.5,106,145.01
117,G#5,40.172,729/1000,113,145.01
118,F#3,40.5,0.5,102,145.01
119,F#5,40.839,661/1000,111,145.01
120,B3,41.0,1.0,102,145.01
121,F#2,41.0,0.5,89,145.01
122,E5,41.443,323/500,111,145.01
123,F#3,41.5,0.5,112,145.01
124,C2,41.5,0.5,123,145.01
125,E-3,42.0,1.5,102,145.01
126,B2,42.0,2.0,93,145.01
127,B-2,42.0,0.5,106,145.01
128,C2,42.0,0.5,106,145.01
129,E-5,42.104,323/500,113,145.01
130,F#3,42.5,1.0,92,145.01
131,E5,42.688,667/1000,111,145.01
132,B3,43.0,1.0,92,145.01
133,F#2,43.0,0.5,89,145.01
134,F#5,43.359,0.641,123,145.01
135,F#3,43.5,0.5,112,145.01
136,C2,43.5,0.5,123,145.01
137,C#3,44.0,2.5,102,145.01
138,C#3,44.0,3.5,103,145.01
139,F#5,44.0,0.125,123,145.01
140,C2,44.0,0.5,106,145.01
141,B-2,44.0,0.5,106,145.01
142,G#5,44.099,181/250,111,145.01
143,E3,44.5,3.5,92,145.01
144,C#5,44.938,173/200,111,145.01
145,G#3,45.0,0.5,102,145.01
146,F#2,45.0,0.5,89,145.01
147,C#4,45.5,2.5,102,145.01
148,B4,45.792,589/1000,100,145.01
149,F#2,46.0,0.5,89,145.01
150,C#5,46.365,63/50,123,145.01
151,G#3,46.5,1.5,112,145.01
152,F#2,47.0,0.5,89,145.01
153,B4,47.396,151/250,100,145.01
154,C#3,47.5,0.5,92,145.01
155,C#3,47.5,0.5,93,145.01
156,C2,47.5,0.5,123,145.01
157,E3,48.0,1.5,92,145.01
158,E3,48.0,2.0,103,145.01
159,B4,48.0,21/1000,100,145.01
160,C2,48.0,0.5,106,145.01
161,B-2,48.0,0.5,106,145.01
162,G#5,48.01,729/1000,123,145.01
163,F#3,48.5,0.5,102,145.01
164,F#5,48.656,0.656,113,145.01
165,B3,49.0,1.0,102,145.01
166,F#2,49.0,0.5,89,145.01
167,E5,49.302,357/500,111,145.01
168,F#3,49.5,0.5,112,145.01
169,C2,49.5,0.5,123,145.01
170,E-5,49.948,409/500,113,145.01
171,E-3,50.0,1.5,102,145.01
172,B2,50.0,2.0,93,145.01
173,B-2,50.0,0.5,106,145.01
174,C2,50.0,0.5,106,145.01
175,F#3,50.5,1.0,92,145.01
176,E5,50.729,771/1000,113,145.01
177,B3,51.0,1.0,92,145.01
178,F#2,51.0,0.5,89,145.01
179,F#5,51.427,573/1000,113,145.01
180,F#3,51.5,0.5,112,145.01
181,C2,51.5,0.5,123,145.01
182,C#3,52.0,2.5,102,145.01
183,C#3,52.0,3.0,103,145.01
184,F#5,52.0,0.156,113,145.01
185,B-2,52.0,0.5,89,145.01
186,C2,52.0,0.25,123,145.01
187,G#5,52.167,1599/1000,113,145.01
188,E3,52.5,3.5,92,145.01
189,G#3,53.0,0.5,102,145.01
190,F#2,53.0,0.5,89,145.01
191,C#4,53.5,2.5,102,145.01
192,F#2,54.0,0.5,89,145.01
193,G#3,54.5,1.5,112,145.01
194,F#2,55.0,0.5,89,145.01
195,C#5,55.365,599/1000,111,145.01
196,C#3,55.5,0.5,92,145.01
197,C#3,55.5,0.5,103,145.01
198,F#2,55.5,0.5,89,145.01
199,A5,55.969,0.031,113,145.01
200,F#2,56.0,4.0,102,145.01
201,F#2,56.0,4.0,103,145.01
202,A5,56.0,37/50,113,145.01
203,C2,56.0,0.25,123,145.01
204,B-2,56.0,0.5,89,145.01
205,F#3,56.5,3.0,112,145.01
206,G#5,56.656,97/125,111,145.01
207,A3,57.0,2.0,112,145.01
208,E2,57.0,0.5,123,145.01
209,F#2,57.0,0.25,89,145.01
210,F#5,57.312,0.75,100,145.01
211,E4,57.5,2.5,112,145.01
212,E5,57.995,557/1000,113,145.01
213,F#2,58.0,0.5,89,145.01
214,C#4,58.5,1.5,112,145.01
215,C#5,58.802,0.703,111,145.01
216,E2,59.0,0.5,106,145.01
217,F#2,59.0,0.5,106,145.01
218,E5,59.469,0.531,113,145.01
219,A3,59.5,0.5,112,145.01
220,F#2,60.0,4.0,102,145.01
221,A3,60.0,0.5,112,145.01
222,E4,60.0,0.5,112,145.01
223,C#4,60.0,0.5,112,145.01
224,F#2,60.0,3.0,103,145.01
225,E5,60.0,21/500,113,145.01
226,F#2,60.0,0.5,89,145.01
227,A5,60.068,0.641,123,145.01
228,F#3,60.5,3.5,112,145.01
229,G#5,60.698,661/1000,113,145.01
230,A3,61.0,2.5,102,145.01
231,E2,61.0,0.25,123,145.01
232,F#2,61.0,0.5,89,145.01
233,F#5,61.323,573/1000,111,145.01
234,E4,61.5,2.5,112,145.01
235,F#2,61.5,0.25,89,145.01
236,E5,61.948,19/25,113,145.01
237,F#2,62.0,0.5,89,145.01
238,C#4,62.5,1.5,102,145.01
239,A2,63.0,1.0,103,145.01
240,E2,63.0,0.5,106,145.01
241,F#2,63.0,0.5,106,145.01
242,A3,63.5,0.5,82,145.01
243,E5,63.5,0.5,113,145.01
244,C2,63.5,0.25,123,145.01
245,D3,64.0,3.0,122,145.01
246,D3,64.0,4.0,103,145.01
247,E5,64.0,1/200,113,145.01
248,C2,64.0,0.25,123,145.01
249,B-2,64.0,0.5,89,145.01
250,F5,64.0,1/200,1,145.01
251,A5,64.026,557/1000,113,145.01
252,C#5,64.062,1/200,1,145.01
253,G#4,64.125,1/200,1,145.01
254,C#5,64.188,1/200,1,145.01
255,A2,64.25,1/200,1,145.01
256,G#5,64.312,1/200,1,145.01
257,B-5,64.375,1/200,1,145.01
258,G5,64.438,1/200,1,145.01
259,A3,64.5,3.0,102,145.01
260,B-2,64.5,1/200,1,145.01
261,F#5,64.562,1/200,1,145.01
262,A4,64.625,1/200,1,145.01
263,C6,64.688,1/200,1,145.01
264,A5,64.729,417/1000,111,145.01
265,D4,65.0,0.5,112,145.01
266,E2,65.0,0.5,106,145.01
267,F#2,65.0,0.5,106,145.01
268,A5,65.354,99/250,111,145.01
269,E4,65.5,2.0,102,145.01
270,F#2,65.5,0.25,89,145.01
271,F#2,66.0,0.5,89,145.01
272,A5,66.005,599/1000,113,145.01
273,D4,66.5,1.0,112,145.01
274,F#2,66.5,0.25,89,145.01
275,G#5,66.635,0.688,111,145.01
276,B-2,67.0,0.5,106,145.01
277,E2,67.0,0.5,106,145.01
278,E5,67.281,357/500,111,145.01
279,D3,67.5,0.5,102,145.01
280,F#5,67.995,1/200,113,145.01
281,B2,68.0,3.5,112,145.01
282,B2,68.0,3.0,113,145.01
283,F#5,68.0,3599/1000,113,145.01
284,F#2,68.0,0.5,89,145.01
285,E-4,68.5,1.5,112,145.01
286,F#2,68.5,0.25,89,145.01
287,E2,69.0,0.5,106,145.01
288,F#2,69.0,0.5,106,145.01
289,F#3,69.5,2.0,112,145.01
290,F#2,69.5,0.5,89,145.01
291,E4,70.0,2.0,122,145.01
292,F#2,70.0,0.5,89,145.01
293,B-2,70.5,0.5,89,145.01
294,F#2,71.0,0.5,89,145.01
295,E3,72.0,1.5,122,145.01
296,E2,72.0,1.5,113,145.01
297,E2,72.0,1.0,113,145.01
298,B2,72.0,0.5,123,145.01
299,E3,72.0,0.5,123,145.01
300,E4,72.0,1.5,107,145.01
301,G#4,72.0,1.5,107,145.01
302,C2,72.0,0.5,118,145.01
303,C#3,72.0,0.5,118,145.01
304,G#5,72.031,69/50,123,145.01
305,B5,72.031,69/50,123,145.01
306,B2,73.0,1.5,82,145.01
307,F#2,73.0,0.5,106,145.01
308,E2,73.0,0.5,106,145.01
309,F#5,73.458,1323/1000,123,145.01
310,A5,73.458,1323/1000,123,145.01
311,E-3,73.5,1.5,122,145.01
312,B1,73.5,1.5,113,145.01
313,E-4,73.5,1.0,104,145.01
314,F#4,73.5,1.5,104,145.01
315,F#2,73.5,0.5,118,145.01
316,B2,73.5,0.5,118,145.01
317,F#2,73.5,0.5,106,145.01
318,C2,73.5,0.5,106,145.01
319,F#2,74.0,0.5,89,145.01
320,B2,74.5,0.5,82,145.01
321,C#3,74.5,0.5,55,145.01
322,F#2,74.5,0.5,106,145.01
323,C2,74.5,0.5,106,145.01
324,E5,74.875,1.125,113,145.01
325,G#5,74.875,1.125,113,145.01
326,C#3,75.0,1.0,112,145.01
327,C#2,75.0,1.0,122,145.01
328,G#2,75.0,1.0,113,145.01
329,C#3,75.0,1.0,113,145.01
330,E4,75.0,1.0,100,145.01
331,G#4,75.0,1.0,100,145.01
332,E2,75.0,0.5,118,145.01
333,C#3,75.0,0.5,118,145.01
334,C#3,76.0,4.0,112,145.01
335,C#2,76.0,0.5,122,145.01
336,G#2,76.0,1.0,113,145.01
337,C#3,76.0,0.5,113,145.01
338,E5,76.0,927/500,113,145.01
339,G#5,76.0,927/500,113,145.01
340,F#2,76.0,0.5,89,145.01
341,E4,76.0,0.5,100,145.01
342,G#4,76.0,0.5,100,145.01
343,G#3,76.5,0.5,112,145.01
344,C#2,76.5,0.5,103,145.01
345,C#3,76.5,0.5,123,145.01
346,C#4,76.5,1.0,107,145.01
347,F#2,76.5,0.5,106,145.01
348,C2,76.5,0.5,106,145.01
349,C#4,77.0,1.0,112,145.01
350,C#2,77.0,0.5,105,145.01
351,G#2,77.0,0.5,70,145.01
352,C#3,77.0,0.5,70,145.01
353,F#2,77.0,0.5,106,145.01
354,E2,77.0,0.5,106,145.01
355,G#3,77.5,2.0,112,145.01
356,C#2,77.5,0.5,113,145.01
357,C#4,77.5,0.5,95,145.01
358,F#2,77.5,0.5,89,145.01
359,G#2,77.5,0.5,108,145.01
360,C#3,77.5,0.5,108,145.01
361,E2,77.75,0.5,123,145.01
362,E4,78.0,2.0,102,145.01
363,C#2,78.0,0.5,103,145.01
364,C#4,78.0,0.5,95,145.01
365,G#2,78.0,0.5,78,145.01
366,C#3,78.0,0.5,78,145.01
367,F#2,78.0,0.5,106,145.01
368,C2,78.0,0.5,106,145.01
369,C#5,78.417,19/50,113,145.01
370,E5,78.417,19/50,113,145.01
371,C#2,78.5,0.5,113,145.01
372,C#4,78.5,0.5,113,145.01
373,G#2,78.5,0.5,103,145.01
374,C#3,78.5,0.5,103,145.01
375,F#2,78.5,0.5,106,145.01
376,C2,78.5,0.5,106,145.01
377,C#5,78.958,0.297,113,145.01
378,E5,78.958,0.297,113,145.01
379,C#4,79.0,1.0,92,145.01
380,C#2,79.0,0.5,113,145.01
381,B3,79.0,0.5,107,145.01
382,G#2,79.0,1.0,85,145.01
383,C#3,79.0,1.0,85,145.01
384,F#2,79.0,0.5,106,145.01
385,E2,79.0,0.5,106,145.01
386,C#5,79.406,54/125,111,145.01
387,E5,79.406,54/125,111,145.01
388,C#2,79.5,0.5,113,145.01
389,G#3,79.5,0.5,113,145.01
390,C2,79.5,0.5,123,145.01
391,G#5,79.958,21/500,123,145.01
392,B5,79.958,21/500,123,145.01
393,G#3,80.0,1.5,122,145.01
394,E2,80.0,1.5,103,145.01
395,G#5,80.0,1229/1000,123,145.01
396,B5,80.0,1229/1000,123,145.01
397,B2,80.0,0.5,120,145.01
398,E2,80.0,0.5,120,145.01
399,E3,80.0,0.5,120,145.01
400,E4,80.0,1.5,113,145.01
401,G#4,80.0,1.5,113,145.01
402,C#3,80.0,0.5,118,145.01
403,C2,80.0,0.5,118,145.01
404,E3,81.0,0.5,92,145.01
405,F#2,81.0,0.5,106,145.01
406,E2,81.0,0.5,106,145.01
407,F#5,81.292,151/100,113,145.01
408,A5,81.292,151/100,113,145.01
409,E-3,81.5,1.5,122,145.01
410,B1,81.5,1.5,113,145.01
411,F#2,81.5,1.0,113,145.01
412,B2,81.5,0.5,123,145.01
413,F#4,81.5,1.5,100,145.01
414,E-4,81.5,1.5,100,145.01
415,C2,81.5,0.5,106,145.01
416,F#2,81.5,0.5,106,145.01
417,F#2,82.0,0.5,89,145.01
418,B2,82.5,0.5,102,145.01
419,F#2,82.5,0.5,106,145.01
420,C2,82.5,0.5,106,145.01
421,E5,82.849,1151/1000,123,145.01
422,G#5,82.849,1151/1000,123,145.01
423,C#3,83.0,1.0,112,145.01
424,C#2,83.0,1.0,113,145.01
425,G#2,83.0,1.0,113,145.01
426,C#3,83.0,1.0,123,145.01
427,C#4,83.0,1.0,113,145.01
428,C#3,83.0,0.5,118,145.01
429,E2,83.0,0.5,118,145.01
430,C#3,84.0,4.0,112,145.01
431,C#2,84.0,0.5,113,145.01
432,G#2,84.0,1.0,113,145.01
433,C#3,84.0,0.5,123,145.01
434,E5,84.0,263/125,123,145.01
435,G#5,84.0,263/125,123,145.01
436,C#4,84.0,0.5,113,145.01
437,F#2,84.0,0.5,89,145.01
438,G#3,84.5,0.5,102,145.01
439,C#2,84.5,0.5,99,145.01
440,C#3,84.5,0.5,103,145.01
441,C#4,84.5,0.5,95,145.01
442,F#2,84.5,0.5,106,145.01
443,C2,84.5,0.5,106,145.01
444,C#4,85.0,1.0,112,145.01
445,C#2,85.0,0.5,113,145.01
446,C#4,85.0,2.0,82,145.01
447,G#2,85.0,0.5,78,145.01
448,C#3,85.0,0.5,78,145.01
449,F#2,85.0,0.5,106,145.01
450,E2,85.0,0.5,106,145.01
451,G#3,85.5,2.0,122,145.01
452,C#2,85.5,0.5,113,145.01
453,F#2,85.5,0.5,89,145.01
454,G#2,85.5,0.5,100,145.01
455,C#3,85.5,0.5,100,145.01
456,E2,85.75,0.5,123,145.01
457,E4,86.0,1.5,112,145.01
458,C#2,86.0,0.5,113,145.01
459,G#4,86.0,2.0,95,145.01
460,G#2,86.0,0.5,75,145.01
461,C#3,86.0,0.5,75,145.01
462,F#2,86.0,0.5,106,145.01
463,C2,86.0,0.5,106,145.01
464,E2,86.25,0.5,123,145.01
465,C#2,86.5,0.5,113,145.01
466,G#2,86.5,0.5,106,145.01
467,C#3,86.5,0.5,106,145.01
468,F#2,86.5,0.5,106,145.01
469,C2,86.5,0.5,106,145.01
470,C#4,87.0,0.5,112,145.01
471,C#2,87.0,0.5,113,145.01
472,G#2,87.0,1.0,88,145.01
473,C#3,87.0,0.5,82,145.01
474,C#4,87.0,1.0,86,145.01
475,F#2,87.0,0.5,106,145.01
476,E2,87.0,0.5,106,145.01
477,C#2,87.5,0.5,113,145.01
478,C#3,87.5,0.5,103,145.01
479,F#2,87.5,0.5,106,145.01
480,C2,87.5,0.5,106,145.01
481,A5,87.984,0.016,123,145.01
482,C#6,87.984,0.016,123,145.01
483,C#3,88.0,3.5,112,145.01
484,F#2,88.0,0.5,113,145.01
485,A5,88.0,479/1000,123,145.01
486,C#6,88.0,479/1000,123,145.01
487,F#4,88.0,0.5,122,145.01
488,F#3,88.0,3.5,113,145.01
489,C#3,88.0,3.5,113,145.01
490,F#2,88.0,3.5,113,145.01
491,C2,88.0,0.5,118,145.01
492,C#3,88.0,0.5,118,145.01
493,F#3,88.5,2.0,102,145.01
494,F#2,88.5,0.5,93,145.01
495,F#4,88.5,0.5,95,145.01
496,E-3,88.5,0.5,112,145.01
497,G#5,88.542,0.734,113,145.01
498,B5,88.542,0.734,113,145.01
499,F#2,89.0,0.5,113,145.01
500,C#4,89.0,0.5,104,145.01
501,E-3,89.0,0.5,118,145.01
502,E2,89.0,0.5,118,145.01
503,F#5,89.385,123/200,113,145.01
504,A5,89.385,123/200,113,145.01
505,C#4,89.5,2.5,122,145.01
506,F#2,89.5,0.5,103,145.01
507,C#4,89.5,0.5,95,145.01
508,E-3,89.5,0.5,112,145.01
509,E2,89.75,0.5,123,145.01
510,F#2,90.0,0.5,113,145.01
511,F#4,90.0,0.5,122,145.01
512,C2,90.0,0.5,118,145.01
513,E-3,90.0,0.5,118,145.01
514,E5,90.068,143/500,123,145.01
515,G#5,90.068,143/500,123,145.01
516,E5,90.469,0.562,113,145.01
517,G#5,90.469,0.562,113,145.01
518,A3,90.5,1.5,102,145.01
519,F#2,90.5,0.5,103,145.01
520,F#4,90.5,0.5,93,145.01
521,E-3,90.5,0.5,118,145.01
522,C2,90.5,0.5,118,145.01
523,F#2,91.0,0.5,112,145.01
524,C#4,91.0,0.5,113,145.01
525,E-3,91.0,0.5,118,145.01
526,E2,91.0,0.5,118,145.01
527,A5,91.469,0.531,123,145.01
528,C#6,91.469,0.531,123,145.01
529,F#3,91.5,0.5,92,145.01
530,F#2,91.5,0.5,103,145.01
531,C#4,91.5,0.5,95,145.01
532,C2,91.5,0.5,118,145.01
533,E-3,91.5,0.5,118,145.01
534,C#3,92.0,3.5,122,145.01
535,A3,92.0,0.5,102,145.01
536,F#2,92.0,0.5,111,145.01
537,A5,92.0,0.406,123,145.01
538,C#6,92.0,0.406,123,145.01
539,F#4,92.0,0.5,113,145.01
540,F#3,92.0,2.0,120,145.01
541,F#2,92.0,2.0,120,145.01
542,C#3,92.0,2.0,120,145.01
543,E-3,92.0,0.5,118,145.01
544,C2,92.0,0.5,118,145.01
545,G#5,92.448,22/25,113,145.01
546,B5,92.448,22/25,113,145.01
547,F#3,92.5,2.0,112,145.01
548,F#2,92.5,0.5,93,145.01
549,F#4,92.5,0.5,100,145.01
550,E-3,92.5,0.5,112,145.01
551,F#2,93.0,0.5,114,145.01
552,C#4,93.0,0.5,113,145.01
553,E-3,93.0,0.5,112,145.01
554,E2,93.0,0.25,123,145.01
555,F#5,93.396,917/1000,111,145.01
556,A5,93.396,917/1000,111,145.01
557,C#4,93.5,2.5,112,145.01
558,F#2,93.5,0.5,103,145.01
559,C#4,93.5,0.5,95,145.01
560,E-3,93.5,0.5,112,145.01
561,E2,93.75,0.25,123,145.01
562,F#2,94.0,0.5,103,145.01
563,F#4,94.0,0.5,122,145.01
564,E-3,94.0,0.5,112,145.01
565,C2,94.0,0.25,123,145.01
566,E2,94.25,0.25,123,145.01
567,E5,94.396,557/1000,113,145.01
568,G#5,94.396,557/1000,113,145.01
569,A3,94.5,1.5,102,145.01
570,F#2,94.5,0.5,113,145.01
571,F#4,94.5,0.5,104,145.01
572,E-3,94.5,0.5,112,145.01
573,C2,94.5,0.25,123,145.01
574,G#2,95.0,0.5,122,145.01
575,C#4,95.0,0.5,113,145.01
576,E-3,95.0,0.5,112,145.01
577,E2,95.0,0.25,123,145.01
578,F#3,95.5,0.5,92,145.01
579,G#2,95.5,0.5,113,145.01
580,C#4,95.5,0.5,104,145.01
581,E-3,95.5,0.5,112,145.01
582,C2,95.5,0.25,123,145.01
583,G#3,95.5,0.5,118,145.01
584,G#2,95.5,0.5,118,145.01
585,A5,95.948,13/250,123,145.01
586,C#6,95.948,13/250,123,145.01
587,C#3,96.0,3.5,112,145.01
588,A2,96.0,0.5,122,145.01
589,A5,96.0,573/1000,123,145.01
590,C#6,96.0,573/1000,123,145.01
591,A3,96.0,3.5,113,145.01
592,A2,96.0,3.5,113,145.01
593,A3,96.0,4.0,113,145.01
594,E3,96.0,4.0,113,145.01
595,C2,96.0,0.5,118,145.01
596,C#3,96.0,0.5,118,145.01
597,E3,96.5,2.0,122,145.01
598,A2,96.5,0.5,113,145.01
599,E-3,96.5,0.5,112,145.01
600,G#5,96.51,201/200,113,145.01
601,B5,96.51,201/200,113,145.01
602,A2,97.0,0.5,113,145.01
603,E2,97.0,0.5,118,145.01
604,E-3,97.0,0.5,118,145.01
605,F#5,97.458,237/250,111,145.01
606,A5,97.458,237/250,111,145.01
607,C#4,97.5,2.0,122,145.01
608,A2,97.5,0.5,113,145.01
609,E-3,97.5,0.5,112,145.01
610,A2,98.0,0.5,113,145.01
611,C2,98.0,0.5,118,145.01
612,E-3,98.0,0.5,118,145.01
613,E5,98.411,87/100,111,145.01
614,G#5,98.411,87/100,111,145.01
615,A3,98.5,1.5,102,145.01
616,A2,98.5,0.5,113,145.01
617,C2,98.5,0.5,118,145.01
618,E-3,98.5,0.5,118,145.01
619,A2,99.0,0.5,113,145.01
620,E-3,99.0,0.5,118,145.01
621,E2,99.0,0.5,118,145.01
622,E5,99.417,583/1000,111,145.01
623,G#5,99.417,583/1000,111,145.01
624,E3,99.5,0.5,102,145.01
625,A2,99.5,0.5,113,145.01
626,E-3,99.5,0.5,118,145.01
627,C2,99.5,0.5,118,145.01
628,E-3,100.0,4.0,102,145.01
629,B2,100.0,0.5,122,145.01
630,E5,100.0,127/200,111,145.01
631,G#5,100.0,127/200,111,145.01
632,F#3,100.0,4.0,126,145.01
633,B3,100.0,4.0,126,145.01
634,B2,100.0,4.0,126,145.01
635,F#3,100.0,4.0,108,145.01
636,B3,100.0,4.0,108,145.01
637,E-3,100.0,0.5,118,145.01
638,C2,100.0,0.5,118,145.01
639,F#3,100.5,3.5,108,145.01
640,B2,100.5,0.5,113,145.01
641,C#3,100.5,0.5,118,145.01
642,E2,100.5,0.5,118,145.01
643,E-5,100.583,759/250,111,145.01
644,F#5,100.583,759/250,111,145.01
645,B2,101.0,0.5,113,145.01
646,E-3,101.0,0.5,118,145.01
647,C2,101.0,0.5,118,145.01
648,B3,101.5,2.5,107,145.01
649,B2,101.5,0.5,113,145.01
650,E-3,101.5,0.5,118,145.01
651,C2,101.5,0.5,118,145.01
652,B2,102.0,0.5,113,145.01
653,E2,102.0,0.5,118,145.01
654,C#3,102.0,0.5,118,145.01
655,E-4,102.5,1.5,102,145.01
656,B2,102.5,0.5,113,145.01
657,C2,102.5,0.5,123,145.01
658,B2,103.0,0.5,113,145.01
659,E2,103.0,0.25,123,145.01
660,E2,103.25,0.25,123,145.01
661,B2,103.5,0.5,113,145.01
662,E2,103.5,0.25,123,145.01
663,E2,103.75,0.25,123,145.01
664,E3,104.0,1.5,122,145.01
665,E2,104.0,1.5,113,145.01
666,E2,104.0,1.0,113,145.01
667,E2,104.0,1/200,123,145.01
668,B2,104.0,0.5,123,145.01
669,E3,104.0,0.5,123,145.01
670,E4,104.0,1.5,107,145.01
671,G#4,104.0,1.5,107,145.01
672,C2,104.0,0.5,118,145.01
673,C#3,104.0,0.5,118,145.01
674,G#5,104.104,1.344,127,145.01
675,B5,104.104,1.344,127,145.01
676,F#2,104.417,0.5,89,145.01
677,B2,105.0,1.5,82,145.01
678,F#2,105.0,0.5,106,145.01
679,E2,105.0,0.5,106,145.01
680,E-3,105.5,1.5,122,145.01
681,B1,105.5,1.5,113,145.01
682,E-4,105.5,1.0,104,145.01
683,F#4,105.5,1.5,104,145.01
684,F#2,105.5,0.5,118,145.01
685,B2,105.5,0.5,118,145.01
686,F#2,105.5,0.5,106,145.01
687,C2,105.5,0.5,106,145.01
688,F#5,105.516,659/500,123,145.01
689,A5,105.516,659/500,123,145.01
690,F#2,106.0,0.5,89,145.01
691,B2,106.5,0.5,82,145.01
692,C#3,106.5,0.5,55,145.01
693,F#2,106.5,0.5,106,145.01
694,C2,106.5,0.5,106,145.01
695,E5,106.911,1089/1000,113,145.01
696,G#5,106.911,1089/1000,113,145.01
697,C#3,107.0,1.0,112,145.01
698,C#2,107.0,1.0,122,145.01
699,G#2,107.0,1.0,113,145.01
700,C#3,107.0,1.0,113,145.01
701,E4,107.0,1.0,100,145.01
702,G#4,107.0,1.0,100,145.01
703,E2,107.0,0.5,118,145.01
704,C#3,107.0,0.5,118,145.01
705,C#3,108.0,4.0,112,145.01
706,C#2,108.0,0.5,122,145.01
707,G#2,108.0,1.0,113,145.01
708,C#3,108.0,0.5,113,145.01
709,E5,108.0,1.797,113,145.01
710,G#5,108.0,1.797,113,145.01
711,F#2,108.0,0.5,89,145.01
712,E4,108.0,0.5,100,145.01
713,G#4,108.0,0.5,100,145.01
714,G#3,108.5,0.5,112,145.01
715,C#2,108.5,0.5,100,145.01
716,C#3,108.5,0.5,123,145.01
717,C#4,108.5,1.0,107,145.01
718,F#2,108.5,0.5,106,145.01
719,C2,108.5,0.5,106,145.01
720,C#4,109.0,1.0,112,145.01
721,C#2,109.0,0.5,103,145.01
722,G#2,109.0,0.5,70,145.01
723,C#3,109.0,0.5,70,145.01
724,F#2,109.0,0.5,106,145.01
725,E2,109.0,0.5,106,145.01
726,G#3,109.5,2.0,112,145.01
727,C#2,109.5,0.5,107,145.01
728,C#4,109.5,0.5,95,145.01
729,F#2,109.5,0.5,89,145.01
730,G#2,109.5,0.5,108,145.01
731,C#3,109.5,0.5,108,145.01
732,E2,109.75,0.5,123,145.01
733,E4,110.0,2.0,102,145.01
734,C#2,110.0,0.5,111,145.01
735,C#4,110.0,0.5,95,145.01
736,G#2,110.0,0.5,78,145.01
737,C#3,110.0,0.5,78,145.01
738,F#2,110.0,0.5,106,145.01
739,C2,110.0,0.5,106,145.01
740,C#5,110.448,77/200,113,145.01
741,E5,110.448,77/200,113,145.01
742,C#2,110.5,0.5,114,145.01
743,C#4,110.5,0.5,113,145.01
744,G#2,110.5,0.5,103,145.01
745,C#3,110.5,0.5,103,145.01
746,F#2,110.5,0.5,106,145.01
747,C2,110.5,0.5,106,145.01
748,C#5,110.964,177/500,123,145.01
749,E5,110.964,177/500,123,145.01
750,C#4,111.0,1.0,92,145.01
751,C#2,111.0,0.5,118,145.01
752,B3,111.0,0.5,107,145.01
753,G#2,111.0,1.0,85,145.01
754,C#3,111.0,1.0,85,145.01
755,F#2,111.0,0.5,106,145.01
756,E2,111.0,0.5,106,145.01
757,C#5,111.469,0.531,113,145.01
758,E5,111.469,0.531,113,145.01
759,E2,111.5,0.5,122,145.01
760,G#3,111.5,0.5,113,145.01
761,C2,111.5,0.5,123,145.01
762,G#3,112.0,1.5,122,145.01
763,E2,112.0,1.5,122,145.01
764,C#5,112.0,1/200,113,145.01
765,E5,112.0,1/200,113,145.01
766,B2,112.0,0.5,120,145.01
767,E2,112.0,0.5,120,145.01
768,E3,112.0,0.5,120,145.01
769,E4,112.0,1.5,113,145.01
770,G#4,112.0,1.5,113,145.01
771,C#3,112.0,0.5,118,145.01
772,C2,112.0,0.5,118,145.01
773,G#5,112.062,113/100,123,145.01
774,B5,112.062,113/100,123,145.01
775,F#2,112.5,0.5,89,145.01
776,E3,113.0,0.5,92,145.01
777,F#2,113.0,0.5,106,145.01
778,E2,113.0,0.5,106,145.01
779,F#5,113.333,0.938,113,145.01
780,A5,113.333,0.938,113,145.01
781,E-3,113.5,1.5,122,145.01
782,B1,113.5,1.5,113,145.01
783,F#2,113.5,1.0,113,145.01
784,B2,113.5,0.5,123,145.01
785,F#4,113.5,1.5,100,145.01
786,E-4,113.5,1.5,100,145.01
787,C2,113.5,0.5,106,145.01
788,F#2,113.5,0.5,106,145.01
789,F#2,114.0,0.5,89,145.01
790,E5,114.49,479/1000,111,145.01
791,G#5,114.49,479/1000,111,145.01
792,B2,114.5,0.5,102,145.01
793,F#2,114.5,0.5,106,145.01
794,C2,114.5,0.5,106,145.01
795,C#3,115.0,1.0,112,145.01
796,C#2,115.0,1.0,122,145.01
797,G#2,115.0,1.0,113,145.01
798,C#3,115.0,1.0,123,145.01
799,C#4,115.0,1.0,113,145.01
800,C#3,115.0,0.5,118,145.01
801,E2,115.0,0.5,118,145.01
802,E5,115.104,112/125,113,145.01
803,G#5,115.104,112/125,113,145.01
804,C#3,116.0,4.0,112,145.01
805,C#2,116.0,0.5,122,145.01
806,G#2,116.0,1.0,113,145.01
807,C#3,116.0,0.5,123,145.01
808,E5,116.0,1401/500,113,145.01
809,G#5,116.0,1401/500,113,145.01
810,C#4,116.0,0.5,113,145.01
811,F#2,116.0,0.5,89,145.01
812,G#3,116.5,0.5,102,145.01
813,C#2,116.5,0.5,99,145.01
814,C#3,116.5,0.5,103,145.01
815,C#4,116.5,0.5,95,145.01
816,F#2,116.5,0.5,106,145.01
817,C2,116.5,0.5,106,145.01
818,C#4,117.0,1.0,112,145.01
819,C#2,117.0,0.5,103,145.01
820,C#4,117.0,2.0,82,145.01
821,G#2,117.0,0.5,78,145.01
822,C#3,117.0,0.5,78,145.01
823,F#2,117.0,0.5,106,145.01
824,E2,117.0,0.5,106,145.01
825,G#3,117.5,2.0,122,145.01
826,C#2,117.5,0.5,107,145.01
827,F#2,117.5,0.5,89,145.01
828,G#2,117.5,0.5,100,145.01
829,C#3,117.5,0.5,100,145.01
830,E2,117.75,0.5,123,145.01
831,E4,118.0,1.5,112,145.01
832,C#2,118.0,0.5,112,145.01
833,G#4,118.0,2.0,95,145.01
834,G#2,118.0,0.5,75,145.01
835,C#3,118.0,0.5,75,145.01
836,F#2,118.0,0.5,106,145.01
837,C2,118.0,0.5,106,145.01
838,E2,118.25,0.5,123,145.01
839,C#2,118.5,0.5,116,145.01
840,G#2,118.5,0.5,106,145.01
841,C#3,118.5,0.5,106,145.01
842,F#2,118.5,0.5,106,145.01
843,C2,118.5,0.5,106,145.01
844,C#4,119.0,0.5,112,145.01
845,C#2,119.0,0.5,120,145.01
846,G#2,119.0,1.0,88,145.01
847,C#3,119.0,0.5,82,145.01
848,C#4,119.0,1.0,86,145.01
849,F#2,119.0,0.5,106,145.01
850,E2,119.0,0.5,106,145.01
851,F#2,119.5,0.5,124,145.01
852,C#3,119.5,0.5,103,145.01
853,E2,119.5,0.25,123,145.01
854,C#5,119.51,49/100,123,145.01
855,E5,119.51,49/100,123,145.01
856,E2,119.75,0.25,123,145.01
857,C#3,120.0,3.5,112,145.01
858,F#2,120.0,0.5,124,145.01
859,C#5,120.0,21/1000,123,145.01
860,E5,120.0,21/1000,123,145.01
861,F#4,120.0,0.5,122,145.01
862,E2,120.0,0.25,123,145.01
863,C#3,120.0,3.0,120,145.01
864,F#3,120.0,3.0,120,145.01
865,F#2,120.0,3.0,120,145.01
866,C2,120.0,0.5,118,145.01
867,C#3,120.0,0.5,118,145.01
868,A5,120.031,0.688,123,145.01
869,C#6,120.031,0.688,123,145.01
870,F#3,120.5,2.0,102,145.01
871,F#2,120.5,0.5,100,145.01
872,F#4,120.5,0.5,95,145.01
873,B-2,120.5,0.5,89,145.01
874,G#5,120.635,917/1000,113,145.01
875,B5,120.635,917/1000,113,145.01
876,F#2,121.0,0.5,102,145.01
877,C#4,121.0,0.5,104,145.01
878,B-2,121.0,0.5,106,145.01
879,E2,121.0,0.5,106,145.01
880,C#4,121.5,2.5,122,145.01
881,F#2,121.5,0.5,104,145.01
882,C#4,121.5,0.5,95,145.01
883,B-2,121.5,0.5,89,145.01
884,F#5,121.568,112/125,111,145.01
885,A5,121.568,112/125,111,145.01
886,E2,121.75,0.5,123,145.01
887,F#2,122.0,0.5,106,145.01
888,F#4,122.0,0.5,122,145.01
889,C2,122.0,0.5,106,145.01
890,B-2,122.0,0.5,106,145.01
891,E5,122.479,101/100,123,145.01
892,G#5,122.479,101/100,123,145.01
893,A3,122.5,1.5,102,145.01
894,F#2,122.5,0.5,108,145.01
895,F#4,122.5,0.5,93,145.01
896,B-2,122.5,0.5,106,145.01
897,C2,122.5,0.5,106,145.01
898,F#2,123.0,0.5,110,145.01
899,C#4,123.0,0.5,113,145.01
900,B-2,123.0,0.5,106,145.01
901,E2,123.0,0.5,106,145.01
902,F#3,123.5,0.5,92,145.01
903,F#2,123.5,0.5,112,145.01
904,F#2,123.5,0.5,113,145.01
905,C#4,123.5,0.5,95,145.01
906,C#3,123.5,0.5,118,145.01
907,F#3,123.5,0.5,118,145.01
908,C2,123.5,0.5,106,145.01
909,B-2,123.5,0.5,106,145.01
910,A5,123.505,99/200,113,145.01
911,C#6,123.505,99/200,113,145.01
912,C#3,124.0,3.5,122,145.01
913,A3,124.0,0.5,102,145.01
914,F#2,124.0,0.5,115,145.01
915,F#2,124.0,1.5,113,145.01
916,A5,124.0,159/500,113,145.01
917,C#6,124.0,159/500,113,145.01
918,F#4,124.0,0.5,113,145.01
919,C#3,124.0,2.0,118,145.01
920,F#3,124.0,2.0,118,145.01
921,B-2,124.0,0.5,106,145.01
922,C2,124.0,0.5,106,145.01
923,F#3,124.5,2.0,112,145.01
924,F#2,124.5,0.5,117,145.01
925,G#5,124.5,0.953,113,145.01
926,B5,124.5,0.953,113,145.01
927,F#4,124.5,0.5,100,145.01
928,B-2,124.5,0.5,89,145.01
929,F#2,125.0,0.5,119,145.01
930,C#4,125.0,0.5,113,145.01
931,B-2,125.0,0.5,89,145.01
932,E2,125.0,0.25,123,145.01
933,C#4,125.5,2.5,112,145.01
934,G#2,125.5,0.5,122,145.01
935,C#4,125.5,0.5,95,145.01
936,B-2,125.5,0.5,89,145.01
937,F#5,125.505,0.891,111,145.01
938,A5,125.505,0.891,111,145.01
939,E2,125.75,0.25,123,145.01
940,G#2,126.0,0.5,114,145.01
941,F#4,126.0,0.5,122,145.01
942,B-2,126.0,0.5,89,145.01
943,C2,126.0,0.25,123,145.01
944,E2,126.25,0.25,123,145.01
945,E5,126.484,849/1000,113,145.01
946,G#5,126.484,849/1000,113,145.01
947,A3,126.5,1.5,102,145.01
948,G#2,126.5,0.5,115,145.01
949,F#4,126.5,0.5,104,145.01
950,B-2,126.5,0.5,89,145.01
951,C2,126.5,0.25,123,145.01
952,A2,127.0,0.5,115,145.01
953,C#4,127.0,0.5,113,145.01
954,C#3,127.0,0.5,112,145.01
955,E2,127.0,0.25,123,145.01
956,F#3,127.5,0.5,92,145.01
957,A2,127.5,0.5,116,145.01
958,C#4,127.5,0.5,104,145.01
959,B-2,127.5,0.5,89,145.01
960,C2,127.5,0.25,123,145.01
961,B2,128.0,4.0,123,145.01
962,B1,128.0,0.5,103,145.01
963,F#3,128.0,2.5,113,145.01
964,B3,128.0,4.0,114,145.01
965,C2,128.0,0.5,123,145.01
966,C#3,128.0,0.188,112,145.01
967,F5,128.0,1/200,1,145.01
968,B3,128.0,2.0,113,145.01
969,B2,128.0,2.0,113,145.01
970,E-5,128.026,1521/1000,123,145.01
971,F#5,128.026,1521/1000,123,145.01
972,G#5,128.062,1/200,1,145.01
973,G4,128.125,1/200,1,145.01
974,G3,128.188,1/200,1,145.01
975,G3,128.25,1/200,1,145.01
976,C3,128.312,1/200,1,145.01
977,G3,128.375,1/200,1,145.01
978,B1,128.5,0.5,113,145.01
979,B-2,128.5,0.5,89,145.01
980,E-3,129.0,2.5,112,145.01
981,B1,129.0,0.5,113,145.01
982,E2,129.0,0.5,106,145.01
983,B-2,129.0,0.5,106,145.01
984,F#3,129.5,2.5,112,145.01
985,B1,129.5,0.5,113,145.01
986,B-2,129.5,0.5,89,145.01
987,E5,129.536,943/1000,123,145.01
988,G#5,129.536,943/1000,123,145.01
989,E2,129.75,0.5,123,145.01
990,B1,130.0,0.5,113,145.01
991,C2,130.0,0.5,106,145.01
992,B-2,130.0,0.5,106,145.01
993,B3,130.5,1.5,102,145.01
994,B1,130.5,0.5,113,145.01
995,F#5,130.5,1.469,127,145.01
996,A5,130.5,1.469,127,145.01
997,C2,130.5,0.5,106,145.01
998,B-2,130.5,0.5,106,145.01
999,B1,131.0,0.5,113,145.01
1000,B-2,131.0,0.5,106,145.01
1001,E2,131.0,0.5,106,145.01
1002,B1,131.5,0.5,113,145.01
1003,B-2,131.5,0.5,106,145.01
1004,C2,131.5,0.5,106,145.01
1005,A5,131.927,73/1000,123,145.01
1006,C#6,131.927,73/1000,123,145.01
1007,A1,132.0,4.0,122,145.01
1008,A5,132.0,4.0,123,145.01
1009,C#6,132.0,4.0,123,145.01
1010,A3,132.0,4.0,104,145.01
1011,A2,132.0,4.0,112,145.01
1012,A3,132.0,4.0,112,145.01
1013,E3,132.0,4.0,123,145.01
1014,A3,132.0,4.0,123,145.01
1015,A2,132.0,4.0,123,145.01
1016,C#3,132.0,0.5,118,145.01
1017,C2,132.0,0.5,118,145.01
1018,E2,135.0,0.25,123,145.01
1019,E2,135.25,0.5,123,145.01
1020,F2,135.5,0.5,112,145.01
1021,A2,136.0,3.5,112,145.01
1022,A1,136.0,0.5,122,145.01
1023,A2,136.0,349/1000,123,145.01
1024,A3,136.0,2.0,122,145.01
1025,C#3,136.0,0.5,118,145.01
1026,C2,136.0,0.5,118,145.01
1027,A1,136.5,0.5,122,145.01
1028,A2,136.5,349/1000,103,145.01
1029,E3,137.0,1.5,92,145.01
1030,A1,137.0,0.5,113,145.01
1031,A2,137.0,349/1000,113,145.01
1032,B-2,137.0,0.5,106,145.01
1033,E2,137.0,0.5,106,145.01
1034,A3,137.5,2.5,92,145.01
1035,A1,137.5,0.5,113,145.01
1036,A2,137.5,349/1000,113,145.01
1037,E3,137.5,1.5,113,145.01
1038,A1,138.0,0.5,113,145.01
1039,A2,138.0,0.375,109,145.01
1040,B-2,138.0,0.5,89,145.01
1041,C2,138.0,0.25,123,145.01
1042,C2,138.25,0.5,123,145.01
1043,A1,138.5,0.5,103,145.01
1044,A2,138.5,0.344,110,145.01
1045,E2,138.5,0.5,123,145.01
1046,E3,139.0,1.0,112,145.01
1047,A1,139.0,0.5,113,145.01
1048,A2,139.0,0.328,113,145.01
1049,A3,139.0,1.0,113,145.01
1050,B-2,139.0,0.5,106,145.01
1051,C2,139.0,0.5,106,145.01
1052,A1,139.5,0.5,113,145.01
1053,A2,139.5,0.406,113,145.01
1054,E2,139.5,0.5,123,145.01
1055,B2,140.0,3.0,112,145.01
1056,B1,140.0,0.5,122,145.01
1057,B2,140.0,401/1000,127,145.01
1058,G#3,140.0,1.5,122,145.01
1059,C#3,140.0,0.5,118,145.01
1060,C2,140.0,0.5,118,145.01
1061,B1,140.5,0.5,113,145.01
1062,B2,140.5,0.375,123,145.01
1063,F#3,141.0,1.0,92,145.01
1064,B1,141.0,0.5,113,145.01
1065,B2,141.0,349/1000,103,145.01
1066,B-2,141.0,0.5,106,145.01
1067,E2,141.0,0.5,106,145.01
1068,B3,141.5,2.5,92,145.01
1069,B1,141.5,0.5,113,145.01
1070,B2,141.5,73/200,113,145.01
1071,F#3,141.5,2.5,105,145.01
1072,B1,142.0,0.5,113,145.01
1073,B2,142.0,0.391,113,145.01
1074,F2,142.0,0.25,112,145.01
1075,F2,142.25,0.5,112,145.01
1076,B1,142.5,0.5,113,145.01
1077,B2,142.5,0.359,103,145.01
1078,E2,142.5,0.5,123,145.01
1079,F#3,143.0,1.0,102,145.01
1080,F#1,143.0,0.5,113,145.01
1081,B2,143.0,19/50,113,145.01
1082,F2,143.0,0.25,112,145.01
1083,F2,143.25,0.5,112,145.01
1084,B1,143.5,0.5,122,145.01
1085,B2,143.5,307/1000,113,145.01
1086,B-2,143.5,0.5,106,145.01
1087,E2,143.5,0.5,106,145.01
1088,B4,143.583,417/1000,123,145.01
1089,E2,144.0,0.5,127,145.01
1090,B4,144.0,17/250,123,145.01
1091,G#5,144.172,729/1000,113,145.01
1092,E3,144.5,0.5,118,145.01
1093,E4,144.5,0.5,118,145.01
1094,F#5,144.839,661/1000,111,145.01
1095,E3,145.0,0.5,103,145.01
1096,E5,145.443,323/500,111,145.01
1097,B2,145.5,1.5,123,145.01
1098,E-5,146.104,323/500,113,145.01
1099,B3,146.5,0.5,113,145.01
1100,E5,146.688,667/1000,111,145.01
1101,B2,147.0,0.5,123,145.01
1102,F#5,147.359,0.641,123,145.01
1103,E-3,147.5,0.5,123,145.01
1104,C#4,148.0,0.5,123,145.01
1105,C#3,148.0,1.0,113,145.01
1106,F#5,148.0,0.125,123,145.01
1107,G#5,148.099,181/250,111,145.01
1108,G#3,148.5,0.5,84,145.01
1109,C#5,148.938,173/200,111,145.01
1110,E4,149.0,0.5,103,145.01
1111,G#2,149.0,1.0,103,145.01
1112,G#3,149.5,0.5,93,145.01
1113,B4,149.792,589/1000,100,145.01
1114,F#4,150.0,0.5,114,145.01
1115,C#3,150.0,1.0,114,145.01
1116,C#5,150.365,63/50,123,145.01
1117,G#3,150.5,0.5,103,145.01
1118,B1,151.0,1.0,122,145.01
1119,G#4,151.0,0.5,113,145.01
1120,C#3,151.0,1.0,103,145.01
1121,E2,151.0,0.5,106,145.01
1122,B-2,151.0,0.5,106,145.01
1123,B4,151.396,151/250,100,145.01
1124,G#3,151.5,0.5,103,145.01
1125,E3,152.0,1.5,92,145.01
1126,E2,152.0,0.5,122,145.01
1127,E2,152.0,479/1000,123,145.01
1128,B4,152.0,21/1000,100,145.01
1129,C2,152.0,0.5,106,145.01
1130,G#2,152.0,0.5,106,145.01
1131,G#5,152.01,729/1000,123,145.01
1132,F#3,152.5,0.5,102,145.01
1133,E2,152.5,0.5,122,145.01
1134,E2,152.5,56/125,113,145.01
1135,G#2,152.5,0.5,89,145.01
1136,F#5,152.656,0.656,113,145.01
1137,B3,153.0,1.0,102,145.01
1138,E2,153.0,0.5,106,145.01
1139,G#2,153.0,0.5,106,145.01
1140,E5,153.302,357/500,111,145.01
1141,F#3,153.5,0.5,112,145.01
1142,E2,153.5,0.5,113,145.01
1143,E2,153.5,401/1000,123,145.01
1144,C2,153.5,0.5,106,145.01
1145,G#2,153.5,0.5,106,145.01
1146,E-5,153.948,409/500,113,145.01
1147,E-3,154.0,1.5,102,145.01
1148,B1,154.0,0.5,113,145.01
1149,B2,154.0,0.438,113,145.01
1150,G#2,154.0,0.5,106,145.01
1151,C2,154.0,0.5,106,145.01
1152,F#3,154.5,1.0,92,145.01
1153,B1,154.5,0.5,113,145.01
1154,B2,154.5,0.469,113,145.01
1155,G#2,154.5,0.5,89,145.01
1156,E5,154.729,771/1000,113,145.01
1157,B3,155.0,1.0,92,145.01
1158,E2,155.0,0.5,106,145.01
1159,G#2,155.0,0.5,106,145.01
1160,F#5,155.427,573/1000,113,145.01
1161,F#3,155.5,0.5,112,145.01
1162,B1,155.5,0.5,113,145.01
1163,B2,155.5,99/200,127,145.01
1164,C2,155.5,0.5,106,145.01
1165,G#2,155.5,0.5,106,145.01
1166,C#3,156.0,2.5,102,145.01
1167,C#2,156.0,0.5,113,145.01
1168,C#3,156.0,427/1000,123,145.01
1169,F#5,156.0,0.156,113,145.01
1170,C2,156.0,0.5,106,145.01
1171,G#2,156.0,0.5,106,145.01
1172,G#5,156.167,1599/1000,113,145.01
1173,E3,156.5,3.5,92,145.01
1174,C#2,156.5,0.5,113,145.01
1175,C#3,156.5,0.484,113,145.01
1176,G#2,156.5,0.5,89,145.01
1177,G#3,157.0,0.5,102,145.01
1178,E2,157.0,0.5,106,145.01
1179,G#2,157.0,0.5,106,145.01
1180,C#4,157.5,2.5,102,145.01
1181,G#2,157.5,0.25,89,145.01
1182,G#2,157.75,0.25,89,145.01
1183,G#2,158.0,0.5,89,145.01
1184,G#3,158.5,1.5,112,145.01
1185,G#2,158.5,0.5,89,145.01
1186,G#2,159.0,0.5,106,145.01
1187,E2,159.0,0.5,106,145.01
1188,B4,159.354,573/1000,123,145.01
1189,C#3,159.5,0.5,92,145.01
1190,B-2,159.5,0.5,106,145.01
1191,C2,159.5,0.5,106,145.01
1192,G#5,159.948,13/250,113,145.01
1193,E3,160.0,1.5,92,145.01
1194,E2,160.0,0.5,113,145.01
1195,E2,160.0,73/200,127,145.01
1196,G#5,160.0,661/1000,113,145.01
1197,C2,160.0,0.5,106,145.01
1198,G#2,160.0,0.5,106,145.01
1199,F#3,160.5,0.5,102,145.01
1200,E2,160.5,0.5,113,145.01
1201,E2,160.5,56/125,123,145.01
1202,G#2,160.5,0.5,89,145.01
1203,F#5,160.583,0.609,111,145.01
1204,B3,161.0,1.0,102,145.01
1205,E2,161.0,0.5,106,145.01
1206,G#2,161.0,0.5,106,145.01
1207,E5,161.177,112/125,100,145.01
1208,F#3,161.5,0.5,112,145.01
1209,E2,161.5,0.5,113,145.01
1210,E2,161.5,0.406,123,145.01
1211,C2,161.5,0.5,106,145.01
1212,G#2,161.5,0.5,106,145.01
1213,E-5,161.969,409/500,113,145.01
1214,E-3,162.0,1.5,102,145.01
1215,B1,162.0,0.5,113,145.01
1216,B2,162.0,417/1000,123,145.01
1217,G#2,162.0,0.5,106,145.01
1218,C2,162.0,0.5,106,145.01
1219,F#3,162.5,1.0,92,145.01
1220,B1,162.5,0.5,113,145.01
1221,B2,162.5,479/1000,123,145.01
1222,G#2,162.5,0.5,89,145.01
1223,E5,162.693,151/200,100,145.01
1224,B3,163.0,1.0,92,145.01
1225,E2,163.0,0.5,106,145.01
1226,G#2,163.0,0.5,106,145.01
1227,F#5,163.349,651/1000,123,145.01
1228,F#3,163.5,0.5,112,145.01
1229,B1,163.5,0.5,113,145.01
1230,B2,163.5,443/1000,123,145.01
1231,C2,163.5,0.5,106,145.01
1232,G#2,163.5,0.5,106,145.01
1233,C#3,164.0,2.5,102,145.01
1234,C#2,164.0,0.5,113,145.01
1235,C#3,164.0,99/250,123,145.01
1236,F#5,164.0,0.156,123,145.01
1237,C2,164.0,0.5,106,145.01
1238,G#2,164.0,0.5,106,145.01
1239,G#5,164.141,87/100,113,145.01
1240,E3,164.5,3.5,92,145.01
1241,C#2,164.5,0.5,103,145.01
1242,C#3,164.5,99/200,127,145.01
1243,G#2,164.5,0.5,89,145.01
1244,C#5,164.99,0.797,113,145.01
1245,G#3,165.0,0.5,102,145.01
1246,E2,165.0,0.5,106,145.01
1247,G#2,165.0,0.5,106,145.01
1248,C#4,165.5,2.5,102,145.01
1249,G#2,165.5,0.5,89,145.01
1250,B4,165.755,0.688,113,145.01
1251,G#2,166.0,0.5,89,145.01
1252,C#5,166.432,1.078,127,145.01
1253,G#3,166.5,1.5,112,145.01
1254,G#2,166.5,0.5,89,145.01
1255,E2,167.0,0.5,106,145.01
1256,G#2,167.0,0.5,106,145.01
1257,B4,167.385,123/200,123,145.01
1258,E2,167.5,0.5,122,145.01
1259,E2,167.5,0.5,113,145.01
1260,E2,167.5,0.5,123,145.01
1261,C2,167.5,0.5,106,145.01
1262,G#2,167.5,0.5,106,145.01
1263,F#5,167.932,17/250,123,145.01
1264,F#2,168.0,1.25,102,145.01
1265,F#2,168.0,3.0,113,145.01
1266,F#2,168.0,3.0,103,145.01
1267,B4,168.0,13/500,123,145.01
1268,F#5,168.0,0.641,123,145.01
1269,C2,168.0,0.5,106,145.01
1270,G#2,168.0,0.5,106,145.01
1271,C#3,168.5,3.5,112,145.01
1272,G#2,168.5,0.5,89,145.01
1273,F#3,168.75,1.75,102,145.01
1274,F#5,168.771,323/500,123,145.01
1275,A3,169.0,0.75,112,145.01
1276,E2,169.0,0.5,106,145.01
1277,G#2,169.0,0.5,106,145.01
1278,C#4,169.5,2.5,122,145.01
1279,G#2,169.5,0.5,89,145.01
1280,F#5,169.62,411/1000,113,145.01
1281,E2,169.75,0.5,123,145.01
1282,G#2,170.0,0.5,106,145.01
1283,C2,170.0,0.5,106,145.01
1284,F#5,170.151,99/200,113,145.01
1285,A3,170.5,1.0,102,145.01
1286,C2,170.5,0.5,106,145.01
1287,G#2,170.5,0.5,106,145.01
1288,E-5,170.771,37/50,123,145.01
1289,E2,171.0,0.5,106,145.01
1290,G#2,171.0,0.5,106,145.01
1291,E5,171.422,0.578,113,145.01
1292,A3,171.5,0.5,119,145.01
1293,F#2,171.5,0.5,113,145.01
1294,F#2,171.5,0.5,123,145.01
1295,C2,171.5,0.5,106,145.01
1296,B-2,171.5,0.5,106,145.01
1297,B2,172.0,4.0,122,145.01
1298,B1,172.0,4.0,113,145.01
1299,B2,172.0,4.0,127,145.01
1300,E5,172.0,91/500,113,145.01
1301,C2,172.0,0.5,106,145.01
1302,G#2,172.0,0.5,106,145.01
1303,F#5,172.109,2021/1000,123,145.01
1304,E-3,172.5,0.75,102,145.01
1305,G#2,172.5,0.5,89,145.01
1306,F#3,172.75,1.0,102,145.01
1307,B3,173.0,1.0,92,145.01
1308,E2,173.0,0.5,106,145.01
1309,G#2,173.0,0.5,106,145.01
1310,E-3,173.5,2.5,112,145.01
1311,G#2,173.5,0.5,89,145.01
1312,E2,173.75,0.5,123,145.01
1313,E4,174.0,1.75,122,145.01
1314,G#2,174.0,0.5,106,145.01
1315,C2,174.0,0.5,106,145.01
1316,B-2,174.5,0.5,106,145.01
1317,E2,174.5,0.5,106,145.01
1318,E2,175.25,0.25,123,145.01
1319,E2,175.5,0.5,123,145.01
1320,B4,175.583,417/1000,123,145.01
1321,G#5,175.583,417/1000,123,145.01
1322,E3,176.0,1.5,92,145.01
1323,E2,176.0,0.5,113,145.01
1324,E2,176.0,0.5,127,145.01
1325,B4,176.0,17/250,123,145.01
1326,G#5,176.0,17/250,123,145.01
1327,E4,176.0,0.5,110,145.01
1328,C2,176.0,0.5,106,145.01
1329,B-2,176.0,0.5,106,145.01
1330,G#5,176.172,729/1000,113,145.01
1331,B5,176.172,729/1000,113,145.01
1332,F#3,176.5,0.5,102,145.01
1333,E2,176.5,0.5,113,145.01
1334,E2,176.5,0.5,123,145.01
1335,E4,176.5,1.0,113,145.01
1336,G#2,176.5,0.5,89,145.01
1337,F#5,176.839,661/1000,111,145.01
1338,A5,176.839,661/1000,111,145.01
1339,B3,177.0,1.0,102,145.01
1340,E2,177.0,0.5,106,145.01
1341,G#2,177.0,0.5,106,145.01
1342,E5,177.443,323/500,111,145.01
1343,G#5,177.443,323/500,111,145.01
1344,F#3,177.5,0.5,112,145.01
1345,E2,177.5,0.5,113,145.01
1346,E2,177.5,0.5,123,145.01
1347,E4,177.5,0.5,104,145.01
1348,C2,177.5,0.5,106,145.01
1349,G#2,177.5,0.5,106,145.01
1350,E-3,178.0,1.5,102,145.01
1351,B1,178.0,0.5,113,145.01
1352,B2,178.0,0.5,123,145.01
1353,B3,178.0,0.5,105,145.01
1354,G#2,178.0,0.5,106,145.01
1355,C2,178.0,0.5,106,145.01
1356,E-5,178.104,323/500,113,145.01
1357,F#5,178.104,323/500,113,145.01
1358,F#3,178.5,1.0,92,145.01
1359,B1,178.5,0.5,113,145.01
1360,B2,178.5,0.5,113,145.01
1361,B3,178.5,1.0,86,145.01
1362,G#2,178.5,0.5,89,145.01
1363,E5,178.688,667/1000,111,145.01
1364,G#5,178.688,667/1000,111,145.01
1365,B3,179.0,1.0,92,145.01
1366,E2,179.0,0.5,106,145.01
1367,G#2,179.0,0.5,106,145.01
1368,F#5,179.359,0.641,123,145.01
1369,A5,179.359,0.641,123,145.01
1370,F#3,179.5,0.5,112,145.01
1371,B1,179.5,0.5,103,145.01
1372,B2,179.5,0.5,123,145.01
1373,B3,179.5,0.5,104,145.01
1374,C2,179.5,0.5,106,145.01
1375,G#2,179.5,0.5,106,145.01
1376,C#3,180.0,2.5,102,145.01
1377,C#2,180.0,0.5,113,145.01
1378,C#3,180.0,0.5,113,145.01
1379,F#5,180.0,0.125,123,145.01
1380,A5,180.0,0.125,123,145.01
1381,E4,180.0,0.5,113,145.01
1382,C2,180.0,0.5,106,145.01
1383,G#2,180.0,0.5,106,145.01
1384,G#5,180.099,181/250,111,145.01
1385,B5,180.099,181/250,111,145.01
1386,E3,180.5,3.5,92,145.01
1387,C#2,180.5,0.5,93,145.01
1388,C#3,180.5,3.0,112,145.01
1389,E4,180.5,0.5,86,145.01
1390,G#2,180.5,0.5,89,145.01
1391,C#5,180.938,173/200,111,145.01
1392,E5,180.938,173/200,111,145.01
1393,G#3,181.0,0.5,102,145.01
1394,E2,181.0,0.5,106,145.01
1395,G#2,181.0,0.5,106,145.01
1396,C#4,181.5,2.5,102,145.01
1397,C#2,181.5,0.5,103,145.01
1398,E4,181.5,0.5,95,145.01
1399,G#2,181.5,0.25,89,145.01
1400,G#2,181.75,0.25,89,145.01
1401,B4,181.792,589/1000,100,145.01
1402,E-5,181.792,589/1000,100,145.01
1403,C#2,182.0,0.5,112,145.01
1404,C#4,182.0,0.5,107,145.01
1405,C2,182.0,0.5,106,145.01
1406,G#2,182.0,0.5,106,145.01
1407,C#5,182.365,63/50,123,145.01
1408,E5,182.365,63/50,123,145.01
1409,G#3,182.5,1.5,112,145.01
1410,C#2,182.5,0.5,113,145.01
1411,C#4,182.5,0.5,86,145.01
1412,C2,182.5,0.5,106,145.01
1413,G#2,182.5,0.5,106,145.01
1414,G#2,183.0,0.5,106,145.01
1415,E2,183.0,0.5,106,145.01
1416,B4,183.396,151/250,100,145.01
1417,E-5,183.396,151/250,100,145.01
1418,C#3,183.5,0.5,92,145.01
1419,C#2,183.5,0.5,113,145.01
1420,C#3,183.5,0.5,123,145.01
1421,C#4,183.5,0.5,95,145.01
1422,B-2,183.5,0.5,106,145.01
1423,C2,183.5,0.5,106,145.01
1424,E3,184.0,1.5,92,145.01
1425,E2,184.0,0.5,113,145.01
1426,E2,184.0,0.5,127,145.01
1427,B4,184.0,21/1000,100,145.01
1428,E-5,184.0,21/1000,100,145.01
1429,E4,184.0,0.5,113,145.01
1430,C2,184.0,0.5,106,145.01
1431,G#2,184.0,0.5,106,145.01
1432,G#5,184.01,729/1000,123,145.01
1433,B5,184.01,729/1000,123,145.01
1434,F#3,184.5,0.5,102,145.01
1435,E2,184.5,0.5,113,145.01
1436,E2,184.5,0.5,123,145.01
1437,E4,184.5,0.5,82,145.01
1438,G#2,184.5,0.5,89,145.01
1439,F#5,184.656,0.656,113,145.01
1440,A5,184.656,0.656,113,145.01
1441,B3,185.0,1.0,102,145.01
1442,E2,185.0,0.5,106,145.01
1443,G#2,185.0,0.5,106,145.01
1444,E5,185.302,357/500,111,145.01
1445,G#5,185.302,357/500,111,145.01
1446,F#3,185.5,0.5,112,145.01
1447,E2,185.5,0.5,113,145.01
1448,E2,185.5,0.5,123,145.01
1449,E4,185.5,0.5,95,145.01
1450,C2,185.5,0.5,106,145.01
1451,G#2,185.5,0.5,106,145.01
1452,E-5,185.948,409/500,113,145.01
1453,F#5,185.948,409/500,113,145.01
1454,E-3,186.0,1.5,102,145.01
1455,B1,186.0,0.5,113,145.01
1456,B2,186.0,0.5,123,145.01
1457,B3,186.0,0.5,104,145.01
1458,G#2,186.0,0.5,106,145.01
1459,C2,186.0,0.5,106,145.01
1460,F#3,186.5,1.0,92,145.01
1461,B1,186.5,0.5,103,145.01
1462,B2,186.5,0.5,113,145.01
1463,B3,186.5,0.5,95,145.01
1464,G#2,186.5,0.5,89,145.01
1465,E5,186.729,771/1000,113,145.01
1466,G#5,186.729,771/1000,113,145.01
1467,B3,187.0,1.0,92,145.01
1468,E2,187.0,0.5,106,145.01
1469,G#2,187.0,0.5,106,145.01
1470,F#5,187.427,573/1000,113,145.01
1471,A5,187.427,573/1000,113,145.01
1472,F#3,187.5,0.5,112,145.01
1473,B1,187.5,0.5,113,145.01
1474,B2,187.5,0.5,113,145.01
1475,B3,187.5,0.5,113,145.01
1476,C2,187.5,0.5,106,145.01
1477,G#2,187.5,0.5,106,145.01
1478,C#3,188.0,2.5,102,145.01
1479,C#2,188.0,0.5,113,145.01
1480,C#3,188.0,3.5,123,145.01
1481,F#5,188.0,0.156,113,145.01
1482,A5,188.0,0.156,113,145.01
1483,F#4,188.0,0.5,113,145.01
1484,C2,188.0,0.5,106,145.01
1485,G#2,188.0,0.5,106,145.01
1486,G#5,188.167,1599/1000,113,145.01
1487,B5,188.167,1599/1000,113,145.01
1488,E3,188.5,3.5,92,145.01
1489,C#2,188.5,0.5,104,145.01
1490,F#4,188.5,0.5,104,145.01
1491,G#2,188.5,0.5,89,145.01
1492,G#3,189.0,0.5,102,145.01
1493,E4,189.0,0.5,104,145.01
1494,E2,189.0,0.5,106,145.01
1495,G#2,189.0,0.5,106,145.01
1496,C#4,189.5,2.5,102,145.01
1497,C#2,189.5,0.5,113,145.01
1498,G#2,189.5,0.5,89,145.01
1499,F#4,189.5,0.5,66,145.01
1500,B3,189.5,0.5,66,145.01
1501,C#2,190.0,0.5,93,145.01
1502,F#4,190.0,0.5,122,145.01
1503,C2,190.0,0.5,106,145.01
1504,G#2,190.0,0.5,106,145.01
1505,G#3,190.5,1.5,112,145.01
1506,C#2,190.5,0.5,113,145.01
1507,F#4,190.5,0.5,104,145.01
1508,C2,190.5,0.5,106,145.01
1509,G#2,190.5,0.5,106,145.01
1510,E4,191.0,0.5,104,145.01
1511,E2,191.0,0.5,106,145.01
1512,G#2,191.0,0.5,106,145.01
1513,C#5,191.365,599/1000,111,145.01
1514,E5,191.365,599/1000,111,145.01
1515,C#3,191.5,0.5,92,145.01
1516,F#2,191.5,0.5,122,145.01
1517,C#3,191.5,0.5,103,145.01
1518,B3,191.5,0.5,113,145.01
1519,C2,191.5,0.5,106,145.01
1520,G#2,191.5,0.5,106,145.01
1521,A5,191.969,0.031,113,145.01
1522,C#6,191.969,0.031,113,145.01
1523,F#2,192.0,4.0,102,145.01
1524,F#2,192.0,0.5,122,145.01
1525,F#2,192.0,1.5,123,145.01
1526,A5,192.0,37/50,113,145.01
1527,C#6,192.0,37/50,113,145.01
1528,F#4,192.0,1.5,113,145.01
1529,C2,192.0,0.5,106,145.01
1530,G#2,192.0,0.5,106,145.01
1531,F#3,192.5,3.0,112,145.01
1532,F#2,192.5,0.5,103,145.01
1533,G#2,192.5,0.5,89,145.01
1534,G#5,192.656,97/125,111,145.01
1535,B5,192.656,97/125,111,145.01
1536,A3,193.0,2.0,112,145.01
1537,F#2,193.0,0.5,103,145.01
1538,E2,193.0,0.5,106,145.01
1539,G#2,193.0,0.5,106,145.01
1540,F#5,193.312,0.75,100,145.01
1541,A5,193.312,0.75,100,145.01
1542,E4,193.5,2.5,112,145.01
1543,F#2,193.5,0.5,104,145.01
1544,F#2,193.5,2.5,113,145.01
1545,E4,193.5,1.5,104,145.01
1546,G#2,193.5,0.5,106,145.01
1547,C2,193.5,0.5,106,145.01
1548,E5,193.995,557/1000,113,145.01
1549,G#5,193.995,557/1000,113,145.01
1550,F#2,194.0,0.5,104,145.01
1551,G#2,194.0,0.5,106,145.01
1552,C2,194.0,0.5,106,145.01
1553,C#4,194.5,1.5,112,145.01
1554,F#2,194.5,0.5,105,145.01
1555,G#2,194.5,0.5,89,145.01
1556,C#5,194.802,0.703,111,145.01
1557,E5,194.802,0.703,111,145.01
1558,F#2,195.0,0.5,106,145.01
1559,C#4,195.0,1.0,95,145.01
1560,E2,195.0,0.5,106,145.01
1561,G#2,195.0,0.5,106,145.01
1562,E5,195.469,0.531,113,145.01
1563,G#5,195.469,0.531,113,145.01
1564,A3,195.5,0.5,112,145.01
1565,F#2,195.5,0.5,106,145.01
1566,C2,195.5,0.5,106,145.01
1567,G#2,195.5,0.5,106,145.01
1568,F#2,196.0,4.0,102,145.01
1569,A3,196.0,0.5,112,145.01
1570,E4,196.0,0.5,112,145.01
1571,C#4,196.0,0.5,112,145.01
1572,F#2,196.0,0.5,107,145.01
1573,F#2,196.0,2.0,113,145.01
1574,E5,196.0,21/500,113,145.01
1575,G#5,196.0,21/500,113,145.01
1576,F#4,196.0,1.5,113,145.01
1577,C2,196.0,0.5,106,145.01
1578,G#2,196.0,0.5,106,145.01
1579,A5,196.068,0.641,123,145.01
1580,C#6,196.068,0.641,123,145.01
1581,F#3,196.5,3.5,112,145.01
1582,F#2,196.5,0.5,107,145.01
1583,G#2,196.5,0.5,89,145.01
1584,G#5,196.698,661/1000,113,145.01
1585,B5,196.698,661/1000,113,145.01
1586,A3,197.0,2.5,102,145.01
1587,F#2,197.0,0.5,108,145.01
1588,E2,197.0,0.5,106,145.01
1589,G#2,197.0,0.5,106,145.01
1590,F#5,197.323,573/1000,111,145.01
1591,A5,197.323,573/1000,111,145.01
1592,E4,197.5,2.5,112,145.01
1593,G#2,197.5,0.5,109,145.01
1594,E4,197.5,1.5,104,145.01
1595,G#2,197.5,0.5,106,145.01
1596,C2,197.5,0.5,106,145.01
1597,E5,197.948,19/25,113,145.01
1598,G#5,197.948,19/25,113,145.01
1599,G#2,198.0,0.5,109,145.01
1600,G#2,198.0,2.0,123,145.01
1601,G#2,198.0,0.5,106,145.01
1602,C2,198.0,0.5,106,145.01
1603,C#4,198.5,1.5,102,145.01
1604,G#2,198.5,0.5,110,145.01
1605,G#2,198.5,0.5,89,145.01
1606,A2,199.0,0.5,110,145.01
1607,C#4,199.0,1.0,104,145.01
1608,E2,199.0,0.5,106,145.01
1609,G#2,199.0,0.5,106,145.01
1610,A3,199.5,0.5,82,145.01
1611,A2,199.5,0.5,111,145.01
1612,E5,199.5,0.5,113,145.01
1613,G#5,199.5,0.5,113,145.01
1614,G#2,199.5,0.5,106,145.01
1615,C2,199.5,0.5,106,145.01
1616,D3,200.0,3.0,122,145.01
1617,D2,200.0,0.5,112,145.01
1618,D3,200.0,4.0,123,145.01
1619,E5,200.0,1/200,113,145.01
1620,G#5,200.0,1/200,113,145.01
1621,F#4,200.0,1.5,113,145.01
1622,G#2,200.0,0.5,106,145.01
1623,C2,200.0,0.5,106,145.01
1624,A5,200.026,557/1000,113,145.01
1625,C#6,200.026,557/1000,113,145.01
1626,A3,200.5,3.0,102,145.01
1627,D2,200.5,0.5,112,145.01
1628,G#2,200.5,0.5,89,145.01
1629,A5,200.729,417/1000,111,145.01
1630,C#6,200.729,417/1000,111,145.01
1631,D4,201.0,0.5,112,145.01
1632,D2,201.0,0.5,113,145.01
1633,G#2,201.0,0.5,106,145.01
1634,E2,201.0,0.5,106,145.01
1635,A5,201.354,99/250,111,145.01
1636,C#6,201.354,99/250,111,145.01
1637,E4,201.5,2.0,102,145.01
1638,D2,201.5,0.5,114,145.01
1639,E4,201.5,1.5,113,145.01
1640,G#2,201.5,0.5,89,145.01
1641,E2,201.75,0.5,123,145.01
1642,D2,202.0,0.5,114,145.01
1643,G#2,202.0,0.5,106,145.01
1644,C2,202.0,0.5,106,145.01
1645,A5,202.005,599/1000,113,145.01
1646,C#6,202.005,599/1000,113,145.01
1647,D4,202.5,1.0,112,145.01
1648,D2,202.5,0.5,115,145.01
1649,C2,202.5,0.5,106,145.01
1650,G#2,202.5,0.5,106,145.01
1651,G#5,202.635,0.688,111,145.01
1652,B5,202.635,0.688,111,145.01
1653,D2,203.0,0.5,115,145.01
1654,A3,203.0,1.0,95,145.01
1655,G#2,203.0,0.5,106,145.01
1656,E2,203.0,0.5,106,145.01
1657,E5,203.281,357/500,111,145.01
1658,G#5,203.281,357/500,111,145.01
1659,D3,203.5,0.5,102,145.01
1660,D2,203.5,0.5,116,145.01
1661,G#2,203.5,0.5,106,145.01
1662,C2,203.5,0.5,106,145.01
1663,F#5,203.995,1/200,113,145.01
1664,A5,203.995,1/200,113,145.01
1665,B2,204.0,3.5,112,145.01
1666,B1,204.0,0.5,117,145.01
1667,B2,204.0,2.0,124,145.01
1668,F#5,204.0,3.0,113,145.01
1669,A5,204.0,3.0,113,145.01
1670,E-4,204.0,3.5,122,145.01
1671,C2,204.0,0.5,106,145.01
1672,B-2,204.0,0.5,106,145.01
1673,E-4,204.5,1.5,112,145.01
1674,B1,204.5,0.5,117,145.01
1675,B-2,204.5,0.5,89,145.01
1676,B1,205.0,0.5,118,145.01
1677,E2,205.0,0.5,106,145.01
1678,B-2,205.0,0.5,106,145.01
1679,F#3,205.5,2.0,112,145.01
1680,B1,205.5,0.5,118,145.01
1681,B-2,205.5,0.5,89,145.01
1682,E2,205.75,0.5,123,145.01
1683,E4,206.0,2.0,122,145.01
1684,B1,206.0,0.5,119,145.01
1685,B2,206.0,1.0,113,145.01
1686,C2,206.0,0.5,106,145.01
1687,B-2,206.0,0.5,106,145.01
1688,E2,206.25,0.5,123,145.01
1689,B1,206.5,0.5,120,145.01
1690,B-2,206.5,0.5,106,145.01
1691,C2,206.5,0.5,106,145.01
1692,B1,207.0,0.5,120,145.01
1693,B2,207.0,1.0,113,145.01
1694,E2,207.0,0.5,118,145.01
1695,C#3,207.0,0.5,118,145.01
1696,B1,207.5,0.5,121,145.01
1697,E3,208.0,1.5,122,145.01
1698,E2,208.0,1.5,113,145.01
1699,E2,208.0,1.0,113,145.01
1700,B2,208.0,0.5,123,145.01
1701,E3,208.0,0.5,123,145.01
1702,E4,208.0,1.5,107,145.01
1703,G#4,208.0,1.5,107,145.01
1704,C2,208.0,0.5,118,145.01
1705,C#3,208.0,0.5,118,145.01
1706,G#5,208.031,69/50,123,145.01
1707,B5,208.031,69/50,123,145.01
1708,B2,209.0,1.5,82,145.01
1709,F#2,209.0,0.5,106,145.01
1710,E2,209.0,0.5,106,145.01
1711,F#5,209.458,1323/1000,123,145.01
1712,A5,209.458,1323/1000,123,145.01
1713,E-3,209.5,1.5,122,145.01
1714,B1,209.5,1.5,113,145.01
1715,E-4,209.5,1.0,104,145.01
1716,F#4,209.5,1.5,104,145.01
1717,F#2,209.5,0.5,118,145.01
1718,B2,209.5,0.5,118,145.01
1719,F#2,209.5,0.5,106,145.01
1720,C2,209.5,0.5,106,145.01
1721,F#2,210.0,0.5,89,145.01
1722,B2,210.5,0.5,82,145.01
1723,C#3,210.5,0.5,55,145.01
1724,F#2,210.5,0.5,106,145.01
1725,C2,210.5,0.5,106,145.01
1726,E5,210.875,1.125,113,145.01
1727,G#5,210.875,1.125,113,145.01
1728,C#3,211.0,1.0,112,145.01
1729,C#2,211.0,1.0,122,145.01
1730,G#2,211.0,1.0,113,145.01
1731,C#3,211.0,1.0,113,145.01
1732,E4,211.0,1.0,100,145.01
1733,G#4,211.0,1.0,100,145.01
1734,E2,211.0,0.5,118,145.01
1735,C#3,211.0,0.5,118,145.01
1736,C#3,212.0,4.0,112,145.01
1737,C#2,212.0,0.5,122,145.01
1738,G#2,212.0,1.0,113,145.01
1739,C#3,212.0,0.5,113,145.01
1740,E5,212.0,927/500,113,145.01
1741,G#5,212.0,927/500,113,145.01
1742,F#2,212.0,0.5,89,145.01
1743,E4,212.0,0.5,100,145.01
1744,G#4,212.0,0.5,100,145.01
1745,G#3,212.5,0.5,112,145.01
1746,C#2,212.5,0.5,103,145.01
1747,C#3,212.5,0.5,123,145.01
1748,C#4,212.5,1.0,107,145.01
1749,F#2,212.5,0.5,106,145.01
1750,C2,212.5,0.5,106,145.01
1751,C#4,213.0,1.0,112,145.01
1752,C#2,213.0,0.5,105,145.01
1753,G#2,213.0,0.5,70,145.01
1754,C#3,213.0,0.5,70,145.01
1755,F#2,213.0,0.5,106,145.01
1756,E2,213.0,0.5,106,145.01
1757,G#3,213.5,2.0,112,145.01
1758,C#2,213.5,0.5,113,145.01
1759,C#4,213.5,0.5,95,145.01
1760,F#2,213.5,0.5,89,145.01
1761,G#2,213.5,0.5,108,145.01
1762,C#3,213.5,0.5,108,145.01
1763,E2,213.75,0.5,123,145.01
1764,E4,214.0,2.0,102,145.01
1765,C#2,214.0,0.5,103,145.01
1766,C#4,214.0,0.5,95,145.01
1767,G#2,214.0,0.5,78,145.01
1768,C#3,214.0,0.5,78,145.01
1769,F#2,214.0,0.5,106,145.01
1770,C2,214.0,0.5,106,145.01
1771,C#5,214.417,19/50,113,145.01
1772,E5,214.417,19/50,113,145.01
1773,C#2,214.5,0.5,113,145.01
1774,C#4,214.5,0.5,113,145.01
1775,G#2,214.5,0.5,103,145.01
1776,C#3,214.5,0.5,103,145.01
1777,F#2,214.5,0.5,106,145.01
1778,C2,214.5,0.5,106,145.01
1779,C#5,214.958,0.297,113,145.01
1780,E5,214.958,0.297,113,145.01
1781,C#4,215.0,1.0,92,145.01
1782,C#2,215.0,0.5,113,145.01
1783,B3,215.0,0.5,107,145.01
1784,G#2,215.0,1.0,85,145.01
1785,C#3,215.0,1.0,85,145.01
1786,F#2,215.0,0.5,106,145.01
1787,E2,215.0,0.5,106,145.01
1788,C#5,215.406,54/125,111,145.01
1789,E5,215.406,54/125,111,145.01
1790,C#2,215.5,0.5,113,145.01
1791,G#3,215.5,0.5,113,145.01
1792,C2,215.5,0.5,123,145.01
1793,G#5,215.958,21/500,123,145.01
1794,B5,215.958,21/500,123,145.01
1795,G#3,216.0,1.5,122,145.01
1796,E2,216.0,1.5,103,145.01
1797,G#5,216.0,1229/1000,123,145.01
1798,B5,216.0,1229/1000,123,145.01
1799,B2,216.0,0.5,120,145.01
1800,E2,216.0,0.5,120,145.01
1801,E3,216.0,0.5,120,145.01
1802,E4,216.0,1.5,113,145.01
1803,G#4,216.0,1.5,113,145.01
1804,C#3,216.0,0.5,118,145.01
1805,C2,216.0,0.5,118,145.01
1806,E3,217.0,0.5,92,145.01
1807,F#2,217.0,0.5,106,145.01
1808,E2,217.0,0.5,106,145.01
1809,F#5,217.292,151/100,113,145.01
1810,A5,217.292,151/100,113,145.01
1811,E-3,217.5,1.5,122,145.01
1812,B1,217.5,1.5,113,145.01
1813,F#2,217.5,1.0,113,145.01
1814,B2,217.5,0.5,123,145.01
1815,F#4,217.5,1.5,100,145.01
1816,E-4,217.5,1.5,100,145.01
1817,C2,217.5,0.5,106,145.01
1818,F#2,217.5,0.5,106,145.01
1819,F#2,218.0,0.5,89,145.01
1820,B2,218.5,0.5,102,145.01
1821,F#2,218.5,0.5,106,145.01
1822,C2,218.5,0.5,106,145.01
1823,E5,218.849,1151/1000,123,145.01
1824,G#5,218.849,1151/1000,123,145.01
1825,C#3,219.0,1.0,112,145.01
1826,C#2,219.0,1.0,113,145.01
1827,G#2,219.0,1.0,113,145.01
1828,C#3,219.0,1.0,123,145.01
1829,C#4,219.0,1.0,113,145.01
1830,C#3,219.0,0.5,118,145.01
1831,E2,219.0,0.5,118,145.01
1832,C#3,220.0,4.0,112,145.01
1833,C#2,220.0,0.5,113,145.01
1834,G#2,220.0,1.0,113,145.01
1835,C#3,220.0,0.5,123,145.01
1836,E5,220.0,263/125,123,145.01
1837,G#5,220.0,263/125,123,145.01
1838,C#4,220.0,0.5,113,145.01
1839,F#2,220.0,0.5,89,145.01
1840,G#3,220.5,0.5,102,145.01
1841,C#2,220.5,0.5,99,145.01
1842,C#3,220.5,0.5,103,145.01
1843,C#4,220.5,0.5,95,145.01
1844,F#2,220.5,0.5,106,145.01
1845,C2,220.5,0.5,106,145.01
1846,C#4,221.0,1.0,112,145.01
1847,C#2,221.0,0.5,113,145.01
1848,C#4,221.0,2.0,82,145.01
1849,G#2,221.0,0.5,78,145.01
1850,C#3,221.0,0.5,78,145.01
1851,F#2,221.0,0.5,106,145.01
1852,E2,221.0,0.5,106,145.01
1853,G#3,221.5,2.0,122,145.01
1854,C#2,221.5,0.5,113,145.01
1855,F#2,221.5,0.5,89,145.01
1856,G#2,221.5,0.5,100,145.01
1857,C#3,221.5,0.5,100,145.01
1858,E2,221.75,0.5,123,145.01
1859,E4,222.0,1.5,112,145.01
1860,C#2,222.0,0.5,113,145.01
1861,G#4,222.0,2.0,95,145.01
1862,G#2,222.0,0.5,75,145.01
1863,C#3,222.0,0.5,75,145.01
1864,F#2,222.0,0.5,106,145.01
1865,C2,222.0,0.5,106,145.01
1866,E2,222.25,0.5,123,145.01
1867,C#2,222.5,0.5,113,145.01
1868,G#2,222.5,0.5,106,145.01
1869,C#3,222.5,0.5,106,145.01
1870,F#2,222.5,0.5,106,145.01
1871,C2,222.5,0.5,106,145.01
1872,C#4,223.0,0.5,112,145.01
1873,C#2,223.0,0.5,113,145.01
1874,G#2,223.0,1.0,88,145.01
1875,C#3,223.0,0.5,82,145.01
1876,C#4,223.0,1.0,86,145.01
1877,F#2,223.0,0.5,106,145.01
1878,E2,223.0,0.5,106,145.01
1879,C#2,223.5,0.5,113,145.01
1880,C#3,223.5,0.5,103,145.01
1881,C2,223.5,0.5,123,145.01
1882,A5,223.984,0.016,123,145.01
1883,C#6,223.984,0.016,123,145.01
1884,C#3,224.0,3.5,112,145.01
1885,F#2,224.0,0.5,113,145.01
1886,A5,224.0,479/1000,123,145.01
1887,C#6,224.0,479/1000,123,145.01
1888,F#4,224.0,0.5,122,145.01
1889,F#3,224.0,3.5,113,145.01
1890,C#3,224.0,3.5,113,145.01
1891,F#2,224.0,3.5,113,145.01
1892,C2,224.0,0.5,118,145.01
1893,C#3,224.0,0.5,118,145.01
1894,F#3,224.5,2.0,102,145.01
1895,F#2,224.5,0.5,93,145.01
1896,F#4,224.5,0.5,95,145.01
1897,E-3,224.5,0.5,112,145.01
1898,G#5,224.542,0.734,113,145.01
1899,B5,224.542,0.734,113,145.01
1900,F#2,225.0,0.5,113,145.01
1901,C#4,225.0,0.5,104,145.01
1902,E-3,225.0,0.5,118,145.01
1903,E2,225.0,0.5,118,145.01
1904,F#5,225.385,123/200,113,145.01
1905,A5,225.385,123/200,113,145.01
1906,C#4,225.5,2.5,122,145.01
1907,F#2,225.5,0.5,103,145.01
1908,C#4,225.5,0.5,95,145.01
1909,E-3,225.5,0.5,112,145.01
1910,E2,225.75,0.5,123,145.01
1911,F#2,226.0,0.5,113,145.01
1912,F#4,226.0,0.5,122,145.01
1913,C2,226.0,0.5,118,145.01
1914,E-3,226.0,0.5,118,145.01
1915,E5,226.068,143/500,123,145.01
1916,G#5,226.068,143/500,123,145.01
1917,E5,226.469,0.562,113,145.01
1918,G#5,226.469,0.562,113,145.01
1919,A3,226.5,1.5,102,145.01
1920,F#2,226.5,0.5,103,145.01
1921,F#4,226.5,0.5,93,145.01
1922,E-3,226.5,0.5,118,145.01
1923,C2,226.5,0.5,118,145.01
1924,F#2,227.0,0.5,112,145.01
1925,C#4,227.0,0.5,113,145.01
1926,E-3,227.0,0.5,118,145.01
1927,E2,227.0,0.5,118,145.01
1928,A5,227.469,0.531,123,145.01
1929,C#6,227.469,0.531,123,145.01
1930,F#3,227.5,0.5,92,145.01
1931,F#2,227.5,0.5,103,145.01
1932,C#4,227.5,0.5,95,145.01
1933,C2,227.5,0.5,118,145.01
1934,E-3,227.5,0.5,118,145.01
1935,C#3,228.0,3.5,122,145.01
1936,A3,228.0,0.5,102,145.01
1937,F#2,228.0,0.5,111,145.01
1938,A5,228.0,0.406,123,145.01
1939,C#6,228.0,0.406,123,145.01
1940,F#4,228.0,0.5,113,145.01
1941,F#3,228.0,2.0,120,145.01
1942,F#2,228.0,2.0,120,145.01
1943,C#3,228.0,2.0,120,145.01
1944,E-3,228.0,0.5,118,145.01
1945,C2,228.0,0.5,118,145.01
1946,G#5,228.448,22/25,113,145.01
1947,B5,228.448,22/25,113,145.01
1948,F#3,228.5,2.0,112,145.01
1949,F#2,228.5,0.5,93,145.01
1950,F#4,228.5,0.5,100,145.01
1951,E-3,228.5,0.5,112,145.01
1952,F#2,229.0,0.5,114,145.01
1953,C#4,229.0,0.5,113,145.01
1954,E-3,229.0,0.5,112,145.01
1955,E2,229.0,0.25,123,145.01
1956,F#5,229.396,917/1000,111,145.01
1957,A5,229.396,917/1000,111,145.01
1958,C#4,229.5,2.5,112,145.01
1959,F#2,229.5,0.5,103,145.01
1960,C#4,229.5,0.5,95,145.01
1961,E-3,229.5,0.5,112,145.01
1962,E2,229.75,0.25,123,145.01
1963,F#2,230.0,0.5,103,145.01
1964,F#4,230.0,0.5,122,145.01
1965,E-3,230.0,0.5,112,145.01
1966,C2,230.0,0.25,123,145.01
1967,E2,230.25,0.25,123,145.01
1968,E5,230.396,557/1000,113,145.01
1969,G#5,230.396,557/1000,113,145.01
1970,A3,230.5,1.5,102,145.01
1971,F#2,230.5,0.5,113,145.01
1972,F#4,230.5,0.5,104,145.01
1973,E-3,230.5,0.5,112,145.01
1974,C2,230.5,0.25,123,145.01
1975,G#2,231.0,0.5,122,145.01
1976,C#4,231.0,0.5,113,145.01
1977,E-3,231.0,0.5,112,145.01
1978,E2,231.0,0.25,123,145.01
1979,F#3,231.5,0.5,92,145.01
1980,G#2,231.5,0.5,113,145.01
1981,C#4,231.5,0.5,104,145.01
1982,E-3,231.5,0.5,112,145.01
1983,C2,231.5,0.25,123,145.01
1984,G#3,231.5,0.5,118,145.01
1985,G#2,231.5,0.5,118,145.01
1986,A5,231.948,13/250,123,145.01
1987,C#6,231.948,13/250,123,145.01
1988,C#3,232.0,3.5,112,145.01
1989,A2,232.0,0.5,122,145.01
1990,A5,232.0,573/1000,123,145.01
1991,C#6,232.0,573/1000,123,145.01
1992,A3,232.0,3.5,113,145.01
1993,A2,232.0,3.5,113,145.01
1994,A3,232.0,4.0,113,145.01
1995,E3,232.0,4.0,113,145.01
1996,C2,232.0,0.5,118,145.01
1997,C#3,232.0,0.5,118,145.01
1998,E3,232.5,2.0,122,145.01
1999,A2,232.5,0.5,113,145.01
2000,E-3,232.5,0.5,112,145.01
2001,G#5,232.51,201/200,113,145.01
2002,B5,232.51,201/200,113,145.01
2003,A2,233.0,0.5,113,145.01
2004,E2,233.0,0.5,118,145.01
2005,E-3,233.0,0.5,118,145.01
2006,F#5,233.458,237/250,111,145.01
2007,A5,233.458,237/250,111,145.01
2008,C#4,233.5,2.0,122,145.01
2009,A2,233.5,0.5,113,145.01
2010,E-3,233.5,0.5,112,145.01
2011,A2,234.0,0.5,113,145.01
2012,C2,234.0,0.5,118,145.01
2013,E-3,234.0,0.5,118,145.01
2014,E5,234.411,87/100,111,145.01
2015,G#5,234.411,87/100,111,145.01
2016,A3,234.5,1.5,102,145.01
2017,A2,234.5,0.5,113,145.01
2018,C2,234.5,0.5,118,145.01
2019,E-3,234.5,0.5,118,145.01
2020,A2,235.0,0.5,113,145.01
2021,E-3,235.0,0.5,118,145.01
2022,E2,235.0,0.5,118,145.01
2023,E5,235.417,583/1000,111,145.01
2024,G#5,235.417,583/1000,111,145.01
2025,E3,235.5,0.5,102,145.01
2026,A2,235.5,0.5,113,145.01
2027,E-3,235.5,0.5,112,145.01
2028,E-3,236.0,4.0,102,145.01
2029,B2,236.0,0.5,122,145.01
2030,E5,236.0,127/200,111,145.01
2031,G#5,236.0,127/200,111,145.01
2032,F#3,236.0,4.0,126,145.01
2033,B3,236.0,4.0,126,145.01
2034,B2,236.0,4.0,126,145.01
2035,F#3,236.0,4.0,108,145.01
2036,B3,236.0,4.0,108,145.01
2037,E-3,236.0,0.5,118,145.01
2038,C2,236.0,0.5,118,145.01
2039,F#3,236.5,3.5,108,145.01
2040,B2,236.5,0.5,113,145.01
2041,C#3,236.5,0.5,118,145.01
2042,E2,236.5,0.5,118,145.01
2043,E-5,236.583,759/250,111,145.01
2044,F#5,236.583,759/250,111,145.01
2045,B2,237.0,0.5,113,145.01
2046,E-3,237.0,0.5,118,145.01
2047,C2,237.0,0.5,118,145.01
2048,B3,237.5,2.5,107,145.01
2049,B2,237.5,0.5,113,145.01
2050,E-3,237.5,0.5,118,145.01
2051,C2,237.5,0.5,118,145.01
2052,B2,238.0,0.5,113,145.01
2053,C#3,238.0,0.5,118,145.01
2054,E2,238.0,0.5,118,145.01
2055,E-4,238.5,1.5,102,145.01
2056,B2,238.5,0.5,113,145.01
2057,C2,238.5,0.5,123,145.01
2058,B2,239.0,0.5,113,145.01
2059,E2,239.0,0.25,123,145.01
2060,E2,239.25,0.25,123,145.01
2061,B2,239.5,0.5,113,145.01
2062,E2,239.5,0.25,123,145.01
2063,E2,239.75,0.25,123,145.01
2064,E3,240.0,1.5,122,145.01
2065,E2,240.0,1.5,113,145.01
2066,E2,240.0,1.0,113,145.01
2067,E2,240.0,0.25,123,145.01
2068,B2,240.0,0.5,123,145.01
2069,E3,240.0,0.5,123,145.01
2070,E4,240.0,1.5,107,145.01
2071,G#4,240.0,1.5,107,145.01
2072,C2,240.0,0.5,118,145.01
2073,C#3,240.0,0.5,118,145.01
2074,G#5,240.104,1.344,127,145.01
2075,B5,240.104,1.344,127,145.01
2076,B2,241.0,1.5,82,145.01
2077,F#2,241.0,0.5,106,145.01
2078,E2,241.0,0.5,106,145.01
2079,E-3,241.5,1.5,122,145.01
2080,B1,241.5,1.5,113,145.01
2081,E-4,241.5,1.0,104,145.01
2082,F#4,241.5,1.5,104,145.01
2083,F#2,241.5,0.5,118,145.01
2084,B2,241.5,0.5,118,145.01
2085,F#2,241.5,0.5,106,145.01
2086,C2,241.5,0.5,106,145.01
2087,F#5,241.516,659/500,123,145.01
2088,A5,241.516,659/500,123,145.01
2089,F#2,242.0,0.5,89,145.01
2090,B2,242.5,0.5,82,145.01
2091,C#3,242.5,0.5,55,145.01
2092,F#2,242.5,0.5,106,145.01
2093,C2,242.5,0.5,106,145.01
2094,E5,242.911,1089/1000,113,145.01
2095,G#5,242.911,1089/1000,113,145.01
2096,C#3,243.0,1.0,112,145.01
2097,C#2,243.0,1.0,122,145.01
2098,G#2,243.0,1.0,113,145.01
2099,C#3,243.0,1.0,113,145.01
2100,E4,243.0,1.0,100,145.01
2101,G#4,243.0,1.0,100,145.01
2102,E2,243.0,0.5,118,145.01
2103,C#3,243.0,0.5,118,145.01
2104,C#3,244.0,4.0,112,145.01
2105,C#2,244.0,0.5,122,145.01
2106,G#2,244.0,1.0,113,145.01
2107,C#3,244.0,0.5,113,145.01
2108,E5,244.0,1.797,113,145.01
2109,G#5,244.0,1.797,113,145.01
2110,F#2,244.0,0.5,89,145.01
2111,E4,244.0,0.5,100,145.01
2112,G#4,244.0,0.5,100,145.01
2113,G#3,244.5,0.5,112,145.01
2114,C#2,244.5,0.5,100,145.01
2115,C#3,244.5,0.5,123,145.01
2116,C#4,244.5,1.0,107,145.01
2117,F#2,244.5,0.5,106,145.01
2118,C2,244.5,0.5,106,145.01
2119,C#4,245.0,1.0,112,145.01
2120,C#2,245.0,0.5,103,145.01
2121,G#2,245.0,0.5,70,145.01
2122,C#3,245.0,0.5,70,145.01
2123,F#2,245.0,0.5,106,145.01
2124,E2,245.0,0.5,106,145.01
2125,G#3,245.5,2.0,112,145.01
2126,C#2,245.5,0.5,107,145.01
2127,C#4,245.5,0.5,95,145.01
2128,F#2,245.5,0.5,89,145.01
2129,G#2,245.5,0.5,108,145.01
2130,C#3,245.5,0.5,108,145.01
2131,E2,245.75,0.5,123,145.01
2132,E4,246.0,2.0,102,145.01
2133,C#2,246.0,0.5,111,145.01
2134,C#4,246.0,0.5,95,145.01
2135,G#2,246.0,0.5,78,145.01
2136,C#3,246.0,0.5,78,145.01
2137,F#2,246.0,0.5,106,145.01
2138,C2,246.0,0.5,106,145.01
2139,C#5,246.448,77/200,113,145.01
2140,E5,246.448,77/200,113,145.01
2141,C#2,246.5,0.5,114,145.01
2142,C#4,246.5,0.5,113,145.01
2143,G#2,246.5,0.5,103,145.01
2144,C#3,246.5,0.5,103,145.01
2145,F#2,246.5,0.5,106,145.01
2146,C2,246.5,0.5,106,145.01
2147,C#5,246.964,177/500,123,145.01
2148,E5,246.964,177/500,123,145.01
2149,C#4,247.0,1.0,92,145.01
2150,C#2,247.0,0.5,118,145.01
2151,B3,247.0,0.5,107,145.01
2152,G#2,247.0,1.0,85,145.01
2153,C#3,247.0,1.0,85,145.01
2154,F#2,247.0,0.5,106,145.01
2155,E2,247.0,0.5,106,145.01
2156,C#5,247.469,0.531,113,145.01
2157,E5,247.469,0.531,113,145.01
2158,E2,247.5,0.5,122,145.01
2159,G#3,247.5,0.5,113,145.01
2160,C2,247.5,0.5,123,145.01
2161,G#3,248.0,1.5,122,145.01
2162,E2,248.0,1.5,122,145.01
2163,C#5,248.0,1/200,113,145.01
2164,E5,248.0,1/200,113,145.01
2165,B2,248.0,0.5,120,145.01
2166,E2,248.0,0.5,120,145.01
2167,E3,248.0,0.5,120,145.01
2168,E4,248.0,1.5,113,145.01
2169,G#4,248.0,1.5,113,145.01
2170,C#3,248.0,0.5,118,145.01
2171,C2,248.0,0.5,118,145.01
2172,G#5,248.062,113/100,123,145.01
2173,B5,248.062,113/100,123,145.01
2174,E3,249.0,0.5,92,145.01
2175,F#2,249.0,0.5,106,145.01
2176,E2,249.0,0.5,106,145.01
2177,F#5,249.333,0.938,113,145.01
2178,A5,249.333,0.938,113,145.01
2179,E-3,249.5,1.5,122,145.01
2180,B1,249.5,1.5,113,145.01
2181,F#2,249.5,1.0,113,145.01
2182,B2,249.5,0.5,123,145.01
2183,F#4,249.5,1.5,100,145.01
2184,E-4,249.5,1.5,100,145.01
2185,C2,249.5,0.5,106,145.01
2186,F#2,249.5,0.5,106,145.01
2187,F#2,250.0,0.5,89,145.01
2188,E5,250.49,479/1000,111,145.01
2189,G#5,250.49,479/1000,111,145.01
2190,B2,250.5,0.5,102,145.01
2191,F#2,250.5,0.5,106,145.01
2192,C2,250.5,0.5,106,145.01
2193,C#3,251.0,1.0,112,145.01
2194,C#2,251.0,1.0,122,145.01
2195,G#2,251.0,1.0,113,145.01
2196,C#3,251.0,1.0,123,145.01
2197,C#4,251.0,1.0,113,145.01
2198,C#3,251.0,0.5,118,145.01
2199,E2,251.0,0.5,118,145.01
2200,E5,251.104,112/125,113,145.01
2201,G#5,251.104,112/125,113,145.01
2202,C#3,252.0,4.0,112,145.01
2203,C#2,252.0,0.5,122,145.01
2204,G#2,252.0,1.0,113,145.01
2205,C#3,252.0,0.5,123,145.01
2206,E5,252.0,1401/500,113,145.01
2207,G#5,252.0,1401/500,113,145.01
2208,C#4,252.0,0.5,113,145.01
2209,F#2,252.0,0.5,89,145.01
2210,G#3,252.5,0.5,102,145.01
2211,C#2,252.5,0.5,99,145.01
2212,C#3,252.5,0.5,103,145.01
2213,C#4,252.5,0.5,95,145.01
2214,F#2,252.5,0.5,106,145.01
2215,C2,252.5,0.5,106,145.01
2216,C#4,253.0,1.0,112,145.01
2217,C#2,253.0,0.5,103,145.01
2218,C#4,253.0,2.0,82,145.01
2219,G#2,253.0,0.5,78,145.01
2220,C#3,253.0,0.5,78,145.01
2221,F#2,253.0,0.5,106,145.01
2222,E2,253.0,0.5,106,145.01
2223,G#3,253.5,2.0,122,145.01
2224,C#2,253.5,0.5,107,145.01
2225,F#2,253.5,0.5,89,145.01
2226,G#2,253.5,0.5,100,145.01
2227,C#3,253.5,0.5,100,145.01
2228,E2,253.75,0.5,123,145.01
2229,E4,254.0,1.5,112,145.01
2230,C#2,254.0,0.5,112,145.01
2231,G#4,254.0,2.0,95,145.01
2232,G#2,254.0,0.5,75,145.01
2233,C#3,254.0,0.5,75,145.01
2234,F#2,254.0,0.5,106,145.01
2235,C2,254.0,0.5,106,145.01
2236,E2,254.25,0.5,123,145.01
2237,C#2,254.5,0.5,116,145.01
2238,G#2,254.5,0.5,106,145.01
2239,C#3,254.5,0.5,106,145.01
2240,F#2,254.5,0.5,106,145.01
2241,C2,254.5,0.5,106,145.01
2242,C#4,255.0,0.5,112,145.01
2243,C#2,255.0,0.5,120,145.01
2244,G#2,255.0,1.0,88,145.01
2245,C#3,255.0,0.5,82,145.01
2246,C#4,255.0,1.0,86,145.01
2247,F#2,255.0,0.5,106,145.01
2248,E2,255.0,0.5,106,145.01
2249,C#2,255.5,0.5,120,145.01
2250,C#3,255.5,0.5,103,145.01
2251,E2,255.5,0.25,123,145.01
2252,C#5,255.51,49/100,123,145.01
2253,E5,255.51,49/100,123,145.01
2254,E2,255.75,0.25,123,145.01
2255,C#3,256.0,3.5,112,145.01
2256,F#2,256.0,0.5,113,145.01
2257,C#5,256.0,21/1000,123,145.01
2258,E5,256.0,21/1000,123,145.01
2259,F#4,256.0,0.5,122,145.01
2260,E2,256.0,0.25,123,145.01
2261,C#3,256.0,3.5,113,145.01
2262,F#2,256.0,3.5,113,145.01
2263,F#3,256.0,3.5,113,145.01
2264,C2,256.0,0.5,118,145.01
2265,C#3,256.0,0.5,118,145.01
2266,A5,256.031,0.688,123,145.01
2267,C#6,256.031,0.688,123,145.01
2268,F#3,256.5,2.0,102,145.01
2269,F#2,256.5,0.5,103,145.01
2270,F#4,256.5,0.5,95,145.01
2271,B-2,256.5,0.5,89,145.01
2272,G#5,256.635,917/1000,113,145.01
2273,B5,256.635,917/1000,113,145.01
2274,F#2,257.0,0.5,110,145.01
2275,C#4,257.0,0.5,104,145.01
2276,B-2,257.0,0.5,106,145.01
2277,E2,257.0,0.5,106,145.01
2278,C#4,257.5,2.5,122,145.01
2279,F#2,257.5,0.5,103,145.01
2280,C#4,257.5,0.5,95,145.01
2281,B-2,257.5,0.5,89,145.01
2282,F#5,257.568,112/125,111,145.01
2283,A5,257.568,112/125,111,145.01
2284,E2,257.75,0.5,123,145.01
2285,F#2,258.0,0.5,104,145.01
2286,F#4,258.0,0.5,122,145.01
2287,C2,258.0,0.5,106,145.01
2288,B-2,258.0,0.5,106,145.01
2289,E5,258.479,101/100,123,145.01
2290,G#5,258.479,101/100,123,145.01
2291,A3,258.5,1.5,102,145.01
2292,F#2,258.5,0.5,104,145.01
2293,F#4,258.5,0.5,93,145.01
2294,B-2,258.5,0.5,106,145.01
2295,C2,258.5,0.5,106,145.01
2296,F#2,259.0,0.5,105,145.01
2297,C#4,259.0,0.5,113,145.01
2298,B-2,259.0,0.5,106,145.01
2299,E2,259.0,0.5,106,145.01
2300,F#3,259.5,0.5,92,145.01
2301,F#2,259.5,0.5,105,145.01
2302,C#4,259.5,0.5,95,145.01
2303,C2,259.5,0.5,106,145.01
2304,B-2,259.5,0.5,106,145.01
2305,A5,259.505,99/200,113,145.01
2306,C#6,259.505,99/200,113,145.01
2307,C#3,260.0,3.5,122,145.01
2308,A3,260.0,0.5,102,145.01
2309,F#2,260.0,0.5,105,145.01
2310,A5,260.0,159/500,113,145.01
2311,C#6,260.0,159/500,113,145.01
2312,F#4,260.0,0.5,113,145.01
2313,F#2,260.0,2.5,110,145.01
2314,C#3,260.0,2.5,110,145.01
2315,F#3,260.0,2.5,110,145.01
2316,B-2,260.0,0.5,106,145.01
2317,C2,260.0,0.5,106,145.01
2318,F#3,260.5,2.0,112,145.01
2319,F#2,260.5,0.5,106,145.01
2320,G#5,260.5,0.953,113,145.01
2321,B5,260.5,0.953,113,145.01
2322,F#4,260.5,0.5,100,145.01
2323,B-2,260.5,0.5,89,145.01
2324,F#2,261.0,0.5,106,145.01
2325,C#4,261.0,0.5,113,145.01
2326,B-2,261.0,0.5,89,145.01
2327,E2,261.0,0.25,123,145.01
2328,C#4,261.5,2.5,112,145.01
2329,G#2,261.5,0.5,106,145.01
2330,C#4,261.5,0.5,95,145.01
2331,B-2,261.5,0.5,89,145.01
2332,F#5,261.505,0.891,111,145.01
2333,A5,261.505,0.891,111,145.01
2334,E2,261.75,0.25,123,145.01
2335,G#2,262.0,0.5,107,145.01
2336,F#4,262.0,0.5,122,145.01
2337,B-2,262.0,0.5,89,145.01
2338,C2,262.0,0.25,123,145.01
2339,E2,262.25,0.25,123,145.01
2340,E5,262.484,849/1000,113,145.01
2341,G#5,262.484,849/1000,113,145.01
2342,A3,262.5,1.5,102,145.01
2343,G#2,262.5,0.5,107,145.01
2344,F#4,262.5,0.5,104,145.01
2345,B-2,262.5,0.5,89,145.01
2346,C2,262.5,0.25,123,145.01
2347,A2,263.0,0.5,107,145.01
2348,C#4,263.0,0.5,113,145.01
2349,C#3,263.0,0.5,112,145.01
2350,E2,263.0,0.25,123,145.01
2351,F#3,263.5,0.5,92,145.01
2352,A2,263.5,0.5,113,145.01
2353,C#4,263.5,0.5,104,145.01
2354,B-2,263.5,0.5,89,145.01
2355,C2,263.5,0.25,123,145.01
2356,B2,264.0,4.0,123,145.01
2357,B1,264.0,0.5,113,145.01
2358,B3,264.0,2.5,113,145.01
2359,B2,264.0,3.5,123,145.01
2360,B3,264.0,4.0,114,145.01
2361,C2,264.0,0.5,118,145.01
2362,C#3,264.0,0.5,118,145.01
2363,E-5,264.026,1521/1000,123,145.01
2364,F#5,264.026,1521/1000,123,145.01
2365,B1,264.5,0.5,113,145.01
2366,E-3,264.5,0.5,112,145.01
2367,E-3,265.0,2.5,112,145.01
2368,B1,265.0,0.5,113,145.01
2369,E2,265.0,0.5,118,145.01
2370,E-3,265.0,0.5,118,145.01
2371,F#3,265.5,2.5,112,145.01
2372,B1,265.5,0.5,113,145.01
2373,E-3,265.5,0.5,112,145.01
2374,E5,265.536,943/1000,123,145.01
2375,G#5,265.536,943/1000,123,145.01
2376,B1,266.0,0.5,103,145.01
2377,C2,266.0,0.5,118,145.01
2378,E-3,266.0,0.5,118,145.01
2379,B3,266.5,1.5,102,145.01
2380,B1,266.5,0.5,113,145.01
2381,F#5,266.5,1.469,127,145.01
2382,A5,266.5,1.469,127,145.01
2383,C2,266.5,0.5,118,145.01
2384,E-3,266.5,0.5,118,145.01
2385,B1,267.0,0.5,113,145.01
2386,E-3,267.0,0.5,118,145.01
2387,E2,267.0,0.5,118,145.01
2388,B1,267.5,0.5,113,145.01
2389,E-3,267.5,0.5,112,145.01
2390,A5,267.927,73/1000,123,145.01
2391,C#6,267.927,73/1000,123,145.01
2392,A2,268.0,1/200,116,145.01
2393,A3,268.0,1.5,112,145.01
2394,A1,268.0,0.5,113,145.01
2395,A5,268.0,4.0,123,145.01
2396,C#6,268.0,4.0,123,145.01
2397,A3,268.0,4.0,104,145.01
2398,A3,268.0,1.5,118,145.01
2399,E3,268.0,1.5,118,145.01
2400,A2,268.0,1.5,118,145.01
2401,E-3,268.0,0.5,118,145.01
2402,C2,268.0,0.5,118,145.01
2403,E3,268.5,1.5,102,145.01
2404,A1,268.5,0.5,113,145.01
2405,E-3,268.5,0.5,112,145.01
2406,A1,269.0,0.5,113,145.01
2407,E-3,269.0,0.5,118,145.01
2408,E2,269.0,0.5,118,145.01
2409,A3,269.5,2.5,102,145.01
2410,A1,269.5,0.5,113,145.01
2411,E3,269.5,2.5,103,145.01
2412,E-3,269.5,0.5,112,145.01
2413,A3,269.5,1.5,108,145.01
2414,A2,269.5,1.5,108,145.01
2415,E2,269.75,0.5,123,145.01
2416,A1,270.0,0.5,113,145.01
2417,E-3,270.0,0.5,118,145.01
2418,C2,270.0,0.5,118,145.01
2419,A1,270.5,0.5,103,145.01
2420,E-3,270.5,0.5,118,145.01
2421,C2,270.5,0.5,118,145.01
2422,E3,271.0,1.0,102,145.01
2423,A1,271.0,0.5,108,145.01
2424,A3,271.0,1.0,118,145.01
2425,A2,271.0,1.0,118,145.01
2426,E-3,271.0,0.5,118,145.01
2427,E2,271.0,0.5,118,145.01
2428,A1,271.5,0.5,107,145.01
2429,E-3,271.5,0.5,118,145.01
2430,E2,271.5,0.5,118,145.01
2431,A2,272.0,0.5,112,145.01
2432,E3,272.0,0.5,102,145.01
2433,A3,272.0,1/200,102,145.01
2434,A1,272.0,0.5,113,145.01
2435,E3,272.0,3.5,103,145.01
2436,A3,272.0,2.0,122,145.01
2437,C2,272.0,0.5,123,145.01
2438,A3,272.0,0.5,118,145.01
2439,A2,272.0,0.5,118,145.01
2440,A2,272.5,3.0,112,145.01
2441,A1,272.5,0.5,103,145.01
2442,A3,272.5,1.5,108,145.01
2443,A2,272.5,1.5,108,145.01
2444,C#3,272.5,0.5,118,145.01
2445,E2,272.5,0.5,118,145.01
2446,E3,273.0,1/200,82,145.01
2447,A1,273.0,0.5,113,145.01
2448,E-3,273.0,0.5,118,145.01
2449,C2,273.0,0.5,118,145.01
2450,A3,273.5,1/200,112,145.01
2451,A1,273.5,0.5,111,145.01
2452,E3,273.5,1.5,113,145.01
2453,C2,273.5,0.5,118,145.01
2454,E-3,273.5,0.5,118,145.01
2455,A1,274.0,0.5,111,145.01
2456,A3,274.0,1.5,113,145.01
2457,A2,274.0,2.0,113,145.01
2458,E2,274.0,0.5,118,145.01
2459,C#3,274.0,0.5,118,145.01
2460,A1,274.5,0.5,112,145.01
2461,C2,274.5,0.5,123,145.01
2462,C#5,274.891,123/200,113,145.01
2463,E5,274.891,123/200,113,145.01
2464,E3,275.0,1/200,112,145.01
2465,A1,275.0,0.5,112,145.01
2466,A3,275.0,1.0,113,145.01
2467,G2,275.0,0.5,112,145.01
2468,F2,275.0,0.5,112,145.01
2469,E5,275.432,71/125,111,145.01
2470,G#5,275.432,71/125,111,145.01
2471,A1,275.5,0.5,113,145.01
2472,A1,276.0,1.0,114,145.01
2473,E5,276.0,0.016,111,145.01
2474,G#5,276.0,0.016,111,145.01
2475,E3,276.0,1.0,112,145.01
2476,A3,276.0,1.0,112,145.01
2477,A3,276.0,1.0,123,145.01
2478,E3,276.0,1.0,123,145.01
2479,A2,276.0,1.0,123,145.01
2480,G#2,276.0,0.5,112,145.01
2481,C2,276.0,0.5,112,145.01
2482,F#5,276.021,69/125,123,145.01
2483,A5,276.021,69/125,123,145.01
2484,A1,277.0,1.0,122,145.01
2485,E3,277.0,1.0,112,145.01
2486,A3,277.0,1.0,112,145.01
2487,E3,277.0,0.5,113,145.01
2488,A3,277.0,0.5,113,145.01
2489,A2,277.0,0.5,113,145.01
2490,C2,277.0,0.5,112,145.01
2491,G#2,277.0,0.5,112,145.01
2492,E5,277.005,0.875,111,145.01
2493,G#5,277.005,0.875,111,145.01
2494,A2,278.0,0.5,127,145.01
2495,G#2,278.0,0.5,112,145.01
2496,E2,278.0,0.5,112,145.01
2497,A2,278.5,0.5,127,145.01
2498,C2,278.5,0.5,127,145.01
2499,G#2,279.0,0.5,97,145.01
2500,C#5,279.021,573/1000,123,145.01
2501,E5,279.021,573/1000,123,145.01
2502,A2,279.5,0.5,127,145.01
2503,E5,279.5,0.5,111,145.01
2504,G#5,279.5,0.5,111,145.01
2505,C2,279.5,0.5,127,145.01
2506,E3,280.0,0.5,112,145.01
2507,A3,280.0,1.0,102,145.01
2508,A1,280.0,1.0,122,145.01
2509,E3,280.0,2.0,123,145.01
2510,E5,280.0,21/1000,111,145.01
2511,G#5,280.0,21/1000,111,145.01
2512,A3,280.0,1.0,118,145.01
2513,A2,280.0,1.0,118,145.01
2514,G#2,280.0,0.5,112,145.01
2515,C2,280.0,0.5,112,145.01
2516,F#5,280.016,0.953,123,145.01
2517,A5,280.016,0.953,123,145.01
2518,A1,281.0,1.0,113,145.01
2519,E3,281.0,1.0,112,145.01
2520,A3,281.0,1.0,112,145.01
2521,A3,281.0,1.0,108,145.01
2522,A2,281.0,1.0,108,145.01
2523,C2,281.0,0.5,112,145.01
2524,G#2,281.0,0.5,112,145.01
2525,E5,281.005,771/1000,123,145.01
2526,G#5,281.005,771/1000,123,145.01
2527,C2,281.5,0.5,127,145.01
2528,A2,282.0,0.5,127,145.01
2529,G#2,282.0,0.5,112,145.01
2530,E2,282.0,0.5,112,145.01
2531,C#5,282.49,323/1000,123,145.01
2532,E5,282.49,323/1000,123,145.01
2533,A2,282.5,0.5,127,145.01
2534,C2,282.5,0.5,127,145.01
2535,C#5,282.995,729/1000,123,145.01
2536,E5,282.995,729/1000,123,145.01
2537,G#2,283.0,0.5,97,145.01
2538,A2,283.5,0.5,127,145.01
2539,C2,283.5,0.5,127,145.01
2540,A5,283.948,13/250,123,145.01
2541,C#6,283.948,13/250,123,145.01
2542,E1,284.0,1.0,113,145.01
2543,E2,284.0,1.5,113,145.01
2544,A5,284.0,927/1000,123,145.01
2545,C#6,284.0,927/1000,123,145.01
2546,E3,284.0,1.0,102,145.01
2547,B3,284.0,1.0,102,145.01
2548,B2,284.0,1.0,108,145.01
2549,E3,284.0,1.0,108,145.01
2550,G#2,284.0,0.5,112,145.01
2551,C2,284.0,0.5,112,145.01
2552,G#5,284.911,0.562,111,145.01
2553,B5,284.911,0.562,111,145.01
2554,E3,285.0,1.0,112,145.01
2555,B3,285.0,1.5,112,145.01
2556,E1,285.0,1.0,113,145.01
2557,E3,285.0,0.5,113,145.01
2558,B2,285.0,0.5,113,145.01
2559,G#2,285.0,0.5,112,145.01
2560,C2,285.0,0.5,112,145.01
2561,F#5,285.448,927/1000,113,145.01
2562,A5,285.448,927/1000,113,145.01
2563,E2,286.0,0.5,127,145.01
2564,G#2,286.0,0.5,112,145.01
2565,E2,286.0,0.5,112,145.01
2566,E5,286.401,112/125,113,145.01
2567,G#5,286.401,112/125,113,145.01
2568,E2,286.5,0.5,120,145.01
2569,C2,286.5,0.5,127,145.01
2570,G#2,287.0,0.5,97,145.01
2571,B4,287.266,0.734,123,145.01
2572,E-5,287.266,0.734,123,145.01
2573,E2,287.5,0.5,127,145.01
2574,C2,287.5,0.5,127,145.01
2575,F#3,288.0,1.0,102,145.01
2576,B3,288.0,0.5,102,145.01
2577,B1,288.0,1.0,113,145.01
2578,B2,288.0,1.0,123,145.01
2579,B4,288.0,423/200,123,145.01
2580,E-5,288.0,423/200,123,145.01
2581,C2,288.0,0.5,112,145.01
2582,G#2,288.0,0.5,112,145.01
2583,B1,289.0,1.0,113,145.01
2584,B2,289.0,1.0,113,145.01
2585,B3,289.0,1.0,102,145.01
2586,F#3,289.0,1.0,102,145.01
2587,G#2,289.0,0.5,112,145.01
2588,C2,289.0,0.5,112,145.01
2589,C2,289.5,0.5,127,145.01
2590,B2,290.0,0.5,123,145.01
2591,E2,290.0,0.5,112,145.01
2592,B-2,290.0,0.5,112,145.01
2593,C#3,290.5,0.5,122,145.01
2594,G#2,290.5,0.5,112,145.01
2595,C2,290.5,0.5,112,145.01
2596,B4,290.917,417/1000,123,145.01
2597,E-5,290.917,417/1000,123,145.01
2598,E3,291.0,0.5,113,145.01
2599,B-2,291.0,0.5,112,145.01
2600,E2,291.0,0.5,112,145.01
2601,B4,291.495,237/500,123,145.01
2602,E-5,291.495,237/500,123,145.01
2603,F#3,291.5,0.5,113,145.01
2604,C2,291.5,0.5,127,145.01
2605,F#1,292.0,1.0,113,145.01
2606,F#2,292.0,1.0,127,145.01
2607,F#3,292.0,2.5,104,145.01
2608,F#3,292.0,1.0,107,145.01
2609,C#4,292.0,1.0,107,145.01
2610,C#3,292.0,0.5,125,145.01
2611,C2,292.0,0.5,125,145.01
2612,F#5,292.073,0.938,123,145.01
2613,A5,292.073,0.938,123,145.01
2614,G#5,292.99,113/100,127,145.01
2615,B5,292.99,113/100,127,145.01
2616,C#4,293.0,1.5,112,145.01
2617,F#3,293.0,1.0,112,145.01
2618,F#1,293.0,0.5,113,145.01
2619,F#2,293.0,1.0,103,145.01
2620,C2,293.0,0.5,112,145.01
2621,G#2,293.0,0.5,112,145.01
2622,C#2,294.0,0.5,103,145.01
2623,F#2,294.0,0.5,127,145.01
2624,C#3,294.0,0.5,125,145.01
2625,E2,294.0,0.5,125,145.01
2626,B1,294.5,0.5,103,145.01
2627,F#2,294.5,0.5,127,145.01
2628,C2,294.5,0.5,127,145.01
2629,B4,294.911,401/1000,123,145.01
2630,E-5,294.911,401/1000,123,145.01
2631,A1,295.0,0.5,113,145.01
2632,G#2,295.0,0.5,112,145.01
2633,C2,295.0,0.5,112,145.01
2634,B4,295.453,237/500,113,145.01
2635,E-5,295.453,237/500,113,145.01
2636,G#1,295.5,0.5,122,145.01
2637,F#2,295.5,0.5,127,145.01
2638,G#3,295.5,0.5,122,145.01
2639,C2,295.5,0.5,127,145.01
2640,G#1,296.0,1.0,122,145.01
2641,G#2,296.0,1.0,123,145.01
2642,G#3,296.0,2.25,122,145.01
2643,G#3,296.0,1.0,107,145.01
2644,E4,296.0,1.0,107,145.01
2645,C2,296.0,0.5,125,145.01
2646,C#3,296.0,0.5,125,145.01
2647,F#5,296.021,259/250,123,145.01
2648,A5,296.021,259/250,123,145.01
2649,G#1,297.0,0.5,113,145.01
2650,G#2,297.0,1.0,123,145.01
2651,G#5,297.0,1.141,113,145.01
2652,B5,297.0,1.141,113,145.01
2653,E4,297.0,1.0,112,145.01
2654,G#3,297.0,1.0,112,145.01
2655,G#2,297.0,0.5,112,145.01
2656,C2,297.0,0.5,112,145.01
2657,C2,297.5,0.5,127,145.01
2658,E-2,298.0,0.5,113,145.01
2659,G#2,298.0,0.5,127,145.01
2660,C#3,298.0,0.5,125,145.01
2661,E2,298.0,0.5,125,145.01
2662,C#2,298.5,0.5,113,145.01
2663,G#2,298.5,0.5,127,145.01
2664,G#5,298.927,0.328,123,145.01
2665,B5,298.927,0.328,123,145.01
2666,B1,299.0,0.5,113,145.01
2667,C2,299.0,0.5,112,145.01
2668,G#2,299.0,0.5,112,145.01
2669,G#5,299.396,583/1000,100,145.01
2670,B5,299.396,583/1000,100,145.01
2671,G#1,299.5,0.5,113,145.01
2672,G#2,299.5,0.5,127,145.01
2673,A3,299.5,0.5,127,145.01
2674,C2,299.5,0.5,127,145.01
2675,A5,299.99,1/100,127,145.01
2676,C#6,299.99,1/100,127,145.01
2677,A1,300.0,1.0,113,145.01
2678,A2,300.0,1.0,127,145.01
2679,A5,300.0,0.656,127,145.01
2680,C#6,300.0,0.656,127,145.01
2681,A3,300.0,2.0,127,145.01
2682,A3,300.0,1.0,112,145.01
2683,E3,300.0,1.0,112,145.01
2684,C#3,300.0,0.5,125,145.01
2685,C2,300.0,0.5,125,145.01
2686,G#5,300.604,99/100,113,145.01
2687,B5,300.604,99/100,113,145.01
2688,A1,301.0,1.0,113,145.01
2689,A2,301.0,1.0,113,145.01
2690,E3,301.0,1.5,112,145.01
2691,A3,301.0,1.5,112,145.01
2692,G#2,301.0,0.5,112,145.01
2693,C2,301.0,0.5,112,145.01
2694,A5,301.552,349/250,127,145.01
2695,C#6,301.552,349/250,127,145.01
2696,E2,302.0,0.5,113,145.01
2697,A2,302.0,0.5,127,145.01
2698,C#3,302.0,0.5,125,145.01
2699,E2,302.0,0.5,125,145.01
2700,E-2,302.5,0.5,113,145.01
2701,A2,302.5,0.5,127,145.01
2702,C2,302.5,0.5,127,145.01
2703,B5,302.76,1021/1000,127,145.01
2704,E-6,302.76,1021/1000,127,145.01
2705,C#2,303.0,0.5,113,145.01
2706,C2,303.0,0.5,112,145.01
2707,G#2,303.0,0.5,112,145.01
2708,A1,303.5,0.5,113,145.01
2709,A2,303.5,0.5,127,145.01
2710,B3,303.5,0.5,122,145.01
2711,C2,303.5,0.5,127,145.01
2712,B5,303.859,0.141,113,145.01
2713,E-6,303.859,0.141,113,145.01
2714,B1,304.0,0.5,113,145.01
2715,B2,304.0,4.0,127,145.01
2716,B5,304.0,472/125,113,145.01
2717,E-6,304.0,472/125,113,145.01
2718,B3,304.0,3.5,122,145.01
2719,B3,304.0,4.0,112,145.01
2720,F#3,304.0,4.0,112,145.01
2721,E2,304.0,0.5,112,145.01
2722,G#2,304.0,0.5,112,145.01
2723,B1,304.5,0.5,113,145.01
2724,E2,304.5,0.5,127,145.01
2725,B1,305.0,0.5,113,145.01
2726,E2,305.0,0.5,112,145.01
2727,G#2,305.0,0.5,112,145.01
2728,B1,305.5,0.5,113,145.01
2729,E2,305.5,0.5,127,145.01
2730,B1,306.0,0.5,113,145.01
2731,E2,306.0,0.5,112,145.01
2732,G#2,306.0,0.5,112,145.01
2733,B1,306.5,0.5,113,145.01
2734,E2,306.5,0.5,127,145.01
2735,B1,307.0,0.5,113,145.01
2736,E2,307.0,0.5,112,145.01
2737,G#2,307.0,0.5,112,145.01
2738,B1,307.5,0.5,113,145.01
2739,E2,307.5,0.25,127,145.01
2740,E2,307.75,0.25,127,145.01
2741,E3,308.0,1.5,122,145.01
2742,E2,308.0,1.5,122,145.01
2743,E4,308.0,3.0,112,145.01
2744,E2,308.0,0.25,127,145.01
2745,E2,308.0,1.5,127,145.01
2746,E3,308.0,1.5,127,145.01
2747,C#3,308.0,0.5,118,145.01
2748,C2,308.0,0.5,118,145.01
2749,G#5,308.031,69/50,123,145.01
2750,B5,308.031,69/50,123,145.01
2751,B2,309.0,1.5,82,145.01
2752,F#5,309.458,1323/1000,123,145.01
2753,A5,309.458,1323/1000,123,145.01
2754,E-3,309.5,1.5,122,145.01
2755,B1,309.5,1.5,113,145.01
2756,B2,309.5,1.5,127,145.01
2757,B3,309.5,2.5,105,145.01
2758,C#3,309.5,0.5,118,145.01
2759,C2,309.5,0.5,118,145.01
2760,B2,310.5,0.5,82,145.01
2761,E5,310.875,1.125,113,145.01
2762,G#5,310.875,1.125,113,145.01
2763,C#3,311.0,1.0,112,145.01
2764,C#2,311.0,1.0,122,145.01
2765,E4,311.0,1.0,99,145.01
2766,E3,311.0,1.0,123,145.01
2767,C#3,311.0,1.0,123,145.01
2768,C#3,311.0,0.5,118,145.01
2769,C2,311.0,0.5,118,145.01
2770,C#3,312.0,4.0,112,145.01
2771,C#2,312.0,4.0,122,145.01
2772,E5,312.0,927/500,113,145.01
2773,G#5,312.0,927/500,113,145.01
2774,E4,312.0,4.0,99,145.01
2775,B3,312.0,4.0,105,145.01
2776,G#3,312.5,0.5,112,145.01
2777,C#4,313.0,1.0,112,145.01
2778,G#3,313.5,2.0,112,145.01
2779,E4,314.0,2.0,102,145.01
2780,C#5,314.417,19/50,113,145.01
2781,E5,314.417,19/50,113,145.01
2782,C#5,314.958,0.297,113,145.01
2783,E5,314.958,0.297,113,145.01
2784,C#4,315.0,1.0,92,145.01
2785,C#5,315.406,54/125,111,145.01
2786,E5,315.406,54/125,111,145.01
2787,E3,315.5,3.5,123,145.01
2788,C#3,315.5,3.5,123,145.01
2789,G#5,315.958,21/500,123,145.01
2790,B5,315.958,21/500,123,145.01
2791,G#3,316.0,1.5,122,145.01
2792,E1,316.0,1.5,122,145.01
2793,G#5,316.0,1229/1000,123,145.01
2794,B5,316.0,1229/1000,123,145.01
2795,E4,316.0,2.5,113,145.01
2796,C2,316.0,0.5,118,145.01
2797,C#3,316.0,0.5,118,145.01
2798,E3,317.0,0.5,92,145.01
2799,F#5,317.292,151/100,113,145.01
2800,A5,317.292,151/100,113,145.01
2801,E-3,317.5,1.5,122,145.01
2802,B1,317.5,1.5,122,145.01
2803,B3,317.5,2.5,113,145.01
2804,C#3,317.5,0.5,118,145.01
2805,C2,317.5,0.5,118,145.01
2806,B2,318.5,0.5,102,145.01
2807,E5,318.849,1151/1000,123,145.01
2808,G#5,318.849,1151/1000,123,145.01
2809,C#3,319.0,1.0,112,145.01
2810,C#2,319.0,1.0,113,145.01
2811,E4,319.0,1.0,95,145.01
2812,C2,319.0,0.5,118,145.01
2813,C#3,319.0,0.5,118,145.01
2814,E2,319.5,1.5,125,145.01
2815,E3,319.5,1.5,125,145.01
2816,C#3,320.0,4.0,112,145.01
2817,C#2,320.0,2.0,113,145.01
2818,E5,320.0,263/125,123,145.01
2819,G#5,320.0,263/125,123,145.01
2820,E4,320.0,4.0,95,145.01
2821,B3,320.0,4.0,113,145.01
2822,G#3,320.5,0.5,102,145.01
2823,E2,320.5,0.5,123,145.01
2824,C#4,321.0,1.0,112,145.01
2825,B2,321.0,1.5,127,145.01
2826,E2,321.0,0.5,123,145.01
2827,G#3,321.5,2.0,122,145.01
2828,C2,321.5,0.5,123,145.01
2829,E4,322.0,1.5,112,145.01
2830,G#1,322.0,2.0,113,145.01
2831,E2,322.0,0.5,123,145.01
2832,E2,322.5,0.25,123,145.01
2833,E3,322.5,1.0,113,145.01
2834,C#3,322.5,1.0,113,145.01
2835,E2,322.75,0.25,123,145.01
2836,C#4,323.0,0.5,112,145.01
2837,E2,323.0,0.25,123,145.01
2838,E2,323.25,0.25,123,145.01
2839,F#2,323.5,0.5,106,145.01
2840,E2,323.5,0.5,106,145.01
2841,A5,323.984,0.016,123,145.01
2842,C#6,323.984,0.016,123,145.01
2843,A5,324.0,479/1000,123,145.01
2844,C#6,324.0,479/1000,123,145.01
2845,F#4,324.0,4.0,117,145.01
2846,F#2,324.0,323/1000,122,145.01
2847,F#2,324.5,151/500,95,145.01
2848,G#5,324.542,0.734,113,145.01
2849,F#2,325.0,0.266,110,145.01
2850,F#5,325.385,123/200,113,145.01
2851,F#2,325.5,271/1000,110,145.01
2852,F#2,326.0,73/250,95,145.01
2853,E5,326.068,143/500,123,145.01
2854,E5,326.469,0.562,113,145.01
2855,F#2,326.5,69/250,95,145.01
2856,F#2,327.0,307/1000,113,145.01
2857,A5,327.469,0.531,123,145.01
2858,C#6,327.469,0.531,123,145.01
2859,F#2,327.5,69/250,95,145.01
2860,E3,327.5,4.0,113,145.01
2861,C#3,327.5,4.0,113,145.01
2862,A5,328.0,0.406,123,145.01
2863,C#6,328.0,0.406,123,145.01
2864,C#4,328.0,2.0,117,145.01
2865,F#2,328.0,0.297,110,145.01
2866,G#5,328.448,22/25,113,145.01
2867,F#2,328.5,0.281,104,145.01
2868,A3,329.0,2.0,117,145.01
2869,F#2,329.0,0.281,104,145.01
2870,F#5,329.396,917/1000,111,145.01
2871,F#2,329.5,0.281,104,145.01
2872,F#2,330.0,0.281,113,145.01
2873,E5,330.396,557/1000,113,145.01
2874,F#2,330.5,143/500,104,145.01
2875,C#4,331.0,1.0,117,145.01
2876,F#2,331.0,69/250,104,145.01
2877,F#2,331.5,323/1000,104,145.01
2878,A5,331.948,13/250,123,145.01
2879,C#6,331.948,13/250,123,145.01
2880,A5,332.0,573/1000,123,145.01
2881,C#6,332.0,573/1000,123,145.01
2882,A2,332.0,73/250,122,145.01
2883,F#4,332.0,3.0,117,145.01
2884,A4,332.0,3.0,117,145.01
2885,A2,332.5,0.297,104,145.01
2886,G#5,332.51,201/200,113,145.01
2887,A2,333.0,73/250,109,145.01
2888,F#5,333.458,237/250,111,145.01
2889,A2,333.5,0.297,95,145.01
2890,A2,334.0,0.297,104,145.01
2891,E5,334.411,87/100,111,145.01
2892,A2,334.5,0.312,95,145.01
2893,A2,335.0,307/1000,110,145.01
2894,E4,335.0,1.0,117,145.01
2895,G#4,335.0,1.0,117,145.01
2896,E5,335.417,583/1000,111,145.01
2897,A2,335.5,0.281,104,145.01
2898,E5,336.0,127/200,111,145.01
2899,B2,336.0,307/1000,113,145.01
2900,E-4,336.0,3.0,117,145.01
2901,F#4,336.0,3.0,117,145.01
2902,B2,336.5,151/500,95,145.01
2903,E-5,336.583,759/250,111,145.01
2904,B2,337.0,0.297,104,145.01
2905,B2,337.5,73/250,104,145.01
2906,B2,338.0,0.312,113,145.01
2907,B1,338.5,0.5,122,145.01
2908,B2,338.5,339/1000,127,145.01
2909,B2,338.5,0.5,96,145.01
2910,F#3,338.5,0.5,96,145.01
2911,B3,338.5,0.5,96,145.01
2912,E2,338.573,427/1000,123,145.01
2913,B1,339.0,0.5,113,145.01
2914,B2,339.0,339/1000,127,145.01
2915,E2,339.0,0.5,123,145.01
2916,B2,339.0,0.5,90,145.01
2917,F#3,339.0,0.5,90,145.01
2918,B3,339.0,0.5,90,145.01
2919,E3,340.0,1.5,122,145.01
2920,E2,340.0,1.5,113,145.01
2921,E4,340.0,1.5,107,145.01
2922,G#4,340.0,1.5,107,145.01
2923,C2,340.0,0.5,118,145.01
2924,C#3,340.0,0.5,118,145.01
2925,G#5,340.104,1.344,127,145.01
2926,B5,340.104,1.344,127,145.01
2927,B2,341.0,1.5,82,145.01
2928,F#2,341.0,0.5,106,145.01
2929,E2,341.0,0.5,106,145.01
2930,E-3,341.5,1.5,122,145.01
2931,B1,341.5,1.5,113,145.01
2932,E-4,341.5,1.0,104,145.01
2933,F#4,341.5,1.5,104,145.01
2934,F#2,341.5,0.5,106,145.01
2935,C2,341.5,0.5,106,145.01
2936,F#5,341.516,659/500,123,145.01
2937,A5,341.516,659/500,123,145.01
2938,F#2,342.0,0.5,89,145.01
2939,B2,342.5,0.5,82,145.01
2940,F#2,342.5,0.5,106,145.01
2941,C2,342.5,0.5,106,145.01
2942,E5,342.911,1089/1000,113,145.01
2943,G#5,342.911,1089/1000,113,145.01
2944,C#3,343.0,1.0,112,145.01
2945,C#2,343.0,1.0,122,145.01
2946,E4,343.0,1.0,100,145.01
2947,G#4,343.0,1.0,100,145.01
2948,E2,343.0,0.5,118,145.01
2949,C#3,343.0,0.5,118,145.01
2950,C#3,344.0,4.0,112,145.01
2951,C#2,344.0,0.5,122,145.01
2952,E5,344.0,1.797,113,145.01
2953,G#5,344.0,1.797,113,145.01
2954,F#2,344.0,0.5,89,145.01
2955,E4,344.0,0.5,100,145.01
2956,G#4,344.0,0.5,100,145.01
2957,G#3,344.5,0.5,112,145.01
2958,C#2,344.5,0.5,100,145.01
2959,C#4,344.5,1.0,107,145.01
2960,F#2,344.5,0.5,106,145.01
2961,C2,344.5,0.5,106,145.01
2962,C#4,345.0,1.0,112,145.01
2963,C#2,345.0,0.5,103,145.01
2964,F#2,345.0,0.5,106,145.01
2965,E2,345.0,0.5,106,145.01
2966,G#3,345.5,2.0,112,145.01
2967,C#2,345.5,0.5,107,145.01
2968,C#4,345.5,0.5,95,145.01
2969,F#2,345.5,0.5,89,145.01
2970,E2,345.75,0.5,123,145.01
2971,E4,346.0,2.0,102,145.01
2972,C#2,346.0,0.5,111,145.01
2973,C#4,346.0,0.5,95,145.01
2974,F#3,346.0,0.5,127,145.01
2975,B2,346.0,0.5,127,145.01
2976,F#2,346.0,0.5,106,145.01
2977,C2,346.0,0.5,106,145.01
2978,C#5,346.448,77/200,113,145.01
2979,E5,346.448,77/200,113,145.01
2980,C#2,346.5,0.5,114,145.01
2981,C#4,346.5,0.5,113,145.01
2982,F#3,346.5,0.5,113,145.01
2983,B2,346.5,0.5,113,145.01
2984,F#2,346.5,0.5,106,145.01
2985,C2,346.5,0.5,106,145.01
2986,C#5,346.964,177/500,123,145.01
2987,E5,346.964,177/500,123,145.01
2988,C#4,347.0,1.0,92,145.01
2989,C#2,347.0,0.5,118,145.01
2990,B3,347.0,0.5,107,145.01
2991,F#2,347.0,0.5,106,145.01
2992,E2,347.0,0.5,106,145.01
2993,C#5,347.469,0.531,113,145.01
2994,E5,347.469,0.531,113,145.01
2995,E2,347.5,0.5,122,145.01
2996,E2,347.5,1.0,113,145.01
2997,G#3,347.5,0.5,113,145.01
2998,C2,347.5,0.5,123,145.01
2999,B2,347.5,0.5,123,145.01
3000,E3,347.5,0.5,123,145.01
3001,G#3,348.0,1.5,122,145.01
3002,E2,348.0,1.5,122,145.01
3003,C#5,348.0,1/200,113,145.01
3004,E5,348.0,1/200,113,145.01
3005,E4,348.0,1.5,113,145.01
3006,G#4,348.0,1.5,113,145.01
3007,C#3,348.0,0.5,118,145.01
3008,C2,348.0,0.5,118,145.01
3009,G#5,348.062,113/100,123,145.01
3010,B5,348.062,113/100,123,145.01
3011,E3,349.0,0.5,92,145.01
3012,F#2,349.0,0.5,118,145.01
3013,B2,349.0,0.5,118,145.01
3014,F#2,349.0,0.5,106,145.01
3015,E2,349.0,0.5,106,145.01
3016,F#5,349.333,0.938,113,145.01
3017,A5,349.333,0.938,113,145.01
3018,E-3,349.5,1.5,122,145.01
3019,B1,349.5,1.5,113,145.01
3020,F#4,349.5,1.5,100,145.01
3021,E-4,349.5,1.5,100,145.01
3022,C2,349.5,0.5,106,145.01
3023,F#2,349.5,0.5,106,145.01
3024,C#3,350.0,0.5,55,145.01
3025,F#2,350.0,0.5,89,145.01
3026,E5,350.49,479/1000,111,145.01
3027,G#5,350.49,479/1000,111,145.01
3028,B2,350.5,0.5,102,145.01
3029,G#2,350.5,1.0,113,145.01
3030,C#3,350.5,1.0,113,145.01
3031,F#2,350.5,0.5,106,145.01
3032,C2,350.5,0.5,106,145.01
3033,C#3,351.0,1.0,112,145.01
3034,C#2,351.0,1.0,122,145.01
3035,C#4,351.0,1.0,113,145.01
3036,C#3,351.0,0.5,118,145.01
3037,E2,351.0,0.5,118,145.01
3038,E5,351.104,112/125,113,145.01
3039,G#5,351.104,112/125,113,145.01
3040,G#2,351.5,1.0,113,145.01
3041,C#3,351.5,0.5,113,145.01
3042,C#3,352.0,4.0,112,145.01
3043,C#2,352.0,0.5,122,145.01
3044,C#3,352.0,0.5,123,145.01
3045,E5,352.0,1401/500,113,145.01
3046,G#5,352.0,1401/500,113,145.01
3047,C#4,352.0,0.5,113,145.01
3048,F#2,352.0,0.5,89,145.01
3049,G#3,352.5,0.5,102,145.01
3050,C#2,352.5,0.5,99,145.01
3051,C#4,352.5,0.5,95,145.01
3052,G#2,352.5,0.5,70,145.01
3053,C#3,352.5,0.5,70,145.01
3054,F#2,352.5,0.5,106,145.01
3055,C2,352.5,0.5,106,145.01
3056,C#4,353.0,1.0,112,145.01
3057,C#2,353.0,0.5,103,145.01
3058,C#4,353.0,2.0,82,145.01
3059,G#2,353.0,0.5,108,145.01
3060,C#3,353.0,0.5,108,145.01
3061,F#2,353.0,0.5,106,145.01
3062,E2,353.0,0.5,106,145.01
3063,G#3,353.5,2.0,122,145.01
3064,C#2,353.5,0.5,107,145.01
3065,F#2,353.5,0.5,89,145.01
3066,G#2,353.5,0.5,78,145.01
3067,C#3,353.5,0.5,78,145.01
3068,E2,353.75,0.5,123,145.01
3069,E4,354.0,1.5,112,145.01
3070,C#2,354.0,0.5,112,145.01
3071,G#4,354.0,2.0,95,145.01
3072,G#2,354.0,0.5,103,145.01
3073,C#3,354.0,0.5,103,145.01
3074,F#2,354.0,0.5,106,145.01
3075,C2,354.0,0.5,106,145.01
3076,E2,354.25,0.5,123,145.01
3077,C#2,354.5,0.5,116,145.01
3078,G#2,354.5,1.0,85,145.01
3079,C#3,354.5,1.0,85,145.01
3080,F#2,354.5,0.5,106,145.01
3081,C2,354.5,0.5,106,145.01
3082,C#4,355.0,0.5,112,145.01
3083,C#2,355.0,0.5,120,145.01
3084,C#4,355.0,1.0,86,145.01
3085,F#2,355.0,0.5,106,145.01
3086,E2,355.0,0.5,106,145.01
3087,C#2,355.5,0.5,120,145.01
3088,E2,355.5,0.25,123,145.01
3089,B2,355.5,0.5,120,145.01
3090,E2,355.5,0.5,120,145.01
3091,E3,355.5,0.5,120,145.01
3092,C#5,355.51,49/100,123,145.01
3093,E5,355.51,49/100,123,145.01
3094,E2,355.75,0.25,123,145.01
3095,C#3,356.0,3.5,112,145.01
3096,F#2,356.0,0.5,113,145.01
3097,C#5,356.0,21/1000,123,145.01
3098,E5,356.0,21/1000,123,145.01
3099,F#4,356.0,0.5,122,145.01
3100,E2,356.0,0.25,123,145.01
3101,C2,356.0,0.5,118,145.01
3102,C#3,356.0,0.5,118,145.01
3103,A5,356.031,0.688,123,145.01
3104,C#6,356.031,0.688,123,145.01
3105,F#3,356.5,2.0,102,145.01
3106,F#2,356.5,0.5,103,145.01
3107,F#4,356.5,0.5,95,145.01
3108,E-3,356.5,0.5,112,145.01
3109,G#5,356.635,917/1000,113,145.01
3110,B5,356.635,917/1000,113,145.01
3111,F#2,357.0,0.5,110,145.01
3112,F#2,357.0,1.0,113,145.01
3113,B2,357.0,0.5,123,145.01
3114,C#4,357.0,0.5,104,145.01
3115,E-3,357.0,0.5,118,145.01
3116,E2,357.0,0.5,118,145.01
3117,C#4,357.5,2.5,122,145.01
3118,F#2,357.5,0.5,103,145.01
3119,C#4,357.5,0.5,95,145.01
3120,E-3,357.5,0.5,112,145.01
3121,F#5,357.568,112/125,111,145.01
3122,A5,357.568,112/125,111,145.01
3123,E2,357.75,0.5,123,145.01
3124,F#2,358.0,0.5,104,145.01
3125,F#4,358.0,0.5,122,145.01
3126,C2,358.0,0.5,118,145.01
3127,E-3,358.0,0.5,118,145.01
3128,E5,358.479,101/100,123,145.01
3129,G#5,358.479,101/100,123,145.01
3130,A3,358.5,1.5,102,145.01
3131,F#2,358.5,0.5,104,145.01
3132,G#2,358.5,1.0,113,145.01
3133,C#3,358.5,1.0,123,145.01
3134,F#4,358.5,0.5,93,145.01
3135,E-3,358.5,0.5,118,145.01
3136,C2,358.5,0.5,118,145.01
3137,F#2,359.0,0.5,105,145.01
3138,C#4,359.0,0.5,113,145.01
3139,E-3,359.0,0.5,118,145.01
3140,E2,359.0,0.5,118,145.01
3141,F#3,359.5,0.5,92,145.01
3142,F#2,359.5,0.5,105,145.01
3143,G#2,359.5,1.0,113,145.01
3144,C#3,359.5,0.5,123,145.01
3145,C#4,359.5,0.5,95,145.01
3146,C2,359.5,0.5,118,145.01
3147,E-3,359.5,0.5,118,145.01
3148,A5,359.505,99/200,113,145.01
3149,C#6,359.505,99/200,113,145.01
3150,C#3,360.0,3.5,122,145.01
3151,A3,360.0,0.5,102,145.01
3152,F#2,360.0,0.5,105,145.01
3153,C#3,360.0,0.5,103,145.01
3154,A5,360.0,159/500,113,145.01
3155,C#6,360.0,159/500,113,145.01
3156,F#4,360.0,0.5,113,145.01
3157,E-3,360.0,0.5,118,145.01
3158,C2,360.0,0.5,118,145.01
3159,F#3,360.5,2.0,112,145.01
3160,F#2,360.5,0.5,106,145.01
3161,G#5,360.5,0.953,113,145.01
3162,B5,360.5,0.953,113,145.01
3163,F#4,360.5,0.5,100,145.01
3164,E-3,360.5,0.5,112,145.01
3165,G#2,360.5,0.5,78,145.01
3166,C#3,360.5,0.5,78,145.01
3167,F#2,361.0,0.5,106,145.01
3168,C#4,361.0,0.5,113,145.01
3169,E-3,361.0,0.5,112,145.01
3170,E2,361.0,0.25,123,145.01
3171,G#2,361.0,0.5,100,145.01
3172,C#3,361.0,0.5,100,145.01
3173,C#4,361.5,2.5,112,145.01
3174,G#2,361.5,0.5,106,145.01
3175,C#4,361.5,0.5,95,145.01
3176,E-3,361.5,0.5,112,145.01
3177,G#2,361.5,0.5,75,145.01
3178,C#3,361.5,0.5,75,145.01
3179,F#5,361.505,0.891,111,145.01
3180,A5,361.505,0.891,111,145.01
3181,E2,361.75,0.25,123,145.01
3182,G#2,362.0,0.5,107,145.01
3183,F#4,362.0,0.5,122,145.01
3184,E-3,362.0,0.5,112,145.01
3185,C2,362.0,0.25,123,145.01
3186,G#2,362.0,0.5,106,145.01
3187,C#3,362.0,0.5,106,145.01
3188,E2,362.25,0.25,123,145.01
3189,E5,362.484,849/1000,113,145.01
3190,G#5,362.484,849/1000,113,145.01
3191,A3,362.5,1.5,102,145.01
3192,G#2,362.5,0.5,107,145.01
3193,G#2,362.5,1.0,88,145.01
3194,C#3,362.5,0.5,82,145.01
3195,F#4,362.5,0.5,104,145.01
3196,E-3,362.5,0.5,112,145.01
3197,C2,362.5,0.25,123,145.01
3198,A2,363.0,0.5,107,145.01
3199,C#3,363.0,0.5,103,145.01
3200,C#4,363.0,0.5,113,145.01
3201,E-3,363.0,0.5,112,145.01
3202,E2,363.0,0.25,123,145.01
3203,F#3,363.5,0.5,92,145.01
3204,A2,363.5,0.5,113,145.01
3205,C#4,363.5,0.5,104,145.01
3206,E-3,363.5,0.5,112,145.01
3207,C2,363.5,0.25,123,145.01
3208,C#3,363.5,3.5,113,145.01
3209,F#2,363.5,3.5,113,145.01
3210,F#3,363.5,3.5,113,145.01
3211,B2,364.0,4.0,123,145.01
3212,B1,364.0,0.5,113,145.01
3213,B3,364.0,3.5,113,145.01
3214,F#3,364.0,4.0,113,145.01
3215,C2,364.0,0.5,118,145.01
3216,C#3,364.0,0.5,118,145.01
3217,E-5,364.026,1521/1000,123,145.01
3218,F#5,364.026,1521/1000,123,145.01
3219,B1,364.5,0.5,113,145.01
3220,E-3,364.5,0.5,112,145.01
3221,E-3,365.0,2.5,112,145.01
3222,B1,365.0,0.5,113,145.01
3223,E2,365.0,0.5,118,145.01
3224,E-3,365.0,0.5,118,145.01
3225,F#3,365.5,2.5,112,145.01
3226,B1,365.5,0.5,113,145.01
3227,E-3,365.5,0.5,112,145.01
3228,E5,365.536,943/1000,123,145.01
3229,G#5,365.536,943/1000,123,145.01
3230,B1,366.0,0.5,103,145.01
3231,C2,366.0,0.5,118,145.01
3232,E-3,366.0,0.5,118,145.01
3233,B3,366.5,1.5,102,145.01
3234,B1,366.5,0.5,113,145.01
3235,F#5,366.5,1.469,127,145.01
3236,A5,366.5,1.469,127,145.01
3237,C2,366.5,0.5,118,145.01
3238,E-3,366.5,0.5,118,145.01
3239,B1,367.0,0.5,113,145.01
3240,E-3,367.0,0.5,118,145.01
3241,E2,367.0,0.5,118,145.01
3242,B1,367.5,0.5,113,145.01
3243,E-3,367.5,0.5,112,145.01
3244,F#2,367.5,2.5,110,145.01
3245,C#3,367.5,2.5,110,145.01
3246,F#3,367.5,2.5,110,145.01
3247,A5,367.927,73/1000,123,145.01
3248,C#6,367.927,73/1000,123,145.01
3249,A2,368.0,1/200,112,145.01
3250,A3,368.0,1.5,112,145.01
3251,A1,368.0,0.5,113,145.01
3252,A5,368.0,4.0,123,145.01
3253,C#6,368.0,4.0,123,145.01
3254,E3,368.0,4.0,108,145.01
3255,A3,368.0,4.0,108,145.01
3256,E-3,368.0,0.5,118,145.01
3257,C2,368.0,0.5,118,145.01
3258,E3,368.5,1.5,102,145.01
3259,A1,368.5,0.5,113,145.01
3260,C#3,368.5,0.5,118,145.01
3261,E2,368.5,0.5,118,145.01
3262,A1,369.0,0.5,113,145.01
3263,E-3,369.0,0.5,118,145.01
3264,C2,369.0,0.5,118,145.01
3265,A3,369.5,2.5,102,145.01
3266,A1,369.5,0.5,113,145.01
3267,E-3,369.5,0.5,118,145.01
3268,C2,369.5,0.5,118,145.01
3269,A1,370.0,0.5,113,145.01
3270,C#3,370.0,0.5,118,145.01
3271,E2,370.0,0.5,118,145.01
3272,A1,370.5,0.5,103,145.01
3273,E2,370.5,0.5,123,145.01
3274,E3,371.0,1.0,102,145.01
3275,A1,371.0,0.5,108,145.01
3276,E2,371.0,0.25,123,145.01
3277,E2,371.25,0.5,123,145.01
3278,A1,371.5,0.5,107,145.01
3279,B3,371.5,2.5,113,145.01
3280,B2,371.5,3.5,123,145.01
3281,G2,371.5,0.5,112,145.01
3282,F2,371.75,0.25,112,145.01
3283,E3,372.0,1.5,122,145.01
3284,E2,372.0,1.5,113,145.01
3285,F2,372.0,0.25,112,145.01
3286,E4,372.0,1.5,107,145.01
3287,G#4,372.0,1.5,107,145.01
3288,C2,372.0,0.5,118,145.01
3289,C#3,372.0,0.5,118,145.01
3290,G#5,372.031,69/50,123,145.01
3291,B5,372.031,69/50,123,145.01
3292,B2,373.0,1.5,82,145.01
3293,E-3,373.0,0.5,118,145.01
3294,E2,373.0,0.5,118,145.01
3295,F#5,373.458,1323/1000,123,145.01
3296,A5,373.458,1323/1000,123,145.01
3297,E-3,373.5,1.5,122,145.01
3298,B1,373.5,1.5,113,145.01
3299,E-4,373.5,1.0,104,145.01
3300,F#4,373.5,1.5,104,145.01
3301,E-3,373.5,0.5,118,145.01
3302,C2,373.5,0.5,118,145.01
3303,E-3,374.0,0.5,112,145.01
3304,B2,374.5,0.5,82,145.01
3305,E-3,374.5,0.5,118,145.01
3306,C2,374.5,0.5,118,145.01
3307,E5,374.875,1.125,113,145.01
3308,G#5,374.875,1.125,113,145.01
3309,C#3,375.0,1.0,112,145.01
3310,C#2,375.0,1.0,122,145.01
3311,E4,375.0,1.0,100,145.01
3312,G#4,375.0,1.0,100,145.01
3313,E2,375.0,0.5,118,145.01
3314,C#3,375.0,0.5,118,145.01
3315,A3,375.5,1.5,118,145.01
3316,E3,375.5,1.5,118,145.01
3317,A2,375.5,1.5,118,145.01
3318,C#3,376.0,4.0,112,145.01
3319,C#2,376.0,0.5,122,145.01
3320,E5,376.0,927/500,113,145.01
3321,G#5,376.0,927/500,113,145.01
3322,E-3,376.0,0.5,112,145.01
3323,E4,376.0,0.5,100,145.01
3324,G#4,376.0,0.5,100,145.01
3325,G#3,376.5,0.5,112,145.01
3326,C#2,376.5,0.5,103,145.01
3327,C#4,376.5,1.0,107,145.01
3328,E-3,376.5,0.5,118,145.01
3329,C2,376.5,0.5,118,145.01
3330,C#4,377.0,1.0,112,145.01
3331,C#2,377.0,0.5,105,145.01
3332,E3,377.0,2.5,103,145.01
3333,A3,377.0,1.5,108,145.01
3334,A2,377.0,1.5,108,145.01
3335,E-3,377.0,0.5,118,145.01
3336,E2,377.0,0.5,118,145.01
3337,G#3,377.5,2.0,112,145.01
3338,C#2,377.5,0.5,113,145.01
3339,C#4,377.5,0.5,95,145.01
3340,E-3,377.5,0.5,112,145.01
3341,E2,377.75,0.5,123,145.01
3342,E4,378.0,2.0,102,145.01
3343,C#2,378.0,0.5,103,145.01
3344,C#4,378.0,0.5,95,145.01
3345,E-3,378.0,0.5,118,145.01
3346,C2,378.0,0.5,118,145.01
3347,C#5,378.417,19/50,113,145.01
3348,E5,378.417,19/50,113,145.01
3349,C#2,378.5,0.5,113,145.01
3350,C#4,378.5,0.5,113,145.01
3351,A3,378.5,1.0,118,145.01
3352,A2,378.5,1.0,118,145.01
3353,E-3,378.5,0.5,118,145.01
3354,C2,378.5,0.5,118,145.01
3355,C#5,378.958,0.297,113,145.01
3356,E5,378.958,0.297,113,145.01
3357,C#4,379.0,1.0,92,145.01
3358,C#2,379.0,0.5,113,145.01
3359,B3,379.0,0.5,107,145.01
3360,E-3,379.0,0.5,118,145.01
3361,E2,379.0,0.5,118,145.01
3362,C#5,379.406,54/125,111,145.01
3363,E5,379.406,54/125,111,145.01
3364,C#2,379.5,0.5,113,145.01
3365,E2,379.5,1.0,113,145.01
3366,G#3,379.5,0.5,113,145.01
3367,C2,379.5,0.5,123,145.01
3368,B2,379.5,0.5,123,145.01
3369,E3,379.5,0.5,123,145.01
3370,G#5,379.958,21/500,123,145.01
3371,B5,379.958,21/500,123,145.01
3372,G#3,380.0,1.5,122,145.01
3373,E2,380.0,1.5,103,145.01
3374,G#5,380.0,1229/1000,123,145.01
3375,B5,380.0,1229/1000,123,145.01
3376,E4,380.0,1.5,113,145.01
3377,G#4,380.0,1.5,113,145.01
3378,C#3,380.0,0.5,118,145.01
3379,C2,380.0,0.5,118,145.01
3380,E3,381.0,0.5,92,145.01
3381,F#2,381.0,0.5,118,145.01
3382,B2,381.0,0.5,118,145.01
3383,E-3,381.0,0.5,118,145.01
3384,E2,381.0,0.5,118,145.01
3385,F#5,381.292,151/100,113,145.01
3386,A5,381.292,151/100,113,145.01
3387,E-3,381.5,1.5,122,145.01
3388,B1,381.5,1.5,113,145.01
3389,F#4,381.5,1.5,100,145.01
3390,E-4,381.5,1.5,100,145.01
3391,C2,381.5,0.5,118,145.01
3392,E-3,381.5,0.5,118,145.01
3393,C#3,382.0,0.5,55,145.01
3394,E-3,382.0,0.5,112,145.01
3395,B2,382.5,0.5,102,145.01
3396,G#2,382.5,1.0,113,145.01
3397,C#3,382.5,1.0,113,145.01
3398,E-3,382.5,0.5,118,145.01
3399,C2,382.5,0.5,118,145.01
3400,E5,382.849,1151/1000,123,145.01
3401,G#5,382.849,1151/1000,123,145.01
3402,C#3,383.0,1.0,112,145.01
3403,C#2,383.0,1.0,113,145.01
3404,C#4,383.0,1.0,113,145.01
3405,C#3,383.0,0.5,118,145.01
3406,E2,383.0,0.5,118,145.01
3407,G#2,383.5,1.0,113,145.01
3408,C#3,383.5,0.5,113,145.01
3409,C#3,384.0,4.0,112,145.01
3410,C#2,384.0,0.5,113,145.01
3411,C#3,384.0,0.5,123,145.01
3412,E5,384.0,263/125,123,145.01
3413,G#5,384.0,263/125,123,145.01
3414,C#4,384.0,0.5,113,145.01
3415,E-3,384.0,0.5,112,145.01
3416,G#3,384.5,0.5,102,145.01
3417,C#2,384.5,0.5,99,145.01
3418,C#4,384.5,0.5,95,145.01
3419,G#2,384.5,0.5,70,145.01
3420,C#3,384.5,0.5,70,145.01
3421,E-3,384.5,0.5,118,145.01
3422,C2,384.5,0.5,118,145.01
3423,C#4,385.0,1.0,112,145.01
3424,C#2,385.0,0.5,113,145.01
3425,C#4,385.0,2.0,82,145.01
3426,G#2,385.0,0.5,108,145.01
3427,C#3,385.0,0.5,108,145.01
3428,E-3,385.0,0.5,118,145.01
3429,E2,385.0,0.5,118,145.01
3430,G#3,385.5,2.0,122,145.01
3431,C#2,385.5,0.5,113,145.01
3432,E-3,385.5,0.5,112,145.01
3433,G#2,385.5,0.5,78,145.01
3434,C#3,385.5,0.5,78,145.01
3435,E2,385.75,0.5,123,145.01
3436,E4,386.0,1.5,112,145.01
3437,C#2,386.0,0.5,113,145.01
3438,G#4,386.0,2.0,95,145.01
3439,G#2,386.0,0.5,103,145.01
3440,C#3,386.0,0.5,103,145.01
3441,E-3,386.0,0.5,118,145.01
3442,C2,386.0,0.5,118,145.01
3443,E2,386.25,0.5,123,145.01
3444,C#2,386.5,0.5,113,145.01
3445,G#2,386.5,1.0,85,145.01
3446,C#3,386.5,1.0,85,145.01
3447,E-3,386.5,0.5,118,145.01
3448,C2,386.5,0.5,118,145.01
3449,C#4,387.0,0.5,112,145.01
3450,C#2,387.0,0.5,113,145.01
3451,C#4,387.0,1.0,86,145.01
3452,E-3,387.0,0.5,118,145.01
3453,E2,387.0,0.5,118,145.01
3454,C#2,387.5,0.5,113,145.01
3455,C2,387.5,0.5,123,145.01
3456,B2,387.5,0.5,120,145.01
3457,E2,387.5,0.5,120,145.01
3458,E3,387.5,0.5,120,145.01
3459,A5,387.984,0.016,123,145.01
3460,C#6,387.984,0.016,123,145.01
3461,C#3,388.0,3.5,112,145.01
3462,F#2,388.0,0.5,113,145.01
3463,A5,388.0,479/1000,123,145.01
3464,C#6,388.0,479/1000,123,145.01
3465,F#4,388.0,0.5,122,145.01
3466,C2,388.0,0.5,118,145.01
3467,C#3,388.0,0.5,118,145.01
3468,F#3,388.5,2.0,102,145.01
3469,F#2,388.5,0.5,93,145.01
3470,F#4,388.5,0.5,95,145.01
3471,B-2,388.5,0.5,89,145.01
3472,G#5,388.542,0.734,113,145.01
3473,B5,388.542,0.734,113,145.01
3474,F#2,389.0,0.5,113,145.01
3475,F#2,389.0,1.0,113,145.01
3476,B2,389.0,0.5,123,145.01
3477,C#4,389.0,0.5,104,145.01
3478,B-2,389.0,0.5,106,145.01
3479,E2,389.0,0.5,106,145.01
3480,F#5,389.385,123/200,113,145.01
3481,A5,389.385,123/200,113,145.01
3482,C#4,389.5,2.5,122,145.01
3483,F#2,389.5,0.5,103,145.01
3484,C#4,389.5,0.5,95,145.01
3485,B-2,389.5,0.5,89,145.01
3486,E2,389.75,0.5,123,145.01
3487,F#2,390.0,0.5,113,145.01
3488,F#4,390.0,0.5,122,145.01
3489,C2,390.0,0.5,106,145.01
3490,B-2,390.0,0.5,106,145.01
3491,E5,390.068,143/500,123,145.01
3492,G#5,390.068,143/500,123,145.01
3493,E5,390.469,0.562,113,145.01
3494,G#5,390.469,0.562,113,145.01
3495,A3,390.5,1.5,102,145.01
3496,F#2,390.5,0.5,103,145.01
3497,G#2,390.5,1.0,113,145.01
3498,C#3,390.5,1.0,123,145.01
3499,F#4,390.5,0.5,93,145.01
3500,B-2,390.5,0.5,106,145.01
3501,C2,390.5,0.5,106,145.01
3502,F#2,391.0,0.5,112,145.01
3503,C#4,391.0,0.5,113,145.01
3504,B-2,391.0,0.5,106,145.01
3505,E2,391.0,0.5,106,145.01
3506,A5,391.469,0.531,123,145.01
3507,C#6,391.469,0.531,123,145.01
3508,F#3,391.5,0.5,92,145.01
3509,F#2,391.5,0.5,103,145.01
3510,G#2,391.5,1.0,113,145.01
3511,C#3,391.5,0.5,123,145.01
3512,C#4,391.5,0.5,95,145.01
3513,C2,391.5,0.5,106,145.01
3514,B-2,391.5,0.5,106,145.01
3515,C#3,392.0,3.5,122,145.01
3516,A3,392.0,0.5,102,145.01
3517,F#2,392.0,0.5,111,145.01
3518,C#3,392.0,0.5,103,145.01
3519,A5,392.0,0.406,123,145.01
3520,C#6,392.0,0.406,123,145.01
3521,F#4,392.0,0.5,113,145.01
3522,B-2,392.0,0.5,106,145.01
3523,C2,392.0,0.5,106,145.01
3524,G#5,392.448,22/25,113,145.01
3525,B5,392.448,22/25,113,145.01
3526,F#3,392.5,2.0,112,145.01
3527,F#2,392.5,0.5,93,145.01
3528,F#4,392.5,0.5,100,145.01
3529,B-2,392.5,0.5,89,145.01
3530,G#2,392.5,0.5,78,145.01
3531,C#3,392.5,0.5,78,145.01
3532,F#2,393.0,0.5,114,145.01
3533,C#4,393.0,0.5,113,145.01
3534,B-2,393.0,0.5,89,145.01
3535,E2,393.0,0.25,123,145.01
3536,G#2,393.0,0.5,100,145.01
3537,C#3,393.0,0.5,100,145.01
3538,F#5,393.396,917/1000,111,145.01
3539,A5,393.396,917/1000,111,145.01
3540,C#4,393.5,2.5,112,145.01
3541,F#2,393.5,0.5,103,145.01
3542,C#4,393.5,0.5,95,145.01
3543,B-2,393.5,0.5,89,145.01
3544,G#2,393.5,0.5,75,145.01
3545,C#3,393.5,0.5,75,145.01
3546,E2,393.75,0.25,123,145.01
3547,F#2,394.0,0.5,103,145.01
3548,F#4,394.0,0.5,122,145.01
3549,B-2,394.0,0.5,89,145.01
3550,C2,394.0,0.25,123,145.01
3551,G#2,394.0,0.5,106,145.01
3552,C#3,394.0,0.5,106,145.01
3553,E2,394.25,0.25,123,145.01
3554,E5,394.396,557/1000,113,145.01
3555,G#5,394.396,557/1000,113,145.01
3556,A3,394.5,1.5,102,145.01
3557,F#2,394.5,0.5,113,145.01
3558,G#2,394.5,1.0,88,145.01
3559,C#3,394.5,0.5,82,145.01
3560,F#4,394.5,0.5,104,145.01
3561,B-2,394.5,0.5,89,145.01
3562,C2,394.5,0.25,123,145.01
3563,G#2,395.0,0.5,122,145.01
3564,C#3,395.0,0.5,103,145.01
3565,C#4,395.0,0.5,113,145.01
3566,C#3,395.0,0.5,112,145.01
3567,E2,395.0,0.25,123,145.01
3568,F#3,395.5,0.5,92,145.01
3569,G#2,395.5,0.5,113,145.01
3570,C#4,395.5,0.5,104,145.01
3571,B-2,395.5,0.5,89,145.01
3572,C2,395.5,0.25,123,145.01
3573,F#3,395.5,3.5,113,145.01
3574,C#3,395.5,3.5,113,145.01
3575,F#2,395.5,3.5,113,145.01
3576,A5,395.948,13/250,123,145.01
3577,C#6,395.948,13/250,123,145.01
3578,C#3,396.0,3.5,112,145.01
3579,A2,396.0,0.5,122,145.01
3580,A5,396.0,573/1000,123,145.01
3581,C#6,396.0,573/1000,123,145.01
3582,A3,396.0,4.0,113,145.01
3583,E3,396.0,4.0,113,145.01
3584,C2,396.0,0.5,118,145.01
3585,C#3,396.0,0.5,118,145.01
3586,E3,396.5,2.0,122,145.01
3587,A2,396.5,0.5,113,145.01
3588,E-3,396.5,0.5,112,145.01
3589,G#5,396.51,201/200,113,145.01
3590,B5,396.51,201/200,113,145.01
3591,A2,397.0,0.5,113,145.01
3592,E2,397.0,0.5,118,145.01
3593,E-3,397.0,0.5,118,145.01
3594,F#5,397.458,237/250,111,145.01
3595,A5,397.458,237/250,111,145.01
3596,C#4,397.5,2.0,122,145.01
3597,A2,397.5,0.5,113,145.01
3598,E-3,397.5,0.5,112,145.01
3599,A2,398.0,0.5,113,145.01
3600,C2,398.0,0.5,118,145.01
3601,E-3,398.0,0.5,118,145.01
3602,E5,398.411,87/100,111,145.01
3603,G#5,398.411,87/100,111,145.01
3604,A3,398.5,1.5,102,145.01
3605,A2,398.5,0.5,113,145.01
3606,C2,398.5,0.5,118,145.01
3607,E-3,398.5,0.5,118,145.01
3608,A2,399.0,0.5,113,145.01
3609,E-3,399.0,0.5,118,145.01
3610,E2,399.0,0.5,118,145.01
3611,E5,399.417,583/1000,111,145.01
3612,G#5,399.417,583/1000,111,145.01
3613,E3,399.5,0.5,102,145.01
3614,A2,399.5,0.5,113,145.01
3615,E-3,399.5,0.5,112,145.01
3616,F#3,399.5,2.0,120,145.01
3617,F#2,399.5,2.0,120,145.01
3618,C#3,399.5,2.0,120,145.01
3619,E-3,400.0,4.0,102,145.01
3620,B2,400.0,0.5,122,145.01
3621,E5,400.0,127/200,111,145.01
3622,G#5,400.0,127/200,111,145.01
3623,F#3,400.0,4.0,108,145.01
3624,B3,400.0,4.0,108,145.01
3625,E-3,400.0,0.5,118,145.01
3626,C2,400.0,0.5,118,145.01
3627,F#3,400.5,3.5,108,145.01
3628,B2,400.5,0.5,113,145.01
3629,C#3,400.5,0.5,118,145.01
3630,E2,400.5,0.5,118,145.01
3631,E-5,400.583,759/250,111,145.01
3632,F#5,400.583,759/250,111,145.01
3633,B2,401.0,0.5,113,145.01
3634,E-3,401.0,0.5,118,145.01
3635,C2,401.0,0.5,118,145.01
3636,B3,401.5,2.5,107,145.01
3637,B2,401.5,0.5,113,145.01
3638,E-3,401.5,0.5,118,145.01
3639,C2,401.5,0.5,118,145.01
3640,B2,402.0,0.5,113,145.01
3641,C#3,402.0,0.5,118,145.01
3642,E2,402.0,0.5,118,145.01
3643,E-4,402.5,1.5,102,145.01
3644,B2,402.5,0.5,113,145.01
3645,C2,402.5,0.5,123,145.01
3646,B2,403.0,0.5,113,145.01
3647,E2,403.0,0.25,123,145.01
3648,G#3,403.0,0.5,118,145.01
3649,G#2,403.0,0.5,118,145.01
3650,E2,403.25,0.5,123,145.01
3651,B2,403.5,0.5,113,145.01
3652,F2,403.5,0.5,112,145.01
3653,A3,403.5,3.5,113,145.01
3654,A2,403.5,3.5,113,145.01
3655,E3,404.0,1.5,122,145.01
3656,E2,404.0,1.5,113,145.01
3657,E4,404.0,1.5,107,145.01
3658,G#4,404.0,1.5,107,145.01
3659,C2,404.0,0.5,118,145.01
3660,C#3,404.0,0.5,118,145.01
3661,G#5,404.104,1.344,127,145.01
3662,B5,404.104,1.344,127,145.01
3663,B2,405.0,1.5,82,145.01
3664,E-3,405.0,0.5,118,145.01
3665,E2,405.0,0.5,118,145.01
3666,E-3,405.5,1.5,122,145.01
3667,B1,405.5,1.5,113,145.01
3668,E-4,405.5,1.0,104,145.01
3669,F#4,405.5,1.5,104,145.01
3670,E-3,405.5,0.5,118,145.01
3671,C2,405.5,0.5,118,145.01
3672,F#5,405.516,659/500,123,145.01
3673,A5,405.516,659/500,123,145.01
3674,E-3,406.0,0.5,112,145.01
3675,B2,406.5,0.5,82,145.01
3676,E-3,406.5,0.5,118,145.01
3677,C2,406.5,0.5,118,145.01
3678,E5,406.911,1089/1000,113,145.01
3679,G#5,406.911,1089/1000,113,145.01
3680,C#3,407.0,1.0,112,145.01
3681,C#2,407.0,1.0,122,145.01
3682,E4,407.0,1.0,100,145.01
3683,G#4,407.0,1.0,100,145.01
3684,E2,407.0,0.5,118,145.01
3685,C#3,407.0,0.5,118,145.01
3686,F#3,407.5,4.0,126,145.01
3687,B3,407.5,4.0,126,145.01
3688,B2,407.5,4.0,126,145.01
3689,C#3,408.0,4.0,112,145.01
3690,C#2,408.0,0.5,122,145.01
3691,E5,408.0,1.797,113,145.01
3692,G#5,408.0,1.797,113,145.01
3693,E-3,408.0,0.5,112,145.01
3694,E4,408.0,0.5,100,145.01
3695,G#4,408.0,0.5,100,145.01
3696,G#3,408.5,0.5,112,145.01
3697,C#2,408.5,0.5,100,145.01
3698,C#4,408.5,1.0,107,145.01
3699,E-3,408.5,0.5,118,145.01
3700,C2,408.5,0.5,118,145.01
3701,C#4,409.0,1.0,112,145.01
3702,C#2,409.0,0.5,103,145.01
3703,E-3,409.0,0.5,118,145.01
3704,E2,409.0,0.5,118,145.01
3705,G#3,409.5,2.0,112,145.01
3706,C#2,409.5,0.5,107,145.01
3707,C#4,409.5,0.5,95,145.01
3708,E-3,409.5,0.5,112,145.01
3709,E2,409.75,0.5,123,145.01
3710,E4,410.0,2.0,102,145.01
3711,C#2,410.0,0.5,111,145.01
3712,C#4,410.0,0.5,95,145.01
3713,E-3,410.0,0.5,118,145.01
3714,C2,410.0,0.5,118,145.01
3715,C#5,410.448,77/200,113,145.01
3716,E5,410.448,77/200,113,145.01
3717,C#2,410.5,0.5,114,145.01
3718,C#4,410.5,0.5,113,145.01
3719,E-3,410.5,0.5,118,145.01
3720,C2,410.5,0.5,118,145.01
3721,C#5,410.964,177/500,123,145.01
3722,E5,410.964,177/500,123,145.01
3723,C#4,411.0,1.0,92,145.01
3724,C#2,411.0,0.5,118,145.01
3725,B3,411.0,0.5,107,145.01
3726,E-3,411.0,0.5,118,145.01
3727,E2,411.0,0.5,118,145.01
3728,C#5,411.469,0.531,113,145.01
3729,E5,411.469,0.531,113,145.01
3730,E2,411.5,0.5,122,145.01
3731,E2,411.5,1.0,113,145.01
3732,G#3,411.5,0.5,113,145.01
3733,C2,411.5,0.5,123,145.01
3734,B2,411.5,0.5,123,145.01
3735,E3,411.5,0.5,123,145.01
3736,G#3,412.0,1.5,122,145.01
3737,E2,412.0,1.5,122,145.01
3738,C#5,412.0,1/200,113,145.01
3739,E5,412.0,1/200,113,145.01
3740,E4,412.0,1.5,113,145.01
3741,G#4,412.0,1.5,113,145.01
3742,C#3,412.0,0.5,118,145.01
3743,C2,412.0,0.5,118,145.01
3744,G#5,412.062,113/100,123,145.01
3745,B5,412.062,113/100,123,145.01
3746,E3,413.0,0.5,92,145.01
3747,F#2,413.0,0.5,118,145.01
3748,B2,413.0,0.5,118,145.01
3749,E-3,413.0,0.5,118,145.01
3750,E2,413.0,0.5,118,145.01
3751,F#5,413.333,0.938,113,145.01
3752,A5,413.333,0.938,113,145.01
3753,E-3,413.5,1.5,122,145.01
3754,B1,413.5,1.5,113,145.01
3755,F#4,413.5,1.5,100,145.01
3756,E-4,413.5,1.5,100,145.01
3757,C2,413.5,0.5,118,145.01
3758,E-3,413.5,0.5,118,145.01
3759,C#3,414.0,0.5,55,145.01
3760,E-3,414.0,0.5,112,145.01
3761,E5,414.49,479/1000,111,145.01
3762,G#5,414.49,479/1000,111,145.01
3763,B2,414.5,0.5,102,145.01
3764,G#2,414.5,1.0,113,145.01
3765,C#3,414.5,1.0,113,145.01
3766,E-3,414.5,0.5,118,145.01
3767,C2,414.5,0.5,118,145.01
3768,C#3,415.0,1.0,112,145.01
3769,C#2,415.0,1.0,122,145.01
3770,C#4,415.0,1.0,113,145.01
3771,C#3,415.0,0.5,118,145.01
3772,E2,415.0,0.5,118,145.01
3773,E5,415.104,112/125,113,145.01
3774,G#5,415.104,112/125,113,145.01
3775,G#2,415.5,1.0,113,145.01
3776,C#3,415.5,0.5,113,145.01
3777,C#3,416.0,4.0,112,145.01
3778,C#2,416.0,0.5,122,145.01
3779,C#3,416.0,0.5,123,145.01
3780,E5,416.0,1401/500,113,145.01
3781,G#5,416.0,1401/500,113,145.01
3782,C#4,416.0,0.5,113,145.01
3783,C2,416.0,0.5,118,145.01
3784,E-3,416.0,0.5,118,145.01
3785,G#3,416.5,0.5,102,145.01
3786,C#2,416.5,0.5,99,145.01
3787,C#4,416.5,0.5,95,145.01
3788,G#2,416.5,0.5,70,145.01
3789,C#3,416.5,0.5,70,145.01
3790,E-3,416.5,0.5,118,145.01
3791,C2,416.5,0.5,118,145.01
3792,C#4,417.0,1.0,112,145.01
3793,C#2,417.0,0.5,103,145.01
3794,C#4,417.0,2.0,82,145.01
3795,G#2,417.0,0.5,108,145.01
3796,C#3,417.0,0.5,108,145.01
3797,E-3,417.0,0.5,118,145.01
3798,E2,417.0,0.5,118,145.01
3799,G#3,417.5,2.0,122,145.01
3800,C#2,417.5,0.5,107,145.01
3801,E-3,417.5,0.5,112,145.01
3802,G#2,417.5,0.5,78,145.01
3803,C#3,417.5,0.5,78,145.01
3804,E2,417.75,0.5,123,145.01
3805,E4,418.0,1.5,112,145.01
3806,C#2,418.0,0.5,112,145.01
3807,G#4,418.0,2.0,95,145.01
3808,G#2,418.0,0.5,103,145.01
3809,C#3,418.0,0.5,103,145.01
3810,E-3,418.0,0.5,118,145.01
3811,C2,418.0,0.5,118,145.01
3812,E2,418.25,0.5,123,145.01
3813,C#2,418.5,0.5,116,145.01
3814,G#2,418.5,1.0,85,145.01
3815,C#3,418.5,1.0,85,145.01
3816,E-3,418.5,0.5,118,145.01
3817,C2,418.5,0.5,118,145.01
3818,C#4,419.0,0.5,112,145.01
3819,C#2,419.0,0.5,120,145.01
3820,C#4,419.0,1.0,86,145.01
3821,E-3,419.0,0.5,118,145.01
3822,E2,419.0,0.5,118,145.01
3823,C#2,419.5,0.5,120,145.01
3824,C2,419.5,0.5,123,145.01
3825,B2,419.5,0.5,120,145.01
3826,E2,419.5,0.5,120,145.01
3827,E3,419.5,0.5,120,145.01
3828,C#5,419.51,49/100,123,145.01
3829,E5,419.51,49/100,123,145.01
3830,C#3,420.0,3.5,112,145.01
3831,F#2,420.0,0.5,113,145.01
3832,C#5,420.0,21/1000,123,145.01
3833,E5,420.0,21/1000,123,145.01
3834,F#4,420.0,0.5,122,145.01
3835,C2,420.0,0.5,118,145.01
3836,C#3,420.0,0.5,118,145.01
3837,A5,420.031,0.688,123,145.01
3838,C#6,420.031,0.688,123,145.01
3839,F#3,420.5,2.0,102,145.01
3840,F#2,420.5,0.5,103,145.01
3841,F#4,420.5,0.5,95,145.01
3842,E-3,420.5,0.5,112,145.01
3843,G#5,420.635,917/1000,113,145.01
3844,B5,420.635,917/1000,113,145.01
3845,F#2,421.0,0.5,110,145.01
3846,F#2,421.0,1.0,113,145.01
3847,B2,421.0,0.5,123,145.01
3848,C#4,421.0,0.5,104,145.01
3849,E-3,421.0,0.5,118,145.01
3850,E2,421.0,0.5,118,145.01
3851,C#4,421.5,2.5,122,145.01
3852,F#2,421.5,0.5,103,145.01
3853,C#4,421.5,0.5,95,145.01
3854,E-3,421.5,0.5,112,145.01
3855,F#5,421.568,112/125,111,145.01
3856,A5,421.568,112/125,111,145.01
3857,E2,421.75,0.5,123,145.01
3858,F#2,422.0,0.5,104,145.01
3859,F#4,422.0,0.5,122,145.01
3860,C2,422.0,0.5,118,145.01
3861,E-3,422.0,0.5,118,145.01
3862,E5,422.479,101/100,123,145.01
3863,G#5,422.479,101/100,123,145.01
3864,A3,422.5,1.5,102,145.01
3865,F#2,422.5,0.5,104,145.01
3866,G#2,422.5,1.0,113,145.01
3867,C#3,422.5,1.0,123,145.01
3868,F#4,422.5,0.5,93,145.01
3869,E-3,422.5,0.5,118,145.01
3870,C2,422.5,0.5,118,145.01
3871,F#2,423.0,0.5,105,145.01
3872,C#4,423.0,0.5,113,145.01
3873,E-3,423.0,0.5,118,145.01
3874,E2,423.0,0.5,118,145.01
3875,F#3,423.5,0.5,92,145.01
3876,F#2,423.5,0.5,105,145.01
3877,G#2,423.5,1.0,113,145.01
3878,C#3,423.5,0.5,123,145.01
3879,C#4,423.5,0.5,95,145.01
3880,C2,423.5,0.5,118,145.01
3881,E-3,423.5,0.5,118,145.01
3882,A5,423.505,99/200,113,145.01
3883,C#6,423.505,99/200,113,145.01
3884,C#3,424.0,3.5,122,145.01
3885,A3,424.0,0.5,102,145.01
3886,F#2,424.0,0.5,105,145.01
3887,C#3,424.0,0.5,103,145.01
3888,A5,424.0,159/500,113,145.01
3889,C#6,424.0,159/500,113,145.01
3890,F#4,424.0,0.5,113,145.01
3891,E-3,424.0,0.5,118,145.01
3892,C2,424.0,0.5,118,145.01
3893,F#3,424.5,2.0,112,145.01
3894,F#2,424.5,0.5,106,145.01
3895,G#5,424.5,0.953,113,145.01
3896,B5,424.5,0.953,113,145.01
3897,F#4,424.5,0.5,100,145.01
3898,E-3,424.5,0.5,112,145.01
3899,G#2,424.5,0.5,78,145.01
3900,C#3,424.5,0.5,78,145.01
3901,F#2,425.0,0.5,106,145.01
3902,C#4,425.0,0.5,113,145.01
3903,E-3,425.0,0.5,112,145.01
3904,E2,425.0,0.25,123,145.01
3905,G#2,425.0,0.5,100,145.01
3906,C#3,425.0,0.5,100,145.01
3907,C#4,425.5,2.5,112,145.01
3908,G#2,425.5,0.5,106,145.01
3909,C#4,425.5,0.5,95,145.01
3910,E-3,425.5,0.5,112,145.01
3911,G#2,425.5,0.5,75,145.01
3912,C#3,425.5,0.5,75,145.01
3913,F#5,425.505,0.891,111,145.01
3914,A5,425.505,0.891,111,145.01
3915,E2,425.75,0.25,123,145.01
3916,G#2,426.0,0.5,107,145.01
3917,F#4,426.0,0.5,122,145.01
3918,E-3,426.0,0.5,112,145.01
3919,C2,426.0,0.25,123,145.01
3920,G#2,426.0,0.5,106,145.01
3921,C#3,426.0,0.5,106,145.01
3922,E2,426.25,0.25,123,145.01
3923,E5,426.484,849/1000,113,145.01
3924,G#5,426.484,849/1000,113,145.01
3925,A3,426.5,1.5,102,145.01
3926,G#2,426.5,0.5,107,145.01
3927,G#2,426.5,1.0,88,145.01
3928,C#3,426.5,0.5,82,145.01
3929,F#4,426.5,0.5,104,145.01
3930,E-3,426.5,0.5,112,145.01
3931,C2,426.5,0.25,123,145.01
3932,A2,427.0,0.5,107,145.01
3933,C#3,427.0,0.5,103,145.01
3934,C#4,427.0,0.5,113,145.01
3935,C#3,427.0,0.5,112,145.01
3936,E2,427.0,0.25,123,145.01
3937,F#3,427.5,0.5,92,145.01
3938,A2,427.5,0.5,113,145.01
3939,C#4,427.5,0.5,104,145.01
3940,E-3,427.5,0.5,112,145.01
3941,C2,427.5,0.25,123,145.01
3942,C#3,427.5,3.5,113,145.01
3943,F#2,427.5,3.5,113,145.01
3944,F#3,427.5,3.5,113,145.01
3945,B2,428.0,4.0,123,145.01
3946,B1,428.0,0.5,113,145.01
3947,B3,428.0,4.0,114,145.01
3948,C2,428.0,0.5,118,145.01
3949,C#3,428.0,0.5,118,145.01
3950,E-5,428.026,1521/1000,123,145.01
3951,F#5,428.026,1521/1000,123,145.01
3952,B1,428.5,0.5,113,145.01
3953,E-3,428.5,0.5,112,145.01
3954,E-3,429.0,2.5,112,145.01
3955,B1,429.0,0.5,113,145.01
3956,E2,429.0,0.5,118,145.01
3957,E-3,429.0,0.5,118,145.01
3958,F#3,429.5,2.5,112,145.01
3959,B1,429.5,0.5,113,145.01
3960,E-3,429.5,0.5,112,145.01
3961,E5,429.536,943/1000,123,145.01
3962,G#5,429.536,943/1000,123,145.01
3963,B1,430.0,0.5,103,145.01
3964,C2,430.0,0.5,118,145.01
3965,E-3,430.0,0.5,118,145.01
3966,B3,430.5,1.5,102,145.01
3967,B1,430.5,0.5,113,145.01
3968,F#5,430.5,1.469,127,145.01
3969,A5,430.5,1.469,127,145.01
3970,C2,430.5,0.5,118,145.01
3971,E-3,430.5,0.5,118,145.01
3972,B1,431.0,0.5,113,145.01
3973,E-3,431.0,0.5,118,145.01
3974,E2,431.0,0.5,118,145.01
3975,B1,431.5,0.5,113,145.01
3976,E-3,431.5,0.5,112,145.01
3977,F#2,431.5,2.5,110,145.01
3978,C#3,431.5,2.5,110,145.01
3979,F#3,431.5,2.5,110,145.01
3980,C2,431.641,0.359,123,145.01
3981,A5,431.927,73/1000,123,145.01
3982,C#6,431.927,73/1000,123,145.01
3983,A2,432.0,1/200,116,145.01
3984,A3,432.0,1.5,112,145.01
3985,A1,432.0,0.5,113,145.01
3986,A5,432.0,4.0,123,145.01
3987,C#6,432.0,4.0,123,145.01
3988,A3,432.0,4.0,104,145.01
3989,E-3,432.0,0.5,118,145.01
3990,C2,432.0,0.5,118,145.01
3991,E3,432.5,1.5,102,145.01
3992,A1,432.5,0.5,113,145.01
3993,E-3,432.5,0.5,112,145.01
3994,A1,433.0,0.5,113,145.01
3995,E-3,433.0,0.5,118,145.01
3996,E2,433.0,0.5,118,145.01
3997,A3,433.5,2.5,102,145.01
3998,A1,433.5,0.5,113,145.01
3999,E-3,433.5,0.5,112,145.01
4000,E2,433.75,0.5,123,145.01
4001,A1,434.0,0.5,113,145.01
4002,E-3,434.0,0.5,118,145.01
4003,C2,434.0,0.5,118,145.01
4004,E2,434.25,0.5,123,145.01
4005,A1,434.5,0.5,103,145.01
4006,E-3,434.5,0.5,118,145.01
4007,C2,434.5,0.5,118,145.01
4008,E3,435.0,1.0,102,145.01
4009,A1,435.0,0.5,108,145.01
4010,E2,435.0,0.5,118,145.01
4011,E-3,435.0,0.5,118,145.01
4012,A1,435.5,0.5,107,145.01
4013,B3,435.5,2.5,113,145.01
4014,B2,435.5,3.5,123,145.01
4015,E-3,435.5,0.5,118,145.01
4016,E2,435.5,0.5,118,145.01
4017,A2,436.0,0.5,112,145.01
4018,E3,436.0,0.5,102,145.01
4019,A3,436.0,1/200,102,145.01
4020,A1,436.0,0.5,113,145.01
4021,A5,436.0,3.0,123,145.01
4022,C#6,436.0,3.0,123,145.01
4023,A3,436.0,2.0,122,145.01
4024,C2,436.0,0.5,123,145.01
4025,A2,436.5,3.0,112,145.01
4026,A1,436.5,0.5,103,145.01
4027,E2,436.5,0.5,118,145.01
4028,C#3,436.5,0.5,118,145.01
4029,E3,437.0,1/200,82,145.01
4030,A1,437.0,0.5,113,145.01
4031,E-3,437.0,0.5,118,145.01
4032,C2,437.0,0.5,118,145.01
4033,A3,437.5,1/200,112,145.01
4034,A1,437.5,0.5,111,145.01
4035,E3,437.5,1.5,113,145.01
4036,E-3,437.5,0.5,118,145.01
4037,C2,437.5,0.5,118,145.01
4038,A1,438.0,0.5,111,145.01
4039,C#3,438.0,0.5,118,145.01
4040,E2,438.0,0.5,118,145.01
4041,A1,438.5,0.5,112,145.01
4042,C2,438.5,0.5,123,145.01
4043,E3,439.0,1/200,112,145.01
4044,A1,439.0,0.5,112,145.01
4045,A3,439.0,1.0,113,145.01
4046,E2,439.0,0.25,123,145.01
4047,E2,439.25,0.5,123,145.01
4048,A1,439.5,0.5,113,145.01
4049,F2,439.5,0.5,112,145.01
4050,A3,439.5,1.5,118,145.01
4051,E3,439.5,1.5,118,145.01
4052,A2,439.5,1.5,118,145.01
4053,E4,440.0,1.5,122,145.01
4054,E2,440.0,1.5,109,145.01
4055,E4,440.0,4.0,123,145.01
4056,C2,440.0,0.5,123,145.01
4057,B5,440.068,299/200,127,145.01
4058,B3,441.0,1.5,82,145.01
4059,E3,441.0,2.5,103,145.01
4060,E-3,441.0,0.5,112,145.01
4061,A3,441.0,1.5,108,145.01
4062,A2,441.0,1.5,108,145.01
4063,E-4,441.5,1.5,122,145.01
4064,B1,441.5,1.5,107,145.01
4065,B3,441.5,2.5,113,145.01
4066,E-3,441.5,0.5,112,145.01
4067,A5,441.505,823/500,123,145.01
4068,B3,442.5,0.5,82,145.01
4069,E-3,442.5,0.5,112,145.01
4070,A3,442.5,1.0,118,145.01
4071,A2,442.5,1.0,118,145.01
4072,C#2,443.0,1.0,106,145.01
4073,E3,443.0,1.0,103,145.01
4074,E-3,443.0,0.5,112,145.01
4075,G#3,443.0,1.0,112,145.01
4076,C#4,443.0,1.0,112,145.01
4077,G#5,443.13,87/100,123,145.01
4078,E3,443.5,3.5,103,145.01
4079,A3,443.5,0.5,118,145.01
4080,A2,443.5,0.5,118,145.01
4081,C#2,444.0,4.0,106,145.01
4082,G#5,444.0,4.0,123,145.01
4083,E4,444.0,4.0,123,145.01
4084,B3,444.0,4.0,113,145.01
4085,E3,444.0,4.0,103,145.01
4086,A3,444.0,1.5,108,145.01
4087,A2,444.0,1.5,108,145.01
4088,A3,445.5,1.5,113,145.01
4089,A2,445.5,2.0,113,145.01
4090,E-3,445.5,0.5,112,145.01
4091,E-3,446.0,0.5,112,145.01
4092,E-3,446.5,0.5,112,145.01
4093,E-3,447.0,0.5,112,145.01
4094,E2,447.5,1.5,113,145.01
4095,E3,447.5,1.5,113,145.01
4096,E2,448.0,1.5,113,145.01
4097,G#5,448.0,4.0,123,145.01
4098,E4,448.0,4.0,123,145.01
4099,G#3,448.0,4.0,112,145.01
4100,C#4,448.0,4.0,112,145.01
4101,B2,449.0,1.5,123,145.01
4102,B1,449.5,1.5,110,145.01
4103,B3,449.5,2.5,113,145.01
4104,E3,450.5,1.0,108,145.01
4105,C#3,450.5,1.0,108,145.01
4106,C#2,451.0,1.0,107,145.01
4107,E3,451.0,1.0,103,145.01
4108,E4,452.0,1.5,122,145.01
4109,C#2,452.0,4.0,107,145.01
4110,E4,452.0,4.0,123,145.01
4111,B3,452.0,4.0,113,145.01
4112,E3,452.0,4.0,103,145.01
4113,B3,453.0,1.5,82,145.01
4114,E-4,453.5,1.5,122,145.01
4115,B3,454.5,0.5,82,145.01
4116,G#3,455.0,1.0,112,145.01
4117,C#4,455.0,1.0,112,145.01
4118,E3,455.5,4.0,108,145.01
4119,C#3,455.5,4.0,108,145.01
4120,C#2,456.0,4.0,107,145.01
4121,E4,456.0,4.0,123,145.01
4122,B3,456.0,4.0,113,145.01
4123,E3,456.0,4.0,103,145.01
4124,E3,459.5,1.5,113,145.01
4125,E2,459.5,1.5,113,145.01
4126,C#2,460.0,4.0,107,145.01
4127,E4,460.0,4.0,123,145.01
4128,B3,460.0,4.0,113,145.01
4129,E3,460.0,4.0,103,145.01
4130,B2,461.0,1.5,113,145.01
4131,E3,462.5,1.0,103,145.01
4132,C#3,462.5,1.0,103,145.01
4133,C#2,464.0,2.0,107,145.01
4134,E4,464.0,2.0,123,145.01
4135,B3,464.0,2.0,113,145.01
4136,E3,464.0,2.0,103,145.01
4137,G#3,470.0,4.0,112,145.01
4138,C#4,470.0,4.0,112,145.01
4139,G#3,474.0,4.0,112,145.01
4140,C#4,474.0,4.0,112,145.01
4141,E3,477.5,4.0,103,145.01
4142,C#3,477.5,4.0,103,145.01
4143,G#3,478.0,4.0,112,145.01
4144,C#4,478.0,4.0,112,145.01
4145,G#3,482.0,2.0,112,145.01
4146,C#4,482.0,2.0,112,145.01
4147,E3,491.5,4.0,103,145.01
4148,C#3,491.5,4.0,103,145.01
4149,E3,501.5,4.0,103,145.01
4150,C#3,501.5,4.0,103,145.01
4151,E3,507.5,2.0,103,145.01
4152,C#3,507.5,2.0,103,145.01
