,note_name,start_time,duration,velocity,tempo
0,C#2,0.0,1.0,84,120.0
1,C#2,0.0,1.0,84,120.0
2,C#2,2.0,1.0,84,120.0
3,C#2,2.0,1.0,84,120.0
4,C#2,4.0,1.0,64,120.0
5,C#2,4.0,1.0,64,120.0
6,C#2,5.0,1.0,84,120.0
7,C#2,5.0,1.0,84,120.0
8,C#2,6.0,1.0,64,120.0
9,C#2,6.0,1.0,64,120.0
10,C#2,7.0,1.0,84,120.0
11,C#2,7.0,1.0,84,120.0
12,F3,8.0,1.125,92,120.0
13,C2,8.0,0.5,64,120.0
14,F#2,8.0,0.5,70,120.0
15,F4,8.0,249/125,70,120.0
16,E-4,8.0,249/125,70,120.0
17,C4,8.0,249/125,70,120.0
18,G#4,8.0,249/125,70,120.0
19,C2,8.0,0.5,67,120.0
20,F#2,8.0,0.5,67,120.0
21,F#2,8.5,0.5,60,120.0
22,F#2,8.5,0.5,60,120.0
23,D2,9.0,0.5,79,120.0
24,F#2,9.0,0.5,70,120.0
25,D2,9.0,0.5,74,120.0
26,F#2,9.0,0.5,74,120.0
27,F3,9.5,0.375,86,120.0
28,C2,9.5,0.5,54,120.0
29,F#2,9.5,0.5,60,120.0
30,C2,9.5,0.5,57,120.0
31,F#2,9.5,0.5,57,120.0
32,F3,10.0,0.25,71,120.0
33,F3,10.0,1.125,90,120.0
34,C2,10.0,0.5,64,120.0
35,F#2,10.0,0.5,70,120.0
36,C2,10.0,0.5,67,120.0
37,F#2,10.0,0.5,67,120.0
38,F#2,10.5,0.5,60,120.0
39,F#2,10.5,0.5,60,120.0
40,F4,10.5,667/1000,70,120.0
41,E-4,10.5,667/1000,70,120.0
42,C4,10.5,667/1000,70,120.0
43,G#4,10.5,667/1000,70,120.0
44,D2,11.0,0.5,84,120.0
45,F#2,11.0,0.5,70,120.0
46,D2,11.0,0.5,77,120.0
47,F#2,11.0,0.5,77,120.0
48,F3,11.5,0.375,78,120.0
49,C2,11.5,0.5,64,120.0
50,F#2,11.5,0.5,60,120.0
51,C2,11.5,0.5,62,120.0
52,F#2,11.5,0.5,62,120.0
53,F3,12.0,1.125,89,120.0
54,C2,12.0,0.5,64,120.0
55,F#2,12.0,0.5,70,120.0
56,F4,12.0,249/125,70,120.0
57,E4,12.0,249/125,70,120.0
58,C4,12.0,249/125,70,120.0
59,G#4,12.0,249/125,70,120.0
60,C2,12.0,0.5,67,120.0
61,F#2,12.0,0.5,67,120.0
62,F#2,12.5,0.5,60,120.0
63,F#2,12.5,0.5,60,120.0
64,D2,13.0,0.5,79,120.0
65,F#2,13.0,0.5,70,120.0
66,D2,13.0,0.5,74,120.0
67,F#2,13.0,0.5,74,120.0
68,F3,13.5,0.375,93,120.0
69,C2,13.5,0.5,54,120.0
70,F#2,13.5,0.5,60,120.0
71,C2,13.5,0.5,57,120.0
72,F#2,13.5,0.5,57,120.0
73,F3,14.0,0.25,68,120.0
74,F3,14.0,1.125,90,120.0
75,C2,14.0,0.5,64,120.0
76,F#2,14.0,0.5,70,120.0
77,C2,14.0,0.5,67,120.0
78,F#2,14.0,0.5,67,120.0
79,C2,14.5,0.5,54,120.0
80,F#2,14.5,0.5,60,120.0
81,F4,14.5,667/1000,70,120.0
82,E4,14.5,667/1000,70,120.0
83,C4,14.5,667/1000,70,120.0
84,G#4,14.5,667/1000,70,120.0
85,C2,14.5,0.5,57,120.0
86,F#2,14.5,0.5,57,120.0
87,D2,15.0,0.5,84,120.0
88,F#2,15.0,0.5,70,120.0
89,D2,15.0,0.5,77,120.0
90,F#2,15.0,0.5,77,120.0
91,F3,15.5,0.25,70,120.0
92,F3,15.5,0.375,82,120.0
93,C2,15.5,0.5,64,120.0
94,F#2,15.5,0.5,60,120.0
95,C2,15.5,0.5,62,120.0
96,F#2,15.5,0.5,62,120.0
97,F3,16.0,1.125,85,120.0
98,C2,16.0,0.5,64,120.0
99,F#2,16.0,0.5,70,120.0
100,F4,16.0,0.75,70,120.0
101,E-4,16.0,0.75,70,120.0
102,C4,16.0,0.75,70,120.0
103,G#4,16.0,0.75,70,120.0
104,C2,16.0,0.5,67,120.0
105,F#2,16.0,0.5,67,120.0
106,F#2,16.5,0.5,60,120.0
107,F#2,16.5,0.5,60,120.0
108,D2,17.0,0.5,79,120.0
109,F#2,17.0,0.5,70,120.0
110,D2,17.0,0.5,74,120.0
111,F#2,17.0,0.5,74,120.0
112,F3,17.5,0.375,92,120.0
113,C2,17.5,0.5,54,120.0
114,F#2,17.5,0.5,60,120.0
115,C2,17.5,0.5,57,120.0
116,F#2,17.5,0.5,57,120.0
117,F3,18.0,1.125,87,120.0
118,C2,18.0,0.5,64,120.0
119,F#2,18.0,0.5,70,120.0
120,C2,18.0,0.5,67,120.0
121,F#2,18.0,0.5,67,120.0
122,F#2,18.5,0.5,60,120.0
123,F#2,18.5,0.5,60,120.0
124,D2,19.0,0.5,84,120.0
125,F#2,19.0,0.5,70,120.0
126,D2,19.0,0.5,77,120.0
127,F#2,19.0,0.5,77,120.0
128,F3,19.5,0.375,88,120.0
129,C2,19.5,0.5,64,120.0
130,F#2,19.5,0.5,60,120.0
131,C2,19.5,0.5,62,120.0
132,F#2,19.5,0.5,62,120.0
133,B-2,20.0,1.125,76,120.0
134,C2,20.0,0.5,64,120.0
135,F#2,20.0,0.5,70,120.0
136,G#4,20.0,249/125,70,120.0
137,F4,20.0,249/125,70,120.0
138,D4,20.0,249/125,70,120.0
139,C5,20.0,249/125,70,120.0
140,C2,20.0,0.5,67,120.0
141,F#2,20.0,0.5,67,120.0
142,F#2,20.5,0.5,60,120.0
143,F#2,20.5,0.5,60,120.0
144,D2,21.0,0.5,79,120.0
145,F#2,21.0,0.5,70,120.0
146,D2,21.0,0.5,74,120.0
147,F#2,21.0,0.5,74,120.0
148,B-2,21.5,0.375,81,120.0
149,C2,21.5,0.5,54,120.0
150,F#2,21.5,0.5,60,120.0
151,C2,21.5,0.5,57,120.0
152,F#2,21.5,0.5,57,120.0
153,B-2,22.0,1.125,102,120.0
154,C2,22.0,0.5,64,120.0
155,F#2,22.0,0.5,70,120.0
156,C2,22.0,0.5,67,120.0
157,F#2,22.0,0.5,67,120.0
158,C2,22.5,0.5,54,120.0
159,F2,22.5,0.5,70,120.0
160,F#2,22.5,0.5,60,120.0
161,G#4,22.5,667/1000,70,120.0
162,F4,22.5,667/1000,70,120.0
163,D4,22.5,667/1000,70,120.0
164,C5,22.5,667/1000,70,120.0
165,C2,22.5,0.5,61,120.0
166,F2,22.5,0.5,61,120.0
167,F#2,22.5,0.5,61,120.0
168,D2,23.0,0.5,84,120.0
169,F#2,23.0,0.5,70,120.0
170,D2,23.0,0.5,77,120.0
171,F#2,23.0,0.5,77,120.0
172,B-2,23.5,0.375,82,120.0
173,C2,23.5,0.5,64,120.0
174,F#2,23.5,0.5,60,120.0
175,C2,23.5,0.5,62,120.0
176,F#2,23.5,0.5,62,120.0
177,F3,24.0,1.125,90,120.0
178,C2,24.0,0.5,64,120.0
179,F#2,24.0,0.5,70,120.0
180,F4,24.0,0.75,70,120.0
181,E-4,24.0,0.75,70,120.0
182,C4,24.0,0.75,70,120.0
183,G#4,24.0,0.75,70,120.0
184,C2,24.0,0.5,67,120.0
185,F#2,24.0,0.5,67,120.0
186,F#2,24.5,0.5,60,120.0
187,F#2,24.5,0.5,60,120.0
188,D2,25.0,0.5,79,120.0
189,F#2,25.0,0.5,70,120.0
190,D2,25.0,0.5,74,120.0
191,F#2,25.0,0.5,74,120.0
192,F3,25.5,0.375,83,120.0
193,C2,25.5,0.5,54,120.0
194,F#2,25.5,0.5,60,120.0
195,C2,25.5,0.5,57,120.0
196,F#2,25.5,0.5,57,120.0
197,F3,26.0,1.125,85,120.0
198,C2,26.0,0.5,64,120.0
199,F#2,26.0,0.5,70,120.0
200,C2,26.0,0.5,67,120.0
201,F#2,26.0,0.5,67,120.0
202,F#2,26.5,0.5,60,120.0
203,F#2,26.5,0.5,60,120.0
204,D2,27.0,0.5,84,120.0
205,F#2,27.0,0.5,70,120.0
206,D2,27.0,0.5,77,120.0
207,F#2,27.0,0.5,77,120.0
208,F3,27.5,0.375,93,120.0
209,C2,27.5,0.5,64,120.0
210,B-2,27.5,0.5,60,120.0
211,C2,27.5,0.5,62,120.0
212,B-2,27.5,0.5,62,120.0
213,C#3,28.0,0.25,75,120.0
214,C#3,28.0,1.125,80,120.0
215,C2,28.0,0.5,64,120.0
216,F#2,28.0,0.5,70,120.0
217,C2,28.0,0.5,67,120.0
218,F#2,28.0,0.5,67,120.0
219,F#2,28.5,0.5,60,120.0
220,F#2,28.5,0.5,60,120.0
221,F4,28.5,667/1000,70,120.0
222,E-4,28.5,667/1000,70,120.0
223,B3,28.5,667/1000,70,120.0
224,G#4,28.5,667/1000,70,120.0
225,D2,29.0,0.5,79,120.0
226,F#2,29.0,0.5,70,120.0
227,D2,29.0,0.5,74,120.0
228,F#2,29.0,0.5,74,120.0
229,C#3,29.5,0.25,75,120.0
230,C#3,29.5,0.375,85,120.0
231,C2,29.5,0.5,54,120.0
232,F#2,29.5,0.5,60,120.0
233,C2,29.5,0.5,57,120.0
234,F#2,29.5,0.5,57,120.0
235,C#3,30.0,1.125,98,120.0
236,C2,30.0,0.5,64,120.0
237,F#2,30.0,0.5,70,120.0
238,F4,30.0,1.75,70,120.0
239,E-4,30.0,1.75,70,120.0
240,B3,30.0,1.75,70,120.0
241,G#4,30.0,1.75,70,120.0
242,C2,30.0,0.5,67,120.0
243,F#2,30.0,0.5,67,120.0
244,C2,30.5,0.5,54,120.0
245,F#2,30.5,0.5,60,120.0
246,C2,30.5,0.5,57,120.0
247,F#2,30.5,0.5,57,120.0
248,D2,31.0,0.5,84,120.0
249,F#2,31.0,0.5,70,120.0
250,D2,31.0,0.5,77,120.0
251,F#2,31.0,0.5,77,120.0
252,C#3,31.5,0.375,92,120.0
253,C2,31.5,0.5,64,120.0
254,F#2,31.5,0.5,60,120.0
255,C2,31.5,0.5,62,120.0
256,F#2,31.5,0.5,62,120.0
257,G3,32.0,0.25,68,120.0
258,G3,32.0,1.125,77,120.0
259,C2,32.0,0.5,64,120.0
260,F#2,32.0,0.5,70,120.0
261,C2,32.0,0.5,67,120.0
262,F#2,32.0,0.5,67,120.0
263,F#2,32.5,0.5,60,120.0
264,F#2,32.5,0.5,60,120.0
265,F4,32.5,667/1000,70,120.0
266,D4,32.5,667/1000,70,120.0
267,B-3,32.5,667/1000,70,120.0
268,G4,32.5,667/1000,70,120.0
269,D2,33.0,0.5,79,120.0
270,F#2,33.0,0.5,70,120.0
271,D2,33.0,0.5,74,120.0
272,F#2,33.0,0.5,74,120.0
273,G3,33.5,0.375,88,120.0
274,C2,33.5,0.5,54,120.0
275,F#2,33.5,0.5,60,120.0
276,C2,33.5,0.5,57,120.0
277,F#2,33.5,0.5,57,120.0
278,G3,34.0,1.125,102,120.0
279,C2,34.0,0.5,64,120.0
280,F#2,34.0,0.5,70,120.0
281,F4,34.0,1.75,70,120.0
282,D4,34.0,1.75,70,120.0
283,B-3,34.0,1.75,70,120.0
284,G4,34.0,1.75,70,120.0
285,C2,34.0,0.5,67,120.0
286,F#2,34.0,0.5,67,120.0
287,F#2,34.5,0.5,60,120.0
288,F#2,34.5,0.5,60,120.0
289,D2,35.0,0.5,84,120.0
290,F#2,35.0,0.5,70,120.0
291,D2,35.0,0.5,77,120.0
292,F#2,35.0,0.5,77,120.0
293,G3,35.5,0.375,93,120.0
294,C2,35.5,0.5,64,120.0
295,F#2,35.5,0.5,60,120.0
296,C2,35.5,0.5,62,120.0
297,F#2,35.5,0.5,62,120.0
298,C3,36.0,1.125,88,120.0
299,C2,36.0,0.5,64,120.0
300,F#2,36.0,0.5,70,120.0
301,E4,36.0,249/125,70,120.0
302,C4,36.0,249/125,70,120.0
303,B-3,36.0,249/125,70,120.0
304,G#4,36.0,249/125,70,120.0
305,C2,36.0,0.5,67,120.0
306,F#2,36.0,0.5,67,120.0
307,F#2,36.5,0.5,60,120.0
308,F#2,36.5,0.5,60,120.0
309,D2,37.0,0.5,79,120.0
310,F#2,37.0,0.5,70,120.0
311,D2,37.0,0.5,74,120.0
312,F#2,37.0,0.5,74,120.0
313,C3,37.5,0.375,90,120.0
314,C2,37.5,0.5,54,120.0
315,F#2,37.5,0.5,60,120.0
316,C2,37.5,0.5,57,120.0
317,F#2,37.5,0.5,57,120.0
318,C3,38.0,0.25,70,120.0
319,C3,38.0,1.125,104,120.0
320,C2,38.0,0.5,64,120.0
321,F#2,38.0,0.5,70,120.0
322,C2,38.0,0.5,67,120.0
323,F#2,38.0,0.5,67,120.0
324,D2,38.5,167/1000,50,120.0
325,F#2,38.5,167/1000,60,120.0
326,E4,38.5,667/1000,70,120.0
327,C4,38.5,667/1000,70,120.0
328,B-3,38.5,667/1000,70,120.0
329,G#4,38.5,667/1000,70,120.0
330,D2,38.5,167/1000,55,120.0
331,F#2,38.5,167/1000,55,120.0
332,D2,38.667,167/1000,55,120.0
333,D2,38.667,167/1000,55,120.0
334,D2,38.833,167/1000,60,120.0
335,D2,38.833,167/1000,60,120.0
336,D2,39.0,0.5,84,120.0
337,F#2,39.0,0.5,70,120.0
338,D2,39.0,0.5,77,120.0
339,F#2,39.0,0.5,77,120.0
340,F3,39.5,0.25,70,120.0
341,C3,39.5,0.375,94,120.0
342,C2,39.5,0.5,64,120.0
343,D2,39.5,0.5,74,120.0
344,B-2,39.5,0.5,60,120.0
345,D2,39.5,0.5,66,120.0
346,C2,39.5,0.5,66,120.0
347,B-2,39.5,0.5,66,120.0
348,F3,40.0,1.125,77,120.0
349,C2,40.0,0.5,64,120.0
350,F#2,40.0,0.5,70,120.0
351,F4,40.0,249/125,70,120.0
352,E-4,40.0,249/125,70,120.0
353,C4,40.0,249/125,70,120.0
354,G#4,40.0,249/125,70,120.0
355,C2,40.0,0.5,67,120.0
356,F#2,40.0,0.5,67,120.0
357,F#2,40.5,0.5,60,120.0
358,F#2,40.5,0.5,60,120.0
359,D2,41.0,0.5,79,120.0
360,C#3,41.0,0.5,70,120.0
361,D2,41.0,0.5,74,120.0
362,C#3,41.0,0.5,74,120.0
363,F3,41.5,0.375,91,120.0
364,C2,41.5,0.5,54,120.0
365,F#2,41.5,0.5,60,120.0
366,C2,41.5,0.5,57,120.0
367,F#2,41.5,0.5,57,120.0
368,F3,42.0,1.125,85,120.0
369,C2,42.0,0.5,64,120.0
370,F#2,42.0,0.5,70,120.0
371,C2,42.0,0.5,67,120.0
372,F#2,42.0,0.5,67,120.0
373,F3,42.5,0.25,68,120.0
374,F#2,42.5,0.5,60,120.0
375,F#2,42.5,0.5,60,120.0
376,D2,43.0,0.5,84,120.0
377,F#2,43.0,0.5,70,120.0
378,F4,43.0,667/1000,80,120.0
379,E-4,43.0,667/1000,80,120.0
380,C4,43.0,667/1000,80,120.0
381,G#4,43.0,667/1000,80,120.0
382,D2,43.0,0.5,77,120.0
383,F#2,43.0,0.5,77,120.0
384,F3,43.5,0.375,85,120.0
385,C2,43.5,0.5,64,120.0
386,F#2,43.5,0.5,60,120.0
387,C2,43.5,0.5,62,120.0
388,F#2,43.5,0.5,62,120.0
389,F3,44.0,1.125,83,120.0
390,C2,44.0,0.5,64,120.0
391,F#2,44.0,0.5,70,120.0
392,F4,44.0,249/125,70,120.0
393,E4,44.0,249/125,70,120.0
394,C4,44.0,249/125,70,120.0
395,G#4,44.0,249/125,70,120.0
396,C2,44.0,0.5,67,120.0
397,F#2,44.0,0.5,67,120.0
398,F#2,44.5,0.5,60,120.0
399,F#2,44.5,0.5,60,120.0
400,D2,45.0,0.5,79,120.0
401,F#2,45.0,0.5,70,120.0
402,D2,45.0,0.5,74,120.0
403,F#2,45.0,0.5,74,120.0
404,F3,45.5,0.375,85,120.0
405,C2,45.5,0.5,54,120.0
406,F#2,45.5,0.5,60,120.0
407,C2,45.5,0.5,57,120.0
408,F#2,45.5,0.5,57,120.0
409,F3,46.0,1.125,91,120.0
410,C2,46.0,0.5,64,120.0
411,F#2,46.0,0.5,70,120.0
412,C2,46.0,0.5,67,120.0
413,F#2,46.0,0.5,67,120.0
414,C2,46.5,0.5,54,120.0
415,F#2,46.5,0.5,60,120.0
416,F4,46.5,667/1000,70,120.0
417,E4,46.5,667/1000,70,120.0
418,C4,46.5,667/1000,70,120.0
419,G#4,46.5,667/1000,70,120.0
420,C2,46.5,0.5,57,120.0
421,F#2,46.5,0.5,57,120.0
422,D2,47.0,0.5,84,120.0
423,F#2,47.0,0.5,70,120.0
424,D2,47.0,0.5,77,120.0
425,F#2,47.0,0.5,77,120.0
426,F3,47.5,0.375,80,120.0
427,C2,47.5,0.5,64,120.0
428,F#2,47.5,0.5,60,120.0
429,C2,47.5,0.5,62,120.0
430,F#2,47.5,0.5,62,120.0
431,F3,48.0,1.125,81,120.0
432,C2,48.0,0.5,64,120.0
433,F#2,48.0,0.5,70,120.0
434,C2,48.0,0.5,67,120.0
435,F#2,48.0,0.5,67,120.0
436,F#2,48.5,0.5,60,120.0
437,F#2,48.5,0.5,60,120.0
438,F4,48.5,667/1000,70,120.0
439,E-4,48.5,667/1000,70,120.0
440,C4,48.5,667/1000,70,120.0
441,G#4,48.5,667/1000,70,120.0
442,D2,49.0,0.5,79,120.0
443,F#2,49.0,0.5,70,120.0
444,D2,49.0,0.5,74,120.0
445,F#2,49.0,0.5,74,120.0
446,F3,49.5,0.25,75,120.0
447,F3,49.5,0.375,83,120.0
448,C2,49.5,0.5,54,120.0
449,F#2,49.5,0.5,60,120.0
450,C2,49.5,0.5,57,120.0
451,F#2,49.5,0.5,57,120.0
452,F3,50.0,1.125,94,120.0
453,C2,50.0,0.5,64,120.0
454,F#2,50.0,0.5,70,120.0
455,F4,50.0,1.75,70,120.0
456,E-4,50.0,1.75,70,120.0
457,C4,50.0,1.75,70,120.0
458,G#4,50.0,1.75,70,120.0
459,C2,50.0,0.5,67,120.0
460,F#2,50.0,0.5,67,120.0
461,F#2,50.5,0.5,60,120.0
462,F#2,50.5,0.5,60,120.0
463,D2,51.0,0.5,84,120.0
464,F#2,51.0,0.5,70,120.0
465,D2,51.0,0.5,77,120.0
466,F#2,51.0,0.5,77,120.0
467,F3,51.5,0.375,83,120.0
468,C2,51.5,0.5,64,120.0
469,F#2,51.5,0.5,60,120.0
470,C2,51.5,0.5,62,120.0
471,F#2,51.5,0.5,62,120.0
472,B-2,52.0,1.125,86,120.0
473,C2,52.0,0.5,64,120.0
474,F#2,52.0,0.5,70,120.0
475,G#4,52.0,0.75,70,120.0
476,F4,52.0,0.75,70,120.0
477,D4,52.0,0.75,70,120.0
478,C5,52.0,0.75,70,120.0
479,C2,52.0,0.5,67,120.0
480,F#2,52.0,0.5,67,120.0
481,F2,52.5,0.5,60,120.0
482,F#2,52.5,0.5,60,120.0
483,F2,52.5,0.5,60,120.0
484,F#2,52.5,0.5,60,120.0
485,D2,53.0,0.5,79,120.0
486,F#2,53.0,0.5,70,120.0
487,D2,53.0,0.5,74,120.0
488,F#2,53.0,0.5,74,120.0
489,B-2,53.5,0.375,77,120.0
490,C2,53.5,0.5,54,120.0
491,F#2,53.5,0.5,60,120.0
492,C2,53.5,0.5,57,120.0
493,F#2,53.5,0.5,57,120.0
494,B-2,54.0,1.125,98,120.0
495,C2,54.0,0.5,64,120.0
496,F#2,54.0,0.5,70,120.0
497,C2,54.0,0.5,67,120.0
498,F#2,54.0,0.5,67,120.0
499,C2,54.5,0.5,54,120.0
500,F2,54.5,0.5,70,120.0
501,F#2,54.5,0.5,60,120.0
502,C2,54.5,0.5,61,120.0
503,F2,54.5,0.5,61,120.0
504,F#2,54.5,0.5,61,120.0
505,D2,55.0,0.5,84,120.0
506,F#2,55.0,0.5,70,120.0
507,D2,55.0,0.5,77,120.0
508,F#2,55.0,0.5,77,120.0
509,B-2,55.5,0.375,92,120.0
510,C2,55.5,0.5,64,120.0
511,F#2,55.5,0.5,60,120.0
512,C2,55.5,0.5,62,120.0
513,F#2,55.5,0.5,62,120.0
514,C#3,56.0,1.125,91,120.0
515,C2,56.0,0.5,64,120.0
516,F#2,56.0,0.5,70,120.0
517,F4,56.0,0.75,70,120.0
518,E-4,56.0,0.75,70,120.0
519,B3,56.0,0.75,70,120.0
520,G#4,56.0,0.75,70,120.0
521,C2,56.0,0.5,67,120.0
522,F#2,56.0,0.5,67,120.0
523,F#2,56.5,0.5,60,120.0
524,F#2,56.5,0.5,60,120.0
525,D2,57.0,0.5,79,120.0
526,F#2,57.0,0.5,70,120.0
527,D2,57.0,0.5,74,120.0
528,F#2,57.0,0.5,74,120.0
529,C#3,57.5,0.375,75,120.0
530,C2,57.5,0.5,54,120.0
531,F#2,57.5,0.5,60,120.0
532,C2,57.5,0.5,57,120.0
533,F#2,57.5,0.5,57,120.0
534,C#3,58.0,1.125,95,120.0
535,C2,58.0,0.5,64,120.0
536,F#2,58.0,0.5,70,120.0
537,C2,58.0,0.5,67,120.0
538,F#2,58.0,0.5,67,120.0
539,F#2,58.5,0.5,60,120.0
540,F#2,58.5,0.5,60,120.0
541,D2,59.0,0.5,84,120.0
542,F#2,59.0,0.5,70,120.0
543,D2,59.0,0.5,77,120.0
544,F#2,59.0,0.5,77,120.0
545,C#3,59.5,0.375,94,120.0
546,C2,59.5,0.5,64,120.0
547,F#2,59.5,0.5,60,120.0
548,C2,59.5,0.5,62,120.0
549,F#2,59.5,0.5,62,120.0
550,C3,60.0,1.125,75,120.0
551,C2,60.0,0.5,64,120.0
552,F#2,60.0,0.5,70,120.0
553,E4,60.0,249/125,70,120.0
554,C4,60.0,249/125,70,120.0
555,B-3,60.0,249/125,70,120.0
556,G#4,60.0,249/125,70,120.0
557,C2,60.0,0.5,67,120.0
558,F#2,60.0,0.5,67,120.0
559,F#2,60.5,0.5,60,120.0
560,F#2,60.5,0.5,60,120.0
561,D2,61.0,0.5,79,120.0
562,F#2,61.0,0.5,70,120.0
563,D2,61.0,0.5,74,120.0
564,F#2,61.0,0.5,74,120.0
565,C3,61.5,0.375,84,120.0
566,C2,61.5,0.5,54,120.0
567,F#2,61.5,0.5,60,120.0
568,C2,61.5,0.5,57,120.0
569,F#2,61.5,0.5,57,120.0
570,C3,62.0,1.125,96,120.0
571,C2,62.0,0.5,64,120.0
572,F#2,62.0,0.5,70,120.0
573,C2,62.0,0.5,67,120.0
574,F#2,62.0,0.5,67,120.0
575,C3,62.5,0.25,69,120.0
576,C2,62.5,0.5,54,120.0
577,F#2,62.5,0.5,60,120.0
578,C2,62.5,0.5,57,120.0
579,F#2,62.5,0.5,57,120.0
580,D2,63.0,0.5,84,120.0
581,F#2,63.0,0.5,70,120.0
582,E4,63.0,667/1000,80,120.0
583,C4,63.0,667/1000,80,120.0
584,B-3,63.0,667/1000,80,120.0
585,G#4,63.0,667/1000,80,120.0
586,D2,63.0,0.5,77,120.0
587,F#2,63.0,0.5,77,120.0
588,C3,63.5,0.375,79,120.0
589,C2,63.5,0.5,64,120.0
590,B-2,63.5,0.5,60,120.0
591,C2,63.5,0.5,62,120.0
592,B-2,63.5,0.5,62,120.0
593,F3,64.0,1.125,94,120.0
594,C2,64.0,0.5,64,120.0
595,F#2,64.0,0.5,70,120.0
596,F4,64.0,0.75,70,120.0
597,E-4,64.0,0.75,70,120.0
598,C4,64.0,0.75,70,120.0
599,G#4,64.0,0.75,70,120.0
600,C2,64.0,0.5,67,120.0
601,F#2,64.0,0.5,67,120.0
602,F#2,64.5,0.5,60,120.0
603,F#2,64.5,0.5,60,120.0
604,D2,65.0,0.5,79,120.0
605,F#2,65.0,0.5,70,120.0
606,D2,65.0,0.5,74,120.0
607,F#2,65.0,0.5,74,120.0
608,F3,65.5,0.375,82,120.0
609,C2,65.5,0.5,54,120.0
610,F#2,65.5,0.5,60,120.0
611,C2,65.5,0.5,57,120.0
612,F#2,65.5,0.5,57,120.0
613,F3,66.0,1.125,98,120.0
614,C2,66.0,0.5,64,120.0
615,F#2,66.0,0.5,70,120.0
616,C2,66.0,0.5,67,120.0
617,F#2,66.0,0.5,67,120.0
618,F#2,66.5,0.5,60,120.0
619,F#2,66.5,0.5,60,120.0
620,D2,67.0,0.5,84,120.0
621,F#2,67.0,0.5,70,120.0
622,D2,67.0,0.5,77,120.0
623,F#2,67.0,0.5,77,120.0
624,F3,67.5,0.375,75,120.0
625,C2,67.5,0.5,64,120.0
626,F#2,67.5,0.5,60,120.0
627,C2,67.5,0.5,62,120.0
628,F#2,67.5,0.5,62,120.0
629,F3,68.0,1.125,91,120.0
630,C2,68.0,0.5,64,120.0
631,F#2,68.0,0.5,70,120.0
632,C2,68.0,0.5,67,120.0
633,F#2,68.0,0.5,67,120.0
634,D2,68.5,167/1000,50,120.0
635,F#2,68.5,167/1000,60,120.0
636,F4,68.5,1.25,70,120.0
637,E-4,68.5,1.25,70,120.0
638,C4,68.5,1.25,70,120.0
639,G#4,68.5,1.25,70,120.0
640,D2,68.5,167/1000,55,120.0
641,F#2,68.5,167/1000,55,120.0
642,D2,68.667,167/1000,55,120.0
643,D2,68.667,167/1000,55,120.0
644,D2,68.833,167/1000,60,120.0
645,D2,68.833,167/1000,60,120.0
646,D2,69.0,0.5,75,120.0
647,F#2,69.0,0.5,60,120.0
648,D2,69.0,0.5,68,120.0
649,F#2,69.0,0.5,68,120.0
650,F3,69.5,0.375,79,120.0
651,C2,69.5,0.5,54,120.0
652,F#2,69.5,0.5,70,120.0
653,A2,69.5,0.5,70,120.0
654,C2,69.5,0.5,65,120.0
655,A2,69.5,0.5,65,120.0
656,F#2,69.5,0.5,65,120.0
657,E3,70.0,0.75,88,120.0
658,C2,70.0,0.5,64,120.0
659,F#2,70.0,0.5,70,120.0
660,C3,70.0,0.5,70,120.0
661,E4,70.0,0.75,70,120.0
662,D4,70.0,0.75,70,120.0
663,B3,70.0,0.75,70,120.0
664,G4,70.0,0.75,70,120.0
665,C3,70.0,0.5,68,120.0
666,C2,70.0,0.5,68,120.0
667,F#2,70.0,0.5,68,120.0
668,F#2,70.5,0.5,60,120.0
669,A2,70.5,0.5,65,120.0
670,A2,70.5,0.5,62,120.0
671,F#2,70.5,0.5,62,120.0
672,A2,71.0,0.75,103,120.0
673,F#2,71.0,0.5,70,120.0
674,A2,71.0,0.5,75,120.0
675,G4,71.0,0.75,70,120.0
676,E4,71.0,0.75,70,120.0
677,C#4,71.0,0.75,70,120.0
678,A4,71.0,0.75,70,120.0
679,A2,71.0,0.5,72,120.0
680,F#2,71.0,0.5,72,120.0
681,C2,71.5,0.5,64,120.0
682,F2,71.5,0.5,90,120.0
683,F#2,71.5,0.5,60,120.0
684,F2,71.5,0.5,71,120.0
685,C2,71.5,0.5,71,120.0
686,F#2,71.5,0.5,71,120.0
687,E-3,72.0,1.125,86,120.0
688,C2,72.0,0.5,64,120.0
689,F#2,72.0,0.5,70,120.0
690,F#4,72.0,249/125,70,120.0
691,F4,72.0,249/125,70,120.0
692,C#4,72.0,249/125,70,120.0
693,B-4,72.0,249/125,70,120.0
694,C2,72.0,0.5,67,120.0
695,F#2,72.0,0.5,67,120.0
696,F#2,72.5,0.5,60,120.0
697,F#2,72.5,0.5,60,120.0
698,D2,73.0,0.5,79,120.0
699,C#3,73.0,0.5,70,120.0
700,D2,73.0,0.5,74,120.0
701,C#3,73.0,0.5,74,120.0
702,E-3,73.5,0.375,83,120.0
703,C2,73.5,0.5,54,120.0
704,F#2,73.5,0.5,60,120.0
705,C2,73.5,0.5,57,120.0
706,F#2,73.5,0.5,57,120.0
707,B-2,74.0,1.125,98,120.0
708,C2,74.0,0.5,64,120.0
709,F#2,74.0,0.5,70,120.0
710,C2,74.0,0.5,67,120.0
711,F#2,74.0,0.5,67,120.0
712,F#2,74.5,0.5,60,120.0
713,F#2,74.5,0.5,60,120.0
714,D2,75.0,0.5,84,120.0
715,F#2,75.0,0.5,70,120.0
716,F#4,75.0,667/1000,80,120.0
717,F4,75.0,667/1000,80,120.0
718,C#4,75.0,667/1000,80,120.0
719,B-4,75.0,667/1000,80,120.0
720,D2,75.0,0.5,77,120.0
721,F#2,75.0,0.5,77,120.0
722,B-2,75.5,0.375,75,120.0
723,C2,75.5,0.5,64,120.0
724,B-2,75.5,0.5,60,120.0
725,C2,75.5,0.5,62,120.0
726,B-2,75.5,0.5,62,120.0
727,G#2,76.0,1.125,76,120.0
728,C2,76.0,0.5,64,120.0
729,F#2,76.0,0.5,70,120.0
730,F#4,76.0,0.75,70,120.0
731,E-4,76.0,0.75,70,120.0
732,C4,76.0,0.75,70,120.0
733,B-4,76.0,0.75,70,120.0
734,C2,76.0,0.5,67,120.0
735,F#2,76.0,0.5,67,120.0
736,F#2,76.5,0.5,60,120.0
737,F#2,76.5,0.5,60,120.0
738,D2,77.0,0.5,79,120.0
739,F#2,77.0,0.5,70,120.0
740,D2,77.0,0.5,74,120.0
741,F#2,77.0,0.5,74,120.0
742,G#2,77.5,0.375,82,120.0
743,C2,77.5,0.5,54,120.0
744,F#2,77.5,0.5,60,120.0
745,C2,77.5,0.5,57,120.0
746,F#2,77.5,0.5,57,120.0
747,E-2,78.0,1.125,104,120.0
748,C2,78.0,0.5,64,120.0
749,F#2,78.0,0.5,70,120.0
750,C2,78.0,0.5,67,120.0
751,F#2,78.0,0.5,67,120.0
752,C2,78.5,0.5,54,120.0
753,F#2,78.5,0.5,60,120.0
754,C2,78.5,0.5,57,120.0
755,F#2,78.5,0.5,57,120.0
756,D2,79.0,0.5,84,120.0
757,F#2,79.0,0.5,70,120.0
758,D2,79.0,0.5,77,120.0
759,F#2,79.0,0.5,77,120.0
760,E-2,79.5,0.375,81,120.0
761,C2,79.5,0.5,64,120.0
762,F#2,79.5,0.5,60,120.0
763,C2,79.5,0.5,62,120.0
764,F#2,79.5,0.5,62,120.0
765,C#3,80.0,1.125,91,120.0
766,C2,80.0,0.5,64,120.0
767,F#2,80.0,0.5,70,120.0
768,F4,80.0,0.75,70,120.0
769,E-4,80.0,0.75,70,120.0
770,C4,80.0,0.75,70,120.0
771,G#4,80.0,0.75,70,120.0
772,C2,80.0,0.5,67,120.0
773,F#2,80.0,0.5,67,120.0
774,F#2,80.5,0.5,60,120.0
775,F#2,80.5,0.5,60,120.0
776,D2,81.0,0.5,79,120.0
777,F#2,81.0,0.5,70,120.0
778,D2,81.0,0.5,74,120.0
779,F#2,81.0,0.5,74,120.0
780,C#3,81.5,0.375,82,120.0
781,C2,81.5,0.5,54,120.0
782,F#2,81.5,0.5,60,120.0
783,C2,81.5,0.5,57,120.0
784,F#2,81.5,0.5,57,120.0
785,G#2,82.0,1.125,102,120.0
786,C2,82.0,0.5,64,120.0
787,F#2,82.0,0.5,70,120.0
788,C2,82.0,0.5,67,120.0
789,F#2,82.0,0.5,67,120.0
790,F#2,82.5,0.5,60,120.0
791,F#2,82.5,0.5,60,120.0
792,D2,83.0,0.5,84,120.0
793,F#2,83.0,0.5,70,120.0
794,D2,83.0,0.5,77,120.0
795,F#2,83.0,0.5,77,120.0
796,G#2,83.5,0.375,84,120.0
797,C2,83.5,0.5,64,120.0
798,F#2,83.5,0.5,60,120.0
799,C2,83.5,0.5,62,120.0
800,F#2,83.5,0.5,62,120.0
801,B-2,84.0,1.125,85,120.0
802,C2,84.0,0.5,64,120.0
803,F#2,84.0,0.5,70,120.0
804,C2,84.0,0.5,67,120.0
805,F#2,84.0,0.5,67,120.0
806,F2,84.5,0.5,60,120.0
807,F#2,84.5,0.5,60,120.0
808,D4,84.5,667/1000,70,120.0
809,B-3,84.5,667/1000,70,120.0
810,G#3,84.5,667/1000,70,120.0
811,F4,84.5,667/1000,70,120.0
812,F2,84.5,0.5,60,120.0
813,F#2,84.5,0.5,60,120.0
814,D2,85.0,0.5,79,120.0
815,F#2,85.0,0.5,70,120.0
816,D2,85.0,0.5,74,120.0
817,F#2,85.0,0.5,74,120.0
818,B-2,85.5,0.25,70,120.0
819,B-2,85.5,0.375,81,120.0
820,C2,85.5,0.5,54,120.0
821,F#2,85.5,0.5,60,120.0
822,C2,85.5,0.5,57,120.0
823,F#2,85.5,0.5,57,120.0
824,F2,86.0,1.125,91,120.0
825,C2,86.0,0.5,64,120.0
826,F#2,86.0,0.5,70,120.0
827,D4,86.0,1.75,70,120.0
828,B-3,86.0,1.75,70,120.0
829,G#3,86.0,1.75,70,120.0
830,F4,86.0,1.75,70,120.0
831,C2,86.0,0.5,67,120.0
832,F#2,86.0,0.5,67,120.0
833,C2,86.5,0.5,54,120.0
834,F2,86.5,0.5,70,120.0
835,F#2,86.5,0.5,60,120.0
836,C2,86.5,0.5,61,120.0
837,F2,86.5,0.5,61,120.0
838,F#2,86.5,0.5,61,120.0
839,D2,87.0,0.5,84,120.0
840,F#2,87.0,0.5,70,120.0
841,D2,87.0,0.5,77,120.0
842,F#2,87.0,0.5,77,120.0
843,F2,87.5,0.375,87,120.0
844,C2,87.5,0.5,64,120.0
845,F#2,87.5,0.5,60,120.0
846,C2,87.5,0.5,62,120.0
847,F#2,87.5,0.5,62,120.0
848,E-3,88.0,1.125,76,120.0
849,C2,88.0,0.5,64,120.0
850,F#2,88.0,0.5,70,120.0
851,F#4,88.0,249/125,70,120.0
852,E-4,88.0,249/125,70,120.0
853,C#4,88.0,249/125,70,120.0
854,B-4,88.0,249/125,70,120.0
855,C2,88.0,0.5,67,120.0
856,F#2,88.0,0.5,67,120.0
857,F#2,88.5,0.5,60,120.0
858,F#2,88.5,0.5,60,120.0
859,D2,89.0,0.5,79,120.0
860,F#2,89.0,0.5,70,120.0
861,D2,89.0,0.5,74,120.0
862,F#2,89.0,0.5,74,120.0
863,E-3,89.5,0.375,80,120.0
864,C2,89.5,0.5,54,120.0
865,F#2,89.5,0.5,60,120.0
866,C2,89.5,0.5,57,120.0
867,F#2,89.5,0.5,57,120.0
868,B-2,90.0,1.125,99,120.0
869,C2,90.0,0.5,64,120.0
870,F#2,90.0,0.5,70,120.0
871,C2,90.0,0.5,67,120.0
872,F#2,90.0,0.5,67,120.0
873,F#2,90.5,0.5,60,120.0
874,F#2,90.5,0.5,60,120.0
875,F#4,90.5,667/1000,70,120.0
876,E-4,90.5,667/1000,70,120.0
877,C#4,90.5,667/1000,70,120.0
878,B-4,90.5,667/1000,70,120.0
879,D2,91.0,0.5,84,120.0
880,F#2,91.0,0.5,70,120.0
881,D2,91.0,0.5,77,120.0
882,F#2,91.0,0.5,77,120.0
883,B-2,91.5,0.375,84,120.0
884,C2,91.5,0.5,64,120.0
885,B-2,91.5,0.5,60,120.0
886,C2,91.5,0.5,62,120.0
887,B-2,91.5,0.5,62,120.0
888,G#2,92.0,1.125,79,120.0
889,C2,92.0,0.5,64,120.0
890,F#2,92.0,0.5,70,120.0
891,C2,92.0,0.5,67,120.0
892,F#2,92.0,0.5,67,120.0
893,F#2,92.5,0.5,60,120.0
894,F#2,92.5,0.5,60,120.0
895,F#4,92.5,667/1000,70,120.0
896,E-4,92.5,667/1000,70,120.0
897,C4,92.5,667/1000,70,120.0
898,B-4,92.5,667/1000,70,120.0
899,D2,93.0,0.5,79,120.0
900,F#2,93.0,0.5,70,120.0
901,D2,93.0,0.5,74,120.0
902,F#2,93.0,0.5,74,120.0
903,G#2,93.5,0.375,81,120.0
904,C2,93.5,0.5,54,120.0
905,F#2,93.5,0.5,60,120.0
906,C2,93.5,0.5,57,120.0
907,F#2,93.5,0.5,57,120.0
908,G#2,94.0,1.125,94,120.0
909,C2,94.0,0.5,64,120.0
910,F#2,94.0,0.5,70,120.0
911,F#4,94.0,1.75,70,120.0
912,E-4,94.0,1.75,70,120.0
913,C4,94.0,1.75,70,120.0
914,B-4,94.0,1.75,70,120.0
915,C2,94.0,0.5,67,120.0
916,F#2,94.0,0.5,67,120.0
917,C2,94.5,0.5,54,120.0
918,F#2,94.5,0.5,60,120.0
919,C2,94.5,0.5,57,120.0
920,F#2,94.5,0.5,57,120.0
921,D2,95.0,0.5,84,120.0
922,F#2,95.0,0.5,70,120.0
923,D2,95.0,0.5,77,120.0
924,F#2,95.0,0.5,77,120.0
925,G#2,95.5,0.375,84,120.0
926,C2,95.5,0.5,64,120.0
927,F#2,95.5,0.5,60,120.0
928,C2,95.5,0.5,62,120.0
929,F#2,95.5,0.5,62,120.0
930,C#3,96.0,1.125,79,120.0
931,C2,96.0,0.5,64,120.0
932,F#2,96.0,0.5,70,120.0
933,C2,96.0,0.5,67,120.0
934,F#2,96.0,0.5,67,120.0
935,F#2,96.5,0.5,60,120.0
936,F#2,96.5,0.5,60,120.0
937,D2,97.0,0.5,79,120.0
938,F#2,97.0,0.5,70,120.0
939,D2,97.0,0.5,74,120.0
940,F#2,97.0,0.5,74,120.0
941,C#3,97.5,0.375,89,120.0
942,C2,97.5,0.5,54,120.0
943,F#2,97.5,0.5,60,120.0
944,C2,97.5,0.5,57,120.0
945,F#2,97.5,0.5,57,120.0
946,C#3,98.0,1.125,101,120.0
947,C2,98.0,0.5,64,120.0
948,F#2,98.0,0.5,70,120.0
949,F4,98.0,417/1000,70,120.0
950,E-4,98.0,417/1000,70,120.0
951,C4,98.0,417/1000,70,120.0
952,G#4,98.0,417/1000,70,120.0
953,C2,98.0,0.5,67,120.0
954,F#2,98.0,0.5,67,120.0
955,F#2,98.5,0.5,60,120.0
956,F#2,98.5,0.5,60,120.0
957,F4,98.5,0.5,74,120.0
958,E-4,98.5,0.5,74,120.0
959,C4,98.5,0.5,74,120.0
960,G#4,98.5,0.5,74,120.0
961,D2,99.0,0.5,84,120.0
962,F#2,99.0,0.5,70,120.0
963,D2,99.0,0.5,77,120.0
964,F#2,99.0,0.5,77,120.0
965,C#3,99.5,0.375,93,120.0
966,C2,99.5,0.5,64,120.0
967,F#2,99.5,0.5,60,120.0
968,F4,99.5,417/1000,70,120.0
969,E-4,99.5,417/1000,70,120.0
970,C4,99.5,417/1000,70,120.0
971,G#4,99.5,417/1000,70,120.0
972,C2,99.5,0.5,62,120.0
973,F#2,99.5,0.5,62,120.0
974,C#3,100.0,1.125,84,120.0
975,C2,100.0,0.5,64,120.0
976,F#2,100.0,0.5,70,120.0
977,C2,100.0,0.5,67,120.0
978,F#2,100.0,0.5,67,120.0
979,F#2,100.5,0.5,60,120.0
980,F#2,100.5,0.5,60,120.0
981,D2,101.0,0.5,79,120.0
982,F#2,101.0,0.5,70,120.0
983,D2,101.0,0.5,74,120.0
984,F#2,101.0,0.5,74,120.0
985,C#3,101.5,0.375,93,120.0
986,C2,101.5,0.5,54,120.0
987,F#2,101.5,0.5,60,120.0
988,C2,101.5,0.5,57,120.0
989,F#2,101.5,0.5,57,120.0
990,G#3,102.0,0.75,86,120.0
991,C2,102.0,0.25,64,120.0
992,D2,102.0,0.25,60,120.0
993,F#2,102.0,0.25,70,120.0
994,D2,102.0,0.25,65,120.0
995,C2,102.0,0.25,65,120.0
996,F#2,102.0,0.25,65,120.0
997,D2,102.25,0.25,65,120.0
998,D2,102.25,0.25,65,120.0
999,D2,102.5,0.25,65,120.0
1000,F#2,102.5,0.25,60,120.0
1001,D2,102.5,0.25,62,120.0
1002,F#2,102.5,0.25,62,120.0
1003,D2,102.75,0.25,70,120.0
1004,D2,102.75,0.25,70,120.0
1005,C#3,103.0,0.75,89,120.0
1006,F#2,103.0,0.25,70,120.0
1007,A2,103.0,0.25,80,120.0
1008,A2,103.0,0.25,75,120.0
1009,F#2,103.0,0.25,75,120.0
1010,A2,103.25,0.25,70,120.0
1011,A2,103.25,0.25,70,120.0
1012,C2,103.5,0.25,64,120.0
1013,F#2,103.5,0.25,60,120.0
1014,A2,103.5,0.25,70,120.0
1015,A2,103.5,0.25,65,120.0
1016,C2,103.5,0.25,65,120.0
1017,F#2,103.5,0.25,65,120.0
1018,A2,103.75,0.25,70,120.0
1019,A2,103.75,0.25,70,120.0
1020,D3,104.0,1.125,85,120.0
1021,C2,104.0,0.5,64,120.0
1022,C#3,104.0,0.5,70,120.0
1023,F4,104.0,249/125,70,120.0
1024,E4,104.0,249/125,70,120.0
1025,C4,104.0,249/125,70,120.0
1026,A4,104.0,249/125,70,120.0
1027,C2,104.0,0.5,67,120.0
1028,C#3,104.0,0.5,67,120.0
1029,F#2,104.5,0.5,60,120.0
1030,F#2,104.5,0.5,60,120.0
1031,D2,105.0,0.5,79,120.0
1032,F#2,105.0,0.5,70,120.0
1033,D2,105.0,0.5,74,120.0
1034,F#2,105.0,0.5,74,120.0
1035,D3,105.5,0.375,92,120.0
1036,C2,105.5,0.5,54,120.0
1037,F#2,105.5,0.5,60,120.0
1038,C2,105.5,0.5,57,120.0
1039,F#2,105.5,0.5,57,120.0
1040,D3,106.0,0.25,72,120.0
1041,D3,106.0,1.125,94,120.0
1042,C2,106.0,0.5,64,120.0
1043,F#2,106.0,0.5,70,120.0
1044,C2,106.0,0.5,67,120.0
1045,F#2,106.0,0.5,67,120.0
1046,F#2,106.5,0.5,60,120.0
1047,F#2,106.5,0.5,60,120.0
1048,F4,106.5,667/1000,70,120.0
1049,E4,106.5,667/1000,70,120.0
1050,C4,106.5,667/1000,70,120.0
1051,A4,106.5,667/1000,70,120.0
1052,D2,107.0,0.5,84,120.0
1053,F#2,107.0,0.5,70,120.0
1054,D2,107.0,0.5,77,120.0
1055,F#2,107.0,0.5,77,120.0
1056,G3,107.5,0.25,70,120.0
1057,D3,107.5,0.375,86,120.0
1058,C2,107.5,0.5,64,120.0
1059,B-2,107.5,0.5,60,120.0
1060,C2,107.5,0.5,62,120.0
1061,B-2,107.5,0.5,62,120.0
1062,G3,108.0,1.125,92,120.0
1063,C2,108.0,0.5,64,120.0
1064,F#2,108.0,0.5,70,120.0
1065,F4,108.0,249/125,70,120.0
1066,E-4,108.0,249/125,70,120.0
1067,B3,108.0,249/125,70,120.0
1068,G4,108.0,249/125,70,120.0
1069,C2,108.0,0.5,67,120.0
1070,F#2,108.0,0.5,67,120.0
1071,F#2,108.5,0.5,60,120.0
1072,F#2,108.5,0.5,60,120.0
1073,D2,109.0,0.5,79,120.0
1074,F#2,109.0,0.5,70,120.0
1075,D2,109.0,0.5,74,120.0
1076,F#2,109.0,0.5,74,120.0
1077,G3,109.5,0.375,91,120.0
1078,C2,109.5,0.5,54,120.0
1079,F#2,109.5,0.5,60,120.0
1080,C2,109.5,0.5,57,120.0
1081,F#2,109.5,0.5,57,120.0
1082,G3,110.0,1.125,104,120.0
1083,C2,110.0,0.5,64,120.0
1084,F#2,110.0,0.5,70,120.0
1085,C2,110.0,0.5,67,120.0
1086,F#2,110.0,0.5,67,120.0
1087,G3,110.5,0.25,74,120.0
1088,C2,110.5,0.5,54,120.0
1089,F#2,110.5,0.5,60,120.0
1090,C2,110.5,0.5,57,120.0
1091,F#2,110.5,0.5,57,120.0
1092,D2,111.0,0.5,84,120.0
1093,F#2,111.0,0.5,70,120.0
1094,F4,111.0,667/1000,80,120.0
1095,E-4,111.0,667/1000,80,120.0
1096,B3,111.0,667/1000,80,120.0
1097,G4,111.0,667/1000,80,120.0
1098,D2,111.0,0.5,77,120.0
1099,F#2,111.0,0.5,77,120.0
1100,G3,111.5,0.375,94,120.0
1101,C2,111.5,0.5,64,120.0
1102,F#2,111.5,0.5,60,120.0
1103,C2,111.5,0.5,62,120.0
1104,F#2,111.5,0.5,62,120.0
1105,C3,112.0,1.125,92,120.0
1106,C2,112.0,0.5,64,120.0
1107,F#2,112.0,0.5,70,120.0
1108,C2,112.0,0.5,67,120.0
1109,F#2,112.0,0.5,67,120.0
1110,F#2,112.5,0.5,60,120.0
1111,F#2,112.5,0.5,60,120.0
1112,D2,113.0,0.5,79,120.0
1113,F#2,113.0,0.5,70,120.0
1114,D2,113.0,0.5,74,120.0
1115,F#2,113.0,0.5,74,120.0
1116,C3,113.5,0.375,89,120.0
1117,C2,113.5,0.5,54,120.0
1118,F#2,113.5,0.5,60,120.0
1119,C2,113.5,0.5,57,120.0
1120,F#2,113.5,0.5,57,120.0
1121,C3,114.0,1.125,102,120.0
1122,C2,114.0,0.5,64,120.0
1123,F#2,114.0,0.5,70,120.0
1124,E4,114.0,417/1000,70,120.0
1125,D4,114.0,417/1000,70,120.0
1126,B3,114.0,417/1000,70,120.0
1127,G4,114.0,417/1000,70,120.0
1128,C2,114.0,0.5,67,120.0
1129,F#2,114.0,0.5,67,120.0
1130,F#2,114.5,0.5,60,120.0
1131,F#2,114.5,0.5,60,120.0
1132,E4,114.5,0.5,74,120.0
1133,D4,114.5,0.5,74,120.0
1134,B3,114.5,0.5,74,120.0
1135,G4,114.5,0.5,74,120.0
1136,D2,115.0,0.5,84,120.0
1137,F#2,115.0,0.5,70,120.0
1138,D2,115.0,0.5,77,120.0
1139,F#2,115.0,0.5,77,120.0
1140,C3,115.5,0.375,89,120.0
1141,C2,115.5,0.5,64,120.0
1142,F#2,115.5,0.5,60,120.0
1143,E4,115.5,417/1000,70,120.0
1144,D4,115.5,417/1000,70,120.0
1145,B3,115.5,417/1000,70,120.0
1146,G4,115.5,417/1000,70,120.0
1147,C2,115.5,0.5,62,120.0
1148,F#2,115.5,0.5,62,120.0
1149,C3,116.0,1.125,76,120.0
1150,C2,116.0,0.5,64,120.0
1151,F#2,116.0,0.5,70,120.0
1152,C2,116.0,0.5,67,120.0
1153,F#2,116.0,0.5,67,120.0
1154,F#2,116.5,0.5,60,120.0
1155,F#2,116.5,0.5,60,120.0
1156,D2,117.0,0.5,79,120.0
1157,F#2,117.0,0.5,70,120.0
1158,D2,117.0,0.5,74,120.0
1159,F#2,117.0,0.5,74,120.0
1160,C3,117.5,0.375,89,120.0
1161,C2,117.5,0.5,54,120.0
1162,F#2,117.5,0.5,60,120.0
1163,C2,117.5,0.5,57,120.0
1164,F#2,117.5,0.5,57,120.0
1165,C3,118.0,1.125,99,120.0
1166,C2,118.0,0.5,64,120.0
1167,F#2,118.0,0.5,70,120.0
1168,C2,118.0,0.5,67,120.0
1169,F#2,118.0,0.5,67,120.0
1170,C2,118.5,0.5,54,120.0
1171,F2,118.5,0.5,70,120.0
1172,F#2,118.5,0.5,60,120.0
1173,C2,118.5,0.5,61,120.0
1174,F2,118.5,0.5,61,120.0
1175,F#2,118.5,0.5,61,120.0
1176,D2,119.0,0.5,84,120.0
1177,F#2,119.0,0.5,70,120.0
1178,D2,119.0,0.5,77,120.0
1179,F#2,119.0,0.5,77,120.0
1180,C3,119.5,0.375,88,120.0
1181,C2,119.5,0.5,64,120.0
1182,F#2,119.5,0.5,60,120.0
1183,C2,119.5,0.5,62,120.0
1184,F#2,119.5,0.5,62,120.0
1185,B-2,120.0,1.125,89,120.0
1186,C2,120.0,0.5,64,120.0
1187,F#2,120.0,0.5,70,120.0
1188,G4,120.0,249/125,70,120.0
1189,F4,120.0,249/125,70,120.0
1190,D4,120.0,249/125,70,120.0
1191,B-4,120.0,249/125,70,120.0
1192,C2,120.0,0.5,67,120.0
1193,F#2,120.0,0.5,67,120.0
1194,F#2,120.5,0.5,60,120.0
1195,F#2,120.5,0.5,60,120.0
1196,D2,121.0,0.5,79,120.0
1197,F#2,121.0,0.5,70,120.0
1198,D2,121.0,0.5,74,120.0
1199,F#2,121.0,0.5,74,120.0
1200,B-2,121.5,0.375,85,120.0
1201,C2,121.5,0.5,54,120.0
1202,F#2,121.5,0.5,60,120.0
1203,C2,121.5,0.5,57,120.0
1204,F#2,121.5,0.5,57,120.0
1205,B-2,122.0,0.25,68,120.0
1206,B-2,122.0,1.125,101,120.0
1207,C2,122.0,0.5,64,120.0
1208,F#2,122.0,0.5,70,120.0
1209,C2,122.0,0.5,67,120.0
1210,F#2,122.0,0.5,67,120.0
1211,F#2,122.5,0.5,60,120.0
1212,F#2,122.5,0.5,60,120.0
1213,G4,122.5,667/1000,70,120.0
1214,F4,122.5,667/1000,70,120.0
1215,D4,122.5,667/1000,70,120.0
1216,B-4,122.5,667/1000,70,120.0
1217,D2,123.0,0.5,84,120.0
1218,F#2,123.0,0.5,70,120.0
1219,D2,123.0,0.5,77,120.0
1220,F#2,123.0,0.5,77,120.0
1221,B3,123.5,0.25,70,120.0
1222,B-2,123.5,0.375,84,120.0
1223,C2,123.5,0.5,64,120.0
1224,F#2,123.5,0.5,60,120.0
1225,C2,123.5,0.5,62,120.0
1226,F#2,123.5,0.5,62,120.0
1227,B2,124.0,1.125,80,120.0
1228,C2,124.0,0.5,64,120.0
1229,F#2,124.0,0.5,70,120.0
1230,F4,124.0,249/125,70,120.0
1231,D4,124.0,249/125,70,120.0
1232,B3,124.0,249/125,70,120.0
1233,G4,124.0,249/125,70,120.0
1234,C2,124.0,0.5,67,120.0
1235,F#2,124.0,0.5,67,120.0
1236,F#2,124.5,0.5,60,120.0
1237,F#2,124.5,0.5,60,120.0
1238,D2,125.0,0.5,79,120.0
1239,F#2,125.0,0.5,70,120.0
1240,D2,125.0,0.5,74,120.0
1241,F#2,125.0,0.5,74,120.0
1242,B2,125.5,0.375,86,120.0
1243,C2,125.5,0.5,54,120.0
1244,F#2,125.5,0.5,60,120.0
1245,C2,125.5,0.5,57,120.0
1246,F#2,125.5,0.5,57,120.0
1247,B2,126.0,1.125,101,120.0
1248,C2,126.0,0.5,64,120.0
1249,F#2,126.0,0.5,70,120.0
1250,C2,126.0,0.5,67,120.0
1251,F#2,126.0,0.5,67,120.0
1252,C2,126.5,0.5,54,120.0
1253,F#2,126.5,0.5,60,120.0
1254,F4,126.5,667/1000,70,120.0
1255,D4,126.5,667/1000,70,120.0
1256,B3,126.5,667/1000,70,120.0
1257,G4,126.5,667/1000,70,120.0
1258,C2,126.5,0.5,57,120.0
1259,F#2,126.5,0.5,57,120.0
1260,D2,127.0,0.5,84,120.0
1261,F#2,127.0,0.5,70,120.0
1262,D2,127.0,0.5,77,120.0
1263,F#2,127.0,0.5,77,120.0
1264,C4,127.5,0.25,70,120.0
1265,B2,127.5,0.375,94,120.0
1266,C2,127.5,0.5,64,120.0
1267,B-2,127.5,0.5,60,120.0
1268,C2,127.5,0.5,62,120.0
1269,B-2,127.5,0.5,62,120.0
1270,C3,128.0,1.125,94,120.0
1271,C2,128.0,0.5,64,120.0
1272,F#2,128.0,0.5,70,120.0
1273,F4,128.0,249/125,70,120.0
1274,D4,128.0,249/125,70,120.0
1275,B-3,128.0,249/125,70,120.0
1276,G4,128.0,249/125,70,120.0
1277,C2,128.0,0.5,67,120.0
1278,F#2,128.0,0.5,67,120.0
1279,F#2,128.5,0.5,60,120.0
1280,F#2,128.5,0.5,60,120.0
1281,D2,129.0,0.5,79,120.0
1282,F#2,129.0,0.5,70,120.0
1283,D2,129.0,0.5,74,120.0
1284,F#2,129.0,0.5,74,120.0
1285,C3,129.5,0.375,79,120.0
1286,C2,129.5,0.5,54,120.0
1287,F#2,129.5,0.5,60,120.0
1288,C2,129.5,0.5,57,120.0
1289,F#2,129.5,0.5,57,120.0
1290,C3,130.0,1.125,100,120.0
1291,C2,130.0,0.5,64,120.0
1292,F#2,130.0,0.5,70,120.0
1293,C2,130.0,0.5,67,120.0
1294,F#2,130.0,0.5,67,120.0
1295,C3,130.5,0.25,68,120.0
1296,F#2,130.5,0.5,60,120.0
1297,F#2,130.5,0.5,60,120.0
1298,D2,131.0,0.5,84,120.0
1299,F#2,131.0,0.5,70,120.0
1300,F4,131.0,667/1000,80,120.0
1301,D4,131.0,667/1000,80,120.0
1302,B-3,131.0,667/1000,80,120.0
1303,G4,131.0,667/1000,80,120.0
1304,D2,131.0,0.5,77,120.0
1305,F#2,131.0,0.5,77,120.0
1306,C3,131.5,0.375,92,120.0
1307,C2,131.5,0.5,64,120.0
1308,F#2,131.5,0.5,60,120.0
1309,C2,131.5,0.5,62,120.0
1310,F#2,131.5,0.5,62,120.0
1311,C3,132.0,1.125,86,120.0
1312,C2,132.0,0.5,64,120.0
1313,F#2,132.0,0.5,70,120.0
1314,E4,132.0,249/125,70,120.0
1315,C4,132.0,249/125,70,120.0
1316,B-3,132.0,249/125,70,120.0
1317,G#4,132.0,249/125,70,120.0
1318,C2,132.0,0.5,67,120.0
1319,F#2,132.0,0.5,67,120.0
1320,F#2,132.5,0.5,60,120.0
1321,F#2,132.5,0.5,60,120.0
1322,D2,133.0,0.5,79,120.0
1323,F#2,133.0,0.5,70,120.0
1324,D2,133.0,0.5,74,120.0
1325,F#2,133.0,0.5,74,120.0
1326,C3,133.5,0.375,84,120.0
1327,C2,133.5,0.5,54,120.0
1328,F#2,133.5,0.5,60,120.0
1329,C2,133.5,0.5,57,120.0
1330,F#2,133.5,0.5,57,120.0
1331,C3,134.0,1.125,101,120.0
1332,C2,134.0,0.5,64,120.0
1333,F#2,134.0,0.5,70,120.0
1334,C2,134.0,0.5,67,120.0
1335,F#2,134.0,0.5,67,120.0
1336,C3,134.5,0.25,73,120.0
1337,D2,134.5,167/1000,50,120.0
1338,F#2,134.5,167/1000,60,120.0
1339,D2,134.5,167/1000,55,120.0
1340,F#2,134.5,167/1000,55,120.0
1341,D2,134.667,167/1000,55,120.0
1342,D2,134.667,167/1000,55,120.0
1343,D2,134.833,167/1000,60,120.0
1344,D2,134.833,167/1000,60,120.0
1345,D2,135.0,0.5,84,120.0
1346,F#2,135.0,0.5,70,120.0
1347,E4,135.0,667/1000,80,120.0
1348,C4,135.0,667/1000,80,120.0
1349,B-3,135.0,667/1000,80,120.0
1350,G#4,135.0,667/1000,80,120.0
1351,D2,135.0,0.5,77,120.0
1352,F#2,135.0,0.5,77,120.0
1353,C3,135.5,0.375,80,120.0
1354,C2,135.5,0.5,64,120.0
1355,D2,135.5,0.5,74,120.0
1356,F#2,135.5,0.5,60,120.0
1357,D2,135.5,0.5,66,120.0
1358,C2,135.5,0.5,66,120.0
1359,F#2,135.5,0.5,66,120.0
1360,F3,136.0,1.125,91,120.0
1361,C2,136.0,0.5,64,120.0
1362,F#2,136.0,0.5,70,120.0
1363,F4,136.0,249/125,70,120.0
1364,E-4,136.0,249/125,70,120.0
1365,C4,136.0,249/125,70,120.0
1366,G#4,136.0,249/125,70,120.0
1367,C2,136.0,0.5,67,120.0
1368,F#2,136.0,0.5,67,120.0
1369,F#2,136.5,0.5,60,120.0
1370,F#2,136.5,0.5,60,120.0
1371,D2,137.0,0.5,79,120.0
1372,C#3,137.0,0.5,70,120.0
1373,D2,137.0,0.5,74,120.0
1374,C#3,137.0,0.5,74,120.0
1375,F3,137.5,0.375,78,120.0
1376,C2,137.5,0.5,54,120.0
1377,F#2,137.5,0.5,60,120.0
1378,C2,137.5,0.5,57,120.0
1379,F#2,137.5,0.5,57,120.0
1380,F3,138.0,1.125,95,120.0
1381,C2,138.0,0.5,64,120.0
1382,F#2,138.0,0.5,70,120.0
1383,C2,138.0,0.5,67,120.0
1384,F#2,138.0,0.5,67,120.0
1385,F#2,138.5,0.5,60,120.0
1386,F#2,138.5,0.5,60,120.0
1387,F4,138.5,667/1000,70,120.0
1388,E-4,138.5,667/1000,70,120.0
1389,C4,138.5,667/1000,70,120.0
1390,G#4,138.5,667/1000,70,120.0
1391,D2,139.0,0.5,84,120.0
1392,F#2,139.0,0.5,70,120.0
1393,D2,139.0,0.5,77,120.0
1394,F#2,139.0,0.5,77,120.0
1395,F3,139.5,0.25,70,120.0
1396,F3,139.5,0.375,81,120.0
1397,C2,139.5,0.5,64,120.0
1398,F#2,139.5,0.5,60,120.0
1399,C2,139.5,0.5,62,120.0
1400,F#2,139.5,0.5,62,120.0
1401,F3,140.0,1.125,76,120.0
1402,C2,140.0,0.5,64,120.0
1403,F#2,140.0,0.5,70,120.0
1404,F4,140.0,249/125,70,120.0
1405,E4,140.0,249/125,70,120.0
1406,C4,140.0,249/125,70,120.0
1407,G#4,140.0,249/125,70,120.0
1408,C2,140.0,0.5,67,120.0
1409,F#2,140.0,0.5,67,120.0
1410,F#2,140.5,0.5,60,120.0
1411,F#2,140.5,0.5,60,120.0
1412,D2,141.0,0.5,79,120.0
1413,F#2,141.0,0.5,70,120.0
1414,D2,141.0,0.5,74,120.0
1415,F#2,141.0,0.5,74,120.0
1416,F3,141.5,0.375,84,120.0
1417,C2,141.5,0.5,54,120.0
1418,F#2,141.5,0.5,60,120.0
1419,C2,141.5,0.5,57,120.0
1420,F#2,141.5,0.5,57,120.0
1421,F3,142.0,0.25,64,120.0
1422,F3,142.0,1.125,95,120.0
1423,C2,142.0,0.5,64,120.0
1424,F#2,142.0,0.5,70,120.0
1425,C2,142.0,0.5,67,120.0
1426,F#2,142.0,0.5,67,120.0
1427,C2,142.5,0.5,54,120.0
1428,F#2,142.5,0.5,60,120.0
1429,F4,142.5,667/1000,70,120.0
1430,E4,142.5,667/1000,70,120.0
1431,C4,142.5,667/1000,70,120.0
1432,G#4,142.5,667/1000,70,120.0
1433,C2,142.5,0.5,57,120.0
1434,F#2,142.5,0.5,57,120.0
1435,D2,143.0,0.5,84,120.0
1436,F#2,143.0,0.5,70,120.0
1437,D2,143.0,0.5,77,120.0
1438,F#2,143.0,0.5,77,120.0
1439,F3,143.5,0.375,80,120.0
1440,C2,143.5,0.5,64,120.0
1441,F#2,143.5,0.5,60,120.0
1442,C2,143.5,0.5,62,120.0
1443,F#2,143.5,0.5,62,120.0
1444,F3,144.0,1.125,79,120.0
1445,C2,144.0,0.5,64,120.0
1446,F#2,144.0,0.5,70,120.0
1447,F4,144.0,249/125,70,120.0
1448,E-4,144.0,249/125,70,120.0
1449,C4,144.0,249/125,70,120.0
1450,G#4,144.0,249/125,70,120.0
1451,C2,144.0,0.5,67,120.0
1452,F#2,144.0,0.5,67,120.0
1453,F#2,144.5,0.5,60,120.0
1454,F#2,144.5,0.5,60,120.0
1455,D2,145.0,0.5,79,120.0
1456,F#2,145.0,0.5,70,120.0
1457,D2,145.0,0.5,74,120.0
1458,F#2,145.0,0.5,74,120.0
1459,F3,145.5,0.375,82,120.0
1460,C2,145.5,0.5,54,120.0
1461,F#2,145.5,0.5,60,120.0
1462,C2,145.5,0.5,57,120.0
1463,F#2,145.5,0.5,57,120.0
1464,F3,146.0,0.25,65,120.0
1465,F3,146.0,1.125,88,120.0
1466,C2,146.0,0.5,64,120.0
1467,F#2,146.0,0.5,70,120.0
1468,C2,146.0,0.5,67,120.0
1469,F#2,146.0,0.5,67,120.0
1470,F#2,146.5,0.5,60,120.0
1471,F#2,146.5,0.5,60,120.0
1472,F4,146.5,667/1000,70,120.0
1473,E-4,146.5,667/1000,70,120.0
1474,C4,146.5,667/1000,70,120.0
1475,G#4,146.5,667/1000,70,120.0
1476,D2,147.0,0.5,84,120.0
1477,F#2,147.0,0.5,70,120.0
1478,D2,147.0,0.5,77,120.0
1479,F#2,147.0,0.5,77,120.0
1480,B-2,147.5,0.25,70,120.0
1481,F3,147.5,0.375,87,120.0
1482,C2,147.5,0.5,64,120.0
1483,F#2,147.5,0.5,60,120.0
1484,C2,147.5,0.5,62,120.0
1485,F#2,147.5,0.5,62,120.0
1486,B-2,148.0,0.25,72,120.0
1487,B-2,148.0,1.125,85,120.0
1488,C2,148.0,0.5,64,120.0
1489,F#2,148.0,0.5,70,120.0
1490,C2,148.0,0.5,67,120.0
1491,F#2,148.0,0.5,67,120.0
1492,F2,148.5,0.5,60,120.0
1493,F#2,148.5,0.5,60,120.0
1494,D4,148.5,667/1000,70,120.0
1495,C4,148.5,667/1000,70,120.0
1496,G#3,148.5,667/1000,70,120.0
1497,F4,148.5,667/1000,70,120.0
1498,F2,148.5,0.5,60,120.0
1499,F#2,148.5,0.5,60,120.0
1500,D2,149.0,0.5,79,120.0
1501,F#2,149.0,0.5,70,120.0
1502,D2,149.0,0.5,74,120.0
1503,F#2,149.0,0.5,74,120.0
1504,B-2,149.5,0.25,69,120.0
1505,B-2,149.5,0.375,77,120.0
1506,C2,149.5,0.5,54,120.0
1507,F#2,149.5,0.5,60,120.0
1508,C2,149.5,0.5,57,120.0
1509,F#2,149.5,0.5,57,120.0
1510,B-2,150.0,1.125,87,120.0
1511,C2,150.0,0.5,64,120.0
1512,F#2,150.0,0.5,70,120.0
1513,D4,150.0,1.75,70,120.0
1514,C4,150.0,1.75,70,120.0
1515,G#3,150.0,1.75,70,120.0
1516,F4,150.0,1.75,70,120.0
1517,C2,150.0,0.5,67,120.0
1518,F#2,150.0,0.5,67,120.0
1519,C2,150.5,0.5,54,120.0
1520,F#2,150.5,0.5,60,120.0
1521,C2,150.5,0.5,57,120.0
1522,F#2,150.5,0.5,57,120.0
1523,D2,151.0,0.5,84,120.0
1524,F#2,151.0,0.5,70,120.0
1525,D2,151.0,0.5,77,120.0
1526,F#2,151.0,0.5,77,120.0
1527,B-2,151.5,0.375,92,120.0
1528,C2,151.5,0.5,64,120.0
1529,B-2,151.5,0.5,60,120.0
1530,C2,151.5,0.5,62,120.0
1531,B-2,151.5,0.5,62,120.0
1532,F3,152.0,0.25,67,120.0
1533,F3,152.0,1.125,75,120.0
1534,C2,152.0,0.5,64,120.0
1535,F#2,152.0,0.5,70,120.0
1536,C2,152.0,0.5,67,120.0
1537,F#2,152.0,0.5,67,120.0
1538,F#2,152.5,0.5,60,120.0
1539,F#2,152.5,0.5,60,120.0
1540,F4,152.5,667/1000,70,120.0
1541,E-4,152.5,667/1000,70,120.0
1542,C4,152.5,667/1000,70,120.0
1543,G#4,152.5,667/1000,70,120.0
1544,D2,153.0,0.5,79,120.0
1545,F#2,153.0,0.5,70,120.0
1546,D2,153.0,0.5,74,120.0
1547,F#2,153.0,0.5,74,120.0
1548,F3,153.5,0.25,66,120.0
1549,F3,153.5,0.375,90,120.0
1550,C2,153.5,0.5,54,120.0
1551,F#2,153.5,0.5,60,120.0
1552,C2,153.5,0.5,57,120.0
1553,F#2,153.5,0.5,57,120.0
1554,F3,154.0,1.125,85,120.0
1555,C2,154.0,0.5,64,120.0
1556,F#2,154.0,0.5,70,120.0
1557,F4,154.0,1.75,70,120.0
1558,E-4,154.0,1.75,70,120.0
1559,C4,154.0,1.75,70,120.0
1560,G#4,154.0,1.75,70,120.0
1561,C2,154.0,0.5,67,120.0
1562,F#2,154.0,0.5,67,120.0
1563,F#2,154.5,0.5,60,120.0
1564,F#2,154.5,0.5,60,120.0
1565,D2,155.0,0.5,84,120.0
1566,F#2,155.0,0.5,70,120.0
1567,D2,155.0,0.5,77,120.0
1568,F#2,155.0,0.5,77,120.0
1569,F3,155.5,0.375,83,120.0
1570,C2,155.5,0.5,64,120.0
1571,F#2,155.5,0.5,60,120.0
1572,C2,155.5,0.5,62,120.0
1573,F#2,155.5,0.5,62,120.0
1574,C#3,156.0,1.125,88,120.0
1575,C2,156.0,0.5,64,120.0
1576,F#2,156.0,0.5,70,120.0
1577,C2,156.0,0.5,67,120.0
1578,F#2,156.0,0.5,67,120.0
1579,F#2,156.5,0.5,60,120.0
1580,F#2,156.5,0.5,60,120.0
1581,F4,156.5,667/1000,70,120.0
1582,E-4,156.5,667/1000,70,120.0
1583,B3,156.5,667/1000,70,120.0
1584,G#4,156.5,667/1000,70,120.0
1585,D2,157.0,0.5,79,120.0
1586,F#2,157.0,0.5,70,120.0
1587,D2,157.0,0.5,74,120.0
1588,F#2,157.0,0.5,74,120.0
1589,C#3,157.5,0.375,81,120.0
1590,C2,157.5,0.5,54,120.0
1591,F#2,157.5,0.5,60,120.0
1592,C2,157.5,0.5,57,120.0
1593,F#2,157.5,0.5,57,120.0
1594,C#3,158.0,1.125,85,120.0
1595,C2,158.0,0.5,64,120.0
1596,F#2,158.0,0.5,70,120.0
1597,F4,158.0,1.75,70,120.0
1598,E-4,158.0,1.75,70,120.0
1599,B3,158.0,1.75,70,120.0
1600,G#4,158.0,1.75,70,120.0
1601,C2,158.0,0.5,67,120.0
1602,F#2,158.0,0.5,67,120.0
1603,C2,158.5,0.5,54,120.0
1604,F#2,158.5,0.5,60,120.0
1605,C2,158.5,0.5,57,120.0
1606,F#2,158.5,0.5,57,120.0
1607,D2,159.0,0.5,84,120.0
1608,F#2,159.0,0.5,70,120.0
1609,D2,159.0,0.5,77,120.0
1610,F#2,159.0,0.5,77,120.0
1611,C#3,159.5,0.375,90,120.0
1612,C2,159.5,0.5,64,120.0
1613,F#2,159.5,0.5,60,120.0
1614,C2,159.5,0.5,62,120.0
1615,F#2,159.5,0.5,62,120.0
1616,G3,160.0,1.125,84,120.0
1617,C2,160.0,0.5,64,120.0
1618,F#2,160.0,0.5,70,120.0
1619,F4,160.0,0.75,70,120.0
1620,D4,160.0,0.75,70,120.0
1621,B-3,160.0,0.75,70,120.0
1622,G4,160.0,0.75,70,120.0
1623,C2,160.0,0.5,67,120.0
1624,F#2,160.0,0.5,67,120.0
1625,F#2,160.5,0.5,60,120.0
1626,F#2,160.5,0.5,60,120.0
1627,D2,161.0,0.5,79,120.0
1628,F#2,161.0,0.5,70,120.0
1629,D2,161.0,0.5,74,120.0
1630,F#2,161.0,0.5,74,120.0
1631,G3,161.5,0.375,94,120.0
1632,C2,161.5,0.5,54,120.0
1633,F#2,161.5,0.5,60,120.0
1634,C2,161.5,0.5,57,120.0
1635,F#2,161.5,0.5,57,120.0
1636,G3,162.0,1.125,103,120.0
1637,C2,162.0,0.5,64,120.0
1638,F#2,162.0,0.5,70,120.0
1639,C2,162.0,0.5,67,120.0
1640,F#2,162.0,0.5,67,120.0
1641,F#2,162.5,0.5,60,120.0
1642,F#2,162.5,0.5,60,120.0
1643,D2,163.0,0.5,84,120.0
1644,F#2,163.0,0.5,70,120.0
1645,D2,163.0,0.5,77,120.0
1646,F#2,163.0,0.5,77,120.0
1647,G3,163.5,0.375,92,120.0
1648,C2,163.5,0.5,64,120.0
1649,F#2,163.5,0.5,60,120.0
1650,C2,163.5,0.5,62,120.0
1651,F#2,163.5,0.5,62,120.0
1652,C3,164.0,1.125,92,120.0
1653,C2,164.0,0.5,64,120.0
1654,F#2,164.0,0.5,70,120.0
1655,E4,164.0,249/125,70,120.0
1656,C4,164.0,249/125,70,120.0
1657,B-3,164.0,249/125,70,120.0
1658,G#4,164.0,249/125,70,120.0
1659,C2,164.0,0.5,67,120.0
1660,F#2,164.0,0.5,67,120.0
1661,F#2,164.5,0.5,60,120.0
1662,F#2,164.5,0.5,60,120.0
1663,D2,165.0,0.5,79,120.0
1664,F#2,165.0,0.5,70,120.0
1665,D2,165.0,0.5,74,120.0
1666,F#2,165.0,0.5,74,120.0
1667,C3,165.5,0.375,86,120.0
1668,C2,165.5,0.5,54,120.0
1669,F#2,165.5,0.5,60,120.0
1670,C2,165.5,0.5,57,120.0
1671,F#2,165.5,0.5,57,120.0
1672,C3,166.0,0.25,74,120.0
1673,C3,166.0,1.125,86,120.0
1674,C2,166.0,0.5,64,120.0
1675,F#2,166.0,0.5,70,120.0
1676,C2,166.0,0.5,67,120.0
1677,F#2,166.0,0.5,67,120.0
1678,D2,166.5,167/1000,50,120.0
1679,F#2,166.5,167/1000,60,120.0
1680,E4,166.5,667/1000,70,120.0
1681,C4,166.5,667/1000,70,120.0
1682,B-3,166.5,667/1000,70,120.0
1683,G#4,166.5,667/1000,70,120.0
1684,D2,166.5,167/1000,55,120.0
1685,F#2,166.5,167/1000,55,120.0
1686,D2,166.667,167/1000,55,120.0
1687,D2,166.667,167/1000,55,120.0
1688,D2,166.833,167/1000,60,120.0
1689,D2,166.833,167/1000,60,120.0
1690,D2,167.0,0.5,84,120.0
1691,F#2,167.0,0.5,70,120.0
1692,D2,167.0,0.5,77,120.0
1693,F#2,167.0,0.5,77,120.0
1694,F3,167.5,0.25,70,120.0
1695,C3,167.5,0.375,92,120.0
1696,C2,167.5,0.5,64,120.0
1697,D2,167.5,0.5,74,120.0
1698,F#2,167.5,0.5,60,120.0
1699,D2,167.5,0.5,66,120.0
1700,C2,167.5,0.5,66,120.0
1701,F#2,167.5,0.5,66,120.0
1702,F3,168.0,1.125,91,120.0
1703,C2,168.0,0.5,64,120.0
1704,F#2,168.0,0.5,70,120.0
1705,F4,168.0,249/125,70,120.0
1706,E-4,168.0,249/125,70,120.0
1707,C4,168.0,249/125,70,120.0
1708,G#4,168.0,249/125,70,120.0
1709,C2,168.0,0.5,67,120.0
1710,F#2,168.0,0.5,67,120.0
1711,F#2,168.5,0.5,60,120.0
1712,F#2,168.5,0.5,60,120.0
1713,D2,169.0,0.5,79,120.0
1714,C#3,169.0,0.5,70,120.0
1715,D2,169.0,0.5,74,120.0
1716,C#3,169.0,0.5,74,120.0
1717,F3,169.5,0.375,83,120.0
1718,C2,169.5,0.5,54,120.0
1719,F#2,169.5,0.5,60,120.0
1720,C2,169.5,0.5,57,120.0
1721,F#2,169.5,0.5,57,120.0
1722,F3,170.0,0.25,65,120.0
1723,F3,170.0,1.125,101,120.0
1724,C2,170.0,0.5,64,120.0
1725,F#2,170.0,0.5,70,120.0
1726,C2,170.0,0.5,67,120.0
1727,F#2,170.0,0.5,67,120.0
1728,F#2,170.5,0.5,60,120.0
1729,F#2,170.5,0.5,60,120.0
1730,F4,170.5,667/1000,70,120.0
1731,E-4,170.5,667/1000,70,120.0
1732,C4,170.5,667/1000,70,120.0
1733,G#4,170.5,667/1000,70,120.0
1734,D2,171.0,0.5,84,120.0
1735,F#2,171.0,0.5,70,120.0
1736,D2,171.0,0.5,77,120.0
1737,F#2,171.0,0.5,77,120.0
1738,F3,171.5,0.25,70,120.0
1739,F3,171.5,0.375,76,120.0
1740,C2,171.5,0.5,64,120.0
1741,B-2,171.5,0.5,60,120.0
1742,C2,171.5,0.5,62,120.0
1743,B-2,171.5,0.5,62,120.0
1744,F3,172.0,1.125,84,120.0
1745,C2,172.0,0.5,64,120.0
1746,F#2,172.0,0.5,70,120.0
1747,F4,172.0,0.75,70,120.0
1748,E4,172.0,0.75,70,120.0
1749,C4,172.0,0.75,70,120.0
1750,G#4,172.0,0.75,70,120.0
1751,C2,172.0,0.5,67,120.0
1752,F#2,172.0,0.5,67,120.0
1753,F#2,172.5,0.5,60,120.0
1754,F#2,172.5,0.5,60,120.0
1755,D2,173.0,0.5,79,120.0
1756,F#2,173.0,0.5,70,120.0
1757,D2,173.0,0.5,74,120.0
1758,F#2,173.0,0.5,74,120.0
1759,F3,173.5,0.375,82,120.0
1760,C2,173.5,0.5,54,120.0
1761,F#2,173.5,0.5,60,120.0
1762,C2,173.5,0.5,57,120.0
1763,F#2,173.5,0.5,57,120.0
1764,F3,174.0,1.125,104,120.0
1765,C2,174.0,0.5,64,120.0
1766,F#2,174.0,0.5,70,120.0
1767,C2,174.0,0.5,67,120.0
1768,F#2,174.0,0.5,67,120.0
1769,C2,174.5,0.5,54,120.0
1770,F#2,174.5,0.5,60,120.0
1771,C2,174.5,0.5,57,120.0
1772,F#2,174.5,0.5,57,120.0
1773,D2,175.0,0.5,84,120.0
1774,F#2,175.0,0.5,70,120.0
1775,D2,175.0,0.5,77,120.0
1776,F#2,175.0,0.5,77,120.0
1777,F3,175.5,0.375,79,120.0
1778,C2,175.5,0.5,64,120.0
1779,F#2,175.5,0.5,60,120.0
1780,C2,175.5,0.5,62,120.0
1781,F#2,175.5,0.5,62,120.0
1782,F3,176.0,1.125,91,120.0
1783,C2,176.0,0.5,64,120.0
1784,F#2,176.0,0.5,70,120.0
1785,F4,176.0,0.75,70,120.0
1786,E-4,176.0,0.75,70,120.0
1787,C4,176.0,0.75,70,120.0
1788,G#4,176.0,0.75,70,120.0
1789,C2,176.0,0.5,67,120.0
1790,F#2,176.0,0.5,67,120.0
1791,F#2,176.5,0.5,60,120.0
1792,F#2,176.5,0.5,60,120.0
1793,D2,177.0,0.5,79,120.0
1794,F#2,177.0,0.5,70,120.0
1795,D2,177.0,0.5,74,120.0
1796,F#2,177.0,0.5,74,120.0
1797,F3,177.5,0.375,91,120.0
1798,C2,177.5,0.5,54,120.0
1799,F#2,177.5,0.5,60,120.0
1800,C2,177.5,0.5,57,120.0
1801,F#2,177.5,0.5,57,120.0
1802,F3,178.0,1.125,99,120.0
1803,C2,178.0,0.5,64,120.0
1804,F#2,178.0,0.5,70,120.0
1805,C2,178.0,0.5,67,120.0
1806,F#2,178.0,0.5,67,120.0
1807,F#2,178.5,0.5,60,120.0
1808,F#2,178.5,0.5,60,120.0
1809,D2,179.0,0.5,84,120.0
1810,F#2,179.0,0.5,70,120.0
1811,D2,179.0,0.5,77,120.0
1812,F#2,179.0,0.5,77,120.0
1813,F3,179.5,0.375,92,120.0
1814,C2,179.5,0.5,64,120.0
1815,F#2,179.5,0.5,60,120.0
1816,C2,179.5,0.5,62,120.0
1817,F#2,179.5,0.5,62,120.0
1818,B-2,180.0,1.125,83,120.0
1819,C2,180.0,0.5,64,120.0
1820,F#2,180.0,0.5,70,120.0
1821,G#4,180.0,0.75,70,120.0
1822,F4,180.0,0.75,70,120.0
1823,D4,180.0,0.75,70,120.0
1824,C5,180.0,0.75,70,120.0
1825,C2,180.0,0.5,67,120.0
1826,F#2,180.0,0.5,67,120.0
1827,F#2,180.5,0.5,60,120.0
1828,F#2,180.5,0.5,60,120.0
1829,D2,181.0,0.5,79,120.0
1830,F#2,181.0,0.5,70,120.0
1831,D2,181.0,0.5,74,120.0
1832,F#2,181.0,0.5,74,120.0
1833,B-2,181.5,0.375,78,120.0
1834,C2,181.5,0.5,54,120.0
1835,F#2,181.5,0.5,60,120.0
1836,C2,181.5,0.5,57,120.0
1837,F#2,181.5,0.5,57,120.0
1838,B-2,182.0,1.125,85,120.0
1839,C2,182.0,0.5,64,120.0
1840,F#2,182.0,0.5,70,120.0
1841,C2,182.0,0.5,67,120.0
1842,F#2,182.0,0.5,67,120.0
1843,C2,182.5,0.5,54,120.0
1844,F2,182.5,0.5,70,120.0
1845,F#2,182.5,0.5,60,120.0
1846,C2,182.5,0.5,61,120.0
1847,F2,182.5,0.5,61,120.0
1848,F#2,182.5,0.5,61,120.0
1849,D2,183.0,0.5,84,120.0
1850,F#2,183.0,0.5,70,120.0
1851,D2,183.0,0.5,77,120.0
1852,F#2,183.0,0.5,77,120.0
1853,B-2,183.5,0.375,91,120.0
1854,C2,183.5,0.5,64,120.0
1855,F#2,183.5,0.5,60,120.0
1856,C2,183.5,0.5,62,120.0
1857,F#2,183.5,0.5,62,120.0
1858,C#3,184.0,1.125,87,120.0
1859,C2,184.0,0.5,64,120.0
1860,F#2,184.0,0.5,70,120.0
1861,F4,184.0,249/125,70,120.0
1862,E-4,184.0,249/125,70,120.0
1863,B3,184.0,249/125,70,120.0
1864,G#4,184.0,249/125,70,120.0
1865,C2,184.0,0.5,67,120.0
1866,F#2,184.0,0.5,67,120.0
1867,F#2,184.5,0.5,60,120.0
1868,F#2,184.5,0.5,60,120.0
1869,D2,185.0,0.5,79,120.0
1870,F#2,185.0,0.5,70,120.0
1871,D2,185.0,0.5,74,120.0
1872,F#2,185.0,0.5,74,120.0
1873,C#3,185.5,0.375,90,120.0
1874,C2,185.5,0.5,54,120.0
1875,F#2,185.5,0.5,60,120.0
1876,C2,185.5,0.5,57,120.0
1877,F#2,185.5,0.5,57,120.0
1878,C#3,186.0,1.125,102,120.0
1879,C2,186.0,0.5,64,120.0
1880,F#2,186.0,0.5,70,120.0
1881,C2,186.0,0.5,67,120.0
1882,F#2,186.0,0.5,67,120.0
1883,F#2,186.5,0.5,60,120.0
1884,F#2,186.5,0.5,60,120.0
1885,F4,186.5,667/1000,70,120.0
1886,E-4,186.5,667/1000,70,120.0
1887,B3,186.5,667/1000,70,120.0
1888,G#4,186.5,667/1000,70,120.0
1889,D2,187.0,0.5,84,120.0
1890,F#2,187.0,0.5,70,120.0
1891,D2,187.0,0.5,77,120.0
1892,F#2,187.0,0.5,77,120.0
1893,C#3,187.5,0.375,77,120.0
1894,C2,187.5,0.5,64,120.0
1895,F#2,187.5,0.5,60,120.0
1896,C2,187.5,0.5,62,120.0
1897,F#2,187.5,0.5,62,120.0
1898,C3,188.0,1.125,75,120.0
1899,C2,188.0,0.5,64,120.0
1900,F#2,188.0,0.5,70,120.0
1901,E4,188.0,0.75,70,120.0
1902,C4,188.0,0.75,70,120.0
1903,B-3,188.0,0.75,70,120.0
1904,G#4,188.0,0.75,70,120.0
1905,C2,188.0,0.5,67,120.0
1906,F#2,188.0,0.5,67,120.0
1907,F#2,188.5,0.5,60,120.0
1908,F#2,188.5,0.5,60,120.0
1909,D2,189.0,0.5,79,120.0
1910,F#2,189.0,0.5,70,120.0
1911,D2,189.0,0.5,74,120.0
1912,F#2,189.0,0.5,74,120.0
1913,C3,189.5,0.375,75,120.0
1914,C2,189.5,0.5,54,120.0
1915,F#2,189.5,0.5,60,120.0
1916,C2,189.5,0.5,57,120.0
1917,F#2,189.5,0.5,57,120.0
1918,C3,190.0,1.125,102,120.0
1919,C2,190.0,0.5,64,120.0
1920,F#2,190.0,0.5,70,120.0
1921,C2,190.0,0.5,67,120.0
1922,F#2,190.0,0.5,67,120.0
1923,C2,190.5,0.5,54,120.0
1924,F#2,190.5,0.5,60,120.0
1925,C2,190.5,0.5,57,120.0
1926,F#2,190.5,0.5,57,120.0
1927,D2,191.0,0.5,84,120.0
1928,F#2,191.0,0.5,70,120.0
1929,D2,191.0,0.5,77,120.0
1930,F#2,191.0,0.5,77,120.0
1931,C3,191.5,0.375,82,120.0
1932,C2,191.5,0.5,64,120.0
1933,F#2,191.5,0.5,60,120.0
1934,C2,191.5,0.5,62,120.0
1935,F#2,191.5,0.5,62,120.0
1936,F3,192.0,1.125,76,120.0
1937,C2,192.0,0.5,64,120.0
1938,F#2,192.0,0.5,70,120.0
1939,F4,192.0,249/125,70,120.0
1940,E-4,192.0,249/125,70,120.0
1941,C4,192.0,249/125,70,120.0
1942,G#4,192.0,249/125,70,120.0
1943,C2,192.0,0.5,67,120.0
1944,F#2,192.0,0.5,67,120.0
1945,F#2,192.5,0.5,60,120.0
1946,F#2,192.5,0.5,60,120.0
1947,D2,193.0,0.5,79,120.0
1948,F#2,193.0,0.5,70,120.0
1949,D2,193.0,0.5,74,120.0
1950,F#2,193.0,0.5,74,120.0
1951,F3,193.5,0.375,80,120.0
1952,C2,193.5,0.5,54,120.0
1953,F#2,193.5,0.5,60,120.0
1954,C2,193.5,0.5,57,120.0
1955,F#2,193.5,0.5,57,120.0
1956,F3,194.0,0.25,75,120.0
1957,F3,194.0,1.125,95,120.0
1958,C2,194.0,0.5,64,120.0
1959,F#2,194.0,0.5,70,120.0
1960,C2,194.0,0.5,67,120.0
1961,F#2,194.0,0.5,67,120.0
1962,F#2,194.5,0.5,60,120.0
1963,F#2,194.5,0.5,60,120.0
1964,F4,194.5,667/1000,70,120.0
1965,E-4,194.5,667/1000,70,120.0
1966,C4,194.5,667/1000,70,120.0
1967,G#4,194.5,667/1000,70,120.0
1968,D2,195.0,0.5,84,120.0
1969,F#2,195.0,0.5,70,120.0
1970,D2,195.0,0.5,77,120.0
1971,F#2,195.0,0.5,77,120.0
1972,F3,195.5,0.25,70,120.0
1973,F3,195.5,0.375,79,120.0
1974,C2,195.5,0.5,64,120.0
1975,F#2,195.5,0.5,60,120.0
1976,C2,195.5,0.5,62,120.0
1977,F#2,195.5,0.5,62,120.0
1978,F3,196.0,1.125,82,120.0
1979,C2,196.0,0.5,64,120.0
1980,F#2,196.0,0.5,70,120.0
1981,C2,196.0,0.5,67,120.0
1982,F#2,196.0,0.5,67,120.0
1983,F#2,196.5,0.5,60,120.0
1984,F#2,196.5,0.5,60,120.0
1985,F4,196.5,667/1000,70,120.0
1986,E-4,196.5,667/1000,70,120.0
1987,C4,196.5,667/1000,70,120.0
1988,G#4,196.5,667/1000,70,120.0
1989,D2,197.0,0.5,79,120.0
1990,F#2,197.0,0.5,70,120.0
1991,D2,197.0,0.5,74,120.0
1992,F#2,197.0,0.5,74,120.0
1993,F3,197.5,0.25,74,120.0
1994,F3,197.5,0.375,89,120.0
1995,C2,197.5,0.5,54,120.0
1996,F#2,197.5,0.5,60,120.0
1997,C2,197.5,0.5,57,120.0
1998,F#2,197.5,0.5,57,120.0
1999,F3,198.0,1.125,99,120.0
2000,C2,198.0,0.25,64,120.0
2001,D2,198.0,0.25,60,120.0
2002,F#2,198.0,0.25,70,120.0
2003,F4,198.0,1.75,70,120.0
2004,E-4,198.0,1.75,70,120.0
2005,C4,198.0,1.75,70,120.0
2006,G#4,198.0,1.75,70,120.0
2007,D2,198.0,0.25,65,120.0
2008,C2,198.0,0.25,65,120.0
2009,F#2,198.0,0.25,65,120.0
2010,D2,198.25,0.25,65,120.0
2011,D2,198.25,0.25,65,120.0
2012,D2,198.5,0.25,65,120.0
2013,F#2,198.5,0.25,60,120.0
2014,D2,198.5,0.25,62,120.0
2015,F#2,198.5,0.25,62,120.0
2016,D2,198.75,0.25,70,120.0
2017,D2,198.75,0.25,70,120.0
2018,F#2,199.0,0.25,70,120.0
2019,A2,199.0,0.25,80,120.0
2020,A2,199.0,0.25,75,120.0
2021,F#2,199.0,0.25,75,120.0
2022,A2,199.25,0.25,70,120.0
2023,A2,199.25,0.25,70,120.0
2024,F3,199.5,0.375,83,120.0
2025,C2,199.5,0.25,64,120.0
2026,F#2,199.5,0.25,60,120.0
2027,A2,199.5,0.25,70,120.0
2028,A2,199.5,0.25,65,120.0
2029,C2,199.5,0.25,65,120.0
2030,F#2,199.5,0.25,65,120.0
2031,A2,199.75,0.25,70,120.0
2032,A2,199.75,0.25,70,120.0
2033,F3,200.0,1.125,79,120.0
2034,C2,200.0,0.5,64,120.0
2035,F#2,200.0,0.5,70,120.0
2036,F4,200.0,249/125,70,120.0
2037,E-4,200.0,249/125,70,120.0
2038,C4,200.0,249/125,70,120.0
2039,G#4,200.0,249/125,70,120.0
2040,C2,200.0,0.5,67,120.0
2041,F#2,200.0,0.5,67,120.0
2042,F#2,200.5,0.5,60,120.0
2043,F#2,200.5,0.5,60,120.0
2044,D2,201.0,0.5,79,120.0
2045,C#3,201.0,0.5,70,120.0
2046,D2,201.0,0.5,74,120.0
2047,C#3,201.0,0.5,74,120.0
2048,F3,201.5,0.375,78,120.0
2049,C2,201.5,0.5,54,120.0
2050,F#2,201.5,0.5,60,120.0
2051,C2,201.5,0.5,57,120.0
2052,F#2,201.5,0.5,57,120.0
2053,F3,202.0,1.125,100,120.0
2054,C2,202.0,0.5,64,120.0
2055,F#2,202.0,0.5,70,120.0
2056,C2,202.0,0.5,67,120.0
2057,F#2,202.0,0.5,67,120.0
2058,F#2,202.5,0.5,60,120.0
2059,F#2,202.5,0.5,60,120.0
2060,D2,203.0,0.5,84,120.0
2061,F#2,203.0,0.5,70,120.0
2062,F4,203.0,667/1000,80,120.0
2063,E-4,203.0,667/1000,80,120.0
2064,C4,203.0,667/1000,80,120.0
2065,G#4,203.0,667/1000,80,120.0
2066,D2,203.0,0.5,77,120.0
2067,F#2,203.0,0.5,77,120.0
2068,F3,203.5,0.375,91,120.0
2069,C2,203.5,0.5,64,120.0
2070,B-2,203.5,0.5,60,120.0
2071,C2,203.5,0.5,62,120.0
2072,B-2,203.5,0.5,62,120.0
2073,F3,204.0,0.25,73,120.0
2074,F3,204.0,1.125,79,120.0
2075,C2,204.0,0.5,64,120.0
2076,F#2,204.0,0.5,70,120.0
2077,C2,204.0,0.5,67,120.0
2078,F#2,204.0,0.5,67,120.0
2079,F#2,204.5,0.5,60,120.0
2080,F#2,204.5,0.5,60,120.0
2081,F4,204.5,667/1000,70,120.0
2082,E4,204.5,667/1000,70,120.0
2083,C4,204.5,667/1000,70,120.0
2084,G#4,204.5,667/1000,70,120.0
2085,D2,205.0,0.5,79,120.0
2086,F#2,205.0,0.5,70,120.0
2087,D2,205.0,0.5,74,120.0
2088,F#2,205.0,0.5,74,120.0
2089,F3,205.5,0.25,65,120.0
2090,F3,205.5,0.375,75,120.0
2091,C2,205.5,0.5,54,120.0
2092,F#2,205.5,0.5,60,120.0
2093,C2,205.5,0.5,57,120.0
2094,F#2,205.5,0.5,57,120.0
2095,F3,206.0,1.125,85,120.0
2096,C2,206.0,0.5,64,120.0
2097,F#2,206.0,0.5,70,120.0
2098,F4,206.0,1.75,70,120.0
2099,E4,206.0,1.75,70,120.0
2100,C4,206.0,1.75,70,120.0
2101,G#4,206.0,1.75,70,120.0
2102,C2,206.0,0.5,67,120.0
2103,F#2,206.0,0.5,67,120.0
2104,C2,206.5,0.5,54,120.0
2105,F#2,206.5,0.5,60,120.0
2106,C2,206.5,0.5,57,120.0
2107,F#2,206.5,0.5,57,120.0
2108,D2,207.0,0.5,84,120.0
2109,F#2,207.0,0.5,70,120.0
2110,D2,207.0,0.5,77,120.0
2111,F#2,207.0,0.5,77,120.0
2112,F3,207.5,0.375,94,120.0
2113,C2,207.5,0.5,64,120.0
2114,F#2,207.5,0.5,60,120.0
2115,C2,207.5,0.5,62,120.0
2116,F#2,207.5,0.5,62,120.0
2117,F3,208.0,1.125,81,120.0
2118,C2,208.0,0.5,64,120.0
2119,F#2,208.0,0.5,70,120.0
2120,C2,208.0,0.5,67,120.0
2121,F#2,208.0,0.5,67,120.0
2122,F#2,208.5,0.5,60,120.0
2123,F#2,208.5,0.5,60,120.0
2124,F4,208.5,667/1000,70,120.0
2125,E-4,208.5,667/1000,70,120.0
2126,C4,208.5,667/1000,70,120.0
2127,G#4,208.5,667/1000,70,120.0
2128,D2,209.0,0.5,79,120.0
2129,F#2,209.0,0.5,70,120.0
2130,D2,209.0,0.5,74,120.0
2131,F#2,209.0,0.5,74,120.0
2132,F3,209.5,0.25,72,120.0
2133,F3,209.5,0.375,91,120.0
2134,C2,209.5,0.5,54,120.0
2135,F#2,209.5,0.5,60,120.0
2136,C2,209.5,0.5,57,120.0
2137,F#2,209.5,0.5,57,120.0
2138,F3,210.0,1.125,101,120.0
2139,C2,210.0,0.5,64,120.0
2140,F#2,210.0,0.5,70,120.0
2141,F4,210.0,1.75,70,120.0
2142,E-4,210.0,1.75,70,120.0
2143,C4,210.0,1.75,70,120.0
2144,G#4,210.0,1.75,70,120.0
2145,C2,210.0,0.5,67,120.0
2146,F#2,210.0,0.5,67,120.0
2147,F#2,210.5,0.5,60,120.0
2148,F#2,210.5,0.5,60,120.0
2149,D2,211.0,0.5,84,120.0
2150,F#2,211.0,0.5,70,120.0
2151,D2,211.0,0.5,77,120.0
2152,F#2,211.0,0.5,77,120.0
2153,F3,211.5,0.375,76,120.0
2154,C2,211.5,0.5,64,120.0
2155,F#2,211.5,0.5,60,120.0
2156,C2,211.5,0.5,62,120.0
2157,F#2,211.5,0.5,62,120.0
2158,B-2,212.0,1.125,89,120.0
2159,C2,212.0,0.5,64,120.0
2160,F#2,212.0,0.5,70,120.0
2161,D4,212.0,249/125,70,120.0
2162,C4,212.0,249/125,70,120.0
2163,G#3,212.0,249/125,70,120.0
2164,F4,212.0,249/125,70,120.0
2165,C2,212.0,0.5,67,120.0
2166,F#2,212.0,0.5,67,120.0
2167,F#2,212.5,0.5,60,120.0
2168,F#2,212.5,0.5,60,120.0
2169,D2,213.0,0.5,79,120.0
2170,F#2,213.0,0.5,70,120.0
2171,D2,213.0,0.5,74,120.0
2172,F#2,213.0,0.5,74,120.0
2173,B-2,213.5,0.375,91,120.0
2174,C2,213.5,0.5,54,120.0
2175,F#2,213.5,0.5,60,120.0
2176,C2,213.5,0.5,57,120.0
2177,F#2,213.5,0.5,57,120.0
2178,B-2,214.0,0.25,64,120.0
2179,B-2,214.0,1.125,86,120.0
2180,C2,214.0,0.5,64,120.0
2181,F#2,214.0,0.5,70,120.0
2182,C2,214.0,0.5,67,120.0
2183,F#2,214.0,0.5,67,120.0
2184,C2,214.5,0.5,54,120.0
2185,F2,214.5,0.5,70,120.0
2186,F#2,214.5,0.5,60,120.0
2187,D4,214.5,667/1000,70,120.0
2188,C4,214.5,667/1000,70,120.0
2189,G#3,214.5,667/1000,70,120.0
2190,F4,214.5,667/1000,70,120.0
2191,C2,214.5,0.5,61,120.0
2192,F2,214.5,0.5,61,120.0
2193,F#2,214.5,0.5,61,120.0
2194,D2,215.0,0.5,84,120.0
2195,F#2,215.0,0.5,70,120.0
2196,D2,215.0,0.5,77,120.0
2197,F#2,215.0,0.5,77,120.0
2198,B-2,215.5,0.375,94,120.0
2199,C2,215.5,0.5,64,120.0
2200,B-2,215.5,0.5,60,120.0
2201,C2,215.5,0.5,62,120.0
2202,B-2,215.5,0.5,62,120.0
2203,F3,216.0,1.125,84,120.0
2204,C2,216.0,0.5,64,120.0
2205,F#2,216.0,0.5,70,120.0
2206,F4,216.0,249/125,70,120.0
2207,E-4,216.0,249/125,70,120.0
2208,C4,216.0,249/125,70,120.0
2209,G#4,216.0,249/125,70,120.0
2210,C2,216.0,0.5,67,120.0
2211,F#2,216.0,0.5,67,120.0
2212,F#2,216.5,0.5,60,120.0
2213,F#2,216.5,0.5,60,120.0
2214,D2,217.0,0.5,79,120.0
2215,F#2,217.0,0.5,70,120.0
2216,D2,217.0,0.5,74,120.0
2217,F#2,217.0,0.5,74,120.0
2218,F3,217.5,0.375,84,120.0
2219,C2,217.5,0.5,54,120.0
2220,F#2,217.5,0.5,60,120.0
2221,C2,217.5,0.5,57,120.0
2222,F#2,217.5,0.5,57,120.0
2223,F3,218.0,0.25,69,120.0
2224,F3,218.0,1.125,102,120.0
2225,C2,218.0,0.5,64,120.0
2226,F#2,218.0,0.5,70,120.0
2227,C2,218.0,0.5,67,120.0
2228,F#2,218.0,0.5,67,120.0
2229,F#2,218.5,0.5,60,120.0
2230,F#2,218.5,0.5,60,120.0
2231,F4,218.5,667/1000,70,120.0
2232,E-4,218.5,667/1000,70,120.0
2233,C4,218.5,667/1000,70,120.0
2234,G#4,218.5,667/1000,70,120.0
2235,D2,219.0,0.5,84,120.0
2236,F#2,219.0,0.5,70,120.0
2237,D2,219.0,0.5,77,120.0
2238,F#2,219.0,0.5,77,120.0
2239,C#3,219.5,0.25,70,120.0
2240,F3,219.5,0.375,93,120.0
2241,C2,219.5,0.5,64,120.0
2242,F#2,219.5,0.5,60,120.0
2243,C2,219.5,0.5,62,120.0
2244,F#2,219.5,0.5,62,120.0
2245,C#3,220.0,1.125,88,120.0
2246,C2,220.0,0.5,64,120.0
2247,F#2,220.0,0.5,70,120.0
2248,C2,220.0,0.5,67,120.0
2249,F#2,220.0,0.5,67,120.0
2250,F#2,220.5,0.5,60,120.0
2251,F#2,220.5,0.5,60,120.0
2252,F4,220.5,667/1000,70,120.0
2253,E-4,220.5,667/1000,70,120.0
2254,B3,220.5,667/1000,70,120.0
2255,G#4,220.5,667/1000,70,120.0
2256,D2,221.0,0.5,79,120.0
2257,F#2,221.0,0.5,70,120.0
2258,D2,221.0,0.5,74,120.0
2259,F#2,221.0,0.5,74,120.0
2260,C#3,221.5,0.25,65,120.0
2261,C#3,221.5,0.375,83,120.0
2262,C2,221.5,0.5,54,120.0
2263,F#2,221.5,0.5,60,120.0
2264,C2,221.5,0.5,57,120.0
2265,F#2,221.5,0.5,57,120.0
2266,C#3,222.0,1.125,89,120.0
2267,C2,222.0,0.5,64,120.0
2268,F#2,222.0,0.5,70,120.0
2269,F4,222.0,1.75,70,120.0
2270,E-4,222.0,1.75,70,120.0
2271,B3,222.0,1.75,70,120.0
2272,G#4,222.0,1.75,70,120.0
2273,C2,222.0,0.5,67,120.0
2274,F#2,222.0,0.5,67,120.0
2275,C2,222.5,0.5,54,120.0
2276,F#2,222.5,0.5,60,120.0
2277,C2,222.5,0.5,57,120.0
2278,F#2,222.5,0.5,57,120.0
2279,D2,223.0,0.5,84,120.0
2280,F#2,223.0,0.5,70,120.0
2281,D2,223.0,0.5,77,120.0
2282,F#2,223.0,0.5,77,120.0
2283,C#3,223.5,0.375,83,120.0
2284,C2,223.5,0.5,64,120.0
2285,F#2,223.5,0.5,60,120.0
2286,C2,223.5,0.5,62,120.0
2287,F#2,223.5,0.5,62,120.0
2288,G3,224.0,1.125,94,120.0
2289,C2,224.0,0.5,64,120.0
2290,F#2,224.0,0.5,70,120.0
2291,F4,224.0,0.75,70,120.0
2292,D4,224.0,0.75,70,120.0
2293,B-3,224.0,0.75,70,120.0
2294,G4,224.0,0.75,70,120.0
2295,C2,224.0,0.5,67,120.0
2296,F#2,224.0,0.5,67,120.0
2297,F#2,224.5,0.5,60,120.0
2298,F#2,224.5,0.5,60,120.0
2299,D2,225.0,0.5,79,120.0
2300,F#2,225.0,0.5,70,120.0
2301,D2,225.0,0.5,74,120.0
2302,F#2,225.0,0.5,74,120.0
2303,G3,225.5,0.375,94,120.0
2304,C2,225.5,0.5,54,120.0
2305,F#2,225.5,0.5,60,120.0
2306,C2,225.5,0.5,57,120.0
2307,F#2,225.5,0.5,57,120.0
2308,G3,226.0,1.125,98,120.0
2309,C2,226.0,0.5,64,120.0
2310,F#2,226.0,0.5,70,120.0
2311,C2,226.0,0.5,67,120.0
2312,F#2,226.0,0.5,67,120.0
2313,F#2,226.5,0.5,60,120.0
2314,F#2,226.5,0.5,60,120.0
2315,D2,227.0,0.5,84,120.0
2316,F#2,227.0,0.5,70,120.0
2317,D2,227.0,0.5,77,120.0
2318,F#2,227.0,0.5,77,120.0
2319,G3,227.5,0.375,88,120.0
2320,C2,227.5,0.5,64,120.0
2321,F#2,227.5,0.5,60,120.0
2322,C2,227.5,0.5,62,120.0
2323,F#2,227.5,0.5,62,120.0
2324,C3,228.0,1.125,82,120.0
2325,C2,228.0,0.5,64,120.0
2326,F#2,228.0,0.5,70,120.0
2327,C2,228.0,0.5,67,120.0
2328,F#2,228.0,0.5,67,120.0
2329,F#2,228.5,0.5,60,120.0
2330,F#2,228.5,0.5,60,120.0
2331,E4,228.5,667/1000,70,120.0
2332,C4,228.5,667/1000,70,120.0
2333,B-3,228.5,667/1000,70,120.0
2334,G#4,228.5,667/1000,70,120.0
2335,D2,229.0,0.5,79,120.0
2336,F#2,229.0,0.5,70,120.0
2337,D2,229.0,0.5,74,120.0
2338,F#2,229.0,0.5,74,120.0
2339,C3,229.5,0.375,90,120.0
2340,C2,229.5,0.5,54,120.0
2341,F#2,229.5,0.5,60,120.0
2342,C2,229.5,0.5,57,120.0
2343,F#2,229.5,0.5,57,120.0
2344,C3,230.0,1.125,88,120.0
2345,C2,230.0,0.5,64,120.0
2346,F#2,230.0,0.5,70,120.0
2347,E4,230.0,1.75,70,120.0
2348,C4,230.0,1.75,70,120.0
2349,B-3,230.0,1.75,70,120.0
2350,G#4,230.0,1.75,70,120.0
2351,C2,230.0,0.5,67,120.0
2352,F#2,230.0,0.5,67,120.0
2353,D2,230.5,167/1000,50,120.0
2354,F#2,230.5,167/1000,60,120.0
2355,D2,230.5,167/1000,55,120.0
2356,F#2,230.5,167/1000,55,120.0
2357,D2,230.667,167/1000,55,120.0
2358,D2,230.667,167/1000,55,120.0
2359,D2,230.833,167/1000,60,120.0
2360,D2,230.833,167/1000,60,120.0
2361,D2,231.0,0.5,84,120.0
2362,F#2,231.0,0.5,70,120.0
2363,D2,231.0,0.5,77,120.0
2364,F#2,231.0,0.5,77,120.0
2365,C3,231.5,0.375,88,120.0
2366,C2,231.5,0.5,64,120.0
2367,D2,231.5,0.5,74,120.0
2368,F#2,231.5,0.5,60,120.0
2369,D2,231.5,0.5,66,120.0
2370,C2,231.5,0.5,66,120.0
2371,F#2,231.5,0.5,66,120.0
2372,F3,232.0,1.125,84,120.0
2373,C2,232.0,0.5,64,120.0
2374,C#3,232.0,0.5,70,120.0
2375,F4,232.0,0.75,70,120.0
2376,E-4,232.0,0.75,70,120.0
2377,C4,232.0,0.75,70,120.0
2378,G#4,232.0,0.75,70,120.0
2379,C2,232.0,0.5,67,120.0
2380,C#3,232.0,0.5,67,120.0
2381,F#2,232.5,0.5,60,120.0
2382,F#2,232.5,0.5,60,120.0
2383,D2,233.0,0.5,79,120.0
2384,F#2,233.0,0.5,70,120.0
2385,D2,233.0,0.5,74,120.0
2386,F#2,233.0,0.5,74,120.0
2387,F3,233.5,0.375,75,120.0
2388,C2,233.5,0.5,54,120.0
2389,F#2,233.5,0.5,60,120.0
2390,C2,233.5,0.5,57,120.0
2391,F#2,233.5,0.5,57,120.0
2392,F3,234.0,1.125,96,120.0
2393,C2,234.0,0.5,64,120.0
2394,F#2,234.0,0.5,70,120.0
2395,C2,234.0,0.5,67,120.0
2396,F#2,234.0,0.5,67,120.0
2397,F#2,234.5,0.5,60,120.0
2398,F#2,234.5,0.5,60,120.0
2399,D2,235.0,0.5,84,120.0
2400,F#2,235.0,0.5,70,120.0
2401,D2,235.0,0.5,77,120.0
2402,F#2,235.0,0.5,77,120.0
2403,F3,235.5,0.375,79,120.0
2404,C2,235.5,0.5,64,120.0
2405,B-2,235.5,0.5,60,120.0
2406,C2,235.5,0.5,62,120.0
2407,B-2,235.5,0.5,62,120.0
2408,F3,236.0,1.125,82,120.0
2409,C2,236.0,0.5,64,120.0
2410,F#2,236.0,0.5,70,120.0
2411,F4,236.0,0.75,70,120.0
2412,E4,236.0,0.75,70,120.0
2413,C4,236.0,0.75,70,120.0
2414,G#4,236.0,0.75,70,120.0
2415,C2,236.0,0.5,67,120.0
2416,F#2,236.0,0.5,67,120.0
2417,F#2,236.5,0.5,60,120.0
2418,F#2,236.5,0.5,60,120.0
2419,D2,237.0,0.5,79,120.0
2420,F#2,237.0,0.5,70,120.0
2421,D2,237.0,0.5,74,120.0
2422,F#2,237.0,0.5,74,120.0
2423,F3,237.5,0.375,84,120.0
2424,C2,237.5,0.5,54,120.0
2425,F#2,237.5,0.5,60,120.0
2426,C2,237.5,0.5,57,120.0
2427,F#2,237.5,0.5,57,120.0
2428,F3,238.0,1.125,95,120.0
2429,C2,238.0,0.5,64,120.0
2430,F#2,238.0,0.5,70,120.0
2431,C2,238.0,0.5,67,120.0
2432,F#2,238.0,0.5,67,120.0
2433,C2,238.5,0.5,54,120.0
2434,F#2,238.5,0.5,60,120.0
2435,C2,238.5,0.5,57,120.0
2436,F#2,238.5,0.5,57,120.0
2437,D2,239.0,0.5,84,120.0
2438,F#2,239.0,0.5,70,120.0
2439,D2,239.0,0.5,77,120.0
2440,F#2,239.0,0.5,77,120.0
2441,F3,239.5,0.375,86,120.0
2442,C2,239.5,0.5,64,120.0
2443,F#2,239.5,0.5,60,120.0
2444,C2,239.5,0.5,62,120.0
2445,F#2,239.5,0.5,62,120.0
2446,F3,240.0,1.125,89,120.0
2447,C2,240.0,0.5,64,120.0
2448,F#2,240.0,0.5,70,120.0
2449,C2,240.0,0.5,67,120.0
2450,F#2,240.0,0.5,67,120.0
2451,F#2,240.5,0.5,60,120.0
2452,F#2,240.5,0.5,60,120.0
2453,F4,240.5,667/1000,70,120.0
2454,E-4,240.5,667/1000,70,120.0
2455,C4,240.5,667/1000,70,120.0
2456,G#4,240.5,667/1000,70,120.0
2457,D2,241.0,0.5,79,120.0
2458,F#2,241.0,0.5,70,120.0
2459,D2,241.0,0.5,74,120.0
2460,F#2,241.0,0.5,74,120.0
2461,F3,241.5,0.375,78,120.0
2462,C2,241.5,0.5,54,120.0
2463,F#2,241.5,0.5,60,120.0
2464,C2,241.5,0.5,57,120.0
2465,F#2,241.5,0.5,57,120.0
2466,F3,242.0,1.125,99,120.0
2467,C2,242.0,0.5,64,120.0
2468,F#2,242.0,0.5,70,120.0
2469,F4,242.0,1.75,70,120.0
2470,E-4,242.0,1.75,70,120.0
2471,C4,242.0,1.75,70,120.0
2472,G#4,242.0,1.75,70,120.0
2473,C2,242.0,0.5,67,120.0
2474,F#2,242.0,0.5,67,120.0
2475,F#2,242.5,0.5,60,120.0
2476,F#2,242.5,0.5,60,120.0
2477,D2,243.0,0.5,84,120.0
2478,F#2,243.0,0.5,70,120.0
2479,D2,243.0,0.5,77,120.0
2480,F#2,243.0,0.5,77,120.0
2481,F3,243.5,0.375,76,120.0
2482,C2,243.5,0.5,64,120.0
2483,F#2,243.5,0.5,60,120.0
2484,C2,243.5,0.5,62,120.0
2485,F#2,243.5,0.5,62,120.0
2486,B-2,244.0,1.125,89,120.0
2487,C2,244.0,0.5,64,120.0
2488,F#2,244.0,0.5,70,120.0
2489,G#4,244.0,249/125,70,120.0
2490,F4,244.0,249/125,70,120.0
2491,D4,244.0,249/125,70,120.0
2492,C5,244.0,249/125,70,120.0
2493,C2,244.0,0.5,67,120.0
2494,F#2,244.0,0.5,67,120.0
2495,F#2,244.5,0.5,60,120.0
2496,F#2,244.5,0.5,60,120.0
2497,D2,245.0,0.5,79,120.0
2498,F#2,245.0,0.5,70,120.0
2499,D2,245.0,0.5,74,120.0
2500,F#2,245.0,0.5,74,120.0
2501,B-2,245.5,0.375,83,120.0
2502,C2,245.5,0.5,54,120.0
2503,F#2,245.5,0.5,60,120.0
2504,C2,245.5,0.5,57,120.0
2505,F#2,245.5,0.5,57,120.0
2506,B-2,246.0,0.25,70,120.0
2507,B-2,246.0,1.125,101,120.0
2508,C2,246.0,0.5,64,120.0
2509,F#2,246.0,0.5,70,120.0
2510,C2,246.0,0.5,67,120.0
2511,F#2,246.0,0.5,67,120.0
2512,C2,246.5,0.5,54,120.0
2513,F#2,246.5,0.5,60,120.0
2514,G#4,246.5,667/1000,70,120.0
2515,F4,246.5,667/1000,70,120.0
2516,D4,246.5,667/1000,70,120.0
2517,C5,246.5,667/1000,70,120.0
2518,C2,246.5,0.5,57,120.0
2519,F#2,246.5,0.5,57,120.0
2520,D2,247.0,0.5,84,120.0
2521,F#2,247.0,0.5,70,120.0
2522,D2,247.0,0.5,77,120.0
2523,F#2,247.0,0.5,77,120.0
2524,C#3,247.5,0.25,70,120.0
2525,B-2,247.5,0.375,80,120.0
2526,C2,247.5,0.5,64,120.0
2527,F#2,247.5,0.5,60,120.0
2528,C2,247.5,0.5,62,120.0
2529,F#2,247.5,0.5,62,120.0
2530,C#3,248.0,1.125,93,120.0
2531,C2,248.0,0.5,64,120.0
2532,F#2,248.0,0.5,70,120.0
2533,C2,248.0,0.5,67,120.0
2534,F#2,248.0,0.5,67,120.0
2535,F#2,248.5,0.5,60,120.0
2536,F#2,248.5,0.5,60,120.0
2537,F4,248.5,667/1000,70,120.0
2538,E-4,248.5,667/1000,70,120.0
2539,B3,248.5,667/1000,70,120.0
2540,G#4,248.5,667/1000,70,120.0
2541,D2,249.0,0.5,79,120.0
2542,F#2,249.0,0.5,70,120.0
2543,D2,249.0,0.5,74,120.0
2544,F#2,249.0,0.5,74,120.0
2545,C#3,249.5,0.25,66,120.0
2546,C#3,249.5,0.375,94,120.0
2547,C2,249.5,0.5,54,120.0
2548,F#2,249.5,0.5,60,120.0
2549,C2,249.5,0.5,57,120.0
2550,F#2,249.5,0.5,57,120.0
2551,C#3,250.0,1.125,89,120.0
2552,C2,250.0,0.5,64,120.0
2553,F#2,250.0,0.5,70,120.0
2554,F4,250.0,1.75,70,120.0
2555,E-4,250.0,1.75,70,120.0
2556,B3,250.0,1.75,70,120.0
2557,G#4,250.0,1.75,70,120.0
2558,C2,250.0,0.5,67,120.0
2559,F#2,250.0,0.5,67,120.0
2560,F#2,250.5,0.5,60,120.0
2561,F#2,250.5,0.5,60,120.0
2562,D2,251.0,0.5,84,120.0
2563,F#2,251.0,0.5,70,120.0
2564,D2,251.0,0.5,77,120.0
2565,F#2,251.0,0.5,77,120.0
2566,C#3,251.5,0.375,91,120.0
2567,C2,251.5,0.5,64,120.0
2568,B-2,251.5,0.5,60,120.0
2569,C2,251.5,0.5,62,120.0
2570,B-2,251.5,0.5,62,120.0
2571,C3,252.0,1.125,90,120.0
2572,C2,252.0,0.5,64,120.0
2573,F#2,252.0,0.5,70,120.0
2574,E4,252.0,0.75,70,120.0
2575,C4,252.0,0.75,70,120.0
2576,B-3,252.0,0.75,70,120.0
2577,G#4,252.0,0.75,70,120.0
2578,C2,252.0,0.5,67,120.0
2579,F#2,252.0,0.5,67,120.0
2580,F#2,252.5,0.5,60,120.0
2581,F#2,252.5,0.5,60,120.0
2582,D2,253.0,0.5,79,120.0
2583,F#2,253.0,0.5,70,120.0
2584,D2,253.0,0.5,74,120.0
2585,F#2,253.0,0.5,74,120.0
2586,C3,253.5,0.375,91,120.0
2587,C2,253.5,0.5,54,120.0
2588,F#2,253.5,0.5,60,120.0
2589,C2,253.5,0.5,57,120.0
2590,F#2,253.5,0.5,57,120.0
2591,C3,254.0,1.125,93,120.0
2592,C2,254.0,0.5,64,120.0
2593,F#2,254.0,0.5,70,120.0
2594,C2,254.0,0.5,67,120.0
2595,F#2,254.0,0.5,67,120.0
2596,C2,254.5,0.5,54,120.0
2597,F#2,254.5,0.5,60,120.0
2598,C2,254.5,0.5,57,120.0
2599,F#2,254.5,0.5,57,120.0
2600,D2,255.0,0.5,84,120.0
2601,F#2,255.0,0.5,70,120.0
2602,D2,255.0,0.5,77,120.0
2603,F#2,255.0,0.5,77,120.0
2604,C3,255.5,0.375,77,120.0
2605,C2,255.5,0.5,64,120.0
2606,F#2,255.5,0.5,60,120.0
2607,C2,255.5,0.5,62,120.0
2608,F#2,255.5,0.5,62,120.0
2609,F3,256.0,1.125,76,120.0
2610,C2,256.0,0.5,64,120.0
2611,F#2,256.0,0.5,70,120.0
2612,F4,256.0,249/125,70,120.0
2613,E-4,256.0,249/125,70,120.0
2614,C4,256.0,249/125,70,120.0
2615,G#4,256.0,249/125,70,120.0
2616,C2,256.0,0.5,67,120.0
2617,F#2,256.0,0.5,67,120.0
2618,F#2,256.5,0.5,60,120.0
2619,F#2,256.5,0.5,60,120.0
2620,D2,257.0,0.5,79,120.0
2621,F#2,257.0,0.5,70,120.0
2622,D2,257.0,0.5,74,120.0
2623,F#2,257.0,0.5,74,120.0
2624,F3,257.5,0.375,84,120.0
2625,C2,257.5,0.5,54,120.0
2626,F#2,257.5,0.5,60,120.0
2627,C2,257.5,0.5,57,120.0
2628,F#2,257.5,0.5,57,120.0
2629,F3,258.0,1.125,93,120.0
2630,C2,258.0,0.5,64,120.0
2631,F#2,258.0,0.5,70,120.0
2632,C2,258.0,0.5,67,120.0
2633,F#2,258.0,0.5,67,120.0
2634,F#2,258.5,0.5,60,120.0
2635,F#2,258.5,0.5,60,120.0
2636,D2,259.0,0.5,84,120.0
2637,F#2,259.0,0.5,70,120.0
2638,F4,259.0,667/1000,80,120.0
2639,E-4,259.0,667/1000,80,120.0
2640,C4,259.0,667/1000,80,120.0
2641,G#4,259.0,667/1000,80,120.0
2642,D2,259.0,0.5,77,120.0
2643,F#2,259.0,0.5,77,120.0
2644,F3,259.5,0.375,79,120.0
2645,C2,259.5,0.5,64,120.0
2646,F#2,259.5,0.5,60,120.0
2647,C2,259.5,0.5,62,120.0
2648,F#2,259.5,0.5,62,120.0
2649,F3,260.0,1.125,87,120.0
2650,C2,260.0,0.5,64,120.0
2651,F#2,260.0,0.5,70,120.0
2652,C2,260.0,0.5,67,120.0
2653,F#2,260.0,0.5,67,120.0
2654,D2,260.5,167/1000,50,120.0
2655,F#2,260.5,167/1000,60,120.0
2656,F4,260.5,1.25,70,120.0
2657,E-4,260.5,1.25,70,120.0
2658,C4,260.5,1.25,70,120.0
2659,G#4,260.5,1.25,70,120.0
2660,D2,260.5,167/1000,55,120.0
2661,F#2,260.5,167/1000,55,120.0
2662,D2,260.667,167/1000,55,120.0
2663,D2,260.667,167/1000,55,120.0
2664,D2,260.833,167/1000,60,120.0
2665,D2,260.833,167/1000,60,120.0
2666,D2,261.0,0.5,75,120.0
2667,F#2,261.0,0.5,60,120.0
2668,D2,261.0,0.5,68,120.0
2669,F#2,261.0,0.5,68,120.0
2670,F3,261.5,0.375,85,120.0
2671,C2,261.5,0.5,54,120.0
2672,F#2,261.5,0.5,70,120.0
2673,A2,261.5,0.5,70,120.0
2674,C2,261.5,0.5,65,120.0
2675,A2,261.5,0.5,65,120.0
2676,F#2,261.5,0.5,65,120.0
2677,E3,262.0,0.75,86,120.0
2678,C2,262.0,0.5,64,120.0
2679,F#2,262.0,0.5,70,120.0
2680,C3,262.0,0.5,70,120.0
2681,E4,262.0,0.75,70,120.0
2682,D4,262.0,0.75,70,120.0
2683,B3,262.0,0.75,70,120.0
2684,G4,262.0,0.75,70,120.0
2685,C3,262.0,0.5,68,120.0
2686,C2,262.0,0.5,68,120.0
2687,F#2,262.0,0.5,68,120.0
2688,F#2,262.5,0.5,60,120.0
2689,A2,262.5,0.5,65,120.0
2690,A2,262.5,0.5,62,120.0
2691,F#2,262.5,0.5,62,120.0
2692,A2,263.0,0.75,90,120.0
2693,F#2,263.0,0.5,70,120.0
2694,A2,263.0,0.5,75,120.0
2695,G4,263.0,0.75,70,120.0
2696,E4,263.0,0.75,70,120.0
2697,C#4,263.0,0.75,70,120.0
2698,A4,263.0,0.75,70,120.0
2699,A2,263.0,0.5,72,120.0
2700,F#2,263.0,0.5,72,120.0
2701,C2,263.5,0.5,64,120.0
2702,F2,263.5,0.5,90,120.0
2703,B-2,263.5,0.5,60,120.0
2704,F2,263.5,0.5,71,120.0
2705,C2,263.5,0.5,71,120.0
2706,B-2,263.5,0.5,71,120.0
2707,E-3,264.0,1.125,88,120.0
2708,C2,264.0,0.5,64,120.0
2709,C#3,264.0,0.5,70,120.0
2710,F4,264.0,0.75,70,120.0
2711,C#4,264.0,0.75,70,120.0
2712,B-3,264.0,0.75,70,120.0
2713,F#4,264.0,0.75,70,120.0
2714,C2,264.0,0.5,67,120.0
2715,C#3,264.0,0.5,67,120.0
2716,F#2,264.5,0.5,60,120.0
2717,F#2,264.5,0.5,60,120.0
2718,D2,265.0,0.5,79,120.0
2719,F#2,265.0,0.5,70,120.0
2720,D2,265.0,0.5,74,120.0
2721,F#2,265.0,0.5,74,120.0
2722,E-3,265.5,0.375,90,120.0
2723,C2,265.5,0.5,54,120.0
2724,F#2,265.5,0.5,60,120.0
2725,C2,265.5,0.5,57,120.0
2726,F#2,265.5,0.5,57,120.0
2727,B-2,266.0,1.125,104,120.0
2728,C2,266.0,0.5,64,120.0
2729,F#2,266.0,0.5,70,120.0
2730,C2,266.0,0.5,67,120.0
2731,F#2,266.0,0.5,67,120.0
2732,F#2,266.5,0.5,60,120.0
2733,F#2,266.5,0.5,60,120.0
2734,D2,267.0,0.5,84,120.0
2735,F#2,267.0,0.5,70,120.0
2736,D2,267.0,0.5,77,120.0
2737,F#2,267.0,0.5,77,120.0
2738,B-2,267.5,0.375,93,120.0
2739,C2,267.5,0.5,64,120.0
2740,F#2,267.5,0.5,60,120.0
2741,C2,267.5,0.5,62,120.0
2742,F#2,267.5,0.5,62,120.0
2743,G#3,268.0,0.25,64,120.0
2744,G#2,268.0,1.125,77,120.0
2745,C2,268.0,0.5,64,120.0
2746,F#2,268.0,0.5,70,120.0
2747,C2,268.0,0.5,67,120.0
2748,F#2,268.0,0.5,67,120.0
2749,F#2,268.5,0.5,60,120.0
2750,F#2,268.5,0.5,60,120.0
2751,F#4,268.5,667/1000,70,120.0
2752,E-4,268.5,667/1000,70,120.0
2753,C4,268.5,667/1000,70,120.0
2754,B-4,268.5,667/1000,70,120.0
2755,D2,269.0,0.5,79,120.0
2756,F#2,269.0,0.5,70,120.0
2757,D2,269.0,0.5,74,120.0
2758,F#2,269.0,0.5,74,120.0
2759,G#2,269.5,0.375,79,120.0
2760,C2,269.5,0.5,54,120.0
2761,F#2,269.5,0.5,60,120.0
2762,C2,269.5,0.5,57,120.0
2763,F#2,269.5,0.5,57,120.0
2764,E-2,270.0,1.125,96,120.0
2765,C2,270.0,0.5,64,120.0
2766,F#2,270.0,0.5,70,120.0
2767,F#4,270.0,1.75,70,120.0
2768,E-4,270.0,1.75,70,120.0
2769,C4,270.0,1.75,70,120.0
2770,B-4,270.0,1.75,70,120.0
2771,C2,270.0,0.5,67,120.0
2772,F#2,270.0,0.5,67,120.0
2773,C2,270.5,0.5,54,120.0
2774,F#2,270.5,0.5,60,120.0
2775,C2,270.5,0.5,57,120.0
2776,F#2,270.5,0.5,57,120.0
2777,D2,271.0,0.5,84,120.0
2778,F#2,271.0,0.5,70,120.0
2779,D2,271.0,0.5,77,120.0
2780,F#2,271.0,0.5,77,120.0
2781,E-2,271.5,0.375,75,120.0
2782,C2,271.5,0.5,64,120.0
2783,F#2,271.5,0.5,60,120.0
2784,C2,271.5,0.5,62,120.0
2785,F#2,271.5,0.5,62,120.0
2786,C#3,272.0,1.125,94,120.0
2787,C2,272.0,0.5,64,120.0
2788,F#2,272.0,0.5,70,120.0
2789,F4,272.0,249/125,70,120.0
2790,E-4,272.0,249/125,70,120.0
2791,C4,272.0,249/125,70,120.0
2792,G#4,272.0,249/125,70,120.0
2793,C2,272.0,0.5,67,120.0
2794,F#2,272.0,0.5,67,120.0
2795,F#2,272.5,0.5,60,120.0
2796,F#2,272.5,0.5,60,120.0
2797,D2,273.0,0.5,79,120.0
2798,F#2,273.0,0.5,70,120.0
2799,D2,273.0,0.5,74,120.0
2800,F#2,273.0,0.5,74,120.0
2801,C#3,273.5,0.375,79,120.0
2802,C2,273.5,0.5,54,120.0
2803,F#2,273.5,0.5,60,120.0
2804,C2,273.5,0.5,57,120.0
2805,F#2,273.5,0.5,57,120.0
2806,G#2,274.0,1.125,102,120.0
2807,C2,274.0,0.5,64,120.0
2808,F#2,274.0,0.5,70,120.0
2809,C2,274.0,0.5,67,120.0
2810,F#2,274.0,0.5,67,120.0
2811,C#3,274.5,0.25,75,120.0
2812,F#2,274.5,0.5,60,120.0
2813,F#2,274.5,0.5,60,120.0
2814,D2,275.0,0.5,84,120.0
2815,F#2,275.0,0.5,70,120.0
2816,F4,275.0,667/1000,80,120.0
2817,E-4,275.0,667/1000,80,120.0
2818,C4,275.0,667/1000,80,120.0
2819,G#4,275.0,667/1000,80,120.0
2820,D2,275.0,0.5,77,120.0
2821,F#2,275.0,0.5,77,120.0
2822,G#2,275.5,0.375,82,120.0
2823,C2,275.5,0.5,64,120.0
2824,F#2,275.5,0.5,60,120.0
2825,C2,275.5,0.5,62,120.0
2826,F#2,275.5,0.5,62,120.0
2827,B-2,276.0,1.125,78,120.0
2828,C2,276.0,0.5,64,120.0
2829,F#2,276.0,0.5,70,120.0
2830,G#4,276.0,0.75,70,120.0
2831,F4,276.0,0.75,70,120.0
2832,D4,276.0,0.75,70,120.0
2833,B-4,276.0,0.75,70,120.0
2834,C2,276.0,0.5,67,120.0
2835,F#2,276.0,0.5,67,120.0
2836,F2,276.5,0.5,60,120.0
2837,F#2,276.5,0.5,60,120.0
2838,F2,276.5,0.5,60,120.0
2839,F#2,276.5,0.5,60,120.0
2840,D2,277.0,0.5,79,120.0
2841,F#2,277.0,0.5,70,120.0
2842,D2,277.0,0.5,74,120.0
2843,F#2,277.0,0.5,74,120.0
2844,B-2,277.5,0.375,86,120.0
2845,C2,277.5,0.5,54,120.0
2846,F#2,277.5,0.5,60,120.0
2847,C2,277.5,0.5,57,120.0
2848,F#2,277.5,0.5,57,120.0
2849,F2,278.0,1.125,92,120.0
2850,C2,278.0,0.5,64,120.0
2851,F#2,278.0,0.5,70,120.0
2852,C2,278.0,0.5,67,120.0
2853,F#2,278.0,0.5,67,120.0
2854,C2,278.5,0.5,54,120.0
2855,F2,278.5,0.5,70,120.0
2856,F#2,278.5,0.5,60,120.0
2857,C2,278.5,0.5,61,120.0
2858,F2,278.5,0.5,61,120.0
2859,F#2,278.5,0.5,61,120.0
2860,D2,279.0,0.5,84,120.0
2861,F#2,279.0,0.5,70,120.0
2862,D2,279.0,0.5,77,120.0
2863,F#2,279.0,0.5,77,120.0
2864,F2,279.5,0.375,79,120.0
2865,C2,279.5,0.5,64,120.0
2866,B-2,279.5,0.5,60,120.0
2867,C2,279.5,0.5,62,120.0
2868,B-2,279.5,0.5,62,120.0
2869,E-3,280.0,1.125,90,120.0
2870,C2,280.0,0.5,64,120.0
2871,F#2,280.0,0.5,70,120.0
2872,E-4,280.0,0.75,70,120.0
2873,C#4,280.0,0.75,70,120.0
2874,B-3,280.0,0.75,70,120.0
2875,F#4,280.0,0.75,70,120.0
2876,C2,280.0,0.5,67,120.0
2877,F#2,280.0,0.5,67,120.0
2878,F#2,280.5,0.5,60,120.0
2879,F#2,280.5,0.5,60,120.0
2880,D2,281.0,0.5,79,120.0
2881,F#2,281.0,0.5,70,120.0
2882,D2,281.0,0.5,74,120.0
2883,F#2,281.0,0.5,74,120.0
2884,E-3,281.5,0.375,91,120.0
2885,C2,281.5,0.5,54,120.0
2886,F#2,281.5,0.5,60,120.0
2887,C2,281.5,0.5,57,120.0
2888,F#2,281.5,0.5,57,120.0
2889,B-2,282.0,1.125,90,120.0
2890,C2,282.0,0.5,64,120.0
2891,F#2,282.0,0.5,70,120.0
2892,C2,282.0,0.5,67,120.0
2893,F#2,282.0,0.5,67,120.0
2894,F#2,282.5,0.5,60,120.0
2895,F#2,282.5,0.5,60,120.0
2896,D2,283.0,0.5,84,120.0
2897,F#2,283.0,0.5,70,120.0
2898,D2,283.0,0.5,77,120.0
2899,F#2,283.0,0.5,77,120.0
2900,B-2,283.5,0.375,86,120.0
2901,C2,283.5,0.5,64,120.0
2902,F#2,283.5,0.5,60,120.0
2903,C2,283.5,0.5,62,120.0
2904,F#2,283.5,0.5,62,120.0
2905,G#2,284.0,1.125,76,120.0
2906,C2,284.0,0.5,64,120.0
2907,F#2,284.0,0.5,70,120.0
2908,F#4,284.0,249/125,70,120.0
2909,E-4,284.0,249/125,70,120.0
2910,C4,284.0,249/125,70,120.0
2911,B-4,284.0,249/125,70,120.0
2912,C2,284.0,0.5,67,120.0
2913,F#2,284.0,0.5,67,120.0
2914,F#2,284.5,0.5,60,120.0
2915,F#2,284.5,0.5,60,120.0
2916,D2,285.0,0.5,79,120.0
2917,F#2,285.0,0.5,70,120.0
2918,D2,285.0,0.5,74,120.0
2919,F#2,285.0,0.5,74,120.0
2920,G#2,285.5,0.375,86,120.0
2921,C2,285.5,0.5,54,120.0
2922,F#2,285.5,0.5,60,120.0
2923,C2,285.5,0.5,57,120.0
2924,F#2,285.5,0.5,57,120.0
2925,E-2,286.0,1.125,99,120.0
2926,C2,286.0,0.5,64,120.0
2927,F#2,286.0,0.5,70,120.0
2928,C2,286.0,0.5,67,120.0
2929,F#2,286.0,0.5,67,120.0
2930,C2,286.5,0.5,54,120.0
2931,F#2,286.5,0.5,60,120.0
2932,F#4,286.5,667/1000,70,120.0
2933,E-4,286.5,667/1000,70,120.0
2934,C4,286.5,667/1000,70,120.0
2935,B-4,286.5,667/1000,70,120.0
2936,C2,286.5,0.5,57,120.0
2937,F#2,286.5,0.5,57,120.0
2938,D2,287.0,0.5,84,120.0
2939,F#2,287.0,0.5,70,120.0
2940,D2,287.0,0.5,77,120.0
2941,F#2,287.0,0.5,77,120.0
2942,E-2,287.5,0.375,81,120.0
2943,C2,287.5,0.5,64,120.0
2944,F#2,287.5,0.5,60,120.0
2945,C2,287.5,0.5,62,120.0
2946,F#2,287.5,0.5,62,120.0
2947,C#3,288.0,1.125,75,120.0
2948,C2,288.0,0.5,64,120.0
2949,F#2,288.0,0.5,70,120.0
2950,F4,288.0,1917/1000,70,120.0
2951,E-4,288.0,1917/1000,70,120.0
2952,C4,288.0,1917/1000,70,120.0
2953,G#4,288.0,1917/1000,70,120.0
2954,C2,288.0,0.5,67,120.0
2955,F#2,288.0,0.5,67,120.0
2956,F#2,288.5,0.5,60,120.0
2957,F#2,288.5,0.5,60,120.0
2958,D2,289.0,0.5,79,120.0
2959,F#2,289.0,0.5,70,120.0
2960,D2,289.0,0.5,74,120.0
2961,F#2,289.0,0.5,74,120.0
2962,C#3,289.5,0.375,76,120.0
2963,C2,289.5,0.5,54,120.0
2964,F#2,289.5,0.5,60,120.0
2965,C2,289.5,0.5,57,120.0
2966,F#2,289.5,0.5,57,120.0
2967,G#2,290.0,1.125,88,120.0
2968,C2,290.0,0.5,64,120.0
2969,F#2,290.0,0.5,70,120.0
2970,C2,290.0,0.5,67,120.0
2971,F#2,290.0,0.5,67,120.0
2972,F#2,290.5,0.5,60,120.0
2973,F#2,290.5,0.5,60,120.0
2974,D2,291.0,0.5,84,120.0
2975,F#2,291.0,0.5,70,120.0
2976,D2,291.0,0.5,77,120.0
2977,F#2,291.0,0.5,77,120.0
2978,G#2,291.5,0.375,85,120.0
2979,C2,291.5,0.5,64,120.0
2980,B-2,291.5,0.5,60,120.0
2981,C2,291.5,0.5,62,120.0
2982,B-2,291.5,0.5,62,120.0
2983,C#3,292.0,1.125,94,120.0
2984,C2,292.0,0.5,64,120.0
2985,F#2,292.0,0.5,70,120.0
2986,F4,292.0,417/1000,70,120.0
2987,E-4,292.0,417/1000,70,120.0
2988,C4,292.0,417/1000,70,120.0
2989,G#4,292.0,417/1000,70,120.0
2990,C2,292.0,0.5,67,120.0
2991,F#2,292.0,0.5,67,120.0
2992,F#2,292.5,0.5,60,120.0
2993,F#2,292.5,0.5,60,120.0
2994,F4,292.5,0.5,74,120.0
2995,E-4,292.5,0.5,74,120.0
2996,C4,292.5,0.5,74,120.0
2997,G#4,292.5,0.5,74,120.0
2998,D2,293.0,0.5,79,120.0
2999,F#2,293.0,0.5,70,120.0
3000,D2,293.0,0.5,74,120.0
3001,F#2,293.0,0.5,74,120.0
3002,C#3,293.5,0.375,88,120.0
3003,C2,293.5,0.5,54,120.0
3004,F#2,293.5,0.5,60,120.0
3005,F4,293.5,417/1000,70,120.0
3006,E-4,293.5,417/1000,70,120.0
3007,C4,293.5,417/1000,70,120.0
3008,G#4,293.5,417/1000,70,120.0
3009,C2,293.5,0.5,57,120.0
3010,F#2,293.5,0.5,57,120.0
3011,G#3,294.0,0.75,88,120.0
3012,C2,294.0,0.5,64,120.0
3013,F#2,294.0,0.5,70,120.0
3014,C2,294.0,0.5,67,120.0
3015,F#2,294.0,0.5,67,120.0
3016,D2,294.5,167/1000,50,120.0
3017,F#2,294.5,167/1000,60,120.0
3018,D2,294.5,167/1000,55,120.0
3019,F#2,294.5,167/1000,55,120.0
3020,D2,294.667,167/1000,55,120.0
3021,D2,294.667,167/1000,55,120.0
3022,D2,294.833,167/1000,60,120.0
3023,D2,294.833,167/1000,60,120.0
3024,C#3,295.0,0.75,101,120.0
3025,D2,295.0,0.5,84,120.0
3026,F#2,295.0,0.5,70,120.0
3027,D2,295.0,0.5,77,120.0
3028,F#2,295.0,0.5,77,120.0
3029,C2,295.5,0.5,64,120.0
3030,D2,295.5,0.5,74,120.0
3031,F#2,295.5,0.5,60,120.0
3032,D2,295.5,0.5,66,120.0
3033,C2,295.5,0.5,66,120.0
3034,F#2,295.5,0.5,66,120.0
3035,D3,296.0,1.125,93,120.0
3036,C2,296.0,0.5,64,120.0
3037,F#2,296.0,0.5,70,120.0
3038,F4,296.0,249/125,70,120.0
3039,E4,296.0,249/125,70,120.0
3040,C4,296.0,249/125,70,120.0
3041,A4,296.0,249/125,70,120.0
3042,C2,296.0,0.5,67,120.0
3043,F#2,296.0,0.5,67,120.0
3044,F#2,296.5,0.5,60,120.0
3045,F#2,296.5,0.5,60,120.0
3046,D2,297.0,0.5,79,120.0
3047,C#3,297.0,0.5,70,120.0
3048,D2,297.0,0.5,74,120.0
3049,C#3,297.0,0.5,74,120.0
3050,D3,297.5,0.375,84,120.0
3051,C2,297.5,0.5,54,120.0
3052,F#2,297.5,0.5,60,120.0
3053,C2,297.5,0.5,57,120.0
3054,F#2,297.5,0.5,57,120.0
3055,D3,298.0,0.25,71,120.0
3056,D3,298.0,1.125,100,120.0
3057,C2,298.0,0.5,64,120.0
3058,F#2,298.0,0.5,70,120.0
3059,C2,298.0,0.5,67,120.0
3060,F#2,298.0,0.5,67,120.0
3061,F#2,298.5,0.5,60,120.0
3062,F#2,298.5,0.5,60,120.0
3063,F4,298.5,667/1000,70,120.0
3064,E4,298.5,667/1000,70,120.0
3065,C4,298.5,667/1000,70,120.0
3066,A4,298.5,667/1000,70,120.0
3067,D2,299.0,0.5,84,120.0
3068,F#2,299.0,0.5,70,120.0
3069,D2,299.0,0.5,77,120.0
3070,F#2,299.0,0.5,77,120.0
3071,D3,299.5,0.375,90,120.0
3072,C2,299.5,0.5,64,120.0
3073,F#2,299.5,0.5,60,120.0
3074,C2,299.5,0.5,62,120.0
3075,F#2,299.5,0.5,62,120.0
3076,G3,300.0,1.125,91,120.0
3077,C2,300.0,0.5,64,120.0
3078,F#2,300.0,0.5,70,120.0
3079,F4,300.0,249/125,70,120.0
3080,E-4,300.0,249/125,70,120.0
3081,B3,300.0,249/125,70,120.0
3082,G4,300.0,249/125,70,120.0
3083,C2,300.0,0.5,67,120.0
3084,F#2,300.0,0.5,67,120.0
3085,F#2,300.5,0.5,60,120.0
3086,F#2,300.5,0.5,60,120.0
3087,D2,301.0,0.5,79,120.0
3088,F#2,301.0,0.5,70,120.0
3089,D2,301.0,0.5,74,120.0
3090,F#2,301.0,0.5,74,120.0
3091,G3,301.5,0.375,80,120.0
3092,C2,301.5,0.5,54,120.0
3093,F#2,301.5,0.5,60,120.0
3094,C2,301.5,0.5,57,120.0
3095,F#2,301.5,0.5,57,120.0
3096,G3,302.0,1.125,101,120.0
3097,C2,302.0,0.5,64,120.0
3098,F#2,302.0,0.5,70,120.0
3099,C2,302.0,0.5,67,120.0
3100,F#2,302.0,0.5,67,120.0
3101,G3,302.5,0.25,70,120.0
3102,C2,302.5,0.5,54,120.0
3103,F#2,302.5,0.5,60,120.0
3104,C2,302.5,0.5,57,120.0
3105,F#2,302.5,0.5,57,120.0
3106,D2,303.0,0.5,84,120.0
3107,F#2,303.0,0.5,70,120.0
3108,F4,303.0,667/1000,80,120.0
3109,E-4,303.0,667/1000,80,120.0
3110,B3,303.0,667/1000,80,120.0
3111,G4,303.0,667/1000,80,120.0
3112,D2,303.0,0.5,77,120.0
3113,F#2,303.0,0.5,77,120.0
3114,G3,303.5,0.375,80,120.0
3115,C2,303.5,0.5,64,120.0
3116,B-2,303.5,0.5,60,120.0
3117,C2,303.5,0.5,62,120.0
3118,B-2,303.5,0.5,62,120.0
3119,C3,304.0,1.125,78,120.0
3120,C2,304.0,0.5,64,120.0
3121,F#2,304.0,0.5,70,120.0
3122,E4,304.0,249/125,70,120.0
3123,D4,304.0,249/125,70,120.0
3124,B3,304.0,249/125,70,120.0
3125,G4,304.0,249/125,70,120.0
3126,C2,304.0,0.5,67,120.0
3127,F#2,304.0,0.5,67,120.0
3128,F#2,304.5,0.5,60,120.0
3129,F#2,304.5,0.5,60,120.0
3130,D2,305.0,0.5,79,120.0
3131,F#2,305.0,0.5,70,120.0
3132,D2,305.0,0.5,74,120.0
3133,F#2,305.0,0.5,74,120.0
3134,C3,305.5,0.375,78,120.0
3135,C2,305.5,0.5,54,120.0
3136,F#2,305.5,0.5,60,120.0
3137,C2,305.5,0.5,57,120.0
3138,F#2,305.5,0.5,57,120.0
3139,C3,306.0,1.125,93,120.0
3140,C2,306.0,0.5,64,120.0
3141,F#2,306.0,0.5,70,120.0
3142,C2,306.0,0.5,67,120.0
3143,F#2,306.0,0.5,67,120.0
3144,F#2,306.5,0.5,60,120.0
3145,F#2,306.5,0.5,60,120.0
3146,D2,307.0,0.5,84,120.0
3147,F#2,307.0,0.5,70,120.0
3148,E4,307.0,667/1000,80,120.0
3149,D4,307.0,667/1000,80,120.0
3150,B3,307.0,667/1000,80,120.0
3151,G4,307.0,667/1000,80,120.0
3152,D2,307.0,0.5,77,120.0
3153,F#2,307.0,0.5,77,120.0
3154,C3,307.5,0.375,82,120.0
3155,C2,307.5,0.5,64,120.0
3156,F#2,307.5,0.5,60,120.0
3157,C2,307.5,0.5,62,120.0
3158,F#2,307.5,0.5,62,120.0
3159,C3,308.0,0.25,71,120.0
3160,C3,308.0,1.125,80,120.0
3161,C2,308.0,0.5,64,120.0
3162,F#2,308.0,0.5,70,120.0
3163,C2,308.0,0.5,67,120.0
3164,F#2,308.0,0.5,67,120.0
3165,F#2,308.5,0.5,60,120.0
3166,F#2,308.5,0.5,60,120.0
3167,E4,308.5,667/1000,70,120.0
3168,D4,308.5,667/1000,70,120.0
3169,B3,308.5,667/1000,70,120.0
3170,G4,308.5,667/1000,70,120.0
3171,D2,309.0,0.5,79,120.0
3172,F#2,309.0,0.5,70,120.0
3173,D2,309.0,0.5,74,120.0
3174,F#2,309.0,0.5,74,120.0
3175,C3,309.5,0.25,69,120.0
3176,C3,309.5,0.375,87,120.0
3177,C2,309.5,0.5,54,120.0
3178,F#2,309.5,0.5,60,120.0
3179,C2,309.5,0.5,57,120.0
3180,F#2,309.5,0.5,57,120.0
3181,C3,310.0,0.25,66,120.0
3182,C3,310.0,1.125,93,120.0
3183,C2,310.0,0.5,64,120.0
3184,F#2,310.0,0.5,70,120.0
3185,C2,310.0,0.5,67,120.0
3186,F#2,310.0,0.5,67,120.0
3187,C2,310.5,0.5,54,120.0
3188,F2,310.5,0.5,70,120.0
3189,F#2,310.5,0.5,60,120.0
3190,E4,310.5,667/1000,70,120.0
3191,D4,310.5,667/1000,70,120.0
3192,B3,310.5,667/1000,70,120.0
3193,G4,310.5,667/1000,70,120.0
3194,C2,310.5,0.5,61,120.0
3195,F2,310.5,0.5,61,120.0
3196,F#2,310.5,0.5,61,120.0
3197,D2,311.0,0.5,84,120.0
3198,F#2,311.0,0.5,70,120.0
3199,D2,311.0,0.5,77,120.0
3200,F#2,311.0,0.5,77,120.0
3201,C3,311.5,0.375,75,120.0
3202,C2,311.5,0.5,64,120.0
3203,F#2,311.5,0.5,60,120.0
3204,C2,311.5,0.5,62,120.0
3205,F#2,311.5,0.5,62,120.0
3206,B-2,312.0,1.125,86,120.0
3207,C2,312.0,0.5,64,120.0
3208,F#2,312.0,0.5,70,120.0
3209,F4,312.0,249/125,70,120.0
3210,D4,312.0,249/125,70,120.0
3211,B-3,312.0,249/125,70,120.0
3212,G4,312.0,249/125,70,120.0
3213,C2,312.0,0.5,67,120.0
3214,F#2,312.0,0.5,67,120.0
3215,F#2,312.5,0.5,60,120.0
3216,F#2,312.5,0.5,60,120.0
3217,D2,313.0,0.5,79,120.0
3218,F#2,313.0,0.5,70,120.0
3219,D2,313.0,0.5,74,120.0
3220,F#2,313.0,0.5,74,120.0
3221,B-2,313.5,0.375,86,120.0
3222,C2,313.5,0.5,54,120.0
3223,F#2,313.5,0.5,60,120.0
3224,C2,313.5,0.5,57,120.0
3225,F#2,313.5,0.5,57,120.0
3226,B-2,314.0,1.125,101,120.0
3227,C2,314.0,0.5,64,120.0
3228,F#2,314.0,0.5,70,120.0
3229,C2,314.0,0.5,67,120.0
3230,F#2,314.0,0.5,67,120.0
3231,F#2,314.5,0.5,60,120.0
3232,F#2,314.5,0.5,60,120.0
3233,F4,314.5,667/1000,70,120.0
3234,D4,314.5,667/1000,70,120.0
3235,B-3,314.5,667/1000,70,120.0
3236,G4,314.5,667/1000,70,120.0
3237,D2,315.0,0.5,84,120.0
3238,F#2,315.0,0.5,70,120.0
3239,D2,315.0,0.5,77,120.0
3240,F#2,315.0,0.5,77,120.0
3241,B3,315.5,0.25,70,120.0
3242,B-2,315.5,0.375,94,120.0
3243,C2,315.5,0.5,64,120.0
3244,F#2,315.5,0.5,60,120.0
3245,C2,315.5,0.5,62,120.0
3246,F#2,315.5,0.5,62,120.0
3247,B2,316.0,1.125,78,120.0
3248,C2,316.0,0.5,64,120.0
3249,F#2,316.0,0.5,70,120.0
3250,F4,316.0,249/125,70,120.0
3251,D4,316.0,249/125,70,120.0
3252,B3,316.0,249/125,70,120.0
3253,G4,316.0,249/125,70,120.0
3254,C2,316.0,0.5,67,120.0
3255,F#2,316.0,0.5,67,120.0
3256,F#2,316.5,0.5,60,120.0
3257,F#2,316.5,0.5,60,120.0
3258,D2,317.0,0.5,79,120.0
3259,F#2,317.0,0.5,70,120.0
3260,D2,317.0,0.5,74,120.0
3261,F#2,317.0,0.5,74,120.0
3262,B2,317.5,0.375,82,120.0
3263,C2,317.5,0.5,54,120.0
3264,F#2,317.5,0.5,60,120.0
3265,C2,317.5,0.5,57,120.0
3266,F#2,317.5,0.5,57,120.0
3267,B2,318.0,0.25,75,120.0
3268,B2,318.0,1.125,88,120.0
3269,C2,318.0,0.5,64,120.0
3270,F#2,318.0,0.5,70,120.0
3271,C2,318.0,0.5,67,120.0
3272,F#2,318.0,0.5,67,120.0
3273,C2,318.5,0.5,54,120.0
3274,F#2,318.5,0.5,60,120.0
3275,F4,318.5,667/1000,70,120.0
3276,D4,318.5,667/1000,70,120.0
3277,B3,318.5,667/1000,70,120.0
3278,G4,318.5,667/1000,70,120.0
3279,C2,318.5,0.5,57,120.0
3280,F#2,318.5,0.5,57,120.0
3281,D2,319.0,0.5,84,120.0
3282,F#2,319.0,0.5,70,120.0
3283,D2,319.0,0.5,77,120.0
3284,F#2,319.0,0.5,77,120.0
3285,C4,319.5,0.25,70,120.0
3286,B2,319.5,0.375,79,120.0
3287,C2,319.5,0.5,64,120.0
3288,F#2,319.5,0.5,60,120.0
3289,C2,319.5,0.5,62,120.0
3290,F#2,319.5,0.5,62,120.0
3291,C3,320.0,0.25,75,120.0
3292,C3,320.0,1.125,83,120.0
3293,C2,320.0,0.5,64,120.0
3294,F#2,320.0,0.5,70,120.0
3295,C2,320.0,0.5,67,120.0
3296,F#2,320.0,0.5,67,120.0
3297,F#2,320.5,0.5,60,120.0
3298,F#2,320.5,0.5,60,120.0
3299,F4,320.5,667/1000,70,120.0
3300,D4,320.5,667/1000,70,120.0
3301,B-3,320.5,667/1000,70,120.0
3302,G4,320.5,667/1000,70,120.0
3303,D2,321.0,0.5,79,120.0
3304,F#2,321.0,0.5,70,120.0
3305,D2,321.0,0.5,74,120.0
3306,F#2,321.0,0.5,74,120.0
3307,C3,321.5,0.375,81,120.0
3308,C2,321.5,0.5,54,120.0
3309,F#2,321.5,0.5,60,120.0
3310,C2,321.5,0.5,57,120.0
3311,F#2,321.5,0.5,57,120.0
3312,C3,322.0,1.125,101,120.0
3313,C2,322.0,0.5,64,120.0
3314,F#2,322.0,0.5,70,120.0
3315,F4,322.0,1.75,70,120.0
3316,D4,322.0,1.75,70,120.0
3317,B-3,322.0,1.75,70,120.0
3318,G4,322.0,1.75,70,120.0
3319,C2,322.0,0.5,67,120.0
3320,F#2,322.0,0.5,67,120.0
3321,F#2,322.5,0.5,60,120.0
3322,F#2,322.5,0.5,60,120.0
3323,D2,323.0,0.5,84,120.0
3324,F#2,323.0,0.5,70,120.0
3325,D2,323.0,0.5,77,120.0
3326,F#2,323.0,0.5,77,120.0
3327,C3,323.5,0.375,89,120.0
3328,C2,323.5,0.5,64,120.0
3329,F#2,323.5,0.5,60,120.0
3330,C2,323.5,0.5,62,120.0
3331,F#2,323.5,0.5,62,120.0
3332,C3,324.0,1.125,77,120.0
3333,C2,324.0,0.5,64,120.0
3334,F#2,324.0,0.5,70,120.0
3335,E4,324.0,249/125,70,120.0
3336,C4,324.0,249/125,70,120.0
3337,B-3,324.0,249/125,70,120.0
3338,G#4,324.0,249/125,70,120.0
3339,C2,324.0,0.5,67,120.0
3340,F#2,324.0,0.5,67,120.0
3341,F#2,324.5,0.5,60,120.0
3342,F#2,324.5,0.5,60,120.0
3343,D2,325.0,0.5,79,120.0
3344,F#2,325.0,0.5,70,120.0
3345,D2,325.0,0.5,74,120.0
3346,F#2,325.0,0.5,74,120.0
3347,C3,325.5,0.375,89,120.0
3348,C2,325.5,0.5,54,120.0
3349,F#2,325.5,0.5,60,120.0
3350,C2,325.5,0.5,57,120.0
3351,F#2,325.5,0.5,57,120.0
3352,C3,326.0,1.125,99,120.0
3353,C2,326.0,0.25,64,120.0
3354,D2,326.0,0.25,60,120.0
3355,F#2,326.0,0.25,70,120.0
3356,D2,326.0,0.25,65,120.0
3357,C2,326.0,0.25,65,120.0
3358,F#2,326.0,0.25,65,120.0
3359,D2,326.25,0.25,65,120.0
3360,D2,326.25,0.25,65,120.0
3361,C3,326.5,0.25,65,120.0
3362,D2,326.5,0.25,65,120.0
3363,F#2,326.5,0.25,60,120.0
3364,D2,326.5,0.25,62,120.0
3365,F#2,326.5,0.25,62,120.0
3366,D2,326.75,0.25,70,120.0
3367,D2,326.75,0.25,70,120.0
3368,F#2,327.0,0.25,70,120.0
3369,A2,327.0,0.25,80,120.0
3370,E4,327.0,667/1000,80,120.0
3371,C4,327.0,667/1000,80,120.0
3372,B-3,327.0,667/1000,80,120.0
3373,G#4,327.0,667/1000,80,120.0
3374,A2,327.0,0.25,75,120.0
3375,F#2,327.0,0.25,75,120.0
3376,A2,327.25,0.25,70,120.0
3377,A2,327.25,0.25,70,120.0
3378,C3,327.5,0.375,81,120.0
3379,C2,327.5,0.25,64,120.0
3380,F#2,327.5,0.25,60,120.0
3381,A2,327.5,0.25,70,120.0
3382,A2,327.5,0.25,65,120.0
3383,C2,327.5,0.25,65,120.0
3384,F#2,327.5,0.25,65,120.0
3385,A2,327.75,0.25,70,120.0
3386,A2,327.75,0.25,70,120.0
3387,F3,328.0,0.25,75,120.0
3388,F3,328.0,1.125,92,120.0
3389,C2,328.0,0.5,64,120.0
3390,F#2,328.0,0.5,70,120.0
3391,C2,328.0,0.5,67,120.0
3392,F#2,328.0,0.5,67,120.0
3393,F#2,328.5,0.5,60,120.0
3394,F#2,328.5,0.5,60,120.0
3395,F4,328.5,667/1000,70,120.0
3396,E-4,328.5,667/1000,70,120.0
3397,C4,328.5,667/1000,70,120.0
3398,G#4,328.5,667/1000,70,120.0
3399,D2,329.0,0.5,79,120.0
3400,C#3,329.0,0.5,70,120.0
3401,D2,329.0,0.5,74,120.0
3402,C#3,329.0,0.5,74,120.0
3403,F3,329.5,0.375,94,120.0
3404,C2,329.5,0.5,54,120.0
3405,F#2,329.5,0.5,60,120.0
3406,C2,329.5,0.5,57,120.0
3407,F#2,329.5,0.5,57,120.0
3408,F3,330.0,1.125,101,120.0
3409,C2,330.0,0.5,64,120.0
3410,F#2,330.0,0.5,70,120.0
3411,F4,330.0,1.75,70,120.0
3412,E-4,330.0,1.75,70,120.0
3413,C4,330.0,1.75,70,120.0
3414,G#4,330.0,1.75,70,120.0
3415,C2,330.0,0.5,67,120.0
3416,F#2,330.0,0.5,67,120.0
3417,F#2,330.5,0.5,60,120.0
3418,F#2,330.5,0.5,60,120.0
3419,D2,331.0,0.5,84,120.0
3420,F#2,331.0,0.5,70,120.0
3421,D2,331.0,0.5,77,120.0
3422,F#2,331.0,0.5,77,120.0
3423,F3,331.5,0.375,78,120.0
3424,C2,331.5,0.5,64,120.0
3425,F#2,331.5,0.5,60,120.0
3426,C2,331.5,0.5,62,120.0
3427,F#2,331.5,0.5,62,120.0
3428,F3,332.0,1.125,76,120.0
3429,C2,332.0,0.5,64,120.0
3430,F#2,332.0,0.5,70,120.0
3431,F4,332.0,0.75,70,120.0
3432,E4,332.0,0.75,70,120.0
3433,C4,332.0,0.75,70,120.0
3434,G#4,332.0,0.75,70,120.0
3435,C2,332.0,0.5,67,120.0
3436,F#2,332.0,0.5,67,120.0
3437,F#2,332.5,0.5,60,120.0
3438,F#2,332.5,0.5,60,120.0
3439,D2,333.0,0.5,79,120.0
3440,F#2,333.0,0.5,70,120.0
3441,D2,333.0,0.5,74,120.0
3442,F#2,333.0,0.5,74,120.0
3443,F3,333.5,0.375,91,120.0
3444,C2,333.5,0.5,54,120.0
3445,F#2,333.5,0.5,60,120.0
3446,C2,333.5,0.5,57,120.0
3447,F#2,333.5,0.5,57,120.0
3448,F3,334.0,1.125,86,120.0
3449,C2,334.0,0.5,64,120.0
3450,F#2,334.0,0.5,70,120.0
3451,C2,334.0,0.5,67,120.0
3452,F#2,334.0,0.5,67,120.0
3453,C2,334.5,0.5,54,120.0
3454,F#2,334.5,0.5,60,120.0
3455,C2,334.5,0.5,57,120.0
3456,F#2,334.5,0.5,57,120.0
3457,D2,335.0,0.5,84,120.0
3458,F#2,335.0,0.5,70,120.0
3459,D2,335.0,0.5,77,120.0
3460,F#2,335.0,0.5,77,120.0
3461,F3,335.5,0.375,75,120.0
3462,C2,335.5,0.5,64,120.0
3463,F#2,335.5,0.5,60,120.0
3464,C2,335.5,0.5,62,120.0
3465,F#2,335.5,0.5,62,120.0
3466,F3,336.0,1.125,86,120.0
3467,C2,336.0,0.5,64,120.0
3468,F#2,336.0,0.5,70,120.0
3469,F4,336.0,249/125,70,120.0
3470,E-4,336.0,249/125,70,120.0
3471,C4,336.0,249/125,70,120.0
3472,G#4,336.0,249/125,70,120.0
3473,C2,336.0,0.5,67,120.0
3474,F#2,336.0,0.5,67,120.0
3475,F#2,336.5,0.5,60,120.0
3476,F#2,336.5,0.5,60,120.0
3477,D2,337.0,0.5,79,120.0
3478,F#2,337.0,0.5,70,120.0
3479,D2,337.0,0.5,74,120.0
3480,F#2,337.0,0.5,74,120.0
3481,F3,337.5,0.375,88,120.0
3482,C2,337.5,0.5,54,120.0
3483,F#2,337.5,0.5,60,120.0
3484,C2,337.5,0.5,57,120.0
3485,F#2,337.5,0.5,57,120.0
3486,F3,338.0,1.125,85,120.0
3487,C2,338.0,0.5,64,120.0
3488,F#2,338.0,0.5,70,120.0
3489,C2,338.0,0.5,67,120.0
3490,F#2,338.0,0.5,67,120.0
3491,F#2,338.5,0.5,60,120.0
3492,F#2,338.5,0.5,60,120.0
3493,F4,338.5,667/1000,70,120.0
3494,E-4,338.5,667/1000,70,120.0
3495,C4,338.5,667/1000,70,120.0
3496,G#4,338.5,667/1000,70,120.0
3497,D2,339.0,0.5,84,120.0
3498,F#2,339.0,0.5,70,120.0
3499,D2,339.0,0.5,77,120.0
3500,F#2,339.0,0.5,77,120.0
3501,B-2,339.5,0.25,70,120.0
3502,F3,339.5,0.375,81,120.0
3503,C2,339.5,0.5,64,120.0
3504,F#2,339.5,0.5,60,120.0
3505,C2,339.5,0.5,62,120.0
3506,F#2,339.5,0.5,62,120.0
3507,B-2,340.0,1.125,89,120.0
3508,C2,340.0,0.5,64,120.0
3509,F#2,340.0,0.5,70,120.0
3510,G#4,340.0,249/125,70,120.0
3511,F4,340.0,249/125,70,120.0
3512,D4,340.0,249/125,70,120.0
3513,C5,340.0,249/125,70,120.0
3514,C2,340.0,0.5,67,120.0
3515,F#2,340.0,0.5,67,120.0
3516,F2,340.5,0.5,60,120.0
3517,F#2,340.5,0.5,60,120.0
3518,F2,340.5,0.5,60,120.0
3519,F#2,340.5,0.5,60,120.0
3520,D2,341.0,0.5,79,120.0
3521,F#2,341.0,0.5,70,120.0
3522,D2,341.0,0.5,74,120.0
3523,F#2,341.0,0.5,74,120.0
3524,B-2,341.5,0.375,83,120.0
3525,C2,341.5,0.5,54,120.0
3526,F#2,341.5,0.5,60,120.0
3527,C2,341.5,0.5,57,120.0
3528,F#2,341.5,0.5,57,120.0
3529,B-2,342.0,1.125,96,120.0
3530,C2,342.0,0.5,64,120.0
3531,F#2,342.0,0.5,70,120.0
3532,C2,342.0,0.5,67,120.0
3533,F#2,342.0,0.5,67,120.0
3534,B-2,342.5,0.25,70,120.0
3535,C2,342.5,0.5,54,120.0
3536,F2,342.5,0.5,70,120.0
3537,F#2,342.5,0.5,60,120.0
3538,C2,342.5,0.5,61,120.0
3539,F2,342.5,0.5,61,120.0
3540,F#2,342.5,0.5,61,120.0
3541,D2,343.0,0.5,84,120.0
3542,F#2,343.0,0.5,70,120.0
3543,G#4,343.0,667/1000,80,120.0
3544,F4,343.0,667/1000,80,120.0
3545,D4,343.0,667/1000,80,120.0
3546,C5,343.0,667/1000,80,120.0
3547,D2,343.0,0.5,77,120.0
3548,F#2,343.0,0.5,77,120.0
3549,B-2,343.5,0.375,92,120.0
3550,C2,343.5,0.5,64,120.0
3551,F#2,343.5,0.5,60,120.0
3552,C2,343.5,0.5,62,120.0
3553,F#2,343.5,0.5,62,120.0
3554,F3,344.0,1.125,76,120.0
3555,C2,344.0,0.5,64,120.0
3556,F#2,344.0,0.5,70,120.0
3557,F4,344.0,249/125,70,120.0
3558,E-4,344.0,249/125,70,120.0
3559,C4,344.0,249/125,70,120.0
3560,G#4,344.0,249/125,70,120.0
3561,C2,344.0,0.5,67,120.0
3562,F#2,344.0,0.5,67,120.0
3563,F#2,344.5,0.5,60,120.0
3564,F#2,344.5,0.5,60,120.0
3565,D2,345.0,0.5,79,120.0
3566,F#2,345.0,0.5,70,120.0
3567,D2,345.0,0.5,74,120.0
3568,F#2,345.0,0.5,74,120.0
3569,F3,345.5,0.375,92,120.0
3570,C2,345.5,0.5,54,120.0
3571,F#2,345.5,0.5,60,120.0
3572,C2,345.5,0.5,57,120.0
3573,F#2,345.5,0.5,57,120.0
3574,F3,346.0,1.125,104,120.0
3575,C2,346.0,0.5,64,120.0
3576,F#2,346.0,0.5,70,120.0
3577,C2,346.0,0.5,67,120.0
3578,F#2,346.0,0.5,67,120.0
3579,F#2,346.5,0.5,60,120.0
3580,F#2,346.5,0.5,60,120.0
3581,D2,347.0,0.5,84,120.0
3582,F#2,347.0,0.5,70,120.0
3583,F4,347.0,667/1000,80,120.0
3584,E-4,347.0,667/1000,80,120.0
3585,C4,347.0,667/1000,80,120.0
3586,G#4,347.0,667/1000,80,120.0
3587,D2,347.0,0.5,77,120.0
3588,F#2,347.0,0.5,77,120.0
3589,F3,347.5,0.375,83,120.0
3590,C2,347.5,0.5,64,120.0
3591,F#2,347.5,0.5,60,120.0
3592,C2,347.5,0.5,62,120.0
3593,F#2,347.5,0.5,62,120.0
3594,C#3,348.0,1.125,80,120.0
3595,C2,348.0,0.5,64,120.0
3596,F#2,348.0,0.5,70,120.0
3597,F4,348.0,249/125,70,120.0
3598,E-4,348.0,249/125,70,120.0
3599,B3,348.0,249/125,70,120.0
3600,G#4,348.0,249/125,70,120.0
3601,C2,348.0,0.5,67,120.0
3602,F#2,348.0,0.5,67,120.0
3603,F#2,348.5,0.5,60,120.0
3604,F#2,348.5,0.5,60,120.0
3605,D2,349.0,0.5,79,120.0
3606,F#2,349.0,0.5,70,120.0
3607,D2,349.0,0.5,74,120.0
3608,F#2,349.0,0.5,74,120.0
3609,C#3,349.5,0.375,81,120.0
3610,C2,349.5,0.5,54,120.0
3611,F#2,349.5,0.5,60,120.0
3612,C2,349.5,0.5,57,120.0
3613,F#2,349.5,0.5,57,120.0
3614,C#3,350.0,1.125,91,120.0
3615,C2,350.0,0.5,64,120.0
3616,F#2,350.0,0.5,70,120.0
3617,C2,350.0,0.5,67,120.0
3618,F#2,350.0,0.5,67,120.0
3619,C2,350.5,0.5,54,120.0
3620,F#2,350.5,0.5,60,120.0
3621,C2,350.5,0.5,57,120.0
3622,F#2,350.5,0.5,57,120.0
3623,D2,351.0,0.5,84,120.0
3624,F#2,351.0,0.5,70,120.0
3625,F4,351.0,667/1000,80,120.0
3626,E-4,351.0,667/1000,80,120.0
3627,B3,351.0,667/1000,80,120.0
3628,G#4,351.0,667/1000,80,120.0
3629,D2,351.0,0.5,77,120.0
3630,F#2,351.0,0.5,77,120.0
3631,C#3,351.5,0.375,79,120.0
3632,C2,351.5,0.5,64,120.0
3633,F#2,351.5,0.5,60,120.0
3634,C2,351.5,0.5,62,120.0
3635,F#2,351.5,0.5,62,120.0
3636,G3,352.0,1.125,93,120.0
3637,C2,352.0,0.5,64,120.0
3638,F#2,352.0,0.5,70,120.0
3639,F4,352.0,249/125,70,120.0
3640,D4,352.0,249/125,70,120.0
3641,B-3,352.0,249/125,70,120.0
3642,G4,352.0,249/125,70,120.0
3643,C2,352.0,0.5,67,120.0
3644,F#2,352.0,0.5,67,120.0
3645,F#2,352.5,0.5,60,120.0
3646,F#2,352.5,0.5,60,120.0
3647,D2,353.0,0.5,79,120.0
3648,F#2,353.0,0.5,70,120.0
3649,D2,353.0,0.5,74,120.0
3650,F#2,353.0,0.5,74,120.0
3651,G3,353.5,0.375,89,120.0
3652,C2,353.5,0.5,54,120.0
3653,F#2,353.5,0.5,60,120.0
3654,C2,353.5,0.5,57,120.0
3655,F#2,353.5,0.5,57,120.0
3656,G3,354.0,1.125,88,120.0
3657,C2,354.0,0.5,64,120.0
3658,F#2,354.0,0.5,70,120.0
3659,C2,354.0,0.5,67,120.0
3660,F#2,354.0,0.5,67,120.0
3661,F#2,354.5,0.5,60,120.0
3662,F#2,354.5,0.5,60,120.0
3663,D2,355.0,0.5,84,120.0
3664,F#2,355.0,0.5,70,120.0
3665,F4,355.0,667/1000,80,120.0
3666,D4,355.0,667/1000,80,120.0
3667,B-3,355.0,667/1000,80,120.0
3668,G4,355.0,667/1000,80,120.0
3669,D2,355.0,0.5,77,120.0
3670,F#2,355.0,0.5,77,120.0
3671,G3,355.5,0.375,91,120.0
3672,C2,355.5,0.5,64,120.0
3673,F#2,355.5,0.5,60,120.0
3674,C2,355.5,0.5,62,120.0
3675,F#2,355.5,0.5,62,120.0
3676,C3,356.0,1.125,78,120.0
3677,C2,356.0,0.5,64,120.0
3678,F#2,356.0,0.5,70,120.0
3679,E4,356.0,249/125,70,120.0
3680,C4,356.0,249/125,70,120.0
3681,B-3,356.0,249/125,70,120.0
3682,G#4,356.0,249/125,70,120.0
3683,C2,356.0,0.5,67,120.0
3684,F#2,356.0,0.5,67,120.0
3685,F#2,356.5,0.5,60,120.0
3686,F#2,356.5,0.5,60,120.0
3687,D2,357.0,0.5,79,120.0
3688,F#2,357.0,0.5,70,120.0
3689,D2,357.0,0.5,74,120.0
3690,F#2,357.0,0.5,74,120.0
3691,C3,357.5,0.375,93,120.0
3692,C2,357.5,0.5,54,120.0
3693,F#2,357.5,0.5,60,120.0
3694,C2,357.5,0.5,57,120.0
3695,F#2,357.5,0.5,57,120.0
3696,C3,358.0,1.125,98,120.0
3697,C2,358.0,0.5,64,120.0
3698,F#2,358.0,0.5,70,120.0
3699,C2,358.0,0.5,67,120.0
3700,F#2,358.0,0.5,67,120.0
3701,D2,358.5,167/1000,50,120.0
3702,F#2,358.5,167/1000,60,120.0
3703,E4,358.5,667/1000,70,120.0
3704,C4,358.5,667/1000,70,120.0
3705,B-3,358.5,667/1000,70,120.0
3706,G#4,358.5,667/1000,70,120.0
3707,D2,358.5,167/1000,55,120.0
3708,F#2,358.5,167/1000,55,120.0
3709,D2,358.667,167/1000,55,120.0
3710,D2,358.667,167/1000,55,120.0
3711,D2,358.833,167/1000,60,120.0
3712,D2,358.833,167/1000,60,120.0
3713,D2,359.0,0.5,84,120.0
3714,F#2,359.0,0.5,70,120.0
3715,D2,359.0,0.5,77,120.0
3716,F#2,359.0,0.5,77,120.0
3717,F3,359.5,0.25,70,120.0
3718,C3,359.5,0.375,76,120.0
3719,C2,359.5,0.5,64,120.0
3720,D2,359.5,0.5,74,120.0
3721,F#2,359.5,0.5,60,120.0
3722,D2,359.5,0.5,66,120.0
3723,C2,359.5,0.5,66,120.0
3724,F#2,359.5,0.5,66,120.0
3725,F3,360.0,1.125,92,120.0
3726,C2,360.0,0.5,64,120.0
3727,C#3,360.0,0.5,70,120.0
3728,F4,360.0,249/125,70,120.0
3729,E-4,360.0,249/125,70,120.0
3730,C4,360.0,249/125,70,120.0
3731,G#4,360.0,249/125,70,120.0
3732,C2,360.0,0.5,67,120.0
3733,C#3,360.0,0.5,67,120.0
3734,F#2,360.5,0.5,60,120.0
3735,F#2,360.5,0.5,60,120.0
3736,D2,361.0,0.5,79,120.0
3737,F#2,361.0,0.5,70,120.0
3738,D2,361.0,0.5,74,120.0
3739,F#2,361.0,0.5,74,120.0
3740,F3,361.5,0.375,92,120.0
3741,C2,361.5,0.5,54,120.0
3742,F#2,361.5,0.5,60,120.0
3743,C2,361.5,0.5,57,120.0
3744,F#2,361.5,0.5,57,120.0
3745,F3,362.0,1.125,85,120.0
3746,C2,362.0,0.5,64,120.0
3747,F#2,362.0,0.5,70,120.0
3748,C2,362.0,0.5,67,120.0
3749,F#2,362.0,0.5,67,120.0
3750,F#2,362.5,0.5,60,120.0
3751,F#2,362.5,0.5,60,120.0
3752,F4,362.5,667/1000,70,120.0
3753,E-4,362.5,667/1000,70,120.0
3754,C4,362.5,667/1000,70,120.0
3755,G#4,362.5,667/1000,70,120.0
3756,D2,363.0,0.5,84,120.0
3757,F#2,363.0,0.5,70,120.0
3758,D2,363.0,0.5,77,120.0
3759,F#2,363.0,0.5,77,120.0
3760,F3,363.5,0.25,70,120.0
3761,F3,363.5,0.375,86,120.0
3762,C2,363.5,0.5,64,120.0
3763,F#2,363.5,0.5,60,120.0
3764,C2,363.5,0.5,62,120.0
3765,F#2,363.5,0.5,62,120.0
3766,F3,364.0,1.125,92,120.0
3767,C2,364.0,0.5,64,120.0
3768,F#2,364.0,0.5,70,120.0
3769,F4,364.0,0.75,70,120.0
3770,E4,364.0,0.75,70,120.0
3771,C4,364.0,0.75,70,120.0
3772,G#4,364.0,0.75,70,120.0
3773,C2,364.0,0.5,67,120.0
3774,F#2,364.0,0.5,67,120.0
3775,F#2,364.5,0.5,60,120.0
3776,F#2,364.5,0.5,60,120.0
3777,D2,365.0,0.5,79,120.0
3778,F#2,365.0,0.5,70,120.0
3779,D2,365.0,0.5,74,120.0
3780,F#2,365.0,0.5,74,120.0
3781,F3,365.5,0.375,90,120.0
3782,C2,365.5,0.5,54,120.0
3783,F#2,365.5,0.5,60,120.0
3784,C2,365.5,0.5,57,120.0
3785,F#2,365.5,0.5,57,120.0
3786,F3,366.0,1.125,100,120.0
3787,C2,366.0,0.5,64,120.0
3788,F#2,366.0,0.5,70,120.0
3789,C2,366.0,0.5,67,120.0
3790,F#2,366.0,0.5,67,120.0
3791,C2,366.5,0.5,54,120.0
3792,F#2,366.5,0.5,60,120.0
3793,C2,366.5,0.5,57,120.0
3794,F#2,366.5,0.5,57,120.0
3795,D2,367.0,0.5,84,120.0
3796,F#2,367.0,0.5,70,120.0
3797,D2,367.0,0.5,77,120.0
3798,F#2,367.0,0.5,77,120.0
3799,F3,367.5,0.375,93,120.0
3800,C2,367.5,0.5,64,120.0
3801,F#2,367.5,0.5,60,120.0
3802,C2,367.5,0.5,62,120.0
3803,F#2,367.5,0.5,62,120.0
3804,F3,368.0,1.125,84,120.0
3805,C2,368.0,0.5,64,120.0
3806,F#2,368.0,0.5,70,120.0
3807,F4,368.0,249/125,70,120.0
3808,E-4,368.0,249/125,70,120.0
3809,C4,368.0,249/125,70,120.0
3810,G#4,368.0,249/125,70,120.0
3811,C2,368.0,0.5,67,120.0
3812,F#2,368.0,0.5,67,120.0
3813,F#2,368.5,0.5,60,120.0
3814,F#2,368.5,0.5,60,120.0
3815,D2,369.0,0.5,79,120.0
3816,F#2,369.0,0.5,70,120.0
3817,D2,369.0,0.5,74,120.0
3818,F#2,369.0,0.5,74,120.0
3819,F3,369.5,0.375,86,120.0
3820,C2,369.5,0.5,54,120.0
3821,F#2,369.5,0.5,60,120.0
3822,C2,369.5,0.5,57,120.0
3823,F#2,369.5,0.5,57,120.0
3824,F3,370.0,0.25,65,120.0
3825,F3,370.0,1.125,94,120.0
3826,C2,370.0,0.5,64,120.0
3827,F#2,370.0,0.5,70,120.0
3828,C2,370.0,0.5,67,120.0
3829,F#2,370.0,0.5,67,120.0
3830,F#2,370.5,0.5,60,120.0
3831,F#2,370.5,0.5,60,120.0
3832,F4,370.5,667/1000,70,120.0
3833,E-4,370.5,667/1000,70,120.0
3834,C4,370.5,667/1000,70,120.0
3835,G#4,370.5,667/1000,70,120.0
3836,D2,371.0,0.5,84,120.0
3837,F#2,371.0,0.5,70,120.0
3838,D2,371.0,0.5,77,120.0
3839,F#2,371.0,0.5,77,120.0
3840,F3,371.5,0.375,94,120.0
3841,C2,371.5,0.5,64,120.0
3842,F#2,371.5,0.5,60,120.0
3843,C2,371.5,0.5,62,120.0
3844,F#2,371.5,0.5,62,120.0
3845,B-2,372.0,1.125,76,120.0
3846,C2,372.0,0.5,64,120.0
3847,F#2,372.0,0.5,70,120.0
3848,G#4,372.0,249/125,70,120.0
3849,F4,372.0,249/125,70,120.0
3850,D4,372.0,249/125,70,120.0
3851,C5,372.0,249/125,70,120.0
3852,C2,372.0,0.5,67,120.0
3853,F#2,372.0,0.5,67,120.0
3854,F#2,372.5,0.5,60,120.0
3855,F#2,372.5,0.5,60,120.0
3856,D2,373.0,0.5,79,120.0
3857,F#2,373.0,0.5,70,120.0
3858,D2,373.0,0.5,74,120.0
3859,F#2,373.0,0.5,74,120.0
3860,B-2,373.5,0.375,81,120.0
3861,C2,373.5,0.5,54,120.0
3862,F#2,373.5,0.5,60,120.0
3863,C2,373.5,0.5,57,120.0
3864,F#2,373.5,0.5,57,120.0
3865,B-2,374.0,1.125,92,120.0
3866,C2,374.0,0.5,64,120.0
3867,F#2,374.0,0.5,70,120.0
3868,C2,374.0,0.5,67,120.0
3869,F#2,374.0,0.5,67,120.0
3870,C2,374.5,0.5,54,120.0
3871,F2,374.5,0.5,70,120.0
3872,F#2,374.5,0.5,60,120.0
3873,C2,374.5,0.5,61,120.0
3874,F2,374.5,0.5,61,120.0
3875,F#2,374.5,0.5,61,120.0
3876,D2,375.0,0.5,84,120.0
3877,F#2,375.0,0.5,70,120.0
3878,G#4,375.0,667/1000,80,120.0
3879,F4,375.0,667/1000,80,120.0
3880,D4,375.0,667/1000,80,120.0
3881,C5,375.0,667/1000,80,120.0
3882,D2,375.0,0.5,77,120.0
3883,F#2,375.0,0.5,77,120.0
3884,B-2,375.5,0.375,75,120.0
3885,C2,375.5,0.5,64,120.0
3886,F#2,375.5,0.5,60,120.0
3887,C2,375.5,0.5,62,120.0
3888,F#2,375.5,0.5,62,120.0
3889,C#3,376.0,1.125,76,120.0
3890,C2,376.0,0.5,64,120.0
3891,F#2,376.0,0.5,70,120.0
3892,C2,376.0,0.5,67,120.0
3893,F#2,376.0,0.5,67,120.0
3894,F#2,376.5,0.5,60,120.0
3895,F#2,376.5,0.5,60,120.0
3896,F4,376.5,667/1000,70,120.0
3897,E-4,376.5,667/1000,70,120.0
3898,B3,376.5,667/1000,70,120.0
3899,G#4,376.5,667/1000,70,120.0
3900,D2,377.0,0.5,79,120.0
3901,F#2,377.0,0.5,70,120.0
3902,D2,377.0,0.5,74,120.0
3903,F#2,377.0,0.5,74,120.0
3904,C#3,377.5,0.25,65,120.0
3905,C#3,377.5,0.375,80,120.0
3906,C2,377.5,0.5,54,120.0
3907,F#2,377.5,0.5,60,120.0
3908,C2,377.5,0.5,57,120.0
3909,F#2,377.5,0.5,57,120.0
3910,C#3,378.0,1.125,104,120.0
3911,C2,378.0,0.5,64,120.0
3912,F#2,378.0,0.5,70,120.0
3913,F4,378.0,1.75,70,120.0
3914,E-4,378.0,1.75,70,120.0
3915,B3,378.0,1.75,70,120.0
3916,G#4,378.0,1.75,70,120.0
3917,C2,378.0,0.5,67,120.0
3918,F#2,378.0,0.5,67,120.0
3919,F#2,378.5,0.5,60,120.0
3920,F#2,378.5,0.5,60,120.0
3921,D2,379.0,0.5,84,120.0
3922,F#2,379.0,0.5,70,120.0
3923,D2,379.0,0.5,77,120.0
3924,F#2,379.0,0.5,77,120.0
3925,C#3,379.5,0.375,94,120.0
3926,C2,379.5,0.5,64,120.0
3927,F#2,379.5,0.5,60,120.0
3928,C2,379.5,0.5,62,120.0
3929,F#2,379.5,0.5,62,120.0
3930,C3,380.0,0.25,72,120.0
3931,C3,380.0,1.125,88,120.0
3932,C2,380.0,0.5,64,120.0
3933,F#2,380.0,0.5,70,120.0
3934,C2,380.0,0.5,67,120.0
3935,F#2,380.0,0.5,67,120.0
3936,F#2,380.5,0.5,60,120.0
3937,F#2,380.5,0.5,60,120.0
3938,E4,380.5,667/1000,70,120.0
3939,C4,380.5,667/1000,70,120.0
3940,B-3,380.5,667/1000,70,120.0
3941,G#4,380.5,667/1000,70,120.0
3942,D2,381.0,0.5,79,120.0
3943,F#2,381.0,0.5,70,120.0
3944,D2,381.0,0.5,74,120.0
3945,F#2,381.0,0.5,74,120.0
3946,C3,381.5,0.375,81,120.0
3947,C2,381.5,0.5,54,120.0
3948,F#2,381.5,0.5,60,120.0
3949,C2,381.5,0.5,57,120.0
3950,F#2,381.5,0.5,57,120.0
3951,C3,382.0,1.125,104,120.0
3952,C2,382.0,0.5,64,120.0
3953,F#2,382.0,0.5,70,120.0
3954,E4,382.0,1.75,70,120.0
3955,C4,382.0,1.75,70,120.0
3956,B-3,382.0,1.75,70,120.0
3957,G#4,382.0,1.75,70,120.0
3958,C2,382.0,0.5,67,120.0
3959,F#2,382.0,0.5,67,120.0
3960,C2,382.5,0.5,54,120.0
3961,F#2,382.5,0.5,60,120.0
3962,C2,382.5,0.5,57,120.0
3963,F#2,382.5,0.5,57,120.0
3964,D2,383.0,0.5,84,120.0
3965,F#2,383.0,0.5,70,120.0
3966,D2,383.0,0.5,77,120.0
3967,F#2,383.0,0.5,77,120.0
3968,C3,383.5,0.375,79,120.0
3969,C2,383.5,0.5,64,120.0
3970,F#2,383.5,0.5,60,120.0
3971,C2,383.5,0.5,62,120.0
3972,F#2,383.5,0.5,62,120.0
3973,F3,384.0,0.25,71,120.0
3974,F3,384.0,1.125,80,120.0
3975,C2,384.0,0.5,64,120.0
3976,F#2,384.0,0.5,70,120.0
3977,C2,384.0,0.5,67,120.0
3978,F#2,384.0,0.5,67,120.0
3979,F#2,384.5,0.5,60,120.0
3980,F#2,384.5,0.5,60,120.0
3981,F4,384.5,667/1000,70,120.0
3982,E-4,384.5,667/1000,70,120.0
3983,C4,384.5,667/1000,70,120.0
3984,G#4,384.5,667/1000,70,120.0
3985,D2,385.0,0.5,79,120.0
3986,F#2,385.0,0.5,70,120.0
3987,D2,385.0,0.5,74,120.0
3988,F#2,385.0,0.5,74,120.0
3989,F3,385.5,0.375,86,120.0
3990,C2,385.5,0.5,54,120.0
3991,F#2,385.5,0.5,60,120.0
3992,C2,385.5,0.5,57,120.0
3993,F#2,385.5,0.5,57,120.0
3994,F3,386.0,1.125,97,120.0
3995,C2,386.0,0.5,64,120.0
3996,F#2,386.0,0.5,70,120.0
3997,F4,386.0,1.75,70,120.0
3998,E-4,386.0,1.75,70,120.0
3999,C4,386.0,1.75,70,120.0
4000,G#4,386.0,1.75,70,120.0
4001,C2,386.0,0.5,67,120.0
4002,F#2,386.0,0.5,67,120.0
4003,F#2,386.5,0.5,60,120.0
4004,F#2,386.5,0.5,60,120.0
4005,D2,387.0,0.5,84,120.0
4006,F#2,387.0,0.5,70,120.0
4007,D2,387.0,0.5,77,120.0
4008,F#2,387.0,0.5,77,120.0
4009,F3,387.5,0.375,87,120.0
4010,C2,387.5,0.5,64,120.0
4011,F#2,387.5,0.5,60,120.0
4012,C2,387.5,0.5,62,120.0
4013,F#2,387.5,0.5,62,120.0
4014,F3,388.0,1.125,82,120.0
4015,C2,388.0,0.5,64,120.0
4016,F#2,388.0,0.5,70,120.0
4017,C2,388.0,0.5,67,120.0
4018,F#2,388.0,0.5,67,120.0
4019,F#2,388.5,0.5,60,120.0
4020,F#2,388.5,0.5,60,120.0
4021,F4,388.5,667/1000,70,120.0
4022,E-4,388.5,667/1000,70,120.0
4023,C4,388.5,667/1000,70,120.0
4024,G#4,388.5,667/1000,70,120.0
4025,D2,389.0,0.5,79,120.0
4026,F#2,389.0,0.5,70,120.0
4027,D2,389.0,0.5,74,120.0
4028,F#2,389.0,0.5,74,120.0
4029,F3,389.5,0.25,74,120.0
4030,F3,389.5,0.375,91,120.0
4031,C2,389.5,0.5,54,120.0
4032,F#2,389.5,0.5,60,120.0
4033,C2,389.5,0.5,57,120.0
4034,F#2,389.5,0.5,57,120.0
4035,F3,390.0,0.25,69,120.0
4036,F3,390.0,1.125,92,120.0
4037,C2,390.0,0.25,64,120.0
4038,D2,390.0,0.25,60,120.0
4039,F#2,390.0,0.25,70,120.0
4040,D2,390.0,0.25,65,120.0
4041,C2,390.0,0.25,65,120.0
4042,F#2,390.0,0.25,65,120.0
4043,D2,390.25,0.25,65,120.0
4044,D2,390.25,0.25,65,120.0
4045,D2,390.5,0.25,65,120.0
4046,F#2,390.5,0.25,60,120.0
4047,F4,390.5,667/1000,70,120.0
4048,E-4,390.5,667/1000,70,120.0
4049,C4,390.5,667/1000,70,120.0
4050,G#4,390.5,667/1000,70,120.0
4051,D2,390.5,0.25,62,120.0
4052,F#2,390.5,0.25,62,120.0
4053,D2,390.75,0.25,70,120.0
4054,D2,390.75,0.25,70,120.0
4055,F#2,391.0,0.25,70,120.0
4056,A2,391.0,0.25,80,120.0
4057,A2,391.0,0.25,75,120.0
4058,F#2,391.0,0.25,75,120.0
4059,A2,391.25,0.25,70,120.0
4060,A2,391.25,0.25,70,120.0
4061,F3,391.5,0.375,86,120.0
4062,C2,391.5,0.25,64,120.0
4063,A2,391.5,0.25,70,120.0
4064,B-2,391.5,0.25,60,120.0
4065,A2,391.5,0.25,65,120.0
4066,C2,391.5,0.25,65,120.0
4067,B-2,391.5,0.25,65,120.0
4068,A2,391.75,0.25,70,120.0
4069,A2,391.75,0.25,70,120.0
4070,F3,392.0,1.125,93,120.0
4071,C2,392.0,0.5,64,120.0
4072,C#3,392.0,0.5,70,120.0
4073,F4,392.0,0.75,70,120.0
4074,E-4,392.0,0.75,70,120.0
4075,C4,392.0,0.75,70,120.0
4076,G#4,392.0,0.75,70,120.0
4077,C2,392.0,0.5,67,120.0
4078,C#3,392.0,0.5,67,120.0
4079,F#2,392.5,0.5,60,120.0
4080,F#2,392.5,0.5,60,120.0
4081,D2,393.0,0.5,79,120.0
4082,F#2,393.0,0.5,70,120.0
4083,D2,393.0,0.5,74,120.0
4084,F#2,393.0,0.5,74,120.0
4085,F3,393.5,0.375,80,120.0
4086,C2,393.5,0.5,54,120.0
4087,F#2,393.5,0.5,60,120.0
4088,C2,393.5,0.5,57,120.0
4089,F#2,393.5,0.5,57,120.0
4090,F3,394.0,1.125,91,120.0
4091,C2,394.0,0.5,64,120.0
4092,F#2,394.0,0.5,70,120.0
4093,C2,394.0,0.5,67,120.0
4094,F#2,394.0,0.5,67,120.0
4095,F#2,394.5,0.5,60,120.0
4096,F#2,394.5,0.5,60,120.0
4097,D2,395.0,0.5,84,120.0
4098,F#2,395.0,0.5,70,120.0
4099,D2,395.0,0.5,77,120.0
4100,F#2,395.0,0.5,77,120.0
4101,F3,395.5,0.375,75,120.0
4102,C2,395.5,0.5,64,120.0
4103,F#2,395.5,0.5,60,120.0
4104,C2,395.5,0.5,62,120.0
4105,F#2,395.5,0.5,62,120.0
4106,F3,396.0,0.25,66,120.0
4107,F3,396.0,1.125,80,120.0
4108,C2,396.0,0.5,64,120.0
4109,F#2,396.0,0.5,70,120.0
4110,C2,396.0,0.5,67,120.0
4111,F#2,396.0,0.5,67,120.0
4112,F#2,396.5,0.5,60,120.0
4113,F#2,396.5,0.5,60,120.0
4114,F4,396.5,667/1000,70,120.0
4115,E4,396.5,667/1000,70,120.0
4116,C4,396.5,667/1000,70,120.0
4117,G#4,396.5,667/1000,70,120.0
4118,D2,397.0,0.5,79,120.0
4119,F#2,397.0,0.5,70,120.0
4120,D2,397.0,0.5,74,120.0
4121,F#2,397.0,0.5,74,120.0
4122,F3,397.5,0.375,78,120.0
4123,C2,397.5,0.5,54,120.0
4124,F#2,397.5,0.5,60,120.0
4125,C2,397.5,0.5,57,120.0
4126,F#2,397.5,0.5,57,120.0
4127,F3,398.0,1.125,99,120.0
4128,C2,398.0,0.5,64,120.0
4129,F#2,398.0,0.5,70,120.0
4130,F4,398.0,1.75,70,120.0
4131,E4,398.0,1.75,70,120.0
4132,C4,398.0,1.75,70,120.0
4133,G#4,398.0,1.75,70,120.0
4134,C2,398.0,0.5,67,120.0
4135,F#2,398.0,0.5,67,120.0
4136,C2,398.5,0.5,54,120.0
4137,F#2,398.5,0.5,60,120.0
4138,C2,398.5,0.5,57,120.0
4139,F#2,398.5,0.5,57,120.0
4140,D2,399.0,0.5,84,120.0
4141,F#2,399.0,0.5,70,120.0
4142,D2,399.0,0.5,77,120.0
4143,F#2,399.0,0.5,77,120.0
4144,F3,399.5,0.375,89,120.0
4145,C2,399.5,0.5,64,120.0
4146,F#2,399.5,0.5,60,120.0
4147,C2,399.5,0.5,62,120.0
4148,F#2,399.5,0.5,62,120.0
4149,F3,400.0,0.25,69,120.0
4150,F3,400.0,1.125,86,120.0
4151,C2,400.0,0.5,64,120.0
4152,F#2,400.0,0.5,70,120.0
4153,C2,400.0,0.5,67,120.0
4154,F#2,400.0,0.5,67,120.0
4155,F#2,400.5,0.5,60,120.0
4156,F#2,400.5,0.5,60,120.0
4157,F4,400.5,667/1000,70,120.0
4158,E-4,400.5,667/1000,70,120.0
4159,C4,400.5,667/1000,70,120.0
4160,G#4,400.5,667/1000,70,120.0
4161,D2,401.0,0.5,79,120.0
4162,F#2,401.0,0.5,70,120.0
4163,D2,401.0,0.5,74,120.0
4164,F#2,401.0,0.5,74,120.0
4165,F3,401.5,0.375,89,120.0
4166,C2,401.5,0.5,54,120.0
4167,F#2,401.5,0.5,60,120.0
4168,C2,401.5,0.5,57,120.0
4169,F#2,401.5,0.5,57,120.0
4170,F3,402.0,1.125,88,120.0
4171,C2,402.0,0.5,64,120.0
4172,F#2,402.0,0.5,70,120.0
4173,F4,402.0,1.75,70,120.0
4174,E-4,402.0,1.75,70,120.0
4175,C4,402.0,1.75,70,120.0
4176,G#4,402.0,1.75,70,120.0
4177,C2,402.0,0.5,67,120.0
4178,F#2,402.0,0.5,67,120.0
4179,F#2,402.5,0.5,60,120.0
4180,F#2,402.5,0.5,60,120.0
4181,D2,403.0,0.5,84,120.0
4182,F#2,403.0,0.5,70,120.0
4183,D2,403.0,0.5,77,120.0
4184,F#2,403.0,0.5,77,120.0
4185,F3,403.5,0.375,90,120.0
4186,C2,403.5,0.5,64,120.0
4187,F#2,403.5,0.5,60,120.0
4188,C2,403.5,0.5,62,120.0
4189,F#2,403.5,0.5,62,120.0
4190,B-2,404.0,0.25,75,120.0
4191,B-2,404.0,1.125,86,120.0
4192,C2,404.0,0.5,64,120.0
4193,F#2,404.0,0.5,70,120.0
4194,C2,404.0,0.5,67,120.0
4195,F#2,404.0,0.5,67,120.0
4196,F#2,404.5,0.5,60,120.0
4197,F#2,404.5,0.5,60,120.0
4198,G#4,404.5,667/1000,70,120.0
4199,F4,404.5,667/1000,70,120.0
4200,D4,404.5,667/1000,70,120.0
4201,C5,404.5,667/1000,70,120.0
4202,D2,405.0,0.5,79,120.0
4203,F#2,405.0,0.5,70,120.0
4204,D2,405.0,0.5,74,120.0
4205,F#2,405.0,0.5,74,120.0
4206,B-2,405.5,0.375,83,120.0
4207,C2,405.5,0.5,54,120.0
4208,F#2,405.5,0.5,60,120.0
4209,C2,405.5,0.5,57,120.0
4210,F#2,405.5,0.5,57,120.0
4211,B-2,406.0,1.125,88,120.0
4212,C2,406.0,0.5,64,120.0
4213,F#2,406.0,0.5,70,120.0
4214,G#4,406.0,1.75,70,120.0
4215,F4,406.0,1.75,70,120.0
4216,D4,406.0,1.75,70,120.0
4217,C5,406.0,1.75,70,120.0
4218,C2,406.0,0.5,67,120.0
4219,F#2,406.0,0.5,67,120.0
4220,C2,406.5,0.5,54,120.0
4221,F#2,406.5,0.5,60,120.0
4222,C2,406.5,0.5,57,120.0
4223,F#2,406.5,0.5,57,120.0
4224,D2,407.0,0.5,84,120.0
4225,F#2,407.0,0.5,70,120.0
4226,D2,407.0,0.5,77,120.0
4227,F#2,407.0,0.5,77,120.0
4228,B-2,407.5,0.375,92,120.0
4229,C2,407.5,0.5,64,120.0
4230,F#2,407.5,0.5,60,120.0
4231,C2,407.5,0.5,62,120.0
4232,F#2,407.5,0.5,62,120.0
4233,F3,408.0,0.25,73,120.0
4234,F3,408.0,1.125,84,120.0
4235,C2,408.0,0.5,64,120.0
4236,F#2,408.0,0.5,70,120.0
4237,C2,408.0,0.5,67,120.0
4238,F#2,408.0,0.5,67,120.0
4239,F#2,408.5,0.5,60,120.0
4240,F#2,408.5,0.5,60,120.0
4241,F4,408.5,667/1000,70,120.0
4242,E-4,408.5,667/1000,70,120.0
4243,C4,408.5,667/1000,70,120.0
4244,G#4,408.5,667/1000,70,120.0
4245,D2,409.0,0.5,79,120.0
4246,F#2,409.0,0.5,70,120.0
4247,D2,409.0,0.5,74,120.0
4248,F#2,409.0,0.5,74,120.0
4249,F3,409.5,0.375,93,120.0
4250,C2,409.5,0.5,54,120.0
4251,F#2,409.5,0.5,60,120.0
4252,C2,409.5,0.5,57,120.0
4253,F#2,409.5,0.5,57,120.0
4254,F3,410.0,1.125,93,120.0
4255,C2,410.0,0.5,64,120.0
4256,F#2,410.0,0.5,70,120.0
4257,F4,410.0,1.75,70,120.0
4258,E-4,410.0,1.75,70,120.0
4259,C4,410.0,1.75,70,120.0
4260,G#4,410.0,1.75,70,120.0
4261,C2,410.0,0.5,67,120.0
4262,F#2,410.0,0.5,67,120.0
4263,F#2,410.5,0.5,60,120.0
4264,F#2,410.5,0.5,60,120.0
4265,D2,411.0,0.5,84,120.0
4266,F#2,411.0,0.5,70,120.0
4267,D2,411.0,0.5,77,120.0
4268,F#2,411.0,0.5,77,120.0
4269,F3,411.5,0.375,83,120.0
4270,C2,411.5,0.5,64,120.0
4271,F#2,411.5,0.5,60,120.0
4272,C2,411.5,0.5,62,120.0
4273,F#2,411.5,0.5,62,120.0
4274,C#3,412.0,1.125,75,120.0
4275,C2,412.0,0.5,64,120.0
4276,F#2,412.0,0.5,70,120.0
4277,C2,412.0,0.5,67,120.0
4278,F#2,412.0,0.5,67,120.0
4279,F#2,412.5,0.5,60,120.0
4280,F#2,412.5,0.5,60,120.0
4281,F4,412.5,667/1000,70,120.0
4282,E-4,412.5,667/1000,70,120.0
4283,B3,412.5,667/1000,70,120.0
4284,G#4,412.5,667/1000,70,120.0
4285,D2,413.0,0.5,79,120.0
4286,F#2,413.0,0.5,70,120.0
4287,D2,413.0,0.5,74,120.0
4288,F#2,413.0,0.5,74,120.0
4289,C#3,413.5,0.375,80,120.0
4290,C2,413.5,0.5,54,120.0
4291,F#2,413.5,0.5,60,120.0
4292,C2,413.5,0.5,57,120.0
4293,F#2,413.5,0.5,57,120.0
4294,C#3,414.0,1.125,103,120.0
4295,C2,414.0,0.5,64,120.0
4296,F#2,414.0,0.5,70,120.0
4297,F4,414.0,1.75,70,120.0
4298,E-4,414.0,1.75,70,120.0
4299,B3,414.0,1.75,70,120.0
4300,G#4,414.0,1.75,70,120.0
4301,C2,414.0,0.5,67,120.0
4302,F#2,414.0,0.5,67,120.0
4303,C2,414.5,0.5,54,120.0
4304,F#2,414.5,0.5,60,120.0
4305,C2,414.5,0.5,57,120.0
4306,F#2,414.5,0.5,57,120.0
4307,D2,415.0,0.5,84,120.0
4308,F#2,415.0,0.5,70,120.0
4309,D2,415.0,0.5,77,120.0
4310,F#2,415.0,0.5,77,120.0
4311,C#3,415.5,0.375,88,120.0
4312,C2,415.5,0.5,64,120.0
4313,F#2,415.5,0.5,60,120.0
4314,C2,415.5,0.5,62,120.0
4315,F#2,415.5,0.5,62,120.0
4316,G3,416.0,1.125,88,120.0
4317,C2,416.0,0.5,64,120.0
4318,F#2,416.0,0.5,70,120.0
4319,B-4,416.0,249/125,70,120.0
4320,G4,416.0,249/125,70,120.0
4321,F4,416.0,249/125,70,120.0
4322,D5,416.0,249/125,70,120.0
4323,C2,416.0,0.5,67,120.0
4324,F#2,416.0,0.5,67,120.0
4325,F#2,416.5,0.5,60,120.0
4326,F#2,416.5,0.5,60,120.0
4327,D2,417.0,0.5,79,120.0
4328,F#2,417.0,0.5,70,120.0
4329,D2,417.0,0.5,74,120.0
4330,F#2,417.0,0.5,74,120.0
4331,G3,417.5,0.375,92,120.0
4332,C2,417.5,0.5,54,120.0
4333,F#2,417.5,0.5,60,120.0
4334,C2,417.5,0.5,57,120.0
4335,F#2,417.5,0.5,57,120.0
4336,G3,418.0,0.25,73,120.0
4337,G3,418.0,1.125,95,120.0
4338,C2,418.0,0.5,64,120.0
4339,F#2,418.0,0.5,70,120.0
4340,C2,418.0,0.5,67,120.0
4341,F#2,418.0,0.5,67,120.0
4342,F#2,418.5,0.5,60,120.0
4343,F#2,418.5,0.5,60,120.0
4344,B-4,418.5,667/1000,70,120.0
4345,G4,418.5,667/1000,70,120.0
4346,F4,418.5,667/1000,70,120.0
4347,D5,418.5,667/1000,70,120.0
4348,D2,419.0,0.5,84,120.0
4349,F#2,419.0,0.5,70,120.0
4350,D2,419.0,0.5,77,120.0
4351,F#2,419.0,0.5,77,120.0
4352,C3,419.5,0.25,70,120.0
4353,G3,419.5,0.375,78,120.0
4354,C2,419.5,0.5,64,120.0
4355,F#2,419.5,0.5,60,120.0
4356,C2,419.5,0.5,62,120.0
4357,F#2,419.5,0.5,62,120.0
4358,C3,420.0,1.125,90,120.0
4359,C2,420.0,0.5,64,120.0
4360,F#2,420.0,0.5,70,120.0
4361,E4,420.0,249/125,70,120.0
4362,C4,420.0,249/125,70,120.0
4363,B-3,420.0,249/125,70,120.0
4364,G#4,420.0,249/125,70,120.0
4365,C2,420.0,0.5,67,120.0
4366,F#2,420.0,0.5,67,120.0
4367,D2,420.5,167/1000,50,120.0
4368,F#2,420.5,167/1000,60,120.0
4369,D2,420.5,167/1000,55,120.0
4370,F#2,420.5,167/1000,55,120.0
4371,D2,420.667,167/1000,55,120.0
4372,D2,420.667,167/1000,55,120.0
4373,D2,420.833,167/1000,60,120.0
4374,D2,420.833,167/1000,60,120.0
4375,D2,421.0,0.5,75,120.0
4376,F#2,421.0,0.5,60,120.0
4377,D2,421.0,0.5,68,120.0
4378,F#2,421.0,0.5,68,120.0
4379,C3,421.5,0.375,91,120.0
4380,C2,421.5,0.5,54,120.0
4381,F#2,421.5,0.5,70,120.0
4382,A2,421.5,0.5,70,120.0
4383,C2,421.5,0.5,65,120.0
4384,A2,421.5,0.5,65,120.0
4385,F#2,421.5,0.5,65,120.0
4386,C3,422.0,1.125,103,120.0
4387,C2,422.0,0.5,64,120.0
4388,F#2,422.0,0.5,70,120.0
4389,C3,422.0,0.5,70,120.0
4390,C3,422.0,0.5,68,120.0
4391,C2,422.0,0.5,68,120.0
4392,F#2,422.0,0.5,68,120.0
4393,C3,422.5,0.25,68,120.0
4394,F#2,422.5,0.5,60,120.0
4395,A2,422.5,0.5,65,120.0
4396,A2,422.5,0.5,62,120.0
4397,F#2,422.5,0.5,62,120.0
4398,F#2,423.0,0.5,70,120.0
4399,A2,423.0,0.5,75,120.0
4400,E4,423.0,667/1000,80,120.0
4401,C4,423.0,667/1000,80,120.0
4402,B-3,423.0,667/1000,80,120.0
4403,G#4,423.0,667/1000,80,120.0
4404,A2,423.0,0.5,72,120.0
4405,F#2,423.0,0.5,72,120.0
4406,C3,423.5,0.375,86,120.0
4407,C2,423.5,0.5,64,120.0
4408,F2,423.5,0.5,90,120.0
4409,B-2,423.5,0.5,60,120.0
4410,F2,423.5,0.5,71,120.0
4411,C2,423.5,0.5,71,120.0
4412,B-2,423.5,0.5,71,120.0
4413,F3,424.0,1.125,87,120.0
4414,C2,424.0,0.5,64,120.0
4415,C#3,424.0,0.5,70,120.0
4416,F4,424.0,0.75,70,120.0
4417,E-4,424.0,0.75,70,120.0
4418,C4,424.0,0.75,70,120.0
4419,G#4,424.0,0.75,70,120.0
4420,C2,424.0,0.5,67,120.0
4421,C#3,424.0,0.5,67,120.0
4422,F#2,424.5,0.5,60,120.0
4423,F#2,424.5,0.5,60,120.0
4424,D2,425.0,0.5,79,120.0
4425,F#2,425.0,0.5,70,120.0
4426,D2,425.0,0.5,74,120.0
4427,F#2,425.0,0.5,74,120.0
4428,F3,425.5,0.375,90,120.0
4429,C2,425.5,0.5,54,120.0
4430,F#2,425.5,0.5,60,120.0
4431,C2,425.5,0.5,57,120.0
4432,F#2,425.5,0.5,57,120.0
4433,F3,426.0,1.125,98,120.0
4434,C2,426.0,0.5,64,120.0
4435,F#2,426.0,0.5,70,120.0
4436,C2,426.0,0.5,67,120.0
4437,F#2,426.0,0.5,67,120.0
4438,F#2,426.5,0.5,60,120.0
4439,F#2,426.5,0.5,60,120.0
4440,D2,427.0,0.5,84,120.0
4441,F#2,427.0,0.5,70,120.0
4442,D2,427.0,0.5,77,120.0
4443,F#2,427.0,0.5,77,120.0
4444,F3,427.5,0.375,75,120.0
4445,C2,427.5,0.5,64,120.0
4446,F#2,427.5,0.5,60,120.0
4447,C2,427.5,0.5,62,120.0
4448,F#2,427.5,0.5,62,120.0
4449,F3,428.0,0.25,74,120.0
4450,F3,428.0,1.125,76,120.0
4451,C2,428.0,0.5,64,120.0
4452,F#2,428.0,0.5,70,120.0
4453,C2,428.0,0.5,67,120.0
4454,F#2,428.0,0.5,67,120.0
4455,F#2,428.5,0.5,60,120.0
4456,F#2,428.5,0.5,60,120.0
4457,F4,428.5,667/1000,70,120.0
4458,E4,428.5,667/1000,70,120.0
4459,C4,428.5,667/1000,70,120.0
4460,G#4,428.5,667/1000,70,120.0
4461,D2,429.0,0.5,79,120.0
4462,F#2,429.0,0.5,70,120.0
4463,D2,429.0,0.5,74,120.0
4464,F#2,429.0,0.5,74,120.0
4465,F3,429.5,0.375,91,120.0
4466,C2,429.5,0.5,54,120.0
4467,F#2,429.5,0.5,60,120.0
4468,C2,429.5,0.5,57,120.0
4469,F#2,429.5,0.5,57,120.0
4470,F3,430.0,1.125,95,120.0
4471,C2,430.0,0.5,64,120.0
4472,F#2,430.0,0.5,70,120.0
4473,F4,430.0,1.75,70,120.0
4474,E4,430.0,1.75,70,120.0
4475,C4,430.0,1.75,70,120.0
4476,G#4,430.0,1.75,70,120.0
4477,C2,430.0,0.5,67,120.0
4478,F#2,430.0,0.5,67,120.0
4479,C2,430.5,0.5,54,120.0
4480,F#2,430.5,0.5,60,120.0
4481,C2,430.5,0.5,57,120.0
4482,F#2,430.5,0.5,57,120.0
4483,D2,431.0,0.5,84,120.0
4484,F#2,431.0,0.5,70,120.0
4485,D2,431.0,0.5,77,120.0
4486,F#2,431.0,0.5,77,120.0
4487,F3,431.5,0.375,87,120.0
4488,C2,431.5,0.5,64,120.0
4489,F#2,431.5,0.5,60,120.0
4490,C2,431.5,0.5,62,120.0
4491,F#2,431.5,0.5,62,120.0
4492,F3,432.0,1.125,91,120.0
4493,C2,432.0,0.5,64,120.0
4494,F#2,432.0,0.5,70,120.0
4495,C2,432.0,0.5,67,120.0
4496,F#2,432.0,0.5,67,120.0
4497,F#2,432.5,0.5,60,120.0
4498,F#2,432.5,0.5,60,120.0
4499,F4,432.5,667/1000,70,120.0
4500,E-4,432.5,667/1000,70,120.0
4501,C4,432.5,667/1000,70,120.0
4502,G#4,432.5,667/1000,70,120.0
4503,D2,433.0,0.5,79,120.0
4504,F#2,433.0,0.5,70,120.0
4505,D2,433.0,0.5,74,120.0
4506,F#2,433.0,0.5,74,120.0
4507,F3,433.5,0.25,75,120.0
4508,F3,433.5,0.375,76,120.0
4509,C2,433.5,0.5,54,120.0
4510,F#2,433.5,0.5,60,120.0
4511,C2,433.5,0.5,57,120.0
4512,F#2,433.5,0.5,57,120.0
4513,F3,434.0,1.125,85,120.0
4514,C2,434.0,0.5,64,120.0
4515,F#2,434.0,0.5,70,120.0
4516,F4,434.0,1.75,70,120.0
4517,E-4,434.0,1.75,70,120.0
4518,C4,434.0,1.75,70,120.0
4519,G#4,434.0,1.75,70,120.0
4520,C2,434.0,0.5,67,120.0
4521,F#2,434.0,0.5,67,120.0
4522,F#2,434.5,0.5,60,120.0
4523,F#2,434.5,0.5,60,120.0
4524,D2,435.0,0.5,84,120.0
4525,F#2,435.0,0.5,70,120.0
4526,D2,435.0,0.5,77,120.0
4527,F#2,435.0,0.5,77,120.0
4528,F3,435.5,0.375,81,120.0
4529,C2,435.5,0.5,64,120.0
4530,F#2,435.5,0.5,60,120.0
4531,C2,435.5,0.5,62,120.0
4532,F#2,435.5,0.5,62,120.0
4533,B-2,436.0,1.125,78,120.0
4534,C2,436.0,0.5,64,120.0
4535,F#2,436.0,0.5,70,120.0
4536,G#4,436.0,0.75,70,120.0
4537,F4,436.0,0.75,70,120.0
4538,D4,436.0,0.75,70,120.0
4539,C5,436.0,0.75,70,120.0
4540,C2,436.0,0.5,67,120.0
4541,F#2,436.0,0.5,67,120.0
4542,F2,436.5,0.5,60,120.0
4543,F#2,436.5,0.5,60,120.0
4544,F2,436.5,0.5,60,120.0
4545,F#2,436.5,0.5,60,120.0
4546,D2,437.0,0.5,79,120.0
4547,F#2,437.0,0.5,70,120.0
4548,D2,437.0,0.5,74,120.0
4549,F#2,437.0,0.5,74,120.0
4550,B-2,437.5,0.375,82,120.0
4551,C2,437.5,0.5,54,120.0
4552,F#2,437.5,0.5,60,120.0
4553,C2,437.5,0.5,57,120.0
4554,F#2,437.5,0.5,57,120.0
4555,B-2,438.0,1.125,94,120.0
4556,C2,438.0,0.5,64,120.0
4557,F#2,438.0,0.5,70,120.0
4558,C2,438.0,0.5,67,120.0
4559,F#2,438.0,0.5,67,120.0
4560,C2,438.5,0.5,54,120.0
4561,F2,438.5,0.5,70,120.0
4562,F#2,438.5,0.5,60,120.0
4563,C2,438.5,0.5,61,120.0
4564,F2,438.5,0.5,61,120.0
4565,F#2,438.5,0.5,61,120.0
4566,D2,439.0,0.5,84,120.0
4567,F#2,439.0,0.5,70,120.0
4568,D2,439.0,0.5,77,120.0
4569,F#2,439.0,0.5,77,120.0
4570,B-2,439.5,0.375,83,120.0
4571,C2,439.5,0.5,64,120.0
4572,F#2,439.5,0.5,60,120.0
4573,C2,439.5,0.5,62,120.0
4574,F#2,439.5,0.5,62,120.0
4575,C#3,440.0,1.125,89,120.0
4576,C2,440.0,0.5,64,120.0
4577,F#2,440.0,0.5,70,120.0
4578,F4,440.0,249/125,70,120.0
4579,E-4,440.0,249/125,70,120.0
4580,B3,440.0,249/125,70,120.0
4581,G#4,440.0,249/125,70,120.0
4582,C2,440.0,0.5,67,120.0
4583,F#2,440.0,0.5,67,120.0
4584,F#2,440.5,0.5,60,120.0
4585,F#2,440.5,0.5,60,120.0
4586,D2,441.0,0.5,79,120.0
4587,F#2,441.0,0.5,70,120.0
4588,D2,441.0,0.5,74,120.0
4589,F#2,441.0,0.5,74,120.0
4590,C#3,441.5,0.375,82,120.0
4591,C2,441.5,0.5,54,120.0
4592,F#2,441.5,0.5,60,120.0
4593,C2,441.5,0.5,57,120.0
4594,F#2,441.5,0.5,57,120.0
4595,C#3,442.0,1.125,97,120.0
4596,C2,442.0,0.5,64,120.0
4597,F#2,442.0,0.5,70,120.0
4598,C2,442.0,0.5,67,120.0
4599,F#2,442.0,0.5,67,120.0
4600,F#2,442.5,0.5,60,120.0
4601,F#2,442.5,0.5,60,120.0
4602,F4,442.5,667/1000,70,120.0
4603,E-4,442.5,667/1000,70,120.0
4604,B3,442.5,667/1000,70,120.0
4605,G#4,442.5,667/1000,70,120.0
4606,D2,443.0,0.5,84,120.0
4607,F#2,443.0,0.5,70,120.0
4608,D2,443.0,0.5,77,120.0
4609,F#2,443.0,0.5,77,120.0
4610,C#3,443.5,0.375,86,120.0
4611,C2,443.5,0.5,64,120.0
4612,F#2,443.5,0.5,60,120.0
4613,C2,443.5,0.5,62,120.0
4614,F#2,443.5,0.5,62,120.0
4615,C3,444.0,1.125,93,120.0
4616,C2,444.0,0.5,64,120.0
4617,F#2,444.0,0.5,70,120.0
4618,E4,444.0,0.75,70,120.0
4619,C4,444.0,0.75,70,120.0
4620,B-3,444.0,0.75,70,120.0
4621,G#4,444.0,0.75,70,120.0
4622,C2,444.0,0.5,67,120.0
4623,F#2,444.0,0.5,67,120.0
4624,F#2,444.5,0.5,60,120.0
4625,F#2,444.5,0.5,60,120.0
4626,D2,445.0,0.5,79,120.0
4627,F#2,445.0,0.5,70,120.0
4628,D2,445.0,0.5,74,120.0
4629,F#2,445.0,0.5,74,120.0
4630,C3,445.5,0.375,93,120.0
4631,C2,445.5,0.5,54,120.0
4632,F#2,445.5,0.5,60,120.0
4633,C2,445.5,0.5,57,120.0
4634,F#2,445.5,0.5,57,120.0
4635,C3,446.0,1.125,87,120.0
4636,C2,446.0,0.5,64,120.0
4637,F#2,446.0,0.5,70,120.0
4638,C2,446.0,0.5,67,120.0
4639,F#2,446.0,0.5,67,120.0
4640,C2,446.5,0.5,54,120.0
4641,F#2,446.5,0.5,60,120.0
4642,C2,446.5,0.5,57,120.0
4643,F#2,446.5,0.5,57,120.0
4644,D2,447.0,0.5,84,120.0
4645,F#2,447.0,0.5,70,120.0
4646,D2,447.0,0.5,77,120.0
4647,F#2,447.0,0.5,77,120.0
4648,C3,447.5,0.375,84,120.0
4649,C2,447.5,0.5,64,120.0
4650,F#2,447.5,0.5,60,120.0
4651,C2,447.5,0.5,62,120.0
4652,F#2,447.5,0.5,62,120.0
4653,F3,448.0,1.125,92,120.0
4654,C2,448.0,0.5,64,120.0
4655,F#2,448.0,0.5,70,120.0
4656,F4,448.0,0.75,70,120.0
4657,E-4,448.0,0.75,70,120.0
4658,C4,448.0,0.75,70,120.0
4659,G#4,448.0,0.75,70,120.0
4660,C2,448.0,0.5,67,120.0
4661,F#2,448.0,0.5,67,120.0
4662,F#2,448.5,0.5,60,120.0
4663,F#2,448.5,0.5,60,120.0
4664,D2,449.0,0.5,79,120.0
4665,F#2,449.0,0.5,70,120.0
4666,D2,449.0,0.5,74,120.0
4667,F#2,449.0,0.5,74,120.0
4668,F3,449.5,0.375,80,120.0
4669,C2,449.5,0.5,54,120.0
4670,F#2,449.5,0.5,60,120.0
4671,C2,449.5,0.5,57,120.0
4672,F#2,449.5,0.5,57,120.0
4673,F3,450.0,1.125,100,120.0
4674,C2,450.0,0.5,64,120.0
4675,F#2,450.0,0.5,70,120.0
4676,C2,450.0,0.5,67,120.0
4677,F#2,450.0,0.5,67,120.0
4678,F#2,450.5,0.5,60,120.0
4679,F#2,450.5,0.5,60,120.0
4680,D2,451.0,0.5,84,120.0
4681,F#2,451.0,0.5,70,120.0
4682,D2,451.0,0.5,77,120.0
4683,F#2,451.0,0.5,77,120.0
4684,F3,451.5,0.375,81,120.0
4685,C2,451.5,0.5,64,120.0
4686,B-2,451.5,0.5,60,120.0
4687,C2,451.5,0.5,62,120.0
4688,B-2,451.5,0.5,62,120.0
4689,F3,452.0,1.125,92,120.0
4690,C2,452.0,0.5,64,120.0
4691,F#2,452.0,0.5,70,120.0
4692,F4,452.0,1667/1000,70,120.0
4693,E-4,452.0,1667/1000,70,120.0
4694,C4,452.0,1667/1000,70,120.0
4695,G#4,452.0,1667/1000,70,120.0
4696,C2,452.0,0.5,67,120.0
4697,F#2,452.0,0.5,67,120.0
4698,F#2,452.5,0.5,60,120.0
4699,F#2,452.5,0.5,60,120.0
4700,D2,453.0,0.5,79,120.0
4701,F#2,453.0,0.5,70,120.0
4702,D2,453.0,0.5,74,120.0
4703,F#2,453.0,0.5,74,120.0
4704,F3,453.5,0.375,88,120.0
4705,C2,453.5,0.5,54,120.0
4706,F#2,453.5,0.5,60,120.0
4707,C2,453.5,0.5,57,120.0
4708,F#2,453.5,0.5,57,120.0
4709,E3,454.0,0.75,104,120.0
4710,C2,454.0,0.25,64,120.0
4711,D2,454.0,0.25,60,120.0
4712,F#2,454.0,0.25,70,120.0
4713,E4,454.0,0.75,70,120.0
4714,D4,454.0,0.75,70,120.0
4715,B3,454.0,0.75,70,120.0
4716,G4,454.0,0.75,70,120.0
4717,D2,454.0,0.25,65,120.0
4718,C2,454.0,0.25,65,120.0
4719,F#2,454.0,0.25,65,120.0
4720,D2,454.25,0.25,65,120.0
4721,D2,454.25,0.25,65,120.0
4722,D2,454.5,0.25,65,120.0
4723,F#2,454.5,0.25,60,120.0
4724,D2,454.5,0.25,62,120.0
4725,F#2,454.5,0.25,62,120.0
4726,D2,454.75,0.25,70,120.0
4727,D2,454.75,0.25,70,120.0
4728,A2,455.0,0.75,96,120.0
4729,F#2,455.0,0.25,70,120.0
4730,A2,455.0,0.25,80,120.0
4731,G4,455.0,0.75,70,120.0
4732,E4,455.0,0.75,70,120.0
4733,C#4,455.0,0.75,70,120.0
4734,A4,455.0,0.75,70,120.0
4735,A2,455.0,0.25,75,120.0
4736,F#2,455.0,0.25,75,120.0
4737,A2,455.25,0.25,70,120.0
4738,A2,455.25,0.25,70,120.0
4739,C2,455.5,0.25,64,120.0
4740,F#2,455.5,0.25,60,120.0
4741,A2,455.5,0.25,70,120.0
4742,A2,455.5,0.25,65,120.0
4743,C2,455.5,0.25,65,120.0
4744,F#2,455.5,0.25,65,120.0
4745,A2,455.75,0.25,70,120.0
4746,A2,455.75,0.25,70,120.0
4747,E-3,456.0,1.125,85,120.0
4748,C2,456.0,0.5,64,120.0
4749,F#2,456.0,0.5,70,120.0
4750,F#4,456.0,249/125,70,120.0
4751,F4,456.0,249/125,70,120.0
4752,C#4,456.0,249/125,70,120.0
4753,B-4,456.0,249/125,70,120.0
4754,C2,456.0,0.5,67,120.0
4755,F#2,456.0,0.5,67,120.0
4756,F#2,456.5,0.5,60,120.0
4757,F#2,456.5,0.5,60,120.0
4758,D2,457.0,0.5,79,120.0
4759,C#3,457.0,0.5,70,120.0
4760,D2,457.0,0.5,74,120.0
4761,C#3,457.0,0.5,74,120.0
4762,E-3,457.5,0.375,88,120.0
4763,C2,457.5,0.5,54,120.0
4764,F#2,457.5,0.5,60,120.0
4765,C2,457.5,0.5,57,120.0
4766,F#2,457.5,0.5,57,120.0
4767,E-3,458.0,1.125,90,120.0
4768,C2,458.0,0.5,64,120.0
4769,F#2,458.0,0.5,70,120.0
4770,C2,458.0,0.5,67,120.0
4771,F#2,458.0,0.5,67,120.0
4772,E-3,458.5,0.25,69,120.0
4773,F#2,458.5,0.5,60,120.0
4774,F#2,458.5,0.5,60,120.0
4775,D2,459.0,0.5,84,120.0
4776,F#2,459.0,0.5,70,120.0
4777,F#4,459.0,667/1000,80,120.0
4778,F4,459.0,667/1000,80,120.0
4779,C#4,459.0,667/1000,80,120.0
4780,B-4,459.0,667/1000,80,120.0
4781,D2,459.0,0.5,77,120.0
4782,F#2,459.0,0.5,77,120.0
4783,E-3,459.5,0.375,88,120.0
4784,C2,459.5,0.5,64,120.0
4785,F#2,459.5,0.5,60,120.0
4786,C2,459.5,0.5,62,120.0
4787,F#2,459.5,0.5,62,120.0
4788,G#2,460.0,1.125,80,120.0
4789,C2,460.0,0.5,64,120.0
4790,F#2,460.0,0.5,70,120.0
4791,F#4,460.0,249/125,70,120.0
4792,E-4,460.0,249/125,70,120.0
4793,C4,460.0,249/125,70,120.0
4794,B-4,460.0,249/125,70,120.0
4795,C2,460.0,0.5,67,120.0
4796,F#2,460.0,0.5,67,120.0
4797,F#2,460.5,0.5,60,120.0
4798,F#2,460.5,0.5,60,120.0
4799,D2,461.0,0.5,79,120.0
4800,F#2,461.0,0.5,70,120.0
4801,D2,461.0,0.5,74,120.0
4802,F#2,461.0,0.5,74,120.0
4803,G#2,461.5,0.375,91,120.0
4804,C2,461.5,0.5,54,120.0
4805,F#2,461.5,0.5,60,120.0
4806,C2,461.5,0.5,57,120.0
4807,F#2,461.5,0.5,57,120.0
4808,G#3,462.0,0.25,64,120.0
4809,G#2,462.0,1.125,96,120.0
4810,C2,462.0,0.5,64,120.0
4811,F#2,462.0,0.5,70,120.0
4812,C2,462.0,0.5,67,120.0
4813,F#2,462.0,0.5,67,120.0
4814,C2,462.5,0.5,54,120.0
4815,F#2,462.5,0.5,60,120.0
4816,F#4,462.5,667/1000,70,120.0
4817,E-4,462.5,667/1000,70,120.0
4818,C4,462.5,667/1000,70,120.0
4819,B-4,462.5,667/1000,70,120.0
4820,C2,462.5,0.5,57,120.0
4821,F#2,462.5,0.5,57,120.0
4822,D2,463.0,0.5,84,120.0
4823,F#2,463.0,0.5,70,120.0
4824,D2,463.0,0.5,77,120.0
4825,F#2,463.0,0.5,77,120.0
4826,G#2,463.5,0.375,94,120.0
4827,C2,463.5,0.5,64,120.0
4828,F#2,463.5,0.5,60,120.0
4829,C2,463.5,0.5,62,120.0
4830,F#2,463.5,0.5,62,120.0
4831,C#3,464.0,1.125,91,120.0
4832,C2,464.0,0.5,64,120.0
4833,F#2,464.0,0.5,70,120.0
4834,F4,464.0,249/125,70,120.0
4835,E-4,464.0,249/125,70,120.0
4836,C4,464.0,249/125,70,120.0
4837,G#4,464.0,249/125,70,120.0
4838,C2,464.0,0.5,67,120.0
4839,F#2,464.0,0.5,67,120.0
4840,F#2,464.5,0.5,60,120.0
4841,F#2,464.5,0.5,60,120.0
4842,D2,465.0,0.5,79,120.0
4843,F#2,465.0,0.5,70,120.0
4844,D2,465.0,0.5,74,120.0
4845,F#2,465.0,0.5,74,120.0
4846,C#3,465.5,0.375,87,120.0
4847,C2,465.5,0.5,54,120.0
4848,F#2,465.5,0.5,60,120.0
4849,C2,465.5,0.5,57,120.0
4850,F#2,465.5,0.5,57,120.0
4851,G#2,466.0,1.125,88,120.0
4852,C2,466.0,0.5,64,120.0
4853,F#2,466.0,0.5,70,120.0
4854,C2,466.0,0.5,67,120.0
4855,F#2,466.0,0.5,67,120.0
4856,F#2,466.5,0.5,60,120.0
4857,F#2,466.5,0.5,60,120.0
4858,F4,466.5,667/1000,70,120.0
4859,E-4,466.5,667/1000,70,120.0
4860,C4,466.5,667/1000,70,120.0
4861,G#4,466.5,667/1000,70,120.0
4862,D2,467.0,0.5,84,120.0
4863,F#2,467.0,0.5,70,120.0
4864,D2,467.0,0.5,77,120.0
4865,F#2,467.0,0.5,77,120.0
4866,B-2,467.5,0.25,70,120.0
4867,G#2,467.5,0.375,80,120.0
4868,C2,467.5,0.5,64,120.0
4869,F#2,467.5,0.5,60,120.0
4870,C2,467.5,0.5,62,120.0
4871,F#2,467.5,0.5,62,120.0
4872,B-2,468.0,1.125,78,120.0
4873,C2,468.0,0.5,64,120.0
4874,F#2,468.0,0.5,70,120.0
4875,G#4,468.0,0.75,70,120.0
4876,F4,468.0,0.75,70,120.0
4877,D4,468.0,0.75,70,120.0
4878,B-4,468.0,0.75,70,120.0
4879,C2,468.0,0.5,67,120.0
4880,F#2,468.0,0.5,67,120.0
4881,F2,468.5,0.5,60,120.0
4882,F#2,468.5,0.5,60,120.0
4883,F2,468.5,0.5,60,120.0
4884,F#2,468.5,0.5,60,120.0
4885,D2,469.0,0.5,79,120.0
4886,F#2,469.0,0.5,70,120.0
4887,D2,469.0,0.5,74,120.0
4888,F#2,469.0,0.5,74,120.0
4889,B-2,469.5,0.375,79,120.0
4890,C2,469.5,0.5,54,120.0
4891,F#2,469.5,0.5,60,120.0
4892,C2,469.5,0.5,57,120.0
4893,F#2,469.5,0.5,57,120.0
4894,F2,470.0,1.125,85,120.0
4895,C2,470.0,0.5,64,120.0
4896,F#2,470.0,0.5,70,120.0
4897,C2,470.0,0.5,67,120.0
4898,F#2,470.0,0.5,67,120.0
4899,C2,470.5,0.5,54,120.0
4900,F2,470.5,0.5,70,120.0
4901,F#2,470.5,0.5,60,120.0
4902,C2,470.5,0.5,61,120.0
4903,F2,470.5,0.5,61,120.0
4904,F#2,470.5,0.5,61,120.0
4905,D2,471.0,0.5,84,120.0
4906,F#2,471.0,0.5,70,120.0
4907,D2,471.0,0.5,77,120.0
4908,F#2,471.0,0.5,77,120.0
4909,F2,471.5,0.375,86,120.0
4910,C2,471.5,0.5,64,120.0
4911,F#2,471.5,0.5,60,120.0
4912,C2,471.5,0.5,62,120.0
4913,F#2,471.5,0.5,62,120.0
4914,E-3,472.0,1.125,83,120.0
4915,C2,472.0,0.5,64,120.0
4916,F#2,472.0,0.5,70,120.0
4917,F#4,472.0,249/125,70,120.0
4918,E-4,472.0,249/125,70,120.0
4919,C#4,472.0,249/125,70,120.0
4920,B-4,472.0,249/125,70,120.0
4921,C2,472.0,0.5,67,120.0
4922,F#2,472.0,0.5,67,120.0
4923,F#2,472.5,0.5,60,120.0
4924,F#2,472.5,0.5,60,120.0
4925,D2,473.0,0.5,79,120.0
4926,F#2,473.0,0.5,70,120.0
4927,D2,473.0,0.5,74,120.0
4928,F#2,473.0,0.5,74,120.0
4929,E-3,473.5,0.375,80,120.0
4930,C2,473.5,0.5,54,120.0
4931,F#2,473.5,0.5,60,120.0
4932,C2,473.5,0.5,57,120.0
4933,F#2,473.5,0.5,57,120.0
4934,B-2,474.0,1.125,92,120.0
4935,C2,474.0,0.5,64,120.0
4936,F#2,474.0,0.5,70,120.0
4937,C2,474.0,0.5,67,120.0
4938,F#2,474.0,0.5,67,120.0
4939,E-3,474.5,0.25,70,120.0
4940,F#2,474.5,0.5,60,120.0
4941,F#2,474.5,0.5,60,120.0
4942,D2,475.0,0.5,84,120.0
4943,F#2,475.0,0.5,70,120.0
4944,F#4,475.0,667/1000,80,120.0
4945,E-4,475.0,667/1000,80,120.0
4946,C#4,475.0,667/1000,80,120.0
4947,B-4,475.0,667/1000,80,120.0
4948,D2,475.0,0.5,77,120.0
4949,F#2,475.0,0.5,77,120.0
4950,B-2,475.5,0.375,82,120.0
4951,C2,475.5,0.5,64,120.0
4952,F#2,475.5,0.5,60,120.0
4953,C2,475.5,0.5,62,120.0
4954,F#2,475.5,0.5,62,120.0
4955,G#2,476.0,1.125,87,120.0
4956,C2,476.0,0.5,64,120.0
4957,F#2,476.0,0.5,70,120.0
4958,F#4,476.0,249/125,70,120.0
4959,E-4,476.0,249/125,70,120.0
4960,C4,476.0,249/125,70,120.0
4961,B-4,476.0,249/125,70,120.0
4962,C2,476.0,0.5,67,120.0
4963,F#2,476.0,0.5,67,120.0
4964,F#2,476.5,0.5,60,120.0
4965,F#2,476.5,0.5,60,120.0
4966,D2,477.0,0.5,79,120.0
4967,F#2,477.0,0.5,70,120.0
4968,D2,477.0,0.5,74,120.0
4969,F#2,477.0,0.5,74,120.0
4970,G#2,477.5,0.375,88,120.0
4971,C2,477.5,0.5,54,120.0
4972,F#2,477.5,0.5,60,120.0
4973,C2,477.5,0.5,57,120.0
4974,F#2,477.5,0.5,57,120.0
4975,G#2,478.0,1.125,97,120.0
4976,C2,478.0,0.5,64,120.0
4977,F#2,478.0,0.5,70,120.0
4978,C2,478.0,0.5,67,120.0
4979,F#2,478.0,0.5,67,120.0
4980,G#3,478.5,0.25,70,120.0
4981,C2,478.5,0.5,54,120.0
4982,F#2,478.5,0.5,60,120.0
4983,C2,478.5,0.5,57,120.0
4984,F#2,478.5,0.5,57,120.0
4985,D2,479.0,0.5,84,120.0
4986,F#2,479.0,0.5,70,120.0
4987,F#4,479.0,667/1000,80,120.0
4988,E-4,479.0,667/1000,80,120.0
4989,C4,479.0,667/1000,80,120.0
4990,B-4,479.0,667/1000,80,120.0
4991,D2,479.0,0.5,77,120.0
4992,F#2,479.0,0.5,77,120.0
4993,G#2,479.5,0.375,84,120.0
4994,C2,479.5,0.5,64,120.0
4995,F#2,479.5,0.5,60,120.0
4996,C2,479.5,0.5,62,120.0
4997,F#2,479.5,0.5,62,120.0
4998,C#3,480.0,1.125,92,120.0
4999,C2,480.0,0.5,64,120.0
5000,F#2,480.0,0.5,70,120.0
5001,F4,480.0,0.75,70,120.0
5002,E-4,480.0,0.75,70,120.0
5003,C4,480.0,0.75,70,120.0
5004,G#4,480.0,0.75,70,120.0
5005,C2,480.0,0.5,67,120.0
5006,F#2,480.0,0.5,67,120.0
5007,F#2,480.5,0.5,60,120.0
5008,F#2,480.5,0.5,60,120.0
5009,D2,481.0,0.5,79,120.0
5010,F#2,481.0,0.5,70,120.0
5011,D2,481.0,0.5,74,120.0
5012,F#2,481.0,0.5,74,120.0
5013,C#3,481.5,0.375,76,120.0
5014,C2,481.5,0.5,54,120.0
5015,F#2,481.5,0.5,60,120.0
5016,C2,481.5,0.5,57,120.0
5017,F#2,481.5,0.5,57,120.0
5018,G#2,482.0,1.125,85,120.0
5019,C2,482.0,0.5,64,120.0
5020,F#2,482.0,0.5,70,120.0
5021,C2,482.0,0.5,67,120.0
5022,F#2,482.0,0.5,67,120.0
5023,F#2,482.5,0.5,60,120.0
5024,F#2,482.5,0.5,60,120.0
5025,D2,483.0,0.5,84,120.0
5026,F#2,483.0,0.5,70,120.0
5027,D2,483.0,0.5,77,120.0
5028,F#2,483.0,0.5,77,120.0
5029,G#2,483.5,0.375,77,120.0
5030,C2,483.5,0.5,64,120.0
5031,F#2,483.5,0.5,60,120.0
5032,C2,483.5,0.5,62,120.0
5033,F#2,483.5,0.5,62,120.0
5034,C#3,484.0,1.125,76,120.0
5035,C2,484.0,0.5,64,120.0
5036,F#2,484.0,0.5,70,120.0
5037,C2,484.0,0.5,67,120.0
5038,F#2,484.0,0.5,67,120.0
5039,F#2,484.5,0.5,60,120.0
5040,F#2,484.5,0.5,60,120.0
5041,F4,484.5,667/1000,70,120.0
5042,E-4,484.5,667/1000,70,120.0
5043,C4,484.5,667/1000,70,120.0
5044,G#4,484.5,667/1000,70,120.0
5045,D2,485.0,0.5,79,120.0
5046,F#2,485.0,0.5,70,120.0
5047,D2,485.0,0.5,74,120.0
5048,F#2,485.0,0.5,74,120.0
5049,C#3,485.5,0.375,79,120.0
5050,C2,485.5,0.5,54,120.0
5051,F#2,485.5,0.5,60,120.0
5052,C2,485.5,0.5,57,120.0
5053,F#2,485.5,0.5,57,120.0
5054,C#3,486.0,0.25,72,120.0
5055,G#3,486.0,0.75,86,120.0
5056,C2,486.0,0.5,64,120.0
5057,F#2,486.0,0.5,70,120.0
5058,C2,486.0,0.5,67,120.0
5059,F#2,486.0,0.5,67,120.0
5060,D2,486.5,167/1000,50,120.0
5061,F#2,486.5,167/1000,60,120.0
5062,F4,486.5,667/1000,70,120.0
5063,E-4,486.5,667/1000,70,120.0
5064,C4,486.5,667/1000,70,120.0
5065,G#4,486.5,667/1000,70,120.0
5066,D2,486.5,167/1000,55,120.0
5067,F#2,486.5,167/1000,55,120.0
5068,D2,486.667,167/1000,55,120.0
5069,D2,486.667,167/1000,55,120.0
5070,D2,486.833,167/1000,60,120.0
5071,D2,486.833,167/1000,60,120.0
5072,C#3,487.0,0.75,100,120.0
5073,D2,487.0,0.5,84,120.0
5074,F#2,487.0,0.5,70,120.0
5075,D2,487.0,0.5,77,120.0
5076,F#2,487.0,0.5,77,120.0
5077,C2,487.5,0.5,64,120.0
5078,D2,487.5,0.5,74,120.0
5079,B-2,487.5,0.5,60,120.0
5080,D2,487.5,0.5,66,120.0
5081,C2,487.5,0.5,66,120.0
5082,B-2,487.5,0.5,66,120.0
5083,D3,488.0,1.125,77,120.0
5084,C2,488.0,0.5,64,120.0
5085,F#2,488.0,0.5,70,120.0
5086,F4,488.0,0.75,70,120.0
5087,E4,488.0,0.75,70,120.0
5088,C4,488.0,0.75,70,120.0
5089,A4,488.0,0.75,70,120.0
5090,C2,488.0,0.5,67,120.0
5091,F#2,488.0,0.5,67,120.0
5092,F#2,488.5,0.5,60,120.0
5093,F#2,488.5,0.5,60,120.0
5094,D2,489.0,0.5,79,120.0
5095,C#3,489.0,0.5,70,120.0
5096,D2,489.0,0.5,74,120.0
5097,C#3,489.0,0.5,74,120.0
5098,D3,489.5,0.375,84,120.0
5099,C2,489.5,0.5,54,120.0
5100,F#2,489.5,0.5,60,120.0
5101,C2,489.5,0.5,57,120.0
5102,F#2,489.5,0.5,57,120.0
5103,D3,490.0,1.125,98,120.0
5104,C2,490.0,0.5,64,120.0
5105,F#2,490.0,0.5,70,120.0
5106,C2,490.0,0.5,67,120.0
5107,F#2,490.0,0.5,67,120.0
5108,F#2,490.5,0.5,60,120.0
5109,F#2,490.5,0.5,60,120.0
5110,D2,491.0,0.5,84,120.0
5111,F#2,491.0,0.5,70,120.0
5112,D2,491.0,0.5,77,120.0
5113,F#2,491.0,0.5,77,120.0
5114,D3,491.5,0.375,81,120.0
5115,C2,491.5,0.5,64,120.0
5116,F#2,491.5,0.5,60,120.0
5117,C2,491.5,0.5,62,120.0
5118,F#2,491.5,0.5,62,120.0
5119,G3,492.0,1.125,87,120.0
5120,C2,492.0,0.5,64,120.0
5121,F#2,492.0,0.5,70,120.0
5122,F4,492.0,0.75,70,120.0
5123,E-4,492.0,0.75,70,120.0
5124,B3,492.0,0.75,70,120.0
5125,G4,492.0,0.75,70,120.0
5126,C2,492.0,0.5,67,120.0
5127,F#2,492.0,0.5,67,120.0
5128,F#2,492.5,0.5,60,120.0
5129,F#2,492.5,0.5,60,120.0
5130,D2,493.0,0.5,79,120.0
5131,F#2,493.0,0.5,70,120.0
5132,D2,493.0,0.5,74,120.0
5133,F#2,493.0,0.5,74,120.0
5134,G3,493.5,0.375,83,120.0
5135,C2,493.5,0.5,54,120.0
5136,F#2,493.5,0.5,60,120.0
5137,C2,493.5,0.5,57,120.0
5138,F#2,493.5,0.5,57,120.0
5139,G3,494.0,1.125,104,120.0
5140,C2,494.0,0.5,64,120.0
5141,F#2,494.0,0.5,70,120.0
5142,C2,494.0,0.5,67,120.0
5143,F#2,494.0,0.5,67,120.0
5144,C2,494.5,0.5,54,120.0
5145,F#2,494.5,0.5,60,120.0
5146,C2,494.5,0.5,57,120.0
5147,F#2,494.5,0.5,57,120.0
5148,D2,495.0,0.5,84,120.0
5149,F#2,495.0,0.5,70,120.0
5150,D2,495.0,0.5,77,120.0
5151,F#2,495.0,0.5,77,120.0
5152,G3,495.5,0.375,85,120.0
5153,C2,495.5,0.5,64,120.0
5154,F#2,495.5,0.5,60,120.0
5155,C2,495.5,0.5,62,120.0
5156,F#2,495.5,0.5,62,120.0
5157,C3,496.0,1.125,82,120.0
5158,C2,496.0,0.5,64,120.0
5159,F#2,496.0,0.5,70,120.0
5160,C2,496.0,0.5,67,120.0
5161,F#2,496.0,0.5,67,120.0
5162,F#2,496.5,0.5,60,120.0
5163,F#2,496.5,0.5,60,120.0
5164,E4,496.5,667/1000,70,120.0
5165,D4,496.5,667/1000,70,120.0
5166,B3,496.5,667/1000,70,120.0
5167,G4,496.5,667/1000,70,120.0
5168,D2,497.0,0.5,79,120.0
5169,F#2,497.0,0.5,70,120.0
5170,D2,497.0,0.5,74,120.0
5171,F#2,497.0,0.5,74,120.0
5172,C3,497.5,0.375,76,120.0
5173,C2,497.5,0.5,54,120.0
5174,F#2,497.5,0.5,60,120.0
5175,C2,497.5,0.5,57,120.0
5176,F#2,497.5,0.5,57,120.0
5177,C3,498.0,1.125,101,120.0
5178,C2,498.0,0.5,64,120.0
5179,F#2,498.0,0.5,70,120.0
5180,E4,498.0,1.75,70,120.0
5181,D4,498.0,1.75,70,120.0
5182,B3,498.0,1.75,70,120.0
5183,G4,498.0,1.75,70,120.0
5184,C2,498.0,0.5,67,120.0
5185,F#2,498.0,0.5,67,120.0
5186,F#2,498.5,0.5,60,120.0
5187,F#2,498.5,0.5,60,120.0
5188,D2,499.0,0.5,84,120.0
5189,F#2,499.0,0.5,70,120.0
5190,D2,499.0,0.5,77,120.0
5191,F#2,499.0,0.5,77,120.0
5192,C3,499.5,0.375,78,120.0
5193,C2,499.5,0.5,64,120.0
5194,F#2,499.5,0.5,60,120.0
5195,C2,499.5,0.5,62,120.0
5196,F#2,499.5,0.5,62,120.0
5197,C3,500.0,0.25,70,120.0
5198,C3,500.0,1.125,88,120.0
5199,C2,500.0,0.5,64,120.0
5200,F#2,500.0,0.5,70,120.0
5201,C2,500.0,0.5,67,120.0
5202,F#2,500.0,0.5,67,120.0
5203,F2,500.5,0.5,60,120.0
5204,F#2,500.5,0.5,60,120.0
5205,E4,500.5,667/1000,70,120.0
5206,D4,500.5,667/1000,70,120.0
5207,B3,500.5,667/1000,70,120.0
5208,G4,500.5,667/1000,70,120.0
5209,F2,500.5,0.5,60,120.0
5210,F#2,500.5,0.5,60,120.0
5211,D2,501.0,0.5,79,120.0
5212,F#2,501.0,0.5,70,120.0
5213,D2,501.0,0.5,74,120.0
5214,F#2,501.0,0.5,74,120.0
5215,C3,501.5,0.375,89,120.0
5216,C2,501.5,0.5,54,120.0
5217,F#2,501.5,0.5,60,120.0
5218,C2,501.5,0.5,57,120.0
5219,F#2,501.5,0.5,57,120.0
5220,C3,502.0,1.125,95,120.0
5221,C2,502.0,0.5,64,120.0
5222,F#2,502.0,0.5,70,120.0
5223,E4,502.0,1.75,70,120.0
5224,D4,502.0,1.75,70,120.0
5225,B3,502.0,1.75,70,120.0
5226,G4,502.0,1.75,70,120.0
5227,C2,502.0,0.5,67,120.0
5228,F#2,502.0,0.5,67,120.0
5229,C2,502.5,0.5,54,120.0
5230,F2,502.5,0.5,70,120.0
5231,F#2,502.5,0.5,60,120.0
5232,C2,502.5,0.5,61,120.0
5233,F2,502.5,0.5,61,120.0
5234,F#2,502.5,0.5,61,120.0
5235,D2,503.0,0.5,84,120.0
5236,F#2,503.0,0.5,70,120.0
5237,D2,503.0,0.5,77,120.0
5238,F#2,503.0,0.5,77,120.0
5239,C3,503.5,0.375,78,120.0
5240,C2,503.5,0.5,64,120.0
5241,F#2,503.5,0.5,60,120.0
5242,C2,503.5,0.5,62,120.0
5243,F#2,503.5,0.5,62,120.0
5244,B-2,504.0,1.125,83,120.0
5245,C2,504.0,0.5,64,120.0
5246,F#2,504.0,0.5,70,120.0
5247,F4,504.0,249/125,70,120.0
5248,D4,504.0,249/125,70,120.0
5249,B-3,504.0,249/125,70,120.0
5250,G4,504.0,249/125,70,120.0
5251,C2,504.0,0.5,67,120.0
5252,F#2,504.0,0.5,67,120.0
5253,F#2,504.5,0.5,60,120.0
5254,F#2,504.5,0.5,60,120.0
5255,D2,505.0,0.5,79,120.0
5256,F#2,505.0,0.5,70,120.0
5257,D2,505.0,0.5,74,120.0
5258,F#2,505.0,0.5,74,120.0
5259,B-2,505.5,0.375,82,120.0
5260,C2,505.5,0.5,54,120.0
5261,F#2,505.5,0.5,60,120.0
5262,C2,505.5,0.5,57,120.0
5263,F#2,505.5,0.5,57,120.0
5264,B-2,506.0,1.125,99,120.0
5265,C2,506.0,0.5,64,120.0
5266,F#2,506.0,0.5,70,120.0
5267,C2,506.0,0.5,67,120.0
5268,F#2,506.0,0.5,67,120.0
5269,F#2,506.5,0.5,60,120.0
5270,F#2,506.5,0.5,60,120.0
5271,F4,506.5,667/1000,70,120.0
5272,D4,506.5,667/1000,70,120.0
5273,B-3,506.5,667/1000,70,120.0
5274,G4,506.5,667/1000,70,120.0
5275,D2,507.0,0.5,84,120.0
5276,F#2,507.0,0.5,70,120.0
5277,D2,507.0,0.5,77,120.0
5278,F#2,507.0,0.5,77,120.0
5279,B3,507.5,0.25,70,120.0
5280,B-2,507.5,0.375,94,120.0
5281,C2,507.5,0.5,64,120.0
5282,F#2,507.5,0.5,60,120.0
5283,C2,507.5,0.5,62,120.0
5284,F#2,507.5,0.5,62,120.0
5285,B2,508.0,0.25,64,120.0
5286,B2,508.0,1.125,81,120.0
5287,C2,508.0,0.5,64,120.0
5288,F#2,508.0,0.5,70,120.0
5289,C2,508.0,0.5,67,120.0
5290,F#2,508.0,0.5,67,120.0
5291,F#2,508.5,0.5,60,120.0
5292,F#2,508.5,0.5,60,120.0
5293,F4,508.5,667/1000,70,120.0
5294,D4,508.5,667/1000,70,120.0
5295,B3,508.5,667/1000,70,120.0
5296,G4,508.5,667/1000,70,120.0
5297,D2,509.0,0.5,79,120.0
5298,F#2,509.0,0.5,70,120.0
5299,D2,509.0,0.5,74,120.0
5300,F#2,509.0,0.5,74,120.0
5301,B2,509.5,0.375,81,120.0
5302,C2,509.5,0.5,54,120.0
5303,F#2,509.5,0.5,60,120.0
5304,C2,509.5,0.5,57,120.0
5305,F#2,509.5,0.5,57,120.0
5306,B2,510.0,1.125,100,120.0
5307,C2,510.0,0.5,64,120.0
5308,F#2,510.0,0.5,70,120.0
5309,F4,510.0,1.75,70,120.0
5310,D4,510.0,1.75,70,120.0
5311,B3,510.0,1.75,70,120.0
5312,G4,510.0,1.75,70,120.0
5313,C2,510.0,0.5,67,120.0
5314,F#2,510.0,0.5,67,120.0
5315,C2,510.5,0.5,54,120.0
5316,F#2,510.5,0.5,60,120.0
5317,C2,510.5,0.5,57,120.0
5318,F#2,510.5,0.5,57,120.0
5319,D2,511.0,0.5,84,120.0
5320,F#2,511.0,0.5,70,120.0
5321,D2,511.0,0.5,77,120.0
5322,F#2,511.0,0.5,77,120.0
5323,B2,511.5,0.375,84,120.0
5324,C2,511.5,0.5,64,120.0
5325,B-2,511.5,0.5,60,120.0
5326,C2,511.5,0.5,62,120.0
5327,B-2,511.5,0.5,62,120.0
5328,C3,512.0,1.125,76,120.0
5329,C2,512.0,0.5,64,120.0
5330,F#2,512.0,0.5,70,120.0
5331,F4,512.0,249/125,70,120.0
5332,D4,512.0,249/125,70,120.0
5333,B-3,512.0,249/125,70,120.0
5334,G4,512.0,249/125,70,120.0
5335,C2,512.0,0.5,67,120.0
5336,F#2,512.0,0.5,67,120.0
5337,F#2,512.5,0.5,60,120.0
5338,F#2,512.5,0.5,60,120.0
5339,D2,513.0,0.5,79,120.0
5340,F#2,513.0,0.5,70,120.0
5341,D2,513.0,0.5,74,120.0
5342,F#2,513.0,0.5,74,120.0
5343,C3,513.5,0.375,86,120.0
5344,C2,513.5,0.5,54,120.0
5345,F#2,513.5,0.5,60,120.0
5346,C2,513.5,0.5,57,120.0
5347,F#2,513.5,0.5,57,120.0
5348,C3,514.0,1.125,92,120.0
5349,C2,514.0,0.5,64,120.0
5350,F#2,514.0,0.5,70,120.0
5351,C2,514.0,0.5,67,120.0
5352,F#2,514.0,0.5,67,120.0
5353,F#2,514.5,0.5,60,120.0
5354,F#2,514.5,0.5,60,120.0
5355,D2,515.0,0.5,84,120.0
5356,F#2,515.0,0.5,70,120.0
5357,F4,515.0,667/1000,80,120.0
5358,D4,515.0,667/1000,80,120.0
5359,B-3,515.0,667/1000,80,120.0
5360,G4,515.0,667/1000,80,120.0
5361,D2,515.0,0.5,77,120.0
5362,F#2,515.0,0.5,77,120.0
5363,C3,515.5,0.375,94,120.0
5364,C2,515.5,0.5,64,120.0
5365,F#2,515.5,0.5,60,120.0
5366,C2,515.5,0.5,62,120.0
5367,F#2,515.5,0.5,62,120.0
5368,C3,516.0,1.125,92,120.0
5369,C2,516.0,0.5,64,120.0
5370,F#2,516.0,0.5,70,120.0
5371,C2,516.0,0.5,67,120.0
5372,F#2,516.0,0.5,67,120.0
5373,D2,516.5,167/1000,50,120.0
5374,F#2,516.5,167/1000,60,120.0
5375,E4,516.5,667/1000,70,120.0
5376,C4,516.5,667/1000,70,120.0
5377,B-3,516.5,667/1000,70,120.0
5378,G#4,516.5,667/1000,70,120.0
5379,D2,516.5,167/1000,55,120.0
5380,F#2,516.5,167/1000,55,120.0
5381,D2,516.667,167/1000,55,120.0
5382,D2,516.667,167/1000,55,120.0
5383,D2,516.833,167/1000,60,120.0
5384,D2,516.833,167/1000,60,120.0
5385,D2,517.0,0.5,75,120.0
5386,F#2,517.0,0.5,60,120.0
5387,D2,517.0,0.5,68,120.0
5388,F#2,517.0,0.5,68,120.0
5389,C3,517.5,0.375,82,120.0
5390,C2,517.5,0.5,54,120.0
5391,F#2,517.5,0.5,70,120.0
5392,A2,517.5,0.5,70,120.0
5393,C2,517.5,0.5,65,120.0
5394,A2,517.5,0.5,65,120.0
5395,F#2,517.5,0.5,65,120.0
5396,C3,518.0,1.125,93,120.0
5397,C2,518.0,0.5,64,120.0
5398,F#2,518.0,0.5,70,120.0
5399,C3,518.0,0.5,70,120.0
5400,E4,518.0,1.75,70,120.0
5401,C4,518.0,1.75,70,120.0
5402,B-3,518.0,1.75,70,120.0
5403,G#4,518.0,1.75,70,120.0
5404,C3,518.0,0.5,68,120.0
5405,C2,518.0,0.5,68,120.0
5406,F#2,518.0,0.5,68,120.0
5407,F#2,518.5,0.5,60,120.0
5408,A2,518.5,0.5,65,120.0
5409,A2,518.5,0.5,62,120.0
5410,F#2,518.5,0.5,62,120.0
5411,F#2,519.0,0.5,70,120.0
5412,A2,519.0,0.5,75,120.0
5413,A2,519.0,0.5,72,120.0
5414,F#2,519.0,0.5,72,120.0
5415,C3,519.5,0.375,91,120.0
5416,C2,519.5,0.5,64,120.0
5417,F2,519.5,0.5,90,120.0
5418,F#2,519.5,0.5,60,120.0
5419,F2,519.5,0.5,71,120.0
5420,C2,519.5,0.5,71,120.0
5421,F#2,519.5,0.5,71,120.0
5422,F3,520.0,1.125,76,120.0
5423,C2,520.0,0.5,64,120.0
5424,C#3,520.0,0.5,70,120.0
5425,F4,520.0,249/125,70,120.0
5426,E-4,520.0,249/125,70,120.0
5427,C4,520.0,249/125,70,120.0
5428,G#4,520.0,249/125,70,120.0
5429,C2,520.0,0.5,67,120.0
5430,C#3,520.0,0.5,67,120.0
5431,F#2,520.5,0.5,60,120.0
5432,F#2,520.5,0.5,60,120.0
5433,D2,521.0,0.5,79,120.0
5434,F#2,521.0,0.5,70,120.0
5435,D2,521.0,0.5,74,120.0
5436,F#2,521.0,0.5,74,120.0
5437,F3,521.5,0.375,90,120.0
5438,C2,521.5,0.5,54,120.0
5439,F#2,521.5,0.5,60,120.0
5440,C2,521.5,0.5,57,120.0
5441,F#2,521.5,0.5,57,120.0
5442,F3,522.0,1.125,102,120.0
5443,C2,522.0,0.5,64,120.0
5444,F#2,522.0,0.5,70,120.0
5445,C2,522.0,0.5,67,120.0
5446,F#2,522.0,0.5,67,120.0
5447,F3,522.5,0.25,74,120.0
5448,F#2,522.5,0.5,60,120.0
5449,F#2,522.5,0.5,60,120.0
5450,D2,523.0,0.5,84,120.0
5451,F#2,523.0,0.5,70,120.0
5452,F4,523.0,667/1000,80,120.0
5453,E-4,523.0,667/1000,80,120.0
5454,C4,523.0,667/1000,80,120.0
5455,G#4,523.0,667/1000,80,120.0
5456,D2,523.0,0.5,77,120.0
5457,F#2,523.0,0.5,77,120.0
5458,F3,523.5,0.375,93,120.0
5459,C2,523.5,0.5,64,120.0
5460,F#2,523.5,0.5,60,120.0
5461,C2,523.5,0.5,62,120.0
5462,F#2,523.5,0.5,62,120.0
5463,F3,524.0,0.25,65,120.0
5464,F3,524.0,1.125,93,120.0
5465,C2,524.0,0.5,64,120.0
5466,F#2,524.0,0.5,70,120.0
5467,C2,524.0,0.5,67,120.0
5468,F#2,524.0,0.5,67,120.0
5469,F#2,524.5,0.5,60,120.0
5470,F#2,524.5,0.5,60,120.0
5471,F4,524.5,667/1000,70,120.0
5472,E4,524.5,667/1000,70,120.0
5473,C4,524.5,667/1000,70,120.0
5474,G#4,524.5,667/1000,70,120.0
5475,D2,525.0,0.5,79,120.0
5476,F#2,525.0,0.5,70,120.0
5477,D2,525.0,0.5,74,120.0
5478,F#2,525.0,0.5,74,120.0
5479,F3,525.5,0.25,65,120.0
5480,F3,525.5,0.375,93,120.0
5481,C2,525.5,0.5,54,120.0
5482,F#2,525.5,0.5,60,120.0
5483,C2,525.5,0.5,57,120.0
5484,F#2,525.5,0.5,57,120.0
5485,F3,526.0,1.125,92,120.0
5486,C2,526.0,0.5,64,120.0
5487,F#2,526.0,0.5,70,120.0
5488,F4,526.0,1.75,70,120.0
5489,E4,526.0,1.75,70,120.0
5490,C4,526.0,1.75,70,120.0
5491,G#4,526.0,1.75,70,120.0
5492,C2,526.0,0.5,67,120.0
5493,F#2,526.0,0.5,67,120.0
5494,C2,526.5,0.5,54,120.0
5495,F#2,526.5,0.5,60,120.0
5496,C2,526.5,0.5,57,120.0
5497,F#2,526.5,0.5,57,120.0
5498,D2,527.0,0.5,84,120.0
5499,F#2,527.0,0.5,70,120.0
5500,D2,527.0,0.5,77,120.0
5501,F#2,527.0,0.5,77,120.0
5502,F3,527.5,0.375,94,120.0
5503,C2,527.5,0.5,64,120.0
5504,F#2,527.5,0.5,60,120.0
5505,C2,527.5,0.5,62,120.0
5506,F#2,527.5,0.5,62,120.0
5507,F3,528.0,1.125,75,120.0
5508,C2,528.0,0.5,64,120.0
5509,F#2,528.0,0.5,70,120.0
5510,F4,528.0,249/125,70,120.0
5511,E-4,528.0,249/125,70,120.0
5512,C4,528.0,249/125,70,120.0
5513,G#4,528.0,249/125,70,120.0
5514,C2,528.0,0.5,67,120.0
5515,F#2,528.0,0.5,67,120.0
5516,F#2,528.5,0.5,60,120.0
5517,F#2,528.5,0.5,60,120.0
5518,D2,529.0,0.5,79,120.0
5519,F#2,529.0,0.5,70,120.0
5520,D2,529.0,0.5,74,120.0
5521,F#2,529.0,0.5,74,120.0
5522,F3,529.5,0.375,92,120.0
5523,C2,529.5,0.5,54,120.0
5524,F#2,529.5,0.5,60,120.0
5525,C2,529.5,0.5,57,120.0
5526,F#2,529.5,0.5,57,120.0
5527,F3,530.0,0.25,73,120.0
5528,F3,530.0,1.125,90,120.0
5529,C2,530.0,0.5,64,120.0
5530,F#2,530.0,0.5,70,120.0
5531,C2,530.0,0.5,67,120.0
5532,F#2,530.0,0.5,67,120.0
5533,F#2,530.5,0.5,60,120.0
5534,F#2,530.5,0.5,60,120.0
5535,F4,530.5,667/1000,70,120.0
5536,E-4,530.5,667/1000,70,120.0
5537,C4,530.5,667/1000,70,120.0
5538,G#4,530.5,667/1000,70,120.0
5539,D2,531.0,0.5,84,120.0
5540,F#2,531.0,0.5,70,120.0
5541,D2,531.0,0.5,77,120.0
5542,F#2,531.0,0.5,77,120.0
5543,B-2,531.5,0.25,70,120.0
5544,F3,531.5,0.375,86,120.0
5545,C2,531.5,0.5,64,120.0
5546,B-2,531.5,0.5,60,120.0
5547,C2,531.5,0.5,62,120.0
5548,B-2,531.5,0.5,62,120.0
5549,B-2,532.0,1.125,91,120.0
5550,C2,532.0,0.5,64,120.0
5551,F#2,532.0,0.5,70,120.0
5552,G#4,532.0,0.75,70,120.0
5553,F4,532.0,0.75,70,120.0
5554,D4,532.0,0.75,70,120.0
5555,C5,532.0,0.75,70,120.0
5556,C2,532.0,0.5,67,120.0
5557,F#2,532.0,0.5,67,120.0
5558,F#2,532.5,0.5,60,120.0
5559,F#2,532.5,0.5,60,120.0
5560,D2,533.0,0.5,79,120.0
5561,F#2,533.0,0.5,70,120.0
5562,D2,533.0,0.5,74,120.0
5563,F#2,533.0,0.5,74,120.0
5564,B-2,533.5,0.375,76,120.0
5565,C2,533.5,0.5,54,120.0
5566,F#2,533.5,0.5,60,120.0
5567,C2,533.5,0.5,57,120.0
5568,F#2,533.5,0.5,57,120.0
5569,B-2,534.0,1.125,95,120.0
5570,C2,534.0,0.5,64,120.0
5571,F#2,534.0,0.5,70,120.0
5572,C2,534.0,0.5,67,120.0
5573,F#2,534.0,0.5,67,120.0
5574,C2,534.5,0.5,54,120.0
5575,F#2,534.5,0.5,60,120.0
5576,C2,534.5,0.5,57,120.0
5577,F#2,534.5,0.5,57,120.0
5578,D2,535.0,0.5,84,120.0
5579,F#2,535.0,0.5,70,120.0
5580,D2,535.0,0.5,77,120.0
5581,F#2,535.0,0.5,77,120.0
5582,B-2,535.5,0.375,80,120.0
5583,C2,535.5,0.5,64,120.0
5584,F#2,535.5,0.5,60,120.0
5585,C2,535.5,0.5,62,120.0
5586,F#2,535.5,0.5,62,120.0
5587,F3,536.0,1.125,82,120.0
5588,C2,536.0,0.5,64,120.0
5589,F#2,536.0,0.5,70,120.0
5590,F4,536.0,249/125,70,120.0
5591,E-4,536.0,249/125,70,120.0
5592,C4,536.0,249/125,70,120.0
5593,G#4,536.0,249/125,70,120.0
5594,C2,536.0,0.5,67,120.0
5595,F#2,536.0,0.5,67,120.0
5596,F#2,536.5,0.5,60,120.0
5597,F#2,536.5,0.5,60,120.0
5598,D2,537.0,0.5,79,120.0
5599,F#2,537.0,0.5,70,120.0
5600,D2,537.0,0.5,74,120.0
5601,F#2,537.0,0.5,74,120.0
5602,F3,537.5,0.375,84,120.0
5603,C2,537.5,0.5,54,120.0
5604,F#2,537.5,0.5,60,120.0
5605,C2,537.5,0.5,57,120.0
5606,F#2,537.5,0.5,57,120.0
5607,F3,538.0,1.125,94,120.0
5608,C2,538.0,0.5,64,120.0
5609,F#2,538.0,0.5,70,120.0
5610,C2,538.0,0.5,67,120.0
5611,F#2,538.0,0.5,67,120.0
5612,F#2,538.5,0.5,60,120.0
5613,F#2,538.5,0.5,60,120.0
5614,F4,538.5,667/1000,70,120.0
5615,E-4,538.5,667/1000,70,120.0
5616,C4,538.5,667/1000,70,120.0
5617,G#4,538.5,667/1000,70,120.0
5618,D2,539.0,0.5,84,120.0
5619,F#2,539.0,0.5,70,120.0
5620,D2,539.0,0.5,77,120.0
5621,F#2,539.0,0.5,77,120.0
5622,C#3,539.5,0.25,70,120.0
5623,F3,539.5,0.375,87,120.0
5624,C2,539.5,0.5,64,120.0
5625,F#2,539.5,0.5,60,120.0
5626,C2,539.5,0.5,62,120.0
5627,F#2,539.5,0.5,62,120.0
5628,C#3,540.0,1.125,81,120.0
5629,C2,540.0,0.5,64,120.0
5630,F#2,540.0,0.5,70,120.0
5631,C2,540.0,0.5,67,120.0
5632,F#2,540.0,0.5,67,120.0
5633,F#2,540.5,0.5,60,120.0
5634,F#2,540.5,0.5,60,120.0
5635,F4,540.5,667/1000,70,120.0
5636,E-4,540.5,667/1000,70,120.0
5637,B3,540.5,667/1000,70,120.0
5638,G#4,540.5,667/1000,70,120.0
5639,D2,541.0,0.5,79,120.0
5640,F#2,541.0,0.5,70,120.0
5641,D2,541.0,0.5,74,120.0
5642,F#2,541.0,0.5,74,120.0
5643,C#3,541.5,0.25,67,120.0
5644,C#3,541.5,0.375,86,120.0
5645,C2,541.5,0.5,54,120.0
5646,F#2,541.5,0.5,60,120.0
5647,C2,541.5,0.5,57,120.0
5648,F#2,541.5,0.5,57,120.0
5649,C#3,542.0,1.125,103,120.0
5650,C2,542.0,0.5,64,120.0
5651,F#2,542.0,0.5,70,120.0
5652,F4,542.0,1.75,70,120.0
5653,E-4,542.0,1.75,70,120.0
5654,B3,542.0,1.75,70,120.0
5655,G#4,542.0,1.75,70,120.0
5656,C2,542.0,0.5,67,120.0
5657,F#2,542.0,0.5,67,120.0
5658,C2,542.5,0.5,54,120.0
5659,F#2,542.5,0.5,60,120.0
5660,C2,542.5,0.5,57,120.0
5661,F#2,542.5,0.5,57,120.0
5662,D2,543.0,0.5,84,120.0
5663,F#2,543.0,0.5,70,120.0
5664,D2,543.0,0.5,77,120.0
5665,F#2,543.0,0.5,77,120.0
5666,C#3,543.5,0.375,94,120.0
5667,C2,543.5,0.5,64,120.0
5668,F#2,543.5,0.5,60,120.0
5669,C2,543.5,0.5,62,120.0
5670,F#2,543.5,0.5,62,120.0
5671,G3,544.0,1.125,80,120.0
5672,C2,544.0,0.5,64,120.0
5673,F#2,544.0,0.5,70,120.0
5674,F4,544.0,0.75,70,120.0
5675,D4,544.0,0.75,70,120.0
5676,B-3,544.0,0.75,70,120.0
5677,G4,544.0,0.75,70,120.0
5678,C2,544.0,0.5,67,120.0
5679,F#2,544.0,0.5,67,120.0
5680,F#2,544.5,0.5,60,120.0
5681,F#2,544.5,0.5,60,120.0
5682,D2,545.0,0.5,79,120.0
5683,F#2,545.0,0.5,70,120.0
5684,D2,545.0,0.5,74,120.0
5685,F#2,545.0,0.5,74,120.0
5686,G3,545.5,0.375,78,120.0
5687,C2,545.5,0.5,54,120.0
5688,F#2,545.5,0.5,60,120.0
5689,C2,545.5,0.5,57,120.0
5690,F#2,545.5,0.5,57,120.0
5691,G3,546.0,1.125,92,120.0
5692,C2,546.0,0.5,64,120.0
5693,F#2,546.0,0.5,70,120.0
5694,C2,546.0,0.5,67,120.0
5695,F#2,546.0,0.5,67,120.0
5696,F#2,546.5,0.5,60,120.0
5697,F#2,546.5,0.5,60,120.0
5698,D2,547.0,0.5,84,120.0
5699,F#2,547.0,0.5,70,120.0
5700,D2,547.0,0.5,77,120.0
5701,F#2,547.0,0.5,77,120.0
5702,G3,547.5,0.375,77,120.0
5703,C2,547.5,0.5,64,120.0
5704,F#2,547.5,0.5,60,120.0
5705,C2,547.5,0.5,62,120.0
5706,F#2,547.5,0.5,62,120.0
5707,C3,548.0,1.125,87,120.0
5708,C2,548.0,0.5,64,120.0
5709,F#2,548.0,0.5,70,120.0
5710,E4,548.0,249/125,70,120.0
5711,C4,548.0,249/125,70,120.0
5712,B-3,548.0,249/125,70,120.0
5713,G#4,548.0,249/125,70,120.0
5714,C2,548.0,0.5,67,120.0
5715,F#2,548.0,0.5,67,120.0
5716,F#2,548.5,0.5,60,120.0
5717,F#2,548.5,0.5,60,120.0
5718,D2,549.0,0.5,79,120.0
5719,F#2,549.0,0.5,70,120.0
5720,D2,549.0,0.5,74,120.0
5721,F#2,549.0,0.5,74,120.0
5722,C3,549.5,0.375,76,120.0
5723,C2,549.5,0.5,54,120.0
5724,F#2,549.5,0.5,60,120.0
5725,C2,549.5,0.5,57,120.0
5726,F#2,549.5,0.5,57,120.0
5727,C3,550.0,0.25,67,120.0
5728,C3,550.0,1.125,96,120.0
5729,C2,550.0,0.25,64,120.0
5730,D2,550.0,0.25,60,120.0
5731,F#2,550.0,0.25,70,120.0
5732,D2,550.0,0.25,65,120.0
5733,C2,550.0,0.25,65,120.0
5734,F#2,550.0,0.25,65,120.0
5735,D2,550.25,0.25,65,120.0
5736,D2,550.25,0.25,65,120.0
5737,D2,550.5,0.25,65,120.0
5738,F#2,550.5,0.25,60,120.0
5739,E4,550.5,667/1000,70,120.0
5740,C4,550.5,667/1000,70,120.0
5741,B-3,550.5,667/1000,70,120.0
5742,G#4,550.5,667/1000,70,120.0
5743,D2,550.5,0.25,62,120.0
5744,F#2,550.5,0.25,62,120.0
5745,D2,550.75,0.25,70,120.0
5746,D2,550.75,0.25,70,120.0
5747,F#2,551.0,0.25,70,120.0
5748,A2,551.0,0.25,80,120.0
5749,A2,551.0,0.25,75,120.0
5750,F#2,551.0,0.25,75,120.0
5751,A2,551.25,0.25,70,120.0
5752,A2,551.25,0.25,70,120.0
5753,F3,551.5,0.25,70,120.0
5754,C3,551.5,0.375,81,120.0
5755,C2,551.5,0.25,64,120.0
5756,F#2,551.5,0.25,60,120.0
5757,A2,551.5,0.25,70,120.0
5758,A2,551.5,0.25,65,120.0
5759,C2,551.5,0.25,65,120.0
5760,F#2,551.5,0.25,65,120.0
5761,A2,551.75,0.25,70,120.0
5762,A2,551.75,0.25,70,120.0
5763,F3,552.0,1.125,91,120.0
5764,C2,552.0,0.5,64,120.0
5765,C#3,552.0,0.5,70,120.0
5766,F4,552.0,249/125,70,120.0
5767,E-4,552.0,249/125,70,120.0
5768,C4,552.0,249/125,70,120.0
5769,G#4,552.0,249/125,70,120.0
5770,C2,552.0,0.5,67,120.0
5771,C#3,552.0,0.5,67,120.0
5772,F#2,552.5,0.5,60,120.0
5773,F#2,552.5,0.5,60,120.0
5774,D2,553.0,0.5,79,120.0
5775,F#2,553.0,0.5,70,120.0
5776,D2,553.0,0.5,74,120.0
5777,F#2,553.0,0.5,74,120.0
5778,F3,553.5,0.375,89,120.0
5779,C2,553.5,0.5,54,120.0
5780,F#2,553.5,0.5,60,120.0
5781,C2,553.5,0.5,57,120.0
5782,F#2,553.5,0.5,57,120.0
5783,F3,554.0,0.25,71,120.0
5784,F3,554.0,1.125,103,120.0
5785,C2,554.0,0.5,64,120.0
5786,F#2,554.0,0.5,70,120.0
5787,C2,554.0,0.5,67,120.0
5788,F#2,554.0,0.5,67,120.0
5789,F#2,554.5,0.5,60,120.0
5790,F#2,554.5,0.5,60,120.0
5791,F4,554.5,667/1000,70,120.0
5792,E-4,554.5,667/1000,70,120.0
5793,C4,554.5,667/1000,70,120.0
5794,G#4,554.5,667/1000,70,120.0
5795,D2,555.0,0.5,84,120.0
5796,F#2,555.0,0.5,70,120.0
5797,D2,555.0,0.5,77,120.0
5798,F#2,555.0,0.5,77,120.0
5799,F3,555.5,0.375,80,120.0
5800,C2,555.5,0.5,64,120.0
5801,F#2,555.5,0.5,60,120.0
5802,C2,555.5,0.5,62,120.0
5803,F#2,555.5,0.5,62,120.0
5804,F3,556.0,1.125,91,120.0
5805,C2,556.0,0.5,64,120.0
5806,F#2,556.0,0.5,70,120.0
5807,F4,556.0,249/125,70,120.0
5808,E4,556.0,249/125,70,120.0
5809,C4,556.0,249/125,70,120.0
5810,G#4,556.0,249/125,70,120.0
5811,C2,556.0,0.5,67,120.0
5812,F#2,556.0,0.5,67,120.0
5813,F#2,556.5,0.5,60,120.0
5814,F#2,556.5,0.5,60,120.0
5815,D2,557.0,0.5,79,120.0
5816,F#2,557.0,0.5,70,120.0
5817,D2,557.0,0.5,74,120.0
5818,F#2,557.0,0.5,74,120.0
5819,F3,557.5,0.375,76,120.0
5820,C2,557.5,0.5,54,120.0
5821,F#2,557.5,0.5,60,120.0
5822,C2,557.5,0.5,57,120.0
5823,F#2,557.5,0.5,57,120.0
5824,F3,558.0,0.25,70,120.0
5825,F3,558.0,1.125,102,120.0
5826,C2,558.0,0.5,64,120.0
5827,F#2,558.0,0.5,70,120.0
5828,C2,558.0,0.5,67,120.0
5829,F#2,558.0,0.5,67,120.0
5830,C2,558.5,0.5,54,120.0
5831,F#2,558.5,0.5,60,120.0
5832,F4,558.5,667/1000,70,120.0
5833,E4,558.5,667/1000,70,120.0
5834,C4,558.5,667/1000,70,120.0
5835,G#4,558.5,667/1000,70,120.0
5836,C2,558.5,0.5,57,120.0
5837,F#2,558.5,0.5,57,120.0
5838,D2,559.0,0.5,84,120.0
5839,F#2,559.0,0.5,70,120.0
5840,D2,559.0,0.5,77,120.0
5841,F#2,559.0,0.5,77,120.0
5842,F3,559.5,0.25,70,120.0
5843,F3,559.5,0.375,90,120.0
5844,C2,559.5,0.5,64,120.0
5845,F#2,559.5,0.5,60,120.0
5846,C2,559.5,0.5,62,120.0
5847,F#2,559.5,0.5,62,120.0
5848,F3,560.0,1.125,84,120.0
5849,C2,560.0,0.5,64,120.0
5850,F#2,560.0,0.5,70,120.0
5851,F4,560.0,0.75,70,120.0
5852,E-4,560.0,0.75,70,120.0
5853,C4,560.0,0.75,70,120.0
5854,G#4,560.0,0.75,70,120.0
5855,C2,560.0,0.5,67,120.0
5856,F#2,560.0,0.5,67,120.0
5857,F#2,560.5,0.5,60,120.0
5858,F#2,560.5,0.5,60,120.0
5859,D2,561.0,0.5,79,120.0
5860,F#2,561.0,0.5,70,120.0
5861,D2,561.0,0.5,74,120.0
5862,F#2,561.0,0.5,74,120.0
5863,F3,561.5,0.375,85,120.0
5864,C2,561.5,0.5,54,120.0
5865,F#2,561.5,0.5,60,120.0
5866,C2,561.5,0.5,57,120.0
5867,F#2,561.5,0.5,57,120.0
5868,F3,562.0,1.125,85,120.0
5869,C2,562.0,0.5,64,120.0
5870,F#2,562.0,0.5,70,120.0
5871,C2,562.0,0.5,67,120.0
5872,F#2,562.0,0.5,67,120.0
5873,F#2,562.5,0.5,60,120.0
5874,F#2,562.5,0.5,60,120.0
5875,D2,563.0,0.5,84,120.0
5876,F#2,563.0,0.5,70,120.0
5877,D2,563.0,0.5,77,120.0
5878,F#2,563.0,0.5,77,120.0
5879,F3,563.5,0.375,81,120.0
5880,C2,563.5,0.5,64,120.0
5881,F#2,563.5,0.5,60,120.0
5882,C2,563.5,0.5,62,120.0
5883,F#2,563.5,0.5,62,120.0
5884,B-2,564.0,1.125,81,120.0
5885,C2,564.0,0.5,64,120.0
5886,F#2,564.0,0.5,70,120.0
5887,G#4,564.0,249/125,70,120.0
5888,F4,564.0,249/125,70,120.0
5889,D4,564.0,249/125,70,120.0
5890,C5,564.0,249/125,70,120.0
5891,C2,564.0,0.5,67,120.0
5892,F#2,564.0,0.5,67,120.0
5893,F2,564.5,0.5,60,120.0
5894,F#2,564.5,0.5,60,120.0
5895,F2,564.5,0.5,60,120.0
5896,F#2,564.5,0.5,60,120.0
5897,D2,565.0,0.5,79,120.0
5898,F#2,565.0,0.5,70,120.0
5899,D2,565.0,0.5,74,120.0
5900,F#2,565.0,0.5,74,120.0
5901,B-2,565.5,0.375,89,120.0
5902,C2,565.5,0.5,54,120.0
5903,F#2,565.5,0.5,60,120.0
5904,C2,565.5,0.5,57,120.0
5905,F#2,565.5,0.5,57,120.0
5906,B-2,566.0,1.125,92,120.0
5907,C2,566.0,0.5,64,120.0
5908,F#2,566.0,0.5,70,120.0
5909,C2,566.0,0.5,67,120.0
5910,F#2,566.0,0.5,67,120.0
5911,C2,566.5,0.5,54,120.0
5912,F#2,566.5,0.5,60,120.0
5913,C2,566.5,0.5,57,120.0
5914,F#2,566.5,0.5,57,120.0
5915,D2,567.0,0.5,84,120.0
5916,F#2,567.0,0.5,70,120.0
5917,G#4,567.0,667/1000,80,120.0
5918,F4,567.0,667/1000,80,120.0
5919,D4,567.0,667/1000,80,120.0
5920,C5,567.0,667/1000,80,120.0
5921,D2,567.0,0.5,77,120.0
5922,F#2,567.0,0.5,77,120.0
5923,B-2,567.5,0.375,94,120.0
5924,C2,567.5,0.5,64,120.0
5925,F#2,567.5,0.5,60,120.0
5926,C2,567.5,0.5,62,120.0
5927,F#2,567.5,0.5,62,120.0
5928,C#3,568.0,1.125,81,120.0
5929,C2,568.0,0.5,64,120.0
5930,F#2,568.0,0.5,70,120.0
5931,C2,568.0,0.5,67,120.0
5932,F#2,568.0,0.5,67,120.0
5933,F#2,568.5,0.5,60,120.0
5934,F#2,568.5,0.5,60,120.0
5935,F4,568.5,667/1000,70,120.0
5936,E-4,568.5,667/1000,70,120.0
5937,B3,568.5,667/1000,70,120.0
5938,G#4,568.5,667/1000,70,120.0
5939,D2,569.0,0.5,79,120.0
5940,F#2,569.0,0.5,70,120.0
5941,D2,569.0,0.5,74,120.0
5942,F#2,569.0,0.5,74,120.0
5943,C#3,569.5,0.25,67,120.0
5944,C#3,569.5,0.375,85,120.0
5945,C2,569.5,0.5,54,120.0
5946,F#2,569.5,0.5,60,120.0
5947,C2,569.5,0.5,57,120.0
5948,F#2,569.5,0.5,57,120.0
5949,C#3,570.0,1.125,95,120.0
5950,C2,570.0,0.5,64,120.0
5951,F#2,570.0,0.5,70,120.0
5952,F4,570.0,1.75,70,120.0
5953,E-4,570.0,1.75,70,120.0
5954,B3,570.0,1.75,70,120.0
5955,G#4,570.0,1.75,70,120.0
5956,C2,570.0,0.5,67,120.0
5957,F#2,570.0,0.5,67,120.0
5958,F#2,570.5,0.5,60,120.0
5959,F#2,570.5,0.5,60,120.0
5960,D2,571.0,0.5,84,120.0
5961,F#2,571.0,0.5,70,120.0
5962,D2,571.0,0.5,77,120.0
5963,F#2,571.0,0.5,77,120.0
5964,C#3,571.5,0.375,89,120.0
5965,C2,571.5,0.5,64,120.0
5966,F#2,571.5,0.5,60,120.0
5967,C2,571.5,0.5,62,120.0
5968,F#2,571.5,0.5,62,120.0
5969,C3,572.0,1.125,84,120.0
5970,C2,572.0,0.5,64,120.0
5971,F#2,572.0,0.5,70,120.0
5972,E4,572.0,249/125,70,120.0
5973,C4,572.0,249/125,70,120.0
5974,B-3,572.0,249/125,70,120.0
5975,G#4,572.0,249/125,70,120.0
5976,C2,572.0,0.5,67,120.0
5977,F#2,572.0,0.5,67,120.0
5978,F#2,572.5,0.5,60,120.0
5979,F#2,572.5,0.5,60,120.0
5980,D2,573.0,0.5,79,120.0
5981,F#2,573.0,0.5,70,120.0
5982,D2,573.0,0.5,74,120.0
5983,F#2,573.0,0.5,74,120.0
5984,C3,573.5,0.375,81,120.0
5985,C2,573.5,0.5,54,120.0
5986,F#2,573.5,0.5,60,120.0
5987,C2,573.5,0.5,57,120.0
5988,F#2,573.5,0.5,57,120.0
5989,C3,574.0,1.125,87,120.0
5990,C2,574.0,0.5,64,120.0
5991,F#2,574.0,0.5,70,120.0
5992,C2,574.0,0.5,67,120.0
5993,F#2,574.0,0.5,67,120.0
5994,C3,574.5,0.25,64,120.0
5995,C2,574.5,0.5,54,120.0
5996,F#2,574.5,0.5,60,120.0
5997,C2,574.5,0.5,57,120.0
5998,F#2,574.5,0.5,57,120.0
5999,D2,575.0,0.5,84,120.0
6000,F#2,575.0,0.5,70,120.0
6001,E4,575.0,667/1000,80,120.0
6002,C4,575.0,667/1000,80,120.0
6003,B-3,575.0,667/1000,80,120.0
6004,G#4,575.0,667/1000,80,120.0
6005,D2,575.0,0.5,77,120.0
6006,F#2,575.0,0.5,77,120.0
6007,C3,575.5,0.375,87,120.0
6008,C2,575.5,0.5,64,120.0
6009,F#2,575.5,0.5,60,120.0
6010,C2,575.5,0.5,62,120.0
6011,F#2,575.5,0.5,62,120.0
6012,F3,576.0,1.125,86,120.0
6013,C2,576.0,0.5,64,120.0
6014,F#2,576.0,0.5,70,120.0
6015,F4,576.0,249/125,70,120.0
6016,E-4,576.0,249/125,70,120.0
6017,C4,576.0,249/125,70,120.0
6018,G#4,576.0,249/125,70,120.0
6019,C2,576.0,0.5,67,120.0
6020,F#2,576.0,0.5,67,120.0
6021,F#2,576.5,0.5,60,120.0
6022,F#2,576.5,0.5,60,120.0
6023,D2,577.0,0.5,79,120.0
6024,F#2,577.0,0.5,70,120.0
6025,D2,577.0,0.5,74,120.0
6026,F#2,577.0,0.5,74,120.0
6027,F3,577.5,0.375,84,120.0
6028,C2,577.5,0.5,54,120.0
6029,F#2,577.5,0.5,60,120.0
6030,C2,577.5,0.5,57,120.0
6031,F#2,577.5,0.5,57,120.0
6032,F3,578.0,1.125,103,120.0
6033,C2,578.0,0.5,64,120.0
6034,F#2,578.0,0.5,70,120.0
6035,C2,578.0,0.5,67,120.0
6036,F#2,578.0,0.5,67,120.0
6037,F#2,578.5,0.5,60,120.0
6038,F#2,578.5,0.5,60,120.0
6039,F4,578.5,667/1000,70,120.0
6040,E-4,578.5,667/1000,70,120.0
6041,C4,578.5,667/1000,70,120.0
6042,G#4,578.5,667/1000,70,120.0
6043,D2,579.0,0.5,84,120.0
6044,F#2,579.0,0.5,70,120.0
6045,D2,579.0,0.5,77,120.0
6046,F#2,579.0,0.5,77,120.0
6047,F3,579.5,0.375,93,120.0
6048,C2,579.5,0.5,64,120.0
6049,F#2,579.5,0.5,60,120.0
6050,C2,579.5,0.5,62,120.0
6051,F#2,579.5,0.5,62,120.0
6052,F3,580.0,1.125,78,120.0
6053,C2,580.0,0.5,64,120.0
6054,F#2,580.0,0.5,70,120.0
6055,F4,580.0,0.75,70,120.0
6056,E-4,580.0,0.75,70,120.0
6057,C4,580.0,0.75,70,120.0
6058,G#4,580.0,0.75,70,120.0
6059,C2,580.0,0.5,67,120.0
6060,F#2,580.0,0.5,67,120.0
6061,F2,580.5,0.5,60,120.0
6062,F#2,580.5,0.5,60,120.0
6063,F2,580.5,0.5,60,120.0
6064,F#2,580.5,0.5,60,120.0
6065,D2,581.0,0.5,79,120.0
6066,F#2,581.0,0.5,70,120.0
6067,D2,581.0,0.5,74,120.0
6068,F#2,581.0,0.5,74,120.0
6069,F3,581.5,0.375,87,120.0
6070,C2,581.5,0.5,54,120.0
6071,F#2,581.5,0.5,60,120.0
6072,C2,581.5,0.5,57,120.0
6073,F#2,581.5,0.5,57,120.0
6074,F3,582.0,1.125,99,120.0
6075,C2,582.0,0.5,64,120.0
6076,F#2,582.0,0.5,70,120.0
6077,C2,582.0,0.5,67,120.0
6078,F#2,582.0,0.5,67,120.0
6079,C2,582.5,0.5,54,120.0
6080,F2,582.5,0.5,70,120.0
6081,F#2,582.5,0.5,60,120.0
6082,C2,582.5,0.5,61,120.0
6083,F2,582.5,0.5,61,120.0
6084,F#2,582.5,0.5,61,120.0
6085,D2,583.0,0.5,84,120.0
6086,F#2,583.0,0.5,70,120.0
6087,D2,583.0,0.5,77,120.0
6088,F#2,583.0,0.5,77,120.0
6089,F3,583.5,0.375,92,120.0
6090,C2,583.5,0.5,64,120.0
6091,F#2,583.5,0.5,60,120.0
6092,C2,583.5,0.5,62,120.0
6093,F#2,583.5,0.5,62,120.0
