,note_name,start_time,duration,velocity,tempo
0,G2,1.0,1.0,95,200.0
1,A2,2.0,1.0,95,200.0
2,B2,3.0,1.0,95,200.0
3,C4,4.0,1.0,95,200.0
4,C3,4.0,1.0,95,200.0
5,G3,5.0,0.5,95,200.0
6,E3,5.0,0.5,95,200.0
7,C4,5.5,0.5,95,200.0
8,C3,6.0,1.0,95,200.0
9,G3,7.0,1.0,95,200.0
10,E3,7.0,1.0,95,200.0
11,C3,8.0,1.0,95,200.0
12,G3,9.0,0.5,95,200.0
13,E3,9.0,0.5,95,200.0
14,C4,9.5,0.5,95,200.0
15,D4,10.0,0.5,82,200.0
16,C3,10.0,0.5,82,200.0
17,E4,10.5,0.5,95,200.0
18,E3,11.0,0.5,95,200.0
19,D4,12.0,1.0,95,200.0
20,E2,12.0,1.0,95,200.0
21,G#3,13.0,1.0,95,200.0
22,D3,13.0,1.0,95,200.0
23,C4,14.0,1.0,95,200.0
24,E2,14.0,1.0,95,200.0
25,G#3,15.0,1.0,95,200.0
26,D3,15.0,1.0,95,200.0
27,B3,16.0,1.0,95,200.0
28,E2,16.0,1.0,95,200.0
29,G#3,17.0,1.0,95,200.0
30,D3,17.0,1.0,95,200.0
31,C4,18.0,1.0,95,200.0
32,E2,18.0,1.0,95,200.0
33,G#3,19.0,1.0,95,200.0
34,D3,19.0,1.0,95,200.0
35,C4,20.0,1.0,95,200.0
36,F2,20.0,1.0,95,200.0
37,A3,21.0,0.5,95,200.0
38,F3,21.0,0.5,95,200.0
39,C4,21.5,0.5,95,200.0
40,F2,22.0,1.0,95,200.0
41,A3,23.0,1.0,95,200.0
42,F3,23.0,1.0,95,200.0
43,F2,24.0,1.0,95,200.0
44,A3,25.0,0.5,95,200.0
45,F3,25.0,0.5,95,200.0
46,C4,25.5,0.5,95,200.0
47,D4,26.0,0.5,82,200.0
48,F2,26.0,0.5,82,200.0
49,E4,26.5,0.5,95,200.0
50,D3,27.0,0.5,95,200.0
51,D4,28.0,1.0,95,200.0
52,F#2,28.0,1.0,95,200.0
53,A3,29.0,1.0,95,200.0
54,D3,29.0,1.0,95,200.0
55,F#2,30.0,1.0,95,200.0
56,C4,31.0,1.0,95,200.0
57,A3,31.0,1.0,95,200.0
58,D3,31.0,1.0,95,200.0
59,B3,32.0,0.5,95,200.0
60,F#2,32.0,0.5,95,200.0
61,C4,32.5,0.5,95,200.0
62,D3,33.0,0.5,95,200.0
63,D4,33.5,0.5,95,200.0
64,F#2,34.0,0.5,95,200.0
65,E4,34.5,0.5,95,200.0
66,D3,35.0,1.0,95,200.0
67,G4,36.0,1.0,95,200.0
68,G2,36.0,1.0,95,200.0
69,B3,37.0,1.0,95,200.0
70,F3,37.0,1.0,95,200.0
71,D3,38.0,1.0,95,200.0
72,B3,39.0,1.0,95,200.0
73,F3,39.0,1.0,95,200.0
74,G2,40.0,1.0,95,200.0
75,E4,41.0,1.0,95,200.0
76,G3,41.0,1.0,95,200.0
77,G4,42.0,0.5,95,200.0
78,B3,42.0,0.5,95,200.0
79,A4,42.5,0.5,70,200.0
80,C4,42.5,0.5,70,200.0
81,E4,43.0,0.5,95,200.0
82,G4,43.5,0.5,95,200.0
83,G2,44.0,1.0,95,200.0
84,B3,45.0,1.0,95,200.0
85,F3,45.0,1.0,95,200.0
86,D3,46.0,1.0,95,200.0
87,B3,47.0,1.0,95,200.0
88,F3,47.0,1.0,95,200.0
89,G2,48.0,1.0,95,200.0
90,E4,49.0,1.0,95,200.0
91,G3,49.0,1.0,95,200.0
92,G4,50.0,0.5,95,200.0
93,B3,50.0,0.5,95,200.0
94,A4,50.5,0.5,70,200.0
95,C4,50.5,0.5,70,200.0
96,E4,51.0,1.0,95,200.0
97,G4,52.0,1.0,111,200.0
98,B3,52.0,13/125,79,200.0
99,G3,52.0,13/125,79,200.0
100,F#4,53.0,1.0,95,200.0
101,F4,54.0,1.0,95,200.0
102,D4,55.0,0.5,95,200.0
103,B-3,55.5,0.5,95,200.0
104,B3,56.0,0.5,95,200.0
105,G3,56.5,0.5,95,200.0
106,E3,57.0,1.0,95,200.0
107,F3,58.0,0.5,95,200.0
108,G3,58.5,0.5,95,200.0
109,B3,59.0,0.5,95,200.0
110,D3,59.5,0.5,95,200.0
111,G3,60.0,0.5,95,200.0
112,B3,60.5,0.5,95,200.0
113,C3,61.0,0.5,95,200.0
114,D3,61.5,0.5,95,200.0
115,G3,62.0,0.5,95,200.0
116,B2,62.5,0.5,95,200.0
117,D3,63.0,0.5,95,200.0
118,G3,63.5,0.5,95,200.0
119,A2,64.0,1.0,95,200.0
120,G2,65.0,1.0,95,200.0
121,C4,66.0,1.0,95,200.0
122,C3,66.0,1.0,95,200.0
123,G3,67.0,0.5,95,200.0
124,E3,67.0,0.5,95,200.0
125,C4,67.5,0.5,95,200.0
126,C3,68.0,1.0,95,200.0
127,G3,69.0,1.0,95,200.0
128,E3,69.0,1.0,95,200.0
129,C3,70.0,1.0,95,200.0
130,G3,71.0,0.5,95,200.0
131,E3,71.0,0.5,95,200.0
132,C4,71.5,0.5,95,200.0
133,D4,72.0,0.5,82,200.0
134,C3,72.0,0.5,82,200.0
135,E4,72.5,0.5,95,200.0
136,E3,73.0,0.5,95,200.0
137,D4,74.0,1.0,95,200.0
138,E2,74.0,1.0,95,200.0
139,G#3,75.0,1.0,95,200.0
140,D3,75.0,1.0,95,200.0
141,C4,76.0,1.0,95,200.0
142,E2,76.0,1.0,95,200.0
143,G#3,77.0,1.0,95,200.0
144,D3,77.0,1.0,95,200.0
145,B3,78.0,1.0,95,200.0
146,E2,78.0,1.0,95,200.0
147,G#3,79.0,1.0,95,200.0
148,D3,79.0,1.0,95,200.0
149,C4,80.0,1.0,95,200.0
150,E2,80.0,1.0,95,200.0
151,G#3,81.0,1.0,95,200.0
152,D3,81.0,1.0,95,200.0
153,C4,82.0,1.0,95,200.0
154,F2,82.0,1.0,95,200.0
155,A3,83.0,0.5,95,200.0
156,F3,83.0,0.5,95,200.0
157,C4,83.5,0.5,95,200.0
158,F2,84.0,1.0,95,200.0
159,A3,85.0,1.0,95,200.0
160,F3,85.0,1.0,95,200.0
161,F2,86.0,1.0,95,200.0
162,A3,87.0,0.5,95,200.0
163,F3,87.0,0.5,95,200.0
164,C4,87.5,0.5,95,200.0
165,D4,88.0,0.5,82,200.0
166,F2,88.0,0.5,82,200.0
167,E4,88.5,0.5,95,200.0
168,D3,89.0,0.5,95,200.0
169,D4,90.0,1.0,95,200.0
170,F#2,90.0,1.0,95,200.0
171,A3,91.0,1.0,95,200.0
172,D3,91.0,1.0,95,200.0
173,F#2,92.0,1.0,95,200.0
174,C4,93.0,1.0,95,200.0
175,A3,93.0,1.0,95,200.0
176,D3,93.0,1.0,95,200.0
177,B3,94.0,0.5,95,200.0
178,F#2,94.0,0.5,95,200.0
179,C4,94.5,0.5,95,200.0
180,D3,95.0,0.5,95,200.0
181,D4,95.5,0.5,95,200.0
182,F#2,96.0,0.5,95,200.0
183,E4,96.5,0.5,95,200.0
184,D3,97.0,1.0,95,200.0
185,G4,98.0,1.0,95,200.0
186,G2,98.0,1.0,95,200.0
187,B3,99.0,1.0,95,200.0
188,F3,99.0,1.0,95,200.0
189,D3,100.0,1.0,95,200.0
190,B3,101.0,1.0,95,200.0
191,F3,101.0,1.0,95,200.0
192,G2,102.0,1.0,95,200.0
193,E4,103.0,1.0,95,200.0
194,G3,103.0,1.0,95,200.0
195,G4,104.0,0.5,95,200.0
196,B3,104.0,0.5,95,200.0
197,A4,104.5,0.5,70,200.0
198,C4,104.5,0.5,70,200.0
199,E4,105.0,0.5,95,200.0
200,G4,105.5,0.5,95,200.0
201,G2,106.0,1.0,95,200.0
202,B3,107.0,1.0,95,200.0
203,F3,107.0,1.0,95,200.0
204,D3,108.0,1.0,95,200.0
205,B3,109.0,1.0,95,200.0
206,F3,109.0,1.0,95,200.0
207,G2,110.0,1.0,95,200.0
208,E4,111.0,1.0,95,200.0
209,G3,111.0,1.0,95,200.0
210,G4,112.0,0.5,95,200.0
211,B3,112.0,0.5,95,200.0
212,A4,112.5,0.5,70,200.0
213,C4,112.5,0.5,70,200.0
214,E4,113.0,1.0,95,200.0
215,G4,114.0,1.0,111,200.0
216,B3,114.0,13/125,79,200.0
217,G3,114.0,13/125,79,200.0
218,F#4,115.0,1.0,95,200.0
219,F4,116.0,1.0,95,200.0
220,D4,117.0,0.5,95,200.0
221,B-3,117.5,0.5,95,200.0
222,B3,118.0,0.5,95,200.0
223,G3,118.5,0.5,95,200.0
224,E3,119.0,1.0,95,200.0
225,F3,120.0,0.5,95,200.0
226,D3,120.5,0.5,95,200.0
227,B2,121.0,1.0,95,200.0
228,C3,122.0,1.0,95,200.0
229,C4,123.0,1.0,95,200.0
230,G3,123.0,1.0,95,200.0
231,E3,123.0,1.0,95,200.0
232,G2,124.0,0.5,95,200.0
233,G3,124.5,0.5,95,200.0
234,E3,125.0,0.5,95,200.0
235,C4,125.5,0.5,95,200.0
236,C3,126.0,1.0,95,200.0
237,G3,127.0,1.0,95,200.0
238,E3,127.0,1.0,95,200.0
239,G4,128.0,1.0,95,200.0
240,E4,129.0,0.5,70,200.0
241,F4,129.5,0.5,95,200.0
242,G2,130.0,1.0,95,200.0
243,B3,131.0,1.0,95,200.0
244,G3,131.0,1.0,95,200.0
245,D3,131.0,1.0,95,200.0
246,A2,132.0,1.0,95,200.0
247,B-2,133.0,1.0,95,200.0
248,B2,134.0,1.0,95,200.0
249,G3,135.0,1.0,95,200.0
250,D3,135.0,1.0,95,200.0
251,G4,136.0,0.25,95,200.0
252,A4,136.25,0.75,95,200.0
253,G4,137.0,1.0,95,200.0
254,F4,138.0,1.0,95,200.0
255,G2,138.0,1.0,95,200.0
256,B3,139.0,1.0,95,200.0
257,G3,139.0,1.0,95,200.0
258,D3,139.0,1.0,95,200.0
259,A2,140.0,1.0,95,200.0
260,B-2,141.0,1.0,95,200.0
261,B2,142.0,0.5,95,200.0
262,D3,142.5,0.5,95,200.0
263,G3,143.0,0.5,95,200.0
264,B3,143.5,0.5,95,200.0
265,G2,144.0,1.0,95,200.0
266,E4,145.0,1.0,95,200.0
267,B3,145.0,1.0,95,200.0
268,G3,145.0,1.0,95,200.0
269,D3,145.0,1.0,95,200.0
270,F4,146.0,1.0,95,200.0
271,A3,146.0,1.0,95,200.0
272,E4,147.0,0.5,95,200.0
273,G3,147.0,0.5,95,200.0
274,F#4,147.5,0.25,95,200.0
275,G4,147.75,0.25,95,200.0
276,B3,148.0,0.5,95,200.0
277,E4,148.5,0.5,95,200.0
278,G3,149.0,1.0,95,200.0
279,F4,150.0,0.5,95,200.0
280,A3,150.0,0.5,95,200.0
281,E4,150.5,0.5,95,200.0
282,G3,151.0,0.5,95,200.0
283,F#4,151.5,0.25,95,200.0
284,G4,151.75,0.25,95,200.0
285,B3,152.0,0.5,95,200.0
286,E4,152.5,0.5,95,200.0
287,G3,153.0,1.0,95,200.0
288,F4,154.0,0.5,95,200.0
289,A3,154.0,0.5,95,200.0
290,E4,154.5,0.5,95,200.0
291,G3,155.0,1.0,95,200.0
292,E-4,156.0,0.5,95,200.0
293,F#3,156.0,0.5,95,200.0
294,E4,156.5,0.5,95,200.0
295,G3,157.0,1.0,95,200.0
296,D4,158.0,1.0,95,200.0
297,F3,158.0,1.0,95,200.0
298,G3,159.0,1.0,95,200.0
299,G4,160.0,1.0,95,200.0
300,E4,161.0,0.5,70,200.0
301,F4,161.5,0.5,95,200.0
302,G2,162.0,1.0,95,200.0
303,B3,163.0,1.0,95,200.0
304,G3,163.0,1.0,95,200.0
305,D3,163.0,1.0,95,200.0
306,A2,164.0,1.0,95,200.0
307,B-2,165.0,1.0,95,200.0
308,B2,166.0,1.0,95,200.0
309,B3,167.0,1.0,95,200.0
310,G3,167.0,1.0,95,200.0
311,D3,167.0,1.0,95,200.0
312,G4,168.0,1.0,95,200.0
313,E4,169.0,0.5,70,200.0
314,F4,169.5,0.5,95,200.0
315,G2,170.0,1.0,95,200.0
316,B3,171.0,1.0,95,200.0
317,G3,171.0,1.0,95,200.0
318,D3,171.0,1.0,95,200.0
319,A2,172.0,1.0,95,200.0
320,B-2,173.0,1.0,95,200.0
321,B2,174.0,0.5,95,200.0
322,D3,174.5,0.5,95,200.0
323,G3,175.0,0.5,95,200.0
324,B3,175.5,0.5,95,200.0
325,G2,176.0,1.0,95,200.0
326,G3,177.0,0.5,95,200.0
327,D3,177.0,0.5,95,200.0
328,G4,178.0,1.0,111,200.0
329,B3,178.0,13/125,63,200.0
330,G3,178.0,13/125,63,200.0
331,D3,178.0,13/125,63,200.0
332,F#4,179.0,1.0,95,200.0
333,F4,180.0,1.0,95,200.0
334,D4,181.0,0.5,95,200.0
335,B-3,181.5,0.5,95,200.0
336,B3,182.0,0.5,95,200.0
337,G3,182.5,0.5,95,200.0
338,E3,183.0,1.0,95,200.0
339,F3,184.0,0.5,95,200.0
340,G3,184.5,0.5,95,200.0
341,B3,185.0,0.5,95,200.0
342,D3,185.5,0.5,95,200.0
343,G3,186.0,0.5,95,200.0
344,B3,186.5,0.5,95,200.0
345,C3,187.0,0.5,95,200.0
346,D3,187.5,0.5,95,200.0
347,G3,188.0,0.5,95,200.0
348,B2,188.5,0.5,95,200.0
349,D3,189.0,0.5,95,200.0
350,G3,189.5,0.5,95,200.0
351,A2,190.0,1.0,95,200.0
352,G2,191.0,1.0,95,200.0
353,C4,192.0,1.0,95,200.0
354,C3,192.0,1.0,95,200.0
355,G3,193.0,0.5,95,200.0
356,E3,193.0,0.5,95,200.0
357,C4,193.5,0.5,95,200.0
358,C3,194.0,1.0,95,200.0
359,G3,195.0,1.0,95,200.0
360,E3,195.0,1.0,95,200.0
361,C3,196.0,1.0,95,200.0
362,G3,197.0,0.5,95,200.0
363,E3,197.0,0.5,95,200.0
364,C4,197.5,0.5,95,200.0
365,D4,198.0,0.5,82,200.0
366,C3,198.0,0.5,82,200.0
367,E4,198.5,0.5,95,200.0
368,E3,199.0,0.5,95,200.0
369,G4,200.0,0.5,95,200.0
370,G#4,200.5,0.5,95,200.0
371,E2,200.5,0.5,95,200.0
372,G#3,201.0,1.0,95,200.0
373,D3,201.0,1.0,95,200.0
374,E4,202.0,1.0,95,200.0
375,E2,202.0,1.0,95,200.0
376,G#3,203.0,1.0,95,200.0
377,D3,203.0,1.0,95,200.0
378,C4,204.0,0.5,95,200.0
379,D4,204.5,0.5,82,200.0
380,E2,204.5,0.5,82,200.0
381,G#3,205.0,1.0,95,200.0
382,D3,205.0,1.0,95,200.0
383,C4,206.0,1.0,95,200.0
384,E2,206.0,1.0,95,200.0
385,G#3,207.0,1.0,95,200.0
386,D3,207.0,1.0,95,200.0
387,C4,208.0,1.0,95,200.0
388,F2,208.0,1.0,95,200.0
389,A3,209.0,0.5,95,200.0
390,F3,209.0,0.5,95,200.0
391,C4,209.5,0.5,95,200.0
392,F2,210.0,1.0,95,200.0
393,A3,211.0,1.0,95,200.0
394,F3,211.0,1.0,95,200.0
395,F2,212.0,1.0,95,200.0
396,C3,213.0,0.5,95,200.0
397,C4,213.5,0.5,95,200.0
398,D4,214.0,0.5,82,200.0
399,F2,214.0,0.5,82,200.0
400,E4,214.5,0.5,95,200.0
401,D3,215.0,0.5,95,200.0
402,A4,216.0,1.0,95,200.0
403,D3,216.0,1.0,95,200.0
404,C4,217.0,1.0,95,200.0
405,F#3,217.0,1.0,95,200.0
406,A2,218.0,1.0,95,200.0
407,E4,219.0,1.0,95,200.0
408,C4,219.0,1.0,95,200.0
409,F#3,219.0,1.0,95,200.0
410,D4,220.0,0.5,95,200.0
411,D3,220.0,0.5,95,200.0
412,C4,220.5,0.5,95,200.0
413,F#3,221.0,1.0,95,200.0
414,D4,222.0,0.5,95,200.0
415,A2,222.5,0.5,95,200.0
416,E4,223.0,0.5,95,200.0
417,F#3,223.5,0.5,95,200.0
418,G4,224.0,1.0,95,200.0
419,G2,224.0,1.0,95,200.0
420,B3,225.0,1.0,95,200.0
421,F3,225.0,1.0,95,200.0
422,D3,226.0,1.0,95,200.0
423,B3,227.0,1.0,95,200.0
424,F3,227.0,1.0,95,200.0
425,G2,228.0,1.0,95,200.0
426,E4,229.0,1.0,95,200.0
427,G3,229.0,1.0,95,200.0
428,G4,230.0,0.5,95,200.0
429,B3,230.0,0.5,95,200.0
430,A4,230.5,0.5,70,200.0
431,C4,230.5,0.5,70,200.0
432,E4,231.0,0.5,95,200.0
433,G4,231.5,0.5,95,200.0
434,G2,232.0,1.0,95,200.0
435,B3,233.0,1.0,95,200.0
436,F3,233.0,1.0,95,200.0
437,D3,234.0,1.0,95,200.0
438,B3,235.0,1.0,95,200.0
439,F3,235.0,1.0,95,200.0
440,G2,236.0,1.0,95,200.0
441,E4,237.0,1.0,95,200.0
442,G3,237.0,1.0,95,200.0
443,G4,238.0,0.5,95,200.0
444,B3,238.0,0.5,95,200.0
445,A4,238.5,0.5,70,200.0
446,C4,238.5,0.5,70,200.0
447,E4,239.0,1.0,95,200.0
448,G4,240.0,1.0,111,200.0
449,B3,240.0,13/125,63,200.0
450,G3,240.0,13/125,63,200.0
451,D3,240.0,13/125,63,200.0
452,F#4,241.0,1.0,95,200.0
453,F4,242.0,1.0,95,200.0
454,D4,243.0,0.5,95,200.0
455,B-3,243.5,0.5,95,200.0
456,B3,244.0,0.5,95,200.0
457,G3,244.5,0.5,95,200.0
458,E3,245.0,1.0,95,200.0
459,F3,246.0,0.5,95,200.0
460,D3,246.5,0.5,95,200.0
461,B2,247.0,1.0,95,200.0
462,C3,248.0,1.0,95,200.0
463,C4,249.0,1.0,95,200.0
464,G3,249.0,1.0,95,200.0
465,E3,249.0,1.0,95,200.0
466,G2,250.0,0.5,95,200.0
467,G3,250.5,0.5,95,200.0
468,E3,251.0,0.5,95,200.0
469,C4,251.5,0.5,95,200.0
470,C3,252.0,1.0,95,200.0
471,G3,253.0,1.0,95,200.0
472,E3,253.0,1.0,95,200.0
473,G4,254.0,1.0,95,200.0
474,E4,255.0,0.5,95,200.0
475,F4,255.5,0.5,95,200.0
476,G2,256.0,1.0,95,200.0
477,B3,257.0,1.0,95,200.0
478,G3,257.0,1.0,95,200.0
479,D3,257.0,1.0,95,200.0
480,A2,258.0,1.0,95,200.0
481,B-2,259.0,1.0,95,200.0
482,B2,260.0,1.0,95,200.0
483,G3,261.0,1.0,95,200.0
484,D3,261.0,1.0,95,200.0
485,G4,262.0,1.0,95,200.0
486,E4,263.0,0.5,95,200.0
487,F4,263.5,0.5,95,200.0
488,G2,264.0,1.0,95,200.0
489,B3,265.0,1.0,95,200.0
490,G3,265.0,1.0,95,200.0
491,D3,265.0,1.0,95,200.0
492,A2,266.0,1.0,95,200.0
493,B-2,267.0,1.0,95,200.0
494,B2,268.0,0.5,95,200.0
495,D3,268.5,0.5,95,200.0
496,G3,269.0,0.5,95,200.0
497,B3,269.5,0.5,95,200.0
498,G2,270.0,1.0,95,200.0
499,G3,271.0,0.5,95,200.0
500,D3,271.0,0.5,95,200.0
501,B2,271.0,0.5,95,200.0
502,G2,272.0,0.5,95,200.0
503,A2,272.5,0.5,95,200.0
504,B2,273.0,0.5,95,200.0
505,C3,273.5,0.5,95,200.0
506,D3,274.0,0.5,95,200.0
507,E3,274.5,0.5,95,200.0
508,F3,275.0,0.5,95,200.0
509,G3,275.5,0.5,95,200.0
510,B2,276.0,333/1000,95,200.0
511,C3,276.333,333/1000,95,200.0
512,D3,276.667,333/1000,95,200.0
513,E3,277.0,333/1000,95,200.0
514,F3,277.333,333/1000,95,200.0
515,G3,277.667,333/1000,95,200.0
516,A3,278.0,333/1000,95,200.0
517,B-3,278.333,333/1000,95,200.0
518,B3,278.667,333/1000,95,200.0
519,C4,279.0,333/1000,95,200.0
520,D4,279.333,333/1000,95,200.0
521,E4,279.667,333/1000,95,200.0
522,F4,280.0,0.5,95,200.0
523,G4,281.0,0.5,95,200.0
524,F4,282.0,0.5,95,200.0
525,E4,283.0,0.5,95,200.0
526,D4,284.0,1.0,95,200.0
527,G3,285.0,1.0,95,200.0
528,G4,286.0,1.0,95,200.0
529,E4,287.0,0.5,70,200.0
530,F4,287.5,0.5,95,200.0
531,G2,288.0,1.0,95,200.0
532,B3,289.0,1.0,95,200.0
533,G3,289.0,1.0,95,200.0
534,D3,289.0,1.0,95,200.0
535,A2,290.0,1.0,95,200.0
536,B-2,291.0,1.0,95,200.0
537,B2,292.0,1.0,95,200.0
538,B3,293.0,0.5,95,200.0
539,D3,293.0,0.5,95,200.0
540,G3,293.5,0.5,95,200.0
541,G2,294.0,0.5,95,200.0
542,G4,294.5,0.5,95,200.0
543,E4,295.0,1.0,70,200.0
544,F4,296.0,1.0,95,200.0
545,G2,296.0,1.0,95,200.0
546,B3,297.0,1.0,95,200.0
547,G3,297.0,1.0,95,200.0
548,D3,297.0,1.0,95,200.0
549,A2,298.0,1.0,95,200.0
550,B-2,299.0,1.0,95,200.0
551,B2,300.0,0.5,95,200.0
552,D3,300.5,0.5,95,200.0
553,G3,301.0,0.5,95,200.0
554,B3,301.5,0.5,95,200.0
555,G2,302.0,1.0,95,200.0
556,D3,303.0,0.5,95,200.0
557,G4,304.0,1.0,111,200.0
558,B3,304.0,13/125,63,200.0
559,G3,304.0,13/125,63,200.0
560,D3,304.0,13/125,63,200.0
561,F#4,305.0,1.0,95,200.0
562,F4,306.0,1.0,95,200.0
563,D4,307.0,0.5,95,200.0
564,B-3,307.5,0.5,95,200.0
565,B3,308.0,0.5,95,200.0
566,G3,308.5,0.5,95,200.0
567,E3,309.0,1.0,95,200.0
568,F3,310.0,0.5,95,200.0
569,G3,310.5,0.5,95,200.0
570,B3,311.0,0.5,95,200.0
571,D3,311.5,0.5,95,200.0
572,G3,312.0,0.5,95,200.0
573,B3,312.5,0.5,95,200.0
574,C3,313.0,0.5,95,200.0
575,D3,313.5,0.5,95,200.0
576,G3,314.0,0.5,95,200.0
577,B2,314.5,0.5,95,200.0
578,D3,315.0,0.5,95,200.0
579,G3,315.5,0.5,95,200.0
580,A2,316.0,1.0,95,200.0
581,G2,317.0,1.0,95,200.0
582,C4,318.0,1.0,95,200.0
583,C3,318.0,1.0,95,200.0
584,G3,319.0,0.5,95,200.0
585,E3,319.0,0.5,95,200.0
586,C4,319.5,0.5,95,200.0
587,C3,320.0,1.0,95,200.0
588,G3,321.0,1.0,95,200.0
589,E3,321.0,1.0,95,200.0
590,C3,322.0,1.0,95,200.0
591,G3,323.0,0.5,95,200.0
592,E3,323.0,0.5,95,200.0
593,C4,323.5,0.5,95,200.0
594,D4,324.0,0.5,82,200.0
595,C3,324.0,0.5,82,200.0
596,E4,324.5,0.5,95,200.0
597,E3,325.0,0.5,95,200.0
598,G4,326.0,0.5,95,200.0
599,G#4,326.5,0.5,95,200.0
600,E2,326.5,0.5,95,200.0
601,G#3,327.0,1.0,95,200.0
602,D3,327.0,1.0,95,200.0
603,E4,328.0,1.0,95,200.0
604,E2,328.0,1.0,95,200.0
605,G#3,329.0,1.0,95,200.0
606,D3,329.0,1.0,95,200.0
607,C4,330.0,0.5,95,200.0
608,D4,330.5,0.5,82,200.0
609,E2,330.5,0.5,82,200.0
610,G#3,331.0,1.0,95,200.0
611,D3,331.0,1.0,95,200.0
612,C4,332.0,1.0,95,200.0
613,E2,332.0,1.0,95,200.0
614,G#3,333.0,1.0,95,200.0
615,D3,333.0,1.0,95,200.0
616,C4,334.0,1.0,95,200.0
617,F2,334.0,1.0,95,200.0
618,A3,335.0,0.5,95,200.0
619,F3,335.0,0.5,95,200.0
620,C4,335.5,0.5,95,200.0
621,F2,336.0,1.0,95,200.0
622,A3,337.0,1.0,95,200.0
623,F3,337.0,1.0,95,200.0
624,F2,338.0,1.0,95,200.0
625,C3,339.0,0.5,95,200.0
626,C4,339.5,0.5,95,200.0
627,D4,340.0,0.5,82,200.0
628,F2,340.0,0.5,82,200.0
629,E4,340.5,0.5,95,200.0
630,D3,341.0,0.5,95,200.0
631,A4,342.0,1.0,95,200.0
632,D3,342.0,1.0,95,200.0
633,C4,343.0,1.0,95,200.0
634,F#3,343.0,1.0,95,200.0
635,A2,344.0,1.0,95,200.0
636,E4,345.0,1.0,95,200.0
637,C4,345.0,1.0,95,200.0
638,F#3,345.0,1.0,95,200.0
639,D4,346.0,0.5,95,200.0
640,D3,346.0,0.5,95,200.0
641,C4,346.5,0.5,95,200.0
642,F#3,347.0,1.0,95,200.0
643,D4,348.0,0.5,95,200.0
644,A2,348.5,0.5,95,200.0
645,E4,349.0,0.5,95,200.0
646,F#3,349.5,0.5,95,200.0
647,G4,350.0,1.0,95,200.0
648,G2,350.0,1.0,95,200.0
649,B3,351.0,1.0,95,200.0
650,F3,351.0,1.0,95,200.0
651,D3,352.0,1.0,95,200.0
652,B3,353.0,1.0,95,200.0
653,F3,353.0,1.0,95,200.0
654,G2,354.0,1.0,95,200.0
655,E4,355.0,1.0,95,200.0
656,G3,355.0,1.0,95,200.0
657,G4,356.0,0.5,95,200.0
658,B3,356.0,0.5,95,200.0
659,A4,356.5,0.5,70,200.0
660,C4,356.5,0.5,70,200.0
661,E4,357.0,0.5,95,200.0
662,G4,357.5,0.5,95,200.0
663,G2,358.0,1.0,95,200.0
664,B3,359.0,1.0,95,200.0
665,F3,359.0,1.0,95,200.0
666,D3,360.0,1.0,95,200.0
667,B3,361.0,1.0,95,200.0
668,F3,361.0,1.0,95,200.0
669,G2,362.0,1.0,95,200.0
670,E4,363.0,1.0,95,200.0
671,G3,363.0,1.0,95,200.0
672,G4,364.0,0.5,95,200.0
673,B3,364.0,0.5,95,200.0
674,A4,364.5,0.5,70,200.0
675,C4,364.5,0.5,70,200.0
676,E4,365.0,1.0,95,200.0
677,G4,366.0,1.0,111,200.0
678,B3,366.0,13/125,79,200.0
679,G3,366.0,13/125,79,200.0
680,F#4,367.0,1.0,95,200.0
681,F4,368.0,1.0,95,200.0
682,D4,369.0,0.5,95,200.0
683,B-3,369.5,0.5,95,200.0
684,B3,370.0,0.5,95,200.0
685,G3,370.5,0.5,95,200.0
686,E3,371.0,1.0,95,200.0
687,F3,372.0,0.5,95,200.0
688,D3,372.5,0.5,95,200.0
689,B2,373.0,1.0,95,200.0
690,C3,374.0,1.0,95,200.0
691,C4,375.0,1.0,95,200.0
692,G3,375.0,1.0,95,200.0
693,E3,375.0,1.0,95,200.0
694,G2,376.0,0.5,95,200.0
695,G3,376.5,0.5,95,200.0
696,E3,377.0,0.5,95,200.0
697,C4,377.5,0.5,95,200.0
698,C3,378.0,1.0,95,200.0
699,E4,379.0,1.0,95,200.0
700,C4,379.0,1.0,95,200.0
701,G3,379.0,1.0,95,200.0
702,E3,379.0,1.0,95,200.0
703,E3,380.0,1.0,95,200.0
704,F3,381.0,1.0,95,200.0
705,G3,382.0,1.0,95,200.0
706,E4,383.0,0.5,95,200.0
707,C4,383.0,0.5,95,200.0
708,E4,383.5,0.5,95,200.0
709,G3,384.0,0.5,95,200.0
710,A3,384.5,0.5,70,200.0
711,E4,385.0,0.5,95,200.0
712,C4,385.0,0.5,95,200.0
713,E4,385.5,0.5,95,200.0
714,D3,386.0,0.5,95,200.0
715,E3,386.5,0.5,70,200.0
716,E4,387.0,0.5,95,200.0
717,C4,387.0,0.5,95,200.0
718,E4,387.5,0.5,95,200.0
719,E3,388.0,0.5,95,200.0
720,F3,388.5,0.5,70,200.0
721,E3,389.0,0.25,95,200.0
722,F3,389.25,0.25,70,200.0
723,E3,389.5,0.5,70,200.0
724,D3,390.0,1.0,95,200.0
725,B3,391.0,0.5,95,200.0
726,G3,391.0,0.5,95,200.0
727,F4,391.5,0.5,95,200.0
728,E3,392.0,0.5,95,200.0
729,D3,392.5,0.5,70,200.0
730,B2,393.0,1.0,95,200.0
731,C3,394.0,1.0,95,200.0
732,C4,395.0,0.5,95,200.0
733,G3,395.0,0.5,95,200.0
734,E3,395.0,0.5,95,200.0
735,E4,395.5,0.5,95,200.0
736,E2,396.0,0.5,95,200.0
737,G2,396.5,0.5,70,200.0
738,C4,397.0,0.5,95,200.0
739,G3,397.0,0.5,95,200.0
740,E3,397.0,0.5,95,200.0
741,E4,397.5,0.5,95,200.0
742,C3,398.0,1.0,95,200.0
743,E4,399.0,1.0,95,200.0
744,C4,399.0,1.0,95,200.0
745,G3,399.0,1.0,95,200.0
746,E3,400.0,1.0,95,200.0
747,F3,401.0,1.0,95,200.0
748,G3,402.0,1.0,95,200.0
749,E4,403.0,0.5,95,200.0
750,C4,403.0,0.5,95,200.0
751,G3,403.5,0.5,95,200.0
752,A3,404.0,0.5,95,200.0
753,G3,404.5,0.5,95,200.0
754,E4,405.0,1.0,95,200.0
755,C4,405.0,1.0,95,200.0
756,E3,406.0,1.0,95,200.0
757,C4,407.0,0.5,95,200.0
758,G3,407.0,0.5,95,200.0
759,E3,407.5,0.5,95,200.0
760,F3,408.0,0.5,95,200.0
761,E3,408.5,0.5,95,200.0
762,C4,409.0,1.0,95,200.0
763,G3,409.0,1.0,95,200.0
764,D3,410.0,1.0,95,200.0
765,B3,411.0,0.5,95,200.0
766,G3,411.0,0.5,95,200.0
767,D3,411.5,0.5,95,200.0
768,E3,412.0,0.5,95,200.0
769,D3,412.5,0.5,95,200.0
770,B3,413.0,1.0,95,200.0
771,G3,413.0,1.0,95,200.0
772,C3,414.0,1.0,95,200.0
773,C4,415.0,1.0,95,200.0
774,G3,415.0,1.0,95,200.0
775,E3,415.0,1.0,95,200.0
776,G2,416.0,0.5,95,200.0
777,G3,416.5,0.5,95,200.0
778,E3,417.0,0.5,95,200.0
779,C4,417.5,0.5,95,200.0
780,C3,418.0,1.0,95,200.0
781,G3,419.0,0.5,95,200.0
782,E3,419.0,0.5,95,200.0
783,G4,420.0,1.0,95,200.0
784,C5,421.0,1.0,95,200.0
785,E5,422.0,1.0,95,200.0
786,C4,422.0,1.0,95,200.0
787,G4,423.0,0.5,95,200.0
788,E5,423.5,0.5,95,200.0
789,B3,424.0,0.5,95,200.0
790,D5,424.5,0.5,95,200.0
791,E4,425.0,1.0,95,200.0
792,C5,426.0,1.0,95,200.0
793,A3,426.0,1.0,95,200.0
794,E4,427.0,1.0,95,200.0
795,C5,428.0,0.5,95,200.0
796,A3,428.5,0.5,95,200.0
797,B4,429.0,0.5,95,200.0
798,A4,430.0,1.0,95,200.0
799,F3,430.0,1.0,95,200.0
800,C4,431.0,0.5,95,200.0
801,A4,431.5,0.5,95,200.0
802,B-4,432.0,0.5,95,200.0
803,A4,432.5,0.5,95,200.0
804,C4,433.0,1.0,95,200.0
805,G4,434.0,1.0,95,200.0
806,C3,434.0,1.0,95,200.0
807,G3,435.0,1.0,95,200.0
808,E3,435.0,1.0,95,200.0
809,C4,436.0,1.0,95,200.0
810,G2,436.0,1.0,95,200.0
811,D4,437.0,1.0,95,200.0
812,G3,437.0,1.0,95,200.0
813,E3,437.0,1.0,95,200.0
814,E4,438.0,1.0,95,200.0
815,C4,438.0,1.0,95,200.0
816,C3,438.0,1.0,95,200.0
817,C4,439.0,1.0,95,200.0
818,G3,439.0,1.0,95,200.0
819,E3,439.0,1.0,95,200.0
820,E4,440.0,1.0,95,200.0
821,B-2,440.0,1.0,95,200.0
822,D4,441.0,1.0,95,200.0
823,C4,441.0,1.0,95,200.0
824,G#3,441.0,1.0,95,200.0
825,C4,442.0,0.5,95,200.0
826,E4,442.5,0.5,89,200.0
827,C#4,442.5,0.5,89,200.0
828,G3,442.5,0.5,89,200.0
829,A2,442.5,0.5,89,200.0
830,A4,443.0,1.0,95,200.0
831,G4,444.0,1.0,95,200.0
832,B3,444.0,1.0,95,200.0
833,E4,445.0,1.0,95,200.0
834,G3,445.0,1.0,95,200.0
835,D4,446.0,0.5,95,200.0
836,E3,446.0,0.5,95,200.0
837,F3,446.5,0.5,95,200.0
838,F#3,447.0,0.5,95,200.0
839,D3,447.5,0.5,95,200.0
840,E4,448.0,0.5,95,200.0
841,G3,448.0,0.5,95,200.0
842,F#3,448.5,0.5,95,200.0
843,D4,449.0,0.5,95,200.0
844,F3,449.0,0.5,95,200.0
845,G3,449.5,0.5,95,200.0
846,C4,450.0,2.0,95,200.0
847,G3,450.0,2.0,95,200.0
848,E3,450.0,2.0,95,200.0
849,C3,450.0,2.0,95,200.0
850,C5,452.0,2.0,63,200.0
851,C6,452.0,2.0,63,200.0
852,C5,459.0,4.0,63,200.0
853,C6,459.0,4.0,63,200.0
854,C5,464.0,1.0,63,200.0
855,C6,464.0,1.0,63,200.0
