,note_name,start_time,duration,velocity,tempo
0,B-2,0.0,1.0,100,110.0
1,C2,0.0,1.0,100,110.0
2,F#2,0.5,0.5,100,110.0
3,F#2,1.0,0.5,100,110.0
4,D2,1.0,1.0,100,110.0
5,F#2,1.5,0.5,100,110.0
6,C2,1.75,0.25,100,110.0
7,F#2,2.0,0.5,100,110.0
8,C2,2.0,0.25,100,110.0
9,F#2,2.5,0.5,100,110.0
10,C2,2.5,0.5,100,110.0
11,F#2,3.0,0.5,100,110.0
12,D2,3.0,0.5,100,110.0
13,F#2,3.5,0.5,100,110.0
14,B-2,4.0,1.0,100,110.0
15,C2,4.0,1.0,100,110.0
16,F#2,4.5,0.5,100,110.0
17,F#2,5.0,0.5,100,110.0
18,D2,5.0,1.0,100,110.0
19,F#2,5.5,0.5,100,110.0
20,C2,5.75,0.25,100,110.0
21,F#2,6.0,0.5,100,110.0
22,C2,6.0,0.25,100,110.0
23,F#2,6.5,0.5,100,110.0
24,C2,6.5,0.5,100,110.0
25,F#2,7.0,0.5,100,110.0
26,D2,7.0,0.5,100,110.0
27,F#2,7.5,0.5,100,110.0
28,A2,8.0,0.25,100,110.0
29,B-2,8.0,1.0,100,110.0
30,C2,8.0,1.0,100,110.0
31,B-2,8.25,0.25,100,110.0
32,B-2,8.25,0.25,100,110.0
33,F#2,8.5,0.5,100,110.0
34,B2,8.5,0.25,100,110.0
35,B2,8.5,0.25,100,110.0
36,E3,8.75,0.25,100,110.0
37,E3,8.75,0.25,100,110.0
38,F#2,9.0,0.5,100,110.0
39,D2,9.0,1.0,100,110.0
40,A2,9.25,0.25,100,110.0
41,A2,9.25,0.25,100,110.0
42,F#2,9.5,0.5,100,110.0
43,B-2,9.5,0.25,100,110.0
44,B-2,9.5,0.25,100,110.0
45,C2,9.75,0.25,100,110.0
46,B2,9.75,0.25,100,110.0
47,B2,9.75,0.25,100,110.0
48,F#2,10.0,0.5,100,110.0
49,C2,10.0,0.25,100,110.0
50,E3,10.0,0.5,100,110.0
51,E3,10.0,0.5,100,110.0
52,E2,10.5,0.5,100,110.0
53,E2,10.5,0.5,100,110.0
54,F#2,10.5,0.5,100,110.0
55,C2,10.5,0.5,100,110.0
56,F#2,11.0,0.5,100,110.0
57,D2,11.0,0.5,100,110.0
58,F#2,11.5,0.5,100,110.0
59,E2,11.5,21/500,100,110.0
60,A2,12.0,0.25,100,110.0
61,B-2,12.0,1.0,100,110.0
62,C2,12.0,1.0,100,110.0
63,B-2,12.25,0.25,100,110.0
64,B-2,12.25,0.25,100,110.0
65,F#2,12.5,0.5,100,110.0
66,B2,12.5,0.25,100,110.0
67,B2,12.5,0.25,100,110.0
68,E3,12.75,0.25,100,110.0
69,E3,12.75,0.25,100,110.0
70,F#2,13.0,0.5,100,110.0
71,D2,13.0,1.0,100,110.0
72,A2,13.25,0.25,100,110.0
73,A2,13.25,0.25,100,110.0
74,F#2,13.5,0.5,100,110.0
75,B-2,13.5,0.25,100,110.0
76,B-2,13.5,0.25,100,110.0
77,C2,13.75,0.25,100,110.0
78,B2,13.75,0.25,100,110.0
79,B2,13.75,0.25,100,110.0
80,F#2,14.0,0.5,100,110.0
81,C2,14.0,0.25,100,110.0
82,E3,14.0,0.5,100,110.0
83,E3,14.0,0.5,100,110.0
84,G2,14.5,0.25,100,110.0
85,G2,14.5,0.25,100,110.0
86,F#2,14.5,0.5,100,110.0
87,C2,14.5,0.5,100,110.0
88,E2,14.75,0.25,100,110.0
89,E2,14.75,0.25,100,110.0
90,E3,15.0,1.0,127,110.0
91,E3,15.0,1.0,127,110.0
92,F#2,15.0,0.5,100,110.0
93,D2,15.0,0.5,100,110.0
94,F#2,15.5,0.5,100,110.0
95,A2,16.0,0.25,100,110.0
96,A2,16.0,0.25,100,110.0
97,B-2,16.0,1.0,100,110.0
98,C2,16.0,1.0,100,110.0
99,B-2,16.25,0.25,100,110.0
100,B-2,16.25,0.25,100,110.0
101,F#2,16.5,0.5,100,110.0
102,B2,16.5,0.25,100,110.0
103,B2,16.5,0.25,100,110.0
104,E3,16.75,0.25,100,110.0
105,E3,16.75,0.25,100,110.0
106,F#2,17.0,0.5,100,110.0
107,D2,17.0,1.0,100,110.0
108,A2,17.25,0.25,100,110.0
109,A2,17.25,0.25,100,110.0
110,F#2,17.5,0.5,100,110.0
111,B-2,17.5,0.25,100,110.0
112,B-2,17.5,0.25,100,110.0
113,C2,17.75,0.25,100,110.0
114,B2,17.75,0.25,100,110.0
115,B2,17.75,0.25,100,110.0
116,F#2,18.0,0.5,100,110.0
117,C2,18.0,0.25,100,110.0
118,E3,18.0,0.5,100,110.0
119,E3,18.0,0.5,100,110.0
120,E2,18.5,0.5,100,110.0
121,E2,18.5,0.5,100,110.0
122,F#2,18.5,0.5,100,110.0
123,C2,18.5,0.5,100,110.0
124,F#2,19.0,0.5,100,110.0
125,D2,19.0,0.5,100,110.0
126,F#2,19.5,0.5,100,110.0
127,E2,19.5,21/500,100,110.0
128,A2,20.0,0.25,100,110.0
129,A2,20.0,0.25,100,110.0
130,B-2,20.0,1.0,100,110.0
131,C2,20.0,1.0,100,110.0
132,B-2,20.25,0.25,100,110.0
133,B-2,20.25,0.25,100,110.0
134,F#2,20.5,0.5,100,110.0
135,B2,20.5,0.25,100,110.0
136,B2,20.5,0.25,100,110.0
137,E3,20.75,0.25,100,110.0
138,E3,20.75,0.25,100,110.0
139,F#2,21.0,0.5,100,110.0
140,D2,21.0,1.0,100,110.0
141,A2,21.25,0.25,100,110.0
142,A2,21.25,0.25,100,110.0
143,F#2,21.5,0.5,100,110.0
144,B-2,21.5,0.25,100,110.0
145,B-2,21.5,0.25,100,110.0
146,C2,21.75,0.25,100,110.0
147,B2,21.75,0.25,100,110.0
148,B2,21.75,0.25,100,110.0
149,F#2,22.0,0.5,100,110.0
150,C2,22.0,0.25,100,110.0
151,E3,22.0,0.5,100,110.0
152,E3,22.0,0.5,100,110.0
153,B-2,22.5,0.5,100,110.0
154,D2,22.5,0.5,100,110.0
155,A3,22.5,1.5,100,110.0
156,E3,22.5,1.5,100,110.0
157,A2,22.5,1.5,100,110.0
158,A3,22.5,1.5,100,110.0
159,E3,22.5,1.5,100,110.0
160,A2,22.5,1.5,100,110.0
161,E2,23.5,21/500,100,110.0
162,D2,23.5,0.5,100,110.0
163,F#2,23.5,0.5,100,110.0
164,C3,24.0,0.25,100,110.0
165,C3,24.0,0.25,100,110.0
166,C3,24.0,0.25,100,110.0
167,C2,24.0,0.5,100,110.0
168,C2,24.0,0.5,100,110.0
169,A3,24.0,0.5,100,110.0
170,F#2,24.0,0.5,100,110.0
171,C2,24.0,0.5,100,110.0
172,A3,24.0,0.5,100,110.0
173,E3,24.0,0.5,100,110.0
174,A2,24.0,0.5,100,110.0
175,A3,24.0,0.5,100,110.0
176,E3,24.0,0.5,100,110.0
177,A2,24.0,0.5,100,110.0
178,C3,24.25,0.25,100,110.0
179,C3,24.25,0.25,100,110.0
180,F#2,24.5,0.5,100,110.0
181,C3,24.5,0.25,100,110.0
182,C3,24.5,0.25,100,110.0
183,G3,24.75,0.5,100,110.0
184,G3,24.75,0.5,100,110.0
185,C2,24.75,0.25,100,110.0
186,C2,24.75,0.25,100,110.0
187,F#2,25.0,0.5,100,110.0
188,D2,25.0,0.5,100,110.0
189,G3,25.25,0.25,100,110.0
190,G3,25.25,0.25,100,110.0
191,B-1,25.25,0.25,100,110.0
192,B-1,25.25,0.25,100,110.0
193,F#2,25.5,0.5,100,110.0
194,A3,25.5,0.25,100,110.0
195,A3,25.5,0.25,100,110.0
196,C2,25.5,0.5,100,110.0
197,C2,25.5,0.5,100,110.0
198,G3,25.75,0.25,100,110.0
199,G3,25.75,0.25,100,110.0
200,F#2,26.0,0.5,100,110.0
201,C3,26.0,0.25,100,110.0
202,C3,26.0,0.25,100,110.0
203,C4,26.25,0.25,100,110.0
204,C4,26.25,0.25,100,110.0
205,E1,26.25,0.25,100,110.0
206,E1,26.25,0.25,100,110.0
207,G3,26.5,0.25,100,110.0
208,G3,26.5,0.25,100,110.0
209,F1,26.5,0.5,100,110.0
210,F1,26.5,0.5,100,110.0
211,F#2,26.5,0.5,100,110.0
212,C2,26.5,0.5,100,110.0
213,G3,26.75,0.25,100,110.0
214,G3,26.75,0.25,100,110.0
215,B-3,27.0,0.25,100,110.0
216,B-3,27.0,0.25,100,110.0
217,G1,27.0,0.25,100,110.0
218,G1,27.0,0.25,100,110.0
219,F#2,27.0,0.5,100,110.0
220,D2,27.0,0.5,100,110.0
221,C2,27.25,0.25,100,110.0
222,G3,27.25,0.25,100,110.0
223,G3,27.25,0.25,100,110.0
224,G1,27.25,0.25,100,110.0
225,G1,27.25,0.25,100,110.0
226,F#2,27.5,0.5,100,110.0
227,A3,27.5,0.25,100,110.0
228,A3,27.5,0.25,100,110.0
229,A1,27.5,0.25,100,110.0
230,A1,27.5,0.25,100,110.0
231,G3,27.75,0.25,100,110.0
232,G3,27.75,0.25,100,110.0
233,G1,27.75,0.25,100,110.0
234,G1,27.75,0.25,100,110.0
235,C3,28.0,0.25,100,110.0
236,C3,28.0,0.25,100,110.0
237,C2,28.0,0.5,100,110.0
238,C2,28.0,0.5,100,110.0
239,F#2,28.0,0.5,100,110.0
240,C2,28.0,0.5,100,110.0
241,C3,28.25,0.25,100,110.0
242,C3,28.25,0.25,100,110.0
243,F#2,28.5,0.5,100,110.0
244,C3,28.5,0.25,100,110.0
245,C3,28.5,0.25,100,110.0
246,G3,28.75,0.5,100,110.0
247,G3,28.75,0.5,100,110.0
248,C2,28.75,0.5,100,110.0
249,C2,28.75,0.5,100,110.0
250,F#2,29.0,0.5,100,110.0
251,D2,29.0,0.5,100,110.0
252,G3,29.25,0.25,100,110.0
253,G3,29.25,0.25,100,110.0
254,B-1,29.25,0.25,100,110.0
255,B-1,29.25,0.25,100,110.0
256,F#2,29.5,0.5,100,110.0
257,A3,29.5,0.25,100,110.0
258,A3,29.5,0.25,100,110.0
259,C2,29.5,0.25,100,110.0
260,C2,29.5,0.25,100,110.0
261,G3,29.75,0.25,100,110.0
262,G3,29.75,0.25,100,110.0
263,E1,29.75,0.25,100,110.0
264,E1,29.75,0.25,100,110.0
265,F#2,30.0,0.5,100,110.0
266,C3,30.0,0.25,100,110.0
267,C3,30.0,0.25,100,110.0
268,F1,30.0,0.5,100,110.0
269,F1,30.0,0.5,100,110.0
270,C4,30.25,0.25,100,110.0
271,C4,30.25,0.25,100,110.0
272,G3,30.5,0.25,100,110.0
273,G3,30.5,0.25,100,110.0
274,G1,30.5,0.5,100,110.0
275,G1,30.5,0.5,100,110.0
276,F#2,30.5,0.5,100,110.0
277,C2,30.5,0.5,100,110.0
278,G3,30.75,0.25,100,110.0
279,G3,30.75,0.25,100,110.0
280,B-3,31.0,0.25,100,110.0
281,B-3,31.0,0.25,100,110.0
282,B1,31.0,0.25,100,110.0
283,B1,31.0,0.25,100,110.0
284,F#2,31.0,0.5,100,110.0
285,D2,31.0,0.5,100,110.0
286,C2,31.25,0.25,100,110.0
287,G3,31.25,0.25,100,110.0
288,G3,31.25,0.25,100,110.0
289,G1,31.25,0.25,100,110.0
290,G1,31.25,0.25,100,110.0
291,F#2,31.5,0.5,100,110.0
292,A3,31.5,0.25,100,110.0
293,A3,31.5,0.25,100,110.0
294,B1,31.5,0.5,100,110.0
295,B1,31.5,0.5,100,110.0
296,G3,31.75,0.25,100,110.0
297,G3,31.75,0.25,100,110.0
298,C3,32.0,0.25,100,110.0
299,C3,32.0,0.25,100,110.0
300,C2,32.0,0.5,100,110.0
301,C2,32.0,0.5,100,110.0
302,F#2,32.0,0.5,100,110.0
303,C2,32.0,0.5,100,110.0
304,C3,32.25,0.25,100,110.0
305,C3,32.25,0.25,100,110.0
306,F#2,32.5,0.5,100,110.0
307,C3,32.5,0.25,100,110.0
308,C3,32.5,0.25,100,110.0
309,G3,32.75,0.5,100,110.0
310,G3,32.75,0.5,100,110.0
311,C2,32.75,0.25,100,110.0
312,C2,32.75,0.25,100,110.0
313,F#2,33.0,0.5,100,110.0
314,D2,33.0,0.5,100,110.0
315,G3,33.25,0.25,100,110.0
316,G3,33.25,0.25,100,110.0
317,B-1,33.25,0.25,100,110.0
318,B-1,33.25,0.25,100,110.0
319,F#2,33.5,0.5,100,110.0
320,A3,33.5,0.25,100,110.0
321,A3,33.5,0.25,100,110.0
322,C2,33.5,0.5,100,110.0
323,C2,33.5,0.5,100,110.0
324,G3,33.75,0.25,100,110.0
325,G3,33.75,0.25,100,110.0
326,F#2,34.0,0.5,100,110.0
327,C3,34.0,0.25,100,110.0
328,C3,34.0,0.25,100,110.0
329,C4,34.25,0.25,100,110.0
330,C4,34.25,0.25,100,110.0
331,E1,34.25,0.25,100,110.0
332,E1,34.25,0.25,100,110.0
333,G3,34.5,0.25,100,110.0
334,G3,34.5,0.25,100,110.0
335,F1,34.5,0.5,100,110.0
336,F1,34.5,0.5,100,110.0
337,F#2,34.5,0.5,100,110.0
338,C2,34.5,0.5,100,110.0
339,G3,34.75,0.25,100,110.0
340,G3,34.75,0.25,100,110.0
341,B-3,35.0,0.25,100,110.0
342,B-3,35.0,0.25,100,110.0
343,G1,35.0,0.25,100,110.0
344,G1,35.0,0.25,100,110.0
345,F#2,35.0,0.5,100,110.0
346,D2,35.0,0.5,100,110.0
347,C2,35.25,0.25,100,110.0
348,G3,35.25,0.25,100,110.0
349,G3,35.25,0.25,100,110.0
350,G1,35.25,0.25,100,110.0
351,G1,35.25,0.25,100,110.0
352,F#2,35.5,0.5,100,110.0
353,A3,35.5,0.25,100,110.0
354,A3,35.5,0.25,100,110.0
355,A1,35.5,0.25,100,110.0
356,A1,35.5,0.25,100,110.0
357,G3,35.75,0.25,100,110.0
358,G3,35.75,0.25,100,110.0
359,G1,35.75,0.25,100,110.0
360,G1,35.75,0.25,100,110.0
361,C3,36.0,0.25,100,110.0
362,C3,36.0,0.25,100,110.0
363,C2,36.0,0.5,100,110.0
364,C2,36.0,0.5,100,110.0
365,F#2,36.0,0.5,100,110.0
366,C2,36.0,0.5,100,110.0
367,C3,36.25,0.25,100,110.0
368,C3,36.25,0.25,100,110.0
369,F#2,36.5,0.5,100,110.0
370,C3,36.5,0.25,100,110.0
371,C3,36.5,0.25,100,110.0
372,G3,36.75,0.5,100,110.0
373,G3,36.75,0.5,100,110.0
374,C2,36.75,0.5,100,110.0
375,C2,36.75,0.5,100,110.0
376,F#2,37.0,0.5,100,110.0
377,D2,37.0,0.5,100,110.0
378,G3,37.25,0.25,100,110.0
379,G3,37.25,0.25,100,110.0
380,B-1,37.25,0.25,100,110.0
381,B-1,37.25,0.25,100,110.0
382,F#2,37.5,0.5,100,110.0
383,A3,37.5,0.25,100,110.0
384,A3,37.5,0.25,100,110.0
385,C2,37.5,0.25,100,110.0
386,C2,37.5,0.25,100,110.0
387,G3,37.75,0.25,100,110.0
388,G3,37.75,0.25,100,110.0
389,E1,37.75,0.25,100,110.0
390,E1,37.75,0.25,100,110.0
391,F#2,38.0,0.5,100,110.0
392,C3,38.0,0.25,100,110.0
393,C3,38.0,0.25,100,110.0
394,F1,38.0,0.5,100,110.0
395,F1,38.0,0.25,100,110.0
396,F#1,38.0,0.5,100,110.0
397,C4,38.25,0.25,100,110.0
398,C4,38.25,0.25,100,110.0
399,G3,38.5,0.25,100,110.0
400,G3,38.5,0.25,100,110.0
401,G1,38.5,0.5,100,110.0
402,G1,38.5,0.5,100,110.0
403,F#2,38.5,0.5,100,110.0
404,C2,38.5,0.5,100,110.0
405,G3,38.75,0.25,100,110.0
406,G3,38.75,0.25,100,110.0
407,B-3,39.0,0.25,100,110.0
408,B-3,39.0,0.25,100,110.0
409,B1,39.0,0.25,100,110.0
410,B1,39.0,0.25,100,110.0
411,F#2,39.0,0.5,100,110.0
412,D2,39.0,0.5,100,110.0
413,C2,39.25,0.25,100,110.0
414,G3,39.25,0.25,100,110.0
415,G3,39.25,0.25,100,110.0
416,G1,39.25,0.25,100,110.0
417,G1,39.25,0.25,100,110.0
418,F#2,39.5,0.5,100,110.0
419,A3,39.5,0.25,100,110.0
420,A3,39.5,0.25,100,110.0
421,B1,39.5,0.5,100,110.0
422,B1,39.5,0.5,100,110.0
423,G3,39.75,0.25,100,110.0
424,G3,39.75,0.25,100,110.0
425,C3,40.0,0.25,100,110.0
426,C3,40.0,0.25,100,110.0
427,C2,40.0,0.5,100,110.0
428,C2,40.0,0.5,100,110.0
429,F#2,40.0,0.5,100,110.0
430,C2,40.0,0.5,100,110.0
431,C3,40.25,0.25,100,110.0
432,C3,40.25,0.25,100,110.0
433,F#2,40.5,0.5,100,110.0
434,C3,40.5,0.25,100,110.0
435,C3,40.5,0.25,100,110.0
436,G3,40.75,0.5,100,110.0
437,G3,40.75,0.5,100,110.0
438,C2,40.75,0.25,100,110.0
439,C2,40.75,0.25,100,110.0
440,F#2,41.0,0.5,100,110.0
441,D2,41.0,0.5,100,110.0
442,G3,41.25,0.25,100,110.0
443,G3,41.25,0.25,100,110.0
444,B-1,41.25,0.25,100,110.0
445,B-1,41.25,0.25,100,110.0
446,F#2,41.5,0.5,100,110.0
447,A3,41.5,0.25,100,110.0
448,A3,41.5,0.25,100,110.0
449,C2,41.5,0.5,100,110.0
450,C2,41.5,0.5,100,110.0
451,G3,41.75,0.25,100,110.0
452,G3,41.75,0.25,100,110.0
453,F#2,42.0,0.5,100,110.0
454,C3,42.0,0.25,100,110.0
455,C3,42.0,0.25,100,110.0
456,C4,42.25,0.25,100,110.0
457,C4,42.25,0.25,100,110.0
458,E1,42.25,0.25,100,110.0
459,E1,42.25,0.25,100,110.0
460,G3,42.5,0.25,100,110.0
461,G3,42.5,0.25,100,110.0
462,F1,42.5,0.5,100,110.0
463,F1,42.5,0.5,100,110.0
464,F#2,42.5,0.5,100,110.0
465,C2,42.5,0.5,100,110.0
466,G3,42.75,0.25,100,110.0
467,G3,42.75,0.25,100,110.0
468,B-3,43.0,0.25,100,110.0
469,B-3,43.0,0.25,100,110.0
470,G1,43.0,0.25,100,110.0
471,G1,43.0,0.25,100,110.0
472,F#2,43.0,0.5,100,110.0
473,D2,43.0,0.5,100,110.0
474,C2,43.25,0.25,100,110.0
475,G3,43.25,0.25,100,110.0
476,G3,43.25,0.25,100,110.0
477,G1,43.25,0.25,100,110.0
478,G1,43.25,0.25,100,110.0
479,F#2,43.5,0.5,100,110.0
480,A3,43.5,0.25,100,110.0
481,A3,43.5,0.25,100,110.0
482,A1,43.5,0.25,100,110.0
483,A1,43.5,0.25,100,110.0
484,G3,43.75,0.25,100,110.0
485,G3,43.75,0.25,100,110.0
486,G1,43.75,0.25,100,110.0
487,G1,43.75,0.25,100,110.0
488,C3,44.0,0.25,100,110.0
489,C3,44.0,0.25,100,110.0
490,C2,44.0,0.5,100,110.0
491,C2,44.0,0.5,100,110.0
492,F#2,44.0,0.5,100,110.0
493,C2,44.0,0.5,100,110.0
494,C3,44.25,0.25,100,110.0
495,C3,44.25,0.25,100,110.0
496,F#2,44.5,0.5,100,110.0
497,C3,44.5,0.25,100,110.0
498,C3,44.5,0.25,100,110.0
499,G3,44.75,0.5,100,110.0
500,G3,44.75,0.5,100,110.0
501,C2,44.75,0.5,100,110.0
502,C2,44.75,0.5,100,110.0
503,F#2,45.0,0.5,100,110.0
504,D2,45.0,0.5,100,110.0
505,G3,45.25,0.25,100,110.0
506,G3,45.25,0.25,100,110.0
507,B-1,45.25,0.25,100,110.0
508,B-1,45.25,0.25,100,110.0
509,F#2,45.5,0.5,100,110.0
510,A3,45.5,0.25,100,110.0
511,A3,45.5,0.25,100,110.0
512,C2,45.5,0.25,100,110.0
513,C2,45.5,0.25,100,110.0
514,G3,45.75,0.25,100,110.0
515,G3,45.75,0.25,100,110.0
516,E1,45.75,0.25,100,110.0
517,E1,45.75,0.25,100,110.0
518,F#2,46.0,0.5,100,110.0
519,C3,46.0,0.25,100,110.0
520,C3,46.0,0.25,100,110.0
521,F1,46.0,0.5,100,110.0
522,F1,46.0,0.5,100,110.0
523,C4,46.25,0.25,100,110.0
524,C4,46.25,0.25,100,110.0
525,G3,46.5,0.25,100,110.0
526,G3,46.5,0.25,100,110.0
527,G1,46.5,0.5,100,110.0
528,G1,46.5,0.5,100,110.0
529,F#2,46.5,0.5,100,110.0
530,C2,46.5,0.5,100,110.0
531,G3,46.75,0.25,100,110.0
532,G3,46.75,0.25,100,110.0
533,B-3,47.0,0.25,100,110.0
534,B-3,47.0,0.25,100,110.0
535,B1,47.0,0.25,100,110.0
536,B1,47.0,0.25,100,110.0
537,F#2,47.0,0.5,100,110.0
538,D2,47.0,0.5,100,110.0
539,C2,47.25,0.25,100,110.0
540,G3,47.25,0.25,100,110.0
541,G3,47.25,0.25,100,110.0
542,G1,47.25,0.25,100,110.0
543,G1,47.25,0.25,100,110.0
544,F#2,47.5,0.5,100,110.0
545,A3,47.5,0.25,100,110.0
546,A3,47.5,0.25,100,110.0
547,B1,47.5,0.5,100,110.0
548,B1,47.5,0.5,100,110.0
549,G3,47.75,0.25,100,110.0
550,G3,47.75,0.25,100,110.0
551,C3,48.0,0.25,100,110.0
552,C3,48.0,0.25,100,110.0
553,C2,48.0,0.5,100,110.0
554,C2,48.0,0.5,100,110.0
555,F#2,48.0,0.5,100,110.0
556,C2,48.0,0.5,100,110.0
557,C3,48.25,0.25,100,110.0
558,C3,48.25,0.25,100,110.0
559,F#2,48.5,0.5,100,110.0
560,C3,48.5,0.25,100,110.0
561,C3,48.5,0.25,100,110.0
562,G3,48.75,0.5,100,110.0
563,G3,48.75,0.5,100,110.0
564,C2,48.75,0.25,100,110.0
565,C2,48.75,0.25,100,110.0
566,F#2,49.0,0.5,100,110.0
567,D2,49.0,0.5,100,110.0
568,G3,49.25,0.25,100,110.0
569,G3,49.25,0.25,100,110.0
570,B-1,49.25,0.25,100,110.0
571,B-1,49.25,0.25,100,110.0
572,F#2,49.5,0.5,100,110.0
573,A3,49.5,0.25,100,110.0
574,A3,49.5,0.25,100,110.0
575,C2,49.5,0.5,100,110.0
576,C2,49.5,0.5,100,110.0
577,G3,49.75,0.25,100,110.0
578,G3,49.75,0.25,100,110.0
579,F#2,50.0,0.5,100,110.0
580,C3,50.0,0.25,100,110.0
581,C3,50.0,0.25,100,110.0
582,C4,50.25,0.25,100,110.0
583,C4,50.25,0.25,100,110.0
584,E1,50.25,0.25,100,110.0
585,E1,50.25,0.25,100,110.0
586,G3,50.5,0.25,100,110.0
587,G3,50.5,0.25,100,110.0
588,F1,50.5,0.5,100,110.0
589,F1,50.5,0.5,100,110.0
590,F#2,50.5,0.5,100,110.0
591,C2,50.5,0.5,100,110.0
592,G3,50.75,0.25,100,110.0
593,G3,50.75,0.25,100,110.0
594,B-3,51.0,0.25,100,110.0
595,B-3,51.0,0.25,100,110.0
596,G1,51.0,0.25,100,110.0
597,G1,51.0,0.25,100,110.0
598,F#2,51.0,0.5,100,110.0
599,D2,51.0,0.5,100,110.0
600,C2,51.25,0.25,100,110.0
601,G3,51.25,0.25,100,110.0
602,G3,51.25,0.25,100,110.0
603,G1,51.25,0.25,100,110.0
604,G1,51.25,0.25,100,110.0
605,F#2,51.5,0.5,100,110.0
606,A3,51.5,0.25,100,110.0
607,A3,51.5,0.25,100,110.0
608,A1,51.5,0.25,100,110.0
609,A1,51.5,0.25,100,110.0
610,G3,51.75,0.25,100,110.0
611,G3,51.75,0.25,100,110.0
612,G1,51.75,0.25,100,110.0
613,G1,51.75,0.25,100,110.0
614,C3,52.0,0.25,100,110.0
615,C3,52.0,0.25,100,110.0
616,C2,52.0,0.5,100,110.0
617,C2,52.0,0.5,100,110.0
618,F#2,52.0,0.5,100,110.0
619,C2,52.0,0.5,100,110.0
620,C3,52.25,0.25,100,110.0
621,C3,52.25,0.25,100,110.0
622,F#2,52.5,0.5,100,110.0
623,C3,52.5,0.25,100,110.0
624,C3,52.5,0.25,100,110.0
625,G3,52.75,0.5,100,110.0
626,G3,52.75,0.5,100,110.0
627,C2,52.75,0.5,100,110.0
628,C2,52.75,0.5,100,110.0
629,F#2,53.0,0.5,100,110.0
630,D2,53.0,0.5,100,110.0
631,G3,53.25,0.25,100,110.0
632,G3,53.25,0.25,100,110.0
633,B-1,53.25,0.25,100,110.0
634,B-1,53.25,0.25,100,110.0
635,F#2,53.5,0.5,100,110.0
636,A3,53.5,0.25,100,110.0
637,A3,53.5,0.25,100,110.0
638,C2,53.5,667/1000,100,110.0
639,C2,53.5,667/1000,100,110.0
640,G3,53.75,0.25,100,110.0
641,G3,53.75,0.25,100,110.0
642,F#2,54.0,0.5,100,110.0
643,C3,54.0,0.25,100,110.0
644,C3,54.0,0.25,100,110.0
645,C4,54.25,0.25,100,110.0
646,C4,54.25,0.25,100,110.0
647,E1,54.25,0.25,100,110.0
648,E1,54.25,0.25,100,110.0
649,G3,54.5,0.25,100,110.0
650,G3,54.5,0.25,100,110.0
651,G1,54.5,0.25,100,110.0
652,G1,54.5,0.25,100,110.0
653,F#2,54.5,0.5,100,110.0
654,C2,54.5,0.5,100,110.0
655,G3,54.75,0.25,100,110.0
656,G3,54.75,0.25,100,110.0
657,G1,54.75,0.25,100,110.0
658,G1,54.75,0.25,100,110.0
659,D2,55.0,0.5,100,110.0
660,A1,55.0,1.0,100,110.0
661,A1,55.0,1.0,100,110.0
662,E3,55.0,1.0,100,110.0
663,F#2,55.0,1.0,100,110.0
664,A3,55.0,1.0,100,110.0
665,E3,55.0,1.0,100,110.0
666,A2,55.0,1.0,100,110.0
667,A3,55.0,1.0,100,110.0
668,E3,55.0,1.0,100,110.0
669,A2,55.0,1.0,100,110.0
670,A3,56.0,0.5,100,110.0
671,A2,56.0,0.25,100,110.0
672,A2,56.0,0.25,100,110.0
673,A1,56.0,0.25,100,110.0
674,A1,56.0,0.25,100,110.0
675,B-2,56.0,1.0,100,110.0
676,C2,56.0,1.0,100,110.0
677,B-2,56.25,0.25,100,110.0
678,B-2,56.25,0.25,100,110.0
679,B-1,56.25,0.25,100,110.0
680,B-1,56.25,0.25,100,110.0
681,F#2,56.5,0.5,100,110.0
682,B2,56.5,0.25,100,110.0
683,B2,56.5,0.25,100,110.0
684,C2,56.5,0.25,100,110.0
685,C2,56.5,0.25,100,110.0
686,E3,56.75,0.25,100,110.0
687,E3,56.75,0.25,100,110.0
688,E2,56.75,0.25,100,110.0
689,E2,56.75,0.25,100,110.0
690,F#2,57.0,0.5,100,110.0
691,D2,57.0,1.0,100,110.0
692,A2,57.25,0.25,100,110.0
693,A2,57.25,0.25,100,110.0
694,A1,57.25,0.25,100,110.0
695,A1,57.25,0.25,100,110.0
696,F#2,57.5,0.5,100,110.0
697,B-2,57.5,0.25,100,110.0
698,B-2,57.5,0.25,100,110.0
699,B-1,57.5,0.25,100,110.0
700,B-1,57.5,0.25,100,110.0
701,C2,57.75,0.25,100,110.0
702,B2,57.75,0.25,100,110.0
703,B2,57.75,0.25,100,110.0
704,B1,57.75,0.25,100,110.0
705,B1,57.75,0.25,100,110.0
706,F#2,58.0,0.5,100,110.0
707,C2,58.0,0.25,100,110.0
708,E3,58.0,0.5,100,110.0
709,E3,58.0,0.5,100,110.0
710,E2,58.0,0.5,100,110.0
711,E2,58.0,0.5,100,110.0
712,E2,58.5,0.5,100,110.0
713,E2,58.5,0.5,100,110.0
714,E1,58.5,0.5,100,110.0
715,E1,58.5,0.5,100,110.0
716,F#2,58.5,0.5,100,110.0
717,C2,58.5,0.5,100,110.0
718,E3,59.0,0.5,100,110.0
719,F#2,59.0,0.5,100,110.0
720,D2,59.0,0.5,100,110.0
721,F#2,59.5,0.5,100,110.0
722,E2,59.5,21/500,100,110.0
723,A2,60.0,0.25,100,110.0
724,A2,60.0,0.25,100,110.0
725,A1,60.0,0.25,100,110.0
726,A1,60.0,0.25,100,110.0
727,B-2,60.0,1.0,100,110.0
728,C2,60.0,1.0,100,110.0
729,B-2,60.25,0.25,100,110.0
730,B-2,60.25,0.25,100,110.0
731,B-1,60.25,0.25,100,110.0
732,B-1,60.25,0.25,100,110.0
733,F#2,60.5,0.5,100,110.0
734,B2,60.5,0.25,100,110.0
735,B2,60.5,0.25,100,110.0
736,C2,60.5,0.25,100,110.0
737,C2,60.5,0.25,100,110.0
738,E3,60.75,0.25,100,110.0
739,E3,60.75,0.25,100,110.0
740,E2,60.75,0.25,100,110.0
741,E2,60.75,0.25,100,110.0
742,F#2,61.0,0.5,100,110.0
743,D2,61.0,1.0,100,110.0
744,A2,61.25,0.25,100,110.0
745,A2,61.25,0.25,100,110.0
746,A1,61.25,0.25,100,110.0
747,A1,61.25,0.25,100,110.0
748,F#2,61.5,0.5,100,110.0
749,B-2,61.5,0.25,100,110.0
750,B-2,61.5,0.25,100,110.0
751,B-1,61.5,0.25,100,110.0
752,B-1,61.5,0.25,100,110.0
753,C2,61.75,0.25,100,110.0
754,B2,61.75,0.25,100,110.0
755,B2,61.75,0.25,100,110.0
756,B1,61.75,0.25,100,110.0
757,B1,61.75,0.25,100,110.0
758,F#2,62.0,0.5,100,110.0
759,C2,62.0,0.25,100,110.0
760,E3,62.0,0.5,100,110.0
761,E3,62.0,0.5,100,110.0
762,E2,62.0,0.5,100,110.0
763,E2,62.0,0.5,100,110.0
764,G2,62.5,0.25,100,110.0
765,G2,62.5,0.25,100,110.0
766,E1,62.5,0.5,100,110.0
767,E1,62.5,0.5,100,110.0
768,F#2,62.5,0.5,100,110.0
769,C2,62.5,0.5,100,110.0
770,E2,62.75,0.25,100,110.0
771,E2,62.75,0.25,100,110.0
772,E3,63.0,1.0,127,110.0
773,E3,63.0,1.0,127,110.0
774,F#2,63.0,0.5,100,110.0
775,D2,63.0,0.5,100,110.0
776,F#2,63.5,0.5,100,110.0
777,A2,64.0,0.25,100,110.0
778,A2,64.0,0.25,100,110.0
779,A1,64.0,0.25,100,110.0
780,A1,64.0,0.25,100,110.0
781,B-2,64.0,1.0,100,110.0
782,C2,64.0,1.0,100,110.0
783,B-2,64.25,0.25,100,110.0
784,B-2,64.25,0.25,100,110.0
785,B-1,64.25,0.25,100,110.0
786,B-1,64.25,0.25,100,110.0
787,F#2,64.5,0.5,100,110.0
788,B2,64.5,0.25,100,110.0
789,B2,64.5,0.25,100,110.0
790,C2,64.5,0.25,100,110.0
791,C2,64.5,0.25,100,110.0
792,E3,64.75,0.25,100,110.0
793,E3,64.75,0.25,100,110.0
794,E2,64.75,0.25,100,110.0
795,E2,64.75,0.25,100,110.0
796,F#2,65.0,0.5,100,110.0
797,D2,65.0,1.0,100,110.0
798,A2,65.25,0.25,100,110.0
799,A2,65.25,0.25,100,110.0
800,A1,65.25,0.25,100,110.0
801,A1,65.25,0.25,100,110.0
802,F#2,65.5,0.5,100,110.0
803,B-2,65.5,0.25,100,110.0
804,B-2,65.5,0.25,100,110.0
805,B-1,65.5,0.25,100,110.0
806,B-1,65.5,0.25,100,110.0
807,C2,65.75,0.25,100,110.0
808,B2,65.75,0.25,100,110.0
809,B2,65.75,0.25,100,110.0
810,B1,65.75,0.25,100,110.0
811,B1,65.75,0.25,100,110.0
812,F#2,66.0,0.5,100,110.0
813,C2,66.0,0.25,100,110.0
814,E3,66.0,0.5,100,110.0
815,E3,66.0,0.5,100,110.0
816,E2,66.0,0.5,100,110.0
817,E2,66.0,0.5,100,110.0
818,E2,66.5,0.5,100,110.0
819,E2,66.5,0.5,100,110.0
820,E1,66.5,0.5,100,110.0
821,E1,66.5,0.5,100,110.0
822,F#2,66.5,0.5,100,110.0
823,C2,66.5,0.5,100,110.0
824,E3,67.0,0.5,100,110.0
825,F#2,67.0,0.5,100,110.0
826,D2,67.0,0.5,100,110.0
827,F#2,67.5,0.5,100,110.0
828,E2,67.5,21/500,100,110.0
829,A2,68.0,0.25,100,110.0
830,A2,68.0,0.25,100,110.0
831,A1,68.0,0.25,100,110.0
832,A1,68.0,0.25,100,110.0
833,B-2,68.0,1.0,100,110.0
834,C2,68.0,1.0,100,110.0
835,B-2,68.25,0.25,100,110.0
836,B-2,68.25,0.25,100,110.0
837,B-1,68.25,0.25,100,110.0
838,B-1,68.25,0.25,100,110.0
839,F#2,68.5,0.5,100,110.0
840,B2,68.5,0.25,100,110.0
841,B2,68.5,0.25,100,110.0
842,C2,68.5,0.25,100,110.0
843,C2,68.5,0.25,100,110.0
844,E3,68.75,0.25,100,110.0
845,E3,68.75,0.25,100,110.0
846,E2,68.75,0.25,100,110.0
847,E2,68.75,0.25,100,110.0
848,F#2,69.0,0.5,100,110.0
849,D2,69.0,1.0,100,110.0
850,A2,69.25,0.25,100,110.0
851,A2,69.25,0.25,100,110.0
852,A1,69.25,0.25,100,110.0
853,A1,69.25,0.25,100,110.0
854,F#2,69.5,0.5,100,110.0
855,B-2,69.5,0.25,100,110.0
856,B-2,69.5,0.25,100,110.0
857,B-1,69.5,0.25,100,110.0
858,B-1,69.5,0.25,100,110.0
859,C2,69.75,0.25,100,110.0
860,B2,69.75,0.25,100,110.0
861,B2,69.75,0.25,100,110.0
862,B1,69.75,0.25,100,110.0
863,B1,69.75,0.25,100,110.0
864,F#2,70.0,0.5,100,110.0
865,C2,70.0,0.25,100,110.0
866,E3,70.0,0.5,100,110.0
867,E3,70.0,0.5,100,110.0
868,E2,70.0,0.5,100,110.0
869,E2,70.0,0.5,100,110.0
870,A1,70.5,1.0,100,110.0
871,A1,70.5,1.0,100,110.0
872,A3,70.5,0.5,100,110.0
873,B-2,70.5,0.5,100,110.0
874,D2,70.5,0.5,100,110.0
875,A3,70.5,1.5,100,110.0
876,E3,70.5,1.5,100,110.0
877,A2,70.5,1.5,100,110.0
878,A3,70.5,1.5,100,110.0
879,E3,70.5,1.5,100,110.0
880,A2,70.5,1.5,100,110.0
881,E2,71.5,21/500,100,110.0
882,D2,71.5,0.5,100,110.0
883,F#2,71.5,0.5,100,110.0
884,C3,72.0,0.25,100,110.0
885,C3,72.0,0.25,100,110.0
886,C3,72.0,0.25,100,110.0
887,C2,72.0,0.5,100,110.0
888,C2,72.0,0.5,100,110.0
889,A3,72.0,0.5,100,110.0
890,F#2,72.0,0.5,100,110.0
891,C2,72.0,0.5,100,110.0
892,A3,72.0,0.5,100,110.0
893,E3,72.0,0.5,100,110.0
894,A2,72.0,0.5,100,110.0
895,A3,72.0,0.5,100,110.0
896,E3,72.0,0.5,100,110.0
897,A2,72.0,0.5,100,110.0
898,C3,72.25,0.25,100,110.0
899,C3,72.25,0.25,100,110.0
900,F#2,72.5,0.5,100,110.0
901,C3,72.5,0.25,100,110.0
902,C3,72.5,0.25,100,110.0
903,G3,72.75,0.5,100,110.0
904,G3,72.75,0.5,100,110.0
905,C2,72.75,0.25,100,110.0
906,C2,72.75,0.25,100,110.0
907,F#2,73.0,0.5,100,110.0
908,D2,73.0,0.5,100,110.0
909,G3,73.25,0.25,100,110.0
910,G3,73.25,0.25,100,110.0
911,B-1,73.25,0.25,100,110.0
912,B-1,73.25,0.25,100,110.0
913,F#2,73.5,0.5,100,110.0
914,A3,73.5,0.25,100,110.0
915,A3,73.5,0.25,100,110.0
916,C2,73.5,0.5,100,110.0
917,C2,73.5,0.5,100,110.0
918,G3,73.75,0.25,100,110.0
919,G3,73.75,0.25,100,110.0
920,F#2,74.0,0.5,100,110.0
921,C3,74.0,0.25,100,110.0
922,C3,74.0,0.25,100,110.0
923,C4,74.25,0.25,100,110.0
924,C4,74.25,0.25,100,110.0
925,E1,74.25,0.25,100,110.0
926,E1,74.25,0.25,100,110.0
927,G3,74.5,0.25,100,110.0
928,G3,74.5,0.25,100,110.0
929,F1,74.5,0.5,100,110.0
930,F1,74.5,0.5,100,110.0
931,F#2,74.5,0.5,100,110.0
932,C2,74.5,0.5,100,110.0
933,G3,74.75,0.25,100,110.0
934,G3,74.75,0.25,100,110.0
935,B-3,75.0,0.25,100,110.0
936,B-3,75.0,0.25,100,110.0
937,G1,75.0,0.25,100,110.0
938,G1,75.0,0.25,100,110.0
939,F#2,75.0,0.5,100,110.0
940,D2,75.0,0.5,100,110.0
941,C2,75.25,0.25,100,110.0
942,G3,75.25,0.25,100,110.0
943,G3,75.25,0.25,100,110.0
944,G1,75.25,0.25,100,110.0
945,G1,75.25,0.25,100,110.0
946,F#2,75.5,0.5,100,110.0
947,A3,75.5,0.25,100,110.0
948,A3,75.5,0.25,100,110.0
949,A1,75.5,0.25,100,110.0
950,A1,75.5,0.25,100,110.0
951,G3,75.75,0.25,100,110.0
952,G3,75.75,0.25,100,110.0
953,G1,75.75,0.25,100,110.0
954,G1,75.75,0.25,100,110.0
955,C3,76.0,0.25,100,110.0
956,C3,76.0,0.25,100,110.0
957,C2,76.0,0.5,100,110.0
958,C2,76.0,0.5,100,110.0
959,F#2,76.0,0.5,100,110.0
960,C2,76.0,0.5,100,110.0
961,C3,76.25,0.25,100,110.0
962,C3,76.25,0.25,100,110.0
963,F#2,76.5,0.5,100,110.0
964,C3,76.5,0.25,100,110.0
965,C3,76.5,0.25,100,110.0
966,G3,76.75,0.5,100,110.0
967,G3,76.75,0.5,100,110.0
968,C2,76.75,0.5,100,110.0
969,C2,76.75,0.5,100,110.0
970,F#2,77.0,0.5,100,110.0
971,D2,77.0,0.5,100,110.0
972,G3,77.25,0.25,100,110.0
973,G3,77.25,0.25,100,110.0
974,B-1,77.25,0.25,100,110.0
975,B-1,77.25,0.25,100,110.0
976,F#2,77.5,0.5,100,110.0
977,A3,77.5,0.25,100,110.0
978,A3,77.5,0.25,100,110.0
979,C2,77.5,0.25,100,110.0
980,C2,77.5,0.25,100,110.0
981,G3,77.75,0.25,100,110.0
982,G3,77.75,0.25,100,110.0
983,E1,77.75,0.25,100,110.0
984,E1,77.75,0.25,100,110.0
985,F#2,78.0,0.5,100,110.0
986,C3,78.0,0.25,100,110.0
987,C3,78.0,0.25,100,110.0
988,F1,78.0,0.5,100,110.0
989,F1,78.0,0.5,100,110.0
990,C4,78.25,0.25,100,110.0
991,C4,78.25,0.25,100,110.0
992,G3,78.5,0.25,100,110.0
993,G3,78.5,0.25,100,110.0
994,G1,78.5,0.5,100,110.0
995,G1,78.5,0.5,100,110.0
996,F#2,78.5,0.5,100,110.0
997,C2,78.5,0.5,100,110.0
998,G3,78.75,0.25,100,110.0
999,G3,78.75,0.25,100,110.0
1000,B-3,79.0,0.25,100,110.0
1001,B-3,79.0,0.25,100,110.0
1002,B1,79.0,0.25,100,110.0
1003,B1,79.0,0.25,100,110.0
1004,F#2,79.0,0.5,100,110.0
1005,D2,79.0,0.5,100,110.0
1006,C2,79.25,0.25,100,110.0
1007,G3,79.25,0.25,100,110.0
1008,G3,79.25,0.25,100,110.0
1009,G1,79.25,0.25,100,110.0
1010,G1,79.25,0.25,100,110.0
1011,F#2,79.5,0.5,100,110.0
1012,A3,79.5,0.25,100,110.0
1013,A3,79.5,0.25,100,110.0
1014,B1,79.5,0.5,100,110.0
1015,B1,79.5,0.5,100,110.0
1016,G3,79.75,0.25,100,110.0
1017,G3,79.75,0.25,100,110.0
1018,C3,80.0,0.25,100,110.0
1019,C3,80.0,0.25,100,110.0
1020,C2,80.0,0.5,100,110.0
1021,C2,80.0,0.5,100,110.0
1022,F#2,80.0,0.5,100,110.0
1023,C2,80.0,0.5,100,110.0
1024,C3,80.25,0.25,100,110.0
1025,C3,80.25,0.25,100,110.0
1026,F#2,80.5,0.5,100,110.0
1027,C3,80.5,0.25,100,110.0
1028,C3,80.5,0.25,100,110.0
1029,G3,80.75,0.5,100,110.0
1030,G3,80.75,0.5,100,110.0
1031,C2,80.75,0.25,100,110.0
1032,C2,80.75,0.25,100,110.0
1033,F#2,81.0,0.5,100,110.0
1034,D2,81.0,0.5,100,110.0
1035,G3,81.25,0.25,100,110.0
1036,G3,81.25,0.25,100,110.0
1037,B-1,81.25,0.25,100,110.0
1038,B-1,81.25,0.25,100,110.0
1039,F#2,81.5,0.5,100,110.0
1040,A3,81.5,0.25,100,110.0
1041,A3,81.5,0.25,100,110.0
1042,C2,81.5,0.5,100,110.0
1043,C2,81.5,0.5,100,110.0
1044,G3,81.75,0.25,100,110.0
1045,G3,81.75,0.25,100,110.0
1046,F#2,82.0,0.5,100,110.0
1047,C3,82.0,0.25,100,110.0
1048,C3,82.0,0.25,100,110.0
1049,C4,82.25,0.25,100,110.0
1050,C4,82.25,0.25,100,110.0
1051,E1,82.25,0.25,100,110.0
1052,E1,82.25,0.25,100,110.0
1053,G3,82.5,0.25,100,110.0
1054,G3,82.5,0.25,100,110.0
1055,F1,82.5,0.5,100,110.0
1056,F1,82.5,0.5,100,110.0
1057,F#2,82.5,0.5,100,110.0
1058,C2,82.5,0.5,100,110.0
1059,G3,82.75,0.25,100,110.0
1060,G3,82.75,0.25,100,110.0
1061,B-3,83.0,0.25,100,110.0
1062,B-3,83.0,0.25,100,110.0
1063,G1,83.0,0.25,100,110.0
1064,G1,83.0,0.25,100,110.0
1065,F#2,83.0,0.5,100,110.0
1066,D2,83.0,0.5,100,110.0
1067,C2,83.25,0.25,100,110.0
1068,G3,83.25,0.25,100,110.0
1069,G3,83.25,0.25,100,110.0
1070,G1,83.25,0.25,100,110.0
1071,G1,83.25,0.25,100,110.0
1072,F#2,83.5,0.5,100,110.0
1073,A3,83.5,0.25,100,110.0
1074,A3,83.5,0.25,100,110.0
1075,A1,83.5,0.25,100,110.0
1076,A1,83.5,0.25,100,110.0
1077,G3,83.75,0.25,100,110.0
1078,G3,83.75,0.25,100,110.0
1079,G1,83.75,0.25,100,110.0
1080,G1,83.75,0.25,100,110.0
1081,C3,84.0,0.25,100,110.0
1082,C3,84.0,0.25,100,110.0
1083,C2,84.0,0.5,100,110.0
1084,C2,84.0,0.5,100,110.0
1085,F#2,84.0,0.5,100,110.0
1086,C2,84.0,0.5,100,110.0
1087,C3,84.25,0.25,100,110.0
1088,C3,84.25,0.25,100,110.0
1089,F#2,84.5,0.5,100,110.0
1090,C3,84.5,0.25,100,110.0
1091,C3,84.5,0.25,100,110.0
1092,G3,84.75,0.5,100,110.0
1093,G3,84.75,0.5,100,110.0
1094,C2,84.75,0.5,100,110.0
1095,C2,84.75,0.5,100,110.0
1096,F#2,85.0,0.5,100,110.0
1097,D2,85.0,0.5,100,110.0
1098,G3,85.25,0.25,100,110.0
1099,G3,85.25,0.25,100,110.0
1100,B-1,85.25,0.25,100,110.0
1101,B-1,85.25,0.25,100,110.0
1102,F#2,85.5,0.5,100,110.0
1103,A3,85.5,0.25,100,110.0
1104,A3,85.5,0.25,100,110.0
1105,C2,85.5,0.25,100,110.0
1106,C2,85.5,0.25,100,110.0
1107,G3,85.75,0.25,100,110.0
1108,G3,85.75,0.25,100,110.0
1109,E1,85.75,0.25,100,110.0
1110,E1,85.75,0.25,100,110.0
1111,F#2,86.0,0.5,100,110.0
1112,C3,86.0,0.25,100,110.0
1113,C3,86.0,0.25,100,110.0
1114,F1,86.0,0.5,100,110.0
1115,F1,86.0,0.5,100,110.0
1116,C4,86.25,0.25,100,110.0
1117,C4,86.25,0.25,100,110.0
1118,G4,86.5,0.25,100,110.0
1119,G3,86.5,0.25,100,110.0
1120,G3,86.5,0.25,100,110.0
1121,G1,86.5,0.5,100,110.0
1122,G1,86.5,0.5,100,110.0
1123,F#2,86.5,0.5,100,110.0
1124,C2,86.5,0.5,100,110.0
1125,G4,86.75,0.25,100,110.0
1126,G3,86.75,0.25,100,110.0
1127,G3,86.75,0.25,100,110.0
1128,G4,87.0,0.25,100,110.0
1129,B-3,87.0,0.25,100,110.0
1130,B-3,87.0,0.25,100,110.0
1131,B1,87.0,0.25,100,110.0
1132,B1,87.0,0.25,100,110.0
1133,F#2,87.0,0.5,100,110.0
1134,D2,87.0,0.5,100,110.0
1135,G3,87.25,0.25,100,110.0
1136,G3,87.25,0.25,100,110.0
1137,G1,87.25,0.25,100,110.0
1138,G1,87.25,0.25,100,110.0
1139,G4,87.25,0.25,100,110.0
1140,C2,87.25,0.25,100,110.0
1141,G4,87.5,0.25,100,110.0
1142,F#2,87.5,0.5,100,110.0
1143,A3,87.5,0.25,100,110.0
1144,A3,87.5,0.25,100,110.0
1145,B1,87.5,0.5,100,110.0
1146,B1,87.5,0.5,100,110.0
1147,G4,87.75,0.25,100,110.0
1148,G3,87.75,0.25,100,110.0
1149,G3,87.75,0.25,100,110.0
1150,C3,88.0,0.25,100,110.0
1151,C3,88.0,0.25,100,110.0
1152,C2,88.0,0.5,100,110.0
1153,C2,88.0,0.5,100,110.0
1154,A3,88.0,0.5,100,110.0
1155,F#2,88.0,0.5,100,110.0
1156,C2,88.0,0.5,100,110.0
1157,C3,88.25,0.25,100,110.0
1158,C3,88.25,0.25,100,110.0
1159,F#2,88.5,0.5,100,110.0
1160,C3,88.5,0.25,100,110.0
1161,C3,88.5,0.25,100,110.0
1162,G3,88.75,0.5,100,110.0
1163,G3,88.75,0.5,100,110.0
1164,C2,88.75,0.25,100,110.0
1165,C2,88.75,0.25,100,110.0
1166,F#2,89.0,0.5,100,110.0
1167,D2,89.0,0.5,100,110.0
1168,G3,89.25,0.25,100,110.0
1169,G3,89.25,0.25,100,110.0
1170,B-1,89.25,0.25,100,110.0
1171,B-1,89.25,0.25,100,110.0
1172,F#2,89.5,0.5,100,110.0
1173,A3,89.5,0.25,100,110.0
1174,A3,89.5,0.25,100,110.0
1175,C2,89.5,0.5,100,110.0
1176,C2,89.5,0.5,100,110.0
1177,G3,89.75,0.25,100,110.0
1178,G3,89.75,0.25,100,110.0
1179,F#2,90.0,0.5,100,110.0
1180,C3,90.0,0.25,100,110.0
1181,C3,90.0,0.25,100,110.0
1182,C4,90.25,0.25,100,110.0
1183,C4,90.25,0.25,100,110.0
1184,E1,90.25,0.25,100,110.0
1185,E1,90.25,0.25,100,110.0
1186,G3,90.5,0.25,100,110.0
1187,G3,90.5,0.25,100,110.0
1188,F1,90.5,0.5,100,110.0
1189,F1,90.5,0.5,100,110.0
1190,F#2,90.5,0.5,100,110.0
1191,C2,90.5,0.5,100,110.0
1192,G3,90.75,0.25,100,110.0
1193,G3,90.75,0.25,100,110.0
1194,B-3,91.0,0.25,100,110.0
1195,B-3,91.0,0.25,100,110.0
1196,G1,91.0,0.25,100,110.0
1197,G1,91.0,0.25,100,110.0
1198,F#2,91.0,0.5,100,110.0
1199,D2,91.0,0.5,100,110.0
1200,C2,91.25,0.25,100,110.0
1201,G3,91.25,0.25,100,110.0
1202,G3,91.25,0.25,100,110.0
1203,G1,91.25,0.25,100,110.0
1204,G1,91.25,0.25,100,110.0
1205,F#2,91.5,0.5,100,110.0
1206,A3,91.5,0.25,100,110.0
1207,A3,91.5,0.25,100,110.0
1208,A1,91.5,0.25,100,110.0
1209,A1,91.5,0.25,100,110.0
1210,G3,91.75,0.25,100,110.0
1211,G3,91.75,0.25,100,110.0
1212,G1,91.75,0.25,100,110.0
1213,G1,91.75,0.25,100,110.0
1214,C3,92.0,0.25,100,110.0
1215,C3,92.0,0.25,100,110.0
1216,C2,92.0,0.5,100,110.0
1217,C2,92.0,0.5,100,110.0
1218,F#2,92.0,0.5,100,110.0
1219,C2,92.0,0.5,100,110.0
1220,C3,92.25,0.25,100,110.0
1221,C3,92.25,0.25,100,110.0
1222,F#2,92.5,0.5,100,110.0
1223,C3,92.5,0.25,100,110.0
1224,C3,92.5,0.25,100,110.0
1225,G3,92.75,0.5,100,110.0
1226,G3,92.75,0.5,100,110.0
1227,C2,92.75,0.5,100,110.0
1228,C2,92.75,0.5,100,110.0
1229,F#2,93.0,0.5,100,110.0
1230,D2,93.0,0.5,100,110.0
1231,G3,93.25,0.25,100,110.0
1232,G3,93.25,0.25,100,110.0
1233,B-1,93.25,0.25,100,110.0
1234,B1,93.25,0.25,100,110.0
1235,F#2,93.5,0.5,100,110.0
1236,A3,93.5,0.25,100,110.0
1237,A3,93.5,0.25,100,110.0
1238,C2,93.5,0.25,100,110.0
1239,C2,93.5,0.25,100,110.0
1240,G3,93.75,0.25,100,110.0
1241,G3,93.75,0.25,100,110.0
1242,E1,93.75,0.25,100,110.0
1243,E1,93.75,0.25,100,110.0
1244,F#2,94.0,0.5,100,110.0
1245,C3,94.0,0.25,100,110.0
1246,C3,94.0,0.25,100,110.0
1247,F1,94.0,0.5,100,110.0
1248,F#1,94.0,0.5,100,110.0
1249,C4,94.25,0.25,100,110.0
1250,C4,94.25,0.25,100,110.0
1251,G3,94.5,0.25,100,110.0
1252,G3,94.5,0.25,100,110.0
1253,G1,94.5,0.5,100,110.0
1254,G1,94.5,0.5,100,110.0
1255,F#2,94.5,0.5,100,110.0
1256,C2,94.5,0.5,100,110.0
1257,G3,94.75,0.25,100,110.0
1258,G3,94.75,0.25,100,110.0
1259,B-3,95.0,0.25,100,110.0
1260,B-3,95.0,0.25,100,110.0
1261,B1,95.0,0.25,100,110.0
1262,B1,95.0,0.25,100,110.0
1263,F#2,95.0,0.5,100,110.0
1264,D2,95.0,0.5,100,110.0
1265,C2,95.25,0.25,100,110.0
1266,G3,95.25,0.25,100,110.0
1267,G3,95.25,0.25,100,110.0
1268,G1,95.25,0.25,100,110.0
1269,G1,95.25,0.25,100,110.0
1270,F#2,95.5,0.5,100,110.0
1271,A3,95.5,0.25,100,110.0
1272,A3,95.5,0.25,100,110.0
1273,B1,95.5,0.5,100,110.0
1274,B1,95.5,0.5,100,110.0
1275,G3,95.75,0.25,100,110.0
1276,G3,95.75,0.25,100,110.0
1277,C3,96.0,0.25,100,110.0
1278,C3,96.0,0.25,100,110.0
1279,C2,96.0,0.5,100,110.0
1280,C2,96.0,0.5,100,110.0
1281,F#2,96.0,0.5,100,110.0
1282,C2,96.0,0.5,100,110.0
1283,C3,96.25,0.25,100,110.0
1284,C3,96.25,0.25,100,110.0
1285,F#2,96.5,0.5,100,110.0
1286,C3,96.5,0.25,100,110.0
1287,C3,96.5,0.25,100,110.0
1288,G3,96.75,0.5,100,110.0
1289,G3,96.75,0.5,100,110.0
1290,C2,96.75,0.25,100,110.0
1291,C2,96.75,0.25,100,110.0
1292,F#2,97.0,0.5,100,110.0
1293,D2,97.0,0.5,100,110.0
1294,G3,97.25,0.25,100,110.0
1295,G3,97.25,0.25,100,110.0
1296,B-1,97.25,0.25,100,110.0
1297,B-1,97.25,0.25,100,110.0
1298,F#2,97.5,0.5,100,110.0
1299,A3,97.5,0.25,100,110.0
1300,A3,97.5,0.25,100,110.0
1301,C2,97.5,0.5,100,110.0
1302,C2,97.5,0.5,100,110.0
1303,G3,97.75,0.25,100,110.0
1304,G3,97.75,0.25,100,110.0
1305,F#2,98.0,0.5,100,110.0
1306,C3,98.0,0.25,100,110.0
1307,C3,98.0,0.25,100,110.0
1308,C4,98.25,0.25,100,110.0
1309,C4,98.25,0.25,100,110.0
1310,E1,98.25,0.25,100,110.0
1311,E1,98.25,0.25,100,110.0
1312,G3,98.5,0.25,100,110.0
1313,G3,98.5,0.25,100,110.0
1314,F1,98.5,0.5,100,110.0
1315,F1,98.5,0.5,100,110.0
1316,F#2,98.5,0.5,100,110.0
1317,C2,98.5,0.5,100,110.0
1318,G3,98.75,0.25,100,110.0
1319,G3,98.75,0.25,100,110.0
1320,B-3,99.0,0.25,100,110.0
1321,B-3,99.0,0.25,100,110.0
1322,G1,99.0,0.25,100,110.0
1323,G1,99.0,0.25,100,110.0
1324,F#2,99.0,0.5,100,110.0
1325,D2,99.0,0.5,100,110.0
1326,C2,99.25,0.25,100,110.0
1327,G3,99.25,0.25,100,110.0
1328,G3,99.25,0.25,100,110.0
1329,G1,99.25,0.25,100,110.0
1330,G1,99.25,0.25,100,110.0
1331,F#2,99.5,0.5,100,110.0
1332,A3,99.5,0.25,100,110.0
1333,A3,99.5,0.25,100,110.0
1334,A1,99.5,0.25,100,110.0
1335,A1,99.5,0.25,100,110.0
1336,G3,99.75,0.25,100,110.0
1337,G3,99.75,0.25,100,110.0
1338,G1,99.75,0.25,100,110.0
1339,G1,99.75,0.25,100,110.0
1340,C3,100.0,0.25,100,110.0
1341,C3,100.0,0.25,100,110.0
1342,C2,100.0,0.5,100,110.0
1343,C2,100.0,0.5,100,110.0
1344,F#2,100.0,0.5,100,110.0
1345,C2,100.0,0.5,100,110.0
1346,C3,100.25,0.25,100,110.0
1347,C3,100.25,0.25,100,110.0
1348,F#2,100.5,0.5,100,110.0
1349,C3,100.5,0.25,100,110.0
1350,C3,100.5,0.25,100,110.0
1351,G3,100.75,0.5,100,110.0
1352,G3,100.75,0.5,100,110.0
1353,C2,100.75,0.5,100,110.0
1354,C2,100.75,0.5,100,110.0
1355,F#2,101.0,0.5,100,110.0
1356,D2,101.0,0.5,100,110.0
1357,G3,101.25,0.25,100,110.0
1358,G3,101.25,0.25,100,110.0
1359,B-1,101.25,0.25,100,110.0
1360,B-1,101.25,0.25,100,110.0
1361,F#2,101.5,0.5,100,110.0
1362,A3,101.5,0.25,100,110.0
1363,A3,101.5,0.25,100,110.0
1364,C2,101.5,667/1000,100,110.0
1365,C2,101.5,667/1000,100,110.0
1366,G3,101.75,0.25,100,110.0
1367,G3,101.75,0.25,100,110.0
1368,A3,102.0,0.25,100,110.0
1369,C2,102.0,0.5,100,110.0
1370,C3,102.0,0.25,100,110.0
1371,C3,102.0,0.25,100,110.0
1372,C4,102.25,0.25,100,110.0
1373,C4,102.25,0.25,100,110.0
1374,E1,102.25,0.25,100,110.0
1375,E1,102.25,0.25,100,110.0
1376,D2,102.5,0.25,100,110.0
1377,G3,102.5,0.25,100,110.0
1378,G3,102.5,0.25,100,110.0
1379,G1,102.5,0.25,100,110.0
1380,G1,102.5,0.25,100,110.0
1381,D2,102.75,0.25,100,110.0
1382,G3,102.75,0.25,100,110.0
1383,G3,102.75,0.25,100,110.0
1384,G1,102.75,0.25,100,110.0
1385,G1,102.75,0.25,100,110.0
1386,D2,103.0,0.25,100,110.0
1387,B-3,103.0,0.25,100,110.0
1388,B-3,103.0,0.25,100,110.0
1389,A1,103.0,1.0,100,110.0
1390,A1,103.0,1.0,100,110.0
1391,D2,103.25,0.25,100,110.0
1392,G3,103.25,0.25,100,110.0
1393,G3,103.25,0.25,100,110.0
1394,D2,103.5,0.25,100,110.0
1395,A3,103.5,0.25,100,110.0
1396,A3,103.5,0.25,100,110.0
1397,D2,103.75,0.25,100,110.0
1398,G3,103.75,0.25,100,110.0
1399,G3,103.75,0.25,100,110.0
1400,C2,104.0,0.25,100,110.0
1401,C2,104.0,0.25,100,110.0
1402,A3,104.0,0.5,100,110.0
1403,F#2,104.0,0.5,100,110.0
1404,C2,104.0,0.5,100,110.0
1405,A4,104.0,3.0,100,110.0
1406,E-4,104.0,3.0,100,110.0
1407,G3,104.0,0.5,100,110.0
1408,C3,104.0,0.5,100,110.0
1409,G3,104.0,0.5,100,110.0
1410,C3,104.0,0.5,100,110.0
1411,C2,104.25,0.25,100,110.0
1412,C2,104.25,0.25,100,110.0
1413,F#2,104.5,0.5,100,110.0
1414,C2,104.5,0.25,100,110.0
1415,C2,104.5,0.25,100,110.0
1416,C2,104.75,0.25,100,110.0
1417,C2,104.75,0.25,100,110.0
1418,A3,104.75,0.5,100,110.0
1419,C3,104.75,0.5,100,110.0
1420,A3,104.75,0.5,100,110.0
1421,C3,104.75,0.5,100,110.0
1422,F#2,105.0,0.5,100,110.0
1423,D2,105.0,0.5,100,110.0
1424,F#2,105.5,0.5,100,110.0
1425,C2,105.5,0.25,100,110.0
1426,C2,105.5,0.25,100,110.0
1427,B-3,105.5,1.0,100,110.0
1428,C3,105.5,1.0,100,110.0
1429,B-3,105.5,1.0,100,110.0
1430,C3,105.5,1.0,100,110.0
1431,C2,105.75,0.25,100,110.0
1432,C2,105.75,0.25,100,110.0
1433,F#2,106.0,0.5,100,110.0
1434,C2,106.0,0.25,100,110.0
1435,C2,106.0,0.25,100,110.0
1436,C2,106.25,0.25,100,110.0
1437,C2,106.25,0.25,100,110.0
1438,C2,106.5,0.5,100,110.0
1439,C2,106.5,0.5,100,110.0
1440,F#2,106.5,0.5,100,110.0
1441,C2,106.5,0.5,100,110.0
1442,C2,107.0,0.25,100,110.0
1443,C2,107.0,0.25,100,110.0
1444,F#2,107.0,0.5,100,110.0
1445,D2,107.0,0.5,100,110.0
1446,C2,107.25,0.25,100,110.0
1447,C2,107.25,0.25,100,110.0
1448,C2,107.25,0.25,100,110.0
1449,F#2,107.5,0.5,100,110.0
1450,E-2,107.5,0.25,100,110.0
1451,E-2,107.5,0.25,100,110.0
1452,E2,107.75,0.25,100,110.0
1453,E2,107.75,0.25,100,110.0
1454,F2,108.0,0.25,100,110.0
1455,F2,108.0,0.25,100,110.0
1456,A3,108.0,0.5,100,110.0
1457,F#2,108.0,0.5,100,110.0
1458,C2,108.0,0.5,100,110.0
1459,E-4,108.0,0.5,100,110.0
1460,F3,108.0,0.5,100,110.0
1461,E-4,108.0,0.5,100,110.0
1462,F3,108.0,0.5,100,110.0
1463,F2,108.25,0.25,100,110.0
1464,F2,108.25,0.25,100,110.0
1465,F#2,108.5,0.5,100,110.0
1466,F2,108.5,0.25,100,110.0
1467,F2,108.5,0.25,100,110.0
1468,F2,108.75,0.25,100,110.0
1469,F2,108.75,0.25,100,110.0
1470,D4,108.75,0.5,100,110.0
1471,F3,108.75,0.5,100,110.0
1472,D4,108.75,0.5,100,110.0
1473,F3,108.75,0.5,100,110.0
1474,F#2,109.0,0.5,100,110.0
1475,F#2,109.0,0.5,100,110.0
1476,F#2,109.0,0.5,100,110.0
1477,D2,109.0,0.5,100,110.0
1478,F#2,109.5,0.5,100,110.0
1479,E-4,109.5,1.0,100,110.0
1480,F3,109.5,1.0,100,110.0
1481,E-4,109.5,1.0,100,110.0
1482,F3,109.5,1.0,100,110.0
1483,F#2,110.0,0.5,100,110.0
1484,F2,110.0,0.25,100,110.0
1485,F2,110.0,0.25,100,110.0
1486,G2,110.25,0.25,100,110.0
1487,G2,110.25,0.25,100,110.0
1488,B-2,110.5,0.25,100,110.0
1489,B-2,110.5,0.25,100,110.0
1490,F#2,110.5,0.5,100,110.0
1491,C2,110.5,0.5,100,110.0
1492,G2,110.75,0.25,100,110.0
1493,G2,110.75,0.25,100,110.0
1494,F2,111.0,0.25,100,110.0
1495,F2,111.0,0.25,100,110.0
1496,F#2,111.0,0.5,100,110.0
1497,D2,111.0,0.5,100,110.0
1498,C2,111.25,0.25,100,110.0
1499,E-2,111.25,0.25,100,110.0
1500,E-2,111.25,0.25,100,110.0
1501,F#2,111.5,0.5,100,110.0
1502,C2,111.5,0.25,100,110.0
1503,C2,111.5,0.25,100,110.0
1504,B-1,111.75,0.25,100,110.0
1505,B-1,111.75,0.25,100,110.0
1506,C2,112.0,0.25,100,110.0
1507,C2,112.0,0.25,100,110.0
1508,A3,112.0,0.5,100,110.0
1509,F#2,112.0,0.5,100,110.0
1510,C2,112.0,0.5,100,110.0
1511,G3,112.0,0.5,100,110.0
1512,C3,112.0,0.5,100,110.0
1513,G3,112.0,0.5,100,110.0
1514,C3,112.0,0.5,100,110.0
1515,C2,112.25,0.25,100,110.0
1516,C2,112.25,0.25,100,110.0
1517,F#2,112.5,0.5,100,110.0
1518,C2,112.5,0.25,100,110.0
1519,C2,112.5,0.25,100,110.0
1520,C2,112.75,0.25,100,110.0
1521,C2,112.75,0.25,100,110.0
1522,A3,112.75,0.5,100,110.0
1523,C3,112.75,0.5,100,110.0
1524,A3,112.75,0.5,100,110.0
1525,C3,112.75,0.5,100,110.0
1526,F#2,113.0,0.5,100,110.0
1527,D2,113.0,0.5,100,110.0
1528,F#2,113.5,0.5,100,110.0
1529,C2,113.5,0.25,100,110.0
1530,C2,113.5,0.25,100,110.0
1531,B-3,113.5,1.0,100,110.0
1532,C3,113.5,1.0,100,110.0
1533,B-3,113.5,1.0,100,110.0
1534,C3,113.5,1.0,100,110.0
1535,C2,113.75,0.25,100,110.0
1536,C2,113.75,0.25,100,110.0
1537,F#2,114.0,0.5,100,110.0
1538,C2,114.0,0.25,100,110.0
1539,C2,114.0,0.25,100,110.0
1540,C2,114.25,0.25,100,110.0
1541,C2,114.25,0.25,100,110.0
1542,C2,114.5,0.5,100,110.0
1543,C2,114.5,0.5,100,110.0
1544,F#2,114.5,0.5,100,110.0
1545,C2,114.5,0.5,100,110.0
1546,C2,115.0,0.25,100,110.0
1547,C2,115.0,0.25,100,110.0
1548,F#2,115.0,0.5,100,110.0
1549,D2,115.0,0.5,100,110.0
1550,C2,115.25,0.25,100,110.0
1551,C2,115.25,0.25,100,110.0
1552,C2,115.25,0.25,100,110.0
1553,F#2,115.5,0.5,100,110.0
1554,E-2,115.5,0.25,100,110.0
1555,E-2,115.5,0.25,100,110.0
1556,E2,115.75,0.25,100,110.0
1557,E2,115.75,0.25,100,110.0
1558,F2,116.0,0.25,100,110.0
1559,F2,116.0,0.25,100,110.0
1560,A3,116.0,0.5,100,110.0
1561,F#2,116.0,0.5,100,110.0
1562,C2,116.0,0.5,100,110.0
1563,E-4,116.0,0.5,100,110.0
1564,F3,116.0,0.5,100,110.0
1565,E-4,116.0,0.5,100,110.0
1566,F3,116.0,0.5,100,110.0
1567,F2,116.25,0.25,100,110.0
1568,F2,116.25,0.25,100,110.0
1569,F#2,116.5,0.5,100,110.0
1570,F2,116.5,0.25,100,110.0
1571,F2,116.5,0.25,100,110.0
1572,F2,116.75,0.25,100,110.0
1573,F2,116.75,0.25,100,110.0
1574,D4,116.75,0.5,100,110.0
1575,F3,116.75,0.5,100,110.0
1576,D4,116.75,0.5,100,110.0
1577,F3,116.75,0.5,100,110.0
1578,F#2,117.0,0.5,100,110.0
1579,F#2,117.0,0.5,100,110.0
1580,F#2,117.0,0.5,100,110.0
1581,D2,117.0,0.5,100,110.0
1582,F#2,117.5,0.5,100,110.0
1583,E-4,117.5,1.0,100,110.0
1584,F3,117.5,1.0,100,110.0
1585,E-4,117.5,1.0,100,110.0
1586,F3,117.5,1.0,100,110.0
1587,F#2,118.0,0.5,100,110.0
1588,F2,118.0,0.25,100,110.0
1589,F2,118.0,0.25,100,110.0
1590,G2,118.25,0.25,100,110.0
1591,G2,118.25,0.25,100,110.0
1592,B-2,118.5,0.25,100,110.0
1593,B-2,118.5,0.25,100,110.0
1594,F#2,118.5,0.5,100,110.0
1595,C2,118.5,0.5,100,110.0
1596,G2,118.75,0.25,100,110.0
1597,G2,118.75,0.25,100,110.0
1598,F2,119.0,0.25,100,110.0
1599,F2,119.0,0.25,100,110.0
1600,F#2,119.0,0.5,100,110.0
1601,D2,119.0,0.5,100,110.0
1602,C2,119.25,0.25,100,110.0
1603,E-2,119.25,0.25,100,110.0
1604,E-2,119.25,0.25,100,110.0
1605,F#2,119.5,0.5,100,110.0
1606,C2,119.5,0.25,100,110.0
1607,C2,119.5,0.25,100,110.0
1608,B-1,119.75,0.25,100,110.0
1609,B-1,119.75,0.25,100,110.0
1610,C3,120.0,0.25,100,110.0
1611,C3,120.0,0.25,100,110.0
1612,C2,120.0,0.5,100,110.0
1613,C2,120.0,0.5,100,110.0
1614,A3,120.0,0.5,100,110.0
1615,F#2,120.0,0.5,100,110.0
1616,C2,120.0,0.5,100,110.0
1617,C3,120.25,0.25,100,110.0
1618,C3,120.25,0.25,100,110.0
1619,F#2,120.5,0.5,100,110.0
1620,C3,120.5,0.25,100,110.0
1621,C3,120.5,0.25,100,110.0
1622,G3,120.75,0.5,100,110.0
1623,G3,120.75,0.5,100,110.0
1624,C2,120.75,0.25,100,110.0
1625,C2,120.75,0.25,100,110.0
1626,F#2,121.0,0.5,100,110.0
1627,D2,121.0,0.5,100,110.0
1628,G3,121.25,0.25,100,110.0
1629,G3,121.25,0.25,100,110.0
1630,B-1,121.25,0.25,100,110.0
1631,B-1,121.25,0.25,100,110.0
1632,F#2,121.5,0.5,100,110.0
1633,A3,121.5,0.25,100,110.0
1634,A3,121.5,0.25,100,110.0
1635,C2,121.5,0.5,100,110.0
1636,C2,121.5,0.5,100,110.0
1637,G3,121.75,0.25,100,110.0
1638,G3,121.75,0.25,100,110.0
1639,F#2,122.0,0.5,100,110.0
1640,C3,122.0,0.25,100,110.0
1641,C3,122.0,0.25,100,110.0
1642,C4,122.25,0.25,100,110.0
1643,C4,122.25,0.25,100,110.0
1644,E1,122.25,0.25,100,110.0
1645,E1,122.25,0.25,100,110.0
1646,G3,122.5,0.25,100,110.0
1647,G3,122.5,0.25,100,110.0
1648,F1,122.5,0.5,100,110.0
1649,F1,122.5,0.5,100,110.0
1650,F#2,122.5,0.5,100,110.0
1651,C2,122.5,0.5,100,110.0
1652,G3,122.75,0.25,100,110.0
1653,G3,122.75,0.25,100,110.0
1654,B-3,123.0,0.25,100,110.0
1655,B-3,123.0,0.25,100,110.0
1656,G1,123.0,0.25,100,110.0
1657,G1,123.0,0.25,100,110.0
1658,F#2,123.0,0.5,100,110.0
1659,D2,123.0,0.5,100,110.0
1660,C2,123.25,0.25,100,110.0
1661,G3,123.25,0.25,100,110.0
1662,G3,123.25,0.25,100,110.0
1663,G1,123.25,0.25,100,110.0
1664,G1,123.25,0.25,100,110.0
1665,F#2,123.5,0.5,100,110.0
1666,A3,123.5,0.25,100,110.0
1667,A3,123.5,0.25,100,110.0
1668,A1,123.5,0.25,100,110.0
1669,A1,123.5,0.25,100,110.0
1670,G3,123.75,0.25,100,110.0
1671,G3,123.75,0.25,100,110.0
1672,G1,123.75,0.25,100,110.0
1673,G1,123.75,0.25,100,110.0
1674,C3,124.0,0.25,100,110.0
1675,C3,124.0,0.25,100,110.0
1676,C2,124.0,0.5,100,110.0
1677,C2,124.0,0.5,100,110.0
1678,A3,124.0,0.5,100,110.0
1679,F#2,124.0,0.5,100,110.0
1680,C2,124.0,0.5,100,110.0
1681,C3,124.25,0.25,100,110.0
1682,C3,124.25,0.25,100,110.0
1683,F#2,124.5,0.5,100,110.0
1684,C3,124.5,0.25,100,110.0
1685,C3,124.5,0.25,100,110.0
1686,G3,124.75,0.5,100,110.0
1687,G3,124.75,0.5,100,110.0
1688,C2,124.75,0.5,100,110.0
1689,C2,124.75,0.5,100,110.0
1690,F#2,125.0,0.5,100,110.0
1691,D2,125.0,0.5,100,110.0
1692,G3,125.25,0.25,100,110.0
1693,G3,125.25,0.25,100,110.0
1694,B-1,125.25,0.25,100,110.0
1695,B-1,125.25,0.25,100,110.0
1696,F#2,125.5,0.5,100,110.0
1697,A3,125.5,0.25,100,110.0
1698,A3,125.5,0.25,100,110.0
1699,C2,125.5,0.25,100,110.0
1700,C2,125.5,0.25,100,110.0
1701,G3,125.75,0.25,100,110.0
1702,G3,125.75,0.25,100,110.0
1703,E1,125.75,0.25,100,110.0
1704,E1,125.75,0.25,100,110.0
1705,F#2,126.0,0.5,100,110.0
1706,C3,126.0,0.25,100,110.0
1707,C3,126.0,0.25,100,110.0
1708,F1,126.0,0.5,100,110.0
1709,F1,126.0,0.5,100,110.0
1710,C4,126.25,0.25,100,110.0
1711,C4,126.25,0.25,100,110.0
1712,G3,126.5,0.25,100,110.0
1713,G3,126.5,0.25,100,110.0
1714,G1,126.5,0.5,100,110.0
1715,G1,126.5,0.5,100,110.0
1716,F#2,126.5,0.5,100,110.0
1717,C2,126.5,0.5,100,110.0
1718,G3,126.75,0.25,100,110.0
1719,G3,126.75,0.25,100,110.0
1720,B-3,127.0,0.25,100,110.0
1721,B-3,127.0,0.25,100,110.0
1722,B1,127.0,0.25,100,110.0
1723,B1,127.0,0.25,100,110.0
1724,F#2,127.0,0.5,100,110.0
1725,D2,127.0,0.5,100,110.0
1726,C2,127.25,0.25,100,110.0
1727,G3,127.25,0.25,100,110.0
1728,G3,127.25,0.25,100,110.0
1729,G1,127.25,0.25,100,110.0
1730,G1,127.25,0.25,100,110.0
1731,F#2,127.5,0.5,100,110.0
1732,A3,127.5,0.25,100,110.0
1733,A3,127.5,0.25,100,110.0
1734,B1,127.5,0.5,100,110.0
1735,B1,127.5,0.5,100,110.0
1736,G3,127.75,0.25,100,110.0
1737,G3,127.75,0.25,100,110.0
1738,C3,128.0,0.25,100,110.0
1739,C3,128.0,0.25,100,110.0
1740,C2,128.0,0.5,100,110.0
1741,C2,128.0,0.5,100,110.0
1742,A3,128.0,0.5,100,110.0
1743,F#2,128.0,0.5,100,110.0
1744,C2,128.0,0.5,100,110.0
1745,C3,128.25,0.25,100,110.0
1746,C3,128.25,0.25,100,110.0
1747,F#2,128.5,0.5,100,110.0
1748,C3,128.5,0.25,100,110.0
1749,C3,128.5,0.25,100,110.0
1750,G3,128.75,0.5,100,110.0
1751,G3,128.75,0.5,100,110.0
1752,C2,128.75,0.25,100,110.0
1753,C2,128.75,0.25,100,110.0
1754,F#2,129.0,0.5,100,110.0
1755,D2,129.0,0.5,100,110.0
1756,G3,129.25,0.25,100,110.0
1757,G3,129.25,0.25,100,110.0
1758,B-1,129.25,0.25,100,110.0
1759,B-1,129.25,0.25,100,110.0
1760,F#2,129.5,0.5,100,110.0
1761,A3,129.5,0.25,100,110.0
1762,A3,129.5,0.25,100,110.0
1763,C2,129.5,0.5,100,110.0
1764,C2,129.5,0.5,100,110.0
1765,G3,129.75,0.25,100,110.0
1766,G3,129.75,0.25,100,110.0
1767,F#2,130.0,0.5,100,110.0
1768,C3,130.0,0.25,100,110.0
1769,C3,130.0,0.25,100,110.0
1770,C4,130.25,0.25,100,110.0
1771,C4,130.25,0.25,100,110.0
1772,E1,130.25,0.25,100,110.0
1773,E1,130.25,0.25,100,110.0
1774,G3,130.5,0.25,100,110.0
1775,G3,130.5,0.25,100,110.0
1776,F1,130.5,0.5,100,110.0
1777,F1,130.5,0.5,100,110.0
1778,F#2,130.5,0.5,100,110.0
1779,C2,130.5,0.5,100,110.0
1780,G3,130.75,0.25,100,110.0
1781,G3,130.75,0.25,100,110.0
1782,B-3,131.0,0.25,100,110.0
1783,B-3,131.0,0.25,100,110.0
1784,G1,131.0,0.25,100,110.0
1785,G1,131.0,0.25,100,110.0
1786,F#2,131.0,0.5,100,110.0
1787,D2,131.0,0.5,100,110.0
1788,C2,131.25,0.25,100,110.0
1789,G3,131.25,0.25,100,110.0
1790,G3,131.25,0.25,100,110.0
1791,G1,131.25,0.25,100,110.0
1792,G1,131.25,0.25,100,110.0
1793,F#2,131.5,0.5,100,110.0
1794,A3,131.5,0.25,100,110.0
1795,A3,131.5,0.25,100,110.0
1796,A1,131.5,0.25,100,110.0
1797,A1,131.5,0.25,100,110.0
1798,G3,131.75,0.25,100,110.0
1799,G3,131.75,0.25,100,110.0
1800,G1,131.75,0.25,100,110.0
1801,G1,131.75,0.25,100,110.0
1802,C3,132.0,0.25,100,110.0
1803,C3,132.0,0.25,100,110.0
1804,C2,132.0,0.5,100,110.0
1805,C2,132.0,0.5,100,110.0
1806,A3,132.0,0.5,100,110.0
1807,F#2,132.0,0.5,100,110.0
1808,C2,132.0,0.5,100,110.0
1809,C3,132.25,0.25,100,110.0
1810,C3,132.25,0.25,100,110.0
1811,F#2,132.5,0.5,100,110.0
1812,C3,132.5,0.25,100,110.0
1813,C3,132.5,0.25,100,110.0
1814,G3,132.75,0.5,100,110.0
1815,G3,132.75,0.5,100,110.0
1816,C2,132.75,0.5,100,110.0
1817,C2,132.75,0.5,100,110.0
1818,F#2,133.0,0.5,100,110.0
1819,D2,133.0,0.5,100,110.0
1820,G3,133.25,0.25,100,110.0
1821,G3,133.25,0.25,100,110.0
1822,B-1,133.25,0.25,100,110.0
1823,B-1,133.25,0.25,100,110.0
1824,F#2,133.5,0.5,100,110.0
1825,A3,133.5,0.25,100,110.0
1826,A3,133.5,0.25,100,110.0
1827,C2,133.5,667/1000,100,110.0
1828,C2,133.5,667/1000,100,110.0
1829,G3,133.75,0.25,100,110.0
1830,G3,133.75,0.25,100,110.0
1831,F#2,134.0,0.5,100,110.0
1832,C3,134.0,0.25,100,110.0
1833,C3,134.0,0.25,100,110.0
1834,C4,134.25,0.25,100,110.0
1835,C4,134.25,0.25,100,110.0
1836,E1,134.25,0.25,100,110.0
1837,E1,134.25,0.25,100,110.0
1838,G3,134.5,0.25,100,110.0
1839,G3,134.5,0.25,100,110.0
1840,G1,134.5,0.25,100,110.0
1841,G1,134.5,0.25,100,110.0
1842,F#2,134.5,0.5,100,110.0
1843,C2,134.5,0.5,100,110.0
1844,G3,134.75,0.25,100,110.0
1845,G3,134.75,0.25,100,110.0
1846,G1,134.75,0.25,100,110.0
1847,G1,134.75,0.25,100,110.0
1848,B-3,135.0,0.25,100,110.0
1849,B-3,135.0,0.25,100,110.0
1850,A1,135.0,1.0,100,110.0
1851,A1,135.0,1.0,100,110.0
1852,F#2,135.0,0.5,100,110.0
1853,D2,135.0,0.5,100,110.0
1854,C2,135.25,0.25,100,110.0
1855,G3,135.25,0.25,100,110.0
1856,G3,135.25,0.25,100,110.0
1857,F#2,135.5,0.5,100,110.0
1858,A3,135.5,0.25,100,110.0
1859,A3,135.5,0.25,100,110.0
1860,G3,135.75,0.25,100,110.0
1861,G3,135.75,0.25,100,110.0
1862,A2,136.0,0.25,100,110.0
1863,A2,136.0,0.25,100,110.0
1864,A1,136.0,0.25,100,110.0
1865,A1,136.0,0.25,100,110.0
1866,B-2,136.0,1.0,100,110.0
1867,C2,136.0,1.0,100,110.0
1868,B-2,136.25,0.25,100,110.0
1869,B-2,136.25,0.25,100,110.0
1870,B-1,136.25,0.25,100,110.0
1871,B-1,136.25,0.25,100,110.0
1872,F#2,136.5,0.5,100,110.0
1873,B2,136.5,0.25,100,110.0
1874,B2,136.5,0.25,100,110.0
1875,C2,136.5,0.25,100,110.0
1876,C2,136.5,0.25,100,110.0
1877,E3,136.75,0.25,100,110.0
1878,E3,136.75,0.25,100,110.0
1879,E2,136.75,0.25,100,110.0
1880,E2,136.75,0.25,100,110.0
1881,F#2,137.0,0.5,100,110.0
1882,D2,137.0,1.0,100,110.0
1883,A2,137.25,0.25,100,110.0
1884,A2,137.25,0.25,100,110.0
1885,A1,137.25,0.25,100,110.0
1886,A1,137.25,0.25,100,110.0
1887,F#2,137.5,0.5,100,110.0
1888,B-2,137.5,0.25,100,110.0
1889,B-2,137.5,0.25,100,110.0
1890,B-1,137.5,0.25,100,110.0
1891,B1,137.5,0.25,100,110.0
1892,C2,137.75,0.25,100,110.0
1893,B2,137.75,0.25,100,110.0
1894,B2,137.75,0.25,100,110.0
1895,B1,137.75,0.25,100,110.0
1896,B1,137.75,0.25,100,110.0
1897,F#2,138.0,0.5,100,110.0
1898,C2,138.0,0.25,100,110.0
1899,E3,138.0,0.5,100,110.0
1900,E3,138.0,0.5,100,110.0
1901,E2,138.0,0.5,100,110.0
1902,E2,138.0,0.5,100,110.0
1903,E2,138.5,0.5,100,110.0
1904,E2,138.5,0.5,100,110.0
1905,E1,138.5,0.5,100,110.0
1906,E1,138.5,0.5,100,110.0
1907,F#2,138.5,0.5,100,110.0
1908,C2,138.5,0.5,100,110.0
1909,F#2,139.0,0.5,100,110.0
1910,D2,139.0,0.5,100,110.0
1911,F#2,139.5,0.5,100,110.0
1912,E2,139.5,21/500,100,110.0
1913,A2,140.0,0.25,100,110.0
1914,A2,140.0,0.25,100,110.0
1915,A1,140.0,0.25,100,110.0
1916,A1,140.0,0.25,100,110.0
1917,B-2,140.0,1.0,100,110.0
1918,C2,140.0,1.0,100,110.0
1919,B-2,140.25,0.25,100,110.0
1920,B-2,140.25,0.25,100,110.0
1921,B-1,140.25,0.25,100,110.0
1922,B-1,140.25,0.25,100,110.0
1923,F#2,140.5,0.5,100,110.0
1924,B2,140.5,0.25,100,110.0
1925,B2,140.5,0.25,100,110.0
1926,C2,140.5,0.25,100,110.0
1927,C2,140.5,0.25,100,110.0
1928,E3,140.75,0.25,100,110.0
1929,E3,140.75,0.25,100,110.0
1930,E2,140.75,0.25,100,110.0
1931,E2,140.75,0.25,100,110.0
1932,F#2,141.0,0.5,100,110.0
1933,D2,141.0,1.0,100,110.0
1934,A2,141.25,0.25,100,110.0
1935,A2,141.25,0.25,100,110.0
1936,A1,141.25,0.25,100,110.0
1937,A1,141.25,0.25,100,110.0
1938,F#2,141.5,0.5,100,110.0
1939,B-2,141.5,0.25,100,110.0
1940,B-2,141.5,0.25,100,110.0
1941,B-1,141.5,0.25,100,110.0
1942,B-1,141.5,0.25,100,110.0
1943,C2,141.75,0.25,100,110.0
1944,B2,141.75,0.25,100,110.0
1945,B2,141.75,0.25,100,110.0
1946,B1,141.75,0.25,100,110.0
1947,B1,141.75,0.25,100,110.0
1948,F#2,142.0,0.5,100,110.0
1949,C2,142.0,0.25,100,110.0
1950,E3,142.0,0.5,100,110.0
1951,E3,142.0,0.5,100,110.0
1952,E2,142.0,0.5,100,110.0
1953,E2,142.0,0.5,100,110.0
1954,G2,142.5,0.25,100,110.0
1955,G2,142.5,0.25,100,110.0
1956,E1,142.5,0.5,100,110.0
1957,E1,142.5,0.5,100,110.0
1958,F#2,142.5,0.5,100,110.0
1959,C2,142.5,0.5,100,110.0
1960,E2,142.75,0.25,100,110.0
1961,E2,142.75,0.25,100,110.0
1962,E3,143.0,1.0,127,110.0
1963,E3,143.0,1.0,127,110.0
1964,F#2,143.0,0.5,100,110.0
1965,D2,143.0,0.5,100,110.0
1966,F#2,143.5,0.5,100,110.0
1967,A2,144.0,0.25,100,110.0
1968,A2,144.0,0.25,100,110.0
1969,A1,144.0,0.25,100,110.0
1970,A1,144.0,0.25,100,110.0
1971,B-2,144.0,1.0,100,110.0
1972,C2,144.0,1.0,100,110.0
1973,B-2,144.25,0.25,100,110.0
1974,B-2,144.25,0.25,100,110.0
1975,B-1,144.25,0.25,100,110.0
1976,B-1,144.25,0.25,100,110.0
1977,F#2,144.5,0.5,100,110.0
1978,B2,144.5,0.25,100,110.0
1979,B2,144.5,0.25,100,110.0
1980,C2,144.5,0.25,100,110.0
1981,C2,144.5,0.25,100,110.0
1982,E3,144.75,0.25,100,110.0
1983,E3,144.75,0.25,100,110.0
1984,E2,144.75,0.25,100,110.0
1985,E2,144.75,0.25,100,110.0
1986,F#2,145.0,0.5,100,110.0
1987,D2,145.0,1.0,100,110.0
1988,A2,145.25,0.25,100,110.0
1989,A2,145.25,0.25,100,110.0
1990,A1,145.25,0.25,100,110.0
1991,A1,145.25,0.25,100,110.0
1992,F#2,145.5,0.5,100,110.0
1993,B-2,145.5,0.25,100,110.0
1994,B-2,145.5,0.25,100,110.0
1995,B-1,145.5,0.25,100,110.0
1996,B-1,145.5,0.25,100,110.0
1997,C2,145.75,0.25,100,110.0
1998,B2,145.75,0.25,100,110.0
1999,B2,145.75,0.25,100,110.0
2000,B1,145.75,0.25,100,110.0
2001,B1,145.75,0.25,100,110.0
2002,F#2,146.0,0.5,100,110.0
2003,C2,146.0,0.25,100,110.0
2004,E3,146.0,0.5,100,110.0
2005,E3,146.0,0.5,100,110.0
2006,E2,146.0,0.5,100,110.0
2007,E2,146.0,0.5,100,110.0
2008,E2,146.5,0.5,100,110.0
2009,E2,146.5,0.5,100,110.0
2010,E1,146.5,0.5,100,110.0
2011,E1,146.5,0.5,100,110.0
2012,F#2,146.5,0.5,100,110.0
2013,C2,146.5,0.5,100,110.0
2014,F#2,147.0,0.5,100,110.0
2015,D2,147.0,0.5,100,110.0
2016,F#2,147.5,0.5,100,110.0
2017,E2,147.5,21/500,100,110.0
2018,A2,148.0,0.25,100,110.0
2019,A2,148.0,0.25,100,110.0
2020,A1,148.0,0.25,100,110.0
2021,A1,148.0,0.25,100,110.0
2022,B-2,148.0,1.0,100,110.0
2023,C2,148.0,1.0,100,110.0
2024,B-2,148.25,0.25,100,110.0
2025,B-2,148.25,0.25,100,110.0
2026,B-1,148.25,0.25,100,110.0
2027,B-1,148.25,0.25,100,110.0
2028,F#2,148.5,0.5,100,110.0
2029,B2,148.5,0.25,100,110.0
2030,B2,148.5,0.25,100,110.0
2031,C2,148.5,0.25,100,110.0
2032,C2,148.5,0.25,100,110.0
2033,E3,148.75,0.25,100,110.0
2034,E3,148.75,0.25,100,110.0
2035,E2,148.75,0.25,100,110.0
2036,E2,148.75,0.25,100,110.0
2037,F#2,149.0,0.5,100,110.0
2038,D2,149.0,1.0,100,110.0
2039,A2,149.25,0.25,100,110.0
2040,A2,149.25,0.25,100,110.0
2041,A1,149.25,0.25,100,110.0
2042,A1,149.25,0.25,100,110.0
2043,F#2,149.5,0.5,100,110.0
2044,B-2,149.5,0.25,100,110.0
2045,B-2,149.5,0.25,100,110.0
2046,B-1,149.5,0.25,100,110.0
2047,B-1,149.5,0.25,100,110.0
2048,C2,149.75,0.25,100,110.0
2049,B2,149.75,0.25,100,110.0
2050,B2,149.75,0.25,100,110.0
2051,B1,149.75,0.25,100,110.0
2052,B1,149.75,0.25,100,110.0
2053,F#2,150.0,0.5,100,110.0
2054,C2,150.0,0.25,100,110.0
2055,E3,150.0,0.5,100,110.0
2056,E3,150.0,0.5,100,110.0
2057,E2,150.0,0.5,100,110.0
2058,E2,150.0,0.5,100,110.0
2059,A1,150.5,1.0,100,110.0
2060,A1,150.5,1.0,100,110.0
2061,B-2,150.5,0.5,100,110.0
2062,D2,150.5,0.5,100,110.0
2063,A3,150.5,1.5,100,110.0
2064,E3,150.5,1.5,100,110.0
2065,A2,150.5,1.5,100,110.0
2066,A3,150.5,1.5,100,110.0
2067,E3,150.5,1.5,100,110.0
2068,A2,150.5,1.5,100,110.0
2069,E2,151.5,21/500,100,110.0
2070,D2,151.5,0.5,100,110.0
2071,F#2,151.5,0.5,100,110.0
2072,C3,152.0,0.25,100,110.0
2073,C3,152.0,0.25,100,110.0
2074,C3,152.0,0.25,100,110.0
2075,C2,152.0,0.5,100,110.0
2076,C2,152.0,0.5,100,110.0
2077,A3,152.0,0.5,100,110.0
2078,F#2,152.0,0.5,100,110.0
2079,C2,152.0,0.5,100,110.0
2080,A3,152.0,0.5,100,110.0
2081,E3,152.0,0.5,100,110.0
2082,A2,152.0,0.5,100,110.0
2083,A3,152.0,0.5,100,110.0
2084,E3,152.0,0.5,100,110.0
2085,A2,152.0,0.5,100,110.0
2086,C3,152.25,0.25,100,110.0
2087,C3,152.25,0.25,100,110.0
2088,F#2,152.5,0.5,100,110.0
2089,C3,152.5,0.25,100,110.0
2090,C3,152.5,0.25,100,110.0
2091,G3,152.75,0.5,100,110.0
2092,G3,152.75,0.5,100,110.0
2093,C2,152.75,0.25,100,110.0
2094,C2,152.75,0.25,100,110.0
2095,F#2,153.0,0.5,100,110.0
2096,D2,153.0,0.5,100,110.0
2097,G3,153.25,0.25,100,110.0
2098,G3,153.25,0.25,100,110.0
2099,B-1,153.25,0.25,100,110.0
2100,B-1,153.25,0.25,100,110.0
2101,F#2,153.5,0.5,100,110.0
2102,A3,153.5,0.25,100,110.0
2103,A3,153.5,0.25,100,110.0
2104,C2,153.5,0.5,100,110.0
2105,C2,153.5,0.5,100,110.0
2106,G3,153.75,0.25,100,110.0
2107,G3,153.75,0.25,100,110.0
2108,F#2,154.0,0.5,100,110.0
2109,C3,154.0,0.25,100,110.0
2110,C3,154.0,0.25,100,110.0
2111,C4,154.25,0.25,100,110.0
2112,C4,154.25,0.25,100,110.0
2113,E1,154.25,0.25,100,110.0
2114,E1,154.25,0.25,100,110.0
2115,G3,154.5,0.25,100,110.0
2116,G3,154.5,0.25,100,110.0
2117,F1,154.5,0.5,100,110.0
2118,F1,154.5,0.5,100,110.0
2119,F#2,154.5,0.5,100,110.0
2120,C2,154.5,0.5,100,110.0
2121,G3,154.75,0.25,100,110.0
2122,G3,154.75,0.25,100,110.0
2123,B-3,155.0,0.25,100,110.0
2124,B-3,155.0,0.25,100,110.0
2125,G1,155.0,0.25,100,110.0
2126,G1,155.0,0.25,100,110.0
2127,F#2,155.0,0.5,100,110.0
2128,D2,155.0,0.5,100,110.0
2129,C2,155.25,0.25,100,110.0
2130,G3,155.25,0.25,100,110.0
2131,G3,155.25,0.25,100,110.0
2132,G1,155.25,0.25,100,110.0
2133,G1,155.25,0.25,100,110.0
2134,F#2,155.5,0.5,100,110.0
2135,A3,155.5,0.25,100,110.0
2136,A3,155.5,0.25,100,110.0
2137,A1,155.5,0.25,100,110.0
2138,A1,155.5,0.25,100,110.0
2139,G3,155.75,0.25,100,110.0
2140,G3,155.75,0.25,100,110.0
2141,G1,155.75,0.25,100,110.0
2142,G1,155.75,0.25,100,110.0
2143,C3,156.0,0.25,100,110.0
2144,C3,156.0,0.25,100,110.0
2145,C2,156.0,0.5,100,110.0
2146,C2,156.0,0.5,100,110.0
2147,F#2,156.0,0.5,100,110.0
2148,C2,156.0,0.5,100,110.0
2149,C3,156.25,0.25,100,110.0
2150,C3,156.25,0.25,100,110.0
2151,F#2,156.5,0.5,100,110.0
2152,C3,156.5,0.25,100,110.0
2153,C3,156.5,0.25,100,110.0
2154,G3,156.75,0.5,100,110.0
2155,G3,156.75,0.5,100,110.0
2156,C2,156.75,0.5,100,110.0
2157,C2,156.75,0.5,100,110.0
2158,F#2,157.0,0.5,100,110.0
2159,D2,157.0,0.5,100,110.0
2160,G3,157.25,0.25,100,110.0
2161,G3,157.25,0.25,100,110.0
2162,B-1,157.25,0.25,100,110.0
2163,B-1,157.25,0.25,100,110.0
2164,F#2,157.5,0.5,100,110.0
2165,A3,157.5,0.25,100,110.0
2166,A3,157.5,0.25,100,110.0
2167,C2,157.5,0.25,100,110.0
2168,C2,157.5,0.25,100,110.0
2169,G3,157.75,0.25,100,110.0
2170,G3,157.75,0.25,100,110.0
2171,E1,157.75,0.25,100,110.0
2172,E1,157.75,0.25,100,110.0
2173,F#2,158.0,0.5,100,110.0
2174,C3,158.0,0.25,100,110.0
2175,C3,158.0,0.25,100,110.0
2176,F1,158.0,0.5,100,110.0
2177,F1,158.0,0.5,100,110.0
2178,C4,158.25,0.25,100,110.0
2179,C4,158.25,0.25,100,110.0
2180,G3,158.5,0.25,100,110.0
2181,G3,158.5,0.25,100,110.0
2182,G1,158.5,0.5,100,110.0
2183,G1,158.5,0.5,100,110.0
2184,F#2,158.5,0.5,100,110.0
2185,C2,158.5,0.5,100,110.0
2186,G3,158.75,0.25,100,110.0
2187,G3,158.75,0.25,100,110.0
2188,B-3,159.0,0.25,100,110.0
2189,B-3,159.0,0.25,100,110.0
2190,B1,159.0,0.25,100,110.0
2191,B1,159.0,0.25,100,110.0
2192,F#2,159.0,0.5,100,110.0
2193,D2,159.0,0.5,100,110.0
2194,C2,159.25,0.25,100,110.0
2195,G3,159.25,0.25,100,110.0
2196,G3,159.25,0.25,100,110.0
2197,G1,159.25,0.25,100,110.0
2198,G1,159.25,0.25,100,110.0
2199,F#2,159.5,0.5,100,110.0
2200,A3,159.5,0.25,100,110.0
2201,A3,159.5,0.25,100,110.0
2202,B1,159.5,0.5,100,110.0
2203,B1,159.5,0.5,100,110.0
2204,G3,159.75,0.25,100,110.0
2205,G3,159.75,0.25,100,110.0
2206,C3,160.0,0.25,100,110.0
2207,C3,160.0,0.25,100,110.0
2208,C2,160.0,0.5,100,110.0
2209,C2,160.0,0.5,100,110.0
2210,F#2,160.0,0.5,100,110.0
2211,C2,160.0,0.5,100,110.0
2212,C3,160.25,0.25,100,110.0
2213,C3,160.25,0.25,100,110.0
2214,F#2,160.5,0.5,100,110.0
2215,C3,160.5,0.25,100,110.0
2216,C3,160.5,0.25,100,110.0
2217,G3,160.75,0.5,100,110.0
2218,G3,160.75,0.5,100,110.0
2219,C2,160.75,0.25,100,110.0
2220,C2,160.75,0.25,100,110.0
2221,F#2,161.0,0.5,100,110.0
2222,D2,161.0,0.5,100,110.0
2223,G3,161.25,0.25,100,110.0
2224,G3,161.25,0.25,100,110.0
2225,B-1,161.25,0.25,100,110.0
2226,B-1,161.25,0.25,100,110.0
2227,F#2,161.5,0.5,100,110.0
2228,A3,161.5,0.25,100,110.0
2229,A3,161.5,0.25,100,110.0
2230,C2,161.5,0.5,100,110.0
2231,C2,161.5,0.5,100,110.0
2232,G3,161.75,0.25,100,110.0
2233,G3,161.75,0.25,100,110.0
2234,F#2,162.0,0.5,100,110.0
2235,C3,162.0,0.25,100,110.0
2236,C3,162.0,0.25,100,110.0
2237,C4,162.25,0.25,100,110.0
2238,C4,162.25,0.25,100,110.0
2239,E1,162.25,0.25,100,110.0
2240,E1,162.25,0.25,100,110.0
2241,G3,162.5,0.25,100,110.0
2242,G3,162.5,0.25,100,110.0
2243,F1,162.5,0.5,100,110.0
2244,F1,162.5,0.5,100,110.0
2245,F#2,162.5,0.5,100,110.0
2246,C2,162.5,0.5,100,110.0
2247,G3,162.75,0.25,100,110.0
2248,G3,162.75,0.25,100,110.0
2249,B-3,163.0,0.25,100,110.0
2250,B-3,163.0,0.25,100,110.0
2251,G1,163.0,0.25,100,110.0
2252,G1,163.0,0.25,100,110.0
2253,F#2,163.0,0.5,100,110.0
2254,D2,163.0,0.5,100,110.0
2255,C2,163.25,0.25,100,110.0
2256,G3,163.25,0.25,100,110.0
2257,G3,163.25,0.25,100,110.0
2258,G1,163.25,0.25,100,110.0
2259,G1,163.25,0.25,100,110.0
2260,F#2,163.5,0.5,100,110.0
2261,A3,163.5,0.25,100,110.0
2262,A3,163.5,0.25,100,110.0
2263,A1,163.5,0.25,100,110.0
2264,A1,163.5,0.25,100,110.0
2265,G3,163.75,0.25,100,110.0
2266,G3,163.75,0.25,100,110.0
2267,G1,163.75,0.25,100,110.0
2268,G1,163.75,0.25,100,110.0
2269,C3,164.0,0.25,100,110.0
2270,C3,164.0,0.25,100,110.0
2271,C2,164.0,0.5,100,110.0
2272,C2,164.0,0.5,100,110.0
2273,F#2,164.0,0.5,100,110.0
2274,C2,164.0,0.5,100,110.0
2275,C3,164.25,0.25,100,110.0
2276,C3,164.25,0.25,100,110.0
2277,F#2,164.5,0.5,100,110.0
2278,C3,164.5,0.25,100,110.0
2279,C3,164.5,0.25,100,110.0
2280,G3,164.75,0.5,100,110.0
2281,G3,164.75,0.5,100,110.0
2282,C2,164.75,0.5,100,110.0
2283,C2,164.75,0.5,100,110.0
2284,F#2,165.0,0.5,100,110.0
2285,D2,165.0,0.5,100,110.0
2286,G3,165.25,0.25,100,110.0
2287,G3,165.25,0.25,100,110.0
2288,B-1,165.25,0.25,100,110.0
2289,B-1,165.25,0.25,100,110.0
2290,F#2,165.5,0.5,100,110.0
2291,A3,165.5,0.25,100,110.0
2292,A3,165.5,0.25,100,110.0
2293,C2,165.5,0.25,100,110.0
2294,C2,165.5,0.25,100,110.0
2295,G3,165.75,0.25,100,110.0
2296,G3,165.75,0.25,100,110.0
2297,E1,165.75,0.25,100,110.0
2298,E1,165.75,0.25,100,110.0
2299,F#2,166.0,0.5,100,110.0
2300,C3,166.0,0.25,100,110.0
2301,C3,166.0,0.25,100,110.0
2302,F1,166.0,0.5,100,110.0
2303,F1,166.0,0.25,100,110.0
2304,F#1,166.0,0.5,100,110.0
2305,C4,166.25,0.25,100,110.0
2306,C4,166.25,0.25,100,110.0
2307,G3,166.5,0.25,100,110.0
2308,G3,166.5,0.25,100,110.0
2309,G1,166.5,0.5,100,110.0
2310,G1,166.5,0.5,100,110.0
2311,F#2,166.5,0.5,100,110.0
2312,C2,166.5,0.5,100,110.0
2313,G3,166.75,0.25,100,110.0
2314,G3,166.75,0.25,100,110.0
2315,B-3,167.0,0.25,100,110.0
2316,B-3,167.0,0.25,100,110.0
2317,B1,167.0,0.25,100,110.0
2318,B1,167.0,0.25,100,110.0
2319,F#2,167.0,0.5,100,110.0
2320,D2,167.0,0.5,100,110.0
2321,C2,167.25,0.25,100,110.0
2322,G3,167.25,0.25,100,110.0
2323,G3,167.25,0.25,100,110.0
2324,G1,167.25,0.25,100,110.0
2325,G1,167.25,0.25,100,110.0
2326,F#2,167.5,0.5,100,110.0
2327,A3,167.5,0.25,100,110.0
2328,A3,167.5,0.25,100,110.0
2329,B1,167.5,0.5,100,110.0
2330,B1,167.5,0.5,100,110.0
2331,G3,167.75,0.25,100,110.0
2332,G3,167.75,0.25,100,110.0
2333,C3,168.0,0.25,100,110.0
2334,C3,168.0,0.25,100,110.0
2335,C2,168.0,0.5,100,110.0
2336,C2,168.0,0.5,100,110.0
2337,F#2,168.0,0.5,100,110.0
2338,C2,168.0,0.5,100,110.0
2339,C3,168.25,0.25,100,110.0
2340,C3,168.25,0.25,100,110.0
2341,F#2,168.5,0.5,100,110.0
2342,C3,168.5,0.25,100,110.0
2343,C3,168.5,0.25,100,110.0
2344,G3,168.75,0.5,100,110.0
2345,G3,168.75,0.5,100,110.0
2346,C2,168.75,0.25,100,110.0
2347,C2,168.75,0.25,100,110.0
2348,F#2,169.0,0.5,100,110.0
2349,D2,169.0,0.5,100,110.0
2350,G3,169.25,0.25,100,110.0
2351,G3,169.25,0.25,100,110.0
2352,B-1,169.25,0.25,100,110.0
2353,B-1,169.25,0.25,100,110.0
2354,F#2,169.5,0.5,100,110.0
2355,A3,169.5,0.25,100,110.0
2356,A3,169.5,0.25,100,110.0
2357,C2,169.5,0.5,100,110.0
2358,C2,169.5,0.5,100,110.0
2359,G3,169.75,0.25,100,110.0
2360,G3,169.75,0.25,100,110.0
2361,F#2,170.0,0.5,100,110.0
2362,C3,170.0,0.25,100,110.0
2363,C3,170.0,0.25,100,110.0
2364,C4,170.25,0.25,100,110.0
2365,C4,170.25,0.25,100,110.0
2366,E1,170.25,0.25,100,110.0
2367,E1,170.25,0.25,100,110.0
2368,G3,170.5,0.25,100,110.0
2369,G3,170.5,0.25,100,110.0
2370,F1,170.5,0.5,100,110.0
2371,F1,170.5,0.5,100,110.0
2372,F#2,170.5,0.5,100,110.0
2373,C2,170.5,0.5,100,110.0
2374,G3,170.75,0.25,100,110.0
2375,G3,170.75,0.25,100,110.0
2376,B-3,171.0,0.25,100,110.0
2377,B-3,171.0,0.25,100,110.0
2378,G1,171.0,0.25,100,110.0
2379,G1,171.0,0.25,100,110.0
2380,F#2,171.0,0.5,100,110.0
2381,D2,171.0,0.5,100,110.0
2382,C2,171.25,0.25,100,110.0
2383,G3,171.25,0.25,100,110.0
2384,G3,171.25,0.25,100,110.0
2385,G1,171.25,0.25,100,110.0
2386,G1,171.25,0.25,100,110.0
2387,F#2,171.5,0.5,100,110.0
2388,A3,171.5,0.25,100,110.0
2389,A3,171.5,0.25,100,110.0
2390,A1,171.5,0.25,100,110.0
2391,A1,171.5,0.25,100,110.0
2392,G3,171.75,0.25,100,110.0
2393,G3,171.75,0.25,100,110.0
2394,G1,171.75,0.25,100,110.0
2395,G1,171.75,0.25,100,110.0
2396,C3,172.0,0.25,100,110.0
2397,C3,172.0,0.25,100,110.0
2398,C2,172.0,0.5,100,110.0
2399,C2,172.0,0.5,100,110.0
2400,F#2,172.0,0.5,100,110.0
2401,C2,172.0,0.5,100,110.0
2402,C3,172.25,0.25,100,110.0
2403,C3,172.25,0.25,100,110.0
2404,F#2,172.5,0.5,100,110.0
2405,C3,172.5,0.25,100,110.0
2406,C3,172.5,0.25,100,110.0
2407,G3,172.75,0.5,100,110.0
2408,G3,172.75,0.5,100,110.0
2409,C2,172.75,0.5,100,110.0
2410,C2,172.75,0.5,100,110.0
2411,F#2,173.0,0.5,100,110.0
2412,D2,173.0,0.5,100,110.0
2413,G3,173.25,0.25,100,110.0
2414,G3,173.25,0.25,100,110.0
2415,B-1,173.25,0.25,100,110.0
2416,B-1,173.25,0.25,100,110.0
2417,F#2,173.5,0.5,100,110.0
2418,A3,173.5,0.25,100,110.0
2419,A3,173.5,0.25,100,110.0
2420,C2,173.5,0.25,100,110.0
2421,C2,173.5,0.25,100,110.0
2422,G3,173.75,0.25,100,110.0
2423,G3,173.75,0.25,100,110.0
2424,E1,173.75,0.25,100,110.0
2425,E1,173.75,0.25,100,110.0
2426,F#2,174.0,0.5,100,110.0
2427,C3,174.0,0.25,100,110.0
2428,C3,174.0,0.25,100,110.0
2429,F1,174.0,0.5,100,110.0
2430,F1,174.0,0.5,100,110.0
2431,C4,174.25,0.25,100,110.0
2432,C4,174.25,0.25,100,110.0
2433,G3,174.5,0.25,100,110.0
2434,G3,174.5,0.25,100,110.0
2435,G1,174.5,0.5,100,110.0
2436,G1,174.5,0.5,100,110.0
2437,F#2,174.5,0.5,100,110.0
2438,C2,174.5,0.5,100,110.0
2439,G3,174.75,0.25,100,110.0
2440,G3,174.75,0.25,100,110.0
2441,B-3,175.0,0.25,100,110.0
2442,B-3,175.0,0.25,100,110.0
2443,B1,175.0,0.25,100,110.0
2444,B1,175.0,0.25,100,110.0
2445,F#2,175.0,0.5,100,110.0
2446,D2,175.0,0.5,100,110.0
2447,C2,175.25,0.25,100,110.0
2448,G3,175.25,0.25,100,110.0
2449,G3,175.25,0.25,100,110.0
2450,G1,175.25,0.25,100,110.0
2451,G1,175.25,0.25,100,110.0
2452,F#2,175.5,0.5,100,110.0
2453,A3,175.5,0.25,100,110.0
2454,A3,175.5,0.25,100,110.0
2455,B1,175.5,0.5,100,110.0
2456,B1,175.5,0.5,100,110.0
2457,G3,175.75,0.25,100,110.0
2458,G3,175.75,0.25,100,110.0
2459,C3,176.0,0.25,100,110.0
2460,C3,176.0,0.25,100,110.0
2461,C2,176.0,0.5,100,110.0
2462,C2,176.0,0.5,100,110.0
2463,F#2,176.0,0.5,100,110.0
2464,C2,176.0,0.5,100,110.0
2465,C3,176.25,0.25,100,110.0
2466,C3,176.25,0.25,100,110.0
2467,F#2,176.5,0.5,100,110.0
2468,C3,176.5,0.25,100,110.0
2469,C3,176.5,0.25,100,110.0
2470,G3,176.75,0.5,100,110.0
2471,G3,176.75,0.5,100,110.0
2472,C2,176.75,0.25,100,110.0
2473,C2,176.75,0.25,100,110.0
2474,F#2,177.0,0.5,100,110.0
2475,D2,177.0,0.5,100,110.0
2476,G3,177.25,0.25,100,110.0
2477,G3,177.25,0.25,100,110.0
2478,B-1,177.25,0.25,100,110.0
2479,B-1,177.25,0.25,100,110.0
2480,F#2,177.5,0.5,100,110.0
2481,A3,177.5,0.25,100,110.0
2482,A3,177.5,0.25,100,110.0
2483,C2,177.5,0.5,100,110.0
2484,C2,177.5,0.5,100,110.0
2485,G3,177.75,0.25,100,110.0
2486,G3,177.75,0.25,100,110.0
2487,F#2,178.0,0.5,100,110.0
2488,C3,178.0,0.25,100,110.0
2489,C3,178.0,0.25,100,110.0
2490,C4,178.25,0.25,100,110.0
2491,C4,178.25,0.25,100,110.0
2492,E1,178.25,0.25,100,110.0
2493,E1,178.25,0.25,100,110.0
2494,G3,178.5,0.25,100,110.0
2495,G3,178.5,0.25,100,110.0
2496,F1,178.5,0.5,100,110.0
2497,F1,178.5,0.5,100,110.0
2498,F#2,178.5,0.5,100,110.0
2499,C2,178.5,0.5,100,110.0
2500,G3,178.75,0.25,100,110.0
2501,G3,178.75,0.25,100,110.0
2502,B-3,179.0,0.25,100,110.0
2503,B-3,179.0,0.25,100,110.0
2504,G1,179.0,0.25,100,110.0
2505,G1,179.0,0.25,100,110.0
2506,F#2,179.0,0.5,100,110.0
2507,D2,179.0,0.5,100,110.0
2508,C2,179.25,0.25,100,110.0
2509,G3,179.25,0.25,100,110.0
2510,G3,179.25,0.25,100,110.0
2511,G1,179.25,0.25,100,110.0
2512,G1,179.25,0.25,100,110.0
2513,F#2,179.5,0.5,100,110.0
2514,A3,179.5,0.25,100,110.0
2515,A3,179.5,0.25,100,110.0
2516,A1,179.5,0.25,100,110.0
2517,A1,179.5,0.25,100,110.0
2518,G3,179.75,0.25,100,110.0
2519,G3,179.75,0.25,100,110.0
2520,G1,179.75,0.25,100,110.0
2521,G1,179.75,0.25,100,110.0
2522,C3,180.0,0.25,100,110.0
2523,C3,180.0,0.25,100,110.0
2524,C2,180.0,0.5,100,110.0
2525,C2,180.0,0.5,100,110.0
2526,F#2,180.0,0.5,100,110.0
2527,C2,180.0,0.5,100,110.0
2528,C3,180.25,0.25,100,110.0
2529,C3,180.25,0.25,100,110.0
2530,F#2,180.5,0.5,100,110.0
2531,C3,180.5,0.25,100,110.0
2532,C3,180.5,0.25,100,110.0
2533,G3,180.75,0.5,100,110.0
2534,G3,180.75,0.5,100,110.0
2535,C2,180.75,0.5,100,110.0
2536,C2,180.75,0.5,100,110.0
2537,F#2,181.0,0.5,100,110.0
2538,D2,181.0,0.5,100,110.0
2539,G3,181.25,0.25,100,110.0
2540,G3,181.25,0.25,100,110.0
2541,B-1,181.25,0.25,100,110.0
2542,B-1,181.25,0.25,100,110.0
2543,F#2,181.5,0.5,100,110.0
2544,A3,181.5,0.25,100,110.0
2545,A3,181.5,0.25,100,110.0
2546,C2,181.5,667/1000,100,110.0
2547,C2,181.5,667/1000,100,110.0
2548,G3,181.75,0.25,100,110.0
2549,G3,181.75,0.25,100,110.0
2550,F#2,182.0,0.5,100,110.0
2551,C3,182.0,0.25,100,110.0
2552,C3,182.0,0.25,100,110.0
2553,C4,182.25,0.25,100,110.0
2554,C4,182.25,0.25,100,110.0
2555,E1,182.25,0.25,100,110.0
2556,E1,182.25,0.25,100,110.0
2557,G3,182.5,0.25,100,110.0
2558,G3,182.5,0.25,100,110.0
2559,G1,182.5,0.25,100,110.0
2560,G1,182.5,0.25,100,110.0
2561,F#2,182.5,0.5,100,110.0
2562,C2,182.5,0.5,100,110.0
2563,G3,182.75,0.25,100,110.0
2564,G3,182.75,0.25,100,110.0
2565,G1,182.75,0.25,100,110.0
2566,G1,182.75,0.25,100,110.0
2567,D2,183.0,0.5,100,110.0
2568,A1,183.0,1.0,100,110.0
2569,A1,183.0,1.0,100,110.0
2570,E3,183.0,1.0,100,110.0
2571,F#2,183.0,1.0,100,110.0
2572,A3,183.0,1.0,100,110.0
2573,E3,183.0,1.0,100,110.0
2574,A2,183.0,1.0,100,110.0
2575,A3,183.0,1.0,100,110.0
2576,E3,183.0,1.0,100,110.0
2577,A2,183.0,1.0,100,110.0
2578,A3,184.0,0.5,100,110.0
2579,A2,184.0,0.25,100,110.0
2580,A2,184.0,0.25,100,110.0
2581,A1,184.0,0.25,100,110.0
2582,A1,184.0,0.25,100,110.0
2583,B-2,184.0,1.0,100,110.0
2584,C2,184.0,1.0,100,110.0
2585,B-2,184.25,0.25,100,110.0
2586,B-2,184.25,0.25,100,110.0
2587,B-1,184.25,0.25,100,110.0
2588,B-1,184.25,0.25,100,110.0
2589,F#2,184.5,0.5,100,110.0
2590,B2,184.5,0.25,100,110.0
2591,B2,184.5,0.25,100,110.0
2592,C2,184.5,0.25,100,110.0
2593,C2,184.5,0.25,100,110.0
2594,E3,184.75,0.25,100,110.0
2595,E3,184.75,0.25,100,110.0
2596,E2,184.75,0.25,100,110.0
2597,E2,184.75,0.25,100,110.0
2598,F#2,185.0,0.5,100,110.0
2599,D2,185.0,1.0,100,110.0
2600,A2,185.25,0.25,100,110.0
2601,A2,185.25,0.25,100,110.0
2602,A1,185.25,0.25,100,110.0
2603,A1,185.25,0.25,100,110.0
2604,F#2,185.5,0.5,100,110.0
2605,B-2,185.5,0.25,100,110.0
2606,B-2,185.5,0.25,100,110.0
2607,B-1,185.5,0.25,100,110.0
2608,B-1,185.5,0.25,100,110.0
2609,C2,185.75,0.25,100,110.0
2610,B2,185.75,0.25,100,110.0
2611,B2,185.75,0.25,100,110.0
2612,B1,185.75,0.25,100,110.0
2613,B1,185.75,0.25,100,110.0
2614,F#2,186.0,0.5,100,110.0
2615,C2,186.0,0.25,100,110.0
2616,E3,186.0,0.5,100,110.0
2617,E3,186.0,0.5,100,110.0
2618,E2,186.0,0.5,100,110.0
2619,E2,186.0,0.5,100,110.0
2620,E2,186.5,0.5,100,110.0
2621,E2,186.5,0.5,100,110.0
2622,E1,186.5,0.5,100,110.0
2623,E1,186.5,0.5,100,110.0
2624,F#2,186.5,0.5,100,110.0
2625,C2,186.5,0.5,100,110.0
2626,E3,187.0,0.5,100,110.0
2627,F#2,187.0,0.5,100,110.0
2628,D2,187.0,0.5,100,110.0
2629,F#2,187.5,0.5,100,110.0
2630,E2,187.5,21/500,100,110.0
2631,A2,188.0,0.25,100,110.0
2632,A2,188.0,0.25,100,110.0
2633,A1,188.0,0.25,100,110.0
2634,A1,188.0,0.25,100,110.0
2635,B-2,188.0,1.0,100,110.0
2636,C2,188.0,1.0,100,110.0
2637,B-2,188.25,0.25,100,110.0
2638,B-2,188.25,0.25,100,110.0
2639,B-1,188.25,0.25,100,110.0
2640,B-1,188.25,0.25,100,110.0
2641,F#2,188.5,0.5,100,110.0
2642,B2,188.5,0.25,100,110.0
2643,B2,188.5,0.25,100,110.0
2644,C2,188.5,0.25,100,110.0
2645,C2,188.5,0.25,100,110.0
2646,E3,188.75,0.25,100,110.0
2647,E3,188.75,0.25,100,110.0
2648,E2,188.75,0.25,100,110.0
2649,E2,188.75,0.25,100,110.0
2650,F#2,189.0,0.5,100,110.0
2651,D2,189.0,1.0,100,110.0
2652,A2,189.25,0.25,100,110.0
2653,A2,189.25,0.25,100,110.0
2654,A1,189.25,0.25,100,110.0
2655,A1,189.25,0.25,100,110.0
2656,F#2,189.5,0.5,100,110.0
2657,B-2,189.5,0.25,100,110.0
2658,B-2,189.5,0.25,100,110.0
2659,B-1,189.5,0.25,100,110.0
2660,B-1,189.5,0.25,100,110.0
2661,C2,189.75,0.25,100,110.0
2662,B2,189.75,0.25,100,110.0
2663,B2,189.75,0.25,100,110.0
2664,B1,189.75,0.25,100,110.0
2665,B1,189.75,0.25,100,110.0
2666,F#2,190.0,0.5,100,110.0
2667,C2,190.0,0.25,100,110.0
2668,E3,190.0,0.5,100,110.0
2669,E3,190.0,0.5,100,110.0
2670,E2,190.0,0.5,100,110.0
2671,E2,190.0,0.5,100,110.0
2672,G2,190.5,0.25,100,110.0
2673,G2,190.5,0.25,100,110.0
2674,E1,190.5,0.5,100,110.0
2675,E1,190.5,0.5,100,110.0
2676,F#2,190.5,0.5,100,110.0
2677,C2,190.5,0.5,100,110.0
2678,E2,190.75,0.25,100,110.0
2679,E2,190.75,0.25,100,110.0
2680,E3,191.0,1.0,127,110.0
2681,E3,191.0,1.0,127,110.0
2682,F#2,191.0,0.5,100,110.0
2683,D2,191.0,0.5,100,110.0
2684,F#2,191.5,0.5,100,110.0
2685,A2,192.0,0.25,100,110.0
2686,A2,192.0,0.25,100,110.0
2687,A1,192.0,0.25,100,110.0
2688,A1,192.0,0.25,100,110.0
2689,B-2,192.0,1.0,100,110.0
2690,C2,192.0,1.0,100,110.0
2691,B-2,192.25,0.25,100,110.0
2692,B-2,192.25,0.25,100,110.0
2693,B-1,192.25,0.25,100,110.0
2694,B-1,192.25,0.25,100,110.0
2695,F#2,192.5,0.5,100,110.0
2696,B2,192.5,0.25,100,110.0
2697,B2,192.5,0.25,100,110.0
2698,C2,192.5,0.25,100,110.0
2699,C2,192.5,0.25,100,110.0
2700,E3,192.75,0.25,100,110.0
2701,E3,192.75,0.25,100,110.0
2702,E2,192.75,0.25,100,110.0
2703,E2,192.75,0.25,100,110.0
2704,F#2,193.0,0.5,100,110.0
2705,D2,193.0,1.0,100,110.0
2706,A2,193.25,0.25,100,110.0
2707,A2,193.25,0.25,100,110.0
2708,A1,193.25,0.25,100,110.0
2709,A1,193.25,0.25,100,110.0
2710,F#2,193.5,0.5,100,110.0
2711,B-2,193.5,0.25,100,110.0
2712,B-2,193.5,0.25,100,110.0
2713,B-1,193.5,0.25,100,110.0
2714,B-1,193.5,0.25,100,110.0
2715,C2,193.75,0.25,100,110.0
2716,B2,193.75,0.25,100,110.0
2717,B2,193.75,0.25,100,110.0
2718,B1,193.75,0.25,100,110.0
2719,B1,193.75,0.25,100,110.0
2720,F#2,194.0,0.5,100,110.0
2721,C2,194.0,0.25,100,110.0
2722,E3,194.0,0.5,100,110.0
2723,E3,194.0,0.5,100,110.0
2724,E2,194.0,0.5,100,110.0
2725,E2,194.0,0.5,100,110.0
2726,E2,194.5,0.5,100,110.0
2727,E2,194.5,0.5,100,110.0
2728,E1,194.5,0.5,100,110.0
2729,E1,194.5,0.5,100,110.0
2730,F#2,194.5,0.5,100,110.0
2731,C2,194.5,0.5,100,110.0
2732,E3,195.0,0.5,100,110.0
2733,F#2,195.0,0.5,100,110.0
2734,D2,195.0,0.5,100,110.0
2735,F#2,195.5,0.5,100,110.0
2736,E2,195.5,21/500,100,110.0
2737,A2,196.0,0.25,100,110.0
2738,A2,196.0,0.25,100,110.0
2739,A1,196.0,0.25,100,110.0
2740,A1,196.0,0.25,100,110.0
2741,B-2,196.0,1.0,100,110.0
2742,C2,196.0,1.0,100,110.0
2743,B-2,196.25,0.25,100,110.0
2744,B-2,196.25,0.25,100,110.0
2745,B-1,196.25,0.25,100,110.0
2746,B-1,196.25,0.25,100,110.0
2747,F#2,196.5,0.5,100,110.0
2748,B2,196.5,0.25,100,110.0
2749,B2,196.5,0.25,100,110.0
2750,C2,196.5,0.25,100,110.0
2751,C2,196.5,0.25,100,110.0
2752,E3,196.75,0.25,100,110.0
2753,E3,196.75,0.25,100,110.0
2754,E2,196.75,0.25,100,110.0
2755,E2,196.75,0.25,100,110.0
2756,F#2,197.0,0.5,100,110.0
2757,D2,197.0,1.0,100,110.0
2758,A2,197.25,0.25,100,110.0
2759,A2,197.25,0.25,100,110.0
2760,A1,197.25,0.25,100,110.0
2761,A1,197.25,0.25,100,110.0
2762,F#2,197.5,0.5,100,110.0
2763,B-2,197.5,0.25,100,110.0
2764,B-2,197.5,0.25,100,110.0
2765,B-1,197.5,0.25,100,110.0
2766,B-1,197.5,0.25,100,110.0
2767,C2,197.75,0.25,100,110.0
2768,B2,197.75,0.25,100,110.0
2769,B2,197.75,0.25,100,110.0
2770,B1,197.75,0.25,100,110.0
2771,B1,197.75,0.25,100,110.0
2772,F#2,198.0,0.5,100,110.0
2773,C2,198.0,0.25,100,110.0
2774,E3,198.0,0.5,100,110.0
2775,E3,198.0,0.5,100,110.0
2776,E2,198.0,0.5,100,110.0
2777,E2,198.0,0.5,100,110.0
2778,A1,198.5,1.0,100,110.0
2779,A1,198.5,1.0,100,110.0
2780,A3,198.5,0.5,100,110.0
2781,B-2,198.5,0.5,100,110.0
2782,D2,198.5,0.5,100,110.0
2783,A3,198.5,1.5,100,110.0
2784,E3,198.5,1.5,100,110.0
2785,A2,198.5,1.5,100,110.0
2786,A3,198.5,1.5,100,110.0
2787,E3,198.5,1.5,100,110.0
2788,A2,198.5,1.5,100,110.0
2789,E2,199.5,21/500,100,110.0
2790,D2,199.5,0.5,100,110.0
2791,F#2,199.5,0.5,100,110.0
2792,C3,200.0,0.25,100,110.0
2793,C3,200.0,0.25,100,110.0
2794,C3,200.0,0.25,100,110.0
2795,C2,200.0,0.5,100,110.0
2796,C2,200.0,0.5,100,110.0
2797,A3,200.0,0.5,100,110.0
2798,F#2,200.0,0.5,100,110.0
2799,C2,200.0,0.5,100,110.0
2800,A3,200.0,0.5,100,110.0
2801,E3,200.0,0.5,100,110.0
2802,A2,200.0,0.5,100,110.0
2803,A3,200.0,0.5,100,110.0
2804,E3,200.0,0.5,100,110.0
2805,A2,200.0,0.5,100,110.0
2806,C3,200.25,0.25,100,110.0
2807,C3,200.25,0.25,100,110.0
2808,F#2,200.5,0.5,100,110.0
2809,C3,200.5,0.25,100,110.0
2810,C3,200.5,0.25,100,110.0
2811,G3,200.75,0.5,100,110.0
2812,G3,200.75,0.5,100,110.0
2813,C2,200.75,0.25,100,110.0
2814,C2,200.75,0.25,100,110.0
2815,F#2,201.0,0.5,100,110.0
2816,D2,201.0,0.5,100,110.0
2817,G3,201.25,0.25,100,110.0
2818,G3,201.25,0.25,100,110.0
2819,B-1,201.25,0.25,100,110.0
2820,B-1,201.25,0.25,100,110.0
2821,F#2,201.5,0.5,100,110.0
2822,A3,201.5,0.25,100,110.0
2823,A3,201.5,0.25,100,110.0
2824,C2,201.5,0.5,100,110.0
2825,C2,201.5,0.5,100,110.0
2826,G3,201.75,0.25,100,110.0
2827,G3,201.75,0.25,100,110.0
2828,F#2,202.0,0.5,100,110.0
2829,C3,202.0,0.25,100,110.0
2830,C3,202.0,0.25,100,110.0
2831,C4,202.25,0.25,100,110.0
2832,C4,202.25,0.25,100,110.0
2833,E1,202.25,0.25,100,110.0
2834,E1,202.25,0.25,100,110.0
2835,G3,202.5,0.25,100,110.0
2836,G3,202.5,0.25,100,110.0
2837,F1,202.5,0.5,100,110.0
2838,F1,202.5,0.5,100,110.0
2839,F#2,202.5,0.5,100,110.0
2840,C2,202.5,0.5,100,110.0
2841,G3,202.75,0.25,100,110.0
2842,G3,202.75,0.25,100,110.0
2843,B-3,203.0,0.25,100,110.0
2844,B-3,203.0,0.25,100,110.0
2845,G1,203.0,0.25,100,110.0
2846,G1,203.0,0.25,100,110.0
2847,F#2,203.0,0.5,100,110.0
2848,D2,203.0,0.5,100,110.0
2849,C2,203.25,0.25,100,110.0
2850,G3,203.25,0.25,100,110.0
2851,G3,203.25,0.25,100,110.0
2852,G1,203.25,0.25,100,110.0
2853,G1,203.25,0.25,100,110.0
2854,F#2,203.5,0.5,100,110.0
2855,A3,203.5,0.25,100,110.0
2856,A3,203.5,0.25,100,110.0
2857,A1,203.5,0.25,100,110.0
2858,A1,203.5,0.25,100,110.0
2859,G3,203.75,0.25,100,110.0
2860,G3,203.75,0.25,100,110.0
2861,G1,203.75,0.25,100,110.0
2862,G1,203.75,0.25,100,110.0
2863,C3,204.0,0.25,100,110.0
2864,C3,204.0,0.25,100,110.0
2865,C2,204.0,0.5,100,110.0
2866,C2,204.0,0.5,100,110.0
2867,F#2,204.0,0.5,100,110.0
2868,C2,204.0,0.5,100,110.0
2869,C3,204.25,0.25,100,110.0
2870,C3,204.25,0.25,100,110.0
2871,F#2,204.5,0.5,100,110.0
2872,C3,204.5,0.25,100,110.0
2873,C3,204.5,0.25,100,110.0
2874,G3,204.75,0.5,100,110.0
2875,G3,204.75,0.5,100,110.0
2876,C2,204.75,0.5,100,110.0
2877,C2,204.75,0.5,100,110.0
2878,F#2,205.0,0.5,100,110.0
2879,D2,205.0,0.5,100,110.0
2880,G3,205.25,0.25,100,110.0
2881,G3,205.25,0.25,100,110.0
2882,B-1,205.25,0.25,100,110.0
2883,B-1,205.25,0.25,100,110.0
2884,F#2,205.5,0.5,100,110.0
2885,A3,205.5,0.25,100,110.0
2886,A3,205.5,0.25,100,110.0
2887,C2,205.5,0.25,100,110.0
2888,C2,205.5,0.25,100,110.0
2889,G3,205.75,0.25,100,110.0
2890,G3,205.75,0.25,100,110.0
2891,E1,205.75,0.25,100,110.0
2892,E1,205.75,0.25,100,110.0
2893,F#2,206.0,0.5,100,110.0
2894,C3,206.0,0.25,100,110.0
2895,C3,206.0,0.25,100,110.0
2896,F1,206.0,0.5,100,110.0
2897,F1,206.0,0.5,100,110.0
2898,C4,206.25,0.25,100,110.0
2899,C4,206.25,0.25,100,110.0
2900,G3,206.5,0.25,100,110.0
2901,G3,206.5,0.25,100,110.0
2902,G1,206.5,0.5,100,110.0
2903,G1,206.5,0.5,100,110.0
2904,F#2,206.5,0.5,100,110.0
2905,C2,206.5,0.5,100,110.0
2906,G3,206.75,0.25,100,110.0
2907,G3,206.75,0.25,100,110.0
2908,B-3,207.0,0.25,100,110.0
2909,B-3,207.0,0.25,100,110.0
2910,B1,207.0,0.25,100,110.0
2911,B1,207.0,0.25,100,110.0
2912,F#2,207.0,0.5,100,110.0
2913,D2,207.0,0.5,100,110.0
2914,C2,207.25,0.25,100,110.0
2915,G3,207.25,0.25,100,110.0
2916,G3,207.25,0.25,100,110.0
2917,G1,207.25,0.25,100,110.0
2918,G1,207.25,0.25,100,110.0
2919,F#2,207.5,0.5,100,110.0
2920,A3,207.5,0.25,100,110.0
2921,A3,207.5,0.25,100,110.0
2922,B1,207.5,0.5,100,110.0
2923,B1,207.5,0.5,100,110.0
2924,G3,207.75,0.25,100,110.0
2925,G3,207.75,0.25,100,110.0
2926,C3,208.0,0.25,100,110.0
2927,C3,208.0,0.25,100,110.0
2928,C2,208.0,0.5,100,110.0
2929,C2,208.0,0.5,100,110.0
2930,F#2,208.0,0.5,100,110.0
2931,C2,208.0,0.5,100,110.0
2932,C3,208.25,0.25,100,110.0
2933,C3,208.25,0.25,100,110.0
2934,F#2,208.5,0.5,100,110.0
2935,C3,208.5,0.25,100,110.0
2936,C3,208.5,0.25,100,110.0
2937,G3,208.75,0.5,100,110.0
2938,G3,208.75,0.5,100,110.0
2939,C2,208.75,0.25,100,110.0
2940,C2,208.75,0.25,100,110.0
2941,F#2,209.0,0.5,100,110.0
2942,D2,209.0,0.5,100,110.0
2943,G3,209.25,0.25,100,110.0
2944,G3,209.25,0.25,100,110.0
2945,B-1,209.25,0.25,100,110.0
2946,B-1,209.25,0.25,100,110.0
2947,F#2,209.5,0.5,100,110.0
2948,A3,209.5,0.25,100,110.0
2949,A3,209.5,0.25,100,110.0
2950,C2,209.5,0.5,100,110.0
2951,C2,209.5,0.5,100,110.0
2952,G3,209.75,0.25,100,110.0
2953,G3,209.75,0.25,100,110.0
2954,F#2,210.0,0.5,100,110.0
2955,C3,210.0,0.25,100,110.0
2956,C3,210.0,0.25,100,110.0
2957,C4,210.25,0.25,100,110.0
2958,C4,210.25,0.25,100,110.0
2959,E1,210.25,0.25,100,110.0
2960,E1,210.25,0.25,100,110.0
2961,G3,210.5,0.25,100,110.0
2962,G3,210.5,0.25,100,110.0
2963,F1,210.5,0.5,100,110.0
2964,F1,210.5,0.5,100,110.0
2965,F#2,210.5,0.5,100,110.0
2966,C2,210.5,0.5,100,110.0
2967,G3,210.75,0.25,100,110.0
2968,G3,210.75,0.25,100,110.0
2969,B-3,211.0,0.25,100,110.0
2970,B-3,211.0,0.25,100,110.0
2971,G1,211.0,0.25,100,110.0
2972,G1,211.0,0.25,100,110.0
2973,F#2,211.0,0.5,100,110.0
2974,D2,211.0,0.5,100,110.0
2975,C2,211.25,0.25,100,110.0
2976,G3,211.25,0.25,100,110.0
2977,G3,211.25,0.25,100,110.0
2978,G1,211.25,0.25,100,110.0
2979,G1,211.25,0.25,100,110.0
2980,F#2,211.5,0.5,100,110.0
2981,A3,211.5,0.25,100,110.0
2982,A3,211.5,0.25,100,110.0
2983,A1,211.5,0.25,100,110.0
2984,A1,211.5,0.25,100,110.0
2985,G3,211.75,0.25,100,110.0
2986,G3,211.75,0.25,100,110.0
2987,G1,211.75,0.25,100,110.0
2988,G1,211.75,0.25,100,110.0
2989,C3,212.0,0.25,100,110.0
2990,C3,212.0,0.25,100,110.0
2991,C2,212.0,0.5,100,110.0
2992,C2,212.0,0.5,100,110.0
2993,F#2,212.0,0.5,100,110.0
2994,C2,212.0,0.5,100,110.0
2995,C3,212.25,0.25,100,110.0
2996,C3,212.25,0.25,100,110.0
2997,F#2,212.5,0.5,100,110.0
2998,C3,212.5,0.25,100,110.0
2999,C3,212.5,0.25,100,110.0
3000,G3,212.75,0.5,100,110.0
3001,G3,212.75,0.5,100,110.0
3002,C2,212.75,0.5,100,110.0
3003,C2,212.75,0.5,100,110.0
3004,F#2,213.0,0.5,100,110.0
3005,D2,213.0,0.5,100,110.0
3006,G3,213.25,0.25,100,110.0
3007,G3,213.25,0.25,100,110.0
3008,B-1,213.25,0.25,100,110.0
3009,B-1,213.25,0.25,100,110.0
3010,F#2,213.5,0.5,100,110.0
3011,A3,213.5,0.25,100,110.0
3012,A3,213.5,0.25,100,110.0
3013,C2,213.5,0.25,100,110.0
3014,C2,213.5,0.25,100,110.0
3015,G3,213.75,0.25,100,110.0
3016,G3,213.75,0.25,100,110.0
3017,E1,213.75,0.25,100,110.0
3018,E1,213.75,0.25,100,110.0
3019,F#2,214.0,0.5,100,110.0
3020,C3,214.0,0.25,100,110.0
3021,C3,214.0,0.25,100,110.0
3022,F1,214.0,0.5,100,110.0
3023,F1,214.0,0.5,100,110.0
3024,C4,214.25,0.25,100,110.0
3025,C4,214.25,0.25,100,110.0
3026,G4,214.5,0.25,100,110.0
3027,G3,214.5,0.25,100,110.0
3028,G3,214.5,0.25,100,110.0
3029,G1,214.5,0.5,100,110.0
3030,G1,214.5,0.5,100,110.0
3031,F#2,214.5,0.5,100,110.0
3032,C2,214.5,0.5,100,110.0
3033,G4,214.75,0.25,100,110.0
3034,G3,214.75,0.25,100,110.0
3035,G3,214.75,0.25,100,110.0
3036,G4,215.0,0.25,100,110.0
3037,B-3,215.0,0.25,100,110.0
3038,B-3,215.0,0.25,100,110.0
3039,B1,215.0,0.25,100,110.0
3040,B1,215.0,0.25,100,110.0
3041,F#2,215.0,0.5,100,110.0
3042,D2,215.0,0.5,100,110.0
3043,G3,215.25,0.25,100,110.0
3044,G3,215.25,0.25,100,110.0
3045,G1,215.25,0.25,100,110.0
3046,G1,215.25,0.25,100,110.0
3047,G4,215.25,0.25,100,110.0
3048,C2,215.25,0.25,100,110.0
3049,G4,215.5,0.25,100,110.0
3050,F#2,215.5,0.5,100,110.0
3051,A3,215.5,0.25,100,110.0
3052,A3,215.5,0.25,100,110.0
3053,B1,215.5,0.5,100,110.0
3054,B1,215.5,0.5,100,110.0
3055,G4,215.75,0.25,100,110.0
3056,G3,215.75,0.25,100,110.0
3057,G3,215.75,0.25,100,110.0
3058,C3,216.0,0.25,100,110.0
3059,C3,216.0,0.25,100,110.0
3060,C2,216.0,0.5,100,110.0
3061,C2,216.0,0.5,100,110.0
3062,A3,216.0,0.5,100,110.0
3063,F#2,216.0,0.5,100,110.0
3064,C2,216.0,0.5,100,110.0
3065,C3,216.25,0.25,100,110.0
3066,C3,216.25,0.25,100,110.0
3067,F#2,216.5,0.5,100,110.0
3068,C3,216.5,0.25,100,110.0
3069,C3,216.5,0.25,100,110.0
3070,G3,216.75,0.5,100,110.0
3071,G3,216.75,0.5,100,110.0
3072,C2,216.75,0.25,100,110.0
3073,C2,216.75,0.25,100,110.0
3074,F#2,217.0,0.5,100,110.0
3075,D2,217.0,0.5,100,110.0
3076,G3,217.25,0.25,100,110.0
3077,G3,217.25,0.25,100,110.0
3078,B-1,217.25,0.25,100,110.0
3079,B-1,217.25,0.25,100,110.0
3080,F#2,217.5,0.5,100,110.0
3081,A3,217.5,0.25,100,110.0
3082,A3,217.5,0.25,100,110.0
3083,C2,217.5,0.5,100,110.0
3084,C2,217.5,0.5,100,110.0
3085,G3,217.75,0.25,100,110.0
3086,G3,217.75,0.25,100,110.0
3087,F#2,218.0,0.5,100,110.0
3088,C3,218.0,0.25,100,110.0
3089,C3,218.0,0.25,100,110.0
3090,C4,218.25,0.25,100,110.0
3091,C4,218.25,0.25,100,110.0
3092,E1,218.25,0.25,100,110.0
3093,E1,218.25,0.25,100,110.0
3094,G3,218.5,0.25,100,110.0
3095,G3,218.5,0.25,100,110.0
3096,F1,218.5,0.5,100,110.0
3097,F1,218.5,0.5,100,110.0
3098,F#2,218.5,0.5,100,110.0
3099,C2,218.5,0.5,100,110.0
3100,G3,218.75,0.25,100,110.0
3101,G3,218.75,0.25,100,110.0
3102,B-3,219.0,0.25,100,110.0
3103,B-3,219.0,0.25,100,110.0
3104,G1,219.0,0.25,100,110.0
3105,G1,219.0,0.25,100,110.0
3106,F#2,219.0,0.5,100,110.0
3107,D2,219.0,0.5,100,110.0
3108,C2,219.25,0.25,100,110.0
3109,G3,219.25,0.25,100,110.0
3110,G3,219.25,0.25,100,110.0
3111,G1,219.25,0.25,100,110.0
3112,G1,219.25,0.25,100,110.0
3113,F#2,219.5,0.5,100,110.0
3114,A3,219.5,0.25,100,110.0
3115,A3,219.5,0.25,100,110.0
3116,A1,219.5,0.25,100,110.0
3117,A1,219.5,0.25,100,110.0
3118,G3,219.75,0.25,100,110.0
3119,G3,219.75,0.25,100,110.0
3120,G1,219.75,0.25,100,110.0
3121,G1,219.75,0.25,100,110.0
3122,C3,220.0,0.25,100,110.0
3123,C3,220.0,0.25,100,110.0
3124,C2,220.0,0.5,100,110.0
3125,C2,220.0,0.5,100,110.0
3126,F#2,220.0,0.5,100,110.0
3127,C2,220.0,0.5,100,110.0
3128,C3,220.25,0.25,100,110.0
3129,C3,220.25,0.25,100,110.0
3130,F#2,220.5,0.5,100,110.0
3131,C3,220.5,0.25,100,110.0
3132,C3,220.5,0.25,100,110.0
3133,G3,220.75,0.5,100,110.0
3134,G3,220.75,0.5,100,110.0
3135,C2,220.75,0.5,100,110.0
3136,C2,220.75,0.5,100,110.0
3137,F#2,221.0,0.5,100,110.0
3138,D2,221.0,0.5,100,110.0
3139,G3,221.25,0.25,100,110.0
3140,G3,221.25,0.25,100,110.0
3141,B-1,221.25,0.25,100,110.0
3142,B1,221.25,0.25,100,110.0
3143,F#2,221.5,0.5,100,110.0
3144,A3,221.5,0.25,100,110.0
3145,A3,221.5,0.25,100,110.0
3146,C2,221.5,0.25,100,110.0
3147,C2,221.5,0.25,100,110.0
3148,G3,221.75,0.25,100,110.0
3149,G3,221.75,0.25,100,110.0
3150,E1,221.75,0.25,100,110.0
3151,E1,221.75,0.25,100,110.0
3152,F#2,222.0,0.5,100,110.0
3153,C3,222.0,0.25,100,110.0
3154,C3,222.0,0.25,100,110.0
3155,F1,222.0,0.5,100,110.0
3156,F#1,222.0,0.5,100,110.0
3157,C4,222.25,0.25,100,110.0
3158,C4,222.25,0.25,100,110.0
3159,G3,222.5,0.25,100,110.0
3160,G3,222.5,0.25,100,110.0
3161,G1,222.5,0.5,100,110.0
3162,G1,222.5,0.5,100,110.0
3163,F#2,222.5,0.5,100,110.0
3164,C2,222.5,0.5,100,110.0
3165,G3,222.75,0.25,100,110.0
3166,G3,222.75,0.25,100,110.0
3167,B-3,223.0,0.25,100,110.0
3168,B-3,223.0,0.25,100,110.0
3169,B1,223.0,0.25,100,110.0
3170,B1,223.0,0.25,100,110.0
3171,F#2,223.0,0.5,100,110.0
3172,D2,223.0,0.5,100,110.0
3173,C2,223.25,0.25,100,110.0
3174,G3,223.25,0.25,100,110.0
3175,G3,223.25,0.25,100,110.0
3176,G1,223.25,0.25,100,110.0
3177,G1,223.25,0.25,100,110.0
3178,F#2,223.5,0.5,100,110.0
3179,A3,223.5,0.25,100,110.0
3180,A3,223.5,0.25,100,110.0
3181,B1,223.5,0.5,100,110.0
3182,B1,223.5,0.5,100,110.0
3183,G3,223.75,0.25,100,110.0
3184,G3,223.75,0.25,100,110.0
3185,C3,224.0,0.25,100,110.0
3186,C3,224.0,0.25,100,110.0
3187,C2,224.0,0.5,100,110.0
3188,C2,224.0,0.5,100,110.0
3189,F#2,224.0,0.5,100,110.0
3190,C2,224.0,0.5,100,110.0
3191,C3,224.25,0.25,100,110.0
3192,C3,224.25,0.25,100,110.0
3193,F#2,224.5,0.5,100,110.0
3194,C3,224.5,0.25,100,110.0
3195,C3,224.5,0.25,100,110.0
3196,G3,224.75,0.5,100,110.0
3197,G3,224.75,0.5,100,110.0
3198,C2,224.75,0.25,100,110.0
3199,C2,224.75,0.25,100,110.0
3200,F#2,225.0,0.5,100,110.0
3201,D2,225.0,0.5,100,110.0
3202,G3,225.25,0.25,100,110.0
3203,G3,225.25,0.25,100,110.0
3204,B-1,225.25,0.25,100,110.0
3205,B-1,225.25,0.25,100,110.0
3206,F#2,225.5,0.5,100,110.0
3207,A3,225.5,0.25,100,110.0
3208,A3,225.5,0.25,100,110.0
3209,C2,225.5,0.5,100,110.0
3210,C2,225.5,0.5,100,110.0
3211,G3,225.75,0.25,100,110.0
3212,G3,225.75,0.25,100,110.0
3213,F#2,226.0,0.5,100,110.0
3214,C3,226.0,0.25,100,110.0
3215,C3,226.0,0.25,100,110.0
3216,C4,226.25,0.25,100,110.0
3217,C4,226.25,0.25,100,110.0
3218,E1,226.25,0.25,100,110.0
3219,E1,226.25,0.25,100,110.0
3220,G3,226.5,0.25,100,110.0
3221,G3,226.5,0.25,100,110.0
3222,F1,226.5,0.5,100,110.0
3223,F1,226.5,0.5,100,110.0
3224,F#2,226.5,0.5,100,110.0
3225,C2,226.5,0.5,100,110.0
3226,G3,226.75,0.25,100,110.0
3227,G3,226.75,0.25,100,110.0
3228,B-3,227.0,0.25,100,110.0
3229,B-3,227.0,0.25,100,110.0
3230,G1,227.0,0.25,100,110.0
3231,G1,227.0,0.25,100,110.0
3232,F#2,227.0,0.5,100,110.0
3233,D2,227.0,0.5,100,110.0
3234,C2,227.25,0.25,100,110.0
3235,G3,227.25,0.25,100,110.0
3236,G3,227.25,0.25,100,110.0
3237,G1,227.25,0.25,100,110.0
3238,G1,227.25,0.25,100,110.0
3239,F#2,227.5,0.5,100,110.0
3240,A3,227.5,0.25,100,110.0
3241,A3,227.5,0.25,100,110.0
3242,A1,227.5,0.25,100,110.0
3243,A1,227.5,0.25,100,110.0
3244,G3,227.75,0.25,100,110.0
3245,G3,227.75,0.25,100,110.0
3246,G1,227.75,0.25,100,110.0
3247,G1,227.75,0.25,100,110.0
3248,C3,228.0,0.25,100,110.0
3249,C3,228.0,0.25,100,110.0
3250,C2,228.0,0.5,100,110.0
3251,C2,228.0,0.5,100,110.0
3252,F#2,228.0,0.5,100,110.0
3253,C2,228.0,0.5,100,110.0
3254,C3,228.25,0.25,100,110.0
3255,C3,228.25,0.25,100,110.0
3256,F#2,228.5,0.5,100,110.0
3257,C3,228.5,0.25,100,110.0
3258,C3,228.5,0.25,100,110.0
3259,G3,228.75,0.5,100,110.0
3260,G3,228.75,0.5,100,110.0
3261,C2,228.75,0.5,100,110.0
3262,C2,228.75,0.5,100,110.0
3263,F#2,229.0,0.5,100,110.0
3264,D2,229.0,0.5,100,110.0
3265,G3,229.25,0.25,100,110.0
3266,G3,229.25,0.25,100,110.0
3267,B-1,229.25,0.25,100,110.0
3268,B-1,229.25,0.25,100,110.0
3269,F#2,229.5,0.5,100,110.0
3270,A3,229.5,0.25,100,110.0
3271,A3,229.5,0.25,100,110.0
3272,C2,229.5,667/1000,100,110.0
3273,C2,229.5,667/1000,100,110.0
3274,G3,229.75,0.25,100,110.0
3275,G3,229.75,0.25,100,110.0
3276,A3,230.0,0.25,100,110.0
3277,C2,230.0,0.5,100,110.0
3278,C3,230.0,0.25,100,110.0
3279,C3,230.0,0.25,100,110.0
3280,C4,230.25,0.25,100,110.0
3281,C4,230.25,0.25,100,110.0
3282,E1,230.25,0.25,100,110.0
3283,E1,230.25,0.25,100,110.0
3284,D2,230.5,0.25,100,110.0
3285,G3,230.5,0.25,100,110.0
3286,G3,230.5,0.25,100,110.0
3287,G1,230.5,0.25,100,110.0
3288,G1,230.5,0.25,100,110.0
3289,D2,230.75,0.25,100,110.0
3290,G3,230.75,0.25,100,110.0
3291,G3,230.75,0.25,100,110.0
3292,G1,230.75,0.25,100,110.0
3293,G1,230.75,0.25,100,110.0
3294,D2,231.0,0.25,100,110.0
3295,B-3,231.0,0.25,100,110.0
3296,B-3,231.0,0.25,100,110.0
3297,A1,231.0,1.0,100,110.0
3298,A1,231.0,1.0,100,110.0
3299,D2,231.25,0.25,100,110.0
3300,G3,231.25,0.25,100,110.0
3301,G3,231.25,0.25,100,110.0
3302,D2,231.5,0.25,100,110.0
3303,A3,231.5,0.25,100,110.0
3304,A3,231.5,0.25,100,110.0
3305,D2,231.75,0.25,100,110.0
3306,G3,231.75,0.25,100,110.0
3307,G3,231.75,0.25,100,110.0
3308,C2,232.0,0.25,100,110.0
3309,C2,232.0,0.25,100,110.0
3310,A3,232.0,0.5,100,110.0
3311,F#2,232.0,0.5,100,110.0
3312,C2,232.0,0.5,100,110.0
3313,A4,232.0,3.0,100,110.0
3314,E-4,232.0,3.0,100,110.0
3315,G3,232.0,0.5,100,110.0
3316,C3,232.0,0.5,100,110.0
3317,G3,232.0,0.5,100,110.0
3318,C3,232.0,0.5,100,110.0
3319,C2,232.25,0.25,100,110.0
3320,C2,232.25,0.25,100,110.0
3321,F#2,232.5,0.5,100,110.0
3322,C2,232.5,0.25,100,110.0
3323,C2,232.5,0.25,100,110.0
3324,C2,232.75,0.25,100,110.0
3325,C2,232.75,0.25,100,110.0
3326,A3,232.75,0.5,100,110.0
3327,C3,232.75,0.5,100,110.0
3328,A3,232.75,0.5,100,110.0
3329,C3,232.75,0.5,100,110.0
3330,F#2,233.0,0.5,100,110.0
3331,D2,233.0,0.5,100,110.0
3332,F#2,233.5,0.5,100,110.0
3333,C2,233.5,0.25,100,110.0
3334,C2,233.5,0.25,100,110.0
3335,B-3,233.5,1.0,100,110.0
3336,C3,233.5,1.0,100,110.0
3337,B-3,233.5,1.0,100,110.0
3338,C3,233.5,1.0,100,110.0
3339,C2,233.75,0.25,100,110.0
3340,C2,233.75,0.25,100,110.0
3341,F#2,234.0,0.5,100,110.0
3342,C2,234.0,0.25,100,110.0
3343,C2,234.0,0.25,100,110.0
3344,C2,234.25,0.25,100,110.0
3345,C2,234.25,0.25,100,110.0
3346,C2,234.5,0.5,100,110.0
3347,C2,234.5,0.5,100,110.0
3348,F#2,234.5,0.5,100,110.0
3349,C2,234.5,0.5,100,110.0
3350,C2,235.0,0.25,100,110.0
3351,C2,235.0,0.25,100,110.0
3352,F#2,235.0,0.5,100,110.0
3353,D2,235.0,0.5,100,110.0
3354,C2,235.25,0.25,100,110.0
3355,C2,235.25,0.25,100,110.0
3356,C2,235.25,0.25,100,110.0
3357,F#2,235.5,0.5,100,110.0
3358,E-2,235.5,0.25,100,110.0
3359,E-2,235.5,0.25,100,110.0
3360,E2,235.75,0.25,100,110.0
3361,E2,235.75,0.25,100,110.0
3362,F2,236.0,0.25,100,110.0
3363,F2,236.0,0.25,100,110.0
3364,A3,236.0,0.5,100,110.0
3365,F#2,236.0,0.5,100,110.0
3366,C2,236.0,0.5,100,110.0
3367,E-4,236.0,0.5,100,110.0
3368,F3,236.0,0.5,100,110.0
3369,E-4,236.0,0.5,100,110.0
3370,F3,236.0,0.5,100,110.0
3371,F2,236.25,0.25,100,110.0
3372,F2,236.25,0.25,100,110.0
3373,F#2,236.5,0.5,100,110.0
3374,F2,236.5,0.25,100,110.0
3375,F2,236.5,0.25,100,110.0
3376,F2,236.75,0.25,100,110.0
3377,F2,236.75,0.25,100,110.0
3378,D4,236.75,0.5,100,110.0
3379,F3,236.75,0.5,100,110.0
3380,D4,236.75,0.5,100,110.0
3381,F3,236.75,0.5,100,110.0
3382,F#2,237.0,0.5,100,110.0
3383,F#2,237.0,0.5,100,110.0
3384,F#2,237.0,0.5,100,110.0
3385,D2,237.0,0.5,100,110.0
3386,F#2,237.5,0.5,100,110.0
3387,E-4,237.5,1.0,100,110.0
3388,F3,237.5,1.0,100,110.0
3389,E-4,237.5,1.0,100,110.0
3390,F3,237.5,1.0,100,110.0
3391,F#2,238.0,0.5,100,110.0
3392,F2,238.0,0.25,100,110.0
3393,F2,238.0,0.25,100,110.0
3394,G2,238.25,0.25,100,110.0
3395,G2,238.25,0.25,100,110.0
3396,B-2,238.5,0.25,100,110.0
3397,B-2,238.5,0.25,100,110.0
3398,F#2,238.5,0.5,100,110.0
3399,C2,238.5,0.5,100,110.0
3400,G2,238.75,0.25,100,110.0
3401,G2,238.75,0.25,100,110.0
3402,F2,239.0,0.25,100,110.0
3403,F2,239.0,0.25,100,110.0
3404,F#2,239.0,0.5,100,110.0
3405,D2,239.0,0.5,100,110.0
3406,C2,239.25,0.25,100,110.0
3407,E-2,239.25,0.25,100,110.0
3408,E-2,239.25,0.25,100,110.0
3409,F#2,239.5,0.5,100,110.0
3410,C2,239.5,0.25,100,110.0
3411,C2,239.5,0.25,100,110.0
3412,B-1,239.75,0.25,100,110.0
3413,B-1,239.75,0.25,100,110.0
3414,C2,240.0,0.25,100,110.0
3415,C2,240.0,0.25,100,110.0
3416,A3,240.0,0.5,100,110.0
3417,F#2,240.0,0.5,100,110.0
3418,C2,240.0,0.5,100,110.0
3419,G3,240.0,0.5,100,110.0
3420,C3,240.0,0.5,100,110.0
3421,G3,240.0,0.5,100,110.0
3422,C3,240.0,0.5,100,110.0
3423,C2,240.25,0.25,100,110.0
3424,C2,240.25,0.25,100,110.0
3425,F#2,240.5,0.5,100,110.0
3426,C2,240.5,0.25,100,110.0
3427,C2,240.5,0.25,100,110.0
3428,C2,240.75,0.25,100,110.0
3429,C2,240.75,0.25,100,110.0
3430,A3,240.75,0.5,100,110.0
3431,C3,240.75,0.5,100,110.0
3432,A3,240.75,0.5,100,110.0
3433,C3,240.75,0.5,100,110.0
3434,F#2,241.0,0.5,100,110.0
3435,D2,241.0,0.5,100,110.0
3436,F#2,241.5,0.5,100,110.0
3437,C2,241.5,0.25,100,110.0
3438,C2,241.5,0.25,100,110.0
3439,B-3,241.5,1.0,100,110.0
3440,C3,241.5,1.0,100,110.0
3441,B-3,241.5,1.0,100,110.0
3442,C3,241.5,1.0,100,110.0
3443,C2,241.75,0.25,100,110.0
3444,C2,241.75,0.25,100,110.0
3445,F#2,242.0,0.5,100,110.0
3446,C2,242.0,0.25,100,110.0
3447,C2,242.0,0.25,100,110.0
3448,C2,242.25,0.25,100,110.0
3449,C2,242.25,0.25,100,110.0
3450,C2,242.5,0.5,100,110.0
3451,C2,242.5,0.5,100,110.0
3452,F#2,242.5,0.5,100,110.0
3453,C2,242.5,0.5,100,110.0
3454,C2,243.0,0.25,100,110.0
3455,C2,243.0,0.25,100,110.0
3456,F#2,243.0,0.5,100,110.0
3457,D2,243.0,0.5,100,110.0
3458,C2,243.25,0.25,100,110.0
3459,C2,243.25,0.25,100,110.0
3460,C2,243.25,0.25,100,110.0
3461,F#2,243.5,0.5,100,110.0
3462,E-2,243.5,0.25,100,110.0
3463,E-2,243.5,0.25,100,110.0
3464,E2,243.75,0.25,100,110.0
3465,E2,243.75,0.25,100,110.0
3466,F2,244.0,0.25,100,110.0
3467,F2,244.0,0.25,100,110.0
3468,A3,244.0,0.5,100,110.0
3469,F#2,244.0,0.5,100,110.0
3470,C2,244.0,0.5,100,110.0
3471,E-4,244.0,0.5,100,110.0
3472,F3,244.0,0.5,100,110.0
3473,E-4,244.0,0.5,100,110.0
3474,F3,244.0,0.5,100,110.0
3475,F2,244.25,0.25,100,110.0
3476,F2,244.25,0.25,100,110.0
3477,F#2,244.5,0.5,100,110.0
3478,F2,244.5,0.25,100,110.0
3479,F2,244.5,0.25,100,110.0
3480,F2,244.75,0.25,100,110.0
3481,F2,244.75,0.25,100,110.0
3482,D4,244.75,0.5,100,110.0
3483,F3,244.75,0.5,100,110.0
3484,D4,244.75,0.5,100,110.0
3485,F3,244.75,0.5,100,110.0
3486,F#2,245.0,0.5,100,110.0
3487,F#2,245.0,0.5,100,110.0
3488,F#2,245.0,0.5,100,110.0
3489,D2,245.0,0.5,100,110.0
3490,F#2,245.5,0.5,100,110.0
3491,E-4,245.5,1.0,100,110.0
3492,F3,245.5,1.0,100,110.0
3493,E-4,245.5,1.0,100,110.0
3494,F3,245.5,1.0,100,110.0
3495,F#2,246.0,0.5,100,110.0
3496,F2,246.0,0.25,100,110.0
3497,F2,246.0,0.25,100,110.0
3498,G2,246.25,0.25,100,110.0
3499,G2,246.25,0.25,100,110.0
3500,B-2,246.5,0.25,100,110.0
3501,B-2,246.5,0.25,100,110.0
3502,F#2,246.5,0.5,100,110.0
3503,C2,246.5,0.5,100,110.0
3504,G2,246.75,0.25,100,110.0
3505,G2,246.75,0.25,100,110.0
3506,F2,247.0,0.25,100,110.0
3507,F2,247.0,0.25,100,110.0
3508,F#2,247.0,0.5,100,110.0
3509,D2,247.0,0.5,100,110.0
3510,C2,247.25,0.25,100,110.0
3511,E-2,247.25,0.25,100,110.0
3512,E-2,247.25,0.25,100,110.0
3513,F#2,247.5,0.5,100,110.0
3514,C2,247.5,0.25,100,110.0
3515,C2,247.5,0.25,100,110.0
3516,B-1,247.75,0.25,100,110.0
3517,B-1,247.75,0.25,100,110.0
3518,C2,248.0,0.25,100,110.0
3519,C2,248.0,0.25,100,110.0
3520,A3,248.0,0.5,100,110.0
3521,F#2,248.0,0.5,100,110.0
3522,C2,248.0,0.5,100,110.0
3523,A4,248.0,3.0,100,110.0
3524,E-4,248.0,3.0,100,110.0
3525,G3,248.0,0.5,100,110.0
3526,C3,248.0,0.5,100,110.0
3527,G3,248.0,0.5,100,110.0
3528,C3,248.0,0.5,100,110.0
3529,C2,248.25,0.25,100,110.0
3530,C2,248.25,0.25,100,110.0
3531,F#2,248.5,0.5,100,110.0
3532,C2,248.5,0.25,100,110.0
3533,C2,248.5,0.25,100,110.0
3534,C2,248.75,0.25,100,110.0
3535,C2,248.75,0.25,100,110.0
3536,A3,248.75,0.5,100,110.0
3537,C3,248.75,0.5,100,110.0
3538,A3,248.75,0.5,100,110.0
3539,C3,248.75,0.5,100,110.0
3540,F#2,249.0,0.5,100,110.0
3541,D2,249.0,0.5,100,110.0
3542,F#2,249.5,0.5,100,110.0
3543,C2,249.5,0.25,100,110.0
3544,C2,249.5,0.25,100,110.0
3545,B-3,249.5,1.0,100,110.0
3546,C3,249.5,1.0,100,110.0
3547,B-3,249.5,1.0,100,110.0
3548,C3,249.5,1.0,100,110.0
3549,C2,249.75,0.25,100,110.0
3550,C2,249.75,0.25,100,110.0
3551,F#2,250.0,0.5,100,110.0
3552,C2,250.0,0.25,100,110.0
3553,C2,250.0,0.25,100,110.0
3554,C2,250.25,0.25,100,110.0
3555,C2,250.25,0.25,100,110.0
3556,C2,250.5,0.5,100,110.0
3557,C2,250.5,0.5,100,110.0
3558,F#2,250.5,0.5,100,110.0
3559,C2,250.5,0.5,100,110.0
3560,C2,251.0,0.25,100,110.0
3561,C2,251.0,0.25,100,110.0
3562,F#2,251.0,0.5,100,110.0
3563,D2,251.0,0.5,100,110.0
3564,C2,251.25,0.25,100,110.0
3565,C2,251.25,0.25,100,110.0
3566,C2,251.25,0.25,100,110.0
3567,F#2,251.5,0.5,100,110.0
3568,E-2,251.5,0.25,100,110.0
3569,E-2,251.5,0.25,100,110.0
3570,E2,251.75,0.25,100,110.0
3571,E2,251.75,0.25,100,110.0
3572,F2,252.0,0.25,100,110.0
3573,F2,252.0,0.25,100,110.0
3574,A3,252.0,0.5,100,110.0
3575,F#2,252.0,0.5,100,110.0
3576,C2,252.0,0.5,100,110.0
3577,E-4,252.0,0.5,100,110.0
3578,F3,252.0,0.5,100,110.0
3579,E-4,252.0,0.5,100,110.0
3580,F3,252.0,0.5,100,110.0
3581,F2,252.25,0.25,100,110.0
3582,F2,252.25,0.25,100,110.0
3583,F#2,252.5,0.5,100,110.0
3584,F2,252.5,0.25,100,110.0
3585,F2,252.5,0.25,100,110.0
3586,F2,252.75,0.25,100,110.0
3587,F2,252.75,0.25,100,110.0
3588,D4,252.75,0.5,100,110.0
3589,F3,252.75,0.5,100,110.0
3590,D4,252.75,0.5,100,110.0
3591,F3,252.75,0.5,100,110.0
3592,F#2,253.0,0.5,100,110.0
3593,F#2,253.0,0.5,100,110.0
3594,F#2,253.0,0.5,100,110.0
3595,D2,253.0,0.5,100,110.0
3596,F#2,253.5,0.5,100,110.0
3597,E-4,253.5,1.0,100,110.0
3598,F3,253.5,1.0,100,110.0
3599,E-4,253.5,1.0,100,110.0
3600,F3,253.5,1.0,100,110.0
3601,F#2,254.0,0.5,100,110.0
3602,F2,254.0,0.25,100,110.0
3603,F2,254.0,0.25,100,110.0
3604,G2,254.25,0.25,100,110.0
3605,G2,254.25,0.25,100,110.0
3606,B-2,254.5,0.25,100,110.0
3607,B-2,254.5,0.25,100,110.0
3608,F#2,254.5,0.5,100,110.0
3609,C2,254.5,0.5,100,110.0
3610,G2,254.75,0.25,100,110.0
3611,G2,254.75,0.25,100,110.0
3612,F2,255.0,0.25,100,110.0
3613,F2,255.0,0.25,100,110.0
3614,F#2,255.0,0.5,100,110.0
3615,D2,255.0,0.5,100,110.0
3616,C2,255.25,0.25,100,110.0
3617,E-2,255.25,0.25,100,110.0
3618,E-2,255.25,0.25,100,110.0
3619,F#2,255.5,0.5,100,110.0
3620,C2,255.5,0.25,100,110.0
3621,C2,255.5,0.25,100,110.0
3622,B-1,255.75,0.25,100,110.0
3623,B-1,255.75,0.25,100,110.0
3624,C2,256.0,0.5,100,110.0
3625,C2,256.0,0.5,100,110.0
3626,A3,256.0,0.5,100,110.0
3627,F#2,256.0,0.5,100,110.0
3628,C2,256.0,0.5,100,110.0
3629,G3,256.0,0.5,100,110.0
3630,C3,256.0,0.5,100,110.0
3631,G3,256.0,0.5,100,110.0
3632,C3,256.0,0.5,100,110.0
3633,C2,256.75,0.5,100,110.0
3634,C2,256.75,0.5,100,110.0
3635,A3,256.75,0.5,100,110.0
3636,C2,256.75,0.5,100,110.0
3637,A3,256.75,0.5,100,110.0
3638,C3,256.75,0.5,100,110.0
3639,A3,256.75,0.5,100,110.0
3640,C3,256.75,0.5,100,110.0
3641,C2,257.5,1.0,100,110.0
3642,C2,257.5,1.0,100,110.0
3643,A3,257.5,0.5,100,110.0
3644,C2,257.5,0.5,100,110.0
3645,B-3,257.5,1.0,100,110.0
3646,C3,257.5,1.0,100,110.0
3647,B-3,257.5,1.0,100,110.0
3648,C3,257.5,1.0,100,110.0
3649,F#2,258.0,0.5,100,110.0
3650,E-2,258.5,0.25,100,110.0
3651,E-2,258.5,0.25,100,110.0
3652,F#2,258.5,0.5,100,110.0
3653,C2,258.5,0.5,100,110.0
3654,G2,258.75,0.25,100,110.0
3655,G2,258.75,0.25,100,110.0
3656,C3,259.0,0.25,100,110.0
3657,C3,259.0,0.25,100,110.0
3658,F#2,259.0,0.5,100,110.0
3659,D2,259.0,0.5,100,110.0
3660,C2,259.25,0.25,100,110.0
3661,B-2,259.25,0.25,100,110.0
3662,B-2,259.25,0.25,100,110.0
3663,F#2,259.5,0.5,100,110.0
3664,G2,259.5,0.5,100,110.0
3665,G2,259.5,0.5,100,110.0
3666,F1,260.0,0.5,100,110.0
3667,F1,260.0,0.5,100,110.0
3668,A3,260.0,0.5,100,110.0
3669,F#2,260.0,0.5,100,110.0
3670,C2,260.0,0.5,100,110.0
3671,E-4,260.0,0.5,100,110.0
3672,F3,260.0,0.5,100,110.0
3673,E-4,260.0,0.5,100,110.0
3674,F3,260.0,0.5,100,110.0
3675,F1,260.75,0.5,100,110.0
3676,F1,260.75,0.5,100,110.0
3677,A3,260.75,0.5,100,110.0
3678,C2,260.75,0.5,100,110.0
3679,D4,260.75,0.5,100,110.0
3680,F3,260.75,0.5,100,110.0
3681,D4,260.75,0.5,100,110.0
3682,F3,260.75,0.5,100,110.0
3683,F1,261.5,1.0,100,110.0
3684,F1,261.5,1.0,100,110.0
3685,A3,261.5,0.5,100,110.0
3686,C2,261.5,0.5,100,110.0
3687,E-4,261.5,1.0,100,110.0
3688,F3,261.5,1.0,100,110.0
3689,E-4,261.5,1.0,100,110.0
3690,F3,261.5,1.0,100,110.0
3691,F#2,262.0,0.5,100,110.0
3692,C2,262.25,0.25,100,110.0
3693,C2,262.25,0.25,100,110.0
3694,E-2,262.5,0.25,100,110.0
3695,E-2,262.5,0.25,100,110.0
3696,F#2,262.5,0.5,100,110.0
3697,C2,262.5,0.5,100,110.0
3698,E2,262.75,0.25,100,110.0
3699,E2,262.75,0.25,100,110.0
3700,F2,263.0,0.25,100,110.0
3701,F2,263.0,0.25,100,110.0
3702,F#2,263.0,0.5,100,110.0
3703,D2,263.0,0.5,100,110.0
3704,C2,263.25,0.25,100,110.0
3705,G#2,263.25,0.25,100,110.0
3706,G#2,263.25,0.25,100,110.0
3707,F#2,263.5,0.5,100,110.0
3708,A2,263.5,0.5,100,110.0
3709,A2,263.5,0.5,100,110.0
3710,C3,264.0,0.25,100,110.0
3711,C3,264.0,0.25,100,110.0
3712,C2,264.0,0.5,100,110.0
3713,C2,264.0,0.5,100,110.0
3714,F#2,264.0,0.5,100,110.0
3715,C2,264.0,0.5,100,110.0
3716,C3,264.25,0.25,100,110.0
3717,C3,264.25,0.25,100,110.0
3718,F#2,264.5,0.5,100,110.0
3719,C3,264.5,0.25,100,110.0
3720,C3,264.5,0.25,100,110.0
3721,G3,264.75,0.5,100,110.0
3722,G3,264.75,0.5,100,110.0
3723,C2,264.75,0.25,100,110.0
3724,C2,264.75,0.25,100,110.0
3725,F#2,265.0,0.5,100,110.0
3726,D2,265.0,0.5,100,110.0
3727,G3,265.25,0.25,100,110.0
3728,G3,265.25,0.25,100,110.0
3729,B-1,265.25,0.25,100,110.0
3730,B-1,265.25,0.25,100,110.0
3731,F#2,265.5,0.5,100,110.0
3732,A3,265.5,0.25,100,110.0
3733,A3,265.5,0.25,100,110.0
3734,C2,265.5,0.5,100,110.0
3735,C2,265.5,0.5,100,110.0
3736,G3,265.75,0.25,100,110.0
3737,G3,265.75,0.25,100,110.0
3738,F#2,266.0,0.5,100,110.0
3739,C3,266.0,0.25,100,110.0
3740,C3,266.0,0.25,100,110.0
3741,C4,266.25,0.25,100,110.0
3742,C4,266.25,0.25,100,110.0
3743,E1,266.25,0.25,100,110.0
3744,E1,266.25,0.25,100,110.0
3745,G3,266.5,0.25,100,110.0
3746,G3,266.5,0.25,100,110.0
3747,F1,266.5,0.5,100,110.0
3748,F1,266.5,0.5,100,110.0
3749,F#2,266.5,0.5,100,110.0
3750,C2,266.5,0.5,100,110.0
3751,G3,266.75,0.25,100,110.0
3752,G3,266.75,0.25,100,110.0
3753,B-3,267.0,0.25,100,110.0
3754,B-3,267.0,0.25,100,110.0
3755,G1,267.0,0.25,100,110.0
3756,G1,267.0,0.25,100,110.0
3757,F#2,267.0,0.5,100,110.0
3758,D2,267.0,0.5,100,110.0
3759,C2,267.25,0.25,100,110.0
3760,G3,267.25,0.25,100,110.0
3761,G3,267.25,0.25,100,110.0
3762,G1,267.25,0.25,100,110.0
3763,G1,267.25,0.25,100,110.0
3764,F#2,267.5,0.5,100,110.0
3765,A3,267.5,0.25,100,110.0
3766,A3,267.5,0.25,100,110.0
3767,A1,267.5,0.25,100,110.0
3768,A1,267.5,0.25,100,110.0
3769,G3,267.75,0.25,100,110.0
3770,G3,267.75,0.25,100,110.0
3771,G1,267.75,0.25,100,110.0
3772,G1,267.75,0.25,100,110.0
3773,C3,268.0,0.25,100,110.0
3774,C3,268.0,0.25,100,110.0
3775,C2,268.0,0.5,100,110.0
3776,C2,268.0,0.5,100,110.0
3777,F#2,268.0,0.5,100,110.0
3778,C2,268.0,0.5,100,110.0
3779,C3,268.25,0.25,100,110.0
3780,C3,268.25,0.25,100,110.0
3781,F#2,268.5,0.5,100,110.0
3782,C3,268.5,0.25,100,110.0
3783,C3,268.5,0.25,100,110.0
3784,G3,268.75,0.5,100,110.0
3785,G3,268.75,0.5,100,110.0
3786,C2,268.75,0.5,100,110.0
3787,C2,268.75,0.5,100,110.0
3788,F#2,269.0,0.5,100,110.0
3789,D2,269.0,0.5,100,110.0
3790,G3,269.25,0.25,100,110.0
3791,G3,269.25,0.25,100,110.0
3792,B-1,269.25,0.25,100,110.0
3793,B-1,269.25,0.25,100,110.0
3794,F#2,269.5,0.5,100,110.0
3795,A3,269.5,0.25,100,110.0
3796,A3,269.5,0.25,100,110.0
3797,C2,269.5,0.25,100,110.0
3798,C2,269.5,0.25,100,110.0
3799,G3,269.75,0.25,100,110.0
3800,G3,269.75,0.25,100,110.0
3801,E1,269.75,0.25,100,110.0
3802,E1,269.75,0.25,100,110.0
3803,F#2,270.0,0.5,100,110.0
3804,C3,270.0,0.25,100,110.0
3805,C3,270.0,0.25,100,110.0
3806,F1,270.0,0.5,100,110.0
3807,F1,270.0,0.5,100,110.0
3808,C4,270.25,0.25,100,110.0
3809,C4,270.25,0.25,100,110.0
3810,G3,270.5,0.25,100,110.0
3811,G3,270.5,0.25,100,110.0
3812,G1,270.5,0.5,100,110.0
3813,G1,270.5,0.5,100,110.0
3814,F#2,270.5,0.5,100,110.0
3815,C2,270.5,0.5,100,110.0
3816,G3,270.75,0.25,100,110.0
3817,G3,270.75,0.25,100,110.0
3818,B-3,271.0,0.25,100,110.0
3819,B-3,271.0,0.25,100,110.0
3820,B1,271.0,0.25,100,110.0
3821,B1,271.0,0.25,100,110.0
3822,F#2,271.0,0.5,100,110.0
3823,D2,271.0,0.5,100,110.0
3824,C2,271.25,0.25,100,110.0
3825,G3,271.25,0.25,100,110.0
3826,G3,271.25,0.25,100,110.0
3827,G1,271.25,0.25,100,110.0
3828,G1,271.25,0.25,100,110.0
3829,F#2,271.5,0.5,100,110.0
3830,A3,271.5,0.25,100,110.0
3831,A3,271.5,0.25,100,110.0
3832,B1,271.5,0.5,100,110.0
3833,B1,271.5,0.5,100,110.0
3834,G3,271.75,0.25,100,110.0
3835,G3,271.75,0.25,100,110.0
3836,C3,272.0,0.25,100,110.0
3837,C3,272.0,0.25,100,110.0
3838,C2,272.0,0.5,100,110.0
3839,C2,272.0,0.5,100,110.0
3840,F#2,272.0,0.5,100,110.0
3841,C2,272.0,0.5,100,110.0
3842,C3,272.25,0.25,100,110.0
3843,C3,272.25,0.25,100,110.0
3844,F#2,272.5,0.5,100,110.0
3845,C3,272.5,0.25,100,110.0
3846,C3,272.5,0.25,100,110.0
3847,G3,272.75,0.5,100,110.0
3848,G3,272.75,0.5,100,110.0
3849,C2,272.75,0.25,100,110.0
3850,C2,272.75,0.25,100,110.0
3851,F#2,273.0,0.5,100,110.0
3852,D2,273.0,0.5,100,110.0
3853,G3,273.25,0.25,100,110.0
3854,G3,273.25,0.25,100,110.0
3855,B-1,273.25,0.25,100,110.0
3856,B-1,273.25,0.25,100,110.0
3857,F#2,273.5,0.5,100,110.0
3858,A3,273.5,0.25,100,110.0
3859,A3,273.5,0.25,100,110.0
3860,C2,273.5,0.5,100,110.0
3861,C2,273.5,0.5,100,110.0
3862,G3,273.75,0.25,100,110.0
3863,G3,273.75,0.25,100,110.0
3864,F#2,274.0,0.5,100,110.0
3865,C3,274.0,0.25,100,110.0
3866,C3,274.0,0.25,100,110.0
3867,C4,274.25,0.25,100,110.0
3868,C4,274.25,0.25,100,110.0
3869,E1,274.25,0.25,100,110.0
3870,E1,274.25,0.25,100,110.0
3871,G3,274.5,0.25,100,110.0
3872,G3,274.5,0.25,100,110.0
3873,F1,274.5,0.5,100,110.0
3874,F1,274.5,0.5,100,110.0
3875,F#2,274.5,0.5,100,110.0
3876,C2,274.5,0.5,100,110.0
3877,G3,274.75,0.25,100,110.0
3878,G3,274.75,0.25,100,110.0
3879,B-3,275.0,0.25,100,110.0
3880,B-3,275.0,0.25,100,110.0
3881,G1,275.0,0.25,100,110.0
3882,G1,275.0,0.25,100,110.0
3883,F#2,275.0,0.5,100,110.0
3884,D2,275.0,0.5,100,110.0
3885,C2,275.25,0.25,100,110.0
3886,G3,275.25,0.25,100,110.0
3887,G3,275.25,0.25,100,110.0
3888,G1,275.25,0.25,100,110.0
3889,G1,275.25,0.25,100,110.0
3890,F#2,275.5,0.5,100,110.0
3891,A3,275.5,0.25,100,110.0
3892,A3,275.5,0.25,100,110.0
3893,A1,275.5,0.25,100,110.0
3894,A1,275.5,0.25,100,110.0
3895,G3,275.75,0.25,100,110.0
3896,G3,275.75,0.25,100,110.0
3897,G1,275.75,0.25,100,110.0
3898,G1,275.75,0.25,100,110.0
3899,C3,276.0,0.25,100,110.0
3900,C3,276.0,0.25,100,110.0
3901,C2,276.0,0.5,100,110.0
3902,C2,276.0,0.5,100,110.0
3903,F#2,276.0,0.5,100,110.0
3904,C2,276.0,0.5,100,110.0
3905,C3,276.25,0.25,100,110.0
3906,C3,276.25,0.25,100,110.0
3907,F#2,276.5,0.5,100,110.0
3908,C3,276.5,0.25,100,110.0
3909,C3,276.5,0.25,100,110.0
3910,G3,276.75,0.5,100,110.0
3911,G3,276.75,0.5,100,110.0
3912,C2,276.75,0.5,100,110.0
3913,C2,276.75,0.5,100,110.0
3914,F#2,277.0,0.5,100,110.0
3915,D2,277.0,0.5,100,110.0
3916,G3,277.25,0.25,100,110.0
3917,G3,277.25,0.25,100,110.0
3918,B-1,277.25,0.25,100,110.0
3919,B-1,277.25,0.25,100,110.0
3920,F#2,277.5,0.5,100,110.0
3921,A3,277.5,0.25,100,110.0
3922,A3,277.5,0.25,100,110.0
3923,C2,277.5,667/1000,100,110.0
3924,C2,277.5,667/1000,100,110.0
3925,G3,277.75,0.25,100,110.0
3926,G3,277.75,0.25,100,110.0
3927,F#2,278.0,0.5,100,110.0
3928,C3,278.0,0.25,100,110.0
3929,C3,278.0,0.25,100,110.0
3930,C4,278.25,0.25,100,110.0
3931,C4,278.25,0.25,100,110.0
3932,E1,278.25,0.25,100,110.0
3933,E1,278.25,0.25,100,110.0
3934,G3,278.5,0.25,100,110.0
3935,G3,278.5,0.25,100,110.0
3936,G1,278.5,0.25,100,110.0
3937,G1,278.5,0.25,100,110.0
3938,F#2,278.5,0.5,100,110.0
3939,C2,278.5,0.5,100,110.0
3940,G3,278.75,0.25,100,110.0
3941,G3,278.75,0.25,100,110.0
3942,G1,278.75,0.25,100,110.0
3943,G1,278.75,0.25,100,110.0
3944,D2,279.0,0.5,100,110.0
3945,A1,279.0,1.0,100,110.0
3946,A1,279.0,1.0,100,110.0
3947,E3,279.0,1.0,100,110.0
3948,F#2,279.0,1.0,100,110.0
3949,A3,279.0,1.0,100,110.0
3950,E3,279.0,1.0,100,110.0
3951,A2,279.0,1.0,100,110.0
3952,A3,279.0,1.0,100,110.0
3953,E3,279.0,1.0,100,110.0
3954,A2,279.0,1.0,100,110.0
3955,A3,280.0,0.5,100,110.0
3956,E2,280.0,0.25,100,110.0
3957,E2,280.0,0.25,100,110.0
3958,E1,280.0,0.25,100,110.0
3959,E1,280.0,0.25,100,110.0
3960,B-2,280.0,1.0,100,110.0
3961,C2,280.0,1.0,100,110.0
3962,G2,280.25,0.25,100,110.0
3963,G2,280.25,0.25,100,110.0
3964,G1,280.25,0.25,100,110.0
3965,G1,280.25,0.25,100,110.0
3966,F#2,280.5,0.5,100,110.0
3967,G#2,280.5,0.25,100,110.0
3968,G#2,280.5,0.25,100,110.0
3969,G#1,280.5,0.25,100,110.0
3970,G#1,280.5,0.25,100,110.0
3971,E3,280.75,0.25,100,110.0
3972,E3,280.75,0.25,100,110.0
3973,E2,280.75,0.25,100,110.0
3974,E2,280.75,0.25,100,110.0
3975,F#2,281.0,0.5,100,110.0
3976,D2,281.0,1.0,100,110.0
3977,A2,281.25,0.25,100,110.0
3978,A2,281.25,0.25,100,110.0
3979,A1,281.25,0.25,100,110.0
3980,A1,281.25,0.25,100,110.0
3981,F#2,281.5,0.5,100,110.0
3982,B-2,281.5,0.25,100,110.0
3983,B-2,281.5,0.25,100,110.0
3984,B-1,281.5,0.25,100,110.0
3985,B-1,281.5,0.25,100,110.0
3986,C2,281.75,0.25,100,110.0
3987,B2,281.75,0.25,100,110.0
3988,B2,281.75,0.25,100,110.0
3989,B1,281.75,0.25,100,110.0
3990,B1,281.75,0.25,100,110.0
3991,F#2,282.0,0.5,100,110.0
3992,C2,282.0,0.25,100,110.0
3993,E3,282.0,0.5,100,110.0
3994,E3,282.0,0.5,100,110.0
3995,E2,282.0,0.25,100,110.0
3996,E2,282.0,0.25,100,110.0
3997,E2,282.5,0.5,100,110.0
3998,E2,282.5,0.5,100,110.0
3999,E1,282.5,0.5,100,110.0
4000,E1,282.5,0.5,100,110.0
4001,F#2,282.5,0.5,100,110.0
4002,C2,282.5,0.5,100,110.0
4003,E3,283.0,0.5,100,110.0
4004,F#2,283.0,0.5,100,110.0
4005,D2,283.0,0.5,100,110.0
4006,F#2,283.5,0.5,100,110.0
4007,E2,284.0,0.25,100,110.0
4008,E2,284.0,0.25,100,110.0
4009,E1,284.0,0.25,100,110.0
4010,E1,284.0,0.25,100,110.0
4011,B-2,284.0,1.0,100,110.0
4012,C2,284.0,1.0,100,110.0
4013,G2,284.25,0.25,100,110.0
4014,G2,284.25,0.25,100,110.0
4015,G1,284.25,0.25,100,110.0
4016,G1,284.25,0.25,100,110.0
4017,F#2,284.5,0.5,100,110.0
4018,G#2,284.5,0.25,100,110.0
4019,G#2,284.5,0.25,100,110.0
4020,G#1,284.5,0.25,100,110.0
4021,G#1,284.5,0.25,100,110.0
4022,E3,284.75,0.25,100,110.0
4023,E3,284.75,0.25,100,110.0
4024,E2,284.75,0.25,100,110.0
4025,E2,284.75,0.25,100,110.0
4026,F#2,285.0,0.5,100,110.0
4027,D2,285.0,1.0,100,110.0
4028,A2,285.25,0.25,100,110.0
4029,A2,285.25,0.25,100,110.0
4030,A1,285.25,0.25,100,110.0
4031,A1,285.25,0.25,100,110.0
4032,F#2,285.5,0.5,100,110.0
4033,B-2,285.5,0.25,100,110.0
4034,B-2,285.5,0.25,100,110.0
4035,B-1,285.5,0.25,100,110.0
4036,B-1,285.5,0.25,100,110.0
4037,C2,285.75,0.25,100,110.0
4038,B2,285.75,0.25,100,110.0
4039,B2,285.75,0.25,100,110.0
4040,B1,285.75,0.25,100,110.0
4041,B1,285.75,0.25,100,110.0
4042,F#2,286.0,0.5,100,110.0
4043,C2,286.0,0.25,100,110.0
4044,E3,286.0,0.5,100,110.0
4045,E3,286.0,0.5,100,110.0
4046,E2,286.0,0.25,100,110.0
4047,E2,286.0,0.25,100,110.0
4048,A1,286.5,521/500,127,110.0
4049,A1,286.5,521/500,127,110.0
4050,F#2,286.5,0.5,100,110.0
4051,C2,286.5,0.5,100,110.0
4052,A3,286.5,1.0,100,110.0
4053,E3,286.5,1.0,100,110.0
4054,A2,286.5,1.0,100,110.0
4055,A3,286.5,1.0,100,110.0
4056,E3,286.5,1.0,100,110.0
4057,A2,286.5,1.0,100,110.0
4058,F#2,287.0,0.5,100,110.0
4059,D2,287.0,0.5,100,110.0
4060,F#2,287.5,0.5,100,110.0
4061,E2,288.0,0.25,100,110.0
4062,E2,288.0,0.25,100,110.0
4063,E1,288.0,0.25,100,110.0
4064,E1,288.0,0.25,100,110.0
4065,B-2,288.0,1.0,100,110.0
4066,C2,288.0,1.0,100,110.0
4067,G2,288.25,0.25,100,110.0
4068,G2,288.25,0.25,100,110.0
4069,G1,288.25,0.25,100,110.0
4070,G1,288.25,0.25,100,110.0
4071,F#2,288.5,0.5,100,110.0
4072,G#2,288.5,0.25,100,110.0
4073,G#2,288.5,0.25,100,110.0
4074,G#1,288.5,0.25,100,110.0
4075,G#1,288.5,0.25,100,110.0
4076,E3,288.75,0.25,100,110.0
4077,E3,288.75,0.25,100,110.0
4078,E2,288.75,0.25,100,110.0
4079,E2,288.75,0.25,100,110.0
4080,F#2,289.0,0.5,100,110.0
4081,D2,289.0,1.0,100,110.0
4082,A2,289.25,0.25,100,110.0
4083,A2,289.25,0.25,100,110.0
4084,A1,289.25,0.25,100,110.0
4085,A1,289.25,0.25,100,110.0
4086,F#2,289.5,0.5,100,110.0
4087,B-2,289.5,0.25,100,110.0
4088,B-2,289.5,0.25,100,110.0
4089,B-1,289.5,0.25,100,110.0
4090,B-1,289.5,0.25,100,110.0
4091,C2,289.75,0.25,100,110.0
4092,B2,289.75,0.25,100,110.0
4093,B2,289.75,0.25,100,110.0
4094,B1,289.75,0.25,100,110.0
4095,B1,289.75,0.25,100,110.0
4096,F#2,290.0,0.5,100,110.0
4097,C2,290.0,0.25,100,110.0
4098,E3,290.0,0.5,100,110.0
4099,E3,290.0,0.5,100,110.0
4100,E2,290.0,0.25,100,110.0
4101,E2,290.0,0.25,100,110.0
4102,E2,290.5,0.5,100,110.0
4103,E2,290.5,0.5,100,110.0
4104,E1,290.5,0.5,100,110.0
4105,E1,290.5,0.5,100,110.0
4106,F#2,290.5,0.5,100,110.0
4107,C2,290.5,0.5,100,110.0
4108,E3,291.0,0.5,100,110.0
4109,F#2,291.0,0.5,100,110.0
4110,D2,291.0,0.5,100,110.0
4111,F#2,291.5,0.5,100,110.0
4112,E2,292.0,0.25,100,110.0
4113,E2,292.0,0.25,100,110.0
4114,E1,292.0,0.25,100,110.0
4115,E1,292.0,0.25,100,110.0
4116,B-2,292.0,1.0,100,110.0
4117,C2,292.0,1.0,100,110.0
4118,G2,292.25,0.25,100,110.0
4119,G2,292.25,0.25,100,110.0
4120,G1,292.25,0.25,100,110.0
4121,G1,292.25,0.25,100,110.0
4122,F#2,292.5,0.5,100,110.0
4123,G#2,292.5,0.25,100,110.0
4124,G#2,292.5,0.25,100,110.0
4125,G#1,292.5,0.25,100,110.0
4126,G#1,292.5,0.25,100,110.0
4127,E3,292.75,0.25,100,110.0
4128,E3,292.75,0.25,100,110.0
4129,E2,292.75,0.25,100,110.0
4130,E2,292.75,0.25,100,110.0
4131,F#2,293.0,0.5,100,110.0
4132,D2,293.0,1.0,100,110.0
4133,A2,293.25,0.25,100,110.0
4134,A2,293.25,0.25,100,110.0
4135,A1,293.25,0.25,100,110.0
4136,A1,293.25,0.25,100,110.0
4137,F#2,293.5,0.5,100,110.0
4138,B-2,293.5,0.25,100,110.0
4139,B-2,293.5,0.25,100,110.0
4140,B-1,293.5,0.25,100,110.0
4141,B-1,293.5,0.25,100,110.0
4142,C2,293.75,0.25,100,110.0
4143,B2,293.75,0.25,100,110.0
4144,B2,293.75,0.25,100,110.0
4145,B1,293.75,0.25,100,110.0
4146,B1,293.75,0.25,100,110.0
4147,F#2,294.0,0.5,100,110.0
4148,C2,294.0,0.25,100,110.0
4149,E3,294.0,0.5,100,110.0
4150,E3,294.0,0.5,100,110.0
4151,E2,294.0,0.25,100,110.0
4152,E2,294.0,0.25,100,110.0
4153,A1,294.5,521/500,127,110.0
4154,A1,294.5,521/500,127,110.0
4155,A3,294.5,0.5,100,110.0
4156,B-2,294.5,0.5,100,110.0
4157,D2,294.5,0.5,100,110.0
4158,A3,294.5,1.0,100,110.0
4159,E3,294.5,1.0,100,110.0
4160,A2,294.5,1.0,100,110.0
4161,A3,294.5,1.0,100,110.0
4162,E3,294.5,1.0,100,110.0
4163,A2,294.5,1.0,100,110.0
4164,D2,295.5,0.5,100,110.0
4165,F#2,295.5,0.5,100,110.0
4166,A3,296.0,0.5,100,110.0
4167,E2,296.0,0.25,100,110.0
4168,E2,296.0,0.25,100,110.0
4169,E1,296.0,0.25,100,110.0
4170,E1,296.0,0.25,100,110.0
4171,B-2,296.0,1.0,100,110.0
4172,C2,296.0,1.0,100,110.0
4173,G2,296.25,0.25,100,110.0
4174,G2,296.25,0.25,100,110.0
4175,G1,296.25,0.25,100,110.0
4176,G1,296.25,0.25,100,110.0
4177,F#2,296.5,0.5,100,110.0
4178,G#2,296.5,0.25,100,110.0
4179,G#2,296.5,0.25,100,110.0
4180,G#1,296.5,0.25,100,110.0
4181,G#1,296.5,0.25,100,110.0
4182,E3,296.75,0.25,100,110.0
4183,E3,296.75,0.25,100,110.0
4184,E2,296.75,0.25,100,110.0
4185,E2,296.75,0.25,100,110.0
4186,F#2,297.0,0.5,100,110.0
4187,D2,297.0,1.0,100,110.0
4188,A2,297.25,0.25,100,110.0
4189,A2,297.25,0.25,100,110.0
4190,A1,297.25,0.25,100,110.0
4191,A1,297.25,0.25,100,110.0
4192,F#2,297.5,0.5,100,110.0
4193,B-2,297.5,0.25,100,110.0
4194,B-2,297.5,0.25,100,110.0
4195,B-1,297.5,0.25,100,110.0
4196,B-1,297.5,0.25,100,110.0
4197,C2,297.75,0.25,100,110.0
4198,B2,297.75,0.25,100,110.0
4199,B2,297.75,0.25,100,110.0
4200,B1,297.75,0.25,100,110.0
4201,B1,297.75,0.25,100,110.0
4202,F#2,298.0,0.5,100,110.0
4203,C2,298.0,0.25,100,110.0
4204,E3,298.0,0.5,100,110.0
4205,E3,298.0,0.5,100,110.0
4206,E2,298.0,0.25,100,110.0
4207,E2,298.0,0.25,100,110.0
4208,E2,298.5,0.5,100,110.0
4209,E2,298.5,0.5,100,110.0
4210,E1,298.5,0.5,100,110.0
4211,E1,298.5,0.5,100,110.0
4212,F#2,298.5,0.5,100,110.0
4213,C2,298.5,0.5,100,110.0
4214,E3,299.0,0.5,100,110.0
4215,F#2,299.0,0.5,100,110.0
4216,D2,299.0,0.5,100,110.0
4217,F#2,299.5,0.5,100,110.0
4218,E2,300.0,0.25,100,110.0
4219,E2,300.0,0.25,100,110.0
4220,E1,300.0,0.25,100,110.0
4221,E1,300.0,0.25,100,110.0
4222,B-2,300.0,1.0,100,110.0
4223,C2,300.0,1.0,100,110.0
4224,G2,300.25,0.25,100,110.0
4225,G2,300.25,0.25,100,110.0
4226,G1,300.25,0.25,100,110.0
4227,G1,300.25,0.25,100,110.0
4228,F#2,300.5,0.5,100,110.0
4229,G#2,300.5,0.25,100,110.0
4230,G#2,300.5,0.25,100,110.0
4231,G#1,300.5,0.25,100,110.0
4232,G#1,300.5,0.25,100,110.0
4233,E3,300.75,0.25,100,110.0
4234,E3,300.75,0.25,100,110.0
4235,E2,300.75,0.25,100,110.0
4236,E2,300.75,0.25,100,110.0
4237,F#2,301.0,0.5,100,110.0
4238,D2,301.0,1.0,100,110.0
4239,A2,301.25,0.25,100,110.0
4240,A2,301.25,0.25,100,110.0
4241,A1,301.25,0.25,100,110.0
4242,A1,301.25,0.25,100,110.0
4243,F#2,301.5,0.5,100,110.0
4244,B-2,301.5,0.25,100,110.0
4245,B-2,301.5,0.25,100,110.0
4246,B-1,301.5,0.25,100,110.0
4247,B-1,301.5,0.25,100,110.0
4248,C2,301.75,0.25,100,110.0
4249,B2,301.75,0.25,100,110.0
4250,B2,301.75,0.25,100,110.0
4251,B1,301.75,0.25,100,110.0
4252,B1,301.75,0.25,100,110.0
4253,F#2,302.0,0.5,100,110.0
4254,C2,302.0,0.25,100,110.0
4255,E3,302.0,0.5,100,110.0
4256,E3,302.0,0.5,100,110.0
4257,E2,302.0,0.25,100,110.0
4258,E2,302.0,0.25,100,110.0
4259,A1,302.5,521/500,127,110.0
4260,A1,302.5,521/500,127,110.0
4261,F#2,302.5,0.5,100,110.0
4262,C2,302.5,0.5,100,110.0
4263,A3,302.5,1.0,100,110.0
4264,E3,302.5,1.0,100,110.0
4265,A2,302.5,1.0,100,110.0
4266,A3,302.5,1.0,100,110.0
4267,E3,302.5,1.0,100,110.0
4268,A2,302.5,1.0,100,110.0
4269,F#2,303.0,0.5,100,110.0
4270,D2,303.0,0.5,100,110.0
4271,F#2,303.5,0.5,100,110.0
4272,E2,304.0,0.25,100,110.0
4273,E2,304.0,0.25,100,110.0
4274,E1,304.0,0.25,100,110.0
4275,E1,304.0,0.25,100,110.0
4276,B-2,304.0,1.0,100,110.0
4277,C2,304.0,1.0,100,110.0
4278,G2,304.25,0.25,100,110.0
4279,G2,304.25,0.25,100,110.0
4280,G1,304.25,0.25,100,110.0
4281,G1,304.25,0.25,100,110.0
4282,F#2,304.5,0.5,100,110.0
4283,G#2,304.5,0.25,100,110.0
4284,G#2,304.5,0.25,100,110.0
4285,G#1,304.5,0.25,100,110.0
4286,G#1,304.5,0.25,100,110.0
4287,E3,304.75,0.25,100,110.0
4288,E3,304.75,0.25,100,110.0
4289,E2,304.75,0.25,100,110.0
4290,E2,304.75,0.25,100,110.0
4291,F#2,305.0,0.5,100,110.0
4292,D2,305.0,1.0,100,110.0
4293,A2,305.25,0.25,100,110.0
4294,A2,305.25,0.25,100,110.0
4295,A1,305.25,0.25,100,110.0
4296,A1,305.25,0.25,100,110.0
4297,F#2,305.5,0.5,100,110.0
4298,B-2,305.5,0.25,100,110.0
4299,B-2,305.5,0.25,100,110.0
4300,B-1,305.5,0.25,100,110.0
4301,B-1,305.5,0.25,100,110.0
4302,C2,305.75,0.25,100,110.0
4303,B2,305.75,0.25,100,110.0
4304,B2,305.75,0.25,100,110.0
4305,B1,305.75,0.25,100,110.0
4306,B1,305.75,0.25,100,110.0
4307,F#2,306.0,0.5,100,110.0
4308,C2,306.0,0.25,100,110.0
4309,E3,306.0,0.5,100,110.0
4310,E3,306.0,0.5,100,110.0
4311,E2,306.0,0.25,100,110.0
4312,E2,306.0,0.25,100,110.0
4313,E2,306.5,0.5,100,110.0
4314,E2,306.5,0.5,100,110.0
4315,E1,306.5,0.5,100,110.0
4316,E1,306.5,0.5,100,110.0
4317,F#2,306.5,0.5,100,110.0
4318,C2,306.5,0.5,100,110.0
4319,E3,307.0,0.5,100,110.0
4320,F#2,307.0,0.5,100,110.0
4321,D2,307.0,0.5,100,110.0
4322,F#2,307.5,0.5,100,110.0
4323,E2,308.0,0.25,100,110.0
4324,E2,308.0,0.25,100,110.0
4325,E1,308.0,0.25,100,110.0
4326,E1,308.0,0.25,100,110.0
4327,B-2,308.0,1.0,100,110.0
4328,C2,308.0,1.0,100,110.0
4329,G2,308.25,0.25,100,110.0
4330,G2,308.25,0.25,100,110.0
4331,G1,308.25,0.25,100,110.0
4332,G1,308.25,0.25,100,110.0
4333,F#2,308.5,0.5,100,110.0
4334,G#2,308.5,0.25,100,110.0
4335,G#2,308.5,0.25,100,110.0
4336,G#1,308.5,0.25,100,110.0
4337,G#1,308.5,0.25,100,110.0
4338,E3,308.75,0.25,100,110.0
4339,E3,308.75,0.25,100,110.0
4340,E2,308.75,0.25,100,110.0
4341,E2,308.75,0.25,100,110.0
4342,F#2,309.0,0.5,100,110.0
4343,D2,309.0,1.0,100,110.0
4344,A2,309.25,0.25,100,110.0
4345,A2,309.25,0.25,100,110.0
4346,A1,309.25,0.25,100,110.0
4347,A1,309.25,0.25,100,110.0
4348,F#2,309.5,0.5,100,110.0
4349,B-2,309.5,0.25,100,110.0
4350,B-2,309.5,0.25,100,110.0
4351,B-1,309.5,0.25,100,110.0
4352,B-1,309.5,0.25,100,110.0
4353,C2,309.75,0.25,100,110.0
4354,B2,309.75,0.25,100,110.0
4355,B2,309.75,0.25,100,110.0
4356,B1,309.75,0.25,100,110.0
4357,B1,309.75,0.25,100,110.0
4358,F#2,310.0,0.5,100,110.0
4359,C2,310.0,0.25,100,110.0
4360,E3,310.0,0.5,100,110.0
4361,E3,310.0,0.5,100,110.0
4362,E2,310.0,0.25,100,110.0
4363,E2,310.0,0.25,100,110.0
4364,A1,310.5,521/500,127,110.0
4365,A1,310.5,521/500,127,110.0
4366,A3,310.5,0.5,100,110.0
4367,B-2,310.5,0.5,100,110.0
4368,D2,310.5,0.5,100,110.0
4369,A3,310.5,1.0,100,110.0
4370,E3,310.5,1.0,100,110.0
4371,A2,310.5,1.0,100,110.0
4372,A3,310.5,1.0,100,110.0
4373,E3,310.5,1.0,100,110.0
4374,A2,310.5,1.0,100,110.0
4375,D2,311.5,0.5,100,110.0
4376,F#2,311.5,0.5,100,110.0
4377,A3,312.0,0.5,100,110.0
4378,E2,312.0,0.25,100,110.0
4379,E2,312.0,0.25,100,110.0
4380,E1,312.0,0.25,100,110.0
4381,E1,312.0,0.25,100,110.0
4382,B-2,312.0,1.0,100,110.0
4383,C2,312.0,1.0,100,110.0
4384,G2,312.25,0.25,100,110.0
4385,G2,312.25,0.25,100,110.0
4386,G1,312.25,0.25,100,110.0
4387,G1,312.25,0.25,100,110.0
4388,F#2,312.5,0.5,100,110.0
4389,G#2,312.5,0.25,100,110.0
4390,G#2,312.5,0.25,100,110.0
4391,G#1,312.5,0.25,100,110.0
4392,G#1,312.5,0.25,100,110.0
4393,E3,312.75,0.25,100,110.0
4394,E3,312.75,0.25,100,110.0
4395,E2,312.75,0.25,100,110.0
4396,E2,312.75,0.25,100,110.0
4397,F#2,313.0,0.5,100,110.0
4398,D2,313.0,1.0,100,110.0
4399,A2,313.25,0.25,100,110.0
4400,A2,313.25,0.25,100,110.0
4401,A1,313.25,0.25,100,110.0
4402,A1,313.25,0.25,100,110.0
4403,F#2,313.5,0.5,100,110.0
4404,B-2,313.5,0.25,100,110.0
4405,B-2,313.5,0.25,100,110.0
4406,B-1,313.5,0.25,100,110.0
4407,B-1,313.5,0.25,100,110.0
4408,C2,313.75,0.25,100,110.0
4409,B2,313.75,0.25,100,110.0
4410,B2,313.75,0.25,100,110.0
4411,B1,313.75,0.25,100,110.0
4412,B1,313.75,0.25,100,110.0
4413,F#2,314.0,0.5,100,110.0
4414,C2,314.0,0.25,100,110.0
4415,E3,314.0,0.5,100,110.0
4416,E3,314.0,0.5,100,110.0
4417,E2,314.0,0.25,100,110.0
4418,E2,314.0,0.25,100,110.0
4419,E2,314.5,0.5,100,110.0
4420,E2,314.5,0.5,100,110.0
4421,E1,314.5,0.5,100,110.0
4422,E1,314.5,0.5,100,110.0
4423,F#2,314.5,0.5,100,110.0
4424,C2,314.5,0.5,100,110.0
4425,E3,315.0,0.5,100,110.0
4426,F#2,315.0,0.5,100,110.0
4427,D2,315.0,0.5,100,110.0
4428,F#2,315.5,0.5,100,110.0
4429,E2,316.0,0.25,100,110.0
4430,E2,316.0,0.25,100,110.0
4431,E1,316.0,0.25,100,110.0
4432,E1,316.0,0.25,100,110.0
4433,B-2,316.0,1.0,100,110.0
4434,C2,316.0,1.0,100,110.0
4435,G2,316.25,0.25,100,110.0
4436,G2,316.25,0.25,100,110.0
4437,G1,316.25,0.25,100,110.0
4438,G1,316.25,0.25,100,110.0
4439,F#2,316.5,0.5,100,110.0
4440,G#2,316.5,0.25,100,110.0
4441,G#2,316.5,0.25,100,110.0
4442,G#1,316.5,0.25,100,110.0
4443,G#1,316.5,0.25,100,110.0
4444,E3,316.75,0.25,100,110.0
4445,E3,316.75,0.25,100,110.0
4446,E2,316.75,0.25,100,110.0
4447,E2,316.75,0.25,100,110.0
4448,F#2,317.0,0.5,100,110.0
4449,D2,317.0,1.0,100,110.0
4450,A2,317.25,0.25,100,110.0
4451,A2,317.25,0.25,100,110.0
4452,A1,317.25,0.25,100,110.0
4453,A1,317.25,0.25,100,110.0
4454,F#2,317.5,0.5,100,110.0
4455,B-2,317.5,0.25,100,110.0
4456,B-2,317.5,0.25,100,110.0
4457,B-1,317.5,0.25,100,110.0
4458,B-1,317.5,0.25,100,110.0
4459,C2,317.75,0.25,100,110.0
4460,B2,317.75,0.25,100,110.0
4461,B2,317.75,0.25,100,110.0
4462,B1,317.75,0.25,100,110.0
4463,B1,317.75,0.25,100,110.0
4464,F#2,318.0,0.5,100,110.0
4465,C2,318.0,0.25,100,110.0
4466,E3,318.0,0.5,100,110.0
4467,E3,318.0,0.5,100,110.0
4468,E2,318.0,0.25,100,110.0
4469,E2,318.0,0.25,100,110.0
4470,A1,318.5,521/500,127,110.0
4471,A1,318.5,521/500,127,110.0
4472,F#2,318.5,0.5,100,110.0
4473,C2,318.5,0.5,100,110.0
4474,A3,318.5,1.0,100,110.0
4475,E3,318.5,1.0,100,110.0
4476,A2,318.5,1.0,100,110.0
4477,A3,318.5,1.0,100,110.0
4478,E3,318.5,1.0,100,110.0
4479,A2,318.5,1.0,100,110.0
4480,F#2,319.0,0.5,100,110.0
4481,D2,319.0,0.5,100,110.0
4482,F#2,319.5,0.5,100,110.0
4483,E2,320.0,0.25,100,110.0
4484,E2,320.0,0.25,100,110.0
4485,E1,320.0,0.25,100,110.0
4486,E1,320.0,0.25,100,110.0
4487,B-2,320.0,1.0,100,110.0
4488,C2,320.0,1.0,100,110.0
4489,G2,320.25,0.25,100,110.0
4490,G2,320.25,0.25,100,110.0
4491,G1,320.25,0.25,100,110.0
4492,G1,320.25,0.25,100,110.0
4493,F#2,320.5,0.5,100,110.0
4494,G#2,320.5,0.25,100,110.0
4495,G#2,320.5,0.25,100,110.0
4496,G#1,320.5,0.25,100,110.0
4497,G#1,320.5,0.25,100,110.0
4498,E3,320.75,0.25,100,110.0
4499,E3,320.75,0.25,100,110.0
4500,E2,320.75,0.25,100,110.0
4501,E2,320.75,0.25,100,110.0
4502,F#2,321.0,0.5,100,110.0
4503,D2,321.0,1.0,100,110.0
4504,A2,321.25,0.25,100,110.0
4505,A2,321.25,0.25,100,110.0
4506,A1,321.25,0.25,100,110.0
4507,A1,321.25,0.25,100,110.0
4508,F#2,321.5,0.5,100,110.0
4509,B-2,321.5,0.25,100,110.0
4510,B-2,321.5,0.25,100,110.0
4511,B-1,321.5,0.25,100,110.0
4512,B-1,321.5,0.25,100,110.0
4513,C2,321.75,0.25,100,110.0
4514,B2,321.75,0.25,100,110.0
4515,B2,321.75,0.25,100,110.0
4516,B1,321.75,0.25,100,110.0
4517,B1,321.75,0.25,100,110.0
4518,F#2,322.0,0.5,100,110.0
4519,C2,322.0,0.25,100,110.0
4520,E3,322.0,0.5,100,110.0
4521,E3,322.0,0.5,100,110.0
4522,E2,322.0,0.25,100,110.0
4523,E2,322.0,0.25,100,110.0
4524,E2,322.5,0.5,100,110.0
4525,E2,322.5,0.5,100,110.0
4526,E1,322.5,0.5,100,110.0
4527,E1,322.5,0.5,100,110.0
4528,F#2,322.5,0.5,100,110.0
4529,C2,322.5,0.5,100,110.0
4530,E3,323.0,0.5,100,110.0
4531,F#2,323.0,0.5,100,110.0
4532,D2,323.0,0.5,100,110.0
4533,F#2,323.5,0.5,100,110.0
4534,E2,324.0,0.25,100,110.0
4535,E2,324.0,0.25,100,110.0
4536,E1,324.0,0.25,100,110.0
4537,E1,324.0,0.25,100,110.0
4538,B-2,324.0,1.0,100,110.0
4539,C2,324.0,1.0,100,110.0
4540,G2,324.25,0.25,100,110.0
4541,G2,324.25,0.25,100,110.0
4542,G1,324.25,0.25,100,110.0
4543,G1,324.25,0.25,100,110.0
4544,F#2,324.5,0.5,100,110.0
4545,G#2,324.5,0.25,100,110.0
4546,G#2,324.5,0.25,100,110.0
4547,G#1,324.5,0.25,100,110.0
4548,G#1,324.5,0.25,100,110.0
4549,E3,324.75,0.25,100,110.0
4550,E3,324.75,0.25,100,110.0
4551,E2,324.75,0.25,100,110.0
4552,E2,324.75,0.25,100,110.0
4553,F#2,325.0,0.5,100,110.0
4554,D2,325.0,1.0,100,110.0
4555,A2,325.25,0.25,100,110.0
4556,A2,325.25,0.25,100,110.0
4557,A1,325.25,0.25,100,110.0
4558,A1,325.25,0.25,100,110.0
4559,F#2,325.5,0.5,100,110.0
4560,B-2,325.5,0.25,100,110.0
4561,B-2,325.5,0.25,100,110.0
4562,B-1,325.5,0.25,100,110.0
4563,B-1,325.5,0.25,100,110.0
4564,C2,325.75,0.25,100,110.0
4565,B2,325.75,0.25,100,110.0
4566,B2,325.75,0.25,100,110.0
4567,B1,325.75,0.25,100,110.0
4568,B1,325.75,0.25,100,110.0
4569,F#2,326.0,0.5,100,110.0
4570,C2,326.0,0.25,100,110.0
4571,E3,326.0,0.5,100,110.0
4572,E3,326.0,0.5,100,110.0
4573,E2,326.0,0.25,100,110.0
4574,E2,326.0,0.25,100,110.0
4575,A1,326.5,521/500,127,110.0
4576,A1,326.5,521/500,127,110.0
4577,A3,326.5,0.5,100,110.0
4578,B-2,326.5,0.5,100,110.0
4579,D2,326.5,0.5,100,110.0
4580,A3,326.5,1.0,100,110.0
4581,E3,326.5,1.0,100,110.0
4582,A2,326.5,1.0,100,110.0
4583,A3,326.5,1.0,100,110.0
4584,E3,326.5,1.0,100,110.0
4585,A2,326.5,1.0,100,110.0
4586,D2,327.5,0.5,100,110.0
4587,F#2,327.5,0.5,100,110.0
4588,A3,328.0,0.5,100,110.0
4589,E2,328.0,0.25,100,110.0
4590,E2,328.0,0.25,100,110.0
4591,E1,328.0,0.25,100,110.0
4592,E1,328.0,0.25,100,110.0
4593,B-2,328.0,1.0,100,110.0
4594,C2,328.0,1.0,100,110.0
4595,G2,328.25,0.25,100,110.0
4596,G2,328.25,0.25,100,110.0
4597,G1,328.25,0.25,100,110.0
4598,G1,328.25,0.25,100,110.0
4599,F#2,328.5,0.5,100,110.0
4600,G#2,328.5,0.25,100,110.0
4601,G#2,328.5,0.25,100,110.0
4602,G#1,328.5,0.25,100,110.0
4603,G#1,328.5,0.25,100,110.0
4604,E3,328.75,0.25,100,110.0
4605,E3,328.75,0.25,100,110.0
4606,E2,328.75,0.25,100,110.0
4607,E2,328.75,0.25,100,110.0
4608,F#2,329.0,0.5,100,110.0
4609,D2,329.0,1.0,100,110.0
4610,A2,329.25,0.25,100,110.0
4611,A2,329.25,0.25,100,110.0
4612,A1,329.25,0.25,100,110.0
4613,A1,329.25,0.25,100,110.0
4614,F#2,329.5,0.5,100,110.0
4615,B-2,329.5,0.25,100,110.0
4616,B-2,329.5,0.25,100,110.0
4617,B-1,329.5,0.25,100,110.0
4618,B-1,329.5,0.25,100,110.0
4619,C2,329.75,0.25,100,110.0
4620,B2,329.75,0.25,100,110.0
4621,B2,329.75,0.25,100,110.0
4622,B1,329.75,0.25,100,110.0
4623,B1,329.75,0.25,100,110.0
4624,F#2,330.0,0.5,100,110.0
4625,C2,330.0,0.25,100,110.0
4626,E3,330.0,0.5,100,110.0
4627,E3,330.0,0.5,100,110.0
4628,E2,330.0,0.25,100,110.0
4629,E2,330.0,0.25,100,110.0
4630,E2,330.5,0.5,100,110.0
4631,E2,330.5,0.5,100,110.0
4632,E1,330.5,0.5,100,110.0
4633,E1,330.5,0.5,100,110.0
4634,F#2,330.5,0.5,100,110.0
4635,C2,330.5,0.5,100,110.0
4636,E3,331.0,0.5,100,110.0
4637,F#2,331.0,0.5,100,110.0
4638,D2,331.0,0.5,100,110.0
4639,F#2,331.5,0.5,100,110.0
4640,E2,332.0,0.25,100,110.0
4641,E2,332.0,0.25,100,110.0
4642,E1,332.0,0.25,100,110.0
4643,E1,332.0,0.25,100,110.0
4644,B-2,332.0,1.0,100,110.0
4645,C2,332.0,1.0,100,110.0
4646,G2,332.25,0.25,100,110.0
4647,G2,332.25,0.25,100,110.0
4648,G1,332.25,0.25,100,110.0
4649,G1,332.25,0.25,100,110.0
4650,F#2,332.5,0.5,100,110.0
4651,G#2,332.5,0.25,100,110.0
4652,G#2,332.5,0.25,100,110.0
4653,G#1,332.5,0.25,100,110.0
4654,G#1,332.5,0.25,100,110.0
4655,E3,332.75,0.25,100,110.0
4656,E3,332.75,0.25,100,110.0
4657,E2,332.75,0.25,100,110.0
4658,E2,332.75,0.25,100,110.0
4659,F#2,333.0,0.5,100,110.0
4660,D2,333.0,1.0,100,110.0
4661,A2,333.25,0.25,100,110.0
4662,A2,333.25,0.25,100,110.0
4663,A1,333.25,0.25,100,110.0
4664,A1,333.25,0.25,100,110.0
4665,F#2,333.5,0.5,100,110.0
4666,B-2,333.5,0.25,100,110.0
4667,B-2,333.5,0.25,100,110.0
4668,B-1,333.5,0.25,100,110.0
4669,B-1,333.5,0.25,100,110.0
4670,C2,333.75,0.25,100,110.0
4671,B2,333.75,0.25,100,110.0
4672,B2,333.75,0.25,100,110.0
4673,B1,333.75,0.25,100,110.0
4674,B1,333.75,0.25,100,110.0
4675,F#2,334.0,0.5,100,110.0
4676,C2,334.0,0.25,100,110.0
4677,E3,334.0,0.5,100,110.0
4678,E3,334.0,0.5,100,110.0
4679,E2,334.0,0.25,100,110.0
4680,E2,334.0,0.25,100,110.0
4681,A1,334.5,521/500,127,110.0
4682,A1,334.5,521/500,127,110.0
4683,F#2,334.5,0.5,100,110.0
4684,C2,334.5,0.5,100,110.0
4685,A3,334.5,1.0,100,110.0
4686,E3,334.5,1.0,100,110.0
4687,A2,334.5,1.0,100,110.0
4688,A3,334.5,1.0,100,110.0
4689,E3,334.5,1.0,100,110.0
4690,A2,334.5,1.0,100,110.0
4691,F#2,335.0,0.5,100,110.0
4692,D2,335.0,0.5,100,110.0
4693,F#2,335.5,0.5,100,110.0
4694,E2,336.0,0.25,100,110.0
4695,E2,336.0,0.25,100,110.0
4696,E1,336.0,0.25,100,110.0
4697,E1,336.0,0.25,100,110.0
4698,B-2,336.0,1.0,100,110.0
4699,C2,336.0,1.0,100,110.0
4700,G2,336.25,0.25,100,110.0
4701,G2,336.25,0.25,100,110.0
4702,G1,336.25,0.25,100,110.0
4703,G1,336.25,0.25,100,110.0
4704,F#2,336.5,0.5,100,110.0
4705,G#2,336.5,0.25,100,110.0
4706,G#2,336.5,0.25,100,110.0
4707,G#1,336.5,0.25,100,110.0
4708,G#1,336.5,0.25,100,110.0
4709,E3,336.75,0.25,100,110.0
4710,E3,336.75,0.25,100,110.0
4711,E2,336.75,0.25,100,110.0
4712,E2,336.75,0.25,100,110.0
4713,F#2,337.0,0.5,100,110.0
4714,D2,337.0,1.0,100,110.0
4715,A2,337.25,0.25,100,110.0
4716,A2,337.25,0.25,100,110.0
4717,A1,337.25,0.25,100,110.0
4718,A1,337.25,0.25,100,110.0
4719,F#2,337.5,0.5,100,110.0
4720,B-2,337.5,0.25,100,110.0
4721,B-2,337.5,0.25,100,110.0
4722,B-1,337.5,0.25,100,110.0
4723,B-1,337.5,0.25,100,110.0
4724,C2,337.75,0.25,100,110.0
4725,B2,337.75,0.25,100,110.0
4726,B2,337.75,0.25,100,110.0
4727,B1,337.75,0.25,100,110.0
4728,B1,337.75,0.25,100,110.0
4729,F#2,338.0,0.5,100,110.0
4730,C2,338.0,0.25,100,110.0
4731,E3,338.0,0.5,100,110.0
4732,E3,338.0,0.5,100,110.0
4733,E2,338.0,0.25,100,110.0
4734,E2,338.0,0.25,100,110.0
4735,E2,338.5,0.5,100,110.0
4736,E2,338.5,0.5,100,110.0
4737,E1,338.5,0.5,100,110.0
4738,E1,338.5,0.5,100,110.0
4739,F#2,338.5,0.5,100,110.0
4740,C2,338.5,0.5,100,110.0
4741,E3,339.0,0.5,100,110.0
4742,F#2,339.0,0.5,100,110.0
4743,D2,339.0,0.5,100,110.0
4744,F#2,339.5,0.5,100,110.0
4745,E2,340.0,0.25,100,110.0
4746,E2,340.0,0.25,100,110.0
4747,E1,340.0,0.25,100,110.0
4748,E1,340.0,0.25,100,110.0
4749,B-2,340.0,1.0,100,110.0
4750,C2,340.0,1.0,100,110.0
4751,G2,340.25,0.25,100,110.0
4752,G2,340.25,0.25,100,110.0
4753,G1,340.25,0.25,100,110.0
4754,G1,340.25,0.25,100,110.0
4755,F#2,340.5,0.5,100,110.0
4756,G#2,340.5,0.25,100,110.0
4757,G#2,340.5,0.25,100,110.0
4758,G#1,340.5,0.25,100,110.0
4759,G#1,340.5,0.25,100,110.0
4760,E3,340.75,0.25,100,110.0
4761,E3,340.75,0.25,100,110.0
4762,E2,340.75,0.25,100,110.0
4763,E2,340.75,0.25,100,110.0
4764,F#2,341.0,0.5,100,110.0
4765,D2,341.0,1.0,100,110.0
4766,A2,341.25,0.25,100,110.0
4767,A2,341.25,0.25,100,110.0
4768,A1,341.25,0.25,100,110.0
4769,A1,341.25,0.25,100,110.0
4770,F#2,341.5,0.5,100,110.0
4771,B-2,341.5,0.25,100,110.0
4772,B-2,341.5,0.25,100,110.0
4773,B-1,341.5,0.25,100,110.0
4774,B-1,341.5,0.25,100,110.0
4775,C2,341.75,0.25,100,110.0
4776,B2,341.75,0.25,100,110.0
4777,B2,341.75,0.25,100,110.0
4778,B1,341.75,0.25,100,110.0
4779,B1,341.75,0.25,100,110.0
4780,F#2,342.0,0.5,100,110.0
4781,C2,342.0,0.25,100,110.0
4782,E3,342.0,0.5,100,110.0
4783,E3,342.0,0.5,100,110.0
4784,E2,342.0,0.25,100,110.0
4785,E2,342.0,0.25,100,110.0
4786,A1,342.5,521/500,127,110.0
4787,A1,342.5,521/500,127,110.0
4788,A3,342.5,0.5,100,110.0
4789,B-2,342.5,0.5,100,110.0
4790,D2,342.5,0.5,100,110.0
4791,A3,342.5,1.0,100,110.0
4792,E3,342.5,1.0,100,110.0
4793,A2,342.5,1.0,100,110.0
4794,A3,342.5,1.0,100,110.0
4795,E3,342.5,1.0,100,110.0
4796,A2,342.5,1.0,100,110.0
4797,D2,343.5,0.5,100,110.0
4798,F#2,343.5,0.5,100,110.0
4799,A3,344.0,0.5,100,110.0
4800,E2,344.0,0.25,100,110.0
4801,E2,344.0,0.25,100,110.0
4802,E1,344.0,0.25,100,110.0
4803,E1,344.0,0.25,100,110.0
4804,B-2,344.0,1.0,100,110.0
4805,C2,344.0,1.0,100,110.0
4806,G2,344.25,0.25,100,110.0
4807,G2,344.25,0.25,100,110.0
4808,G1,344.25,0.25,100,110.0
4809,G1,344.25,0.25,100,110.0
4810,F#2,344.5,0.5,100,110.0
4811,G#2,344.5,0.25,100,110.0
4812,G#2,344.5,0.25,100,110.0
4813,G#1,344.5,0.25,100,110.0
4814,G#1,344.5,0.25,100,110.0
4815,E3,344.75,0.25,100,110.0
4816,E3,344.75,0.25,100,110.0
4817,E2,344.75,0.25,100,110.0
4818,E2,344.75,0.25,100,110.0
4819,F#2,345.0,0.5,100,110.0
4820,D2,345.0,1.0,100,110.0
4821,A2,345.25,0.25,100,110.0
4822,A2,345.25,0.25,100,110.0
4823,A1,345.25,0.25,100,110.0
4824,A1,345.25,0.25,100,110.0
4825,F#2,345.5,0.5,100,110.0
4826,B-2,345.5,0.25,100,110.0
4827,B-2,345.5,0.25,100,110.0
4828,B-1,345.5,0.25,100,110.0
4829,B-1,345.5,0.25,100,110.0
4830,C2,345.75,0.25,100,110.0
4831,B2,345.75,0.25,100,110.0
4832,B2,345.75,0.25,100,110.0
4833,B1,345.75,0.25,100,110.0
4834,B1,345.75,0.25,100,110.0
4835,F#2,346.0,0.5,100,110.0
4836,C2,346.0,0.25,100,110.0
4837,E3,346.0,0.5,100,110.0
4838,E3,346.0,0.5,100,110.0
4839,E2,346.0,0.25,100,110.0
4840,E2,346.0,0.25,100,110.0
4841,E2,346.5,0.5,100,110.0
4842,E2,346.5,0.5,100,110.0
4843,E1,346.5,0.5,100,110.0
4844,E1,346.5,0.5,100,110.0
4845,F#2,346.5,0.5,100,110.0
4846,C2,346.5,0.5,100,110.0
4847,E3,347.0,0.5,100,110.0
4848,F#2,347.0,0.5,100,110.0
4849,D2,347.0,0.5,100,110.0
4850,F#2,347.5,0.5,100,110.0
4851,E2,348.0,0.25,100,110.0
4852,E2,348.0,0.25,100,110.0
4853,E1,348.0,0.25,100,110.0
4854,E1,348.0,0.25,100,110.0
4855,B-2,348.0,1.0,100,110.0
4856,C2,348.0,1.0,100,110.0
4857,G2,348.25,0.25,100,110.0
4858,G2,348.25,0.25,100,110.0
4859,G1,348.25,0.25,100,110.0
4860,G1,348.25,0.25,100,110.0
4861,F#2,348.5,0.5,100,110.0
4862,G#2,348.5,0.25,100,110.0
4863,G#2,348.5,0.25,100,110.0
4864,G#1,348.5,0.25,100,110.0
4865,G#1,348.5,0.25,100,110.0
4866,E3,348.75,0.25,100,110.0
4867,E3,348.75,0.25,100,110.0
4868,E2,348.75,0.25,100,110.0
4869,E2,348.75,0.25,100,110.0
4870,F#2,349.0,0.5,100,110.0
4871,D2,349.0,1.0,100,110.0
4872,A2,349.25,0.25,100,110.0
4873,A2,349.25,0.25,100,110.0
4874,A1,349.25,0.25,100,110.0
4875,A1,349.25,0.25,100,110.0
4876,F#2,349.5,0.5,100,110.0
4877,B-2,349.5,0.25,100,110.0
4878,B-2,349.5,0.25,100,110.0
4879,B-1,349.5,0.25,100,110.0
4880,B-1,349.5,0.25,100,110.0
4881,C2,349.75,0.25,100,110.0
4882,B2,349.75,0.25,100,110.0
4883,B2,349.75,0.25,100,110.0
4884,B1,349.75,0.25,100,110.0
4885,B1,349.75,0.25,100,110.0
4886,F#2,350.0,0.5,100,110.0
4887,C2,350.0,0.25,100,110.0
4888,E3,350.0,0.5,100,110.0
4889,E3,350.0,0.5,100,110.0
4890,E2,350.0,0.25,100,110.0
4891,E2,350.0,0.25,100,110.0
4892,A1,350.5,521/500,127,110.0
4893,A1,350.5,521/500,127,110.0
4894,F#2,350.5,0.5,100,110.0
4895,C2,350.5,0.5,100,110.0
4896,A3,350.5,1.0,100,110.0
4897,E3,350.5,1.0,100,110.0
4898,A2,350.5,1.0,100,110.0
4899,A3,350.5,1.0,100,110.0
4900,E3,350.5,1.0,100,110.0
4901,A2,350.5,1.0,100,110.0
4902,F#2,351.0,0.5,100,110.0
4903,D2,351.0,0.5,100,110.0
4904,F#2,351.5,0.5,100,110.0
4905,E2,352.0,0.25,100,110.0
4906,E2,352.0,0.25,100,110.0
4907,E1,352.0,0.25,100,110.0
4908,E1,352.0,0.25,100,110.0
4909,B-2,352.0,1.0,100,110.0
4910,C2,352.0,1.0,100,110.0
4911,G2,352.25,0.25,100,110.0
4912,G2,352.25,0.25,100,110.0
4913,G1,352.25,0.25,100,110.0
4914,G1,352.25,0.25,100,110.0
4915,F#2,352.5,0.5,100,110.0
4916,G#2,352.5,0.25,100,110.0
4917,G#2,352.5,0.25,100,110.0
4918,G#1,352.5,0.25,100,110.0
4919,G#1,352.5,0.25,100,110.0
4920,E3,352.75,0.25,100,110.0
4921,E3,352.75,0.25,100,110.0
4922,E2,352.75,0.25,100,110.0
4923,E2,352.75,0.25,100,110.0
4924,F#2,353.0,0.5,100,110.0
4925,D2,353.0,1.0,100,110.0
4926,A2,353.25,0.25,100,110.0
4927,A2,353.25,0.25,100,110.0
4928,A1,353.25,0.25,100,110.0
4929,A1,353.25,0.25,100,110.0
4930,F#2,353.5,0.5,100,110.0
4931,B-2,353.5,0.25,100,110.0
4932,B-2,353.5,0.25,100,110.0
4933,B-1,353.5,0.25,100,110.0
4934,B-1,353.5,0.25,100,110.0
4935,C2,353.75,0.25,100,110.0
4936,B2,353.75,0.25,100,110.0
4937,B2,353.75,0.25,100,110.0
4938,B1,353.75,0.25,100,110.0
4939,B1,353.75,0.25,100,110.0
4940,F#2,354.0,0.5,100,110.0
4941,C2,354.0,0.25,100,110.0
4942,E3,354.0,0.5,100,110.0
4943,E3,354.0,0.5,100,110.0
4944,E2,354.0,0.25,100,110.0
4945,E2,354.0,0.25,100,110.0
4946,E2,354.5,0.5,100,110.0
4947,E2,354.5,0.5,100,110.0
4948,E1,354.5,0.5,100,110.0
4949,E1,354.5,0.5,100,110.0
4950,F#2,354.5,0.5,100,110.0
4951,C2,354.5,0.5,100,110.0
4952,E3,355.0,0.5,100,110.0
4953,F#2,355.0,0.5,100,110.0
4954,D2,355.0,0.5,100,110.0
4955,F#2,355.5,0.5,100,110.0
4956,E2,356.0,0.25,100,110.0
4957,E2,356.0,0.25,100,110.0
4958,E1,356.0,0.25,100,110.0
4959,E1,356.0,0.25,100,110.0
4960,B-2,356.0,1.0,100,110.0
4961,C2,356.0,1.0,100,110.0
4962,G2,356.25,0.25,100,110.0
4963,G2,356.25,0.25,100,110.0
4964,G1,356.25,0.25,100,110.0
4965,G1,356.25,0.25,100,110.0
4966,F#2,356.5,0.5,100,110.0
4967,G#2,356.5,0.25,100,110.0
4968,G#2,356.5,0.25,100,110.0
4969,G#1,356.5,0.25,100,110.0
4970,G#1,356.5,0.25,100,110.0
4971,E3,356.75,0.25,100,110.0
4972,E3,356.75,0.25,100,110.0
4973,E2,356.75,0.25,100,110.0
4974,E2,356.75,0.25,100,110.0
4975,F#2,357.0,0.5,100,110.0
4976,D2,357.0,1.0,100,110.0
4977,A2,357.25,0.25,100,110.0
4978,A2,357.25,0.25,100,110.0
4979,A1,357.25,0.25,100,110.0
4980,A1,357.25,0.25,100,110.0
4981,F#2,357.5,0.5,100,110.0
4982,B-2,357.5,0.25,100,110.0
4983,B-2,357.5,0.25,100,110.0
4984,B-1,357.5,0.25,100,110.0
4985,B-1,357.5,0.25,100,110.0
4986,C2,357.75,0.25,100,110.0
4987,B2,357.75,0.25,100,110.0
4988,B2,357.75,0.25,100,110.0
4989,B1,357.75,0.25,100,110.0
4990,B1,357.75,0.25,100,110.0
4991,F#2,358.0,0.5,100,110.0
4992,C2,358.0,0.25,100,110.0
4993,E3,358.0,0.5,100,110.0
4994,E3,358.0,0.5,100,110.0
4995,E2,358.0,0.25,100,110.0
4996,E2,358.0,0.25,100,110.0
4997,A1,358.5,521/500,127,110.0
4998,A1,358.5,521/500,127,110.0
4999,A3,358.5,0.5,100,110.0
5000,B-2,358.5,0.5,100,110.0
5001,D2,358.5,0.5,100,110.0
5002,A3,358.5,1.0,100,110.0
5003,E3,358.5,1.0,100,110.0
5004,A2,358.5,1.0,100,110.0
5005,A3,358.5,1.0,100,110.0
5006,E3,358.5,1.0,100,110.0
5007,A2,358.5,1.0,100,110.0
5008,D2,359.5,0.5,100,110.0
5009,F#2,359.5,0.5,100,110.0
