,note_name,start_time,duration,velocity,tempo
0,F#2,4.0,0.031,127,115.0
1,F#2,5.0,0.031,127,115.0
2,F#2,6.0,0.031,127,115.0
3,A2,6.5,0.25,108,115.0
4,A3,6.5,0.25,108,115.0
5,C3,6.75,0.25,108,115.0
6,C4,6.75,0.25,108,115.0
7,E2,7.0,0.031,127,115.0
8,D4,7.0,0.234,108,115.0
9,D3,7.0,0.234,108,115.0
10,F4,7.25,0.266,108,115.0
11,F3,7.25,0.266,108,115.0
12,D3,7.5,0.25,108,115.0
13,D4,7.5,0.25,108,115.0
14,C4,7.75,0.234,108,115.0
15,C3,7.75,0.234,108,115.0
16,D4,8.0,4.0,110,115.0
17,D3,8.0,0.5,107,115.0
18,F5,8.0,181/125,90,115.0
19,D5,8.0,181/125,90,115.0
20,A4,8.0,181/125,90,115.0
21,D3,8.5,0.5,107,115.0
22,C3,9.0,0.5,107,115.0
23,B-2,9.5,241/250,107,115.0
24,F3,9.5,2.062,107,115.0
25,B-4,9.5,1.969,90,115.0
26,F4,9.5,1.969,90,115.0
27,D5,9.5,1.969,90,115.0
28,A2,10.5,49/100,106,115.0
29,G2,11.0,479/1000,106,115.0
30,C3,11.5,0.5,106,115.0
31,E5,11.5,0.5,90,115.0
32,C5,11.5,0.5,95,115.0
33,G3,11.5,0.5,95,115.0
34,G4,11.5,0.5,95,115.0
35,C3,12.0,0.375,106,115.0
36,D4,12.0,2.484,110,115.0
37,E5,12.0,1.516,90,115.0
38,C5,12.0,181/125,95,115.0
39,G3,12.0,181/125,95,115.0
40,G4,12.0,181/125,95,115.0
41,A2,12.5,0.484,106,115.0
42,C3,13.0,0.484,106,115.0
43,D5,13.5,306/125,90,115.0
44,A4,13.5,306/125,90,115.0
45,F5,13.5,306/125,90,115.0
46,A3,13.5,1021/1000,106,115.0
47,D3,13.5,1021/1000,106,115.0
48,A2,14.5,0.25,108,115.0
49,A3,14.5,0.25,108,115.0
50,C3,14.75,0.25,108,115.0
51,C4,14.75,0.25,108,115.0
52,D3,15.0,0.25,108,115.0
53,D4,15.0,0.25,108,115.0
54,F3,15.25,0.25,108,115.0
55,F4,15.25,0.25,108,115.0
56,D3,15.5,0.25,108,115.0
57,D4,15.5,0.25,108,115.0
58,C3,15.75,0.25,108,115.0
59,C4,15.75,0.25,108,115.0
60,D3,16.0,0.5,107,115.0
61,D4,16.0,4.0,108,115.0
62,D5,16.0,181/125,90,115.0
63,A4,16.0,181/125,90,115.0
64,F5,16.0,181/125,90,115.0
65,D3,16.5,0.5,107,115.0
66,C3,17.0,0.5,107,115.0
67,F3,17.5,2.062,107,115.0
68,B-2,17.5,241/250,107,115.0
69,B-4,17.5,487/250,90,115.0
70,D5,17.5,487/250,90,115.0
71,F4,17.5,487/250,90,115.0
72,A2,18.5,49/100,106,115.0
73,G2,19.0,479/1000,106,115.0
74,E5,19.5,0.5,90,115.0
75,C3,19.5,0.5,106,115.0
76,G4,19.5,0.5,95,115.0
77,G3,19.5,0.5,95,115.0
78,C5,19.5,0.5,95,115.0
79,D4,20.0,2.484,108,115.0
80,E5,20.0,1.516,90,115.0
81,C3,20.0,0.375,106,115.0
82,G4,20.0,181/125,95,115.0
83,G3,20.0,181/125,95,115.0
84,C5,20.0,181/125,95,115.0
85,A2,20.5,0.484,106,115.0
86,C3,21.0,0.484,106,115.0
87,D3,21.5,1.031,106,115.0
88,A3,21.5,1.031,106,115.0
89,A4,21.5,306/125,90,115.0
90,D5,21.5,306/125,90,115.0
91,F5,21.5,306/125,90,115.0
92,C3,22.5,0.031,109,115.0
93,A1,22.5,51/200,106,115.0
94,A3,22.5,51/200,106,115.0
95,A2,22.5,51/200,106,115.0
96,A4,22.5,51/200,106,115.0
97,C3,22.75,0.031,109,115.0
98,C3,22.75,0.25,106,115.0
99,C5,22.75,0.25,106,115.0
100,C2,22.75,0.25,106,115.0
101,C4,22.75,0.25,106,115.0
102,A2,23.0,0.031,127,115.0
103,D5,23.0,0.25,106,115.0
104,D2,23.0,0.25,106,115.0
105,D3,23.0,0.25,106,115.0
106,D4,23.0,0.25,106,115.0
107,F2,23.25,0.297,106,115.0
108,F4,23.25,0.297,106,115.0
109,F3,23.25,0.297,106,115.0
110,F5,23.25,0.297,106,115.0
111,A2,23.5,0.031,127,115.0
112,D5,23.5,0.234,106,115.0
113,D3,23.5,0.234,106,115.0
114,D4,23.5,0.234,106,115.0
115,D2,23.5,0.234,106,115.0
116,A2,23.75,0.031,109,115.0
117,C5,23.75,0.234,106,115.0
118,C4,23.75,0.234,106,115.0
119,C3,23.75,0.234,106,115.0
120,C2,23.75,0.234,106,115.0
121,D2,24.0,659/500,119,115.0
122,D4,24.0,4.0,110,115.0
123,D3,24.0,0.5,107,115.0
124,D5,24.0,181/125,90,115.0
125,D5,24.0,181/125,90,115.0
126,A4,24.0,181/125,90,115.0
127,F5,24.0,181/125,90,115.0
128,C#3,24.0,0.031,120,115.0
129,B1,24.0,0.031,120,115.0
130,F#3,24.0,0.031,120,115.0
131,F#3,24.25,0.031,64,115.0
132,D3,24.5,0.5,107,115.0
133,F#3,24.5,0.031,57,115.0
134,F#3,24.75,0.031,65,115.0
135,C3,25.0,0.5,107,115.0
136,F#3,25.0,0.031,123,115.0
137,E-3,25.0,0.031,123,115.0
138,E2,25.0,0.031,123,115.0
139,F#3,25.25,0.031,71,115.0
140,C2,25.5,99/500,127,115.0
141,F3,25.5,2.062,107,115.0
142,B-2,25.5,0.984,98,115.0
143,F5,25.5,0.984,98,115.0
144,B-4,25.5,487/250,90,115.0
145,D5,25.5,487/250,90,115.0
146,F4,25.5,487/250,90,115.0
147,E-3,25.5,0.031,78,115.0
148,F#3,25.5,0.031,78,115.0
149,E2,25.75,0.031,78,115.0
150,F#3,25.75,0.031,78,115.0
151,B-1,26.0,659/500,127,115.0
152,F#3,26.0,0.031,120,115.0
153,B1,26.0,0.031,120,115.0
154,E-3,26.0,0.031,120,115.0
155,F#3,26.25,0.031,74,115.0
156,F5,26.5,0.984,90,115.0
157,A2,26.5,49/100,106,115.0
158,F#3,26.5,0.031,100,115.0
159,E-3,26.5,0.031,100,115.0
160,B1,26.5,0.031,100,115.0
161,F#3,26.75,0.031,82,115.0
162,G2,27.0,479/1000,106,115.0
163,E2,27.0,0.031,124,115.0
164,F#3,27.0,0.031,124,115.0
165,E-3,27.0,0.031,124,115.0
166,F#3,27.25,0.031,76,115.0
167,E5,27.5,0.5,90,115.0
168,C3,27.5,0.5,106,115.0
169,E5,27.5,0.5,90,115.0
170,D2,27.5,0.188,127,115.0
171,G3,27.5,0.5,95,115.0
172,G4,27.5,0.5,95,115.0
173,C5,27.5,0.5,95,115.0
174,E-3,27.5,0.031,85,115.0
175,B1,27.5,0.031,85,115.0
176,F#3,27.5,0.031,85,115.0
177,F#3,27.75,0.031,68,115.0
178,C2,28.0,659/500,127,115.0
179,E5,28.0,1.516,90,115.0
180,C3,28.0,0.375,106,115.0
181,D4,28.0,2.5,110,115.0
182,E5,28.0,0.484,90,115.0
183,B1,28.0,0.031,125,115.0
184,F#3,28.0,0.031,125,115.0
185,E-3,28.0,0.031,125,115.0
186,G3,28.0,181/125,95,115.0
187,G4,28.0,181/125,95,115.0
188,C5,28.0,181/125,95,115.0
189,F#3,28.25,0.031,75,115.0
190,A2,28.5,0.484,106,115.0
191,C5,28.5,0.984,90,115.0
192,E-3,28.5,0.031,73,115.0
193,F#3,28.5,0.031,73,115.0
194,F#3,28.75,0.031,82,115.0
195,C3,29.0,0.484,106,115.0
196,F#3,29.0,0.031,124,115.0
197,E2,29.0,0.031,124,115.0
198,E-3,29.0,0.031,124,115.0
199,F#3,29.25,0.031,67,115.0
200,D2,29.5,177/1000,127,115.0
201,A4,29.5,306/125,90,115.0
202,F5,29.5,306/125,90,115.0
203,D5,29.5,306/125,90,115.0
204,F#3,29.5,0.031,84,115.0
205,E-3,29.5,0.031,84,115.0
206,A3,29.5,1021/1000,101,115.0
207,D5,29.5,1021/1000,101,115.0
208,D3,29.5,1021/1000,101,115.0
209,E2,29.75,0.031,74,115.0
210,F#3,29.75,0.031,74,115.0
211,D2,30.0,659/500,127,115.0
212,B1,30.0,0.031,124,115.0
213,F#3,30.0,0.031,124,115.0
214,E-3,30.0,0.031,124,115.0
215,F#3,30.25,0.031,66,115.0
216,F#3,30.5,0.031,106,115.0
217,E-3,30.5,0.031,106,115.0
218,B1,30.5,0.031,106,115.0
219,A4,30.5,0.25,102,115.0
220,A2,30.5,0.25,102,115.0
221,A3,30.5,0.25,102,115.0
222,F#3,30.75,0.031,69,115.0
223,C4,30.75,0.234,102,115.0
224,C3,30.75,0.234,102,115.0
225,C5,30.75,0.234,102,115.0
226,D4,31.0,0.234,102,115.0
227,D3,31.0,0.234,102,115.0
228,D5,31.0,0.234,102,115.0
229,F#3,31.0,0.031,124,115.0
230,E-3,31.0,0.031,124,115.0
231,E2,31.0,0.031,124,115.0
232,F#3,31.25,0.031,74,115.0
233,F5,31.25,0.25,102,115.0
234,F3,31.25,0.25,102,115.0
235,F4,31.25,0.25,102,115.0
236,A1,31.5,0.359,127,115.0
237,E-3,31.5,0.031,91,115.0
238,F#3,31.5,0.031,91,115.0
239,B1,31.5,0.031,91,115.0
240,D5,31.5,0.234,102,115.0
241,D4,31.5,0.234,102,115.0
242,D3,31.5,0.234,102,115.0
243,F#3,31.75,0.031,76,115.0
244,C4,31.75,0.25,102,115.0
245,C3,31.75,0.25,102,115.0
246,C5,31.75,0.25,102,115.0
247,D3,32.0,0.5,107,115.0
248,D2,32.0,659/500,127,115.0
249,D4,32.0,4.0,108,115.0
250,F5,32.0,1.484,90,115.0
251,A4,32.0,1.484,90,115.0
252,D5,32.0,1.484,90,115.0
253,D5,32.0,1.484,90,115.0
254,E-3,32.0,0.031,124,115.0
255,F#3,32.0,0.031,124,115.0
256,B1,32.0,0.031,124,115.0
257,C4,32.0,21/1000,102,115.0
258,C3,32.0,21/1000,102,115.0
259,C5,32.0,21/1000,102,115.0
260,F#3,32.25,0.031,66,115.0
261,D3,32.5,0.5,107,115.0
262,F#3,32.5,0.031,77,115.0
263,E-3,32.5,0.031,77,115.0
264,F#3,32.75,0.031,81,115.0
265,C3,33.0,0.5,107,115.0
266,E-3,33.0,0.031,124,115.0
267,E2,33.0,0.031,124,115.0
268,F#3,33.0,0.031,124,115.0
269,F#3,33.25,0.031,75,115.0
270,C2,33.5,0.172,127,115.0
271,F3,33.5,2.062,107,115.0
272,E-3,33.5,0.031,82,115.0
273,F#3,33.5,0.031,82,115.0
274,D5,33.5,487/250,90,115.0
275,B-4,33.5,487/250,90,115.0
276,F4,33.5,487/250,90,115.0
277,B-2,33.5,0.984,98,115.0
278,G5,33.5,0.984,98,115.0
279,F#3,33.75,0.031,78,115.0
280,E2,33.75,0.031,78,115.0
281,B-1,34.0,659/500,127,115.0
282,F#3,34.0,0.031,122,115.0
283,E-3,34.0,0.031,122,115.0
284,B1,34.0,0.031,122,115.0
285,F#3,34.25,0.031,78,115.0
286,G5,34.5,513/500,90,115.0
287,A2,34.5,49/100,106,115.0
288,F#3,34.5,0.031,94,115.0
289,E-3,34.5,0.031,94,115.0
290,B1,34.5,0.031,94,115.0
291,F#3,34.75,0.031,76,115.0
292,G2,35.0,479/1000,106,115.0
293,F#3,35.0,0.031,125,115.0
294,E2,35.0,0.031,125,115.0
295,E-3,35.0,0.031,125,115.0
296,F#3,35.25,0.031,81,115.0
297,D2,35.5,0.203,127,115.0
298,E5,35.5,0.5,90,115.0
299,E5,35.5,0.5,90,115.0
300,C3,35.5,0.5,106,115.0
301,G4,35.5,0.5,95,115.0
302,C5,35.5,0.5,95,115.0
303,G3,35.5,0.5,95,115.0
304,E-3,35.5,0.031,83,115.0
305,F#3,35.5,0.031,83,115.0
306,B1,35.5,0.031,83,115.0
307,F#3,35.75,0.031,72,115.0
308,C2,36.0,659/500,127,115.0
309,E5,36.0,1.516,90,115.0
310,E5,36.0,0.484,90,115.0
311,D4,36.0,2.5,108,115.0
312,C3,36.0,0.375,106,115.0
313,E-3,36.0,0.031,124,115.0
314,B1,36.0,0.031,124,115.0
315,F#3,36.0,0.031,124,115.0
316,G4,36.0,1.438,95,115.0
317,C5,36.0,1.438,95,115.0
318,G3,36.0,1.438,95,115.0
319,F#3,36.25,0.031,69,115.0
320,A2,36.5,0.484,106,115.0
321,C5,36.5,0.984,90,115.0
322,F#3,36.5,0.031,79,115.0
323,E-3,36.5,0.031,79,115.0
324,F#3,36.75,0.031,86,115.0
325,C3,37.0,0.484,106,115.0
326,F#3,37.0,0.031,123,115.0
327,E2,37.0,0.031,123,115.0
328,E-3,37.0,0.031,123,115.0
329,F#3,37.25,0.031,86,115.0
330,E2,37.5,13/100,127,115.0
331,A3,37.5,1021/1000,101,115.0
332,D5,37.5,1021/1000,101,115.0
333,D3,37.5,1021/1000,101,115.0
334,F#3,37.5,0.031,82,115.0
335,E-3,37.5,0.031,82,115.0
336,D5,37.5,306/125,90,115.0
337,A4,37.5,306/125,90,115.0
338,F5,37.5,306/125,90,115.0
339,F#3,37.75,0.031,83,115.0
340,D2,38.0,659/500,127,115.0
341,B1,38.0,0.031,118,115.0
342,E-3,38.0,0.031,118,115.0
343,F#3,38.0,0.031,118,115.0
344,F#3,38.25,0.031,80,115.0
345,B1,38.5,0.031,106,115.0
346,E-3,38.5,0.031,106,115.0
347,F#3,38.5,0.031,106,115.0
348,A3,38.5,0.234,102,115.0
349,A2,38.5,0.234,102,115.0
350,A4,38.5,0.234,102,115.0
351,F#3,38.75,0.031,90,115.0
352,C3,38.75,0.25,102,115.0
353,C5,38.75,0.25,102,115.0
354,C4,38.75,0.25,102,115.0
355,E2,39.0,0.031,123,115.0
356,E-3,39.0,0.031,123,115.0
357,F#3,39.0,0.031,123,115.0
358,D3,39.0,0.234,102,115.0
359,D4,39.0,0.234,102,115.0
360,D5,39.0,0.234,102,115.0
361,F#3,39.25,0.031,75,115.0
362,F4,39.25,0.234,102,115.0
363,F3,39.25,0.234,102,115.0
364,F5,39.25,0.234,102,115.0
365,C3,39.5,0.031,98,115.0
366,F#3,39.5,0.031,98,115.0
367,D3,39.5,0.188,108,115.0
368,D5,39.5,0.188,108,115.0
369,D4,39.5,0.188,108,115.0
370,A1,39.5,0.188,108,115.0
371,F#3,39.75,0.031,86,115.0
372,C4,39.75,0.234,102,115.0
373,C3,39.75,0.234,102,115.0
374,C5,39.75,0.234,102,115.0
375,D3,40.0,0.5,107,115.0
376,D2,40.0,659/500,127,115.0
377,D4,40.0,4.0,110,115.0
378,C#3,40.0,0.031,120,115.0
379,B1,40.0,0.031,120,115.0
380,F#3,40.0,0.031,120,115.0
381,A4,40.0,181/125,90,115.0
382,D5,40.0,181/125,90,115.0
383,D5,40.0,181/125,90,115.0
384,F5,40.0,181/125,90,115.0
385,F#3,40.25,0.031,64,115.0
386,D3,40.5,0.5,107,115.0
387,E-3,40.5,0.031,66,115.0
388,F#3,40.5,0.031,66,115.0
389,F#3,40.75,0.031,65,115.0
390,C3,41.0,0.5,107,115.0
391,E2,41.0,0.031,123,115.0
392,E-3,41.0,0.031,123,115.0
393,F#3,41.0,0.031,123,115.0
394,F#3,41.25,0.031,71,115.0
395,F3,41.5,2.062,107,115.0
396,C2,41.5,27/200,127,115.0
397,F#3,41.5,0.031,80,115.0
398,E-3,41.5,0.031,80,115.0
399,D5,41.5,487/250,90,115.0
400,F4,41.5,487/250,90,115.0
401,B-4,41.5,487/250,90,115.0
402,B-2,41.5,0.984,98,115.0
403,F5,41.5,0.984,98,115.0
404,F#3,41.75,0.031,74,115.0
405,B-1,42.0,659/500,127,115.0
406,B1,42.0,0.031,117,115.0
407,F#3,42.0,0.031,117,115.0
408,E-3,42.0,0.031,117,115.0
409,F#3,42.25,0.031,74,115.0
410,A2,42.5,49/100,106,115.0
411,F5,42.5,0.984,90,115.0
412,F#3,42.5,0.031,103,115.0
413,E-3,42.5,0.031,103,115.0
414,B1,42.5,0.031,103,115.0
415,F#3,42.75,0.031,82,115.0
416,G2,43.0,479/1000,106,115.0
417,E-3,43.0,0.031,123,115.0
418,E2,43.0,0.031,123,115.0
419,F#3,43.0,0.031,123,115.0
420,F#3,43.25,0.031,76,115.0
421,D2,43.5,91/500,127,115.0
422,C3,43.5,0.5,106,115.0
423,E5,43.5,0.5,90,115.0
424,E5,43.5,0.5,90,115.0
425,C5,43.5,0.5,95,115.0
426,G4,43.5,0.5,95,115.0
427,G3,43.5,0.5,95,115.0
428,B1,43.5,0.031,87,115.0
429,E-3,43.5,0.031,87,115.0
430,F#3,43.5,0.031,87,115.0
431,F#3,43.75,0.031,68,115.0
432,C2,44.0,659/500,127,115.0
433,D4,44.0,2.5,110,115.0
434,C3,44.0,0.375,106,115.0
435,E5,44.0,0.484,90,115.0
436,E5,44.0,1.516,90,115.0
437,F#3,44.0,0.031,125,115.0
438,E-3,44.0,0.031,125,115.0
439,B1,44.0,0.031,125,115.0
440,C5,44.0,1.438,95,115.0
441,G4,44.0,1.438,95,115.0
442,G3,44.0,1.438,95,115.0
443,F#3,44.25,0.031,75,115.0
444,A2,44.5,0.484,106,115.0
445,C5,44.5,0.984,90,115.0
446,F#3,44.5,0.031,82,115.0
447,E-3,44.5,0.031,82,115.0
448,F#3,44.75,0.031,82,115.0
449,C3,45.0,0.484,106,115.0
450,E2,45.0,0.031,124,115.0
451,E-3,45.0,0.031,124,115.0
452,F#3,45.0,0.031,124,115.0
453,F#3,45.25,0.031,67,115.0
454,D2,45.5,151/1000,127,115.0
455,D3,45.5,259/250,101,115.0
456,A3,45.5,259/250,101,115.0
457,D5,45.5,259/250,101,115.0
458,F5,45.5,306/125,90,115.0
459,A4,45.5,306/125,90,115.0
460,D5,45.5,306/125,90,115.0
461,F#3,45.5,0.031,86,115.0
462,E-3,45.5,0.031,86,115.0
463,E2,45.75,0.031,82,115.0
464,F#3,45.75,0.031,82,115.0
465,D2,46.0,659/500,127,115.0
466,E-3,46.0,0.031,123,115.0
467,B1,46.0,0.031,123,115.0
468,F#3,46.0,0.031,123,115.0
469,F#3,46.25,0.031,66,115.0
470,B1,46.5,0.031,106,115.0
471,E-3,46.5,0.031,106,115.0
472,F#3,46.5,0.031,106,115.0
473,A3,46.5,0.234,102,115.0
474,A2,46.5,0.234,102,115.0
475,A4,46.5,0.234,102,115.0
476,F#3,46.75,0.031,69,115.0
477,C5,46.75,0.25,102,115.0
478,C3,46.75,0.25,102,115.0
479,C4,46.75,0.25,102,115.0
480,D5,47.0,0.234,102,115.0
481,D4,47.0,0.234,102,115.0
482,D3,47.0,0.234,102,115.0
483,E-3,47.0,0.031,124,115.0
484,E2,47.0,0.031,124,115.0
485,F#3,47.0,0.031,124,115.0
486,F#3,47.25,0.031,74,115.0
487,F4,47.25,0.234,102,115.0
488,F5,47.25,0.234,102,115.0
489,F3,47.25,0.234,102,115.0
490,A1,47.5,0.234,106,115.0
491,D3,47.5,0.234,106,115.0
492,D4,47.5,0.234,106,115.0
493,D5,47.5,0.234,106,115.0
494,B1,47.5,0.031,87,115.0
495,F#3,47.5,0.031,87,115.0
496,E-3,47.5,0.031,87,115.0
497,F#3,47.75,0.031,76,115.0
498,C3,47.75,0.234,102,115.0
499,C4,47.75,0.234,102,115.0
500,C5,47.75,0.234,102,115.0
501,D4,48.0,6.0,108,115.0
502,D2,48.0,659/500,127,115.0
503,D5,48.0,181/125,97,115.0
504,A4,48.0,181/125,97,115.0
505,D2,48.0,181/125,97,115.0
506,F5,48.0,181/125,97,115.0
507,D5,48.0,181/125,97,115.0
508,E-3,48.0,0.031,125,115.0
509,F#3,48.0,0.031,125,115.0
510,B1,48.0,0.031,125,115.0
511,F#3,48.25,0.031,66,115.0
512,F#3,48.5,0.031,82,115.0
513,E-3,48.5,0.031,82,115.0
514,F#3,48.75,0.031,81,115.0
515,E2,49.0,0.031,124,115.0
516,F#3,49.0,0.031,124,115.0
517,E-3,49.0,0.031,124,115.0
518,F#3,49.25,0.031,75,115.0
519,B-1,49.5,167/1000,127,115.0
520,F4,49.5,1.969,90,115.0
521,B-4,49.5,1.969,90,115.0
522,D5,49.5,1.969,90,115.0
523,G5,49.5,1021/1000,108,115.0
524,B-2,49.5,1021/1000,108,115.0
525,E-3,49.5,0.031,85,115.0
526,F#3,49.5,0.031,85,115.0
527,B1,49.75,0.031,84,115.0
528,F#3,49.75,0.031,84,115.0
529,B-1,50.0,659/500,127,115.0
530,B1,50.0,0.031,123,115.0
531,E-3,50.0,0.031,123,115.0
532,F#3,50.0,0.031,123,115.0
533,F#3,50.25,0.031,78,115.0
534,G5,50.5,0.984,90,115.0
535,A2,50.5,0.484,127,115.0
536,E-3,50.5,0.031,104,115.0
537,F#3,50.5,0.031,104,115.0
538,B1,50.5,0.031,104,115.0
539,F#3,50.75,0.031,76,115.0
540,G2,51.0,0.484,127,115.0
541,E-3,51.0,0.031,125,115.0
542,E2,51.0,0.031,125,115.0
543,F#3,51.0,0.031,125,115.0
544,F#3,51.25,0.031,81,115.0
545,D2,51.5,193/1000,127,115.0
546,E-3,51.5,0.031,89,115.0
547,F#3,51.5,0.031,89,115.0
548,B1,51.5,0.031,89,115.0
549,E5,51.5,259/250,108,115.0
550,C3,51.5,259/250,108,115.0
551,C5,51.5,306/125,90,115.0
552,E5,51.5,306/125,90,115.0
553,G4,51.5,306/125,90,115.0
554,F#3,51.75,0.031,72,115.0
555,C2,52.0,659/500,127,115.0
556,E-3,52.0,0.031,124,115.0
557,F#3,52.0,0.031,124,115.0
558,B1,52.0,0.031,124,115.0
559,F#3,52.25,0.031,69,115.0
560,A2,52.5,0.484,127,115.0
561,C5,52.5,0.984,90,115.0
562,F#3,52.5,0.031,97,115.0
563,E-3,52.5,0.031,97,115.0
564,F#3,52.75,0.031,86,115.0
565,C3,53.0,0.984,127,115.0
566,F#3,53.0,0.031,122,115.0
567,E2,53.0,0.031,122,115.0
568,F#3,53.25,0.031,104,115.0
569,E2,53.25,0.031,104,115.0
570,C5,53.5,0.5,90,115.0
571,C2,53.5,28/125,127,115.0
572,F#3,53.5,0.031,101,115.0
573,C3,53.5,0.031,101,115.0
574,F#3,53.75,0.031,83,115.0
575,C#3,54.0,0.672,127,115.0
576,C#2,54.0,99/125,127,115.0
577,C#4,54.0,3.484,108,115.0
578,C5,54.0,5443/1000,90,115.0
579,B1,54.0,0.031,118,115.0
580,C#3,54.0,0.031,118,115.0
581,F#3,54.0,0.031,118,115.0
582,G#3,54.0,227/200,127,115.0
583,E4,54.0,227/200,127,115.0
584,B3,54.0,227/200,127,115.0
585,C#5,54.0,987/250,99,115.0
586,C#3,54.0,987/250,99,115.0
587,E5,54.0,987/250,99,115.0
588,G#4,54.0,987/250,99,115.0
589,F#3,54.25,0.031,80,115.0
590,F#3,54.5,0.031,80,115.0
591,F#3,54.75,0.031,90,115.0
592,C#2,55.0,0.594,127,115.0
593,B-2,55.0,0.031,122,115.0
594,E2,55.0,0.031,122,115.0
595,F#3,55.0,0.031,122,115.0
596,C#3,55.0,73/200,126,115.0
597,G#4,55.0,73/200,126,115.0
598,F#3,55.25,0.031,75,115.0
599,G#4,55.5,0.031,84,115.0
600,F#3,55.5,0.031,84,115.0
601,E4,55.5,0.422,125,115.0
602,B3,55.5,0.422,125,115.0
603,G#3,55.5,0.422,125,115.0
604,G#4,55.75,573/1000,114,115.0
605,B1,55.75,0.141,118,115.0
606,F#3,55.75,0.031,86,115.0
607,C#2,56.0,161/1000,113,115.0
608,C#3,56.0,161/1000,113,115.0
609,F#2,56.0,0.031,127,115.0
610,E2,56.0,0.031,127,115.0
611,C#2,56.5,112/125,125,115.0
612,B3,56.5,0.297,119,115.0
613,B1,56.5,0.031,92,115.0
614,F#2,56.5,0.031,92,115.0
615,G#3,56.5,339/1000,116,115.0
616,E4,56.5,339/1000,116,115.0
617,G#4,56.5,0.188,124,115.0
618,C#3,56.5,0.188,124,115.0
619,F#4,57.0,0.375,125,115.0
620,C#3,57.0,0.156,127,115.0
621,F#2,57.0,0.031,127,115.0
622,E2,57.0,0.031,127,115.0
623,F#3,57.0,0.031,127,115.0
624,B3,57.25,28/125,127,115.0
625,E4,57.25,69/250,127,115.0
626,G#3,57.25,69/250,127,115.0
627,E4,57.5,73/500,101,115.0
628,F#1,57.5,0.438,125,115.0
629,C#3,57.5,0.297,127,115.0
630,F#2,57.5,0.031,98,115.0
631,B1,57.5,0.031,98,115.0
632,F#4,59.443,0.453,127,115.0
633,G#2,59.443,37/50,126,115.0
634,G#1,59.443,37/50,126,115.0
635,E-5,59.443,987/250,90,115.0
636,B4,59.443,987/250,90,115.0
637,F#4,59.443,987/250,90,115.0
638,E-4,59.443,1.078,127,115.0
639,F#3,59.443,1.078,127,115.0
640,B3,59.443,1.078,127,115.0
641,F#2,59.443,0.031,127,115.0
642,E2,59.443,0.031,127,115.0
643,B1,59.443,0.031,127,115.0
644,G#4,59.943,0.203,122,115.0
645,F#2,59.943,0.031,88,115.0
646,G#1,60.443,0.734,125,115.0
647,G#2,60.443,823/1000,127,115.0
648,F#2,60.443,0.031,127,115.0
649,F#3,60.443,0.031,127,115.0
650,E2,60.443,0.031,127,115.0
651,F#2,60.943,0.031,88,115.0
652,F#3,60.943,573/1000,127,115.0
653,E-4,60.943,573/1000,127,115.0
654,B3,60.943,573/1000,127,115.0
655,G#2,61.443,0.328,127,115.0
656,G#1,61.443,0.203,125,115.0
657,F#2,61.443,0.031,127,115.0
658,E2,61.443,0.031,127,115.0
659,F#3,61.943,401/1000,127,115.0
660,G#1,61.943,0.922,125,115.0
661,B3,61.943,159/500,127,115.0
662,B1,61.943,0.031,104,115.0
663,B-2,61.943,0.031,104,115.0
664,G#2,62.443,0.172,127,115.0
665,F#2,62.443,0.031,125,115.0
666,F#3,62.443,0.031,125,115.0
667,E2,62.443,0.031,125,115.0
668,E-4,62.693,0.281,125,115.0
669,B3,62.693,0.281,125,115.0
670,F#3,62.693,0.281,125,115.0
671,G#2,62.943,401/1000,127,115.0
672,B1,62.943,99/500,124,115.0
673,F#2,62.943,0.031,95,115.0
674,B1,62.943,0.031,95,115.0
675,E4,63.443,1349/1000,127,115.0
676,F#2,63.443,0.031,126,115.0
677,E2,63.443,0.031,126,115.0
678,B1,63.443,0.031,126,115.0
679,B4,63.443,487/250,90,115.0
680,G#4,63.443,487/250,90,115.0
681,E5,63.443,487/250,90,115.0
682,C#3,63.443,0.984,127,115.0
683,B3,63.443,0.984,127,115.0
684,C#2,63.443,19/25,126,115.0
685,G#3,63.443,19/25,126,115.0
686,F#2,63.943,0.031,92,115.0
687,C#2,64.443,401/500,124,115.0
688,G#3,64.443,37/100,120,115.0
689,G#4,64.443,37/100,120,115.0
690,F#3,64.443,0.031,127,115.0
691,F#2,64.443,0.031,127,115.0
692,E2,64.443,0.031,127,115.0
693,G#4,64.943,3/25,104,115.0
694,C#3,64.943,0.203,127,115.0
695,F#2,64.943,0.031,88,115.0
696,G#4,65.193,229/500,111,115.0
697,C3,65.443,0.297,127,115.0
698,C2,65.443,193/1000,124,115.0
699,E2,65.443,0.031,126,115.0
700,F#2,65.443,0.031,126,115.0
701,G3,65.443,99/250,127,115.0
702,E4,65.443,99/250,127,115.0
703,B-3,65.443,99/250,127,115.0
704,E5,65.443,237/250,90,115.0
705,G4,65.443,237/250,90,115.0
706,B-4,65.443,237/250,90,115.0
707,F#4,65.693,27/200,98,115.0
708,C2,65.943,0.484,124,115.0
709,E4,65.943,26/125,110,115.0
710,C3,65.943,26/125,110,115.0
711,B1,65.943,0.031,98,115.0
712,B-2,65.943,0.031,98,115.0
713,D2,66.443,13/50,124,115.0
714,D3,66.443,729/1000,127,115.0
715,E4,66.443,0.391,123,115.0
716,A3,66.443,0.562,127,115.0
717,C4,66.443,0.562,127,115.0
718,F#4,66.443,0.562,127,115.0
719,F#3,66.443,0.031,125,115.0
720,F#2,66.443,0.031,125,115.0
721,E2,66.443,0.031,125,115.0
722,F#5,66.443,237/250,90,115.0
723,A4,66.443,237/250,90,115.0
724,C5,66.443,237/250,90,115.0
725,D2,66.943,27/200,120,115.0
726,F#4,66.943,27/200,120,115.0
727,B1,66.943,0.031,98,115.0
728,F#2,66.943,0.031,98,115.0
729,D5,67.443,987/250,90,115.0
730,G#5,67.443,987/250,90,115.0
731,B4,67.443,987/250,90,115.0
732,E2,67.443,839/1000,126,115.0
733,D4,67.443,839/1000,126,115.0
734,E3,67.443,839/1000,126,115.0
735,B3,67.443,839/1000,126,115.0
736,G#4,67.443,0.031,122,115.0
737,F#2,67.443,0.031,122,115.0
738,B1,67.443,0.031,122,115.0
739,E2,67.443,0.031,122,115.0
740,E4,67.443,0.766,127,115.0
741,E3,67.443,0.766,127,115.0
742,F#2,67.943,0.031,87,115.0
743,C#4,68.193,0.125,100,115.0
744,E3,68.443,443/1000,127,115.0
745,E2,68.443,149/200,124,115.0
746,B3,68.443,193/1000,120,115.0
747,B3,68.443,193/1000,120,115.0
748,E2,68.443,0.031,127,115.0
749,F#2,68.443,0.031,127,115.0
750,F#3,68.443,0.031,127,115.0
751,F#2,68.943,0.031,120,115.0
752,B3,68.943,99/250,127,115.0
753,G#4,68.943,99/250,127,115.0
754,D4,68.943,99/250,127,115.0
755,E2,69.193,0.031,89,115.0
756,B1,69.193,0.141,124,115.0
757,E1,69.443,51/200,126,115.0
758,E3,69.443,51/200,126,115.0
759,E2,69.443,0.031,124,115.0
760,B1,69.443,0.031,124,115.0
761,E1,69.943,513/500,124,115.0
762,C3,69.943,0.031,120,115.0
763,B3,69.943,69/250,127,115.0
764,E3,69.943,69/250,127,115.0
765,B3,70.443,13/125,92,115.0
766,D4,70.443,0.188,119,115.0
767,D2,70.443,0.031,115,115.0
768,B1,70.443,0.031,115,115.0
769,E2,70.443,0.031,115,115.0
770,F#3,70.443,0.031,115,115.0
771,B3,70.693,99/500,119,115.0
772,D4,70.693,0.031,120,115.0
773,E2,70.693,0.031,120,115.0
774,E3,70.943,3/25,127,115.0
775,G#1,70.943,0.188,124,115.0
776,A2,70.943,0.031,127,115.0
777,F#1,71.443,0.953,124,115.0
778,A3,71.443,0.328,127,115.0
779,A4,71.443,483/250,90,115.0
780,E5,71.443,483/250,90,115.0
781,B1,71.443,0.031,127,115.0
782,C#3,71.443,0.031,127,115.0
783,E4,71.443,151/250,127,115.0
784,F#2,71.443,151/250,127,115.0
785,A3,71.943,91/500,119,115.0
786,C#4,72.193,13/125,101,115.0
787,A3,72.193,69/250,127,115.0
788,E4,72.193,69/250,127,115.0
789,G#1,72.443,229/500,124,115.0
790,F#2,72.443,99/500,127,115.0
791,F#3,72.443,89/1000,124,115.0
792,E2,72.443,89/1000,124,115.0
793,F#2,72.443,89/1000,124,115.0
794,E4,72.443,89/1000,124,115.0
795,A3,72.693,67/125,123,115.0
796,E4,72.693,67/125,123,115.0
797,F#2,72.943,0.031,90,115.0
798,F#2,72.943,0.219,112,115.0
799,A1,72.943,0.219,112,115.0
800,E4,72.943,0.219,112,115.0
801,B2,73.443,151/200,127,115.0
802,B1,73.443,0.484,124,115.0
803,E-4,73.443,0.656,127,115.0
804,F#2,73.443,0.031,127,115.0
805,E2,73.443,0.031,127,115.0
806,E-5,73.443,487/250,90,115.0
807,B4,73.443,487/250,90,115.0
808,F#5,73.443,487/250,90,115.0
809,A3,73.443,73/250,123,115.0
810,F#4,73.443,73/250,123,115.0
811,B1,73.943,0.484,124,115.0
812,A3,73.943,323/1000,119,115.0
813,B1,73.943,0.031,104,115.0
814,F#2,73.943,0.031,104,115.0
815,B2,74.443,13/50,127,115.0
816,C#2,74.443,56/125,124,115.0
817,F#3,74.443,0.031,127,115.0
818,F#2,74.443,0.031,127,115.0
819,E2,74.443,0.031,127,115.0
820,A3,74.943,161/1000,111,115.0
821,B1,74.943,0.031,95,115.0
822,F#2,74.943,0.031,95,115.0
823,B1,74.943,307/1000,125,115.0
824,B2,74.943,307/1000,125,115.0
825,E3,75.443,0.672,127,115.0
826,G#4,75.443,0.312,126,115.0
827,E2,75.443,0.984,123,115.0
828,B4,75.443,483/250,90,115.0
829,E5,75.443,483/250,90,115.0
830,G#5,75.443,483/250,90,115.0
831,E2,75.443,0.031,127,115.0
832,F#2,75.443,0.031,127,115.0
833,B1,75.443,0.031,127,115.0
834,G#4,75.943,13/100,104,115.0
835,F#2,75.943,0.031,94,115.0
836,E4,75.943,0.5,127,115.0
837,G#4,75.943,0.5,127,115.0
838,B3,75.943,0.5,127,115.0
839,F#4,76.193,0.641,127,115.0
840,E3,76.443,0.172,119,115.0
841,G#1,76.443,0.375,123,115.0
842,E2,76.443,0.031,127,115.0
843,F#3,76.443,0.031,127,115.0
844,F#2,76.443,0.031,127,115.0
845,B3,76.693,0.219,127,115.0
846,E4,76.693,13/125,119,115.0
847,E4,76.943,151/1000,110,115.0
848,F#2,76.943,0.031,83,115.0
849,B1,76.943,0.297,125,115.0
850,E3,76.943,0.297,125,115.0
851,A1,77.443,0.969,123,115.0
852,E4,77.443,0.203,120,115.0
853,A3,77.443,323/1000,127,115.0
854,A2,77.443,0.844,127,115.0
855,E5,77.443,893/500,90,115.0
856,C#4,77.443,54/125,127,115.0
857,E4,77.443,54/125,127,115.0
858,A4,77.443,487/250,90,115.0
859,C#5,77.443,487/250,90,115.0
860,E2,77.443,0.031,126,115.0
861,F#2,77.443,0.031,126,115.0
862,F#4,77.693,0.141,106,115.0
863,B3,77.943,151/500,127,115.0
864,C#4,77.943,49/100,113,115.0
865,B-2,77.943,0.031,113,115.0
866,B1,77.943,0.031,113,115.0
867,C#4,78.193,333/1000,127,115.0
868,C#2,78.443,37/100,123,115.0
869,A2,78.443,28/125,111,115.0
870,F#3,78.443,0.031,127,115.0
871,F#2,78.443,0.031,127,115.0
872,E2,78.443,0.031,127,115.0
873,E4,78.693,0.344,127,115.0
874,E2,78.943,0.281,123,115.0
875,B1,78.943,0.031,106,115.0
876,F#2,78.943,0.031,106,115.0
877,A3,79.443,1099/1000,119,115.0
878,F#2,79.443,487/500,123,115.0
879,E2,79.443,0.031,127,115.0
880,F#2,79.443,0.031,127,115.0
881,B1,79.443,0.031,127,115.0
882,A4,79.443,487/250,90,115.0
883,E5,79.443,487/250,90,115.0
884,C#5,79.443,487/250,90,115.0
885,F#2,79.443,521/1000,127,115.0
886,E4,79.443,521/1000,127,115.0
887,F#2,79.943,0.031,84,115.0
888,E4,80.193,0.094,111,115.0
889,F#2,80.443,0.219,127,115.0
890,E4,80.443,333/1000,114,115.0
891,F#1,80.443,479/1000,123,115.0
892,E2,80.443,0.031,127,115.0
893,F#2,80.443,0.031,127,115.0
894,F#3,80.443,0.031,127,115.0
895,A3,80.693,13/50,127,115.0
896,F#2,80.943,0.031,92,115.0
897,A1,80.943,6/25,119,115.0
898,F#2,80.943,6/25,119,115.0
899,E4,80.943,6/25,119,115.0
900,A3,81.443,0.422,127,115.0
901,B1,81.443,173/200,123,115.0
902,B2,81.443,0.641,127,115.0
903,E-4,81.443,0.641,127,115.0
904,F#4,81.443,0.641,127,115.0
905,E-5,81.443,487/250,90,115.0
906,F#5,81.443,487/250,90,115.0
907,B4,81.443,487/250,90,115.0
908,F#2,81.443,0.031,127,115.0
909,E2,81.443,0.031,127,115.0
910,A3,81.943,0.453,127,115.0
911,B1,81.943,0.031,111,115.0
912,B-2,81.943,0.031,111,115.0
913,E-4,82.193,0.125,98,115.0
914,G#4,82.193,0.125,98,115.0
915,B2,82.443,0.219,127,115.0
916,F#3,82.443,0.031,127,115.0
917,E2,82.443,0.031,127,115.0
918,F#2,82.443,0.031,127,115.0
919,F#4,82.443,37/100,125,115.0
920,E-2,82.443,37/100,125,115.0
921,F#2,82.943,323/1000,125,115.0
922,B2,82.943,323/1000,125,115.0
923,B3,82.943,161/1000,108,115.0
924,E4,82.943,161/1000,108,115.0
925,B1,82.943,0.031,107,115.0
926,F#2,82.943,0.031,107,115.0
927,B3,83.443,0.344,127,115.0
928,B1,83.443,0.031,127,115.0
929,E2,83.443,0.031,127,115.0
930,F#2,83.443,0.031,127,115.0
931,E2,83.443,0.859,125,115.0
932,G#4,83.443,0.859,125,115.0
933,G#4,83.443,483/250,90,115.0
934,E5,83.443,483/250,90,115.0
935,E3,83.443,151/200,126,115.0
936,E4,83.443,151/200,126,115.0
937,E4,83.443,151/200,126,115.0
938,F#2,83.943,0.031,127,115.0
939,B3,83.943,0.672,127,115.0
940,G#1,84.443,479/1000,123,115.0
941,E3,84.443,99/500,127,115.0
942,E2,84.443,0.031,126,115.0
943,F#3,84.443,0.031,126,115.0
944,E2,84.693,0.031,115,115.0
945,B1,84.943,411/1000,123,115.0
946,E3,84.943,23/200,127,115.0
947,B1,84.943,0.031,109,115.0
948,B1,85.193,0.031,127,115.0
949,A4,85.443,1693/1000,126,115.0
950,A5,85.443,0.328,90,115.0
951,A1,85.443,0.5,123,115.0
952,F#3,85.443,0.094,115,115.0
953,E2,85.443,0.094,115,115.0
954,E5,85.443,0.094,115,115.0
955,A2,85.943,51/200,102,115.0
956,A3,85.943,51/200,102,115.0
957,A4,85.943,51/200,102,115.0
958,C4,86.193,0.234,102,115.0
959,C5,86.193,0.234,102,115.0
960,C3,86.193,0.234,102,115.0
961,D3,86.443,0.234,102,115.0
962,D4,86.443,0.234,102,115.0
963,D5,86.443,0.234,102,115.0
964,F4,86.693,0.297,102,115.0
965,F3,86.693,0.297,102,115.0
966,F5,86.693,0.297,102,115.0
967,D3,86.943,0.234,102,115.0
968,D4,86.943,0.234,102,115.0
969,D5,86.943,0.234,102,115.0
970,C4,87.193,0.25,102,115.0
971,C3,87.193,0.25,102,115.0
972,C5,87.193,0.25,102,115.0
973,D3,87.443,0.5,107,115.0
974,A4,87.443,13/50,113,115.0
975,D2,87.443,659/500,127,115.0
976,D4,87.443,4.0,110,115.0
977,C#3,87.443,0.031,120,115.0
978,B1,87.443,0.031,120,115.0
979,F#3,87.443,0.031,120,115.0
980,F5,87.443,1.484,90,115.0
981,A4,87.443,1.484,90,115.0
982,D5,87.443,1.484,90,115.0
983,D5,87.443,1.484,90,115.0
984,C4,87.443,0.016,102,115.0
985,C3,87.443,0.016,102,115.0
986,C5,87.443,0.016,102,115.0
987,F#3,87.693,0.031,64,115.0
988,G4,87.693,193/1000,110,115.0
989,F#3,87.943,0.031,57,115.0
990,D3,87.943,0.5,107,115.0
991,F4,87.943,0.203,118,115.0
992,F#3,88.193,0.031,65,115.0
993,C3,88.443,0.5,107,115.0
994,E2,88.443,0.031,123,115.0
995,F#3,88.443,0.031,123,115.0
996,E-3,88.443,0.031,123,115.0
997,F#3,88.693,0.031,71,115.0
998,F3,88.943,2.062,107,115.0
999,C2,88.943,99/500,127,115.0
1000,B-2,88.943,0.984,98,115.0
1001,F5,88.943,0.984,98,115.0
1002,D5,88.943,487/250,90,115.0
1003,B-4,88.943,487/250,90,115.0
1004,F4,88.943,487/250,90,115.0
1005,F#3,88.943,0.031,78,115.0
1006,E-3,88.943,0.031,78,115.0
1007,E2,89.193,0.031,78,115.0
1008,F#3,89.193,0.031,78,115.0
1009,B-1,89.443,659/500,127,115.0
1010,E-3,89.443,0.031,120,115.0
1011,F#3,89.443,0.031,120,115.0
1012,B1,89.443,0.031,120,115.0
1013,F#3,89.693,0.031,74,115.0
1014,F5,89.943,0.984,90,115.0
1015,A2,89.943,49/100,106,115.0
1016,F#3,89.943,0.031,100,115.0
1017,E-3,89.943,0.031,100,115.0
1018,B1,89.943,0.031,100,115.0
1019,F#3,90.193,0.031,82,115.0
1020,G2,90.443,479/1000,106,115.0
1021,E-3,90.443,0.031,124,115.0
1022,F#3,90.443,0.031,124,115.0
1023,E2,90.443,0.031,124,115.0
1024,F#3,90.693,0.031,76,115.0
1025,E5,90.943,0.5,90,115.0
1026,C3,90.943,0.5,106,115.0
1027,E5,90.943,0.5,90,115.0
1028,D2,90.943,0.188,127,115.0
1029,F#3,90.943,0.031,85,115.0
1030,E-3,90.943,0.031,85,115.0
1031,B1,90.943,0.031,85,115.0
1032,G3,90.943,0.5,95,115.0
1033,C5,90.943,0.5,95,115.0
1034,G4,90.943,0.5,95,115.0
1035,F4,91.193,0.031,86,115.0
1036,F#3,91.193,0.031,86,115.0
1037,C2,91.443,659/500,127,115.0
1038,G4,91.443,237/500,127,115.0
1039,E5,91.443,1.516,90,115.0
1040,C3,91.443,0.375,106,115.0
1041,E5,91.443,0.484,90,115.0
1042,D4,91.443,2.5,110,115.0
1043,E-3,91.443,0.031,125,115.0
1044,B1,91.443,0.031,125,115.0
1045,F#3,91.443,0.031,125,115.0
1046,G3,91.443,181/125,95,115.0
1047,C5,91.443,181/125,95,115.0
1048,G4,91.443,181/125,95,115.0
1049,F#3,91.693,0.031,75,115.0
1050,C5,91.943,0.984,90,115.0
1051,A2,91.943,0.484,106,115.0
1052,F4,91.943,0.031,80,115.0
1053,E-3,91.943,0.031,80,115.0
1054,F#3,91.943,0.031,80,115.0
1055,G4,92.193,6/25,115,115.0
1056,F#3,92.193,0.031,82,115.0
1057,C3,92.443,0.484,106,115.0
1058,E2,92.443,0.031,124,115.0
1059,E-3,92.443,0.031,124,115.0
1060,F#3,92.443,0.031,124,115.0
1061,G4,92.693,99/500,122,115.0
1062,F#3,92.693,0.031,67,115.0
1063,D2,92.943,177/1000,127,115.0
1064,D5,92.943,306/125,90,115.0
1065,F5,92.943,306/125,90,115.0
1066,A4,92.943,306/125,90,115.0
1067,A3,92.943,1021/1000,101,115.0
1068,D5,92.943,1021/1000,101,115.0
1069,D3,92.943,1021/1000,101,115.0
1070,F#3,92.943,0.031,84,115.0
1071,E-3,92.943,0.031,84,115.0
1072,A4,93.193,341/500,118,115.0
1073,F#3,93.193,0.031,74,115.0
1074,E2,93.193,0.031,74,115.0
1075,D2,93.443,659/500,127,115.0
1076,E-3,93.443,0.031,124,115.0
1077,F#3,93.443,0.031,124,115.0
1078,B1,93.443,0.031,124,115.0
1079,F#3,93.693,0.031,66,115.0
1080,F#3,93.943,0.031,106,115.0
1081,E-3,93.943,0.031,106,115.0
1082,B1,93.943,0.031,106,115.0
1083,A2,93.943,0.234,102,115.0
1084,A3,93.943,0.234,102,115.0
1085,A4,93.943,0.234,102,115.0
1086,F#3,94.193,0.031,69,115.0
1087,C3,94.193,0.234,102,115.0
1088,C4,94.193,0.234,102,115.0
1089,C5,94.193,0.234,102,115.0
1090,D4,94.443,0.234,102,115.0
1091,D3,94.443,0.234,102,115.0
1092,D5,94.443,0.234,102,115.0
1093,F#3,94.443,0.031,124,115.0
1094,E2,94.443,0.031,124,115.0
1095,E-3,94.443,0.031,124,115.0
1096,F#3,94.693,0.031,74,115.0
1097,F5,94.693,0.25,102,115.0
1098,F3,94.693,0.25,102,115.0
1099,F4,94.693,0.25,102,115.0
1100,A1,94.943,0.359,127,115.0
1101,D4,94.943,0.234,102,115.0
1102,D5,94.943,0.234,102,115.0
1103,D3,94.943,0.234,102,115.0
1104,F#3,94.943,0.031,91,115.0
1105,B1,94.943,0.031,91,115.0
1106,E-3,94.943,0.031,91,115.0
1107,F#3,95.193,0.031,76,115.0
1108,C5,95.193,0.234,102,115.0
1109,C4,95.193,0.234,102,115.0
1110,C3,95.193,0.234,102,115.0
1111,D2,95.443,1.25,127,115.0
1112,D4,95.443,4.0,108,115.0
1113,D3,95.443,0.5,107,115.0
1114,A4,95.443,1.484,90,115.0
1115,D5,95.443,1.484,90,115.0
1116,F5,95.443,1.484,90,115.0
1117,D5,95.443,1.484,90,115.0
1118,F#3,95.443,0.031,124,115.0
1119,B1,95.443,0.031,124,115.0
1120,E-3,95.443,0.031,124,115.0
1121,F#3,95.693,0.031,66,115.0
1122,D3,95.943,0.5,107,115.0
1123,E-3,95.943,0.031,77,115.0
1124,F#3,95.943,0.031,77,115.0
1125,F#3,96.193,0.031,81,115.0
1126,C3,96.443,0.5,107,115.0
1127,E2,96.443,0.031,124,115.0
1128,E-3,96.443,0.031,124,115.0
1129,F#3,96.443,0.031,124,115.0
1130,F#3,96.693,0.031,75,115.0
1131,C2,96.943,0.172,127,115.0
1132,F3,96.943,2.062,107,115.0
1133,B-2,96.943,0.984,98,115.0
1134,G5,96.943,0.984,98,115.0
1135,B-4,96.943,1.969,90,115.0
1136,F4,96.943,1.969,90,115.0
1137,D5,96.943,1.969,90,115.0
1138,F#3,96.943,0.031,82,115.0
1139,E-3,96.943,0.031,82,115.0
1140,F#3,97.193,0.031,78,115.0
1141,E2,97.193,0.031,78,115.0
1142,B-1,97.443,659/500,127,115.0
1143,E-3,97.443,0.031,122,115.0
1144,F#3,97.443,0.031,122,115.0
1145,B1,97.443,0.031,122,115.0
1146,F#3,97.693,0.031,78,115.0
1147,G5,97.943,513/500,90,115.0
1148,A2,97.943,49/100,106,115.0
1149,E-3,97.943,0.031,94,115.0
1150,B1,97.943,0.031,94,115.0
1151,F#3,97.943,0.031,94,115.0
1152,F#3,98.193,0.031,76,115.0
1153,G2,98.443,479/1000,106,115.0
1154,E2,98.443,0.031,125,115.0
1155,F#3,98.443,0.031,125,115.0
1156,E-3,98.443,0.031,125,115.0
1157,F#3,98.693,0.031,81,115.0
1158,E5,98.943,0.5,90,115.0
1159,E5,98.943,0.5,90,115.0
1160,C3,98.943,0.5,106,115.0
1161,D2,98.943,0.203,127,115.0
1162,E-3,98.943,0.031,83,115.0
1163,B1,98.943,0.031,83,115.0
1164,F#3,98.943,0.031,83,115.0
1165,G4,98.943,0.5,95,115.0
1166,G3,98.943,0.5,95,115.0
1167,C5,98.943,0.5,95,115.0
1168,F#3,99.193,0.031,72,115.0
1169,C2,99.443,659/500,127,115.0
1170,G4,99.443,91/500,111,115.0
1171,D4,99.443,2.5,108,115.0
1172,E5,99.443,0.484,90,115.0
1173,E5,99.443,1.516,90,115.0
1174,C3,99.443,0.375,106,115.0
1175,B1,99.443,0.031,124,115.0
1176,E-3,99.443,0.031,124,115.0
1177,F#3,99.443,0.031,124,115.0
1178,G4,99.443,181/125,95,115.0
1179,G3,99.443,181/125,95,115.0
1180,C5,99.443,181/125,95,115.0
1181,F#3,99.693,0.031,69,115.0
1182,F4,99.693,161/1000,114,115.0
1183,C5,99.943,0.984,90,115.0
1184,A2,99.943,0.484,106,115.0
1185,E-3,99.943,0.031,79,115.0
1186,F#3,99.943,0.031,79,115.0
1187,F#3,100.193,0.031,86,115.0
1188,G4,100.193,26/125,124,115.0
1189,C3,100.443,0.484,106,115.0
1190,F#3,100.443,0.031,123,115.0
1191,E-3,100.443,0.031,123,115.0
1192,E2,100.443,0.031,123,115.0
1193,F#3,100.693,0.031,86,115.0
1194,G4,100.693,0.219,124,115.0
1195,E2,100.943,13/100,127,115.0
1196,F5,100.943,306/125,90,115.0
1197,D5,100.943,306/125,90,115.0
1198,A4,100.943,306/125,90,115.0
1199,F#3,100.943,0.031,82,115.0
1200,E-3,100.943,0.031,82,115.0
1201,D5,100.943,1.031,101,115.0
1202,D3,100.943,1.031,101,115.0
1203,A3,100.943,1.031,101,115.0
1204,F4,101.193,0.641,120,115.0
1205,F#3,101.193,0.031,83,115.0
1206,D2,101.443,659/500,127,115.0
1207,E-3,101.443,0.031,118,115.0
1208,B1,101.443,0.031,118,115.0
1209,F#3,101.443,0.031,118,115.0
1210,F#3,101.693,0.031,80,115.0
1211,D4,101.943,0.156,115,115.0
1212,A4,101.943,0.25,102,115.0
1213,A2,101.943,0.25,102,115.0
1214,A3,101.943,0.25,102,115.0
1215,B1,101.943,0.031,106,115.0
1216,E-3,101.943,0.031,106,115.0
1217,F#3,101.943,0.031,106,115.0
1218,F#3,102.193,0.031,90,115.0
1219,C3,102.193,0.234,102,115.0
1220,C4,102.193,0.234,102,115.0
1221,C5,102.193,0.234,102,115.0
1222,E-3,102.443,0.031,123,115.0
1223,E2,102.443,0.031,123,115.0
1224,F#3,102.443,0.031,123,115.0
1225,D4,102.443,0.234,102,115.0
1226,D3,102.443,0.234,102,115.0
1227,D5,102.443,0.234,102,115.0
1228,F#3,102.693,0.031,75,115.0
1229,F3,102.693,0.234,102,115.0
1230,F4,102.693,0.234,102,115.0
1231,F5,102.693,0.234,102,115.0
1232,D3,102.943,0.25,108,115.0
1233,A1,102.943,0.25,108,115.0
1234,D5,102.943,0.25,108,115.0
1235,D4,102.943,0.25,108,115.0
1236,C3,102.943,0.031,98,115.0
1237,F#3,102.943,0.031,98,115.0
1238,F#3,103.193,0.031,86,115.0
1239,C4,103.193,0.234,102,115.0
1240,C5,103.193,0.234,102,115.0
1241,C3,103.193,0.234,102,115.0
1242,D4,103.443,4.0,110,115.0
1243,D3,103.443,0.5,107,115.0
1244,D2,103.443,659/500,127,115.0
1245,D5,103.443,181/125,90,115.0
1246,A4,103.443,181/125,90,115.0
1247,F5,103.443,181/125,90,115.0
1248,D5,103.443,181/125,90,115.0
1249,C#3,103.443,0.031,120,115.0
1250,F#3,103.443,0.031,120,115.0
1251,B1,103.443,0.031,120,115.0
1252,F#3,103.693,0.031,64,115.0
1253,D3,103.943,0.5,107,115.0
1254,E-3,103.943,0.031,66,115.0
1255,F#3,103.943,0.031,66,115.0
1256,F#3,104.193,0.031,65,115.0
1257,C3,104.443,0.5,107,115.0
1258,E2,104.443,0.031,123,115.0
1259,F#3,104.443,0.031,123,115.0
1260,E-3,104.443,0.031,123,115.0
1261,F#3,104.693,0.031,71,115.0
1262,F3,104.943,2.062,107,115.0
1263,C2,104.943,27/200,127,115.0
1264,D5,104.943,487/250,90,115.0
1265,F4,104.943,487/250,90,115.0
1266,B-4,104.943,487/250,90,115.0
1267,F5,104.943,241/250,98,115.0
1268,B-2,104.943,241/250,98,115.0
1269,F#3,104.943,0.031,80,115.0
1270,E-3,104.943,0.031,80,115.0
1271,F#3,105.193,0.031,74,115.0
1272,B-1,105.443,659/500,127,115.0
1273,F#3,105.443,0.031,117,115.0
1274,E-3,105.443,0.031,117,115.0
1275,B1,105.443,0.031,117,115.0
1276,F#3,105.693,0.031,74,115.0
1277,A2,105.943,49/100,106,115.0
1278,F5,105.943,0.984,90,115.0
1279,B1,105.943,0.031,103,115.0
1280,F#3,105.943,0.031,103,115.0
1281,E-3,105.943,0.031,103,115.0
1282,F#3,106.193,0.031,82,115.0
1283,G2,106.443,479/1000,106,115.0
1284,F#3,106.443,0.031,123,115.0
1285,E-3,106.443,0.031,123,115.0
1286,E2,106.443,0.031,123,115.0
1287,F#3,106.693,0.031,76,115.0
1288,D2,106.943,91/500,127,115.0
1289,C3,106.943,0.5,106,115.0
1290,E5,106.943,0.5,90,115.0
1291,E5,106.943,0.5,90,115.0
1292,G3,106.943,0.5,95,115.0
1293,C5,106.943,0.5,95,115.0
1294,G4,106.943,0.5,95,115.0
1295,B1,106.943,0.031,87,115.0
1296,F#3,106.943,0.031,87,115.0
1297,E-3,106.943,0.031,87,115.0
1298,F#3,107.193,0.031,68,115.0
1299,C2,107.443,659/500,127,115.0
1300,G4,107.443,443/1000,121,115.0
1301,D4,107.443,2.5,110,115.0
1302,C3,107.443,0.375,106,115.0
1303,E5,107.443,0.484,90,115.0
1304,E5,107.443,1.516,90,115.0
1305,B1,107.443,0.031,125,115.0
1306,F#3,107.443,0.031,125,115.0
1307,E-3,107.443,0.031,125,115.0
1308,G3,107.443,181/125,95,115.0
1309,C5,107.443,181/125,95,115.0
1310,G4,107.443,181/125,95,115.0
1311,F#3,107.693,0.031,75,115.0
1312,C5,107.943,0.984,90,115.0
1313,F4,107.943,23/200,94,115.0
1314,A2,107.943,0.484,106,115.0
1315,F#3,107.943,0.031,82,115.0
1316,E-3,107.943,0.031,82,115.0
1317,F#3,108.193,0.031,82,115.0
1318,C3,108.443,0.484,106,115.0
1319,G4,108.443,37/100,122,115.0
1320,E2,108.443,0.031,124,115.0
1321,F#3,108.443,0.031,124,115.0
1322,E-3,108.443,0.031,124,115.0
1323,F#3,108.693,0.031,67,115.0
1324,F#3,108.943,0.031,86,115.0
1325,E-3,108.943,0.031,86,115.0
1326,A3,108.943,1021/1000,101,115.0
1327,D5,108.943,1021/1000,101,115.0
1328,D3,108.943,1021/1000,101,115.0
1329,D5,108.943,306/125,90,115.0
1330,F5,108.943,306/125,90,115.0
1331,A4,108.943,306/125,90,115.0
1332,D2,108.943,13/100,110,115.0
1333,F4,108.943,13/100,110,115.0
1334,A4,109.193,667/1000,118,115.0
1335,E2,109.193,0.031,82,115.0
1336,F#3,109.193,0.031,82,115.0
1337,D2,109.443,659/500,127,115.0
1338,F#3,109.443,0.031,123,115.0
1339,B1,109.443,0.031,123,115.0
1340,E-3,109.443,0.031,123,115.0
1341,F#3,109.693,0.031,66,115.0
1342,E-3,109.943,0.031,106,115.0
1343,B1,109.943,0.031,106,115.0
1344,F#3,109.943,0.031,106,115.0
1345,A3,109.943,0.234,104,115.0
1346,G4,109.943,0.234,104,115.0
1347,A2,109.943,0.234,104,115.0
1348,A4,109.943,0.234,104,115.0
1349,F#3,110.193,0.031,69,115.0
1350,C5,110.193,0.25,102,115.0
1351,C3,110.193,0.25,102,115.0
1352,C4,110.193,0.25,102,115.0
1353,F4,110.443,56/125,121,115.0
1354,E2,110.443,0.031,124,115.0
1355,E-3,110.443,0.031,124,115.0
1356,F#3,110.443,0.031,124,115.0
1357,D4,110.443,0.234,102,115.0
1358,D5,110.443,0.234,102,115.0
1359,D3,110.443,0.234,102,115.0
1360,F#3,110.693,0.031,74,115.0
1361,F5,110.693,0.25,102,115.0
1362,F3,110.693,0.25,102,115.0
1363,F4,110.693,0.25,102,115.0
1364,D3,110.943,0.234,105,115.0
1365,D5,110.943,0.234,105,115.0
1366,G4,110.943,0.234,105,115.0
1367,D4,110.943,0.234,105,115.0
1368,A1,110.943,0.234,105,115.0
1369,F#3,110.943,0.031,87,115.0
1370,B1,110.943,0.031,87,115.0
1371,E-3,110.943,0.031,87,115.0
1372,F#3,111.193,0.031,76,115.0
1373,C3,111.193,0.25,102,115.0
1374,C5,111.193,0.25,102,115.0
1375,C4,111.193,0.25,102,115.0
1376,D4,111.443,4.0,108,115.0
1377,F4,111.443,6/25,114,115.0
1378,D2,111.443,659/500,127,115.0
1379,D2,111.443,181/125,97,115.0
1380,F5,111.443,181/125,97,115.0
1381,D5,111.443,181/125,97,115.0
1382,D5,111.443,181/125,97,115.0
1383,A4,111.443,181/125,97,115.0
1384,B1,111.443,0.031,125,115.0
1385,E-3,111.443,0.031,125,115.0
1386,F#3,111.443,0.031,125,115.0
1387,F#3,111.693,0.031,66,115.0
1388,D5,111.943,3.5,115,115.0
1389,F#3,111.943,0.031,82,115.0
1390,E-3,111.943,0.031,82,115.0
1391,F#3,112.193,0.031,81,115.0
1392,E-3,112.443,0.031,124,115.0
1393,F#3,112.443,0.031,124,115.0
1394,E2,112.443,0.031,124,115.0
1395,F#3,112.693,0.031,75,115.0
1396,B-1,112.943,167/1000,127,115.0
1397,F4,112.943,487/250,90,115.0
1398,D5,112.943,487/250,90,115.0
1399,B-4,112.943,487/250,90,115.0
1400,B-2,112.943,0.984,108,115.0
1401,G5,112.943,0.984,108,115.0
1402,F#3,112.943,0.031,85,115.0
1403,E-3,112.943,0.031,85,115.0
1404,F#3,113.193,0.031,84,115.0
1405,B1,113.193,0.031,84,115.0
1406,B-1,113.443,659/500,127,115.0
1407,F#3,113.443,0.031,123,115.0
1408,E-3,113.443,0.031,123,115.0
1409,B1,113.443,0.031,123,115.0
1410,F#3,113.693,0.031,78,115.0
1411,G5,113.943,0.984,90,115.0
1412,A2,113.943,0.484,127,115.0
1413,F#3,113.943,0.031,104,115.0
1414,E-3,113.943,0.031,104,115.0
1415,B1,113.943,0.031,104,115.0
1416,F#3,114.193,0.031,76,115.0
1417,G2,114.443,0.484,127,115.0
1418,E2,114.443,0.031,125,115.0
1419,F#3,114.443,0.031,125,115.0
1420,E-3,114.443,0.031,125,115.0
1421,F#3,114.693,0.031,81,115.0
1422,D2,114.943,193/1000,127,115.0
1423,E5,114.943,0.5,90,115.0
1424,G4,114.943,0.5,90,115.0
1425,C5,114.943,0.5,90,115.0
1426,B1,114.943,0.031,89,115.0
1427,E-3,114.943,0.031,89,115.0
1428,F#3,114.943,0.031,89,115.0
1429,C3,114.943,0.5,108,115.0
1430,E5,114.943,0.5,108,115.0
1431,F#3,115.193,0.031,72,115.0
1432,C2,115.443,659/500,127,115.0
1433,D4,115.443,2.0,108,115.0
1434,D5,115.443,9/250,115,115.0
1435,E-3,115.443,0.031,124,115.0
1436,B1,115.443,0.031,124,115.0
1437,F#3,115.443,0.031,124,115.0
1438,E5,115.443,487/250,90,115.0
1439,G4,115.443,487/250,90,115.0
1440,C5,115.443,487/250,90,115.0
1441,C3,115.443,0.484,108,115.0
1442,E5,115.443,0.484,108,115.0
1443,F#3,115.693,0.031,69,115.0
1444,C5,115.943,0.984,90,115.0
1445,A2,115.943,0.484,127,115.0
1446,F#3,115.943,0.031,97,115.0
1447,E-3,115.943,0.031,97,115.0
1448,F#3,116.193,0.031,86,115.0
1449,C3,116.443,0.984,127,115.0
1450,F#3,116.443,0.031,122,115.0
1451,E2,116.443,0.031,122,115.0
1452,F#3,116.693,0.031,104,115.0
1453,E2,116.693,0.031,104,115.0
1454,C5,116.943,2.5,90,115.0
1455,C2,116.943,28/125,127,115.0
1456,C3,116.943,0.031,101,115.0
1457,F#3,116.943,0.031,101,115.0
1458,F#3,117.193,0.031,83,115.0
1459,C#4,117.443,2.0,108,115.0
1460,C#2,117.443,99/125,127,115.0
1461,C#3,117.443,0.672,127,115.0
1462,E4,117.443,138/125,127,115.0
1463,G#3,117.443,138/125,127,115.0
1464,C#3,117.443,2.0,99,115.0
1465,E5,117.443,2.0,99,115.0
1466,C#5,117.443,2.0,99,115.0
1467,G#4,117.443,2.0,99,115.0
1468,B3,117.443,138/125,127,115.0
1469,G#3,117.443,138/125,127,115.0
1470,F#3,117.443,0.031,118,115.0
1471,B1,117.443,0.031,118,115.0
1472,C#3,117.443,0.031,118,115.0
1473,F#3,117.693,0.031,80,115.0
1474,F#3,117.943,0.031,80,115.0
1475,F#3,118.193,0.031,90,115.0
1476,C#2,118.443,0.594,127,115.0
1477,E2,118.443,0.031,122,115.0
1478,F#3,118.443,0.031,122,115.0
1479,B-2,118.443,0.031,122,115.0
1480,C#3,118.443,73/200,126,115.0
1481,G#4,118.443,73/200,126,115.0
1482,F#3,118.693,0.031,75,115.0
1483,G#3,118.943,56/125,125,115.0
1484,B3,118.943,56/125,125,115.0
1485,E4,118.943,56/125,125,115.0
1486,F#3,118.943,73/1000,84,115.0
1487,G#4,118.943,73/1000,84,115.0
1488,F#3,119.193,0.031,86,115.0
1489,G#4,119.193,0.25,114,115.0
1490,C#4,119.443,1.484,108,115.0
1491,C5,119.443,4401/1000,90,115.0
1492,G#4,119.443,323/1000,114,115.0
1493,F#2,119.443,0.031,127,115.0
1494,E2,119.443,0.031,127,115.0
1495,C#2,119.443,161/1000,113,115.0
1496,C#3,119.443,161/1000,113,115.0
1497,C#3,119.443,487/250,99,115.0
1498,E5,119.443,487/250,99,115.0
1499,C#5,119.443,487/250,99,115.0
1500,G#4,119.443,487/250,99,115.0
1501,C#2,119.943,112/125,125,115.0
1502,G#4,119.943,0.188,124,115.0
1503,C#3,119.943,0.188,124,115.0
1504,G#3,119.943,339/1000,116,115.0
1505,E4,119.943,339/1000,116,115.0
1506,B3,119.943,339/1000,119,115.0
1507,E4,119.943,339/1000,119,115.0
1508,F#2,119.943,0.031,92,115.0
1509,B1,119.943,0.031,92,115.0
1510,F#4,120.443,0.375,125,115.0
1511,C#3,120.443,0.156,127,115.0
1512,F#2,120.443,0.031,127,115.0
1513,F#3,120.443,0.031,127,115.0
1514,E2,120.443,0.031,127,115.0
1515,E4,120.693,0.297,127,115.0
1516,B3,120.693,69/250,127,115.0
1517,G#3,120.693,69/250,127,115.0
1518,E4,120.943,73/500,101,115.0
1519,F#1,120.943,0.438,125,115.0
1520,C#3,120.943,0.297,127,115.0
1521,B1,120.943,0.031,98,115.0
1522,F#2,120.943,0.031,98,115.0
1523,F#4,121.443,0.453,127,115.0
1524,E-5,121.443,2.0,90,115.0
1525,F#4,121.443,2.0,90,115.0
1526,B4,121.443,2.0,90,115.0
1527,G#1,121.443,401/500,126,115.0
1528,G#2,121.443,401/500,126,115.0
1529,B1,121.443,0.031,127,115.0
1530,E2,121.443,0.031,127,115.0
1531,F#2,121.443,0.031,127,115.0
1532,E-4,121.443,1.078,127,115.0
1533,F#3,121.443,1.078,127,115.0
1534,B3,121.443,1.078,127,115.0
1535,F#2,121.943,0.031,88,115.0
1536,G#4,121.943,0.203,122,115.0
1537,G#1,122.443,0.734,125,115.0
1538,G#2,122.443,823/1000,127,115.0
1539,F#3,122.443,0.031,127,115.0
1540,F#2,122.443,0.031,127,115.0
1541,E2,122.443,0.031,127,115.0
1542,F#2,122.943,0.031,88,115.0
1543,F#3,122.943,0.5,127,115.0
1544,E-4,122.943,0.5,127,115.0
1545,B3,122.943,0.5,127,115.0
1546,G#2,123.844,0.328,127,115.0
1547,G#1,123.844,0.203,125,115.0
1548,F#2,123.844,0.031,127,115.0
1549,E2,123.844,0.031,127,115.0
1550,E-5,123.844,487/250,90,115.0
1551,F#4,123.844,487/250,90,115.0
1552,B4,123.844,487/250,90,115.0
1553,F#3,123.844,73/1000,127,115.0
1554,E-4,123.844,73/1000,127,115.0
1555,B3,123.844,73/1000,127,115.0
1556,G#1,124.344,0.922,125,115.0
1557,B3,124.344,159/500,127,115.0
1558,F#3,124.344,401/1000,127,115.0
1559,B-2,124.344,0.031,104,115.0
1560,B1,124.344,0.031,104,115.0
1561,G#2,124.844,0.172,127,115.0
1562,F#2,124.844,0.031,125,115.0
1563,E2,124.844,0.031,125,115.0
1564,F#3,124.844,0.031,125,115.0
1565,E-4,125.094,0.234,125,115.0
1566,F#3,125.094,0.234,125,115.0
1567,B3,125.094,0.234,125,115.0
1568,B1,125.344,99/500,124,115.0
1569,G#2,125.344,401/1000,127,115.0
1570,B1,125.344,0.031,95,115.0
1571,F#2,125.344,0.031,95,115.0
1572,B3,125.844,573/500,127,115.0
1573,C#3,125.844,237/250,127,115.0
1574,E4,125.844,1349/1000,127,115.0
1575,E5,125.844,487/250,90,115.0
1576,B4,125.844,487/250,90,115.0
1577,G#4,125.844,487/250,90,115.0
1578,C#2,125.844,19/25,126,115.0
1579,G#3,125.844,19/25,126,115.0
1580,F#2,125.844,0.031,126,115.0
1581,B1,125.844,0.031,126,115.0
1582,E2,125.844,0.031,126,115.0
1583,F#2,126.344,0.031,92,115.0
1584,C#2,126.844,401/500,124,115.0
1585,F#2,126.844,0.031,127,115.0
1586,F#3,126.844,0.031,127,115.0
1587,E2,126.844,0.031,127,115.0
1588,G#3,126.844,37/100,120,115.0
1589,G#4,126.844,37/100,120,115.0
1590,G#4,127.344,3/25,104,115.0
1591,C#3,127.344,0.203,127,115.0
1592,F#2,127.344,0.031,88,115.0
1593,G#4,127.594,0.25,111,115.0
1594,C3,127.844,0.297,127,115.0
1595,C2,127.844,193/1000,124,115.0
1596,G#4,127.844,26/125,111,115.0
1597,E2,127.844,0.031,126,115.0
1598,F#2,127.844,0.031,126,115.0
1599,E4,127.844,99/250,127,115.0
1600,G3,127.844,99/250,127,115.0
1601,B-3,127.844,99/250,127,115.0
1602,E5,127.844,237/250,90,115.0
1603,G4,127.844,237/250,90,115.0
1604,B-4,127.844,237/250,90,115.0
1605,F#4,128.094,27/200,98,115.0
1606,C2,128.344,0.484,124,115.0
1607,C3,128.344,193/1000,110,115.0
1608,E4,128.344,193/1000,110,115.0
1609,B1,128.344,0.031,98,115.0
1610,B-2,128.344,0.031,98,115.0
1611,D3,128.844,729/1000,127,115.0
1612,D2,128.844,13/50,124,115.0
1613,E4,128.844,0.391,123,115.0
1614,C5,128.844,237/250,90,115.0
1615,F#5,128.844,237/250,90,115.0
1616,A4,128.844,237/250,90,115.0
1617,F#4,128.844,69/125,127,115.0
1618,C4,128.844,69/125,127,115.0
1619,A3,128.844,69/125,127,115.0
1620,F#3,128.844,0.031,125,115.0
1621,E2,128.844,0.031,125,115.0
1622,F#2,128.844,0.031,125,115.0
1623,B1,129.344,0.031,98,115.0
1624,F#2,129.344,0.031,98,115.0
1625,F#4,129.344,99/500,120,115.0
1626,D2,129.344,99/500,120,115.0
1627,E4,129.844,357/500,127,115.0
1628,D4,129.844,393/500,126,115.0
1629,B3,129.844,393/500,126,115.0
1630,E3,129.844,393/500,126,115.0
1631,E2,129.844,393/500,126,115.0
1632,B1,129.844,0.031,122,115.0
1633,F#2,129.844,0.031,122,115.0
1634,G#4,129.844,0.031,122,115.0
1635,E2,129.844,0.031,122,115.0
1636,B4,129.844,2.0,90,115.0
1637,G#5,129.844,2.0,90,115.0
1638,D5,129.844,2.0,90,115.0
1639,F#2,130.344,0.031,87,115.0
1640,C#4,130.594,0.125,100,115.0
1641,E2,130.844,149/200,124,115.0
1642,E3,130.844,443/1000,127,115.0
1643,B3,130.844,193/1000,120,115.0
1644,B3,130.844,193/1000,120,115.0
1645,E2,130.844,0.031,127,115.0
1646,F#3,130.844,0.031,127,115.0
1647,F#2,130.844,0.031,127,115.0
1648,F#2,131.344,0.031,120,115.0
1649,B3,131.344,99/250,127,115.0
1650,G#4,131.344,99/250,127,115.0
1651,D4,131.344,99/250,127,115.0
1652,B1,131.594,0.141,124,115.0
1653,E2,131.594,0.031,89,115.0
1654,B1,131.844,0.031,124,115.0
1655,E2,131.844,0.031,124,115.0
1656,E3,131.844,49/200,126,115.0
1657,E1,131.844,49/200,126,115.0
1658,B4,131.844,487/250,90,115.0
1659,G#5,131.844,487/250,90,115.0
1660,D5,131.844,487/250,90,115.0
1661,C3,132.344,0.031,120,115.0
1662,E1,132.344,0.984,124,115.0
1663,B3,132.344,69/250,127,115.0
1664,E3,132.344,69/250,127,115.0
1665,D4,132.844,0.188,119,115.0
1666,B3,132.844,13/125,92,115.0
1667,E2,132.844,0.031,115,115.0
1668,B1,132.844,0.031,115,115.0
1669,D2,132.844,0.031,115,115.0
1670,F#3,132.844,0.031,115,115.0
1671,B3,133.094,99/500,119,115.0
1672,D4,133.094,0.031,120,115.0
1673,E2,133.094,0.031,120,115.0
1674,G#1,133.344,0.188,124,115.0
1675,A2,133.344,0.031,127,115.0
1676,E3,133.344,3/25,127,115.0
1677,A3,133.844,0.328,127,115.0
1678,F#1,133.844,0.953,124,115.0
1679,C#3,133.844,0.031,127,115.0
1680,B1,133.844,0.031,127,115.0
1681,A4,133.844,483/250,90,115.0
1682,E5,133.844,483/250,90,115.0
1683,F#2,133.844,0.562,127,115.0
1684,E4,133.844,0.562,127,115.0
1685,A3,134.344,91/500,119,115.0
1686,C#4,134.594,13/125,101,115.0
1687,A3,134.594,69/250,127,115.0
1688,E4,134.594,69/250,127,115.0
1689,F#2,134.844,99/500,127,115.0
1690,G#1,134.844,229/500,124,115.0
1691,E4,134.844,0.031,124,115.0
1692,E2,134.844,0.031,124,115.0
1693,F#3,134.844,0.031,124,115.0
1694,F#2,134.844,0.031,124,115.0
1695,E4,135.094,51/100,123,115.0
1696,A3,135.094,51/100,123,115.0
1697,F#2,135.344,0.031,90,115.0
1698,A1,135.344,0.219,112,115.0
1699,E4,135.344,0.219,112,115.0
1700,F#2,135.344,0.219,112,115.0
1701,B1,135.844,0.484,124,115.0
1702,E-4,135.844,0.656,127,115.0
1703,B2,135.844,151/200,127,115.0
1704,F#5,135.844,487/250,90,115.0
1705,E-5,135.844,487/250,90,115.0
1706,B4,135.844,487/250,90,115.0
1707,F#2,135.844,0.031,127,115.0
1708,E2,135.844,0.031,127,115.0
1709,A3,135.844,73/250,123,115.0
1710,F#4,135.844,73/250,123,115.0
1711,B1,136.344,0.484,124,115.0
1712,A3,136.344,323/1000,119,115.0
1713,F#2,136.344,0.031,104,115.0
1714,B1,136.344,0.031,104,115.0
1715,C#2,136.844,56/125,124,115.0
1716,B2,136.844,13/50,127,115.0
1717,F#2,136.844,0.031,127,115.0
1718,F#3,136.844,0.031,127,115.0
1719,E2,136.844,0.031,127,115.0
1720,A3,137.344,161/1000,111,115.0
1721,B1,137.344,307/1000,125,115.0
1722,B2,137.344,307/1000,125,115.0
1723,F#2,137.344,0.031,95,115.0
1724,B1,137.344,0.031,95,115.0
1725,G#4,137.844,0.312,126,115.0
1726,E3,137.844,0.672,127,115.0
1727,E2,137.844,0.984,123,115.0
1728,F#2,137.844,0.031,127,115.0
1729,E2,137.844,0.031,127,115.0
1730,B1,137.844,0.031,127,115.0
1731,B4,137.844,483/250,90,115.0
1732,G#5,137.844,483/250,90,115.0
1733,E5,137.844,483/250,90,115.0
1734,G#4,138.344,13/100,104,115.0
1735,F#2,138.344,0.031,94,115.0
1736,B3,138.344,521/1000,127,115.0
1737,E4,138.344,521/1000,127,115.0
1738,G#4,138.344,521/1000,127,115.0
1739,F#4,138.594,0.641,127,115.0
1740,E3,138.844,0.172,119,115.0
1741,G#1,138.844,0.375,123,115.0
1742,F#3,138.844,0.031,127,115.0
1743,F#2,138.844,0.031,127,115.0
1744,E2,138.844,0.031,127,115.0
1745,E4,139.094,13/125,119,115.0
1746,B3,139.094,0.219,127,115.0
1747,F#2,139.344,0.031,83,115.0
1748,E4,139.344,151/1000,110,115.0
1749,E3,139.344,0.328,125,115.0
1750,B1,139.344,0.328,125,115.0
1751,E4,139.844,0.203,120,115.0
1752,A3,139.844,323/1000,127,115.0
1753,A1,139.844,0.969,123,115.0
1754,A2,139.844,0.844,127,115.0
1755,E5,139.844,893/500,90,115.0
1756,C#5,139.844,487/250,90,115.0
1757,A4,139.844,487/250,90,115.0
1758,E4,139.844,0.422,127,115.0
1759,C#4,139.844,0.422,127,115.0
1760,E2,139.844,0.031,126,115.0
1761,F#2,139.844,0.031,126,115.0
1762,F#4,140.094,0.141,106,115.0
1763,B3,140.344,151/500,127,115.0
1764,C#4,140.344,49/100,113,115.0
1765,B1,140.344,0.031,113,115.0
1766,B-2,140.344,0.031,113,115.0
1767,C#4,140.594,333/1000,127,115.0
1768,A2,140.844,28/125,111,115.0
1769,C#2,140.844,37/100,123,115.0
1770,F#3,140.844,0.031,127,115.0
1771,E2,140.844,0.031,127,115.0
1772,F#2,140.844,0.031,127,115.0
1773,E4,141.094,0.344,127,115.0
1774,E2,141.344,0.281,123,115.0
1775,B1,141.344,0.031,106,115.0
1776,F#2,141.344,0.031,106,115.0
1777,A3,141.844,1099/1000,119,115.0
1778,F#2,141.844,487/500,123,115.0
1779,C#5,141.844,487/250,90,115.0
1780,E5,141.844,487/250,90,115.0
1781,A4,141.844,487/250,90,115.0
1782,F#2,141.844,0.031,127,115.0
1783,E2,141.844,0.031,127,115.0
1784,B1,141.844,0.031,127,115.0
1785,F#2,141.844,521/1000,127,115.0
1786,E4,141.844,521/1000,127,115.0
1787,F#2,142.344,0.031,84,115.0
1788,E4,142.594,0.094,111,115.0
1789,F#1,142.844,479/1000,123,115.0
1790,E4,142.844,333/1000,114,115.0
1791,F#2,142.844,0.219,127,115.0
1792,F#3,142.844,0.031,127,115.0
1793,E2,142.844,0.031,127,115.0
1794,F#2,142.844,0.031,127,115.0
1795,A3,143.094,13/50,127,115.0
1796,F#2,143.344,0.031,92,115.0
1797,F#2,143.344,6/25,119,115.0
1798,A1,143.344,6/25,119,115.0
1799,E4,143.344,6/25,119,115.0
1800,A3,143.844,0.422,127,115.0
1801,B1,143.844,173/200,123,115.0
1802,B4,143.844,487/250,90,115.0
1803,E-5,143.844,487/250,90,115.0
1804,F#5,143.844,487/250,90,115.0
1805,B2,143.844,0.641,127,115.0
1806,E-4,143.844,0.641,127,115.0
1807,F#4,143.844,0.641,127,115.0
1808,F#2,143.844,0.031,127,115.0
1809,E2,143.844,0.031,127,115.0
1810,A3,144.344,0.453,127,115.0
1811,B-2,144.344,0.031,111,115.0
1812,B1,144.344,0.031,111,115.0
1813,G#4,144.594,161/1000,98,115.0
1814,E-4,144.594,161/1000,98,115.0
1815,B2,144.844,0.219,127,115.0
1816,E-2,144.844,99/250,125,115.0
1817,F#4,144.844,99/250,125,115.0
1818,F#3,144.844,0.031,127,115.0
1819,E2,144.844,0.031,127,115.0
1820,F#2,144.844,0.031,127,115.0
1821,F#2,145.344,323/1000,125,115.0
1822,B2,145.344,323/1000,125,115.0
1823,B1,145.344,0.031,107,115.0
1824,F#2,145.344,0.031,107,115.0
1825,B3,145.344,161/1000,108,115.0
1826,E4,145.344,161/1000,108,115.0
1827,E4,145.844,151/200,127,115.0
1828,B3,145.844,0.344,127,115.0
1829,F#2,145.844,0.031,127,115.0
1830,E2,145.844,0.031,127,115.0
1831,B1,145.844,0.031,127,115.0
1832,E4,145.844,729/1000,126,115.0
1833,E3,145.844,729/1000,126,115.0
1834,E2,145.844,0.859,125,115.0
1835,G#4,145.844,0.859,125,115.0
1836,E5,145.844,483/250,90,115.0
1837,G#4,145.844,483/250,90,115.0
1838,F#2,146.344,0.031,127,115.0
1839,B3,146.344,0.672,127,115.0
1840,G#1,146.844,479/1000,123,115.0
1841,E3,146.844,99/500,127,115.0
1842,E2,146.844,0.031,126,115.0
1843,F#3,146.844,0.031,126,115.0
1844,E2,147.094,0.031,115,115.0
1845,B1,147.344,0.031,109,115.0
1846,B1,147.344,411/1000,123,115.0
1847,E3,147.344,23/200,127,115.0
1848,B1,147.594,0.031,127,115.0
1849,A4,147.844,1693/1000,126,115.0
1850,A1,147.844,0.5,123,115.0
1851,A3,147.844,161/1000,118,115.0
1852,G3,147.844,161/1000,118,115.0
1853,E5,147.844,161/1000,118,115.0
1854,C#4,147.844,161/1000,118,115.0
1855,A5,147.844,271/1000,108,115.0
1856,A2,147.844,271/1000,108,115.0
1857,F#3,147.844,0.094,115,115.0
1858,E2,147.844,0.094,115,115.0
1859,E5,147.844,0.094,115,115.0
1860,A4,148.344,0.25,102,115.0
1861,A2,148.344,0.25,102,115.0
1862,A3,148.344,0.25,102,115.0
1863,C4,148.594,0.234,102,115.0
1864,C5,148.594,0.234,102,115.0
1865,C3,148.594,0.234,102,115.0
1866,D4,148.844,0.234,102,115.0
1867,D3,148.844,0.234,102,115.0
1868,D5,148.844,0.234,102,115.0
1869,F3,149.094,0.25,102,115.0
1870,F5,149.094,0.25,102,115.0
1871,F4,149.094,0.25,102,115.0
1872,D3,149.344,0.25,102,115.0
1873,D5,149.344,0.25,102,115.0
1874,D4,149.344,0.25,102,115.0
1875,C3,149.594,0.266,102,115.0
1876,C4,149.594,0.266,102,115.0
1877,C5,149.594,0.266,102,115.0
1878,D4,149.844,2.0,110,115.0
1879,D2,149.844,659/500,127,115.0
1880,A4,149.844,13/50,113,115.0
1881,D3,149.844,0.5,107,115.0
1882,B1,149.844,0.031,120,115.0
1883,C#3,149.844,0.031,120,115.0
1884,F#3,149.844,0.031,120,115.0
1885,D5,149.844,181/125,90,115.0
1886,D5,149.844,181/125,90,115.0
1887,A4,149.844,181/125,90,115.0
1888,F5,149.844,181/125,90,115.0
1889,G4,150.094,193/1000,110,115.0
1890,F#3,150.094,0.031,64,115.0
1891,D3,150.344,0.5,107,115.0
1892,F4,150.344,0.203,118,115.0
1893,F#3,150.344,0.031,57,115.0
1894,F#3,150.594,0.031,65,115.0
1895,C3,150.844,0.5,107,115.0
1896,F#3,150.844,0.031,123,115.0
1897,E-3,150.844,0.031,123,115.0
1898,E2,150.844,0.031,123,115.0
1899,F#3,151.094,0.031,71,115.0
1900,F3,151.344,0.5,107,115.0
1901,C2,151.344,99/500,127,115.0
1902,B-2,151.344,0.5,98,115.0
1903,F5,151.344,0.5,98,115.0
1904,F#3,151.344,0.031,78,115.0
1905,E-3,151.344,0.031,78,115.0
1906,B-4,151.344,0.5,90,115.0
1907,F4,151.344,0.5,90,115.0
1908,D5,151.344,0.5,90,115.0
1909,F#3,151.594,0.031,78,115.0
1910,E2,151.594,0.031,78,115.0
1911,B-1,151.844,659/500,127,115.0
1912,D4,151.844,4.5,110,115.0
1913,F3,151.844,1.562,107,115.0
1914,E-3,151.844,0.031,120,115.0
1915,B1,151.844,0.031,120,115.0
1916,F#3,151.844,0.031,120,115.0
1917,B-2,151.844,0.484,98,115.0
1918,F5,151.844,0.484,98,115.0
1919,B-4,151.844,1.469,90,115.0
1920,F4,151.844,1.469,90,115.0
1921,D5,151.844,1.469,90,115.0
1922,F#3,152.094,0.031,74,115.0
1923,F5,152.344,0.984,90,115.0
1924,A2,152.344,49/100,106,115.0
1925,B1,152.344,0.031,100,115.0
1926,F#3,152.344,0.031,100,115.0
1927,E-3,152.344,0.031,100,115.0
1928,F#3,152.594,0.031,82,115.0
1929,G2,152.844,479/1000,106,115.0
1930,E2,152.844,0.031,124,115.0
1931,E-3,152.844,0.031,124,115.0
1932,F#3,152.844,0.031,124,115.0
1933,F#3,153.094,0.031,76,115.0
1934,C3,153.344,0.875,106,115.0
1935,E5,153.344,0.984,90,115.0
1936,D2,153.344,0.188,127,115.0
1937,E5,153.344,2.016,90,115.0
1938,E-3,153.344,0.031,85,115.0
1939,F#3,153.344,0.031,85,115.0
1940,B1,153.344,0.031,85,115.0
1941,C5,153.344,1.938,95,115.0
1942,G4,153.344,1.938,95,115.0
1943,G3,153.344,1.938,95,115.0
1944,F#3,153.594,83/1000,86,115.0
1945,F4,153.594,83/1000,86,115.0
1946,G4,153.844,237/500,127,115.0
1947,C2,153.844,659/500,127,115.0
1948,B1,153.844,0.031,125,115.0
1949,E-3,153.844,0.031,125,115.0
1950,F#3,153.844,0.031,125,115.0
1951,F#3,154.094,0.031,75,115.0
1952,C5,154.344,0.984,90,115.0
1953,A2,154.344,0.484,106,115.0
1954,F4,154.344,0.031,80,115.0
1955,E-3,154.344,0.031,80,115.0
1956,F#3,154.344,0.031,80,115.0
1957,F#3,154.594,0.031,82,115.0
1958,G4,154.594,6/25,115,115.0
1959,C3,154.844,0.484,106,115.0
1960,F#3,154.844,0.031,124,115.0
1961,E2,154.844,0.031,124,115.0
1962,E-3,154.844,0.031,124,115.0
1963,G4,155.094,99/500,122,115.0
1964,F#3,155.094,0.031,67,115.0
1965,D2,155.344,177/1000,127,115.0
1966,A3,155.344,0.5,101,115.0
1967,D3,155.344,0.5,101,115.0
1968,D5,155.344,0.5,101,115.0
1969,F#3,155.344,0.031,84,115.0
1970,E-3,155.344,0.031,84,115.0
1971,A4,155.344,0.5,90,115.0
1972,D5,155.344,0.5,90,115.0
1973,F5,155.344,0.5,90,115.0
1974,A4,155.594,0.25,118,115.0
1975,F#3,155.594,0.031,74,115.0
1976,E2,155.594,0.031,74,115.0
1977,D2,156.344,659/500,127,115.0
1978,A4,156.344,54/125,118,115.0
1979,E-3,156.344,0.031,124,115.0
1980,B1,156.344,0.031,124,115.0
1981,F#3,156.344,0.031,124,115.0
1982,A3,156.344,0.484,101,115.0
1983,D3,156.344,0.484,101,115.0
1984,D5,156.344,0.484,101,115.0
1985,A4,156.344,487/250,90,115.0
1986,D5,156.344,487/250,90,115.0
1987,F5,156.344,487/250,90,115.0
1988,F#3,156.594,0.031,66,115.0
1989,E-3,156.844,0.031,106,115.0
1990,F#3,156.844,0.031,106,115.0
1991,B1,156.844,0.031,106,115.0
1992,A3,156.844,0.234,102,115.0
1993,A2,156.844,0.234,102,115.0
1994,A4,156.844,0.234,102,115.0
1995,F#3,157.094,0.031,69,115.0
1996,C3,157.094,0.234,102,115.0
1997,C4,157.094,0.234,102,115.0
1998,C5,157.094,0.234,102,115.0
1999,D4,157.344,0.234,102,115.0
2000,D5,157.344,0.234,102,115.0
2001,D3,157.344,0.234,102,115.0
2002,F#3,157.344,0.031,124,115.0
2003,E-3,157.344,0.031,124,115.0
2004,E2,157.344,0.031,124,115.0
2005,F#3,157.594,0.031,74,115.0
2006,F4,157.594,0.234,102,115.0
2007,F5,157.594,0.234,102,115.0
2008,F3,157.594,0.234,102,115.0
2009,A1,157.844,0.359,127,115.0
2010,D5,157.844,0.25,102,115.0
2011,D3,157.844,0.25,102,115.0
2012,D4,157.844,0.25,102,115.0
2013,B1,157.844,0.031,91,115.0
2014,E-3,157.844,0.031,91,115.0
2015,F#3,157.844,0.031,91,115.0
2016,F#3,158.094,0.031,76,115.0
2017,C5,158.094,0.234,102,115.0
2018,C4,158.094,0.234,102,115.0
2019,C3,158.094,0.234,102,115.0
2020,D2,158.344,659/500,127,115.0
2021,D4,158.344,2.0,108,115.0
2022,D3,158.344,0.5,107,115.0
2023,F5,158.344,1.484,90,115.0
2024,A4,158.344,1.484,90,115.0
2025,D5,158.344,1.484,90,115.0
2026,D5,158.344,1.484,90,115.0
2027,B1,158.344,0.031,124,115.0
2028,F#3,158.344,0.031,124,115.0
2029,E-3,158.344,0.031,124,115.0
2030,F#3,158.594,0.031,66,115.0
2031,D3,158.844,0.5,107,115.0
2032,F#3,158.844,0.031,77,115.0
2033,E-3,158.844,0.031,77,115.0
2034,F#3,159.094,0.031,81,115.0
2035,C3,159.344,0.5,107,115.0
2036,E-3,159.344,0.031,124,115.0
2037,F#3,159.344,0.031,124,115.0
2038,E2,159.344,0.031,124,115.0
2039,F#3,159.594,0.031,75,115.0
2040,C2,159.844,0.172,127,115.0
2041,F3,159.844,0.5,107,115.0
2042,B-4,159.844,0.5,90,115.0
2043,D5,159.844,0.5,90,115.0
2044,F4,159.844,0.5,90,115.0
2045,G5,159.844,0.5,98,115.0
2046,B-2,159.844,0.5,98,115.0
2047,F#3,159.844,0.031,82,115.0
2048,E-3,159.844,0.031,82,115.0
2049,E2,160.094,0.031,78,115.0
2050,F#3,160.094,0.031,78,115.0
2051,B-1,160.344,659/500,127,115.0
2052,D4,160.344,4.5,108,115.0
2053,F3,160.344,1.562,107,115.0
2054,B1,160.344,0.031,122,115.0
2055,F#3,160.344,0.031,122,115.0
2056,E-3,160.344,0.031,122,115.0
2057,B-4,160.344,181/125,90,115.0
2058,D5,160.344,181/125,90,115.0
2059,F4,160.344,181/125,90,115.0
2060,G5,160.344,58/125,98,115.0
2061,B-2,160.344,58/125,98,115.0
2062,F#3,160.594,0.031,78,115.0
2063,A2,160.844,49/100,106,115.0
2064,G5,160.844,513/500,90,115.0
2065,B1,160.844,0.031,94,115.0
2066,F#3,160.844,0.031,94,115.0
2067,E-3,160.844,0.031,94,115.0
2068,F#3,161.094,0.031,76,115.0
2069,G2,161.344,479/1000,106,115.0
2070,E-3,161.344,0.031,125,115.0
2071,F#3,161.344,0.031,125,115.0
2072,E2,161.344,0.031,125,115.0
2073,F#3,161.594,0.031,81,115.0
2074,C3,161.844,0.875,106,115.0
2075,E5,161.844,2.016,90,115.0
2076,D2,161.844,0.203,127,115.0
2077,E5,161.844,0.984,90,115.0
2078,G4,161.844,1.938,95,115.0
2079,C5,161.844,1.938,95,115.0
2080,G3,161.844,1.938,95,115.0
2081,B1,161.844,0.031,83,115.0
2082,F#3,161.844,0.031,83,115.0
2083,E-3,161.844,0.031,83,115.0
2084,F#3,162.094,0.031,72,115.0
2085,C2,162.344,659/500,127,115.0
2086,G4,162.344,91/500,111,115.0
2087,E-3,162.344,0.031,124,115.0
2088,F#3,162.344,0.031,124,115.0
2089,B1,162.344,0.031,124,115.0
2090,F#3,162.594,0.031,69,115.0
2091,F4,162.594,161/1000,114,115.0
2092,C5,162.844,0.984,90,115.0
2093,A2,162.844,0.484,106,115.0
2094,E-3,162.844,0.031,79,115.0
2095,F#3,162.844,0.031,79,115.0
2096,G4,163.094,26/125,124,115.0
2097,F#3,163.094,0.031,86,115.0
2098,C3,163.344,0.484,106,115.0
2099,E-3,163.344,0.031,123,115.0
2100,F#3,163.344,0.031,123,115.0
2101,E2,163.344,0.031,123,115.0
2102,F#3,163.594,0.031,86,115.0
2103,G4,163.594,0.219,124,115.0
2104,E2,163.844,13/100,127,115.0
2105,F#3,163.844,0.031,82,115.0
2106,E-3,163.844,0.031,82,115.0
2107,F5,163.844,0.5,90,115.0
2108,D5,163.844,0.5,90,115.0
2109,A4,163.844,0.5,90,115.0
2110,A3,163.844,0.5,101,115.0
2111,D5,163.844,0.5,101,115.0
2112,D3,163.844,0.5,101,115.0
2113,F4,164.094,0.25,120,115.0
2114,F#3,164.094,0.031,83,115.0
2115,D2,164.844,659/500,127,115.0
2116,F4,164.844,0.391,120,115.0
2117,F#3,164.844,0.031,118,115.0
2118,B1,164.844,0.031,118,115.0
2119,E-3,164.844,0.031,118,115.0
2120,F5,164.844,487/250,90,115.0
2121,D5,164.844,487/250,90,115.0
2122,A4,164.844,487/250,90,115.0
2123,A3,164.844,521/1000,101,115.0
2124,D5,164.844,521/1000,101,115.0
2125,D3,164.844,521/1000,101,115.0
2126,F#3,165.094,0.031,80,115.0
2127,D4,165.344,0.156,115,115.0
2128,A4,165.344,6/25,102,115.0
2129,A3,165.344,6/25,102,115.0
2130,A2,165.344,6/25,102,115.0
2131,E-3,165.344,0.031,106,115.0
2132,F#3,165.344,0.031,106,115.0
2133,B1,165.344,0.031,106,115.0
2134,F#3,165.594,0.031,90,115.0
2135,C4,165.594,0.234,102,115.0
2136,C3,165.594,0.234,102,115.0
2137,C5,165.594,0.234,102,115.0
2138,D3,165.844,0.25,102,115.0
2139,D5,165.844,0.25,102,115.0
2140,D4,165.844,0.25,102,115.0
2141,E2,165.844,0.031,123,115.0
2142,F#3,165.844,0.031,123,115.0
2143,E-3,165.844,0.031,123,115.0
2144,F#3,166.094,0.031,75,115.0
2145,F5,166.094,0.25,102,115.0
2146,F3,166.094,0.25,102,115.0
2147,F4,166.094,0.25,102,115.0
2148,F#3,166.344,0.031,98,115.0
2149,C3,166.344,0.031,98,115.0
2150,D4,166.344,0.234,108,115.0
2151,D3,166.344,0.234,108,115.0
2152,A1,166.344,0.234,108,115.0
2153,D5,166.344,0.234,108,115.0
2154,F#3,166.594,0.031,86,115.0
2155,C4,166.594,0.234,102,115.0
2156,C5,166.594,0.234,102,115.0
2157,C3,166.594,0.234,102,115.0
2158,D4,166.844,2.0,110,115.0
2159,D2,166.844,659/500,127,115.0
2160,D3,166.844,0.5,107,115.0
2161,B1,166.844,0.031,120,115.0
2162,C#3,166.844,0.031,120,115.0
2163,F#3,166.844,0.031,120,115.0
2164,D5,166.844,181/125,90,115.0
2165,F5,166.844,181/125,90,115.0
2166,A4,166.844,181/125,90,115.0
2167,D5,166.844,181/125,90,115.0
2168,F#3,167.094,0.031,64,115.0
2169,D3,167.344,0.5,107,115.0
2170,E-3,167.344,0.031,66,115.0
2171,F#3,167.344,0.031,66,115.0
2172,F#3,167.594,0.031,65,115.0
2173,C3,167.844,0.5,107,115.0
2174,F#3,167.844,0.031,123,115.0
2175,E-3,167.844,0.031,123,115.0
2176,E2,167.844,0.031,123,115.0
2177,F#3,168.094,0.031,71,115.0
2178,F3,168.344,0.5,107,115.0
2179,C2,168.344,27/200,127,115.0
2180,B-4,168.344,0.5,90,115.0
2181,D5,168.344,0.5,90,115.0
2182,F4,168.344,0.5,90,115.0
2183,F#3,168.344,0.031,80,115.0
2184,E-3,168.344,0.031,80,115.0
2185,B-2,168.344,0.5,98,115.0
2186,F5,168.344,0.5,98,115.0
2187,F#3,168.594,0.031,74,115.0
2188,B-1,168.844,659/500,127,115.0
2189,D4,168.844,4.5,110,115.0
2190,F3,168.844,1.562,107,115.0
2191,F#3,168.844,0.031,117,115.0
2192,E-3,168.844,0.031,117,115.0
2193,B1,168.844,0.031,117,115.0
2194,B-4,168.844,181/125,90,115.0
2195,D5,168.844,181/125,90,115.0
2196,F4,168.844,181/125,90,115.0
2197,B-2,168.844,0.484,98,115.0
2198,F5,168.844,0.484,98,115.0
2199,F#3,169.094,0.031,74,115.0
2200,F5,169.344,0.984,90,115.0
2201,A2,169.344,49/100,106,115.0
2202,E-3,169.344,0.031,103,115.0
2203,B1,169.344,0.031,103,115.0
2204,F#3,169.344,0.031,103,115.0
2205,F#3,169.594,0.031,82,115.0
2206,G2,169.844,479/1000,106,115.0
2207,E-3,169.844,0.031,123,115.0
2208,E2,169.844,0.031,123,115.0
2209,F#3,169.844,0.031,123,115.0
2210,F#3,170.094,0.031,76,115.0
2211,E5,170.344,0.984,90,115.0
2212,C3,170.344,0.875,106,115.0
2213,D2,170.344,91/500,127,115.0
2214,E5,170.344,2.016,90,115.0
2215,E-3,170.344,0.031,87,115.0
2216,F#3,170.344,0.031,87,115.0
2217,B1,170.344,0.031,87,115.0
2218,G3,170.344,487/250,95,115.0
2219,G4,170.344,487/250,95,115.0
2220,C5,170.344,487/250,95,115.0
2221,F#3,170.594,0.031,68,115.0
2222,G4,170.844,443/1000,121,115.0
2223,C2,170.844,659/500,127,115.0
2224,F#3,170.844,0.031,125,115.0
2225,E-3,170.844,0.031,125,115.0
2226,B1,170.844,0.031,125,115.0
2227,F#3,171.094,0.031,75,115.0
2228,A2,171.344,0.484,106,115.0
2229,F4,171.344,23/200,94,115.0
2230,C5,171.344,0.984,90,115.0
2231,F#3,171.344,0.031,82,115.0
2232,E-3,171.344,0.031,82,115.0
2233,F#3,171.594,0.031,82,115.0
2234,C3,171.844,0.484,106,115.0
2235,G4,171.844,37/100,122,115.0
2236,E-3,171.844,0.031,124,115.0
2237,E2,171.844,0.031,124,115.0
2238,F#3,171.844,0.031,124,115.0
2239,F#3,172.094,0.031,67,115.0
2240,A4,172.344,0.5,90,115.0
2241,F5,172.344,0.5,90,115.0
2242,D5,172.344,0.5,90,115.0
2243,D3,172.344,0.5,101,115.0
2244,D5,172.344,0.5,101,115.0
2245,A3,172.344,0.5,101,115.0
2246,D2,172.344,13/100,110,115.0
2247,F4,172.344,13/100,110,115.0
2248,F#3,172.344,0.031,86,115.0
2249,E-3,172.344,0.031,86,115.0
2250,A4,172.594,0.25,118,115.0
2251,F#3,172.594,0.031,82,115.0
2252,E2,172.594,0.031,82,115.0
2253,D2,173.344,659/500,127,115.0
2254,A4,173.344,417/1000,118,115.0
2255,B1,173.344,0.031,123,115.0
2256,E-3,173.344,0.031,123,115.0
2257,F#3,173.344,0.031,123,115.0
2258,A4,173.344,487/250,90,115.0
2259,F5,173.344,487/250,90,115.0
2260,D5,173.344,487/250,90,115.0
2261,D3,173.344,0.531,101,115.0
2262,D5,173.344,0.531,101,115.0
2263,A3,173.344,0.531,101,115.0
2264,F#3,173.594,0.031,66,115.0
2265,B1,173.844,0.031,106,115.0
2266,E-3,173.844,0.031,106,115.0
2267,F#3,173.844,0.031,106,115.0
2268,A2,173.844,0.234,104,115.0
2269,A3,173.844,0.234,104,115.0
2270,G4,173.844,0.234,104,115.0
2271,A4,173.844,0.234,104,115.0
2272,F#3,174.094,0.031,69,115.0
2273,C3,174.094,0.234,102,115.0
2274,C4,174.094,0.234,102,115.0
2275,C5,174.094,0.234,102,115.0
2276,F4,174.344,56/125,121,115.0
2277,F#3,174.344,0.031,124,115.0
2278,E2,174.344,0.031,124,115.0
2279,E-3,174.344,0.031,124,115.0
2280,D4,174.344,0.234,102,115.0
2281,D3,174.344,0.234,102,115.0
2282,D5,174.344,0.234,102,115.0
2283,F#3,174.594,0.031,74,115.0
2284,F3,174.594,51/200,102,115.0
2285,F4,174.594,51/200,102,115.0
2286,F5,174.594,51/200,102,115.0
2287,D4,174.844,0.234,106,115.0
2288,A1,174.844,0.234,106,115.0
2289,D5,174.844,0.234,106,115.0
2290,D3,174.844,0.234,106,115.0
2291,G4,174.844,0.234,104,115.0
2292,D3,174.844,0.234,104,115.0
2293,B1,174.844,0.031,87,115.0
2294,F#3,174.844,0.031,87,115.0
2295,E-3,174.844,0.031,87,115.0
2296,F#3,175.094,0.031,76,115.0
2297,C4,175.094,0.234,102,115.0
2298,C5,175.094,0.234,102,115.0
2299,C3,175.094,0.234,102,115.0
2300,F4,175.344,6/25,114,115.0
2301,D4,175.344,2.0,108,115.0
2302,D2,175.344,659/500,127,115.0
2303,E-3,175.344,0.031,125,115.0
2304,F#3,175.344,0.031,125,115.0
2305,B1,175.344,0.031,125,115.0
2306,F5,175.344,181/125,97,115.0
2307,D2,175.344,181/125,97,115.0
2308,D5,175.344,181/125,97,115.0
2309,D5,175.344,181/125,97,115.0
2310,A4,175.344,181/125,97,115.0
2311,F#3,175.594,0.031,66,115.0
2312,D5,175.844,1.5,115,115.0
2313,F#3,175.844,0.031,82,115.0
2314,E-3,175.844,0.031,82,115.0
2315,F#3,176.094,0.031,81,115.0
2316,F#3,176.344,0.031,124,115.0
2317,E2,176.344,0.031,124,115.0
2318,E-3,176.344,0.031,124,115.0
2319,F#3,176.594,0.031,75,115.0
2320,B-1,176.844,167/1000,127,115.0
2321,B-4,176.844,0.5,90,115.0
2322,F4,176.844,0.5,90,115.0
2323,D5,176.844,0.5,90,115.0
2324,F#3,176.844,0.031,85,115.0
2325,E-3,176.844,0.031,85,115.0
2326,G5,176.844,0.5,108,115.0
2327,B-2,176.844,0.5,108,115.0
2328,B1,177.094,0.031,84,115.0
2329,F#3,177.094,0.031,84,115.0
2330,B-1,177.344,659/500,127,115.0
2331,D5,177.344,509/250,115,115.0
2332,D4,177.344,3.984,108,115.0
2333,F#3,177.344,0.031,123,115.0
2334,E-3,177.344,0.031,123,115.0
2335,B1,177.344,0.031,123,115.0
2336,B-4,177.344,1.469,90,115.0
2337,F4,177.344,1.469,90,115.0
2338,D5,177.344,1.469,90,115.0
2339,G5,177.344,521/1000,108,115.0
2340,B-2,177.344,521/1000,108,115.0
2341,F#3,177.594,0.031,78,115.0
2342,A2,177.844,0.484,127,115.0
2343,G5,177.844,0.984,90,115.0
2344,B1,177.844,0.031,104,115.0
2345,E-3,177.844,0.031,104,115.0
2346,F#3,177.844,0.031,104,115.0
2347,F#3,178.094,0.031,76,115.0
2348,G2,178.344,0.484,127,115.0
2349,E2,178.344,0.031,125,115.0
2350,E-3,178.344,0.031,125,115.0
2351,F#3,178.344,0.031,125,115.0
2352,F#3,178.594,0.031,81,115.0
2353,D2,178.844,193/1000,127,115.0
2354,C3,178.844,0.984,108,115.0
2355,E5,178.844,0.984,108,115.0
2356,E5,178.844,306/125,90,115.0
2357,C5,178.844,306/125,90,115.0
2358,G4,178.844,306/125,90,115.0
2359,B1,178.844,0.031,89,115.0
2360,E-3,178.844,0.031,89,115.0
2361,F#3,178.844,0.031,89,115.0
2362,F#3,179.094,0.031,72,115.0
2363,C2,179.344,659/500,127,115.0
2364,F#3,179.344,0.031,124,115.0
2365,E-3,179.344,0.031,124,115.0
2366,B1,179.344,0.031,124,115.0
2367,F#3,179.594,0.031,69,115.0
2368,C5,179.844,0.984,90,115.0
2369,A2,179.844,0.484,127,115.0
2370,F#3,179.844,0.031,97,115.0
2371,E-3,179.844,0.031,97,115.0
2372,F#3,180.094,0.031,86,115.0
2373,C3,180.344,0.984,127,115.0
2374,E2,180.344,0.031,122,115.0
2375,F#3,180.344,0.031,122,115.0
2376,E2,180.594,0.031,104,115.0
2377,F#3,180.594,0.031,104,115.0
2378,C2,180.844,28/125,127,115.0
2379,C5,180.844,0.5,90,115.0
2380,F#3,180.844,0.031,101,115.0
2381,C3,180.844,0.031,101,115.0
2382,F#3,181.094,0.031,83,115.0
2383,C#4,181.344,3.484,108,115.0
2384,B3,181.344,227/200,127,115.0
2385,C#2,181.344,99/125,127,115.0
2386,C5,181.344,7651/1000,90,115.0
2387,E5,181.344,987/250,99,115.0
2388,C#3,181.344,987/250,99,115.0
2389,C#5,181.344,987/250,99,115.0
2390,G#4,181.344,987/250,99,115.0
2391,E4,181.344,138/125,127,115.0
2392,G#3,181.344,138/125,127,115.0
2393,B1,181.344,0.031,118,115.0
2394,F#3,181.344,0.031,118,115.0
2395,C#3,181.344,0.031,118,115.0
2396,F#3,181.594,0.031,80,115.0
2397,F#3,181.844,0.031,80,115.0
2398,F#3,182.094,0.031,90,115.0
2399,C#2,182.344,0.594,127,115.0
2400,G#4,182.344,73/200,125,115.0
2401,F#3,182.344,0.031,122,115.0
2402,E2,182.344,0.031,122,115.0
2403,B-2,182.344,0.031,122,115.0
2404,F#3,182.594,0.031,75,115.0
2405,G#3,182.844,411/1000,125,115.0
2406,E4,182.844,411/1000,125,115.0
2407,B3,182.844,411/1000,125,115.0
2408,G#4,182.844,0.031,84,115.0
2409,F#3,182.844,0.031,84,115.0
2410,F#3,183.094,0.031,86,115.0
2411,G#4,183.094,573/1000,114,115.0
2412,C#2,183.344,0.188,125,115.0
2413,F#2,183.344,0.031,127,115.0
2414,E2,183.344,0.031,127,115.0
2415,G#4,183.844,193/1000,120,115.0
2416,C#2,183.844,112/125,125,115.0
2417,E4,183.844,0.297,117,115.0
2418,G#3,183.844,0.297,117,115.0
2419,B3,183.844,0.297,117,115.0
2420,B1,183.844,0.031,92,115.0
2421,F#2,183.844,0.031,92,115.0
2422,F#4,184.344,0.375,125,115.0
2423,E2,184.344,0.031,127,115.0
2424,F#2,184.344,0.031,127,115.0
2425,F#3,184.344,0.031,127,115.0
2426,G#3,184.594,0.297,127,115.0
2427,B3,184.594,0.297,127,115.0
2428,E4,184.594,0.297,127,115.0
2429,F#1,184.844,0.438,125,115.0
2430,E4,184.844,73/500,101,115.0
2431,B1,184.844,0.031,98,115.0
2432,F#2,184.844,0.031,98,115.0
2433,G#1,188.995,37/50,125,115.0
2434,F#4,188.995,0.453,127,115.0
2435,F#3,188.995,1.062,127,115.0
2436,B3,188.995,1.062,127,115.0
2437,E-4,188.995,1.062,127,115.0
2438,B1,188.995,0.031,127,115.0
2439,E2,188.995,0.031,127,115.0
2440,F#2,188.995,0.031,127,115.0
2441,E-5,188.995,987/250,90,115.0
2442,F#4,188.995,987/250,90,115.0
2443,B4,188.995,987/250,90,115.0
2444,F#2,189.495,0.031,88,115.0
2445,G#4,189.495,0.203,122,115.0
2446,G#1,189.995,0.734,125,115.0
2447,F#2,189.995,0.031,127,115.0
2448,E2,189.995,0.031,127,115.0
2449,F#3,189.995,0.031,127,115.0
2450,F#2,190.495,0.031,88,115.0
2451,B3,190.495,151/250,127,115.0
2452,E-4,190.495,151/250,127,115.0
2453,F#3,190.495,151/250,127,115.0
2454,G#1,190.995,0.203,125,115.0
2455,E2,190.995,0.031,127,115.0
2456,F#2,190.995,0.031,127,115.0
2457,F#3,191.495,401/1000,127,115.0
2458,G#1,191.495,0.922,125,115.0
2459,B3,191.495,159/500,127,115.0
2460,B-2,191.495,0.031,104,115.0
2461,B1,191.495,0.031,104,115.0
2462,F#2,191.995,0.031,125,115.0
2463,F#3,191.995,0.031,125,115.0
2464,E2,191.995,0.031,125,115.0
2465,F#3,192.245,0.234,125,115.0
2466,E-4,192.245,0.234,125,115.0
2467,B3,192.245,0.234,125,115.0
2468,B1,192.495,99/500,124,115.0
2469,F#2,192.495,0.031,95,115.0
2470,B1,192.495,0.031,95,115.0
2471,G#1,192.745,23/200,124,115.0
2472,B3,192.995,573/500,127,115.0
2473,E4,192.995,1349/1000,127,115.0
2474,G#4,192.995,487/250,90,115.0
2475,E5,192.995,487/250,90,115.0
2476,B4,192.995,487/250,90,115.0
2477,E2,192.995,0.031,126,115.0
2478,F#2,192.995,0.031,126,115.0
2479,B1,192.995,0.031,126,115.0
2480,G#3,192.995,0.766,126,115.0
2481,C#2,192.995,0.766,126,115.0
2482,F#2,193.495,0.031,92,115.0
2483,C#2,193.995,401/500,124,115.0
2484,G#4,193.995,0.328,120,115.0
2485,G#3,193.995,0.328,120,115.0
2486,E2,193.995,0.031,127,115.0
2487,F#2,193.995,0.031,127,115.0
2488,F#3,193.995,0.031,127,115.0
2489,G#4,194.495,3/25,104,115.0
2490,F#2,194.495,0.031,88,115.0
2491,G#4,194.745,229/500,111,115.0
2492,C2,194.995,193/1000,124,115.0
2493,F#2,194.995,0.031,126,115.0
2494,E2,194.995,0.031,126,115.0
2495,E4,194.995,99/250,127,115.0
2496,G3,194.995,99/250,127,115.0
2497,B-3,194.995,99/250,127,115.0
2498,E5,194.995,237/250,90,115.0
2499,B-4,194.995,237/250,90,115.0
2500,G4,194.995,237/250,90,115.0
2501,F#4,195.245,27/200,98,115.0
2502,E4,195.495,193/1000,100,115.0
2503,C2,195.495,69/125,124,115.0
2504,B-2,195.495,0.031,98,115.0
2505,B1,195.495,0.031,98,115.0
2506,E4,195.995,0.391,123,115.0
2507,D2,195.995,13/50,124,115.0
2508,F#3,195.995,0.031,125,115.0
2509,E2,195.995,0.031,125,115.0
2510,F#2,195.995,0.031,125,115.0
2511,C5,195.995,237/250,90,115.0
2512,F#5,195.995,237/250,90,115.0
2513,A4,195.995,237/250,90,115.0
2514,A3,195.995,0.531,127,115.0
2515,F#4,195.995,0.531,127,115.0
2516,C4,195.995,0.531,127,115.0
2517,D2,196.495,27/200,120,115.0
2518,F#4,196.495,27/200,120,115.0
2519,B1,196.495,0.031,98,115.0
2520,F#2,196.495,0.031,98,115.0
2521,D5,196.995,987/250,90,115.0
2522,B4,196.995,987/250,90,115.0
2523,G#5,196.995,987/250,90,115.0
2524,G#4,196.995,0.031,122,115.0
2525,B1,196.995,0.031,122,115.0
2526,F#2,196.995,0.031,122,115.0
2527,E2,196.995,0.031,122,115.0
2528,B3,196.995,99/125,126,115.0
2529,E2,196.995,99/125,126,115.0
2530,D4,196.995,99/125,126,115.0
2531,E3,196.995,357/500,126,115.0
2532,E2,196.995,357/500,126,115.0
2533,D4,196.995,357/500,126,115.0
2534,E4,196.995,357/500,126,115.0
2535,F#2,197.495,0.031,87,115.0
2536,C#4,197.745,0.125,100,115.0
2537,E2,197.995,149/200,124,115.0
2538,E3,197.995,443/1000,127,115.0
2539,E2,197.995,0.031,127,115.0
2540,F#3,197.995,0.031,127,115.0
2541,F#2,197.995,0.031,127,115.0
2542,B3,197.995,193/1000,120,115.0
2543,B3,197.995,193/1000,120,115.0
2544,F#2,198.495,0.031,120,115.0
2545,D4,198.495,0.453,127,115.0
2546,G#4,198.495,0.453,127,115.0
2547,B3,198.495,0.453,127,115.0
2548,E2,198.745,0.031,89,115.0
2549,B1,198.745,49/200,124,115.0
2550,E3,198.995,49/200,126,115.0
2551,E1,198.995,49/200,126,115.0
2552,B1,198.995,0.031,124,115.0
2553,E2,198.995,0.031,124,115.0
2554,C3,199.495,0.031,120,115.0
2555,E1,199.495,513/500,124,115.0
2556,E3,199.495,333/1000,127,115.0
2557,B3,199.495,333/1000,127,115.0
2558,D4,199.995,0.188,119,115.0
2559,B3,199.995,13/125,92,115.0
2560,E2,199.995,0.031,115,115.0
2561,D2,199.995,0.031,115,115.0
2562,B1,199.995,0.031,115,115.0
2563,F#3,199.995,0.031,115,115.0
2564,B3,200.245,99/500,119,115.0
2565,E2,200.245,83/1000,120,115.0
2566,D4,200.245,83/1000,120,115.0
2567,A2,200.495,0.031,127,115.0
2568,G#1,200.495,0.188,124,115.0
2569,E3,200.495,3/25,127,115.0
2570,A3,200.995,0.328,127,115.0
2571,F#1,200.995,0.953,124,115.0
2572,C#3,200.995,0.031,127,115.0
2573,B1,200.995,0.031,127,115.0
2574,A4,200.995,483/250,90,115.0
2575,E5,200.995,483/250,90,115.0
2576,E4,200.995,151/250,127,115.0
2577,F#2,200.995,151/250,127,115.0
2578,A3,201.495,91/500,119,115.0
2579,C#4,201.745,13/125,101,115.0
2580,E4,201.745,271/1000,127,115.0
2581,A3,201.745,271/1000,127,115.0
2582,G#1,201.995,229/500,124,115.0
2583,F#2,201.995,99/500,127,115.0
2584,E2,201.995,0.031,124,115.0
2585,E4,201.995,0.031,124,115.0
2586,F#2,201.995,0.031,124,115.0
2587,F#3,201.995,0.031,124,115.0
2588,A3,202.245,67/125,123,115.0
2589,E4,202.245,67/125,123,115.0
2590,F#2,202.495,0.031,90,115.0
2591,F#2,202.495,69/250,112,115.0
2592,E4,202.495,69/250,112,115.0
2593,A1,202.495,69/250,112,115.0
2594,E-4,202.995,0.656,127,115.0
2595,B1,202.995,0.484,124,115.0
2596,B2,202.995,151/200,127,115.0
2597,A3,202.995,73/250,123,115.0
2598,F#4,202.995,73/250,123,115.0
2599,B4,202.995,487/250,90,115.0
2600,F#5,202.995,487/250,90,115.0
2601,E-5,202.995,487/250,90,115.0
2602,E2,202.995,0.031,127,115.0
2603,F#2,202.995,0.031,127,115.0
2604,B1,203.495,0.234,124,115.0
2605,A3,203.495,323/1000,119,115.0
2606,B1,203.495,0.031,104,115.0
2607,F#2,203.495,0.031,104,115.0
2608,B2,203.995,13/50,127,115.0
2609,C#2,203.995,56/125,124,115.0
2610,F#2,203.995,0.031,127,115.0
2611,E2,203.995,0.031,127,115.0
2612,F#3,203.995,0.031,127,115.0
2613,A3,204.495,161/1000,111,115.0
2614,F#2,204.495,0.031,95,115.0
2615,B1,204.495,0.031,95,115.0
2616,B1,204.495,307/1000,125,115.0
2617,B2,204.495,307/1000,125,115.0
2618,E3,204.995,0.672,127,115.0
2619,E2,204.995,0.984,123,115.0
2620,G#4,204.995,0.312,126,115.0
2621,F#2,204.995,0.031,127,115.0
2622,B1,204.995,0.031,127,115.0
2623,E2,204.995,0.031,127,115.0
2624,E5,204.995,483/250,90,115.0
2625,B4,204.995,483/250,90,115.0
2626,G#5,204.995,483/250,90,115.0
2627,F#2,205.495,0.031,94,115.0
2628,G#4,205.495,13/100,104,115.0
2629,B3,205.495,521/1000,127,115.0
2630,E4,205.495,521/1000,127,115.0
2631,G#4,205.495,521/1000,127,115.0
2632,F#4,205.745,0.641,127,115.0
2633,G#1,205.995,0.375,123,115.0
2634,E3,205.995,0.172,119,115.0
2635,F#3,205.995,0.031,127,115.0
2636,F#2,205.995,0.031,127,115.0
2637,E2,205.995,0.031,127,115.0
2638,E4,206.245,13/125,119,115.0
2639,B3,206.245,0.219,127,115.0
2640,E4,206.495,151/1000,110,115.0
2641,F#2,206.495,0.031,83,115.0
2642,E3,206.495,0.328,125,115.0
2643,B1,206.495,0.328,125,115.0
2644,A2,206.995,0.844,127,115.0
2645,E4,206.995,0.203,120,115.0
2646,A3,206.995,323/1000,127,115.0
2647,E5,206.995,893/500,90,115.0
2648,A1,206.995,0.969,123,115.0
2649,A4,206.995,487/250,90,115.0
2650,C#5,206.995,487/250,90,115.0
2651,F#2,206.995,0.031,126,115.0
2652,E2,206.995,0.031,126,115.0
2653,C#4,206.995,54/125,127,115.0
2654,E4,206.995,54/125,127,115.0
2655,F#4,207.245,0.141,106,115.0
2656,B3,207.495,151/500,127,115.0
2657,C#4,207.495,49/100,113,115.0
2658,B1,207.495,0.031,113,115.0
2659,B-2,207.495,0.031,113,115.0
2660,C#4,207.745,333/1000,127,115.0
2661,C#2,207.995,37/100,123,115.0
2662,A2,207.995,28/125,111,115.0
2663,F#3,207.995,0.031,127,115.0
2664,E2,207.995,0.031,127,115.0
2665,F#2,207.995,0.031,127,115.0
2666,E4,208.245,0.344,127,115.0
2667,E2,208.495,0.281,123,115.0
2668,B1,208.495,0.031,106,115.0
2669,F#2,208.495,0.031,106,115.0
2670,F#2,208.995,487/500,123,115.0
2671,A3,208.995,1099/1000,119,115.0
2672,C#5,208.995,487/250,90,115.0
2673,A4,208.995,487/250,90,115.0
2674,E5,208.995,487/250,90,115.0
2675,F#2,208.995,521/1000,127,115.0
2676,E4,208.995,521/1000,127,115.0
2677,B1,208.995,0.031,127,115.0
2678,F#2,208.995,0.031,127,115.0
2679,E2,208.995,0.031,127,115.0
2680,F#2,209.495,0.031,84,115.0
2681,E4,209.745,0.094,111,115.0
2682,F#2,209.995,0.219,127,115.0
2683,F#1,209.995,479/1000,123,115.0
2684,E4,209.995,333/1000,114,115.0
2685,F#2,209.995,0.031,127,115.0
2686,E2,209.995,0.031,127,115.0
2687,F#3,209.995,0.031,127,115.0
2688,A3,210.245,13/50,127,115.0
2689,F#2,210.495,0.031,92,115.0
2690,E4,210.495,0.266,119,115.0
2691,F#2,210.495,0.266,119,115.0
2692,A1,210.495,0.266,119,115.0
2693,A3,210.995,0.422,127,115.0
2694,B1,210.995,173/200,123,115.0
2695,F#5,210.995,487/250,90,115.0
2696,E-5,210.995,487/250,90,115.0
2697,B4,210.995,487/250,90,115.0
2698,E2,210.995,0.031,127,115.0
2699,F#2,210.995,0.031,127,115.0
2700,F#4,210.995,693/1000,127,115.0
2701,E-4,210.995,693/1000,127,115.0
2702,B2,210.995,693/1000,127,115.0
2703,A3,211.495,0.453,127,115.0
2704,B1,211.495,0.031,111,115.0
2705,B-2,211.495,0.031,111,115.0
2706,G#4,211.745,161/1000,98,115.0
2707,E-4,211.745,161/1000,98,115.0
2708,B2,211.995,0.219,127,115.0
2709,F#4,211.995,37/100,125,115.0
2710,E-2,211.995,37/100,125,115.0
2711,E2,211.995,0.031,127,115.0
2712,F#3,211.995,0.031,127,115.0
2713,F#2,211.995,0.031,127,115.0
2714,B2,212.495,159/500,125,115.0
2715,F#2,212.495,159/500,125,115.0
2716,E4,212.495,161/1000,108,115.0
2717,B3,212.495,161/1000,108,115.0
2718,F#2,212.495,0.031,107,115.0
2719,B1,212.495,0.031,107,115.0
2720,B3,212.995,0.344,127,115.0
2721,F#2,212.995,0.031,127,115.0
2722,E2,212.995,0.031,127,115.0
2723,B1,212.995,0.031,127,115.0
2724,E3,212.995,0.672,126,115.0
2725,E4,212.995,0.672,126,115.0
2726,E4,212.995,0.672,126,115.0
2727,G#4,212.995,483/250,90,115.0
2728,E5,212.995,483/250,90,115.0
2729,G#4,212.995,901/1000,125,115.0
2730,E2,212.995,901/1000,125,115.0
2731,F#2,213.495,0.031,127,115.0
2732,B3,213.495,0.672,127,115.0
2733,E3,213.995,99/500,127,115.0
2734,G#1,213.995,479/1000,123,115.0
2735,E2,213.995,0.031,126,115.0
2736,F#3,213.995,0.031,126,115.0
2737,E2,214.245,0.031,115,115.0
2738,B1,214.495,411/1000,123,115.0
2739,E3,214.495,23/200,127,115.0
2740,B1,214.495,0.031,109,115.0
2741,B1,214.745,0.031,127,115.0
2742,A1,214.995,0.5,123,115.0
2743,A4,214.995,1693/1000,126,115.0
2744,A5,214.995,271/1000,108,115.0
2745,A2,214.995,271/1000,108,115.0
2746,C#4,214.995,151/1000,127,115.0
2747,A3,214.995,151/1000,127,115.0
2748,G3,214.995,151/1000,127,115.0
2749,F#3,214.995,0.031,115,115.0
2750,E5,214.995,0.031,115,115.0
2751,E2,214.995,0.031,115,115.0
2752,A4,215.495,69/250,108,115.0
2753,A2,215.495,69/250,108,115.0
2754,A3,215.495,69/250,108,115.0
2755,A3,215.495,69/250,108,115.0
2756,C5,215.745,69/250,108,115.0
2757,C4,215.745,69/250,108,115.0
2758,C3,215.745,69/250,108,115.0
2759,C4,215.745,69/250,108,115.0
2760,D5,215.995,229/1000,106,115.0
2761,D3,215.995,229/1000,106,115.0
2762,D4,215.995,229/1000,106,115.0
2763,D4,215.995,229/1000,106,115.0
2764,F5,216.245,0.25,108,115.0
2765,F3,216.245,0.25,108,115.0
2766,F4,216.245,0.25,108,115.0
2767,F4,216.245,0.25,108,115.0
2768,D3,216.495,0.266,108,115.0
2769,D5,216.495,0.266,108,115.0
2770,D4,216.495,0.266,108,115.0
2771,D4,216.495,0.266,108,115.0
2772,C4,216.745,0.156,127,115.0
2773,C3,216.745,0.25,102,115.0
2774,C4,216.745,0.25,102,115.0
2775,C5,216.745,0.25,102,115.0
2776,D4,216.995,4.0,110,115.0
2777,A4,216.995,13/50,113,115.0
2778,D2,216.995,659/500,127,115.0
2779,D3,216.995,0.5,107,115.0
2780,D3,216.995,409/500,127,115.0
2781,D5,216.995,181/125,90,115.0
2782,A4,216.995,181/125,90,115.0
2783,D5,216.995,181/125,90,115.0
2784,F5,216.995,181/125,90,115.0
2785,B1,216.995,0.031,121,115.0
2786,C#3,216.995,0.031,121,115.0
2787,F#3,216.995,0.031,121,115.0
2788,C3,216.995,0.016,102,115.0
2789,C4,216.995,0.016,102,115.0
2790,C5,216.995,0.016,102,115.0
2791,G4,217.245,193/1000,110,115.0
2792,F#3,217.245,0.031,64,115.0
2793,F4,217.495,0.203,118,115.0
2794,D3,217.495,0.5,107,115.0
2795,F#3,217.495,0.031,68,115.0
2796,E-3,217.495,0.031,68,115.0
2797,F#3,217.745,0.031,65,115.0
2798,C3,217.995,0.5,107,115.0
2799,F#3,217.995,0.031,123,115.0
2800,E-3,217.995,0.031,123,115.0
2801,E2,217.995,0.031,123,115.0
2802,F#3,218.245,0.031,71,115.0
2803,F3,218.495,2.062,107,115.0
2804,B-2,218.495,123/200,127,115.0
2805,C2,218.495,99/500,127,115.0
2806,B-2,218.495,0.984,98,115.0
2807,F5,218.495,0.984,98,115.0
2808,F4,218.495,487/250,90,115.0
2809,D5,218.495,487/250,90,115.0
2810,B-4,218.495,487/250,90,115.0
2811,E-3,218.495,0.031,84,115.0
2812,F#3,218.495,0.031,84,115.0
2813,E2,218.745,0.031,85,115.0
2814,F#3,218.745,0.031,85,115.0
2815,B-1,218.995,659/500,127,115.0
2816,F#3,218.995,0.031,122,115.0
2817,B1,218.995,0.031,122,115.0
2818,E-3,218.995,0.031,122,115.0
2819,F#3,219.245,0.031,74,115.0
2820,F5,219.495,0.984,90,115.0
2821,A2,219.495,49/100,106,115.0
2822,B1,219.495,0.031,100,115.0
2823,E-3,219.495,0.031,100,115.0
2824,F#3,219.495,0.031,100,115.0
2825,F#3,219.745,0.031,82,115.0
2826,G2,219.995,479/1000,106,115.0
2827,E2,219.995,0.031,124,115.0
2828,E-3,219.995,0.031,124,115.0
2829,F#3,219.995,0.031,124,115.0
2830,E-3,220.245,0.031,88,115.0
2831,F#3,220.245,0.031,88,115.0
2832,D2,220.495,0.188,127,115.0
2833,E5,220.495,0.5,90,115.0
2834,C3,220.495,0.5,106,115.0
2835,E5,220.495,0.5,90,115.0
2836,C5,220.495,0.5,95,115.0
2837,G3,220.495,0.5,95,115.0
2838,G4,220.495,0.5,95,115.0
2839,F#3,220.495,0.031,88,115.0
2840,B1,220.495,0.031,88,115.0
2841,F#3,220.745,83/1000,86,115.0
2842,F4,220.745,83/1000,86,115.0
2843,G4,220.995,237/500,127,115.0
2844,C2,220.995,659/500,127,115.0
2845,D4,220.995,2.5,110,115.0
2846,E5,220.995,0.484,90,115.0
2847,C3,220.995,0.375,106,115.0
2848,E5,220.995,1.516,90,115.0
2849,E-3,220.995,0.031,125,115.0
2850,B1,220.995,0.031,125,115.0
2851,F#3,220.995,0.031,125,115.0
2852,C5,220.995,181/125,95,115.0
2853,G3,220.995,181/125,95,115.0
2854,G4,220.995,181/125,95,115.0
2855,F#3,221.245,0.031,75,115.0
2856,A2,221.495,0.484,106,115.0
2857,C5,221.495,0.984,90,115.0
2858,F4,221.495,0.031,82,115.0
2859,F#3,221.495,0.031,82,115.0
2860,E-3,221.495,0.031,82,115.0
2861,G4,221.745,6/25,115,115.0
2862,F#3,221.745,0.031,82,115.0
2863,C3,221.995,0.484,106,115.0
2864,F#3,221.995,0.031,124,115.0
2865,E2,221.995,0.031,124,115.0
2866,E-3,221.995,0.031,124,115.0
2867,G4,222.245,99/500,122,115.0
2868,F#3,222.245,0.031,67,115.0
2869,D2,222.495,177/1000,127,115.0
2870,D5,222.495,306/125,90,115.0
2871,A4,222.495,306/125,90,115.0
2872,F5,222.495,306/125,90,115.0
2873,E-3,222.495,0.031,88,115.0
2874,F#3,222.495,0.031,88,115.0
2875,D3,222.495,1.031,101,115.0
2876,D5,222.495,1.031,101,115.0
2877,A3,222.495,1.031,101,115.0
2878,A4,222.745,341/500,118,115.0
2879,E2,222.745,0.031,87,115.0
2880,F#3,222.745,0.031,87,115.0
2881,D2,222.995,659/500,127,115.0
2882,E-3,222.995,0.031,124,115.0
2883,F#3,222.995,0.031,124,115.0
2884,F#3,223.245,0.031,66,115.0
2885,F#3,223.495,0.031,102,115.0
2886,E-3,223.495,0.031,102,115.0
2887,B1,223.495,0.031,102,115.0
2888,A2,223.495,0.234,102,115.0
2889,A3,223.495,0.234,102,115.0
2890,A4,223.495,0.234,102,115.0
2891,F#3,223.745,0.031,69,115.0
2892,C5,223.745,0.25,102,115.0
2893,C3,223.745,0.25,102,115.0
2894,C4,223.745,0.25,102,115.0
2895,D3,223.995,0.25,102,115.0
2896,D5,223.995,0.25,102,115.0
2897,D4,223.995,0.25,102,115.0
2898,F#3,223.995,0.031,124,115.0
2899,E2,223.995,0.031,124,115.0
2900,E-3,223.995,0.031,124,115.0
2901,F#3,224.245,0.031,74,115.0
2902,F5,224.245,0.234,102,115.0
2903,F4,224.245,0.234,102,115.0
2904,F3,224.245,0.234,102,115.0
2905,A1,224.495,0.359,127,115.0
2906,F#3,224.495,0.031,91,115.0
2907,E-3,224.495,0.031,91,115.0
2908,B1,224.495,0.031,91,115.0
2909,D4,224.495,0.234,102,115.0
2910,D3,224.495,0.234,102,115.0
2911,D5,224.495,0.234,102,115.0
2912,F#3,224.745,0.031,92,115.0
2913,E-3,224.745,0.031,92,115.0
2914,C3,224.745,0.25,102,115.0
2915,C4,224.745,0.25,102,115.0
2916,C5,224.745,0.25,102,115.0
2917,D4,224.995,4.0,108,115.0
2918,D3,224.995,0.5,107,115.0
2919,D2,224.995,659/500,127,115.0
2920,E-3,224.995,0.031,124,115.0
2921,B1,224.995,0.031,124,115.0
2922,F#3,224.995,0.031,124,115.0
2923,D5,224.995,181/125,90,115.0
2924,D5,224.995,181/125,90,115.0
2925,F5,224.995,181/125,90,115.0
2926,A4,224.995,181/125,90,115.0
2927,C3,224.995,21/1000,102,115.0
2928,C4,224.995,21/1000,102,115.0
2929,C5,224.995,21/1000,102,115.0
2930,F#3,225.245,0.031,66,115.0
2931,D3,225.495,0.5,107,115.0
2932,E-3,225.495,0.031,88,115.0
2933,F#3,225.495,0.031,88,115.0
2934,F#3,225.745,0.031,81,115.0
2935,C3,225.995,0.5,107,115.0
2936,E-3,225.995,0.031,124,115.0
2937,E2,225.995,0.031,124,115.0
2938,F#3,225.995,0.031,124,115.0
2939,F#3,226.245,0.031,75,115.0
2940,F3,226.495,2.062,107,115.0
2941,C2,226.495,0.172,127,115.0
2942,F4,226.495,1.969,90,115.0
2943,B-4,226.495,1.969,90,115.0
2944,D5,226.495,1.969,90,115.0
2945,F#3,226.495,0.031,88,115.0
2946,E-3,226.495,0.031,88,115.0
2947,G5,226.495,241/250,98,115.0
2948,B-2,226.495,241/250,98,115.0
2949,E2,226.745,0.031,77,115.0
2950,F#3,226.745,0.031,77,115.0
2951,B-1,226.995,659/500,127,115.0
2952,E-3,226.995,0.031,120,115.0
2953,B1,226.995,0.031,120,115.0
2954,F#3,226.995,0.031,120,115.0
2955,F#3,227.245,0.031,90,115.0
2956,E2,227.245,0.031,90,115.0
2957,G5,227.495,513/500,90,115.0
2958,A2,227.495,49/100,106,115.0
2959,E-3,227.495,0.031,98,115.0
2960,F#3,227.495,0.031,98,115.0
2961,B1,227.495,0.031,98,115.0
2962,F#3,227.745,0.031,76,115.0
2963,G2,227.995,479/1000,106,115.0
2964,E2,227.995,0.031,125,115.0
2965,E-3,227.995,0.031,125,115.0
2966,F#3,227.995,0.031,125,115.0
2967,F#3,228.245,0.031,81,115.0
2968,C3,228.495,0.5,106,115.0
2969,E5,228.495,0.5,90,115.0
2970,E5,228.495,0.5,90,115.0
2971,D2,228.495,0.203,127,115.0
2972,G3,228.495,0.5,95,115.0
2973,C5,228.495,0.5,95,115.0
2974,G4,228.495,0.5,95,115.0
2975,F#3,228.495,0.031,91,115.0
2976,E-3,228.495,0.031,91,115.0
2977,B1,228.495,0.031,91,115.0
2978,F#3,228.745,0.031,72,115.0
2979,C2,228.995,659/500,127,115.0
2980,G4,228.995,91/500,111,115.0
2981,D4,228.995,2.5,108,115.0
2982,C3,228.995,0.375,106,115.0
2983,E5,228.995,0.484,90,115.0
2984,E5,228.995,1.516,90,115.0
2985,E-3,228.995,0.031,118,115.0
2986,B1,228.995,0.031,118,115.0
2987,F#3,228.995,0.031,118,115.0
2988,G3,228.995,181/125,95,115.0
2989,C5,228.995,181/125,95,115.0
2990,G4,228.995,181/125,95,115.0
2991,F4,229.245,161/1000,114,115.0
2992,F#3,229.245,0.031,69,115.0
2993,A2,229.495,0.484,106,115.0
2994,C5,229.495,0.984,90,115.0
2995,F#3,229.495,0.031,84,115.0
2996,E-3,229.495,0.031,84,115.0
2997,F#3,229.745,0.031,86,115.0
2998,G4,229.745,26/125,124,115.0
2999,C3,229.995,0.484,106,115.0
3000,E-3,229.995,0.031,124,115.0
3001,E2,229.995,0.031,124,115.0
3002,F#3,229.995,0.031,124,115.0
3003,F#3,230.245,0.031,86,115.0
3004,G4,230.245,0.219,124,115.0
3005,E2,230.495,13/100,127,115.0
3006,D3,230.495,1.031,101,115.0
3007,D5,230.495,1.031,101,115.0
3008,A3,230.495,1.031,101,115.0
3009,F#3,230.495,0.031,90,115.0
3010,E-3,230.495,0.031,90,115.0
3011,D5,230.495,306/125,90,115.0
3012,F5,230.495,306/125,90,115.0
3013,A4,230.495,306/125,90,115.0
3014,F4,230.745,0.641,120,115.0
3015,E2,230.745,0.031,92,115.0
3016,F#3,230.745,0.031,92,115.0
3017,D2,230.995,659/500,127,115.0
3018,E-3,230.995,0.031,122,115.0
3019,F#3,230.995,0.031,122,115.0
3020,B1,230.995,0.031,122,115.0
3021,F#3,231.245,0.031,80,115.0
3022,D4,231.495,0.156,115,115.0
3023,F#3,231.495,0.031,107,115.0
3024,E-3,231.495,0.031,107,115.0
3025,E2,231.495,0.031,107,115.0
3026,A4,231.495,6/25,102,115.0
3027,A3,231.495,6/25,102,115.0
3028,A2,231.495,6/25,102,115.0
3029,F#3,231.745,0.031,90,115.0
3030,C5,231.745,0.234,102,115.0
3031,C4,231.745,0.234,102,115.0
3032,C3,231.745,0.234,102,115.0
3033,D3,231.995,0.25,102,115.0
3034,D5,231.995,0.25,102,115.0
3035,D4,231.995,0.25,102,115.0
3036,E2,231.995,0.031,120,115.0
3037,B1,231.995,0.031,120,115.0
3038,E-3,231.995,0.031,120,115.0
3039,F#3,231.995,0.031,120,115.0
3040,F#3,232.245,0.031,75,115.0
3041,F3,232.245,0.25,102,115.0
3042,F5,232.245,0.25,102,115.0
3043,F4,232.245,0.25,102,115.0
3044,F#3,232.495,0.031,98,115.0
3045,E-3,232.495,0.031,98,115.0
3046,D5,232.495,0.234,108,115.0
3047,A1,232.495,0.234,108,115.0
3048,D4,232.495,0.234,108,115.0
3049,D3,232.495,0.234,108,115.0
3050,C5,232.745,0.25,102,115.0
3051,C3,232.745,0.25,102,115.0
3052,C4,232.745,0.25,102,115.0
3053,E2,232.745,0.031,102,115.0
3054,F#3,232.745,0.031,102,115.0
3055,D4,232.995,4.0,110,115.0
3056,D2,232.995,659/500,127,115.0
3057,D3,232.995,0.5,107,115.0
3058,D5,232.995,181/125,90,115.0
3059,F5,232.995,181/125,90,115.0
3060,A4,232.995,181/125,90,115.0
3061,D5,232.995,181/125,90,115.0
3062,C#3,232.995,0.031,123,115.0
3063,B1,232.995,0.031,123,115.0
3064,F#3,232.995,0.031,123,115.0
3065,F#3,233.245,0.031,64,115.0
3066,D3,233.495,0.5,107,115.0
3067,E-3,233.495,0.031,78,115.0
3068,F#3,233.495,0.031,78,115.0
3069,F#3,233.745,0.031,65,115.0
3070,C3,233.995,0.5,107,115.0
3071,E-3,233.995,0.031,123,115.0
3072,F#3,233.995,0.031,123,115.0
3073,E2,233.995,0.031,123,115.0
3074,F#3,234.245,0.031,71,115.0
3075,F3,234.495,2.062,107,115.0
3076,C2,234.495,99/500,127,115.0
3077,F4,234.495,487/250,90,115.0
3078,D5,234.495,487/250,90,115.0
3079,B-4,234.495,487/250,90,115.0
3080,F#3,234.495,0.031,90,115.0
3081,E-3,234.495,0.031,90,115.0
3082,B-2,234.495,0.984,98,115.0
3083,F5,234.495,0.984,98,115.0
3084,E2,234.745,0.031,92,115.0
3085,F#3,234.745,0.031,92,115.0
3086,B-1,234.995,659/500,127,115.0
3087,B1,234.995,0.031,123,115.0
3088,F#3,234.995,0.031,123,115.0
3089,E-3,234.995,0.031,123,115.0
3090,F#3,235.245,0.031,74,115.0
3091,A2,235.495,49/100,106,115.0
3092,F5,235.495,0.984,90,115.0
3093,B1,235.495,0.031,104,115.0
3094,F#3,235.495,0.031,104,115.0
3095,E-3,235.495,0.031,104,115.0
3096,F#3,235.745,0.031,82,115.0
3097,G2,235.995,479/1000,106,115.0
3098,E2,235.995,0.031,124,115.0
3099,E-3,235.995,0.031,124,115.0
3100,F#3,235.995,0.031,124,115.0
3101,F#3,236.245,0.031,76,115.0
3102,E5,236.495,0.5,90,115.0
3103,E5,236.495,0.5,90,115.0
3104,C3,236.495,0.5,106,115.0
3105,D2,236.495,0.188,127,115.0
3106,E-3,236.495,0.031,90,115.0
3107,B1,236.495,0.031,90,115.0
3108,F#3,236.495,0.031,90,115.0
3109,C5,236.495,0.5,95,115.0
3110,G4,236.495,0.5,95,115.0
3111,G3,236.495,0.5,95,115.0
3112,F#3,236.745,0.031,80,115.0
3113,E2,236.745,0.031,80,115.0
3114,G4,236.995,443/1000,121,115.0
3115,C2,236.995,659/500,127,115.0
3116,D4,236.995,2.5,110,115.0
3117,E5,236.995,0.484,90,115.0
3118,E5,236.995,1.516,90,115.0
3119,C3,236.995,0.375,106,115.0
3120,B1,236.995,0.031,122,115.0
3121,F#3,236.995,0.031,122,115.0
3122,E-3,236.995,0.031,122,115.0
3123,C5,236.995,1.438,95,115.0
3124,G4,236.995,1.438,95,115.0
3125,G3,236.995,1.438,95,115.0
3126,F#3,237.245,0.031,75,115.0
3127,A2,237.495,0.484,106,115.0
3128,C5,237.495,0.984,90,115.0
3129,F4,237.495,23/200,94,115.0
3130,F#3,237.495,0.031,91,115.0
3131,E-3,237.495,0.031,91,115.0
3132,F#3,237.745,0.031,82,115.0
3133,G4,237.995,37/100,122,115.0
3134,C3,237.995,0.484,106,115.0
3135,E-3,237.995,0.031,124,115.0
3136,F#3,237.995,0.031,124,115.0
3137,E2,237.995,0.031,124,115.0
3138,F#3,238.245,0.031,67,115.0
3139,F4,238.495,177/1000,110,115.0
3140,D2,238.495,177/1000,110,115.0
3141,A3,238.495,1021/1000,101,115.0
3142,D5,238.495,1021/1000,101,115.0
3143,D3,238.495,1021/1000,101,115.0
3144,F#3,238.495,0.031,94,115.0
3145,E-3,238.495,0.031,94,115.0
3146,A4,238.495,306/125,90,115.0
3147,D5,238.495,306/125,90,115.0
3148,F5,238.495,306/125,90,115.0
3149,A4,238.745,667/1000,118,115.0
3150,E2,238.745,0.031,87,115.0
3151,F#3,238.745,0.031,87,115.0
3152,D2,238.995,659/500,127,115.0
3153,E-3,238.995,0.031,119,115.0
3154,F#3,238.995,0.031,119,115.0
3155,B1,238.995,0.031,119,115.0
3156,E2,239.245,0.031,82,115.0
3157,F#3,239.245,0.031,82,115.0
3158,E-3,239.495,0.031,103,115.0
3159,B1,239.495,0.031,103,115.0
3160,F#3,239.495,0.031,103,115.0
3161,G4,239.495,0.234,104,115.0
3162,A3,239.495,0.234,104,115.0
3163,A2,239.495,0.234,104,115.0
3164,A4,239.495,0.234,104,115.0
3165,F#3,239.745,0.031,69,115.0
3166,C4,239.745,0.234,102,115.0
3167,C5,239.745,0.234,102,115.0
3168,C3,239.745,0.234,102,115.0
3169,F4,239.995,56/125,121,115.0
3170,D3,239.995,0.25,102,115.0
3171,D5,239.995,0.25,102,115.0
3172,D4,239.995,0.25,102,115.0
3173,F#3,239.995,0.031,124,115.0
3174,E-3,239.995,0.031,124,115.0
3175,E2,239.995,0.031,124,115.0
3176,F#3,240.245,0.031,74,115.0
3177,F5,240.245,0.234,102,115.0
3178,F4,240.245,0.234,102,115.0
3179,F3,240.245,0.234,102,115.0
3180,A1,240.495,0.359,127,115.0
3181,D5,240.495,0.234,102,115.0
3182,G4,240.495,0.234,102,115.0
3183,D4,240.495,0.234,102,115.0
3184,D3,240.495,0.234,102,115.0
3185,E-3,240.495,0.031,91,115.0
3186,F#3,240.495,0.031,91,115.0
3187,B1,240.495,0.031,91,115.0
3188,C3,240.745,0.25,102,115.0
3189,C4,240.745,0.25,102,115.0
3190,C5,240.745,0.25,102,115.0
3191,F#3,240.745,0.031,86,115.0
3192,E2,240.745,0.031,86,115.0
3193,F4,240.995,6/25,114,115.0
3194,D2,240.995,659/500,127,115.0
3195,D4,240.995,4.0,108,115.0
3196,D3,240.995,0.5,107,115.0
3197,B1,240.995,0.031,122,115.0
3198,F#3,240.995,0.031,122,115.0
3199,E-3,240.995,0.031,122,115.0
3200,D5,240.995,181/125,90,115.0
3201,F5,240.995,181/125,90,115.0
3202,D5,240.995,181/125,90,115.0
3203,A4,240.995,181/125,90,115.0
3204,C3,240.995,21/1000,102,115.0
3205,C4,240.995,21/1000,102,115.0
3206,C5,240.995,21/1000,102,115.0
3207,F#3,241.245,0.031,66,115.0
3208,D3,241.495,0.5,107,115.0
3209,D5,241.495,3.5,115,115.0
3210,E-3,241.495,0.031,95,115.0
3211,F#3,241.495,0.031,95,115.0
3212,F#3,241.745,0.031,81,115.0
3213,C3,241.995,0.5,107,115.0
3214,E-3,241.995,0.031,124,115.0
3215,E2,241.995,0.031,124,115.0
3216,F#3,241.995,0.031,124,115.0
3217,F#3,242.245,0.031,75,115.0
3218,C2,242.495,0.172,127,115.0
3219,F3,242.495,2.062,107,115.0
3220,F4,242.495,1.969,90,115.0
3221,B-4,242.495,1.969,90,115.0
3222,D5,242.495,1.969,90,115.0
3223,F#3,242.495,0.031,94,115.0
3224,E-3,242.495,0.031,94,115.0
3225,B-2,242.495,0.984,98,115.0
3226,G5,242.495,0.984,98,115.0
3227,F#3,242.745,0.031,86,115.0
3228,E2,242.745,0.031,86,115.0
3229,B-1,242.995,659/500,127,115.0
3230,B1,242.995,0.031,113,115.0
3231,F#3,242.995,0.031,113,115.0
3232,E-3,242.995,0.031,113,115.0
3233,F#3,243.245,0.031,88,115.0
3234,E2,243.245,0.031,88,115.0
3235,G5,243.495,513/500,90,115.0
3236,A2,243.495,49/100,106,115.0
3237,E-3,243.495,0.031,103,115.0
3238,F#3,243.495,0.031,103,115.0
3239,B1,243.495,0.031,103,115.0
3240,F#3,243.745,0.031,76,115.0
3241,G2,243.995,479/1000,106,115.0
3242,F#3,243.995,0.031,125,115.0
3243,E-3,243.995,0.031,125,115.0
3244,E2,243.995,0.031,125,115.0
3245,F#3,244.245,0.031,81,115.0
3246,D2,244.495,0.203,127,115.0
3247,C3,244.495,0.5,106,115.0
3248,E5,244.495,0.5,90,115.0
3249,E5,244.495,0.5,90,115.0
3250,G3,244.495,0.5,95,115.0
3251,C5,244.495,0.5,95,115.0
3252,G4,244.495,0.5,95,115.0
3253,E-3,244.495,0.031,94,115.0
3254,F#3,244.495,0.031,94,115.0
3255,B1,244.495,0.031,94,115.0
3256,F#3,244.745,0.031,88,115.0
3257,E2,244.745,0.031,88,115.0
3258,C2,244.995,659/500,127,115.0
3259,C3,244.995,0.375,106,115.0
3260,D4,244.995,2.5,108,115.0
3261,D5,244.995,9/250,115,115.0
3262,E5,244.995,0.484,90,115.0
3263,E5,244.995,1.516,90,115.0
3264,B1,244.995,0.031,120,115.0
3265,E-3,244.995,0.031,120,115.0
3266,F#3,244.995,0.031,120,115.0
3267,G3,244.995,181/125,95,115.0
3268,C5,244.995,181/125,95,115.0
3269,G4,244.995,181/125,95,115.0
3270,F#3,245.245,0.031,69,115.0
3271,C5,245.495,0.984,90,115.0
3272,A2,245.495,0.484,106,115.0
3273,E-3,245.495,0.031,94,115.0
3274,B1,245.495,0.031,94,115.0
3275,F#3,245.495,0.031,94,115.0
3276,F#3,245.745,0.031,86,115.0
3277,C3,245.995,0.484,106,115.0
3278,F#3,245.995,0.031,124,115.0
3279,E2,245.995,0.031,124,115.0
3280,E-3,245.995,0.031,124,115.0
3281,F#3,246.245,0.031,86,115.0
3282,E2,246.495,13/100,127,115.0
3283,F#3,246.495,0.031,98,115.0
3284,E-3,246.495,0.031,98,115.0
3285,A4,246.495,306/125,90,115.0
3286,D5,246.495,306/125,90,115.0
3287,F5,246.495,306/125,90,115.0
3288,D3,246.495,1.031,101,115.0
3289,D5,246.495,1.031,101,115.0
3290,A3,246.495,1.031,101,115.0
3291,E2,246.745,0.031,92,115.0
3292,F#3,246.745,0.031,92,115.0
3293,D2,246.995,659/500,127,115.0
3294,F#3,246.995,0.031,118,115.0
3295,B1,246.995,0.031,118,115.0
3296,E-3,246.995,0.031,118,115.0
3297,F#3,247.245,0.031,88,115.0
3298,E2,247.245,0.031,88,115.0
3299,A4,247.495,0.25,102,115.0
3300,A2,247.495,0.25,102,115.0
3301,A3,247.495,0.25,102,115.0
3302,F#3,247.495,0.031,98,115.0
3303,E-3,247.495,0.031,98,115.0
3304,F#3,247.745,0.031,90,115.0
3305,C3,247.745,0.25,102,115.0
3306,C5,247.745,0.25,102,115.0
3307,C4,247.745,0.25,102,115.0
3308,D6,247.995,1.0,85,115.0
3309,F#3,247.995,0.031,124,115.0
3310,E2,247.995,0.031,124,115.0
3311,E-3,247.995,0.031,124,115.0
3312,D3,247.995,0.25,102,115.0
3313,D5,247.995,0.25,102,115.0
3314,D4,247.995,0.25,102,115.0
3315,F#3,248.245,0.031,75,115.0
3316,F5,248.245,0.25,102,115.0
3317,F3,248.245,0.25,102,115.0
3318,F4,248.245,0.25,102,115.0
3319,A1,248.495,0.25,108,115.0
3320,D3,248.495,0.25,108,115.0
3321,D5,248.495,0.25,108,115.0
3322,D4,248.495,0.25,108,115.0
3323,E-3,248.495,0.031,98,115.0
3324,F#3,248.495,0.031,98,115.0
3325,B1,248.495,0.031,98,115.0
3326,F#3,248.745,0.031,98,115.0
3327,E2,248.745,0.031,98,115.0
3328,C5,248.745,0.25,102,115.0
3329,C3,248.745,0.25,102,115.0
3330,C4,248.745,0.25,102,115.0
3331,D4,248.995,4.0,110,115.0
3332,D3,248.995,0.5,107,115.0
3333,D2,248.995,659/500,127,115.0
3334,D6,248.995,163/50,85,115.0
3335,D5,248.995,181/125,90,115.0
3336,F5,248.995,181/125,90,115.0
3337,A4,248.995,181/125,90,115.0
3338,D5,248.995,181/125,90,115.0
3339,F#3,248.995,0.031,123,115.0
3340,B1,248.995,0.031,123,115.0
3341,C#3,248.995,0.031,123,115.0
3342,F#3,249.245,0.031,64,115.0
3343,D3,249.495,0.5,107,115.0
3344,E-3,249.495,0.031,80,115.0
3345,F#3,249.495,0.031,80,115.0
3346,F#3,249.745,0.031,65,115.0
3347,C3,249.995,0.5,107,115.0
3348,E-3,249.995,0.031,123,115.0
3349,E2,249.995,0.031,123,115.0
3350,F#3,249.995,0.031,123,115.0
3351,F#3,250.245,0.031,71,115.0
3352,C2,250.495,99/500,127,115.0
3353,F3,250.495,2.062,107,115.0
3354,D5,250.495,487/250,90,115.0
3355,B-4,250.495,487/250,90,115.0
3356,F4,250.495,487/250,90,115.0
3357,B-2,250.495,0.984,98,115.0
3358,F5,250.495,0.984,98,115.0
3359,E-3,250.495,0.031,92,115.0
3360,F#3,250.495,0.031,92,115.0
3361,E2,250.745,0.031,88,115.0
3362,F#3,250.745,0.031,88,115.0
3363,B-1,250.995,659/500,127,115.0
3364,B1,250.995,0.031,117,115.0
3365,E-3,250.995,0.031,117,115.0
3366,F#3,250.995,0.031,117,115.0
3367,F#3,251.245,0.031,86,115.0
3368,E2,251.245,0.031,86,115.0
3369,A2,251.495,49/100,106,115.0
3370,F5,251.495,0.984,90,115.0
3371,E-3,251.495,0.031,101,115.0
3372,F#3,251.495,0.031,101,115.0
3373,B1,251.495,0.031,101,115.0
3374,F#3,251.745,0.031,82,115.0
3375,G2,251.995,479/1000,106,115.0
3376,E-3,251.995,0.031,124,115.0
3377,F#3,251.995,0.031,124,115.0
3378,E2,251.995,0.031,124,115.0
3379,F#3,252.245,0.031,76,115.0
3380,E5,252.495,0.5,90,115.0
3381,E5,252.495,0.5,90,115.0
3382,C3,252.495,0.5,106,115.0
3383,C6,252.495,69/250,85,115.0
3384,D2,252.495,0.188,127,115.0
3385,E-3,252.495,0.031,93,115.0
3386,F#3,252.495,0.031,93,115.0
3387,B1,252.495,0.031,93,115.0
3388,G4,252.495,0.5,95,115.0
3389,C5,252.495,0.5,95,115.0
3390,G3,252.495,0.5,95,115.0
3391,E2,252.745,0.031,84,115.0
3392,F#3,252.745,0.031,84,115.0
3393,E6,252.995,1771/1000,85,115.0
3394,C2,252.995,659/500,127,115.0
3395,D4,252.995,2.5,110,115.0
3396,E5,252.995,0.484,90,115.0
3397,E5,252.995,1.516,90,115.0
3398,C3,252.995,0.375,106,115.0
3399,B1,252.995,0.031,123,115.0
3400,E-3,252.995,0.031,123,115.0
3401,F#3,252.995,0.031,123,115.0
3402,G4,252.995,1.438,95,115.0
3403,C5,252.995,1.438,95,115.0
3404,G3,252.995,1.438,95,115.0
3405,F#3,253.245,0.031,75,115.0
3406,C5,253.495,0.984,90,115.0
3407,A2,253.495,0.484,106,115.0
3408,E-3,253.495,0.031,92,115.0
3409,F#3,253.495,0.031,92,115.0
3410,F#3,253.745,0.031,82,115.0
3411,C3,253.995,0.484,106,115.0
3412,E2,253.995,0.031,124,115.0
3413,F#3,253.995,0.031,124,115.0
3414,E-3,253.995,0.031,124,115.0
3415,F#3,254.245,0.031,67,115.0
3416,D2,254.495,177/1000,127,115.0
3417,D5,254.495,306/125,90,115.0
3418,F5,254.495,306/125,90,115.0
3419,A4,254.495,306/125,90,115.0
3420,A3,254.495,0.984,101,115.0
3421,D3,254.495,0.984,101,115.0
3422,D5,254.495,0.984,101,115.0
3423,F#3,254.495,0.031,95,115.0
3424,E-3,254.495,0.031,95,115.0
3425,E2,254.745,0.031,88,115.0
3426,F#3,254.745,0.031,88,115.0
3427,E-3,254.995,0.031,121,115.0
3428,B1,254.995,0.031,121,115.0
3429,F#3,254.995,0.031,121,115.0
3430,D6,254.995,659/500,106,115.0
3431,D2,254.995,659/500,106,115.0
3432,F#3,255.245,0.031,88,115.0
3433,E2,255.245,0.031,88,115.0
3434,A2,255.495,0.234,102,115.0
3435,A3,255.495,0.234,102,115.0
3436,A4,255.495,0.234,102,115.0
3437,E-3,255.495,0.031,101,115.0
3438,B1,255.495,0.031,101,115.0
3439,F#3,255.495,0.031,101,115.0
3440,F#3,255.745,0.031,69,115.0
3441,C4,255.745,0.234,102,115.0
3442,C5,255.745,0.234,102,115.0
3443,C3,255.745,0.234,102,115.0
3444,F#3,255.995,0.031,124,115.0
3445,E-3,255.995,0.031,124,115.0
3446,E2,255.995,0.031,124,115.0
3447,D4,255.995,0.234,102,115.0
3448,D3,255.995,0.234,102,115.0
3449,D5,255.995,0.234,102,115.0
3450,F#3,256.245,0.031,74,115.0
3451,F4,256.245,0.234,102,115.0
3452,F5,256.245,0.234,102,115.0
3453,F3,256.245,0.234,102,115.0
3454,A1,256.495,0.359,127,115.0
3455,D5,256.495,0.25,98,115.0
3456,A5,256.495,0.25,98,115.0
3457,D3,256.495,0.25,98,115.0
3458,D4,256.495,0.25,98,115.0
3459,E-3,256.495,0.031,99,115.0
3460,B1,256.495,0.031,99,115.0
3461,F#3,256.495,0.031,99,115.0
3462,E2,256.745,0.031,88,115.0
3463,F#3,256.745,0.031,88,115.0
3464,C4,256.745,0.234,102,115.0
3465,C5,256.745,0.234,102,115.0
3466,C3,256.745,0.234,102,115.0
3467,D2,256.995,659/500,127,115.0
3468,D3,256.995,0.5,107,115.0
3469,D4,256.995,4.0,108,115.0
3470,A5,256.995,767/250,85,115.0
3471,F#3,256.995,0.031,124,115.0
3472,B1,256.995,0.031,124,115.0
3473,E-3,256.995,0.031,124,115.0
3474,D5,256.995,181/125,90,115.0
3475,D5,256.995,181/125,90,115.0
3476,F5,256.995,181/125,90,115.0
3477,A4,256.995,181/125,90,115.0
3478,F#3,257.245,0.031,66,115.0
3479,D3,257.495,0.5,107,115.0
3480,F#3,257.495,0.031,89,115.0
3481,E-3,257.495,0.031,89,115.0
3482,F#3,257.745,0.031,81,115.0
3483,C3,257.995,0.5,107,115.0
3484,F#3,257.995,0.031,124,115.0
3485,E2,257.995,0.031,124,115.0
3486,E-3,257.995,0.031,124,115.0
3487,F#3,258.245,0.031,75,115.0
3488,C2,258.495,0.172,127,115.0
3489,F3,258.495,2.062,107,115.0
3490,G5,258.495,241/250,98,115.0
3491,B-2,258.495,241/250,98,115.0
3492,E-3,258.495,0.031,98,115.0
3493,F#3,258.495,0.031,98,115.0
3494,D5,258.495,487/250,90,115.0
3495,B-4,258.495,487/250,90,115.0
3496,F4,258.495,487/250,90,115.0
3497,F#3,258.745,0.031,92,115.0
3498,B1,258.745,0.031,92,115.0
3499,B-1,258.995,659/500,127,115.0
3500,E-3,258.995,0.031,122,115.0
3501,F#3,258.995,0.031,122,115.0
3502,B1,258.995,0.031,122,115.0
3503,F#3,259.245,0.031,97,115.0
3504,E2,259.245,0.031,97,115.0
3505,A2,259.495,49/100,106,115.0
3506,G5,259.495,513/500,90,115.0
3507,B1,259.495,0.031,106,115.0
3508,E-3,259.495,0.031,106,115.0
3509,F#3,259.495,0.031,106,115.0
3510,F#3,259.745,0.031,76,115.0
3511,G2,259.995,479/1000,106,115.0
3512,F#3,259.995,0.031,125,115.0
3513,E2,259.995,0.031,125,115.0
3514,E-3,259.995,0.031,125,115.0
3515,F#3,260.245,0.031,81,115.0
3516,G5,260.245,143/500,85,115.0
3517,C3,260.495,0.5,106,115.0
3518,E5,260.495,0.5,90,115.0
3519,E5,260.495,0.5,90,115.0
3520,D2,260.495,0.203,127,115.0
3521,G3,260.495,0.5,95,115.0
3522,C5,260.495,0.5,95,115.0
3523,G4,260.495,0.5,95,115.0
3524,F#3,260.495,0.031,95,115.0
3525,B1,260.495,0.031,95,115.0
3526,E-3,260.495,0.031,95,115.0
3527,F5,260.745,0.172,85,115.0
3528,F#3,260.745,0.031,89,115.0
3529,E2,260.745,0.031,89,115.0
3530,C3,260.995,0.375,106,115.0
3531,D4,260.995,2.5,108,115.0
3532,E5,260.995,0.484,90,115.0
3533,E5,260.995,1.516,90,115.0
3534,E-3,260.995,0.031,122,115.0
3535,F#3,260.995,0.031,122,115.0
3536,B1,260.995,0.031,122,115.0
3537,G5,260.995,659/500,106,115.0
3538,C2,260.995,659/500,106,115.0
3539,G3,260.995,181/125,95,115.0
3540,C5,260.995,181/125,95,115.0
3541,G4,260.995,181/125,95,115.0
3542,F#3,261.245,0.031,69,115.0
3543,A2,261.495,0.484,106,115.0
3544,C5,261.495,0.984,90,115.0
3545,F#3,261.495,0.031,92,115.0
3546,E-3,261.495,0.031,92,115.0
3547,F#3,261.745,0.031,86,115.0
3548,C3,261.995,0.484,106,115.0
3549,F#3,261.995,0.031,124,115.0
3550,E2,261.995,0.031,124,115.0
3551,E-3,261.995,0.031,124,115.0
3552,F#3,262.245,0.031,86,115.0
3553,A5,262.495,0.406,85,115.0
3554,E2,262.495,13/100,127,115.0
3555,D3,262.495,201/200,101,115.0
3556,A3,262.495,201/200,101,115.0
3557,D5,262.495,201/200,101,115.0
3558,D5,262.495,306/125,90,115.0
3559,A4,262.495,306/125,90,115.0
3560,F5,262.495,306/125,90,115.0
3561,F#3,262.495,0.031,100,115.0
3562,E-3,262.495,0.031,100,115.0
3563,E2,262.745,0.031,92,115.0
3564,F#3,262.745,0.031,92,115.0
3565,D5,262.995,1.469,85,115.0
3566,D2,262.995,659/500,127,115.0
3567,F#3,262.995,0.031,118,115.0
3568,B1,262.995,0.031,118,115.0
3569,E-3,262.995,0.031,118,115.0
3570,F#3,263.245,0.031,102,115.0
3571,E2,263.245,0.031,102,115.0
3572,E-3,263.495,0.031,108,115.0
3573,F#3,263.495,0.031,108,115.0
3574,B1,263.495,0.031,108,115.0
3575,A2,263.495,51/200,102,115.0
3576,A3,263.495,51/200,102,115.0
3577,A4,263.495,51/200,102,115.0
3578,F#3,263.745,0.031,90,115.0
3579,C4,263.745,0.234,102,115.0
3580,C3,263.745,0.234,102,115.0
3581,C5,263.745,0.234,102,115.0
3582,D3,263.995,0.234,102,115.0
3583,D4,263.995,0.234,102,115.0
3584,D5,263.995,0.234,102,115.0
3585,E2,263.995,0.031,122,115.0
3586,E-3,263.995,0.031,122,115.0
3587,F#3,263.995,0.031,122,115.0
3588,F#3,264.245,0.031,75,115.0
3589,F3,264.245,0.297,102,115.0
3590,F4,264.245,0.297,102,115.0
3591,F5,264.245,0.297,102,115.0
3592,D5,264.495,0.5,85,115.0
3593,D5,264.495,0.25,108,115.0
3594,D3,264.495,0.25,108,115.0
3595,A1,264.495,0.25,108,115.0
3596,D4,264.495,0.25,108,115.0
3597,F#3,264.495,0.031,111,115.0
3598,B1,264.495,0.031,111,115.0
3599,C#3,264.495,0.031,111,115.0
3600,F#3,264.745,0.031,86,115.0
3601,C4,264.745,0.25,102,115.0
3602,C3,264.745,0.25,102,115.0
3603,C5,264.745,0.25,102,115.0
3604,D2,264.995,659/500,127,115.0
3605,D3,264.995,0.5,107,115.0
3606,D4,264.995,4.0,110,115.0
3607,D5,264.995,1.453,85,115.0
3608,A4,264.995,181/125,90,115.0
3609,D5,264.995,181/125,90,115.0
3610,D5,264.995,181/125,90,115.0
3611,F5,264.995,181/125,90,115.0
3612,E3,264.995,0.031,123,115.0
3613,F#3,264.995,0.031,123,115.0
3614,B1,264.995,0.031,123,115.0
3615,C4,264.995,0.016,102,115.0
3616,C3,264.995,0.016,102,115.0
3617,C5,264.995,0.016,102,115.0
3618,F#3,265.245,0.031,64,115.0
3619,D3,265.495,0.5,107,115.0
3620,F#3,265.495,0.031,79,115.0
3621,E-3,265.495,0.031,79,115.0
3622,F#3,265.745,0.031,65,115.0
3623,C3,265.995,0.5,107,115.0
3624,E-3,265.995,0.031,123,115.0
3625,F#3,265.995,0.031,123,115.0
3626,E2,265.995,0.031,123,115.0
3627,F#3,266.245,0.031,71,115.0
3628,F3,266.495,2.062,107,115.0
3629,C2,266.495,99/500,127,115.0
3630,C6,266.495,0.469,85,115.0
3631,B-4,266.495,487/250,90,115.0
3632,D5,266.495,487/250,90,115.0
3633,F4,266.495,487/250,90,115.0
3634,E-3,266.495,0.031,92,115.0
3635,F#3,266.495,0.031,92,115.0
3636,B-2,266.495,0.984,98,115.0
3637,F5,266.495,0.984,98,115.0
3638,E2,266.745,0.031,92,115.0
3639,F#3,266.745,0.031,92,115.0
3640,D6,266.995,1.469,85,115.0
3641,B-1,266.995,659/500,127,115.0
3642,B1,266.995,0.031,121,115.0
3643,F#3,266.995,0.031,121,115.0
3644,E-3,266.995,0.031,121,115.0
3645,F#3,267.245,0.031,82,115.0
3646,E2,267.245,0.031,82,115.0
3647,F5,267.495,0.984,90,115.0
3648,A2,267.495,49/100,106,115.0
3649,B1,267.495,0.031,95,115.0
3650,E-3,267.495,0.031,95,115.0
3651,F#3,267.495,0.031,95,115.0
3652,F#3,267.745,0.031,82,115.0
3653,G2,267.995,479/1000,106,115.0
3654,E-3,267.995,0.031,124,115.0
3655,F#3,267.995,0.031,124,115.0
3656,E2,267.995,0.031,124,115.0
3657,F#3,268.245,0.031,76,115.0
3658,E5,268.495,0.5,90,115.0
3659,C6,268.495,73/250,85,115.0
3660,C3,268.495,0.5,106,115.0
3661,E5,268.495,0.5,90,115.0
3662,D2,268.495,0.188,127,115.0
3663,E-3,268.495,0.031,99,115.0
3664,F#3,268.495,0.031,99,115.0
3665,B1,268.495,0.031,99,115.0
3666,G4,268.495,0.5,95,115.0
3667,C5,268.495,0.5,95,115.0
3668,G3,268.495,0.5,95,115.0
3669,E2,268.745,0.031,90,115.0
3670,F#3,268.745,0.031,90,115.0
3671,C2,268.995,659/500,127,115.0
3672,E6,268.995,1.469,85,115.0
3673,E5,268.995,1.516,90,115.0
3674,D4,268.995,2.5,110,115.0
3675,C3,268.995,0.375,106,115.0
3676,E5,268.995,0.484,90,115.0
3677,F#3,268.995,0.031,125,115.0
3678,E-3,268.995,0.031,125,115.0
3679,B1,268.995,0.031,125,115.0
3680,G4,268.995,1.438,95,115.0
3681,C5,268.995,1.438,95,115.0
3682,G3,268.995,1.438,95,115.0
3683,F#3,269.245,0.031,75,115.0
3684,C5,269.495,0.984,90,115.0
3685,A2,269.495,0.484,106,115.0
3686,F#3,269.495,0.031,86,115.0
3687,E-3,269.495,0.031,86,115.0
3688,F#3,269.745,0.031,82,115.0
3689,C3,269.995,0.484,106,115.0
3690,E-3,269.995,0.031,124,115.0
3691,E2,269.995,0.031,124,115.0
3692,F#3,269.995,0.031,124,115.0
3693,F#3,270.245,0.031,67,115.0
3694,D2,270.495,0.219,106,115.0
3695,F6,270.495,0.219,106,115.0
3696,E-3,270.495,0.031,93,115.0
3697,F#3,270.495,0.031,93,115.0
3698,A4,270.495,306/125,90,115.0
3699,D5,270.495,306/125,90,115.0
3700,F5,270.495,306/125,90,115.0
3701,A3,270.495,0.984,101,115.0
3702,D3,270.495,0.984,101,115.0
3703,D5,270.495,0.984,101,115.0
3704,E6,270.745,0.219,85,115.0
3705,F#3,270.745,0.031,89,115.0
3706,B1,270.745,0.031,89,115.0
3707,D2,270.995,659/500,127,115.0
3708,D6,270.995,0.969,85,115.0
3709,F#3,270.995,0.031,123,115.0
3710,E-3,270.995,0.031,123,115.0
3711,B1,270.995,0.031,123,115.0
3712,E2,271.245,0.031,90,115.0
3713,F#3,271.245,0.031,90,115.0
3714,A4,271.495,0.25,102,115.0
3715,A2,271.495,0.25,102,115.0
3716,A3,271.495,0.25,102,115.0
3717,B1,271.495,0.031,98,115.0
3718,E-3,271.495,0.031,98,115.0
3719,F#3,271.495,0.031,98,115.0
3720,F#3,271.745,0.031,69,115.0
3721,C3,271.745,0.234,102,115.0
3722,C4,271.745,0.234,102,115.0
3723,C5,271.745,0.234,102,115.0
3724,C6,271.995,0.469,85,115.0
3725,E2,271.995,0.031,124,115.0
3726,F#3,271.995,0.031,124,115.0
3727,E-3,271.995,0.031,124,115.0
3728,D3,271.995,0.234,102,115.0
3729,D4,271.995,0.234,102,115.0
3730,D5,271.995,0.234,102,115.0
3731,F#3,272.245,0.031,74,115.0
3732,F4,272.245,0.234,102,115.0
3733,F5,272.245,0.234,102,115.0
3734,F3,272.245,0.234,102,115.0
3735,A5,272.495,0.469,85,115.0
3736,A1,272.495,0.359,127,115.0
3737,B1,272.495,0.031,96,115.0
3738,F#3,272.495,0.031,96,115.0
3739,E-3,272.495,0.031,96,115.0
3740,D3,272.495,0.25,102,115.0
3741,D5,272.495,0.25,102,115.0
3742,D4,272.495,0.25,102,115.0
3743,C4,272.745,0.234,102,115.0
3744,C5,272.745,0.234,102,115.0
3745,C3,272.745,0.234,102,115.0
3746,F#3,272.745,0.031,93,115.0
3747,E2,272.745,0.031,93,115.0
3748,D4,272.995,4.0,108,115.0
3749,D2,272.995,659/500,127,115.0
3750,D3,272.995,0.5,107,115.0
3751,A5,272.995,3.469,85,115.0
3752,F#3,272.995,0.031,125,115.0
3753,E-3,272.995,0.031,125,115.0
3754,B1,272.995,0.031,125,115.0
3755,D5,272.995,181/125,90,115.0
3756,D5,272.995,181/125,90,115.0
3757,A4,272.995,181/125,90,115.0
3758,F5,272.995,181/125,90,115.0
3759,F#3,273.245,0.031,66,115.0
3760,D3,273.495,0.5,107,115.0
3761,F#3,273.495,0.031,88,115.0
3762,E-3,273.495,0.031,88,115.0
3763,F#3,273.745,0.031,81,115.0
3764,C3,273.995,0.5,107,115.0
3765,F#3,273.995,0.031,124,115.0
3766,E2,273.995,0.031,124,115.0
3767,E-3,273.995,0.031,124,115.0
3768,F#3,274.245,0.031,75,115.0
3769,F3,274.495,2.062,107,115.0
3770,C2,274.495,0.172,127,115.0
3771,B-2,274.495,0.984,98,115.0
3772,G5,274.495,0.984,98,115.0
3773,F4,274.495,487/250,90,115.0
3774,D5,274.495,487/250,90,115.0
3775,B-4,274.495,487/250,90,115.0
3776,F#3,274.495,0.031,90,115.0
3777,E-3,274.495,0.031,90,115.0
3778,F#3,274.745,0.031,74,115.0
3779,B-1,274.995,659/500,127,115.0
3780,E-3,274.995,0.031,116,115.0
3781,F#3,274.995,0.031,116,115.0
3782,B1,274.995,0.031,116,115.0
3783,E2,275.245,0.031,94,115.0
3784,F#3,275.245,0.031,94,115.0
3785,G5,275.495,513/500,90,115.0
3786,A2,275.495,49/100,106,115.0
3787,B1,275.495,0.031,104,115.0
3788,E-3,275.495,0.031,104,115.0
3789,F#3,275.495,0.031,104,115.0
3790,F#3,275.745,0.031,76,115.0
3791,G2,275.995,479/1000,106,115.0
3792,E-3,275.995,0.031,125,115.0
3793,F#3,275.995,0.031,125,115.0
3794,E2,275.995,0.031,125,115.0
3795,F#3,276.245,0.031,81,115.0
3796,D2,276.495,0.203,127,115.0
3797,E5,276.495,0.5,90,115.0
3798,E5,276.495,0.5,90,115.0
3799,C3,276.495,0.5,106,115.0
3800,C5,276.495,0.5,95,115.0
3801,G4,276.495,0.5,95,115.0
3802,G3,276.495,0.5,95,115.0
3803,E-3,276.495,0.031,96,115.0
3804,F#3,276.495,0.031,96,115.0
3805,B1,276.495,0.031,96,115.0
3806,A6,276.745,0.25,85,115.0
3807,E2,276.745,0.031,97,115.0
3808,F#3,276.745,0.031,97,115.0
3809,C2,276.995,659/500,127,115.0
3810,D4,276.995,2.5,108,115.0
3811,A6,276.995,5.469,85,115.0
3812,E5,276.995,1.516,90,115.0
3813,E5,276.995,0.484,90,115.0
3814,C3,276.995,0.375,106,115.0
3815,F#3,276.995,0.031,120,115.0
3816,B1,276.995,0.031,120,115.0
3817,C5,276.995,1.438,95,115.0
3818,G4,276.995,1.438,95,115.0
3819,G3,276.995,1.438,95,115.0
3820,F#3,277.245,0.031,69,115.0
3821,C5,277.495,0.984,90,115.0
3822,A2,277.495,0.484,106,115.0
3823,F#3,277.495,0.031,102,115.0
3824,F2,277.495,0.031,102,115.0
3825,E2,277.495,0.031,102,115.0
3826,F#3,277.745,0.031,86,115.0
3827,C3,277.995,0.484,106,115.0
3828,F#3,277.995,0.031,119,115.0
3829,E-3,277.995,0.031,119,115.0
3830,F#3,278.245,0.031,98,115.0
3831,E2,278.245,0.031,98,115.0
3832,E2,278.495,13/100,127,115.0
3833,E-3,278.495,0.031,104,115.0
3834,B1,278.495,0.031,104,115.0
3835,F#3,278.495,0.031,104,115.0
3836,F5,278.495,306/125,90,115.0
3837,D5,278.495,306/125,90,115.0
3838,A4,278.495,306/125,90,115.0
3839,A3,278.495,1021/1000,101,115.0
3840,D5,278.495,1021/1000,101,115.0
3841,D3,278.495,1021/1000,101,115.0
3842,F#3,278.745,0.031,83,115.0
3843,D2,278.995,659/500,127,115.0
3844,C#3,278.995,0.031,124,115.0
3845,F#3,278.995,0.031,124,115.0
3846,E2,278.995,0.031,124,115.0
3847,F#3,279.245,0.031,80,115.0
3848,A3,279.495,51/200,102,115.0
3849,A2,279.495,51/200,102,115.0
3850,A4,279.495,51/200,102,115.0
3851,E-3,279.495,0.031,98,115.0
3852,F#3,279.495,0.031,98,115.0
3853,C3,279.745,0.234,102,115.0
3854,C4,279.745,0.234,102,115.0
3855,C5,279.745,0.234,102,115.0
3856,F#3,279.745,0.031,108,115.0
3857,B1,279.745,0.031,108,115.0
3858,E2,279.995,0.031,122,115.0
3859,F#3,279.995,0.031,122,115.0
3860,D3,279.995,0.234,102,115.0
3861,D4,279.995,0.234,102,115.0
3862,D5,279.995,0.234,102,115.0
3863,F#3,280.245,0.031,75,115.0
3864,F4,280.245,0.297,102,115.0
3865,F3,280.245,0.297,102,115.0
3866,F5,280.245,0.297,102,115.0
3867,D3,280.495,0.188,108,115.0
3868,D4,280.495,0.188,108,115.0
3869,D5,280.495,0.188,108,115.0
3870,A1,280.495,0.188,108,115.0
3871,B1,280.495,0.031,104,115.0
3872,F#3,280.495,0.031,104,115.0
3873,F#3,280.745,0.031,86,115.0
3874,C5,280.745,0.234,102,115.0
3875,C4,280.745,0.234,102,115.0
3876,C3,280.745,0.234,102,115.0
3877,D4,282.464,4.0,110,115.0
3878,D2,282.464,659/500,127,115.0
3879,D3,282.464,0.5,107,115.0
3880,C#3,282.464,0.031,123,115.0
3881,F#3,282.464,0.031,123,115.0
3882,B1,282.464,0.031,123,115.0
3883,D5,282.464,181/125,90,115.0
3884,F5,282.464,181/125,90,115.0
3885,A4,282.464,181/125,90,115.0
3886,D5,282.464,181/125,90,115.0
3887,F#3,282.714,0.031,64,115.0
3888,D3,282.964,0.5,107,115.0
3889,B1,282.964,0.031,92,115.0
3890,F#3,282.964,0.031,92,115.0
3891,F#3,283.214,0.031,65,115.0
3892,C3,283.464,0.5,107,115.0
3893,E-3,283.464,0.031,123,115.0
3894,E2,283.464,0.031,123,115.0
3895,F#3,283.464,0.031,123,115.0
3896,F#3,283.714,0.031,71,115.0
3897,F3,283.964,2.062,107,115.0
3898,C2,283.964,99/500,127,115.0
3899,A6,283.964,112/125,85,115.0
3900,D5,283.964,487/250,90,115.0
3901,B-4,283.964,487/250,90,115.0
3902,F4,283.964,487/250,90,115.0
3903,F#3,283.964,0.031,80,115.0
3904,E-3,283.964,0.031,80,115.0
3905,B-2,283.964,0.984,98,115.0
3906,F5,283.964,0.984,98,115.0
3907,F#3,284.214,0.031,83,115.0
3908,E2,284.214,0.031,83,115.0
3909,B-1,284.464,659/500,127,115.0
3910,E-3,284.464,0.031,118,115.0
3911,F#3,284.464,0.031,118,115.0
3912,B1,284.464,0.031,118,115.0
3913,E2,284.714,0.031,96,115.0
3914,F#3,284.714,0.031,96,115.0
3915,A2,284.964,49/100,106,115.0
3916,F#3,284.964,0.031,100,115.0
3917,B1,284.964,0.031,100,115.0
3918,E-3,284.964,0.031,100,115.0
3919,F5,284.964,0.969,88,115.0
3920,A6,284.964,0.969,88,115.0
3921,F#3,285.214,0.031,82,115.0
3922,G2,285.464,479/1000,106,115.0
3923,E2,285.464,0.031,124,115.0
3924,F#3,285.464,0.031,124,115.0
3925,E-3,285.464,0.031,124,115.0
3926,F#3,285.714,0.031,76,115.0
3927,D2,285.964,0.188,127,115.0
3928,E5,285.964,0.5,90,115.0
3929,C3,285.964,0.5,106,115.0
3930,E5,285.964,0.5,88,115.0
3931,C7,285.964,0.5,88,115.0
3932,G3,285.964,0.5,95,115.0
3933,C5,285.964,0.5,95,115.0
3934,G4,285.964,0.5,95,115.0
3935,F#3,285.964,0.031,95,115.0
3936,E-3,285.964,0.031,95,115.0
3937,B1,285.964,0.031,95,115.0
3938,F#3,286.214,0.031,88,115.0
3939,E2,286.214,0.031,88,115.0
3940,C2,286.464,659/500,127,115.0
3941,D4,286.464,2.5,110,115.0
3942,E5,286.464,1.516,90,115.0
3943,C3,286.464,0.375,106,115.0
3944,B1,286.464,0.031,119,115.0
3945,E-3,286.464,0.031,119,115.0
3946,F#3,286.464,0.031,119,115.0
3947,E5,286.464,0.469,88,115.0
3948,C7,286.464,0.469,88,115.0
3949,G3,286.464,181/125,95,115.0
3950,C5,286.464,181/125,95,115.0
3951,G4,286.464,181/125,95,115.0
3952,F#3,286.714,0.031,75,115.0
3953,A2,286.964,0.484,106,115.0
3954,A6,286.964,0.984,88,115.0
3955,C5,286.964,0.984,88,115.0
3956,F#3,286.964,0.031,79,115.0
3957,E-3,286.964,0.031,79,115.0
3958,F#3,287.214,0.031,82,115.0
3959,C3,287.464,0.484,106,115.0
3960,E-3,287.464,0.031,124,115.0
3961,E2,287.464,0.031,124,115.0
3962,F#3,287.464,0.031,124,115.0
3963,F#3,287.714,0.031,67,115.0
3964,D2,287.964,177/1000,127,115.0
3965,D6,287.964,2.5,85,115.0
3966,A4,287.964,306/125,90,115.0
3967,F5,287.964,306/125,90,115.0
3968,D5,287.964,306/125,90,115.0
3969,D5,287.964,1.031,101,115.0
3970,D3,287.964,1.031,101,115.0
3971,A3,287.964,1.031,101,115.0
3972,F#3,287.964,0.031,89,115.0
3973,E-3,287.964,0.031,89,115.0
3974,E-3,288.214,0.031,99,115.0
3975,F#3,288.214,0.031,99,115.0
3976,E2,288.214,0.031,99,115.0
3977,D2,288.464,659/500,127,115.0
3978,E-3,288.464,0.031,123,115.0
3979,B1,288.464,0.031,123,115.0
3980,F#3,288.464,0.031,123,115.0
3981,F#3,288.714,0.031,66,115.0
3982,A4,288.964,6/25,102,115.0
3983,A3,288.964,6/25,102,115.0
3984,A2,288.964,6/25,102,115.0
3985,B1,288.964,0.031,107,115.0
3986,E-3,288.964,0.031,107,115.0
3987,F#3,288.964,0.031,107,115.0
3988,F#3,289.214,0.031,69,115.0
3989,C4,289.214,0.234,102,115.0
3990,C3,289.214,0.234,102,115.0
3991,C5,289.214,0.234,102,115.0
3992,D5,289.464,0.234,102,115.0
3993,D4,289.464,0.234,102,115.0
3994,D3,289.464,0.234,102,115.0
3995,E2,289.464,0.031,124,115.0
3996,F#3,289.464,0.031,124,115.0
3997,E-3,289.464,0.031,124,115.0
3998,F#3,289.714,0.031,74,115.0
3999,F3,289.714,0.25,102,115.0
4000,F5,289.714,0.25,102,115.0
4001,F4,289.714,0.25,102,115.0
4002,A1,289.964,0.359,127,115.0
4003,B1,289.964,0.031,100,115.0
4004,F#3,289.964,0.031,100,115.0
4005,E-3,289.964,0.031,100,115.0
4006,D3,289.964,0.25,102,115.0
4007,D5,289.964,0.25,102,115.0
4008,D4,289.964,0.25,102,115.0
4009,C5,290.214,0.234,102,115.0
4010,C4,290.214,0.234,102,115.0
4011,C3,290.214,0.234,102,115.0
4012,E2,290.214,0.031,94,115.0
4013,F#3,290.214,0.031,94,115.0
4014,D2,290.464,659/500,127,115.0
4015,D3,290.464,0.5,107,115.0
4016,D4,290.464,4.0,108,115.0
4017,D6,290.464,1307/1000,85,115.0
4018,E-3,290.464,0.031,121,115.0
4019,B1,290.464,0.031,121,115.0
4020,F#3,290.464,0.031,121,115.0
4021,F5,290.464,181/125,90,115.0
4022,D5,290.464,181/125,90,115.0
4023,D5,290.464,181/125,90,115.0
4024,A4,290.464,181/125,90,115.0
4025,F#3,290.714,0.031,66,115.0
4026,D3,290.964,0.5,107,115.0
4027,F#3,290.964,0.031,91,115.0
4028,E-3,290.964,0.031,91,115.0
4029,F#3,291.214,0.031,81,115.0
4030,C3,291.464,0.5,107,115.0
4031,E2,291.464,0.031,124,115.0
4032,F#3,291.464,0.031,124,115.0
4033,E-3,291.464,0.031,124,115.0
4034,F#3,291.714,0.031,75,115.0
4035,F3,291.964,2.062,107,115.0
4036,C2,291.964,0.172,127,115.0
4037,F4,291.964,487/250,89,115.0
4038,G5,291.964,487/250,89,115.0
4039,D5,291.964,487/250,89,115.0
4040,B-4,291.964,487/250,89,115.0
4041,B-2,291.964,0.984,98,115.0
4042,G5,291.964,0.984,98,115.0
4043,F#3,291.964,0.031,90,115.0
4044,E-3,291.964,0.031,90,115.0
4045,F#3,292.214,0.031,101,115.0
4046,E-3,292.214,0.031,101,115.0
4047,B1,292.214,0.031,101,115.0
4048,B-1,292.464,659/500,127,115.0
4049,E-3,292.464,0.031,120,115.0
4050,B1,292.464,0.031,120,115.0
4051,F#3,292.464,0.031,120,115.0
4052,F#3,292.714,0.031,78,115.0
4053,G5,292.964,513/500,90,115.0
4054,A2,292.964,49/100,106,115.0
4055,B1,292.964,0.031,105,115.0
4056,E-3,292.964,0.031,105,115.0
4057,F#3,292.964,0.031,105,115.0
4058,F#3,293.214,0.031,76,115.0
4059,G2,293.464,479/1000,106,115.0
4060,F#3,293.464,0.031,125,115.0
4061,E-3,293.464,0.031,125,115.0
4062,E2,293.464,0.031,125,115.0
4063,E-3,293.714,0.031,101,115.0
4064,F#3,293.714,0.031,101,115.0
4065,D2,293.964,0.203,127,115.0
4066,C3,293.964,0.5,106,115.0
4067,E5,293.964,0.5,90,115.0
4068,G4,293.964,0.5,95,115.0
4069,C5,293.964,0.5,95,115.0
4070,G3,293.964,0.5,95,115.0
4071,E-3,293.964,0.031,96,115.0
4072,B1,293.964,0.031,96,115.0
4073,F#3,293.964,0.031,96,115.0
4074,G5,293.964,0.5,88,115.0
4075,E5,293.964,0.5,88,115.0
4076,F#3,294.214,0.031,96,115.0
4077,E2,294.214,0.031,96,115.0
4078,C2,294.464,659/500,127,115.0
4079,D4,294.464,2.5,108,115.0
4080,C3,294.464,0.375,106,115.0
4081,E5,294.464,1.516,90,115.0
4082,E-3,294.464,0.031,122,115.0
4083,B1,294.464,0.031,122,115.0
4084,F#3,294.464,0.031,122,115.0
4085,G4,294.464,1.438,95,115.0
4086,C5,294.464,1.438,95,115.0
4087,G3,294.464,1.438,95,115.0
4088,G5,294.464,0.484,88,115.0
4089,E5,294.464,0.484,88,115.0
4090,F#3,294.714,0.031,69,115.0
4091,C5,294.964,0.984,90,115.0
4092,D5,294.964,483/250,85,115.0
4093,A2,294.964,0.484,106,115.0
4094,F#3,294.964,0.031,82,115.0
4095,E-3,294.964,0.031,82,115.0
4096,F#3,295.214,0.031,86,115.0
4097,C3,295.464,0.484,106,115.0
4098,E2,295.464,0.031,124,115.0
4099,F#3,295.464,0.031,124,115.0
4100,E-3,295.464,0.031,124,115.0
4101,F#3,295.714,0.031,86,115.0
4102,E2,295.964,13/100,127,115.0
4103,A3,295.964,201/200,101,115.0
4104,D3,295.964,201/200,101,115.0
4105,D5,295.964,201/200,101,115.0
4106,E-3,295.964,0.031,92,115.0
4107,F#3,295.964,0.031,92,115.0
4108,A4,295.964,306/125,90,115.0
4109,D5,295.964,306/125,90,115.0
4110,F5,295.964,306/125,90,115.0
4111,E2,296.214,0.031,84,115.0
4112,F#3,296.214,0.031,84,115.0
4113,D2,296.464,659/500,127,115.0
4114,E-3,296.464,0.031,122,115.0
4115,F#3,296.464,0.031,122,115.0
4116,B1,296.464,0.031,122,115.0
4117,F#3,296.714,0.031,80,115.0
4118,A4,296.964,0.25,98,115.0
4119,A2,296.964,0.25,98,115.0
4120,A4,296.964,0.25,98,115.0
4121,A3,296.964,0.25,98,115.0
4122,E2,296.964,0.031,101,115.0
4123,F#3,296.964,0.031,101,115.0
4124,C3,297.214,0.234,102,115.0
4125,C4,297.214,0.234,102,115.0
4126,C5,297.214,0.234,102,115.0
4127,F#3,297.214,0.031,104,115.0
4128,E2,297.214,0.031,104,115.0
4129,G4,297.464,401/1000,85,115.0
4130,F#3,297.464,0.031,123,115.0
4131,E-3,297.464,0.031,123,115.0
4132,B1,297.464,0.031,123,115.0
4133,D3,297.464,0.25,102,115.0
4134,D5,297.464,0.25,102,115.0
4135,D4,297.464,0.25,102,115.0
4136,F#3,297.714,0.031,75,115.0
4137,F4,297.714,0.234,102,115.0
4138,F5,297.714,0.234,102,115.0
4139,F3,297.714,0.234,102,115.0
4140,A4,297.964,54/125,85,115.0
4141,D4,297.964,0.188,108,115.0
4142,D3,297.964,0.188,108,115.0
4143,D5,297.964,0.188,108,115.0
4144,A1,297.964,0.188,108,115.0
4145,F#3,297.964,0.031,100,115.0
4146,E2,297.964,0.031,100,115.0
4147,C3,298.214,0.25,102,115.0
4148,C5,298.214,0.25,102,115.0
4149,C4,298.214,0.25,102,115.0
4150,E2,298.214,0.031,106,115.0
4151,F#3,298.214,0.031,106,115.0
4152,D2,298.464,659/500,127,115.0
4153,D3,298.464,0.5,107,115.0
4154,D4,298.464,4.0,110,115.0
4155,D4,298.464,3.719,85,115.0
4156,C#3,298.464,0.031,123,115.0
4157,F#3,298.464,0.031,123,115.0
4158,B1,298.464,0.031,123,115.0
4159,D5,298.464,1.484,90,115.0
4160,F5,298.464,1.484,90,115.0
4161,A4,298.464,1.484,90,115.0
4162,D5,298.464,1.484,90,115.0
4163,F#3,298.714,0.031,64,115.0
4164,D3,298.964,0.5,107,115.0
4165,F#3,298.964,0.031,57,115.0
4166,F#3,299.214,0.031,65,115.0
4167,C3,299.464,0.5,107,115.0
4168,E2,299.464,0.031,122,115.0
4169,E-3,299.464,0.031,122,115.0
4170,F#3,299.464,0.031,122,115.0
4171,F#3,299.714,0.031,71,115.0
4172,C2,299.964,99/500,127,115.0
4173,F3,299.964,2.062,107,115.0
4174,F5,299.964,241/250,98,115.0
4175,B-2,299.964,241/250,98,115.0
4176,B-4,299.964,487/250,90,115.0
4177,D5,299.964,487/250,90,115.0
4178,F4,299.964,487/250,90,115.0
4179,E-3,299.964,0.031,86,115.0
4180,F#3,299.964,0.031,86,115.0
4181,E2,300.214,0.031,86,115.0
4182,F#3,300.214,0.031,86,115.0
4183,B-1,300.464,659/500,127,115.0
4184,B1,300.464,0.031,122,115.0
4185,F#3,300.464,0.031,122,115.0
4186,E-3,300.464,0.031,122,115.0
4187,F#3,300.714,0.031,74,115.0
4188,A2,300.964,49/100,106,115.0
4189,F5,300.964,0.984,90,115.0
4190,F#3,300.964,0.031,104,115.0
4191,E-3,300.964,0.031,104,115.0
4192,B1,300.964,0.031,104,115.0
4193,F#3,301.214,0.031,82,115.0
4194,G2,301.464,479/1000,106,115.0
4195,E2,301.464,0.031,122,115.0
4196,E-3,301.464,0.031,122,115.0
4197,F#3,301.464,0.031,122,115.0
4198,E-3,301.714,0.031,94,115.0
4199,F#3,301.714,0.031,94,115.0
4200,E5,301.964,0.5,90,115.0
4201,D2,301.964,0.188,127,115.0
4202,C3,301.964,0.5,106,115.0
4203,D5,301.964,0.5,85,115.0
4204,E5,301.964,0.5,90,115.0
4205,G4,301.964,0.5,95,115.0
4206,G3,301.964,0.5,95,115.0
4207,C5,301.964,0.5,95,115.0
4208,E-3,301.964,0.031,98,115.0
4209,F#3,301.964,0.031,98,115.0
4210,B1,301.964,0.031,98,115.0
4211,F#3,302.214,0.031,94,115.0
4212,E2,302.214,0.031,94,115.0
4213,C2,302.464,659/500,127,115.0
4214,E5,302.464,1.516,90,115.0
4215,D4,302.464,2.5,110,115.0
4216,C3,302.464,0.375,106,115.0
4217,D5,302.464,3.469,85,115.0
4218,E5,302.464,0.484,90,115.0
4219,E-3,302.464,0.031,124,115.0
4220,B1,302.464,0.031,124,115.0
4221,F#3,302.464,0.031,124,115.0
4222,G4,302.464,181/125,95,115.0
4223,G3,302.464,181/125,95,115.0
4224,C5,302.464,181/125,95,115.0
4225,F#3,302.714,0.031,75,115.0
4226,A2,302.964,0.484,106,115.0
4227,C5,302.964,0.984,90,115.0
4228,E-3,302.964,0.031,89,115.0
4229,F#3,302.964,0.031,89,115.0
4230,F#3,303.214,0.031,82,115.0
4231,C3,303.464,0.484,106,115.0
4232,E2,303.464,0.031,124,115.0
4233,F#3,303.464,0.031,124,115.0
4234,E-3,303.464,0.031,124,115.0
4235,F#3,303.714,0.031,67,115.0
4236,D2,303.964,177/1000,127,115.0
4237,D5,303.964,306/125,90,115.0
4238,A4,303.964,306/125,90,115.0
4239,F5,303.964,306/125,90,115.0
4240,A3,303.964,0.984,101,115.0
4241,D3,303.964,0.984,101,115.0
4242,D5,303.964,0.984,101,115.0
4243,F#3,303.964,0.031,88,115.0
4244,E-3,303.964,0.031,88,115.0
4245,F#3,304.214,0.031,92,115.0
4246,B1,304.214,0.031,92,115.0
4247,D2,304.464,659/500,127,115.0
4248,B1,304.464,0.031,124,115.0
4249,E-3,304.464,0.031,124,115.0
4250,F#3,304.464,0.031,124,115.0
4251,F#3,304.714,0.031,66,115.0
4252,B1,304.964,0.031,104,115.0
4253,E-3,304.964,0.031,104,115.0
4254,F#3,304.964,0.031,104,115.0
4255,A4,304.964,0.25,102,115.0
4256,A2,304.964,0.25,102,115.0
4257,A3,304.964,0.25,102,115.0
4258,F#3,305.214,0.031,69,115.0
4259,C3,305.214,0.25,102,115.0
4260,C5,305.214,0.25,102,115.0
4261,C4,305.214,0.25,102,115.0
4262,D4,305.464,0.234,102,115.0
4263,D3,305.464,0.234,102,115.0
4264,D5,305.464,0.234,102,115.0
4265,F#3,305.464,0.031,122,115.0
4266,E-3,305.464,0.031,122,115.0
4267,E2,305.464,0.031,122,115.0
4268,F5,305.714,0.234,102,115.0
4269,F4,305.714,0.234,102,115.0
4270,F3,305.714,0.234,102,115.0
4271,E-3,305.714,0.031,98,115.0
4272,F#3,305.714,0.031,98,115.0
4273,A1,305.964,0.359,127,115.0
4274,D6,305.964,0.5,85,115.0
4275,F#3,305.964,0.031,99,115.0
4276,E-3,305.964,0.031,99,115.0
4277,B1,305.964,0.031,99,115.0
4278,D3,305.964,0.25,102,115.0
4279,D5,305.964,0.25,102,115.0
4280,D4,305.964,0.25,102,115.0
4281,F#3,306.214,0.031,98,115.0
4282,E2,306.214,0.031,98,115.0
4283,C3,306.214,0.25,102,115.0
4284,C4,306.214,0.25,102,115.0
4285,C5,306.214,0.25,102,115.0
4286,D3,306.464,0.5,107,115.0
4287,D2,306.464,659/500,127,115.0
4288,D4,306.464,4.0,108,115.0
4289,D6,306.464,729/500,85,115.0
4290,B1,306.464,0.031,125,115.0
4291,E-3,306.464,0.031,125,115.0
4292,F#3,306.464,0.031,125,115.0
4293,F5,306.464,1.484,90,115.0
4294,A4,306.464,1.484,90,115.0
4295,D5,306.464,1.484,90,115.0
4296,D5,306.464,1.484,90,115.0
4297,C3,306.464,21/1000,102,115.0
4298,C4,306.464,21/1000,102,115.0
4299,C5,306.464,21/1000,102,115.0
4300,F#3,306.714,0.031,66,115.0
4301,D3,306.964,0.5,107,115.0
4302,E-3,306.964,0.031,92,115.0
4303,F#3,306.964,0.031,92,115.0
4304,F#3,307.214,0.031,81,115.0
4305,C3,307.464,0.5,107,115.0
4306,E-3,307.464,0.031,124,115.0
4307,F#3,307.464,0.031,124,115.0
4308,E2,307.464,0.031,124,115.0
4309,F#3,307.714,0.031,75,115.0
4310,A5,307.964,0.719,85,115.0
4311,C2,307.964,0.172,127,115.0
4312,F3,307.964,2.062,107,115.0
4313,D5,307.964,487/250,90,115.0
4314,F4,307.964,487/250,90,115.0
4315,B-4,307.964,487/250,90,115.0
4316,G5,307.964,241/250,98,115.0
4317,B-2,307.964,241/250,98,115.0
4318,F#3,307.964,0.031,90,115.0
4319,E-3,307.964,0.031,90,115.0
4320,B1,308.214,0.031,91,115.0
4321,F#3,308.214,0.031,91,115.0
4322,B-1,308.464,659/500,127,115.0
4323,E-3,308.464,0.031,123,115.0
4324,B1,308.464,0.031,123,115.0
4325,F#3,308.464,0.031,123,115.0
4326,F#3,308.714,0.031,78,115.0
4327,A2,308.964,49/100,106,115.0
4328,G5,308.964,513/500,88,115.0
4329,G5,308.964,513/500,88,115.0
4330,B1,308.964,0.031,104,115.0
4331,F#3,308.964,0.031,104,115.0
4332,E-3,308.964,0.031,104,115.0
4333,F#3,309.214,0.031,76,115.0
4334,G2,309.464,479/1000,106,115.0
4335,F#3,309.464,0.031,125,115.0
4336,E-3,309.464,0.031,125,115.0
4337,E2,309.464,0.031,125,115.0
4338,F#3,309.714,0.031,81,115.0
4339,D2,309.964,0.203,127,115.0
4340,E5,309.964,0.5,90,115.0
4341,C3,309.964,0.5,106,115.0
4342,F#3,309.964,0.031,99,115.0
4343,B1,309.964,0.031,99,115.0
4344,E-3,309.964,0.031,99,115.0
4345,E5,309.964,0.5,88,115.0
4346,E5,309.964,0.5,88,115.0
4347,G4,309.964,0.5,95,115.0
4348,G3,309.964,0.5,95,115.0
4349,C5,309.964,0.5,95,115.0
4350,E2,310.214,0.031,100,115.0
4351,E-3,310.214,0.031,100,115.0
4352,F#3,310.214,0.031,100,115.0
4353,C2,310.464,659/500,127,115.0
4354,E5,310.464,1.516,90,115.0
4355,C3,310.464,0.375,106,115.0
4356,D4,310.464,2.5,108,115.0
4357,E-3,310.464,0.031,123,115.0
4358,F#3,310.464,0.031,123,115.0
4359,B1,310.464,0.031,123,115.0
4360,E5,310.464,0.469,88,115.0
4361,E5,310.464,0.469,88,115.0
4362,G4,310.464,181/125,95,115.0
4363,G3,310.464,181/125,95,115.0
4364,C5,310.464,181/125,95,115.0
4365,F#3,310.714,0.031,69,115.0
4366,A2,310.964,0.484,106,115.0
4367,C5,310.964,0.969,88,115.0
4368,C5,310.964,0.969,88,115.0
4369,E-3,310.964,0.031,97,115.0
4370,F#3,310.964,0.031,97,115.0
4371,B1,310.964,0.031,97,115.0
4372,F#3,311.214,0.031,86,115.0
4373,C3,311.464,0.484,106,115.0
4374,F#3,311.464,0.031,124,115.0
4375,E2,311.464,0.031,124,115.0
4376,E-3,311.464,0.031,124,115.0
4377,F#3,311.714,0.031,86,115.0
4378,E2,311.964,13/100,127,115.0
4379,D5,311.964,1021/1000,97,115.0
4380,D5,311.964,1021/1000,97,115.0
4381,A3,311.964,1021/1000,97,115.0
4382,D3,311.964,1021/1000,97,115.0
4383,E-3,311.964,0.031,97,115.0
4384,B1,311.964,0.031,97,115.0
4385,F#3,311.964,0.031,97,115.0
4386,D5,311.964,306/125,90,115.0
4387,F5,311.964,306/125,90,115.0
4388,A4,311.964,306/125,90,115.0
4389,E2,312.214,0.031,94,115.0
4390,F#3,312.214,0.031,94,115.0
4391,D2,312.464,659/500,127,115.0
4392,F#3,312.464,0.031,119,115.0
4393,C#3,312.464,0.031,119,115.0
4394,B1,312.464,0.031,119,115.0
4395,F#3,312.714,0.031,80,115.0
4396,A5,312.964,0.969,85,115.0
4397,F#3,312.964,0.031,98,115.0
4398,E2,312.964,0.031,98,115.0
4399,A4,312.964,0.25,102,115.0
4400,A2,312.964,0.25,102,115.0
4401,A3,312.964,0.25,102,115.0
4402,C3,313.214,0.234,102,115.0
4403,C4,313.214,0.234,102,115.0
4404,C5,313.214,0.234,102,115.0
4405,F#3,313.214,0.031,102,115.0
4406,E2,313.214,0.031,102,115.0
4407,F#3,313.464,0.031,122,115.0
4408,E-3,313.464,0.031,122,115.0
4409,B1,313.464,0.031,122,115.0
4410,D5,313.464,0.25,102,115.0
4411,D3,313.464,0.25,102,115.0
4412,D4,313.464,0.25,102,115.0
4413,F#3,313.714,0.031,75,115.0
4414,F5,313.714,0.234,102,115.0
4415,F4,313.714,0.234,102,115.0
4416,F3,313.714,0.234,102,115.0
4417,D6,313.964,0.5,85,115.0
4418,D4,313.964,0.234,108,115.0
4419,A1,313.964,0.234,108,115.0
4420,D3,313.964,0.234,108,115.0
4421,D5,313.964,0.234,108,115.0
4422,E2,313.964,0.031,94,115.0
4423,F#3,313.964,0.031,94,115.0
4424,F#3,314.214,0.031,104,115.0
4425,E2,314.214,0.031,104,115.0
4426,C5,314.214,0.25,102,115.0
4427,C3,314.214,0.25,102,115.0
4428,C4,314.214,0.25,102,115.0
4429,D2,314.464,659/500,127,115.0
4430,D3,314.464,0.5,107,115.0
4431,D4,314.464,4.0,110,115.0
4432,D6,314.464,1.875,85,115.0
4433,D5,314.464,181/125,90,115.0
4434,D5,314.464,181/125,90,115.0
4435,F5,314.464,181/125,90,115.0
4436,A4,314.464,181/125,90,115.0
4437,B1,314.464,0.031,124,115.0
4438,F#3,314.464,0.031,124,115.0
4439,C#3,314.464,0.031,124,115.0
4440,F#3,314.714,0.031,66,115.0
4441,D3,314.964,0.5,107,115.0
4442,E-3,314.964,0.031,82,115.0
4443,F#3,314.964,0.031,82,115.0
4444,F#3,315.214,0.031,81,115.0
4445,C3,315.464,0.5,107,115.0
4446,F#3,315.464,0.031,124,115.0
4447,E2,315.464,0.031,124,115.0
4448,E-3,315.464,0.031,124,115.0
4449,F#3,315.714,0.031,75,115.0
4450,C2,315.964,99/500,127,115.0
4451,F3,315.964,2.062,107,115.0
4452,F5,315.964,241/250,98,115.0
4453,B-2,315.964,241/250,98,115.0
4454,E-3,315.964,0.031,90,115.0
4455,F#3,315.964,0.031,90,115.0
4456,B-4,315.964,1.969,90,115.0
4457,F4,315.964,1.969,90,115.0
4458,D5,315.964,1.969,90,115.0
4459,E2,316.214,0.031,82,115.0
4460,F#3,316.214,0.031,82,115.0
4461,B-1,316.464,659/500,127,115.0
4462,D6,316.464,153/125,85,115.0
4463,F#3,316.464,0.031,122,115.0
4464,E-3,316.464,0.031,122,115.0
4465,B1,316.464,0.031,122,115.0
4466,F#3,316.714,0.031,78,115.0
4467,F5,316.964,0.984,90,115.0
4468,A2,316.964,49/100,106,115.0
4469,E-3,316.964,0.031,105,115.0
4470,F#3,316.964,0.031,105,115.0
4471,B1,316.964,0.031,105,115.0
4472,F#3,317.214,0.031,76,115.0
4473,G2,317.464,479/1000,106,115.0
4474,E2,317.464,0.031,125,115.0
4475,F#3,317.464,0.031,125,115.0
4476,E-3,317.464,0.031,125,115.0
4477,E-3,317.714,0.031,96,115.0
4478,F#3,317.714,0.031,96,115.0
4479,D2,317.964,0.188,127,115.0
4480,E5,317.964,0.5,90,115.0
4481,E5,317.964,0.5,90,115.0
4482,C3,317.964,0.5,106,115.0
4483,C6,317.964,0.5,85,115.0
4484,B1,317.964,0.031,89,115.0
4485,E-3,317.964,0.031,89,115.0
4486,F#3,317.964,0.031,89,115.0
4487,C5,317.964,0.5,95,115.0
4488,G4,317.964,0.5,95,115.0
4489,G3,317.964,0.5,95,115.0
4490,F#3,318.214,0.031,92,115.0
4491,E2,318.214,0.031,92,115.0
4492,C2,318.464,659/500,127,115.0
4493,D6,318.464,1.734,85,115.0
4494,E5,318.464,1.516,90,115.0
4495,D4,318.464,2.5,110,115.0
4496,E5,318.464,0.484,90,115.0
4497,C3,318.464,0.375,106,115.0
4498,C6,318.464,21/1000,85,115.0
4499,B1,318.464,0.031,122,115.0
4500,F#3,318.464,0.031,122,115.0
4501,E-3,318.464,0.031,122,115.0
4502,C5,318.464,1.438,95,115.0
4503,G4,318.464,1.438,95,115.0
4504,G3,318.464,1.438,95,115.0
4505,F#3,318.714,0.031,69,115.0
4506,A2,318.964,0.484,106,115.0
4507,C5,318.964,0.984,90,115.0
4508,E-3,318.964,0.031,89,115.0
4509,F#3,318.964,0.031,89,115.0
4510,F#3,319.214,0.031,86,115.0
4511,C3,319.464,0.484,106,115.0
4512,F#3,319.464,0.031,124,115.0
4513,E-3,319.464,0.031,124,115.0
4514,E2,319.464,0.031,124,115.0
4515,F#3,319.714,0.031,86,115.0
4516,D2,319.964,177/1000,127,115.0
4517,D6,319.964,1.5,85,115.0
4518,D5,319.964,306/125,90,115.0
4519,A4,319.964,306/125,90,115.0
4520,F5,319.964,306/125,90,115.0
4521,D3,319.964,1.031,101,115.0
4522,D5,319.964,1.031,101,115.0
4523,A3,319.964,1.031,101,115.0
4524,F#3,319.964,0.031,92,115.0
4525,E-3,319.964,0.031,92,115.0
4526,F#3,320.214,0.031,93,115.0
4527,B1,320.214,0.031,93,115.0
4528,D2,320.464,659/500,127,115.0
4529,E-3,320.464,0.031,122,115.0
4530,F#3,320.464,0.031,122,115.0
4531,B1,320.464,0.031,122,115.0
4532,F#3,320.714,0.031,80,115.0
4533,A2,320.964,0.25,102,115.0
4534,A4,320.964,0.25,102,115.0
4535,A3,320.964,0.25,102,115.0
4536,F#3,320.964,0.031,109,115.0
4537,B1,320.964,0.031,109,115.0
4538,E-3,320.964,0.031,109,115.0
4539,F#3,321.214,0.031,90,115.0
4540,C4,321.214,0.234,102,115.0
4541,C3,321.214,0.234,102,115.0
4542,C5,321.214,0.234,102,115.0
4543,E-3,321.464,0.031,123,115.0
4544,F#3,321.464,0.031,123,115.0
4545,E2,321.464,0.031,123,115.0
4546,D3,321.464,0.234,102,115.0
4547,D4,321.464,0.234,102,115.0
4548,D5,321.464,0.234,102,115.0
4549,E-3,321.714,0.031,98,115.0
4550,F#3,321.714,0.031,98,115.0
4551,F3,321.714,0.25,102,115.0
4552,F5,321.714,0.25,102,115.0
4553,F4,321.714,0.25,102,115.0
4554,A1,321.964,0.359,127,115.0
4555,E-3,321.964,0.031,104,115.0
4556,B1,321.964,0.031,104,115.0
4557,F#3,321.964,0.031,104,115.0
4558,D4,321.964,0.234,102,115.0
4559,D3,321.964,0.234,102,115.0
4560,D5,321.964,0.234,102,115.0
4561,E2,322.214,0.031,101,115.0
4562,F#3,322.214,0.031,101,115.0
4563,C3,322.214,0.25,102,115.0
4564,C4,322.214,0.25,102,115.0
4565,C5,322.214,0.25,102,115.0
4566,D3,322.464,1.047,106,115.0
4567,D4,322.464,4.0,108,115.0
4568,A5,322.464,3.984,85,115.0
4569,D2,322.464,659/500,127,115.0
4570,F#3,322.464,0.031,114,115.0
4571,B1,322.464,0.031,114,115.0
4572,C#3,322.464,0.031,114,115.0
4573,D5,322.464,181/125,90,115.0
4574,F5,322.464,181/125,90,115.0
4575,A4,322.464,181/125,90,115.0
4576,D5,322.464,181/125,90,115.0
4577,C3,322.464,21/1000,102,115.0
4578,C4,322.464,21/1000,102,115.0
4579,C5,322.464,21/1000,102,115.0
4580,F#3,322.714,0.031,69,115.0
4581,F#3,322.964,0.031,79,115.0
4582,E-3,322.964,0.031,79,115.0
4583,F#3,323.214,0.031,86,115.0
4584,C3,323.464,67/125,105,115.0
4585,E-3,323.464,0.031,124,115.0
4586,F#3,323.464,0.031,124,115.0
4587,E2,323.464,0.031,124,115.0
4588,F#3,323.714,0.031,86,115.0
4589,F3,323.964,771/500,105,115.0
4590,G5,323.964,0.984,90,115.0
4591,B-2,323.964,0.844,105,115.0
4592,C2,323.964,0.172,127,115.0
4593,B-4,323.964,306/125,90,115.0
4594,F4,323.964,306/125,90,115.0
4595,D5,323.964,306/125,90,115.0
4596,E-3,323.964,0.031,92,115.0
4597,F#3,323.964,0.031,92,115.0
4598,E2,324.214,0.031,88,115.0
4599,F#3,324.214,0.031,88,115.0
4600,B-1,324.464,659/500,127,115.0
4601,B1,324.464,0.031,117,115.0
4602,F#3,324.464,0.031,117,115.0
4603,E-3,324.464,0.031,117,115.0
4604,F#3,324.714,0.031,80,115.0
4605,G5,324.964,513/500,90,115.0
4606,A2,324.964,56/125,105,115.0
4607,B1,324.964,0.031,109,115.0
4608,E-3,324.964,0.031,109,115.0
4609,F#3,324.964,0.031,109,115.0
4610,F#3,325.214,0.031,90,115.0
4611,G2,325.464,0.484,105,115.0
4612,F#3,325.464,0.031,124,115.0
4613,E2,325.464,0.031,124,115.0
4614,E-3,325.464,0.031,124,115.0
4615,F#3,325.714,0.031,75,115.0
4616,D2,325.964,0.203,127,115.0
4617,G3,325.964,0.5,105,115.0
4618,C3,325.964,0.5,105,115.0
4619,B1,325.964,0.031,101,115.0
4620,E-3,325.964,0.031,101,115.0
4621,F#3,325.964,0.031,101,115.0
4622,E5,325.964,0.5,118,115.0
4623,G3,325.964,0.5,118,115.0
4624,C3,325.964,0.5,118,115.0
4625,C4,325.964,0.5,118,115.0
4626,E-3,326.214,0.031,100,115.0
4627,F#3,326.214,0.031,100,115.0
4628,C2,326.464,659/500,127,115.0
4629,C4,326.464,3.984,85,115.0
4630,D4,326.464,7.734,108,115.0
4631,C#3,326.464,0.031,106,115.0
4632,B1,326.464,0.031,106,115.0
4633,F#3,326.464,0.031,106,115.0
4634,C4,326.464,4.0,90,115.0
4635,G3,326.464,4.0,90,115.0
4636,G3,326.464,7.984,105,115.0
4637,C3,326.464,7.984,105,115.0
4638,E5,326.464,0.484,118,115.0
4639,G3,326.464,0.484,118,115.0
4640,C3,326.464,0.484,118,115.0
4641,C4,326.464,0.484,118,115.0
4642,F#3,326.964,0.031,96,115.0
4643,C5,326.964,3.5,90,115.0
4644,E2,327.464,0.031,127,115.0
4645,F#3,327.464,0.031,127,115.0
4646,E-3,327.464,0.031,127,115.0
4647,G3,327.714,0.703,124,115.0
4648,C2,327.964,483/250,127,115.0
4649,B1,327.964,0.031,100,115.0
4650,F#3,327.964,0.031,100,115.0
4651,C4,327.964,151/250,127,115.0
4652,C3,327.964,151/250,127,115.0
4653,B1,328.464,0.031,93,115.0
4654,F#3,328.464,0.031,93,115.0
4655,E-3,328.464,0.031,93,115.0
4656,F#3,328.964,0.031,88,115.0
4657,G3,328.964,13/50,116,115.0
4658,G3,329.464,0.141,82,115.0
4659,E-3,329.464,0.031,127,115.0
4660,E2,329.464,0.031,127,115.0
4661,F#3,329.464,0.031,127,115.0
4662,C6,329.964,0.5,61,115.0
4663,G2,329.964,479/1000,127,115.0
4664,F#3,329.964,0.031,91,115.0
4665,B1,329.964,0.031,91,115.0
4666,G3,329.964,193/1000,127,115.0
4667,C3,329.964,193/1000,127,115.0
4668,C4,329.964,193/1000,127,115.0
4669,C2,334.448,659/500,127,115.0
4670,C3,334.448,339/1000,127,115.0
4671,C6,334.448,472/125,61,115.0
4672,C5,334.448,1909/500,90,115.0
4673,E4,334.448,0.156,126,115.0
4674,G3,334.448,0.156,126,115.0
4675,C4,334.448,0.156,126,115.0
4676,B1,334.448,0.031,112,115.0
4677,E-3,334.448,0.031,112,115.0
4678,C4,334.448,3.797,90,115.0
4679,G3,334.448,3.797,90,115.0
4680,G3,335.198,27/200,64,115.0
4681,G3,335.448,161/1000,86,115.0
4682,E2,335.448,0.031,122,115.0
4683,E-3,335.448,0.031,122,115.0
4684,B1,335.948,0.031,62,115.0
4685,C2,335.948,1979/1000,127,115.0
4686,C3,335.948,73/250,121,115.0
4687,C4,335.948,73/250,121,115.0
4688,G3,335.948,73/250,121,115.0
4689,B1,336.448,0.031,110,115.0
4690,E-3,336.448,0.031,110,115.0
4691,G3,336.948,0.344,124,115.0
4692,E-3,337.448,0.031,127,115.0
4693,E2,337.448,0.031,127,115.0
4694,B1,337.948,0.031,70,115.0
4695,G3,337.948,0.172,127,115.0
4696,G1,337.948,0.469,127,115.0
4697,C3,338.448,0.766,127,115.0
4698,C2,338.448,1589/1000,127,115.0
4699,C4,338.448,1.125,127,115.0
4700,G3,338.448,1.125,127,115.0
4701,C3,339.448,37/50,127,115.0
4702,C4,339.948,979/1000,127,115.0
4703,G3,339.948,357/500,127,115.0
4704,G3,340.948,151/250,127,115.0
4705,C2,340.948,0.391,127,115.0
4706,C3,340.948,0.391,127,115.0
4707,C4,341.448,573/1000,127,115.0
4708,G3,341.948,0.5,127,115.0
4709,E2,342.448,2.828,127,115.0
4710,G3,342.448,97/125,127,115.0
4711,C4,342.448,1083/1000,127,115.0
4712,E4,342.448,1083/1000,127,115.0
4713,G3,343.448,149/200,127,115.0
4714,C4,343.948,411/1000,127,115.0
4715,C4,344.448,167/1000,127,115.0
4716,E4,344.448,67/125,127,115.0
4717,G3,344.948,589/1000,124,115.0
4718,G4,345.448,0.625,127,115.0
4719,G3,345.948,26/125,127,115.0
4720,F2,346.448,2.359,127,115.0
4721,C4,346.448,0.797,127,115.0
4722,G4,346.448,0.797,127,115.0
4723,A3,346.448,0.797,127,115.0
4724,A3,347.448,27/200,121,115.0
4725,C4,347.448,27/200,121,115.0
4726,F4,347.448,27/200,121,115.0
4727,F4,347.948,177/200,127,115.0
4728,C4,347.948,807/1000,127,115.0
4729,A3,347.948,0.422,127,115.0
4730,A3,348.448,161/1000,90,115.0
4731,F2,348.948,1.5,127,115.0
4732,A3,349.448,0.234,108,115.0
4733,E4,349.448,0.094,122,115.0
4734,C4,349.448,0.094,122,115.0
4735,A3,349.948,0.328,127,115.0
4736,E4,349.948,0.5,127,115.0
4737,C4,349.948,0.5,127,115.0
4738,F2,350.448,1833/1000,127,115.0
4739,E4,350.448,26/125,127,115.0
4740,C4,350.448,26/125,127,115.0
4741,A3,350.948,677/1000,127,115.0
4742,D4,351.448,0.188,127,115.0
4743,A3,351.948,54/125,127,115.0
4744,D4,351.948,357/500,127,115.0
4745,A3,352.948,0.234,126,115.0
4746,F2,352.948,0.234,126,115.0
4747,C4,353.448,0.375,127,115.0
4748,G2,353.948,37/100,127,115.0
4749,C3,354.448,97/125,127,115.0
4750,G2,354.448,573/1000,127,115.0
4751,C4,354.448,1.109,127,115.0
4752,G3,354.448,1.109,127,115.0
4753,C2,354.448,1.109,127,115.0
4754,C3,355.448,0.266,124,115.0
4755,C2,355.948,99/200,127,115.0
4756,C3,355.948,99/200,127,115.0
4757,G3,356.948,37/50,127,115.0
4758,C4,357.448,0.328,127,115.0
4759,E4,357.948,0.203,124,115.0
4760,G3,357.948,27/200,90,115.0
4761,G3,358.448,0.734,127,115.0
4762,E2,358.448,2.719,127,115.0
4763,C4,358.448,227/200,127,115.0
4764,E4,358.448,227/200,127,115.0
4765,G3,359.448,651/1000,127,115.0
4766,E3,359.948,99/125,127,115.0
4767,C4,360.448,0.625,127,115.0
4768,G3,360.448,0.625,127,115.0
4769,E4,360.448,0.625,127,115.0
4770,G4,361.448,0.609,127,115.0
4771,G3,361.948,167/1000,127,115.0
4772,G4,362.448,0.703,127,115.0
4773,F3,362.448,233/250,127,115.0
4774,F2,362.448,2807/1000,127,115.0
4775,A3,362.448,0.828,127,115.0
4776,C4,362.448,0.828,127,115.0
4777,A3,363.448,0.156,110,115.0
4778,F4,363.448,0.156,110,115.0
4779,C4,363.448,0.156,110,115.0
4780,A3,363.948,49/100,127,115.0
4781,C4,363.948,241/250,127,115.0
4782,F4,363.948,151/200,127,115.0
4783,A3,364.948,37/100,126,115.0
4784,F3,364.948,37/100,126,115.0
4785,C4,365.448,99/500,115,115.0
4786,E4,365.448,99/500,115,115.0
4787,A3,365.448,99/500,115,115.0
4788,A3,365.948,417/1000,124,115.0
4789,C4,365.948,13/50,127,115.0
4790,E4,365.948,13/50,127,115.0
4791,A3,366.948,51/100,116,115.0
4792,D4,367.448,229/1000,127,115.0
4793,C4,367.448,13/100,127,115.0
4794,D4,367.948,417/1000,127,115.0
4795,A3,367.948,417/1000,127,115.0
4796,A3,368.948,99/250,127,115.0
4797,C4,369.448,56/125,127,115.0
4798,A3,369.948,0.141,108,115.0
4799,C4,370.448,1.188,127,115.0
4800,G#3,370.448,1.422,127,115.0
4801,B-2,370.448,1.078,127,115.0
4802,D4,370.448,1.078,127,115.0
4803,B-2,371.948,2.5,127,115.0
4804,G#3,372.948,0.438,127,115.0
4805,C4,373.448,349/1000,127,115.0
4806,D4,373.948,19/50,127,115.0
4807,E4,374.448,151/250,127,115.0
4808,G#3,374.448,89/1000,126,115.0
4809,B-2,374.448,0.125,127,115.0
4810,B-2,374.948,0.547,127,115.0
4811,D4,375.448,0.406,127,115.0
4812,B-2,375.948,159/500,126,115.0
4813,C4,376.448,417/1000,127,115.0
4814,G#3,376.948,0.484,127,115.0
4815,C4,377.948,0.5,127,115.0
4816,C3,378.448,0.641,127,115.0
4817,C4,378.448,0.578,127,115.0
4818,G3,378.948,0.547,127,115.0
4819,G3,379.948,89/1000,100,115.0
4820,C4,379.948,0.375,127,115.0
4821,C3,379.948,0.375,127,115.0
4822,D4,380.448,49/200,127,115.0
4823,G3,380.948,0.188,127,115.0
4824,C4,380.948,37/100,127,115.0
4825,E4,380.948,37/100,127,115.0
4826,G3,381.448,323/1000,127,115.0
4827,E-3,381.948,0.031,122,115.0
4828,G4,381.948,56/125,127,115.0
4829,G3,381.948,0.141,108,115.0
4830,E-3,382.448,0.031,108,115.0
4831,E2,382.948,0.031,42,115.0
4832,D3,382.948,271/500,127,115.0
4833,C3,382.948,339/1000,127,115.0
4834,G3,382.948,427/1000,127,115.0
4835,E5,382.948,3229/1000,90,115.0
4836,G5,382.948,3229/1000,90,115.0
4837,A4,383.198,1599/500,90,115.0
4838,C5,383.198,1599/500,90,115.0
4839,D4,383.448,229/500,127,115.0
4840,C3,383.448,263/500,127,115.0
4841,E2,383.448,0.031,116,115.0
4842,F#3,383.448,0.031,116,115.0
4843,A2,383.948,417/1000,127,115.0
4844,E2,383.948,0.031,104,115.0
4845,G3,383.948,333/1000,127,115.0
4846,E2,384.448,0.031,118,115.0
4847,G2,384.448,0.406,127,115.0
4848,C4,384.448,0.406,127,115.0
4849,G3,384.948,0.203,127,115.0
4850,E2,384.948,271/500,127,115.0
4851,E2,384.948,0.031,127,115.0
4852,D2,385.448,67/125,127,115.0
4853,F#3,385.448,0.031,127,115.0
4854,E2,385.448,0.031,127,115.0
4855,D4,385.448,0.234,127,115.0
4856,A3,385.448,0.234,127,115.0
4857,B1,385.948,0.031,103,115.0
4858,C2,385.948,401/1000,104,115.0
4859,C4,385.948,0.484,127,115.0
4860,G3,385.948,0.484,127,115.0
4861,C3,386.448,0.766,127,115.0
4862,B1,386.448,0.031,119,115.0
4863,C#3,386.448,0.031,119,115.0
4864,F#3,386.448,0.031,119,115.0
4865,C4,386.448,1.125,127,115.0
4866,G3,386.448,1.125,127,115.0
4867,C2,386.448,1307/1000,108,115.0
4868,A4,386.448,1307/1000,108,115.0
4869,C5,386.448,1589/1000,117,115.0
4870,C2,386.448,1589/1000,117,115.0
4871,D5,386.448,1589/1000,108,115.0
4872,C2,386.448,1589/1000,108,115.0
4873,F#3,386.948,0.031,122,115.0
4874,C3,387.448,37/50,127,115.0
4875,E2,387.448,0.031,127,115.0
4876,F#3,387.448,0.031,127,115.0
4877,E-3,387.448,0.031,127,115.0
4878,G4,387.948,2.5,90,115.0
4879,C5,387.948,2.5,90,115.0
4880,G4,387.948,1417/1000,107,115.0
4881,C2,387.948,401/200,127,115.0
4882,G3,387.948,357/500,127,115.0
4883,C4,387.948,979/1000,127,115.0
4884,F#3,387.948,0.031,94,115.0
4885,E-3,387.948,0.031,94,115.0
4886,B1,388.448,0.031,113,115.0
4887,E-3,388.448,0.031,113,115.0
4888,F#3,388.448,0.031,113,115.0
4889,G3,388.948,151/250,127,115.0
4890,E-3,388.948,0.031,92,115.0
4891,F#3,388.948,0.031,92,115.0
4892,C2,388.948,0.391,127,115.0
4893,C3,388.948,0.391,127,115.0
4894,C5,389.448,0.922,107,115.0
4895,C4,389.448,573/1000,127,115.0
4896,F#3,389.448,0.031,127,115.0
4897,E-3,389.448,0.031,127,115.0
4898,E2,389.448,0.031,127,115.0
4899,D1,389.948,237/500,127,115.0
4900,G3,389.948,0.5,127,115.0
4901,B1,389.948,0.031,97,115.0
4902,E-3,389.948,0.031,97,115.0
4903,F#3,389.948,0.031,97,115.0
4904,E2,390.448,2.828,127,115.0
4905,E1,390.448,599/500,127,115.0
4906,E5,390.448,3.062,107,115.0
4907,D5,390.448,1.438,90,115.0
4908,G4,390.448,3.688,90,115.0
4909,C5,390.448,0.047,90,115.0
4910,G3,390.448,97/125,127,115.0
4911,E-3,390.448,0.031,103,115.0
4912,B1,390.448,0.031,103,115.0
4913,F#3,390.448,0.031,103,115.0
4914,E4,390.448,227/200,127,115.0
4915,C4,390.448,227/200,127,115.0
4916,E-3,390.948,0.031,109,115.0
4917,F#3,390.948,0.031,109,115.0
4918,G3,391.448,149/200,127,115.0
4919,E-3,391.448,0.031,127,115.0
4920,F#3,391.448,0.031,127,115.0
4921,E2,391.448,0.031,127,115.0
4922,E1,391.948,373/200,127,115.0
4923,C4,391.948,411/1000,127,115.0
4924,C5,391.948,2.5,90,115.0
4925,E-3,391.948,0.031,89,115.0
4926,B1,391.948,0.031,89,115.0
4927,F#3,391.948,0.031,89,115.0
4928,E4,392.448,67/125,127,115.0
4929,C4,392.448,167/1000,127,115.0
4930,B1,392.448,0.031,96,115.0
4931,F#3,392.448,0.031,96,115.0
4932,E-3,392.448,0.031,96,115.0
4933,G3,392.948,589/1000,124,115.0
4934,F#3,392.948,0.031,115,115.0
4935,E-3,392.948,0.031,115,115.0
4936,G4,393.448,0.625,127,115.0
4937,F5,393.448,0.438,107,115.0
4938,F#3,393.448,0.031,127,115.0
4939,E2,393.448,0.031,127,115.0
4940,E-3,393.448,0.031,127,115.0
4941,G3,393.948,26/125,127,115.0
4942,E1,393.948,427/1000,118,115.0
4943,G5,393.948,0.5,107,115.0
4944,B1,393.948,0.031,89,115.0
4945,F#3,393.948,0.031,89,115.0
4946,E-3,393.948,0.031,89,115.0
4947,F1,394.448,63/50,127,115.0
4948,A4,394.448,349/100,90,115.0
4949,F2,394.448,2.359,127,115.0
4950,G5,394.448,1.0,107,115.0
4951,C5,394.448,8021/1000,90,115.0
4952,A3,394.448,0.781,127,115.0
4953,C4,394.448,0.781,127,115.0
4954,G4,394.448,0.781,127,115.0
4955,C4,394.448,0.781,127,115.0
4956,F#3,394.448,0.031,103,115.0
4957,B1,394.448,0.031,103,115.0
4958,E-3,394.448,0.031,103,115.0
4959,F#3,394.948,0.031,102,115.0
4960,E-3,394.948,0.031,102,115.0
4961,F5,395.448,2021/1000,107,115.0
4962,E2,395.448,0.031,127,115.0
4963,E-3,395.448,0.031,127,115.0
4964,F#3,395.448,0.031,127,115.0
4965,C4,395.448,27/200,121,115.0
4966,A3,395.448,27/200,121,115.0
4967,F4,395.448,27/200,121,115.0
4968,F1,395.948,1.891,127,115.0
4969,F4,395.948,177/200,127,115.0
4970,C4,395.948,807/1000,127,115.0
4971,A3,395.948,0.422,127,115.0
4972,B1,395.948,0.031,94,115.0
4973,E-3,395.948,0.031,94,115.0
4974,F#3,395.948,0.031,94,115.0
4975,A3,396.448,161/1000,90,115.0
4976,B1,396.448,0.031,106,115.0
4977,F#3,396.448,0.031,106,115.0
4978,E-3,396.448,0.031,106,115.0
4979,F2,396.948,1.5,127,115.0
4980,E-3,396.948,0.031,92,115.0
4981,F#3,396.948,0.031,92,115.0
4982,A3,397.448,0.234,108,115.0
4983,E5,397.448,1.0,107,115.0
4984,E4,397.448,13/100,127,115.0
4985,E2,397.448,0.031,124,115.0
4986,E-3,397.448,0.031,124,115.0
4987,C4,397.448,0.031,124,115.0
4988,F#3,397.448,0.031,124,115.0
4989,C2,397.948,0.5,118,115.0
4990,G4,397.948,0.5,90,115.0
4991,A3,397.948,0.328,127,115.0
4992,E4,397.948,0.5,127,115.0
4993,C4,397.948,0.5,127,115.0
4994,E-3,397.948,0.031,90,115.0
4995,B1,397.948,0.031,90,115.0
4996,F#3,397.948,0.031,90,115.0
4997,F2,402.469,573/500,127,115.0
4998,C2,402.469,0.016,118,115.0
4999,F2,402.469,1833/1000,127,115.0
5000,G4,402.469,1443/1000,90,115.0
5001,E5,402.469,1021/1000,107,115.0
5002,B1,402.469,0.031,106,115.0
5003,E-3,402.469,0.031,106,115.0
5004,F#3,402.469,0.031,106,115.0
5005,E4,402.469,26/125,127,115.0
5006,C4,402.469,26/125,127,115.0
5007,A3,402.969,677/1000,127,115.0
5008,F#3,402.969,0.031,102,115.0
5009,E-3,402.969,0.031,102,115.0
5010,D4,403.469,0.188,127,115.0
5011,D5,403.469,1.953,107,115.0
5012,E2,403.469,0.031,127,115.0
5013,E-3,403.469,0.031,127,115.0
5014,F#3,403.469,0.031,127,115.0
5015,F4,403.969,2.047,90,115.0
5016,D4,403.969,357/500,127,115.0
5017,A3,403.969,54/125,127,115.0
5018,F2,403.969,1.672,127,115.0
5019,B1,403.969,0.031,102,115.0
5020,E-3,403.969,0.031,102,115.0
5021,F#3,403.969,0.031,102,115.0
5022,B1,404.469,0.031,95,115.0
5023,F#3,404.469,0.031,95,115.0
5024,E-3,404.469,0.031,95,115.0
5025,A3,404.969,0.234,126,115.0
5026,F2,404.969,0.234,126,115.0
5027,E2,404.969,0.031,112,115.0
5028,E-3,404.969,0.031,112,115.0
5029,F#3,404.969,0.031,112,115.0
5030,C4,405.469,0.375,127,115.0
5031,C5,405.469,1.0,107,115.0
5032,E-3,405.469,0.031,127,115.0
5033,F#3,405.469,0.031,127,115.0
5034,E2,405.469,0.031,127,115.0
5035,G4,405.969,0.5,90,115.0
5036,E-3,405.969,0.031,104,115.0
5037,F#3,405.969,0.031,104,115.0
5038,B1,405.969,0.031,104,115.0
5039,G2,405.969,54/125,127,115.0
5040,G2,405.969,54/125,127,115.0
5041,C3,406.469,97/125,127,115.0
5042,G2,406.469,573/1000,127,115.0
5043,G4,406.469,949/100,90,115.0
5044,C5,406.469,2599/1000,107,115.0
5045,F#3,406.469,0.031,101,115.0
5046,C#3,406.469,0.031,101,115.0
5047,B1,406.469,0.031,101,115.0
5048,C4,406.469,1.109,127,115.0
5049,G3,406.469,1.109,127,115.0
5050,C2,406.469,1.109,127,115.0
5051,D5,406.469,63/50,108,115.0
5052,C2,406.469,63/50,108,115.0
5053,F#3,406.969,0.031,88,115.0
5054,C3,407.469,0.266,124,115.0
5055,F#3,407.469,0.031,127,115.0
5056,E2,407.469,0.031,127,115.0
5057,E-3,407.469,0.031,127,115.0
5058,C5,407.969,306/125,90,115.0
5059,C2,407.969,987/500,127,115.0
5060,C2,407.969,99/200,127,115.0
5061,C3,407.969,99/200,127,115.0
5062,F#3,407.969,0.031,94,115.0
5063,E-3,407.969,0.031,94,115.0
5064,B1,408.469,0.031,99,115.0
5065,F#3,408.469,0.031,99,115.0
5066,E-3,408.469,0.031,99,115.0
5067,G4,408.969,521/1000,107,115.0
5068,G3,408.969,37/50,127,115.0
5069,E-3,408.969,0.031,88,115.0
5070,F#3,408.969,0.031,88,115.0
5071,C4,409.469,0.328,127,115.0
5072,C5,409.469,271/500,107,115.0
5073,F#3,409.469,0.031,127,115.0
5074,E-3,409.469,0.031,127,115.0
5075,E2,409.469,0.031,127,115.0
5076,D5,409.969,99/200,107,115.0
5077,E4,409.969,0.203,124,115.0
5078,G3,409.969,27/200,90,115.0
5079,C2,409.969,19/50,127,115.0
5080,F#3,409.969,0.031,100,115.0
5081,B1,409.969,0.031,100,115.0
5082,E-3,409.969,0.031,100,115.0
5083,E1,415.958,659/500,127,115.0
5084,G3,415.958,0.734,127,115.0
5085,E5,415.958,3.016,107,115.0
5086,D5,415.958,1401/1000,90,115.0
5087,E2,415.958,2.719,127,115.0
5088,F#3,415.958,0.031,96,115.0
5089,B1,415.958,0.031,96,115.0
5090,E-3,415.958,0.031,96,115.0
5091,E4,415.958,573/500,127,115.0
5092,C4,415.958,573/500,127,115.0
5093,E-3,416.458,0.031,109,115.0
5094,F#3,416.458,0.031,109,115.0
5095,G3,416.958,651/1000,127,115.0
5096,E2,416.958,0.031,127,115.0
5097,F#3,416.958,0.031,127,115.0
5098,E-3,416.958,0.031,127,115.0
5099,E3,417.458,99/125,127,115.0
5100,C5,417.458,2.5,90,115.0
5101,E1,417.458,1917/1000,127,115.0
5102,B1,417.458,0.031,91,115.0
5103,E-3,417.458,0.031,91,115.0
5104,F#3,417.458,0.031,91,115.0
5105,B1,417.958,0.031,109,115.0
5106,E-3,417.958,0.031,109,115.0
5107,F#3,417.958,0.031,109,115.0
5108,E4,417.958,677/1000,127,115.0
5109,C4,417.958,677/1000,127,115.0
5110,G3,417.958,677/1000,127,115.0
5111,E-3,418.458,0.031,115,115.0
5112,F#3,418.458,0.031,115,115.0
5113,G4,418.958,0.609,127,115.0
5114,G5,418.958,1.0,107,115.0
5115,F#3,418.958,0.031,127,115.0
5116,E-3,418.958,0.031,127,115.0
5117,E2,418.958,0.031,127,115.0
5118,G3,419.458,167/1000,127,115.0
5119,E1,419.458,401/1000,127,115.0
5120,E-3,419.458,0.031,89,115.0
5121,B1,419.458,0.031,89,115.0
5122,F#3,419.458,0.031,89,115.0
5123,F1,419.958,249/200,127,115.0
5124,G4,419.958,0.703,127,115.0
5125,F2,419.958,2807/1000,127,115.0
5126,F3,419.958,233/250,127,115.0
5127,G5,419.958,487/500,107,115.0
5128,C5,419.958,23.922,90,115.0
5129,E-3,419.958,0.031,106,115.0
5130,F#3,419.958,0.031,106,115.0
5131,B1,419.958,0.031,106,115.0
5132,A3,419.958,0.828,127,115.0
5133,C4,419.958,0.828,127,115.0
5134,E-3,420.458,0.031,94,115.0
5135,F#3,420.458,0.031,94,115.0
5136,F5,420.958,2073/1000,107,115.0
5137,E-3,420.958,0.031,127,115.0
5138,F#3,420.958,0.031,127,115.0
5139,E2,420.958,0.031,127,115.0
5140,F4,420.958,161/1000,110,115.0
5141,C4,420.958,161/1000,110,115.0
5142,A3,420.958,161/1000,110,115.0
5143,A4,421.458,1943/1000,90,115.0
5144,F4,421.458,151/200,127,115.0
5145,C4,421.458,241/250,127,115.0
5146,F1,421.458,1013/500,127,115.0
5147,A3,421.458,49/100,127,115.0
5148,B1,421.458,0.031,102,115.0
5149,F#3,421.458,0.031,102,115.0
5150,E-3,421.458,0.031,102,115.0
5151,B1,421.958,0.031,99,115.0
5152,E-3,421.958,0.031,99,115.0
5153,F#3,421.958,0.031,99,115.0
5154,A3,422.458,37/100,126,115.0
5155,F3,422.458,37/100,126,115.0
5156,E-3,422.458,0.031,96,115.0
5157,F#3,422.458,0.031,96,115.0
5158,E5,422.958,1.0,107,115.0
5159,E4,422.958,99/500,115,115.0
5160,C4,422.958,99/500,115,115.0
5161,A3,422.958,99/500,115,115.0
5162,E2,422.958,0.031,127,115.0
5163,F#3,422.958,0.031,127,115.0
5164,E-3,422.958,0.031,127,115.0
5165,G4,423.458,0.5,90,115.0
5166,A3,423.458,479/1000,126,115.0
5167,C2,423.458,479/1000,126,115.0
5168,F#3,423.458,0.031,90,115.0
5169,B1,423.458,0.031,90,115.0
5170,E-3,423.458,0.031,90,115.0
5171,C4,423.458,13/50,127,115.0
5172,E4,423.458,13/50,127,115.0
5173,F2,443.88,1307/1000,127,115.0
5174,G4,443.88,137/100,90,115.0
5175,E5,443.88,513/500,107,115.0
5176,B1,443.88,0.031,103,115.0
5177,F#3,443.88,0.031,103,115.0
5178,E-3,443.88,0.031,103,115.0
5179,A3,444.38,51/100,116,115.0
5180,E-3,444.38,0.031,94,115.0
5181,F#3,444.38,0.031,94,115.0
5182,D5,444.88,2021/1000,107,115.0
5183,C4,444.88,13/100,127,115.0
5184,D4,444.88,229/1000,127,115.0
5185,F#3,444.88,0.031,127,115.0
5186,E-3,444.88,0.031,127,115.0
5187,E2,444.88,0.031,127,115.0
5188,F4,445.38,2.5,90,115.0
5189,F2,445.38,192/125,127,115.0
5190,D4,445.38,417/1000,127,115.0
5191,A3,445.38,417/1000,127,115.0
5192,E-3,445.38,0.031,100,115.0
5193,F#3,445.38,0.031,100,115.0
5194,B1,445.38,0.031,100,115.0
5195,B1,445.88,0.031,101,115.0
5196,F#3,445.88,0.031,101,115.0
5197,E-3,445.88,0.031,101,115.0
5198,A3,446.38,99/250,127,115.0
5199,E2,446.38,0.031,124,115.0
5200,E-3,446.38,0.031,124,115.0
5201,C5,446.88,0.984,107,115.0
5202,E2,446.88,0.031,127,115.0
5203,E-3,446.88,0.031,127,115.0
5204,F#3,446.88,0.031,127,115.0
5205,D2,446.88,56/125,127,115.0
5206,C4,446.88,56/125,127,115.0
5207,A3,447.38,0.141,108,115.0
5208,C2,447.38,0.266,127,115.0
5209,E-3,447.38,0.031,112,115.0
5210,B1,447.38,0.031,112,115.0
5211,G#3,447.88,1.422,127,115.0
5212,G#4,447.88,4.0,90,115.0
5213,D5,447.88,501/200,107,115.0
5214,F4,447.88,7.797,90,115.0
5215,B1,447.88,0.031,115,115.0
5216,C#3,447.88,0.031,115,115.0
5217,D4,447.88,1.078,127,115.0
5218,B-2,447.88,1.078,127,115.0
5219,C4,447.88,1.156,127,115.0
5220,B-1,447.88,1.156,127,115.0
5221,E2,448.88,0.031,127,115.0
5222,F#3,448.88,0.031,127,115.0
5223,E-3,448.88,0.031,127,115.0
5224,B-1,449.38,399/200,127,115.0
5225,B-2,449.38,2.5,127,115.0
5226,E-3,449.38,0.031,108,115.0
5227,E-3,449.88,0.031,115,115.0
5228,B1,449.88,0.031,115,115.0
5229,E-3,450.38,0.031,88,115.0
5230,G#4,450.38,0.438,117,115.0
5231,G#3,450.38,0.438,117,115.0
5232,C4,450.88,349/1000,127,115.0
5233,C5,450.88,0.453,107,115.0
5234,E-3,450.88,0.031,127,115.0
5235,E2,450.88,0.031,127,115.0
5236,F#3,450.88,0.031,127,115.0
5237,D5,451.38,19/50,120,115.0
5238,F1,451.38,19/50,120,115.0
5239,D4,451.38,19/50,120,115.0
5240,E-3,451.38,0.031,106,115.0
5241,B1,451.38,0.031,106,115.0
5242,B-1,455.677,251/200,127,115.0
5243,E4,455.677,151/250,127,115.0
5244,E5,455.677,1083/1000,107,115.0
5245,B-2,455.677,0.125,127,115.0
5246,G#4,455.677,931/250,90,115.0
5247,B1,455.677,0.031,119,115.0
5248,G#3,455.677,0.031,119,115.0
5249,E-3,455.677,0.031,119,115.0
5250,E-3,456.177,0.031,122,115.0
5251,B-2,456.177,0.547,127,115.0
5252,D4,456.677,0.406,127,115.0
5253,D5,456.677,1021/1000,107,115.0
5254,E2,456.677,0.031,127,115.0
5255,E-3,456.677,0.031,127,115.0
5256,F#3,456.677,0.031,127,115.0
5257,B-2,457.177,159/500,126,115.0
5258,B-1,457.177,1013/500,127,115.0
5259,E-3,457.177,0.031,89,115.0
5260,B1,457.177,0.031,89,115.0
5261,C5,457.677,0.531,107,115.0
5262,C4,457.677,417/1000,127,115.0
5263,E-3,457.677,0.031,115,115.0
5264,B1,457.677,0.031,115,115.0
5265,G#4,458.177,112/125,107,115.0
5266,G#3,458.177,0.484,127,115.0
5267,E-3,458.177,0.031,122,115.0
5268,F#3,458.677,0.031,127,115.0
5269,E2,458.677,0.031,127,115.0
5270,E-3,458.677,0.031,127,115.0
5271,C5,459.177,0.5,107,115.0
5272,G1,459.177,58/125,127,115.0
5273,C4,459.177,0.5,127,115.0
5274,B1,459.177,0.031,89,115.0
5275,E-3,459.177,0.031,89,115.0
5276,C2,459.677,1229/1000,127,115.0
5277,C3,459.677,0.641,127,115.0
5278,G4,459.677,4.0,90,115.0
5279,E4,459.677,4.0,90,115.0
5280,C5,459.677,213/100,107,115.0
5281,C4,459.677,0.578,127,115.0
5282,B1,459.677,0.031,115,115.0
5283,E-3,459.677,0.031,115,115.0
5284,E-3,460.177,0.031,108,115.0
5285,G3,460.177,0.547,127,115.0
5286,F#3,460.677,0.031,127,115.0
5287,E-3,460.677,0.031,127,115.0
5288,E2,460.677,0.031,127,115.0
5289,C2,461.177,1.781,127,115.0
5290,C4,461.177,0.375,127,115.0
5291,C3,461.177,0.375,127,115.0
5292,B1,461.177,0.031,104,115.0
5293,G3,461.177,0.031,104,115.0
5294,E-3,461.177,0.031,104,115.0
5295,D5,461.677,58/125,107,115.0
5296,D4,461.677,49/200,127,115.0
5297,E-3,461.677,0.031,115,115.0
5298,B1,461.677,0.031,115,115.0
5299,E5,462.177,1021/1000,107,115.0
5300,G3,462.177,0.188,127,115.0
5301,E-3,462.177,0.031,96,115.0
5302,E4,462.177,417/1000,127,115.0
5303,C4,462.177,417/1000,127,115.0
5304,G3,462.677,323/1000,127,115.0
5305,E-3,462.677,0.031,127,115.0
5306,E2,462.677,0.031,127,115.0
5307,F#3,462.677,0.031,127,115.0
5308,G5,463.177,0.5,107,115.0
5309,G3,463.177,0.141,108,115.0
5310,G4,463.177,56/125,127,115.0
5311,C2,463.177,0.5,118,115.0
5312,E-3,463.177,0.031,95,115.0
5313,B1,463.177,0.031,95,115.0
5314,G5,463.677,3.859,107,115.0
5315,G4,463.677,1.0,90,115.0
5316,E4,463.677,3807/1000,90,115.0
5317,C2,463.677,237/500,118,115.0
5318,B1,463.677,0.031,115,115.0
5319,E-3,463.677,0.031,115,115.0
5320,E-3,464.177,0.031,108,115.0
5321,C3,464.177,339/1000,127,115.0
5322,G3,464.177,0.438,127,115.0
5323,A2,464.177,0.438,127,115.0
5324,G2,464.677,0.531,127,115.0
5325,E2,464.677,0.031,127,115.0
5326,F#3,464.677,0.031,127,115.0
5327,E-3,464.677,0.031,127,115.0
5328,D4,464.677,0.5,108,115.0
5329,A4,464.677,0.5,108,115.0
5330,E2,465.177,56/125,127,115.0
5331,G3,465.177,77/200,108,115.0
5332,G4,465.177,77/200,108,115.0
5333,E-3,465.177,0.031,106,115.0
5334,B1,465.177,0.031,106,115.0
5335,A4,465.677,0.562,90,115.0
5336,C4,465.677,427/1000,127,115.0
5337,D2,465.677,427/1000,127,115.0
5338,E-3,465.677,0.031,115,115.0
5339,B1,465.677,0.031,115,115.0
5340,G3,466.177,0.203,127,115.0
5341,E2,466.177,0.453,127,115.0
5342,E2,466.177,0.031,124,115.0
5343,E-3,466.177,0.031,124,115.0
5344,G2,466.677,58/125,127,115.0
5345,A3,466.677,107/500,115,115.0
5346,G4,466.677,107/500,115,115.0
5347,D4,466.677,107/500,115,115.0
5348,E2,466.677,0.031,127,115.0
5349,E-3,466.677,0.031,127,115.0
5350,F#3,466.677,0.031,127,115.0
5351,A2,467.177,0.375,127,115.0
5352,A4,467.177,339/1000,115,115.0
5353,C4,467.177,339/1000,115,115.0
5354,G3,467.177,339/1000,115,115.0
5355,E-3,467.177,0.031,112,115.0
5356,B1,467.177,0.031,112,115.0
5357,C3,467.677,0.766,127,115.0
5358,F#3,467.677,0.031,119,115.0
5359,C#3,467.677,0.031,119,115.0
5360,B1,467.677,0.031,119,115.0
5361,D5,467.677,1589/1000,108,115.0
5362,C2,467.677,1589/1000,108,115.0
5363,C5,467.677,1589/1000,117,115.0
5364,C2,467.677,1589/1000,117,115.0
5365,C2,467.677,1307/1000,108,115.0
5366,A4,467.677,1307/1000,108,115.0
5367,C4,467.677,1.125,127,115.0
5368,G3,467.677,1.125,127,115.0
5369,F#3,468.177,0.031,122,115.0
5370,C3,468.677,37/50,127,115.0
5371,E2,468.677,0.031,127,115.0
5372,E-3,468.677,0.031,127,115.0
5373,F#3,468.677,0.031,127,115.0
5374,G4,469.177,1417/1000,107,115.0
5375,C5,469.177,2.5,90,115.0
5376,G4,469.177,2.5,90,115.0
5377,C4,469.177,979/1000,127,115.0
5378,C2,469.177,401/200,127,115.0
5379,G3,469.177,357/500,127,115.0
5380,E-3,469.177,0.031,94,115.0
5381,F#3,469.177,0.031,94,115.0
5382,E-3,469.677,0.031,113,115.0
5383,B1,469.677,0.031,113,115.0
5384,F#3,469.677,0.031,113,115.0
5385,G3,470.177,151/250,127,115.0
5386,E-3,470.177,0.031,92,115.0
5387,F#3,470.177,0.031,92,115.0
5388,C2,470.177,0.391,127,115.0
5389,C3,470.177,0.391,127,115.0
5390,C5,470.677,0.922,107,115.0
5391,C4,470.677,573/1000,127,115.0
5392,F#3,470.677,0.031,127,115.0
5393,E2,470.677,0.031,127,115.0
5394,E-3,470.677,0.031,127,115.0
5395,G3,471.177,0.5,127,115.0
5396,D1,471.177,237/500,127,115.0
5397,B1,471.177,0.031,97,115.0
5398,E-3,471.177,0.031,97,115.0
5399,F#3,471.177,0.031,97,115.0
5400,E2,471.677,2.828,127,115.0
5401,D5,471.677,1.438,90,115.0
5402,E5,471.677,3.062,107,115.0
5403,G3,471.677,97/125,127,115.0
5404,C5,471.677,0.047,90,115.0
5405,G4,471.677,3.688,90,115.0
5406,B1,471.677,0.031,103,115.0
5407,E-3,471.677,0.031,103,115.0
5408,F#3,471.677,0.031,103,115.0
5409,C4,471.677,599/500,127,115.0
5410,E4,471.677,599/500,127,115.0
5411,E1,471.677,599/500,127,115.0
5412,F#3,472.177,0.031,109,115.0
5413,E-3,472.177,0.031,109,115.0
5414,G3,472.677,149/200,127,115.0
5415,E-3,472.677,0.031,127,115.0
5416,E2,472.677,0.031,127,115.0
5417,F#3,472.677,0.031,127,115.0
5418,C4,473.177,411/1000,127,115.0
5419,C5,473.177,2.5,90,115.0
5420,E1,473.177,373/200,127,115.0
5421,F#3,473.177,0.031,89,115.0
5422,B1,473.177,0.031,89,115.0
5423,E-3,473.177,0.031,89,115.0
5424,E4,473.677,67/125,127,115.0
5425,C4,473.677,167/1000,127,115.0
5426,B1,473.677,0.031,96,115.0
5427,E-3,473.677,0.031,96,115.0
5428,F#3,473.677,0.031,96,115.0
5429,G3,474.177,589/1000,124,115.0
5430,F#3,474.177,0.031,115,115.0
5431,E-3,474.177,0.031,115,115.0
5432,G4,474.677,0.625,127,115.0
5433,F5,474.677,0.438,107,115.0
5434,E2,474.677,0.031,127,115.0
5435,E-3,474.677,0.031,127,115.0
5436,F#3,474.677,0.031,127,115.0
5437,G3,475.177,26/125,127,115.0
5438,E1,475.177,427/1000,118,115.0
5439,G5,475.177,0.5,107,115.0
5440,B1,475.177,0.031,89,115.0
5441,E-3,475.177,0.031,89,115.0
5442,F#3,475.177,0.031,89,115.0
5443,F2,475.677,2.359,127,115.0
5444,A4,475.677,349/100,90,115.0
5445,F1,475.677,63/50,127,115.0
5446,C5,475.677,8021/1000,90,115.0
5447,G5,475.677,1.0,107,115.0
5448,B1,475.677,0.031,103,115.0
5449,F#3,475.677,0.031,103,115.0
5450,E-3,475.677,0.031,103,115.0
5451,A3,475.677,0.781,127,115.0
5452,C4,475.677,0.781,127,115.0
5453,G4,475.677,0.781,127,115.0
5454,C4,475.677,0.781,127,115.0
5455,E-3,476.177,0.031,102,115.0
5456,F#3,476.177,0.031,102,115.0
5457,F5,476.677,2021/1000,107,115.0
5458,E2,476.677,0.031,127,115.0
5459,E-3,476.677,0.031,127,115.0
5460,F#3,476.677,0.031,127,115.0
5461,C4,476.677,27/200,121,115.0
5462,A3,476.677,27/200,121,115.0
5463,F4,476.677,27/200,121,115.0
5464,A3,477.177,0.422,127,115.0
5465,C4,477.177,807/1000,127,115.0
5466,F4,477.177,177/200,127,115.0
5467,F1,477.177,1.891,127,115.0
5468,B1,477.177,0.031,94,115.0
5469,E-3,477.177,0.031,94,115.0
5470,F#3,477.177,0.031,94,115.0
5471,A3,477.677,161/1000,90,115.0
5472,E-3,477.677,0.031,106,115.0
5473,F#3,477.677,0.031,106,115.0
5474,B1,477.677,0.031,106,115.0
5475,F2,478.177,1.5,127,115.0
5476,F#3,478.177,0.031,92,115.0
5477,E-3,478.177,0.031,92,115.0
5478,A3,478.677,0.234,108,115.0
5479,E5,478.677,1.0,107,115.0
5480,E4,478.677,13/100,127,115.0
5481,E2,478.677,0.094,124,115.0
5482,E-3,478.677,0.094,124,115.0
5483,F#3,478.677,0.094,124,115.0
5484,C4,478.677,0.094,124,115.0
5485,A3,479.177,0.328,127,115.0
5486,G4,479.177,0.5,90,115.0
5487,C2,479.177,0.5,118,115.0
5488,C4,479.177,0.5,127,115.0
5489,E4,479.177,0.5,127,115.0
5490,E-3,479.177,0.031,90,115.0
5491,B1,479.177,0.031,90,115.0
5492,F#3,479.177,0.031,90,115.0
5493,F2,483.698,573/500,127,115.0
5494,F2,483.698,1833/1000,127,115.0
5495,E5,483.698,1021/1000,107,115.0
5496,G4,483.698,1443/1000,90,115.0
5497,C2,483.698,0.016,118,115.0
5498,E-3,483.698,0.031,106,115.0
5499,B1,483.698,0.031,106,115.0
5500,F#3,483.698,0.031,106,115.0
5501,C4,483.698,177/1000,127,115.0
5502,E4,483.698,177/1000,127,115.0
5503,A3,484.198,677/1000,127,115.0
5504,F#3,484.198,0.031,102,115.0
5505,E-3,484.198,0.031,102,115.0
5506,D4,484.698,0.188,127,115.0
5507,D5,484.698,1.953,107,115.0
5508,F#3,484.698,0.031,127,115.0
5509,E-3,484.698,0.031,127,115.0
5510,E2,484.698,0.031,127,115.0
5511,F4,485.198,2.047,90,115.0
5512,F2,485.198,1.672,127,115.0
5513,A3,485.198,54/125,127,115.0
5514,D4,485.198,357/500,127,115.0
5515,F#3,485.198,0.031,102,115.0
5516,B1,485.198,0.031,102,115.0
5517,E-3,485.198,0.031,102,115.0
5518,F#3,485.698,0.031,95,115.0
5519,B1,485.698,0.031,95,115.0
5520,E-3,485.698,0.031,95,115.0
5521,F2,486.198,0.281,126,115.0
5522,A3,486.198,0.281,126,115.0
5523,E-3,486.198,0.031,112,115.0
5524,F#3,486.198,0.031,112,115.0
5525,E2,486.198,0.031,112,115.0
5526,C4,486.698,0.375,127,115.0
5527,C5,486.698,1.0,107,115.0
5528,F#3,486.698,0.031,127,115.0
5529,E-3,486.698,0.031,127,115.0
5530,E2,486.698,0.031,127,115.0
5531,G4,487.198,0.5,90,115.0
5532,F#3,487.198,0.031,104,115.0
5533,B1,487.198,0.031,104,115.0
5534,E-3,487.198,0.031,104,115.0
5535,G2,487.198,37/100,127,115.0
5536,G2,487.198,37/100,127,115.0
5537,G2,487.698,573/1000,127,115.0
5538,C3,487.698,97/125,127,115.0
5539,G4,487.698,949/100,90,115.0
5540,C5,487.698,2599/1000,107,115.0
5541,D5,487.698,63/50,108,115.0
5542,C2,487.698,63/50,108,115.0
5543,C4,487.698,1.109,127,115.0
5544,G3,487.698,1.109,127,115.0
5545,C2,487.698,1.109,127,115.0
5546,C#3,487.698,0.031,101,115.0
5547,B1,487.698,0.031,101,115.0
5548,F#3,487.698,0.031,101,115.0
5549,F#3,488.198,0.031,88,115.0
5550,C3,488.698,0.266,124,115.0
5551,E2,488.698,0.031,127,115.0
5552,F#3,488.698,0.031,127,115.0
5553,E-3,488.698,0.031,127,115.0
5554,C2,489.198,987/500,127,115.0
5555,C5,489.198,306/125,90,115.0
5556,E-3,489.198,0.031,94,115.0
5557,F#3,489.198,0.031,94,115.0
5558,C2,489.198,99/200,127,115.0
5559,C3,489.198,99/200,127,115.0
5560,E-3,489.698,0.031,99,115.0
5561,F#3,489.698,0.031,99,115.0
5562,B1,489.698,0.031,99,115.0
5563,G4,490.198,521/1000,107,115.0
5564,G3,490.198,37/50,127,115.0
5565,F#3,490.198,0.031,88,115.0
5566,E-3,490.198,0.031,88,115.0
5567,C5,490.698,271/500,107,115.0
5568,C4,490.698,0.328,127,115.0
5569,F#3,490.698,0.031,127,115.0
5570,E-3,490.698,0.031,127,115.0
5571,E2,490.698,0.031,127,115.0
5572,E4,491.198,0.203,124,115.0
5573,C2,491.198,19/50,127,115.0
5574,D5,491.198,99/200,107,115.0
5575,G3,491.198,27/200,90,115.0
5576,F#3,491.198,0.031,100,115.0
5577,B1,491.198,0.031,100,115.0
5578,E-3,491.198,0.031,100,115.0
5579,D5,497.188,1401/1000,90,115.0
5580,E5,497.188,3.016,107,115.0
5581,G3,497.188,0.734,127,115.0
5582,E1,497.188,659/500,127,115.0
5583,E2,497.188,2.719,127,115.0
5584,F#3,497.188,0.031,96,115.0
5585,B1,497.188,0.031,96,115.0
5586,E-3,497.188,0.031,96,115.0
5587,E4,497.188,573/500,127,115.0
5588,C4,497.188,573/500,127,115.0
5589,E-3,497.688,0.031,109,115.0
5590,F#3,497.688,0.031,109,115.0
5591,G3,498.188,651/1000,127,115.0
5592,E2,498.188,0.031,127,115.0
5593,E-3,498.188,0.031,127,115.0
5594,F#3,498.188,0.031,127,115.0
5595,C5,498.688,2.5,90,115.0
5596,E3,498.688,99/125,127,115.0
5597,E1,498.688,1917/1000,127,115.0
5598,B1,498.688,0.031,91,115.0
5599,E-3,498.688,0.031,91,115.0
5600,F#3,498.688,0.031,91,115.0
5601,B1,499.188,0.031,109,115.0
5602,F#3,499.188,0.031,109,115.0
5603,E-3,499.188,0.031,109,115.0
5604,G3,499.188,0.625,127,115.0
5605,E4,499.188,0.625,127,115.0
5606,C4,499.188,0.625,127,115.0
5607,E-3,499.688,0.031,115,115.0
5608,F#3,499.688,0.031,115,115.0
5609,G5,500.188,1.0,107,115.0
5610,G4,500.188,0.609,127,115.0
5611,E2,500.188,0.031,127,115.0
5612,E-3,500.188,0.031,127,115.0
5613,F#3,500.188,0.031,127,115.0
5614,G3,500.688,167/1000,127,115.0
5615,E1,500.688,401/1000,127,115.0
5616,B1,500.688,0.031,89,115.0
5617,E-3,500.688,0.031,89,115.0
5618,F#3,500.688,0.031,89,115.0
5619,F1,501.188,249/200,127,115.0
5620,F2,501.188,2807/1000,127,115.0
5621,F3,501.188,233/250,127,115.0
5622,G4,501.188,0.703,127,115.0
5623,C5,501.188,2556/125,90,115.0
5624,G5,501.188,487/500,107,115.0
5625,B1,501.188,0.031,106,115.0
5626,E-3,501.188,0.031,106,115.0
5627,F#3,501.188,0.031,106,115.0
5628,A3,501.188,0.828,127,115.0
5629,C4,501.188,0.828,127,115.0
5630,E-3,501.688,0.031,94,115.0
5631,F#3,501.688,0.031,94,115.0
5632,F5,502.188,2073/1000,107,115.0
5633,F4,502.188,161/1000,110,115.0
5634,C4,502.188,161/1000,110,115.0
5635,A3,502.188,161/1000,110,115.0
5636,E-3,502.188,0.031,127,115.0
5637,E2,502.188,0.031,127,115.0
5638,F#3,502.188,0.031,127,115.0
5639,F4,502.688,151/200,127,115.0
5640,C4,502.688,241/250,127,115.0
5641,F1,502.688,1013/500,127,115.0
5642,A3,502.688,49/100,127,115.0
5643,A4,502.688,1943/1000,90,115.0
5644,B1,502.688,0.031,102,115.0
5645,E-3,502.688,0.031,102,115.0
5646,F#3,502.688,0.031,102,115.0
5647,F#3,503.188,0.031,99,115.0
5648,B1,503.188,0.031,99,115.0
5649,E-3,503.188,0.031,99,115.0
5650,A3,503.688,37/100,126,115.0
5651,F3,503.688,37/100,126,115.0
5652,E-3,503.688,0.031,96,115.0
5653,F#3,503.688,0.031,96,115.0
5654,E5,504.188,1.0,107,115.0
5655,E2,504.188,0.031,127,115.0
5656,E-3,504.188,0.031,127,115.0
5657,F#3,504.188,0.031,127,115.0
5658,E4,504.188,27/200,115,115.0
5659,A3,504.188,27/200,115,115.0
5660,C4,504.188,27/200,115,115.0
5661,G4,504.688,0.5,90,115.0
5662,B1,504.688,0.031,90,115.0
5663,E-3,504.688,0.031,90,115.0
5664,F#3,504.688,0.031,90,115.0
5665,C2,504.688,417/1000,126,115.0
5666,A3,504.688,417/1000,126,115.0
5667,E4,504.688,73/250,127,115.0
5668,C4,504.688,73/250,127,115.0
5669,F2,521.635,1307/1000,127,115.0
5670,E5,521.635,513/500,107,115.0
5671,G4,521.635,137/100,90,115.0
5672,B1,521.635,0.031,103,115.0
5673,E-3,521.635,0.031,103,115.0
5674,F#3,521.635,0.031,103,115.0
5675,A3,522.135,51/100,116,115.0
5676,E-3,522.135,0.031,94,115.0
5677,F#3,522.135,0.031,94,115.0
5678,C4,522.635,13/100,127,115.0
5679,D5,522.635,2021/1000,107,115.0
5680,D4,522.635,229/1000,127,115.0
5681,F#3,522.635,0.031,127,115.0
5682,E-3,522.635,0.031,127,115.0
5683,E2,522.635,0.031,127,115.0
5684,F2,523.135,192/125,127,115.0
5685,F4,523.135,2.5,90,115.0
5686,A3,523.135,73/200,127,115.0
5687,D4,523.135,73/200,127,115.0
5688,E-3,523.135,0.031,100,115.0
5689,F#3,523.135,0.031,100,115.0
5690,B1,523.135,0.031,100,115.0
5691,F#3,523.635,0.031,101,115.0
5692,B1,523.635,0.031,101,115.0
5693,E-3,523.635,0.031,101,115.0
5694,A3,524.135,99/250,127,115.0
5695,E2,524.135,0.031,124,115.0
5696,E-3,524.135,0.031,124,115.0
5697,C5,524.635,0.984,107,115.0
5698,E-3,524.635,0.031,127,115.0
5699,F#3,524.635,0.031,127,115.0
5700,E2,524.635,0.031,127,115.0
5701,D2,524.635,56/125,127,115.0
5702,C4,524.635,56/125,127,115.0
5703,C2,525.135,0.266,127,115.0
5704,A3,525.135,0.141,108,115.0
5705,E-3,525.135,0.031,112,115.0
5706,B1,525.135,0.031,112,115.0
5707,G#4,525.635,4.0,90,115.0
5708,G#3,525.635,1.422,127,115.0
5709,D5,525.635,501/200,107,115.0
5710,F4,525.635,7.797,90,115.0
5711,C4,525.635,1.156,127,115.0
5712,B-1,525.635,1.156,127,115.0
5713,B1,525.635,0.031,115,115.0
5714,C#3,525.635,0.031,115,115.0
5715,B-2,525.635,1.078,127,115.0
5716,D4,525.635,1.078,127,115.0
5717,E2,526.635,0.031,127,115.0
5718,F#3,526.635,0.031,127,115.0
5719,E-3,526.635,0.031,127,115.0
5720,B-1,527.135,399/200,127,115.0
5721,E-3,527.135,0.031,108,115.0
5722,B-2,527.135,2.5,127,115.0
5723,B1,527.635,0.031,115,115.0
5724,E-3,527.635,0.031,115,115.0
5725,E-3,528.135,0.031,88,115.0
5726,G#3,528.135,0.5,117,115.0
5727,G#4,528.135,0.5,117,115.0
5728,C4,528.635,349/1000,127,115.0
5729,C5,528.635,0.453,107,115.0
5730,E2,528.635,0.031,127,115.0
5731,E-3,528.635,0.031,127,115.0
5732,F#3,528.635,0.031,127,115.0
5733,F1,529.135,19/50,120,115.0
5734,D5,529.135,19/50,120,115.0
5735,D4,529.135,19/50,120,115.0
5736,B1,529.135,0.031,106,115.0
5737,E-3,529.135,0.031,106,115.0
5738,B-1,533.432,251/200,127,115.0
5739,E4,533.432,151/250,127,115.0
5740,E5,533.432,1083/1000,107,115.0
5741,G#4,533.432,931/250,90,115.0
5742,B-2,533.432,0.125,127,115.0
5743,G#3,533.432,0.031,119,115.0
5744,B1,533.432,0.031,119,115.0
5745,E-3,533.432,0.031,119,115.0
5746,E-3,533.932,0.031,122,115.0
5747,B-2,533.932,0.547,127,115.0
5748,D5,534.432,1021/1000,107,115.0
5749,D4,534.432,0.406,127,115.0
5750,E-3,534.432,0.031,127,115.0
5751,E2,534.432,0.031,127,115.0
5752,F#3,534.432,0.031,127,115.0
5753,B-2,534.932,159/500,126,115.0
5754,B-1,534.932,1013/500,127,115.0
5755,E-3,534.932,0.031,89,115.0
5756,B1,534.932,0.031,89,115.0
5757,C4,535.432,417/1000,127,115.0
5758,C5,535.432,0.531,107,115.0
5759,B1,535.432,0.031,115,115.0
5760,E-3,535.432,0.031,115,115.0
5761,G#3,535.932,0.484,127,115.0
5762,E-3,535.932,0.031,122,115.0
5763,G#4,535.932,112/125,107,115.0
5764,E-3,536.432,0.031,127,115.0
5765,F#3,536.432,0.031,127,115.0
5766,E2,536.432,0.031,127,115.0
5767,G1,536.932,58/125,127,115.0
5768,C5,536.932,0.5,107,115.0
5769,C4,536.932,0.5,127,115.0
5770,E-3,536.932,0.031,89,115.0
5771,B1,536.932,0.031,89,115.0
5772,E4,537.432,4.0,90,115.0
5773,C2,537.432,1229/1000,127,115.0
5774,C3,537.432,0.641,127,115.0
5775,G4,537.432,4.0,90,115.0
5776,C5,537.432,5.734,107,115.0
5777,C4,537.432,0.578,127,115.0
5778,B1,537.432,0.031,115,115.0
5779,E-3,537.432,0.031,115,115.0
5780,G3,537.932,0.547,127,115.0
5781,E-3,537.932,0.031,108,115.0
5782,E2,538.432,0.031,127,115.0
5783,E-3,538.432,0.031,127,115.0
5784,F#3,538.432,0.031,127,115.0
5785,C2,538.932,1.781,127,115.0
5786,C3,538.932,0.375,127,115.0
5787,C4,538.932,0.375,127,115.0
5788,E-3,538.932,89/1000,104,115.0
5789,B1,538.932,89/1000,104,115.0
5790,G3,538.932,89/1000,104,115.0
5791,D4,539.432,49/200,127,115.0
5792,E-3,539.432,0.031,115,115.0
5793,B1,539.432,0.031,115,115.0
5794,E-3,539.932,0.031,96,115.0
5795,G3,539.932,0.188,127,115.0
5796,C4,539.932,37/100,127,115.0
5797,E4,539.932,37/100,127,115.0
5798,G3,540.432,323/1000,127,115.0
5799,F#3,540.432,0.031,127,115.0
5800,E2,540.432,0.031,127,115.0
5801,E-3,540.432,0.031,127,115.0
5802,G3,540.932,0.141,108,115.0
5803,G4,540.932,56/125,127,115.0
5804,C2,540.932,0.5,118,115.0
5805,B1,540.932,0.031,95,115.0
5806,E-3,540.932,0.031,95,115.0
5807,C3,543.167,1.344,127,115.0
5808,C5,543.167,1.516,90,115.0
5809,C2,543.167,0.5,127,115.0
5810,G4,543.167,1909/500,90,115.0
5811,E4,543.167,3807/1000,90,115.0
5812,G4,543.167,1.0,90,115.0
5813,C2,543.167,237/500,118,115.0
5814,B1,543.167,0.031,95,115.0
5815,E-3,543.167,0.031,95,115.0
5816,G3,543.667,49/200,127,115.0
5817,D5,543.667,443/1000,90,115.0
5818,E-3,543.667,0.031,127,115.0
5819,E2,543.667,0.031,127,115.0
5820,C4,544.167,99/125,127,115.0
5821,G3,544.167,229/500,127,115.0
5822,C5,544.167,1.688,90,115.0
5823,F#3,544.167,0.031,127,115.0
5824,E-3,544.167,0.031,127,115.0
5825,E2,544.167,0.031,127,115.0
5826,G1,544.667,229/500,127,115.0
5827,G4,544.667,306/125,90,115.0
5828,C3,544.667,13/50,127,115.0
5829,G3,544.667,13/50,127,115.0
5830,E-3,544.667,0.031,106,115.0
5831,B1,544.667,0.031,106,115.0
5832,C5,545.167,2.0,90,115.0
5833,C2,545.167,0.859,118,115.0
5834,C4,545.167,0.859,118,115.0
5835,E5,545.167,0.859,118,115.0
5836,G3,545.167,0.859,118,115.0
5837,B1,545.167,0.031,113,115.0
5838,E2,545.167,0.031,113,115.0
5839,E-3,545.167,0.031,113,115.0
5840,C3,545.167,0.859,118,115.0
5841,C4,545.167,0.859,118,115.0
5842,E5,545.167,0.859,118,115.0
5843,G3,545.167,0.859,118,115.0
5844,D5,546.167,401/500,115,115.0
5845,B2,546.167,401/500,115,115.0
5846,G3,546.167,401/500,115,115.0
5847,B4,546.167,401/500,115,115.0
5848,B1,546.167,401/500,115,115.0
5849,B3,546.167,401/500,115,115.0
5850,B1,546.167,0.031,121,115.0
5851,E2,546.167,0.031,121,115.0
5852,E-3,546.167,0.031,121,115.0
5853,F#3,546.167,0.031,121,115.0
5854,A1,547.167,181/125,127,115.0
5855,A3,547.167,917/1000,127,115.0
5856,E5,547.167,701/200,90,115.0
5857,A2,547.167,323/250,127,115.0
5858,C5,547.167,3.125,90,115.0
5859,E4,547.167,1.797,127,115.0
5860,C4,547.167,1.797,127,115.0
5861,A4,547.167,4.0,90,115.0
5862,C5,547.167,4.0,90,115.0
5863,B1,547.167,0.031,119,115.0
5864,C#3,547.167,0.031,119,115.0
5865,F#3,547.167,0.031,119,115.0
5866,F#3,547.667,0.031,122,115.0
5867,A3,548.167,0.703,127,115.0
5868,E2,548.167,0.031,127,115.0
5869,E-3,548.167,0.031,127,115.0
5870,F#3,548.167,0.031,127,115.0
5871,E2,548.667,0.531,118,115.0
5872,A2,548.667,179/125,127,115.0
5873,E-3,548.667,0.031,94,115.0
5874,F#3,548.667,0.031,94,115.0
5875,A2,549.167,31/50,118,115.0
5876,A3,549.167,193/1000,126,115.0
5877,E4,549.167,193/1000,126,115.0
5878,C4,549.167,193/1000,126,115.0
5879,E-3,549.167,0.031,113,115.0
5880,F#3,549.167,0.031,113,115.0
5881,B1,549.167,0.031,113,115.0
5882,E2,549.667,479/1000,127,115.0
5883,D4,549.667,0.203,127,115.0
5884,F4,549.667,0.203,127,115.0
5885,E-3,549.667,0.031,92,115.0
5886,F#3,549.667,0.031,92,115.0
5887,A1,550.167,0.391,127,115.0
5888,G4,550.167,0.156,127,115.0
5889,E4,550.167,0.156,127,115.0
5890,E2,550.167,0.031,127,115.0
5891,F#3,550.167,0.031,127,115.0
5892,E-3,550.167,0.031,127,115.0
5893,D5,550.667,0.5,90,115.0
5894,D3,550.667,0.5,127,115.0
5895,F5,550.667,0.5,90,115.0
5896,D2,550.667,0.5,127,115.0
5897,G4,550.667,0.5,127,115.0
5898,E4,550.667,0.5,127,115.0
5899,B1,550.667,0.031,97,115.0
5900,E-3,550.667,0.031,97,115.0
5901,F#3,550.667,0.031,97,115.0
5902,D5,554.495,527/200,90,115.0
5903,D3,554.495,659/500,127,115.0
5904,F5,554.495,1427/500,90,115.0
5905,D2,554.495,31/25,127,115.0
5906,B1,554.495,0.031,103,115.0
5907,F#3,554.495,0.031,103,115.0
5908,E-3,554.495,0.031,103,115.0
5909,A4,554.495,3.328,90,115.0
5910,C5,554.495,3.328,90,115.0
5911,G4,554.495,0.281,127,115.0
5912,E4,554.495,0.281,127,115.0
5913,F#3,554.995,0.031,109,115.0
5914,E-3,554.995,0.031,109,115.0
5915,E-3,555.495,0.031,127,115.0
5916,F#3,555.495,0.031,127,115.0
5917,E2,555.495,0.031,127,115.0
5918,A3,555.495,27/200,127,115.0
5919,F4,555.495,27/200,127,115.0
5920,D4,555.495,27/200,127,115.0
5921,D2,555.995,1.031,127,115.0
5922,D3,555.995,0.578,127,115.0
5923,B1,555.995,0.031,89,115.0
5924,E-3,555.995,0.031,89,115.0
5925,F#3,555.995,0.031,89,115.0
5926,D4,555.995,56/125,127,115.0
5927,F4,555.995,56/125,127,115.0
5928,B1,556.495,0.031,96,115.0
5929,E-3,556.495,0.031,96,115.0
5930,F#3,556.495,0.031,96,115.0
5931,D3,556.995,143/500,127,115.0
5932,E2,556.995,67/125,127,115.0
5933,E-3,556.995,0.031,115,115.0
5934,F#3,556.995,0.031,115,115.0
5935,C4,556.995,0.125,120,115.0
5936,E4,556.995,0.125,120,115.0
5937,E5,557.495,323/1000,90,115.0
5938,C5,557.495,1.0,90,115.0
5939,F2,557.495,443/1000,127,115.0
5940,E2,557.495,0.031,127,115.0
5941,E-3,557.495,0.031,127,115.0
5942,F#3,557.495,0.031,127,115.0
5943,E4,557.495,73/500,127,115.0
5944,C4,557.495,73/500,127,115.0
5945,B4,557.995,0.5,90,115.0
5946,G3,557.995,0.5,127,115.0
5947,G4,557.995,0.5,90,115.0
5948,G2,557.995,479/1000,127,115.0
5949,D5,557.995,0.5,90,115.0
5950,B1,557.995,0.031,89,115.0
5951,F#3,557.995,0.031,89,115.0
5952,E-3,557.995,0.031,89,115.0
5953,D4,557.995,0.5,127,115.0
5954,B3,557.995,0.5,127,115.0
5955,G2,558.495,1057/1000,127,115.0
5956,G1,558.495,659/500,127,115.0
5957,B4,558.495,2341/500,90,115.0
5958,C5,558.495,3323/500,90,115.0
5959,G3,558.495,143/500,127,115.0
5960,G4,558.495,6.703,90,115.0
5961,D5,558.495,999/200,90,115.0
5962,F#3,558.495,0.031,103,115.0
5963,B1,558.495,0.031,103,115.0
5964,E-3,558.495,0.031,103,115.0
5965,D4,558.495,599/1000,127,115.0
5966,B3,558.495,599/1000,127,115.0
5967,G3,558.995,599/1000,127,115.0
5968,E-3,558.995,0.031,102,115.0
5969,F#3,558.995,0.031,102,115.0
5970,B3,559.495,349/1000,127,115.0
5971,F#3,559.495,0.031,127,115.0
5972,E2,559.495,0.031,127,115.0
5973,E-3,559.495,0.031,127,115.0
5974,G3,559.995,0.391,127,115.0
5975,G2,559.995,1.297,127,115.0
5976,G1,559.995,271/1000,127,115.0
5977,B1,559.995,0.031,94,115.0
5978,E-3,559.995,0.031,94,115.0
5979,F#3,559.995,0.031,94,115.0
5980,G1,560.495,319/250,127,115.0
5981,B1,560.495,0.031,106,115.0
5982,E-3,560.495,0.031,106,115.0
5983,F#3,560.495,0.031,106,115.0
5984,D4,560.495,91/500,127,115.0
5985,B3,560.495,91/500,127,115.0
5986,E-3,560.995,0.031,92,115.0
5987,F#3,560.995,0.031,92,115.0
5988,E4,560.995,99/500,127,115.0
5989,C4,560.995,99/500,127,115.0
5990,F4,561.495,0.219,127,115.0
5991,D4,561.495,0.219,127,115.0
5992,E2,561.495,0.031,127,115.0
5993,E-3,561.495,0.031,127,115.0
5994,F#3,561.495,0.031,127,115.0
5995,C2,561.995,0.5,127,115.0
5996,C3,561.995,0.5,127,115.0
5997,F4,561.995,0.5,127,115.0
5998,D4,561.995,0.5,127,115.0
5999,F#3,561.995,0.031,90,115.0
6000,E-3,561.995,0.031,90,115.0
6001,B1,561.995,0.031,90,115.0
6002,C2,565.198,1.469,127,115.0
6003,C3,565.198,1.203,127,115.0
6004,E-3,565.198,0.031,106,115.0
6005,B1,565.198,0.031,106,115.0
6006,F#3,565.198,0.031,106,115.0
6007,F4,565.198,0.422,127,115.0
6008,D4,565.198,0.422,127,115.0
6009,G3,565.698,0.719,127,115.0
6010,F#3,565.698,0.031,109,115.0
6011,E-3,565.698,0.031,109,115.0
6012,C5,566.198,3.0,90,115.0
6013,E5,566.198,1.906,90,115.0
6014,E2,566.198,0.031,127,115.0
6015,E-3,566.198,0.031,127,115.0
6016,F#3,566.198,0.031,127,115.0
6017,E4,566.198,0.172,127,115.0
6018,C4,566.198,0.172,127,115.0
6019,G1,566.698,479/1000,127,115.0
6020,C3,566.698,0.812,127,115.0
6021,G3,566.698,177/250,127,115.0
6022,E4,566.698,0.984,127,115.0
6023,C4,566.698,0.984,127,115.0
6024,B1,566.698,0.031,87,115.0
6025,E-3,566.698,0.031,87,115.0
6026,F#3,566.698,0.031,87,115.0
6027,C2,567.198,349/500,127,115.0
6028,F#3,567.198,0.031,95,115.0
6029,B1,567.198,0.031,95,115.0
6030,E-3,567.198,0.031,95,115.0
6031,C3,567.698,99/500,116,115.0
6032,F#3,567.698,0.031,88,115.0
6033,D5,568.198,1.0,90,115.0
6034,B1,568.198,22/25,127,115.0
6035,D4,568.198,0.766,108,115.0
6036,B4,568.198,0.766,108,115.0
6037,B2,568.198,0.766,108,115.0
6038,G#4,568.198,0.766,108,115.0
6039,E-3,568.198,0.031,127,115.0
6040,E2,568.198,0.031,127,115.0
6041,F#3,568.198,0.031,127,115.0
6042,B3,568.198,19/50,127,115.0
6043,G#3,568.198,19/50,127,115.0
6044,G#3,568.698,0.031,107,115.0
6045,F#3,568.698,0.031,107,115.0
6046,A2,569.198,1.141,127,115.0
6047,E3,569.198,771/1000,127,115.0
6048,A4,569.198,4.0,90,115.0
6049,E5,569.198,1599/500,90,115.0
6050,A3,569.198,1.219,127,115.0
6051,C5,569.198,306/125,90,115.0
6052,C5,569.198,304/125,90,115.0
6053,D5,569.198,1/200,90,115.0
6054,A1,569.198,651/500,127,115.0
6055,C4,569.198,651/500,127,115.0
6056,B1,569.198,0.031,101,115.0
6057,F#3,569.198,0.031,101,115.0
6058,C#3,569.198,0.031,101,115.0
6059,F#3,569.698,0.031,88,115.0
6060,E3,570.198,521/1000,124,115.0
6061,E-3,570.198,0.031,127,115.0
6062,E2,570.198,0.031,127,115.0
6063,F#3,570.198,0.031,127,115.0
6064,A1,570.698,0.266,127,115.0
6065,A2,570.698,151/200,127,115.0
6066,F#3,570.698,0.031,94,115.0
6067,E-3,570.698,0.031,94,115.0
6068,C4,571.198,63/100,127,115.0
6069,A3,571.198,177/500,127,115.0
6070,A1,571.198,0.438,127,115.0
6071,F#3,571.198,0.078,103,115.0
6072,B1,571.198,0.078,103,115.0
6073,E-3,571.198,0.078,103,115.0
6074,E3,571.198,0.078,103,115.0
6075,D4,571.698,77/200,127,115.0
6076,C2,571.698,0.453,127,115.0
6077,E-3,571.698,0.031,88,115.0
6078,F#3,571.698,0.031,88,115.0
6079,E2,572.198,237/500,127,115.0
6080,E4,572.198,0.188,127,115.0
6081,D4,572.198,0.297,127,115.0
6082,F#3,572.198,0.031,127,115.0
6083,E-3,572.198,0.031,127,115.0
6084,E2,572.198,0.031,127,115.0
6085,D3,572.698,0.5,127,115.0
6086,D2,572.698,0.5,127,115.0
6087,F#3,572.698,0.5,127,115.0
6088,F#5,572.698,0.5,90,115.0
6089,A3,572.698,0.5,127,115.0
6090,D4,572.698,0.5,127,115.0
6091,E-3,572.698,0.031,100,115.0
6092,B1,572.698,0.031,100,115.0
6093,F#3,572.698,0.031,100,115.0
6094,D3,573.198,259/250,127,115.0
6095,D2,573.198,249/200,127,115.0
6096,F#3,573.198,0.281,127,115.0
6097,A4,573.198,1737/500,90,115.0
6098,F#5,573.198,2021/500,90,115.0
6099,B1,573.198,0.031,96,115.0
6100,F#3,573.198,0.031,96,115.0
6101,E-3,573.198,0.031,96,115.0
6102,A3,573.198,0.688,127,115.0
6103,D4,573.198,0.688,127,115.0
6104,F#3,573.698,177/500,127,115.0
6105,E-3,573.698,0.031,109,115.0
6106,F#3,573.698,0.031,109,115.0
6107,D4,574.198,143/500,127,115.0
6108,F#3,574.198,0.141,96,115.0
6109,E2,574.198,0.031,127,115.0
6110,F#3,574.198,0.031,127,115.0
6111,E-3,574.198,0.031,127,115.0
6112,F#3,574.698,73/200,127,115.0
6113,A3,574.698,73/250,127,115.0
6114,D2,574.698,1583/1000,127,115.0
6115,E-3,574.698,0.031,91,115.0
6116,B1,574.698,0.031,91,115.0
6117,F#3,574.698,0.031,91,115.0
6118,D3,574.698,557/1000,127,115.0
6119,D4,574.698,557/1000,127,115.0
6120,B1,575.198,0.031,109,115.0
6121,E-3,575.198,0.031,109,115.0
6122,F#3,575.198,0.031,109,115.0
6123,F#3,575.698,181/250,127,115.0
6124,E-3,575.698,0.031,115,115.0
6125,F#3,575.698,0.031,115,115.0
6126,A2,576.198,479/1000,104,115.0
6127,D4,576.198,0.141,100,115.0
6128,A3,576.198,49/200,127,115.0
6129,E2,576.198,0.031,127,115.0
6130,F#3,576.198,0.031,127,115.0
6131,E-3,576.198,0.031,127,115.0
6132,D2,576.698,99/200,127,115.0
6133,D3,576.698,0.344,127,115.0
6134,B1,576.698,0.031,89,115.0
6135,E-3,576.698,0.031,89,115.0
6136,F#3,576.698,0.031,89,115.0
6137,C4,577.24,677/1000,127,115.0
6138,G2,577.24,151/200,127,115.0
6139,C5,577.24,251/200,90,115.0
6140,G5,577.24,4.0,90,115.0
6141,D5,577.24,4.0,90,115.0
6142,B1,577.24,0.031,106,115.0
6143,F#3,577.24,0.031,106,115.0
6144,E-3,577.24,0.031,106,115.0
6145,G2,577.24,99/250,127,115.0
6146,F3,577.24,99/250,127,115.0
6147,E-3,577.74,0.031,94,115.0
6148,F#3,577.74,0.031,94,115.0
6149,F3,577.74,0.344,127,115.0
6150,G2,577.74,0.344,127,115.0
6151,G2,578.24,177/500,127,115.0
6152,F3,578.24,167/1000,126,115.0
6153,G2,578.24,167/1000,126,115.0
6154,B3,578.24,167/1000,126,115.0
6155,E2,578.24,0.031,127,115.0
6156,E-3,578.24,0.031,127,115.0
6157,F#3,578.24,0.031,127,115.0
6158,G2,578.74,307/1000,127,115.0
6159,B3,578.74,0.594,127,115.0
6160,F3,578.74,99/250,127,115.0
6161,B4,578.74,1.766,90,115.0
6162,G2,578.74,177/200,127,115.0
6163,B1,578.74,0.031,102,115.0
6164,E-3,578.74,0.031,102,115.0
6165,F#3,578.74,0.031,102,115.0
6166,F3,579.24,0.156,94,115.0
6167,F#3,579.24,0.031,99,115.0
6168,E-3,579.24,0.031,99,115.0
6169,B1,579.24,0.031,99,115.0
6170,G2,579.74,229/500,127,115.0
6171,F3,579.74,13/50,126,115.0
6172,G2,579.74,13/50,126,115.0
6173,E-3,579.74,0.031,96,115.0
6174,F#3,579.74,0.031,96,115.0
6175,G2,580.24,0.453,127,115.0
6176,A3,580.24,91/500,127,115.0
6177,G2,580.24,91/500,127,115.0
6178,F#3,580.24,0.031,127,115.0
6179,E2,580.24,0.031,127,115.0
6180,E-3,580.24,0.031,127,115.0
6181,F3,580.24,91/500,127,115.0
6182,G2,580.24,91/500,127,115.0
6183,A4,580.74,0.5,90,115.0
6184,A3,580.74,349/1000,127,115.0
6185,F3,580.74,0.5,127,115.0
6186,G2,580.74,6/25,127,115.0
6187,G1,580.74,0.5,127,115.0
6188,F#3,580.74,0.031,90,115.0
6189,B1,580.74,0.031,90,115.0
6190,E-3,580.74,0.031,90,115.0
6191,G2,584.948,91/500,127,115.0
6192,A4,584.948,1307/1000,90,115.0
6193,F3,584.948,99/500,127,115.0
6194,G1,584.948,19/50,127,115.0
6195,B1,584.948,0.031,103,115.0
6196,E-3,584.948,0.031,103,115.0
6197,F#3,584.948,0.031,103,115.0
6198,G5,584.948,927/250,90,115.0
6199,D5,584.948,927/250,90,115.0
6200,G1,585.448,339/1000,127,115.0
6201,G3,585.448,91/500,127,115.0
6202,G2,585.448,91/500,127,115.0
6203,F#3,585.448,0.031,94,115.0
6204,E-3,585.448,0.031,94,115.0
6205,G1,585.948,77/200,127,115.0
6206,G2,585.948,229/1000,127,115.0
6207,E-3,585.948,0.031,127,115.0
6208,E2,585.948,0.031,127,115.0
6209,F#3,585.948,0.031,127,115.0
6210,G4,585.948,107/500,127,115.0
6211,G3,585.948,107/500,127,115.0
6212,G1,586.448,159/500,127,115.0
6213,B4,586.448,56/25,90,115.0
6214,E-3,586.448,0.031,100,115.0
6215,B1,586.448,0.031,100,115.0
6216,F#3,586.448,0.031,100,115.0
6217,G4,586.448,91/500,127,115.0
6218,G2,586.448,91/500,127,115.0
6219,G3,586.448,91/500,127,115.0
6220,G1,586.948,159/500,127,115.0
6221,F#3,586.948,0.031,101,115.0
6222,E-3,586.948,0.031,101,115.0
6223,B1,586.948,0.031,101,115.0
6224,G3,586.948,99/1000,123,115.0
6225,G2,586.948,99/1000,123,115.0
6226,G4,586.948,99/1000,123,115.0
6227,G1,587.448,0.391,127,115.0
6228,E-3,587.448,0.031,124,115.0
6229,E2,587.448,0.031,124,115.0
6230,G3,587.448,167/1000,127,115.0
6231,G2,587.448,167/1000,127,115.0
6232,G4,587.448,167/1000,127,115.0
6233,A1,587.948,0.469,127,115.0
6234,F#3,587.948,0.031,127,115.0
6235,E-3,587.948,0.031,127,115.0
6236,E2,587.948,0.031,127,115.0
6237,G4,587.948,73/500,127,115.0
6238,G3,587.948,73/500,127,115.0
6239,G1,588.448,73/250,127,115.0
6240,B1,588.448,0.031,112,115.0
6241,E-3,588.448,0.031,112,115.0
6242,G4,588.448,73/500,127,115.0
6243,G3,588.448,73/500,127,115.0
6244,C3,588.948,0.766,127,115.0
6245,B1,588.948,0.031,119,115.0
6246,C#3,588.948,0.031,119,115.0
6247,F#3,588.948,0.031,119,115.0
6248,D5,588.948,1589/1000,108,115.0
6249,C2,588.948,1589/1000,108,115.0
6250,A4,588.948,1.312,108,115.0
6251,C2,588.948,1.312,108,115.0
6252,C5,588.948,1589/1000,117,115.0
6253,C2,588.948,1589/1000,117,115.0
6254,C4,588.948,1.125,127,115.0
6255,G3,588.948,1.125,127,115.0
6256,F#3,589.448,0.031,122,115.0
6257,C3,589.948,37/50,127,115.0
6258,E-3,589.948,0.031,127,115.0
6259,E2,589.948,0.031,127,115.0
6260,F#3,589.948,0.031,127,115.0
6261,C5,590.448,2.5,90,115.0
6262,G4,590.448,1417/1000,107,115.0
6263,C4,590.448,979/1000,127,115.0
6264,G3,590.448,357/500,127,115.0
6265,G4,590.448,2.5,90,115.0
6266,C2,590.448,401/200,127,115.0
6267,E-3,590.448,0.031,94,115.0
6268,F#3,590.448,0.031,94,115.0
6269,F#3,590.948,0.031,113,115.0
6270,B1,590.948,0.031,113,115.0
6271,E-3,590.948,0.031,113,115.0
6272,G3,591.448,151/250,127,115.0
6273,C2,591.448,0.391,127,115.0
6274,C3,591.448,0.391,127,115.0
6275,E-3,591.448,0.031,92,115.0
6276,F#3,591.448,0.031,92,115.0
6277,C5,591.948,0.922,107,115.0
6278,C4,591.948,573/1000,127,115.0
6279,E2,591.948,0.031,127,115.0
6280,F#3,591.948,0.031,127,115.0
6281,E-3,591.948,0.031,127,115.0
6282,D1,592.448,237/500,127,115.0
6283,G3,592.448,0.5,127,115.0
6284,B1,592.448,0.031,97,115.0
6285,E-3,592.448,0.031,97,115.0
6286,F#3,592.448,0.031,97,115.0
6287,D5,592.948,1.438,90,115.0
6288,E5,592.948,3.062,107,115.0
6289,E2,592.948,2.828,127,115.0
6290,C5,592.948,0.047,90,115.0
6291,G3,592.948,97/125,127,115.0
6292,G4,592.948,3.688,90,115.0
6293,B1,592.948,0.031,103,115.0
6294,F#3,592.948,0.031,103,115.0
6295,E-3,592.948,0.031,103,115.0
6296,E4,592.948,227/200,127,115.0
6297,C4,592.948,227/200,127,115.0
6298,E1,592.948,227/200,127,115.0
6299,C4,592.948,227/200,127,115.0
6300,E-3,593.448,0.031,109,115.0
6301,F#3,593.448,0.031,109,115.0
6302,G3,593.948,149/200,127,115.0
6303,E-3,593.948,0.031,127,115.0
6304,F#3,593.948,0.031,127,115.0
6305,E2,593.948,0.031,127,115.0
6306,C5,594.448,2.5,90,115.0
6307,C4,594.448,411/1000,127,115.0
6308,E1,594.448,373/200,127,115.0
6309,B1,594.448,0.031,89,115.0
6310,E-3,594.448,0.031,89,115.0
6311,F#3,594.448,0.031,89,115.0
6312,E4,594.948,67/125,127,115.0
6313,C4,594.948,167/1000,127,115.0
6314,B1,594.948,0.031,96,115.0
6315,E-3,594.948,0.031,96,115.0
6316,F#3,594.948,0.031,96,115.0
6317,G3,595.448,589/1000,124,115.0
6318,E-3,595.448,0.031,115,115.0
6319,F#3,595.448,0.031,115,115.0
6320,G4,595.948,0.625,127,115.0
6321,F5,595.948,0.438,107,115.0
6322,E-3,595.948,0.031,127,115.0
6323,F#3,595.948,0.031,127,115.0
6324,E2,595.948,0.031,127,115.0
6325,G5,596.448,0.5,107,115.0
6326,E1,596.448,427/1000,118,115.0
6327,G3,596.448,26/125,127,115.0
6328,E-3,596.448,0.031,89,115.0
6329,F#3,596.448,0.031,89,115.0
6330,B1,596.448,0.031,89,115.0
6331,F1,596.948,63/50,127,115.0
6332,A4,596.948,349/100,90,115.0
6333,F2,596.948,2.359,127,115.0
6334,C5,596.948,8021/1000,90,115.0
6335,G5,596.948,1.0,107,115.0
6336,G4,596.948,0.781,127,115.0
6337,C4,596.948,0.781,127,115.0
6338,A3,596.948,0.781,127,115.0
6339,C4,596.948,0.781,127,115.0
6340,B1,596.948,0.031,103,115.0
6341,F#3,596.948,0.031,103,115.0
6342,E-3,596.948,0.031,103,115.0
6343,E-3,597.448,0.031,102,115.0
6344,F#3,597.448,0.031,102,115.0
6345,F5,597.948,2021/1000,107,115.0
6346,E2,597.948,0.031,127,115.0
6347,F#3,597.948,0.031,127,115.0
6348,E-3,597.948,0.031,127,115.0
6349,C4,597.948,27/200,121,115.0
6350,A3,597.948,27/200,121,115.0
6351,F4,597.948,27/200,121,115.0
6352,C4,598.448,807/1000,127,115.0
6353,A3,598.448,0.422,127,115.0
6354,F1,598.448,1.891,127,115.0
6355,F4,598.448,177/200,127,115.0
6356,B1,598.448,0.031,94,115.0
6357,E-3,598.448,0.031,94,115.0
6358,F#3,598.448,0.031,94,115.0
6359,A3,598.948,161/1000,90,115.0
6360,B1,598.948,0.031,106,115.0
6361,E-3,598.948,0.031,106,115.0
6362,F#3,598.948,0.031,106,115.0
6363,F2,599.448,1.5,127,115.0
6364,E-3,599.448,0.031,92,115.0
6365,F#3,599.448,0.031,92,115.0
6366,E5,599.948,1.0,107,115.0
6367,A3,599.948,0.234,108,115.0
6368,E-3,599.948,0.031,124,115.0
6369,F#3,599.948,0.031,124,115.0
6370,C4,599.948,0.031,124,115.0
6371,E2,599.948,0.031,124,115.0
6372,E4,599.948,0.094,122,115.0
6373,C4,599.948,0.094,122,115.0
6374,C2,600.448,0.5,118,115.0
6375,G4,600.448,0.5,90,115.0
6376,A3,600.448,0.328,127,115.0
6377,B1,600.448,0.031,90,115.0
6378,E-3,600.448,0.031,90,115.0
6379,F#3,600.448,0.031,90,115.0
6380,C4,600.448,0.5,127,115.0
6381,E4,600.448,0.5,127,115.0
6382,F2,604.969,573/500,127,115.0
6383,F2,604.969,1833/1000,127,115.0
6384,E5,604.969,1021/1000,107,115.0
6385,C2,604.969,0.016,118,115.0
6386,G4,604.969,1443/1000,90,115.0
6387,B1,604.969,0.031,106,115.0
6388,F#3,604.969,0.031,106,115.0
6389,E-3,604.969,0.031,106,115.0
6390,C4,604.969,177/1000,127,115.0
6391,E4,604.969,177/1000,127,115.0
6392,A3,605.469,677/1000,127,115.0
6393,E-3,605.469,0.031,102,115.0
6394,F#3,605.469,0.031,102,115.0
6395,D5,605.969,1.953,107,115.0
6396,D4,605.969,0.188,127,115.0
6397,E2,605.969,0.031,127,115.0
6398,E-3,605.969,0.031,127,115.0
6399,F#3,605.969,0.031,127,115.0
6400,F2,606.469,1.672,127,115.0
6401,D4,606.469,357/500,127,115.0
6402,A3,606.469,54/125,127,115.0
6403,F4,606.469,2.047,90,115.0
6404,B1,606.469,0.031,102,115.0
6405,E-3,606.469,0.031,102,115.0
6406,F#3,606.469,0.031,102,115.0
6407,B1,606.969,0.031,95,115.0
6408,F#3,606.969,0.031,95,115.0
6409,E-3,606.969,0.031,95,115.0
6410,F2,607.469,0.281,126,115.0
6411,A3,607.469,0.281,126,115.0
6412,E-3,607.469,0.031,112,115.0
6413,E2,607.469,0.031,112,115.0
6414,F#3,607.469,0.031,112,115.0
6415,C4,607.969,0.375,127,115.0
6416,C5,607.969,1.0,107,115.0
6417,E2,607.969,0.031,127,115.0
6418,E-3,607.969,0.031,127,115.0
6419,F#3,607.969,0.031,127,115.0
6420,G4,608.469,0.5,90,115.0
6421,G2,608.469,54/125,127,115.0
6422,G2,608.469,54/125,127,115.0
6423,B1,608.469,0.031,104,115.0
6424,E-3,608.469,0.031,104,115.0
6425,F#3,608.469,0.031,104,115.0
6426,C3,608.969,97/125,127,115.0
6427,G2,608.969,573/1000,127,115.0
6428,G4,608.969,949/100,90,115.0
6429,C5,608.969,2599/1000,107,115.0
6430,C#3,608.969,0.031,101,115.0
6431,F#3,608.969,0.031,101,115.0
6432,B1,608.969,0.031,101,115.0
6433,C2,608.969,113/100,127,115.0
6434,G3,608.969,113/100,127,115.0
6435,C4,608.969,113/100,127,115.0
6436,C2,608.969,1307/1000,108,115.0
6437,D5,608.969,1307/1000,108,115.0
6438,F#3,609.469,0.031,88,115.0
6439,C3,609.969,0.266,124,115.0
6440,E2,609.969,0.031,127,115.0
6441,F#3,609.969,0.031,127,115.0
6442,E-3,609.969,0.031,127,115.0
6443,C5,610.469,306/125,90,115.0
6444,C2,610.469,987/500,127,115.0
6445,C3,610.469,0.531,127,115.0
6446,C2,610.469,0.531,127,115.0
6447,E-3,610.469,0.031,94,115.0
6448,F#3,610.469,0.031,94,115.0
6449,E-3,610.969,0.031,99,115.0
6450,B1,610.969,0.031,99,115.0
6451,F#3,610.969,0.031,99,115.0
6452,G4,611.469,521/1000,107,115.0
6453,G3,611.469,37/50,127,115.0
6454,F#3,611.469,0.031,88,115.0
6455,E-3,611.469,0.031,88,115.0
6456,C4,611.969,0.328,127,115.0
6457,C5,611.969,271/500,107,115.0
6458,F#3,611.969,0.031,127,115.0
6459,E-3,611.969,0.031,127,115.0
6460,E2,611.969,0.031,127,115.0
6461,D5,612.469,99/200,107,115.0
6462,E4,612.469,0.203,124,115.0
6463,G3,612.469,27/200,90,115.0
6464,F#3,612.469,0.031,100,115.0
6465,B1,612.469,0.031,100,115.0
6466,E-3,612.469,0.031,100,115.0
6467,G3,618.458,0.734,127,115.0
6468,E2,618.458,2.719,127,115.0
6469,E1,618.458,659/500,127,115.0
6470,D5,618.458,1401/1000,90,115.0
6471,E5,618.458,3.016,107,115.0
6472,C2,618.458,19/50,127,115.0
6473,F#3,618.458,0.031,96,115.0
6474,B1,618.458,0.031,96,115.0
6475,E-3,618.458,0.031,96,115.0
6476,C4,618.458,227/200,127,115.0
6477,E4,618.458,227/200,127,115.0
6478,F#3,618.958,0.031,109,115.0
6479,E-3,618.958,0.031,109,115.0
6480,G3,619.458,651/1000,127,115.0
6481,E2,619.458,0.031,127,115.0
6482,F#3,619.458,0.031,127,115.0
6483,E-3,619.458,0.031,127,115.0
6484,E3,619.958,99/125,127,115.0
6485,E1,619.958,1917/1000,127,115.0
6486,C5,619.958,2.5,90,115.0
6487,B1,619.958,0.031,91,115.0
6488,F#3,619.958,0.031,91,115.0
6489,E-3,619.958,0.031,91,115.0
6490,G3,620.458,0.625,127,115.0
6491,C4,620.458,0.625,127,115.0
6492,E4,620.458,0.625,127,115.0
6493,B1,620.458,0.031,109,115.0
6494,F#3,620.458,0.031,109,115.0
6495,E-3,620.458,0.031,109,115.0
6496,E-3,620.958,0.031,115,115.0
6497,F#3,620.958,0.031,115,115.0
6498,G4,621.458,0.609,127,115.0
6499,G5,621.458,1.0,107,115.0
6500,E-3,621.458,0.031,127,115.0
6501,E2,621.458,0.031,127,115.0
6502,F#3,621.458,0.031,127,115.0
6503,E1,621.958,401/1000,127,115.0
6504,G3,621.958,167/1000,127,115.0
6505,B1,621.958,0.031,89,115.0
6506,E-3,621.958,0.031,89,115.0
6507,F#3,621.958,0.031,89,115.0
6508,F1,622.458,249/200,127,115.0
6509,F3,622.458,233/250,127,115.0
6510,G4,622.458,0.703,127,115.0
6511,F2,622.458,2807/1000,127,115.0
6512,G5,622.458,487/500,107,115.0
6513,C5,622.458,929/125,90,115.0
6514,A3,622.458,0.828,127,115.0
6515,C4,622.458,0.828,127,115.0
6516,B1,622.458,0.031,106,115.0
6517,E-3,622.458,0.031,106,115.0
6518,F#3,622.458,0.031,106,115.0
6519,E-3,622.958,0.031,94,115.0
6520,F#3,622.958,0.031,94,115.0
6521,F5,623.458,2073/1000,107,115.0
6522,A3,623.458,0.156,110,115.0
6523,F4,623.458,0.156,110,115.0
6524,C4,623.458,0.156,110,115.0
6525,E2,623.458,0.031,127,115.0
6526,E-3,623.458,0.031,127,115.0
6527,F#3,623.458,0.031,127,115.0
6528,F1,623.958,1013/500,127,115.0
6529,A4,623.958,1943/1000,90,115.0
6530,A3,623.958,49/100,127,115.0
6531,C4,623.958,241/250,127,115.0
6532,F4,623.958,151/200,127,115.0
6533,B1,623.958,0.031,102,115.0
6534,E-3,623.958,0.031,102,115.0
6535,F#3,623.958,0.031,102,115.0
6536,B1,624.458,0.031,99,115.0
6537,F#3,624.458,0.031,99,115.0
6538,E-3,624.458,0.031,99,115.0
6539,A3,624.958,37/100,126,115.0
6540,F3,624.958,37/100,126,115.0
6541,F#3,624.958,0.031,96,115.0
6542,E-3,624.958,0.031,96,115.0
6543,E5,625.458,1.0,107,115.0
6544,A3,625.458,73/500,115,115.0
6545,C4,625.458,73/500,115,115.0
6546,E4,625.458,73/500,115,115.0
6547,E-3,625.458,0.031,127,115.0
6548,E2,625.458,0.031,127,115.0
6549,F#3,625.458,0.031,127,115.0
6550,G4,625.958,0.5,90,115.0
6551,B1,625.958,0.031,90,115.0
6552,F#3,625.958,0.031,90,115.0
6553,E-3,625.958,0.031,90,115.0
6554,C2,625.958,417/1000,126,115.0
6555,A3,625.958,417/1000,126,115.0
6556,E4,625.958,73/250,127,115.0
6557,C4,625.958,73/250,127,115.0
6558,F2,629.891,1307/1000,127,115.0
6559,G4,629.891,137/100,90,115.0
6560,E5,629.891,513/500,107,115.0
6561,B1,629.891,0.031,103,115.0
6562,E-3,629.891,0.031,103,115.0
6563,F#3,629.891,0.031,103,115.0
6564,A3,630.391,51/100,116,115.0
6565,F#3,630.391,0.031,94,115.0
6566,E-3,630.391,0.031,94,115.0
6567,D4,630.891,229/1000,127,115.0
6568,C4,630.891,13/100,127,115.0
6569,D5,630.891,2021/1000,107,115.0
6570,F#3,630.891,0.031,127,115.0
6571,E2,630.891,0.031,127,115.0
6572,E-3,630.891,0.031,127,115.0
6573,F2,631.391,192/125,127,115.0
6574,F4,631.391,2.5,90,115.0
6575,A3,631.391,73/200,127,115.0
6576,D4,631.391,73/200,127,115.0
6577,B1,631.391,0.031,100,115.0
6578,E-3,631.391,0.031,100,115.0
6579,F#3,631.391,0.031,100,115.0
6580,B1,631.891,0.031,101,115.0
6581,F#3,631.891,0.031,101,115.0
6582,E-3,631.891,0.031,101,115.0
6583,A3,632.391,99/250,127,115.0
6584,E2,632.391,0.031,124,115.0
6585,E-3,632.391,0.031,124,115.0
6586,C5,632.891,0.984,107,115.0
6587,E-3,632.891,0.031,127,115.0
6588,E2,632.891,0.031,127,115.0
6589,F#3,632.891,0.031,127,115.0
6590,D2,632.891,56/125,127,115.0
6591,C4,632.891,56/125,127,115.0
6592,C2,633.391,0.266,127,115.0
6593,A3,633.391,0.141,108,115.0
6594,E-3,633.391,0.031,112,115.0
6595,B1,633.391,0.031,112,115.0
6596,G2,633.891,573/1000,127,115.0
6597,C3,633.891,97/125,127,115.0
6598,F4,633.891,54/125,90,115.0
6599,B1,633.891,0.031,101,115.0
6600,C#3,633.891,0.031,101,115.0
6601,F#3,633.891,0.031,101,115.0
6602,D5,633.891,63/50,108,115.0
6603,C2,633.891,63/50,108,115.0
6604,C2,633.891,113/100,127,115.0
6605,G3,633.891,113/100,127,115.0
6606,C4,633.891,113/100,127,115.0
6607,F#3,634.391,0.031,88,115.0
6608,C3,634.891,0.266,124,115.0
6609,F#3,634.891,0.031,127,115.0
6610,E2,634.891,0.031,127,115.0
6611,E-3,634.891,0.031,127,115.0
6612,C5,635.391,306/125,90,115.0
6613,C2,635.391,987/500,127,115.0
6614,E-3,635.391,0.031,94,115.0
6615,F#3,635.391,0.031,94,115.0
6616,C3,635.391,0.531,127,115.0
6617,C2,635.391,0.531,127,115.0
6618,E-3,635.891,0.031,99,115.0
6619,B1,635.891,0.031,99,115.0
6620,F#3,635.891,0.031,99,115.0
6621,G4,636.391,521/1000,107,115.0
6622,G3,636.391,37/50,127,115.0
6623,F#3,636.391,0.031,88,115.0
6624,E-3,636.391,0.031,88,115.0
6625,C4,636.891,0.328,127,115.0
6626,C5,636.891,271/500,107,115.0
6627,E2,636.891,0.031,127,115.0
6628,F#3,636.891,0.031,127,115.0
6629,E-3,636.891,0.031,127,115.0
6630,D5,637.391,99/200,107,115.0
6631,G3,637.391,27/200,90,115.0
6632,E4,637.391,0.203,124,115.0
6633,B1,637.391,0.031,100,115.0
6634,E-3,637.391,0.031,100,115.0
6635,F#3,637.391,0.031,100,115.0
6636,C2,637.891,19/50,127,115.0
6637,E2,637.891,2.719,127,115.0
6638,G3,637.891,0.734,127,115.0
6639,E5,637.891,3.016,107,115.0
6640,D5,637.891,1401/1000,90,115.0
6641,E1,637.891,659/500,127,115.0
6642,B1,637.891,0.031,96,115.0
6643,E-3,637.891,0.031,96,115.0
6644,F#3,637.891,0.031,96,115.0
6645,E4,637.891,573/500,127,115.0
6646,C4,637.891,573/500,127,115.0
6647,E-3,638.391,0.031,109,115.0
6648,F#3,638.391,0.031,109,115.0
6649,G3,638.891,651/1000,127,115.0
6650,E2,638.891,0.031,127,115.0
6651,F#3,638.891,0.031,127,115.0
6652,E-3,638.891,0.031,127,115.0
6653,E3,639.391,99/125,127,115.0
6654,C5,639.391,2.5,90,115.0
6655,E1,639.391,1917/1000,127,115.0
6656,B1,639.391,0.031,91,115.0
6657,F#3,639.391,0.031,91,115.0
6658,E-3,639.391,0.031,91,115.0
6659,E4,639.891,0.625,127,115.0
6660,G3,639.891,0.625,127,115.0
6661,C4,639.891,0.625,127,115.0
6662,B1,639.891,0.031,109,115.0
6663,F#3,639.891,0.031,109,115.0
6664,E-3,639.891,0.031,109,115.0
6665,E-3,640.391,0.031,115,115.0
6666,F#3,640.391,0.031,115,115.0
6667,G5,640.891,1.0,107,115.0
6668,G4,640.891,0.609,127,115.0
6669,E2,640.891,0.031,127,115.0
6670,E-3,640.891,0.031,127,115.0
6671,F#3,640.891,0.031,127,115.0
6672,E1,641.391,401/1000,127,115.0
6673,G3,641.391,167/1000,127,115.0
6674,E-3,641.391,0.031,89,115.0
6675,F#3,641.391,0.031,89,115.0
6676,B1,641.391,0.031,89,115.0
6677,G4,641.891,0.703,127,115.0
6678,F3,641.891,233/250,127,115.0
6679,F1,641.891,249/200,127,115.0
6680,F2,641.891,2807/1000,127,115.0
6681,G5,641.891,487/500,107,115.0
6682,C5,641.891,7.922,90,115.0
6683,A3,641.891,0.828,127,115.0
6684,C4,641.891,0.828,127,115.0
6685,F#3,641.891,0.031,106,115.0
6686,B1,641.891,0.031,106,115.0
6687,E-3,641.891,0.031,106,115.0
6688,F#3,642.391,0.031,94,115.0
6689,E-3,642.391,0.031,94,115.0
6690,F5,642.891,2073/1000,107,115.0
6691,E-3,642.891,0.031,127,115.0
6692,E2,642.891,0.031,127,115.0
6693,F#3,642.891,0.031,127,115.0
6694,F4,642.891,0.156,110,115.0
6695,A3,642.891,0.156,110,115.0
6696,C4,642.891,0.156,110,115.0
6697,C4,643.391,241/250,127,115.0
6698,A4,643.391,1943/1000,90,115.0
6699,F4,643.391,151/200,127,115.0
6700,A3,643.391,49/100,127,115.0
6701,F1,643.391,1013/500,127,115.0
6702,B1,643.391,0.031,102,115.0
6703,E-3,643.391,0.031,102,115.0
6704,F#3,643.391,0.031,102,115.0
6705,B1,643.891,0.031,99,115.0
6706,F#3,643.891,0.031,99,115.0
6707,E-3,643.891,0.031,99,115.0
6708,E-3,644.391,0.031,96,115.0
6709,F#3,644.391,0.031,96,115.0
6710,A3,644.391,37/100,126,115.0
6711,F3,644.391,37/100,126,115.0
6712,E5,644.891,1.0,107,115.0
6713,E-3,644.891,0.031,127,115.0
6714,E2,644.891,0.031,127,115.0
6715,F#3,644.891,0.031,127,115.0
6716,E4,644.891,99/500,115,115.0
6717,C4,644.891,99/500,115,115.0
6718,A3,644.891,99/500,115,115.0
6719,G4,645.391,0.5,90,115.0
6720,E4,645.391,73/250,127,115.0
6721,C4,645.391,73/250,127,115.0
6722,B1,645.391,0.031,90,115.0
6723,E-3,645.391,0.031,90,115.0
6724,F#3,645.391,0.031,90,115.0
6725,C2,645.391,417/1000,126,115.0
6726,A3,645.391,417/1000,126,115.0
6727,F2,649.812,1307/1000,127,115.0
6728,G4,649.812,137/100,90,115.0
6729,E5,649.812,513/500,107,115.0
6730,E-3,649.812,0.031,103,115.0
6731,B1,649.812,0.031,103,115.0
6732,F#3,649.812,0.031,103,115.0
6733,A3,650.312,51/100,116,115.0
6734,F#3,650.312,0.031,94,115.0
6735,E-3,650.312,0.031,94,115.0
6736,C4,650.812,13/100,127,115.0
6737,D5,650.812,2021/1000,107,115.0
6738,D4,650.812,229/1000,127,115.0
6739,E2,650.812,0.031,127,115.0
6740,F#3,650.812,0.031,127,115.0
6741,E-3,650.812,0.031,127,115.0
6742,F2,651.312,192/125,127,115.0
6743,F4,651.312,2.5,90,115.0
6744,A3,651.312,73/200,127,115.0
6745,D4,651.312,73/200,127,115.0
6746,E-3,651.312,0.031,100,115.0
6747,B1,651.312,0.031,100,115.0
6748,F#3,651.312,0.031,100,115.0
6749,E-3,651.812,0.031,101,115.0
6750,B1,651.812,0.031,101,115.0
6751,F#3,651.812,0.031,101,115.0
6752,A3,652.312,99/250,127,115.0
6753,E-3,652.312,0.031,124,115.0
6754,E2,652.312,0.031,124,115.0
6755,C5,652.812,0.984,107,115.0
6756,F#3,652.812,0.031,127,115.0
6757,E2,652.812,0.031,127,115.0
6758,E-3,652.812,0.031,127,115.0
6759,C4,652.812,101/200,127,115.0
6760,D2,652.812,101/200,127,115.0
6761,C2,653.312,0.266,127,115.0
6762,A3,653.312,0.141,108,115.0
6763,B1,653.312,0.031,112,115.0
6764,E-3,653.312,0.031,112,115.0
6765,C5,653.812,4.0,90,115.0
6766,G#3,653.812,149/200,127,115.0
6767,D5,653.812,501/200,107,115.0
6768,B-1,653.812,4.0,127,115.0
6769,B-2,653.812,1.656,127,115.0
6770,F4,653.812,7.797,90,115.0
6771,C4,653.812,409/500,127,115.0
6772,D4,653.812,409/500,127,115.0
6773,B1,653.812,0.031,115,115.0
6774,C#3,653.812,0.031,115,115.0
6775,G#4,653.812,4.0,90,115.0
6776,D5,653.812,4.0,90,115.0
6777,G#3,654.812,513/500,127,115.0
6778,D4,655.312,479/1000,127,115.0
6779,C4,655.312,479/1000,127,115.0
6780,B-2,655.812,479/1000,126,115.0
6781,G#4,656.312,0.5,107,115.0
6782,G#3,656.312,0.406,127,115.0
6783,C4,656.812,0.328,127,115.0
6784,B-2,656.812,1.0,46,115.0
6785,C5,656.812,0.453,107,115.0
6786,D5,657.312,159/500,117,115.0
6787,D4,657.312,159/500,117,115.0
6788,E5,661.745,1083/1000,107,115.0
6789,E4,661.745,229/500,127,115.0
6790,B-2,661.745,0.906,46,115.0
6791,C5,661.745,4483/250,90,115.0
6792,B-1,661.745,3.547,127,115.0
6793,G#4,661.745,983/250,90,115.0
6794,D5,661.745,983/250,90,115.0
6795,D4,662.745,401/1000,127,115.0
6796,D5,662.745,1021/1000,107,115.0
6797,C5,663.745,0.531,107,115.0
6798,C4,663.745,333/1000,127,115.0
6799,G#3,664.245,73/200,127,115.0
6800,G#4,664.745,0.5,107,115.0
6801,E-3,665.245,0.031,88,115.0
6802,C2,679.677,4.0,127,115.0
6803,G4,679.677,4.0,90,115.0
6804,C1,679.677,4.0,127,115.0
6805,E3,679.677,1.016,127,115.0
6806,G2,679.677,4.0,127,115.0
6807,C5,679.677,4.0,107,115.0
6808,E-3,679.677,0.031,122,115.0
6809,C4,680.177,173/200,127,115.0
6810,G4,682.177,159/500,100,115.0
6811,G4,682.677,0.219,127,115.0
6812,C5,683.177,0.297,116,115.0
6813,C5,683.677,91/500,127,115.0
6814,C2,683.677,15.984,127,115.0
6815,G4,683.677,2483/250,90,115.0
6816,C1,683.677,11849/1000,127,115.0
6817,G2,683.677,3.984,127,115.0
6818,C5,683.677,3.484,107,115.0
6819,G5,684.677,0.344,127,115.0
6820,G5,685.177,26/125,127,115.0
6821,C4,685.677,2.0,90,115.0
6822,C6,686.177,0.391,127,115.0
6823,C6,687.177,0.203,127,115.0
6824,C4,699.661,4.0,90,115.0
6825,G6,700.161,0.25,124,115.0
6826,C4,703.661,483/250,90,115.0
