,note_name,start_time,duration,velocity,tempo
0,C#4,4.0,0.5,102,128.0
1,C#4,4.042,0.5,102,128.0
2,C#5,4.5,0.5,102,128.0
3,C#5,4.542,0.5,102,128.0
4,G#4,5.0,0.5,102,128.0
5,G#4,5.042,0.5,102,128.0
6,F#4,5.5,0.5,102,128.0
7,F#4,5.542,0.5,102,128.0
8,F#5,6.0,0.5,102,128.0
9,F#5,6.042,0.5,102,128.0
10,G#4,6.5,0.5,102,128.0
11,G#4,6.542,0.5,102,128.0
12,F5,7.0,0.5,102,128.0
13,F5,7.042,0.5,102,128.0
14,G#4,7.5,0.5,102,128.0
15,G#4,7.542,229/500,102,128.0
16,C#4,8.0,0.5,102,128.0
17,G#4,8.0,21/500,102,128.0
18,C#4,8.042,0.5,102,128.0
19,C#5,8.5,0.5,102,128.0
20,C#5,8.542,0.5,102,128.0
21,G#4,9.0,0.5,102,128.0
22,G#4,9.042,0.5,102,128.0
23,F#4,9.5,0.5,102,128.0
24,F#4,9.542,0.5,102,128.0
25,F#5,10.0,0.5,102,128.0
26,F#5,10.042,0.5,102,128.0
27,G#4,10.5,0.5,102,128.0
28,G#4,10.542,0.5,102,128.0
29,F5,11.0,0.5,102,128.0
30,F5,11.042,0.5,102,128.0
31,G#4,11.5,0.5,102,128.0
32,G#4,11.542,229/500,102,128.0
33,E-4,12.0,0.5,102,128.0
34,G#4,12.0,21/500,102,128.0
35,E-4,12.042,0.5,102,128.0
36,C#5,12.5,0.5,102,128.0
37,C#5,12.542,0.5,102,128.0
38,G#4,13.0,0.5,102,128.0
39,G#4,13.042,0.5,102,128.0
40,F#4,13.5,0.5,102,128.0
41,F#4,13.542,0.5,102,128.0
42,F#5,14.0,0.5,102,128.0
43,F#5,14.042,0.5,102,128.0
44,G#4,14.5,0.5,102,128.0
45,G#4,14.542,0.5,102,128.0
46,F5,15.0,0.5,102,128.0
47,F5,15.042,0.5,102,128.0
48,G#4,15.5,0.5,102,128.0
49,G#4,15.542,229/500,102,128.0
50,E-4,16.0,0.5,102,128.0
51,G#4,16.0,21/500,102,128.0
52,E-4,16.042,0.5,102,128.0
53,C#5,16.5,0.5,102,128.0
54,C#5,16.542,0.5,102,128.0
55,G#4,17.0,0.5,102,128.0
56,G#4,17.042,0.5,102,128.0
57,F#4,17.5,0.5,102,128.0
58,F#4,17.542,0.5,102,128.0
59,F#5,18.0,0.5,102,128.0
60,F#5,18.042,0.5,102,128.0
61,G#4,18.5,0.5,102,128.0
62,G#4,18.542,0.5,102,128.0
63,F5,19.0,0.5,102,128.0
64,F5,19.042,0.5,102,128.0
65,G#4,19.5,0.5,102,128.0
66,G#4,19.542,229/500,102,128.0
67,F#4,20.0,0.5,102,128.0
68,G#4,20.0,21/500,102,128.0
69,F#4,20.042,0.5,102,128.0
70,C#5,20.5,0.5,102,128.0
71,C#5,20.542,0.5,102,128.0
72,G#4,21.0,0.5,102,128.0
73,G#4,21.042,0.5,102,128.0
74,F#4,21.5,0.5,102,128.0
75,F#4,21.542,0.5,102,128.0
76,F#5,22.0,0.5,102,128.0
77,F#5,22.042,0.5,102,128.0
78,G#4,22.5,0.5,102,128.0
79,G#4,22.542,0.5,102,128.0
80,F5,23.0,0.5,102,128.0
81,F5,23.042,0.5,102,128.0
82,G#4,23.5,0.5,102,128.0
83,G#4,23.542,229/500,102,128.0
84,F#4,24.0,0.5,102,128.0
85,G#4,24.0,21/500,102,128.0
86,F#4,24.042,0.5,102,128.0
87,C#5,24.5,0.5,102,128.0
88,C#5,24.542,0.5,102,128.0
89,G#4,25.0,0.5,102,128.0
90,G#4,25.042,0.5,102,128.0
91,F#4,25.5,0.5,102,128.0
92,F#4,25.542,0.5,102,128.0
93,F#5,26.0,0.5,102,128.0
94,F#5,26.042,0.5,102,128.0
95,G#4,26.5,0.5,102,128.0
96,G#4,26.542,0.5,102,128.0
97,F5,27.0,0.5,102,128.0
98,F5,27.042,0.5,102,128.0
99,G#4,27.5,0.5,102,128.0
100,G#4,27.542,229/500,102,128.0
101,C#4,28.0,0.5,102,128.0
102,G#4,28.0,21/500,102,128.0
103,C#4,28.042,0.5,102,128.0
104,C#5,28.5,0.5,102,128.0
105,C#5,28.542,0.5,102,128.0
106,G#4,29.0,0.5,102,128.0
107,G#4,29.042,0.5,102,128.0
108,F#4,29.5,0.5,102,128.0
109,F#4,29.542,0.5,102,128.0
110,F#5,30.0,0.5,102,128.0
111,C#3,30.0,467/1000,98,128.0
112,G#3,30.0,467/1000,98,128.0
113,C#4,30.0,467/1000,98,128.0
114,F#5,30.042,0.5,102,128.0
115,G#4,30.5,0.5,102,128.0
116,C#3,30.5,0.5,98,128.0
117,G#3,30.5,0.5,98,128.0
118,C#4,30.5,0.5,98,128.0
119,G#4,30.542,0.5,102,128.0
120,F5,31.0,0.5,102,128.0
121,C#3,31.0,0.5,98,128.0
122,G#3,31.0,0.5,98,128.0
123,C#4,31.0,0.5,98,128.0
124,F5,31.042,0.5,102,128.0
125,G#4,31.5,0.5,102,128.0
126,C#3,31.5,0.5,98,128.0
127,G#3,31.5,0.5,98,128.0
128,C#4,31.5,0.5,98,128.0
129,G#4,31.542,229/500,102,128.0
130,C#4,32.0,0.5,102,128.0
131,G#4,32.0,21/500,102,128.0
132,C#3,32.0,0.5,98,128.0
133,G#3,32.0,0.5,98,128.0
134,C#4,32.0,0.5,98,128.0
135,C#4,32.042,0.5,102,128.0
136,C#5,32.5,0.5,102,128.0
137,C#3,32.5,0.5,98,128.0
138,G#3,32.5,0.5,98,128.0
139,C#4,32.5,0.5,98,128.0
140,C#5,32.542,0.5,102,128.0
141,G#4,33.0,0.5,102,128.0
142,C#3,33.0,0.5,98,128.0
143,G#3,33.0,0.5,98,128.0
144,C#4,33.0,0.5,98,128.0
145,G#4,33.042,0.5,102,128.0
146,F#4,33.5,0.5,102,128.0
147,C#3,33.5,0.5,98,128.0
148,G#3,33.5,0.5,98,128.0
149,C#4,33.5,0.5,98,128.0
150,F#4,33.542,0.5,102,128.0
151,F#5,34.0,0.5,102,128.0
152,C#3,34.0,0.5,98,128.0
153,G#3,34.0,0.5,98,128.0
154,C#4,34.0,0.5,98,128.0
155,F#5,34.042,0.5,102,128.0
156,G#4,34.5,0.5,102,128.0
157,C#3,34.5,0.5,98,128.0
158,G#3,34.5,0.5,98,128.0
159,C#4,34.5,0.5,98,128.0
160,G#4,34.542,0.5,102,128.0
161,F5,35.0,0.5,102,128.0
162,C#3,35.0,0.5,98,128.0
163,G#3,35.0,0.5,98,128.0
164,C#4,35.0,0.5,98,128.0
165,F5,35.042,0.5,102,128.0
166,G#4,35.5,0.5,102,128.0
167,G#2,35.5,2/5,95,128.0
168,C#3,35.5,0.5,98,128.0
169,G#3,35.5,0.5,98,128.0
170,C#4,35.5,0.5,98,128.0
171,G#4,35.542,229/500,102,128.0
172,B3,35.75,0.25,76,128.0
173,B3,35.875,0.125,76,128.0
174,C#4,36.0,0.5,102,128.0
175,G#4,36.0,21/500,102,128.0
176,C#3,36.0,4.0,95,128.0
177,C#3,36.0,1.375,95,128.0
178,C#3,36.0,0.5,45,128.0
179,B3,36.0,0.125,76,128.0
180,C#3,36.0,29/20,92,128.0
181,G#3,36.0,29/20,92,128.0
182,C#4,36.0,29/20,92,128.0
183,F4,36.0,29/20,92,128.0
184,C#4,36.042,0.5,102,128.0
185,G#3,36.067,3933/1000,95,128.0
186,C#4,36.133,3867/1000,95,128.0
187,F4,36.2,19/5,95,128.0
188,C#5,36.5,0.5,102,128.0
189,C#5,36.542,0.5,102,128.0
190,G#4,37.0,0.5,102,128.0
191,F#2,37.0,0.5,77,128.0
192,G#4,37.042,0.5,102,128.0
193,F#4,37.5,0.5,102,128.0
194,F3,37.5,917/1000,89,128.0
195,C#3,37.5,39/20,92,128.0
196,G#3,37.5,39/20,92,128.0
197,C#4,37.5,39/20,92,128.0
198,F4,37.5,39/20,92,128.0
199,F#4,37.542,0.5,102,128.0
200,F#5,38.0,0.5,102,128.0
201,F#2,38.0,1.0,73,128.0
202,F#5,38.042,0.5,102,128.0
203,G#4,38.5,0.5,102,128.0
204,C#3,38.5,229/500,95,128.0
205,G#4,38.542,0.5,102,128.0
206,F5,39.0,0.5,102,128.0
207,F3,39.0,229/500,89,128.0
208,F#2,39.0,0.5,76,128.0
209,F5,39.042,0.5,102,128.0
210,G#4,39.5,0.5,102,128.0
211,F#3,39.5,229/500,89,128.0
212,C#3,39.5,0.5,92,128.0
213,G#3,39.5,0.5,92,128.0
214,C#4,39.5,0.5,92,128.0
215,F4,39.5,0.5,92,128.0
216,G#4,39.542,229/500,102,128.0
217,B3,39.75,0.25,76,128.0
218,B3,39.875,0.125,76,128.0
219,C#4,40.0,0.5,102,128.0
220,G#4,40.0,21/500,102,128.0
221,F#4,40.0,1.0,95,128.0
222,G#3,40.0,67/1000,95,128.0
223,C#4,40.0,133/1000,95,128.0
224,F4,40.0,1/5,95,128.0
225,G#3,40.0,4/5,89,128.0
226,B3,40.0,0.125,76,128.0
227,C#3,40.0,967/1000,98,128.0
228,G#3,40.0,967/1000,98,128.0
229,C#4,40.0,967/1000,98,128.0
230,G3,40.0,1.0,60,128.0
231,F#2,40.0,1.0,60,128.0
232,C#4,40.042,0.5,102,128.0
233,C#5,40.5,0.5,102,128.0
234,C#5,40.542,0.5,102,128.0
235,G#4,41.0,0.5,102,128.0
236,F4,41.0,0.5,98,128.0
237,B-3,41.0,229/500,89,128.0
238,F#2,41.0,1.0,81,128.0
239,G#4,41.042,0.5,102,128.0
240,F#4,41.5,0.5,102,128.0
241,G#3,41.5,229/500,95,128.0
242,G#3,41.5,967/1000,98,128.0
243,C#4,41.5,967/1000,98,128.0
244,F#4,41.5,967/1000,98,128.0
245,F#4,41.542,0.5,102,128.0
246,F#5,42.0,0.5,102,128.0
247,F#3,42.0,229/500,89,128.0
248,F#2,42.0,1.0,79,128.0
249,F#5,42.042,0.5,102,128.0
250,G#4,42.5,0.5,102,128.0
251,F4,42.5,0.5,98,128.0
252,F3,42.5,229/500,89,128.0
253,G#4,42.542,0.5,102,128.0
254,F5,43.0,0.5,102,128.0
255,C#3,43.0,229/500,95,128.0
256,F#2,43.0,0.5,82,128.0
257,G#3,43.0,483/1000,98,128.0
258,C#4,43.0,483/1000,98,128.0
259,F5,43.042,0.5,102,128.0
260,G#4,43.5,0.5,102,128.0
261,C#2,43.5,229/500,95,128.0
262,C#3,43.5,0.5,98,128.0
263,G#3,43.5,0.5,98,128.0
264,G#4,43.542,229/500,102,128.0
265,B3,43.75,0.25,76,128.0
266,B3,43.875,0.125,76,128.0
267,E-4,44.0,0.5,102,128.0
268,G#4,44.0,21/500,102,128.0
269,B2,44.0,27/20,95,128.0
270,C#3,44.0,1.0,46,128.0
271,B3,44.0,0.125,76,128.0
272,B2,44.0,933/1000,98,128.0
273,E-3,44.0,933/1000,98,128.0
274,F#3,44.0,933/1000,98,128.0
275,B3,44.0,933/1000,98,128.0
276,E-4,44.0,933/1000,98,128.0
277,B2,44.0,4.0,95,128.0
278,E-3,44.0,4.0,95,128.0
279,E-4,44.042,0.5,102,128.0
280,F#3,44.1,39/10,95,128.0
281,B3,44.1,39/10,95,128.0
282,E-4,44.2,19/5,95,128.0
283,C#5,44.5,0.5,102,128.0
284,C#5,44.542,0.5,102,128.0
285,G#4,45.0,0.5,102,128.0
286,C#4,45.0,0.5,98,128.0
287,F#2,45.0,1.0,75,128.0
288,G#4,45.042,0.5,102,128.0
289,F#4,45.5,0.5,102,128.0
290,F#3,45.5,9/5,89,128.0
291,B2,45.5,2.5,98,128.0
292,E-3,45.5,2.5,98,128.0
293,F#3,45.5,2.5,98,128.0
294,B3,45.5,2.5,98,128.0
295,E-4,45.5,2.5,98,128.0
296,F#4,45.542,0.5,102,128.0
297,F#5,46.0,0.5,102,128.0
298,F#2,46.0,1.0,76,128.0
299,F#5,46.042,0.5,102,128.0
300,G#4,46.5,0.5,102,128.0
301,G#4,46.542,0.5,102,128.0
302,F5,47.0,0.5,102,128.0
303,F#2,47.0,0.5,82,128.0
304,F5,47.042,0.5,102,128.0
305,G#4,47.5,0.5,102,128.0
306,B2,47.5,9/20,95,128.0
307,G#4,47.542,229/500,102,128.0
308,B3,47.625,0.25,76,128.0
309,B3,47.75,0.25,76,128.0
310,E-4,48.0,0.5,102,128.0
311,G#4,48.0,21/500,102,128.0
312,E-4,48.0,1/5,95,128.0
313,E3,48.0,9/20,89,128.0
314,B2,48.0,249/125,98,128.0
315,E-3,48.0,249/125,98,128.0
316,F#3,48.0,1/10,95,128.0
317,B3,48.0,1/10,95,128.0
318,G3,48.0,1.0,60,128.0
319,F#2,48.0,1.0,60,128.0
320,F#3,48.017,479/500,98,128.0
321,C#4,48.025,9/20,98,128.0
322,E-4,48.042,0.5,102,128.0
323,C#5,48.5,0.5,102,128.0
324,B3,48.5,0.5,98,128.0
325,E-3,48.5,9/20,89,128.0
326,C#5,48.542,0.5,102,128.0
327,G#4,49.0,0.5,102,128.0
328,F#3,49.0,0.5,98,128.0
329,B2,49.0,9/20,89,128.0
330,F#2,49.0,1.0,79,128.0
331,G#4,49.042,0.5,102,128.0
332,F#4,49.5,0.5,102,128.0
333,B3,49.5,2.0,98,128.0
334,E3,49.5,9/10,89,128.0
335,F#4,49.542,0.5,102,128.0
336,F#5,50.0,0.5,102,128.0
337,F#2,50.0,1.0,81,128.0
338,F#5,50.042,0.5,102,128.0
339,G#4,50.5,0.5,102,128.0
340,E-3,50.5,9/20,89,128.0
341,G#4,50.542,0.5,102,128.0
342,F5,51.0,0.5,102,128.0
343,B2,51.0,9/20,95,128.0
344,F#2,51.0,0.5,76,128.0
345,F5,51.042,0.5,102,128.0
346,G#4,51.5,0.5,102,128.0
347,F#3,51.5,0.5,98,128.0
348,C#2,51.5,9/20,95,128.0
349,G#4,51.542,229/500,102,128.0
350,B3,51.75,0.25,76,128.0
351,B3,51.875,0.125,76,128.0
352,F#4,52.0,0.5,102,128.0
353,G#4,52.0,21/500,102,128.0
354,F#2,52.0,2.5,95,128.0
355,C#3,52.0,1.0,47,128.0
356,B3,52.0,0.125,76,128.0
357,F#2,52.0,933/1000,98,128.0
358,B-2,52.0,933/1000,98,128.0
359,C#3,52.0,933/1000,98,128.0
360,F#3,52.0,933/1000,98,128.0
361,C#4,52.0,933/1000,98,128.0
362,F#2,52.0,4.0,95,128.0
363,B-2,52.0,4.0,95,128.0
364,F#4,52.042,0.5,102,128.0
365,C#3,52.1,39/10,95,128.0
366,F#3,52.1,39/10,95,128.0
367,C#4,52.2,19/5,95,128.0
368,F#4,52.2,19/5,95,128.0
369,C#5,52.5,0.5,102,128.0
370,C#5,52.542,0.5,102,128.0
371,G#4,53.0,0.5,102,128.0
372,F#3,53.0,0.5,98,128.0
373,F#2,53.0,1.0,77,128.0
374,G#4,53.042,0.5,102,128.0
375,F#4,53.5,0.5,102,128.0
376,F#2,53.5,2.5,98,128.0
377,B-2,53.5,2.5,98,128.0
378,C#3,53.5,2.5,98,128.0
379,F#3,53.5,2.5,98,128.0
380,B-3,53.5,2.5,98,128.0
381,F#4,53.542,0.5,102,128.0
382,F#5,54.0,0.5,102,128.0
383,F#2,54.0,1.0,79,128.0
384,F#5,54.042,0.5,102,128.0
385,G#4,54.5,0.5,102,128.0
386,G#4,54.542,0.5,102,128.0
387,F5,55.0,0.5,102,128.0
388,F#2,55.0,0.5,78,128.0
389,F5,55.042,0.5,102,128.0
390,G#4,55.5,0.5,102,128.0
391,C#3,55.5,9/20,89,128.0
392,G#4,55.542,229/500,102,128.0
393,B3,55.625,0.25,76,128.0
394,B3,55.75,0.25,76,128.0
395,F#4,56.0,0.5,102,128.0
396,G#4,56.0,21/500,102,128.0
397,F#3,56.0,2.5,89,128.0
398,F#2,56.0,3933/1000,98,128.0
399,B-2,56.0,3933/1000,98,128.0
400,C#3,56.0,3933/1000,98,128.0
401,F#3,56.0,3933/1000,98,128.0
402,B-3,56.0,3933/1000,98,128.0
403,G3,56.0,1.0,61,128.0
404,F#2,56.0,1.0,61,128.0
405,F#4,56.042,0.5,102,128.0
406,C#5,56.5,0.5,102,128.0
407,C#5,56.542,0.5,102,128.0
408,G#4,57.0,0.5,102,128.0
409,F#2,57.0,1.0,73,128.0
410,G#4,57.042,0.5,102,128.0
411,F#4,57.5,0.5,102,128.0
412,F#4,57.542,0.5,102,128.0
413,F#5,58.0,0.5,102,128.0
414,F#2,58.0,1.0,80,128.0
415,F#5,58.042,0.5,102,128.0
416,G#4,58.5,0.5,102,128.0
417,G#4,58.542,0.5,102,128.0
418,F5,59.0,0.5,102,128.0
419,F#2,59.0,0.5,75,128.0
420,F5,59.042,0.5,102,128.0
421,G#4,59.5,0.5,102,128.0
422,C#3,59.5,9/20,89,128.0
423,G#4,59.542,229/500,102,128.0
424,B3,59.75,0.25,76,128.0
425,B3,59.875,0.125,76,128.0
426,F#2,59.95,79/20,95,128.0
427,B-2,59.95,79/20,95,128.0
428,C#3,59.95,79/20,95,128.0
429,F#3,59.95,79/20,95,128.0
430,C#4,59.95,79/20,95,128.0
431,F#4,59.95,79/20,95,128.0
432,C#4,60.0,0.5,102,128.0
433,G#4,60.0,21/500,102,128.0
434,F#3,60.0,9/20,89,128.0
435,B3,60.0,0.125,76,128.0
436,C#3,60.0,967/1000,98,128.0
437,G#3,60.0,967/1000,98,128.0
438,C#4,60.0,967/1000,98,128.0
439,E2,60.0,0.5,56,128.0
440,C2,60.0,0.5,56,128.0
441,C#3,60.0,0.5,56,128.0
442,C#4,60.042,0.5,102,128.0
443,C#5,60.5,0.5,102,128.0
444,F3,60.5,9/20,89,128.0
445,E2,60.5,0.5,49,128.0
446,C2,60.5,0.5,49,128.0
447,C#5,60.542,0.5,102,128.0
448,G#4,61.0,0.5,102,128.0
449,C#3,61.0,9/20,89,128.0
450,C#3,61.0,0.5,98,128.0
451,G#3,61.0,0.5,98,128.0
452,C#4,61.0,0.5,98,128.0
453,E2,61.0,0.5,50,128.0
454,C2,61.0,0.5,50,128.0
455,G#4,61.042,0.5,102,128.0
456,F#4,61.5,0.5,102,128.0
457,F#3,61.5,9/10,89,128.0
458,C#3,61.5,0.5,98,128.0
459,G#3,61.5,0.5,98,128.0
460,C#4,61.5,0.5,98,128.0
461,E2,61.5,0.5,50,128.0
462,C2,61.5,0.5,50,128.0
463,F#4,61.542,0.5,102,128.0
464,F#5,62.0,0.5,102,128.0
465,C#3,62.0,0.5,98,128.0
466,G#3,62.0,0.5,98,128.0
467,C#4,62.0,0.5,98,128.0
468,E2,62.0,0.5,56,128.0
469,C2,62.0,0.5,56,128.0
470,F#5,62.042,0.5,102,128.0
471,G#4,62.5,0.5,102,128.0
472,F3,62.5,9/20,89,128.0
473,C#3,62.5,0.5,98,128.0
474,G#3,62.5,0.5,98,128.0
475,C#4,62.5,0.5,98,128.0
476,E2,62.5,0.5,57,128.0
477,C2,62.5,0.5,57,128.0
478,G#4,62.542,0.5,102,128.0
479,F5,63.0,0.5,102,128.0
480,C#3,63.0,1.0,89,128.0
481,C#3,63.0,0.5,98,128.0
482,G#3,63.0,0.5,98,128.0
483,C#4,63.0,0.5,98,128.0
484,E2,63.0,0.5,63,128.0
485,C2,63.0,0.5,63,128.0
486,F5,63.042,0.5,102,128.0
487,G#4,63.5,0.5,102,128.0
488,C#3,63.5,0.5,98,128.0
489,G#3,63.5,0.5,98,128.0
490,C#4,63.5,0.5,98,128.0
491,E2,63.5,0.5,63,128.0
492,C2,63.5,0.5,63,128.0
493,G#4,63.542,229/500,102,128.0
494,C#3,63.95,9/20,83,128.0
495,G#3,63.95,9/20,83,128.0
496,C#4,63.95,9/20,83,128.0
497,F4,63.95,9/20,83,128.0
498,C#4,64.0,0.5,102,128.0
499,G#4,64.0,21/500,102,128.0
500,C#3,64.0,0.5,89,128.0
501,C#3,64.0,0.5,98,128.0
502,G#3,64.0,0.5,98,128.0
503,C#4,64.0,0.5,98,128.0
504,F#4,64.0,0.5,98,128.0
505,G3,64.0,0.25,64,128.0
506,E2,64.0,0.25,64,128.0
507,C2,64.0,0.25,64,128.0
508,C#4,64.042,0.5,102,128.0
509,G3,64.25,0.25,40,128.0
510,C#5,64.5,0.5,102,128.0
511,C#3,64.5,9/20,95,128.0
512,G#3,64.5,9/20,95,128.0
513,C#4,64.5,9/20,95,128.0
514,F4,64.5,9/20,95,128.0
515,G3,64.5,0.25,65,128.0
516,E2,64.5,0.25,65,128.0
517,C2,64.5,0.25,65,128.0
518,C#5,64.542,0.5,102,128.0
519,G3,64.75,0.25,40,128.0
520,G#4,65.0,0.5,102,128.0
521,C#3,65.0,483/1000,98,128.0
522,F#3,65.0,483/1000,98,128.0
523,G3,65.0,0.25,72,128.0
524,E2,65.0,0.25,72,128.0
525,C2,65.0,0.25,72,128.0
526,G#4,65.042,0.5,102,128.0
527,G3,65.25,0.25,40,128.0
528,F#4,65.5,0.5,102,128.0
529,C#3,65.5,39/20,95,128.0
530,G#3,65.5,39/20,95,128.0
531,C#4,65.5,39/20,95,128.0
532,F4,65.5,39/20,95,128.0
533,G3,65.5,0.25,74,128.0
534,E2,65.5,0.25,74,128.0
535,C2,65.5,0.25,74,128.0
536,F#4,65.542,0.5,102,128.0
537,G3,65.75,0.25,40,128.0
538,F#5,66.0,0.5,102,128.0
539,G3,66.0,0.5,79,128.0
540,E2,66.0,0.5,79,128.0
541,C2,66.0,0.5,79,128.0
542,F#5,66.042,0.5,102,128.0
543,G#4,66.5,0.5,102,128.0
544,C2,66.5,0.5,98,128.0
545,G#4,66.542,0.5,102,128.0
546,F5,67.0,0.5,102,128.0
547,E2,67.0,0.5,127,128.0
548,F5,67.042,0.5,102,128.0
549,C#2,67.25,27/40,95,128.0
550,G#4,67.5,0.5,102,128.0
551,C#3,67.5,0.5,98,128.0
552,G#3,67.5,0.5,98,128.0
553,C#4,67.5,0.5,98,128.0
554,E-4,67.5,0.5,98,128.0
555,G#4,67.542,229/500,102,128.0
556,C#4,68.0,0.5,102,128.0
557,G#4,68.0,21/500,102,128.0
558,C#3,68.0,29/20,92,128.0
559,G#3,68.0,29/20,92,128.0
560,C#4,68.0,29/20,92,128.0
561,F4,68.0,29/20,92,128.0
562,C2,68.0,0.5,72,128.0
563,C#3,68.0,0.5,72,128.0
564,C#2,68.008,149/125,89,128.0
565,C#4,68.042,0.5,102,128.0
566,C#5,68.5,0.5,102,128.0
567,F#2,68.5,0.5,68,128.0
568,C#5,68.542,0.5,102,128.0
569,G#4,69.0,0.5,102,128.0
570,F#2,69.0,0.5,98,128.0
571,E2,69.0,0.5,98,128.0
572,G#4,69.042,0.5,102,128.0
573,F#4,69.5,0.5,102,128.0
574,C#2,69.5,229/500,89,128.0
575,C#3,69.5,39/20,92,128.0
576,G#3,69.5,39/20,92,128.0
577,C#4,69.5,39/20,92,128.0
578,F4,69.5,39/20,92,128.0
579,C2,69.5,0.5,82,128.0
580,F#2,69.5,0.5,82,128.0
581,F#4,69.542,0.5,102,128.0
582,F#5,70.0,0.5,102,128.0
583,C#2,70.0,6/5,89,128.0
584,C2,70.0,0.5,75,128.0
585,F#2,70.0,0.5,75,128.0
586,F#5,70.042,0.5,102,128.0
587,G#4,70.5,0.5,102,128.0
588,F#2,70.5,0.5,67,128.0
589,G#4,70.542,0.5,102,128.0
590,F5,71.0,0.5,102,128.0
591,F#2,71.0,0.5,96,128.0
592,E2,71.0,0.5,96,128.0
593,F5,71.042,0.5,102,128.0
594,G#4,71.5,0.5,102,128.0
595,C#2,71.5,229/500,89,128.0
596,C#3,71.5,0.5,92,128.0
597,G#3,71.5,0.5,92,128.0
598,C#4,71.5,0.5,92,128.0
599,F4,71.5,0.5,92,128.0
600,C2,71.5,0.5,76,128.0
601,F#2,71.5,0.5,76,128.0
602,G#4,71.542,229/500,102,128.0
603,C#3,71.95,29/20,95,128.0
604,G#3,71.95,29/20,95,128.0
605,C#4,71.95,29/20,95,128.0
606,F4,71.95,29/20,95,128.0
607,C#4,72.0,0.5,102,128.0
608,G#4,72.0,21/500,102,128.0
609,C#2,72.0,6/5,89,128.0
610,C#3,72.0,967/1000,98,128.0
611,G#3,72.0,967/1000,98,128.0
612,C#4,72.0,967/1000,98,128.0
613,C2,72.0,0.5,74,128.0
614,F#2,72.0,0.5,74,128.0
615,C#4,72.042,0.5,102,128.0
616,C#5,72.5,0.5,102,128.0
617,F#2,72.5,0.5,70,128.0
618,C#5,72.542,0.5,102,128.0
619,G#4,73.0,0.5,102,128.0
620,F4,73.0,0.5,98,128.0
621,F#2,73.0,0.5,98,128.0
622,E2,73.0,0.5,98,128.0
623,G#4,73.042,0.5,102,128.0
624,C#3,73.45,0.5,83,128.0
625,G#3,73.45,0.5,83,128.0
626,C#4,73.45,0.5,83,128.0
627,F4,73.45,0.5,83,128.0
628,F#4,73.5,0.5,102,128.0
629,C#2,73.5,229/500,95,128.0
630,G#3,73.5,967/1000,98,128.0
631,C#4,73.5,967/1000,98,128.0
632,F#4,73.5,967/1000,98,128.0
633,C2,73.5,0.5,76,128.0
634,F#2,73.5,0.5,76,128.0
635,F#4,73.542,0.5,102,128.0
636,C#3,73.95,1.5,95,128.0
637,G#3,73.95,1.5,95,128.0
638,C#4,73.95,1.5,95,128.0
639,F4,73.95,1.5,95,128.0
640,F#5,74.0,0.5,102,128.0
641,F2,74.0,229/500,95,128.0
642,C2,74.0,0.5,79,128.0
643,F#2,74.0,0.5,79,128.0
644,F#5,74.042,0.5,102,128.0
645,G#4,74.5,0.5,102,128.0
646,F4,74.5,0.5,98,128.0
647,G#2,74.5,229/500,83,128.0
648,F#2,74.5,0.5,73,128.0
649,G#4,74.542,0.5,102,128.0
650,F5,75.0,0.5,102,128.0
651,F2,75.0,2/5,64,128.0
652,G#3,75.0,483/1000,98,128.0
653,C#4,75.0,483/1000,98,128.0
654,F#2,75.0,0.5,94,128.0
655,E2,75.0,0.5,94,128.0
656,F5,75.042,0.5,102,128.0
657,C#3,75.45,0.5,95,128.0
658,G#3,75.45,0.5,95,128.0
659,C#4,75.45,0.5,95,128.0
660,F4,75.45,0.5,95,128.0
661,G#4,75.5,0.5,102,128.0
662,G#1,75.5,2/5,95,128.0
663,F#2,75.5,0.5,71,128.0
664,C#3,75.5,0.5,98,128.0
665,G#3,75.5,0.5,98,128.0
666,G#4,75.542,229/500,102,128.0
667,C#3,75.95,29/20,95,128.0
668,G#3,75.95,29/20,95,128.0
669,C#4,75.95,29/20,95,128.0
670,F4,75.95,29/20,95,128.0
671,E-4,76.0,0.5,102,128.0
672,G#4,76.0,21/500,102,128.0
673,B1,76.0,6/5,95,128.0
674,B2,76.0,933/1000,98,128.0
675,E-3,76.0,933/1000,98,128.0
676,F#3,76.0,933/1000,98,128.0
677,B3,76.0,933/1000,98,128.0
678,E-4,76.0,933/1000,98,128.0
679,C2,76.0,0.5,74,128.0
680,C#3,76.0,0.5,74,128.0
681,E-4,76.042,0.5,102,128.0
682,C#5,76.5,0.5,102,128.0
683,F#2,76.5,0.5,76,128.0
684,C#5,76.542,0.5,102,128.0
685,G#4,77.0,0.5,102,128.0
686,C#4,77.0,0.5,98,128.0
687,F#2,77.0,0.5,95,128.0
688,E2,77.0,0.5,95,128.0
689,G#4,77.042,0.5,102,128.0
690,F4,77.45,0.5,95,128.0
691,F#4,77.5,0.5,102,128.0
692,B1,77.5,229/500,95,128.0
693,B2,77.5,2.5,98,128.0
694,E-3,77.5,2.5,98,128.0
695,F#3,77.5,2.5,98,128.0
696,B3,77.5,2.5,98,128.0
697,E-4,77.5,2.5,98,128.0
698,C2,77.5,0.5,76,128.0
699,F#2,77.5,0.5,76,128.0
700,F#4,77.542,0.5,102,128.0
701,F#4,77.95,0.5,95,128.0
702,F#5,78.0,0.5,102,128.0
703,B1,78.0,6/5,95,128.0
704,C2,78.0,0.5,78,128.0
705,F#2,78.0,0.5,78,128.0
706,F#5,78.042,0.5,102,128.0
707,F4,78.45,0.5,95,128.0
708,G#4,78.5,0.5,102,128.0
709,F#2,78.5,0.5,69,128.0
710,G#4,78.542,0.5,102,128.0
711,E-4,78.95,1.0,95,128.0
712,F5,79.0,0.5,102,128.0
713,F#2,79.0,0.5,100,128.0
714,E2,79.0,0.5,100,128.0
715,F5,79.042,0.5,102,128.0
716,G#4,79.5,0.5,102,128.0
717,B1,79.5,229/500,95,128.0
718,C2,79.5,0.5,78,128.0
719,F#2,79.5,0.5,78,128.0
720,G#4,79.542,229/500,102,128.0
721,B2,79.95,29/20,95,128.0
722,E-3,79.95,29/20,95,128.0
723,F#3,79.95,29/20,95,128.0
724,B3,79.95,29/20,95,128.0
725,E-4,80.0,0.5,102,128.0
726,G#4,80.0,21/500,102,128.0
727,B1,80.0,6/5,95,128.0
728,B2,80.0,249/125,98,128.0
729,E-3,80.0,249/125,98,128.0
730,C2,80.0,0.5,72,128.0
731,F#2,80.0,0.5,72,128.0
732,F#3,80.017,479/500,98,128.0
733,E-4,80.017,1433/1000,95,128.0
734,C#4,80.025,9/20,98,128.0
735,E-4,80.042,0.5,102,128.0
736,C#5,80.5,0.5,102,128.0
737,B3,80.5,0.5,98,128.0
738,F#2,80.5,0.5,76,128.0
739,C#5,80.542,0.5,102,128.0
740,G#4,81.0,0.5,102,128.0
741,F#3,81.0,0.5,98,128.0
742,F#2,81.0,0.5,94,128.0
743,E2,81.0,0.5,94,128.0
744,G#4,81.042,0.5,102,128.0
745,B2,81.45,9/20,95,128.0
746,E-3,81.45,9/20,95,128.0
747,F#3,81.45,9/20,95,128.0
748,B3,81.45,9/20,95,128.0
749,F#4,81.5,0.5,102,128.0
750,B3,81.5,2.0,98,128.0
751,B1,81.5,229/500,95,128.0
752,C2,81.5,0.5,74,128.0
753,F#2,81.5,0.5,74,128.0
754,E-4,81.517,433/1000,95,128.0
755,F#4,81.542,0.5,102,128.0
756,B2,81.95,1.5,95,128.0
757,E-3,81.95,1.5,95,128.0
758,F#3,81.95,1.5,95,128.0
759,B3,81.95,1.5,95,128.0
760,F#5,82.0,0.5,102,128.0
761,E2,82.0,229/500,95,128.0
762,C2,82.0,0.5,74,128.0
763,F#2,82.0,0.5,74,128.0
764,E-4,82.017,1.5,95,128.0
765,F#5,82.042,0.5,102,128.0
766,G#4,82.5,0.5,102,128.0
767,E-2,82.5,229/500,95,128.0
768,F#2,82.5,0.5,67,128.0
769,G#4,82.542,0.5,102,128.0
770,F5,83.0,0.5,102,128.0
771,C#2,83.0,229/500,95,128.0
772,F#2,83.0,0.5,97,128.0
773,E2,83.0,0.5,97,128.0
774,F5,83.042,0.5,102,128.0
775,B2,83.45,0.5,95,128.0
776,E-3,83.45,0.5,95,128.0
777,F#3,83.45,0.5,95,128.0
778,B3,83.45,0.5,95,128.0
779,G#4,83.5,0.5,102,128.0
780,F#3,83.5,0.5,98,128.0
781,B-1,83.5,2/5,95,128.0
782,F#2,83.5,0.5,71,128.0
783,E-4,83.517,433/1000,95,128.0
784,G#4,83.542,229/500,102,128.0
785,E-4,83.95,67/1000,95,128.0
786,B2,83.95,29/20,95,128.0
787,E-3,83.95,29/20,95,128.0
788,F#3,83.95,29/20,95,128.0
789,B3,83.95,29/20,95,128.0
790,F#4,84.0,0.5,102,128.0
791,G#4,84.0,21/500,102,128.0
792,F#1,84.0,6/5,95,128.0
793,F#2,84.0,933/1000,98,128.0
794,B-2,84.0,933/1000,98,128.0
795,C#3,84.0,933/1000,98,128.0
796,F#3,84.0,933/1000,98,128.0
797,C#4,84.0,933/1000,98,128.0
798,C2,84.0,0.5,80,128.0
799,F#2,84.0,0.5,80,128.0
800,E-4,84.017,1433/1000,95,128.0
801,F#4,84.042,0.5,102,128.0
802,C#5,84.5,0.5,102,128.0
803,F#2,84.5,0.5,67,128.0
804,C#5,84.542,0.5,102,128.0
805,G#4,85.0,0.5,102,128.0
806,F#3,85.0,0.5,98,128.0
807,F#2,85.0,0.5,92,128.0
808,E2,85.0,0.5,92,128.0
809,G#4,85.042,0.5,102,128.0
810,E-4,85.45,0.5,95,128.0
811,F#4,85.5,0.5,102,128.0
812,F#1,85.5,229/500,95,128.0
813,F#2,85.5,2.5,98,128.0
814,B-2,85.5,2.5,98,128.0
815,C#3,85.5,2.5,98,128.0
816,F#3,85.5,2.5,98,128.0
817,B-3,85.5,2.5,98,128.0
818,C2,85.5,0.5,79,128.0
819,F#2,85.5,0.5,79,128.0
820,F#4,85.542,0.5,102,128.0
821,F#4,85.95,0.5,95,128.0
822,F#5,86.0,0.5,102,128.0
823,F#1,86.0,6/5,95,128.0
824,C2,86.0,0.5,80,128.0
825,F#2,86.0,0.5,80,128.0
826,F#5,86.042,0.5,102,128.0
827,F4,86.45,0.5,95,128.0
828,G#4,86.5,0.5,102,128.0
829,F#2,86.5,0.5,72,128.0
830,G#4,86.542,0.5,102,128.0
831,E-4,86.95,1.0,95,128.0
832,F5,87.0,0.5,102,128.0
833,F#2,87.0,0.5,96,128.0
834,E2,87.0,0.5,96,128.0
835,F5,87.042,0.5,102,128.0
836,G#4,87.5,0.5,102,128.0
837,F#1,87.5,2/5,95,128.0
838,C2,87.5,0.5,78,128.0
839,F#2,87.5,0.5,78,128.0
840,G#4,87.542,229/500,102,128.0
841,F#2,87.95,29/20,95,128.0
842,B-2,87.95,29/20,95,128.0
843,C#3,87.95,29/20,95,128.0
844,F#3,87.95,29/20,95,128.0
845,F#4,88.0,0.5,102,128.0
846,G#4,88.0,21/500,102,128.0
847,F#1,88.0,2/5,95,128.0
848,F#2,88.0,3933/1000,98,128.0
849,B-2,88.0,3933/1000,98,128.0
850,C#3,88.0,3933/1000,98,128.0
851,F#3,88.0,3933/1000,98,128.0
852,B-3,88.0,3933/1000,98,128.0
853,C2,88.0,0.5,76,128.0
854,F#2,88.0,0.5,76,128.0
855,C#4,88.017,1.5,95,128.0
856,F#4,88.042,0.5,102,128.0
857,C#5,88.5,0.5,102,128.0
858,E-1,88.5,2/5,95,128.0
859,F#2,88.5,0.5,73,128.0
860,C#5,88.542,0.5,102,128.0
861,G#4,89.0,0.5,102,128.0
862,E2,89.0,229/500,95,128.0
863,F#2,89.0,0.5,98,128.0
864,E2,89.0,0.5,98,128.0
865,G#4,89.042,0.5,102,128.0
866,F#2,89.45,9/20,95,128.0
867,B-2,89.45,9/20,95,128.0
868,C#3,89.45,9/20,95,128.0
869,F#3,89.45,9/20,95,128.0
870,F#4,89.5,0.5,102,128.0
871,F2,89.5,229/500,83,128.0
872,C2,89.5,0.5,82,128.0
873,F#2,89.5,0.5,82,128.0
874,C#4,89.517,0.5,95,128.0
875,F#4,89.542,0.5,102,128.0
876,F#2,89.95,29/20,95,128.0
877,B-2,89.95,29/20,95,128.0
878,C#3,89.95,29/20,95,128.0
879,F#3,89.95,29/20,95,128.0
880,F#5,90.0,0.5,102,128.0
881,F#2,90.0,229/500,83,128.0
882,C2,90.0,0.5,74,128.0
883,F#2,90.0,0.5,74,128.0
884,C#4,90.017,1.5,95,128.0
885,F#5,90.042,0.5,102,128.0
886,G#4,90.5,0.5,102,128.0
887,G#1,90.5,229/500,95,128.0
888,F#2,90.5,0.5,67,128.0
889,G#4,90.542,0.5,102,128.0
890,F5,91.0,0.5,102,128.0
891,B1,91.0,229/500,95,128.0
892,F#2,91.0,0.5,95,128.0
893,E2,91.0,0.5,95,128.0
894,F5,91.042,0.5,102,128.0
895,F#2,91.45,0.5,95,128.0
896,B-2,91.45,0.5,95,128.0
897,C#3,91.45,0.5,95,128.0
898,F#3,91.45,0.5,95,128.0
899,G#4,91.5,0.5,102,128.0
900,C2,91.5,2/5,95,128.0
901,C2,91.5,0.5,74,128.0
902,F#2,91.5,0.5,74,128.0
903,C#4,91.517,433/1000,95,128.0
904,G#4,91.542,229/500,102,128.0
905,C#4,91.95,67/1000,95,128.0
906,F#2,91.95,1.5,95,128.0
907,B-2,91.95,1.5,95,128.0
908,C#3,91.95,1.5,95,128.0
909,F#3,91.95,1.5,95,128.0
910,E-5,92.0,0.5,102,128.0
911,G#4,92.0,21/500,102,128.0
912,C#2,92.0,4/5,95,128.0
913,C#3,92.0,967/1000,98,128.0
914,G#3,92.0,967/1000,98,128.0
915,C#4,92.0,967/1000,98,128.0
916,C2,92.0,0.5,76,128.0
917,F#2,92.0,0.5,76,128.0
918,C#4,92.017,1.5,95,128.0
919,E-5,92.042,0.5,102,128.0
920,G#4,92.5,0.5,102,128.0
921,F#2,92.5,0.5,73,128.0
922,G#4,92.542,0.5,102,128.0
923,C#5,93.0,0.5,102,128.0
924,G#1,93.0,2/5,95,128.0
925,C#3,93.0,0.5,98,128.0
926,G#3,93.0,0.5,98,128.0
927,C#4,93.0,0.5,98,128.0
928,F#2,93.0,0.5,96,128.0
929,E2,93.0,0.5,96,128.0
930,C#5,93.042,0.5,102,128.0
931,C#4,93.45,0.5,95,128.0
932,G#4,93.5,0.5,102,128.0
933,C#2,93.5,229/500,95,128.0
934,C#3,93.5,0.5,98,128.0
935,G#3,93.5,0.5,98,128.0
936,C#4,93.5,0.5,98,128.0
937,C2,93.5,0.5,80,128.0
938,F#2,93.5,0.5,80,128.0
939,G#4,93.542,0.5,102,128.0
940,F#4,93.95,0.5,95,128.0
941,E-5,94.0,0.5,102,128.0
942,C#2,94.0,1.25,83,128.0
943,C#3,94.0,0.5,98,128.0
944,G#3,94.0,0.5,98,128.0
945,C#4,94.0,0.5,98,128.0
946,C2,94.0,0.5,79,128.0
947,F#2,94.0,0.5,79,128.0
948,E-5,94.042,0.5,102,128.0
949,F4,94.45,0.5,95,128.0
950,G#4,94.5,0.5,102,128.0
951,F#2,94.5,0.5,66,128.0
952,C#3,94.5,0.5,98,128.0
953,G#3,94.5,0.5,98,128.0
954,C#4,94.5,0.5,98,128.0
955,G#4,94.542,0.5,102,128.0
956,E-4,94.95,1.0,95,128.0
957,F5,95.0,0.5,102,128.0
958,C#3,95.0,0.5,98,128.0
959,G#3,95.0,0.5,98,128.0
960,C#4,95.0,0.5,98,128.0
961,F#2,95.0,0.5,100,128.0
962,E2,95.0,0.5,100,128.0
963,F5,95.042,0.5,102,128.0
964,G#4,95.5,0.5,102,128.0
965,C#2,95.5,2/5,95,128.0
966,C#3,95.5,0.5,98,128.0
967,G#3,95.5,0.5,98,128.0
968,C#4,95.5,0.5,98,128.0
969,C2,95.5,0.5,76,128.0
970,F#2,95.5,0.5,76,128.0
971,G#4,95.542,229/500,102,128.0
972,C#3,95.95,1.5,92,128.0
973,G#3,95.95,1.5,92,128.0
974,C#4,95.95,1.5,92,128.0
975,F4,95.95,1.5,92,128.0
976,E-2,95.958,21/500,95,128.0
977,F#5,96.0,0.5,102,128.0
978,G#4,96.0,21/500,102,128.0
979,E-2,96.0,9/20,95,128.0
980,C#3,96.0,0.5,98,128.0
981,G#3,96.0,0.5,98,128.0
982,C#4,96.0,0.5,98,128.0
983,F#4,96.0,0.5,98,128.0
984,C2,96.0,0.5,80,128.0
985,F#2,96.0,0.5,80,128.0
986,F#5,96.042,0.5,102,128.0
987,G#4,96.5,0.5,102,128.0
988,G#2,96.5,9/20,89,128.0
989,C#3,96.5,9/20,95,128.0
990,G#3,96.5,9/20,95,128.0
991,C#4,96.5,9/20,95,128.0
992,F4,96.5,9/20,95,128.0
993,C#3,96.5,1.0,92,128.0
994,E2,96.5,1.0,92,128.0
995,G#4,96.542,0.5,102,128.0
996,F5,97.0,0.5,102,128.0
997,G#1,97.0,9/20,95,128.0
998,C#3,97.0,483/1000,98,128.0
999,F#3,97.0,483/1000,98,128.0
1000,F5,97.042,0.5,102,128.0
1001,C#3,97.45,0.5,95,128.0
1002,G#3,97.467,1.5,91,128.0
1003,C#4,97.467,1.5,91,128.0
1004,F4,97.467,1.5,91,128.0
1005,G#4,97.5,0.5,102,128.0
1006,C#2,97.5,9/20,95,128.0
1007,C2,97.5,0.5,81,128.0
1008,C#3,97.5,39/20,95,128.0
1009,G#3,97.5,39/20,95,128.0
1010,C#4,97.5,39/20,95,128.0
1011,F4,97.5,39/20,95,128.0
1012,G#4,97.542,0.5,102,128.0
1013,C#3,97.95,1.5,92,128.0
1014,G#3,97.95,1.5,92,128.0
1015,C#4,97.95,1.5,92,128.0
1016,F4,97.95,1.5,92,128.0
1017,E-5,98.0,0.5,102,128.0
1018,F#2,98.0,9/10,89,128.0
1019,A3,98.0,0.5,94,128.0
1020,E2,98.0,0.5,94,128.0
1021,E-5,98.042,0.5,102,128.0
1022,G#4,98.5,0.5,102,128.0
1023,C2,98.5,0.5,87,128.0
1024,G#4,98.542,0.5,102,128.0
1025,C#5,99.0,1.0,102,128.0
1026,F2,99.0,9/10,89,128.0
1027,C#3,99.0,0.5,95,128.0
1028,E2,99.0,0.5,95,128.0
1029,C#5,99.042,479/500,102,128.0
1030,C#3,99.45,0.5,95,128.0
1031,G#3,99.467,483/1000,91,128.0
1032,C#4,99.467,483/1000,91,128.0
1033,F4,99.467,483/1000,91,128.0
1034,C2,99.5,0.5,83,128.0
1035,C#3,99.5,0.5,98,128.0
1036,G#3,99.5,0.5,98,128.0
1037,C#4,99.5,0.5,98,128.0
1038,E-4,99.5,0.5,98,128.0
1039,C#3,99.95,1.5,92,128.0
1040,G#3,99.95,1.5,92,128.0
1041,C#4,99.95,1.5,92,128.0
1042,F4,99.95,1.5,92,128.0
1043,G#3,99.95,1017/1000,91,128.0
1044,C#4,99.95,1017/1000,91,128.0
1045,F4,99.95,1017/1000,91,128.0
1046,C#5,100.0,21/500,102,128.0
1047,C#2,100.0,1.0,95,128.0
1048,C#3,100.0,29/20,82,128.0
1049,G#3,100.0,29/20,82,128.0
1050,C#4,100.0,29/20,82,128.0
1051,F4,100.0,29/20,82,128.0
1052,C#4,100.0,4.0,89,128.0
1053,F4,100.0,4.0,89,128.0
1054,G#4,100.0,4.0,89,128.0
1055,C2,100.0,1.0,68,128.0
1056,B-2,100.0,1.0,68,128.0
1057,C#5,100.075,157/40,89,128.0
1058,B-2,101.0,0.5,87,128.0
1059,E2,101.0,0.5,87,128.0
1060,C#3,101.45,0.5,95,128.0
1061,G#3,101.467,1.5,91,128.0
1062,C#4,101.467,1.5,91,128.0
1063,F4,101.467,1.5,91,128.0
1064,C#2,101.5,9/20,95,128.0
1065,C2,101.5,0.5,89,128.0
1066,C#3,101.5,39/20,82,128.0
1067,G#3,101.5,39/20,82,128.0
1068,C#4,101.5,39/20,82,128.0
1069,F4,101.5,39/20,82,128.0
1070,C#3,101.95,1.5,92,128.0
1071,G#3,101.95,1.5,92,128.0
1072,C#4,101.95,1.5,92,128.0
1073,F4,101.95,1.5,92,128.0
1074,C#2,102.0,27/20,95,128.0
1075,C2,102.0,1.0,68,128.0
1076,B-2,102.0,1.0,68,128.0
1077,B-2,103.0,0.5,84,128.0
1078,E2,103.0,0.5,84,128.0
1079,C#3,103.45,0.5,95,128.0
1080,G#3,103.467,483/1000,91,128.0
1081,C#4,103.467,483/1000,91,128.0
1082,F4,103.467,483/1000,91,128.0
1083,C#2,103.5,9/20,95,128.0
1084,C2,103.5,0.5,85,128.0
1085,C#3,103.5,0.5,82,128.0
1086,G#3,103.5,0.5,82,128.0
1087,C#4,103.5,0.5,82,128.0
1088,F4,103.5,0.5,82,128.0
1089,G#3,103.95,1017/1000,91,128.0
1090,C#4,103.95,1017/1000,91,128.0
1091,F4,103.95,1017/1000,91,128.0
1092,C#2,104.0,1.0,95,128.0
1093,C#3,104.0,967/1000,88,128.0
1094,G#3,104.0,967/1000,88,128.0
1095,C#4,104.0,967/1000,88,128.0
1096,C2,104.0,1.0,70,128.0
1097,B-2,104.0,1.0,70,128.0
1098,C#5,104.6,27/40,89,128.0
1099,C#4,104.6,3/5,89,128.0
1100,F4,104.6,3/5,89,128.0
1101,G#4,104.6,3/5,89,128.0
1102,F4,105.0,0.5,88,128.0
1103,B-2,105.0,0.5,86,128.0
1104,E2,105.0,0.5,86,128.0
1105,C#2,105.5,9/20,95,128.0
1106,C2,105.5,0.5,80,128.0
1107,G#3,105.5,967/1000,88,128.0
1108,C#4,105.5,967/1000,88,128.0
1109,F#4,105.5,967/1000,88,128.0
1110,C#2,106.0,9/10,95,128.0
1111,C2,106.0,1.0,65,128.0
1112,B-2,106.0,1.0,65,128.0
1113,F4,106.5,0.5,88,128.0
1114,G#1,107.0,9/20,95,128.0
1115,G#3,107.0,483/1000,88,128.0
1116,C#4,107.0,483/1000,88,128.0
1117,B-2,107.0,1.0,88,128.0
1118,E2,107.0,1.0,88,128.0
1119,B-1,107.5,9/20,95,128.0
1120,C#3,107.5,0.5,88,128.0
1121,G#3,107.5,0.5,88,128.0
1122,B1,108.0,1.0,95,128.0
1123,B2,108.0,933/1000,83,128.0
1124,E-3,108.0,933/1000,83,128.0
1125,F#3,108.0,933/1000,83,128.0
1126,B3,108.0,933/1000,83,128.0
1127,E-4,108.0,933/1000,83,128.0
1128,B1,108.0,1.0,69,128.0
1129,B-2,108.0,1.0,69,128.0
1130,B3,108.6,18/5,89,128.0
1131,E-4,108.6,18/5,89,128.0
1132,F#4,108.6,18/5,89,128.0
1133,B4,108.675,18/5,89,128.0
1134,C#4,109.0,0.5,88,128.0
1135,B-2,109.0,0.5,88,128.0
1136,E2,109.0,0.5,88,128.0
1137,B1,109.5,9/20,95,128.0
1138,C2,109.5,0.5,83,128.0
1139,B2,109.5,2.5,83,128.0
1140,E-3,109.5,2.5,83,128.0
1141,F#3,109.5,2.5,83,128.0
1142,B3,109.5,2.5,83,128.0
1143,E-4,109.5,2.5,83,128.0
1144,B1,110.0,9/10,95,128.0
1145,C2,110.0,1.0,69,128.0
1146,B-2,110.0,1.0,69,128.0
1147,G#1,111.0,9/20,95,128.0
1148,B-2,111.0,0.5,88,128.0
1149,E2,111.0,0.5,88,128.0
1150,B1,111.5,9/20,95,128.0
1151,C2,111.5,0.5,83,128.0
1152,B1,112.0,9/20,95,128.0
1153,B2,112.0,249/125,88,128.0
1154,E-3,112.0,249/125,88,128.0
1155,C2,112.0,1.0,66,128.0
1156,B-2,112.0,1.0,66,128.0
1157,F#3,112.017,479/500,88,128.0
1158,C#4,112.025,9/20,88,128.0
1159,B3,112.5,0.5,88,128.0
1160,B1,112.5,9/20,95,128.0
1161,C#5,112.6,1.5,102,128.0
1162,F#3,113.0,0.5,88,128.0
1163,G#1,113.0,9/20,95,128.0
1164,B-2,113.0,0.5,90,128.0
1165,E2,113.0,0.5,90,128.0
1166,B3,113.5,2.0,88,128.0
1167,B1,113.5,9/20,95,128.0
1168,C2,113.5,0.5,86,128.0
1169,B1,114.0,9/10,95,128.0
1170,C2,114.0,1.0,67,128.0
1171,B-2,114.0,1.0,67,128.0
1172,F#4,114.1,1.5,95,128.0
1173,B-1,115.0,9/20,95,128.0
1174,B-2,115.0,0.5,90,128.0
1175,E2,115.0,0.5,90,128.0
1176,F#3,115.5,0.5,88,128.0
1177,G#1,115.5,9/20,95,128.0
1178,C2,115.5,0.5,85,128.0
1179,F#1,116.0,1.0,95,128.0
1180,F#2,116.0,933/1000,88,128.0
1181,B-2,116.0,933/1000,88,128.0
1182,C#3,116.0,933/1000,88,128.0
1183,F#3,116.0,933/1000,88,128.0
1184,C#4,116.0,933/1000,88,128.0
1185,C2,116.0,1.0,66,128.0
1186,B-2,116.0,1.0,66,128.0
1187,F#3,116.6,4.0,102,128.0
1188,C#4,116.6,4.0,102,128.0
1189,F#4,116.7,39/10,102,128.0
1190,F#3,117.0,0.5,88,128.0
1191,B-2,117.0,0.5,91,128.0
1192,E2,117.0,0.5,91,128.0
1193,F#1,117.5,9/20,95,128.0
1194,C2,117.5,0.5,89,128.0
1195,F#2,117.5,2.5,88,128.0
1196,B-2,117.5,2.5,88,128.0
1197,C#3,117.5,2.5,88,128.0
1198,F#3,117.5,2.5,88,128.0
1199,B-3,117.5,2.5,88,128.0
1200,F#1,118.0,9/10,95,128.0
1201,C2,118.0,1.0,68,128.0
1202,B-2,118.0,1.0,68,128.0
1203,E-1,119.0,9/20,95,128.0
1204,B-2,119.0,0.5,88,128.0
1205,E2,119.0,0.5,88,128.0
1206,F#1,119.5,9/20,95,128.0
1207,C2,119.5,0.5,82,128.0
1208,F#1,120.0,1.0,95,128.0
1209,F#2,120.0,3933/1000,88,128.0
1210,B-2,120.0,3933/1000,88,128.0
1211,C#3,120.0,3933/1000,88,128.0
1212,F#3,120.0,3933/1000,88,128.0
1213,B-3,120.0,3933/1000,88,128.0
1214,C2,120.0,1.0,66,128.0
1215,B-2,120.0,1.0,66,128.0
1216,F#4,120.6,0.5,89,128.0
1217,F#4,120.6,1/10,102,128.0
1218,B-2,121.0,0.5,90,128.0
1219,E2,121.0,0.5,90,128.0
1220,C#4,121.1,0.5,89,128.0
1221,F#1,121.5,9/20,95,128.0
1222,C2,121.5,0.5,86,128.0
1223,F#3,121.6,0.5,89,128.0
1224,F#1,122.0,9/20,95,128.0
1225,C2,122.0,1.0,70,128.0
1226,B-2,122.0,1.0,70,128.0
1227,F#4,122.1,1.0,89,128.0
1228,F#2,122.5,9/20,83,128.0
1229,G#1,123.0,9/20,95,128.0
1230,B-2,123.0,1.0,86,128.0
1231,E2,123.0,1.0,86,128.0
1232,C#4,123.1,0.5,89,128.0
1233,G#1,123.5,9/20,95,128.0
1234,F#4,123.6,1.0,89,128.0
1235,C#2,124.0,9/10,95,128.0
1236,C#3,124.0,967/1000,88,128.0
1237,G#3,124.0,967/1000,88,128.0
1238,C#4,124.0,967/1000,88,128.0
1239,C2,124.0,1.0,68,128.0
1240,B-2,124.0,1.0,68,128.0
1241,G#3,124.6,39/40,86,128.0
1242,C#3,124.6,39/40,86,128.0
1243,C#4,124.6,39/40,86,128.0
1244,F4,124.6,39/40,86,128.0
1245,G#1,125.0,9/20,95,128.0
1246,C#3,125.0,0.5,88,128.0
1247,G#3,125.0,0.5,88,128.0
1248,C#4,125.0,0.5,88,128.0
1249,B-2,125.0,0.5,92,128.0
1250,E2,125.0,0.5,92,128.0
1251,C#2,125.5,9/20,95,128.0
1252,C2,125.5,0.5,85,128.0
1253,C#3,125.5,0.5,88,128.0
1254,G#3,125.5,0.5,88,128.0
1255,C#4,125.5,0.5,88,128.0
1256,G#3,125.6,3.0,83,128.0
1257,C#3,125.6,3.0,83,128.0
1258,C#4,125.6,3.0,83,128.0
1259,F4,125.625,2.5,70,128.0
1260,C#2,126.0,1.0,95,128.0
1261,C#3,126.0,0.5,88,128.0
1262,G#3,126.0,0.5,88,128.0
1263,C#4,126.0,0.5,88,128.0
1264,C2,126.0,1.0,69,128.0
1265,B-2,126.0,1.0,69,128.0
1266,C#3,126.5,0.5,88,128.0
1267,G#3,126.5,0.5,88,128.0
1268,C#4,126.5,0.5,88,128.0
1269,C#3,127.0,0.5,88,128.0
1270,G#3,127.0,0.5,88,128.0
1271,C#4,127.0,0.5,88,128.0
1272,B-2,127.0,0.5,88,128.0
1273,E2,127.0,0.5,88,128.0
1274,C#2,127.5,9/20,95,128.0
1275,C2,127.5,0.5,83,128.0
1276,C#3,127.5,0.5,88,128.0
1277,G#3,127.5,0.5,88,128.0
1278,C#4,127.5,0.5,88,128.0
1279,F4,128.0,4.0,95,128.0
1280,C#2,128.0,9/20,95,128.0
1281,C#3,128.0,0.5,98,128.0
1282,G#3,128.0,0.5,98,128.0
1283,C#4,128.0,0.5,98,128.0
1284,F#4,128.0,0.5,98,128.0
1285,C2,128.0,0.5,68,128.0
1286,B-2,128.0,0.5,68,128.0
1287,G#3,128.1,0.5,89,128.0
1288,C#3,128.1,0.5,89,128.0
1289,C#4,128.1,0.5,89,128.0
1290,F4,128.125,19/40,76,128.0
1291,C#3,128.5,9/20,89,128.0
1292,E2,128.5,0.25,122,128.0
1293,C#3,128.5,9/20,95,128.0
1294,G#3,128.5,9/20,95,128.0
1295,C#4,128.5,9/20,95,128.0
1296,F4,128.5,9/20,95,128.0
1297,F4,128.6,1/40,76,128.0
1298,G#3,128.6,4.0,89,128.0
1299,C#3,128.6,4.0,89,128.0
1300,C#4,128.6,4.0,89,128.0
1301,G#3,128.6,483/1000,83,128.0
1302,C#3,128.6,483/1000,83,128.0
1303,C#4,128.6,483/1000,83,128.0
1304,G#3,128.6,1.0,89,128.0
1305,C#3,128.6,1.0,89,128.0
1306,C#4,128.6,1.0,89,128.0
1307,G#1,129.0,9/20,95,128.0
1308,B-2,129.0,0.25,54,128.0
1309,C#3,129.0,483/1000,98,128.0
1310,F#3,129.0,483/1000,98,128.0
1311,B-2,129.25,0.25,53,128.0
1312,C#2,129.5,9/20,95,128.0
1313,C2,129.5,0.5,88,128.0
1314,C#3,129.5,39/20,95,128.0
1315,G#3,129.5,39/20,95,128.0
1316,C#4,129.5,39/20,95,128.0
1317,F4,129.5,39/20,95,128.0
1318,F#2,130.0,9/10,91,128.0
1319,C#3,130.0,0.5,92,128.0
1320,E2,130.0,0.5,92,128.0
1321,C2,130.5,0.5,86,128.0
1322,F2,131.0,9/10,91,128.0
1323,C#3,131.0,1.0,90,128.0
1324,E2,131.0,1.0,90,128.0
1325,C#3,131.5,0.5,98,128.0
1326,G#3,131.5,0.5,98,128.0
1327,C#4,131.5,0.5,98,128.0
1328,E-4,131.5,0.5,98,128.0
1329,C#2,132.0,1.0,95,128.0
1330,C#3,132.0,29/20,82,128.0
1331,G#3,132.0,29/20,82,128.0
1332,C#4,132.0,29/20,82,128.0
1333,F4,132.0,29/20,82,128.0
1334,C2,132.0,1.0,68,128.0
1335,B-2,132.0,1.0,68,128.0
1336,C#3,132.6,0.5,85,128.0
1337,B-2,133.0,0.5,86,128.0
1338,E2,133.0,0.5,86,128.0
1339,C#4,133.1,0.5,85,128.0
1340,C#2,133.5,9/20,95,128.0
1341,C2,133.5,0.5,83,128.0
1342,C#3,133.5,39/20,82,128.0
1343,G#3,133.5,39/20,82,128.0
1344,C#4,133.5,39/20,82,128.0
1345,F4,133.5,39/20,82,128.0
1346,G#3,133.6,0.5,85,128.0
1347,C#2,134.0,27/20,95,128.0
1348,C2,134.0,1.0,67,128.0
1349,B-2,134.0,1.0,67,128.0
1350,E-4,134.1,1.0,85,128.0
1351,B-2,135.0,0.5,88,128.0
1352,E2,135.0,0.5,88,128.0
1353,C#4,135.1,0.5,85,128.0
1354,C#2,135.5,9/20,95,128.0
1355,C2,135.5,0.5,85,128.0
1356,C#3,135.5,0.5,82,128.0
1357,G#3,135.5,0.5,82,128.0
1358,C#4,135.5,0.5,82,128.0
1359,F4,135.5,0.5,82,128.0
1360,G#3,135.6,0.5,85,128.0
1361,C#2,136.0,1.0,95,128.0
1362,C#3,136.0,967/1000,88,128.0
1363,G#3,136.0,967/1000,88,128.0
1364,C#4,136.0,967/1000,88,128.0
1365,C2,136.0,1.0,68,128.0
1366,B-2,136.0,1.0,68,128.0
1367,F4,136.1,0.5,85,128.0
1368,C#4,136.6,0.5,85,128.0
1369,F4,137.0,0.5,88,128.0
1370,B-2,137.0,0.5,86,128.0
1371,E2,137.0,0.5,86,128.0
1372,G#3,137.1,0.5,85,128.0
1373,C#2,137.5,9/20,95,128.0
1374,C2,137.5,0.5,80,128.0
1375,G#3,137.5,967/1000,88,128.0
1376,C#4,137.5,967/1000,88,128.0
1377,F#4,137.5,967/1000,88,128.0
1378,C#3,137.6,0.5,85,128.0
1379,C#2,138.0,9/10,95,128.0
1380,C2,138.0,1.0,70,128.0
1381,B-2,138.0,1.0,70,128.0
1382,F4,138.1,0.5,85,128.0
1383,F4,138.5,0.5,88,128.0
1384,F#4,138.6,0.5,85,128.0
1385,G#1,139.0,9/20,95,128.0
1386,G#3,139.0,483/1000,88,128.0
1387,C#4,139.0,483/1000,88,128.0
1388,B-2,139.0,1.0,85,128.0
1389,E2,139.0,1.0,85,128.0
1390,F4,139.1,0.5,85,128.0
1391,B-1,139.5,9/20,95,128.0
1392,C#3,139.5,0.5,88,128.0
1393,G#3,139.5,0.5,88,128.0
1394,E-4,139.6,0.5,85,128.0
1395,B1,140.0,1.0,95,128.0
1396,B2,140.0,933/1000,83,128.0
1397,E-3,140.0,933/1000,83,128.0
1398,F#3,140.0,933/1000,83,128.0
1399,B3,140.0,933/1000,83,128.0
1400,E-4,140.0,933/1000,83,128.0
1401,C2,140.0,1.0,71,128.0
1402,B-2,140.0,1.0,71,128.0
1403,C#4,140.1,0.5,85,128.0
1404,B2,140.6,0.5,85,128.0
1405,C#4,141.0,0.5,88,128.0
1406,B-2,141.0,0.5,90,128.0
1407,E2,141.0,0.5,90,128.0
1408,F#3,141.1,0.5,85,128.0
1409,B1,141.5,9/20,95,128.0
1410,C2,141.5,0.5,84,128.0
1411,B2,141.5,2.5,83,128.0
1412,E-3,141.5,2.5,83,128.0
1413,F#3,141.5,2.5,83,128.0
1414,B3,141.5,2.5,83,128.0
1415,E-4,141.5,2.5,83,128.0
1416,E-3,141.6,0.5,85,128.0
1417,B1,142.0,9/10,95,128.0
1418,C2,142.0,1.0,72,128.0
1419,B-2,142.0,1.0,72,128.0
1420,C#4,142.1,1.0,85,128.0
1421,G#1,143.0,9/20,95,128.0
1422,B-2,143.0,0.5,86,128.0
1423,E2,143.0,0.5,86,128.0
1424,F#3,143.1,0.5,85,128.0
1425,B1,143.5,9/20,95,128.0
1426,C2,143.5,0.5,85,128.0
1427,E-3,143.6,0.5,85,128.0
1428,B1,144.0,9/20,95,128.0
1429,B2,144.0,249/125,88,128.0
1430,E-3,144.0,249/125,88,128.0
1431,C2,144.0,1.0,69,128.0
1432,B-2,144.0,1.0,69,128.0
1433,F#3,144.017,479/500,88,128.0
1434,C#4,144.025,9/20,88,128.0
1435,E-4,144.1,0.5,85,128.0
1436,B3,144.5,0.5,88,128.0
1437,E-1,144.5,9/20,95,128.0
1438,E-4,144.6,0.5,85,128.0
1439,F#3,145.0,0.5,88,128.0
1440,E-1,145.0,9/20,95,128.0
1441,B-2,145.0,0.5,88,128.0
1442,E2,145.0,0.5,88,128.0
1443,C#4,145.1,0.5,85,128.0
1444,B3,145.5,2.0,88,128.0
1445,E-1,145.5,9/20,95,128.0
1446,C2,145.5,0.5,80,128.0
1447,B2,145.6,0.5,85,128.0
1448,E1,146.0,9/20,95,128.0
1449,C2,146.0,0.5,72,128.0
1450,B-2,146.0,0.5,72,128.0
1451,C#4,146.1,1.0,85,128.0
1452,E1,146.5,9/20,95,128.0
1453,C2,146.5,0.5,82,128.0
1454,F1,147.0,9/20,95,128.0
1455,B-2,147.0,0.5,88,128.0
1456,E2,147.0,0.5,88,128.0
1457,F#3,147.1,0.5,85,128.0
1458,F#3,147.5,0.5,88,128.0
1459,F1,147.5,9/20,95,128.0
1460,C2,147.5,0.5,87,128.0
1461,B2,147.6,0.5,85,128.0
1462,F#1,148.0,9/10,95,128.0
1463,F#2,148.0,933/1000,88,128.0
1464,B-2,148.0,933/1000,88,128.0
1465,C#3,148.0,933/1000,88,128.0
1466,F#3,148.0,933/1000,88,128.0
1467,C#4,148.0,933/1000,88,128.0
1468,C2,148.0,1.0,68,128.0
1469,B-2,148.0,1.0,68,128.0
1470,F#3,148.1,0.5,85,128.0
1471,G#3,148.6,1.0,85,128.0
1472,F#3,149.0,0.5,88,128.0
1473,E-1,149.0,9/20,95,128.0
1474,B-2,149.0,0.5,86,128.0
1475,E2,149.0,0.5,86,128.0
1476,F#1,149.5,9/20,95,128.0
1477,C2,149.5,0.5,81,128.0
1478,F#2,149.5,2.5,88,128.0
1479,B-2,149.5,2.5,88,128.0
1480,C#3,149.5,2.5,88,128.0
1481,F#3,149.5,2.5,88,128.0
1482,B-3,149.5,2.5,88,128.0
1483,C#4,149.6,0.5,85,128.0
1484,F#1,150.0,9/10,95,128.0
1485,C2,150.0,1.0,65,128.0
1486,B-2,150.0,1.0,65,128.0
1487,G#3,150.1,1.0,85,128.0
1488,E-1,151.0,9/20,95,128.0
1489,B-2,151.0,0.5,89,128.0
1490,E2,151.0,0.5,89,128.0
1491,C#4,151.1,1.0,85,128.0
1492,F#1,151.5,9/20,95,128.0
1493,C2,151.5,0.5,89,128.0
1494,F#1,152.0,9/10,95,128.0
1495,F#2,152.0,77/20,88,128.0
1496,B-2,152.0,77/20,88,128.0
1497,C#3,152.0,77/20,88,128.0
1498,F#3,152.0,77/20,88,128.0
1499,B-3,152.0,77/20,88,128.0
1500,C2,152.0,1.0,70,128.0
1501,B-2,152.0,1.0,70,128.0
1502,F#3,152.1,0.5,85,128.0
1503,E-4,152.6,0.5,85,128.0
1504,E-1,153.0,9/20,95,128.0
1505,B-2,153.0,0.5,90,128.0
1506,E2,153.0,0.5,90,128.0
1507,C#4,153.1,0.5,85,128.0
1508,F#1,153.5,9/20,95,128.0
1509,C2,153.5,0.5,81,128.0
1510,F#3,153.6,0.5,85,128.0
1511,F#1,154.0,9/20,95,128.0
1512,C2,154.0,1.0,70,128.0
1513,B-2,154.0,1.0,70,128.0
1514,C#4,154.1,1.0,85,128.0
1515,E-1,154.5,9/20,95,128.0
1516,B1,155.0,9/20,95,128.0
1517,B-2,155.0,1.0,86,128.0
1518,E2,155.0,1.0,86,128.0
1519,E-4,155.1,0.5,85,128.0
1520,C2,155.5,9/20,95,128.0
1521,C#4,155.6,0.5,85,128.0
1522,C#2,156.0,1.0,95,128.0
1523,C#3,156.0,967/1000,98,128.0
1524,G#3,156.0,967/1000,98,128.0
1525,C#4,156.0,967/1000,98,128.0
1526,C2,156.0,1.0,66,128.0
1527,B-2,156.0,1.0,66,128.0
1528,F#3,156.1,0.5,85,128.0
1529,C#3,156.6,0.75,85,128.0
1530,C#3,157.0,0.5,98,128.0
1531,G#3,157.0,0.5,98,128.0
1532,C#4,157.0,0.5,98,128.0
1533,B-2,157.0,0.5,88,128.0
1534,E2,157.0,0.5,88,128.0
1535,C#4,157.1,0.75,85,128.0
1536,C#2,157.5,9/20,95,128.0
1537,C2,157.5,0.5,88,128.0
1538,C#3,157.5,0.5,98,128.0
1539,G#3,157.5,0.5,98,128.0
1540,C#4,157.5,0.5,98,128.0
1541,G#3,157.6,0.75,85,128.0
1542,C#2,158.0,9/10,95,128.0
1543,C#3,158.0,0.5,98,128.0
1544,G#3,158.0,0.5,98,128.0
1545,C#4,158.0,0.5,98,128.0
1546,C2,158.0,1.0,69,128.0
1547,B-2,158.0,1.0,69,128.0
1548,F#3,158.1,1.25,85,128.0
1549,C#3,158.5,0.5,98,128.0
1550,G#3,158.5,0.5,98,128.0
1551,C#4,158.5,0.5,98,128.0
1552,G#1,159.0,9/20,95,128.0
1553,C#3,159.0,0.5,98,128.0
1554,G#3,159.0,0.5,98,128.0
1555,C#4,159.0,0.5,98,128.0
1556,B-2,159.0,1.0,88,128.0
1557,E2,159.0,1.0,88,128.0
1558,C#4,159.1,0.75,85,128.0
1559,B2,159.5,9/40,83,128.0
1560,C#3,159.5,0.5,98,128.0
1561,G#3,159.5,0.5,98,128.0
1562,C#4,159.5,0.5,98,128.0
1563,F#3,159.6,0.5,85,128.0
1564,C3,159.75,9/40,83,128.0
1565,C#3,160.0,9/20,83,128.0
1566,C#3,160.0,19/40,89,128.0
1567,G#3,160.0,19/40,89,128.0
1568,C#4,160.0,19/40,89,128.0
1569,F#4,160.0,19/40,89,128.0
1570,C2,160.0,0.5,67,128.0
1571,B-2,160.0,0.5,67,128.0
1572,G#3,160.1,0.5,85,128.0
1573,C#4,160.1,0.5,85,128.0
1574,F#4,160.1,0.5,85,128.0
1575,C#3,160.5,9/40,83,128.0
1576,E2,160.5,0.25,127,128.0
1577,C#3,160.5,19/40,89,128.0
1578,G#3,160.5,19/40,89,128.0
1579,C#4,160.5,19/40,89,128.0
1580,F4,160.5,19/40,89,128.0
1581,G#3,160.6,19/40,85,128.0
1582,C#4,160.6,19/40,85,128.0
1583,F#4,160.6,19/40,85,128.0
1584,C#3,160.75,9/40,83,128.0
1585,B-2,160.75,0.25,39,128.0
1586,C#3,161.0,9/20,83,128.0
1587,B-2,161.0,0.25,54,128.0
1588,C#3,161.0,0.5,89,128.0
1589,G#3,161.0,0.5,89,128.0
1590,C#4,161.0,0.5,89,128.0
1591,E-4,161.0,0.5,89,128.0
1592,C#4,161.1,0.5,89,128.0
1593,B-2,161.25,0.25,50,128.0
1594,C#3,161.5,9/40,83,128.0
1595,C#3,161.5,2.5,89,128.0
1596,G#3,161.5,2.5,89,128.0
1597,C#4,161.5,2.5,89,128.0
1598,F4,161.5,2.5,89,128.0
1599,C2,161.5,0.5,70,128.0
1600,B-2,161.5,0.5,70,128.0
1601,G#3,161.6,1.0,89,128.0
1602,C#3,161.75,9/40,83,128.0
1603,C#3,162.0,9/20,83,128.0
1604,C#3,162.0,0.5,98,128.0
1605,E2,162.0,0.5,98,128.0
1606,E-1,162.5,9/20,95,128.0
1607,C2,162.5,0.5,84,128.0
1608,C#3,162.6,2.0,88,128.0
1609,G#3,162.6,2.0,88,128.0
1610,C#4,162.6,2.0,88,128.0
1611,F4,162.6,2.0,88,128.0
1612,E2,163.0,9/10,89,128.0
1613,C#3,163.0,1.0,98,128.0
1614,E2,163.0,1.0,98,128.0
1615,C4,164.0,0.5,102,128.0
1616,G#1,164.0,1.0,102,128.0
1617,G#2,164.0,1.0,102,128.0
1618,E-3,164.0,1.0,102,128.0
1619,G#3,164.0,1.0,102,128.0
1620,C2,164.0,1.0,74,128.0
1621,A3,164.0,1.0,74,128.0
1622,C4,164.042,0.5,102,128.0
1623,C5,164.5,0.5,102,128.0
1624,C5,164.542,0.5,102,128.0
1625,G#2,164.6,1.0,102,128.0
1626,E-3,164.6,1.0,102,128.0
1627,G#3,164.6,1.0,102,128.0
1628,G#4,165.0,0.5,102,128.0
1629,E2,165.0,0.5,125,128.0
1630,G#4,165.042,0.5,102,128.0
1631,E-4,165.5,0.5,102,128.0
1632,G#1,165.5,9/10,102,128.0
1633,G#2,165.5,1467/1000,102,128.0
1634,E-3,165.5,1467/1000,102,128.0
1635,G#3,165.5,1467/1000,102,128.0
1636,C2,165.5,1.0,72,128.0
1637,C#3,165.5,1.0,72,128.0
1638,E-4,165.542,0.5,102,128.0
1639,C#5,166.0,0.5,102,128.0
1640,C#5,166.042,0.5,102,128.0
1641,G#2,166.1,1467/1000,102,128.0
1642,E-3,166.1,1467/1000,102,128.0
1643,G#3,166.1,1467/1000,102,128.0
1644,G#4,166.5,0.5,102,128.0
1645,G#1,166.5,9/20,102,128.0
1646,F#2,166.5,0.5,69,128.0
1647,G#4,166.542,0.5,102,128.0
1648,C5,167.0,0.5,102,128.0
1649,G#1,167.0,9/20,102,128.0
1650,B-2,167.0,221/500,102,128.0
1651,F3,167.0,221/500,102,128.0
1652,B-3,167.0,221/500,102,128.0
1653,F#2,167.0,0.5,78,128.0
1654,E2,167.0,0.5,78,128.0
1655,C5,167.042,0.5,102,128.0
1656,G#4,167.5,0.5,102,128.0
1657,B-1,167.5,9/20,102,128.0
1658,F#2,167.5,0.5,64,128.0
1659,B-2,167.5,467/1000,102,128.0
1660,F3,167.5,467/1000,102,128.0
1661,B-3,167.5,467/1000,102,128.0
1662,G#4,167.542,229/500,102,128.0
1663,B-2,167.6,221/500,102,128.0
1664,F3,167.6,221/500,102,128.0
1665,B-3,167.6,221/500,102,128.0
1666,G#2,167.95,1.0,102,128.0
1667,E-3,167.95,1.0,102,128.0
1668,G#3,167.95,1.0,102,128.0
1669,B3,168.0,0.5,102,128.0
1670,G#4,168.0,21/500,102,128.0
1671,B1,168.0,1.0,102,128.0
1672,B2,168.0,1.0,102,128.0
1673,F#3,168.0,1.0,102,128.0
1674,B3,168.0,1.0,102,128.0
1675,C2,168.0,1.0,70,128.0
1676,A3,168.0,1.0,70,128.0
1677,B3,168.042,0.5,102,128.0
1678,B-2,168.1,467/1000,102,128.0
1679,F3,168.1,467/1000,102,128.0
1680,B-3,168.1,467/1000,102,128.0
1681,B4,168.5,0.5,102,128.0
1682,B4,168.542,0.5,102,128.0
1683,B2,168.6,1.0,102,128.0
1684,F#3,168.6,1.0,102,128.0
1685,B3,168.6,1.0,102,128.0
1686,F#4,169.0,0.5,102,128.0
1687,E2,169.0,0.5,127,128.0
1688,F#4,169.042,0.5,102,128.0
1689,G#2,169.45,1467/1000,102,128.0
1690,E-3,169.45,1467/1000,102,128.0
1691,G#3,169.45,1467/1000,102,128.0
1692,E4,169.5,0.5,102,128.0
1693,B1,169.5,27/20,102,128.0
1694,B2,169.5,2.5,102,128.0
1695,F#3,169.5,2.5,102,128.0
1696,B3,169.5,2.5,102,128.0
1697,C2,169.5,1.0,74,128.0
1698,C#3,169.5,1.0,74,128.0
1699,E4,169.542,0.5,102,128.0
1700,E-5,170.0,0.5,102,128.0
1701,E-5,170.042,0.5,102,128.0
1702,B2,170.1,2.5,102,128.0
1703,F#3,170.1,2.5,102,128.0
1704,B3,170.1,2.5,102,128.0
1705,F#4,170.5,0.5,102,128.0
1706,C2,170.5,0.5,79,128.0
1707,F#2,170.5,0.5,79,128.0
1708,F#4,170.542,0.5,102,128.0
1709,B-2,170.95,221/500,102,128.0
1710,F3,170.95,221/500,102,128.0
1711,B-3,170.95,221/500,102,128.0
1712,C#5,171.0,0.5,102,128.0
1713,B1,171.0,9/20,102,128.0
1714,C2,171.0,0.5,81,128.0
1715,F#2,171.0,0.5,81,128.0
1716,E2,171.0,0.5,81,128.0
1717,C#5,171.042,0.5,102,128.0
1718,B-2,171.45,467/1000,102,128.0
1719,F3,171.45,467/1000,102,128.0
1720,B-3,171.45,467/1000,102,128.0
1721,F#4,171.5,0.5,102,128.0
1722,G#1,171.5,9/20,102,128.0
1723,C2,171.5,0.5,81,128.0
1724,F#2,171.5,0.5,81,128.0
1725,F#4,171.542,229/500,102,128.0
1726,B2,171.95,1.0,102,128.0
1727,F#3,171.95,1.0,102,128.0
1728,B3,171.95,1.0,102,128.0
1729,C#4,172.0,0.5,102,128.0
1730,F#4,172.0,21/500,102,128.0
1731,C#2,172.0,1.0,102,128.0
1732,C#3,172.0,1467/1000,102,128.0
1733,G#3,172.0,1467/1000,102,128.0
1734,C#4,172.0,1467/1000,102,128.0
1735,C2,172.0,1.0,74,128.0
1736,C#3,172.0,1.0,74,128.0
1737,C#4,172.042,0.5,102,128.0
1738,C#5,172.5,0.5,102,128.0
1739,C#5,172.542,0.5,102,128.0
1740,C#3,172.6,1467/1000,102,128.0
1741,G#3,172.6,1467/1000,102,128.0
1742,C#4,172.6,1467/1000,102,128.0
1743,G#4,173.0,0.5,102,128.0
1744,F#2,173.0,0.5,94,128.0
1745,E2,173.0,0.5,94,128.0
1746,G#4,173.042,0.5,102,128.0
1747,B2,173.45,2.5,102,128.0
1748,F#3,173.45,2.5,102,128.0
1749,B3,173.45,2.5,102,128.0
1750,F#4,173.5,0.5,102,128.0
1751,C#2,173.5,9/20,102,128.0
1752,C#3,173.5,467/1000,102,128.0
1753,G#3,173.5,467/1000,102,128.0
1754,C#4,173.5,467/1000,102,128.0
1755,C2,173.5,0.5,78,128.0
1756,F#2,173.5,0.5,78,128.0
1757,F#4,173.542,0.5,102,128.0
1758,F#5,174.0,0.5,102,128.0
1759,C#2,174.0,1.0,102,128.0
1760,C#3,174.0,1467/1000,102,128.0
1761,G#3,174.0,1467/1000,102,128.0
1762,C#4,174.0,1467/1000,102,128.0
1763,C2,174.0,0.5,80,128.0
1764,F#2,174.0,0.5,80,128.0
1765,F#5,174.042,0.5,102,128.0
1766,C#3,174.1,467/1000,102,128.0
1767,G#3,174.1,467/1000,102,128.0
1768,C#4,174.1,467/1000,102,128.0
1769,G#4,174.5,0.5,102,128.0
1770,F#2,174.5,0.5,74,128.0
1771,G#4,174.542,0.5,102,128.0
1772,C#3,174.6,1467/1000,102,128.0
1773,G#3,174.6,1467/1000,102,128.0
1774,C#4,174.6,1467/1000,102,128.0
1775,F5,175.0,0.5,102,128.0
1776,F#2,175.0,0.5,94,128.0
1777,E2,175.0,0.5,94,128.0
1778,F5,175.042,0.5,102,128.0
1779,G#4,175.5,0.5,102,128.0
1780,C#2,175.5,9/20,102,128.0
1781,C#3,175.5,0.5,102,128.0
1782,G#3,175.5,0.5,102,128.0
1783,C#4,175.5,0.5,102,128.0
1784,C2,175.5,0.5,78,128.0
1785,F#2,175.5,0.5,78,128.0
1786,G#4,175.542,229/500,102,128.0
1787,C#3,175.95,1467/1000,102,128.0
1788,G#3,175.95,1467/1000,102,128.0
1789,C#4,175.95,1467/1000,102,128.0
1790,C#4,176.0,0.5,102,128.0
1791,G#4,176.0,21/500,102,128.0
1792,C#2,176.0,1.0,102,128.0
1793,C#3,176.0,19/40,89,128.0
1794,G#3,176.0,19/40,89,128.0
1795,C#4,176.0,19/40,89,128.0
1796,F#4,176.0,19/40,89,128.0
1797,C2,176.0,0.5,80,128.0
1798,F#2,176.0,0.5,80,128.0
1799,C#4,176.042,0.5,102,128.0
1800,C#3,176.1,0.5,102,128.0
1801,G#3,176.1,0.5,102,128.0
1802,C#4,176.1,0.5,102,128.0
1803,C#5,176.5,0.5,102,128.0
1804,F#2,176.5,0.5,68,128.0
1805,C#3,176.5,19/40,89,128.0
1806,G#3,176.5,19/40,89,128.0
1807,C#4,176.5,19/40,89,128.0
1808,F4,176.5,19/40,89,128.0
1809,C#5,176.542,0.5,102,128.0
1810,C#3,176.6,19/40,89,128.0
1811,G#3,176.6,19/40,89,128.0
1812,C#4,176.6,19/40,89,128.0
1813,F#4,176.6,19/40,89,128.0
1814,G#4,177.0,0.5,102,128.0
1815,C#3,177.0,0.5,89,128.0
1816,G#3,177.0,0.5,89,128.0
1817,C#4,177.0,0.5,89,128.0
1818,E-4,177.0,0.5,89,128.0
1819,F#2,177.0,0.5,100,128.0
1820,E2,177.0,0.5,100,128.0
1821,G#4,177.042,0.5,102,128.0
1822,C#3,177.1,19/40,89,128.0
1823,G#3,177.1,19/40,89,128.0
1824,C#4,177.1,19/40,89,128.0
1825,F4,177.1,19/40,89,128.0
1826,C#3,177.45,467/1000,102,128.0
1827,G#3,177.45,467/1000,102,128.0
1828,C#4,177.45,467/1000,102,128.0
1829,F#4,177.5,0.5,102,128.0
1830,C#2,177.5,9/20,102,128.0
1831,C#3,177.5,2.5,89,128.0
1832,G#3,177.5,2.5,89,128.0
1833,C#4,177.5,2.5,89,128.0
1834,F4,177.5,2.5,89,128.0
1835,C2,177.5,0.5,79,128.0
1836,F#2,177.5,0.5,79,128.0
1837,F#4,177.542,0.5,102,128.0
1838,C#3,177.6,0.5,89,128.0
1839,G#3,177.6,0.5,89,128.0
1840,C#4,177.6,0.5,89,128.0
1841,E-4,177.6,0.5,89,128.0
1842,C#3,177.95,1467/1000,102,128.0
1843,G#3,177.95,1467/1000,102,128.0
1844,C#4,177.95,1467/1000,102,128.0
1845,F#5,178.0,0.5,102,128.0
1846,G#2,178.0,9/20,89,128.0
1847,C2,178.0,0.5,73,128.0
1848,F#2,178.0,0.5,73,128.0
1849,F#5,178.042,0.5,102,128.0
1850,C#3,178.1,2.5,89,128.0
1851,G#3,178.1,2.5,89,128.0
1852,C#4,178.1,2.5,89,128.0
1853,F4,178.1,2.5,89,128.0
1854,G#4,178.5,0.5,102,128.0
1855,F#2,178.5,9/20,89,128.0
1856,F#2,178.5,0.5,71,128.0
1857,G#4,178.542,0.5,102,128.0
1858,F5,179.0,0.5,102,128.0
1859,F2,179.0,9/20,89,128.0
1860,F#2,179.0,0.5,97,128.0
1861,E2,179.0,0.5,97,128.0
1862,F5,179.042,0.5,102,128.0
1863,C#3,179.45,0.5,102,128.0
1864,G#3,179.45,0.5,102,128.0
1865,C#4,179.45,0.5,102,128.0
1866,G#4,179.5,0.5,102,128.0
1867,C#2,179.5,9/20,95,128.0
1868,F#2,179.5,0.5,72,128.0
1869,G#4,179.542,229/500,102,128.0
1870,C#3,179.95,19/40,89,128.0
1871,G#3,179.95,19/40,89,128.0
1872,C#4,179.95,19/40,89,128.0
1873,F#4,179.95,19/40,89,128.0
1874,C4,180.0,0.5,102,128.0
1875,G#4,180.0,21/500,102,128.0
1876,G#1,180.0,1.0,102,128.0
1877,G#2,180.0,1.0,102,128.0
1878,E-3,180.0,1.0,102,128.0
1879,G#3,180.0,1.0,102,128.0
1880,C2,180.0,1.0,74,128.0
1881,A3,180.0,1.0,74,128.0
1882,C4,180.042,0.5,102,128.0
1883,C#3,180.45,19/40,89,128.0
1884,G#3,180.45,19/40,89,128.0
1885,C#4,180.45,19/40,89,128.0
1886,F4,180.45,19/40,89,128.0
1887,C5,180.5,0.5,102,128.0
1888,C5,180.542,0.5,102,128.0
1889,G#2,180.6,1.0,102,128.0
1890,E-3,180.6,1.0,102,128.0
1891,G#3,180.6,1.0,102,128.0
1892,C#3,180.95,0.5,89,128.0
1893,G#3,180.95,0.5,89,128.0
1894,C#4,180.95,0.5,89,128.0
1895,E-4,180.95,0.5,89,128.0
1896,G#4,181.0,0.5,102,128.0
1897,E2,181.0,0.5,124,128.0
1898,G#4,181.042,0.5,102,128.0
1899,C#3,181.45,2.5,89,128.0
1900,G#3,181.45,2.5,89,128.0
1901,C#4,181.45,2.5,89,128.0
1902,F4,181.45,2.5,89,128.0
1903,E-4,181.5,0.5,102,128.0
1904,G#1,181.5,27/20,102,128.0
1905,G#2,181.5,1467/1000,102,128.0
1906,E-3,181.5,1467/1000,102,128.0
1907,G#3,181.5,1467/1000,102,128.0
1908,C2,181.5,1.0,75,128.0
1909,C#3,181.5,1.0,75,128.0
1910,E-4,181.542,0.5,102,128.0
1911,C#5,182.0,0.5,102,128.0
1912,C#5,182.042,0.5,102,128.0
1913,G#2,182.1,1467/1000,102,128.0
1914,E-3,182.1,1467/1000,102,128.0
1915,G#3,182.1,1467/1000,102,128.0
1916,G#4,182.5,0.5,102,128.0
1917,C2,182.5,0.5,82,128.0
1918,F#2,182.5,0.5,82,128.0
1919,G#4,182.542,0.5,102,128.0
1920,C5,183.0,0.5,102,128.0
1921,G#1,183.0,9/20,102,128.0
1922,B-2,183.0,221/500,102,128.0
1923,F3,183.0,221/500,102,128.0
1924,B-3,183.0,221/500,102,128.0
1925,F#2,183.0,0.5,86,128.0
1926,E2,183.0,0.5,86,128.0
1927,C5,183.042,0.5,102,128.0
1928,G#4,183.5,0.5,102,128.0
1929,B-1,183.5,9/20,102,128.0
1930,F#2,183.5,0.5,71,128.0
1931,B-2,183.5,467/1000,102,128.0
1932,F3,183.5,467/1000,102,128.0
1933,B-3,183.5,467/1000,102,128.0
1934,G#4,183.542,229/500,102,128.0
1935,B-2,183.6,221/500,102,128.0
1936,F3,183.6,221/500,102,128.0
1937,B-3,183.6,221/500,102,128.0
1938,G#2,183.95,1.0,102,128.0
1939,E-3,183.95,1.0,102,128.0
1940,G#3,183.95,1.0,102,128.0
1941,B3,184.0,0.5,102,128.0
1942,G#4,184.0,21/500,102,128.0
1943,B1,184.0,1.0,102,128.0
1944,B2,184.0,1.0,102,128.0
1945,F#3,184.0,1.0,102,128.0
1946,B3,184.0,1.0,102,128.0
1947,C2,184.0,1.0,70,128.0
1948,A3,184.0,1.0,70,128.0
1949,B3,184.042,0.5,102,128.0
1950,B-2,184.1,467/1000,102,128.0
1951,F3,184.1,467/1000,102,128.0
1952,B-3,184.1,467/1000,102,128.0
1953,B4,184.5,0.5,102,128.0
1954,B4,184.542,0.5,102,128.0
1955,B2,184.6,1.0,102,128.0
1956,F#3,184.6,1.0,102,128.0
1957,B3,184.6,1.0,102,128.0
1958,F#4,185.0,0.5,102,128.0
1959,E2,185.0,0.5,125,128.0
1960,F#4,185.042,0.5,102,128.0
1961,G#2,185.45,1467/1000,102,128.0
1962,E-3,185.45,1467/1000,102,128.0
1963,G#3,185.45,1467/1000,102,128.0
1964,E4,185.5,0.5,102,128.0
1965,B1,185.5,27/20,102,128.0
1966,B2,185.5,2.5,102,128.0
1967,F#3,185.5,2.5,102,128.0
1968,B3,185.5,2.5,102,128.0
1969,C2,185.5,1.0,76,128.0
1970,C#3,185.5,1.0,76,128.0
1971,E4,185.542,0.5,102,128.0
1972,E-5,186.0,0.5,102,128.0
1973,E-5,186.042,0.5,102,128.0
1974,B2,186.1,2.5,102,128.0
1975,F#3,186.1,2.5,102,128.0
1976,B3,186.1,2.5,102,128.0
1977,F#4,186.5,0.5,102,128.0
1978,C2,186.5,0.5,76,128.0
1979,F#2,186.5,0.5,76,128.0
1980,F#4,186.542,0.5,102,128.0
1981,B-2,186.95,221/500,102,128.0
1982,F3,186.95,221/500,102,128.0
1983,B-3,186.95,221/500,102,128.0
1984,C#5,187.0,0.5,102,128.0
1985,B1,187.0,9/20,102,128.0
1986,C2,187.0,0.5,86,128.0
1987,F#2,187.0,0.5,86,128.0
1988,E2,187.0,0.5,86,128.0
1989,C#5,187.042,0.5,102,128.0
1990,B-2,187.45,467/1000,102,128.0
1991,F3,187.45,467/1000,102,128.0
1992,B-3,187.45,467/1000,102,128.0
1993,F#4,187.5,0.5,102,128.0
1994,B1,187.5,9/40,102,128.0
1995,C2,187.5,0.5,73,128.0
1996,F#2,187.5,0.5,73,128.0
1997,F#4,187.542,229/500,102,128.0
1998,C2,187.75,9/40,102,128.0
1999,B2,187.95,1.0,102,128.0
2000,F#3,187.95,1.0,102,128.0
2001,B3,187.95,1.0,102,128.0
2002,G#4,188.0,0.5,102,128.0
2003,F#4,188.0,21/500,102,128.0
2004,C#2,188.0,1.0,102,128.0
2005,C#3,188.0,4.0,102,128.0
2006,G#3,188.0,4.0,102,128.0
2007,C#4,188.0,4.0,102,128.0
2008,C2,188.0,0.5,80,128.0
2009,F#2,188.0,0.5,80,128.0
2010,G#4,188.042,0.5,102,128.0
2011,C#5,188.5,3.5,102,128.0
2012,F#2,188.5,0.5,69,128.0
2013,C#5,188.542,1729/500,102,128.0
2014,C#3,188.6,4.0,102,128.0
2015,G#3,188.6,4.0,102,128.0
2016,C#4,188.6,4.0,102,128.0
2017,F#2,189.0,0.5,96,128.0
2018,E2,189.0,0.5,96,128.0
2019,B2,189.45,2.5,102,128.0
2020,F#3,189.45,2.5,102,128.0
2021,B3,189.45,2.5,102,128.0
2022,C#2,189.5,9/20,102,128.0
2023,C2,189.5,0.5,81,128.0
2024,F#2,189.5,0.5,81,128.0
2025,C#2,190.0,27/20,102,128.0
2026,C2,190.0,0.5,80,128.0
2027,F#2,190.0,0.5,80,128.0
2028,F#2,190.5,0.5,72,128.0
2029,F#2,191.0,0.5,98,128.0
2030,E2,191.0,0.5,98,128.0
2031,B2,191.5,9/40,83,128.0
2032,C2,191.5,0.5,78,128.0
2033,F#2,191.5,0.5,78,128.0
2034,C3,191.75,9/40,83,128.0
2035,C#3,191.95,4.0,102,128.0
2036,G#3,191.95,4.0,102,128.0
2037,C#4,191.95,4.0,102,128.0
2038,C#5,192.0,123/250,102,128.0
2039,C#5,192.0,533/1000,102,128.0
2040,C#3,192.0,9/20,83,128.0
2041,C#3,192.0,1.5,81,128.0
2042,G#3,192.0,1.5,81,128.0
2043,C#4,192.0,1.5,81,128.0
2044,C2,192.0,0.5,76,128.0
2045,F#2,192.0,0.5,76,128.0
2046,C#3,192.5,9/20,83,128.0
2047,F#2,192.5,0.5,73,128.0
2048,C#3,192.6,1.5,81,128.0
2049,G#3,192.6,1.5,81,128.0
2050,C#4,192.6,1.5,81,128.0
2051,C#3,193.0,9/20,83,128.0
2052,F#2,193.0,0.5,97,128.0
2053,E2,193.0,0.5,97,128.0
2054,C#3,193.5,9/20,83,128.0
2055,C#3,193.5,0.5,81,128.0
2056,G#3,193.5,0.5,81,128.0
2057,C#4,193.5,0.5,81,128.0
2058,C2,193.5,0.5,72,128.0
2059,F#2,193.5,0.5,72,128.0
2060,C#3,194.0,9/20,83,128.0
2061,C#3,194.0,1.0,81,128.0
2062,G#3,194.0,1.0,81,128.0
2063,C#4,194.0,1.0,81,128.0
2064,C2,194.0,0.5,76,128.0
2065,F#2,194.0,0.5,76,128.0
2066,C#3,194.1,0.5,81,128.0
2067,G#3,194.1,0.5,81,128.0
2068,C#4,194.1,0.5,81,128.0
2069,E-1,194.5,9/20,102,128.0
2070,C#3,194.5,0.5,94,128.0
2071,E2,194.5,0.5,94,128.0
2072,C#3,194.6,1.0,81,128.0
2073,G#3,194.6,1.0,81,128.0
2074,C#4,194.6,1.0,81,128.0
2075,E-2,195.0,9/10,102,128.0
2076,C#3,195.0,1.0,81,128.0
2077,G#3,195.0,1.0,81,128.0
2078,C#4,195.0,1.0,81,128.0
2079,C#3,195.0,1.0,99,128.0
2080,E2,195.0,1.0,99,128.0
2081,G#4,195.5,0.5,102,128.0
2082,G#4,195.542,229/500,102,128.0
2083,C#3,195.6,1.0,81,128.0
2084,G#3,195.6,1.0,81,128.0
2085,C#4,195.6,1.0,81,128.0
2086,C#3,195.95,1.5,81,128.0
2087,G#3,195.95,1.5,81,128.0
2088,C#4,195.95,1.5,81,128.0
2089,G#4,196.0,373/250,102,128.0
2090,G#4,196.0,1533/1000,102,128.0
2091,C#2,196.0,1.0,95,128.0
2092,C#3,196.0,29/20,92,128.0
2093,G#3,196.0,29/20,92,128.0
2094,C#4,196.0,29/20,92,128.0
2095,F4,196.0,29/20,92,128.0
2096,C2,196.0,1.0,72,128.0
2097,C#3,196.0,1.0,72,128.0
2098,F3,197.0,1.0,96,128.0
2099,E2,197.0,1.0,96,128.0
2100,C#3,197.45,0.5,81,128.0
2101,G#3,197.45,0.5,81,128.0
2102,C#4,197.45,0.5,81,128.0
2103,F4,197.5,2.0,102,128.0
2104,C#2,197.5,9/20,95,128.0
2105,C#3,197.5,39/20,92,128.0
2106,G#3,197.5,39/20,92,128.0
2107,C#4,197.5,39/20,92,128.0
2108,F4,197.5,39/20,92,128.0
2109,F4,197.542,2.0,102,128.0
2110,C#3,197.95,1.0,81,128.0
2111,G#3,197.95,1.0,81,128.0
2112,C#4,197.95,1.0,81,128.0
2113,C#2,198.0,27/20,95,128.0
2114,C2,198.0,1.0,80,128.0
2115,F3,198.0,1.0,80,128.0
2116,C#3,198.95,1.0,81,128.0
2117,G#3,198.95,1.0,81,128.0
2118,C#4,198.95,1.0,81,128.0
2119,F3,199.0,0.5,93,128.0
2120,E2,199.0,0.5,93,128.0
2121,G#4,199.5,0.5,102,128.0
2122,C#2,199.5,9/20,95,128.0
2123,C2,199.5,0.5,86,128.0
2124,C#3,199.5,0.5,92,128.0
2125,G#3,199.5,0.5,92,128.0
2126,C#4,199.5,0.5,92,128.0
2127,F4,199.5,0.5,92,128.0
2128,G#4,199.542,229/500,102,128.0
2129,C#3,199.95,29/20,95,128.0
2130,G#3,199.95,29/20,95,128.0
2131,C#4,199.95,29/20,95,128.0
2132,F4,199.95,29/20,95,128.0
2133,F#4,200.0,1.5,102,128.0
2134,G#4,200.0,21/500,102,128.0
2135,C#2,200.0,1.0,95,128.0
2136,C#3,200.0,967/1000,98,128.0
2137,G#3,200.0,967/1000,98,128.0
2138,C#4,200.0,967/1000,98,128.0
2139,C2,200.0,1.0,78,128.0
2140,F3,200.0,1.0,78,128.0
2141,F#4,200.042,1.5,102,128.0
2142,F4,201.0,0.5,89,128.0
2143,F3,201.0,1.0,98,128.0
2144,E2,201.0,1.0,98,128.0
2145,C#3,201.45,0.5,83,128.0
2146,G#3,201.45,0.5,83,128.0
2147,C#4,201.45,0.5,83,128.0
2148,F4,201.45,0.5,83,128.0
2149,F4,201.5,2.0,102,128.0
2150,C#2,201.5,9/20,95,128.0
2151,G#3,201.5,967/1000,82,128.0
2152,C#4,201.5,967/1000,82,128.0
2153,F#4,201.5,967/1000,82,128.0
2154,F4,201.542,2.0,102,128.0
2155,C#3,201.95,1.5,95,128.0
2156,G#3,201.95,1.5,95,128.0
2157,C#4,201.95,1.5,95,128.0
2158,F4,201.95,1.5,95,128.0
2159,C#2,202.0,9/20,95,128.0
2160,C2,202.0,1.0,80,128.0
2161,F3,202.0,1.0,80,128.0
2162,F4,202.5,0.5,89,128.0
2163,C#3,202.5,9/20,83,128.0
2164,C#2,203.0,9/20,95,128.0
2165,G#3,203.0,483/1000,98,128.0
2166,C#4,203.0,483/1000,98,128.0
2167,F3,203.0,0.5,96,128.0
2168,E2,203.0,0.5,96,128.0
2169,C#3,203.45,0.5,95,128.0
2170,G#3,203.45,0.5,95,128.0
2171,C#4,203.45,0.5,95,128.0
2172,F4,203.45,0.5,95,128.0
2173,G#4,203.5,0.5,102,128.0
2174,G#1,203.5,9/20,95,128.0
2175,C2,203.5,0.5,82,128.0
2176,C#3,203.5,0.5,98,128.0
2177,G#3,203.5,0.5,98,128.0
2178,G#4,203.542,229/500,102,128.0
2179,C#3,203.95,29/20,95,128.0
2180,G#3,203.95,29/20,95,128.0
2181,C#4,203.95,29/20,95,128.0
2182,F4,203.95,29/20,95,128.0
2183,G#4,204.0,373/250,102,128.0
2184,G#4,204.0,1533/1000,102,128.0
2185,B1,204.0,1.0,95,128.0
2186,B2,204.0,933/1000,98,128.0
2187,E-3,204.0,933/1000,98,128.0
2188,F#3,204.0,933/1000,98,128.0
2189,B3,204.0,933/1000,98,128.0
2190,E-4,204.0,933/1000,98,128.0
2191,C2,204.0,1.0,80,128.0
2192,F3,204.0,1.0,80,128.0
2193,C#4,205.0,0.5,98,128.0
2194,F3,205.0,1.0,96,128.0
2195,E2,205.0,1.0,96,128.0
2196,F4,205.45,0.5,70,128.0
2197,E-4,205.5,2.0,95,128.0
2198,B1,205.5,9/20,95,128.0
2199,B2,205.5,2.5,98,128.0
2200,E-3,205.5,2.5,98,128.0
2201,F#3,205.5,2.5,98,128.0
2202,B3,205.5,2.5,98,128.0
2203,E-4,205.5,2.5,98,128.0
2204,E-4,205.542,2.0,95,128.0
2205,F#4,205.95,0.5,70,128.0
2206,B1,206.0,1.0,95,128.0
2207,C2,206.0,1.0,76,128.0
2208,F3,206.0,1.0,76,128.0
2209,F4,206.45,0.5,70,128.0
2210,E-4,206.95,1.0,70,128.0
2211,F3,207.0,0.5,98,128.0
2212,E2,207.0,0.5,98,128.0
2213,G#4,207.5,0.5,102,128.0
2214,B1,207.5,9/20,95,128.0
2215,C2,207.5,0.5,81,128.0
2216,G#4,207.542,229/500,102,128.0
2217,B2,207.95,29/20,95,128.0
2218,E-3,207.95,29/20,95,128.0
2219,F#3,207.95,29/20,95,128.0
2220,B3,207.95,29/20,95,128.0
2221,G#4,208.0,373/250,102,128.0
2222,G#4,208.0,1533/1000,102,128.0
2223,B1,208.0,9/20,95,128.0
2224,B2,208.0,249/125,98,128.0
2225,E-3,208.0,249/125,98,128.0
2226,C2,208.0,1.0,80,128.0
2227,F3,208.0,1.0,80,128.0
2228,F#3,208.017,479/500,98,128.0
2229,E-4,208.017,1433/1000,95,128.0
2230,C#4,208.025,9/20,98,128.0
2231,B3,208.5,0.5,98,128.0
2232,B2,208.5,0.75,83,128.0
2233,F#3,209.0,0.5,98,128.0
2234,F3,209.0,0.5,96,128.0
2235,E2,209.0,0.5,96,128.0
2236,B2,209.45,9/20,95,128.0
2237,E-3,209.45,9/20,95,128.0
2238,F#3,209.45,9/20,95,128.0
2239,B3,209.45,9/20,95,128.0
2240,E-4,209.5,2.0,95,128.0
2241,B3,209.5,2.0,98,128.0
2242,G#1,209.5,9/20,95,128.0
2243,C2,209.5,0.5,87,128.0
2244,E-4,209.517,433/1000,95,128.0
2245,E-4,209.542,2.0,95,128.0
2246,B2,209.95,1.5,95,128.0
2247,E-3,209.95,1.5,95,128.0
2248,F#3,209.95,1.5,95,128.0
2249,B3,209.95,1.5,95,128.0
2250,B1,210.0,9/20,95,128.0
2251,C2,210.0,1.0,76,128.0
2252,F3,210.0,1.0,76,128.0
2253,E-4,210.017,1.5,95,128.0
2254,B2,210.5,0.75,83,128.0
2255,F3,211.0,1.0,96,128.0
2256,E2,211.0,1.0,96,128.0
2257,B2,211.45,0.5,95,128.0
2258,E-3,211.45,0.5,95,128.0
2259,F#3,211.45,0.5,95,128.0
2260,B3,211.45,0.5,95,128.0
2261,G#4,211.5,0.5,102,128.0
2262,F#3,211.5,0.5,98,128.0
2263,G#1,211.5,9/20,95,128.0
2264,E-4,211.517,433/1000,95,128.0
2265,G#4,211.542,229/500,102,128.0
2266,E-4,211.95,67/1000,95,128.0
2267,B2,211.95,29/20,95,128.0
2268,E-3,211.95,29/20,95,128.0
2269,F#3,211.95,29/20,95,128.0
2270,B3,211.95,29/20,95,128.0
2271,G#4,212.0,2.375,102,128.0
2272,G#4,212.0,2417/1000,102,128.0
2273,F#1,212.0,9/10,95,128.0
2274,F#2,212.0,933/1000,98,128.0
2275,B-2,212.0,933/1000,98,128.0
2276,C#3,212.0,933/1000,98,128.0
2277,F#3,212.0,933/1000,98,128.0
2278,C#4,212.0,933/1000,98,128.0
2279,C2,212.0,1.0,80,128.0
2280,F3,212.0,1.0,80,128.0
2281,E-4,212.017,1433/1000,95,128.0
2282,F#3,213.0,0.5,98,128.0
2283,E-1,213.0,9/20,95,128.0
2284,F3,213.0,0.5,98,128.0
2285,E2,213.0,0.5,98,128.0
2286,E-4,213.45,0.5,95,128.0
2287,F#1,213.5,9/20,95,128.0
2288,C2,213.5,0.5,88,128.0
2289,F#2,213.5,2.5,98,128.0
2290,B-2,213.5,2.5,98,128.0
2291,C#3,213.5,2.5,98,128.0
2292,F#3,213.5,2.5,98,128.0
2293,B-3,213.5,2.5,98,128.0
2294,F#4,213.95,0.5,95,128.0
2295,F#1,214.0,9/10,95,128.0
2296,C2,214.0,1.0,81,128.0
2297,F3,214.0,1.0,81,128.0
2298,F4,214.45,0.5,95,128.0
2299,G#4,214.5,1.0,102,128.0
2300,G#4,214.542,1.0,102,128.0
2301,E-4,214.95,1.0,95,128.0
2302,E-1,215.0,9/20,95,128.0
2303,F3,215.0,1.0,101,128.0
2304,E2,215.0,1.0,101,128.0
2305,F#4,215.5,0.375,102,128.0
2306,F#1,215.5,9/20,95,128.0
2307,F#4,215.542,0.375,102,128.0
2308,F#2,215.95,29/20,95,128.0
2309,B-2,215.95,29/20,95,128.0
2310,C#3,215.95,29/20,95,128.0
2311,F#3,215.95,29/20,95,128.0
2312,G#4,216.0,0.875,108,128.0
2313,F#1,216.0,9/20,95,128.0
2314,F#2,216.0,3933/1000,98,128.0
2315,B-2,216.0,3933/1000,98,128.0
2316,C#3,216.0,3933/1000,98,128.0
2317,F#3,216.0,3933/1000,98,128.0
2318,B-3,216.0,3933/1000,98,128.0
2319,C2,216.0,1.0,74,128.0
2320,F3,216.0,1.0,74,128.0
2321,C#4,216.017,1.5,95,128.0
2322,G#4,216.042,0.875,108,128.0
2323,E-1,216.5,9/20,95,128.0
2324,C#5,217.0,0.375,102,128.0
2325,F1,217.0,9/20,95,128.0
2326,F3,217.0,0.5,100,128.0
2327,E2,217.0,0.5,100,128.0
2328,C#5,217.042,0.375,102,128.0
2329,F#2,217.45,9/20,95,128.0
2330,B-2,217.45,9/20,95,128.0
2331,C#3,217.45,9/20,95,128.0
2332,F#3,217.45,9/20,95,128.0
2333,C#5,217.5,2167/1000,102,128.0
2334,G#1,217.5,9/20,95,128.0
2335,C2,217.5,0.5,81,128.0
2336,C#4,217.517,0.5,95,128.0
2337,C#5,217.542,2167/1000,102,128.0
2338,F#2,217.95,29/20,95,128.0
2339,B-2,217.95,29/20,95,128.0
2340,C#3,217.95,29/20,95,128.0
2341,F#3,217.95,29/20,95,128.0
2342,B1,218.0,9/20,95,128.0
2343,C2,218.0,1.0,82,128.0
2344,F3,218.0,1.0,82,128.0
2345,C#4,218.017,1.5,95,128.0
2346,G#1,218.5,9/20,95,128.0
2347,C2,219.0,9/20,95,128.0
2348,F3,219.0,0.5,98,128.0
2349,E2,219.0,0.5,98,128.0
2350,F#2,219.45,0.5,95,128.0
2351,B-2,219.45,0.5,95,128.0
2352,C#3,219.45,0.5,95,128.0
2353,F#3,219.45,0.5,95,128.0
2354,G#2,219.5,9/20,76,128.0
2355,C2,219.5,0.5,80,128.0
2356,C#4,219.517,433/1000,95,128.0
2357,E-4,219.667,333/1000,102,128.0
2358,E-4,219.708,73/250,102,128.0
2359,C#4,219.95,67/1000,95,128.0
2360,F#2,219.95,1.5,95,128.0
2361,B-2,219.95,1.5,95,128.0
2362,C#3,219.95,1.5,95,128.0
2363,F#3,219.95,1.5,95,128.0
2364,E-4,220.0,4.0,102,128.0
2365,E-4,220.0,4.0,102,128.0
2366,C#2,220.0,9/10,95,128.0
2367,C#3,220.0,967/1000,98,128.0
2368,G#3,220.0,967/1000,98,128.0
2369,C#4,220.0,967/1000,98,128.0
2370,C2,220.0,1.0,78,128.0
2371,F3,220.0,1.0,78,128.0
2372,C#4,220.017,1.5,95,128.0
2373,G#1,221.0,9/20,95,128.0
2374,C#3,221.0,0.5,98,128.0
2375,G#3,221.0,0.5,98,128.0
2376,C#4,221.0,0.5,98,128.0
2377,F3,221.0,0.5,94,128.0
2378,E2,221.0,0.5,94,128.0
2379,C#4,221.45,0.5,83,128.0
2380,C#2,221.5,9/20,95,128.0
2381,C2,221.5,0.5,80,128.0
2382,C#3,221.5,0.5,98,128.0
2383,G#3,221.5,0.5,98,128.0
2384,C#4,221.5,0.5,98,128.0
2385,F#4,221.95,0.5,83,128.0
2386,C#2,222.0,1.0,95,128.0
2387,C#3,222.0,0.5,98,128.0
2388,G#3,222.0,0.5,98,128.0
2389,C#4,222.0,0.5,98,128.0
2390,C2,222.0,1.0,78,128.0
2391,F3,222.0,1.0,78,128.0
2392,F4,222.45,0.5,83,128.0
2393,C#3,222.5,0.5,98,128.0
2394,G#3,222.5,0.5,98,128.0
2395,C#4,222.5,0.5,98,128.0
2396,E-4,222.95,1.0,83,128.0
2397,C#3,223.0,0.5,98,128.0
2398,G#3,223.0,0.5,98,128.0
2399,C#4,223.0,0.5,98,128.0
2400,F3,223.0,1.0,98,128.0
2401,E2,223.0,1.0,98,128.0
2402,C#2,223.5,9/20,95,128.0
2403,C#3,223.5,0.5,98,128.0
2404,G#3,223.5,0.5,98,128.0
2405,C#4,223.5,0.5,98,128.0
2406,C#3,223.95,1.5,92,128.0
2407,G#3,223.95,1.5,92,128.0
2408,C#4,223.95,1.5,92,128.0
2409,F4,223.95,1.5,92,128.0
2410,E-4,224.0,667/1000,102,128.0
2411,E-4,224.0,177/250,102,128.0
2412,C#2,224.0,9/20,95,128.0
2413,C#3,224.0,0.5,98,128.0
2414,G#3,224.0,0.5,98,128.0
2415,C#4,224.0,0.5,98,128.0
2416,F#4,224.0,0.5,98,128.0
2417,C2,224.0,0.5,79,128.0
2418,F3,224.0,0.5,79,128.0
2419,C#3,224.5,0.75,83,128.0
2420,C#3,224.5,9/20,95,128.0
2421,G#3,224.5,9/20,95,128.0
2422,C#4,224.5,9/20,95,128.0
2423,F4,224.5,9/20,95,128.0
2424,C#3,224.5,1.0,97,128.0
2425,E2,224.5,1.0,97,128.0
2426,C#3,225.0,483/1000,98,128.0
2427,F#3,225.0,483/1000,98,128.0
2428,C#3,225.45,0.5,95,128.0
2429,G#3,225.467,1.5,91,128.0
2430,C#4,225.467,1.5,91,128.0
2431,F4,225.467,1.5,91,128.0
2432,C#2,225.5,9/20,95,128.0
2433,C2,225.5,0.5,85,128.0
2434,C#3,225.5,39/20,95,128.0
2435,G#3,225.5,39/20,95,128.0
2436,C#4,225.5,39/20,95,128.0
2437,F4,225.5,39/20,95,128.0
2438,C#3,225.95,1.5,92,128.0
2439,G#3,225.95,1.5,92,128.0
2440,C#4,225.95,1.5,92,128.0
2441,F4,225.95,1.5,92,128.0
2442,F#2,226.0,9/10,89,128.0
2443,C#3,226.0,0.5,96,128.0
2444,E2,226.0,0.5,96,128.0
2445,C2,226.5,0.5,88,128.0
2446,F2,227.0,9/10,89,128.0
2447,C#3,227.0,1.0,92,128.0
2448,E2,227.0,1.0,92,128.0
2449,C#3,227.45,0.5,95,128.0
2450,G#3,227.467,483/1000,91,128.0
2451,C#4,227.467,483/1000,91,128.0
2452,F4,227.467,483/1000,91,128.0
2453,C#3,227.5,0.5,98,128.0
2454,G#3,227.5,0.5,98,128.0
2455,C#4,227.5,0.5,98,128.0
2456,E-4,227.5,0.5,98,128.0
2457,C#3,227.95,1.5,92,128.0
2458,G#3,227.95,1.5,92,128.0
2459,C#4,227.95,1.5,92,128.0
2460,F4,227.95,1.5,92,128.0
2461,G#3,227.95,1017/1000,91,128.0
2462,C#4,227.95,1017/1000,91,128.0
2463,F4,227.95,1017/1000,91,128.0
2464,C#2,228.0,1.0,95,128.0
2465,C#3,228.0,29/20,82,128.0
2466,G#3,228.0,29/20,82,128.0
2467,C#4,228.0,29/20,82,128.0
2468,F4,228.0,29/20,82,128.0
2469,C2,228.0,1.0,66,128.0
2470,B-2,228.0,1.0,66,128.0
2471,C#4,228.6,4.0,89,128.0
2472,F4,228.6,4.0,89,128.0
2473,G#4,228.6,4.0,89,128.0
2474,C#5,228.675,157/40,89,128.0
2475,B-2,229.0,0.5,90,128.0
2476,E2,229.0,0.5,90,128.0
2477,C#3,229.45,0.5,95,128.0
2478,G#3,229.467,1.5,91,128.0
2479,C#4,229.467,1.5,91,128.0
2480,F4,229.467,1.5,91,128.0
2481,C#2,229.5,9/20,95,128.0
2482,C2,229.5,0.5,82,128.0
2483,C#3,229.5,39/20,82,128.0
2484,G#3,229.5,39/20,82,128.0
2485,C#4,229.5,39/20,82,128.0
2486,F4,229.5,39/20,82,128.0
2487,C#3,229.95,1.5,92,128.0
2488,G#3,229.95,1.5,92,128.0
2489,C#4,229.95,1.5,92,128.0
2490,F4,229.95,1.5,92,128.0
2491,C#2,230.0,27/20,95,128.0
2492,C2,230.0,1.0,70,128.0
2493,B-2,230.0,1.0,70,128.0
2494,B-2,231.0,0.5,85,128.0
2495,E2,231.0,0.5,85,128.0
2496,C#3,231.45,0.5,92,128.0
2497,G#3,231.45,0.5,92,128.0
2498,C#4,231.45,0.5,92,128.0
2499,F4,231.45,0.5,92,128.0
2500,C#2,231.5,9/20,95,128.0
2501,C2,231.5,0.5,87,128.0
2502,C#3,231.5,0.5,82,128.0
2503,G#3,231.5,0.5,82,128.0
2504,C#4,231.5,0.5,82,128.0
2505,F4,231.5,0.5,82,128.0
2506,C#2,232.0,1.0,95,128.0
2507,C#3,232.0,967/1000,88,128.0
2508,G#3,232.0,967/1000,88,128.0
2509,C#4,232.0,967/1000,88,128.0
2510,C2,232.0,1.0,68,128.0
2511,B-2,232.0,1.0,68,128.0
2512,F4,233.0,0.5,88,128.0
2513,B-2,233.0,0.5,86,128.0
2514,E2,233.0,0.5,86,128.0
2515,C#5,233.2,27/40,89,128.0
2516,C#4,233.2,3/5,89,128.0
2517,F4,233.2,3/5,89,128.0
2518,G#4,233.2,3/5,89,128.0
2519,C#2,233.5,9/20,95,128.0
2520,C2,233.5,0.5,89,128.0
2521,G#3,233.5,967/1000,88,128.0
2522,C#4,233.5,967/1000,88,128.0
2523,F#4,233.5,967/1000,88,128.0
2524,C#2,234.0,9/10,95,128.0
2525,C2,234.0,1.0,69,128.0
2526,B-2,234.0,1.0,69,128.0
2527,F4,234.5,0.5,88,128.0
2528,G#1,235.0,9/20,95,128.0
2529,G#3,235.0,483/1000,88,128.0
2530,C#4,235.0,483/1000,88,128.0
2531,B-2,235.0,1.0,89,128.0
2532,E2,235.0,1.0,89,128.0
2533,B-1,235.5,9/20,95,128.0
2534,C#3,235.5,0.5,88,128.0
2535,G#3,235.5,0.5,88,128.0
2536,B1,236.0,1.0,95,128.0
2537,B2,236.0,933/1000,83,128.0
2538,E-3,236.0,933/1000,83,128.0
2539,F#3,236.0,933/1000,83,128.0
2540,B3,236.0,933/1000,83,128.0
2541,E-4,236.0,933/1000,83,128.0
2542,C2,236.0,1.0,68,128.0
2543,B-2,236.0,1.0,68,128.0
2544,C#4,237.0,0.5,88,128.0
2545,B-2,237.0,0.5,86,128.0
2546,E2,237.0,0.5,86,128.0
2547,B3,237.2,18/5,89,128.0
2548,E-4,237.2,18/5,89,128.0
2549,F#4,237.2,18/5,89,128.0
2550,B4,237.275,18/5,89,128.0
2551,B1,237.5,9/20,95,128.0
2552,C2,237.5,0.5,88,128.0
2553,B2,237.5,2.5,83,128.0
2554,E-3,237.5,2.5,83,128.0
2555,F#3,237.5,2.5,83,128.0
2556,B3,237.5,2.5,83,128.0
2557,E-4,237.5,2.5,83,128.0
2558,B1,238.0,9/10,95,128.0
2559,C2,238.0,1.0,68,128.0
2560,B-2,238.0,1.0,68,128.0
2561,G#1,239.0,9/20,95,128.0
2562,B-2,239.0,0.5,88,128.0
2563,E2,239.0,0.5,88,128.0
2564,B1,239.5,9/20,95,128.0
2565,C2,239.5,0.5,89,128.0
2566,B1,240.0,9/20,95,128.0
2567,B2,240.0,249/125,88,128.0
2568,E-3,240.0,249/125,88,128.0
2569,C2,240.0,1.0,72,128.0
2570,B-2,240.0,1.0,72,128.0
2571,F#3,240.017,479/500,88,128.0
2572,C#4,240.025,9/20,88,128.0
2573,B3,240.5,0.5,88,128.0
2574,B1,240.5,9/20,95,128.0
2575,F#3,241.0,0.5,88,128.0
2576,G#1,241.0,9/20,95,128.0
2577,B-2,241.0,0.5,88,128.0
2578,E2,241.0,0.5,88,128.0
2579,C#5,241.2,1.5,102,128.0
2580,B3,241.5,2.0,88,128.0
2581,B1,241.5,9/20,95,128.0
2582,C2,241.5,0.5,89,128.0
2583,B1,242.0,9/10,95,128.0
2584,C2,242.0,1.0,68,128.0
2585,B-2,242.0,1.0,68,128.0
2586,F#4,242.7,1.5,95,128.0
2587,B-1,243.0,9/20,95,128.0
2588,B-2,243.0,1.0,86,128.0
2589,E2,243.0,1.0,86,128.0
2590,F#3,243.5,0.5,88,128.0
2591,G#1,243.5,9/20,95,128.0
2592,F#1,244.0,1.0,95,128.0
2593,F#2,244.0,933/1000,88,128.0
2594,B-2,244.0,933/1000,88,128.0
2595,C#3,244.0,933/1000,88,128.0
2596,F#3,244.0,933/1000,88,128.0
2597,C#4,244.0,933/1000,88,128.0
2598,C2,244.0,1.0,70,128.0
2599,B-2,244.0,1.0,70,128.0
2600,F#3,245.0,0.5,88,128.0
2601,B-2,245.0,0.5,90,128.0
2602,E2,245.0,0.5,90,128.0
2603,F#3,245.2,4.0,102,128.0
2604,C#4,245.2,4.0,102,128.0
2605,F#4,245.3,39/10,102,128.0
2606,F#1,245.5,9/20,95,128.0
2607,C2,245.5,0.5,88,128.0
2608,F#2,245.5,2.5,88,128.0
2609,B-2,245.5,2.5,88,128.0
2610,C#3,245.5,2.5,88,128.0
2611,F#3,245.5,2.5,88,128.0
2612,B-3,245.5,2.5,88,128.0
2613,F#1,246.0,9/10,95,128.0
2614,C2,246.0,1.0,68,128.0
2615,B-2,246.0,1.0,68,128.0
2616,E-1,247.0,9/20,95,128.0
2617,B-2,247.0,1.0,86,128.0
2618,E2,247.0,1.0,86,128.0
2619,F#1,247.5,9/20,95,128.0
2620,F#1,248.0,1.0,95,128.0
2621,F#2,248.0,3933/1000,88,128.0
2622,B-2,248.0,3933/1000,88,128.0
2623,C#3,248.0,3933/1000,88,128.0
2624,F#3,248.0,3933/1000,88,128.0
2625,B-3,248.0,3933/1000,88,128.0
2626,C2,248.0,1.0,66,128.0
2627,B-2,248.0,1.0,66,128.0
2628,B-2,249.0,0.5,84,128.0
2629,E2,249.0,0.5,84,128.0
2630,F#4,249.2,0.5,89,128.0
2631,F#4,249.2,1/10,102,128.0
2632,F#1,249.5,9/20,95,128.0
2633,C2,249.5,0.5,83,128.0
2634,C#4,249.7,0.5,89,128.0
2635,F#1,250.0,9/20,95,128.0
2636,C2,250.0,1.0,68,128.0
2637,B-2,250.0,1.0,68,128.0
2638,F#3,250.2,0.5,89,128.0
2639,F#2,250.5,9/20,83,128.0
2640,F#4,250.7,1.0,89,128.0
2641,G#1,251.0,9/20,95,128.0
2642,B-2,251.0,1.0,90,128.0
2643,E2,251.0,1.0,90,128.0
2644,G#1,251.5,9/20,95,128.0
2645,C#4,251.7,0.5,89,128.0
2646,C#2,252.0,9/10,95,128.0
2647,C#3,252.0,967/1000,88,128.0
2648,G#3,252.0,967/1000,88,128.0
2649,C#4,252.0,967/1000,88,128.0
2650,C2,252.0,1.0,66,128.0
2651,B-2,252.0,1.0,66,128.0
2652,F#4,252.2,1.0,89,128.0
2653,G#1,253.0,9/20,95,128.0
2654,C#3,253.0,0.5,88,128.0
2655,G#3,253.0,0.5,88,128.0
2656,C#4,253.0,0.5,88,128.0
2657,B-2,253.0,0.5,92,128.0
2658,E2,253.0,0.5,92,128.0
2659,G#3,253.2,39/40,86,128.0
2660,C#3,253.2,39/40,86,128.0
2661,C#4,253.2,39/40,86,128.0
2662,F4,253.2,39/40,86,128.0
2663,C#2,253.5,9/20,95,128.0
2664,C2,253.5,0.5,88,128.0
2665,C#3,253.5,0.5,88,128.0
2666,G#3,253.5,0.5,88,128.0
2667,C#4,253.5,0.5,88,128.0
2668,C#2,254.0,1.0,95,128.0
2669,C#3,254.0,0.5,88,128.0
2670,G#3,254.0,0.5,88,128.0
2671,C#4,254.0,0.5,88,128.0
2672,C2,254.0,1.0,68,128.0
2673,B-2,254.0,1.0,68,128.0
2674,G#3,254.2,3.0,83,128.0
2675,C#3,254.2,3.0,83,128.0
2676,C#4,254.2,3.0,83,128.0
2677,F4,254.225,2.5,70,128.0
2678,C#3,254.5,0.5,88,128.0
2679,G#3,254.5,0.5,88,128.0
2680,C#4,254.5,0.5,88,128.0
2681,C#3,255.0,0.5,88,128.0
2682,G#3,255.0,0.5,88,128.0
2683,C#4,255.0,0.5,88,128.0
2684,B-2,255.0,0.5,88,128.0
2685,E2,255.0,0.5,88,128.0
2686,C#2,255.5,9/20,95,128.0
2687,C2,255.5,0.5,81,128.0
2688,C#3,255.5,0.5,88,128.0
2689,G#3,255.5,0.5,88,128.0
2690,C#4,255.5,0.5,88,128.0
2691,F4,256.0,4.0,95,128.0
2692,C#2,256.0,9/20,95,128.0
2693,C#3,256.0,0.5,98,128.0
2694,G#3,256.0,0.5,98,128.0
2695,C#4,256.0,0.5,98,128.0
2696,F#4,256.0,0.5,98,128.0
2697,C2,256.0,0.5,66,128.0
2698,B-2,256.0,0.5,66,128.0
2699,C#3,256.5,9/20,89,128.0
2700,E2,256.5,0.5,124,128.0
2701,C#3,256.5,9/20,95,128.0
2702,G#3,256.5,9/20,95,128.0
2703,C#4,256.5,9/20,95,128.0
2704,F4,256.5,9/20,95,128.0
2705,G#3,256.7,0.5,89,128.0
2706,C#3,256.7,0.5,89,128.0
2707,C#4,256.7,0.5,89,128.0
2708,F4,256.725,19/40,76,128.0
2709,G#1,257.0,9/20,95,128.0
2710,B-2,257.0,0.25,51,128.0
2711,C#3,257.0,483/1000,98,128.0
2712,F#3,257.0,483/1000,98,128.0
2713,F4,257.2,1/40,76,128.0
2714,G#3,257.2,4.0,89,128.0
2715,C#3,257.2,4.0,89,128.0
2716,C#4,257.2,4.0,89,128.0
2717,G#3,257.2,483/1000,83,128.0
2718,C#3,257.2,483/1000,83,128.0
2719,C#4,257.2,483/1000,83,128.0
2720,G#3,257.2,1.0,89,128.0
2721,C#3,257.2,1.0,89,128.0
2722,C#4,257.2,1.0,89,128.0
2723,B-2,257.25,0.25,53,128.0
2724,C#2,257.5,9/20,95,128.0
2725,C2,257.5,0.5,88,128.0
2726,C#3,257.5,39/20,95,128.0
2727,G#3,257.5,39/20,95,128.0
2728,C#4,257.5,39/20,95,128.0
2729,F4,257.5,39/20,95,128.0
2730,F#2,258.0,9/10,91,128.0
2731,C#3,258.0,0.5,96,128.0
2732,E2,258.0,0.5,96,128.0
2733,C2,258.5,0.5,84,128.0
2734,F2,259.0,9/10,91,128.0
2735,C#3,259.0,0.25,95,128.0
2736,E2,259.0,0.25,95,128.0
2737,C2,259.5,0.5,84,128.0
2738,C#3,259.5,0.5,98,128.0
2739,G#3,259.5,0.5,98,128.0
2740,C#4,259.5,0.5,98,128.0
2741,E-4,259.5,0.5,98,128.0
2742,C#2,260.0,1.0,95,128.0
2743,C2,260.0,0.25,84,128.0
2744,C#3,260.0,29/20,82,128.0
2745,G#3,260.0,29/20,82,128.0
2746,C#4,260.0,29/20,82,128.0
2747,F4,260.0,29/20,82,128.0
2748,C2,260.0,1.0,70,128.0
2749,B-2,260.0,1.0,70,128.0
2750,B-2,261.0,0.5,87,128.0
2751,E2,261.0,0.5,87,128.0
2752,C#3,261.2,0.5,85,128.0
2753,C#2,261.5,9/20,95,128.0
2754,C2,261.5,0.5,89,128.0
2755,C#3,261.5,39/20,82,128.0
2756,G#3,261.5,39/20,82,128.0
2757,C#4,261.5,39/20,82,128.0
2758,F4,261.5,39/20,82,128.0
2759,C#4,261.7,0.5,85,128.0
2760,C#2,262.0,27/20,95,128.0
2761,C2,262.0,1.0,68,128.0
2762,B-2,262.0,1.0,68,128.0
2763,G#3,262.2,0.5,85,128.0
2764,E-4,262.7,1.0,85,128.0
2765,B-2,263.0,0.5,90,128.0
2766,E2,263.0,0.5,90,128.0
2767,C#2,263.5,9/20,95,128.0
2768,C2,263.5,0.5,86,128.0
2769,C#3,263.5,0.5,82,128.0
2770,G#3,263.5,0.5,82,128.0
2771,C#4,263.5,0.5,82,128.0
2772,F4,263.5,0.5,82,128.0
2773,C#4,263.7,0.5,85,128.0
2774,C#2,264.0,1.0,95,128.0
2775,C#3,264.0,967/1000,88,128.0
2776,G#3,264.0,967/1000,88,128.0
2777,C#4,264.0,967/1000,88,128.0
2778,C2,264.0,1.0,67,128.0
2779,B-2,264.0,1.0,67,128.0
2780,G#3,264.2,0.5,85,128.0
2781,F4,264.7,0.5,85,128.0
2782,F4,265.0,0.5,88,128.0
2783,B-2,265.0,0.5,88,128.0
2784,E2,265.0,0.5,88,128.0
2785,C#4,265.2,0.5,85,128.0
2786,C#2,265.5,9/20,95,128.0
2787,C2,265.5,0.5,88,128.0
2788,G#3,265.5,967/1000,88,128.0
2789,C#4,265.5,967/1000,88,128.0
2790,F#4,265.5,967/1000,88,128.0
2791,G#3,265.7,0.5,85,128.0
2792,C#2,266.0,9/10,95,128.0
2793,C2,266.0,1.0,72,128.0
2794,B-2,266.0,1.0,72,128.0
2795,C#3,266.2,0.5,85,128.0
2796,F4,266.5,0.5,88,128.0
2797,F4,266.7,0.5,85,128.0
2798,G#1,267.0,9/20,95,128.0
2799,G#3,267.0,483/1000,88,128.0
2800,C#4,267.0,483/1000,88,128.0
2801,B-2,267.0,1.0,86,128.0
2802,E2,267.0,1.0,86,128.0
2803,F#4,267.2,0.5,85,128.0
2804,B-1,267.5,9/20,95,128.0
2805,C#3,267.5,0.5,88,128.0
2806,G#3,267.5,0.5,88,128.0
2807,F4,267.7,0.5,85,128.0
2808,B1,268.0,1.0,95,128.0
2809,B2,268.0,933/1000,83,128.0
2810,E-3,268.0,933/1000,83,128.0
2811,F#3,268.0,933/1000,83,128.0
2812,B3,268.0,933/1000,83,128.0
2813,E-4,268.0,933/1000,83,128.0
2814,C2,268.0,1.0,68,128.0
2815,B-2,268.0,1.0,68,128.0
2816,E-4,268.2,0.5,85,128.0
2817,C#4,268.7,0.5,85,128.0
2818,C#4,269.0,0.5,88,128.0
2819,B-2,269.0,1.0,90,128.0
2820,E2,269.0,1.0,90,128.0
2821,B2,269.2,0.5,85,128.0
2822,B1,269.5,9/20,95,128.0
2823,B2,269.5,2.5,83,128.0
2824,E-3,269.5,2.5,83,128.0
2825,F#3,269.5,2.5,83,128.0
2826,B3,269.5,2.5,83,128.0
2827,E-4,269.5,2.5,83,128.0
2828,F#3,269.7,0.5,85,128.0
2829,B1,270.0,9/10,95,128.0
2830,C2,270.0,1.0,72,128.0
2831,B-2,270.0,1.0,72,128.0
2832,E-3,270.2,0.5,85,128.0
2833,C#4,270.7,1.0,85,128.0
2834,G#1,271.0,9/20,95,128.0
2835,B-2,271.0,0.5,86,128.0
2836,E2,271.0,0.5,86,128.0
2837,B1,271.5,9/20,95,128.0
2838,C2,271.5,0.5,83,128.0
2839,F#3,271.7,0.5,85,128.0
2840,B1,272.0,9/20,95,128.0
2841,B2,272.0,249/125,88,128.0
2842,E-3,272.0,249/125,88,128.0
2843,C2,272.0,1.0,69,128.0
2844,B-2,272.0,1.0,69,128.0
2845,F#3,272.017,479/500,88,128.0
2846,C#4,272.025,9/20,88,128.0
2847,E-3,272.2,0.5,85,128.0
2848,B3,272.5,0.5,88,128.0
2849,E-1,272.5,9/20,95,128.0
2850,E-4,272.7,0.5,85,128.0
2851,F#3,273.0,0.5,88,128.0
2852,E-1,273.0,9/20,95,128.0
2853,B-2,273.0,0.5,86,128.0
2854,E2,273.0,0.5,86,128.0
2855,E-4,273.2,0.5,85,128.0
2856,B3,273.5,2.0,88,128.0
2857,E-1,273.5,9/20,95,128.0
2858,C2,273.5,0.5,84,128.0
2859,C#4,273.7,0.5,85,128.0
2860,E1,274.0,9/20,95,128.0
2861,C2,274.0,0.5,66,128.0
2862,B-2,274.0,0.5,66,128.0
2863,B2,274.2,0.5,85,128.0
2864,E1,274.5,9/20,95,128.0
2865,C2,274.5,0.5,84,128.0
2866,C#4,274.7,1.0,85,128.0
2867,F1,275.0,9/20,95,128.0
2868,B-2,275.0,0.5,89,128.0
2869,E2,275.0,0.5,89,128.0
2870,F#3,275.5,0.5,88,128.0
2871,F1,275.5,9/20,95,128.0
2872,C2,275.5,0.5,87,128.0
2873,F#3,275.7,0.5,85,128.0
2874,F#1,276.0,9/10,95,128.0
2875,F#2,276.0,933/1000,88,128.0
2876,B-2,276.0,933/1000,88,128.0
2877,C#3,276.0,933/1000,88,128.0
2878,F#3,276.0,933/1000,88,128.0
2879,C#4,276.0,933/1000,88,128.0
2880,C2,276.0,1.0,66,128.0
2881,B-2,276.0,1.0,66,128.0
2882,B2,276.2,0.5,85,128.0
2883,F#3,276.7,0.5,85,128.0
2884,F#3,277.0,0.5,88,128.0
2885,E-1,277.0,9/20,95,128.0
2886,B-2,277.0,0.5,90,128.0
2887,E2,277.0,0.5,90,128.0
2888,G#3,277.2,1.0,85,128.0
2889,F#1,277.5,9/20,95,128.0
2890,C2,277.5,0.5,89,128.0
2891,F#2,277.5,2.5,88,128.0
2892,B-2,277.5,2.5,88,128.0
2893,C#3,277.5,2.5,88,128.0
2894,F#3,277.5,2.5,88,128.0
2895,B-3,277.5,2.5,88,128.0
2896,F#1,278.0,9/10,95,128.0
2897,C2,278.0,1.0,68,128.0
2898,B-2,278.0,1.0,68,128.0
2899,C#4,278.2,0.5,85,128.0
2900,G#3,278.7,1.0,85,128.0
2901,E-1,279.0,9/20,95,128.0
2902,B-2,279.0,1.0,86,128.0
2903,E2,279.0,1.0,86,128.0
2904,F#1,279.5,9/20,95,128.0
2905,C#4,279.7,1.0,85,128.0
2906,F#1,280.0,9/10,95,128.0
2907,F#2,280.0,77/20,88,128.0
2908,B-2,280.0,77/20,88,128.0
2909,C#3,280.0,77/20,88,128.0
2910,F#3,280.0,77/20,88,128.0
2911,B-3,280.0,77/20,88,128.0
2912,C2,280.0,1.0,66,128.0
2913,B-2,280.0,1.0,66,128.0
2914,F#3,280.7,0.5,85,128.0
2915,E-1,281.0,9/20,95,128.0
2916,B-2,281.0,0.5,88,128.0
2917,E2,281.0,0.5,88,128.0
2918,E-4,281.2,0.5,85,128.0
2919,F#1,281.5,9/20,95,128.0
2920,C2,281.5,0.5,89,128.0
2921,C#4,281.7,0.5,85,128.0
2922,F#1,282.0,9/20,95,128.0
2923,C2,282.0,1.0,69,128.0
2924,B-2,282.0,1.0,69,128.0
2925,F#3,282.2,0.5,85,128.0
2926,E-1,282.5,9/20,95,128.0
2927,C#4,282.7,1.0,85,128.0
2928,B1,283.0,9/20,95,128.0
2929,B-2,283.0,1.0,86,128.0
2930,E2,283.0,1.0,86,128.0
2931,C2,283.5,9/20,95,128.0
2932,E-4,283.7,0.5,85,128.0
2933,C#2,284.0,1.0,95,128.0
2934,C#3,284.0,967/1000,98,128.0
2935,G#3,284.0,967/1000,98,128.0
2936,C#4,284.0,967/1000,98,128.0
2937,C2,284.0,1.0,68,128.0
2938,B-2,284.0,1.0,68,128.0
2939,C#4,284.2,0.5,85,128.0
2940,F#3,284.7,0.5,85,128.0
2941,C#3,285.0,0.5,98,128.0
2942,G#3,285.0,0.5,98,128.0
2943,C#4,285.0,0.5,98,128.0
2944,B-2,285.0,1.0,85,128.0
2945,E2,285.0,1.0,85,128.0
2946,C#3,285.2,0.75,85,128.0
2947,C#2,285.5,9/20,95,128.0
2948,C2,285.5,0.5,83,128.0
2949,C#3,285.5,0.5,98,128.0
2950,G#3,285.5,0.5,98,128.0
2951,C#4,285.5,0.5,98,128.0
2952,C#4,285.7,0.75,85,128.0
2953,C#2,286.0,9/10,95,128.0
2954,C#3,286.0,0.5,98,128.0
2955,G#3,286.0,0.5,98,128.0
2956,C#4,286.0,0.5,98,128.0
2957,C2,286.0,0.5,69,128.0
2958,B-2,286.0,0.5,69,128.0
2959,G#3,286.2,0.75,85,128.0
2960,C#3,286.5,0.5,98,128.0
2961,G#3,286.5,0.5,98,128.0
2962,C#4,286.5,0.5,98,128.0
2963,F#3,286.7,1.25,85,128.0
2964,G#1,287.0,9/20,95,128.0
2965,C#3,287.0,0.5,98,128.0
2966,G#3,287.0,0.5,98,128.0
2967,C#4,287.0,0.5,98,128.0
2968,B-2,287.0,1.0,84,128.0
2969,E2,287.0,1.0,84,128.0
2970,B2,287.5,9/40,83,128.0
2971,C#3,287.5,0.5,98,128.0
2972,G#3,287.5,0.5,98,128.0
2973,C#4,287.5,0.5,98,128.0
2974,C#4,287.7,0.75,85,128.0
2975,C3,287.75,9/40,83,128.0
2976,C#3,288.0,9/20,83,128.0
2977,C2,288.0,0.5,86,128.0
2978,B-2,288.0,0.25,56,128.0
2979,C#3,288.0,19/40,89,128.0
2980,G#3,288.0,19/40,89,128.0
2981,C#4,288.0,19/40,89,128.0
2982,F#4,288.0,19/40,89,128.0
2983,F#3,288.2,0.5,85,128.0
2984,C#3,288.5,9/40,83,128.0
2985,C#3,288.5,19/40,89,128.0
2986,G#3,288.5,19/40,89,128.0
2987,C#4,288.5,19/40,89,128.0
2988,F4,288.5,19/40,89,128.0
2989,C#3,288.5,1.0,84,128.0
2990,E2,288.5,1.0,84,128.0
2991,G#3,288.7,0.5,85,128.0
2992,C#4,288.7,0.5,85,128.0
2993,F#4,288.7,0.5,85,128.0
2994,C#3,288.75,9/40,83,128.0
2995,C#3,289.0,9/20,83,128.0
2996,C#3,289.0,0.5,89,128.0
2997,G#3,289.0,0.5,89,128.0
2998,C#4,289.0,0.5,89,128.0
2999,E-4,289.0,0.5,89,128.0
3000,G#3,289.2,19/40,85,128.0
3001,C#4,289.2,19/40,85,128.0
3002,F#4,289.2,19/40,85,128.0
3003,C#3,289.5,9/40,83,128.0
3004,C2,289.5,0.5,83,128.0
3005,C#3,289.5,2.5,89,128.0
3006,G#3,289.5,2.5,89,128.0
3007,C#4,289.5,2.5,89,128.0
3008,F4,289.5,2.5,89,128.0
3009,C#4,289.7,0.5,89,128.0
3010,C#3,289.75,9/40,83,128.0
3011,C#3,290.0,9/20,83,128.0
3012,C#3,290.0,0.5,92,128.0
3013,E2,290.0,0.5,92,128.0
3014,G#3,290.2,1.0,89,128.0
3015,E-1,290.5,9/20,95,128.0
3016,C2,290.5,0.5,82,128.0
3017,E2,291.0,9/10,89,128.0
3018,C#3,291.0,1.0,98,128.0
3019,E2,291.0,1.0,98,128.0
3020,C#3,291.2,2.0,88,128.0
3021,G#3,291.2,2.0,88,128.0
3022,C#4,291.2,2.0,88,128.0
3023,F4,291.2,2.0,88,128.0
3024,C4,292.0,0.5,102,128.0
3025,G#1,292.0,1.0,102,128.0
3026,G#2,292.0,1.0,102,128.0
3027,E-3,292.0,1.0,102,128.0
3028,G#3,292.0,1.0,102,128.0
3029,C2,292.0,1.0,70,128.0
3030,C#3,292.0,1.0,70,128.0
3031,C4,292.042,0.5,102,128.0
3032,C5,292.5,0.5,102,128.0
3033,C5,292.542,0.5,102,128.0
3034,G#4,293.0,0.5,102,128.0
3035,E2,293.0,0.5,121,128.0
3036,G#4,293.042,0.5,102,128.0
3037,G#2,293.2,1.0,102,128.0
3038,E-3,293.2,1.0,102,128.0
3039,G#3,293.2,1.0,102,128.0
3040,E-4,293.5,0.5,102,128.0
3041,G#1,293.5,9/10,102,128.0
3042,G#2,293.5,1467/1000,102,128.0
3043,E-3,293.5,1467/1000,102,128.0
3044,G#3,293.5,1467/1000,102,128.0
3045,C2,293.5,1.0,74,128.0
3046,C#3,293.5,1.0,74,128.0
3047,E-4,293.542,0.5,102,128.0
3048,C#5,294.0,0.5,102,128.0
3049,C#5,294.042,0.5,102,128.0
3050,G#4,294.5,0.5,102,128.0
3051,G#1,294.5,9/20,102,128.0
3052,F#2,294.5,0.5,67,128.0
3053,G#4,294.542,0.5,102,128.0
3054,G#2,294.7,1467/1000,102,128.0
3055,E-3,294.7,1467/1000,102,128.0
3056,G#3,294.7,1467/1000,102,128.0
3057,C5,295.0,0.5,102,128.0
3058,G#1,295.0,9/20,102,128.0
3059,B-2,295.0,221/500,102,128.0
3060,F3,295.0,221/500,102,128.0
3061,B-3,295.0,221/500,102,128.0
3062,F#2,295.0,0.5,90,128.0
3063,E2,295.0,0.5,90,128.0
3064,C5,295.042,0.5,102,128.0
3065,G#4,295.5,0.5,102,128.0
3066,B-1,295.5,9/20,102,128.0
3067,B-2,295.5,467/1000,102,128.0
3068,F3,295.5,467/1000,102,128.0
3069,B-3,295.5,467/1000,102,128.0
3070,C2,295.5,0.5,76,128.0
3071,F#2,295.5,0.5,76,128.0
3072,G#4,295.542,229/500,102,128.0
3073,G#2,295.95,1.0,102,128.0
3074,E-3,295.95,1.0,102,128.0
3075,G#3,295.95,1.0,102,128.0
3076,B3,296.0,0.5,102,128.0
3077,G#4,296.0,21/500,102,128.0
3078,B1,296.0,1.0,102,128.0
3079,B2,296.0,1.0,102,128.0
3080,F#3,296.0,1.0,102,128.0
3081,B3,296.0,1.0,102,128.0
3082,C2,296.0,1.0,74,128.0
3083,C#3,296.0,1.0,74,128.0
3084,B3,296.042,0.5,102,128.0
3085,B-2,296.2,221/500,102,128.0
3086,F3,296.2,221/500,102,128.0
3087,B-3,296.2,221/500,102,128.0
3088,B4,296.5,0.5,102,128.0
3089,B4,296.542,0.5,102,128.0
3090,B-2,296.7,467/1000,102,128.0
3091,F3,296.7,467/1000,102,128.0
3092,B-3,296.7,467/1000,102,128.0
3093,F#4,297.0,0.5,102,128.0
3094,E2,297.0,0.5,122,128.0
3095,F#4,297.042,0.5,102,128.0
3096,B2,297.2,1.0,102,128.0
3097,F#3,297.2,1.0,102,128.0
3098,B3,297.2,1.0,102,128.0
3099,G#2,297.45,1467/1000,102,128.0
3100,E-3,297.45,1467/1000,102,128.0
3101,G#3,297.45,1467/1000,102,128.0
3102,E4,297.5,0.5,102,128.0
3103,B1,297.5,27/20,102,128.0
3104,B2,297.5,2.5,102,128.0
3105,F#3,297.5,2.5,102,128.0
3106,B3,297.5,2.5,102,128.0
3107,C2,297.5,1.0,76,128.0
3108,C#3,297.5,1.0,76,128.0
3109,E4,297.542,0.5,102,128.0
3110,E-5,298.0,0.5,102,128.0
3111,E-5,298.042,0.5,102,128.0
3112,F#4,298.5,0.5,102,128.0
3113,F#2,298.5,0.5,76,128.0
3114,F#4,298.542,0.5,102,128.0
3115,B2,298.7,2.5,102,128.0
3116,F#3,298.7,2.5,102,128.0
3117,B3,298.7,2.5,102,128.0
3118,B-2,298.95,221/500,102,128.0
3119,F3,298.95,221/500,102,128.0
3120,B-3,298.95,221/500,102,128.0
3121,C#5,299.0,0.5,102,128.0
3122,B1,299.0,9/20,102,128.0
3123,F#2,299.0,0.5,81,128.0
3124,E2,299.0,0.5,81,128.0
3125,C#5,299.042,0.5,102,128.0
3126,B-2,299.45,467/1000,102,128.0
3127,F3,299.45,467/1000,102,128.0
3128,B-3,299.45,467/1000,102,128.0
3129,F#4,299.5,0.5,102,128.0
3130,G#1,299.5,9/20,102,128.0
3131,F#2,299.5,0.5,70,128.0
3132,F#4,299.542,229/500,102,128.0
3133,B2,299.95,1.0,102,128.0
3134,F#3,299.95,1.0,102,128.0
3135,B3,299.95,1.0,102,128.0
3136,C#4,300.0,0.5,102,128.0
3137,F#4,300.0,21/500,102,128.0
3138,C#2,300.0,1.0,102,128.0
3139,C#3,300.0,1467/1000,102,128.0
3140,G#3,300.0,1467/1000,102,128.0
3141,C#4,300.0,1467/1000,102,128.0
3142,C2,300.0,1.0,76,128.0
3143,C#3,300.0,1.0,76,128.0
3144,C#4,300.042,0.5,102,128.0
3145,C#5,300.5,0.5,102,128.0
3146,C#5,300.542,0.5,102,128.0
3147,G#4,301.0,0.5,102,128.0
3148,F#2,301.0,0.5,96,128.0
3149,E2,301.0,0.5,96,128.0
3150,G#4,301.042,0.5,102,128.0
3151,C#3,301.2,1467/1000,102,128.0
3152,G#3,301.2,1467/1000,102,128.0
3153,C#4,301.2,1467/1000,102,128.0
3154,B2,301.45,2.5,102,128.0
3155,F#3,301.45,2.5,102,128.0
3156,B3,301.45,2.5,102,128.0
3157,F#4,301.5,0.5,102,128.0
3158,C#2,301.5,9/20,102,128.0
3159,C#3,301.5,467/1000,102,128.0
3160,G#3,301.5,467/1000,102,128.0
3161,C#4,301.5,467/1000,102,128.0
3162,C2,301.5,0.5,76,128.0
3163,F#2,301.5,0.5,76,128.0
3164,F#4,301.542,0.5,102,128.0
3165,F#5,302.0,0.5,102,128.0
3166,C#2,302.0,1.0,102,128.0
3167,C#3,302.0,1467/1000,102,128.0
3168,G#3,302.0,1467/1000,102,128.0
3169,C#4,302.0,1467/1000,102,128.0
3170,C2,302.0,0.5,74,128.0
3171,F#2,302.0,0.5,74,128.0
3172,F#5,302.042,0.5,102,128.0
3173,G#4,302.5,0.5,102,128.0
3174,F#2,302.5,0.5,67,128.0
3175,G#4,302.542,0.5,102,128.0
3176,C#3,302.7,467/1000,102,128.0
3177,G#3,302.7,467/1000,102,128.0
3178,C#4,302.7,467/1000,102,128.0
3179,F5,303.0,0.5,102,128.0
3180,F#2,303.0,0.5,97,128.0
3181,E2,303.0,0.5,97,128.0
3182,F5,303.042,0.5,102,128.0
3183,C#3,303.2,1467/1000,102,128.0
3184,G#3,303.2,1467/1000,102,128.0
3185,C#4,303.2,1467/1000,102,128.0
3186,G#4,303.5,0.5,102,128.0
3187,C#2,303.5,9/20,102,128.0
3188,C#3,303.5,0.5,102,128.0
3189,G#3,303.5,0.5,102,128.0
3190,C#4,303.5,0.5,102,128.0
3191,C2,303.5,0.5,76,128.0
3192,F#2,303.5,0.5,76,128.0
3193,G#4,303.542,229/500,102,128.0
3194,C#3,303.95,1467/1000,102,128.0
3195,G#3,303.95,1467/1000,102,128.0
3196,C#4,303.95,1467/1000,102,128.0
3197,C#4,304.0,0.5,102,128.0
3198,G#4,304.0,21/500,102,128.0
3199,C#2,304.0,1.0,102,128.0
3200,C#3,304.0,19/40,89,128.0
3201,G#3,304.0,19/40,89,128.0
3202,C#4,304.0,19/40,89,128.0
3203,F#4,304.0,19/40,89,128.0
3204,C2,304.0,0.5,79,128.0
3205,F#2,304.0,0.5,79,128.0
3206,C#4,304.042,0.5,102,128.0
3207,C#5,304.5,0.5,102,128.0
3208,F#2,304.5,0.5,68,128.0
3209,C#3,304.5,19/40,89,128.0
3210,G#3,304.5,19/40,89,128.0
3211,C#4,304.5,19/40,89,128.0
3212,F4,304.5,19/40,89,128.0
3213,C#5,304.542,0.5,102,128.0
3214,C#3,304.7,0.5,102,128.0
3215,G#3,304.7,0.5,102,128.0
3216,C#4,304.7,0.5,102,128.0
3217,G#4,305.0,0.5,102,128.0
3218,C#3,305.0,0.5,89,128.0
3219,G#3,305.0,0.5,89,128.0
3220,C#4,305.0,0.5,89,128.0
3221,E-4,305.0,0.5,89,128.0
3222,F#2,305.0,0.5,95,128.0
3223,E2,305.0,0.5,95,128.0
3224,G#4,305.042,0.5,102,128.0
3225,C#3,305.2,19/40,89,128.0
3226,G#3,305.2,19/40,89,128.0
3227,C#4,305.2,19/40,89,128.0
3228,F#4,305.2,19/40,89,128.0
3229,C#3,305.45,467/1000,102,128.0
3230,G#3,305.45,467/1000,102,128.0
3231,C#4,305.45,467/1000,102,128.0
3232,F#4,305.5,0.5,102,128.0
3233,C#2,305.5,9/20,102,128.0
3234,C#3,305.5,2.5,89,128.0
3235,G#3,305.5,2.5,89,128.0
3236,C#4,305.5,2.5,89,128.0
3237,F4,305.5,2.5,89,128.0
3238,C2,305.5,0.5,75,128.0
3239,F#2,305.5,0.5,75,128.0
3240,F#4,305.542,0.5,102,128.0
3241,C#3,305.7,19/40,89,128.0
3242,G#3,305.7,19/40,89,128.0
3243,C#4,305.7,19/40,89,128.0
3244,F4,305.7,19/40,89,128.0
3245,C#3,305.95,1467/1000,102,128.0
3246,G#3,305.95,1467/1000,102,128.0
3247,C#4,305.95,1467/1000,102,128.0
3248,F#5,306.0,0.5,102,128.0
3249,G#2,306.0,9/20,89,128.0
3250,C2,306.0,0.5,81,128.0
3251,F#2,306.0,0.5,81,128.0
3252,F#5,306.042,0.5,102,128.0
3253,C#3,306.2,0.5,89,128.0
3254,G#3,306.2,0.5,89,128.0
3255,C#4,306.2,0.5,89,128.0
3256,E-4,306.2,0.5,89,128.0
3257,G#4,306.5,0.5,102,128.0
3258,F#2,306.5,9/20,89,128.0
3259,F#2,306.5,0.5,75,128.0
3260,G#4,306.542,0.5,102,128.0
3261,C#3,306.7,2.5,89,128.0
3262,G#3,306.7,2.5,89,128.0
3263,C#4,306.7,2.5,89,128.0
3264,F4,306.7,2.5,89,128.0
3265,F5,307.0,0.5,102,128.0
3266,F2,307.0,9/20,89,128.0
3267,F#2,307.0,0.5,95,128.0
3268,E2,307.0,0.5,95,128.0
3269,F5,307.042,0.5,102,128.0
3270,C#3,307.45,0.5,102,128.0
3271,G#3,307.45,0.5,102,128.0
3272,C#4,307.45,0.5,102,128.0
3273,G#4,307.5,0.5,102,128.0
3274,C#2,307.5,9/20,95,128.0
3275,F#2,307.5,0.25,68,128.0
3276,G#4,307.542,229/500,102,128.0
3277,C#3,307.95,19/40,89,128.0
3278,G#3,307.95,19/40,89,128.0
3279,C#4,307.95,19/40,89,128.0
3280,F#4,307.95,19/40,89,128.0
3281,C4,308.0,0.5,102,128.0
3282,G#4,308.0,21/500,102,128.0
3283,G#1,308.0,1.0,102,128.0
3284,G#2,308.0,1.0,102,128.0
3285,E-3,308.0,1.0,102,128.0
3286,G#3,308.0,1.0,102,128.0
3287,C2,308.0,1.0,70,128.0
3288,C#3,308.0,1.0,70,128.0
3289,C4,308.042,0.5,102,128.0
3290,C#3,308.45,19/40,89,128.0
3291,G#3,308.45,19/40,89,128.0
3292,C#4,308.45,19/40,89,128.0
3293,F4,308.45,19/40,89,128.0
3294,C5,308.5,0.5,102,128.0
3295,C5,308.542,0.5,102,128.0
3296,C#3,308.95,0.5,89,128.0
3297,G#3,308.95,0.5,89,128.0
3298,C#4,308.95,0.5,89,128.0
3299,E-4,308.95,0.5,89,128.0
3300,G#4,309.0,0.5,102,128.0
3301,E2,309.0,0.5,119,128.0
3302,G#4,309.042,0.5,102,128.0
3303,G#2,309.2,1.0,102,128.0
3304,E-3,309.2,1.0,102,128.0
3305,G#3,309.2,1.0,102,128.0
3306,C#3,309.45,2.5,89,128.0
3307,G#3,309.45,2.5,89,128.0
3308,C#4,309.45,2.5,89,128.0
3309,F4,309.45,2.5,89,128.0
3310,E-4,309.5,0.5,102,128.0
3311,G#1,309.5,27/20,102,128.0
3312,G#2,309.5,1467/1000,102,128.0
3313,E-3,309.5,1467/1000,102,128.0
3314,G#3,309.5,1467/1000,102,128.0
3315,C2,309.5,1.0,75,128.0
3316,C#3,309.5,1.0,75,128.0
3317,E-4,309.542,0.5,102,128.0
3318,C#5,310.0,0.5,102,128.0
3319,C#5,310.042,0.5,102,128.0
3320,G#4,310.5,0.5,102,128.0
3321,F#2,310.5,0.5,71,128.0
3322,G#4,310.542,0.5,102,128.0
3323,G#2,310.7,1467/1000,102,128.0
3324,E-3,310.7,1467/1000,102,128.0
3325,G#3,310.7,1467/1000,102,128.0
3326,C5,311.0,0.5,102,128.0
3327,G#1,311.0,9/20,102,128.0
3328,B-2,311.0,221/500,102,128.0
3329,F3,311.0,221/500,102,128.0
3330,B-3,311.0,221/500,102,128.0
3331,F#2,311.0,0.5,96,128.0
3332,E2,311.0,0.5,96,128.0
3333,C5,311.042,0.5,102,128.0
3334,G#4,311.5,0.5,102,128.0
3335,B-1,311.5,9/20,102,128.0
3336,F#2,311.5,0.5,72,128.0
3337,B-2,311.5,467/1000,102,128.0
3338,F3,311.5,467/1000,102,128.0
3339,B-3,311.5,467/1000,102,128.0
3340,G#4,311.542,229/500,102,128.0
3341,G#2,311.95,1.0,102,128.0
3342,E-3,311.95,1.0,102,128.0
3343,G#3,311.95,1.0,102,128.0
3344,B3,312.0,0.5,102,128.0
3345,G#4,312.0,21/500,102,128.0
3346,B1,312.0,1.0,102,128.0
3347,B2,312.0,1.0,102,128.0
3348,F#3,312.0,1.0,102,128.0
3349,B3,312.0,1.0,102,128.0
3350,C2,312.0,1.0,70,128.0
3351,C#3,312.0,1.0,70,128.0
3352,B3,312.042,0.5,102,128.0
3353,B-2,312.2,221/500,102,128.0
3354,F3,312.2,221/500,102,128.0
3355,B-3,312.2,221/500,102,128.0
3356,B4,312.5,0.5,102,128.0
3357,B4,312.542,0.5,102,128.0
3358,B-2,312.7,467/1000,102,128.0
3359,F3,312.7,467/1000,102,128.0
3360,B-3,312.7,467/1000,102,128.0
3361,F#4,313.0,0.5,102,128.0
3362,E2,313.0,0.5,119,128.0
3363,F#4,313.042,0.5,102,128.0
3364,B2,313.2,1.0,102,128.0
3365,F#3,313.2,1.0,102,128.0
3366,B3,313.2,1.0,102,128.0
3367,G#2,313.45,1467/1000,102,128.0
3368,E-3,313.45,1467/1000,102,128.0
3369,G#3,313.45,1467/1000,102,128.0
3370,E4,313.5,0.5,102,128.0
3371,B1,313.5,27/20,102,128.0
3372,B2,313.5,2.5,102,128.0
3373,F#3,313.5,2.5,102,128.0
3374,B3,313.5,2.5,102,128.0
3375,C2,313.5,1.0,77,128.0
3376,C#3,313.5,1.0,77,128.0
3377,E4,313.542,0.5,102,128.0
3378,E-5,314.0,0.5,102,128.0
3379,E-5,314.042,0.5,102,128.0
3380,F#4,314.5,0.5,102,128.0
3381,F#2,314.5,0.5,72,128.0
3382,F#4,314.542,0.5,102,128.0
3383,B2,314.7,2.5,102,128.0
3384,F#3,314.7,2.5,102,128.0
3385,B3,314.7,2.5,102,128.0
3386,B-2,314.95,221/500,102,128.0
3387,F3,314.95,221/500,102,128.0
3388,B-3,314.95,221/500,102,128.0
3389,C#5,315.0,0.5,102,128.0
3390,B1,315.0,9/20,102,128.0
3391,F#2,315.0,0.5,87,128.0
3392,E2,315.0,0.5,87,128.0
3393,C#5,315.042,0.5,102,128.0
3394,B-2,315.45,467/1000,102,128.0
3395,F3,315.45,467/1000,102,128.0
3396,B-3,315.45,467/1000,102,128.0
3397,F#4,315.5,0.5,102,128.0
3398,B1,315.5,9/40,102,128.0
3399,C2,315.5,0.5,80,128.0
3400,F#2,315.5,0.5,80,128.0
3401,F#4,315.542,229/500,102,128.0
3402,C2,315.75,9/40,102,128.0
3403,B2,315.95,1.0,102,128.0
3404,F#3,315.95,1.0,102,128.0
3405,B3,315.95,1.0,102,128.0
3406,G#4,316.0,0.5,102,128.0
3407,F#4,316.0,21/500,102,128.0
3408,C#2,316.0,1.0,102,128.0
3409,C#3,316.0,4.0,102,128.0
3410,G#3,316.0,4.0,102,128.0
3411,C#4,316.0,4.0,102,128.0
3412,C2,316.0,1.0,66,128.0
3413,A3,316.0,1.0,66,128.0
3414,G#4,316.042,0.5,102,128.0
3415,C#5,316.5,3.5,102,128.0
3416,C#5,316.542,1729/500,102,128.0
3417,F#2,317.0,0.5,98,128.0
3418,E2,317.0,0.5,98,128.0
3419,C#3,317.2,4.0,102,128.0
3420,G#3,317.2,4.0,102,128.0
3421,C#4,317.2,4.0,102,128.0
3422,B2,317.45,2.5,102,128.0
3423,F#3,317.45,2.5,102,128.0
3424,B3,317.45,2.5,102,128.0
3425,C#2,317.5,9/20,102,128.0
3426,C2,317.5,0.5,80,128.0
3427,F#2,317.5,0.5,80,128.0
3428,C#2,318.0,27/20,102,128.0
3429,C2,318.0,0.5,76,128.0
3430,F#2,318.0,0.5,76,128.0
3431,F#2,318.5,0.5,69,128.0
3432,F#2,319.0,0.5,93,128.0
3433,E2,319.0,0.5,93,128.0
3434,B2,319.5,9/40,83,128.0
3435,C2,319.5,0.5,75,128.0
3436,F#2,319.5,0.5,75,128.0
3437,C3,319.75,9/40,83,128.0
3438,C#3,319.95,4.0,102,128.0
3439,G#3,319.95,4.0,102,128.0
3440,C#4,319.95,4.0,102,128.0
3441,C#5,320.0,123/250,102,128.0
3442,C#5,320.0,533/1000,102,128.0
3443,C#3,320.0,9/20,83,128.0
3444,C#3,320.0,1.5,81,128.0
3445,G#3,320.0,1.5,81,128.0
3446,C#4,320.0,1.5,81,128.0
3447,C2,320.0,0.5,76,128.0
3448,F#2,320.0,0.5,76,128.0
3449,C#3,320.5,9/20,83,128.0
3450,F#2,320.5,0.5,76,128.0
3451,C#3,321.0,9/20,83,128.0
3452,F#2,321.0,0.5,98,128.0
3453,E2,321.0,0.5,98,128.0
3454,C#3,321.2,1.5,81,128.0
3455,G#3,321.2,1.5,81,128.0
3456,C#4,321.2,1.5,81,128.0
3457,C#3,321.5,9/20,83,128.0
3458,C#3,321.5,0.5,81,128.0
3459,G#3,321.5,0.5,81,128.0
3460,C#4,321.5,0.5,81,128.0
3461,C2,321.5,0.5,78,128.0
3462,F#2,321.5,0.5,78,128.0
3463,C#3,322.0,9/20,83,128.0
3464,C#3,322.0,1.0,81,128.0
3465,G#3,322.0,1.0,81,128.0
3466,C#4,322.0,1.0,81,128.0
3467,C2,322.0,0.5,80,128.0
3468,F#2,322.0,0.5,80,128.0
3469,E-1,322.5,9/20,102,128.0
3470,C#3,322.5,0.5,95,128.0
3471,E2,322.5,0.5,95,128.0
3472,C#3,322.7,0.5,81,128.0
3473,G#3,322.7,0.5,81,128.0
3474,C#4,322.7,0.5,81,128.0
3475,E-2,323.0,9/10,102,128.0
3476,C#3,323.0,1.0,81,128.0
3477,G#3,323.0,1.0,81,128.0
3478,C#4,323.0,1.0,81,128.0
3479,C#3,323.0,1.0,94,128.0
3480,E2,323.0,1.0,94,128.0
3481,C#3,323.2,1.0,81,128.0
3482,G#3,323.2,1.0,81,128.0
3483,C#4,323.2,1.0,81,128.0
3484,G#4,323.5,0.5,102,128.0
3485,G#4,323.542,229/500,102,128.0
3486,C#3,323.95,1.5,81,128.0
3487,G#3,323.95,1.5,81,128.0
3488,C#4,323.95,1.5,81,128.0
3489,G#4,324.0,373/250,102,128.0
3490,G#4,324.0,1533/1000,102,128.0
3491,C#2,324.0,1.0,95,128.0
3492,C#3,324.0,29/20,92,128.0
3493,G#3,324.0,29/20,92,128.0
3494,C#4,324.0,29/20,92,128.0
3495,F4,324.0,29/20,92,128.0
3496,C2,324.0,1.0,74,128.0
3497,C#3,324.0,1.0,74,128.0
3498,C#3,324.2,1.0,81,128.0
3499,G#3,324.2,1.0,81,128.0
3500,C#4,324.2,1.0,81,128.0
3501,F3,325.0,1.0,100,128.0
3502,E2,325.0,1.0,100,128.0
3503,C#3,325.45,0.5,81,128.0
3504,G#3,325.45,0.5,81,128.0
3505,C#4,325.45,0.5,81,128.0
3506,F4,325.5,2.0,102,128.0
3507,C#2,325.5,9/20,95,128.0
3508,C#3,325.5,39/20,92,128.0
3509,G#3,325.5,39/20,92,128.0
3510,C#4,325.5,39/20,92,128.0
3511,F4,325.5,39/20,92,128.0
3512,F4,325.542,2.0,102,128.0
3513,C#3,325.95,1.0,81,128.0
3514,G#3,325.95,1.0,81,128.0
3515,C#4,325.95,1.0,81,128.0
3516,C#2,326.0,27/20,95,128.0
3517,C2,326.0,1.0,80,128.0
3518,F3,326.0,1.0,80,128.0
3519,C#3,326.95,1.0,81,128.0
3520,G#3,326.95,1.0,81,128.0
3521,C#4,326.95,1.0,81,128.0
3522,F3,327.0,1.0,98,128.0
3523,E2,327.0,1.0,98,128.0
3524,G#4,327.5,0.5,102,128.0
3525,C#2,327.5,9/20,95,128.0
3526,C#3,327.5,0.5,92,128.0
3527,G#3,327.5,0.5,92,128.0
3528,C#4,327.5,0.5,92,128.0
3529,F4,327.5,0.5,92,128.0
3530,G#4,327.542,229/500,102,128.0
3531,C#3,327.95,29/20,95,128.0
3532,G#3,327.95,29/20,95,128.0
3533,C#4,327.95,29/20,95,128.0
3534,F4,327.95,29/20,95,128.0
3535,F#4,328.0,1.5,102,128.0
3536,G#4,328.0,21/500,102,128.0
3537,C#2,328.0,1.0,95,128.0
3538,C#3,328.0,967/1000,98,128.0
3539,G#3,328.0,967/1000,98,128.0
3540,C#4,328.0,967/1000,98,128.0
3541,C2,328.0,1.0,79,128.0
3542,F3,328.0,1.0,79,128.0
3543,F#4,328.042,1.5,102,128.0
3544,F4,329.0,0.5,89,128.0
3545,F3,329.0,1.0,96,128.0
3546,E2,329.0,1.0,96,128.0
3547,C#3,329.45,0.5,83,128.0
3548,G#3,329.45,0.5,83,128.0
3549,C#4,329.45,0.5,83,128.0
3550,F4,329.45,0.5,83,128.0
3551,F4,329.5,2.0,102,128.0
3552,C#2,329.5,9/20,95,128.0
3553,G#3,329.5,967/1000,82,128.0
3554,C#4,329.5,967/1000,82,128.0
3555,F#4,329.5,967/1000,82,128.0
3556,F4,329.542,2.0,102,128.0
3557,C#3,329.95,1.5,95,128.0
3558,G#3,329.95,1.5,95,128.0
3559,C#4,329.95,1.5,95,128.0
3560,F4,329.95,1.5,95,128.0
3561,C#2,330.0,9/20,95,128.0
3562,C2,330.0,1.0,79,128.0
3563,F3,330.0,1.0,79,128.0
3564,F4,330.5,0.5,89,128.0
3565,C#3,330.5,9/20,83,128.0
3566,C#2,331.0,9/20,95,128.0
3567,G#3,331.0,483/1000,98,128.0
3568,C#4,331.0,483/1000,98,128.0
3569,F3,331.0,0.5,97,128.0
3570,E2,331.0,0.5,97,128.0
3571,C#3,331.45,0.5,95,128.0
3572,G#3,331.45,0.5,95,128.0
3573,C#4,331.45,0.5,95,128.0
3574,F4,331.45,0.5,95,128.0
3575,G#4,331.5,0.5,102,128.0
3576,G#1,331.5,9/20,95,128.0
3577,C2,331.5,0.5,84,128.0
3578,C#3,331.5,0.5,98,128.0
3579,G#3,331.5,0.5,98,128.0
3580,G#4,331.542,229/500,102,128.0
3581,C#3,331.95,29/20,95,128.0
3582,G#3,331.95,29/20,95,128.0
3583,C#4,331.95,29/20,95,128.0
3584,F4,331.95,29/20,95,128.0
3585,G#4,332.0,373/250,102,128.0
3586,G#4,332.0,1533/1000,102,128.0
3587,B1,332.0,1.0,95,128.0
3588,B2,332.0,933/1000,98,128.0
3589,E-3,332.0,933/1000,98,128.0
3590,F#3,332.0,933/1000,98,128.0
3591,B3,332.0,933/1000,98,128.0
3592,E-4,332.0,933/1000,98,128.0
3593,C2,332.0,1.0,78,128.0
3594,F3,332.0,1.0,78,128.0
3595,C#4,333.0,0.5,98,128.0
3596,F3,333.0,1.0,100,128.0
3597,E2,333.0,1.0,100,128.0
3598,F4,333.45,0.5,70,128.0
3599,E-4,333.5,2.0,95,128.0
3600,B1,333.5,9/20,95,128.0
3601,B2,333.5,2.5,98,128.0
3602,E-3,333.5,2.5,98,128.0
3603,F#3,333.5,2.5,98,128.0
3604,B3,333.5,2.5,98,128.0
3605,E-4,333.5,2.5,98,128.0
3606,E-4,333.542,2.0,95,128.0
3607,F#4,333.95,0.5,70,128.0
3608,B1,334.0,1.0,95,128.0
3609,C2,334.0,1.0,76,128.0
3610,F3,334.0,1.0,76,128.0
3611,F4,334.45,0.5,70,128.0
3612,E-4,334.95,1.0,70,128.0
3613,F3,335.0,0.5,99,128.0
3614,E2,335.0,0.5,99,128.0
3615,G#4,335.5,0.5,102,128.0
3616,B1,335.5,9/20,95,128.0
3617,C2,335.5,0.5,86,128.0
3618,G#4,335.542,229/500,102,128.0
3619,B2,335.95,29/20,95,128.0
3620,E-3,335.95,29/20,95,128.0
3621,F#3,335.95,29/20,95,128.0
3622,B3,335.95,29/20,95,128.0
3623,G#4,336.0,373/250,102,128.0
3624,G#4,336.0,1533/1000,102,128.0
3625,B1,336.0,9/20,102,128.0
3626,B2,336.0,249/125,98,128.0
3627,E-3,336.0,249/125,98,128.0
3628,C2,336.0,1.0,82,128.0
3629,F3,336.0,1.0,82,128.0
3630,F#3,336.017,479/500,98,128.0
3631,E-4,336.017,1433/1000,95,128.0
3632,C#4,336.025,9/20,98,128.0
3633,B3,336.5,0.5,98,128.0
3634,E-2,336.5,9/20,95,128.0
3635,F#3,337.0,0.5,98,128.0
3636,E-2,337.0,9/20,95,128.0
3637,F3,337.0,1.0,97,128.0
3638,E2,337.0,1.0,97,128.0
3639,B2,337.45,9/20,95,128.0
3640,E-3,337.45,9/20,95,128.0
3641,F#3,337.45,9/20,95,128.0
3642,B3,337.45,9/20,95,128.0
3643,E-4,337.5,2.0,95,128.0
3644,B3,337.5,2.0,98,128.0
3645,E-2,337.5,9/20,95,128.0
3646,E-4,337.517,433/1000,95,128.0
3647,E-4,337.542,2.0,95,128.0
3648,B2,337.95,1.5,95,128.0
3649,E-3,337.95,1.5,95,128.0
3650,F#3,337.95,1.5,95,128.0
3651,B3,337.95,1.5,95,128.0
3652,E2,338.0,9/20,89,128.0
3653,C2,338.0,1.0,82,128.0
3654,F3,338.0,1.0,82,128.0
3655,E-4,338.017,1.5,95,128.0
3656,E2,338.5,9/20,89,128.0
3657,F2,339.0,9/20,89,128.0
3658,F3,339.0,0.5,96,128.0
3659,E2,339.0,0.5,96,128.0
3660,B2,339.45,0.5,95,128.0
3661,E-3,339.45,0.5,95,128.0
3662,F#3,339.45,0.5,95,128.0
3663,B3,339.45,0.5,95,128.0
3664,G#4,339.5,0.5,102,128.0
3665,F#3,339.5,0.5,98,128.0
3666,E-1,339.5,9/20,102,128.0
3667,C2,339.5,0.5,87,128.0
3668,E-4,339.517,433/1000,95,128.0
3669,G#4,339.542,229/500,102,128.0
3670,E-4,339.95,67/1000,95,128.0
3671,B2,339.95,29/20,95,128.0
3672,E-3,339.95,29/20,95,128.0
3673,F#3,339.95,29/20,95,128.0
3674,B3,339.95,29/20,95,128.0
3675,G#4,340.0,3.25,102,128.0
3676,G#4,340.0,823/250,102,128.0
3677,F#1,340.0,9/10,95,128.0
3678,F#2,340.0,933/1000,98,128.0
3679,B-2,340.0,933/1000,98,128.0
3680,C#3,340.0,933/1000,98,128.0
3681,F#3,340.0,933/1000,98,128.0
3682,C#4,340.0,933/1000,98,128.0
3683,C2,340.0,1.0,78,128.0
3684,F3,340.0,1.0,78,128.0
3685,E-4,340.017,1433/1000,95,128.0
3686,F#3,341.0,0.5,98,128.0
3687,E-1,341.0,9/20,95,128.0
3688,F3,341.0,0.5,100,128.0
3689,E2,341.0,0.5,100,128.0
3690,E-4,341.45,0.5,95,128.0
3691,F#1,341.5,9/20,95,128.0
3692,C2,341.5,0.5,89,128.0
3693,F#2,341.5,2.5,98,128.0
3694,B-2,341.5,2.5,98,128.0
3695,C#3,341.5,2.5,98,128.0
3696,F#3,341.5,2.5,98,128.0
3697,B-3,341.5,2.5,98,128.0
3698,F#4,341.95,0.5,95,128.0
3699,F#1,342.0,9/10,95,128.0
3700,C2,342.0,1.0,80,128.0
3701,F3,342.0,1.0,80,128.0
3702,F4,342.45,0.5,95,128.0
3703,E-4,342.95,1.0,95,128.0
3704,E-1,343.0,9/20,95,128.0
3705,F3,343.0,0.5,97,128.0
3706,E2,343.0,0.5,97,128.0
3707,G#4,343.5,0.5,102,128.0
3708,F#1,343.5,9/20,95,128.0
3709,C2,343.5,0.5,81,128.0
3710,G#4,343.542,229/500,102,128.0
3711,F#2,343.95,29/20,95,128.0
3712,B-2,343.95,29/20,95,128.0
3713,C#3,343.95,29/20,95,128.0
3714,F#3,343.95,29/20,95,128.0
3715,G#4,344.0,2.0,102,128.0
3716,G#4,344.0,1021/500,102,128.0
3717,F#1,344.0,9/20,102,128.0
3718,F#2,344.0,3933/1000,98,128.0
3719,B-2,344.0,3933/1000,98,128.0
3720,C#3,344.0,3933/1000,98,128.0
3721,F#3,344.0,3933/1000,98,128.0
3722,B-3,344.0,3933/1000,98,128.0
3723,C2,344.0,1.0,79,128.0
3724,F3,344.0,1.0,79,128.0
3725,C#4,344.017,1.5,95,128.0
3726,E-1,344.5,9/20,102,128.0
3727,E2,345.0,9/20,89,128.0
3728,F3,345.0,0.5,97,128.0
3729,E2,345.0,0.5,97,128.0
3730,F#2,345.45,9/20,95,128.0
3731,B-2,345.45,9/20,95,128.0
3732,C#3,345.45,9/20,95,128.0
3733,F#3,345.45,9/20,95,128.0
3734,F2,345.5,9/20,89,128.0
3735,C2,345.5,0.5,86,128.0
3736,C#4,345.517,0.5,95,128.0
3737,F#2,345.95,29/20,95,128.0
3738,B-2,345.95,29/20,95,128.0
3739,C#3,345.95,29/20,95,128.0
3740,F#3,345.95,29/20,95,128.0
3741,F4,346.0,1.0,102,128.0
3742,F#2,346.0,9/20,89,128.0
3743,C2,346.0,1.0,81,128.0
3744,F3,346.0,1.0,81,128.0
3745,C#4,346.017,1.5,95,128.0
3746,F4,346.042,1.0,102,128.0
3747,G#1,346.5,9/20,102,128.0
3748,C#4,347.0,229/500,102,128.0
3749,B1,347.0,9/20,102,128.0
3750,F3,347.0,0.5,99,128.0
3751,E2,347.0,0.5,99,128.0
3752,C#4,347.042,229/500,102,128.0
3753,F#2,347.45,0.5,95,128.0
3754,B-2,347.45,0.5,95,128.0
3755,C#3,347.45,0.5,95,128.0
3756,F#3,347.45,0.5,95,128.0
3757,F4,347.458,271/500,102,128.0
3758,F4,347.5,0.5,102,128.0
3759,C2,347.5,9/20,102,128.0
3760,C2,347.5,0.5,84,128.0
3761,C#4,347.517,433/1000,95,128.0
3762,C#4,347.95,67/1000,95,128.0
3763,F#2,347.95,1.5,95,128.0
3764,B-2,347.95,1.5,95,128.0
3765,C#3,347.95,1.5,95,128.0
3766,F#3,347.95,1.5,95,128.0
3767,F4,348.0,49/20,102,128.0
3768,F4,348.0,623/250,102,128.0
3769,C#2,348.0,9/10,95,128.0
3770,C#3,348.0,967/1000,98,128.0
3771,G#3,348.0,967/1000,98,128.0
3772,C#4,348.0,967/1000,98,128.0
3773,C2,348.0,1.0,80,128.0
3774,F3,348.0,1.0,80,128.0
3775,C#4,348.017,1.5,95,128.0
3776,G#1,349.0,9/20,95,128.0
3777,C#3,349.0,0.5,98,128.0
3778,G#3,349.0,0.5,98,128.0
3779,C#4,349.0,0.5,98,128.0
3780,F3,349.0,0.5,100,128.0
3781,E2,349.0,0.5,100,128.0
3782,C#4,349.45,0.5,83,128.0
3783,C#2,349.5,9/20,95,128.0
3784,C2,349.5,0.5,83,128.0
3785,C#3,349.5,0.5,98,128.0
3786,G#3,349.5,0.5,98,128.0
3787,C#4,349.5,0.5,98,128.0
3788,F#4,349.95,0.5,83,128.0
3789,C#2,350.0,1.0,95,128.0
3790,C#3,350.0,0.5,98,128.0
3791,G#3,350.0,0.5,98,128.0
3792,C#4,350.0,0.5,98,128.0
3793,C2,350.0,1.0,81,128.0
3794,F3,350.0,1.0,81,128.0
3795,F4,350.45,0.5,83,128.0
3796,C#5,350.5,229/500,102,128.0
3797,C#3,350.5,0.5,98,128.0
3798,G#3,350.5,0.5,98,128.0
3799,C#4,350.5,0.5,98,128.0
3800,C#5,350.542,229/500,102,128.0
3801,E-4,350.95,1.0,83,128.0
3802,F4,350.958,521/500,102,128.0
3803,F4,351.0,1.0,102,128.0
3804,C#3,351.0,0.5,98,128.0
3805,G#3,351.0,0.5,98,128.0
3806,C#4,351.0,0.5,98,128.0
3807,F3,351.0,0.5,102,128.0
3808,E2,351.0,0.5,102,128.0
3809,C#2,351.5,417/1000,95,128.0
3810,C2,351.5,0.5,87,128.0
3811,C#3,351.5,0.5,98,128.0
3812,G#3,351.5,0.5,98,128.0
3813,C#4,351.5,0.5,98,128.0
3814,C#3,351.95,1.5,92,128.0
3815,G#3,351.95,1.5,92,128.0
3816,C#4,351.95,1.5,92,128.0
3817,F4,351.95,1.5,92,128.0
3818,E-2,351.958,21/500,89,128.0
3819,F4,352.0,1479/500,102,128.0
3820,F4,352.0,3.0,102,128.0
3821,E-2,352.0,9/20,89,128.0
3822,C#3,352.0,0.5,98,128.0
3823,G#3,352.0,0.5,98,128.0
3824,C#4,352.0,0.5,98,128.0
3825,F#4,352.0,0.5,98,128.0
3826,C2,352.0,0.5,74,128.0
3827,F3,352.0,0.5,74,128.0
3828,G#2,352.5,9/20,89,128.0
3829,C#3,352.5,9/20,95,128.0
3830,G#3,352.5,9/20,95,128.0
3831,C#4,352.5,9/20,95,128.0
3832,F4,352.5,9/20,95,128.0
3833,C#3,352.5,1.0,95,128.0
3834,E2,352.5,1.0,95,128.0
3835,G#1,353.0,9/20,102,128.0
3836,C#3,353.0,483/1000,98,128.0
3837,F#3,353.0,483/1000,98,128.0
3838,C#3,353.45,0.5,95,128.0
3839,G#3,353.467,1.5,91,128.0
3840,C#4,353.467,1.5,91,128.0
3841,F4,353.467,1.5,91,128.0
3842,C#2,353.5,9/20,95,128.0
3843,C2,353.5,0.5,85,128.0
3844,C#3,353.5,39/20,95,128.0
3845,G#3,353.5,39/20,95,128.0
3846,C#4,353.5,39/20,95,128.0
3847,F4,353.5,39/20,95,128.0
3848,C#3,353.95,1.5,92,128.0
3849,G#3,353.95,1.5,92,128.0
3850,C#4,353.95,1.5,92,128.0
3851,F4,353.95,1.5,92,128.0
3852,F#2,354.0,9/10,89,128.0
3853,C#3,354.0,0.5,94,128.0
3854,E2,354.0,0.5,94,128.0
3855,C2,354.5,0.5,87,128.0
3856,G#4,355.0,83/1000,102,128.0
3857,F2,355.0,9/10,95,128.0
3858,C#3,355.0,0.5,96,128.0
3859,E2,355.0,0.5,96,128.0
3860,G#4,355.042,83/1000,102,128.0
3861,C#3,355.45,0.5,95,128.0
3862,G#3,355.467,483/1000,91,128.0
3863,C#4,355.467,483/1000,91,128.0
3864,F4,355.467,483/1000,91,128.0
3865,G#4,355.5,0.5,102,128.0
3866,C2,355.5,0.5,84,128.0
3867,C#3,355.5,0.5,98,128.0
3868,G#3,355.5,0.5,98,128.0
3869,C#4,355.5,0.5,98,128.0
3870,E-4,355.5,0.5,98,128.0
3871,G#4,355.542,229/500,102,128.0
3872,C#3,355.95,1.5,92,128.0
3873,G#3,355.95,1.5,92,128.0
3874,C#4,355.95,1.5,92,128.0
3875,F4,355.95,1.5,92,128.0
3876,G#3,355.95,1017/1000,91,128.0
3877,C#4,355.95,1017/1000,91,128.0
3878,F4,355.95,1017/1000,91,128.0
3879,G#4,356.0,373/250,102,128.0
3880,G#4,356.0,1533/1000,102,128.0
3881,C#2,356.0,9/10,95,128.0
3882,C#3,356.0,29/20,92,128.0
3883,G#3,356.0,29/20,92,128.0
3884,C#4,356.0,29/20,92,128.0
3885,F4,356.0,29/20,92,128.0
3886,C2,356.0,1.0,62,128.0
3887,G3,356.0,1.0,62,128.0
3888,G#1,357.0,9/20,95,128.0
3889,F3,357.0,0.5,94,128.0
3890,E2,357.0,0.5,94,128.0
3891,C#3,357.45,0.5,95,128.0
3892,G#3,357.467,1.5,91,128.0
3893,C#4,357.467,1.5,91,128.0
3894,F4,357.467,1.5,91,128.0
3895,F4,357.5,2.0,102,128.0
3896,C#2,357.5,9/20,95,128.0
3897,C2,357.5,0.5,80,128.0
3898,C#3,357.5,39/20,92,128.0
3899,G#3,357.5,39/20,92,128.0
3900,C#4,357.5,39/20,92,128.0
3901,F4,357.5,39/20,92,128.0
3902,F4,357.542,2.0,102,128.0
3903,C#3,357.95,1.5,92,128.0
3904,G#3,357.95,1.5,92,128.0
3905,C#4,357.95,1.5,92,128.0
3906,F4,357.95,1.5,92,128.0
3907,C#2,358.0,1.0,95,128.0
3908,C2,358.0,1.0,78,128.0
3909,F3,358.0,1.0,78,128.0
3910,F3,359.0,0.5,98,128.0
3911,E2,359.0,0.5,98,128.0
3912,C#3,359.45,0.5,92,128.0
3913,G#3,359.45,0.5,92,128.0
3914,C#4,359.45,0.5,92,128.0
3915,F4,359.45,0.5,92,128.0
3916,G#4,359.5,0.5,102,128.0
3917,C#2,359.5,9/20,95,128.0
3918,C2,359.5,0.5,82,128.0
3919,C#3,359.5,0.5,92,128.0
3920,G#3,359.5,0.5,92,128.0
3921,C#4,359.5,0.5,92,128.0
3922,F4,359.5,0.5,92,128.0
3923,G#4,359.542,229/500,102,128.0
3924,C#3,359.95,29/20,95,128.0
3925,G#3,359.95,29/20,95,128.0
3926,C#4,359.95,29/20,95,128.0
3927,F4,359.95,29/20,95,128.0
3928,G#4,360.0,373/250,102,128.0
3929,G#4,360.0,1533/1000,102,128.0
3930,C#2,360.0,1.25,95,128.0
3931,C#3,360.0,967/1000,98,128.0
3932,G#3,360.0,967/1000,98,128.0
3933,C#4,360.0,967/1000,98,128.0
3934,C2,360.0,1.0,78,128.0
3935,F3,360.0,1.0,78,128.0
3936,F4,361.0,0.5,89,128.0
3937,F3,361.0,0.5,98,128.0
3938,E2,361.0,0.5,98,128.0
3939,C#3,361.45,0.5,83,128.0
3940,G#3,361.45,0.5,83,128.0
3941,C#4,361.45,0.5,83,128.0
3942,F4,361.45,0.5,83,128.0
3943,F4,361.5,1.5,102,128.0
3944,C#2,361.5,9/20,95,128.0
3945,C2,361.5,0.5,81,128.0
3946,G#3,361.5,967/1000,82,128.0
3947,C#4,361.5,967/1000,82,128.0
3948,F#4,361.5,967/1000,82,128.0
3949,F4,361.542,1.5,102,128.0
3950,C#3,361.95,1.5,95,128.0
3951,G#3,361.95,1.5,95,128.0
3952,C#4,361.95,1.5,95,128.0
3953,F4,361.95,1.5,95,128.0
3954,C#2,362.0,9/10,95,128.0
3955,C2,362.0,1.0,76,128.0
3956,F3,362.0,1.0,76,128.0
3957,F4,362.5,0.5,89,128.0
3958,C#5,363.0,0.5,102,128.0
3959,G#1,363.0,9/20,102,128.0
3960,G#3,363.0,483/1000,98,128.0
3961,C#4,363.0,483/1000,98,128.0
3962,F3,363.0,1.0,97,128.0
3963,E2,363.0,1.0,97,128.0
3964,C#5,363.042,0.5,102,128.0
3965,C#3,363.45,0.5,95,128.0
3966,G#3,363.45,0.5,95,128.0
3967,C#4,363.45,0.5,95,128.0
3968,F4,363.45,0.5,95,128.0
3969,C#5,363.5,0.5,102,128.0
3970,B-1,363.5,9/20,102,128.0
3971,C#3,363.5,0.5,98,128.0
3972,G#3,363.5,0.5,98,128.0
3973,C#5,363.542,229/500,102,128.0
3974,C#3,363.95,29/20,95,128.0
3975,G#3,363.95,29/20,95,128.0
3976,C#4,363.95,29/20,95,128.0
3977,F4,363.95,29/20,95,128.0
3978,C#5,364.0,373/250,102,128.0
3979,C#5,364.0,1533/1000,102,128.0
3980,B1,364.0,9/10,102,128.0
3981,B2,364.0,933/1000,98,128.0
3982,E-3,364.0,933/1000,98,128.0
3983,F#3,364.0,933/1000,98,128.0
3984,B3,364.0,933/1000,98,128.0
3985,E-4,364.0,933/1000,98,128.0
3986,C2,364.0,1.0,78,128.0
3987,F3,364.0,1.0,78,128.0
3988,C#4,365.0,0.5,98,128.0
3989,G#1,365.0,9/20,102,128.0
3990,F3,365.0,0.5,100,128.0
3991,E2,365.0,0.5,100,128.0
3992,F4,365.45,0.5,70,128.0
3993,E-5,365.5,2.0,102,128.0
3994,B1,365.5,9/20,102,128.0
3995,C2,365.5,0.5,88,128.0
3996,B2,365.5,2.5,98,128.0
3997,E-3,365.5,2.5,98,128.0
3998,F#3,365.5,2.5,98,128.0
3999,B3,365.5,2.5,98,128.0
4000,E-4,365.5,2.5,98,128.0
4001,E-5,365.542,2.0,102,128.0
4002,F#4,365.95,0.5,70,128.0
4003,B1,366.0,9/10,102,128.0
4004,C2,366.0,1.0,81,128.0
4005,F3,366.0,1.0,81,128.0
4006,F4,366.45,0.5,70,128.0
4007,E-4,366.95,1.0,70,128.0
4008,G#1,367.0,9/20,102,128.0
4009,F3,367.0,1.0,98,128.0
4010,E2,367.0,1.0,98,128.0
4011,E-5,367.5,0.5,102,128.0
4012,B1,367.5,9/20,102,128.0
4013,E-5,367.542,229/500,102,128.0
4014,B2,367.95,29/20,95,128.0
4015,E-3,367.95,29/20,95,128.0
4016,F#3,367.95,29/20,95,128.0
4017,B3,367.95,29/20,95,128.0
4018,E-5,368.0,1.5,102,128.0
4019,E-5,368.0,21/500,102,128.0
4020,B1,368.0,9/10,102,128.0
4021,B2,368.0,249/125,98,128.0
4022,E-3,368.0,249/125,98,128.0
4023,C2,368.0,1.0,78,128.0
4024,F3,368.0,1.0,78,128.0
4025,F#3,368.017,479/500,98,128.0
4026,E-4,368.017,1433/1000,95,128.0
4027,C#4,368.025,9/20,98,128.0
4028,E-5,368.042,1.5,102,128.0
4029,B3,368.5,0.5,98,128.0
4030,F#3,369.0,0.5,98,128.0
4031,G#1,369.0,9/20,102,128.0
4032,F3,369.0,0.5,98,128.0
4033,E2,369.0,0.5,98,128.0
4034,B2,369.45,9/20,95,128.0
4035,E-3,369.45,9/20,95,128.0
4036,F#3,369.45,9/20,95,128.0
4037,B3,369.45,9/20,95,128.0
4038,C#5,369.5,39/20,102,128.0
4039,B3,369.5,2.0,98,128.0
4040,B1,369.5,9/20,102,128.0
4041,C2,369.5,0.5,87,128.0
4042,E-4,369.517,433/1000,95,128.0
4043,C#5,369.542,39/20,102,128.0
4044,B2,369.95,1.5,95,128.0
4045,E-3,369.95,1.5,95,128.0
4046,F#3,369.95,1.5,95,128.0
4047,B3,369.95,1.5,95,128.0
4048,B1,370.0,9/20,102,128.0
4049,C2,370.0,0.5,77,128.0
4050,F3,370.0,0.5,77,128.0
4051,E-4,370.017,1.5,95,128.0
4052,B-1,370.5,9/20,102,128.0
4053,C2,370.5,0.5,80,128.0
4054,G#1,371.0,9/20,102,128.0
4055,F3,371.0,1.0,96,128.0
4056,E2,371.0,1.0,96,128.0
4057,B2,371.45,0.5,95,128.0
4058,E-3,371.45,0.5,95,128.0
4059,F#3,371.45,0.5,95,128.0
4060,B3,371.45,0.5,95,128.0
4061,B-4,371.458,271/500,102,128.0
4062,B-4,371.5,0.5,102,128.0
4063,F#3,371.5,0.5,98,128.0
4064,G#1,371.5,9/20,102,128.0
4065,E-4,371.517,433/1000,95,128.0
4066,E-4,371.95,67/1000,95,128.0
4067,B2,371.95,29/20,95,128.0
4068,E-3,371.95,29/20,95,128.0
4069,F#3,371.95,29/20,95,128.0
4070,B3,371.95,29/20,95,128.0
4071,B-4,372.0,1.0,102,128.0
4072,B-4,372.0,521/500,102,128.0
4073,F#1,372.0,9/10,95,128.0
4074,F#2,372.0,933/1000,98,128.0
4075,B-2,372.0,933/1000,98,128.0
4076,C#3,372.0,933/1000,98,128.0
4077,F#3,372.0,933/1000,98,128.0
4078,C#4,372.0,933/1000,98,128.0
4079,C2,372.0,1.0,80,128.0
4080,F3,372.0,1.0,80,128.0
4081,E-4,372.017,1433/1000,95,128.0
4082,F#4,373.0,0.5,102,128.0
4083,F#3,373.0,0.5,98,128.0
4084,E-1,373.0,9/20,95,128.0
4085,F3,373.0,1.0,94,128.0
4086,E2,373.0,1.0,94,128.0
4087,F#4,373.042,0.5,102,128.0
4088,E-4,373.45,0.5,95,128.0
4089,C#4,373.5,729/500,102,128.0
4090,F#1,373.5,9/20,95,128.0
4091,F#2,373.5,2.5,98,128.0
4092,B-2,373.5,2.5,98,128.0
4093,C#3,373.5,2.5,98,128.0
4094,F#3,373.5,2.5,98,128.0
4095,B-3,373.5,2.5,98,128.0
4096,C#4,373.542,729/500,102,128.0
4097,F#4,373.95,0.5,95,128.0
4098,F#1,374.0,9/10,95,128.0
4099,C2,374.0,1.0,79,128.0
4100,F3,374.0,1.0,79,128.0
4101,F4,374.45,0.5,95,128.0
4102,G#4,374.95,1.0,102,128.0
4103,E-4,374.95,1.0,95,128.0
4104,G#4,374.992,1.0,102,128.0
4105,E-1,375.0,9/20,95,128.0
4106,F3,375.0,1.0,98,128.0
4107,E2,375.0,1.0,98,128.0
4108,F#1,375.5,9/20,95,128.0
4109,F#2,375.95,29/20,95,128.0
4110,B-2,375.95,29/20,95,128.0
4111,C#3,375.95,29/20,95,128.0
4112,F#3,375.95,29/20,95,128.0
4113,G#4,376.0,1.0,102,128.0
4114,F#1,376.0,9/20,102,128.0
4115,F#2,376.0,3933/1000,98,128.0
4116,B-2,376.0,3933/1000,98,128.0
4117,C#3,376.0,3933/1000,98,128.0
4118,F#3,376.0,3933/1000,98,128.0
4119,B-3,376.0,3933/1000,98,128.0
4120,C2,376.0,1.0,82,128.0
4121,F3,376.0,1.0,82,128.0
4122,C#4,376.017,1.5,95,128.0
4123,G#4,376.042,1.0,102,128.0
4124,E-1,376.5,9/20,102,128.0
4125,C#5,377.0,0.375,102,128.0
4126,E2,377.0,9/20,89,128.0
4127,F3,377.0,0.5,96,128.0
4128,E2,377.0,0.5,96,128.0
4129,C#5,377.042,0.375,102,128.0
4130,F#2,377.45,9/20,95,128.0
4131,B-2,377.45,9/20,95,128.0
4132,C#3,377.45,9/20,95,128.0
4133,F#3,377.45,9/20,95,128.0
4134,C#5,377.5,2.0,102,128.0
4135,F2,377.5,9/20,89,128.0
4136,C2,377.5,0.5,85,128.0
4137,C#4,377.517,0.5,95,128.0
4138,C#5,377.542,2.0,102,128.0
4139,F#2,377.95,29/20,95,128.0
4140,B-2,377.95,29/20,95,128.0
4141,C#3,377.95,29/20,95,128.0
4142,F#3,377.95,29/20,95,128.0
4143,F#2,378.0,9/20,89,128.0
4144,C2,378.0,1.0,82,128.0
4145,F3,378.0,1.0,82,128.0
4146,C#4,378.017,1.5,95,128.0
4147,G#1,378.5,9/20,102,128.0
4148,B1,379.0,9/20,102,128.0
4149,F3,379.0,1.0,98,128.0
4150,E2,379.0,1.0,98,128.0
4151,F#2,379.45,0.5,95,128.0
4152,B-2,379.45,0.5,95,128.0
4153,C#3,379.45,0.5,95,128.0
4154,F#3,379.45,0.5,95,128.0
4155,E-5,379.5,0.5,102,128.0
4156,C2,379.5,9/20,95,128.0
4157,C#4,379.517,433/1000,95,128.0
4158,E-5,379.542,229/500,102,128.0
4159,C#4,379.95,67/1000,95,128.0
4160,F#2,379.95,1.5,95,128.0
4161,B-2,379.95,1.5,95,128.0
4162,C#3,379.95,1.5,95,128.0
4163,F#3,379.95,1.5,95,128.0
4164,E-5,380.0,4.0,102,128.0
4165,E-5,380.0,4.0,102,128.0
4166,C#2,380.0,9/10,95,128.0
4167,C#3,380.0,967/1000,98,128.0
4168,G#3,380.0,967/1000,98,128.0
4169,C#4,380.0,967/1000,98,128.0
4170,C2,380.0,1.0,80,128.0
4171,F3,380.0,1.0,80,128.0
4172,C#4,380.017,1.5,95,128.0
4173,G#5,380.5,3.5,102,128.0
4174,G#5,380.542,1729/500,102,128.0
4175,G#1,381.0,9/20,95,128.0
4176,C#3,381.0,0.5,98,128.0
4177,G#3,381.0,0.5,98,128.0
4178,C#4,381.0,0.5,98,128.0
4179,F3,381.0,0.5,96,128.0
4180,E2,381.0,0.5,96,128.0
4181,C#4,381.45,0.5,83,128.0
4182,C#2,381.5,9/20,95,128.0
4183,C2,381.5,0.5,89,128.0
4184,C#3,381.5,0.5,98,128.0
4185,G#3,381.5,0.5,98,128.0
4186,C#4,381.5,0.5,98,128.0
4187,F#4,381.95,0.5,83,128.0
4188,C#2,382.0,1.0,95,128.0
4189,C#3,382.0,0.5,98,128.0
4190,G#3,382.0,0.5,98,128.0
4191,C#4,382.0,0.5,98,128.0
4192,C2,382.0,1.0,81,128.0
4193,F3,382.0,1.0,81,128.0
4194,F4,382.45,0.5,83,128.0
4195,C#3,382.5,0.5,98,128.0
4196,G#3,382.5,0.5,98,128.0
4197,C#4,382.5,0.5,98,128.0
4198,E-4,382.95,1.0,83,128.0
4199,C#3,383.0,0.5,98,128.0
4200,G#3,383.0,0.5,98,128.0
4201,C#4,383.0,0.5,98,128.0
4202,F3,383.0,0.5,100,128.0
4203,E2,383.0,0.5,100,128.0
4204,C#2,383.5,9/20,95,128.0
4205,C2,383.5,0.5,80,128.0
4206,C#3,383.5,0.5,98,128.0
4207,G#3,383.5,0.5,98,128.0
4208,C#4,383.5,0.5,98,128.0
4209,C#3,383.95,1.5,92,128.0
4210,G#3,383.95,1.5,92,128.0
4211,C#4,383.95,1.5,92,128.0
4212,F4,383.95,1.5,92,128.0
4213,E-5,384.0,4.0,102,128.0
4214,E-5,384.0,4.0,102,128.0
4215,G#5,384.0,4.0,102,128.0
4216,G#5,384.0,4.0,102,128.0
4217,G#1,384.0,9/20,102,128.0
4218,C#3,384.0,19/40,98,128.0
4219,G#3,384.0,19/40,98,128.0
4220,C#4,384.0,19/40,98,128.0
4221,F#4,384.0,19/40,98,128.0
4222,C2,384.0,0.5,78,128.0
4223,F3,384.0,0.5,78,128.0
4224,C#3,384.5,9/40,89,128.0
4225,C#3,384.5,19/40,98,128.0
4226,G#3,384.5,19/40,98,128.0
4227,C#4,384.5,19/40,98,128.0
4228,F4,384.5,19/40,98,128.0
4229,C#3,384.5,1.0,94,128.0
4230,E2,384.5,1.0,94,128.0
4231,C#3,384.75,9/40,89,128.0
4232,C#3,385.0,9/20,89,128.0
4233,C#3,385.0,0.5,98,128.0
4234,G#3,385.0,0.5,98,128.0
4235,C#4,385.0,0.5,98,128.0
4236,E-4,385.0,0.5,98,128.0
4237,C#3,385.45,0.5,95,128.0
4238,G#3,385.467,1.5,91,128.0
4239,C#4,385.467,1.5,91,128.0
4240,F4,385.467,1.5,91,128.0
4241,C#3,385.5,9/40,89,128.0
4242,C2,385.5,0.5,87,128.0
4243,C#3,385.5,2.5,98,128.0
4244,G#3,385.5,2.5,98,128.0
4245,C#4,385.5,2.5,98,128.0
4246,F4,385.5,2.5,98,128.0
4247,C#3,385.75,9/40,89,128.0
4248,C#3,385.95,1.5,92,128.0
4249,G#3,385.95,1.5,92,128.0
4250,C#4,385.95,1.5,92,128.0
4251,F4,385.95,1.5,92,128.0
4252,C#3,386.0,9/20,89,128.0
4253,C#3,386.0,0.5,96,128.0
4254,E2,386.0,0.5,96,128.0
4255,C#3,386.5,9/20,89,128.0
4256,C2,386.5,0.5,82,128.0
4257,C#3,387.0,9/20,89,128.0
4258,C#3,387.0,0.75,97,128.0
4259,E2,387.0,0.75,97,128.0
4260,C#3,387.45,0.5,95,128.0
4261,G#3,387.467,483/1000,95,128.0
4262,C#4,387.467,483/1000,95,128.0
4263,F4,387.5,9/20,83,128.0
4264,E-1,387.5,9/20,102,128.0
4265,C2,387.5,0.25,87,128.0
4266,F4,387.95,1.0,83,128.0
4267,C#3,387.95,19/40,89,128.0
4268,F#4,387.95,19/40,89,128.0
4269,G#3,387.95,483/1000,95,128.0
4270,C#4,387.95,483/1000,95,128.0
4271,G#3,387.958,983/1000,89,128.0
4272,C#4,387.958,983/1000,89,128.0
4273,E-5,388.0,21/500,102,128.0
4274,G#5,388.0,21/500,102,128.0
4275,G#1,388.0,1.25,102,128.0
4276,G#2,388.0,1.0,102,128.0
4277,E-3,388.0,1.0,102,128.0
4278,G#3,388.0,1.0,102,128.0
4279,C2,388.0,1.0,69,128.0
4280,A3,388.0,1.0,69,128.0
4281,C#3,388.45,21/40,89,128.0
4282,G#3,388.45,21/40,89,128.0
4283,C#4,388.45,21/40,89,128.0
4284,F4,388.45,21/40,89,128.0
4285,C#3,388.95,0.5,89,128.0
4286,G#3,388.95,0.5,89,128.0
4287,C#4,388.95,0.5,89,128.0
4288,E-4,388.95,0.5,89,128.0
4289,E2,389.0,0.5,125,128.0
4290,G#2,389.2,1.0,102,128.0
4291,E-3,389.2,1.0,102,128.0
4292,G#3,389.2,1.0,102,128.0
4293,C#3,389.45,2.5,89,128.0
4294,G#3,389.45,2.5,89,128.0
4295,C#4,389.45,2.5,89,128.0
4296,F4,389.45,2.5,89,128.0
4297,G#1,389.5,27/20,102,128.0
4298,G#2,389.5,1467/1000,102,128.0
4299,E-3,389.5,1467/1000,102,128.0
4300,G#3,389.5,1467/1000,102,128.0
4301,C2,389.5,1.0,72,128.0
4302,C#3,389.5,1.0,72,128.0
4303,F#2,390.5,0.5,72,128.0
4304,G#2,390.7,1467/1000,102,128.0
4305,E-3,390.7,1467/1000,102,128.0
4306,G#3,390.7,1467/1000,102,128.0
4307,G#1,391.0,9/20,102,128.0
4308,B-2,391.0,221/500,102,128.0
4309,F3,391.0,221/500,102,128.0
4310,B-3,391.0,221/500,102,128.0
4311,F#2,391.0,0.5,92,128.0
4312,E2,391.0,0.5,92,128.0
4313,B-1,391.5,9/20,102,128.0
4314,B-2,391.5,467/1000,102,128.0
4315,F3,391.5,467/1000,102,128.0
4316,B-3,391.5,467/1000,102,128.0
4317,C2,391.5,0.5,75,128.0
4318,F#2,391.5,0.5,75,128.0
4319,G#2,391.95,1.0,102,128.0
4320,E-3,391.95,1.0,102,128.0
4321,G#3,391.95,1.0,102,128.0
4322,B1,392.0,1.25,102,128.0
4323,B2,392.0,1.0,102,128.0
4324,F#3,392.0,1.0,102,128.0
4325,B3,392.0,1.0,102,128.0
4326,C2,392.0,1.0,68,128.0
4327,C#3,392.0,1.0,68,128.0
4328,B-2,392.2,221/500,102,128.0
4329,F3,392.2,221/500,102,128.0
4330,B-3,392.2,221/500,102,128.0
4331,B-2,392.7,467/1000,102,128.0
4332,F3,392.7,467/1000,102,128.0
4333,B-3,392.7,467/1000,102,128.0
4334,E2,393.0,0.5,127,128.0
4335,B2,393.2,1.0,102,128.0
4336,F#3,393.2,1.0,102,128.0
4337,B3,393.2,1.0,102,128.0
4338,G#2,393.45,1467/1000,102,128.0
4339,E-3,393.45,1467/1000,102,128.0
4340,G#3,393.45,1467/1000,102,128.0
4341,B1,393.5,27/20,102,128.0
4342,B2,393.5,2.5,102,128.0
4343,F#3,393.5,2.5,102,128.0
4344,B3,393.5,2.5,102,128.0
4345,C2,393.5,1.0,78,128.0
4346,C#3,393.5,1.0,78,128.0
4347,C2,394.5,0.5,81,128.0
4348,F#2,394.5,0.5,81,128.0
4349,B2,394.7,2.5,102,128.0
4350,F#3,394.7,2.5,102,128.0
4351,B3,394.7,2.5,102,128.0
4352,B-2,394.95,221/500,102,128.0
4353,F3,394.95,221/500,102,128.0
4354,B-3,394.95,221/500,102,128.0
4355,B1,395.0,9/20,102,128.0
4356,F#2,395.0,0.5,98,128.0
4357,E2,395.0,0.5,98,128.0
4358,B-2,395.45,467/1000,102,128.0
4359,F3,395.45,467/1000,102,128.0
4360,B-3,395.45,467/1000,102,128.0
4361,G#1,395.5,9/20,102,128.0
4362,C2,395.5,0.5,80,128.0
4363,F#2,395.5,0.5,80,128.0
4364,B2,395.95,1.0,102,128.0
4365,F#3,395.95,1.0,102,128.0
4366,B3,395.95,1.0,102,128.0
4367,C#2,396.0,1.25,102,128.0
4368,C#3,396.0,3483/1000,76,128.0
4369,G#3,396.0,3483/1000,76,128.0
4370,C#4,396.0,3483/1000,76,128.0
4371,C#3,396.0,1.0,94,128.0
4372,G#3,396.0,1.0,94,128.0
4373,C#4,396.0,1.0,94,128.0
4374,F4,396.0,1.0,94,128.0
4375,C2,396.0,1.0,78,128.0
4376,C#3,396.0,1.0,78,128.0
4377,C#3,396.042,3483/1000,76,128.0
4378,G#3,396.042,3483/1000,76,128.0
4379,C#4,396.042,3483/1000,76,128.0
4380,C#3,397.0,0.5,94,128.0
4381,G#3,397.0,0.5,94,128.0
4382,C#4,397.0,0.5,94,128.0
4383,F4,397.0,0.5,94,128.0
4384,F#2,397.0,0.5,94,128.0
4385,E2,397.0,0.5,94,128.0
4386,C#3,397.2,1.0,92,128.0
4387,G#3,397.2,1.0,92,128.0
4388,C#4,397.2,1.0,92,128.0
4389,B2,397.45,2.5,102,128.0
4390,F#3,397.45,2.5,102,128.0
4391,B3,397.45,2.5,102,128.0
4392,C#2,397.5,9/20,102,128.0
4393,C#3,397.5,2.0,94,128.0
4394,G#3,397.5,2.0,94,128.0
4395,C#4,397.5,2.0,94,128.0
4396,F4,397.5,2.0,94,128.0
4397,C2,397.5,0.5,76,128.0
4398,F#2,397.5,0.5,76,128.0
4399,C#2,398.0,27/20,102,128.0
4400,C2,398.0,0.5,78,128.0
4401,F#2,398.0,0.5,78,128.0
4402,C#3,398.2,0.5,94,128.0
4403,G#3,398.2,0.5,94,128.0
4404,C#4,398.2,0.5,94,128.0
4405,F4,398.2,0.5,94,128.0
4406,F#2,398.5,0.5,75,128.0
4407,C#3,398.7,2.0,94,128.0
4408,G#3,398.7,2.0,94,128.0
4409,C#4,398.7,2.0,94,128.0
4410,F4,398.7,2.0,94,128.0
4411,F#2,399.0,0.5,98,128.0
4412,E2,399.0,0.5,98,128.0
4413,F4,399.5,0.5,102,128.0
4414,C#2,399.5,9/20,102,128.0
4415,F#2,399.5,0.5,68,128.0
4416,C#3,399.5,0.25,94,128.0
4417,G#3,399.5,0.25,94,128.0
4418,C#4,399.5,0.25,94,128.0
4419,F4,399.5,0.25,94,128.0
4420,F4,399.542,229/500,102,128.0
4421,C#3,399.75,0.25,94,128.0
4422,G#3,399.75,0.25,94,128.0
4423,C#4,399.75,0.25,94,128.0
4424,F4,399.75,0.25,94,128.0
4425,C#3,399.95,1.0,94,128.0
4426,G#3,399.95,1.0,94,128.0
4427,C#4,399.95,1.0,94,128.0
4428,F4,399.95,1.0,94,128.0
4429,F4,400.0,1.0,102,128.0
4430,F4,400.0,521/500,102,128.0
4431,C#2,400.0,9/20,102,128.0
4432,C#3,400.0,19/40,98,128.0
4433,G#3,400.0,19/40,98,128.0
4434,C#4,400.0,19/40,98,128.0
4435,F#4,400.0,19/40,98,128.0
4436,C2,400.0,0.5,77,128.0
4437,F#2,400.0,0.5,77,128.0
4438,C#3,400.5,9/20,89,128.0
4439,F#2,400.5,0.5,69,128.0
4440,C#3,400.5,19/40,98,128.0
4441,G#3,400.5,19/40,98,128.0
4442,C#4,400.5,19/40,98,128.0
4443,F4,400.5,19/40,98,128.0
4444,C#3,400.7,0.25,94,128.0
4445,G#3,400.7,0.25,94,128.0
4446,C#4,400.7,0.25,94,128.0
4447,F4,400.7,0.25,94,128.0
4448,C#3,400.95,0.5,94,128.0
4449,G#3,400.95,0.5,94,128.0
4450,C#4,400.95,0.5,94,128.0
4451,F4,400.95,0.5,94,128.0
4452,C#3,400.95,0.25,94,128.0
4453,G#3,400.95,0.25,94,128.0
4454,C#4,400.95,0.25,94,128.0
4455,F4,400.95,0.25,94,128.0
4456,C#4,401.0,0.5,102,128.0
4457,C#3,401.0,9/20,89,128.0
4458,C#3,401.0,0.5,98,128.0
4459,G#3,401.0,0.5,98,128.0
4460,C#4,401.0,0.5,98,128.0
4461,E-4,401.0,0.5,98,128.0
4462,F#2,401.0,0.5,100,128.0
4463,E2,401.0,0.5,100,128.0
4464,C#4,401.042,0.5,102,128.0
4465,C#3,401.2,19/40,98,128.0
4466,G#3,401.2,19/40,98,128.0
4467,C#4,401.2,19/40,98,128.0
4468,F#4,401.2,19/40,98,128.0
4469,C#3,401.45,2.0,94,128.0
4470,G#3,401.45,2.0,94,128.0
4471,C#4,401.45,2.0,94,128.0
4472,F4,401.45,2.0,94,128.0
4473,G#3,401.5,0.5,102,128.0
4474,C#3,401.5,9/20,89,128.0
4475,C#3,401.5,1.0,98,128.0
4476,G#3,401.5,1.0,98,128.0
4477,C#4,401.5,1.0,98,128.0
4478,F4,401.5,1.0,98,128.0
4479,C2,401.5,0.5,79,128.0
4480,F#2,401.5,0.5,79,128.0
4481,G#3,401.542,0.5,102,128.0
4482,C#3,401.7,19/40,98,128.0
4483,G#3,401.7,19/40,98,128.0
4484,C#4,401.7,19/40,98,128.0
4485,F4,401.7,19/40,98,128.0
4486,F#3,402.0,0.5,102,128.0
4487,G#2,402.0,9/20,95,128.0
4488,C2,402.0,0.5,76,128.0
4489,F#2,402.0,0.5,76,128.0
4490,F#3,402.042,0.5,102,128.0
4491,C#3,402.2,0.5,98,128.0
4492,G#3,402.2,0.5,98,128.0
4493,C#4,402.2,0.5,98,128.0
4494,E-4,402.2,0.5,98,128.0
4495,F3,402.5,0.5,102,128.0
4496,F#2,402.5,9/20,95,128.0
4497,F#2,402.5,0.5,68,128.0
4498,C#3,402.5,0.5,94,128.0
4499,G#3,402.5,0.5,94,128.0
4500,C#4,402.5,0.5,94,128.0
4501,F4,402.5,0.5,94,128.0
4502,F3,402.542,0.5,102,128.0
4503,C#3,402.7,1.0,98,128.0
4504,G#3,402.7,1.0,98,128.0
4505,C#4,402.7,1.0,98,128.0
4506,F4,402.7,1.0,98,128.0
4507,C#3,403.0,0.5,102,128.0
4508,F2,403.0,9/20,102,128.0
4509,C#3,403.0,0.5,94,128.0
4510,G#3,403.0,0.5,94,128.0
4511,C#4,403.0,0.5,94,128.0
4512,F4,403.0,0.5,94,128.0
4513,F#2,403.0,0.5,96,128.0
4514,E2,403.0,0.5,96,128.0
4515,C#3,403.042,0.5,102,128.0
4516,C#3,403.45,0.25,94,128.0
4517,G#3,403.45,0.25,94,128.0
4518,C#4,403.45,0.25,94,128.0
4519,F4,403.45,0.25,94,128.0
4520,B2,403.5,0.5,76,128.0
4521,C#2,403.5,9/20,102,128.0
4522,C#3,403.5,0.5,94,128.0
4523,G#3,403.5,0.5,94,128.0
4524,C#4,403.5,0.5,94,128.0
4525,F4,403.5,0.5,94,128.0
4526,C2,403.5,0.5,82,128.0
4527,F#2,403.5,0.5,82,128.0
4528,B2,403.542,229/500,76,128.0
4529,C#3,403.7,0.25,94,128.0
4530,G#3,403.7,0.25,94,128.0
4531,C#4,403.7,0.25,94,128.0
4532,F4,403.7,0.25,94,128.0
4533,C#3,403.7,0.5,94,128.0
4534,G#3,403.7,0.5,94,128.0
4535,C#4,403.7,0.5,94,128.0
4536,F4,403.7,0.5,94,128.0
4537,C#3,403.95,19/40,98,128.0
4538,G#3,403.95,19/40,98,128.0
4539,C#4,403.95,19/40,98,128.0
4540,F#4,403.95,19/40,98,128.0
4541,B2,404.0,21/500,76,128.0
4542,G#1,404.0,1.25,102,128.0
4543,C2,404.0,1.0,83,128.0
4544,C#3,404.0,0.5,66,128.0
4545,G#2,404.0,1.0,102,128.0
4546,E-3,404.0,1.0,102,128.0
4547,G#3,404.0,1.0,102,128.0
4548,C#3,404.2,0.5,94,128.0
4549,G#3,404.2,0.5,94,128.0
4550,C#4,404.2,0.5,94,128.0
4551,F4,404.2,0.5,94,128.0
4552,C#3,404.45,19/40,98,128.0
4553,G#3,404.45,19/40,98,128.0
4554,C#4,404.45,19/40,98,128.0
4555,F4,404.45,19/40,98,128.0
4556,C#3,404.7,0.5,94,128.0
4557,G#3,404.7,0.5,94,128.0
4558,C#4,404.7,0.5,94,128.0
4559,F4,404.7,0.5,94,128.0
4560,C#3,404.95,0.5,98,128.0
4561,G#3,404.95,0.5,98,128.0
4562,C#4,404.95,0.5,98,128.0
4563,E-4,404.95,0.5,98,128.0
4564,E2,405.0,0.5,127,128.0
4565,G#2,405.2,1.0,102,128.0
4566,E-3,405.2,1.0,102,128.0
4567,G#3,405.2,1.0,102,128.0
4568,C#3,405.45,1.0,98,128.0
4569,G#3,405.45,1.0,98,128.0
4570,C#4,405.45,1.0,98,128.0
4571,F4,405.45,1.0,98,128.0
4572,G#1,405.5,27/20,102,128.0
4573,G#2,405.5,1467/1000,102,128.0
4574,E-3,405.5,1467/1000,102,128.0
4575,G#3,405.5,1467/1000,102,128.0
4576,C2,405.5,1.0,73,128.0
4577,C#3,405.5,1.0,73,128.0
4578,C#3,406.45,0.5,94,128.0
4579,G#3,406.45,0.5,94,128.0
4580,C#4,406.45,0.5,94,128.0
4581,F4,406.45,0.5,94,128.0
4582,C2,406.5,0.5,76,128.0
4583,F#2,406.5,0.5,76,128.0
4584,G#2,406.7,1467/1000,102,128.0
4585,E-3,406.7,1467/1000,102,128.0
4586,G#3,406.7,1467/1000,102,128.0
4587,C#3,406.95,0.5,94,128.0
4588,G#3,406.95,0.5,94,128.0
4589,C#4,406.95,0.5,94,128.0
4590,F4,406.95,0.5,94,128.0
4591,G#1,407.0,9/20,102,128.0
4592,B-2,407.0,221/500,102,128.0
4593,F3,407.0,221/500,102,128.0
4594,B-3,407.0,221/500,102,128.0
4595,F#2,407.0,0.5,101,128.0
4596,E2,407.0,0.5,101,128.0
4597,C#3,407.45,0.5,94,128.0
4598,G#3,407.45,0.5,94,128.0
4599,C#4,407.45,0.5,94,128.0
4600,F4,407.45,0.5,94,128.0
4601,B-1,407.5,9/20,102,128.0
4602,B-2,407.5,467/1000,102,128.0
4603,F3,407.5,467/1000,102,128.0
4604,B-3,407.5,467/1000,102,128.0
4605,C2,407.5,0.5,74,128.0
4606,F#2,407.5,0.5,74,128.0
4607,G#2,407.95,1.0,102,128.0
4608,E-3,407.95,1.0,102,128.0
4609,G#3,407.95,1.0,102,128.0
4610,B1,408.0,1.25,102,128.0
4611,B2,408.0,1.0,102,128.0
4612,F#3,408.0,1.0,102,128.0
4613,B3,408.0,1.0,102,128.0
4614,C2,408.0,0.5,78,128.0
4615,F#2,408.0,0.5,78,128.0
4616,B-2,408.2,221/500,102,128.0
4617,F3,408.2,221/500,102,128.0
4618,B-3,408.2,221/500,102,128.0
4619,F#2,408.5,0.5,73,128.0
4620,B-2,408.7,467/1000,102,128.0
4621,F3,408.7,467/1000,102,128.0
4622,B-3,408.7,467/1000,102,128.0
4623,F#2,409.0,0.5,95,128.0
4624,E2,409.0,0.5,95,128.0
4625,B2,409.2,1.0,102,128.0
4626,F#3,409.2,1.0,102,128.0
4627,B3,409.2,1.0,102,128.0
4628,G#2,409.45,1467/1000,102,128.0
4629,E-3,409.45,1467/1000,102,128.0
4630,G#3,409.45,1467/1000,102,128.0
4631,B1,409.5,27/20,102,128.0
4632,B2,409.5,2.5,102,128.0
4633,F#3,409.5,2.5,102,128.0
4634,B3,409.5,2.5,102,128.0
4635,C2,409.5,0.5,76,128.0
4636,F#2,409.5,0.5,76,128.0
4637,C2,410.0,0.5,79,128.0
4638,F#2,410.0,0.5,79,128.0
4639,F#2,410.5,0.5,74,128.0
4640,B2,410.7,2.5,102,128.0
4641,F#3,410.7,2.5,102,128.0
4642,B3,410.7,2.5,102,128.0
4643,B-2,410.95,221/500,102,128.0
4644,F3,410.95,221/500,102,128.0
4645,B-3,410.95,221/500,102,128.0
4646,B1,411.0,9/20,102,128.0
4647,F#2,411.0,0.5,94,128.0
4648,E2,411.0,0.5,94,128.0
4649,B-2,411.45,467/1000,102,128.0
4650,F3,411.45,467/1000,102,128.0
4651,B-3,411.45,467/1000,102,128.0
4652,B1,411.5,9/40,102,128.0
4653,F#2,411.5,0.5,72,128.0
4654,C2,411.75,9/40,102,128.0
4655,B2,411.95,1.0,102,128.0
4656,F#3,411.95,1.0,102,128.0
4657,B3,411.95,1.0,102,128.0
4658,C#2,412.0,1.25,102,128.0
4659,C#3,412.0,4.0,94,128.0
4660,G#3,412.0,4.0,94,128.0
4661,C#4,412.0,4.0,94,128.0
4662,F4,412.0,4.0,94,128.0
4663,C2,412.0,1.0,77,128.0
4664,C#3,412.0,1.0,77,128.0
4665,F#2,413.0,0.5,92,128.0
4666,E2,413.0,0.5,92,128.0
4667,C#3,413.2,4.0,94,128.0
4668,G#3,413.2,4.0,94,128.0
4669,C#4,413.2,4.0,94,128.0
4670,F4,413.2,4.0,94,128.0
4671,B2,413.45,2.5,102,128.0
4672,F#3,413.45,2.5,102,128.0
4673,B3,413.45,2.5,102,128.0
4674,C#2,413.5,9/20,102,128.0
4675,C2,413.5,0.5,74,128.0
4676,F#2,413.5,0.5,74,128.0
4677,C#2,414.0,27/20,102,128.0
4678,C2,414.0,0.5,81,128.0
4679,F#2,414.0,0.5,81,128.0
4680,F#2,414.5,0.5,75,128.0
4681,F#2,415.0,0.5,96,128.0
4682,E2,415.0,0.5,96,128.0
4683,C#2,415.5,9/20,102,128.0
4684,C2,415.5,0.5,80,128.0
4685,F#2,415.5,0.5,80,128.0
4686,C#3,415.95,4.0,94,128.0
4687,G#3,415.95,4.0,94,128.0
4688,C#4,415.95,4.0,94,128.0
4689,F4,415.95,4.0,94,128.0
4690,C#2,416.0,9/20,102,128.0
4691,C#3,416.0,667/1000,94,128.0
4692,G#3,416.0,667/1000,94,128.0
4693,C#4,416.0,667/1000,94,128.0
4694,F4,416.0,667/1000,94,128.0
4695,C2,416.0,0.5,78,128.0
4696,F#2,416.0,0.5,78,128.0
4697,E-1,416.5,9/20,102,128.0
4698,F#2,416.5,0.5,66,128.0
4699,C#3,416.667,667/1000,94,128.0
4700,G#3,416.667,667/1000,94,128.0
4701,C#4,416.667,667/1000,94,128.0
4702,F4,416.667,667/1000,94,128.0
4703,F1,417.0,9/20,102,128.0
4704,F#2,417.0,0.5,96,128.0
4705,E2,417.0,0.5,96,128.0
4706,C#3,417.2,667/1000,94,128.0
4707,G#3,417.2,667/1000,94,128.0
4708,C#4,417.2,667/1000,94,128.0
4709,F4,417.2,667/1000,94,128.0
4710,C#3,417.333,667/1000,94,128.0
4711,G#3,417.333,667/1000,94,128.0
4712,C#4,417.333,667/1000,94,128.0
4713,F4,417.333,667/1000,94,128.0
4714,E-1,417.5,9/20,102,128.0
4715,C2,417.5,0.5,73,128.0
4716,F#2,417.5,0.5,73,128.0
4717,C#3,417.867,667/1000,94,128.0
4718,G#3,417.867,667/1000,94,128.0
4719,C#4,417.867,667/1000,94,128.0
4720,F4,417.867,667/1000,94,128.0
4721,F#1,418.0,9/20,102,128.0
4722,C#3,418.0,667/1000,94,128.0
4723,G#3,418.0,667/1000,94,128.0
4724,C#4,418.0,667/1000,94,128.0
4725,F4,418.0,667/1000,94,128.0
4726,C2,418.0,0.5,76,128.0
4727,F#2,418.0,0.5,76,128.0
4728,E-1,418.5,9/20,102,128.0
4729,F#2,418.5,0.5,69,128.0
4730,C#3,418.533,667/1000,94,128.0
4731,G#3,418.533,667/1000,94,128.0
4732,C#4,418.533,667/1000,94,128.0
4733,F4,418.533,667/1000,94,128.0
4734,C#3,418.667,667/1000,94,128.0
4735,G#3,418.667,667/1000,94,128.0
4736,C#4,418.667,667/1000,94,128.0
4737,F4,418.667,667/1000,94,128.0
4738,G1,419.0,9/20,102,128.0
4739,F#2,419.0,0.5,98,128.0
4740,E2,419.0,0.5,98,128.0
4741,C#3,419.2,667/1000,94,128.0
4742,G#3,419.2,667/1000,94,128.0
4743,C#4,419.2,667/1000,94,128.0
4744,F4,419.2,667/1000,94,128.0
4745,C#3,419.333,667/1000,94,128.0
4746,G#3,419.333,667/1000,94,128.0
4747,C#4,419.333,667/1000,94,128.0
4748,F4,419.333,667/1000,94,128.0
4749,E-1,419.5,9/20,102,128.0
4750,F#2,419.5,0.5,66,128.0
4751,C#3,419.867,667/1000,94,128.0
4752,G#3,419.867,667/1000,94,128.0
4753,C#4,419.867,667/1000,94,128.0
4754,F4,419.867,667/1000,94,128.0
4755,C#3,419.95,667/1000,94,128.0
4756,G#3,419.95,667/1000,94,128.0
4757,C#4,419.95,667/1000,94,128.0
4758,F4,419.95,667/1000,94,128.0
4759,G#1,420.0,1.25,102,128.0
4760,G#2,420.0,1.0,102,128.0
4761,E-3,420.0,1.0,102,128.0
4762,G#3,420.0,1.0,102,128.0
4763,C2,420.0,1.0,74,128.0
4764,C#3,420.0,1.0,74,128.0
4765,C#3,420.533,667/1000,94,128.0
4766,G#3,420.533,667/1000,94,128.0
4767,C#4,420.533,667/1000,94,128.0
4768,F4,420.533,667/1000,94,128.0
4769,C#3,420.617,667/1000,94,128.0
4770,G#3,420.617,667/1000,94,128.0
4771,C#4,420.617,667/1000,94,128.0
4772,F4,420.617,667/1000,94,128.0
4773,E2,421.0,0.5,120,128.0
4774,G#2,421.2,1.0,102,128.0
4775,E-3,421.2,1.0,102,128.0
4776,G#3,421.2,1.0,102,128.0
4777,C#3,421.283,667/1000,94,128.0
4778,G#3,421.283,667/1000,94,128.0
4779,C#4,421.283,667/1000,94,128.0
4780,F4,421.283,667/1000,94,128.0
4781,G#1,421.5,27/20,102,128.0
4782,G#2,421.5,1467/1000,102,128.0
4783,E-3,421.5,1467/1000,102,128.0
4784,G#3,421.5,1467/1000,102,128.0
4785,C2,421.5,1.0,72,128.0
4786,C#3,421.5,1.0,72,128.0
4787,C#3,421.95,667/1000,94,128.0
4788,G#3,421.95,667/1000,94,128.0
4789,C#4,421.95,667/1000,94,128.0
4790,F4,421.95,667/1000,94,128.0
4791,F#2,422.5,0.5,68,128.0
4792,C#3,422.617,667/1000,94,128.0
4793,G#3,422.617,667/1000,94,128.0
4794,C#4,422.617,667/1000,94,128.0
4795,F4,422.617,667/1000,94,128.0
4796,G#2,422.7,1467/1000,102,128.0
4797,E-3,422.7,1467/1000,102,128.0
4798,G#3,422.7,1467/1000,102,128.0
4799,G#1,423.0,9/20,102,128.0
4800,B-2,423.0,221/500,102,128.0
4801,F3,423.0,221/500,102,128.0
4802,B-3,423.0,221/500,102,128.0
4803,F#2,423.0,0.5,94,128.0
4804,E2,423.0,0.5,94,128.0
4805,C#3,423.283,667/1000,94,128.0
4806,G#3,423.283,667/1000,94,128.0
4807,C#4,423.283,667/1000,94,128.0
4808,F4,423.283,667/1000,94,128.0
4809,B-1,423.5,9/20,102,128.0
4810,F#2,423.5,0.5,74,128.0
4811,B-2,423.5,467/1000,102,128.0
4812,F3,423.5,467/1000,102,128.0
4813,B-3,423.5,467/1000,102,128.0
4814,G#2,423.95,1.0,102,128.0
4815,E-3,423.95,1.0,102,128.0
4816,G#3,423.95,1.0,102,128.0
4817,B1,424.0,1.25,102,128.0
4818,B2,424.0,1.0,102,128.0
4819,F#3,424.0,1.0,102,128.0
4820,B3,424.0,1.0,102,128.0
4821,C2,424.0,1.0,78,128.0
4822,C#3,424.0,1.0,78,128.0
4823,B-2,424.2,221/500,102,128.0
4824,F3,424.2,221/500,102,128.0
4825,B-3,424.2,221/500,102,128.0
4826,B-2,424.7,467/1000,102,128.0
4827,F3,424.7,467/1000,102,128.0
4828,B-3,424.7,467/1000,102,128.0
4829,E2,425.0,0.5,127,128.0
4830,B2,425.2,1.0,102,128.0
4831,F#3,425.2,1.0,102,128.0
4832,B3,425.2,1.0,102,128.0
4833,G#2,425.45,1467/1000,102,128.0
4834,E-3,425.45,1467/1000,102,128.0
4835,G#3,425.45,1467/1000,102,128.0
4836,B1,425.5,27/20,102,128.0
4837,B2,425.5,2.5,102,128.0
4838,F#3,425.5,2.5,102,128.0
4839,B3,425.5,2.5,102,128.0
4840,C2,425.5,1.0,78,128.0
4841,C#3,425.5,1.0,78,128.0
4842,F#2,426.5,0.5,68,128.0
4843,B2,426.7,2.5,102,128.0
4844,F#3,426.7,2.5,102,128.0
4845,B3,426.7,2.5,102,128.0
4846,B-2,426.95,221/500,102,128.0
4847,F3,426.95,221/500,102,128.0
4848,B-3,426.95,221/500,102,128.0
4849,B1,427.0,9/20,102,128.0
4850,F#2,427.0,0.5,96,128.0
4851,E2,427.0,0.5,96,128.0
4852,B-2,427.45,467/1000,102,128.0
4853,F3,427.45,467/1000,102,128.0
4854,B-3,427.45,467/1000,102,128.0
4855,G#1,427.5,9/40,102,128.0
4856,C2,427.5,0.5,75,128.0
4857,F#2,427.5,0.5,75,128.0
4858,G#1,427.75,9/40,102,128.0
4859,B2,427.95,1.0,102,128.0
4860,F#3,427.95,1.0,102,128.0
4861,B3,427.95,1.0,102,128.0
4862,C#2,428.0,1.25,102,128.0
4863,C#3,428.0,3483/1000,76,128.0
4864,G#3,428.0,3483/1000,76,128.0
4865,C#4,428.0,3483/1000,76,128.0
4866,C#3,428.0,1.0,94,128.0
4867,G#3,428.0,1.0,94,128.0
4868,C#4,428.0,1.0,94,128.0
4869,F4,428.0,1.0,94,128.0
4870,C2,428.0,1.0,68,128.0
4871,C#3,428.0,1.0,68,128.0
4872,C#3,428.042,3483/1000,76,128.0
4873,G#3,428.042,3483/1000,76,128.0
4874,C#4,428.042,3483/1000,76,128.0
4875,C#3,429.0,0.5,94,128.0
4876,G#3,429.0,0.5,94,128.0
4877,C#4,429.0,0.5,94,128.0
4878,F4,429.0,0.5,94,128.0
4879,F#2,429.0,0.5,98,128.0
4880,E2,429.0,0.5,98,128.0
4881,C#3,429.2,1.0,92,128.0
4882,G#3,429.2,1.0,92,128.0
4883,C#4,429.2,1.0,92,128.0
4884,B2,429.45,2.5,102,128.0
4885,F#3,429.45,2.5,102,128.0
4886,B3,429.45,2.5,102,128.0
4887,C#2,429.5,9/20,102,128.0
4888,C#3,429.5,2.0,94,128.0
4889,G#3,429.5,2.0,94,128.0
4890,C#4,429.5,2.0,94,128.0
4891,F4,429.5,2.0,94,128.0
4892,C2,429.5,0.5,74,128.0
4893,F#2,429.5,0.5,74,128.0
4894,C#2,430.0,27/20,102,128.0
4895,C2,430.0,0.5,76,128.0
4896,F#2,430.0,0.5,76,128.0
4897,C#3,430.2,0.5,94,128.0
4898,G#3,430.2,0.5,94,128.0
4899,C#4,430.2,0.5,94,128.0
4900,F4,430.2,0.5,94,128.0
4901,F#2,430.5,0.5,70,128.0
4902,C#3,430.7,2.0,94,128.0
4903,G#3,430.7,2.0,94,128.0
4904,C#4,430.7,2.0,94,128.0
4905,F4,430.7,2.0,94,128.0
4906,F#2,431.0,0.5,100,128.0
4907,E2,431.0,0.5,100,128.0
4908,F4,431.5,0.5,102,128.0
4909,C#2,431.5,9/20,102,128.0
4910,C#3,431.5,0.25,94,128.0
4911,G#3,431.5,0.25,94,128.0
4912,C#4,431.5,0.25,94,128.0
4913,F4,431.5,0.25,94,128.0
4914,C2,431.5,0.5,80,128.0
4915,F#2,431.5,0.5,80,128.0
4916,F4,431.542,229/500,102,128.0
4917,C#3,431.75,0.25,94,128.0
4918,G#3,431.75,0.25,94,128.0
4919,C#4,431.75,0.25,94,128.0
4920,F4,431.75,0.25,94,128.0
4921,C#3,431.95,1.0,94,128.0
4922,G#3,431.95,1.0,94,128.0
4923,C#4,431.95,1.0,94,128.0
4924,F4,431.95,1.0,94,128.0
4925,F4,432.0,1.0,102,128.0
4926,F4,432.0,521/500,102,128.0
4927,C#2,432.0,9/20,102,128.0
4928,C#3,432.0,19/40,98,128.0
4929,G#3,432.0,19/40,98,128.0
4930,C#4,432.0,19/40,98,128.0
4931,F#4,432.0,19/40,98,128.0
4932,C2,432.0,0.5,76,128.0
4933,F#2,432.0,0.5,76,128.0
4934,C#3,432.5,9/20,89,128.0
4935,F#2,432.5,0.5,67,128.0
4936,C#3,432.5,19/40,98,128.0
4937,G#3,432.5,19/40,98,128.0
4938,C#4,432.5,19/40,98,128.0
4939,F4,432.5,19/40,98,128.0
4940,C#3,432.7,0.25,94,128.0
4941,G#3,432.7,0.25,94,128.0
4942,C#4,432.7,0.25,94,128.0
4943,F4,432.7,0.25,94,128.0
4944,C#3,432.95,0.5,94,128.0
4945,G#3,432.95,0.5,94,128.0
4946,C#4,432.95,0.5,94,128.0
4947,F4,432.95,0.5,94,128.0
4948,C#3,432.95,0.25,94,128.0
4949,G#3,432.95,0.25,94,128.0
4950,C#4,432.95,0.25,94,128.0
4951,F4,432.95,0.25,94,128.0
4952,C#4,433.0,0.5,102,128.0
4953,C#2,433.0,9/20,102,128.0
4954,C#3,433.0,0.5,98,128.0
4955,G#3,433.0,0.5,98,128.0
4956,C#4,433.0,0.5,98,128.0
4957,E-4,433.0,0.5,98,128.0
4958,F#2,433.0,0.5,101,128.0
4959,E2,433.0,0.5,101,128.0
4960,C#4,433.042,0.5,102,128.0
4961,C#3,433.2,19/40,98,128.0
4962,G#3,433.2,19/40,98,128.0
4963,C#4,433.2,19/40,98,128.0
4964,F#4,433.2,19/40,98,128.0
4965,C#3,433.45,2.0,94,128.0
4966,G#3,433.45,2.0,94,128.0
4967,C#4,433.45,2.0,94,128.0
4968,F4,433.45,2.0,94,128.0
4969,G#3,433.5,0.5,102,128.0
4970,C#2,433.5,9/20,102,128.0
4971,C#3,433.5,1.0,98,128.0
4972,G#3,433.5,1.0,98,128.0
4973,C#4,433.5,1.0,98,128.0
4974,F4,433.5,1.0,98,128.0
4975,C2,433.5,0.5,76,128.0
4976,F#2,433.5,0.5,76,128.0
4977,G#3,433.542,0.5,102,128.0
4978,C#3,433.7,19/40,98,128.0
4979,G#3,433.7,19/40,98,128.0
4980,C#4,433.7,19/40,98,128.0
4981,F4,433.7,19/40,98,128.0
4982,F#3,434.0,0.5,102,128.0
4983,C#3,434.0,9/20,89,128.0
4984,C2,434.0,0.5,79,128.0
4985,F#2,434.0,0.5,79,128.0
4986,F#3,434.042,0.5,102,128.0
4987,C#3,434.2,0.5,98,128.0
4988,G#3,434.2,0.5,98,128.0
4989,C#4,434.2,0.5,98,128.0
4990,E-4,434.2,0.5,98,128.0
4991,F3,434.5,0.5,102,128.0
4992,C#2,434.5,9/20,102,128.0
4993,C#3,434.5,0.5,94,128.0
4994,G#3,434.5,0.5,94,128.0
4995,C#4,434.5,0.5,94,128.0
4996,F4,434.5,0.5,94,128.0
4997,C2,434.5,0.5,77,128.0
4998,F#2,434.5,0.5,77,128.0
4999,F3,434.542,0.5,102,128.0
5000,C#3,434.7,1.0,98,128.0
5001,G#3,434.7,1.0,98,128.0
5002,C#4,434.7,1.0,98,128.0
5003,F4,434.7,1.0,98,128.0
5004,C#3,435.0,0.5,102,128.0
5005,C#3,435.0,9/20,89,128.0
5006,C#3,435.0,0.5,94,128.0
5007,G#3,435.0,0.5,94,128.0
5008,C#4,435.0,0.5,94,128.0
5009,F4,435.0,0.5,94,128.0
5010,F#2,435.0,0.5,98,128.0
5011,E2,435.0,0.5,98,128.0
5012,C#3,435.042,0.5,102,128.0
5013,C#3,435.45,0.25,94,128.0
5014,G#3,435.45,0.25,94,128.0
5015,C#4,435.45,0.25,94,128.0
5016,F4,435.45,0.25,94,128.0
5017,B2,435.5,0.5,70,128.0
5018,G#1,435.5,9/20,102,128.0
5019,C#3,435.5,0.5,94,128.0
5020,G#3,435.5,0.5,94,128.0
5021,C#4,435.5,0.5,94,128.0
5022,F4,435.5,0.5,94,128.0
5023,C2,435.5,0.5,76,128.0
5024,F#2,435.5,0.5,76,128.0
5025,B2,435.542,229/500,70,128.0
5026,C#3,435.7,0.25,94,128.0
5027,G#3,435.7,0.25,94,128.0
5028,C#4,435.7,0.25,94,128.0
5029,F4,435.7,0.25,94,128.0
5030,C#3,435.7,0.5,94,128.0
5031,G#3,435.7,0.5,94,128.0
5032,C#4,435.7,0.5,94,128.0
5033,F4,435.7,0.5,94,128.0
5034,C#3,435.95,19/40,98,128.0
5035,G#3,435.95,19/40,98,128.0
5036,C#4,435.95,19/40,98,128.0
5037,F#4,435.95,19/40,98,128.0
5038,B2,436.0,21/500,70,128.0
5039,G#1,436.0,1.25,102,128.0
5040,G#2,436.0,1.0,102,128.0
5041,E-3,436.0,1.0,102,128.0
5042,G#3,436.0,1.0,102,128.0
5043,C2,436.0,1.0,73,128.0
5044,C#3,436.0,1.0,73,128.0
5045,C#3,436.2,0.5,94,128.0
5046,G#3,436.2,0.5,94,128.0
5047,C#4,436.2,0.5,94,128.0
5048,F4,436.2,0.5,94,128.0
5049,C#3,436.45,19/40,98,128.0
5050,G#3,436.45,19/40,98,128.0
5051,C#4,436.45,19/40,98,128.0
5052,F4,436.45,19/40,98,128.0
5053,C#3,436.7,0.5,94,128.0
5054,G#3,436.7,0.5,94,128.0
5055,C#4,436.7,0.5,94,128.0
5056,F4,436.7,0.5,94,128.0
5057,C#3,436.95,0.5,98,128.0
5058,G#3,436.95,0.5,98,128.0
5059,C#4,436.95,0.5,98,128.0
5060,E-4,436.95,0.5,98,128.0
5061,E2,437.0,0.5,119,128.0
5062,G#2,437.2,1.0,102,128.0
5063,E-3,437.2,1.0,102,128.0
5064,G#3,437.2,1.0,102,128.0
5065,C#3,437.45,1.0,98,128.0
5066,G#3,437.45,1.0,98,128.0
5067,C#4,437.45,1.0,98,128.0
5068,F4,437.45,1.0,98,128.0
5069,G#1,437.5,27/20,102,128.0
5070,G#2,437.5,1467/1000,102,128.0
5071,E-3,437.5,1467/1000,102,128.0
5072,G#3,437.5,1467/1000,102,128.0
5073,C2,437.5,1.0,74,128.0
5074,C#3,437.5,1.0,74,128.0
5075,C#3,438.45,0.5,94,128.0
5076,G#3,438.45,0.5,94,128.0
5077,C#4,438.45,0.5,94,128.0
5078,F4,438.45,0.5,94,128.0
5079,C2,438.5,0.5,78,128.0
5080,F#2,438.5,0.5,78,128.0
5081,G#2,438.7,1467/1000,102,128.0
5082,E-3,438.7,1467/1000,102,128.0
5083,G#3,438.7,1467/1000,102,128.0
5084,C#3,438.95,0.5,94,128.0
5085,G#3,438.95,0.5,94,128.0
5086,C#4,438.95,0.5,94,128.0
5087,F4,438.95,0.5,94,128.0
5088,G#1,439.0,9/20,102,128.0
5089,B-2,439.0,221/500,102,128.0
5090,F3,439.0,221/500,102,128.0
5091,B-3,439.0,221/500,102,128.0
5092,C2,439.0,0.5,93,128.0
5093,F#2,439.0,0.5,93,128.0
5094,E2,439.0,0.5,93,128.0
5095,C#3,439.45,0.5,94,128.0
5096,G#3,439.45,0.5,94,128.0
5097,C#4,439.45,0.5,94,128.0
5098,F4,439.45,0.5,94,128.0
5099,B-1,439.5,9/20,102,128.0
5100,B-2,439.5,467/1000,102,128.0
5101,F3,439.5,467/1000,102,128.0
5102,B-3,439.5,467/1000,102,128.0
5103,C2,439.5,0.5,78,128.0
5104,F#2,439.5,0.5,78,128.0
5105,G#2,439.95,1.0,102,128.0
5106,E-3,439.95,1.0,102,128.0
5107,G#3,439.95,1.0,102,128.0
5108,B1,440.0,1.25,102,128.0
5109,B2,440.0,1.0,102,128.0
5110,F#3,440.0,1.0,102,128.0
5111,B3,440.0,1.0,102,128.0
5112,C2,440.0,0.5,78,128.0
5113,C#3,440.0,0.5,78,128.0
5114,B-2,440.2,221/500,102,128.0
5115,F3,440.2,221/500,102,128.0
5116,B-3,440.2,221/500,102,128.0
5117,F#2,440.5,0.5,68,128.0
5118,B-2,440.7,467/1000,102,128.0
5119,F3,440.7,467/1000,102,128.0
5120,B-3,440.7,467/1000,102,128.0
5121,F#2,441.0,0.5,94,128.0
5122,E2,441.0,0.5,94,128.0
5123,B2,441.2,1.0,102,128.0
5124,F#3,441.2,1.0,102,128.0
5125,B3,441.2,1.0,102,128.0
5126,G#2,441.45,1467/1000,102,128.0
5127,E-3,441.45,1467/1000,102,128.0
5128,G#3,441.45,1467/1000,102,128.0
5129,B1,441.5,9/10,102,128.0
5130,B2,441.5,2.5,102,128.0
5131,F#3,441.5,2.5,102,128.0
5132,B3,441.5,2.5,102,128.0
5133,C2,441.5,0.5,75,128.0
5134,C#3,441.5,0.5,75,128.0
5135,F#2,442.0,0.5,68,128.0
5136,B1,442.5,9/20,102,128.0
5137,C2,442.5,0.5,80,128.0
5138,F#2,442.5,0.5,80,128.0
5139,B2,442.7,2.5,102,128.0
5140,F#3,442.7,2.5,102,128.0
5141,B3,442.7,2.5,102,128.0
5142,B-2,442.95,221/500,102,128.0
5143,F3,442.95,221/500,102,128.0
5144,B-3,442.95,221/500,102,128.0
5145,B1,443.0,9/20,102,128.0
5146,F#2,443.0,0.5,94,128.0
5147,E2,443.0,0.5,94,128.0
5148,B-2,443.45,467/1000,102,128.0
5149,F3,443.45,467/1000,102,128.0
5150,B-3,443.45,467/1000,102,128.0
5151,G#1,443.5,9/20,102,128.0
5152,F#2,443.5,0.5,75,128.0
5153,B2,443.95,1.0,102,128.0
5154,F#3,443.95,1.0,102,128.0
5155,B3,443.95,1.0,102,128.0
5156,C#2,444.0,9/20,95,128.0
5157,C#3,444.0,0.5,102,128.0
5158,G#3,444.0,0.5,102,128.0
5159,C#4,444.0,0.5,102,128.0
5160,C2,444.0,0.5,48,128.0
5161,A3,444.0,0.5,48,128.0
5162,E2,444.0,0.5,48,128.0
5163,C#2,444.5,9/20,95,128.0
5164,C#3,444.5,0.5,102,128.0
5165,G#3,444.5,0.5,102,128.0
5166,C#4,444.5,0.5,102,128.0
5167,C2,444.5,0.5,38,128.0
5168,E2,444.5,0.5,38,128.0
5169,C#2,445.0,9/20,95,128.0
5170,C#3,445.0,0.5,102,128.0
5171,G#3,445.0,0.5,102,128.0
5172,C#4,445.0,0.5,102,128.0
5173,C2,445.0,0.5,38,128.0
5174,E2,445.0,0.5,38,128.0
5175,C#3,445.2,0.5,102,128.0
5176,G#3,445.2,0.5,102,128.0
5177,C#4,445.2,0.5,102,128.0
5178,B2,445.45,2.5,102,128.0
5179,F#3,445.45,2.5,102,128.0
5180,B3,445.45,2.5,102,128.0
5181,C#2,445.5,9/20,95,128.0
5182,C#3,445.5,0.5,102,128.0
5183,G#3,445.5,0.5,102,128.0
5184,C#4,445.5,0.5,102,128.0
5185,C2,445.5,0.5,38,128.0
5186,E2,445.5,0.5,38,128.0
5187,C#3,445.7,0.5,102,128.0
5188,G#3,445.7,0.5,102,128.0
5189,C#4,445.7,0.5,102,128.0
5190,C#2,446.0,9/20,95,128.0
5191,C#3,446.0,0.5,102,128.0
5192,G#3,446.0,0.5,102,128.0
5193,C#4,446.0,0.5,102,128.0
5194,C2,446.0,0.5,46,128.0
5195,E2,446.0,0.5,46,128.0
5196,C#3,446.2,0.5,102,128.0
5197,G#3,446.2,0.5,102,128.0
5198,C#4,446.2,0.5,102,128.0
5199,C#2,446.5,9/20,95,128.0
5200,C#3,446.5,0.5,102,128.0
5201,G#3,446.5,0.5,102,128.0
5202,C#4,446.5,0.5,102,128.0
5203,C2,446.5,0.5,44,128.0
5204,E2,446.5,0.5,44,128.0
5205,C#3,446.7,0.5,102,128.0
5206,G#3,446.7,0.5,102,128.0
5207,C#4,446.7,0.5,102,128.0
5208,C#2,447.0,9/20,95,128.0
5209,C#3,447.0,0.5,102,128.0
5210,G#3,447.0,0.5,102,128.0
5211,C#4,447.0,0.5,102,128.0
5212,C2,447.0,0.5,59,128.0
5213,E2,447.0,0.5,59,128.0
5214,C#3,447.2,0.5,102,128.0
5215,G#3,447.2,0.5,102,128.0
5216,C#4,447.2,0.5,102,128.0
5217,C#2,447.5,9/20,95,128.0
5218,C#3,447.5,0.5,102,128.0
5219,G#3,447.5,0.5,102,128.0
5220,C#4,447.5,0.5,102,128.0
5221,C2,447.5,0.5,60,128.0
5222,E2,447.5,0.5,60,128.0
5223,C#3,447.7,0.5,102,128.0
5224,G#3,447.7,0.5,102,128.0
5225,C#4,447.7,0.5,102,128.0
5226,C#3,447.95,0.5,102,128.0
5227,G#3,447.95,0.5,102,128.0
5228,C#4,447.95,0.5,102,128.0
5229,C#2,448.0,9/20,95,128.0
5230,C2,448.0,0.5,78,128.0
5231,E2,448.0,0.25,67,128.0
5232,C#3,448.0,0.5,102,128.0
5233,G#3,448.0,0.5,102,128.0
5234,C#4,448.0,0.5,102,128.0
5235,C#3,448.2,0.5,102,128.0
5236,G#3,448.2,0.5,102,128.0
5237,C#4,448.2,0.5,102,128.0
5238,C#3,448.45,0.5,102,128.0
5239,G#3,448.45,0.5,102,128.0
5240,C#4,448.45,0.5,102,128.0
5241,C#2,448.5,9/20,95,128.0
5242,C2,448.5,0.5,80,128.0
5243,E2,448.5,0.25,76,128.0
5244,C#3,448.5,0.5,102,128.0
5245,G#3,448.5,0.5,102,128.0
5246,C#4,448.5,0.5,102,128.0
5247,C#3,448.7,0.5,102,128.0
5248,G#3,448.7,0.5,102,128.0
5249,C#4,448.7,0.5,102,128.0
5250,C#3,448.95,0.5,102,128.0
5251,G#3,448.95,0.5,102,128.0
5252,C#4,448.95,0.5,102,128.0
5253,C#2,449.0,9/20,95,128.0
5254,C2,449.0,0.5,92,128.0
5255,E2,449.0,0.25,89,128.0
5256,C#3,449.0,0.5,102,128.0
5257,G#3,449.0,0.5,102,128.0
5258,C#4,449.0,0.5,102,128.0
5259,C#3,449.2,0.5,102,128.0
5260,G#3,449.2,0.5,102,128.0
5261,C#4,449.2,0.5,102,128.0
5262,C#3,449.45,0.5,102,128.0
5263,G#3,449.45,0.5,102,128.0
5264,C#4,449.45,0.5,102,128.0
5265,C#2,449.5,9/20,95,128.0
5266,C2,449.5,0.5,92,128.0
5267,E2,449.5,0.25,109,128.0
5268,C#3,449.5,0.5,102,128.0
5269,G#3,449.5,0.5,102,128.0
5270,C#4,449.5,0.5,102,128.0
5271,C#3,449.7,0.5,102,128.0
5272,G#3,449.7,0.5,102,128.0
5273,C#4,449.7,0.5,102,128.0
5274,C#3,449.95,0.5,102,128.0
5275,G#3,449.95,0.5,102,128.0
5276,C#4,449.95,0.5,102,128.0
5277,C#2,450.0,9/20,95,128.0
5278,C#3,450.0,0.75,102,128.0
5279,G#3,450.0,0.75,102,128.0
5280,C#4,450.0,0.75,102,128.0
5281,C2,450.0,0.5,98,128.0
5282,E2,450.0,0.5,98,128.0
5283,C#3,450.2,0.5,102,128.0
5284,G#3,450.2,0.5,102,128.0
5285,C#4,450.2,0.5,102,128.0
5286,C#3,450.45,0.5,102,128.0
5287,G#3,450.45,0.5,102,128.0
5288,C#4,450.45,0.5,102,128.0
5289,G#1,450.5,9/20,102,128.0
5290,C2,450.5,0.5,98,128.0
5291,C#3,450.7,0.5,102,128.0
5292,G#3,450.7,0.5,102,128.0
5293,C#4,450.7,0.5,102,128.0
5294,C#3,450.95,0.5,102,128.0
5295,G#3,450.95,0.5,102,128.0
5296,C#4,450.95,0.5,102,128.0
5297,D2,451.0,9/10,95,128.0
5298,E2,451.0,0.5,119,128.0
5299,D4,451.0,1.0,102,128.0
5300,D3,451.0,1.0,102,128.0
5301,A3,451.0,1.0,102,128.0
5302,C#3,451.2,0.75,102,128.0
5303,G#3,451.2,0.75,102,128.0
5304,C#4,451.2,0.75,102,128.0
5305,C#3,451.45,0.5,102,128.0
5306,G#3,451.45,0.5,102,128.0
5307,C#4,451.45,0.5,102,128.0
5308,C#3,451.95,0.5,102,128.0
5309,G#3,451.95,0.5,102,128.0
5310,C#4,451.95,0.5,102,128.0
5311,G#5,451.958,21/500,108,128.0
5312,G#5,452.0,3.5,108,128.0
5313,G#5,452.0,1771/500,108,128.0
5314,E-1,452.0,9/10,102,128.0
5315,E-2,452.0,1467/1000,94,128.0
5316,B-2,452.0,1467/1000,94,128.0
5317,E-3,452.0,1467/1000,94,128.0
5318,F#3,452.0,1467/1000,94,128.0
5319,B-3,452.0,1467/1000,94,128.0
5320,C2,452.0,1.0,78,128.0
5321,C#3,452.0,1.0,78,128.0
5322,D4,452.2,1.0,102,128.0
5323,D3,452.2,1.0,102,128.0
5324,A3,452.2,1.0,102,128.0
5325,C#3,452.45,0.5,102,128.0
5326,G#3,452.45,0.5,102,128.0
5327,C#4,452.45,0.5,102,128.0
5328,C#3,452.95,0.5,102,128.0
5329,G#3,452.95,0.5,102,128.0
5330,C#4,452.95,0.5,102,128.0
5331,E-2,453.0,9/20,95,128.0
5332,E2,453.0,0.5,119,128.0
5333,E-2,453.2,0.5,89,128.0
5334,C#3,453.45,0.5,102,128.0
5335,G#3,453.45,0.5,102,128.0
5336,C#4,453.45,0.5,102,128.0
5337,E-2,453.5,27/20,95,128.0
5338,E-2,453.5,1967/1000,94,128.0
5339,B-2,453.5,1967/1000,94,128.0
5340,E-3,453.5,1967/1000,94,128.0
5341,F#3,453.5,1967/1000,94,128.0
5342,B-3,453.5,1967/1000,94,128.0
5343,C2,453.5,1.0,77,128.0
5344,C#3,453.5,1.0,77,128.0
5345,F#3,453.7,0.5,89,128.0
5346,C#3,453.95,0.75,102,128.0
5347,G#3,453.95,0.75,102,128.0
5348,C#4,453.95,0.75,102,128.0
5349,B-3,454.2,0.5,89,128.0
5350,F#2,454.5,0.5,72,128.0
5351,E-4,454.7,0.5,89,128.0
5352,D4,454.95,1.0,102,128.0
5353,D3,454.95,1.0,102,128.0
5354,A3,454.95,1.0,102,128.0
5355,E-1,455.0,9/20,102,128.0
5356,F#2,455.0,0.5,97,128.0
5357,E2,455.0,0.5,97,128.0
5358,B-3,455.2,0.5,89,128.0
5359,F#5,455.5,0.5,108,128.0
5360,E-1,455.5,9/20,102,128.0
5361,F#2,455.5,0.5,70,128.0
5362,E-2,455.5,0.5,102,128.0
5363,B-2,455.5,0.5,102,128.0
5364,E-3,455.5,0.5,102,128.0
5365,B-3,455.5,0.5,102,128.0
5366,F#5,455.542,229/500,108,128.0
5367,F#3,455.7,0.5,89,128.0
5368,E-2,455.95,1467/1000,94,128.0
5369,B-2,455.95,1467/1000,94,128.0
5370,E-3,455.95,1467/1000,94,128.0
5371,F#3,455.95,1467/1000,94,128.0
5372,B-3,455.95,1467/1000,94,128.0
5373,F5,456.0,1.5,108,128.0
5374,F#5,456.0,21/500,108,128.0
5375,B1,456.0,9/10,102,128.0
5376,B2,456.0,1.5,92,128.0
5377,E-3,456.0,1.5,92,128.0
5378,F#3,456.0,1.5,92,128.0
5379,B3,456.0,1.5,92,128.0
5380,C2,456.0,1.0,75,128.0
5381,C#3,456.0,1.0,75,128.0
5382,F5,456.042,1.5,108,128.0
5383,E-3,456.2,0.5,89,128.0
5384,F#3,456.7,0.5,89,128.0
5385,B1,457.0,9/20,102,128.0
5386,E2,457.0,0.5,123,128.0
5387,E-3,457.2,0.5,89,128.0
5388,E-2,457.45,1967/1000,94,128.0
5389,B-2,457.45,1967/1000,94,128.0
5390,E-3,457.45,1967/1000,94,128.0
5391,F#3,457.45,1967/1000,94,128.0
5392,B-3,457.45,1967/1000,94,128.0
5393,E-5,457.5,2.0,108,128.0
5394,B2,457.5,9/5,89,128.0
5395,B2,457.5,79/40,92,128.0
5396,E-3,457.5,79/40,92,128.0
5397,F#3,457.5,79/40,92,128.0
5398,B3,457.5,79/40,92,128.0
5399,C2,457.5,1.0,76,128.0
5400,C#3,457.5,1.0,76,128.0
5401,E-5,457.542,2.0,108,128.0
5402,F#3,457.7,0.5,89,128.0
5403,B3,458.2,0.5,89,128.0
5404,C2,458.5,0.5,76,128.0
5405,F#2,458.5,0.5,76,128.0
5406,F#4,458.7,0.5,89,128.0
5407,F#2,459.0,0.5,96,128.0
5408,E2,459.0,0.5,96,128.0
5409,B3,459.2,0.5,89,128.0
5410,E-2,459.45,0.5,102,128.0
5411,B-2,459.45,0.5,102,128.0
5412,E-3,459.45,0.5,102,128.0
5413,B-3,459.45,0.5,102,128.0
5414,F#5,459.5,0.5,108,128.0
5415,G#1,459.5,9/20,102,128.0
5416,B2,459.5,0.5,92,128.0
5417,E-3,459.5,0.5,92,128.0
5418,F#3,459.5,0.5,92,128.0
5419,B3,459.5,0.5,92,128.0
5420,C2,459.5,0.5,76,128.0
5421,F#2,459.5,0.5,76,128.0
5422,F#5,459.542,229/500,108,128.0
5423,F#3,459.7,0.5,89,128.0
5424,B2,459.95,1.5,92,128.0
5425,E-3,459.95,1.5,92,128.0
5426,F#3,459.95,1.5,92,128.0
5427,B3,459.95,1.5,92,128.0
5428,F5,460.0,1333/1000,108,128.0
5429,F#5,460.0,21/500,108,128.0
5430,B-1,460.0,9/10,102,128.0
5431,B-2,460.0,1483/1000,102,128.0
5432,F3,460.0,1483/1000,102,128.0
5433,B-3,460.0,1483/1000,102,128.0
5434,C2,460.0,1.0,72,128.0
5435,C#3,460.0,1.0,72,128.0
5436,F5,460.042,1333/1000,108,128.0
5437,E-3,460.2,0.5,89,128.0
5438,F#3,460.7,0.5,89,128.0
5439,B-1,461.0,9/20,102,128.0
5440,E2,461.0,0.5,119,128.0
5441,D3,461.2,0.5,89,128.0
5442,E-5,461.333,333/1000,102,128.0
5443,E-5,461.375,333/1000,102,128.0
5444,B2,461.45,79/40,92,128.0
5445,E-3,461.45,79/40,92,128.0
5446,F#3,461.45,79/40,92,128.0
5447,B3,461.45,79/40,92,128.0
5448,B-2,461.5,9/5,89,128.0
5449,B-2,461.5,1983/1000,102,128.0
5450,F3,461.5,1983/1000,102,128.0
5451,B-3,461.5,1983/1000,102,128.0
5452,C2,461.5,0.5,72,128.0
5453,C#3,461.5,0.5,72,128.0
5454,D5,461.667,417/1000,108,128.0
5455,G#3,461.7,0.5,89,128.0
5456,D5,461.708,417/1000,108,128.0
5457,F#2,462.0,0.5,65,128.0
5458,B-3,462.2,0.5,89,128.0
5459,E-5,462.333,583/1000,108,128.0
5460,E-5,462.375,583/1000,108,128.0
5461,C2,462.5,0.5,78,128.0
5462,F#2,462.5,0.5,78,128.0
5463,F4,462.7,0.5,89,128.0
5464,F5,463.0,0.75,108,128.0
5465,F#2,463.0,0.5,98,128.0
5466,E2,463.0,0.5,98,128.0
5467,F5,463.042,0.75,108,128.0
5468,B-3,463.2,0.5,89,128.0
5469,B2,463.45,0.5,92,128.0
5470,E-3,463.45,0.5,92,128.0
5471,F#3,463.45,0.5,92,128.0
5472,B3,463.45,0.5,92,128.0
5473,E-1,463.5,9/20,102,128.0
5474,F#2,463.5,0.5,70,128.0
5475,B-2,463.5,0.5,102,128.0
5476,F3,463.5,0.5,102,128.0
5477,B-3,463.5,0.5,102,128.0
5478,G#3,463.7,0.5,89,128.0
5479,B-2,463.95,1483/1000,102,128.0
5480,F3,463.95,1483/1000,102,128.0
5481,B-3,463.95,1483/1000,102,128.0
5482,C#5,464.0,1.0,108,128.0
5483,G#1,464.0,9/10,102,128.0
5484,G#2,464.0,59/40,92,128.0
5485,E-3,464.0,59/40,92,128.0
5486,G#3,464.0,59/40,92,128.0
5487,B3,464.0,59/40,92,128.0
5488,C2,464.0,0.5,72,128.0
5489,A3,464.0,0.5,72,128.0
5490,C#5,464.042,1.0,108,128.0
5491,D3,464.2,0.5,89,128.0
5492,F#2,464.5,0.5,73,128.0
5493,G#3,464.7,0.5,89,128.0
5494,B-4,465.0,0.5,108,128.0
5495,G#1,465.0,9/20,102,128.0
5496,F#2,465.0,0.5,100,128.0
5497,E2,465.0,0.5,100,128.0
5498,B-4,465.042,0.5,108,128.0
5499,G#2,465.2,0.5,89,128.0
5500,B-2,465.45,1983/1000,102,128.0
5501,F3,465.45,1983/1000,102,128.0
5502,B-3,465.45,1983/1000,102,128.0
5503,G#4,465.5,1.0,108,128.0
5504,G#2,465.5,9/10,95,128.0
5505,G#2,465.5,59/40,92,128.0
5506,E-3,465.5,59/40,92,128.0
5507,G#3,465.5,59/40,92,128.0
5508,B3,465.5,59/40,92,128.0
5509,C2,465.5,0.5,77,128.0
5510,C#3,465.5,0.5,77,128.0
5511,G#4,465.542,1.0,108,128.0
5512,E-3,465.7,0.5,89,128.0
5513,F#2,466.0,0.5,65,128.0
5514,G#3,466.2,0.5,89,128.0
5515,F#4,466.5,0.5,108,128.0
5516,E-1,466.5,9/20,102,128.0
5517,F#2,466.5,0.5,73,128.0
5518,F#4,466.542,0.5,108,128.0
5519,E-4,466.7,0.5,89,128.0
5520,F4,467.0,1.0,108,128.0
5521,F#1,467.0,9/20,102,128.0
5522,G#2,467.0,19/40,92,128.0
5523,E-3,467.0,19/40,92,128.0
5524,G#3,467.0,19/40,92,128.0
5525,B3,467.0,19/40,92,128.0
5526,F#2,467.0,0.5,95,128.0
5527,E2,467.0,0.5,95,128.0
5528,F4,467.042,479/500,108,128.0
5529,B3,467.2,0.5,89,128.0
5530,B-2,467.45,0.5,102,128.0
5531,F3,467.45,0.5,102,128.0
5532,B-3,467.45,0.5,102,128.0
5533,E-3,467.5,0.25,89,128.0
5534,F1,467.5,9/20,102,128.0
5535,F#2,467.5,0.5,72,128.0
5536,G#3,467.5,83/1000,89,128.0
5537,G#2,467.5,83/1000,89,128.0
5538,G#3,467.7,0.5,89,128.0
5539,G#3,467.75,83/1000,89,128.0
5540,E-3,467.75,83/1000,89,128.0
5541,G#2,467.75,83/1000,89,128.0
5542,G#2,467.95,59/40,92,128.0
5543,E-3,467.95,59/40,92,128.0
5544,G#3,467.95,59/40,92,128.0
5545,B3,467.95,59/40,92,128.0
5546,E-4,468.0,1.0,108,128.0
5547,F4,468.0,21/500,108,128.0
5548,E-1,468.0,9/10,102,128.0
5549,E-2,468.0,1467/1000,94,128.0
5550,B-2,468.0,1467/1000,94,128.0
5551,E-3,468.0,1467/1000,94,128.0
5552,F#3,468.0,1467/1000,94,128.0
5553,B-3,468.0,1467/1000,94,128.0
5554,C2,468.0,0.5,70,128.0
5555,A3,468.0,0.5,70,128.0
5556,E-4,468.042,1.0,108,128.0
5557,F#2,468.2,0.5,89,128.0
5558,F#2,468.5,0.5,76,128.0
5559,F2,468.7,0.5,89,128.0
5560,E-4,469.0,1333/1000,108,128.0
5561,E-2,469.0,9/20,95,128.0
5562,F#2,469.0,0.5,98,128.0
5563,E2,469.0,0.5,98,128.0
5564,E-4,469.042,1333/1000,108,128.0
5565,E-2,469.2,0.5,89,128.0
5566,G#2,469.45,59/40,92,128.0
5567,E-3,469.45,59/40,92,128.0
5568,G#3,469.45,59/40,92,128.0
5569,B3,469.45,59/40,92,128.0
5570,E-2,469.5,27/20,95,128.0
5571,E-2,469.5,1967/1000,94,128.0
5572,B-2,469.5,1967/1000,94,128.0
5573,E-3,469.5,1967/1000,94,128.0
5574,F#3,469.5,1967/1000,94,128.0
5575,B-3,469.5,1967/1000,94,128.0
5576,C2,469.5,0.5,75,128.0
5577,C#3,469.5,0.5,75,128.0
5578,F#3,469.7,0.5,89,128.0
5579,F#2,470.0,0.5,70,128.0
5580,B-3,470.2,0.5,89,128.0
5581,F4,470.333,333/1000,108,128.0
5582,F4,470.375,333/1000,108,128.0
5583,C2,470.5,0.5,75,128.0
5584,F#2,470.5,0.5,75,128.0
5585,F#4,470.667,333/1000,108,128.0
5586,E-4,470.7,0.5,89,128.0
5587,F#4,470.708,333/1000,108,128.0
5588,G#2,470.95,19/40,92,128.0
5589,E-3,470.95,19/40,92,128.0
5590,G#3,470.95,19/40,92,128.0
5591,B3,470.95,19/40,92,128.0
5592,G#4,471.0,333/1000,108,128.0
5593,E-1,471.0,9/20,102,128.0
5594,F#2,471.0,0.5,92,128.0
5595,E2,471.0,0.5,92,128.0
5596,G#4,471.042,333/1000,108,128.0
5597,B-3,471.2,0.5,89,128.0
5598,B4,471.333,667/1000,108,128.0
5599,B4,471.375,0.625,108,128.0
5600,E-3,471.45,0.25,89,128.0
5601,G#3,471.45,83/1000,89,128.0
5602,G#2,471.45,83/1000,89,128.0
5603,E-1,471.5,9/20,102,128.0
5604,E-2,471.5,0.5,102,128.0
5605,B-2,471.5,0.5,102,128.0
5606,E-3,471.5,0.5,102,128.0
5607,B-3,471.5,0.5,102,128.0
5608,C2,471.5,0.5,79,128.0
5609,F#2,471.5,0.5,79,128.0
5610,F#3,471.7,0.5,89,128.0
5611,G#3,471.7,83/1000,89,128.0
5612,E-3,471.7,83/1000,89,128.0
5613,G#2,471.7,83/1000,89,128.0
5614,E-2,471.95,1467/1000,94,128.0
5615,B-2,471.95,1467/1000,94,128.0
5616,E-3,471.95,1467/1000,94,128.0
5617,F#3,471.95,1467/1000,94,128.0
5618,B-3,471.95,1467/1000,94,128.0
5619,B-4,472.0,1479/500,108,128.0
5620,B4,472.0,21/500,108,128.0
5621,B1,472.0,9/10,102,128.0
5622,C2,472.0,1.0,88,128.0
5623,C#3,472.0,0.5,62,128.0
5624,B2,472.0,1.5,92,128.0
5625,E-3,472.0,1.5,92,128.0
5626,F#3,472.0,1.5,92,128.0
5627,B3,472.0,1.5,92,128.0
5628,B-4,472.042,1479/500,108,128.0
5629,E-3,472.2,0.5,89,128.0
5630,F#3,472.7,0.5,89,128.0
5631,B1,473.0,9/20,102,128.0
5632,F#2,473.0,0.5,96,128.0
5633,E2,473.0,0.5,96,128.0
5634,E-3,473.2,0.5,89,128.0
5635,E-2,473.45,1967/1000,94,128.0
5636,B-2,473.45,1967/1000,94,128.0
5637,E-3,473.45,1967/1000,94,128.0
5638,F#3,473.45,1967/1000,94,128.0
5639,B-3,473.45,1967/1000,94,128.0
5640,B2,473.5,9/5,89,128.0
5641,B2,473.5,79/40,92,128.0
5642,E-3,473.5,79/40,92,128.0
5643,F#3,473.5,79/40,92,128.0
5644,B3,473.5,79/40,92,128.0
5645,C2,473.5,0.5,77,128.0
5646,F#2,473.5,0.5,77,128.0
5647,F#3,473.7,0.5,89,128.0
5648,F#2,474.0,0.5,67,128.0
5649,B3,474.2,0.5,89,128.0
5650,C2,474.5,0.5,75,128.0
5651,F#2,474.5,0.5,75,128.0
5652,F#4,474.7,0.5,89,128.0
5653,B4,474.958,1.0,108,128.0
5654,B4,475.0,1.0,108,128.0
5655,F#2,475.0,0.5,98,128.0
5656,E2,475.0,0.5,98,128.0
5657,B3,475.2,0.5,89,128.0
5658,E-2,475.45,0.5,102,128.0
5659,B-2,475.45,0.5,102,128.0
5660,E-3,475.45,0.5,102,128.0
5661,B-3,475.45,0.5,102,128.0
5662,G#1,475.5,9/20,102,128.0
5663,B2,475.5,0.5,92,128.0
5664,E-3,475.5,0.5,92,128.0
5665,F#3,475.5,0.5,92,128.0
5666,B3,475.5,0.5,92,128.0
5667,C2,475.5,0.5,78,128.0
5668,F#2,475.5,0.5,78,128.0
5669,F#3,475.7,0.5,89,128.0
5670,B2,475.95,1.5,92,128.0
5671,E-3,475.95,1.5,92,128.0
5672,F#3,475.95,1.5,92,128.0
5673,B3,475.95,1.5,92,128.0
5674,B4,476.0,1.0,108,128.0
5675,B-1,476.0,9/10,102,128.0
5676,B-2,476.0,1483/1000,102,128.0
5677,F3,476.0,1483/1000,102,128.0
5678,B-3,476.0,1483/1000,102,128.0
5679,C2,476.0,0.5,76,128.0
5680,C#3,476.0,0.5,76,128.0
5681,B4,476.042,1.0,108,128.0
5682,E-3,476.2,0.5,89,128.0
5683,F#2,476.5,0.5,74,128.0
5684,F#3,476.7,0.5,89,128.0
5685,B-4,477.0,0.5,108,128.0
5686,B-1,477.0,9/20,102,128.0
5687,F#2,477.0,0.5,96,128.0
5688,E2,477.0,0.5,96,128.0
5689,B-4,477.042,0.5,108,128.0
5690,D3,477.2,0.5,89,128.0
5691,B2,477.45,79/40,92,128.0
5692,E-3,477.45,79/40,92,128.0
5693,F#3,477.45,79/40,92,128.0
5694,B3,477.45,79/40,92,128.0
5695,B-4,477.5,1.5,108,128.0
5696,B-2,477.5,9/5,89,128.0
5697,B-2,477.5,1983/1000,102,128.0
5698,F3,477.5,1983/1000,102,128.0
5699,B-3,477.5,1983/1000,102,128.0
5700,C2,477.5,0.5,71,128.0
5701,C#3,477.5,0.5,71,128.0
5702,B-4,477.542,1.5,108,128.0
5703,G#3,477.7,0.5,89,128.0
5704,F#2,478.0,0.5,76,128.0
5705,B-3,478.2,0.5,89,128.0
5706,C2,478.5,0.5,76,128.0
5707,F#2,478.5,0.5,76,128.0
5708,F4,478.7,0.5,89,128.0
5709,B-4,479.0,1.0,108,128.0
5710,F#2,479.0,0.5,96,128.0
5711,E2,479.0,0.5,96,128.0
5712,B-4,479.042,479/500,108,128.0
5713,B-3,479.2,0.5,89,128.0
5714,B2,479.45,0.5,92,128.0
5715,E-3,479.45,0.5,92,128.0
5716,F#3,479.45,0.5,92,128.0
5717,B3,479.45,0.5,92,128.0
5718,E-1,479.5,9/20,102,128.0
5719,B-2,479.5,0.5,102,128.0
5720,F3,479.5,0.5,102,128.0
5721,B-3,479.5,0.5,102,128.0
5722,C2,479.5,0.5,80,128.0
5723,F#2,479.5,0.5,80,128.0
5724,G#3,479.7,0.5,89,128.0
5725,B-2,479.95,1483/1000,102,128.0
5726,F3,479.95,1483/1000,102,128.0
5727,B-3,479.95,1483/1000,102,128.0
5728,B-4,480.0,1.0,108,128.0
5729,B-4,480.0,521/500,108,128.0
5730,G#1,480.0,9/10,102,128.0
5731,G#2,480.0,59/40,92,128.0
5732,E-3,480.0,59/40,92,128.0
5733,G#3,480.0,59/40,92,128.0
5734,B3,480.0,59/40,92,128.0
5735,C2,480.0,0.5,78,128.0
5736,C#3,480.0,0.5,78,128.0
5737,D3,480.2,0.5,89,128.0
5738,F#2,480.5,0.5,69,128.0
5739,G#3,480.7,0.5,89,128.0
5740,G#4,481.0,229/500,108,128.0
5741,G#1,481.0,9/20,102,128.0
5742,F#2,481.0,0.5,98,128.0
5743,E2,481.0,0.5,98,128.0
5744,G#4,481.042,229/500,108,128.0
5745,G#2,481.2,0.5,89,128.0
5746,B-2,481.45,1983/1000,102,128.0
5747,F3,481.45,1983/1000,102,128.0
5748,B-3,481.45,1983/1000,102,128.0
5749,F#5,481.458,771/500,95,128.0
5750,F#5,481.5,771/500,95,128.0
5751,G#2,481.5,9/10,95,128.0
5752,G#2,481.5,59/40,92,128.0
5753,E-3,481.5,59/40,92,128.0
5754,G#3,481.5,59/40,92,128.0
5755,B3,481.5,59/40,92,128.0
5756,C2,481.5,0.5,72,128.0
5757,C#3,481.5,0.5,72,128.0
5758,E-3,481.7,0.5,89,128.0
5759,F#2,482.0,0.5,66,128.0
5760,G#3,482.2,0.5,89,128.0
5761,E-1,482.5,9/20,102,128.0
5762,F#2,482.5,0.5,67,128.0
5763,E-4,482.7,0.5,89,128.0
5764,F#1,483.0,9/20,102,128.0
5765,G#2,483.0,19/40,92,128.0
5766,E-3,483.0,19/40,92,128.0
5767,G#3,483.0,19/40,92,128.0
5768,B3,483.0,19/40,92,128.0
5769,F#2,483.0,0.5,97,128.0
5770,E2,483.0,0.5,97,128.0
5771,B3,483.2,0.5,89,128.0
5772,B-2,483.45,0.5,102,128.0
5773,F3,483.45,0.5,102,128.0
5774,B-3,483.45,0.5,102,128.0
5775,F4,483.5,0.5,108,128.0
5776,E-3,483.5,0.25,89,128.0
5777,F1,483.5,9/20,102,128.0
5778,G#3,483.5,83/1000,89,128.0
5779,G#2,483.5,83/1000,89,128.0
5780,C2,483.5,0.5,76,128.0
5781,F#2,483.5,0.5,76,128.0
5782,F4,483.542,229/500,108,128.0
5783,G#3,483.7,0.5,89,128.0
5784,G#3,483.75,83/1000,89,128.0
5785,E-3,483.75,83/1000,89,128.0
5786,G#2,483.75,83/1000,89,128.0
5787,G#2,483.95,59/40,92,128.0
5788,E-3,483.95,59/40,92,128.0
5789,G#3,483.95,59/40,92,128.0
5790,B3,483.95,59/40,92,128.0
5791,F4,484.0,1.0,108,128.0
5792,F4,484.0,521/500,108,128.0
5793,E-1,484.0,9/10,102,128.0
5794,E-2,484.0,1467/1000,94,128.0
5795,B-2,484.0,1467/1000,94,128.0
5796,E-3,484.0,1467/1000,94,128.0
5797,F#3,484.0,1467/1000,94,128.0
5798,B-3,484.0,1467/1000,94,128.0
5799,C2,484.0,0.5,74,128.0
5800,C#3,484.0,0.5,74,128.0
5801,F#2,484.2,0.5,89,128.0
5802,F#2,484.5,0.5,74,128.0
5803,F2,484.7,0.5,89,128.0
5804,E-4,485.0,0.5,108,128.0
5805,E-2,485.0,9/20,95,128.0
5806,F#2,485.0,0.5,96,128.0
5807,E2,485.0,0.5,96,128.0
5808,E-4,485.042,0.5,108,128.0
5809,E-2,485.2,0.5,89,128.0
5810,G#2,485.45,59/40,92,128.0
5811,E-3,485.45,59/40,92,128.0
5812,G#3,485.45,59/40,92,128.0
5813,B3,485.45,59/40,92,128.0
5814,E-4,485.5,249/125,108,128.0
5815,E-2,485.5,27/20,95,128.0
5816,C2,485.5,1.0,82,128.0
5817,C#3,485.5,0.5,55,128.0
5818,E-2,485.5,1967/1000,94,128.0
5819,B-2,485.5,1967/1000,94,128.0
5820,E-3,485.5,1967/1000,94,128.0
5821,F#3,485.5,1967/1000,94,128.0
5822,B-3,485.5,1967/1000,94,128.0
5823,E-4,485.542,249/125,108,128.0
5824,F#3,485.7,0.5,89,128.0
5825,B-3,486.2,0.5,89,128.0
5826,C2,486.5,0.5,78,128.0
5827,F#2,486.5,0.5,78,128.0
5828,E-4,486.7,0.5,89,128.0
5829,G#2,486.95,19/40,92,128.0
5830,E-3,486.95,19/40,92,128.0
5831,G#3,486.95,19/40,92,128.0
5832,B3,486.95,19/40,92,128.0
5833,E-1,487.0,9/20,102,128.0
5834,F#2,487.0,0.5,96,128.0
5835,E2,487.0,0.5,96,128.0
5836,B-3,487.2,0.5,89,128.0
5837,E-3,487.45,0.25,89,128.0
5838,G#3,487.45,83/1000,89,128.0
5839,G#2,487.45,83/1000,89,128.0
5840,F4,487.5,0.5,108,128.0
5841,E-1,487.5,9/20,102,128.0
5842,F#2,487.5,0.5,73,128.0
5843,E-2,487.5,0.5,102,128.0
5844,B-2,487.5,0.5,102,128.0
5845,E-3,487.5,0.5,102,128.0
5846,B-3,487.5,0.5,102,128.0
5847,F4,487.542,229/500,108,128.0
5848,F#3,487.7,0.5,89,128.0
5849,G#3,487.7,83/1000,89,128.0
5850,E-3,487.7,83/1000,89,128.0
5851,G#2,487.7,83/1000,89,128.0
5852,E-2,487.95,1467/1000,94,128.0
5853,B-2,487.95,1467/1000,94,128.0
5854,E-3,487.95,1467/1000,94,128.0
5855,F#3,487.95,1467/1000,94,128.0
5856,B-3,487.95,1467/1000,94,128.0
5857,F4,488.0,1.0,108,128.0
5858,F4,488.0,521/500,108,128.0
5859,B1,488.0,9/10,102,128.0
5860,B2,488.0,1.5,92,128.0
5861,E-3,488.0,1.5,92,128.0
5862,F#3,488.0,1.5,92,128.0
5863,B3,488.0,1.5,92,128.0
5864,C2,488.0,0.5,73,128.0
5865,C#3,488.0,0.5,73,128.0
5866,E-3,488.2,0.5,89,128.0
5867,F#2,488.5,0.5,68,128.0
5868,F#3,488.7,0.5,89,128.0
5869,E-4,489.0,0.5,108,128.0
5870,B1,489.0,9/20,102,128.0
5871,F#2,489.0,0.5,99,128.0
5872,E2,489.0,0.5,99,128.0
5873,E-4,489.042,0.5,108,128.0
5874,E-3,489.2,0.5,89,128.0
5875,E-2,489.45,1967/1000,94,128.0
5876,B-2,489.45,1967/1000,94,128.0
5877,E-3,489.45,1967/1000,94,128.0
5878,F#3,489.45,1967/1000,94,128.0
5879,B-3,489.45,1967/1000,94,128.0
5880,E-4,489.5,19/20,108,128.0
5881,B2,489.5,9/5,89,128.0
5882,B2,489.5,79/40,92,128.0
5883,E-3,489.5,79/40,92,128.0
5884,F#3,489.5,79/40,92,128.0
5885,B3,489.5,79/40,92,128.0
5886,C2,489.5,0.5,68,128.0
5887,C#3,489.5,0.5,68,128.0
5888,E-4,489.542,19/20,108,128.0
5889,F#3,489.7,0.5,89,128.0
5890,F#2,490.0,0.5,65,128.0
5891,B3,490.2,0.5,89,128.0
5892,D4,490.458,771/500,102,128.0
5893,D4,490.5,1.5,102,128.0
5894,C2,490.5,0.5,78,128.0
5895,F#2,490.5,0.5,78,128.0
5896,F#4,490.7,0.5,89,128.0
5897,F#2,491.0,0.5,96,128.0
5898,E2,491.0,0.5,96,128.0
5899,B3,491.2,0.5,89,128.0
5900,E-2,491.45,0.5,102,128.0
5901,B-2,491.45,0.5,102,128.0
5902,E-3,491.45,0.5,102,128.0
5903,B-3,491.45,0.5,102,128.0
5904,G#1,491.5,9/20,102,128.0
5905,B2,491.5,0.5,92,128.0
5906,E-3,491.5,0.5,92,128.0
5907,F#3,491.5,0.5,92,128.0
5908,B3,491.5,0.5,92,128.0
5909,C2,491.5,0.5,80,128.0
5910,F#2,491.5,0.5,80,128.0
5911,F#3,491.7,0.5,89,128.0
5912,B2,491.95,1.5,92,128.0
5913,E-3,491.95,1.5,92,128.0
5914,F#3,491.95,1.5,92,128.0
5915,B3,491.95,1.5,92,128.0
5916,D4,492.0,1.5,95,128.0
5917,D4,492.0,21/500,102,128.0
5918,B-1,492.0,9/10,102,128.0
5919,B-2,492.0,1483/1000,102,128.0
5920,F3,492.0,1483/1000,102,128.0
5921,B-3,492.0,1483/1000,102,128.0
5922,C2,492.0,0.5,76,128.0
5923,C#3,492.0,0.5,76,128.0
5924,D4,492.042,1.5,95,128.0
5925,E-3,492.2,0.5,89,128.0
5926,F#2,492.5,0.5,72,128.0
5927,F#3,492.7,0.5,89,128.0
5928,B-1,493.0,9/20,102,128.0
5929,F#2,493.0,0.5,98,128.0
5930,E2,493.0,0.5,98,128.0
5931,D3,493.2,0.5,89,128.0
5932,B2,493.45,79/40,92,128.0
5933,E-3,493.45,79/40,92,128.0
5934,F#3,493.45,79/40,92,128.0
5935,B3,493.45,79/40,92,128.0
5936,F4,493.5,1.5,95,128.0
5937,B-2,493.5,9/5,89,128.0
5938,B-2,493.5,1983/1000,102,128.0
5939,F3,493.5,1983/1000,102,128.0
5940,B-3,493.5,1983/1000,102,128.0
5941,C2,493.5,0.5,72,128.0
5942,C#3,493.5,0.5,72,128.0
5943,F4,493.542,1.5,95,128.0
5944,G#3,493.7,0.5,89,128.0
5945,F#2,494.0,0.5,67,128.0
5946,B-3,494.2,0.5,89,128.0
5947,C2,494.5,0.5,76,128.0
5948,F#2,494.5,0.5,76,128.0
5949,F4,494.7,0.5,89,128.0
5950,F4,495.0,1.0,108,128.0
5951,F#2,495.0,0.5,100,128.0
5952,E2,495.0,0.5,100,128.0
5953,F4,495.042,479/500,108,128.0
5954,B-3,495.2,0.5,89,128.0
5955,B2,495.45,0.5,92,128.0
5956,E-3,495.45,0.5,92,128.0
5957,F#3,495.45,0.5,92,128.0
5958,B3,495.45,0.5,92,128.0
5959,E-1,495.5,9/20,102,128.0
5960,F#2,495.5,0.25,74,128.0
5961,B-2,495.5,0.5,102,128.0
5962,F3,495.5,0.5,102,128.0
5963,B-3,495.5,0.5,102,128.0
5964,G#3,495.7,0.5,89,128.0
5965,B-2,495.95,1483/1000,102,128.0
5966,F3,495.95,1483/1000,102,128.0
5967,B-3,495.95,1483/1000,102,128.0
5968,F4,496.0,1.0,108,128.0
5969,F4,496.0,521/500,108,128.0
5970,G#1,496.0,9/10,102,128.0
5971,G#2,496.0,59/40,92,128.0
5972,E-3,496.0,59/40,92,128.0
5973,G#3,496.0,59/40,92,128.0
5974,B3,496.0,59/40,92,128.0
5975,C2,496.0,0.5,76,128.0
5976,C#3,496.0,0.5,76,128.0
5977,D3,496.2,0.5,89,128.0
5978,F#2,496.5,0.5,69,128.0
5979,G#3,496.7,0.5,89,128.0
5980,E-4,497.0,0.5,108,128.0
5981,G#1,497.0,9/20,102,128.0
5982,F#2,497.0,0.5,96,128.0
5983,E2,497.0,0.5,96,128.0
5984,E-4,497.042,0.5,108,128.0
5985,G#2,497.2,0.5,89,128.0
5986,B-2,497.45,1983/1000,102,128.0
5987,F3,497.45,1983/1000,102,128.0
5988,B-3,497.45,1983/1000,102,128.0
5989,B-3,497.5,1.0,102,128.0
5990,G#2,497.5,9/10,95,128.0
5991,G#2,497.5,59/40,92,128.0
5992,E-3,497.5,59/40,92,128.0
5993,G#3,497.5,59/40,92,128.0
5994,B3,497.5,59/40,92,128.0
5995,C2,497.5,0.5,75,128.0
5996,C#3,497.5,0.5,75,128.0
5997,B-3,497.542,1.0,102,128.0
5998,E-3,497.7,0.5,89,128.0
5999,F#2,498.0,0.5,65,128.0
6000,G#3,498.2,0.5,89,128.0
6001,G#3,498.5,1.0,108,128.0
6002,E-1,498.5,9/20,102,128.0
6003,C2,498.5,0.5,77,128.0
6004,F#2,498.5,0.5,77,128.0
6005,G#3,498.542,1.0,108,128.0
6006,E-4,498.7,0.5,89,128.0
6007,F#1,499.0,9/20,102,128.0
6008,G#2,499.0,19/40,92,128.0
6009,E-3,499.0,19/40,92,128.0
6010,G#3,499.0,19/40,92,128.0
6011,B3,499.0,19/40,92,128.0
6012,F#2,499.0,0.5,96,128.0
6013,E2,499.0,0.5,96,128.0
6014,B3,499.2,0.5,89,128.0
6015,B-2,499.45,0.5,102,128.0
6016,F3,499.45,0.5,102,128.0
6017,B-3,499.45,0.5,102,128.0
6018,B-3,499.5,0.5,108,128.0
6019,E-3,499.5,0.25,89,128.0
6020,F1,499.5,9/20,102,128.0
6021,F#2,499.5,0.5,74,128.0
6022,G#3,499.5,83/1000,89,128.0
6023,G#2,499.5,83/1000,89,128.0
6024,B-3,499.542,229/500,108,128.0
6025,G#3,499.7,0.5,89,128.0
6026,G#3,499.75,83/1000,89,128.0
6027,E-3,499.75,83/1000,89,128.0
6028,G#2,499.75,83/1000,89,128.0
6029,G#2,499.95,59/40,92,128.0
6030,E-3,499.95,59/40,92,128.0
6031,G#3,499.95,59/40,92,128.0
6032,B3,499.95,59/40,92,128.0
6033,E-4,500.0,3.5,108,128.0
6034,B-3,500.0,21/500,108,128.0
6035,E-1,500.0,9/10,102,128.0
6036,E-2,500.0,1467/1000,94,128.0
6037,B-2,500.0,1467/1000,94,128.0
6038,E-3,500.0,1467/1000,94,128.0
6039,F#3,500.0,1467/1000,94,128.0
6040,B-3,500.0,1467/1000,94,128.0
6041,C2,500.0,0.5,73,128.0
6042,C#3,500.0,0.5,73,128.0
6043,E-4,500.042,3.5,108,128.0
6044,F#2,500.2,0.5,89,128.0
6045,F#2,500.5,0.5,75,128.0
6046,F2,500.7,0.5,89,128.0
6047,E-2,501.0,9/20,95,128.0
6048,F#2,501.0,0.5,98,128.0
6049,E2,501.0,0.5,98,128.0
6050,E-2,501.2,0.5,89,128.0
6051,G#2,501.45,59/40,92,128.0
6052,E-3,501.45,59/40,92,128.0
6053,G#3,501.45,59/40,92,128.0
6054,B3,501.45,59/40,92,128.0
6055,E-2,501.5,27/20,95,128.0
6056,E-2,501.5,1967/1000,94,128.0
6057,B-2,501.5,1967/1000,94,128.0
6058,E-3,501.5,1967/1000,94,128.0
6059,F#3,501.5,1967/1000,94,128.0
6060,B-3,501.5,1967/1000,94,128.0
6061,C2,501.5,0.5,76,128.0
6062,C#3,501.5,0.5,76,128.0
6063,F#3,501.7,0.5,89,128.0
6064,F#2,502.0,0.5,67,128.0
6065,B-3,502.2,0.5,89,128.0
6066,F#2,502.5,0.5,69,128.0
6067,E-4,502.7,0.5,89,128.0
6068,G#2,502.95,19/40,92,128.0
6069,E-3,502.95,19/40,92,128.0
6070,G#3,502.95,19/40,92,128.0
6071,B3,502.95,19/40,92,128.0
6072,E-1,503.0,9/20,102,128.0
6073,F#2,503.0,0.5,96,128.0
6074,E2,503.0,0.5,96,128.0
6075,B-3,503.2,0.5,89,128.0
6076,E-3,503.45,0.25,89,128.0
6077,G#3,503.45,83/1000,89,128.0
6078,G#2,503.45,83/1000,89,128.0
6079,F4,503.5,0.5,108,128.0
6080,E-1,503.5,9/20,102,128.0
6081,F#2,503.5,0.5,72,128.0
6082,E-2,503.5,0.5,102,128.0
6083,B-2,503.5,0.5,102,128.0
6084,E-3,503.5,0.5,102,128.0
6085,B-3,503.5,0.5,102,128.0
6086,F4,503.542,229/500,108,128.0
6087,F#3,503.7,0.5,89,128.0
6088,G#3,503.7,83/1000,89,128.0
6089,E-3,503.7,83/1000,89,128.0
6090,G#2,503.7,83/1000,89,128.0
6091,E-2,503.95,1467/1000,94,128.0
6092,B-2,503.95,1467/1000,94,128.0
6093,E-3,503.95,1467/1000,94,128.0
6094,F#3,503.95,1467/1000,94,128.0
6095,B-3,503.95,1467/1000,94,128.0
6096,F4,504.0,1.5,108,128.0
6097,F4,504.0,771/500,108,128.0
6098,B1,504.0,9/10,102,128.0
6099,B2,504.0,1.5,92,128.0
6100,E-3,504.0,1.5,92,128.0
6101,F#3,504.0,1.5,92,128.0
6102,B3,504.0,1.5,92,128.0
6103,C2,504.0,0.5,76,128.0
6104,C#3,504.0,0.5,76,128.0
6105,E-3,504.2,0.5,89,128.0
6106,F#2,504.5,0.5,76,128.0
6107,F#3,504.7,0.5,89,128.0
6108,B1,505.0,9/20,102,128.0
6109,F#2,505.0,0.5,99,128.0
6110,E2,505.0,0.5,99,128.0
6111,E-3,505.2,0.5,89,128.0
6112,E-2,505.45,1967/1000,94,128.0
6113,B-2,505.45,1967/1000,94,128.0
6114,E-3,505.45,1967/1000,94,128.0
6115,F#3,505.45,1967/1000,94,128.0
6116,B-3,505.45,1967/1000,94,128.0
6117,E-4,505.5,19/20,108,128.0
6118,B2,505.5,9/5,89,128.0
6119,B2,505.5,79/40,92,128.0
6120,E-3,505.5,79/40,92,128.0
6121,F#3,505.5,79/40,92,128.0
6122,B3,505.5,79/40,92,128.0
6123,C2,505.5,0.5,76,128.0
6124,C#3,505.5,0.5,76,128.0
6125,E-4,505.542,19/20,108,128.0
6126,F#3,505.7,0.5,89,128.0
6127,F#2,506.0,0.5,72,128.0
6128,B3,506.2,0.5,89,128.0
6129,D4,506.458,771/500,102,128.0
6130,D4,506.5,1.5,102,128.0
6131,C2,506.5,0.5,80,128.0
6132,F#2,506.5,0.5,80,128.0
6133,F#4,506.7,0.5,89,128.0
6134,F#2,507.0,0.5,100,128.0
6135,E2,507.0,0.5,100,128.0
6136,B3,507.2,0.5,89,128.0
6137,E-2,507.45,0.5,102,128.0
6138,B-2,507.45,0.5,102,128.0
6139,E-3,507.45,0.5,102,128.0
6140,B-3,507.45,0.5,102,128.0
6141,G#1,507.5,9/20,102,128.0
6142,F#2,507.5,0.5,67,128.0
6143,B2,507.5,0.5,92,128.0
6144,E-3,507.5,0.5,92,128.0
6145,F#3,507.5,0.5,92,128.0
6146,B3,507.5,0.5,92,128.0
6147,F#3,507.7,0.5,89,128.0
6148,B2,507.95,1.5,92,128.0
6149,E-3,507.95,1.5,92,128.0
6150,F#3,507.95,1.5,92,128.0
6151,B3,507.95,1.5,92,128.0
6152,D4,508.0,1.5,108,128.0
6153,D4,508.0,21/500,102,128.0
6154,B-1,508.0,9/10,102,128.0
6155,B-2,508.0,1483/1000,102,128.0
6156,F3,508.0,1483/1000,102,128.0
6157,B-3,508.0,1483/1000,102,128.0
6158,C2,508.0,0.5,76,128.0
6159,C#3,508.0,0.5,76,128.0
6160,D4,508.042,1.5,108,128.0
6161,E-3,508.2,0.5,89,128.0
6162,F#2,508.5,0.5,76,128.0
6163,F#3,508.7,0.5,89,128.0
6164,B-1,509.0,9/20,102,128.0
6165,E2,509.0,0.5,124,128.0
6166,D3,509.2,0.5,89,128.0
6167,B2,509.45,79/40,92,128.0
6168,E-3,509.45,79/40,92,128.0
6169,F#3,509.45,79/40,92,128.0
6170,B3,509.45,79/40,92,128.0
6171,F4,509.5,1.0,108,128.0
6172,B-2,509.5,9/5,89,128.0
6173,B-2,509.5,1983/1000,102,128.0
6174,F3,509.5,1983/1000,102,128.0
6175,B-3,509.5,1983/1000,102,128.0
6176,C2,509.5,0.5,76,128.0
6177,C#3,509.5,0.5,76,128.0
6178,F4,509.542,1.0,108,128.0
6179,G#3,509.7,0.5,89,128.0
6180,F#2,510.0,0.5,67,128.0
6181,B-3,510.2,0.5,89,128.0
6182,E-4,510.5,1.5,95,128.0
6183,F#2,510.5,0.5,65,128.0
6184,E-4,510.542,729/500,95,128.0
6185,F4,510.7,0.5,89,128.0
6186,F#2,511.0,0.5,98,128.0
6187,E2,511.0,0.5,98,128.0
6188,B-3,511.2,0.5,89,128.0
6189,B2,511.45,0.5,92,128.0
6190,E-3,511.45,0.5,92,128.0
6191,F#3,511.45,0.5,92,128.0
6192,B3,511.45,0.5,92,128.0
6193,D4,511.5,0.25,98,128.0
6194,E-1,511.5,9/20,102,128.0
6195,F#2,511.5,0.5,72,128.0
6196,B-2,511.5,0.5,102,128.0
6197,F3,511.5,0.5,102,128.0
6198,B-3,511.5,0.5,102,128.0
6199,D4,511.542,0.25,98,128.0
6200,G#3,511.7,0.5,89,128.0
6201,E-4,511.75,0.25,98,128.0
6202,E-4,511.792,26/125,98,128.0
6203,B-2,511.95,1483/1000,102,128.0
6204,F3,511.95,1483/1000,102,128.0
6205,B-3,511.95,1483/1000,102,128.0
6206,E-4,512.0,4.0,108,128.0
6207,E-4,512.0,21/500,95,128.0
6208,F#4,512.0,0.5,98,128.0
6209,E-4,512.0,21/500,98,128.0
6210,G#1,512.0,9/10,102,128.0
6211,G#2,512.0,221/500,95,128.0
6212,E-3,512.0,221/500,95,128.0
6213,G#3,512.0,221/500,95,128.0
6214,C2,512.0,0.5,61,128.0
6215,E2,512.0,0.5,61,128.0
6216,C#3,512.0,0.5,61,128.0
6217,E-4,512.042,1979/500,108,128.0
6218,F#4,512.042,0.5,98,128.0
6219,D3,512.2,0.5,89,128.0
6220,E-4,512.5,0.25,98,128.0
6221,G#2,512.5,221/500,95,128.0
6222,E-3,512.5,221/500,95,128.0
6223,G#3,512.5,221/500,95,128.0
6224,C2,512.5,0.5,38,128.0
6225,E2,512.5,0.5,38,128.0
6226,E-4,512.542,0.25,98,128.0
6227,G#3,512.7,0.5,89,128.0
6228,F4,512.75,26/125,98,128.0
6229,F4,512.792,26/125,98,128.0
6230,G#4,512.95,11/20,98,128.0
6231,G#4,512.992,11/20,91,128.0
6232,G#1,513.0,9/20,102,128.0
6233,G#2,513.0,221/500,95,128.0
6234,E-3,513.0,221/500,95,128.0
6235,G#3,513.0,221/500,95,128.0
6236,C2,513.0,0.5,43,128.0
6237,E2,513.0,0.5,43,128.0
6238,G#2,513.2,0.5,89,128.0
6239,B-2,513.45,1983/1000,102,128.0
6240,F3,513.45,1983/1000,102,128.0
6241,B-3,513.45,1983/1000,102,128.0
6242,B4,513.5,0.5,98,128.0
6243,G#1,513.5,9/20,102,128.0
6244,G#2,513.5,221/500,95,128.0
6245,E-3,513.5,221/500,95,128.0
6246,G#3,513.5,221/500,95,128.0
6247,C2,513.5,0.5,41,128.0
6248,E2,513.5,0.5,41,128.0
6249,B4,513.542,0.5,98,128.0
6250,E-3,513.7,0.5,89,128.0
6251,D5,514.0,0.25,98,128.0
6252,G#1,514.0,9/20,102,128.0
6253,G#2,514.0,221/500,95,128.0
6254,E-3,514.0,221/500,95,128.0
6255,G#3,514.0,221/500,95,128.0
6256,C2,514.0,0.5,46,128.0
6257,E2,514.0,0.5,46,128.0
6258,D5,514.042,0.25,98,128.0
6259,G#3,514.2,0.5,89,128.0
6260,B-4,514.25,0.25,98,128.0
6261,B-4,514.292,0.25,98,128.0
6262,B4,514.5,0.25,98,128.0
6263,G#1,514.5,9/20,102,128.0
6264,G#2,514.5,221/500,95,128.0
6265,E-3,514.5,221/500,95,128.0
6266,G#3,514.5,221/500,95,128.0
6267,C2,514.5,0.5,43,128.0
6268,E2,514.5,0.5,43,128.0
6269,B4,514.542,0.25,98,128.0
6270,E-4,514.7,0.5,89,128.0
6271,D5,514.75,0.25,98,128.0
6272,D5,514.792,0.25,98,128.0
6273,E-5,515.0,0.5,98,128.0
6274,G#1,515.0,9/20,102,128.0
6275,G#2,515.0,221/500,95,128.0
6276,E-3,515.0,221/500,95,128.0
6277,G#3,515.0,221/500,95,128.0
6278,C2,515.0,0.5,50,128.0
6279,E2,515.0,0.5,50,128.0
6280,E-5,515.042,0.5,98,128.0
6281,B3,515.2,0.5,89,128.0
6282,B-2,515.45,0.5,102,128.0
6283,F3,515.45,0.5,102,128.0
6284,B-3,515.45,0.5,102,128.0
6285,D5,515.5,0.25,98,128.0
6286,F#2,515.5,9/40,95,128.0
6287,G#2,515.5,221/500,95,128.0
6288,E-3,515.5,221/500,95,128.0
6289,G#3,515.5,221/500,95,128.0
6290,C2,515.5,0.5,52,128.0
6291,E2,515.5,0.5,52,128.0
6292,D5,515.542,0.25,98,128.0
6293,G#3,515.7,0.5,89,128.0
6294,E-5,515.75,0.25,98,128.0
6295,G2,515.75,9/40,95,128.0
6296,E-5,515.792,26/125,98,128.0
6297,G#2,515.95,221/500,95,128.0
6298,E-3,515.95,221/500,95,128.0
6299,G#3,515.95,221/500,95,128.0
6300,E-4,516.0,4.0,108,128.0
6301,E-4,516.0,4.0,108,128.0
6302,F5,516.0,0.5,98,128.0
6303,E-5,516.0,21/500,98,128.0
6304,G#2,516.0,9/20,89,128.0
6305,C2,516.0,0.5,71,128.0
6306,E2,516.0,0.25,54,128.0
6307,G#2,516.0,221/500,95,128.0
6308,E-3,516.0,221/500,95,128.0
6309,G#3,516.0,221/500,95,128.0
6310,F5,516.042,0.5,98,128.0
6311,E-3,516.2,0.5,89,128.0
6312,G#2,516.45,221/500,95,128.0
6313,E-3,516.45,221/500,95,128.0
6314,G#3,516.45,221/500,95,128.0
6315,E-5,516.5,0.25,98,128.0
6316,G#2,516.5,9/20,89,128.0
6317,C2,516.5,0.5,74,128.0
6318,E2,516.5,0.25,81,128.0
6319,G#2,516.5,221/500,95,128.0
6320,E-3,516.5,221/500,95,128.0
6321,G#3,516.5,221/500,95,128.0
6322,E-5,516.542,0.25,98,128.0
6323,G#3,516.7,0.5,89,128.0
6324,F5,516.75,0.25,98,128.0
6325,F5,516.792,0.25,98,128.0
6326,G#2,516.95,221/500,95,128.0
6327,E-3,516.95,221/500,95,128.0
6328,G#3,516.95,221/500,95,128.0
6329,F#5,517.0,0.25,98,128.0
6330,G#2,517.0,9/20,89,128.0
6331,C2,517.0,0.5,97,128.0
6332,E2,517.0,0.25,85,128.0
6333,G#2,517.0,221/500,95,128.0
6334,E-3,517.0,221/500,95,128.0
6335,G#3,517.0,221/500,95,128.0
6336,F#5,517.042,0.25,98,128.0
6337,G#2,517.2,0.5,89,128.0
6338,F5,517.25,0.5,98,128.0
6339,F5,517.292,0.5,98,128.0
6340,G#2,517.45,221/500,95,128.0
6341,E-3,517.45,221/500,95,128.0
6342,G#3,517.45,221/500,95,128.0
6343,G#2,517.5,9/20,89,128.0
6344,C2,517.5,0.5,94,128.0
6345,E2,517.5,0.25,102,128.0
6346,G#2,517.5,221/500,95,128.0
6347,E-3,517.5,221/500,95,128.0
6348,G#3,517.5,221/500,95,128.0
6349,E-3,517.7,0.5,89,128.0
6350,C#5,517.75,0.25,98,128.0
6351,C#5,517.792,0.25,98,128.0
6352,G#2,517.95,221/500,95,128.0
6353,E-3,517.95,221/500,95,128.0
6354,G#3,517.95,221/500,95,128.0
6355,F5,518.0,0.25,98,128.0
6356,G#2,518.0,9/20,89,128.0
6357,G#2,518.0,221/500,95,128.0
6358,E-3,518.0,221/500,95,128.0
6359,G#3,518.0,221/500,95,128.0
6360,C2,518.0,0.5,102,128.0
6361,E2,518.0,0.5,102,128.0
6362,F5,518.042,0.25,98,128.0
6363,G#3,518.2,0.5,89,128.0
6364,D5,518.25,0.25,98,128.0
6365,D5,518.292,0.25,98,128.0
6366,G#2,518.45,221/500,95,128.0
6367,E-3,518.45,221/500,95,128.0
6368,G#3,518.45,221/500,95,128.0
6369,E-5,518.5,0.5,98,128.0
6370,F#2,518.5,9/20,89,128.0
6371,C2,518.5,0.5,95,128.0
6372,G#2,518.5,221/500,95,128.0
6373,E-3,518.5,221/500,95,128.0
6374,G#3,518.5,221/500,95,128.0
6375,E-5,518.542,0.5,98,128.0
6376,E-4,518.7,0.5,89,128.0
6377,G#2,518.95,221/500,95,128.0
6378,E-3,518.95,221/500,95,128.0
6379,G#3,518.95,221/500,95,128.0
6380,F#2,519.0,0.5,102,128.0
6381,C#5,519.0,0.25,98,128.0
6382,E-2,519.0,9/20,95,128.0
6383,E2,519.0,0.5,127,128.0
6384,C#5,519.042,0.25,98,128.0
6385,B3,519.2,0.5,89,128.0
6386,E-5,519.25,0.125,98,128.0
6387,E-5,519.292,0.125,98,128.0
6388,C#5,519.375,0.625,98,128.0
6389,C#5,519.417,583/1000,98,128.0
6390,G#2,519.45,221/500,95,128.0
6391,E-3,519.45,221/500,95,128.0
6392,G#3,519.45,221/500,95,128.0
6393,F2,519.5,0.5,102,128.0
6394,C#2,519.5,9/20,95,128.0
6395,G#3,519.7,0.5,89,128.0
6396,G#2,519.95,221/500,95,128.0
6397,E-3,519.95,221/500,95,128.0
6398,G#3,519.95,221/500,95,128.0
6399,C#5,520.0,1.0,102,128.0
6400,E-4,520.0,21/500,108,128.0
6401,C#5,520.0,21/500,98,128.0
6402,E-1,520.0,9/10,108,128.0
6403,E-2,520.0,1467/1000,89,128.0
6404,B-2,520.0,1467/1000,89,128.0
6405,E-3,520.0,1467/1000,89,128.0
6406,F#3,520.0,1467/1000,89,128.0
6407,B-3,520.0,1467/1000,89,128.0
6408,C2,520.0,1.0,76,128.0
6409,C#3,520.0,1.0,76,128.0
6410,C#5,520.042,1.0,102,128.0
6411,F#2,520.2,0.5,89,128.0
6412,G#2,520.45,221/500,95,128.0
6413,E-3,520.45,221/500,95,128.0
6414,G#3,520.45,221/500,95,128.0
6415,F2,520.7,0.5,89,128.0
6416,G#2,520.95,221/500,95,128.0
6417,E-3,520.95,221/500,95,128.0
6418,G#3,520.95,221/500,95,128.0
6419,C#5,521.0,477/250,102,128.0
6420,E-1,521.0,9/20,102,128.0
6421,E2,521.0,0.5,120,128.0
6422,C#5,521.042,477/250,102,128.0
6423,E-2,521.2,1467/1000,89,128.0
6424,B-2,521.2,1467/1000,89,128.0
6425,E-3,521.2,1467/1000,89,128.0
6426,F#3,521.2,1467/1000,89,128.0
6427,B-3,521.2,1467/1000,89,128.0
6428,G#2,521.45,221/500,95,128.0
6429,E-3,521.45,221/500,95,128.0
6430,G#3,521.45,221/500,95,128.0
6431,E-2,521.5,9/10,102,128.0
6432,E-2,521.5,1467/1000,89,128.0
6433,B-2,521.5,1467/1000,89,128.0
6434,E-3,521.5,1467/1000,89,128.0
6435,F#3,521.5,1467/1000,89,128.0
6436,B-3,521.5,1467/1000,89,128.0
6437,C2,521.5,1.0,76,128.0
6438,C#3,521.5,1.0,76,128.0
6439,G#2,521.95,221/500,95,128.0
6440,E-3,521.95,221/500,95,128.0
6441,G#3,521.95,221/500,95,128.0
6442,G#2,522.45,221/500,95,128.0
6443,E-3,522.45,221/500,95,128.0
6444,G#3,522.45,221/500,95,128.0
6445,E-1,522.5,9/20,102,128.0
6446,F#2,522.5,0.5,74,128.0
6447,E-2,522.7,1467/1000,89,128.0
6448,B-2,522.7,1467/1000,89,128.0
6449,E-3,522.7,1467/1000,89,128.0
6450,F#3,522.7,1467/1000,89,128.0
6451,B-3,522.7,1467/1000,89,128.0
6452,C#5,522.917,833/1000,102,128.0
6453,F#2,522.95,0.5,102,128.0
6454,C#5,522.958,833/1000,102,128.0
6455,E-2,523.0,0.5,108,128.0
6456,E-1,523.0,9/20,102,128.0
6457,F#2,523.0,0.5,94,128.0
6458,E2,523.0,0.5,94,128.0
6459,F2,523.45,0.5,102,128.0
6460,F2,523.5,0.5,108,128.0
6461,F1,523.5,9/20,102,128.0
6462,F#2,523.5,0.5,72,128.0
6463,G#4,523.75,0.25,102,128.0
6464,G#4,523.792,26/125,102,128.0
6465,E-2,523.95,1467/1000,89,128.0
6466,B-2,523.95,1467/1000,89,128.0
6467,E-3,523.95,1467/1000,89,128.0
6468,F#3,523.95,1467/1000,89,128.0
6469,B-3,523.95,1467/1000,89,128.0
6470,C#5,524.0,1.0,102,128.0
6471,G#4,524.0,21/500,102,128.0
6472,F#1,524.0,9/10,102,128.0
6473,F#2,524.0,59/40,99,128.0
6474,C#3,524.0,59/40,99,128.0
6475,F#3,524.0,59/40,99,128.0
6476,C#4,524.0,59/40,99,128.0
6477,C2,524.0,0.5,75,128.0
6478,C#3,524.0,0.5,75,128.0
6479,C#5,524.042,1.0,102,128.0
6480,E-2,524.2,0.5,108,128.0
6481,F#2,524.5,0.5,72,128.0
6482,F2,524.7,0.5,108,128.0
6483,C#5,525.0,477/250,102,128.0
6484,F#1,525.0,9/20,102,128.0
6485,F#2,525.0,0.5,97,128.0
6486,E2,525.0,0.5,97,128.0
6487,C#5,525.042,477/250,102,128.0
6488,F#2,525.2,59/40,99,128.0
6489,C#3,525.2,59/40,99,128.0
6490,F#3,525.2,59/40,99,128.0
6491,C#4,525.2,59/40,99,128.0
6492,E-2,525.45,1467/1000,89,128.0
6493,B-2,525.45,1467/1000,89,128.0
6494,E-3,525.45,1467/1000,89,128.0
6495,F#3,525.45,1467/1000,89,128.0
6496,B-3,525.45,1467/1000,89,128.0
6497,F#2,525.5,9/10,95,128.0
6498,F#2,525.5,59/40,99,128.0
6499,C#3,525.5,59/40,99,128.0
6500,F#3,525.5,59/40,99,128.0
6501,C#4,525.5,59/40,99,128.0
6502,C2,525.5,0.5,70,128.0
6503,C#3,525.5,0.5,70,128.0
6504,F#2,526.0,0.5,73,128.0
6505,F#1,526.5,9/20,102,128.0
6506,C2,526.5,0.5,78,128.0
6507,F#2,526.5,0.5,78,128.0
6508,F#2,526.7,59/40,99,128.0
6509,C#3,526.7,59/40,99,128.0
6510,F#3,526.7,59/40,99,128.0
6511,C#4,526.7,59/40,99,128.0
6512,C#5,526.917,833/1000,102,128.0
6513,E-2,526.95,0.5,108,128.0
6514,C#5,526.958,833/1000,102,128.0
6515,F#1,527.0,9/20,102,128.0
6516,F#2,527.0,19/40,99,128.0
6517,C#3,527.0,19/40,99,128.0
6518,F#3,527.0,19/40,99,128.0
6519,C#4,527.0,19/40,99,128.0
6520,F#2,527.0,0.5,94,128.0
6521,E2,527.0,0.5,94,128.0
6522,F2,527.45,0.5,108,128.0
6523,E-1,527.5,9/20,102,128.0
6524,F#2,527.5,0.5,70,128.0
6525,F#2,527.5,19/40,99,128.0
6526,C#3,527.5,19/40,99,128.0
6527,F#3,527.5,19/40,99,128.0
6528,C#4,527.5,19/40,99,128.0
6529,G#4,527.75,0.25,102,128.0
6530,G#4,527.792,26/125,102,128.0
6531,F#2,527.95,59/40,99,128.0
6532,C#3,527.95,59/40,99,128.0
6533,F#3,527.95,59/40,99,128.0
6534,C#4,527.95,59/40,99,128.0
6535,E-5,528.0,1.0,102,128.0
6536,G#4,528.0,21/500,102,128.0
6537,G#1,528.0,9/10,102,128.0
6538,G#2,528.0,1483/1000,102,128.0
6539,E-3,528.0,1483/1000,102,128.0
6540,G#3,528.0,1483/1000,102,128.0
6541,C2,528.0,0.5,70,128.0
6542,C#3,528.0,0.5,70,128.0
6543,E-5,528.042,1.0,102,128.0
6544,F#2,528.2,19/40,99,128.0
6545,C#3,528.2,19/40,99,128.0
6546,F#3,528.2,19/40,99,128.0
6547,C#4,528.2,19/40,99,128.0
6548,F#2,528.5,0.5,74,128.0
6549,F#2,528.7,19/40,99,128.0
6550,C#3,528.7,19/40,99,128.0
6551,F#3,528.7,19/40,99,128.0
6552,C#4,528.7,19/40,99,128.0
6553,E-5,529.0,477/250,102,128.0
6554,E-1,529.0,9/20,102,128.0
6555,F#2,529.0,0.5,100,128.0
6556,E2,529.0,0.5,100,128.0
6557,E-5,529.042,477/250,102,128.0
6558,G#2,529.2,1483/1000,102,128.0
6559,E-3,529.2,1483/1000,102,128.0
6560,G#3,529.2,1483/1000,102,128.0
6561,F#2,529.45,59/40,99,128.0
6562,C#3,529.45,59/40,99,128.0
6563,F#3,529.45,59/40,99,128.0
6564,C#4,529.45,59/40,99,128.0
6565,G#1,529.5,9/10,102,128.0
6566,G#2,529.5,1483/1000,102,128.0
6567,E-3,529.5,1483/1000,102,128.0
6568,G#3,529.5,1483/1000,102,128.0
6569,C2,529.5,0.5,66,128.0
6570,C#3,529.5,0.5,66,128.0
6571,F#2,530.0,0.5,69,128.0
6572,G#1,530.5,9/20,102,128.0
6573,C2,530.5,0.5,82,128.0
6574,F#2,530.5,0.5,82,128.0
6575,G#2,530.7,1483/1000,102,128.0
6576,E-3,530.7,1483/1000,102,128.0
6577,G#3,530.7,1483/1000,102,128.0
6578,E-5,530.917,1.0,102,128.0
6579,B4,530.917,1.0,76,128.0
6580,F#2,530.95,19/40,99,128.0
6581,C#3,530.95,19/40,99,128.0
6582,F#3,530.95,19/40,99,128.0
6583,C#4,530.95,19/40,99,128.0
6584,E-5,530.958,1.0,102,128.0
6585,B4,530.958,1.0,76,128.0
6586,G#1,531.0,9/20,102,128.0
6587,G#2,531.0,0.5,102,128.0
6588,E-3,531.0,0.5,102,128.0
6589,G#3,531.0,0.5,102,128.0
6590,F#2,531.0,0.5,96,128.0
6591,E2,531.0,0.5,96,128.0
6592,F#2,531.45,19/40,99,128.0
6593,C#3,531.45,19/40,99,128.0
6594,F#3,531.45,19/40,99,128.0
6595,C#4,531.45,19/40,99,128.0
6596,E-1,531.5,9/20,102,128.0
6597,G#2,531.5,0.5,102,128.0
6598,E-3,531.5,0.5,102,128.0
6599,G#3,531.5,0.5,102,128.0
6600,C2,531.5,0.5,80,128.0
6601,F#2,531.5,0.5,80,128.0
6602,E-5,531.917,83/1000,102,128.0
6603,G#2,531.95,1483/1000,102,128.0
6604,E-3,531.95,1483/1000,102,128.0
6605,G#3,531.95,1483/1000,102,128.0
6606,E-5,531.958,21/500,102,128.0
6607,E-5,532.0,917/1000,102,128.0
6608,E-5,532.0,479/500,102,128.0
6609,B1,532.0,9/20,102,128.0
6610,B2,532.0,124/125,102,128.0
6611,F#3,532.0,124/125,102,128.0
6612,B3,532.0,124/125,102,128.0
6613,C2,532.0,0.5,75,128.0
6614,C#3,532.0,0.5,75,128.0
6615,G#2,532.2,0.5,102,128.0
6616,E-3,532.2,0.5,102,128.0
6617,G#3,532.2,0.5,102,128.0
6618,B1,532.5,9/20,102,128.0
6619,F#2,532.5,0.5,75,128.0
6620,G#2,532.7,0.5,102,128.0
6621,E-3,532.7,0.5,102,128.0
6622,G#3,532.7,0.5,102,128.0
6623,E-5,532.917,583/1000,102,128.0
6624,E-5,532.958,583/1000,102,128.0
6625,B1,533.0,9/20,102,128.0
6626,B2,533.0,483/1000,102,128.0
6627,F#3,533.0,483/1000,102,128.0
6628,B3,533.0,483/1000,102,128.0
6629,F#2,533.0,0.5,92,128.0
6630,E2,533.0,0.5,92,128.0
6631,B2,533.2,124/125,102,128.0
6632,F#3,533.2,124/125,102,128.0
6633,B3,533.2,124/125,102,128.0
6634,G#2,533.45,1483/1000,102,128.0
6635,E-3,533.45,1483/1000,102,128.0
6636,G#3,533.45,1483/1000,102,128.0
6637,E-5,533.5,1417/1000,102,128.0
6638,B1,533.5,9/20,102,128.0
6639,F#2,533.5,0.5,70,128.0
6640,B2,533.5,233/1000,102,128.0
6641,F#3,533.5,233/1000,102,128.0
6642,B3,533.5,233/1000,102,128.0
6643,E-5,533.542,1417/1000,102,128.0
6644,B2,533.75,233/1000,102,128.0
6645,F#3,533.75,233/1000,102,128.0
6646,B3,533.75,233/1000,102,128.0
6647,C#2,534.0,9/10,102,128.0
6648,C#3,534.0,983/1000,102,128.0
6649,G#3,534.0,983/1000,102,128.0
6650,C#4,534.0,983/1000,102,128.0
6651,C2,534.0,1.0,77,128.0
6652,C#3,534.0,1.0,77,128.0
6653,B2,534.2,483/1000,102,128.0
6654,F#3,534.2,483/1000,102,128.0
6655,B3,534.2,483/1000,102,128.0
6656,B2,534.7,233/1000,102,128.0
6657,F#3,534.7,233/1000,102,128.0
6658,B3,534.7,233/1000,102,128.0
6659,E-5,534.917,1.0,102,128.0
6660,G#2,534.95,0.5,102,128.0
6661,E-3,534.95,0.5,102,128.0
6662,G#3,534.95,0.5,102,128.0
6663,B2,534.95,233/1000,102,128.0
6664,F#3,534.95,233/1000,102,128.0
6665,B3,534.95,233/1000,102,128.0
6666,E-5,534.958,1.0,102,128.0
6667,F#1,535.0,9/10,102,128.0
6668,F#2,535.0,1.0,99,128.0
6669,C#3,535.0,1.0,99,128.0
6670,F#3,535.0,1.0,99,128.0
6671,C#4,535.0,1.0,99,128.0
6672,C2,535.0,1.0,70,128.0
6673,A3,535.0,1.0,70,128.0
6674,C#3,535.2,983/1000,102,128.0
6675,G#3,535.2,983/1000,102,128.0
6676,C#4,535.2,983/1000,102,128.0
6677,G#2,535.45,0.5,102,128.0
6678,E-3,535.45,0.5,102,128.0
6679,G#3,535.45,0.5,102,128.0
6680,C#5,535.917,83/1000,102,128.0
6681,B2,535.95,124/125,102,128.0
6682,F#3,535.95,124/125,102,128.0
6683,B3,535.95,124/125,102,128.0
6684,C#5,535.958,21/500,102,128.0
6685,C#5,536.0,1.5,102,128.0
6686,C#5,536.0,771/500,102,128.0
6687,E-1,536.0,9/10,108,128.0
6688,E-2,536.0,1467/1000,89,128.0
6689,B-2,536.0,1467/1000,89,128.0
6690,E-3,536.0,1467/1000,89,128.0
6691,F#3,536.0,1467/1000,89,128.0
6692,B-3,536.0,1467/1000,89,128.0
6693,C2,536.0,0.5,75,128.0
6694,C#3,536.0,0.5,75,128.0
6695,F#2,536.2,1.0,99,128.0
6696,C#3,536.2,1.0,99,128.0
6697,F#3,536.2,1.0,99,128.0
6698,C#4,536.2,1.0,99,128.0
6699,F#2,536.5,0.5,65,128.0
6700,B2,536.95,483/1000,102,128.0
6701,F#3,536.95,483/1000,102,128.0
6702,B3,536.95,483/1000,102,128.0
6703,E-1,537.0,9/20,102,128.0
6704,F#2,537.0,0.5,98,128.0
6705,E2,537.0,0.5,98,128.0
6706,E-2,537.2,1467/1000,89,128.0
6707,B-2,537.2,1467/1000,89,128.0
6708,E-3,537.2,1467/1000,89,128.0
6709,F#3,537.2,1467/1000,89,128.0
6710,B-3,537.2,1467/1000,89,128.0
6711,C#5,537.417,1083/1000,102,128.0
6712,B2,537.45,233/1000,102,128.0
6713,F#3,537.45,233/1000,102,128.0
6714,B3,537.45,233/1000,102,128.0
6715,C#5,537.458,1083/1000,102,128.0
6716,E-2,537.5,9/10,102,128.0
6717,E-2,537.5,1467/1000,89,128.0
6718,B-2,537.5,1467/1000,89,128.0
6719,E-3,537.5,1467/1000,89,128.0
6720,F#3,537.5,1467/1000,89,128.0
6721,B-3,537.5,1467/1000,89,128.0
6722,C2,537.5,0.5,74,128.0
6723,C#3,537.5,0.5,74,128.0
6724,B2,537.7,233/1000,102,128.0
6725,F#3,537.7,233/1000,102,128.0
6726,B3,537.7,233/1000,102,128.0
6727,C#3,537.95,983/1000,102,128.0
6728,G#3,537.95,983/1000,102,128.0
6729,C#4,537.95,983/1000,102,128.0
6730,F#2,538.0,0.5,76,128.0
6731,E-5,538.5,0.5,102,128.0
6732,E-1,538.5,9/20,102,128.0
6733,C2,538.5,0.5,78,128.0
6734,F#2,538.5,0.5,78,128.0
6735,E-5,538.542,0.5,102,128.0
6736,E-2,538.7,1467/1000,89,128.0
6737,B-2,538.7,1467/1000,89,128.0
6738,E-3,538.7,1467/1000,89,128.0
6739,F#3,538.7,1467/1000,89,128.0
6740,B-3,538.7,1467/1000,89,128.0
6741,F#2,538.95,1.0,99,128.0
6742,C#3,538.95,1.0,99,128.0
6743,F#3,538.95,1.0,99,128.0
6744,C#4,538.95,1.0,99,128.0
6745,C#5,539.0,0.5,102,128.0
6746,E-2,539.0,0.5,108,128.0
6747,E-1,539.0,9/20,102,128.0
6748,F#2,539.0,0.5,96,128.0
6749,E2,539.0,0.5,96,128.0
6750,C#5,539.042,0.5,102,128.0
6751,B-4,539.5,0.5,102,128.0
6752,F2,539.5,0.5,108,128.0
6753,F1,539.5,9/20,102,128.0
6754,F#2,539.5,0.5,75,128.0
6755,B-4,539.542,229/500,102,128.0
6756,E-2,539.95,1467/1000,89,128.0
6757,B-2,539.95,1467/1000,89,128.0
6758,E-3,539.95,1467/1000,89,128.0
6759,F#3,539.95,1467/1000,89,128.0
6760,B-3,539.95,1467/1000,89,128.0
6761,G#4,540.0,1.0,102,128.0
6762,B-4,540.0,21/500,102,128.0
6763,F#1,540.0,9/10,102,128.0
6764,F#2,540.0,59/40,99,128.0
6765,C#3,540.0,59/40,99,128.0
6766,F#3,540.0,59/40,99,128.0
6767,C#4,540.0,59/40,99,128.0
6768,C2,540.0,0.5,70,128.0
6769,C#3,540.0,0.5,70,128.0
6770,G#4,540.042,1.0,102,128.0
6771,E-2,540.2,0.5,108,128.0
6772,F#2,540.5,0.5,72,128.0
6773,F2,540.7,0.5,108,128.0
6774,G#4,541.0,0.75,102,128.0
6775,F#1,541.0,9/20,102,128.0
6776,F#2,541.0,0.5,98,128.0
6777,E2,541.0,0.5,98,128.0
6778,G#4,541.042,0.75,102,128.0
6779,F#2,541.2,59/40,99,128.0
6780,C#3,541.2,59/40,99,128.0
6781,F#3,541.2,59/40,99,128.0
6782,C#4,541.2,59/40,99,128.0
6783,E-2,541.45,1467/1000,89,128.0
6784,B-2,541.45,1467/1000,89,128.0
6785,E-3,541.45,1467/1000,89,128.0
6786,F#3,541.45,1467/1000,89,128.0
6787,B-3,541.45,1467/1000,89,128.0
6788,F#2,541.5,9/10,95,128.0
6789,F#2,541.5,59/40,99,128.0
6790,C#3,541.5,59/40,99,128.0
6791,F#3,541.5,59/40,99,128.0
6792,C#4,541.5,59/40,99,128.0
6793,C2,541.5,0.5,74,128.0
6794,C#3,541.5,0.5,74,128.0
6795,F#4,541.75,0.25,102,128.0
6796,F#4,541.792,0.25,102,128.0
6797,G#4,542.0,1.0,95,128.0
6798,F#2,542.0,0.5,75,128.0
6799,G#4,542.042,1.0,95,128.0
6800,F#1,542.5,9/20,102,128.0
6801,F#2,542.5,0.5,71,128.0
6802,F#2,542.7,59/40,99,128.0
6803,C#3,542.7,59/40,99,128.0
6804,F#3,542.7,59/40,99,128.0
6805,C#4,542.7,59/40,99,128.0
6806,E-2,542.95,0.5,108,128.0
6807,F#4,543.0,0.5,102,128.0
6808,F#1,543.0,9/20,102,128.0
6809,F#2,543.0,19/40,99,128.0
6810,C#3,543.0,19/40,99,128.0
6811,F#3,543.0,19/40,99,128.0
6812,C#4,543.0,19/40,99,128.0
6813,F#2,543.0,0.5,98,128.0
6814,E2,543.0,0.5,98,128.0
6815,F#4,543.042,0.5,102,128.0
6816,F2,543.45,0.5,108,128.0
6817,G#4,543.5,0.5,102,128.0
6818,E-1,543.5,9/20,102,128.0
6819,F#2,543.5,0.5,65,128.0
6820,F#2,543.5,19/40,99,128.0
6821,C#3,543.5,19/40,99,128.0
6822,F#3,543.5,19/40,99,128.0
6823,C#4,543.5,19/40,99,128.0
6824,G#4,543.542,229/500,102,128.0
6825,F#2,543.95,59/40,99,128.0
6826,C#3,543.95,59/40,99,128.0
6827,F#3,543.95,59/40,99,128.0
6828,C#4,543.95,59/40,99,128.0
6829,G#4,544.0,0.5,102,128.0
6830,G#4,544.0,271/500,102,128.0
6831,G#1,544.0,9/10,102,128.0
6832,G#2,544.0,1483/1000,102,128.0
6833,E-3,544.0,1483/1000,102,128.0
6834,G#3,544.0,1483/1000,102,128.0
6835,C2,544.0,0.5,70,128.0
6836,C#3,544.0,0.5,70,128.0
6837,F#2,544.2,19/40,99,128.0
6838,C#3,544.2,19/40,99,128.0
6839,F#3,544.2,19/40,99,128.0
6840,C#4,544.2,19/40,99,128.0
6841,F#4,544.5,0.5,102,128.0
6842,F#2,544.5,0.5,65,128.0
6843,F#4,544.542,0.5,102,128.0
6844,F#2,544.7,19/40,99,128.0
6845,C#3,544.7,19/40,99,128.0
6846,F#3,544.7,19/40,99,128.0
6847,C#4,544.7,19/40,99,128.0
6848,G#4,545.0,0.5,95,128.0
6849,E-1,545.0,9/20,102,128.0
6850,F#2,545.0,0.5,98,128.0
6851,E2,545.0,0.5,98,128.0
6852,G#4,545.042,0.5,95,128.0
6853,G#2,545.2,1483/1000,102,128.0
6854,E-3,545.2,1483/1000,102,128.0
6855,G#3,545.2,1483/1000,102,128.0
6856,F#2,545.45,59/40,99,128.0
6857,C#3,545.45,59/40,99,128.0
6858,F#3,545.45,59/40,99,128.0
6859,C#4,545.45,59/40,99,128.0
6860,F#4,545.5,0.5,102,128.0
6861,G#1,545.5,9/10,102,128.0
6862,G#2,545.5,1483/1000,102,128.0
6863,E-3,545.5,1483/1000,102,128.0
6864,G#3,545.5,1483/1000,102,128.0
6865,C2,545.5,0.5,74,128.0
6866,C#3,545.5,0.5,74,128.0
6867,F#4,545.542,0.5,102,128.0
6868,G#4,546.0,0.75,95,128.0
6869,F#2,546.0,0.5,66,128.0
6870,G#4,546.042,0.75,95,128.0
6871,C#5,546.5,0.25,89,128.0
6872,G#1,546.5,9/20,102,128.0
6873,F#2,546.5,0.5,74,128.0
6874,C#5,546.542,0.25,89,128.0
6875,G#2,546.7,1483/1000,102,128.0
6876,E-3,546.7,1483/1000,102,128.0
6877,G#3,546.7,1483/1000,102,128.0
6878,G#4,546.75,0.5,102,128.0
6879,G#4,546.792,0.5,102,128.0
6880,F#2,546.95,19/40,99,128.0
6881,C#3,546.95,19/40,99,128.0
6882,F#3,546.95,19/40,99,128.0
6883,C#4,546.95,19/40,99,128.0
6884,G#1,547.0,9/20,102,128.0
6885,G#2,547.0,0.5,102,128.0
6886,E-3,547.0,0.5,102,128.0
6887,G#3,547.0,0.5,102,128.0
6888,F#2,547.0,0.5,96,128.0
6889,E2,547.0,0.5,96,128.0
6890,F#4,547.25,0.25,102,128.0
6891,F#4,547.292,0.25,102,128.0
6892,F#2,547.45,19/40,99,128.0
6893,C#3,547.45,19/40,99,128.0
6894,F#3,547.45,19/40,99,128.0
6895,C#4,547.45,19/40,99,128.0
6896,G#4,547.5,0.5,102,128.0
6897,C#5,547.5,0.5,89,128.0
6898,E-1,547.5,9/20,102,128.0
6899,G#2,547.5,0.5,102,128.0
6900,E-3,547.5,0.5,102,128.0
6901,G#3,547.5,0.5,102,128.0
6902,C2,547.5,0.5,80,128.0
6903,F#2,547.5,0.5,80,128.0
6904,G#4,547.542,229/500,102,128.0
6905,C#5,547.542,229/500,89,128.0
6906,G#2,547.95,1483/1000,102,128.0
6907,E-3,547.95,1483/1000,102,128.0
6908,G#3,547.95,1483/1000,102,128.0
6909,G#4,548.0,21/500,102,128.0
6910,C#5,548.0,21/500,89,128.0
6911,B1,548.0,9/20,102,128.0
6912,F#5,548.0,0.5,89,128.0
6913,C#5,548.0,0.5,89,128.0
6914,B2,548.0,124/125,102,128.0
6915,F#3,548.0,124/125,102,128.0
6916,B3,548.0,124/125,102,128.0
6917,C2,548.0,0.5,75,128.0
6918,C#3,548.0,0.5,75,128.0
6919,F#5,548.042,0.5,89,128.0
6920,C#5,548.042,0.5,89,128.0
6921,G#2,548.2,0.5,102,128.0
6922,E-3,548.2,0.5,102,128.0
6923,G#3,548.2,0.5,102,128.0
6924,G#4,548.5,0.5,102,128.0
6925,B1,548.5,9/20,102,128.0
6926,F#2,548.5,0.5,74,128.0
6927,G#4,548.542,0.5,102,128.0
6928,G#2,548.7,0.5,102,128.0
6929,E-3,548.7,0.5,102,128.0
6930,G#3,548.7,0.5,102,128.0
6931,B1,549.0,9/20,102,128.0
6932,F#5,549.0,0.25,89,128.0
6933,C#5,549.0,0.25,89,128.0
6934,B2,549.0,483/1000,102,128.0
6935,F#3,549.0,483/1000,102,128.0
6936,B3,549.0,483/1000,102,128.0
6937,F#2,549.0,0.5,100,128.0
6938,E2,549.0,0.5,100,128.0
6939,F#5,549.042,0.25,89,128.0
6940,C#5,549.042,0.25,89,128.0
6941,B2,549.2,124/125,102,128.0
6942,F#3,549.2,124/125,102,128.0
6943,B3,549.2,124/125,102,128.0
6944,G#4,549.25,0.5,102,128.0
6945,G#4,549.292,0.5,102,128.0
6946,G#2,549.45,1483/1000,102,128.0
6947,E-3,549.45,1483/1000,102,128.0
6948,G#3,549.45,1483/1000,102,128.0
6949,B1,549.5,9/20,102,128.0
6950,B2,549.5,233/1000,102,128.0
6951,F#3,549.5,233/1000,102,128.0
6952,B3,549.5,233/1000,102,128.0
6953,C2,549.5,0.5,80,128.0
6954,F#2,549.5,0.5,80,128.0
6955,F#5,549.75,167/1000,89,128.0
6956,B2,549.75,233/1000,102,128.0
6957,F#3,549.75,233/1000,102,128.0
6958,B3,549.75,233/1000,102,128.0
6959,F#5,549.792,167/1000,89,128.0
6960,G#4,549.917,833/1000,102,128.0
6961,G#4,549.958,833/1000,102,128.0
6962,C#2,550.0,9/10,102,128.0
6963,C#3,550.0,983/1000,102,128.0
6964,G#3,550.0,983/1000,102,128.0
6965,C#4,550.0,983/1000,102,128.0
6966,C2,550.0,1.0,74,128.0
6967,C#3,550.0,1.0,74,128.0
6968,B2,550.2,483/1000,102,128.0
6969,F#3,550.2,483/1000,102,128.0
6970,B3,550.2,483/1000,102,128.0
6971,B2,550.7,233/1000,102,128.0
6972,F#3,550.7,233/1000,102,128.0
6973,B3,550.7,233/1000,102,128.0
6974,E-4,550.75,0.25,102,128.0
6975,E-4,550.792,0.25,102,128.0
6976,G#2,550.95,0.5,102,128.0
6977,E-3,550.95,0.5,102,128.0
6978,G#3,550.95,0.5,102,128.0
6979,B2,550.95,233/1000,102,128.0
6980,F#3,550.95,233/1000,102,128.0
6981,B3,550.95,233/1000,102,128.0
6982,G#4,551.0,0.5,102,128.0
6983,F#1,551.0,9/10,102,128.0
6984,F#2,551.0,1.0,99,128.0
6985,C#3,551.0,1.0,99,128.0
6986,F#3,551.0,1.0,99,128.0
6987,C#4,551.0,1.0,99,128.0
6988,C2,551.0,1.0,66,128.0
6989,A3,551.0,1.0,66,128.0
6990,G#4,551.042,0.5,102,128.0
6991,C#3,551.2,983/1000,102,128.0
6992,G#3,551.2,983/1000,102,128.0
6993,C#4,551.2,983/1000,102,128.0
6994,G#2,551.45,0.5,102,128.0
6995,E-3,551.45,0.5,102,128.0
6996,G#3,551.45,0.5,102,128.0
6997,E-4,551.5,0.25,102,128.0
6998,E-4,551.542,0.25,102,128.0
6999,G#2,551.75,0.125,89,128.0
7000,C#3,551.75,0.125,89,128.0
7001,G#2,551.792,0.125,89,128.0
7002,C#3,551.792,0.125,89,128.0
7003,B2,551.95,124/125,102,128.0
7004,F#3,551.95,124/125,102,128.0
7005,B3,551.95,124/125,102,128.0
7006,F#4,552.0,1.0,102,128.0
7007,E-1,552.0,9/10,108,128.0
7008,E-2,552.0,1467/1000,89,128.0
7009,B-2,552.0,1467/1000,89,128.0
7010,E-3,552.0,1467/1000,89,128.0
7011,F#3,552.0,1467/1000,89,128.0
7012,B-3,552.0,1467/1000,89,128.0
7013,C2,552.0,0.5,78,128.0
7014,C#3,552.0,0.5,78,128.0
7015,F#4,552.042,1.0,102,128.0
7016,F#2,552.2,1.0,99,128.0
7017,C#3,552.2,1.0,99,128.0
7018,F#3,552.2,1.0,99,128.0
7019,C#4,552.2,1.0,99,128.0
7020,F#2,552.5,0.5,69,128.0
7021,B2,552.95,483/1000,102,128.0
7022,F#3,552.95,483/1000,102,128.0
7023,B3,552.95,483/1000,102,128.0
7024,E-4,553.0,0.75,102,128.0
7025,E-1,553.0,9/20,102,128.0
7026,F#2,553.0,0.5,101,128.0
7027,E2,553.0,0.5,101,128.0
7028,E-4,553.042,0.75,102,128.0
7029,E-2,553.2,1467/1000,89,128.0
7030,B-2,553.2,1467/1000,89,128.0
7031,E-3,553.2,1467/1000,89,128.0
7032,F#3,553.2,1467/1000,89,128.0
7033,B-3,553.2,1467/1000,89,128.0
7034,B2,553.45,233/1000,102,128.0
7035,F#3,553.45,233/1000,102,128.0
7036,B3,553.45,233/1000,102,128.0
7037,E-4,553.5,1.0,102,128.0
7038,E-2,553.5,9/10,102,128.0
7039,E-2,553.5,1467/1000,89,128.0
7040,B-2,553.5,1467/1000,89,128.0
7041,E-3,553.5,1467/1000,89,128.0
7042,F#3,553.5,1467/1000,89,128.0
7043,B-3,553.5,1467/1000,89,128.0
7044,C2,553.5,0.5,69,128.0
7045,C#3,553.5,0.5,69,128.0
7046,E-4,553.542,1.0,102,128.0
7047,B2,553.7,233/1000,102,128.0
7048,F#3,553.7,233/1000,102,128.0
7049,B3,553.7,233/1000,102,128.0
7050,C#3,553.95,983/1000,102,128.0
7051,G#3,553.95,983/1000,102,128.0
7052,C#4,553.95,983/1000,102,128.0
7053,F#2,554.0,0.5,72,128.0
7054,E-1,554.5,9/20,102,128.0
7055,C#3,554.5,0.125,89,128.0
7056,G#2,554.5,0.125,89,128.0
7057,C2,554.5,0.5,78,128.0
7058,F#2,554.5,0.5,78,128.0
7059,C#3,554.542,0.125,89,128.0
7060,G#2,554.542,0.125,89,128.0
7061,E-2,554.7,1467/1000,89,128.0
7062,B-2,554.7,1467/1000,89,128.0
7063,E-3,554.7,1467/1000,89,128.0
7064,F#3,554.7,1467/1000,89,128.0
7065,B-3,554.7,1467/1000,89,128.0
7066,C#3,554.75,0.125,89,128.0
7067,G#2,554.75,0.125,89,128.0
7068,C#3,554.792,0.125,89,128.0
7069,G#2,554.792,0.125,89,128.0
7070,F#2,554.95,1.0,99,128.0
7071,C#3,554.95,1.0,99,128.0
7072,F#3,554.95,1.0,99,128.0
7073,C#4,554.95,1.0,99,128.0
7074,F#4,555.0,0.75,102,128.0
7075,E-2,555.0,0.5,108,128.0
7076,E-1,555.0,9/20,102,128.0
7077,F#2,555.0,0.5,99,128.0
7078,E2,555.0,0.5,99,128.0
7079,F#4,555.042,0.75,102,128.0
7080,F2,555.5,0.5,108,128.0
7081,F1,555.5,9/20,102,128.0
7082,C2,555.5,0.5,75,128.0
7083,F#2,555.5,0.5,75,128.0
7084,E-4,555.75,0.25,102,128.0
7085,E-4,555.792,26/125,102,128.0
7086,E-2,555.95,1467/1000,89,128.0
7087,B-2,555.95,1467/1000,89,128.0
7088,E-3,555.95,1467/1000,89,128.0
7089,F#3,555.95,1467/1000,89,128.0
7090,B-3,555.95,1467/1000,89,128.0
7091,F#4,556.0,1.0,102,128.0
7092,E-4,556.0,21/500,102,128.0
7093,F#1,556.0,9/10,102,128.0
7094,F#2,556.0,59/40,99,128.0
7095,C#3,556.0,59/40,99,128.0
7096,F#3,556.0,59/40,99,128.0
7097,C#4,556.0,59/40,99,128.0
7098,C2,556.0,0.5,71,128.0
7099,C#3,556.0,0.5,71,128.0
7100,F#4,556.042,1.0,102,128.0
7101,E-2,556.2,0.5,108,128.0
7102,F#2,556.5,0.5,66,128.0
7103,F2,556.7,0.5,108,128.0
7104,E-4,557.0,0.75,102,128.0
7105,F#1,557.0,9/20,102,128.0
7106,F#2,557.0,0.5,96,128.0
7107,E2,557.0,0.5,96,128.0
7108,E-4,557.042,0.75,102,128.0
7109,F#2,557.2,59/40,99,128.0
7110,C#3,557.2,59/40,99,128.0
7111,F#3,557.2,59/40,99,128.0
7112,C#4,557.2,59/40,99,128.0
7113,E-2,557.45,1467/1000,89,128.0
7114,B-2,557.45,1467/1000,89,128.0
7115,E-3,557.45,1467/1000,89,128.0
7116,F#3,557.45,1467/1000,89,128.0
7117,B-3,557.45,1467/1000,89,128.0
7118,E-4,557.5,1.0,102,128.0
7119,F#2,557.5,9/10,95,128.0
7120,F#2,557.5,59/40,99,128.0
7121,C#3,557.5,59/40,99,128.0
7122,F#3,557.5,59/40,99,128.0
7123,C#4,557.5,59/40,99,128.0
7124,C2,557.5,0.5,67,128.0
7125,C#3,557.5,0.5,67,128.0
7126,E-4,557.542,1.0,102,128.0
7127,F#2,558.0,0.5,67,128.0
7128,F#1,558.5,9/20,102,128.0
7129,C#3,558.5,0.125,89,128.0
7130,G#2,558.5,0.125,89,128.0
7131,C2,558.5,0.5,78,128.0
7132,F#2,558.5,0.5,78,128.0
7133,C#3,558.542,0.125,89,128.0
7134,G#2,558.542,0.125,89,128.0
7135,F#2,558.7,59/40,99,128.0
7136,C#3,558.7,59/40,99,128.0
7137,F#3,558.7,59/40,99,128.0
7138,C#4,558.7,59/40,99,128.0
7139,C#3,558.75,0.125,89,128.0
7140,G#2,558.75,0.125,89,128.0
7141,C#3,558.792,0.125,89,128.0
7142,G#2,558.792,0.125,89,128.0
7143,E-2,558.95,0.5,108,128.0
7144,F#4,559.0,0.75,102,128.0
7145,F#1,559.0,9/20,102,128.0
7146,F#2,559.0,19/40,99,128.0
7147,C#3,559.0,19/40,99,128.0
7148,F#3,559.0,19/40,99,128.0
7149,C#4,559.0,19/40,99,128.0
7150,F#2,559.0,0.5,99,128.0
7151,E2,559.0,0.5,99,128.0
7152,F#4,559.042,0.75,102,128.0
7153,F2,559.45,0.5,108,128.0
7154,E-1,559.5,9/20,102,128.0
7155,F#2,559.5,19/40,99,128.0
7156,C#3,559.5,19/40,99,128.0
7157,F#3,559.5,19/40,99,128.0
7158,C#4,559.5,19/40,99,128.0
7159,C2,559.5,0.5,78,128.0
7160,F#2,559.5,0.5,78,128.0
7161,E-4,559.75,0.25,102,128.0
7162,E-4,559.792,26/125,102,128.0
7163,F#2,559.95,59/40,99,128.0
7164,C#3,559.95,59/40,99,128.0
7165,F#3,559.95,59/40,99,128.0
7166,C#4,559.95,59/40,99,128.0
7167,F#4,560.0,0.25,102,128.0
7168,E-4,560.0,21/500,102,128.0
7169,G#1,560.0,9/10,102,128.0
7170,G#2,560.0,1483/1000,102,128.0
7171,E-3,560.0,1483/1000,102,128.0
7172,G#3,560.0,1483/1000,102,128.0
7173,C2,560.0,0.5,77,128.0
7174,C#3,560.0,0.5,77,128.0
7175,F#4,560.042,0.25,102,128.0
7176,F#2,560.2,19/40,99,128.0
7177,C#3,560.2,19/40,99,128.0
7178,F#3,560.2,19/40,99,128.0
7179,C#4,560.2,19/40,99,128.0
7180,F#4,560.25,0.25,102,128.0
7181,F#4,560.292,0.25,102,128.0
7182,E-4,560.5,0.5,102,128.0
7183,F#2,560.5,0.5,69,128.0
7184,E-4,560.542,0.5,102,128.0
7185,F#2,560.7,19/40,99,128.0
7186,C#3,560.7,19/40,99,128.0
7187,F#3,560.7,19/40,99,128.0
7188,C#4,560.7,19/40,99,128.0
7189,G#4,561.0,0.25,102,128.0
7190,E-1,561.0,9/20,102,128.0
7191,F#2,561.0,0.5,98,128.0
7192,E2,561.0,0.5,98,128.0
7193,G#4,561.042,0.25,102,128.0
7194,G#2,561.2,1483/1000,102,128.0
7195,E-3,561.2,1483/1000,102,128.0
7196,G#3,561.2,1483/1000,102,128.0
7197,G#4,561.25,0.5,102,128.0
7198,G#4,561.292,0.5,102,128.0
7199,F#2,561.45,59/40,99,128.0
7200,C#3,561.45,59/40,99,128.0
7201,F#3,561.45,59/40,99,128.0
7202,C#4,561.45,59/40,99,128.0
7203,G#1,561.5,9/10,102,128.0
7204,G#2,561.5,1483/1000,102,128.0
7205,E-3,561.5,1483/1000,102,128.0
7206,G#3,561.5,1483/1000,102,128.0
7207,C2,561.5,0.5,68,128.0
7208,C#3,561.5,0.5,68,128.0
7209,G#4,561.75,0.25,102,128.0
7210,G#4,561.792,0.25,102,128.0
7211,B-4,562.0,0.25,102,128.0
7212,F#2,562.0,0.5,66,128.0
7213,B-4,562.042,0.25,102,128.0
7214,B-4,562.25,0.25,102,128.0
7215,B-4,562.292,0.25,102,128.0
7216,G#4,562.5,0.5,102,128.0
7217,G#1,562.5,9/20,102,128.0
7218,C2,562.5,0.5,74,128.0
7219,F#2,562.5,0.5,74,128.0
7220,G#4,562.542,0.5,102,128.0
7221,G#2,562.7,1483/1000,102,128.0
7222,E-3,562.7,1483/1000,102,128.0
7223,G#3,562.7,1483/1000,102,128.0
7224,F#2,562.95,19/40,99,128.0
7225,C#3,562.95,19/40,99,128.0
7226,F#3,562.95,19/40,99,128.0
7227,C#4,562.95,19/40,99,128.0
7228,C#5,563.0,0.25,102,128.0
7229,G#1,563.0,9/20,102,128.0
7230,G#2,563.0,0.5,102,128.0
7231,E-3,563.0,0.5,102,128.0
7232,G#3,563.0,0.5,102,128.0
7233,F#2,563.0,0.5,99,128.0
7234,E2,563.0,0.5,99,128.0
7235,C#5,563.042,0.25,102,128.0
7236,C#5,563.25,0.5,102,128.0
7237,C#5,563.292,0.5,102,128.0
7238,F#2,563.45,19/40,99,128.0
7239,C#3,563.45,19/40,99,128.0
7240,F#3,563.45,19/40,99,128.0
7241,C#4,563.45,19/40,99,128.0
7242,E-1,563.5,9/20,102,128.0
7243,G#2,563.5,0.5,102,128.0
7244,E-3,563.5,0.5,102,128.0
7245,G#3,563.5,0.5,102,128.0
7246,C2,563.5,0.5,77,128.0
7247,F#2,563.5,0.5,77,128.0
7248,G#4,563.75,0.25,102,128.0
7249,G#4,563.792,26/125,102,128.0
7250,G#2,563.95,1483/1000,102,128.0
7251,E-3,563.95,1483/1000,102,128.0
7252,G#3,563.95,1483/1000,102,128.0
7253,E-5,564.0,0.25,102,128.0
7254,G#4,564.0,21/500,102,128.0
7255,B1,564.0,9/20,102,128.0
7256,B2,564.0,124/125,102,128.0
7257,F#3,564.0,124/125,102,128.0
7258,B3,564.0,124/125,102,128.0
7259,C2,564.0,0.5,73,128.0
7260,C#3,564.0,0.5,73,128.0
7261,E-5,564.042,0.25,102,128.0
7262,G#2,564.2,0.5,102,128.0
7263,E-3,564.2,0.5,102,128.0
7264,G#3,564.2,0.5,102,128.0
7265,E-5,564.25,0.25,102,128.0
7266,E-5,564.292,0.25,102,128.0
7267,C#5,564.5,0.5,102,128.0
7268,B1,564.5,9/20,102,128.0
7269,F#2,564.5,0.5,67,128.0
7270,C#5,564.542,0.5,102,128.0
7271,G#2,564.7,0.5,102,128.0
7272,E-3,564.7,0.5,102,128.0
7273,G#3,564.7,0.5,102,128.0
7274,F#5,565.0,0.25,102,128.0
7275,B1,565.0,9/20,102,128.0
7276,B2,565.0,483/1000,102,128.0
7277,F#3,565.0,483/1000,102,128.0
7278,B3,565.0,483/1000,102,128.0
7279,F#2,565.0,0.5,96,128.0
7280,E2,565.0,0.5,96,128.0
7281,F#5,565.042,0.25,102,128.0
7282,B2,565.2,124/125,102,128.0
7283,F#3,565.2,124/125,102,128.0
7284,B3,565.2,124/125,102,128.0
7285,F#5,565.25,0.75,102,128.0
7286,F#5,565.292,0.75,102,128.0
7287,G#2,565.45,1483/1000,102,128.0
7288,E-3,565.45,1483/1000,102,128.0
7289,G#3,565.45,1483/1000,102,128.0
7290,B1,565.5,9/20,102,128.0
7291,F#2,565.5,0.5,66,128.0
7292,B2,565.5,233/1000,102,128.0
7293,F#3,565.5,233/1000,102,128.0
7294,B3,565.5,233/1000,102,128.0
7295,B2,565.75,233/1000,102,128.0
7296,F#3,565.75,233/1000,102,128.0
7297,B3,565.75,233/1000,102,128.0
7298,F#5,566.0,0.5,102,128.0
7299,C#2,566.0,9/10,102,128.0
7300,C#3,566.0,983/1000,102,128.0
7301,G#3,566.0,983/1000,102,128.0
7302,C#4,566.0,983/1000,102,128.0
7303,C2,566.0,1.0,72,128.0
7304,C#3,566.0,1.0,72,128.0
7305,F#5,566.042,0.5,102,128.0
7306,B2,566.2,483/1000,102,128.0
7307,F#3,566.2,483/1000,102,128.0
7308,B3,566.2,483/1000,102,128.0
7309,F5,566.5,0.5,102,128.0
7310,F5,566.542,0.5,102,128.0
7311,B2,566.7,233/1000,102,128.0
7312,F#3,566.7,233/1000,102,128.0
7313,B3,566.7,233/1000,102,128.0
7314,G#2,566.95,0.5,102,128.0
7315,E-3,566.95,0.5,102,128.0
7316,G#3,566.95,0.5,102,128.0
7317,B2,566.95,233/1000,102,128.0
7318,F#3,566.95,233/1000,102,128.0
7319,B3,566.95,233/1000,102,128.0
7320,C#5,567.0,167/1000,102,128.0
7321,F#1,567.0,9/10,102,128.0
7322,F#2,567.0,1.0,99,128.0
7323,C#3,567.0,1.0,99,128.0
7324,F#3,567.0,1.0,99,128.0
7325,C#4,567.0,1.0,99,128.0
7326,C2,567.0,1.0,68,128.0
7327,A3,567.0,1.0,68,128.0
7328,C#5,567.042,167/1000,102,128.0
7329,E-5,567.167,583/1000,102,128.0
7330,C#3,567.2,983/1000,102,128.0
7331,G#3,567.2,983/1000,102,128.0
7332,C#4,567.2,983/1000,102,128.0
7333,E-5,567.208,583/1000,102,128.0
7334,G#2,567.45,0.5,102,128.0
7335,E-3,567.45,0.5,102,128.0
7336,G#3,567.45,0.5,102,128.0
7337,C#5,567.75,0.25,102,128.0
7338,C#5,567.792,26/125,102,128.0
7339,B2,567.95,124/125,102,128.0
7340,F#3,567.95,124/125,102,128.0
7341,B3,567.95,124/125,102,128.0
7342,C#5,568.0,0.25,102,128.0
7343,C#5,568.0,73/250,102,128.0
7344,E-1,568.0,9/10,108,128.0
7345,E-2,568.0,1467/1000,89,128.0
7346,B-2,568.0,1467/1000,89,128.0
7347,E-3,568.0,1467/1000,89,128.0
7348,F#3,568.0,1467/1000,89,128.0
7349,B-3,568.0,1467/1000,89,128.0
7350,C2,568.0,0.5,76,128.0
7351,C#3,568.0,0.5,76,128.0
7352,F#2,568.2,1.0,99,128.0
7353,C#3,568.2,1.0,99,128.0
7354,F#3,568.2,1.0,99,128.0
7355,C#4,568.2,1.0,99,128.0
7356,E-5,568.25,0.25,102,128.0
7357,E-5,568.292,0.25,102,128.0
7358,C#5,568.5,417/1000,102,128.0
7359,F#2,568.5,0.5,66,128.0
7360,C#5,568.542,417/1000,102,128.0
7361,G#4,568.917,583/1000,102,128.0
7362,B2,568.95,483/1000,102,128.0
7363,F#3,568.95,483/1000,102,128.0
7364,B3,568.95,483/1000,102,128.0
7365,G#4,568.958,583/1000,102,128.0
7366,E-1,569.0,9/20,102,128.0
7367,F#2,569.0,0.5,98,128.0
7368,E2,569.0,0.5,98,128.0
7369,E-2,569.2,1467/1000,89,128.0
7370,B-2,569.2,1467/1000,89,128.0
7371,E-3,569.2,1467/1000,89,128.0
7372,F#3,569.2,1467/1000,89,128.0
7373,B-3,569.2,1467/1000,89,128.0
7374,B2,569.45,233/1000,102,128.0
7375,F#3,569.45,233/1000,102,128.0
7376,B3,569.45,233/1000,102,128.0
7377,E-5,569.5,167/1000,102,128.0
7378,E-2,569.5,9/10,102,128.0
7379,E-2,569.5,1467/1000,89,128.0
7380,B-2,569.5,1467/1000,89,128.0
7381,E-3,569.5,1467/1000,89,128.0
7382,F#3,569.5,1467/1000,89,128.0
7383,B-3,569.5,1467/1000,89,128.0
7384,C2,569.5,0.5,76,128.0
7385,C#3,569.5,0.5,76,128.0
7386,E-5,569.542,167/1000,102,128.0
7387,C#5,569.667,0.25,102,128.0
7388,B2,569.7,233/1000,102,128.0
7389,F#3,569.7,233/1000,102,128.0
7390,B3,569.7,233/1000,102,128.0
7391,C#5,569.708,0.25,102,128.0
7392,C#5,569.917,583/1000,102,128.0
7393,C#3,569.95,983/1000,102,128.0
7394,G#3,569.95,983/1000,102,128.0
7395,C#4,569.95,983/1000,102,128.0
7396,C#5,569.958,583/1000,102,128.0
7397,F#2,570.0,0.5,65,128.0
7398,E-5,570.5,167/1000,102,128.0
7399,E-1,570.5,9/20,102,128.0
7400,F#2,570.5,0.5,71,128.0
7401,E-5,570.542,167/1000,102,128.0
7402,C#5,570.667,0.25,102,128.0
7403,E-2,570.7,1467/1000,89,128.0
7404,B-2,570.7,1467/1000,89,128.0
7405,E-3,570.7,1467/1000,89,128.0
7406,F#3,570.7,1467/1000,89,128.0
7407,B-3,570.7,1467/1000,89,128.0
7408,C#5,570.708,0.25,102,128.0
7409,G#4,570.917,583/1000,102,128.0
7410,F#2,570.95,1.0,99,128.0
7411,C#3,570.95,1.0,99,128.0
7412,F#3,570.95,1.0,99,128.0
7413,C#4,570.95,1.0,99,128.0
7414,G#4,570.958,583/1000,102,128.0
7415,E-2,571.0,0.5,108,128.0
7416,E-1,571.0,9/20,102,128.0
7417,F#2,571.0,0.5,98,128.0
7418,E2,571.0,0.5,98,128.0
7419,E-5,571.5,167/1000,102,128.0
7420,F2,571.5,0.5,108,128.0
7421,F1,571.5,9/20,102,128.0
7422,F#2,571.5,0.5,70,128.0
7423,E-5,571.542,167/1000,102,128.0
7424,C#5,571.667,0.25,102,128.0
7425,C#5,571.708,0.25,102,128.0
7426,C#5,571.917,83/1000,102,128.0
7427,E-2,571.95,1467/1000,89,128.0
7428,B-2,571.95,1467/1000,89,128.0
7429,E-3,571.95,1467/1000,89,128.0
7430,F#3,571.95,1467/1000,89,128.0
7431,B-3,571.95,1467/1000,89,128.0
7432,C#5,571.958,21/500,102,128.0
7433,C#5,572.0,0.5,102,128.0
7434,C#5,572.0,271/500,102,128.0
7435,F#1,572.0,9/10,102,128.0
7436,F#2,572.0,59/40,99,128.0
7437,C#3,572.0,59/40,99,128.0
7438,F#3,572.0,59/40,99,128.0
7439,C#4,572.0,59/40,99,128.0
7440,C2,572.0,0.5,76,128.0
7441,C#3,572.0,0.5,76,128.0
7442,E-2,572.2,0.5,108,128.0
7443,E-5,572.5,167/1000,102,128.0
7444,F#2,572.5,0.5,65,128.0
7445,E-5,572.542,167/1000,102,128.0
7446,C#5,572.667,167/1000,102,128.0
7447,F2,572.7,0.5,108,128.0
7448,C#5,572.708,167/1000,102,128.0
7449,G#4,572.917,583/1000,102,128.0
7450,G#4,572.958,583/1000,102,128.0
7451,F#1,573.0,9/20,102,128.0
7452,E2,573.0,0.5,127,128.0
7453,F#2,573.2,59/40,99,128.0
7454,C#3,573.2,59/40,99,128.0
7455,F#3,573.2,59/40,99,128.0
7456,C#4,573.2,59/40,99,128.0
7457,E-2,573.45,1467/1000,89,128.0
7458,B-2,573.45,1467/1000,89,128.0
7459,E-3,573.45,1467/1000,89,128.0
7460,F#3,573.45,1467/1000,89,128.0
7461,B-3,573.45,1467/1000,89,128.0
7462,E-5,573.5,167/1000,102,128.0
7463,F#2,573.5,9/10,95,128.0
7464,F#2,573.5,59/40,99,128.0
7465,C#3,573.5,59/40,99,128.0
7466,F#3,573.5,59/40,99,128.0
7467,C#4,573.5,59/40,99,128.0
7468,C2,573.5,0.5,76,128.0
7469,C#3,573.5,0.5,76,128.0
7470,E-5,573.542,167/1000,102,128.0
7471,C#5,573.667,0.25,102,128.0
7472,C#5,573.708,0.25,102,128.0
7473,C#5,573.917,583/1000,102,128.0
7474,C#5,573.958,583/1000,102,128.0
7475,F#2,574.0,0.5,70,128.0
7476,E-5,574.5,167/1000,102,128.0
7477,F#1,574.5,9/20,102,128.0
7478,C2,574.5,0.5,78,128.0
7479,F#2,574.5,0.5,78,128.0
7480,E-5,574.542,167/1000,102,128.0
7481,C#5,574.667,0.25,102,128.0
7482,F#2,574.7,59/40,99,128.0
7483,C#3,574.7,59/40,99,128.0
7484,F#3,574.7,59/40,99,128.0
7485,C#4,574.7,59/40,99,128.0
7486,C#5,574.708,0.25,102,128.0
7487,G#4,574.917,0.25,102,128.0
7488,E-2,574.95,0.5,108,128.0
7489,G#4,574.958,0.25,102,128.0
7490,F#1,575.0,9/20,102,128.0
7491,F#2,575.0,19/40,99,128.0
7492,C#3,575.0,19/40,99,128.0
7493,F#3,575.0,19/40,99,128.0
7494,C#4,575.0,19/40,99,128.0
7495,F#2,575.0,0.5,97,128.0
7496,E2,575.0,0.5,97,128.0
7497,B-4,575.167,167/1000,102,128.0
7498,B-4,575.208,167/1000,102,128.0
7499,E-5,575.333,167/1000,102,128.0
7500,E-5,575.375,167/1000,102,128.0
7501,F2,575.45,0.5,108,128.0
7502,C#5,575.5,333/1000,102,128.0
7503,E-1,575.5,9/20,102,128.0
7504,F#2,575.5,0.5,66,128.0
7505,F#2,575.5,19/40,99,128.0
7506,C#3,575.5,19/40,99,128.0
7507,F#3,575.5,19/40,99,128.0
7508,C#4,575.5,19/40,99,128.0
7509,C#5,575.542,333/1000,102,128.0
7510,F#5,575.833,167/1000,93,128.0
7511,F#5,575.875,0.125,93,128.0
7512,F#2,575.95,59/40,99,128.0
7513,C#3,575.95,59/40,99,128.0
7514,F#3,575.95,59/40,99,128.0
7515,C#4,575.95,59/40,99,128.0
7516,F#5,576.0,2.25,93,128.0
7517,F#5,576.0,573/250,93,128.0
7518,G#1,576.0,9/10,102,128.0
7519,G#2,576.0,1483/1000,102,128.0
7520,E-3,576.0,1483/1000,102,128.0
7521,G#3,576.0,1483/1000,102,128.0
7522,C2,576.0,0.5,73,128.0
7523,C#3,576.0,0.5,73,128.0
7524,F#2,576.2,19/40,99,128.0
7525,C#3,576.2,19/40,99,128.0
7526,F#3,576.2,19/40,99,128.0
7527,C#4,576.2,19/40,99,128.0
7528,F#2,576.5,0.5,68,128.0
7529,F#2,576.7,19/40,99,128.0
7530,C#3,576.7,19/40,99,128.0
7531,F#3,576.7,19/40,99,128.0
7532,C#4,576.7,19/40,99,128.0
7533,E-1,577.0,9/20,102,128.0
7534,F#2,577.0,0.5,97,128.0
7535,E2,577.0,0.5,97,128.0
7536,G#2,577.2,1483/1000,102,128.0
7537,E-3,577.2,1483/1000,102,128.0
7538,G#3,577.2,1483/1000,102,128.0
7539,F#2,577.45,59/40,99,128.0
7540,C#3,577.45,59/40,99,128.0
7541,F#3,577.45,59/40,99,128.0
7542,C#4,577.45,59/40,99,128.0
7543,G#1,577.5,9/10,102,128.0
7544,G#2,577.5,1483/1000,102,128.0
7545,E-3,577.5,1483/1000,102,128.0
7546,G#3,577.5,1483/1000,102,128.0
7547,C2,577.5,0.5,63,128.0
7548,C#3,577.5,0.5,63,128.0
7549,F#2,578.0,0.5,65,128.0
7550,F#5,578.25,0.75,102,128.0
7551,F#5,578.292,0.75,102,128.0
7552,G#1,578.5,9/20,102,128.0
7553,F#2,578.5,0.5,70,128.0
7554,G#2,578.7,1483/1000,102,128.0
7555,E-3,578.7,1483/1000,102,128.0
7556,G#3,578.7,1483/1000,102,128.0
7557,F#2,578.95,19/40,99,128.0
7558,C#3,578.95,19/40,99,128.0
7559,F#3,578.95,19/40,99,128.0
7560,C#4,578.95,19/40,99,128.0
7561,E-5,579.0,0.5,102,128.0
7562,G#1,579.0,9/20,102,128.0
7563,E2,579.0,0.5,127,128.0
7564,G#2,579.0,0.5,102,128.0
7565,E-3,579.0,0.5,102,128.0
7566,G#3,579.0,0.5,102,128.0
7567,E-5,579.042,0.5,102,128.0
7568,F#2,579.45,19/40,99,128.0
7569,C#3,579.45,19/40,99,128.0
7570,F#3,579.45,19/40,99,128.0
7571,C#4,579.45,19/40,99,128.0
7572,C#5,579.5,0.25,102,128.0
7573,E-1,579.5,9/20,102,128.0
7574,F#2,579.5,0.5,65,128.0
7575,G#2,579.5,0.5,102,128.0
7576,E-3,579.5,0.5,102,128.0
7577,G#3,579.5,0.5,102,128.0
7578,C#5,579.542,0.25,102,128.0
7579,E-5,579.75,167/1000,102,128.0
7580,E-5,579.792,167/1000,102,128.0
7581,C#5,579.917,83/1000,102,128.0
7582,G#2,579.95,1483/1000,102,128.0
7583,E-3,579.95,1483/1000,102,128.0
7584,G#3,579.95,1483/1000,102,128.0
7585,C#5,579.958,21/500,102,128.0
7586,C#5,580.0,0.25,102,128.0
7587,C#5,580.0,73/250,102,128.0
7588,B1,580.0,9/20,102,128.0
7589,B2,580.0,124/125,102,128.0
7590,F#3,580.0,124/125,102,128.0
7591,B3,580.0,124/125,102,128.0
7592,C2,580.0,0.5,74,128.0
7593,C#3,580.0,0.5,74,128.0
7594,G#2,580.2,0.5,102,128.0
7595,E-3,580.2,0.5,102,128.0
7596,G#3,580.2,0.5,102,128.0
7597,E-5,580.25,0.25,102,128.0
7598,E-5,580.292,0.25,102,128.0
7599,C#5,580.5,417/1000,102,128.0
7600,B1,580.5,9/20,102,128.0
7601,F#2,580.5,0.5,66,128.0
7602,C#5,580.542,417/1000,102,128.0
7603,G#2,580.7,0.5,102,128.0
7604,E-3,580.7,0.5,102,128.0
7605,G#3,580.7,0.5,102,128.0
7606,G#4,580.917,0.5,102,128.0
7607,G#4,580.958,0.5,102,128.0
7608,B1,581.0,9/20,102,128.0
7609,B2,581.0,483/1000,102,128.0
7610,F#3,581.0,483/1000,102,128.0
7611,B3,581.0,483/1000,102,128.0
7612,F#2,581.0,0.5,98,128.0
7613,E2,581.0,0.5,98,128.0
7614,B2,581.2,124/125,102,128.0
7615,F#3,581.2,124/125,102,128.0
7616,B3,581.2,124/125,102,128.0
7617,G#4,581.417,833/1000,102,128.0
7618,G#2,581.45,1483/1000,102,128.0
7619,E-3,581.45,1483/1000,102,128.0
7620,G#3,581.45,1483/1000,102,128.0
7621,G#4,581.458,833/1000,102,128.0
7622,B1,581.5,9/20,102,128.0
7623,F#2,581.5,0.5,69,128.0
7624,B2,581.5,233/1000,102,128.0
7625,F#3,581.5,233/1000,102,128.0
7626,B3,581.5,233/1000,102,128.0
7627,B2,581.75,233/1000,102,128.0
7628,F#3,581.75,233/1000,102,128.0
7629,B3,581.75,233/1000,102,128.0
7630,C#2,582.0,9/10,102,128.0
7631,C#3,582.0,983/1000,102,128.0
7632,G#3,582.0,983/1000,102,128.0
7633,C#4,582.0,983/1000,102,128.0
7634,C2,582.0,1.0,76,128.0
7635,C#3,582.0,1.0,76,128.0
7636,B2,582.2,483/1000,102,128.0
7637,F#3,582.2,483/1000,102,128.0
7638,B3,582.2,483/1000,102,128.0
7639,C#5,582.25,167/1000,102,128.0
7640,C#5,582.292,167/1000,102,128.0
7641,G#4,582.417,833/1000,102,128.0
7642,G#4,582.458,833/1000,102,128.0
7643,B2,582.7,233/1000,102,128.0
7644,F#3,582.7,233/1000,102,128.0
7645,B3,582.7,233/1000,102,128.0
7646,G#2,582.95,0.5,102,128.0
7647,E-3,582.95,0.5,102,128.0
7648,G#3,582.95,0.5,102,128.0
7649,B2,582.95,233/1000,102,128.0
7650,F#3,582.95,233/1000,102,128.0
7651,B3,582.95,233/1000,102,128.0
7652,F#1,583.0,9/10,102,128.0
7653,F#2,583.0,1.0,99,128.0
7654,C#3,583.0,1.0,99,128.0
7655,F#3,583.0,1.0,99,128.0
7656,C#4,583.0,1.0,99,128.0
7657,C2,583.0,1.0,66,128.0
7658,A3,583.0,1.0,66,128.0
7659,C#3,583.2,983/1000,102,128.0
7660,G#3,583.2,983/1000,102,128.0
7661,C#4,583.2,983/1000,102,128.0
7662,E-4,583.25,0.25,102,128.0
7663,E-4,583.292,0.25,102,128.0
7664,G#2,583.45,0.5,102,128.0
7665,E-3,583.45,0.5,102,128.0
7666,G#3,583.45,0.5,102,128.0
7667,G#4,583.5,333/1000,102,128.0
7668,G#4,583.542,333/1000,102,128.0
7669,E-4,583.833,167/1000,102,128.0
7670,E-4,583.875,0.125,102,128.0
7671,B2,583.95,124/125,102,128.0
7672,F#3,583.95,124/125,102,128.0
7673,B3,583.95,124/125,102,128.0
7674,F#4,584.0,2.0,76,128.0
7675,E-4,584.0,21/500,102,128.0
7676,E-2,584.0,0.5,102,128.0
7677,E-1,584.0,0.5,102,128.0
7678,C2,584.0,1.0,76,128.0
7679,C#3,584.0,1.0,76,128.0
7680,F#4,584.042,2.0,76,128.0
7681,F#2,584.2,1.0,99,128.0
7682,C#3,584.2,1.0,99,128.0
7683,F#3,584.2,1.0,99,128.0
7684,C#4,584.2,1.0,99,128.0
7685,B2,584.95,483/1000,102,128.0
7686,F#3,584.95,483/1000,102,128.0
7687,B3,584.95,483/1000,102,128.0
7688,C#2,585.0,0.5,53,128.0
7689,F#2,585.0,0.5,53,128.0
7690,B2,585.45,233/1000,102,128.0
7691,F#3,585.45,233/1000,102,128.0
7692,B3,585.45,233/1000,102,128.0
7693,E-2,585.5,0.5,102,128.0
7694,E-1,585.5,0.5,102,128.0
7695,C2,585.5,0.5,83,128.0
7696,F#2,585.5,0.25,49,128.0
7697,B2,585.7,233/1000,102,128.0
7698,F#3,585.7,233/1000,102,128.0
7699,B3,585.7,233/1000,102,128.0
7700,C#3,585.95,983/1000,102,128.0
7701,G#3,585.95,983/1000,102,128.0
7702,C#4,585.95,983/1000,102,128.0
7703,F#2,586.0,0.5,56,128.0
7704,F#2,586.5,0.5,53,128.0
7705,F#2,586.95,1.0,99,128.0
7706,C#3,586.95,1.0,99,128.0
7707,F#3,586.95,1.0,99,128.0
7708,C#4,586.95,1.0,99,128.0
7709,C#2,587.0,0.5,52,128.0
7710,F#2,587.0,0.5,52,128.0
7711,E-2,587.5,0.125,102,128.0
7712,F1,587.5,9/20,102,128.0
7713,F#2,587.5,0.5,55,128.0
7714,F#1,588.0,0.5,102,128.0
7715,F#2,588.0,0.5,102,128.0
7716,C#3,588.0,0.5,102,128.0
7717,F#3,588.0,0.5,102,128.0
7718,C2,588.0,0.5,68,128.0
7719,F#2,588.0,0.5,68,128.0
7720,F#2,588.5,0.5,51,128.0
7721,F#2,589.0,0.5,53,128.0
7722,C#2,589.0,0.5,53,128.0
7723,F#3,589.5,1.0,57,128.0
7724,F#1,589.5,0.5,102,128.0
7725,C2,589.5,0.5,73,128.0
7726,F#2,589.5,0.5,73,128.0
7727,F#2,590.0,0.5,53,128.0
7728,F#2,590.5,0.5,53,128.0
7729,F#2,591.0,0.5,55,128.0
7730,C#2,591.0,0.5,55,128.0
7731,F#2,591.5,0.5,55,128.0
7732,G#1,592.0,0.5,102,128.0
7733,G#2,592.0,0.5,102,128.0
7734,E-3,592.0,0.5,102,128.0
7735,G#3,592.0,0.5,102,128.0
7736,C2,592.0,0.5,68,128.0
7737,F#2,592.0,0.5,68,128.0
7738,F#2,592.5,0.5,49,128.0
7739,B-3,592.5,83/1000,51,128.0
7740,F#3,592.5,83/1000,51,128.0
7741,C#3,592.5,83/1000,51,128.0
7742,B-3,592.542,83/1000,51,128.0
7743,F#3,592.542,83/1000,51,128.0
7744,C#3,592.542,83/1000,51,128.0
7745,B-3,592.75,83/1000,51,128.0
7746,F#3,592.75,83/1000,51,128.0
7747,C#3,592.75,83/1000,51,128.0
7748,B-3,592.792,83/1000,51,128.0
7749,F#3,592.792,83/1000,51,128.0
7750,C#3,592.792,83/1000,51,128.0
7751,B-3,593.0,83/1000,76,128.0
7752,F#3,593.0,83/1000,76,128.0
7753,C#3,593.0,83/1000,76,128.0
7754,F5,593.0,0.5,51,128.0
7755,F#2,593.0,0.5,51,128.0
7756,C#2,593.0,0.5,51,128.0
7757,B-3,593.042,83/1000,76,128.0
7758,F#3,593.042,83/1000,76,128.0
7759,C#3,593.042,83/1000,76,128.0
7760,B-3,593.25,83/1000,76,128.0
7761,F#3,593.25,83/1000,76,128.0
7762,C#3,593.25,83/1000,76,128.0
7763,B-3,593.292,83/1000,76,128.0
7764,F#3,593.292,83/1000,76,128.0
7765,C#3,593.292,83/1000,76,128.0
7766,G#3,593.5,1.0,57,128.0
7767,G#1,593.5,0.5,102,128.0
7768,B-3,593.5,83/1000,76,128.0
7769,F#3,593.5,83/1000,76,128.0
7770,C#3,593.5,83/1000,76,128.0
7771,C2,593.5,0.5,69,128.0
7772,F#2,593.5,0.5,69,128.0
7773,B-3,593.542,83/1000,76,128.0
7774,F#3,593.542,83/1000,76,128.0
7775,C#3,593.542,83/1000,76,128.0
7776,F#2,594.0,0.5,51,128.0
7777,F#2,594.5,0.5,51,128.0
7778,F5,595.0,0.5,54,128.0
7779,F#2,595.0,0.5,54,128.0
7780,C#2,595.0,0.5,54,128.0
7781,F#2,595.5,0.5,54,128.0
7782,C2,596.0,0.5,66,128.0
7783,F#2,596.0,0.5,66,128.0
7784,B1,596.5,9/20,102,128.0
7785,F#2,596.5,0.5,51,128.0
7786,B2,596.5,0.5,102,128.0
7787,F#3,596.5,0.5,102,128.0
7788,B3,596.5,0.5,102,128.0
7789,F3,597.0,0.25,28,128.0
7790,F3,597.0,0.25,28,128.0
7791,B1,597.0,9/20,102,128.0
7792,F#2,597.0,0.5,56,128.0
7793,C#2,597.0,0.5,56,128.0
7794,F3,597.25,0.25,28,128.0
7795,F3,597.25,0.25,28,128.0
7796,B1,597.5,9/20,102,128.0
7797,C2,597.5,0.5,68,128.0
7798,F#2,597.5,0.5,68,128.0
7799,C#2,598.0,9/10,102,128.0
7800,C#3,598.0,983/1000,102,128.0
7801,G#3,598.0,983/1000,102,128.0
7802,C#4,598.0,983/1000,102,128.0
7803,C2,598.0,0.5,66,128.0
7804,F#2,598.0,0.5,66,128.0
7805,F#2,598.5,0.5,57,128.0
7806,F#1,599.0,9/10,102,128.0
7807,F#2,599.0,1.0,102,128.0
7808,C#3,599.0,1.0,102,128.0
7809,F#3,599.0,1.0,102,128.0
7810,F#2,599.0,0.5,53,128.0
7811,C#2,599.0,0.5,53,128.0
7812,F#2,599.5,0.5,58,128.0
7813,C#4,599.5,0.125,76,128.0
7814,G#3,599.5,0.125,76,128.0
7815,C#3,599.5,0.125,76,128.0
7816,C#4,599.542,0.125,76,128.0
7817,G#3,599.542,0.125,76,128.0
7818,C#3,599.542,0.125,76,128.0
7819,C#4,599.75,0.125,76,128.0
7820,G#3,599.75,0.125,76,128.0
7821,C#3,599.75,0.125,76,128.0
7822,C#4,599.792,0.125,76,128.0
7823,G#3,599.792,0.125,76,128.0
7824,C#3,599.792,0.125,76,128.0
7825,C#4,599.95,1/20,102,128.0
7826,C#4,599.992,1/125,102,128.0
7827,C#4,600.0,373/250,102,128.0
7828,C#4,600.0,1533/1000,102,128.0
7829,E-1,600.0,0.5,102,128.0
7830,E-2,600.0,483/1000,102,128.0
7831,B-2,600.0,483/1000,102,128.0
7832,E-3,600.0,483/1000,102,128.0
7833,C2,600.0,0.5,72,128.0
7834,F#2,600.0,0.5,72,128.0
7835,F#2,600.5,0.5,57,128.0
7836,C#2,601.0,0.5,54,128.0
7837,F#2,601.0,0.5,54,128.0
7838,F4,601.5,2.5,32,128.0
7839,E-3,601.5,1.0,57,128.0
7840,E-1,601.5,0.5,102,128.0
7841,C2,601.5,0.5,69,128.0
7842,F#2,601.5,0.5,69,128.0
7843,F4,601.542,1229/500,32,128.0
7844,F#2,602.0,0.5,53,128.0
7845,F#2,602.5,0.5,55,128.0
7846,C#2,603.0,0.5,56,128.0
7847,F#2,603.0,0.5,56,128.0
7848,F1,603.5,9/20,102,128.0
7849,F#2,603.5,0.5,53,128.0
7850,F4,604.0,21/500,32,128.0
7851,F#1,604.0,0.5,102,128.0
7852,F#2,604.0,0.5,102,128.0
7853,C#3,604.0,0.5,102,128.0
7854,F#3,604.0,0.5,102,128.0
7855,C2,604.0,0.5,68,128.0
7856,F#2,604.0,0.5,68,128.0
7857,F#2,604.5,0.5,49,128.0
7858,C#2,605.0,0.5,56,128.0
7859,F#2,605.0,0.5,56,128.0
7860,F#3,605.5,1.0,57,128.0
7861,F#1,605.5,0.5,102,128.0
7862,C2,605.5,0.5,68,128.0
7863,F#2,605.5,0.5,68,128.0
7864,F#2,606.0,0.5,54,128.0
7865,F#2,606.5,0.5,52,128.0
7866,C#4,606.5,0.125,83,128.0
7867,G#3,606.5,0.125,83,128.0
7868,C#3,606.5,0.125,83,128.0
7869,C#4,606.542,0.125,83,128.0
7870,G#3,606.542,0.125,83,128.0
7871,C#3,606.542,0.125,83,128.0
7872,C#4,607.0,0.5,51,128.0
7873,C#4,607.0,0.5,51,128.0
7874,C#3,607.0,0.125,64,128.0
7875,G#3,607.0,0.125,64,128.0
7876,C#4,607.0,0.125,64,128.0
7877,C#2,607.0,0.5,52,128.0
7878,F#2,607.0,0.5,52,128.0
7879,C#3,607.042,0.125,64,128.0
7880,G#3,607.042,0.125,64,128.0
7881,C#4,607.042,0.125,64,128.0
7882,F#2,607.5,0.5,55,128.0
7883,C#4,607.5,0.125,83,128.0
7884,G#3,607.5,0.125,83,128.0
7885,C#3,607.5,0.125,83,128.0
7886,C#4,607.542,0.125,83,128.0
7887,G#3,607.542,0.125,83,128.0
7888,C#3,607.542,0.125,83,128.0
7889,G#1,608.0,0.5,102,128.0
7890,G#2,608.0,0.5,102,128.0
7891,E-3,608.0,0.5,102,128.0
7892,G#3,608.0,0.5,102,128.0
7893,C2,608.0,0.5,72,128.0
7894,F#2,608.0,0.5,72,128.0
7895,F#2,608.5,0.5,55,128.0
7896,C#2,609.0,0.5,56,128.0
7897,F#2,609.0,0.5,56,128.0
7898,G#3,609.5,1.0,57,128.0
7899,G#1,609.5,0.5,102,128.0
7900,C2,609.5,0.5,74,128.0
7901,F#2,609.5,0.5,74,128.0
7902,F#2,610.0,0.5,54,128.0
7903,F#2,610.5,0.5,49,128.0
7904,C#2,611.0,0.5,54,128.0
7905,F#2,611.0,0.5,54,128.0
7906,F#2,611.5,0.5,57,128.0
7907,B3,612.0,0.125,89,128.0
7908,F#3,612.0,0.125,89,128.0
7909,B2,612.0,0.125,89,128.0
7910,C2,612.0,0.5,70,128.0
7911,F#2,612.0,0.5,70,128.0
7912,B1,612.5,9/20,102,128.0
7913,F#2,612.5,0.5,58,128.0
7914,B2,612.5,0.5,102,128.0
7915,F#3,612.5,0.5,102,128.0
7916,B3,612.5,0.5,102,128.0
7917,B1,613.0,9/20,102,128.0
7918,C#2,613.0,0.5,56,128.0
7919,F#2,613.0,0.5,56,128.0
7920,B1,613.5,9/20,102,128.0
7921,C2,613.5,0.5,70,128.0
7922,F#2,613.5,0.5,70,128.0
7923,C#2,614.0,9/10,102,128.0
7924,C#3,614.0,983/1000,102,128.0
7925,G#3,614.0,983/1000,102,128.0
7926,C#4,614.0,983/1000,102,128.0
7927,C2,614.0,0.5,68,128.0
7928,F#2,614.0,0.5,68,128.0
7929,F#2,614.5,0.5,54,128.0
7930,F#1,615.0,9/10,102,128.0
7931,F#2,615.0,1.0,102,128.0
7932,C#3,615.0,1.0,102,128.0
7933,F#3,615.0,1.0,102,128.0
7934,C#2,615.0,0.5,56,128.0
7935,F#2,615.0,0.5,56,128.0
7936,C#4,615.25,0.125,76,128.0
7937,G#3,615.25,0.125,76,128.0
7938,C#3,615.25,0.125,76,128.0
7939,C#4,615.292,0.125,76,128.0
7940,G#3,615.292,0.125,76,128.0
7941,C#3,615.292,0.125,76,128.0
7942,F#2,615.5,0.5,52,128.0
7943,G#3,615.5,0.125,76,128.0
7944,C#4,615.5,0.125,76,128.0
7945,C#3,615.5,0.125,76,128.0
7946,G#3,615.542,0.125,76,128.0
7947,C#4,615.542,0.125,76,128.0
7948,C#3,615.542,0.125,76,128.0
7949,G#3,615.75,0.125,76,128.0
7950,C#4,615.75,0.125,76,128.0
7951,C#3,615.75,0.125,76,128.0
7952,G#3,615.792,0.125,76,128.0
7953,C#4,615.792,0.125,76,128.0
7954,C#3,615.792,0.125,76,128.0
7955,G#3,616.0,0.5,102,128.0
7956,E-1,616.0,0.5,102,128.0
7957,E-2,616.0,483/1000,102,128.0
7958,B-2,616.0,483/1000,102,128.0
7959,E-3,616.0,483/1000,102,128.0
7960,C2,616.0,0.5,66,128.0
7961,F#2,616.0,0.5,66,128.0
7962,G#3,616.042,0.5,102,128.0
7963,E-2,616.5,0.5,89,128.0
7964,F#2,616.5,0.5,50,128.0
7965,E-2,617.0,0.5,89,128.0
7966,C#2,617.0,0.5,54,128.0
7967,F#2,617.0,0.5,54,128.0
7968,E-1,617.5,0.5,102,128.0
7969,E-2,617.5,0.5,102,128.0
7970,B-2,617.5,0.5,102,128.0
7971,E-3,617.5,0.5,102,128.0
7972,C2,617.5,0.5,69,128.0
7973,F#2,617.5,0.5,69,128.0
7974,F#2,618.0,0.5,58,128.0
7975,E-2,618.5,0.5,89,128.0
7976,F#2,618.5,0.5,53,128.0
7977,E-2,619.0,0.5,102,128.0
7978,B-2,619.0,0.5,102,128.0
7979,E-3,619.0,0.5,102,128.0
7980,C#2,619.0,0.5,54,128.0
7981,F#2,619.0,0.5,54,128.0
7982,E-2,619.5,0.5,89,128.0
7983,F1,619.5,9/20,102,128.0
7984,F#2,619.5,0.5,50,128.0
7985,C#4,619.5,0.125,83,128.0
7986,G#3,619.5,0.125,83,128.0
7987,C#3,619.5,0.125,83,128.0
7988,C#4,619.542,0.125,83,128.0
7989,G#3,619.542,0.125,83,128.0
7990,C#3,619.542,0.125,83,128.0
7991,C#4,619.75,0.125,83,128.0
7992,G#3,619.75,0.125,83,128.0
7993,C#3,619.75,0.125,83,128.0
7994,C#4,619.792,0.125,83,128.0
7995,G#3,619.792,0.125,83,128.0
7996,C#3,619.792,0.125,83,128.0
7997,G#3,620.0,0.5,102,128.0
7998,F#1,620.0,0.5,102,128.0
7999,F#2,620.0,983/1000,102,128.0
8000,C#3,620.0,983/1000,102,128.0
8001,F#3,620.0,983/1000,102,128.0
8002,C2,620.0,0.5,70,128.0
8003,F#2,620.0,0.5,70,128.0
8004,G#3,620.042,0.5,102,128.0
8005,E-3,620.5,0.5,102,128.0
8006,F#2,620.5,0.5,49,128.0
8007,E-3,620.542,0.5,102,128.0
8008,B-2,621.0,1.0,102,128.0
8009,C#3,621.0,0.5,83,128.0
8010,C#2,621.0,0.5,55,128.0
8011,F#2,621.0,0.5,55,128.0
8012,B-2,621.042,1.0,102,128.0
8013,F#1,621.5,0.5,102,128.0
8014,F#2,621.5,0.5,102,128.0
8015,C#3,621.5,0.5,102,128.0
8016,F#3,621.5,0.5,102,128.0
8017,C2,621.5,0.5,68,128.0
8018,F#2,621.5,0.5,68,128.0
8019,F#2,622.0,0.5,50,128.0
8020,F#2,622.5,0.5,53,128.0
8021,C#3,623.0,0.5,83,128.0
8022,F#2,623.0,0.5,92,128.0
8023,E2,623.0,0.5,92,128.0
8024,F#2,623.5,0.5,51,128.0
8025,F#2,623.5,0.5,102,128.0
8026,C#3,623.5,0.5,102,128.0
8027,F#3,623.5,0.5,102,128.0
8028,G#1,624.0,0.5,102,128.0
8029,G#2,624.0,0.5,91,128.0
8030,E-3,624.0,0.5,91,128.0
8031,G#3,624.0,0.5,91,128.0
8032,C2,624.0,0.5,68,128.0
8033,F#2,624.0,0.5,68,128.0
8034,F#2,624.5,0.5,55,128.0
8035,G#2,624.5,0.5,91,128.0
8036,E-3,624.5,0.5,91,128.0
8037,G#3,624.5,0.5,91,128.0
8038,G#2,625.0,983/1000,91,128.0
8039,E-3,625.0,983/1000,91,128.0
8040,G#3,625.0,983/1000,91,128.0
8041,C#2,625.0,0.5,60,128.0
8042,F#2,625.0,0.5,60,128.0
8043,G#1,625.5,0.5,102,128.0
8044,C2,625.5,0.5,72,128.0
8045,F#2,625.5,0.5,72,128.0
8046,F#2,626.0,0.5,51,128.0
8047,G#2,626.0,0.5,91,128.0
8048,E-3,626.0,0.5,91,128.0
8049,G#3,626.0,0.5,91,128.0
8050,F#2,626.5,0.5,56,128.0
8051,G#2,626.5,0.5,91,128.0
8052,E-3,626.5,0.5,91,128.0
8053,G#3,626.5,0.5,91,128.0
8054,G#2,627.0,0.5,91,128.0
8055,E-3,627.0,0.5,91,128.0
8056,G#3,627.0,0.5,91,128.0
8057,F#2,627.0,0.5,88,128.0
8058,E2,627.0,0.5,88,128.0
8059,C#4,627.5,0.5,121,128.0
8060,F#2,627.5,0.5,58,128.0
8061,G#2,627.5,0.125,80,128.0
8062,E-3,627.5,0.125,80,128.0
8063,G#3,627.5,0.125,80,128.0
8064,C#4,627.542,229/500,121,128.0
8065,C#4,628.0,4.0,121,128.0
8066,C#4,628.0,4.0,121,128.0
8067,B1,628.0,9/20,102,128.0
8068,C2,628.0,0.5,74,128.0
8069,F#2,628.0,0.5,74,128.0
8070,B1,628.5,9/20,102,128.0
8071,F#2,628.5,0.5,55,128.0
8072,B2,628.5,0.5,102,128.0
8073,F#3,628.5,0.5,102,128.0
8074,B3,628.5,0.5,102,128.0
8075,B1,629.0,9/20,102,128.0
8076,C#2,629.0,0.5,56,128.0
8077,F#2,629.0,0.5,56,128.0
8078,B1,629.5,9/20,102,128.0
8079,C2,629.5,0.5,64,128.0
8080,F#2,629.5,0.5,64,128.0
8081,C#2,630.0,9/10,102,128.0
8082,C#3,630.0,983/1000,102,128.0
8083,G#3,630.0,983/1000,102,128.0
8084,C#4,630.0,983/1000,102,128.0
8085,C2,630.0,0.5,66,128.0
8086,F#2,630.0,0.5,66,128.0
8087,F#2,630.5,0.5,55,128.0
8088,F#1,631.0,9/20,102,128.0
8089,E2,631.0,0.5,119,128.0
8090,F#2,631.0,1.0,102,128.0
8091,C#3,631.0,1.0,102,128.0
8092,F#3,631.0,1.0,102,128.0
8093,F#1,631.5,9/20,102,128.0
8094,E2,631.5,0.5,120,128.0
8095,F#4,632.0,1.0,76,128.0
8096,C#4,632.0,21/500,121,128.0
8097,B-4,632.0,1.0,89,128.0
8098,E-1,632.0,9/10,102,128.0
8099,E-2,632.0,483/1000,89,128.0
8100,B-2,632.0,483/1000,89,128.0
8101,E-3,632.0,483/1000,89,128.0
8102,C2,632.0,1.0,74,128.0
8103,C#3,632.0,1.0,74,128.0
8104,F#4,632.042,1.0,76,128.0
8105,B-4,632.042,1.0,89,128.0
8106,E-2,632.5,483/1000,89,128.0
8107,B-2,632.5,483/1000,89,128.0
8108,E-3,632.5,483/1000,89,128.0
8109,E-4,633.0,0.5,64,128.0
8110,E-1,633.0,9/20,102,128.0
8111,E-2,633.0,483/1000,89,128.0
8112,B-2,633.0,483/1000,89,128.0
8113,E-3,633.0,483/1000,89,128.0
8114,F#2,633.0,0.5,96,128.0
8115,E2,633.0,0.5,96,128.0
8116,E-4,633.042,0.5,64,128.0
8117,E-1,633.5,9/20,102,128.0
8118,E-2,633.5,483/1000,89,128.0
8119,B-2,633.5,483/1000,89,128.0
8120,E-3,633.5,483/1000,89,128.0
8121,C2,633.5,0.5,64,128.0
8122,F#2,633.5,0.5,64,128.0
8123,E-1,634.0,9/20,102,128.0
8124,F#2,634.0,0.5,70,128.0
8125,E-2,634.05,483/1000,89,128.0
8126,B-2,634.05,483/1000,89,128.0
8127,E-3,634.05,483/1000,89,128.0
8128,E-1,634.5,9/20,102,128.0
8129,C2,634.5,0.5,66,128.0
8130,F#2,634.5,0.5,66,128.0
8131,E-2,634.525,483/1000,89,128.0
8132,B-2,634.525,483/1000,89,128.0
8133,E-3,634.525,483/1000,89,128.0
8134,E-1,635.0,9/20,102,128.0
8135,F#2,635.0,0.5,96,128.0
8136,E2,635.0,0.5,96,128.0
8137,E-2,635.025,483/1000,89,128.0
8138,B-2,635.025,483/1000,89,128.0
8139,E-3,635.025,483/1000,89,128.0
8140,F1,635.5,9/20,102,128.0
8141,F#2,635.5,0.5,53,128.0
8142,E-2,635.5,483/1000,89,128.0
8143,B-2,635.5,483/1000,89,128.0
8144,E-3,635.5,483/1000,89,128.0
8145,F#1,636.0,9/10,102,128.0
8146,F#2,636.0,39/40,102,128.0
8147,C#3,636.0,39/40,102,128.0
8148,F#3,636.0,39/40,102,128.0
8149,C2,636.0,0.5,80,128.0
8150,F#2,636.0,0.5,80,128.0
8151,F#2,636.5,0.5,51,128.0
8152,F#1,637.0,9/20,102,128.0
8153,F#2,637.0,39/40,102,128.0
8154,C#3,637.0,39/40,102,128.0
8155,F#3,637.0,39/40,102,128.0
8156,F#2,637.0,0.5,98,128.0
8157,E2,637.0,0.5,98,128.0
8158,F#1,637.5,9/20,102,128.0
8159,C2,637.5,0.5,68,128.0
8160,F#2,637.5,0.5,68,128.0
8161,F#1,638.0,9/20,102,128.0
8162,F#2,638.0,0.5,77,128.0
8163,F#2,638.0,483/1000,102,128.0
8164,C#3,638.0,483/1000,102,128.0
8165,F#3,638.0,483/1000,102,128.0
8166,F#1,638.5,9/20,102,128.0
8167,C2,638.5,0.5,70,128.0
8168,F#2,638.5,0.5,70,128.0
8169,F#2,638.525,483/1000,102,128.0
8170,C#3,638.525,483/1000,102,128.0
8171,F#3,638.525,483/1000,102,128.0
8172,F#1,639.0,9/20,102,128.0
8173,F#2,639.0,0.5,98,128.0
8174,E2,639.0,0.5,98,128.0
8175,F#2,639.05,433/1000,102,128.0
8176,C#3,639.05,433/1000,102,128.0
8177,F#3,639.05,433/1000,102,128.0
8178,E-2,639.5,0.5,102,128.0
8179,E-1,639.5,9/20,102,128.0
8180,F#2,639.5,0.5,55,128.0
8181,C#5,640.0,1.0,102,128.0
8182,G#1,640.0,9/20,102,128.0
8183,G#2,640.0,39/40,102,128.0
8184,E-3,640.0,39/40,102,128.0
8185,G#3,640.0,39/40,102,128.0
8186,C#3,640.0,0.5,92,128.0
8187,E2,640.0,0.5,92,128.0
8188,C#5,640.042,1.0,102,128.0
8189,G#1,640.5,9/20,102,128.0
8190,C2,640.5,0.5,49,128.0
8191,B-4,641.0,0.5,102,128.0
8192,G#1,641.0,9/20,102,128.0
8193,C2,641.0,0.5,55,128.0
8194,G#2,641.0,483/1000,102,128.0
8195,E-3,641.0,483/1000,102,128.0
8196,G#3,641.0,483/1000,102,128.0
8197,B-4,641.042,0.5,102,128.0
8198,G#4,641.5,1.0,102,128.0
8199,G#1,641.5,9/20,102,128.0
8200,C2,641.5,0.5,50,128.0
8201,G#2,641.5,483/1000,102,128.0
8202,E-3,641.5,483/1000,102,128.0
8203,G#3,641.5,483/1000,102,128.0
8204,G#4,641.542,1.0,102,128.0
8205,G#1,642.0,9/20,102,128.0
8206,C2,642.0,0.5,51,128.0
8207,G#2,642.0,483/1000,102,128.0
8208,E-3,642.0,483/1000,102,128.0
8209,G#3,642.0,483/1000,102,128.0
8210,F#4,642.5,0.5,102,128.0
8211,G#1,642.5,9/20,102,128.0
8212,C2,642.5,0.5,63,128.0
8213,G#2,642.5,483/1000,102,128.0
8214,E-3,642.5,483/1000,102,128.0
8215,G#3,642.5,483/1000,102,128.0
8216,F#4,642.542,0.5,102,128.0
8217,E-1,643.0,9/20,102,128.0
8218,C2,643.0,0.5,76,128.0
8219,G#2,643.0,483/1000,102,128.0
8220,E-3,643.0,483/1000,102,128.0
8221,G#3,643.0,483/1000,102,128.0
8222,F#4,643.5,0.5,102,128.0
8223,E-1,643.5,9/20,102,128.0
8224,C2,643.5,0.5,81,128.0
8225,G#2,643.5,483/1000,102,128.0
8226,E-3,643.5,483/1000,102,128.0
8227,G#3,643.5,483/1000,102,128.0
8228,F#4,643.542,229/500,102,128.0
8229,C5,644.0,0.5,83,128.0
8230,F#4,644.0,21/500,102,128.0
8231,E-3,644.0,9/10,83,128.0
8232,B2,644.0,483/1000,102,128.0
8233,F#3,644.0,483/1000,102,128.0
8234,B3,644.0,483/1000,102,128.0
8235,F2,644.0,479/500,82,128.0
8236,F2,644.0,479/500,82,128.0
8237,C5,644.042,0.5,83,128.0
8238,E-5,644.5,0.5,95,128.0
8239,B2,644.5,483/1000,102,128.0
8240,F#3,644.5,483/1000,102,128.0
8241,B3,644.5,483/1000,102,128.0
8242,E-5,644.542,0.5,95,128.0
8243,E-3,645.0,9/10,83,128.0
8244,B2,645.0,483/1000,102,128.0
8245,F#3,645.0,483/1000,102,128.0
8246,B3,645.0,483/1000,102,128.0
8247,F2,645.0,479/500,82,128.0
8248,F2,645.0,479/500,82,128.0
8249,B2,645.5,483/1000,102,128.0
8250,F#3,645.5,483/1000,102,128.0
8251,B3,645.5,483/1000,102,128.0
8252,E2,645.958,1.0,108,128.0
8253,E2,645.958,1.0,108,128.0
8254,C5,646.0,0.5,83,128.0
8255,E-3,646.0,9/20,83,128.0
8256,C#3,646.0,983/1000,102,128.0
8257,G#3,646.0,983/1000,102,128.0
8258,C#4,646.0,983/1000,102,128.0
8259,C5,646.042,0.5,83,128.0
8260,E-5,646.5,0.5,102,128.0
8261,C#2,646.5,9/20,102,128.0
8262,E-5,646.542,0.5,102,128.0
8263,E2,646.958,1.0,106,128.0
8264,E2,646.958,1.0,106,128.0
8265,E-5,647.0,417/1000,102,128.0
8266,G#1,647.0,9/20,102,128.0
8267,F#2,647.0,1.0,102,128.0
8268,C#3,647.0,1.0,102,128.0
8269,F#3,647.0,1.0,102,128.0
8270,E-5,647.042,417/1000,102,128.0
8271,C#6,647.417,583/1000,95,128.0
8272,C#6,647.458,271/500,95,128.0
8273,F#1,647.5,9/20,102,128.0
8274,C#6,648.0,2.0,97,128.0
8275,C#6,648.0,21/500,95,128.0
8276,E-1,648.0,1.25,102,128.0
8277,E-2,648.0,39/40,102,128.0
8278,B-2,648.0,39/40,102,128.0
8279,E-3,648.0,39/40,102,128.0
8280,C2,648.0,1.0,72,128.0
8281,C#3,648.0,1.0,72,128.0
8282,C#6,648.042,2.0,97,128.0
8283,E2,649.0,0.5,124,128.0
8284,F#3,649.0,0.125,89,128.0
8285,C#3,649.0,0.125,89,128.0
8286,G#2,649.0,0.125,89,128.0
8287,E-2,649.2,39/40,102,128.0
8288,B-2,649.2,39/40,102,128.0
8289,E-3,649.2,39/40,102,128.0
8290,E-2,649.5,9/10,95,128.0
8291,E-2,649.5,39/40,102,128.0
8292,B-2,649.5,39/40,102,128.0
8293,E-3,649.5,39/40,102,128.0
8294,C2,649.5,1.0,78,128.0
8295,C#3,649.5,1.0,78,128.0
8296,C#6,650.0,667/1000,97,128.0
8297,C#6,650.042,667/1000,97,128.0
8298,F#3,650.2,0.125,89,128.0
8299,C#3,650.2,0.125,89,128.0
8300,G#2,650.2,0.125,89,128.0
8301,E-1,650.5,9/20,102,128.0
8302,F#2,650.5,0.5,68,128.0
8303,E-2,650.5,483/1000,102,128.0
8304,B-2,650.5,483/1000,102,128.0
8305,E-3,650.5,483/1000,102,128.0
8306,C#6,650.667,667/1000,97,128.0
8307,E-2,650.7,39/40,102,128.0
8308,B-2,650.7,39/40,102,128.0
8309,E-3,650.7,39/40,102,128.0
8310,C#6,650.708,667/1000,97,128.0
8311,E-1,651.0,9/20,102,128.0
8312,E-2,651.0,483/1000,102,128.0
8313,B-2,651.0,483/1000,102,128.0
8314,E-3,651.0,483/1000,102,128.0
8315,F#2,651.0,0.5,96,128.0
8316,E2,651.0,0.5,96,128.0
8317,C#6,651.333,667/1000,97,128.0
8318,C#6,651.375,0.625,97,128.0
8319,F2,651.5,0.5,102,128.0
8320,F1,651.5,9/20,102,128.0
8321,F#2,651.5,0.5,70,128.0
8322,E-2,651.7,483/1000,102,128.0
8323,B-2,651.7,483/1000,102,128.0
8324,E-3,651.7,483/1000,102,128.0
8325,C#6,652.0,1333/1000,97,128.0
8326,C#6,652.0,21/500,97,128.0
8327,F#1,652.0,9/10,102,128.0
8328,F#2,652.0,983/1000,102,128.0
8329,C#3,652.0,983/1000,102,128.0
8330,F#3,652.0,983/1000,102,128.0
8331,C2,652.0,1.0,80,128.0
8332,C#3,652.0,1.0,80,128.0
8333,C#6,652.042,1333/1000,97,128.0
8334,E-2,652.2,483/1000,102,128.0
8335,B-2,652.2,483/1000,102,128.0
8336,E-3,652.2,483/1000,102,128.0
8337,F2,652.7,0.5,102,128.0
8338,F#1,653.0,9/20,102,128.0
8339,E2,653.0,0.5,122,128.0
8340,F#3,653.0,0.125,89,128.0
8341,C#3,653.0,0.125,89,128.0
8342,G#2,653.0,0.125,89,128.0
8343,F#2,653.2,983/1000,102,128.0
8344,C#3,653.2,983/1000,102,128.0
8345,F#3,653.2,983/1000,102,128.0
8346,C#6,653.333,2667/1000,97,128.0
8347,C#6,653.375,2.625,97,128.0
8348,F#2,653.5,27/20,89,128.0
8349,F#2,653.5,1.5,102,128.0
8350,C#3,653.5,1.5,102,128.0
8351,F#3,653.5,1.5,102,128.0
8352,C2,653.5,1.0,70,128.0
8353,C#3,653.5,1.0,70,128.0
8354,F#3,654.2,0.125,89,128.0
8355,C#3,654.2,0.125,89,128.0
8356,G#2,654.2,0.125,89,128.0
8357,C2,654.5,0.5,81,128.0
8358,F#2,654.5,0.5,81,128.0
8359,F#2,654.7,1.5,102,128.0
8360,C#3,654.7,1.5,102,128.0
8361,F#3,654.7,1.5,102,128.0
8362,F#1,655.0,9/20,102,128.0
8363,F#2,655.0,0.5,102,128.0
8364,C#3,655.0,0.5,102,128.0
8365,F#3,655.0,0.5,102,128.0
8366,F#2,655.0,0.5,98,128.0
8367,E2,655.0,0.5,98,128.0
8368,E-2,655.5,0.5,102,128.0
8369,E-1,655.5,9/20,102,128.0
8370,F#2,655.5,0.5,73,128.0
8371,E-5,656.0,583/1000,85,128.0
8372,C#6,656.0,21/500,97,128.0
8373,G#1,656.0,9/10,102,128.0
8374,G#2,656.0,983/1000,102,128.0
8375,E-3,656.0,983/1000,102,128.0
8376,G#3,656.0,983/1000,102,128.0
8377,C2,656.0,0.5,76,128.0
8378,C#3,656.0,0.5,76,128.0
8379,E-5,656.042,583/1000,85,128.0
8380,F#2,656.2,0.5,102,128.0
8381,C#3,656.2,0.5,102,128.0
8382,F#3,656.2,0.5,102,128.0
8383,F#2,656.5,0.5,75,128.0
8384,G#5,656.583,1167/1000,97,128.0
8385,G#5,656.625,1167/1000,97,128.0
8386,E-2,656.7,0.5,102,128.0
8387,E-1,657.0,9/20,102,128.0
8388,F#3,657.0,0.125,89,128.0
8389,C#3,657.0,0.125,89,128.0
8390,G#2,657.0,0.125,89,128.0
8391,F#2,657.0,0.5,96,128.0
8392,E2,657.0,0.5,96,128.0
8393,G#2,657.2,983/1000,102,128.0
8394,E-3,657.2,983/1000,102,128.0
8395,G#3,657.2,983/1000,102,128.0
8396,G#1,657.5,9/10,102,128.0
8397,G#2,657.5,983/1000,102,128.0
8398,E-3,657.5,983/1000,102,128.0
8399,G#3,657.5,983/1000,102,128.0
8400,C2,657.5,0.5,67,128.0
8401,C#3,657.5,0.5,67,128.0
8402,G#5,657.917,1167/1000,97,128.0
8403,G#5,657.958,1167/1000,97,128.0
8404,F#2,658.0,0.5,75,128.0
8405,F#3,658.2,0.125,89,128.0
8406,C#3,658.2,0.125,89,128.0
8407,G#2,658.2,0.125,89,128.0
8408,G#1,658.5,9/20,102,128.0
8409,F#2,658.5,0.5,65,128.0
8410,G#2,658.5,483/1000,102,128.0
8411,E-3,658.5,483/1000,102,128.0
8412,G#3,658.5,483/1000,102,128.0
8413,G#2,658.7,983/1000,102,128.0
8414,E-3,658.7,983/1000,102,128.0
8415,G#3,658.7,983/1000,102,128.0
8416,G#1,659.0,9/20,102,128.0
8417,G#2,659.0,0.5,102,128.0
8418,E-3,659.0,0.5,102,128.0
8419,G#3,659.0,0.5,102,128.0
8420,F#2,659.0,0.5,95,128.0
8421,E2,659.0,0.5,95,128.0
8422,G#5,659.25,0.5,97,128.0
8423,G#5,659.292,0.5,97,128.0
8424,E-1,659.5,9/20,102,128.0
8425,F#3,659.5,0.125,89,128.0
8426,C#3,659.5,0.125,89,128.0
8427,G#2,659.5,0.125,89,128.0
8428,C2,659.5,0.5,76,128.0
8429,F#2,659.5,0.5,76,128.0
8430,G#2,659.7,483/1000,102,128.0
8431,E-3,659.7,483/1000,102,128.0
8432,G#3,659.7,483/1000,102,128.0
8433,G#5,659.917,83/1000,121,128.0
8434,G#5,659.958,21/500,121,128.0
8435,G#5,660.0,3.0,121,128.0
8436,G#5,660.0,1521/500,121,128.0
8437,B1,660.0,9/20,102,128.0
8438,B2,660.0,983/1000,102,128.0
8439,F#3,660.0,983/1000,102,128.0
8440,B3,660.0,983/1000,102,128.0
8441,C2,660.0,0.5,72,128.0
8442,C#3,660.0,0.5,72,128.0
8443,G#2,660.2,0.5,102,128.0
8444,E-3,660.2,0.5,102,128.0
8445,G#3,660.2,0.5,102,128.0
8446,B1,660.5,9/20,102,128.0
8447,F#2,660.5,0.5,72,128.0
8448,F#3,660.7,0.125,89,128.0
8449,C#3,660.7,0.125,89,128.0
8450,G#2,660.7,0.125,89,128.0
8451,B1,661.0,9/20,102,128.0
8452,B2,661.0,983/1000,102,128.0
8453,F#3,661.0,983/1000,102,128.0
8454,B3,661.0,983/1000,102,128.0
8455,F#2,661.0,0.5,100,128.0
8456,E2,661.0,0.5,100,128.0
8457,B2,661.2,983/1000,102,128.0
8458,F#3,661.2,983/1000,102,128.0
8459,B3,661.2,983/1000,102,128.0
8460,B1,661.5,9/20,102,128.0
8461,C2,661.5,0.5,79,128.0
8462,F#2,661.5,0.5,79,128.0
8463,C#2,662.0,9/10,102,128.0
8464,C#3,662.0,983/1000,102,128.0
8465,G#3,662.0,983/1000,102,128.0
8466,C#4,662.0,983/1000,102,128.0
8467,C2,662.0,1.0,72,128.0
8468,C#3,662.0,1.0,72,128.0
8469,B2,662.2,983/1000,102,128.0
8470,F#3,662.2,983/1000,102,128.0
8471,B3,662.2,983/1000,102,128.0
8472,E-5,663.0,0.5,79,128.0
8473,F#1,663.0,9/10,102,128.0
8474,F#2,663.0,1.0,102,128.0
8475,C#3,663.0,1.0,102,128.0
8476,F#3,663.0,1.0,102,128.0
8477,C2,663.0,1.0,65,128.0
8478,A3,663.0,1.0,65,128.0
8479,E-5,663.042,0.5,79,128.0
8480,C#3,663.2,983/1000,102,128.0
8481,G#3,663.2,983/1000,102,128.0
8482,C#4,663.2,983/1000,102,128.0
8483,E-5,663.5,0.5,97,128.0
8484,E-5,663.542,229/500,97,128.0
8485,E-5,664.0,0.25,97,128.0
8486,E-5,664.0,73/250,97,128.0
8487,E-1,664.0,9/10,102,128.0
8488,E-2,664.0,39/40,102,128.0
8489,B-2,664.0,39/40,102,128.0
8490,E-3,664.0,39/40,102,128.0
8491,C2,664.0,1.0,72,128.0
8492,C#3,664.0,1.0,72,128.0
8493,F#2,664.2,1.0,102,128.0
8494,C#3,664.2,1.0,102,128.0
8495,F#3,664.2,1.0,102,128.0
8496,C#5,665.0,2.5,97,128.0
8497,E-1,665.0,9/20,102,128.0
8498,E2,665.0,0.5,121,128.0
8499,F#3,665.0,0.125,89,128.0
8500,C#3,665.0,0.125,89,128.0
8501,G#2,665.0,0.125,89,128.0
8502,C#5,665.042,2.5,97,128.0
8503,E-2,665.2,39/40,102,128.0
8504,B-2,665.2,39/40,102,128.0
8505,E-3,665.2,39/40,102,128.0
8506,E-2,665.5,9/10,95,128.0
8507,E-2,665.5,39/40,102,128.0
8508,B-2,665.5,39/40,102,128.0
8509,E-3,665.5,39/40,102,128.0
8510,C2,665.5,1.0,74,128.0
8511,C#3,665.5,1.0,74,128.0
8512,F#3,666.2,0.125,89,128.0
8513,C#3,666.2,0.125,89,128.0
8514,G#2,666.2,0.125,89,128.0
8515,E-1,666.5,9/20,102,128.0
8516,F#2,666.5,0.5,76,128.0
8517,E-2,666.5,483/1000,102,128.0
8518,B-2,666.5,483/1000,102,128.0
8519,E-3,666.5,483/1000,102,128.0
8520,E-2,666.7,39/40,102,128.0
8521,B-2,666.7,39/40,102,128.0
8522,E-3,666.7,39/40,102,128.0
8523,E-1,667.0,9/20,102,128.0
8524,E-2,667.0,483/1000,102,128.0
8525,B-2,667.0,483/1000,102,128.0
8526,E-3,667.0,483/1000,102,128.0
8527,F#2,667.0,0.5,95,128.0
8528,E2,667.0,0.5,95,128.0
8529,C#5,667.5,0.5,97,128.0
8530,F2,667.5,0.5,102,128.0
8531,F1,667.5,9/40,102,128.0
8532,F#2,667.5,0.5,76,128.0
8533,C#5,667.542,229/500,97,128.0
8534,E-2,667.7,483/1000,102,128.0
8535,B-2,667.7,483/1000,102,128.0
8536,E-3,667.7,483/1000,102,128.0
8537,F1,667.75,9/40,102,128.0
8538,C#5,668.0,4/5,97,128.0
8539,C#5,668.0,21/500,97,128.0
8540,F#1,668.0,9/10,102,128.0
8541,F#2,668.0,983/1000,102,128.0
8542,C#3,668.0,983/1000,102,128.0
8543,F#3,668.0,983/1000,102,128.0
8544,C2,668.0,1.0,80,128.0
8545,C#3,668.0,1.0,80,128.0
8546,C#5,668.042,4/5,97,128.0
8547,E-2,668.2,483/1000,102,128.0
8548,B-2,668.2,483/1000,102,128.0
8549,E-3,668.2,483/1000,102,128.0
8550,F2,668.7,0.5,102,128.0
8551,E-5,668.8,1/5,97,128.0
8552,E-5,668.842,1/5,97,128.0
8553,C#5,669.0,2/5,97,128.0
8554,F#1,669.0,9/20,102,128.0
8555,E2,669.0,0.5,122,128.0
8556,F#3,669.0,0.125,89,128.0
8557,C#3,669.0,0.125,89,128.0
8558,G#2,669.0,0.125,89,128.0
8559,C#5,669.042,2/5,97,128.0
8560,F#2,669.2,983/1000,102,128.0
8561,C#3,669.2,983/1000,102,128.0
8562,F#3,669.2,983/1000,102,128.0
8563,C#5,669.4,1/5,97,128.0
8564,C#5,669.442,1/5,97,128.0
8565,F#2,669.5,9/10,89,128.0
8566,F#2,669.5,1.5,102,128.0
8567,C#3,669.5,1.5,102,128.0
8568,F#3,669.5,1.5,102,128.0
8569,C2,669.5,1.0,74,128.0
8570,C#3,669.5,1.0,74,128.0
8571,C#5,669.6,2/5,97,128.0
8572,C#5,669.642,2/5,97,128.0
8573,G#4,670.0,1/5,97,128.0
8574,G#4,670.042,1/5,97,128.0
8575,E-5,670.2,1/5,97,128.0
8576,F#3,670.2,0.125,89,128.0
8577,C#3,670.2,0.125,89,128.0
8578,G#2,670.2,0.125,89,128.0
8579,E-5,670.242,1/5,97,128.0
8580,C#5,670.4,2/5,97,128.0
8581,C#5,670.442,2/5,97,128.0
8582,E-1,670.5,9/20,102,128.0
8583,C2,670.5,0.5,79,128.0
8584,F#2,670.5,0.5,79,128.0
8585,F#2,670.7,1.5,102,128.0
8586,C#3,670.7,1.5,102,128.0
8587,F#3,670.7,1.5,102,128.0
8588,G#4,670.8,1/5,97,128.0
8589,G#4,670.842,1/5,97,128.0
8590,E-5,671.0,1/5,97,128.0
8591,E-1,671.0,9/20,102,128.0
8592,F#2,671.0,0.5,102,128.0
8593,C#3,671.0,0.5,102,128.0
8594,F#3,671.0,0.5,102,128.0
8595,F#2,671.0,0.5,96,128.0
8596,E2,671.0,0.5,96,128.0
8597,E-5,671.042,1/5,97,128.0
8598,C#5,671.2,2/5,97,128.0
8599,C#5,671.242,2/5,97,128.0
8600,E-2,671.5,0.5,102,128.0
8601,E-1,671.5,9/20,102,128.0
8602,C2,671.5,0.5,78,128.0
8603,F#2,671.5,0.5,78,128.0
8604,G#4,671.6,1/5,97,128.0
8605,G#4,671.642,1/5,97,128.0
8606,E-5,671.8,1/5,97,128.0
8607,E-5,671.842,79/500,97,128.0
8608,C#5,672.0,2/5,97,128.0
8609,E-5,672.0,21/500,97,128.0
8610,G#1,672.0,9/10,102,128.0
8611,G#2,672.0,983/1000,102,128.0
8612,E-3,672.0,983/1000,102,128.0
8613,G#3,672.0,983/1000,102,128.0
8614,C2,672.0,1.0,72,128.0
8615,C#3,672.0,1.0,72,128.0
8616,C#5,672.042,2/5,97,128.0
8617,F#2,672.2,0.5,102,128.0
8618,C#3,672.2,0.5,102,128.0
8619,F#3,672.2,0.5,102,128.0
8620,G#4,672.4,1/5,97,128.0
8621,G#4,672.442,1/5,97,128.0
8622,E-5,672.6,1/5,97,128.0
8623,E-5,672.642,1/5,97,128.0
8624,E-2,672.7,0.5,102,128.0
8625,C#5,672.8,2/5,97,128.0
8626,C#5,672.842,2/5,97,128.0
8627,E-1,673.0,9/20,102,128.0
8628,E2,673.0,0.5,121,128.0
8629,F#3,673.0,0.125,89,128.0
8630,C#3,673.0,0.125,89,128.0
8631,G#2,673.0,0.125,89,128.0
8632,G#4,673.2,1/5,97,128.0
8633,G#2,673.2,983/1000,102,128.0
8634,E-3,673.2,983/1000,102,128.0
8635,G#3,673.2,983/1000,102,128.0
8636,G#4,673.242,1/5,97,128.0
8637,E-5,673.4,1/5,97,128.0
8638,E-5,673.442,1/5,97,128.0
8639,G#1,673.5,9/10,102,128.0
8640,G#2,673.5,983/1000,102,128.0
8641,E-3,673.5,983/1000,102,128.0
8642,G#3,673.5,983/1000,102,128.0
8643,C2,673.5,0.5,68,128.0
8644,C#3,673.5,0.5,68,128.0
8645,C#5,673.6,2/5,97,128.0
8646,C#5,673.642,2/5,97,128.0
8647,G#4,674.0,1/5,97,128.0
8648,F#2,674.0,0.5,71,128.0
8649,G#4,674.042,1/5,97,128.0
8650,E-5,674.2,1/5,97,128.0
8651,F#3,674.2,0.125,89,128.0
8652,C#3,674.2,0.125,89,128.0
8653,G#2,674.2,0.125,89,128.0
8654,E-5,674.242,1/5,97,128.0
8655,C#5,674.4,2/5,97,128.0
8656,C#5,674.442,2/5,97,128.0
8657,G#1,674.5,9/20,102,128.0
8658,F#2,674.5,0.5,65,128.0
8659,G#2,674.5,483/1000,102,128.0
8660,E-3,674.5,483/1000,102,128.0
8661,G#3,674.5,483/1000,102,128.0
8662,G#2,674.7,983/1000,102,128.0
8663,E-3,674.7,983/1000,102,128.0
8664,G#3,674.7,983/1000,102,128.0
8665,G#4,674.8,1/5,97,128.0
8666,G#4,674.842,1/5,97,128.0
8667,E-5,675.0,1/5,97,128.0
8668,G#1,675.0,9/20,102,128.0
8669,G#2,675.0,0.5,102,128.0
8670,E-3,675.0,0.5,102,128.0
8671,G#3,675.0,0.5,102,128.0
8672,F#2,675.0,0.5,98,128.0
8673,E2,675.0,0.5,98,128.0
8674,E-5,675.042,1/5,97,128.0
8675,C#5,675.2,317/1000,97,128.0
8676,C#5,675.242,317/1000,97,128.0
8677,E-1,675.5,9/20,102,128.0
8678,F#2,675.5,0.5,68,128.0
8679,F#3,675.5,0.125,89,128.0
8680,C#3,675.5,0.125,89,128.0
8681,G#2,675.5,0.125,89,128.0
8682,G#4,675.517,483/1000,97,128.0
8683,G#4,675.558,221/500,97,128.0
8684,G#2,675.7,483/1000,102,128.0
8685,E-3,675.7,483/1000,102,128.0
8686,G#3,675.7,483/1000,102,128.0
8687,G#4,676.0,2/5,97,128.0
8688,G#4,676.0,221/500,97,128.0
8689,B1,676.0,9/20,102,128.0
8690,B2,676.0,983/1000,102,128.0
8691,F#3,676.0,983/1000,102,128.0
8692,B3,676.0,983/1000,102,128.0
8693,C2,676.0,0.5,76,128.0
8694,C#3,676.0,0.5,76,128.0
8695,G#2,676.2,0.5,102,128.0
8696,E-3,676.2,0.5,102,128.0
8697,G#3,676.2,0.5,102,128.0
8698,C#5,676.417,2083/1000,103,128.0
8699,C#5,676.458,2083/1000,103,128.0
8700,B1,676.5,9/20,102,128.0
8701,F#2,676.5,0.5,65,128.0
8702,F#3,676.7,0.125,89,128.0
8703,C#3,676.7,0.125,89,128.0
8704,G#2,676.7,0.125,89,128.0
8705,B1,677.0,9/20,102,128.0
8706,B2,677.0,983/1000,102,128.0
8707,F#3,677.0,983/1000,102,128.0
8708,B3,677.0,983/1000,102,128.0
8709,F#2,677.0,0.5,97,128.0
8710,E2,677.0,0.5,97,128.0
8711,B2,677.2,983/1000,102,128.0
8712,F#3,677.2,983/1000,102,128.0
8713,B3,677.2,983/1000,102,128.0
8714,B1,677.5,9/20,102,128.0
8715,C2,677.5,0.5,76,128.0
8716,F#2,677.5,0.5,76,128.0
8717,C#2,678.0,9/10,102,128.0
8718,C#3,678.0,983/1000,102,128.0
8719,G#3,678.0,983/1000,102,128.0
8720,C#4,678.0,983/1000,102,128.0
8721,C2,678.0,0.5,73,128.0
8722,C#3,678.0,0.5,73,128.0
8723,B2,678.2,983/1000,102,128.0
8724,F#3,678.2,983/1000,102,128.0
8725,B3,678.2,983/1000,102,128.0
8726,C#5,678.75,417/1000,97,128.0
8727,C#5,678.792,417/1000,97,128.0
8728,F#1,679.0,9/10,102,128.0
8729,F#2,679.0,1.0,102,128.0
8730,C#3,679.0,1.0,102,128.0
8731,F#3,679.0,1.0,102,128.0
8732,C2,679.0,1.0,68,128.0
8733,A3,679.0,1.0,68,128.0
8734,G#4,679.167,583/1000,97,128.0
8735,C#3,679.2,983/1000,102,128.0
8736,G#3,679.2,983/1000,102,128.0
8737,C#4,679.2,983/1000,102,128.0
8738,G#4,679.208,583/1000,97,128.0
8739,G#4,679.75,0.25,97,128.0
8740,G#4,679.792,26/125,97,128.0
8741,G#4,680.0,3.25,97,128.0
8742,G#4,680.0,823/250,97,128.0
8743,E-1,680.0,9/10,102,128.0
8744,E-2,680.0,39/40,102,128.0
8745,B-2,680.0,39/40,102,128.0
8746,E-3,680.0,39/40,102,128.0
8747,C2,680.0,1.0,70,128.0
8748,C#3,680.0,1.0,70,128.0
8749,F#2,680.2,1.0,102,128.0
8750,C#3,680.2,1.0,102,128.0
8751,F#3,680.2,1.0,102,128.0
8752,E-1,681.0,9/20,102,128.0
8753,E2,681.0,0.5,127,128.0
8754,F#3,681.0,0.125,89,128.0
8755,C#3,681.0,0.125,89,128.0
8756,G#2,681.0,0.125,89,128.0
8757,E-2,681.2,39/40,102,128.0
8758,B-2,681.2,39/40,102,128.0
8759,E-3,681.2,39/40,102,128.0
8760,E-3,681.5,9/10,83,128.0
8761,E-2,681.5,39/40,102,128.0
8762,B-2,681.5,39/40,102,128.0
8763,E-3,681.5,39/40,102,128.0
8764,C2,681.5,1.0,64,128.0
8765,C#3,681.5,1.0,64,128.0
8766,F#3,682.2,0.125,89,128.0
8767,C#3,682.2,0.125,89,128.0
8768,G#2,682.2,0.125,89,128.0
8769,E-1,682.5,9/20,102,128.0
8770,F#2,682.5,0.5,66,128.0
8771,E-2,682.5,483/1000,102,128.0
8772,B-2,682.5,483/1000,102,128.0
8773,E-3,682.5,483/1000,102,128.0
8774,E-2,682.7,39/40,102,128.0
8775,B-2,682.7,39/40,102,128.0
8776,E-3,682.7,39/40,102,128.0
8777,E-1,683.0,9/20,102,128.0
8778,E-2,683.0,483/1000,102,128.0
8779,B-2,683.0,483/1000,102,128.0
8780,E-3,683.0,483/1000,102,128.0
8781,F#2,683.0,0.5,96,128.0
8782,E2,683.0,0.5,96,128.0
8783,C#5,683.167,0.25,97,128.0
8784,C#5,683.208,0.25,97,128.0
8785,G#4,683.417,583/1000,97,128.0
8786,G#4,683.458,271/500,97,128.0
8787,F2,683.5,0.5,102,128.0
8788,F1,683.5,9/40,102,128.0
8789,F#2,683.5,0.5,66,128.0
8790,E-2,683.7,483/1000,102,128.0
8791,B-2,683.7,483/1000,102,128.0
8792,E-3,683.7,483/1000,102,128.0
8793,F1,683.75,9/40,102,128.0
8794,G#4,684.0,667/1000,97,128.0
8795,G#4,684.0,21/500,97,128.0
8796,F#1,684.0,9/10,102,128.0
8797,F#2,684.0,983/1000,102,128.0
8798,C#3,684.0,983/1000,102,128.0
8799,F#3,684.0,983/1000,102,128.0
8800,C2,684.0,1.0,74,128.0
8801,C#3,684.0,1.0,74,128.0
8802,G#4,684.042,667/1000,97,128.0
8803,E-2,684.2,483/1000,102,128.0
8804,B-2,684.2,483/1000,102,128.0
8805,E-3,684.2,483/1000,102,128.0
8806,G#4,684.667,1333/1000,97,128.0
8807,F2,684.7,0.5,102,128.0
8808,G#4,684.708,1333/1000,97,128.0
8809,F#1,685.0,9/20,102,128.0
8810,E2,685.0,0.5,123,128.0
8811,F#3,685.0,0.125,89,128.0
8812,C#3,685.0,0.125,89,128.0
8813,G#2,685.0,0.125,89,128.0
8814,F#2,685.2,983/1000,102,128.0
8815,C#3,685.2,983/1000,102,128.0
8816,F#3,685.2,983/1000,102,128.0
8817,F#2,685.5,9/10,89,128.0
8818,F#2,685.5,1.5,102,128.0
8819,C#3,685.5,1.5,102,128.0
8820,F#3,685.5,1.5,102,128.0
8821,C2,685.5,1.0,70,128.0
8822,C#3,685.5,1.0,70,128.0
8823,G#4,686.0,333/1000,85,128.0
8824,G#4,686.042,333/1000,85,128.0
8825,F#3,686.2,0.125,89,128.0
8826,C#3,686.2,0.125,89,128.0
8827,G#2,686.2,0.125,89,128.0
8828,G#4,686.333,333/1000,85,128.0
8829,G#4,686.375,333/1000,85,128.0
8830,F#2,686.5,9/20,89,128.0
8831,C2,686.5,0.5,74,128.0
8832,F#2,686.5,0.5,74,128.0
8833,F#4,686.667,333/1000,85,128.0
8834,F#2,686.7,1.5,102,128.0
8835,C#3,686.7,1.5,102,128.0
8836,F#3,686.7,1.5,102,128.0
8837,F#4,686.708,333/1000,85,128.0
8838,E-4,687.0,0.5,90,128.0
8839,F#2,687.0,9/20,89,128.0
8840,F#2,687.0,0.5,102,128.0
8841,C#3,687.0,0.5,102,128.0
8842,F#3,687.0,0.5,102,128.0
8843,F#2,687.0,0.5,98,128.0
8844,E2,687.0,0.5,98,128.0
8845,E-4,687.042,0.5,90,128.0
8846,C#4,687.5,0.5,90,128.0
8847,E-2,687.5,0.5,102,128.0
8848,E-1,687.5,9/20,102,128.0
8849,F#2,687.5,0.5,66,128.0
8850,C#4,687.542,229/500,90,128.0
8851,C#5,688.0,0.75,97,128.0
8852,C#4,688.0,21/500,90,128.0
8853,G#1,688.0,9/10,102,128.0
8854,G#2,688.0,983/1000,102,128.0
8855,E-3,688.0,983/1000,102,128.0
8856,G#3,688.0,983/1000,102,128.0
8857,C2,688.0,0.5,76,128.0
8858,F#2,688.0,0.5,76,128.0
8859,C#5,688.042,0.75,97,128.0
8860,F#2,688.2,0.5,102,128.0
8861,C#3,688.2,0.5,102,128.0
8862,F#3,688.2,0.5,102,128.0
8863,F#2,688.5,0.5,72,128.0
8864,E-2,688.7,0.5,102,128.0
8865,E-5,689.0,1.5,102,128.0
8866,E-1,689.0,9/20,102,128.0
8867,F#3,689.0,0.125,89,128.0
8868,C#3,689.0,0.125,89,128.0
8869,G#2,689.0,0.125,89,128.0
8870,F#2,689.0,0.5,93,128.0
8871,E2,689.0,0.5,93,128.0
8872,E-5,689.042,1.5,102,128.0
8873,G#2,689.2,983/1000,102,128.0
8874,E-3,689.2,983/1000,102,128.0
8875,G#3,689.2,983/1000,102,128.0
8876,C#5,689.5,1.0,97,128.0
8877,G#1,689.5,9/10,102,128.0
8878,G#2,689.5,983/1000,102,128.0
8879,E-3,689.5,983/1000,102,128.0
8880,G#3,689.5,983/1000,102,128.0
8881,C2,689.5,1.0,74,128.0
8882,C#3,689.5,1.0,74,128.0
8883,C#5,689.542,1.0,97,128.0
8884,F#3,690.2,0.125,89,128.0
8885,C#3,690.2,0.125,89,128.0
8886,G#2,690.2,0.125,89,128.0
8887,E-5,690.5,0.5,97,128.0
8888,G#1,690.5,9/20,102,128.0
8889,F#2,690.5,0.5,73,128.0
8890,G#2,690.5,483/1000,102,128.0
8891,E-3,690.5,483/1000,102,128.0
8892,G#3,690.5,483/1000,102,128.0
8893,E-5,690.542,0.5,97,128.0
8894,G#2,690.7,983/1000,102,128.0
8895,E-3,690.7,983/1000,102,128.0
8896,G#3,690.7,983/1000,102,128.0
8897,C#5,691.0,917/1000,97,128.0
8898,G#1,691.0,9/20,102,128.0
8899,E2,691.0,0.5,123,128.0
8900,G#2,691.0,0.5,102,128.0
8901,E-3,691.0,0.5,102,128.0
8902,G#3,691.0,0.5,102,128.0
8903,C#5,691.042,917/1000,97,128.0
8904,E2,691.083,917/1000,108,128.0
8905,E-1,691.5,9/20,102,128.0
8906,F#3,691.5,0.125,89,128.0
8907,C#3,691.5,0.125,89,128.0
8908,G#2,691.5,0.125,89,128.0
8909,G#2,691.7,483/1000,102,128.0
8910,E-3,691.7,483/1000,102,128.0
8911,G#3,691.7,483/1000,102,128.0
8912,C#5,691.917,83/1000,97,128.0
8913,C#5,691.958,21/500,97,128.0
8914,C#5,692.0,667/1000,97,128.0
8915,C#5,692.0,177/250,97,128.0
8916,E-3,692.0,667/1000,102,128.0
8917,E-2,692.0,3/5,102,128.0
8918,C2,692.0,667/1000,79,128.0
8919,C#3,692.0,0.5,63,128.0
8920,E2,692.0,83/1000,108,128.0
8921,G#2,692.2,0.5,102,128.0
8922,E-3,692.2,0.5,102,128.0
8923,G#3,692.2,0.5,102,128.0
8924,C#5,692.667,667/1000,97,128.0
8925,C#3,692.667,667/1000,102,128.0
8926,C#2,692.667,3/5,102,128.0
8927,C2,692.667,667/1000,60,128.0
8928,A3,692.667,667/1000,60,128.0
8929,F#3,692.7,0.125,89,128.0
8930,C#3,692.7,0.125,89,128.0
8931,G#2,692.7,0.125,89,128.0
8932,C#5,692.708,667/1000,97,128.0
8933,E-4,693.2,667/1000,102,128.0
8934,B-4,693.333,583/1000,97,128.0
8935,B-2,693.333,667/1000,102,128.0
8936,B-1,693.333,3/5,102,128.0
8937,C2,693.333,667/1000,62,128.0
8938,C#3,693.333,667/1000,62,128.0
8939,B-4,693.375,583/1000,97,128.0
8940,C#4,693.867,667/1000,102,128.0
8941,G#4,693.917,0.75,97,128.0
8942,G#4,693.958,0.75,97,128.0
8943,A2,694.0,667/1000,102,128.0
8944,A1,694.0,3/5,102,128.0
8945,C2,694.0,667/1000,61,128.0
8946,A3,694.0,667/1000,61,128.0
8947,B-3,694.533,667/1000,102,128.0
8948,G#4,694.667,667/1000,97,128.0
8949,G#2,694.667,667/1000,102,128.0
8950,G#1,694.667,3/5,102,128.0
8951,C2,694.667,667/1000,62,128.0
8952,C#3,694.667,667/1000,62,128.0
8953,G#4,694.708,667/1000,97,128.0
8954,A3,695.2,667/1000,102,128.0
8955,F#4,695.333,667/1000,97,128.0
8956,F#2,695.333,667/1000,102,128.0
8957,F#1,695.333,3/5,102,128.0
8958,C2,695.333,667/1000,61,128.0
8959,A3,695.333,667/1000,61,128.0
8960,F#4,695.375,0.625,97,128.0
8961,G#3,695.867,667/1000,102,128.0
8962,G#4,696.0,1417/1000,97,128.0
8963,F#4,696.0,21/500,97,128.0
8964,E-1,696.0,9/10,102,128.0
8965,E-2,696.0,39/40,102,128.0
8966,B-2,696.0,39/40,102,128.0
8967,E-3,696.0,39/40,102,128.0
8968,C2,696.0,1.0,70,128.0
8969,C#3,696.0,1.0,70,128.0
8970,G#4,696.042,1417/1000,97,128.0
8971,F#3,696.533,667/1000,102,128.0
8972,E-1,697.0,9/40,102,128.0
8973,E2,697.0,0.5,123,128.0
8974,F#3,697.0,0.125,89,128.0
8975,C#3,697.0,0.125,89,128.0
8976,G#2,697.0,0.125,89,128.0
8977,E-2,697.2,39/40,102,128.0
8978,B-2,697.2,39/40,102,128.0
8979,E-3,697.2,39/40,102,128.0
8980,E-1,697.25,9/40,102,128.0
8981,G#4,697.417,1.0,97,128.0
8982,G#4,697.458,1.0,97,128.0
8983,E-2,697.5,9/10,95,128.0
8984,E-2,697.5,39/40,102,128.0
8985,B-2,697.5,39/40,102,128.0
8986,E-3,697.5,39/40,102,128.0
8987,C2,697.5,1.0,75,128.0
8988,C#3,697.5,1.0,75,128.0
8989,F#3,698.2,0.125,89,128.0
8990,C#3,698.2,0.125,89,128.0
8991,G#2,698.2,0.125,89,128.0
8992,G#4,698.5,0.5,97,128.0
8993,E-1,698.5,9/20,102,128.0
8994,E-2,698.5,483/1000,102,128.0
8995,B-2,698.5,483/1000,102,128.0
8996,E-3,698.5,483/1000,102,128.0
8997,C2,698.5,0.5,76,128.0
8998,F#2,698.5,0.5,76,128.0
8999,G#4,698.542,0.5,97,128.0
9000,E-2,698.7,39/40,102,128.0
9001,B-2,698.7,39/40,102,128.0
9002,E-3,698.7,39/40,102,128.0
9003,G#4,699.0,1.0,97,128.0
9004,E-1,699.0,9/20,102,128.0
9005,E-2,699.0,483/1000,102,128.0
9006,B-2,699.0,483/1000,102,128.0
9007,E-3,699.0,483/1000,102,128.0
9008,F#2,699.0,0.5,99,128.0
9009,E2,699.0,0.5,99,128.0
9010,G#4,699.042,479/500,97,128.0
9011,F2,699.5,0.5,102,128.0
9012,F1,699.5,9/20,102,128.0
9013,F#2,699.5,0.5,65,128.0
9014,E-2,699.7,483/1000,102,128.0
9015,B-2,699.7,483/1000,102,128.0
9016,E-3,699.7,483/1000,102,128.0
9017,G#4,700.0,667/1000,97,128.0
9018,G#4,700.0,21/500,97,128.0
9019,F#1,700.0,9/10,102,128.0
9020,F#2,700.0,1483/1000,102,128.0
9021,C#3,700.0,1483/1000,102,128.0
9022,F#3,700.0,1483/1000,102,128.0
9023,C2,700.0,1.0,76,128.0
9024,C#3,700.0,1.0,76,128.0
9025,G#4,700.042,667/1000,97,128.0
9026,E-2,700.2,483/1000,102,128.0
9027,B-2,700.2,483/1000,102,128.0
9028,E-3,700.2,483/1000,102,128.0
9029,G#4,700.667,667/1000,97,128.0
9030,F2,700.7,0.5,102,128.0
9031,G#4,700.708,667/1000,97,128.0
9032,F#1,701.0,9/20,102,128.0
9033,E2,701.0,333/1000,119,128.0
9034,F#2,701.2,1483/1000,102,128.0
9035,C#3,701.2,1483/1000,102,128.0
9036,F#3,701.2,1483/1000,102,128.0
9037,G#4,701.333,583/1000,97,128.0
9038,G#4,701.375,583/1000,97,128.0
9039,F#2,701.5,9/10,89,128.0
9040,F#2,701.5,1983/1000,102,128.0
9041,C#3,701.5,1983/1000,102,128.0
9042,F#3,701.5,1983/1000,102,128.0
9043,C2,701.5,1.0,68,128.0
9044,C#3,701.5,1.0,68,128.0
9045,G#4,701.917,583/1000,97,128.0
9046,G#4,701.958,583/1000,97,128.0
9047,B-2,702.5,9/20,83,128.0
9048,C2,702.5,0.5,84,128.0
9049,F#2,702.7,1983/1000,102,128.0
9050,C#3,702.7,1983/1000,102,128.0
9051,F#3,702.7,1983/1000,102,128.0
9052,F#1,703.0,9/20,102,128.0
9053,E2,703.0,0.5,125,128.0
9054,E2,703.083,0.5,110,128.0
9055,E-1,703.5,9/20,102,128.0
9056,C2,703.5,0.5,89,128.0
9057,C#3,703.5,0.125,97,128.0
9058,G#2,703.5,0.125,97,128.0
9059,F#2,703.5,0.5,102,128.0
9060,C#3,703.5,0.5,102,128.0
9061,F#3,703.5,0.5,102,128.0
9062,C#3,703.542,0.125,97,128.0
9063,G#2,703.542,0.125,97,128.0
9064,E-4,704.0,4.0,102,128.0
9065,G#1,704.0,18/5,102,128.0
9066,G#2,704.0,4.0,102,128.0
9067,E-3,704.0,4.0,102,128.0
9068,G#3,704.0,4.0,102,128.0
9069,C2,704.0,1.0,76,128.0
9070,C#3,704.0,1.0,76,128.0
9071,E-4,704.042,1979/500,102,128.0
9072,F#2,704.7,0.5,102,128.0
9073,C#3,704.7,0.5,102,128.0
9074,F#3,704.7,0.5,102,128.0
9075,F#2,705.0,1.0,72,128.0
9076,G#2,705.2,4.0,102,128.0
9077,E-3,705.2,4.0,102,128.0
9078,G#3,705.2,4.0,102,128.0
9079,F#2,706.0,1.0,73,128.0
9080,F#2,707.0,1.0,79,128.0
9081,E-4,708.0,3.75,102,128.0
9082,E-4,708.0,474/125,102,128.0
9083,B1,708.0,9/5,102,128.0
9084,B2,708.0,1983/1000,102,128.0
9085,F#3,708.0,1983/1000,102,128.0
9086,B3,708.0,1983/1000,102,128.0
9087,C2,708.0,1.0,79,128.0
9088,C#3,708.0,1.0,79,128.0
9089,F#2,709.0,1.0,79,128.0
9090,B2,709.2,1983/1000,102,128.0
9091,F#3,709.2,1983/1000,102,128.0
9092,B3,709.2,1983/1000,102,128.0
9093,C#2,710.0,9/5,102,128.0
9094,C#3,710.0,2.0,102,128.0
9095,G#3,710.0,2.0,102,128.0
9096,C#4,710.0,2.0,102,128.0
9097,C2,710.0,1.0,77,128.0
9098,C#3,710.0,1.0,77,128.0
9099,F#2,711.0,1.0,73,128.0
9100,C#3,711.2,2.0,102,128.0
9101,G#3,711.2,2.0,102,128.0
9102,C#4,711.2,2.0,102,128.0
9103,F#3,711.75,0.25,102,128.0
9104,F#3,711.792,26/125,102,128.0
9105,F#3,712.0,4.0,102,128.0
9106,F#3,712.0,4.0,102,128.0
9107,E-1,712.0,4.0,102,128.0
9108,E-3,712.0,4.0,102,128.0
9109,B-3,712.0,4.0,102,128.0
9110,E-4,712.0,4.0,102,128.0
9111,C2,712.0,4.0,78,128.0
9112,C#3,712.0,4.0,78,128.0
9113,E-3,713.2,4.0,102,128.0
9114,B-3,713.2,4.0,102,128.0
9115,E-4,713.2,4.0,102,128.0
9116,F#3,716.0,1.75,102,128.0
9117,F#3,716.0,224/125,102,128.0
9118,E-1,716.0,4.0,102,128.0
9119,G#2,717.75,2.25,92,128.0
9120,G#2,717.792,276/125,92,128.0
9121,B-2,719.0,0.25,40,128.0
9122,B-2,719.25,0.25,40,128.0
9123,B-2,719.5,0.25,40,128.0
9124,B-2,719.75,0.25,40,128.0
9125,F#2,720.0,2.25,85,128.0
9126,G#2,720.0,21/500,92,128.0
9127,E-1,720.0,4.0,102,128.0
9128,B-2,720.0,0.25,40,128.0
9129,F#2,720.042,2.25,85,128.0
9130,B-2,720.25,0.25,40,128.0
9131,B-2,720.5,0.25,40,128.0
9132,B-2,720.75,0.25,40,128.0
9133,B-2,721.0,0.25,40,128.0
9134,B-2,721.25,0.25,40,128.0
9135,B-2,721.5,0.25,40,128.0
9136,B-2,721.75,0.25,40,128.0
9137,B-2,722.0,0.25,70,128.0
9138,E-2,722.25,1.75,95,128.0
9139,B-2,722.25,0.25,40,128.0
9140,E-2,722.292,427/250,95,128.0
9141,B-2,722.5,0.25,40,128.0
9142,B-2,722.75,0.25,40,128.0
9143,B-2,723.0,0.25,40,128.0
9144,B-2,723.25,0.25,40,128.0
9145,B-2,723.5,0.25,40,128.0
9146,B-2,723.75,0.25,40,128.0
9147,E-2,724.0,4.0,95,128.0
9148,E-2,724.0,4.0,95,128.0
9149,B-2,724.0,1.5,40,128.0
9150,B3,725.5,0.125,25,128.0
9151,B3,725.667,167/1000,25,128.0
9152,B3,725.917,167/1000,25,128.0
9153,B3,726.083,167/1000,25,128.0
9154,B3,726.25,333/1000,25,128.0
9155,B3,726.667,167/1000,35,128.0
9156,B3,727.0,167/1000,35,128.0
9157,B3,727.25,333/1000,30,128.0
9158,B3,727.5,167/1000,35,128.0
9159,B3,727.75,0.25,40,128.0
9160,E-2,728.0,4.0,95,128.0
9161,E-2,728.0,4.0,95,128.0
9162,B3,728.0,333/1000,40,128.0
9163,B3,728.0,83/1000,40,128.0
9164,E-3,728.0,4.0,102,128.0
9165,B-3,728.0,4.0,102,128.0
9166,E-4,728.0,4.0,102,128.0
9167,B3,728.333,417/1000,40,128.0
9168,B3,728.75,0.25,40,128.0
9169,B3,729.0,0.5,50,128.0
9170,E-3,729.2,4.0,102,128.0
9171,B-3,729.2,4.0,102,128.0
9172,E-4,729.2,4.0,102,128.0
9173,B3,729.5,0.5,50,128.0
9174,B3,730.0,0.5,50,128.0
9175,B3,730.5,167/1000,35,128.0
9176,B3,730.667,167/1000,35,128.0
9177,B3,730.833,333/1000,40,128.0
9178,B3,731.167,333/1000,30,128.0
9179,B3,731.5,0.5,30,128.0
9180,E-2,732.0,4.0,95,128.0
9181,E-2,732.0,4.0,95,128.0
9182,B3,732.0,0.5,40,128.0
9183,B3,732.5,0.5,50,128.0
9184,B3,733.25,2.5,50,128.0
9185,E-3,735.0,1.0,45,128.0
9186,B-3,735.5,0.5,45,128.0
9187,B-5,735.75,0.125,15,128.0
9188,B-5,735.875,0.125,20,128.0
9189,E-2,736.0,4.0,95,128.0
9190,E-2,736.0,4.0,95,128.0
9191,E-4,736.0,1.0,35,128.0
9192,B-3,736.0,0.5,45,128.0
9193,B-5,736.0,0.125,25,128.0
9194,B-5,736.125,0.125,25,128.0
9195,B-5,736.25,0.125,40,128.0
9196,B-5,736.375,0.125,25,128.0
9197,F#4,736.5,1.0,35,128.0
9198,B-5,736.5,0.125,25,128.0
9199,B-5,736.625,0.5,10,128.0
9200,B3,736.75,2667/1000,40,128.0
9201,E-2,740.0,21/500,95,128.0
9202,E-3,740.0,4.0,102,128.0
9203,B-3,740.0,4.0,102,128.0
9204,E-4,740.0,4.0,102,128.0
9205,E-3,741.2,4.0,102,128.0
9206,B-3,741.2,4.0,102,128.0
9207,E-4,741.2,4.0,102,128.0
9208,E-3,748.0,4.0,102,128.0
9209,B-3,748.0,4.0,102,128.0
9210,E-4,748.0,4.0,102,128.0
9211,E-3,749.2,4.0,102,128.0
9212,B-3,749.2,4.0,102,128.0
9213,E-4,749.2,4.0,102,128.0
