,note_name,start_time,duration,velocity,tempo
0,E5,1.0,0.5,80,126.0
1,E4,1.0,0.5,80,126.0
2,E5,1.0,0.5,80,126.0
3,E4,1.0,0.5,80,126.0
4,E4,1.0,0.5,80,126.0
5,E5,1.0,0.5,80,126.0
6,F5,1.5,0.5,80,126.0
7,F4,1.5,0.5,80,126.0
8,F5,1.5,0.5,80,126.0
9,F4,1.5,0.5,80,126.0
10,F4,1.5,0.5,80,126.0
11,F5,1.5,0.5,80,126.0
12,G5,2.0,0.5,80,126.0
13,G4,2.0,0.5,80,126.0
14,G5,2.0,0.5,80,126.0
15,G4,2.0,0.5,80,126.0
16,G4,2.0,0.5,80,126.0
17,G5,2.0,0.5,80,126.0
18,C6,2.5,0.5,80,126.0
19,C5,2.5,0.5,80,126.0
20,C6,2.5,0.5,80,126.0
21,C5,2.5,0.5,80,126.0
22,C5,2.5,0.5,80,126.0
23,C6,2.5,0.5,80,126.0
24,B5,3.5,0.5,80,126.0
25,B4,3.5,0.5,80,126.0
26,B5,3.5,0.5,80,126.0
27,B4,3.5,0.5,80,126.0
28,B4,3.5,0.5,80,126.0
29,B5,3.5,0.5,80,126.0
30,G5,4.5,0.5,80,126.0
31,G4,4.5,0.5,80,126.0
32,G5,4.5,0.5,80,126.0
33,G4,4.5,0.5,80,126.0
34,G4,4.5,0.5,80,126.0
35,G5,4.5,0.5,80,126.0
36,G5,5.5,1.0,80,126.0
37,G4,5.5,1.0,80,126.0
38,G5,5.5,1.0,80,126.0
39,G4,5.5,1.0,80,126.0
40,G4,5.5,1.0,80,126.0
41,G5,5.5,1.0,80,126.0
42,A5,6.5,0.25,80,126.0
43,A4,6.5,0.25,80,126.0
44,A5,6.5,0.25,80,126.0
45,A4,6.5,0.25,80,126.0
46,A4,6.5,0.25,80,126.0
47,A5,6.5,0.25,80,126.0
48,G5,6.75,0.25,80,126.0
49,G4,6.75,0.25,80,126.0
50,G5,6.75,0.25,80,126.0
51,G4,6.75,0.25,80,126.0
52,G4,6.75,0.25,80,126.0
53,G5,6.75,0.25,80,126.0
54,F5,7.0,1.0,80,126.0
55,F4,7.0,1.0,80,126.0
56,F5,7.0,1.0,80,126.0
57,F4,7.0,1.0,80,126.0
58,F4,7.0,1.0,80,126.0
59,F5,7.0,1.0,80,126.0
60,E5,9.0,0.5,80,126.0
61,E4,9.0,0.5,80,126.0
62,E5,9.0,0.5,80,126.0
63,E4,9.0,0.5,80,126.0
64,E4,9.0,0.5,80,126.0
65,E5,9.0,0.5,80,126.0
66,F5,9.5,0.5,80,126.0
67,F4,9.5,0.5,80,126.0
68,F5,9.5,0.5,80,126.0
69,F4,9.5,0.5,80,126.0
70,F4,9.5,0.5,80,126.0
71,F5,9.5,0.5,80,126.0
72,G5,10.0,0.5,80,126.0
73,G4,10.0,0.5,80,126.0
74,G5,10.0,0.5,80,126.0
75,G4,10.0,0.5,80,126.0
76,G4,10.0,0.5,80,126.0
77,G5,10.0,0.5,80,126.0
78,C6,10.5,0.5,80,126.0
79,C5,10.5,0.5,80,126.0
80,C6,10.5,0.5,80,126.0
81,C5,10.5,0.5,80,126.0
82,C5,10.5,0.5,80,126.0
83,C6,10.5,0.5,80,126.0
84,B5,11.5,0.5,80,126.0
85,B4,11.5,0.5,80,126.0
86,B5,11.5,0.5,80,126.0
87,B4,11.5,0.5,80,126.0
88,B4,11.5,0.5,80,126.0
89,B5,11.5,0.5,80,126.0
90,G5,12.5,0.5,80,126.0
91,G4,12.5,0.5,80,126.0
92,G5,12.5,0.5,80,126.0
93,G4,12.5,0.5,80,126.0
94,G4,12.5,0.5,80,126.0
95,G5,12.5,0.5,80,126.0
96,E5,13.5,0.5,80,126.0
97,E4,13.5,0.5,80,126.0
98,E5,13.5,0.5,80,126.0
99,E4,13.5,0.5,80,126.0
100,E4,13.5,0.5,80,126.0
101,E5,13.5,0.5,80,126.0
102,D5,14.0,1.0,80,126.0
103,D4,14.0,1.0,80,126.0
104,D5,14.0,1.0,80,126.0
105,D4,14.0,1.0,80,126.0
106,D4,14.0,1.0,80,126.0
107,D5,14.0,1.0,80,126.0
108,E5,17.0,0.5,80,126.0
109,E4,17.0,0.5,80,126.0
110,E5,17.0,0.5,80,126.0
111,E4,17.0,0.5,80,126.0
112,E4,17.0,0.5,80,126.0
113,E5,17.0,0.5,80,126.0
114,F5,17.5,0.5,80,126.0
115,F4,17.5,0.5,80,126.0
116,F5,17.5,0.5,80,126.0
117,F4,17.5,0.5,80,126.0
118,F4,17.5,0.5,80,126.0
119,F5,17.5,0.5,80,126.0
120,G5,18.0,0.5,80,126.0
121,G4,18.0,0.5,80,126.0
122,G5,18.0,0.5,80,126.0
123,G4,18.0,0.5,80,126.0
124,G4,18.0,0.5,80,126.0
125,G5,18.0,0.5,80,126.0
126,C6,18.5,0.5,80,126.0
127,C5,18.5,0.5,80,126.0
128,C6,18.5,0.5,80,126.0
129,C5,18.5,0.5,80,126.0
130,C5,18.5,0.5,80,126.0
131,C6,18.5,0.5,80,126.0
132,B5,19.5,0.5,80,126.0
133,B4,19.5,0.5,80,126.0
134,B5,19.5,0.5,80,126.0
135,B4,19.5,0.5,80,126.0
136,B4,19.5,0.5,80,126.0
137,B5,19.5,0.5,80,126.0
138,G5,20.5,0.5,80,126.0
139,G4,20.5,0.5,80,126.0
140,G5,20.5,0.5,80,126.0
141,G4,20.5,0.5,80,126.0
142,G4,20.5,0.5,80,126.0
143,G5,20.5,0.5,80,126.0
144,G5,21.5,1.0,80,126.0
145,G4,21.5,1.0,80,126.0
146,G5,21.5,1.0,80,126.0
147,G4,21.5,1.0,80,126.0
148,G4,21.5,1.0,80,126.0
149,G5,21.5,1.0,80,126.0
150,A5,22.5,0.25,80,126.0
151,A4,22.5,0.25,80,126.0
152,A5,22.5,0.25,80,126.0
153,A4,22.5,0.25,80,126.0
154,A4,22.5,0.25,80,126.0
155,A5,22.5,0.25,80,126.0
156,G5,22.75,0.25,80,126.0
157,G4,22.75,0.25,80,126.0
158,G5,22.75,0.25,80,126.0
159,G4,22.75,0.25,80,126.0
160,G4,22.75,0.25,80,126.0
161,G5,22.75,0.25,80,126.0
162,F5,23.0,1.0,80,126.0
163,F4,23.0,1.0,80,126.0
164,F5,23.0,1.0,80,126.0
165,F4,23.0,1.0,80,126.0
166,F4,23.0,1.0,80,126.0
167,F5,23.0,1.0,80,126.0
168,E5,25.0,0.5,80,126.0
169,E4,25.0,0.5,80,126.0
170,E5,25.0,0.5,80,126.0
171,E4,25.0,0.5,80,126.0
172,E4,25.0,0.5,80,126.0
173,E5,25.0,0.5,80,126.0
174,D5,25.5,0.5,80,126.0
175,D4,25.5,0.5,80,126.0
176,D5,25.5,0.5,80,126.0
177,D4,25.5,0.5,80,126.0
178,D4,25.5,0.5,80,126.0
179,D5,25.5,0.5,80,126.0
180,E5,26.0,1.0,80,126.0
181,E4,26.0,1.0,80,126.0
182,E5,26.0,1.0,80,126.0
183,E4,26.0,1.0,80,126.0
184,E4,26.0,1.0,80,126.0
185,E5,26.0,1.0,80,126.0
186,D5,27.0,0.5,80,126.0
187,D4,27.0,0.5,80,126.0
188,D5,27.0,0.5,80,126.0
189,D4,27.0,0.5,80,126.0
190,D4,27.0,0.5,80,126.0
191,D5,27.0,0.5,80,126.0
192,C5,27.5,0.5,80,126.0
193,C4,27.5,0.5,80,126.0
194,C5,27.5,0.5,80,126.0
195,C4,27.5,0.5,80,126.0
196,C4,27.5,0.5,80,126.0
197,C5,27.5,0.5,80,126.0
198,C5,28.0,3.0,80,126.0
199,C4,28.0,3.0,80,126.0
200,C5,28.0,3.0,80,126.0
201,C4,28.0,3.0,80,126.0
202,C4,28.0,3.0,80,126.0
203,C5,28.0,3.0,80,126.0
204,B1,28.0,0.5,80,126.0
205,B1,28.5,1.0,80,126.0
206,B1,29.5,0.5,80,126.0
207,B1,30.0,1.0,80,126.0
208,D2,31.0,0.5,80,126.0
209,D2,31.0,0.5,80,126.0
210,A2,32.0,0.5,80,126.0
211,A2,32.0,0.5,80,126.0
212,A3,32.0,0.5,80,126.0
213,A2,32.0,0.5,80,126.0
214,A3,32.0,0.5,80,126.0
215,A1,32.0,0.5,80,126.0
216,B1,32.0,0.5,80,126.0
217,F#2,32.0,0.5,80,126.0
218,G2,32.5,0.5,80,126.0
219,G2,32.5,0.5,80,126.0
220,G3,32.5,0.5,80,126.0
221,G2,32.5,0.5,80,126.0
222,G3,32.5,0.5,80,126.0
223,G1,32.5,0.5,80,126.0
224,B1,32.5,0.5,80,126.0
225,F#2,32.5,0.5,80,126.0
226,A2,33.0,0.5,80,126.0
227,A2,33.0,0.5,80,126.0
228,A3,33.0,0.5,80,126.0
229,A2,33.0,0.5,80,126.0
230,A3,33.0,0.5,80,126.0
231,A1,33.0,0.5,80,126.0
232,D2,33.0,1.0,80,126.0
233,F#2,33.0,0.5,80,126.0
234,C3,33.5,1.5,80,126.0
235,C3,33.5,1.5,80,126.0
236,C4,33.5,1.5,80,126.0
237,C3,33.5,1.5,80,126.0
238,C4,33.5,1.5,80,126.0
239,C2,33.5,1.5,80,126.0
240,B1,33.5,0.5,80,126.0
241,F#2,33.5,0.5,80,126.0
242,C6,34.0,1.0,80,126.0
243,C5,34.0,1.0,80,126.0
244,G5,34.0,1.0,80,126.0
245,G4,34.0,1.0,80,126.0
246,E4,34.0,1.0,80,126.0
247,E5,34.0,1.0,80,126.0
248,F#2,34.0,0.5,80,126.0
249,B1,34.5,0.5,80,126.0
250,F#2,34.5,0.5,80,126.0
251,A2,35.0,0.5,80,126.0
252,A2,35.0,0.5,80,126.0
253,A3,35.0,0.5,80,126.0
254,A2,35.0,0.5,80,126.0
255,A3,35.0,0.5,80,126.0
256,A1,35.0,0.5,80,126.0
257,D2,35.0,1.0,80,126.0
258,F#2,35.0,0.5,80,126.0
259,G2,35.5,0.5,80,126.0
260,G2,35.5,0.5,80,126.0
261,G3,35.5,0.5,80,126.0
262,G2,35.5,0.5,80,126.0
263,G3,35.5,0.5,80,126.0
264,G1,35.5,0.5,80,126.0
265,B1,35.5,0.5,80,126.0
266,F#2,35.5,0.5,80,126.0
267,A2,36.0,0.5,80,126.0
268,A2,36.0,0.5,80,126.0
269,A3,36.0,0.5,80,126.0
270,A2,36.0,0.5,80,126.0
271,A3,36.0,0.5,80,126.0
272,A1,36.0,0.5,80,126.0
273,B1,36.0,1.0,80,126.0
274,F#2,36.0,0.5,80,126.0
275,D3,36.5,1.0,80,126.0
276,D3,36.5,1.0,80,126.0
277,D4,36.5,1.0,80,126.0
278,D3,36.5,1.0,80,126.0
279,D4,36.5,1.0,80,126.0
280,D2,36.5,1.0,80,126.0
281,F#2,36.5,0.5,80,126.0
282,D6,37.0,1.0,80,126.0
283,D5,37.0,1.0,80,126.0
284,A5,37.0,1.0,80,126.0
285,A4,37.0,1.0,80,126.0
286,F#4,37.0,1.0,80,126.0
287,F#5,37.0,1.0,80,126.0
288,D2,37.0,1.0,80,126.0
289,F#2,37.0,0.5,80,126.0
290,F#2,37.5,0.5,80,126.0
291,E3,38.0,0.5,80,126.0
292,E3,38.0,0.5,80,126.0
293,E4,38.0,0.5,80,126.0
294,E3,38.0,0.5,80,126.0
295,E4,38.0,0.5,80,126.0
296,E2,38.0,0.5,80,126.0
297,B1,38.0,1.0,80,126.0
298,F#2,38.0,0.5,80,126.0
299,G3,38.5,0.5,80,126.0
300,G3,38.5,0.5,80,126.0
301,G4,38.5,0.5,80,126.0
302,G3,38.5,0.5,80,126.0
303,G4,38.5,0.5,80,126.0
304,G2,38.5,0.5,80,126.0
305,B1,38.5,1.0,80,126.0
306,F#2,38.5,0.5,80,126.0
307,E3,39.0,0.25,80,126.0
308,E3,39.0,0.25,80,126.0
309,E4,39.0,0.25,80,126.0
310,E3,39.0,0.25,80,126.0
311,E4,39.0,0.25,80,126.0
312,E2,39.0,0.25,80,126.0
313,D2,39.0,0.25,80,126.0
314,D3,39.25,0.25,80,126.0
315,D3,39.25,0.25,80,126.0
316,D4,39.25,0.25,80,126.0
317,D3,39.25,0.25,80,126.0
318,D4,39.25,0.25,80,126.0
319,D2,39.25,0.25,80,126.0
320,F#2,39.25,0.25,80,126.0
321,C3,39.5,0.5,80,126.0
322,C3,39.5,0.5,80,126.0
323,C4,39.5,0.5,80,126.0
324,C3,39.5,0.5,80,126.0
325,C4,39.5,0.5,80,126.0
326,C2,39.5,0.5,80,126.0
327,D2,39.5,0.25,80,126.0
328,D2,39.75,0.25,80,126.0
329,D3,40.0,0.5,80,126.0
330,D3,40.0,0.5,80,126.0
331,D4,40.0,0.5,80,126.0
332,D3,40.0,0.5,80,126.0
333,D4,40.0,0.5,80,126.0
334,D2,40.0,0.5,80,126.0
335,B-2,40.0,0.5,80,126.0
336,D2,40.0,0.5,80,126.0
337,G2,40.5,1.5,80,126.0
338,G2,40.5,1.5,80,126.0
339,G3,40.5,1.5,80,126.0
340,G2,40.5,1.5,80,126.0
341,G3,40.5,1.5,80,126.0
342,G1,40.5,1.5,80,126.0
343,B1,40.5,0.5,80,126.0
344,G5,41.0,1.0,80,126.0
345,G5,41.0,1.0,80,126.0
346,D5,41.0,1.0,80,126.0
347,D4,41.0,1.0,80,126.0
348,B3,41.0,1.0,80,126.0
349,B4,41.0,1.0,80,126.0
350,A3,41.0,1.0,80,126.0
351,B1,41.0,1.0,80,126.0
352,D3,42.0,0.5,80,126.0
353,D3,42.0,0.5,80,126.0
354,D4,42.0,0.5,80,126.0
355,D3,42.0,0.5,80,126.0
356,D4,42.0,0.5,80,126.0
357,D2,42.0,0.5,80,126.0
358,B-2,42.0,0.5,80,126.0
359,D2,42.0,0.5,80,126.0
360,F#2,42.5,1.5,80,126.0
361,F#2,42.5,1.5,80,126.0
362,F#3,42.5,1.5,80,126.0
363,F#2,42.5,1.5,80,126.0
364,F#3,42.5,1.5,80,126.0
365,F#1,42.5,1.5,80,126.0
366,B1,42.5,0.5,80,126.0
367,F#5,43.0,1.0,80,126.0
368,F#5,43.0,1.0,80,126.0
369,D5,43.0,1.0,80,126.0
370,D4,43.0,1.0,80,126.0
371,A3,43.0,1.0,80,126.0
372,A4,43.0,1.0,80,126.0
373,A3,43.0,1.0,80,126.0
374,B1,43.0,1.0,80,126.0
375,A2,44.0,0.5,80,126.0
376,A2,44.0,0.5,80,126.0
377,A3,44.0,0.5,80,126.0
378,A2,44.0,0.5,80,126.0
379,A3,44.0,0.5,80,126.0
380,A1,44.0,0.5,80,126.0
381,B1,44.0,0.5,80,126.0
382,F#2,44.0,0.5,80,126.0
383,G2,44.5,0.5,80,126.0
384,G2,44.5,0.5,80,126.0
385,G3,44.5,0.5,80,126.0
386,G2,44.5,0.5,80,126.0
387,G3,44.5,0.5,80,126.0
388,G1,44.5,0.5,80,126.0
389,B1,44.5,0.5,80,126.0
390,F#2,44.5,0.5,80,126.0
391,A2,45.0,0.5,80,126.0
392,A2,45.0,0.5,80,126.0
393,A3,45.0,0.5,80,126.0
394,A2,45.0,0.5,80,126.0
395,A3,45.0,0.5,80,126.0
396,A1,45.0,0.5,80,126.0
397,D2,45.0,1.0,80,126.0
398,F#2,45.0,0.5,80,126.0
399,C3,45.5,1.5,80,126.0
400,C3,45.5,1.5,80,126.0
401,C4,45.5,1.5,80,126.0
402,C3,45.5,1.5,80,126.0
403,C4,45.5,1.5,80,126.0
404,C2,45.5,1.5,80,126.0
405,B1,45.5,0.5,80,126.0
406,F#2,45.5,0.5,80,126.0
407,C6,46.0,1.0,80,126.0
408,C5,46.0,1.0,80,126.0
409,G5,46.0,1.0,80,126.0
410,G4,46.0,1.0,80,126.0
411,E4,46.0,1.0,80,126.0
412,E5,46.0,1.0,80,126.0
413,F#2,46.0,0.5,80,126.0
414,B1,46.5,0.5,80,126.0
415,F#2,46.5,0.5,80,126.0
416,A2,47.0,0.5,80,126.0
417,A2,47.0,0.5,80,126.0
418,A3,47.0,0.5,80,126.0
419,A2,47.0,0.5,80,126.0
420,A3,47.0,0.5,80,126.0
421,A1,47.0,0.5,80,126.0
422,D2,47.0,1.0,80,126.0
423,F#2,47.0,0.5,80,126.0
424,G2,47.5,0.5,80,126.0
425,G2,47.5,0.5,80,126.0
426,G3,47.5,0.5,80,126.0
427,G2,47.5,0.5,80,126.0
428,G3,47.5,0.5,80,126.0
429,G1,47.5,0.5,80,126.0
430,B1,47.5,0.5,80,126.0
431,F#2,47.5,0.5,80,126.0
432,A2,48.0,0.5,80,126.0
433,A2,48.0,0.5,80,126.0
434,A3,48.0,0.5,80,126.0
435,A2,48.0,0.5,80,126.0
436,A3,48.0,0.5,80,126.0
437,A1,48.0,0.5,80,126.0
438,B1,48.0,1.0,80,126.0
439,F#2,48.0,0.5,80,126.0
440,D3,48.5,1.0,80,126.0
441,D3,48.5,1.0,80,126.0
442,D4,48.5,1.0,80,126.0
443,D3,48.5,1.0,80,126.0
444,D4,48.5,1.0,80,126.0
445,D2,48.5,1.0,80,126.0
446,F#2,48.5,0.5,80,126.0
447,D6,49.0,1.0,80,126.0
448,D5,49.0,1.0,80,126.0
449,A5,49.0,1.0,80,126.0
450,A4,49.0,1.0,80,126.0
451,F#4,49.0,1.0,80,126.0
452,F#5,49.0,1.0,80,126.0
453,D2,49.0,1.0,80,126.0
454,F#2,49.0,0.5,80,126.0
455,F#2,49.5,0.5,80,126.0
456,E3,50.0,0.5,80,126.0
457,E3,50.0,0.5,80,126.0
458,E4,50.0,0.5,80,126.0
459,E3,50.0,0.5,80,126.0
460,E4,50.0,0.5,80,126.0
461,E2,50.0,0.5,80,126.0
462,B1,50.0,1.0,80,126.0
463,F#2,50.0,0.5,80,126.0
464,G3,50.5,0.5,80,126.0
465,G3,50.5,0.5,80,126.0
466,G4,50.5,0.5,80,126.0
467,G3,50.5,0.5,80,126.0
468,G4,50.5,0.5,80,126.0
469,G2,50.5,0.5,80,126.0
470,B1,50.5,1.0,80,126.0
471,F#2,50.5,0.5,80,126.0
472,E3,51.0,0.25,80,126.0
473,E3,51.0,0.25,80,126.0
474,E4,51.0,0.25,80,126.0
475,E3,51.0,0.25,80,126.0
476,E4,51.0,0.25,80,126.0
477,E2,51.0,0.25,80,126.0
478,D2,51.0,0.25,80,126.0
479,D3,51.25,0.25,80,126.0
480,D3,51.25,0.25,80,126.0
481,D4,51.25,0.25,80,126.0
482,D3,51.25,0.25,80,126.0
483,D4,51.25,0.25,80,126.0
484,D2,51.25,0.25,80,126.0
485,F#2,51.25,0.25,80,126.0
486,C3,51.5,0.5,80,126.0
487,C3,51.5,0.5,80,126.0
488,C4,51.5,0.5,80,126.0
489,C3,51.5,0.5,80,126.0
490,C4,51.5,0.5,80,126.0
491,C2,51.5,0.5,80,126.0
492,D2,51.5,0.25,80,126.0
493,D2,51.75,0.25,80,126.0
494,D3,52.0,0.5,80,126.0
495,D3,52.0,0.5,80,126.0
496,D4,52.0,0.5,80,126.0
497,D3,52.0,0.5,80,126.0
498,D4,52.0,0.5,80,126.0
499,D2,52.0,0.5,80,126.0
500,B-2,52.0,0.5,80,126.0
501,D2,52.0,0.5,80,126.0
502,G2,52.5,1.5,80,126.0
503,G2,52.5,1.5,80,126.0
504,G3,52.5,1.5,80,126.0
505,G2,52.5,1.5,80,126.0
506,G3,52.5,1.5,80,126.0
507,G1,52.5,1.5,80,126.0
508,B1,52.5,0.5,80,126.0
509,G5,53.0,1.0,80,126.0
510,G5,53.0,1.0,80,126.0
511,D5,53.0,1.0,80,126.0
512,D4,53.0,1.0,80,126.0
513,B3,53.0,1.0,80,126.0
514,B4,53.0,1.0,80,126.0
515,A3,53.0,1.0,80,126.0
516,B1,53.0,1.0,80,126.0
517,D3,54.0,0.5,80,126.0
518,D3,54.0,0.5,80,126.0
519,D4,54.0,0.5,80,126.0
520,D3,54.0,0.5,80,126.0
521,D4,54.0,0.5,80,126.0
522,D2,54.0,0.5,80,126.0
523,B-2,54.0,0.5,80,126.0
524,D2,54.0,0.5,80,126.0
525,F#2,54.5,1.5,80,126.0
526,F#2,54.5,1.5,80,126.0
527,F#3,54.5,1.5,80,126.0
528,F#2,54.5,1.5,80,126.0
529,F#3,54.5,1.5,80,126.0
530,F#1,54.5,1.5,80,126.0
531,B1,54.5,0.5,80,126.0
532,F#5,55.0,1.0,80,126.0
533,F#5,55.0,1.0,80,126.0
534,D5,55.0,1.0,80,126.0
535,D4,55.0,1.0,80,126.0
536,A3,55.0,1.0,80,126.0
537,A4,55.0,1.0,80,126.0
538,A3,55.0,1.0,80,126.0
539,B1,55.0,1.0,80,126.0
540,E5,56.0,0.5,80,126.0
541,C5,56.0,0.5,80,126.0
542,C5,56.0,0.5,80,126.0
543,E3,56.0,1.625,80,126.0
544,C3,56.0,2.0,80,126.0
545,A3,56.0,1.5,80,126.0
546,A2,56.0,1.5,80,126.0
547,B1,56.0,0.5,80,126.0
548,F#2,56.0,0.5,80,126.0
549,A4,56.5,0.5,80,126.0
550,B4,56.5,0.5,80,126.0
551,B1,56.5,0.5,80,126.0
552,F#2,56.5,0.5,80,126.0
553,E5,57.0,0.5,80,126.0
554,A4,57.0,0.5,80,126.0
555,A4,57.0,0.5,80,126.0
556,C5,57.0,0.5,80,126.0
557,E4,57.0,0.5,80,126.0
558,A4,57.0,0.5,80,126.0
559,A4,57.0,0.5,80,126.0
560,A3,57.0,0.5,80,126.0
561,D2,57.0,0.5,80,126.0
562,F#2,57.0,0.5,80,126.0
563,C5,57.5,0.5,80,126.0
564,C5,57.5,0.5,80,126.0
565,A4,57.5,0.5,80,126.0
566,A4,57.5,0.5,80,126.0
567,C5,57.5,0.5,80,126.0
568,C5,57.5,0.5,80,126.0
569,C4,57.5,0.5,80,126.0
570,A3,57.5,0.5,80,126.0
571,A2,57.5,0.5,80,126.0
572,B1,57.5,0.5,80,126.0
573,F#2,57.5,0.5,80,126.0
574,D5,58.0,0.5,80,126.0
575,D5,58.0,0.5,80,126.0
576,D5,58.0,0.5,80,126.0
577,B4,58.0,0.5,80,126.0
578,B4,58.0,0.5,80,126.0
579,D5,58.0,0.5,80,126.0
580,D3,58.0,1383/1000,60,126.0
581,B2,58.0,1.5,80,126.0
582,D5,58.0,0.5,80,126.0
583,D4,58.0,0.5,80,126.0
584,G3,58.0,1.5,80,126.0
585,G2,58.0,1.5,80,126.0
586,F#2,58.0,0.5,80,126.0
587,C5,58.5,0.5,80,126.0
588,C5,58.5,0.5,80,126.0
589,G4,58.5,0.5,80,126.0
590,G4,58.5,0.5,80,126.0
591,C5,58.5,0.5,80,126.0
592,C5,58.5,0.5,80,126.0
593,C4,58.5,0.5,80,126.0
594,B1,58.5,0.5,80,126.0
595,F#2,58.5,0.5,80,126.0
596,D5,59.0,0.5,80,126.0
597,B4,59.0,0.5,80,126.0
598,B4,59.0,0.5,80,126.0
599,D4,59.0,0.5,80,126.0
600,D4,59.0,0.5,80,126.0
601,B4,59.0,0.5,80,126.0
602,B4,59.0,0.5,80,126.0
603,B3,59.0,0.5,80,126.0
604,D2,59.0,0.5,80,126.0
605,F#2,59.0,0.5,80,126.0
606,A4,59.5,0.5,80,126.0
607,A4,59.5,0.5,80,126.0
608,B4,59.5,0.5,80,126.0
609,B4,59.5,0.5,80,126.0
610,A4,59.5,0.5,80,126.0
611,A4,59.5,0.5,80,126.0
612,A3,59.5,0.5,80,126.0
613,G3,59.5,0.5,80,126.0
614,G2,59.5,0.5,80,126.0
615,B1,59.5,0.5,80,126.0
616,F#2,59.5,0.5,80,126.0
617,C5,60.0,0.5,80,126.0
618,A4,60.0,1.0,80,126.0
619,A4,60.0,1.0,80,126.0
620,A4,60.0,0.5,80,126.0
621,F4,60.0,0.5,80,126.0
622,A4,60.0,1.0,80,126.0
623,E3,60.0,829/500,76,126.0
624,C3,60.0,2.0,80,126.0
625,A4,60.0,1.0,80,126.0
626,A3,60.0,1.0,80,126.0
627,F3,60.0,1.5,80,126.0
628,F2,60.0,1.5,80,126.0
629,B1,60.0,0.5,80,126.0
630,F#2,60.0,0.5,80,126.0
631,F4,60.5,0.5,80,126.0
632,F4,60.5,0.5,80,126.0
633,F#2,60.5,0.5,80,126.0
634,C5,61.0,0.5,80,126.0
635,A4,61.0,0.5,80,126.0
636,A4,61.0,0.5,80,126.0
637,A4,61.0,0.5,80,126.0
638,C4,61.0,0.5,80,126.0
639,A4,61.0,0.5,80,126.0
640,A4,61.0,0.5,80,126.0
641,A3,61.0,0.5,80,126.0
642,D2,61.0,0.5,80,126.0
643,F#2,61.0,0.5,80,126.0
644,G4,61.5,0.5,80,126.0
645,G4,61.5,0.5,80,126.0
646,F4,61.5,0.5,80,126.0
647,F4,61.5,0.5,80,126.0
648,G4,61.5,0.5,80,126.0
649,G4,61.5,0.5,80,126.0
650,G3,61.5,0.5,80,126.0
651,F3,61.5,0.5,80,126.0
652,F2,61.5,0.5,80,126.0
653,B1,61.5,0.5,80,126.0
654,F#2,61.5,0.5,80,126.0
655,D5,62.0,0.5,80,126.0
656,A4,62.0,1.0,80,126.0
657,A4,62.0,1.0,80,126.0
658,B4,62.0,0.5,80,126.0
659,B4,62.0,0.5,80,126.0
660,A4,62.0,1.0,80,126.0
661,D3,62.0,1433/1000,72,126.0
662,B2,62.0,1.5,80,126.0
663,A4,62.0,1.0,80,126.0
664,A3,62.0,1.0,80,126.0
665,G3,62.0,1.5,80,126.0
666,G2,62.0,1.5,80,126.0
667,F#2,62.0,0.5,80,126.0
668,G4,62.5,0.5,80,126.0
669,G4,62.5,0.5,80,126.0
670,B1,62.5,0.5,80,126.0
671,F#2,62.5,0.5,80,126.0
672,D5,63.0,0.5,80,126.0
673,B4,63.0,0.5,80,126.0
674,B4,63.0,0.5,80,126.0
675,D4,63.0,0.5,80,126.0
676,D4,63.0,0.5,80,126.0
677,B4,63.0,0.5,80,126.0
678,B4,63.0,0.5,80,126.0
679,B3,63.0,0.5,80,126.0
680,D2,63.0,0.5,80,126.0
681,F#2,63.0,0.5,80,126.0
682,B4,63.5,0.5,80,126.0
683,B4,63.5,0.5,80,126.0
684,G3,63.5,0.5,80,126.0
685,G2,63.5,0.5,80,126.0
686,B1,63.5,0.5,80,126.0
687,F#2,63.5,0.5,80,126.0
688,E5,64.0,0.5,80,126.0
689,C5,64.0,0.5,80,126.0
690,C5,64.0,0.5,80,126.0
691,E3,64.0,201/125,72,126.0
692,C3,64.0,1.5,80,126.0
693,A3,64.0,1.5,80,126.0
694,A2,64.0,1.5,80,126.0
695,B1,64.0,0.5,80,126.0
696,F#2,64.0,0.5,80,126.0
697,A4,64.5,0.5,80,126.0
698,B4,64.5,0.5,80,126.0
699,F#2,64.5,0.5,80,126.0
700,E5,65.0,0.5,80,126.0
701,A4,65.0,0.5,80,126.0
702,A4,65.0,0.5,80,126.0
703,C5,65.0,0.5,80,126.0
704,E4,65.0,0.5,80,126.0
705,A4,65.0,0.5,80,126.0
706,A4,65.0,0.5,80,126.0
707,A3,65.0,0.5,80,126.0
708,D2,65.0,0.5,80,126.0
709,F#2,65.0,0.5,80,126.0
710,C5,65.5,0.5,80,126.0
711,C5,65.5,0.5,80,126.0
712,A4,65.5,0.5,80,126.0
713,A4,65.5,0.5,80,126.0
714,C5,65.5,0.5,80,126.0
715,C5,65.5,0.5,80,126.0
716,C4,65.5,0.5,80,126.0
717,A3,65.5,0.5,80,126.0
718,A2,65.5,0.5,80,126.0
719,B1,65.5,0.5,80,126.0
720,F#2,65.5,0.5,80,126.0
721,D5,66.0,0.5,80,126.0
722,D5,66.0,0.5,80,126.0
723,D5,66.0,0.5,80,126.0
724,B4,66.0,0.5,80,126.0
725,B4,66.0,0.5,80,126.0
726,D5,66.0,0.5,80,126.0
727,D3,66.0,63/40,76,126.0
728,B2,66.0,2.0,80,126.0
729,D5,66.0,0.5,80,126.0
730,D4,66.0,0.5,80,126.0
731,G3,66.0,1.5,80,126.0
732,G2,66.0,1.5,80,126.0
733,F#2,66.0,0.5,80,126.0
734,C5,66.5,0.5,80,126.0
735,C5,66.5,0.5,80,126.0
736,G4,66.5,0.5,80,126.0
737,G4,66.5,0.5,80,126.0
738,C5,66.5,0.5,80,126.0
739,C5,66.5,0.5,80,126.0
740,C4,66.5,0.5,80,126.0
741,B1,66.5,0.5,80,126.0
742,F#2,66.5,0.5,80,126.0
743,D5,67.0,0.5,80,126.0
744,B4,67.0,0.5,80,126.0
745,B4,67.0,0.5,80,126.0
746,D4,67.0,0.5,80,126.0
747,D4,67.0,0.5,80,126.0
748,B4,67.0,0.5,80,126.0
749,B4,67.0,0.5,80,126.0
750,B3,67.0,0.5,80,126.0
751,D2,67.0,0.5,80,126.0
752,F#2,67.0,0.5,80,126.0
753,A4,67.5,0.5,80,126.0
754,A4,67.5,0.5,80,126.0
755,B4,67.5,0.5,80,126.0
756,B4,67.5,0.5,80,126.0
757,A4,67.5,0.5,80,126.0
758,A4,67.5,0.5,80,126.0
759,A3,67.5,0.5,80,126.0
760,G3,67.5,0.5,80,126.0
761,G2,67.5,0.5,80,126.0
762,B1,67.5,0.5,80,126.0
763,F#2,67.5,0.5,80,126.0
764,C5,68.0,0.5,80,126.0
765,E5,68.0,1.0,80,126.0
766,E5,68.0,1.0,80,126.0
767,A4,68.0,0.5,80,126.0
768,F4,68.0,0.5,80,126.0
769,E5,68.0,1.0,80,126.0
770,E3,68.0,1467/1000,89,126.0
771,C3,68.0,1.5,80,126.0
772,E5,68.0,1.0,80,126.0
773,E4,68.0,1.0,80,126.0
774,F3,68.0,1.5,80,126.0
775,F2,68.0,1.5,80,126.0
776,B1,68.0,0.5,80,126.0
777,F#2,68.0,0.5,80,126.0
778,F4,68.5,0.5,80,126.0
779,F4,68.5,0.5,80,126.0
780,F#2,68.5,0.5,80,126.0
781,C5,69.0,0.5,80,126.0
782,D5,69.0,0.5,80,126.0
783,D5,69.0,0.5,80,126.0
784,C4,69.0,0.5,80,126.0
785,C4,69.0,0.5,80,126.0
786,D5,69.0,0.5,80,126.0
787,D5,69.0,0.5,80,126.0
788,D4,69.0,0.5,80,126.0
789,D2,69.0,0.5,80,126.0
790,F#2,69.0,0.5,80,126.0
791,C5,69.5,0.5,80,126.0
792,C5,69.5,0.5,80,126.0
793,F4,69.5,0.5,80,126.0
794,F4,69.5,0.5,80,126.0
795,C5,69.5,0.5,80,126.0
796,C5,69.5,0.5,80,126.0
797,C4,69.5,0.5,80,126.0
798,F3,69.5,0.5,80,126.0
799,F2,69.5,0.5,80,126.0
800,B1,69.5,0.5,80,126.0
801,F#2,69.5,0.5,80,126.0
802,D5,70.0,0.5,80,126.0
803,D5,70.0,1.0,80,126.0
804,D5,70.0,1.0,80,126.0
805,B4,70.0,0.5,80,126.0
806,B4,70.0,0.5,80,126.0
807,D5,70.0,1.0,80,126.0
808,D3,70.0,1133/1000,62,126.0
809,B2,70.0,1.5,80,126.0
810,D5,70.0,1.0,80,126.0
811,D4,70.0,1.0,80,126.0
812,G3,70.0,1.0,80,126.0
813,G2,70.0,1.0,80,126.0
814,F#2,70.0,0.5,80,126.0
815,G4,70.5,0.5,80,126.0
816,G4,70.5,0.5,80,126.0
817,B1,70.5,0.5,80,126.0
818,F#2,70.5,0.5,80,126.0
819,D5,71.0,0.5,80,126.0
820,E5,71.0,0.5,80,126.0
821,E5,71.0,0.5,80,126.0
822,B4,71.0,0.5,80,126.0
823,D4,71.0,0.5,80,126.0
824,E5,71.0,0.5,80,126.0
825,E5,71.0,0.5,80,126.0
826,E4,71.0,0.5,80,126.0
827,A3,71.0,0.5,80,126.0
828,A2,71.0,0.5,80,126.0
829,D2,71.0,0.5,80,126.0
830,F#2,71.0,0.5,80,126.0
831,G4,71.5,0.5,80,126.0
832,G4,71.5,0.5,80,126.0
833,B3,71.5,0.5,80,126.0
834,B2,71.5,0.5,80,126.0
835,B1,71.5,0.5,80,126.0
836,F#2,71.5,0.5,80,126.0
837,G5,72.0,0.5,80,126.0
838,A4,72.0,0.5,80,126.0
839,F4,72.0,0.5,80,126.0
840,D3,72.0,401/250,102,126.0
841,D3,72.0,401/250,102,126.0
842,D4,72.0,1.5,80,126.0
843,D3,72.0,1.5,80,126.0
844,B1,72.0,0.5,80,126.0
845,F#2,72.0,0.5,80,126.0
846,D5,72.5,1.0,80,126.0
847,D4,72.5,1.0,80,126.0
848,D4,72.5,1.0,80,126.0
849,F3,72.5,521/500,89,126.0
850,F3,72.5,521/500,89,126.0
851,F#2,72.5,0.5,80,126.0
852,F5,73.0,0.5,80,126.0
853,F5,73.0,0.5,80,126.0
854,F5,73.0,0.5,80,126.0
855,A3,73.0,229/500,93,126.0
856,A3,73.0,229/500,93,126.0
857,F5,73.0,0.5,80,126.0
858,F4,73.0,0.5,80,126.0
859,D2,73.0,0.5,80,126.0
860,F#2,73.0,0.5,80,126.0
861,F5,73.5,0.5,80,126.0
862,F5,73.5,0.5,80,126.0
863,A4,73.5,0.5,80,126.0
864,F4,73.5,0.5,80,126.0
865,F5,73.5,0.5,80,126.0
866,D4,73.5,0.5,80,126.0
867,D4,73.5,0.5,80,126.0
868,F5,73.5,0.5,80,126.0
869,F4,73.5,0.5,80,126.0
870,D4,73.5,0.5,80,126.0
871,D3,73.5,0.5,80,126.0
872,B1,73.5,0.5,80,126.0
873,F#2,73.5,0.5,80,126.0
874,E5,74.0,0.5,80,126.0
875,E5,74.0,0.5,80,126.0
876,E5,74.0,0.5,80,126.0
877,G4,74.0,0.5,80,126.0
878,E4,74.0,0.5,80,126.0
879,E5,74.0,0.5,80,126.0
880,C3,74.0,1033/1000,93,126.0
881,C3,74.0,1033/1000,93,126.0
882,E5,74.0,0.5,80,126.0
883,E4,74.0,0.5,80,126.0
884,C4,74.0,1.5,80,126.0
885,C3,74.0,1.5,80,126.0
886,F#2,74.0,0.5,80,126.0
887,D5,74.5,0.5,80,126.0
888,D5,74.5,0.5,80,126.0
889,C4,74.5,0.5,80,126.0
890,C4,74.5,0.5,80,126.0
891,D5,74.5,0.5,80,126.0
892,C4,74.5,571/1000,80,126.0
893,C4,74.5,571/1000,80,126.0
894,D5,74.5,0.5,80,126.0
895,D4,74.5,0.5,80,126.0
896,B1,74.5,0.5,80,126.0
897,F#2,74.5,0.5,80,126.0
898,E5,75.0,0.5,80,126.0
899,D5,75.0,0.5,80,126.0
900,D5,75.0,0.5,80,126.0
901,G4,75.0,0.5,80,126.0
902,E4,75.0,0.5,80,126.0
903,D5,75.0,0.5,80,126.0
904,E4,75.0,0.5,80,126.0
905,E4,75.0,0.5,80,126.0
906,D5,75.0,0.5,80,126.0
907,D4,75.0,0.5,80,126.0
908,D2,75.0,0.5,80,126.0
909,F#2,75.0,0.5,80,126.0
910,C5,75.5,0.5,80,126.0
911,C5,75.5,0.5,80,126.0
912,C4,75.5,0.5,80,126.0
913,C4,75.5,0.5,80,126.0
914,C5,75.5,0.5,80,126.0
915,C5,75.5,0.5,80,126.0
916,C4,75.5,0.5,80,126.0
917,C4,75.5,0.5,80,126.0
918,C3,75.5,0.5,80,126.0
919,B1,75.5,0.5,80,126.0
920,F#2,75.5,0.5,80,126.0
921,D5,76.0,1.0,80,126.0
922,E5,76.0,1.0,80,126.0
923,E5,76.0,1.0,80,126.0
924,F4,76.0,1.0,80,126.0
925,D4,76.0,1.0,80,126.0
926,E5,76.0,1.0,80,126.0
927,B-2,76.0,927/500,98,126.0
928,B-2,76.0,927/500,98,126.0
929,E5,76.0,1.0,80,126.0
930,E4,76.0,1.0,80,126.0
931,B-3,76.0,1.5,80,126.0
932,B-2,76.0,1.5,80,126.0
933,B1,76.0,0.5,80,126.0
934,F#2,76.0,0.5,80,126.0
935,B-3,76.5,0.812,72,126.0
936,B-3,76.5,0.812,72,126.0
937,F#2,76.5,0.5,80,126.0
938,F4,77.0,0.5,80,126.0
939,D5,77.0,2.0,80,126.0
940,D5,77.0,2.0,80,126.0
941,F4,77.0,0.5,80,126.0
942,D4,77.0,0.5,80,126.0
943,D5,77.0,2.0,80,126.0
944,D4,77.0,479/1000,76,126.0
945,D4,77.0,479/1000,76,126.0
946,D5,77.0,2.0,80,126.0
947,D4,77.0,2.0,80,126.0
948,D2,77.0,0.5,80,126.0
949,F#2,77.0,0.5,80,126.0
950,F4,77.5,729/1000,64,126.0
951,F4,77.5,729/1000,64,126.0
952,B-3,77.5,0.5,80,126.0
953,B-2,77.5,0.5,80,126.0
954,B1,77.5,0.5,80,126.0
955,F#2,77.5,0.5,80,126.0
956,F4,78.0,1.0,80,126.0
957,F4,78.0,1.0,80,126.0
958,D4,78.0,1.0,80,126.0
959,D4,78.0,23/40,85,126.0
960,D4,78.0,23/40,85,126.0
961,C4,78.0,1.5,80,126.0
962,C3,78.0,1.5,80,126.0
963,F#2,78.0,0.5,80,126.0
964,B-3,78.5,36/125,68,126.0
965,B-3,78.5,36/125,68,126.0
966,B-2,78.5,0.5,80,126.0
967,E5,79.0,0.5,80,126.0
968,G4,79.0,0.5,80,126.0
969,E4,79.0,0.5,80,126.0
970,C3,79.0,567/1000,107,126.0
971,C3,79.0,567/1000,107,126.0
972,D2,79.0,0.5,80,126.0
973,F#2,79.0,0.5,80,126.0
974,C4,79.5,0.5,80,126.0
975,C4,79.5,0.5,80,126.0
976,C4,79.5,227/500,85,126.0
977,C4,79.5,227/500,85,126.0
978,C4,79.5,0.5,80,126.0
979,C3,79.5,0.5,80,126.0
980,B1,79.5,0.5,80,126.0
981,F#2,79.5,0.5,80,126.0
982,F5,80.0,0.5,80,126.0
983,A4,80.0,0.5,80,126.0
984,F4,80.0,0.5,80,126.0
985,D3,80.0,1621/1000,113,126.0
986,D3,80.0,1621/1000,113,126.0
987,D4,80.0,1.5,80,126.0
988,D3,80.0,1.5,80,126.0
989,B1,80.0,0.5,80,126.0
990,F#2,80.0,0.5,80,126.0
991,D4,80.5,0.5,80,126.0
992,D4,80.5,0.5,80,126.0
993,D4,80.5,833/1000,76,126.0
994,D4,80.5,833/1000,76,126.0
995,F#2,80.5,0.5,80,126.0
996,F5,81.0,0.5,80,126.0
997,F5,81.0,0.5,80,126.0
998,F5,81.0,0.5,80,126.0
999,A4,81.0,0.5,80,126.0
1000,F4,81.0,0.5,80,126.0
1001,F5,81.0,0.5,80,126.0
1002,F4,81.0,0.625,76,126.0
1003,F4,81.0,0.625,76,126.0
1004,F5,81.0,0.5,80,126.0
1005,F4,81.0,0.5,80,126.0
1006,D2,81.0,0.5,80,126.0
1007,F#2,81.0,0.5,80,126.0
1008,F5,81.5,0.5,80,126.0
1009,F5,81.5,0.5,80,126.0
1010,D4,81.5,0.5,80,126.0
1011,D4,81.5,0.5,80,126.0
1012,F5,81.5,0.5,80,126.0
1013,A4,81.5,0.5,80,126.0
1014,A4,81.5,0.5,80,126.0
1015,F5,81.5,0.5,80,126.0
1016,F4,81.5,0.5,80,126.0
1017,D4,81.5,0.5,80,126.0
1018,D3,81.5,0.5,80,126.0
1019,B1,81.5,0.5,80,126.0
1020,F#2,81.5,0.5,80,126.0
1021,E5,82.0,0.5,80,126.0
1022,E5,82.0,1.0,80,126.0
1023,E5,82.0,1.0,80,126.0
1024,G4,82.0,0.5,80,126.0
1025,E4,82.0,0.5,80,126.0
1026,E5,82.0,1.0,80,126.0
1027,C3,82.0,1033/1000,98,126.0
1028,C3,82.0,1033/1000,98,126.0
1029,E5,82.0,1.0,80,126.0
1030,E4,82.0,1.0,80,126.0
1031,C4,82.0,1.5,80,126.0
1032,C3,82.0,1.5,80,126.0
1033,F#2,82.0,0.5,80,126.0
1034,C4,82.5,0.5,80,126.0
1035,C4,82.5,0.5,80,126.0
1036,C4,82.5,383/1000,80,126.0
1037,C4,82.5,383/1000,80,126.0
1038,B1,82.5,0.5,80,126.0
1039,F#2,82.5,0.5,80,126.0
1040,E5,83.0,0.5,80,126.0
1041,D5,83.0,0.5,80,126.0
1042,D5,83.0,0.5,80,126.0
1043,G4,83.0,0.5,80,126.0
1044,E4,83.0,0.5,80,126.0
1045,D5,83.0,0.5,80,126.0
1046,G4,83.0,131/500,85,126.0
1047,E4,83.0,283/1000,85,126.0
1048,D5,83.0,0.5,80,126.0
1049,D4,83.0,0.5,80,126.0
1050,D2,83.0,0.5,80,126.0
1051,F#2,83.0,0.5,80,126.0
1052,C5,83.5,0.5,80,126.0
1053,C5,83.5,0.5,80,126.0
1054,C4,83.5,0.5,80,126.0
1055,C4,83.5,0.5,80,126.0
1056,C5,83.5,0.5,80,126.0
1057,C5,83.5,0.5,80,126.0
1058,C4,83.5,0.5,80,126.0
1059,F#2,83.5,0.5,80,126.0
1060,D5,84.0,1.0,80,126.0
1061,G4,84.0,4.0,80,126.0
1062,G4,84.0,4.0,80,126.0
1063,G4,84.0,1.0,80,126.0
1064,D4,84.0,1.0,80,126.0
1065,G4,84.0,4.0,80,126.0
1066,D4,84.0,0.5,80,126.0
1067,B3,84.0,0.5,80,126.0
1068,G4,84.0,4.0,80,126.0
1069,G3,84.0,4.0,80,126.0
1070,G2,84.0,1.0,80,126.0
1071,G1,84.0,1.0,80,126.0
1072,F#2,84.0,0.5,80,126.0
1073,D4,84.5,0.5,80,126.0
1074,B3,84.5,0.5,80,126.0
1075,B1,84.5,0.5,80,126.0
1076,D5,85.0,0.5,80,126.0
1077,G4,85.0,0.5,80,126.0
1078,D4,85.0,0.5,80,126.0
1079,D4,85.0,0.5,80,126.0
1080,B3,85.0,0.5,80,126.0
1081,G3,85.0,0.5,80,126.0
1082,G2,85.0,0.5,80,126.0
1083,B1,85.0,0.5,80,126.0
1084,D4,85.5,0.5,80,126.0
1085,B3,85.5,0.5,80,126.0
1086,G2,85.5,0.5,80,126.0
1087,G1,85.5,0.5,80,126.0
1088,B-2,85.5,0.5,80,126.0
1089,G5,86.0,0.5,80,126.0
1090,G4,86.0,0.5,80,126.0
1091,D4,86.0,0.5,80,126.0
1092,D4,86.0,0.5,80,126.0
1093,B3,86.0,0.5,80,126.0
1094,G3,86.0,0.5,80,126.0
1095,G2,86.0,0.5,80,126.0
1096,D2,86.0,0.5,80,126.0
1097,A5,86.5,0.5,80,126.0
1098,A4,86.5,0.5,80,126.0
1099,A4,86.5,0.5,80,126.0
1100,D4,86.5,0.5,80,126.0
1101,B3,86.5,0.5,80,126.0
1102,G3,86.5,1.0,80,126.0
1103,G2,86.5,1.0,80,126.0
1104,B-2,86.5,0.5,80,126.0
1105,B5,87.0,0.5,80,126.0
1106,B4,87.0,0.5,80,126.0
1107,B4,87.0,0.5,80,126.0
1108,D4,87.0,0.5,80,126.0
1109,B3,87.0,0.5,80,126.0
1110,D2,87.0,0.5,80,126.0
1111,D4,87.5,0.5,80,126.0
1112,B3,87.5,0.5,80,126.0
1113,G2,87.5,0.5,80,126.0
1114,G1,87.5,0.5,80,126.0
1115,B-2,87.5,0.5,80,126.0
1116,E5,88.0,0.5,80,126.0
1117,C5,88.0,0.5,80,126.0
1118,C5,88.0,0.5,80,126.0
1119,E3,88.0,1.625,80,126.0
1120,C3,88.0,2.0,80,126.0
1121,A3,88.0,1.5,80,126.0
1122,A2,88.0,1.5,80,126.0
1123,B1,88.0,0.5,80,126.0
1124,F#2,88.0,0.5,80,126.0
1125,A4,88.5,0.5,80,126.0
1126,B4,88.5,0.5,80,126.0
1127,B1,88.5,0.5,80,126.0
1128,F#2,88.5,0.5,80,126.0
1129,E5,89.0,0.5,80,126.0
1130,A4,89.0,0.5,80,126.0
1131,A4,89.0,0.5,80,126.0
1132,C5,89.0,0.5,80,126.0
1133,E4,89.0,0.5,80,126.0
1134,A4,89.0,0.5,80,126.0
1135,A4,89.0,0.5,80,126.0
1136,A3,89.0,0.5,80,126.0
1137,D2,89.0,0.5,80,126.0
1138,F#2,89.0,0.5,80,126.0
1139,C5,89.5,0.5,80,126.0
1140,C5,89.5,0.5,80,126.0
1141,A4,89.5,0.5,80,126.0
1142,A4,89.5,0.5,80,126.0
1143,C5,89.5,0.5,80,126.0
1144,C5,89.5,0.5,80,126.0
1145,C4,89.5,0.5,80,126.0
1146,A3,89.5,0.5,80,126.0
1147,A2,89.5,0.5,80,126.0
1148,B1,89.5,0.5,80,126.0
1149,F#2,89.5,0.5,80,126.0
1150,D5,90.0,0.5,80,126.0
1151,D5,90.0,0.5,80,126.0
1152,D5,90.0,0.5,80,126.0
1153,B4,90.0,0.5,80,126.0
1154,B4,90.0,0.5,80,126.0
1155,D5,90.0,0.5,80,126.0
1156,D3,90.0,1383/1000,60,126.0
1157,B2,90.0,1.5,80,126.0
1158,D5,90.0,0.5,80,126.0
1159,D4,90.0,0.5,80,126.0
1160,G3,90.0,1.5,80,126.0
1161,G2,90.0,1.5,80,126.0
1162,F#2,90.0,0.5,80,126.0
1163,C5,90.5,0.5,80,126.0
1164,C5,90.5,0.5,80,126.0
1165,G4,90.5,0.5,80,126.0
1166,G4,90.5,0.5,80,126.0
1167,C5,90.5,0.5,80,126.0
1168,C5,90.5,0.5,80,126.0
1169,C4,90.5,0.5,80,126.0
1170,B1,90.5,0.5,80,126.0
1171,F#2,90.5,0.5,80,126.0
1172,D5,91.0,0.5,80,126.0
1173,B4,91.0,0.5,80,126.0
1174,B4,91.0,0.5,80,126.0
1175,D4,91.0,0.5,80,126.0
1176,D4,91.0,0.5,80,126.0
1177,B4,91.0,0.5,80,126.0
1178,B4,91.0,0.5,80,126.0
1179,B3,91.0,0.5,80,126.0
1180,D2,91.0,0.5,80,126.0
1181,F#2,91.0,0.5,80,126.0
1182,A4,91.5,0.5,80,126.0
1183,A4,91.5,0.5,80,126.0
1184,B4,91.5,0.5,80,126.0
1185,B4,91.5,0.5,80,126.0
1186,A4,91.5,0.5,80,126.0
1187,A4,91.5,0.5,80,126.0
1188,A3,91.5,0.5,80,126.0
1189,G3,91.5,0.5,80,126.0
1190,G2,91.5,0.5,80,126.0
1191,B1,91.5,0.5,80,126.0
1192,F#2,91.5,0.5,80,126.0
1193,C5,92.0,0.5,80,126.0
1194,A4,92.0,1.0,80,126.0
1195,A4,92.0,1.0,80,126.0
1196,A4,92.0,0.5,80,126.0
1197,F4,92.0,0.5,80,126.0
1198,A4,92.0,1.0,80,126.0
1199,E3,92.0,829/500,76,126.0
1200,C3,92.0,2.0,80,126.0
1201,A4,92.0,1.0,80,126.0
1202,A3,92.0,1.0,80,126.0
1203,F3,92.0,1.5,80,126.0
1204,F2,92.0,1.5,80,126.0
1205,B1,92.0,0.5,80,126.0
1206,F#2,92.0,0.5,80,126.0
1207,F4,92.5,0.5,80,126.0
1208,F4,92.5,0.5,80,126.0
1209,F#2,92.5,0.5,80,126.0
1210,C5,93.0,0.5,80,126.0
1211,A4,93.0,0.5,80,126.0
1212,A4,93.0,0.5,80,126.0
1213,A4,93.0,0.5,80,126.0
1214,C4,93.0,0.5,80,126.0
1215,A4,93.0,0.5,80,126.0
1216,A4,93.0,0.5,80,126.0
1217,A3,93.0,0.5,80,126.0
1218,D2,93.0,0.5,80,126.0
1219,F#2,93.0,0.5,80,126.0
1220,G4,93.5,0.5,80,126.0
1221,G4,93.5,0.5,80,126.0
1222,F4,93.5,0.5,80,126.0
1223,F4,93.5,0.5,80,126.0
1224,G4,93.5,0.5,80,126.0
1225,G4,93.5,0.5,80,126.0
1226,G3,93.5,0.5,80,126.0
1227,F3,93.5,0.5,80,126.0
1228,F2,93.5,0.5,80,126.0
1229,B1,93.5,0.5,80,126.0
1230,F#2,93.5,0.5,80,126.0
1231,D5,94.0,0.5,80,126.0
1232,A4,94.0,1.0,80,126.0
1233,A4,94.0,1.0,80,126.0
1234,B4,94.0,0.5,80,126.0
1235,B4,94.0,0.5,80,126.0
1236,A4,94.0,1.0,80,126.0
1237,D3,94.0,1433/1000,72,126.0
1238,B2,94.0,1.5,80,126.0
1239,A4,94.0,1.0,80,126.0
1240,A3,94.0,1.0,80,126.0
1241,G3,94.0,1.5,80,126.0
1242,G2,94.0,1.5,80,126.0
1243,F#2,94.0,0.5,80,126.0
1244,G4,94.5,0.5,80,126.0
1245,G4,94.5,0.5,80,126.0
1246,B1,94.5,0.5,80,126.0
1247,F#2,94.5,0.5,80,126.0
1248,D5,95.0,0.5,80,126.0
1249,B4,95.0,0.5,80,126.0
1250,B4,95.0,0.5,80,126.0
1251,D4,95.0,0.5,80,126.0
1252,D4,95.0,0.5,80,126.0
1253,B4,95.0,0.5,80,126.0
1254,B4,95.0,0.5,80,126.0
1255,B3,95.0,0.5,80,126.0
1256,D2,95.0,0.5,80,126.0
1257,F#2,95.0,0.5,80,126.0
1258,B4,95.5,0.5,80,126.0
1259,B4,95.5,0.5,80,126.0
1260,G3,95.5,0.5,80,126.0
1261,G2,95.5,0.5,80,126.0
1262,B1,95.5,0.5,80,126.0
1263,F#2,95.5,0.5,80,126.0
1264,E5,96.0,0.5,80,126.0
1265,C5,96.0,0.5,80,126.0
1266,C5,96.0,0.5,80,126.0
1267,E3,96.0,201/125,72,126.0
1268,C3,96.0,1.5,80,126.0
1269,A3,96.0,1.5,80,126.0
1270,A2,96.0,1.5,80,126.0
1271,B1,96.0,0.5,80,126.0
1272,F#2,96.0,0.5,80,126.0
1273,A4,96.5,0.5,80,126.0
1274,B4,96.5,0.5,80,126.0
1275,F#2,96.5,0.5,80,126.0
1276,E5,97.0,0.5,80,126.0
1277,A4,97.0,0.5,80,126.0
1278,A4,97.0,0.5,80,126.0
1279,C5,97.0,0.5,80,126.0
1280,E4,97.0,0.5,80,126.0
1281,A4,97.0,0.5,80,126.0
1282,A4,97.0,0.5,80,126.0
1283,A3,97.0,0.5,80,126.0
1284,D2,97.0,0.5,80,126.0
1285,F#2,97.0,0.5,80,126.0
1286,C5,97.5,0.5,80,126.0
1287,C5,97.5,0.5,80,126.0
1288,A4,97.5,0.5,80,126.0
1289,A4,97.5,0.5,80,126.0
1290,C5,97.5,0.5,80,126.0
1291,C5,97.5,0.5,80,126.0
1292,C4,97.5,0.5,80,126.0
1293,A3,97.5,0.5,80,126.0
1294,A2,97.5,0.5,80,126.0
1295,B1,97.5,0.5,80,126.0
1296,F#2,97.5,0.5,80,126.0
1297,D5,98.0,0.5,80,126.0
1298,D5,98.0,0.5,80,126.0
1299,D5,98.0,0.5,80,126.0
1300,B4,98.0,0.5,80,126.0
1301,B4,98.0,0.5,80,126.0
1302,D5,98.0,0.5,80,126.0
1303,D3,98.0,63/40,76,126.0
1304,B2,98.0,2.0,80,126.0
1305,D5,98.0,0.5,80,126.0
1306,D4,98.0,0.5,80,126.0
1307,G3,98.0,1.5,80,126.0
1308,G2,98.0,1.5,80,126.0
1309,F#2,98.0,0.5,80,126.0
1310,C5,98.5,0.5,80,126.0
1311,C5,98.5,0.5,80,126.0
1312,G4,98.5,0.5,80,126.0
1313,G4,98.5,0.5,80,126.0
1314,C5,98.5,0.5,80,126.0
1315,C5,98.5,0.5,80,126.0
1316,C4,98.5,0.5,80,126.0
1317,B1,98.5,0.5,80,126.0
1318,F#2,98.5,0.5,80,126.0
1319,D5,99.0,0.5,80,126.0
1320,B4,99.0,0.5,80,126.0
1321,B4,99.0,0.5,80,126.0
1322,D4,99.0,0.5,80,126.0
1323,D4,99.0,0.5,80,126.0
1324,B4,99.0,0.5,80,126.0
1325,B4,99.0,0.5,80,126.0
1326,B3,99.0,0.5,80,126.0
1327,D2,99.0,0.5,80,126.0
1328,F#2,99.0,0.5,80,126.0
1329,A4,99.5,0.5,80,126.0
1330,A4,99.5,0.5,80,126.0
1331,B4,99.5,0.5,80,126.0
1332,B4,99.5,0.5,80,126.0
1333,A4,99.5,0.5,80,126.0
1334,A4,99.5,0.5,80,126.0
1335,A3,99.5,0.5,80,126.0
1336,G3,99.5,0.5,80,126.0
1337,G2,99.5,0.5,80,126.0
1338,B1,99.5,0.5,80,126.0
1339,F#2,99.5,0.5,80,126.0
1340,C5,100.0,0.5,80,126.0
1341,E5,100.0,1.0,80,126.0
1342,E5,100.0,1.0,80,126.0
1343,A4,100.0,0.5,80,126.0
1344,F4,100.0,0.5,80,126.0
1345,E5,100.0,1.0,80,126.0
1346,E3,100.0,1467/1000,89,126.0
1347,C3,100.0,1.5,80,126.0
1348,E5,100.0,1.0,80,126.0
1349,E4,100.0,1.0,80,126.0
1350,F3,100.0,1.5,80,126.0
1351,F2,100.0,1.5,80,126.0
1352,B1,100.0,0.5,80,126.0
1353,F#2,100.0,0.5,80,126.0
1354,F4,100.5,0.5,80,126.0
1355,F4,100.5,0.5,80,126.0
1356,F#2,100.5,0.5,80,126.0
1357,C5,101.0,0.5,80,126.0
1358,D5,101.0,0.5,80,126.0
1359,D5,101.0,0.5,80,126.0
1360,C4,101.0,0.5,80,126.0
1361,C4,101.0,0.5,80,126.0
1362,D5,101.0,0.5,80,126.0
1363,D5,101.0,0.5,80,126.0
1364,D4,101.0,0.5,80,126.0
1365,D2,101.0,0.5,80,126.0
1366,F#2,101.0,0.5,80,126.0
1367,C5,101.5,0.5,80,126.0
1368,C5,101.5,0.5,80,126.0
1369,F4,101.5,0.5,80,126.0
1370,F4,101.5,0.5,80,126.0
1371,C5,101.5,0.5,80,126.0
1372,C5,101.5,0.5,80,126.0
1373,C4,101.5,0.5,80,126.0
1374,F3,101.5,0.5,80,126.0
1375,F2,101.5,0.5,80,126.0
1376,B1,101.5,0.5,80,126.0
1377,F#2,101.5,0.5,80,126.0
1378,D5,102.0,0.5,80,126.0
1379,D5,102.0,1.0,80,126.0
1380,D5,102.0,1.0,80,126.0
1381,B4,102.0,0.5,80,126.0
1382,B4,102.0,0.5,80,126.0
1383,D5,102.0,1.0,80,126.0
1384,D3,102.0,1133/1000,62,126.0
1385,B2,102.0,1.5,80,126.0
1386,D5,102.0,1.0,80,126.0
1387,D4,102.0,1.0,80,126.0
1388,G3,102.0,1.0,80,126.0
1389,G2,102.0,1.0,80,126.0
1390,F#2,102.0,0.5,80,126.0
1391,G4,102.5,0.5,80,126.0
1392,G4,102.5,0.5,80,126.0
1393,B1,102.5,0.5,80,126.0
1394,F#2,102.5,0.5,80,126.0
1395,D5,103.0,0.5,80,126.0
1396,E5,103.0,0.5,80,126.0
1397,E5,103.0,0.5,80,126.0
1398,B4,103.0,0.5,80,126.0
1399,D4,103.0,0.5,80,126.0
1400,E5,103.0,0.5,80,126.0
1401,E5,103.0,0.5,80,126.0
1402,E4,103.0,0.5,80,126.0
1403,A3,103.0,0.5,80,126.0
1404,A2,103.0,0.5,80,126.0
1405,D2,103.0,0.5,80,126.0
1406,F#2,103.0,0.5,80,126.0
1407,G4,103.5,0.5,80,126.0
1408,G4,103.5,0.5,80,126.0
1409,B3,103.5,0.5,80,126.0
1410,B2,103.5,0.5,80,126.0
1411,B1,103.5,0.5,80,126.0
1412,F#2,103.5,0.5,80,126.0
1413,G5,104.0,0.5,80,126.0
1414,A4,104.0,0.5,80,126.0
1415,F4,104.0,0.5,80,126.0
1416,D3,104.0,401/250,102,126.0
1417,D3,104.0,401/250,102,126.0
1418,D4,104.0,1.5,80,126.0
1419,D3,104.0,1.5,80,126.0
1420,B1,104.0,0.5,80,126.0
1421,F#2,104.0,0.5,80,126.0
1422,D5,104.5,1.0,80,126.0
1423,D4,104.5,1.0,80,126.0
1424,D4,104.5,1.0,80,126.0
1425,F3,104.5,521/500,89,126.0
1426,F3,104.5,521/500,89,126.0
1427,F#2,104.5,0.5,80,126.0
1428,F5,105.0,0.5,80,126.0
1429,F5,105.0,0.5,80,126.0
1430,F5,105.0,0.5,80,126.0
1431,A3,105.0,229/500,93,126.0
1432,A3,105.0,229/500,93,126.0
1433,F5,105.0,0.5,80,126.0
1434,F4,105.0,0.5,80,126.0
1435,D2,105.0,0.5,80,126.0
1436,F#2,105.0,0.5,80,126.0
1437,F5,105.5,0.5,80,126.0
1438,F5,105.5,0.5,80,126.0
1439,A4,105.5,0.5,80,126.0
1440,F4,105.5,0.5,80,126.0
1441,F5,105.5,0.5,80,126.0
1442,D4,105.5,0.5,80,126.0
1443,D4,105.5,0.5,80,126.0
1444,F5,105.5,0.5,80,126.0
1445,F4,105.5,0.5,80,126.0
1446,D4,105.5,0.5,80,126.0
1447,D3,105.5,0.5,80,126.0
1448,B1,105.5,0.5,80,126.0
1449,F#2,105.5,0.5,80,126.0
1450,E5,106.0,0.5,80,126.0
1451,E5,106.0,0.5,80,126.0
1452,E5,106.0,0.5,80,126.0
1453,G4,106.0,0.5,80,126.0
1454,E4,106.0,0.5,80,126.0
1455,E5,106.0,0.5,80,126.0
1456,C3,106.0,1033/1000,93,126.0
1457,C3,106.0,1033/1000,93,126.0
1458,E5,106.0,0.5,80,126.0
1459,E4,106.0,0.5,80,126.0
1460,C4,106.0,1.5,80,126.0
1461,C3,106.0,1.5,80,126.0
1462,F#2,106.0,0.5,80,126.0
1463,D5,106.5,0.5,80,126.0
1464,D5,106.5,0.5,80,126.0
1465,C4,106.5,0.5,80,126.0
1466,C4,106.5,0.5,80,126.0
1467,D5,106.5,0.5,80,126.0
1468,C4,106.5,571/1000,80,126.0
1469,C4,106.5,571/1000,80,126.0
1470,D5,106.5,0.5,80,126.0
1471,D4,106.5,0.5,80,126.0
1472,B1,106.5,0.5,80,126.0
1473,F#2,106.5,0.5,80,126.0
1474,E5,107.0,0.5,80,126.0
1475,D5,107.0,0.5,80,126.0
1476,D5,107.0,0.5,80,126.0
1477,G4,107.0,0.5,80,126.0
1478,E4,107.0,0.5,80,126.0
1479,D5,107.0,0.5,80,126.0
1480,E4,107.0,0.5,80,126.0
1481,E4,107.0,0.5,80,126.0
1482,D5,107.0,0.5,80,126.0
1483,D4,107.0,0.5,80,126.0
1484,D2,107.0,0.5,80,126.0
1485,F#2,107.0,0.5,80,126.0
1486,C5,107.5,0.5,80,126.0
1487,C5,107.5,0.5,80,126.0
1488,C4,107.5,0.5,80,126.0
1489,C4,107.5,0.5,80,126.0
1490,C5,107.5,0.5,80,126.0
1491,C5,107.5,0.5,80,126.0
1492,C4,107.5,0.5,80,126.0
1493,C4,107.5,0.5,80,126.0
1494,C3,107.5,0.5,80,126.0
1495,B1,107.5,0.5,80,126.0
1496,F#2,107.5,0.5,80,126.0
1497,D5,108.0,1.0,80,126.0
1498,E5,108.0,1.0,80,126.0
1499,E5,108.0,1.0,80,126.0
1500,F4,108.0,1.0,80,126.0
1501,D4,108.0,1.0,80,126.0
1502,E5,108.0,1.0,80,126.0
1503,B-2,108.0,927/500,98,126.0
1504,B-2,108.0,927/500,98,126.0
1505,E5,108.0,1.0,80,126.0
1506,E4,108.0,1.0,80,126.0
1507,B-3,108.0,1.5,80,126.0
1508,B-2,108.0,1.5,80,126.0
1509,B1,108.0,0.5,80,126.0
1510,F#2,108.0,0.5,80,126.0
1511,B-3,108.5,0.812,72,126.0
1512,B-3,108.5,0.812,72,126.0
1513,B1,108.5,0.5,80,126.0
1514,F#2,108.5,0.5,80,126.0
1515,F4,109.0,0.5,80,126.0
1516,D5,109.0,2.0,80,126.0
1517,D5,109.0,2.0,80,126.0
1518,F4,109.0,0.5,80,126.0
1519,D4,109.0,0.5,80,126.0
1520,D5,109.0,2.0,80,126.0
1521,D4,109.0,479/1000,76,126.0
1522,D4,109.0,479/1000,76,126.0
1523,D5,109.0,2.0,80,126.0
1524,D4,109.0,2.0,80,126.0
1525,D2,109.0,0.5,80,126.0
1526,F#2,109.0,0.5,80,126.0
1527,F4,109.5,729/1000,64,126.0
1528,F4,109.5,729/1000,64,126.0
1529,B-3,109.5,0.5,80,126.0
1530,B-2,109.5,0.5,80,126.0
1531,B1,109.5,0.5,80,126.0
1532,F#2,109.5,0.5,80,126.0
1533,F4,110.0,1.0,80,126.0
1534,F4,110.0,1.0,80,126.0
1535,D4,110.0,1.0,80,126.0
1536,D4,110.0,23/40,85,126.0
1537,D4,110.0,23/40,85,126.0
1538,C4,110.0,1.5,80,126.0
1539,C3,110.0,1.5,80,126.0
1540,F#2,110.0,0.5,80,126.0
1541,B-3,110.5,36/125,68,126.0
1542,B-3,110.5,36/125,68,126.0
1543,B1,110.5,0.5,80,126.0
1544,F#2,110.5,0.5,80,126.0
1545,E5,111.0,0.5,80,126.0
1546,G4,111.0,0.5,80,126.0
1547,E4,111.0,0.5,80,126.0
1548,C3,111.0,567/1000,107,126.0
1549,C3,111.0,567/1000,107,126.0
1550,D2,111.0,0.5,80,126.0
1551,F#2,111.0,0.5,80,126.0
1552,C4,111.5,0.5,80,126.0
1553,C4,111.5,0.5,80,126.0
1554,C4,111.5,227/500,85,126.0
1555,C4,111.5,227/500,85,126.0
1556,C4,111.5,0.5,80,126.0
1557,C3,111.5,0.5,80,126.0
1558,B1,111.5,0.5,80,126.0
1559,F#2,111.5,0.5,80,126.0
1560,F5,112.0,0.5,80,126.0
1561,A4,112.0,0.5,80,126.0
1562,F4,112.0,0.5,80,126.0
1563,D3,112.0,1621/1000,113,126.0
1564,D3,112.0,1621/1000,113,126.0
1565,D4,112.0,1.5,80,126.0
1566,D3,112.0,1.5,80,126.0
1567,B1,112.0,0.5,80,126.0
1568,F#2,112.0,0.5,80,126.0
1569,D4,112.5,0.5,80,126.0
1570,D4,112.5,0.5,80,126.0
1571,D4,112.5,833/1000,76,126.0
1572,D4,112.5,833/1000,76,126.0
1573,F#2,112.5,0.5,80,126.0
1574,F5,113.0,0.5,80,126.0
1575,F5,113.0,0.5,80,126.0
1576,F5,113.0,0.5,80,126.0
1577,A4,113.0,0.5,80,126.0
1578,F4,113.0,0.5,80,126.0
1579,F5,113.0,0.5,80,126.0
1580,F4,113.0,0.625,76,126.0
1581,F4,113.0,0.625,76,126.0
1582,F5,113.0,0.5,80,126.0
1583,F4,113.0,0.5,80,126.0
1584,D2,113.0,0.5,80,126.0
1585,F#2,113.0,0.5,80,126.0
1586,F5,113.5,0.5,80,126.0
1587,F5,113.5,0.5,80,126.0
1588,D4,113.5,0.5,80,126.0
1589,D4,113.5,0.5,80,126.0
1590,F5,113.5,0.5,80,126.0
1591,A4,113.5,0.5,80,126.0
1592,A4,113.5,0.5,80,126.0
1593,F5,113.5,0.5,80,126.0
1594,F4,113.5,0.5,80,126.0
1595,D4,113.5,0.5,80,126.0
1596,D3,113.5,0.5,80,126.0
1597,B1,113.5,0.5,80,126.0
1598,F#2,113.5,0.5,80,126.0
1599,E5,114.0,0.5,80,126.0
1600,E5,114.0,1.0,80,126.0
1601,E5,114.0,1.0,80,126.0
1602,G4,114.0,0.5,80,126.0
1603,E4,114.0,0.5,80,126.0
1604,E5,114.0,1.0,80,126.0
1605,C3,114.0,1033/1000,98,126.0
1606,C3,114.0,1033/1000,98,126.0
1607,E5,114.0,1.0,80,126.0
1608,E4,114.0,1.0,80,126.0
1609,C4,114.0,1.5,80,126.0
1610,C3,114.0,1.5,80,126.0
1611,F#2,114.0,0.5,80,126.0
1612,C4,114.5,0.5,80,126.0
1613,C4,114.5,0.5,80,126.0
1614,C4,114.5,383/1000,80,126.0
1615,C4,114.5,383/1000,80,126.0
1616,B1,114.5,0.5,80,126.0
1617,F#2,114.5,0.5,80,126.0
1618,E5,115.0,0.5,80,126.0
1619,G5,115.0,1.0,80,126.0
1620,G5,115.0,1.0,80,126.0
1621,G4,115.0,0.5,80,126.0
1622,E4,115.0,0.5,80,126.0
1623,G5,115.0,1.0,80,126.0
1624,G4,115.0,131/500,85,126.0
1625,E4,115.0,283/1000,85,126.0
1626,G5,115.0,1.0,80,126.0
1627,G4,115.0,1.0,80,126.0
1628,D2,115.0,0.5,80,126.0
1629,F#2,115.0,0.5,80,126.0
1630,C4,115.5,0.5,80,126.0
1631,C4,115.5,0.5,80,126.0
1632,B1,115.5,0.5,80,126.0
1633,F#2,115.5,0.5,80,126.0
1634,D5,116.0,1.0,80,126.0
1635,G5,116.0,4.0,80,126.0
1636,G5,116.0,4.0,80,126.0
1637,G4,116.0,1.0,80,126.0
1638,D4,116.0,1.0,80,126.0
1639,G5,116.0,4.0,80,126.0
1640,D4,116.0,0.5,80,126.0
1641,B3,116.0,0.5,80,126.0
1642,G5,116.0,4.0,80,126.0
1643,G4,116.0,4.0,80,126.0
1644,G2,116.0,1.0,80,126.0
1645,G1,116.0,1.0,80,126.0
1646,C3,116.0,0.25,80,126.0
1647,C3,116.25,0.25,80,126.0
1648,D4,116.5,0.5,80,126.0
1649,B3,116.5,0.5,80,126.0
1650,G2,116.5,0.25,80,126.0
1651,G2,116.75,0.25,80,126.0
1652,D5,117.0,0.5,80,126.0
1653,G4,117.0,0.5,80,126.0
1654,D4,117.0,0.5,80,126.0
1655,D4,117.0,0.5,80,126.0
1656,B3,117.0,0.5,80,126.0
1657,G3,117.0,0.5,80,126.0
1658,G2,117.0,0.5,80,126.0
1659,D2,117.0,0.25,80,126.0
1660,F#2,117.25,0.25,80,126.0
1661,D4,117.5,0.5,80,126.0
1662,B3,117.5,0.5,80,126.0
1663,G2,117.5,0.5,80,126.0
1664,G1,117.5,0.5,80,126.0
1665,A2,117.5,0.25,80,126.0
1666,G2,117.75,0.25,80,126.0
1667,G5,118.0,0.5,80,126.0
1668,G4,118.0,0.5,80,126.0
1669,D4,118.0,0.5,80,126.0
1670,D4,118.0,0.5,80,126.0
1671,B3,118.0,0.5,80,126.0
1672,G3,118.0,0.5,80,126.0
1673,G2,118.0,0.5,80,126.0
1674,D2,118.0,0.5,80,126.0
1675,D2,118.0,0.5,80,126.0
1676,A5,118.5,0.5,80,126.0
1677,A4,118.5,0.5,80,126.0
1678,A4,118.5,0.5,80,126.0
1679,D4,118.5,0.5,80,126.0
1680,B3,118.5,0.5,80,126.0
1681,G3,118.5,1.0,80,126.0
1682,G2,118.5,1.0,80,126.0
1683,C3,118.5,0.25,80,126.0
1684,C3,118.75,0.5,80,126.0
1685,B5,119.0,0.5,80,126.0
1686,B4,119.0,0.5,80,126.0
1687,B4,119.0,0.5,80,126.0
1688,D4,119.0,0.5,80,126.0
1689,B3,119.0,0.5,80,126.0
1690,C3,119.25,0.25,80,126.0
1691,D6,119.5,0.5,80,126.0
1692,D5,119.5,0.5,80,126.0
1693,D5,119.5,0.5,80,126.0
1694,D4,119.5,0.5,80,126.0
1695,B3,119.5,0.5,80,126.0
1696,G2,119.5,0.5,80,126.0
1697,G1,119.5,0.5,80,126.0
1698,A2,119.5,0.25,80,126.0
1699,G2,119.75,0.25,80,126.0
1700,C3,120.0,2.0,80,126.0
1701,A2,120.0,2.0,80,126.0
1702,E4,120.0,2.0,80,126.0
1703,E3,120.0,1829/1000,85,126.0
1704,A3,120.0,627/500,102,126.0
1705,A1,120.0,627/500,102,126.0
1706,B1,120.0,0.5,80,126.0
1707,A3,120.0,0.5,80,126.0
1708,E-3,120.5,0.5,80,126.0
1709,E5,121.0,0.5,80,126.0
1710,E4,121.0,0.5,80,126.0
1711,E5,121.0,0.5,80,126.0
1712,E4,121.0,0.5,80,126.0
1713,E4,121.0,0.5,80,126.0
1714,E5,121.0,0.5,80,126.0
1715,D2,121.0,0.5,80,126.0
1716,E-3,121.0,0.5,80,126.0
1717,F5,121.5,0.5,80,126.0
1718,F4,121.5,0.5,80,126.0
1719,F5,121.5,0.5,80,126.0
1720,F4,121.5,0.5,80,126.0
1721,F4,121.5,0.5,80,126.0
1722,F5,121.5,0.5,80,126.0
1723,A3,121.5,433/1000,102,126.0
1724,A1,121.5,433/1000,102,126.0
1725,B1,121.5,0.5,80,126.0
1726,E-3,121.5,0.5,80,126.0
1727,G5,122.0,0.5,80,126.0
1728,G4,122.0,0.5,80,126.0
1729,G5,122.0,0.5,80,126.0
1730,G4,122.0,0.5,80,126.0
1731,G4,122.0,0.5,80,126.0
1732,G5,122.0,0.5,80,126.0
1733,C3,122.0,2.0,80,126.0
1734,G2,122.0,2.0,80,126.0
1735,E4,122.0,2.0,80,126.0
1736,E3,122.0,403/250,72,126.0
1737,C4,122.0,139/125,93,126.0
1738,C2,122.0,139/125,93,126.0
1739,B1,122.0,0.5,80,126.0
1740,E-3,122.0,0.5,80,126.0
1741,C6,122.5,0.5,80,126.0
1742,C5,122.5,0.5,80,126.0
1743,C6,122.5,0.5,80,126.0
1744,C5,122.5,0.5,80,126.0
1745,C5,122.5,0.5,80,126.0
1746,C6,122.5,0.5,80,126.0
1747,E-3,122.5,0.5,80,126.0
1748,D2,123.0,0.5,80,126.0
1749,E-3,123.0,0.5,80,126.0
1750,B5,123.5,0.5,80,126.0
1751,B4,123.5,0.5,80,126.0
1752,B5,123.5,0.5,80,126.0
1753,B4,123.5,0.5,80,126.0
1754,B4,123.5,0.5,80,126.0
1755,B5,123.5,0.5,80,126.0
1756,C4,123.5,123/250,93,126.0
1757,C2,123.5,123/250,93,126.0
1758,B1,123.5,0.5,80,126.0
1759,E-3,123.5,0.5,80,126.0
1760,B2,124.0,2.0,80,126.0
1761,G2,124.0,2.0,80,126.0
1762,D4,124.0,2.0,80,126.0
1763,D3,124.0,1721/1000,56,126.0
1764,G3,124.0,273/250,98,126.0
1765,G1,124.0,273/250,98,126.0
1766,E-3,124.0,0.5,80,126.0
1767,G5,124.5,0.5,80,126.0
1768,G4,124.5,0.5,80,126.0
1769,G5,124.5,0.5,80,126.0
1770,G4,124.5,0.5,80,126.0
1771,G4,124.5,0.5,80,126.0
1772,G5,124.5,0.5,80,126.0
1773,B1,124.5,0.5,80,126.0
1774,E-3,124.5,0.5,80,126.0
1775,G4,125.0,277/500,72,126.0
1776,G2,125.0,277/500,72,126.0
1777,D2,125.0,0.5,80,126.0
1778,E-3,125.0,0.5,80,126.0
1779,G5,125.5,1.0,80,126.0
1780,G4,125.5,1.0,80,126.0
1781,G5,125.5,1.0,80,126.0
1782,G4,125.5,1.0,80,126.0
1783,G4,125.5,1.0,80,126.0
1784,G5,125.5,1.0,80,126.0
1785,G3,125.5,19/40,93,126.0
1786,G1,125.5,19/40,93,126.0
1787,B1,125.5,0.5,80,126.0
1788,E-3,125.5,0.5,80,126.0
1789,A2,126.0,2.0,80,126.0
1790,F2,126.0,2.0,80,126.0
1791,C4,126.0,2.0,80,126.0
1792,C3,126.0,869/500,85,126.0
1793,F3,126.0,23/40,98,126.0
1794,F1,126.0,23/40,98,126.0
1795,E-3,126.0,0.5,80,126.0
1796,A5,126.5,0.25,80,126.0
1797,A4,126.5,0.25,80,126.0
1798,A5,126.5,0.25,80,126.0
1799,A4,126.5,0.25,80,126.0
1800,A4,126.5,0.25,80,126.0
1801,A5,126.5,0.25,80,126.0
1802,F4,126.5,471/500,98,126.0
1803,F2,126.5,471/500,98,126.0
1804,B1,126.5,0.5,80,126.0
1805,E-3,126.5,0.5,80,126.0
1806,G5,126.75,0.25,80,126.0
1807,G4,126.75,0.25,80,126.0
1808,G5,126.75,0.25,80,126.0
1809,G4,126.75,0.25,80,126.0
1810,G4,126.75,0.25,80,126.0
1811,G5,126.75,0.25,80,126.0
1812,F5,127.0,1.0,80,126.0
1813,F4,127.0,1.0,80,126.0
1814,F5,127.0,1.0,80,126.0
1815,F4,127.0,1.0,80,126.0
1816,F4,127.0,1.0,80,126.0
1817,F5,127.0,1.0,80,126.0
1818,D2,127.0,0.5,80,126.0
1819,E-3,127.0,0.5,80,126.0
1820,F3,127.5,0.5,80,126.0
1821,F1,127.5,0.5,80,126.0
1822,B1,127.5,0.5,80,126.0
1823,E-3,127.5,0.5,80,126.0
1824,C3,128.0,2.0,80,126.0
1825,A2,128.0,2.0,80,126.0
1826,E4,128.0,2.0,80,126.0
1827,E3,128.0,1733/1000,72,126.0
1828,A3,128.0,571/500,107,126.0
1829,A1,128.0,571/500,107,126.0
1830,B1,128.0,0.5,80,126.0
1831,E-3,128.0,0.5,80,126.0
1832,E-3,128.5,0.5,80,126.0
1833,E5,129.0,0.5,80,126.0
1834,E4,129.0,0.5,80,126.0
1835,E5,129.0,0.5,80,126.0
1836,E4,129.0,0.5,80,126.0
1837,E4,129.0,0.5,80,126.0
1838,E5,129.0,0.5,80,126.0
1839,D2,129.0,0.5,80,126.0
1840,E-3,129.0,0.5,80,126.0
1841,F5,129.5,0.5,80,126.0
1842,F4,129.5,0.5,80,126.0
1843,F5,129.5,0.5,80,126.0
1844,F4,129.5,0.5,80,126.0
1845,F4,129.5,0.5,80,126.0
1846,F5,129.5,0.5,80,126.0
1847,A3,129.5,471/1000,102,126.0
1848,A1,129.5,471/1000,102,126.0
1849,B1,129.5,0.5,80,126.0
1850,E-3,129.5,0.5,80,126.0
1851,G5,130.0,0.5,80,126.0
1852,G4,130.0,0.5,80,126.0
1853,G5,130.0,0.5,80,126.0
1854,G4,130.0,0.5,80,126.0
1855,G4,130.0,0.5,80,126.0
1856,G5,130.0,0.5,80,126.0
1857,C3,130.0,2.0,80,126.0
1858,G2,130.0,2.0,80,126.0
1859,E4,130.0,2.0,80,126.0
1860,E3,130.0,73/40,60,126.0
1861,C4,130.0,1029/1000,93,126.0
1862,C2,130.0,1029/1000,93,126.0
1863,E-3,130.0,0.5,80,126.0
1864,C6,130.5,0.5,80,126.0
1865,C5,130.5,0.5,80,126.0
1866,C6,130.5,0.5,80,126.0
1867,C5,130.5,0.5,80,126.0
1868,C5,130.5,0.5,80,126.0
1869,C6,130.5,0.5,80,126.0
1870,B1,130.5,0.5,80,126.0
1871,E-3,130.5,0.5,80,126.0
1872,D2,131.0,0.5,80,126.0
1873,E-3,131.0,0.5,80,126.0
1874,B5,131.5,0.5,80,126.0
1875,B4,131.5,0.5,80,126.0
1876,B5,131.5,0.5,80,126.0
1877,B4,131.5,0.5,80,126.0
1878,B4,131.5,0.5,80,126.0
1879,B5,131.5,0.5,80,126.0
1880,C4,131.5,0.5,80,126.0
1881,C2,131.5,0.5,80,126.0
1882,B1,131.5,0.5,80,126.0
1883,E-3,131.5,0.5,80,126.0
1884,B2,132.0,4.0,80,126.0
1885,G2,132.0,4.0,80,126.0
1886,D4,132.0,4.0,80,126.0
1887,D3,132.0,1877/500,68,126.0
1888,G3,132.0,0.5,80,126.0
1889,G1,132.0,0.5,80,126.0
1890,E-3,132.0,0.5,80,126.0
1891,G5,132.5,0.5,80,126.0
1892,G4,132.5,0.5,80,126.0
1893,G5,132.5,0.5,80,126.0
1894,G4,132.5,0.5,80,126.0
1895,G4,132.5,0.5,80,126.0
1896,G5,132.5,0.5,80,126.0
1897,G3,132.5,177/250,102,126.0
1898,G1,132.5,177/250,102,126.0
1899,B1,132.5,0.5,80,126.0
1900,E-3,132.5,0.5,80,126.0
1901,D2,133.0,0.5,80,126.0
1902,E-3,133.0,0.5,80,126.0
1903,E5,133.5,0.5,80,126.0
1904,E4,133.5,0.5,80,126.0
1905,E5,133.5,0.5,80,126.0
1906,E4,133.5,0.5,80,126.0
1907,E4,133.5,0.5,80,126.0
1908,E5,133.5,0.5,80,126.0
1909,G3,133.5,499/500,93,126.0
1910,G1,133.5,499/500,93,126.0
1911,B1,133.5,0.5,80,126.0
1912,E-3,133.5,0.5,80,126.0
1913,D5,134.0,1.0,80,126.0
1914,D4,134.0,1.0,80,126.0
1915,D5,134.0,1.0,80,126.0
1916,D4,134.0,1.0,80,126.0
1917,D4,134.0,1.0,80,126.0
1918,D5,134.0,1.0,80,126.0
1919,C3,134.0,0.25,80,126.0
1920,C3,134.25,0.25,80,126.0
1921,G4,134.5,147/250,93,126.0
1922,G2,134.5,147/250,93,126.0
1923,A2,134.5,0.25,80,126.0
1924,A2,134.75,0.25,80,126.0
1925,G3,135.0,269/500,98,126.0
1926,G1,135.0,269/500,98,126.0
1927,A2,135.0,0.25,80,126.0
1928,C3,135.25,0.25,80,126.0
1929,G4,135.5,9/20,76,126.0
1930,G2,135.5,9/20,76,126.0
1931,G2,135.5,0.25,80,126.0
1932,G2,135.75,0.25,80,126.0
1933,C3,136.0,2.0,80,126.0
1934,A2,136.0,2.0,80,126.0
1935,E4,136.0,2.0,80,126.0
1936,E3,136.0,927/250,72,126.0
1937,A3,136.0,1179/1000,107,126.0
1938,A1,136.0,1179/1000,107,126.0
1939,B1,136.0,0.5,80,126.0
1940,A3,136.0,0.5,80,126.0
1941,E-3,136.5,0.5,80,126.0
1942,E5,137.0,0.5,80,126.0
1943,E4,137.0,0.5,80,126.0
1944,E5,137.0,0.5,80,126.0
1945,E4,137.0,0.5,80,126.0
1946,E4,137.0,0.5,80,126.0
1947,E5,137.0,0.5,80,126.0
1948,D2,137.0,0.5,80,126.0
1949,E-3,137.0,0.5,80,126.0
1950,F5,137.5,0.5,80,126.0
1951,F4,137.5,0.5,80,126.0
1952,F5,137.5,0.5,80,126.0
1953,F4,137.5,0.5,80,126.0
1954,F4,137.5,0.5,80,126.0
1955,F5,137.5,0.5,80,126.0
1956,A3,137.5,517/1000,98,126.0
1957,A1,137.5,517/1000,98,126.0
1958,B1,137.5,0.5,80,126.0
1959,E-3,137.5,0.5,80,126.0
1960,G5,138.0,0.5,80,126.0
1961,G4,138.0,0.5,80,126.0
1962,G5,138.0,0.5,80,126.0
1963,G4,138.0,0.5,80,126.0
1964,G4,138.0,0.5,80,126.0
1965,G5,138.0,0.5,80,126.0
1966,C3,138.0,2.0,80,126.0
1967,G2,138.0,2.0,80,126.0
1968,C4,138.0,2.0,80,126.0
1969,C3,138.0,9/5,60,126.0
1970,C4,138.0,967/1000,93,126.0
1971,C2,138.0,967/1000,93,126.0
1972,B1,138.0,0.5,80,126.0
1973,E-3,138.0,0.5,80,126.0
1974,C6,138.5,0.5,80,126.0
1975,C5,138.5,0.5,80,126.0
1976,C6,138.5,0.5,80,126.0
1977,C5,138.5,0.5,80,126.0
1978,C5,138.5,0.5,80,126.0
1979,C6,138.5,0.5,80,126.0
1980,E-3,138.5,0.5,80,126.0
1981,D2,139.0,0.5,80,126.0
1982,E-3,139.0,0.5,80,126.0
1983,B5,139.5,0.5,80,126.0
1984,B4,139.5,0.5,80,126.0
1985,B5,139.5,0.5,80,126.0
1986,B4,139.5,0.5,80,126.0
1987,B4,139.5,0.5,80,126.0
1988,B5,139.5,0.5,80,126.0
1989,C4,139.5,229/500,85,126.0
1990,C2,139.5,229/500,85,126.0
1991,B1,139.5,0.5,80,126.0
1992,E-3,139.5,0.5,80,126.0
1993,B2,140.0,2.0,80,126.0
1994,G2,140.0,2.0,80,126.0
1995,D4,140.0,2.0,80,126.0
1996,D3,140.0,423/250,64,126.0
1997,G3,140.0,0.5,80,126.0
1998,G1,140.0,0.5,80,126.0
1999,E-3,140.0,0.5,80,126.0
2000,G5,140.5,0.5,80,126.0
2001,G4,140.5,0.5,80,126.0
2002,G5,140.5,0.5,80,126.0
2003,G4,140.5,0.5,80,126.0
2004,G4,140.5,0.5,80,126.0
2005,G5,140.5,0.5,80,126.0
2006,G3,140.5,983/1000,102,126.0
2007,G1,140.5,983/1000,102,126.0
2008,B1,140.5,0.5,80,126.0
2009,E-3,140.5,0.5,80,126.0
2010,D2,141.0,0.5,80,126.0
2011,E-3,141.0,0.5,80,126.0
2012,G5,141.5,1.0,80,126.0
2013,G4,141.5,1.0,80,126.0
2014,G5,141.5,1.0,80,126.0
2015,G4,141.5,1.0,80,126.0
2016,G4,141.5,1.0,80,126.0
2017,G5,141.5,1.0,80,126.0
2018,G#3,141.5,0.5,80,126.0
2019,G#1,141.5,0.5,80,126.0
2020,B1,141.5,0.5,80,126.0
2021,E-3,141.5,0.5,80,126.0
2022,A2,142.0,2.0,80,126.0
2023,F2,142.0,2.0,80,126.0
2024,C4,142.0,2.0,80,126.0
2025,C3,142.0,2.0,85,126.0
2026,F3,142.0,0.5,80,126.0
2027,F1,142.0,0.5,80,126.0
2028,E-3,142.0,0.5,80,126.0
2029,A5,142.5,0.25,80,126.0
2030,A4,142.5,0.25,80,126.0
2031,A5,142.5,0.25,80,126.0
2032,A4,142.5,0.25,80,126.0
2033,A4,142.5,0.25,80,126.0
2034,A5,142.5,0.25,80,126.0
2035,F3,142.5,269/500,107,126.0
2036,F1,142.5,269/500,107,126.0
2037,B1,142.5,0.5,80,126.0
2038,E-3,142.5,0.5,80,126.0
2039,G5,142.75,0.25,80,126.0
2040,G4,142.75,0.25,80,126.0
2041,G5,142.75,0.25,80,126.0
2042,G4,142.75,0.25,80,126.0
2043,G4,142.75,0.25,80,126.0
2044,G5,142.75,0.25,80,126.0
2045,F5,143.0,1.0,80,126.0
2046,F4,143.0,1.0,80,126.0
2047,F5,143.0,1.0,80,126.0
2048,F4,143.0,1.0,80,126.0
2049,F4,143.0,1.0,80,126.0
2050,F5,143.0,1.0,80,126.0
2051,F4,143.0,19/20,98,126.0
2052,F2,143.0,19/20,98,126.0
2053,D2,143.0,0.5,80,126.0
2054,E-3,143.0,0.5,80,126.0
2055,B1,143.5,0.5,80,126.0
2056,E-3,143.5,0.5,80,126.0
2057,C3,144.0,3/40,85,126.0
2058,F3,144.0,223/500,127,126.0
2059,F1,144.0,223/500,127,126.0
2060,B1,144.0,1.0,80,126.0
2061,E5,145.0,0.5,80,126.0
2062,E4,145.0,0.5,80,126.0
2063,E5,145.0,0.5,80,126.0
2064,E4,145.0,0.5,80,126.0
2065,E4,145.0,0.5,80,126.0
2066,E5,145.0,0.5,80,126.0
2067,D5,145.5,0.5,80,126.0
2068,D4,145.5,0.5,80,126.0
2069,D5,145.5,0.5,80,126.0
2070,D4,145.5,0.5,80,126.0
2071,D4,145.5,0.5,80,126.0
2072,D5,145.5,0.5,80,126.0
2073,E5,146.0,1.0,80,126.0
2074,E4,146.0,1.0,80,126.0
2075,E5,146.0,1.0,80,126.0
2076,E4,146.0,1.0,80,126.0
2077,E4,146.0,1.0,80,126.0
2078,E5,146.0,1.0,80,126.0
2079,D5,147.0,0.5,80,126.0
2080,D4,147.0,0.5,80,126.0
2081,D5,147.0,0.5,80,126.0
2082,D4,147.0,0.5,80,126.0
2083,D4,147.0,0.5,80,126.0
2084,D5,147.0,0.5,80,126.0
2085,C5,147.5,0.5,80,126.0
2086,C4,147.5,0.5,80,126.0
2087,C5,147.5,0.5,80,126.0
2088,C4,147.5,0.5,80,126.0
2089,C4,147.5,0.5,80,126.0
2090,C5,147.5,0.5,80,126.0
2091,C5,148.0,1.0,80,126.0
2092,C4,148.0,1.0,80,126.0
2093,C5,148.0,1.0,80,126.0
2094,C4,148.0,1.0,80,126.0
2095,C4,148.0,1.0,80,126.0
2096,C5,148.0,1.0,80,126.0
2097,D2,149.0,1.0,80,126.0
2098,D2,149.0,1.0,80,126.0
2099,A2,150.0,317/1000,107,126.0
2100,A2,150.0,317/1000,107,126.0
2101,A3,150.0,317/1000,107,126.0
2102,A2,150.0,317/1000,107,126.0
2103,A3,150.0,317/1000,107,126.0
2104,A1,150.0,317/1000,107,126.0
2105,B1,150.0,0.5,80,126.0
2106,C#3,150.0,0.5,80,126.0
2107,A3,150.5,38/125,98,126.0
2108,A3,150.5,38/125,98,126.0
2109,A4,150.5,38/125,98,126.0
2110,A3,150.5,38/125,98,126.0
2111,A4,150.5,38/125,98,126.0
2112,A2,150.5,38/125,98,126.0
2113,B1,150.5,0.5,80,126.0
2114,E-3,150.5,0.5,80,126.0
2115,G3,150.75,279/1000,85,126.0
2116,G3,150.75,279/1000,85,126.0
2117,G4,150.75,279/1000,85,126.0
2118,G3,150.75,279/1000,85,126.0
2119,G4,150.75,279/1000,85,126.0
2120,G2,150.75,279/1000,85,126.0
2121,E3,151.0,9/40,98,126.0
2122,E3,151.0,9/40,98,126.0
2123,E4,151.0,9/40,98,126.0
2124,E3,151.0,9/40,98,126.0
2125,E4,151.0,9/40,98,126.0
2126,E2,151.0,9/40,98,126.0
2127,G#2,151.0,0.25,80,126.0
2128,D2,151.0,0.5,80,126.0
2129,E-3,151.0,0.5,80,126.0
2130,D3,151.25,131/500,107,126.0
2131,D3,151.25,131/500,107,126.0
2132,D4,151.25,131/500,107,126.0
2133,D3,151.25,131/500,107,126.0
2134,D4,151.25,131/500,107,126.0
2135,D2,151.25,131/500,107,126.0
2136,C3,151.5,171/500,107,126.0
2137,C3,151.5,171/500,107,126.0
2138,C4,151.5,171/500,107,126.0
2139,C3,151.5,171/500,107,126.0
2140,C4,151.5,171/500,107,126.0
2141,C2,151.5,171/500,107,126.0
2142,E-3,151.5,0.5,80,126.0
2143,A2,151.75,77/500,113,126.0
2144,A2,151.75,77/500,113,126.0
2145,A3,151.75,77/500,113,126.0
2146,A2,151.75,77/500,113,126.0
2147,A3,151.75,77/500,113,126.0
2148,A1,151.75,77/500,113,126.0
2149,C3,152.0,379/1000,119,126.0
2150,C3,152.0,379/1000,119,126.0
2151,C4,152.0,379/1000,119,126.0
2152,C3,152.0,379/1000,119,126.0
2153,C4,152.0,379/1000,119,126.0
2154,C2,152.0,379/1000,119,126.0
2155,B1,152.0,0.5,80,126.0
2156,E-3,152.0,0.5,80,126.0
2157,D3,152.5,74/125,107,126.0
2158,D3,152.5,74/125,107,126.0
2159,D4,152.5,74/125,107,126.0
2160,D3,152.5,74/125,107,126.0
2161,D4,152.5,74/125,107,126.0
2162,D2,152.5,74/125,107,126.0
2163,B1,152.5,0.5,80,126.0
2164,E-3,152.5,0.5,80,126.0
2165,G#2,153.0,0.25,80,126.0
2166,D2,153.0,0.5,80,126.0
2167,E-3,153.0,0.5,80,126.0
2168,G2,153.5,0.5,113,126.0
2169,G2,153.5,0.5,113,126.0
2170,G3,153.5,0.5,113,126.0
2171,G2,153.5,0.5,113,126.0
2172,G3,153.5,0.5,113,126.0
2173,G1,153.5,0.5,113,126.0
2174,E-3,153.5,0.5,80,126.0
2175,G2,154.0,21/1000,113,126.0
2176,G2,154.0,21/1000,113,126.0
2177,G3,154.0,21/1000,113,126.0
2178,G2,154.0,21/1000,113,126.0
2179,G3,154.0,21/1000,113,126.0
2180,G1,154.0,21/1000,113,126.0
2181,B1,154.0,0.5,80,126.0
2182,E-3,154.0,0.5,80,126.0
2183,A2,154.5,279/500,107,126.0
2184,A2,154.5,279/500,107,126.0
2185,A3,154.5,279/500,107,126.0
2186,A2,154.5,279/500,107,126.0
2187,A3,154.5,279/500,107,126.0
2188,A1,154.5,279/500,107,126.0
2189,B1,154.5,0.5,80,126.0
2190,E-3,154.5,0.5,80,126.0
2191,G#2,155.0,0.25,80,126.0
2192,D2,155.0,0.5,80,126.0
2193,E-3,155.0,0.5,80,126.0
2194,A3,155.5,49/125,119,126.0
2195,A3,155.5,49/125,119,126.0
2196,D5,155.5,0.5,80,126.0
2197,D4,155.5,49/125,119,126.0
2198,D4,155.5,49/125,119,126.0
2199,D2,155.5,49/125,119,126.0
2200,E-3,155.5,0.5,80,126.0
2201,B1,156.0,0.5,80,126.0
2202,E-3,156.0,0.5,80,126.0
2203,G3,156.5,723/500,113,126.0
2204,G3,156.5,723/500,113,126.0
2205,C5,156.5,1.5,80,126.0
2206,C4,156.5,723/500,113,126.0
2207,C4,156.5,723/500,113,126.0
2208,C2,156.5,723/500,113,126.0
2209,B1,156.5,0.5,80,126.0
2210,E-3,156.5,0.5,80,126.0
2211,D2,157.0,0.25,80,126.0
2212,B1,157.25,0.25,80,126.0
2213,D2,157.5,0.25,80,126.0
2214,G#2,157.75,0.25,80,126.0
2215,D2,157.75,0.25,80,126.0
2216,A2,158.0,329/1000,113,126.0
2217,A2,158.0,329/1000,113,126.0
2218,A3,158.0,329/1000,113,126.0
2219,A2,158.0,329/1000,113,126.0
2220,A3,158.0,329/1000,113,126.0
2221,A1,158.0,329/1000,113,126.0
2222,B1,158.0,0.5,80,126.0
2223,E-3,158.0,0.5,80,126.0
2224,A3,158.5,317/1000,102,126.0
2225,A3,158.5,317/1000,102,126.0
2226,A4,158.5,317/1000,102,126.0
2227,A3,158.5,317/1000,102,126.0
2228,A4,158.5,317/1000,102,126.0
2229,A2,158.5,317/1000,102,126.0
2230,B1,158.5,0.5,80,126.0
2231,E-3,158.5,0.5,80,126.0
2232,G3,158.75,267/1000,93,126.0
2233,G3,158.75,267/1000,93,126.0
2234,G4,158.75,267/1000,93,126.0
2235,G3,158.75,267/1000,93,126.0
2236,G4,158.75,267/1000,93,126.0
2237,G2,158.75,267/1000,93,126.0
2238,E3,159.0,123/500,93,126.0
2239,E3,159.0,123/500,93,126.0
2240,E4,159.0,123/500,93,126.0
2241,E3,159.0,123/500,93,126.0
2242,E4,159.0,123/500,93,126.0
2243,E2,159.0,123/500,93,126.0
2244,G#2,159.0,0.5,80,126.0
2245,D2,159.0,0.5,80,126.0
2246,E-3,159.0,0.5,80,126.0
2247,D3,159.25,36/125,102,126.0
2248,D3,159.25,36/125,102,126.0
2249,D4,159.25,36/125,102,126.0
2250,D3,159.25,36/125,102,126.0
2251,D4,159.25,36/125,102,126.0
2252,D2,159.25,36/125,102,126.0
2253,C3,159.5,171/500,107,126.0
2254,C3,159.5,171/500,107,126.0
2255,C4,159.5,171/500,107,126.0
2256,C3,159.5,171/500,107,126.0
2257,C4,159.5,171/500,107,126.0
2258,C2,159.5,171/500,107,126.0
2259,E-3,159.5,0.5,80,126.0
2260,A2,159.75,167/1000,113,126.0
2261,A2,159.75,167/1000,113,126.0
2262,A3,159.75,167/1000,113,126.0
2263,A2,159.75,167/1000,113,126.0
2264,A3,159.75,167/1000,113,126.0
2265,A1,159.75,167/1000,113,126.0
2266,C3,160.0,97/250,119,126.0
2267,C3,160.0,97/250,119,126.0
2268,C4,160.0,97/250,119,126.0
2269,C3,160.0,97/250,119,126.0
2270,C4,160.0,97/250,119,126.0
2271,C2,160.0,97/250,119,126.0
2272,B1,160.0,0.5,80,126.0
2273,E-3,160.0,0.5,80,126.0
2274,D3,160.5,567/1000,107,126.0
2275,D3,160.5,567/1000,107,126.0
2276,D4,160.5,567/1000,107,126.0
2277,D3,160.5,567/1000,107,126.0
2278,D4,160.5,567/1000,107,126.0
2279,D2,160.5,567/1000,107,126.0
2280,B1,160.5,0.5,80,126.0
2281,E-3,160.5,0.5,80,126.0
2282,G#2,161.0,0.5,80,126.0
2283,D2,161.0,0.5,80,126.0
2284,E-3,161.0,0.5,80,126.0
2285,G2,161.5,0.5,113,126.0
2286,G2,161.5,0.5,113,126.0
2287,G3,161.5,0.5,113,126.0
2288,G2,161.5,0.5,113,126.0
2289,G3,161.5,0.5,113,126.0
2290,G1,161.5,0.5,113,126.0
2291,E-3,161.5,0.5,80,126.0
2292,G2,162.0,14/125,113,126.0
2293,G2,162.0,14/125,113,126.0
2294,G3,162.0,14/125,113,126.0
2295,G2,162.0,14/125,113,126.0
2296,G3,162.0,14/125,113,126.0
2297,G1,162.0,14/125,113,126.0
2298,B1,162.0,0.5,80,126.0
2299,E-3,162.0,0.5,80,126.0
2300,A2,162.5,64/125,113,126.0
2301,A2,162.5,64/125,113,126.0
2302,A3,162.5,64/125,113,126.0
2303,A2,162.5,64/125,113,126.0
2304,A3,162.5,64/125,113,126.0
2305,A1,162.5,64/125,113,126.0
2306,B1,162.5,0.5,80,126.0
2307,E-3,162.5,0.5,80,126.0
2308,G#2,163.0,0.5,80,126.0
2309,D2,163.0,0.5,80,126.0
2310,E-3,163.0,0.5,80,126.0
2311,A3,163.5,999/500,113,126.0
2312,A3,163.5,999/500,113,126.0
2313,D5,163.5,999/500,113,126.0
2314,D4,163.5,999/500,113,126.0
2315,D4,163.5,999/500,113,126.0
2316,D2,163.5,999/500,113,126.0
2317,E-3,163.5,0.5,80,126.0
2318,B1,164.0,0.5,80,126.0
2319,E-3,164.0,0.5,80,126.0
2320,B1,164.5,0.5,80,126.0
2321,E-3,164.5,0.5,80,126.0
2322,D2,165.0,0.25,80,126.0
2323,B1,165.25,0.75,80,126.0
2324,B-2,165.25,0.75,80,126.0
2325,A2,166.0,317/1000,107,126.0
2326,A2,166.0,317/1000,107,126.0
2327,A3,166.0,317/1000,107,126.0
2328,A2,166.0,317/1000,107,126.0
2329,A3,166.0,317/1000,107,126.0
2330,A1,166.0,317/1000,107,126.0
2331,B1,166.0,0.5,80,126.0
2332,C#3,166.0,0.5,80,126.0
2333,A3,166.5,38/125,98,126.0
2334,A3,166.5,38/125,98,126.0
2335,A4,166.5,38/125,98,126.0
2336,A3,166.5,38/125,98,126.0
2337,A4,166.5,38/125,98,126.0
2338,A2,166.5,38/125,98,126.0
2339,B1,166.5,0.5,80,126.0
2340,E-3,166.5,0.5,80,126.0
2341,G3,166.75,279/1000,85,126.0
2342,G3,166.75,279/1000,85,126.0
2343,G4,166.75,279/1000,85,126.0
2344,G3,166.75,279/1000,85,126.0
2345,G4,166.75,279/1000,85,126.0
2346,G2,166.75,279/1000,85,126.0
2347,E3,167.0,9/40,98,126.0
2348,E3,167.0,9/40,98,126.0
2349,E4,167.0,9/40,98,126.0
2350,E3,167.0,9/40,98,126.0
2351,E4,167.0,9/40,98,126.0
2352,E2,167.0,9/40,98,126.0
2353,G#2,167.0,0.25,80,126.0
2354,D2,167.0,0.5,80,126.0
2355,E-3,167.0,0.5,80,126.0
2356,D3,167.25,131/500,107,126.0
2357,D3,167.25,131/500,107,126.0
2358,D4,167.25,131/500,107,126.0
2359,D3,167.25,131/500,107,126.0
2360,D4,167.25,131/500,107,126.0
2361,D2,167.25,131/500,107,126.0
2362,C3,167.5,171/500,107,126.0
2363,C3,167.5,171/500,107,126.0
2364,C4,167.5,171/500,107,126.0
2365,C3,167.5,171/500,107,126.0
2366,C4,167.5,171/500,107,126.0
2367,C2,167.5,171/500,107,126.0
2368,E-3,167.5,0.5,80,126.0
2369,A2,167.75,77/500,113,126.0
2370,A2,167.75,77/500,113,126.0
2371,A3,167.75,77/500,113,126.0
2372,A2,167.75,77/500,113,126.0
2373,A3,167.75,77/500,113,126.0
2374,A1,167.75,77/500,113,126.0
2375,C3,168.0,379/1000,119,126.0
2376,C3,168.0,379/1000,119,126.0
2377,C4,168.0,379/1000,119,126.0
2378,C3,168.0,379/1000,119,126.0
2379,C4,168.0,379/1000,119,126.0
2380,C2,168.0,379/1000,119,126.0
2381,B1,168.0,0.5,80,126.0
2382,E-3,168.0,0.5,80,126.0
2383,D3,168.5,74/125,107,126.0
2384,D3,168.5,74/125,107,126.0
2385,D4,168.5,74/125,107,126.0
2386,D3,168.5,74/125,107,126.0
2387,D4,168.5,74/125,107,126.0
2388,D2,168.5,74/125,107,126.0
2389,B1,168.5,0.5,80,126.0
2390,E-3,168.5,0.5,80,126.0
2391,G#2,169.0,0.25,80,126.0
2392,D2,169.0,0.5,80,126.0
2393,E-3,169.0,0.5,80,126.0
2394,G2,169.5,0.5,113,126.0
2395,G2,169.5,0.5,113,126.0
2396,G3,169.5,0.5,113,126.0
2397,G2,169.5,0.5,113,126.0
2398,G3,169.5,0.5,113,126.0
2399,G1,169.5,0.5,113,126.0
2400,E-3,169.5,0.5,80,126.0
2401,G2,170.0,21/1000,113,126.0
2402,G2,170.0,21/1000,113,126.0
2403,G3,170.0,21/1000,113,126.0
2404,G2,170.0,21/1000,113,126.0
2405,G3,170.0,21/1000,113,126.0
2406,G1,170.0,21/1000,113,126.0
2407,B1,170.0,0.5,80,126.0
2408,E-3,170.0,0.5,80,126.0
2409,A2,170.5,279/500,107,126.0
2410,A2,170.5,279/500,107,126.0
2411,A3,170.5,279/500,107,126.0
2412,A2,170.5,279/500,107,126.0
2413,A3,170.5,279/500,107,126.0
2414,A1,170.5,279/500,107,126.0
2415,B1,170.5,0.5,80,126.0
2416,E-3,170.5,0.5,80,126.0
2417,G#2,171.0,0.25,80,126.0
2418,D2,171.0,0.5,80,126.0
2419,E-3,171.0,0.5,80,126.0
2420,A3,171.5,49/125,119,126.0
2421,A3,171.5,49/125,119,126.0
2422,D5,171.5,0.5,80,126.0
2423,D4,171.5,49/125,119,126.0
2424,D4,171.5,49/125,119,126.0
2425,D2,171.5,49/125,119,126.0
2426,E-3,171.5,0.5,80,126.0
2427,B1,172.0,0.5,80,126.0
2428,E-3,172.0,0.5,80,126.0
2429,G3,172.5,723/500,113,126.0
2430,G3,172.5,723/500,113,126.0
2431,C5,172.5,1.5,80,126.0
2432,C4,172.5,723/500,113,126.0
2433,C4,172.5,723/500,113,126.0
2434,C2,172.5,723/500,113,126.0
2435,B1,172.5,0.5,80,126.0
2436,E-3,172.5,0.5,80,126.0
2437,D2,173.0,0.25,80,126.0
2438,B1,173.25,0.25,80,126.0
2439,D2,173.5,0.25,80,126.0
2440,G#2,173.75,0.25,80,126.0
2441,D2,173.75,0.25,80,126.0
2442,A2,174.0,329/1000,113,126.0
2443,A2,174.0,329/1000,113,126.0
2444,A3,174.0,329/1000,113,126.0
2445,A2,174.0,329/1000,113,126.0
2446,A3,174.0,329/1000,113,126.0
2447,A1,174.0,329/1000,113,126.0
2448,B1,174.0,0.5,80,126.0
2449,E-3,174.0,0.5,80,126.0
2450,A3,174.5,317/1000,102,126.0
2451,A3,174.5,317/1000,102,126.0
2452,A4,174.5,317/1000,102,126.0
2453,A3,174.5,317/1000,102,126.0
2454,A4,174.5,317/1000,102,126.0
2455,A2,174.5,317/1000,102,126.0
2456,B1,174.5,0.5,80,126.0
2457,E-3,174.5,0.5,80,126.0
2458,G3,174.75,267/1000,93,126.0
2459,G3,174.75,267/1000,93,126.0
2460,G4,174.75,267/1000,93,126.0
2461,G3,174.75,267/1000,93,126.0
2462,G4,174.75,267/1000,93,126.0
2463,G2,174.75,267/1000,93,126.0
2464,E3,175.0,123/500,93,126.0
2465,E3,175.0,123/500,93,126.0
2466,E4,175.0,123/500,93,126.0
2467,E3,175.0,123/500,93,126.0
2468,E4,175.0,123/500,93,126.0
2469,E2,175.0,123/500,93,126.0
2470,G#2,175.0,0.5,80,126.0
2471,D2,175.0,0.5,80,126.0
2472,E-3,175.0,0.5,80,126.0
2473,D3,175.25,36/125,102,126.0
2474,D3,175.25,36/125,102,126.0
2475,D4,175.25,36/125,102,126.0
2476,D3,175.25,36/125,102,126.0
2477,D4,175.25,36/125,102,126.0
2478,D2,175.25,36/125,102,126.0
2479,C3,175.5,171/500,107,126.0
2480,C3,175.5,171/500,107,126.0
2481,C4,175.5,171/500,107,126.0
2482,C3,175.5,171/500,107,126.0
2483,C4,175.5,171/500,107,126.0
2484,C2,175.5,171/500,107,126.0
2485,E-3,175.5,0.5,80,126.0
2486,A2,175.75,167/1000,113,126.0
2487,A2,175.75,167/1000,113,126.0
2488,A3,175.75,167/1000,113,126.0
2489,A2,175.75,167/1000,113,126.0
2490,A3,175.75,167/1000,113,126.0
2491,A1,175.75,167/1000,113,126.0
2492,C3,176.0,97/250,119,126.0
2493,C3,176.0,97/250,119,126.0
2494,C4,176.0,97/250,119,126.0
2495,C3,176.0,97/250,119,126.0
2496,C4,176.0,97/250,119,126.0
2497,C2,176.0,97/250,119,126.0
2498,B1,176.0,0.5,80,126.0
2499,E-3,176.0,0.5,80,126.0
2500,D3,176.5,567/1000,107,126.0
2501,D3,176.5,567/1000,107,126.0
2502,D4,176.5,567/1000,107,126.0
2503,D3,176.5,567/1000,107,126.0
2504,D4,176.5,567/1000,107,126.0
2505,D2,176.5,567/1000,107,126.0
2506,B1,176.5,0.5,80,126.0
2507,E-3,176.5,0.5,80,126.0
2508,G#2,177.0,0.5,80,126.0
2509,D2,177.0,0.5,80,126.0
2510,E-3,177.0,0.5,80,126.0
2511,G2,177.5,0.5,113,126.0
2512,G2,177.5,0.5,113,126.0
2513,G3,177.5,0.5,113,126.0
2514,G2,177.5,0.5,113,126.0
2515,G3,177.5,0.5,113,126.0
2516,G1,177.5,0.5,113,126.0
2517,E-3,177.5,0.5,80,126.0
2518,G2,178.0,14/125,113,126.0
2519,G2,178.0,14/125,113,126.0
2520,G3,178.0,14/125,113,126.0
2521,G2,178.0,14/125,113,126.0
2522,G3,178.0,14/125,113,126.0
2523,G1,178.0,14/125,113,126.0
2524,B1,178.0,0.5,80,126.0
2525,E-3,178.0,0.5,80,126.0
2526,A2,178.5,64/125,113,126.0
2527,A2,178.5,64/125,113,126.0
2528,A3,178.5,64/125,113,126.0
2529,A2,178.5,64/125,113,126.0
2530,A3,178.5,64/125,113,126.0
2531,A1,178.5,64/125,113,126.0
2532,B1,178.5,0.5,80,126.0
2533,E-3,178.5,0.5,80,126.0
2534,G#2,179.0,0.5,80,126.0
2535,D2,179.0,0.5,80,126.0
2536,E-3,179.0,0.5,80,126.0
2537,A3,179.5,999/500,113,126.0
2538,A3,179.5,999/500,113,126.0
2539,D5,179.5,999/500,113,126.0
2540,D4,179.5,999/500,113,126.0
2541,D4,179.5,999/500,113,126.0
2542,D2,179.5,999/500,113,126.0
2543,E-3,179.5,0.5,80,126.0
2544,B1,180.0,0.5,80,126.0
2545,E-3,180.0,0.5,80,126.0
2546,B1,180.5,0.5,80,126.0
2547,E-3,180.5,0.5,80,126.0
2548,D2,181.0,0.25,80,126.0
2549,B1,181.25,0.75,80,126.0
2550,B-2,181.25,0.75,80,126.0
2551,E3,182.0,229/500,107,126.0
2552,E3,182.0,229/500,107,126.0
2553,E4,182.0,229/500,107,126.0
2554,E3,182.0,229/500,107,126.0
2555,E4,182.0,229/500,107,126.0
2556,E2,182.0,229/500,107,126.0
2557,F#2,182.0,0.5,80,126.0
2558,E6,182.25,0.125,127,126.0
2559,E4,182.5,229/500,113,126.0
2560,E4,182.5,229/500,113,126.0
2561,E5,182.5,229/500,113,126.0
2562,E4,182.5,229/500,113,126.0
2563,E5,182.5,229/500,113,126.0
2564,E3,182.5,229/500,113,126.0
2565,E6,182.5,3/20,119,126.0
2566,F#2,182.5,0.5,80,126.0
2567,E6,182.667,69/500,98,126.0
2568,B5,182.833,69/500,93,126.0
2569,E6,183.0,73/500,98,126.0
2570,F#2,183.0,0.5,80,126.0
2571,E-4,183.5,229/500,107,126.0
2572,E-4,183.5,229/500,107,126.0
2573,E-5,183.5,229/500,107,126.0
2574,E-4,183.5,229/500,107,126.0
2575,E-5,183.5,229/500,107,126.0
2576,E-3,183.5,229/500,107,126.0
2577,F#2,183.5,0.5,80,126.0
2578,E6,183.5,71/500,103,126.0
2579,B5,183.5,71/500,103,126.0
2580,G6,184.0,3/5,127,126.0
2581,F#2,184.0,0.5,80,126.0
2582,C#4,184.5,229/500,102,126.0
2583,C#4,184.5,229/500,102,126.0
2584,C#5,184.5,229/500,102,126.0
2585,C#4,184.5,229/500,102,126.0
2586,C#5,184.5,229/500,102,126.0
2587,C#3,184.5,229/500,102,126.0
2588,F6,184.5,3/20,57,126.0
2589,F#2,184.5,0.5,80,126.0
2590,C6,184.75,1/10,113,126.0
2591,F#2,185.0,0.5,80,126.0
2592,C5,185.0,67/1000,98,126.0
2593,D5,185.0,67/1000,98,126.0
2594,B3,185.5,229/500,107,126.0
2595,B3,185.5,229/500,107,126.0
2596,B4,185.5,229/500,107,126.0
2597,B3,185.5,229/500,107,126.0
2598,B4,185.5,229/500,107,126.0
2599,B2,185.5,229/500,107,126.0
2600,F#2,185.5,0.5,80,126.0
2601,F#2,186.0,0.5,80,126.0
2602,A3,186.5,229/500,113,126.0
2603,A3,186.5,229/500,113,126.0
2604,A4,186.5,229/500,113,126.0
2605,A3,186.5,229/500,113,126.0
2606,A4,186.5,229/500,113,126.0
2607,A2,186.5,229/500,113,126.0
2608,G6,186.5,77/250,113,126.0
2609,E6,186.5,26/125,127,126.0
2610,F#2,186.5,0.5,80,126.0
2611,F#2,187.0,0.5,80,126.0
2612,G6,187.25,171/500,119,126.0
2613,E-6,187.25,121/1000,119,126.0
2614,G3,187.5,229/500,113,126.0
2615,G3,187.5,229/500,113,126.0
2616,G4,187.5,229/500,113,126.0
2617,G3,187.5,229/500,113,126.0
2618,G4,187.5,229/500,113,126.0
2619,G2,187.5,229/500,113,126.0
2620,G6,187.5,97/250,98,126.0
2621,F#2,187.5,0.5,80,126.0
2622,B5,187.75,0.188,113,126.0
2623,A5,188.0,183/1000,119,126.0
2624,F#2,188.0,0.5,80,126.0
2625,G6,188.25,121/500,107,126.0
2626,D4,188.5,187/250,127,126.0
2627,D4,188.5,187/250,127,126.0
2628,D5,188.5,187/250,127,126.0
2629,D4,188.5,187/250,127,126.0
2630,D5,188.5,187/250,127,126.0
2631,D3,188.5,187/250,127,126.0
2632,D6,188.5,317/1000,89,126.0
2633,F#2,188.5,0.5,80,126.0
2634,B5,188.75,0.188,113,126.0
2635,A5,189.0,171/1000,119,126.0
2636,F#2,189.0,0.5,80,126.0
2637,G4,189.25,89/125,127,126.0
2638,G4,189.25,89/125,127,126.0
2639,G5,189.25,89/125,127,126.0
2640,G4,189.25,89/125,127,126.0
2641,G5,189.25,89/125,127,126.0
2642,G3,189.25,89/125,127,126.0
2643,B-5,189.5,3/20,93,126.0
2644,B-2,189.5,0.5,80,126.0
2645,G5,189.75,179/1000,89,126.0
2646,E3,190.0,229/500,102,126.0
2647,E3,190.0,229/500,102,126.0
2648,E4,190.0,229/500,102,126.0
2649,E3,190.0,229/500,102,126.0
2650,E4,190.0,229/500,102,126.0
2651,E2,190.0,229/500,102,126.0
2652,A5,190.0,37/125,102,126.0
2653,E6,190.0,483/1000,102,126.0
2654,F#2,190.0,0.5,80,126.0
2655,E4,190.5,229/500,113,126.0
2656,E4,190.5,229/500,113,126.0
2657,E5,190.5,229/500,113,126.0
2658,E4,190.5,229/500,113,126.0
2659,E5,190.5,229/500,113,126.0
2660,E3,190.5,229/500,113,126.0
2661,E5,190.5,233/1000,127,126.0
2662,F#2,190.5,0.5,80,126.0
2663,G5,191.0,24/125,102,126.0
2664,F#2,191.0,0.5,80,126.0
2665,E5,191.167,24/125,98,126.0
2666,G4,191.333,127/500,93,126.0
2667,E-4,191.5,229/500,107,126.0
2668,E-4,191.5,229/500,107,126.0
2669,E-5,191.5,229/500,107,126.0
2670,E-4,191.5,229/500,107,126.0
2671,E-5,191.5,229/500,107,126.0
2672,E-3,191.5,229/500,107,126.0
2673,B4,191.5,77/500,119,126.0
2674,F#2,191.5,0.5,80,126.0
2675,D5,191.75,14/125,107,126.0
2676,G5,192.0,123/500,107,126.0
2677,F#2,192.0,0.5,80,126.0
2678,A5,192.25,79/500,107,126.0
2679,C#4,192.5,229/500,107,126.0
2680,C#4,192.5,229/500,107,126.0
2681,C#5,192.5,229/500,107,126.0
2682,C#4,192.5,229/500,107,126.0
2683,C#5,192.5,229/500,107,126.0
2684,C#3,192.5,229/500,107,126.0
2685,B5,192.5,51/250,89,126.0
2686,F#2,192.5,0.5,80,126.0
2687,D6,192.75,36/125,93,126.0
2688,B5,193.0,233/1000,113,126.0
2689,F#2,193.0,0.5,80,126.0
2690,E6,193.25,24/125,107,126.0
2691,B3,193.5,229/500,113,126.0
2692,B3,193.5,229/500,113,126.0
2693,B4,193.5,229/500,113,126.0
2694,B3,193.5,229/500,113,126.0
2695,B4,193.5,229/500,113,126.0
2696,B2,193.5,229/500,113,126.0
2697,D6,193.5,129/500,102,126.0
2698,F#2,193.5,0.5,80,126.0
2699,G6,193.75,26/125,107,126.0
2700,D4,194.0,229/500,107,126.0
2701,D4,194.0,229/500,107,126.0
2702,D5,194.0,229/500,107,126.0
2703,D4,194.0,229/500,107,126.0
2704,D5,194.0,229/500,107,126.0
2705,D3,194.0,229/500,107,126.0
2706,E6,194.0,79/500,80,126.0
2707,F#2,194.0,0.5,80,126.0
2708,E6,194.25,123/500,102,126.0
2709,F#3,194.5,229/500,119,126.0
2710,F#3,194.5,229/500,119,126.0
2711,F#4,194.5,229/500,119,126.0
2712,F#3,194.5,229/500,119,126.0
2713,F#4,194.5,229/500,119,126.0
2714,F#2,194.5,229/500,119,126.0
2715,B-6,194.5,9/40,93,126.0
2716,B-2,194.5,0.5,80,126.0
2717,A6,194.75,119/500,76,126.0
2718,G6,195.0,1/5,89,126.0
2719,F#2,195.0,0.5,80,126.0
2720,B6,195.25,279/1000,102,126.0
2721,G3,195.5,229/500,113,126.0
2722,G3,195.5,229/500,113,126.0
2723,G4,195.5,229/500,113,126.0
2724,G3,195.5,229/500,113,126.0
2725,G4,195.5,229/500,113,126.0
2726,G2,195.5,229/500,113,126.0
2727,E6,195.5,1/5,107,126.0
2728,B-2,195.5,0.5,80,126.0
2729,A6,195.75,9/40,98,126.0
2730,G6,196.0,233/1000,85,126.0
2731,F#2,196.0,0.5,80,126.0
2732,D6,196.25,9/40,107,126.0
2733,G#3,196.5,229/500,113,126.0
2734,G#3,196.5,229/500,113,126.0
2735,G#4,196.5,229/500,113,126.0
2736,G#3,196.5,229/500,113,126.0
2737,G4,196.5,229/500,113,126.0
2738,G#2,196.5,229/500,113,126.0
2739,G6,196.5,9/40,89,126.0
2740,B-2,196.5,0.5,80,126.0
2741,E6,196.75,221/1000,93,126.0
2742,F#2,197.0,0.5,80,126.0
2743,B5,197.25,131/500,113,126.0
2744,E6,197.25,181/500,93,126.0
2745,C6,197.25,12/125,106,126.0
2746,D6,197.25,12/125,106,126.0
2747,F6,197.25,12/125,106,126.0
2748,G6,197.25,12/125,106,126.0
2749,E6,197.25,12/125,101,126.0
2750,G6,197.25,12/125,101,126.0
2751,C4,197.5,229/500,113,126.0
2752,C4,197.5,229/500,113,126.0
2753,C5,197.5,229/500,113,126.0
2754,C4,197.5,229/500,113,126.0
2755,C5,197.5,229/500,113,126.0
2756,C3,197.5,229/500,113,126.0
2757,D2,197.5,0.5,80,126.0
2758,F5,197.5,7/40,99,126.0
2759,G5,197.5,7/40,99,126.0
2760,A5,197.5,7/40,99,126.0
2761,B5,197.5,7/40,99,126.0
2762,D6,197.5,7/40,99,126.0
2763,A5,197.75,26/125,113,126.0
2764,G4,197.75,1/10,71,126.0
2765,A4,197.75,1/10,71,126.0
2766,B4,197.75,1/10,71,126.0
2767,C5,197.75,1/10,71,126.0
2768,D5,197.75,1/10,71,126.0
2769,E5,197.75,1/10,71,126.0
2770,A2,198.0,0.5,80,126.0
2771,A2,198.0,0.5,80,126.0
2772,A3,198.0,0.5,80,126.0
2773,A2,198.0,0.5,80,126.0
2774,A3,198.0,0.5,80,126.0
2775,A1,198.0,0.5,80,126.0
2776,B1,198.0,0.5,80,126.0
2777,F#2,198.0,0.5,80,126.0
2778,G2,198.5,0.5,80,126.0
2779,G2,198.5,0.5,80,126.0
2780,G3,198.5,0.5,80,126.0
2781,G2,198.5,0.5,80,126.0
2782,G3,198.5,0.5,80,126.0
2783,G1,198.5,0.5,80,126.0
2784,B1,198.5,0.5,80,126.0
2785,F#2,198.5,0.5,80,126.0
2786,A2,199.0,0.5,80,126.0
2787,A2,199.0,0.5,80,126.0
2788,A3,199.0,0.5,80,126.0
2789,A2,199.0,0.5,80,126.0
2790,A3,199.0,0.5,80,126.0
2791,A1,199.0,0.5,80,126.0
2792,D2,199.0,1.0,80,126.0
2793,F#2,199.0,0.5,80,126.0
2794,C3,199.5,1.5,80,126.0
2795,C3,199.5,1.5,80,126.0
2796,C4,199.5,1.5,80,126.0
2797,C3,199.5,1.5,80,126.0
2798,C4,199.5,1.5,80,126.0
2799,C2,199.5,1.5,80,126.0
2800,B1,199.5,0.5,80,126.0
2801,F#2,199.5,0.5,80,126.0
2802,C6,200.0,1.0,80,126.0
2803,C5,200.0,1.0,80,126.0
2804,G5,200.0,1.0,80,126.0
2805,G4,200.0,1.0,80,126.0
2806,E4,200.0,1.0,80,126.0
2807,E5,200.0,1.0,80,126.0
2808,F#2,200.0,0.5,80,126.0
2809,B1,200.5,0.5,80,126.0
2810,F#2,200.5,0.5,80,126.0
2811,A2,201.0,0.5,80,126.0
2812,A2,201.0,0.5,80,126.0
2813,A3,201.0,0.5,80,126.0
2814,A2,201.0,0.5,80,126.0
2815,A3,201.0,0.5,80,126.0
2816,A1,201.0,0.5,80,126.0
2817,D2,201.0,1.0,80,126.0
2818,F#2,201.0,0.5,80,126.0
2819,G2,201.5,0.5,80,126.0
2820,G2,201.5,0.5,80,126.0
2821,G3,201.5,0.5,80,126.0
2822,G2,201.5,0.5,80,126.0
2823,G3,201.5,0.5,80,126.0
2824,G1,201.5,0.5,80,126.0
2825,B1,201.5,0.5,80,126.0
2826,F#2,201.5,0.5,80,126.0
2827,A2,202.0,0.5,80,126.0
2828,A2,202.0,0.5,80,126.0
2829,A3,202.0,0.5,80,126.0
2830,A2,202.0,0.5,80,126.0
2831,A3,202.0,0.5,80,126.0
2832,A1,202.0,0.5,80,126.0
2833,B1,202.0,1.0,80,126.0
2834,F#2,202.0,0.5,80,126.0
2835,D3,202.5,1.0,80,126.0
2836,D3,202.5,1.0,80,126.0
2837,D4,202.5,1.0,80,126.0
2838,D3,202.5,1.0,80,126.0
2839,D4,202.5,1.0,80,126.0
2840,D2,202.5,1.0,80,126.0
2841,F#2,202.5,0.5,80,126.0
2842,D6,203.0,1.0,80,126.0
2843,D5,203.0,1.0,80,126.0
2844,A5,203.0,1.0,80,126.0
2845,A4,203.0,1.0,80,126.0
2846,F#4,203.0,1.0,80,126.0
2847,F#5,203.0,1.0,80,126.0
2848,D2,203.0,1.0,80,126.0
2849,F#2,203.0,0.5,80,126.0
2850,F#2,203.5,0.5,80,126.0
2851,E3,204.0,0.5,80,126.0
2852,E3,204.0,0.5,80,126.0
2853,E4,204.0,0.5,80,126.0
2854,E3,204.0,0.5,80,126.0
2855,E4,204.0,0.5,80,126.0
2856,E2,204.0,0.5,80,126.0
2857,B1,204.0,1.0,80,126.0
2858,F#2,204.0,0.5,80,126.0
2859,G3,204.5,0.5,80,126.0
2860,G3,204.5,0.5,80,126.0
2861,G4,204.5,0.5,80,126.0
2862,G3,204.5,0.5,80,126.0
2863,G4,204.5,0.5,80,126.0
2864,G2,204.5,0.5,80,126.0
2865,B1,204.5,1.0,80,126.0
2866,F#2,204.5,0.5,80,126.0
2867,E3,205.0,0.25,80,126.0
2868,E3,205.0,0.25,80,126.0
2869,E4,205.0,0.25,80,126.0
2870,E3,205.0,0.25,80,126.0
2871,E4,205.0,0.25,80,126.0
2872,E2,205.0,0.25,80,126.0
2873,D2,205.0,0.25,80,126.0
2874,D3,205.25,0.25,80,126.0
2875,D3,205.25,0.25,80,126.0
2876,D4,205.25,0.25,80,126.0
2877,D3,205.25,0.25,80,126.0
2878,D4,205.25,0.25,80,126.0
2879,D2,205.25,0.25,80,126.0
2880,F#2,205.25,0.25,80,126.0
2881,C3,205.5,0.5,80,126.0
2882,C3,205.5,0.5,80,126.0
2883,C4,205.5,0.5,80,126.0
2884,C3,205.5,0.5,80,126.0
2885,C4,205.5,0.5,80,126.0
2886,C2,205.5,0.5,80,126.0
2887,D2,205.5,0.25,80,126.0
2888,D2,205.75,0.25,80,126.0
2889,D3,206.0,0.5,80,126.0
2890,D3,206.0,0.5,80,126.0
2891,D4,206.0,0.5,80,126.0
2892,D3,206.0,0.5,80,126.0
2893,D4,206.0,0.5,80,126.0
2894,D2,206.0,0.5,80,126.0
2895,B-2,206.0,0.5,80,126.0
2896,D2,206.0,0.5,80,126.0
2897,G2,206.5,1.5,80,126.0
2898,G2,206.5,1.5,80,126.0
2899,G3,206.5,1.5,80,126.0
2900,G2,206.5,1.5,80,126.0
2901,G3,206.5,1.5,80,126.0
2902,G1,206.5,1.5,80,126.0
2903,B1,206.5,0.5,80,126.0
2904,G5,207.0,1.0,80,126.0
2905,G5,207.0,1.0,80,126.0
2906,D5,207.0,1.0,80,126.0
2907,D4,207.0,1.0,80,126.0
2908,B3,207.0,1.0,80,126.0
2909,B4,207.0,1.0,80,126.0
2910,A3,207.0,1.0,80,126.0
2911,B1,207.0,1.0,80,126.0
2912,D3,208.0,0.5,80,126.0
2913,D3,208.0,0.5,80,126.0
2914,D4,208.0,0.5,80,126.0
2915,D3,208.0,0.5,80,126.0
2916,D4,208.0,0.5,80,126.0
2917,D2,208.0,0.5,80,126.0
2918,B-2,208.0,0.5,80,126.0
2919,D2,208.0,0.5,80,126.0
2920,F#2,208.5,1.5,80,126.0
2921,F#2,208.5,1.5,80,126.0
2922,F#3,208.5,1.5,80,126.0
2923,F#2,208.5,1.5,80,126.0
2924,F#3,208.5,1.5,80,126.0
2925,F#1,208.5,1.5,80,126.0
2926,B1,208.5,0.5,80,126.0
2927,F#5,209.0,1.0,80,126.0
2928,F#5,209.0,1.0,80,126.0
2929,D5,209.0,1.0,80,126.0
2930,D4,209.0,1.0,80,126.0
2931,A3,209.0,1.0,80,126.0
2932,A4,209.0,1.0,80,126.0
2933,A3,209.0,1.0,80,126.0
2934,B1,209.0,1.0,80,126.0
2935,A2,210.0,0.5,80,126.0
2936,A2,210.0,0.5,80,126.0
2937,A3,210.0,0.5,80,126.0
2938,A2,210.0,0.5,80,126.0
2939,A3,210.0,0.5,80,126.0
2940,A1,210.0,0.5,80,126.0
2941,B1,210.0,0.5,80,126.0
2942,F#2,210.0,0.5,80,126.0
2943,G2,210.5,0.5,80,126.0
2944,G2,210.5,0.5,80,126.0
2945,G3,210.5,0.5,80,126.0
2946,G2,210.5,0.5,80,126.0
2947,G3,210.5,0.5,80,126.0
2948,G1,210.5,0.5,80,126.0
2949,B1,210.5,0.5,80,126.0
2950,F#2,210.5,0.5,80,126.0
2951,A2,211.0,0.5,80,126.0
2952,A2,211.0,0.5,80,126.0
2953,A3,211.0,0.5,80,126.0
2954,A2,211.0,0.5,80,126.0
2955,A3,211.0,0.5,80,126.0
2956,A1,211.0,0.5,80,126.0
2957,D2,211.0,1.0,80,126.0
2958,F#2,211.0,0.5,80,126.0
2959,C3,211.5,1.5,80,126.0
2960,C3,211.5,1.5,80,126.0
2961,C4,211.5,1.5,80,126.0
2962,C3,211.5,1.5,80,126.0
2963,C4,211.5,1.5,80,126.0
2964,C2,211.5,1.5,80,126.0
2965,B1,211.5,0.5,80,126.0
2966,F#2,211.5,0.5,80,126.0
2967,C6,212.0,1.0,80,126.0
2968,C5,212.0,1.0,80,126.0
2969,G5,212.0,1.0,80,126.0
2970,G4,212.0,1.0,80,126.0
2971,E4,212.0,1.0,80,126.0
2972,E5,212.0,1.0,80,126.0
2973,F#2,212.0,0.5,80,126.0
2974,B1,212.5,0.5,80,126.0
2975,F#2,212.5,0.5,80,126.0
2976,A2,213.0,0.5,80,126.0
2977,A2,213.0,0.5,80,126.0
2978,A3,213.0,0.5,80,126.0
2979,A2,213.0,0.5,80,126.0
2980,A3,213.0,0.5,80,126.0
2981,A1,213.0,0.5,80,126.0
2982,D2,213.0,1.0,80,126.0
2983,F#2,213.0,0.5,80,126.0
2984,G2,213.5,0.5,80,126.0
2985,G2,213.5,0.5,80,126.0
2986,G3,213.5,0.5,80,126.0
2987,G2,213.5,0.5,80,126.0
2988,G3,213.5,0.5,80,126.0
2989,G1,213.5,0.5,80,126.0
2990,B1,213.5,0.5,80,126.0
2991,F#2,213.5,0.5,80,126.0
2992,A2,214.0,0.5,80,126.0
2993,A2,214.0,0.5,80,126.0
2994,A3,214.0,0.5,80,126.0
2995,A2,214.0,0.5,80,126.0
2996,A3,214.0,0.5,80,126.0
2997,A1,214.0,0.5,80,126.0
2998,B1,214.0,1.0,80,126.0
2999,F#2,214.0,0.5,80,126.0
3000,D3,214.5,1.0,80,126.0
3001,D3,214.5,1.0,80,126.0
3002,D4,214.5,1.0,80,126.0
3003,D3,214.5,1.0,80,126.0
3004,D4,214.5,1.0,80,126.0
3005,D2,214.5,1.0,80,126.0
3006,F#2,214.5,0.5,80,126.0
3007,D6,215.0,1.0,80,126.0
3008,D5,215.0,1.0,80,126.0
3009,A5,215.0,1.0,80,126.0
3010,A4,215.0,1.0,80,126.0
3011,F#4,215.0,1.0,80,126.0
3012,F#5,215.0,1.0,80,126.0
3013,D2,215.0,1.0,80,126.0
3014,F#2,215.0,0.5,80,126.0
3015,F#2,215.5,0.5,80,126.0
3016,E3,216.0,0.5,80,126.0
3017,E3,216.0,0.5,80,126.0
3018,E4,216.0,0.5,80,126.0
3019,E3,216.0,0.5,80,126.0
3020,E4,216.0,0.5,80,126.0
3021,E2,216.0,0.5,80,126.0
3022,B1,216.0,1.0,80,126.0
3023,F#2,216.0,0.5,80,126.0
3024,G3,216.5,0.5,80,126.0
3025,G3,216.5,0.5,80,126.0
3026,G4,216.5,0.5,80,126.0
3027,G3,216.5,0.5,80,126.0
3028,G4,216.5,0.5,80,126.0
3029,G2,216.5,0.5,80,126.0
3030,B1,216.5,1.0,80,126.0
3031,F#2,216.5,0.5,80,126.0
3032,E3,217.0,0.25,80,126.0
3033,E3,217.0,0.25,80,126.0
3034,E4,217.0,0.25,80,126.0
3035,E3,217.0,0.25,80,126.0
3036,E4,217.0,0.25,80,126.0
3037,E2,217.0,0.25,80,126.0
3038,D2,217.0,0.25,80,126.0
3039,D3,217.25,0.25,80,126.0
3040,D3,217.25,0.25,80,126.0
3041,D4,217.25,0.25,80,126.0
3042,D3,217.25,0.25,80,126.0
3043,D4,217.25,0.25,80,126.0
3044,D2,217.25,0.25,80,126.0
3045,F#2,217.25,0.25,80,126.0
3046,C3,217.5,0.5,80,126.0
3047,C3,217.5,0.5,80,126.0
3048,C4,217.5,0.5,80,126.0
3049,C3,217.5,0.5,80,126.0
3050,C4,217.5,0.5,80,126.0
3051,C2,217.5,0.5,80,126.0
3052,D2,217.5,0.25,80,126.0
3053,D2,217.75,0.25,80,126.0
3054,D3,218.0,0.5,80,126.0
3055,D3,218.0,0.5,80,126.0
3056,D4,218.0,0.5,80,126.0
3057,D3,218.0,0.5,80,126.0
3058,D4,218.0,0.5,80,126.0
3059,D2,218.0,0.5,80,126.0
3060,B-2,218.0,0.5,80,126.0
3061,D2,218.0,0.5,80,126.0
3062,G2,218.5,1.5,80,126.0
3063,G2,218.5,1.5,80,126.0
3064,G3,218.5,1.5,80,126.0
3065,G2,218.5,1.5,80,126.0
3066,G3,218.5,1.5,80,126.0
3067,G1,218.5,1.5,80,126.0
3068,B1,218.5,0.5,80,126.0
3069,G5,219.0,1.0,80,126.0
3070,G5,219.0,1.0,80,126.0
3071,D5,219.0,1.0,80,126.0
3072,D4,219.0,1.0,80,126.0
3073,B3,219.0,1.0,80,126.0
3074,B4,219.0,1.0,80,126.0
3075,A3,219.0,1.0,80,126.0
3076,B1,219.0,1.0,80,126.0
3077,D3,220.0,0.5,80,126.0
3078,D3,220.0,0.5,80,126.0
3079,D4,220.0,0.5,80,126.0
3080,D3,220.0,0.5,80,126.0
3081,D4,220.0,0.5,80,126.0
3082,D2,220.0,0.5,80,126.0
3083,B-2,220.0,0.5,80,126.0
3084,D2,220.0,0.5,80,126.0
3085,F#2,220.5,1.5,80,126.0
3086,F#2,220.5,1.5,80,126.0
3087,F#3,220.5,1.5,80,126.0
3088,F#2,220.5,1.5,80,126.0
3089,F#3,220.5,1.5,80,126.0
3090,F#1,220.5,1.5,80,126.0
3091,B1,220.5,0.5,80,126.0
3092,F#5,221.0,1.0,80,126.0
3093,F#5,221.0,1.0,80,126.0
3094,D5,221.0,1.0,80,126.0
3095,D4,221.0,1.0,80,126.0
3096,A3,221.0,1.0,80,126.0
3097,A4,221.0,1.0,80,126.0
3098,A3,221.0,1.0,80,126.0
3099,B1,221.0,1.0,80,126.0
3100,A5,222.0,111/250,80,126.0
3101,A4,222.0,111/250,80,126.0
3102,E5,222.0,111/250,80,126.0
3103,A4,222.0,111/250,80,126.0
3104,E4,222.0,111/250,80,126.0
3105,E5,222.0,111/250,80,126.0
3106,E3,222.0,111/250,80,126.0
3107,C3,222.0,111/250,80,126.0
3108,E4,222.0,111/250,80,126.0
3109,E3,222.0,64/125,107,126.0
3110,C4,222.0,111/250,80,126.0
3111,C2,222.0,111/250,80,126.0
3112,D2,222.0,667/1000,80,126.0
3113,G5,222.667,111/250,80,126.0
3114,G4,222.667,111/250,80,126.0
3115,D5,222.667,111/250,80,126.0
3116,G4,222.667,111/250,80,126.0
3117,D4,222.667,111/250,80,126.0
3118,D5,222.667,111/250,80,126.0
3119,D3,222.667,111/250,80,126.0
3120,B2,222.667,111/250,80,126.0
3121,D4,222.667,111/250,80,126.0
3122,D3,222.667,671/1000,93,126.0
3123,B3,222.667,111/250,80,126.0
3124,B1,222.667,111/250,80,126.0
3125,B1,222.667,667/1000,80,126.0
3126,A5,223.333,111/250,80,126.0
3127,A4,223.333,111/250,80,126.0
3128,E5,223.333,111/250,80,126.0
3129,A4,223.333,111/250,80,126.0
3130,E4,223.333,111/250,80,126.0
3131,E5,223.333,111/250,80,126.0
3132,E3,223.333,111/250,80,126.0
3133,C3,223.333,111/250,80,126.0
3134,E4,223.333,111/250,80,126.0
3135,E3,223.333,583/1000,113,126.0
3136,C4,223.333,111/250,80,126.0
3137,C2,223.333,111/250,80,126.0
3138,B1,223.333,667/1000,80,126.0
3139,B5,224.0,111/250,80,126.0
3140,B4,224.0,111/250,80,126.0
3141,G5,224.0,111/250,80,126.0
3142,B4,224.0,111/250,80,126.0
3143,G4,224.0,111/250,80,126.0
3144,G5,224.0,111/250,80,126.0
3145,G3,224.0,111/250,80,126.0
3146,D3,224.0,111/250,80,126.0
3147,G4,224.0,111/250,80,126.0
3148,G3,224.0,111/250,119,126.0
3149,D4,224.0,111/250,80,126.0
3150,D2,224.0,111/250,80,126.0
3151,D2,224.0,667/1000,80,126.0
3152,A5,224.667,111/250,80,126.0
3153,A4,224.667,111/250,80,126.0
3154,F5,224.667,111/250,80,126.0
3155,A4,224.667,111/250,80,126.0
3156,F4,224.667,111/250,80,126.0
3157,F5,224.667,111/250,80,126.0
3158,F3,224.667,111/250,80,126.0
3159,C3,224.667,111/250,80,126.0
3160,F4,224.667,111/250,80,126.0
3161,F3,224.667,111/250,107,126.0
3162,C4,224.667,111/250,80,126.0
3163,C2,224.667,111/250,80,126.0
3164,B1,224.667,667/1000,80,126.0
3165,B5,225.333,111/250,80,126.0
3166,B4,225.333,111/250,80,126.0
3167,G5,225.333,111/250,80,126.0
3168,B4,225.333,111/250,80,126.0
3169,G4,225.333,111/250,80,126.0
3170,G5,225.333,111/250,80,126.0
3171,G3,225.333,111/250,80,126.0
3172,D3,225.333,111/250,80,126.0
3173,G4,225.333,111/250,80,126.0
3174,G3,225.333,111/250,107,126.0
3175,D4,225.333,111/250,80,126.0
3176,D2,225.333,111/250,80,126.0
3177,D2,225.333,667/1000,80,126.0
3178,D2,225.333,667/1000,80,126.0
3179,C6,226.0,4.0,80,126.0
3180,F5,226.0,4.0,80,126.0
3181,A5,226.0,4.0,80,126.0
3182,F5,226.0,4.0,80,126.0
3183,C5,226.0,4.0,80,126.0
3184,A5,226.0,4.0,80,126.0
3185,A3,226.0,4.0,80,126.0
3186,E3,226.0,4.0,80,126.0
3187,A4,226.0,4.0,80,126.0
3188,A3,226.0,1999/500,107,126.0
3189,F4,226.0,4.0,80,126.0
3190,F2,226.0,4.0,80,126.0
3191,A3,226.0,4.0,80,126.0
3192,B1,226.0,4.0,80,126.0
