,note_name,start_time,duration,velocity,tempo
0,D3,0.0,0.0,127,80.0
1,A3,0.0,0.25,127,80.0
2,D3,0.0,0.25,127,80.0
3,C2,0.0,6/25,122,80.0
4,C#3,0.0,49/100,116,80.0
5,D3,0.25,0.0,127,80.0
6,A3,0.25,0.25,127,80.0
7,D3,0.25,0.25,127,80.0
8,C2,0.25,37/50,127,80.0
9,D3,0.5,0.0,127,80.0
10,A3,0.5,0.5,127,80.0
11,F#2,0.5,49/100,104,80.0
12,D2,1.0,99/100,127,80.0
13,F#2,1.0,49/100,108,80.0
14,D3,1.5,0.0,127,80.0
15,A3,1.5,0.25,127,80.0
16,D3,1.5,0.25,127,80.0
17,F#2,1.5,49/100,110,80.0
18,D3,1.75,0.0,127,80.0
19,A3,1.75,0.25,127,80.0
20,D3,1.75,0.25,127,80.0
21,D3,2.0,0.0,127,80.0
22,A3,2.0,0.5,127,80.0
23,D3,2.0,0.25,127,80.0
24,C2,2.0,6/25,110,80.0
25,F#2,2.0,49/100,116,80.0
26,D2,2.25,0.25,127,80.0
27,C2,2.25,37/50,106,80.0
28,D2,2.5,1.5,127,80.0
29,D2,2.5,0.5,127,80.0
30,F#2,2.5,49/100,100,80.0
31,D3,3.0,0.0,127,80.0
32,B-3,3.0,0.25,127,80.0
33,D2,3.0,0.25,127,80.0
34,D2,3.0,99/100,127,80.0
35,F#2,3.0,49/100,108,80.0
36,D3,3.25,0.0,127,80.0
37,B-3,3.25,0.25,127,80.0
38,D2,3.25,0.25,127,80.0
39,D3,3.5,0.0,127,80.0
40,B-3,3.5,0.5,127,80.0
41,D2,3.5,0.5,127,80.0
42,F#2,3.5,49/100,116,80.0
43,C2,4.0,6/25,110,80.0
44,F#2,4.0,49/100,116,80.0
45,C2,4.25,37/50,106,80.0
46,D3,4.5,0.0,127,80.0
47,B-3,4.5,0.25,127,80.0
48,D3,4.5,0.25,127,80.0
49,F#2,4.5,49/100,100,80.0
50,D3,4.75,0.0,127,80.0
51,B-3,4.75,0.25,127,80.0
52,D3,4.75,0.25,127,80.0
53,D3,5.0,0.0,127,80.0
54,B-3,5.0,0.5,127,80.0
55,D3,5.0,0.5,127,80.0
56,D2,5.0,99/100,127,80.0
57,F#2,5.0,49/100,108,80.0
58,D2,5.5,1.5,127,80.0
59,D2,5.5,0.5,127,80.0
60,F#2,5.5,49/100,116,80.0
61,D3,6.0,0.0,127,80.0
62,B3,6.0,0.25,127,80.0
63,D2,6.0,0.25,127,80.0
64,C2,6.0,6/25,110,80.0
65,F#2,6.0,49/100,116,80.0
66,D3,6.25,0.0,127,80.0
67,B3,6.25,0.25,127,80.0
68,D2,6.25,0.25,127,80.0
69,C2,6.25,37/50,106,80.0
70,D3,6.5,0.0,127,80.0
71,B3,6.5,0.5,127,80.0
72,D2,6.5,0.5,127,80.0
73,F#2,6.5,49/100,100,80.0
74,D2,7.0,99/100,127,80.0
75,F#2,7.0,49/100,108,80.0
76,D3,7.5,0.0,127,80.0
77,B3,7.5,0.25,127,80.0
78,D3,7.5,0.25,127,80.0
79,F#2,7.5,49/100,116,80.0
80,D3,7.75,0.0,127,80.0
81,B3,7.75,0.25,127,80.0
82,D3,7.75,0.25,127,80.0
83,D3,8.0,0.0,127,80.0
84,B3,8.0,0.5,127,80.0
85,D3,8.0,0.5,127,80.0
86,C2,8.0,6/25,110,80.0
87,F#2,8.0,49/100,116,80.0
88,C2,8.25,37/50,106,80.0
89,D2,8.5,1.5,127,80.0
90,D2,8.5,0.5,127,80.0
91,F#2,8.5,49/100,100,80.0
92,D3,9.0,0.0,127,80.0
93,C4,9.0,0.25,127,80.0
94,D2,9.0,0.25,127,80.0
95,D2,9.0,99/100,127,80.0
96,F#2,9.0,49/100,108,80.0
97,D3,9.25,0.0,127,80.0
98,C4,9.25,0.25,127,80.0
99,D2,9.25,0.25,127,80.0
100,D3,9.5,0.0,127,80.0
101,C4,9.5,0.5,127,80.0
102,D2,9.5,0.5,127,80.0
103,F#2,9.5,49/100,116,80.0
104,C2,10.0,6/25,110,80.0
105,F#2,10.0,49/100,116,80.0
106,C2,10.25,37/50,106,80.0
107,D3,10.5,0.0,127,80.0
108,C4,10.5,0.25,127,80.0
109,D3,10.5,0.25,127,80.0
110,F#2,10.5,49/100,100,80.0
111,D3,10.75,0.0,127,80.0
112,C4,10.75,0.25,127,80.0
113,D3,10.75,0.25,127,80.0
114,D3,11.0,0.0,127,80.0
115,C4,11.0,0.5,127,80.0
116,D3,11.0,0.5,127,80.0
117,D2,11.0,99/100,127,80.0
118,F#2,11.0,49/100,108,80.0
119,D2,11.5,0.5,127,80.0
120,D2,11.5,0.5,127,80.0
121,F#2,11.5,49/100,116,80.0
122,D3,12.0,0.0,127,80.0
123,D4,12.0,0.25,127,80.0
124,D2,12.0,1.0,127,80.0
125,D2,12.0,0.25,127,80.0
126,C2,12.0,6/25,110,80.0
127,F#2,12.0,49/100,116,80.0
128,D3,12.25,0.0,127,80.0
129,D4,12.25,0.25,127,80.0
130,D2,12.25,0.25,127,80.0
131,C2,12.25,37/50,106,80.0
132,D3,12.5,0.0,127,80.0
133,D4,12.5,0.5,127,80.0
134,D2,12.5,0.5,127,80.0
135,F#2,12.5,49/100,100,80.0
136,D2,13.0,99/100,127,80.0
137,F#2,13.0,49/100,108,80.0
138,D3,13.5,0.0,127,80.0
139,A3,13.5,0.25,127,80.0
140,D3,13.5,0.25,127,80.0
141,F#2,13.5,49/100,116,80.0
142,D3,13.75,0.0,127,80.0
143,A3,13.75,0.25,127,80.0
144,D3,13.75,0.25,127,80.0
145,D3,14.0,0.0,127,80.0
146,A3,14.0,0.5,127,80.0
147,D3,14.0,0.25,127,80.0
148,C2,14.0,6/25,110,80.0
149,F#2,14.0,49/100,116,80.0
150,D2,14.25,0.25,127,80.0
151,C2,14.25,37/50,106,80.0
152,D2,14.5,1.5,127,80.0
153,D2,14.5,0.5,127,80.0
154,F#2,14.5,49/100,100,80.0
155,D3,15.0,0.0,127,80.0
156,B-3,15.0,0.25,127,80.0
157,D2,15.0,0.25,127,80.0
158,D2,15.0,99/100,127,80.0
159,F#2,15.0,49/100,108,80.0
160,D3,15.25,0.0,127,80.0
161,B-3,15.25,0.25,127,80.0
162,D2,15.25,0.25,127,80.0
163,D3,15.5,0.0,127,80.0
164,B-3,15.5,0.5,127,80.0
165,D2,15.5,0.5,127,80.0
166,F#2,15.5,49/100,116,80.0
167,C2,16.0,6/25,110,80.0
168,F#2,16.0,49/100,116,80.0
169,C2,16.25,37/50,106,80.0
170,D3,16.5,0.0,127,80.0
171,B-3,16.5,0.25,127,80.0
172,D3,16.5,0.25,127,80.0
173,F#2,16.5,49/100,100,80.0
174,D3,16.75,0.0,127,80.0
175,B-3,16.75,0.25,127,80.0
176,D3,16.75,0.25,127,80.0
177,D3,17.0,0.0,127,80.0
178,B-3,17.0,0.5,127,80.0
179,D3,17.0,0.5,127,80.0
180,D2,17.0,99/100,127,80.0
181,F#2,17.0,49/100,108,80.0
182,D2,17.5,1.5,127,80.0
183,D2,17.5,0.5,127,80.0
184,F#2,17.5,49/100,116,80.0
185,D3,18.0,0.0,127,80.0
186,B3,18.0,0.25,127,80.0
187,D2,18.0,0.25,127,80.0
188,C2,18.0,6/25,110,80.0
189,F#2,18.0,49/100,116,80.0
190,D3,18.25,0.0,127,80.0
191,B3,18.25,0.25,127,80.0
192,D2,18.25,0.25,127,80.0
193,C2,18.25,37/50,106,80.0
194,D3,18.5,0.0,127,80.0
195,B3,18.5,0.5,127,80.0
196,D2,18.5,0.5,127,80.0
197,F#2,18.5,49/100,100,80.0
198,D2,19.0,99/100,127,80.0
199,F#2,19.0,49/100,108,80.0
200,D3,19.5,0.0,127,80.0
201,B3,19.5,0.25,127,80.0
202,D3,19.5,0.25,127,80.0
203,F#2,19.5,49/100,116,80.0
204,D3,19.75,0.0,127,80.0
205,B3,19.75,0.25,127,80.0
206,D3,19.75,0.25,127,80.0
207,D3,20.0,0.0,127,80.0
208,B3,20.0,0.5,127,80.0
209,D3,20.0,0.5,127,80.0
210,C2,20.0,6/25,110,80.0
211,F#2,20.0,49/100,116,80.0
212,C2,20.25,37/50,106,80.0
213,D2,20.5,1.5,127,80.0
214,D2,20.5,0.5,127,80.0
215,F#2,20.5,49/100,100,80.0
216,D3,21.0,0.0,127,80.0
217,C4,21.0,0.25,127,80.0
218,D2,21.0,0.25,127,80.0
219,D2,21.0,99/100,127,80.0
220,F#2,21.0,49/100,108,80.0
221,D3,21.25,0.0,127,80.0
222,C4,21.25,0.25,127,80.0
223,D2,21.25,0.25,127,80.0
224,D3,21.5,0.0,127,80.0
225,C4,21.5,0.5,127,80.0
226,D2,21.5,0.5,127,80.0
227,F#2,21.5,49/100,116,80.0
228,C2,22.0,6/25,110,80.0
229,F#2,22.0,49/100,116,80.0
230,C2,22.25,37/50,106,80.0
231,D3,22.5,0.0,127,80.0
232,C4,22.5,0.25,127,80.0
233,D3,22.5,0.25,127,80.0
234,F#2,22.5,49/100,100,80.0
235,D3,22.75,0.0,127,80.0
236,C4,22.75,0.25,127,80.0
237,D3,22.75,0.25,127,80.0
238,D3,23.0,0.0,127,80.0
239,C4,23.0,0.5,127,80.0
240,D3,23.0,0.5,127,80.0
241,D2,23.0,99/100,127,80.0
242,F#2,23.0,49/100,108,80.0
243,D2,23.5,0.5,127,80.0
244,D2,23.5,0.5,127,80.0
245,F#2,23.5,49/100,116,80.0
246,D3,24.0,0.0,127,80.0
247,D4,24.0,0.25,127,80.0
248,D2,24.0,1.0,127,80.0
249,D2,24.0,0.25,127,80.0
250,C2,24.0,6/25,110,80.0
251,F#2,24.0,49/100,116,80.0
252,D3,24.25,0.0,127,80.0
253,D4,24.25,0.25,127,80.0
254,D2,24.25,0.25,127,80.0
255,C2,24.25,37/50,106,80.0
256,D3,24.5,0.0,127,80.0
257,D4,24.5,0.5,127,80.0
258,D2,24.5,0.5,127,80.0
259,F#5,24.5,49/100,70,80.0
260,F#2,24.5,49/100,100,80.0
261,F#5,25.0,49/100,70,80.0
262,D2,25.0,99/100,127,80.0
263,F#2,25.0,49/100,108,80.0
264,D3,25.5,0.0,127,80.0
265,A3,25.5,0.25,127,80.0
266,D3,25.5,0.25,127,80.0
267,F#5,25.5,6/25,66,80.0
268,F#2,25.5,49/100,116,80.0
269,D3,25.75,0.0,127,80.0
270,A3,25.75,0.25,127,80.0
271,D3,25.75,0.25,127,80.0
272,A5,25.75,37/50,98,80.0
273,D3,26.0,0.0,127,80.0
274,A3,26.0,0.5,127,80.0
275,D3,26.0,0.25,127,80.0
276,C2,26.0,6/25,110,80.0
277,F#2,26.0,49/100,116,80.0
278,D2,26.25,0.25,127,80.0
279,C2,26.25,37/50,106,80.0
280,D2,26.5,1.5,127,80.0
281,D2,26.5,0.5,127,80.0
282,F#5,26.5,49/100,72,80.0
283,F#2,26.5,49/100,100,80.0
284,D3,27.0,0.0,127,80.0
285,B-3,27.0,0.25,127,80.0
286,D2,27.0,0.25,127,80.0
287,E5,27.0,49/100,76,80.0
288,D2,27.0,99/100,127,80.0
289,F#2,27.0,49/100,108,80.0
290,D3,27.25,0.0,127,80.0
291,B-3,27.25,0.25,127,80.0
292,D2,27.25,0.25,127,80.0
293,D3,27.5,0.0,127,80.0
294,B-3,27.5,0.5,127,80.0
295,D2,27.5,0.5,127,80.0
296,F#5,27.5,6/25,98,80.0
297,F#2,27.5,49/100,116,80.0
298,E5,27.75,0.25,78,80.0
299,E5,28.0,6/25,78,80.0
300,C2,28.0,6/25,110,80.0
301,F#2,28.0,49/100,116,80.0
302,D5,28.25,6/25,92,80.0
303,C2,28.25,37/50,106,80.0
304,D3,28.5,0.0,127,80.0
305,B-3,28.5,0.25,127,80.0
306,D3,28.5,0.25,127,80.0
307,E5,28.5,49/100,78,80.0
308,F#2,28.5,49/100,100,80.0
309,D3,28.75,0.0,127,80.0
310,B-3,28.75,0.25,127,80.0
311,D3,28.75,0.25,127,80.0
312,D3,29.0,0.0,127,80.0
313,B-3,29.0,0.5,127,80.0
314,D3,29.0,0.5,127,80.0
315,D2,29.0,99/100,127,80.0
316,F#2,29.0,49/100,108,80.0
317,D2,29.5,1.5,127,80.0
318,D2,29.5,0.5,127,80.0
319,F#2,29.5,49/100,116,80.0
320,D3,30.0,0.0,127,80.0
321,B3,30.0,0.25,127,80.0
322,D2,30.0,0.25,127,80.0
323,B4,30.0,49/100,104,80.0
324,C2,30.0,6/25,110,80.0
325,F#2,30.0,49/100,116,80.0
326,D3,30.25,0.0,127,80.0
327,B3,30.25,0.25,127,80.0
328,D2,30.25,0.25,127,80.0
329,C2,30.25,37/50,106,80.0
330,D3,30.5,0.0,127,80.0
331,B3,30.5,0.5,127,80.0
332,D2,30.5,0.5,127,80.0
333,B4,30.5,99/100,98,80.0
334,F#2,30.5,49/100,100,80.0
335,D2,31.0,99/100,127,80.0
336,F#2,31.0,49/100,108,80.0
337,D3,31.5,0.0,127,80.0
338,B3,31.5,0.25,127,80.0
339,D3,31.5,0.25,127,80.0
340,D5,31.5,49/100,115,80.0
341,F#2,31.5,49/100,116,80.0
342,D3,31.75,0.0,127,80.0
343,B3,31.75,0.25,127,80.0
344,D3,31.75,0.25,127,80.0
345,D3,32.0,0.0,127,80.0
346,B3,32.0,0.5,127,80.0
347,D3,32.0,0.5,127,80.0
348,D5,32.0,49/100,109,80.0
349,C2,32.0,6/25,110,80.0
350,F#2,32.0,49/100,116,80.0
351,C2,32.25,37/50,106,80.0
352,D2,32.5,1.5,127,80.0
353,D2,32.5,0.5,127,80.0
354,B4,32.5,49/100,104,80.0
355,F#2,32.5,49/100,100,80.0
356,D3,33.0,0.0,127,80.0
357,C4,33.0,0.25,127,80.0
358,D2,33.0,0.25,127,80.0
359,D2,33.0,99/100,127,80.0
360,F#2,33.0,49/100,108,80.0
361,D3,33.25,0.0,127,80.0
362,C4,33.25,0.25,127,80.0
363,D2,33.25,0.25,127,80.0
364,E5,33.25,6/25,74,80.0
365,D3,33.5,0.0,127,80.0
366,C4,33.5,0.5,127,80.0
367,D2,33.5,0.5,127,80.0
368,D5,33.5,49/100,104,80.0
369,F#2,33.5,49/100,116,80.0
370,C2,34.0,6/25,110,80.0
371,F#2,34.0,49/100,116,80.0
372,C2,34.25,37/50,106,80.0
373,D3,34.5,0.0,127,80.0
374,C4,34.5,0.25,127,80.0
375,D3,34.5,0.25,127,80.0
376,F#2,34.5,49/100,100,80.0
377,D3,34.75,0.0,127,80.0
378,C4,34.75,0.25,127,80.0
379,D3,34.75,0.25,127,80.0
380,D3,35.0,0.0,127,80.0
381,C4,35.0,0.5,127,80.0
382,D3,35.0,0.5,127,80.0
383,D2,35.0,99/100,127,80.0
384,F#2,35.0,49/100,108,80.0
385,D2,35.5,0.5,127,80.0
386,D2,35.5,0.5,127,80.0
387,F#2,35.5,49/100,116,80.0
388,D3,36.0,0.0,127,80.0
389,D4,36.0,0.25,127,80.0
390,D2,36.0,1.0,127,80.0
391,D2,36.0,0.25,127,80.0
392,C2,36.0,6/25,110,80.0
393,F#2,36.0,49/100,116,80.0
394,D3,36.25,0.0,127,80.0
395,D4,36.25,0.25,127,80.0
396,D2,36.25,0.25,127,80.0
397,C2,36.25,37/50,106,80.0
398,D3,36.5,0.0,127,80.0
399,D4,36.5,0.5,127,80.0
400,D2,36.5,0.5,127,80.0
401,F#5,36.5,49/100,76,80.0
402,F#2,36.5,49/100,100,80.0
403,F#5,37.0,6/25,92,80.0
404,D2,37.0,99/100,127,80.0
405,F#2,37.0,49/100,108,80.0
406,F#5,37.25,49/100,80,80.0
407,D3,37.5,0.0,127,80.0
408,A3,37.5,0.25,127,80.0
409,D2,37.5,0.25,127,80.0
410,F#2,37.5,49/100,116,80.0
411,D3,37.75,0.0,127,80.0
412,A3,37.75,0.25,127,80.0
413,D2,37.75,0.25,127,80.0
414,A5,37.75,37/50,98,80.0
415,D3,38.0,0.0,127,80.0
416,A3,38.0,0.5,127,80.0
417,D2,38.0,0.25,127,80.0
418,C2,38.0,6/25,110,80.0
419,F#2,38.0,49/100,116,80.0
420,D2,38.25,0.25,127,80.0
421,C2,38.25,37/50,106,80.0
422,D2,38.5,1.5,127,80.0
423,D2,38.5,0.5,127,80.0
424,F#5,38.5,49/100,98,80.0
425,F#2,38.5,49/100,100,80.0
426,D3,39.0,0.0,127,80.0
427,B-3,39.0,0.25,127,80.0
428,D2,39.0,0.25,127,80.0
429,E5,39.0,6/25,78,80.0
430,D2,39.0,99/100,127,80.0
431,F#2,39.0,49/100,108,80.0
432,D3,39.25,0.0,127,80.0
433,B-3,39.25,0.25,127,80.0
434,D2,39.25,0.25,127,80.0
435,F#5,39.25,37/50,98,80.0
436,D3,39.5,0.0,127,80.0
437,B-3,39.5,0.5,127,80.0
438,D2,39.5,0.5,127,80.0
439,F#2,39.5,49/100,116,80.0
440,E5,40.0,6/25,80,80.0
441,C2,40.0,6/25,110,80.0
442,F#2,40.0,49/100,116,80.0
443,D5,40.25,49/100,98,80.0
444,C2,40.25,37/50,106,80.0
445,D3,40.5,0.0,127,80.0
446,B-3,40.5,0.25,127,80.0
447,D2,40.5,0.25,127,80.0
448,F#2,40.5,49/100,100,80.0
449,D3,40.75,0.0,127,80.0
450,B-3,40.75,0.25,127,80.0
451,D2,40.75,0.25,127,80.0
452,E5,40.75,37/50,78,80.0
453,D3,41.0,0.0,127,80.0
454,B-3,41.0,0.5,127,80.0
455,D2,41.0,0.25,127,80.0
456,D2,41.0,99/100,127,80.0
457,F#2,41.0,49/100,108,80.0
458,D2,41.25,0.25,127,80.0
459,D2,41.5,1.5,127,80.0
460,D2,41.5,0.5,127,80.0
461,F#2,41.5,49/100,116,80.0
462,D3,42.0,0.0,127,80.0
463,B3,42.0,0.25,127,80.0
464,D2,42.0,0.25,127,80.0
465,C2,42.0,6/25,110,80.0
466,F#2,42.0,49/100,116,80.0
467,D3,42.25,0.0,127,80.0
468,B3,42.25,0.25,127,80.0
469,D2,42.25,0.25,127,80.0
470,C2,42.25,37/50,106,80.0
471,D3,42.5,0.0,127,80.0
472,B3,42.5,0.5,127,80.0
473,D2,42.5,0.5,127,80.0
474,A4,42.5,49/100,98,80.0
475,F#2,42.5,49/100,100,80.0
476,B4,43.0,49/100,98,80.0
477,D2,43.0,99/100,127,80.0
478,F#2,43.0,49/100,108,80.0
479,D3,43.5,0.0,127,80.0
480,B3,43.5,0.25,127,80.0
481,D3,43.5,0.25,127,80.0
482,D5,43.5,49/100,98,80.0
483,F#2,43.5,49/100,116,80.0
484,D3,43.75,0.0,127,80.0
485,B3,43.75,0.25,127,80.0
486,D3,43.75,0.25,127,80.0
487,D3,44.0,0.0,127,80.0
488,B3,44.0,0.5,127,80.0
489,D3,44.0,0.5,127,80.0
490,E5,44.0,49/100,74,80.0
491,C2,44.0,6/25,110,80.0
492,F#2,44.0,49/100,116,80.0
493,C2,44.25,37/50,106,80.0
494,D2,44.5,1.5,127,80.0
495,D2,44.5,0.5,127,80.0
496,B4,44.5,49/100,104,80.0
497,F#2,44.5,49/100,100,80.0
498,D3,45.0,0.0,127,80.0
499,C4,45.0,0.25,127,80.0
500,D2,45.0,0.25,127,80.0
501,E5,45.0,6/25,76,80.0
502,D2,45.0,99/100,127,80.0
503,F#2,45.0,49/100,108,80.0
504,D3,45.25,0.0,127,80.0
505,C4,45.25,0.25,127,80.0
506,D2,45.25,0.25,127,80.0
507,D5,45.25,37/50,109,80.0
508,D3,45.5,0.0,127,80.0
509,C4,45.5,0.5,127,80.0
510,D2,45.5,0.5,127,80.0
511,F#2,45.5,49/100,116,80.0
512,C2,46.0,6/25,110,80.0
513,F#2,46.0,49/100,116,80.0
514,C2,46.25,37/50,106,80.0
515,D3,46.5,0.0,127,80.0
516,C4,46.5,0.25,127,80.0
517,D3,46.5,0.25,127,80.0
518,F#2,46.5,49/100,100,80.0
519,D3,46.75,0.0,127,80.0
520,C4,46.75,0.25,127,80.0
521,D3,46.75,0.25,127,80.0
522,D3,47.0,0.0,127,80.0
523,C4,47.0,0.5,127,80.0
524,D3,47.0,0.5,127,80.0
525,D2,47.0,99/100,127,80.0
526,F#2,47.0,49/100,108,80.0
527,D2,47.5,0.5,127,80.0
528,D2,47.5,0.5,127,80.0
529,F#2,47.5,49/100,116,80.0
530,D3,48.0,0.0,127,80.0
531,D4,48.0,0.25,127,80.0
532,D2,48.0,1.0,127,80.0
533,D2,48.0,0.25,127,80.0
534,C2,48.0,6/25,110,80.0
535,C#3,48.0,49/100,116,80.0
536,D3,48.25,0.0,127,80.0
537,D4,48.25,0.25,127,80.0
538,D2,48.25,0.25,127,80.0
539,C2,48.25,37/50,106,80.0
540,D3,48.5,0.0,127,80.0
541,D4,48.5,0.5,127,80.0
542,D2,48.5,0.5,127,80.0
543,F#2,48.5,49/100,100,80.0
544,F#5,49.0,6/25,70,80.0
545,D2,49.0,99/100,127,80.0
546,F#2,49.0,49/100,108,80.0
547,F#5,49.25,49/100,72,80.0
548,D3,49.5,0.0,127,80.0
549,A3,49.5,0.25,127,80.0
550,D3,49.5,0.25,127,80.0
551,F#2,49.5,49/100,116,80.0
552,D3,49.75,0.0,127,80.0
553,A3,49.75,0.25,127,80.0
554,D3,49.75,0.25,127,80.0
555,A5,49.75,37/50,92,80.0
556,D3,50.0,0.0,127,80.0
557,A3,50.0,0.5,127,80.0
558,D3,50.0,0.25,127,80.0
559,C2,50.0,6/25,110,80.0
560,F#2,50.0,49/100,116,80.0
561,D2,50.25,0.25,127,80.0
562,C2,50.25,37/50,106,80.0
563,D2,50.5,1.5,127,80.0
564,D2,50.5,0.5,127,80.0
565,F#5,50.5,49/100,74,80.0
566,F#2,50.5,49/100,100,80.0
567,D3,51.0,0.0,127,80.0
568,B-3,51.0,0.25,127,80.0
569,D2,51.0,0.25,127,80.0
570,D2,51.0,99/100,127,80.0
571,F#2,51.0,49/100,108,80.0
572,D3,51.25,0.0,127,80.0
573,B-3,51.25,0.25,127,80.0
574,D2,51.25,0.25,127,80.0
575,E5,51.333,323/1000,76,80.0
576,D3,51.5,0.0,127,80.0
577,B-3,51.5,0.5,127,80.0
578,D2,51.5,0.5,127,80.0
579,F#2,51.5,49/100,116,80.0
580,F#5,51.667,323/1000,76,80.0
581,E5,52.0,323/1000,78,80.0
582,C2,52.0,6/25,110,80.0
583,F#2,52.0,49/100,116,80.0
584,C2,52.25,37/50,106,80.0
585,D5,52.333,323/1000,104,80.0
586,D3,52.5,0.0,127,80.0
587,B-3,52.5,0.25,127,80.0
588,D3,52.5,0.25,127,80.0
589,F#2,52.5,49/100,100,80.0
590,E5,52.667,1323/1000,104,80.0
591,D3,52.75,0.0,127,80.0
592,B-3,52.75,0.25,127,80.0
593,D3,52.75,0.25,127,80.0
594,D3,53.0,0.0,127,80.0
595,B-3,53.0,0.5,127,80.0
596,D3,53.0,0.25,127,80.0
597,D2,53.0,99/100,127,80.0
598,F#2,53.0,49/100,108,80.0
599,D2,53.25,0.25,127,80.0
600,D2,53.5,1.5,127,80.0
601,D2,53.5,0.5,127,80.0
602,F#2,53.5,49/100,116,80.0
603,D3,54.0,0.0,127,80.0
604,B3,54.0,0.25,127,80.0
605,D2,54.0,0.25,127,80.0
606,B4,54.0,49/100,121,80.0
607,C2,54.0,6/25,110,80.0
608,F#2,54.0,49/100,116,80.0
609,D3,54.25,0.0,127,80.0
610,B3,54.25,0.25,127,80.0
611,D2,54.25,0.25,127,80.0
612,C2,54.25,37/50,106,80.0
613,D3,54.5,0.0,127,80.0
614,B3,54.5,0.5,127,80.0
615,D2,54.5,0.5,127,80.0
616,B4,54.5,49/100,92,80.0
617,F#2,54.5,49/100,100,80.0
618,D5,55.0,49/100,92,80.0
619,D2,55.0,99/100,127,80.0
620,F#2,55.0,49/100,108,80.0
621,D3,55.5,0.0,127,80.0
622,B3,55.5,0.25,127,80.0
623,D3,55.5,0.25,127,80.0
624,D5,55.5,49/100,92,80.0
625,F#2,55.5,49/100,116,80.0
626,D3,55.75,0.0,127,80.0
627,B3,55.75,0.25,127,80.0
628,D3,55.75,0.25,127,80.0
629,D3,56.0,0.0,127,80.0
630,B3,56.0,0.5,127,80.0
631,D3,56.0,0.5,127,80.0
632,D5,56.0,6/25,98,80.0
633,C2,56.0,6/25,110,80.0
634,F#2,56.0,49/100,116,80.0
635,B4,56.25,37/50,104,80.0
636,C2,56.25,37/50,106,80.0
637,D2,56.5,1.5,127,80.0
638,D2,56.5,0.5,127,80.0
639,F#2,56.5,49/100,100,80.0
640,D3,57.0,0.0,127,80.0
641,C4,57.0,0.25,127,80.0
642,D2,57.0,0.25,127,80.0
643,E5,57.0,6/25,78,80.0
644,D2,57.0,99/100,127,80.0
645,F#2,57.0,49/100,108,80.0
646,D3,57.25,0.0,127,80.0
647,C4,57.25,0.25,127,80.0
648,D2,57.25,0.25,127,80.0
649,D5,57.25,37/50,104,80.0
650,D3,57.5,0.0,127,80.0
651,C4,57.5,0.5,127,80.0
652,D2,57.5,0.5,127,80.0
653,F#2,57.5,49/100,116,80.0
654,C2,58.0,6/25,110,80.0
655,F#2,58.0,49/100,116,80.0
656,C2,58.25,37/50,106,80.0
657,D3,58.5,0.0,127,80.0
658,C4,58.5,0.25,127,80.0
659,D2,58.5,0.25,127,80.0
660,F#2,58.5,49/100,100,80.0
661,D3,58.75,0.0,127,80.0
662,C4,58.75,0.25,127,80.0
663,D2,58.75,0.25,127,80.0
664,D3,59.0,0.0,127,80.0
665,C4,59.0,0.5,127,80.0
666,D2,59.0,0.25,127,80.0
667,D2,59.0,99/100,127,80.0
668,F#2,59.0,49/100,108,80.0
669,D2,59.25,0.25,127,80.0
670,D2,59.5,0.5,127,80.0
671,D2,59.5,0.5,127,80.0
672,F#2,59.5,49/100,116,80.0
673,D3,60.0,0.0,127,80.0
674,D4,60.0,0.25,127,80.0
675,D2,60.0,1.0,127,80.0
676,D2,60.0,0.25,127,80.0
677,C2,60.0,6/25,110,80.0
678,F#2,60.0,49/100,116,80.0
679,D3,60.25,0.0,127,80.0
680,D4,60.25,0.25,127,80.0
681,D2,60.25,0.25,127,80.0
682,C2,60.25,37/50,106,80.0
683,D3,60.5,0.0,127,80.0
684,D4,60.5,0.5,127,80.0
685,D2,60.5,0.5,127,80.0
686,F#2,60.5,49/100,100,80.0
687,F#5,61.0,6/25,98,80.0
688,D2,61.0,99/100,127,80.0
689,F#2,61.0,49/100,108,80.0
690,F#5,61.25,49/100,68,80.0
691,D3,61.5,0.0,127,80.0
692,A3,61.5,0.25,127,80.0
693,D2,61.5,0.25,127,80.0
694,F#2,61.5,49/100,116,80.0
695,D3,61.75,0.0,127,80.0
696,A3,61.75,0.25,127,80.0
697,D2,61.75,0.25,127,80.0
698,A5,61.75,99/100,98,80.0
699,D3,62.0,0.0,127,80.0
700,A3,62.0,0.5,127,80.0
701,D2,62.0,0.25,127,80.0
702,C2,62.0,6/25,110,80.0
703,F#2,62.0,49/100,116,80.0
704,D2,62.25,0.25,127,80.0
705,C2,62.25,37/50,106,80.0
706,D2,62.5,1.5,127,80.0
707,D2,62.5,0.5,127,80.0
708,F#2,62.5,49/100,100,80.0
709,F#5,62.75,6/25,109,80.0
710,D3,63.0,0.0,127,80.0
711,B-3,63.0,0.25,127,80.0
712,D2,63.0,0.25,127,80.0
713,E5,63.0,49/100,86,80.0
714,D2,63.0,99/100,127,80.0
715,F#2,63.0,49/100,108,80.0
716,D3,63.25,0.0,127,80.0
717,B-3,63.25,0.25,127,80.0
718,D2,63.25,0.25,127,80.0
719,D3,63.5,0.0,127,80.0
720,B-3,63.5,0.5,127,80.0
721,D2,63.5,0.5,127,80.0
722,F#5,63.5,0.5,74,80.0
723,F#2,63.5,49/100,116,80.0
724,F#5,64.0,49/100,74,80.0
725,C2,64.0,6/25,110,80.0
726,F#2,64.0,49/100,116,80.0
727,C2,64.25,37/50,106,80.0
728,D3,64.5,0.0,127,80.0
729,B-3,64.5,0.25,127,80.0
730,D2,64.5,0.25,127,80.0
731,E5,64.5,6/25,86,80.0
732,F#2,64.5,49/100,100,80.0
733,D3,64.75,0.0,127,80.0
734,B-3,64.75,0.25,127,80.0
735,D2,64.75,0.25,127,80.0
736,D5,64.75,49/100,109,80.0
737,D3,65.0,0.0,127,80.0
738,B-3,65.0,0.5,127,80.0
739,D2,65.0,0.25,127,80.0
740,D2,65.0,99/100,127,80.0
741,F#2,65.0,49/100,108,80.0
742,D2,65.25,0.25,127,80.0
743,D5,65.25,37/50,121,80.0
744,D2,65.5,1.5,127,80.0
745,D2,65.5,0.5,127,80.0
746,F#2,65.5,49/100,116,80.0
747,D3,66.0,0.0,127,80.0
748,B3,66.0,0.25,127,80.0
749,D2,66.0,0.25,127,80.0
750,C2,66.0,6/25,110,80.0
751,F#2,66.0,49/100,116,80.0
752,D3,66.25,0.0,127,80.0
753,B3,66.25,0.25,127,80.0
754,D2,66.25,0.25,127,80.0
755,C2,66.25,37/50,106,80.0
756,D3,66.5,0.0,127,80.0
757,B3,66.5,0.5,127,80.0
758,D2,66.5,0.5,127,80.0
759,F#2,66.5,49/100,100,80.0
760,B4,67.0,37/50,115,80.0
761,D2,67.0,99/100,127,80.0
762,F#2,67.0,49/100,108,80.0
763,D3,67.5,0.0,127,80.0
764,B3,67.5,0.25,127,80.0
765,D3,67.5,0.25,127,80.0
766,F#2,67.5,49/100,116,80.0
767,D3,67.75,0.0,127,80.0
768,B3,67.75,0.25,127,80.0
769,D3,67.75,0.25,127,80.0
770,D5,67.75,0.25,115,80.0
771,D3,68.0,0.0,127,80.0
772,B3,68.0,0.5,127,80.0
773,D3,68.0,0.25,127,80.0
774,D5,68.0,6/25,115,80.0
775,C2,68.0,6/25,110,80.0
776,F#2,68.0,49/100,116,80.0
777,D2,68.25,0.25,127,80.0
778,D5,68.25,49/100,121,80.0
779,C2,68.25,37/50,106,80.0
780,D2,68.5,1.5,127,80.0
781,D2,68.5,0.5,127,80.0
782,F#2,68.5,49/100,100,80.0
783,B4,68.75,49/100,121,80.0
784,D3,69.0,0.0,127,80.0
785,C4,69.0,0.25,127,80.0
786,D2,69.0,0.25,127,80.0
787,D2,69.0,99/100,127,80.0
788,F#2,69.0,49/100,108,80.0
789,D3,69.25,0.0,127,80.0
790,C4,69.25,0.25,127,80.0
791,D2,69.25,0.25,127,80.0
792,E5,69.25,2.75,109,80.0
793,D3,69.5,0.0,127,80.0
794,C4,69.5,0.5,127,80.0
795,D2,69.5,0.5,127,80.0
796,F#2,69.5,49/100,116,80.0
797,C2,70.0,6/25,110,80.0
798,F#2,70.0,49/100,116,80.0
799,C2,70.25,37/50,106,80.0
800,D3,70.5,0.0,127,80.0
801,C4,70.5,0.25,127,80.0
802,D2,70.5,0.25,127,80.0
803,F#2,70.5,49/100,100,80.0
804,D3,70.75,0.0,127,80.0
805,C4,70.75,0.25,127,80.0
806,D2,70.75,0.25,127,80.0
807,D3,71.0,0.0,127,80.0
808,C4,71.0,0.5,127,80.0
809,D2,71.0,0.25,127,80.0
810,D2,71.0,99/100,127,80.0
811,F#2,71.0,49/100,108,80.0
812,D2,71.25,0.25,127,80.0
813,D2,71.5,0.5,127,80.0
814,D2,71.5,0.5,127,80.0
815,D2,71.5,0.5,60,80.0
816,F#2,71.5,49/100,116,80.0
817,D3,72.0,0.0,60,80.0
818,D2,72.0,0.25,127,80.0
819,D4,72.0,0.25,60,80.0
820,D2,72.0,1.0,60,80.0
821,E5,72.0,199/100,109,80.0
822,C2,72.0,6/25,110,80.0
823,F#2,72.0,49/100,116,80.0
824,D4,72.0,0.75,127,80.0
825,G4,72.0,0.75,127,80.0
826,A3,72.0,0.75,127,80.0
827,D5,72.0,0.75,127,80.0
828,D3,72.25,0.0,60,80.0
829,D2,72.25,0.25,127,80.0
830,D4,72.25,0.25,60,80.0
831,C2,72.25,37/50,106,80.0
832,D3,72.5,0.0,60,80.0
833,D2,72.5,1.0,127,80.0
834,D4,72.5,0.5,60,80.0
835,F#2,72.5,49/100,100,80.0
836,D4,72.75,0.75,127,80.0
837,F#4,72.75,0.75,127,80.0
838,A3,72.75,0.75,127,80.0
839,D5,72.75,0.75,127,80.0
840,D2,73.0,99/100,127,80.0
841,F#2,73.0,49/100,108,80.0
842,D3,73.5,0.0,60,80.0
843,D3,73.5,2.5,127,80.0
844,A3,73.5,0.25,60,80.0
845,F#2,73.5,49/100,116,80.0
846,C4,73.5,0.75,127,80.0
847,F4,73.5,0.75,127,80.0
848,A3,73.5,0.75,127,80.0
849,C5,73.5,0.75,127,80.0
850,D3,73.75,0.0,60,80.0
851,A3,73.75,0.25,60,80.0
852,D3,74.0,0.0,60,80.0
853,A3,74.0,0.5,60,80.0
854,C2,74.0,6/25,110,80.0
855,F#2,74.0,49/100,116,80.0
856,C2,74.25,37/50,106,80.0
857,C4,74.25,0.75,127,80.0
858,E4,74.25,0.75,127,80.0
859,A3,74.25,0.75,127,80.0
860,C5,74.25,0.75,127,80.0
861,D2,74.5,1.5,60,80.0
862,F#2,74.5,49/100,100,80.0
863,A3,75.0,0.0,127,80.0
864,D3,75.0,0.0,60,80.0
865,B-3,75.0,0.25,60,80.0
866,D2,75.0,99/100,127,80.0
867,F#2,75.0,49/100,108,80.0
868,D4,75.0,0.5,127,80.0
869,A4,75.0,0.5,127,80.0
870,D3,75.25,0.0,60,80.0
871,B-3,75.25,0.25,60,80.0
872,A3,75.5,0.0,127,80.0
873,D3,75.5,0.0,60,80.0
874,B-3,75.5,0.5,60,80.0
875,F#2,75.5,49/100,116,80.0
876,C#4,75.5,0.5,127,80.0
877,A4,75.5,0.5,127,80.0
878,C2,76.0,6/25,110,80.0
879,F#2,76.0,49/100,116,80.0
880,G3,76.0,0.75,127,80.0
881,C4,76.0,0.75,127,80.0
882,A3,76.0,0.75,127,80.0
883,G4,76.0,0.75,127,80.0
884,C2,76.25,37/50,106,80.0
885,D3,76.5,0.0,60,80.0
886,D3,76.5,0.25,127,80.0
887,B-3,76.5,0.25,60,80.0
888,F#2,76.5,49/100,100,80.0
889,D3,76.75,0.0,60,80.0
890,D2,76.75,0.25,127,80.0
891,B-3,76.75,0.25,60,80.0
892,G3,76.75,0.75,127,80.0
893,B3,76.75,0.75,127,80.0
894,A3,76.75,0.75,127,80.0
895,G4,76.75,0.75,127,80.0
896,D3,77.0,0.0,60,80.0
897,D3,77.0,0.5,127,80.0
898,B-3,77.0,0.5,60,80.0
899,D2,77.0,99/100,127,80.0
900,F#2,77.0,49/100,108,80.0
901,D2,77.5,0.25,127,80.0
902,D2,77.5,1.5,60,80.0
903,F#2,77.5,49/100,116,80.0
904,F3,77.5,0.75,127,80.0
905,B-3,77.5,0.75,127,80.0
906,A3,77.5,0.75,127,80.0
907,F4,77.5,0.75,127,80.0
908,D2,77.75,0.25,127,80.0
909,D3,78.0,0.0,60,80.0
910,B3,78.0,0.25,60,80.0
911,C2,78.0,6/25,110,80.0
912,F#2,78.0,49/100,116,80.0
913,A3,78.25,0.0,127,80.0
914,D3,78.25,0.0,60,80.0
915,D2,78.25,0.25,127,80.0
916,B3,78.25,0.25,60,80.0
917,C2,78.25,37/50,106,80.0
918,F3,78.25,0.75,127,80.0
919,F4,78.25,0.75,127,80.0
920,D3,78.5,0.0,60,80.0
921,D2,78.5,0.5,127,80.0
922,B3,78.5,0.5,60,80.0
923,F#2,78.5,49/100,100,80.0
924,F3,79.0,0.25,127,80.0
925,D2,79.0,99/100,127,80.0
926,F#2,79.0,49/100,108,80.0
927,E3,79.25,0.25,127,80.0
928,D3,79.5,0.0,60,80.0
929,D3,79.5,0.5,127,80.0
930,D3,79.5,0.25,127,80.0
931,B3,79.5,0.25,60,80.0
932,F#2,79.5,49/100,116,80.0
933,D3,79.75,0.0,60,80.0
934,D3,79.75,0.25,127,80.0
935,B3,79.75,0.25,60,80.0
936,D3,80.0,0.0,60,80.0
937,B3,80.0,0.5,60,80.0
938,C2,80.0,6/25,110,80.0
939,F#2,80.0,49/100,116,80.0
940,D4,80.0,0.75,127,80.0
941,G4,80.0,0.75,127,80.0
942,A3,80.0,0.75,127,80.0
943,D5,80.0,0.75,127,80.0
944,C2,80.25,37/50,106,80.0
945,D2,80.5,0.25,127,80.0
946,D2,80.5,1.5,60,80.0
947,F#2,80.5,49/100,100,80.0
948,D2,80.75,0.25,127,80.0
949,D4,80.75,0.75,127,80.0
950,F#4,80.75,0.75,127,80.0
951,A3,80.75,0.75,127,80.0
952,D5,80.75,0.75,127,80.0
953,D3,81.0,0.0,60,80.0
954,D2,81.0,0.25,127,80.0
955,C4,81.0,0.25,60,80.0
956,D2,81.0,99/100,127,80.0
957,F#2,81.0,49/100,108,80.0
958,D3,81.25,0.0,60,80.0
959,D2,81.25,0.25,127,80.0
960,C4,81.25,0.25,60,80.0
961,D3,81.5,0.0,60,80.0
962,D2,81.5,1.0,127,80.0
963,C4,81.5,0.5,60,80.0
964,F#2,81.5,49/100,116,80.0
965,C4,81.5,0.75,127,80.0
966,F4,81.5,0.75,127,80.0
967,A3,81.5,0.75,127,80.0
968,C5,81.5,0.75,127,80.0
969,C2,82.0,6/25,110,80.0
970,F#2,82.0,49/100,116,80.0
971,C2,82.25,37/50,106,80.0
972,C4,82.25,0.75,127,80.0
973,E4,82.25,0.75,127,80.0
974,A3,82.25,0.75,127,80.0
975,C5,82.25,0.75,127,80.0
976,D3,82.5,0.0,60,80.0
977,D3,82.5,0.25,127,80.0
978,C4,82.5,0.25,60,80.0
979,F#2,82.5,49/100,100,80.0
980,D3,82.75,0.0,60,80.0
981,D3,82.75,0.25,127,80.0
982,C4,82.75,0.25,60,80.0
983,A3,83.0,0.0,127,80.0
984,D3,83.0,0.0,60,80.0
985,C4,83.0,0.5,60,80.0
986,D2,83.0,99/100,127,80.0
987,F#2,83.0,49/100,108,80.0
988,D4,83.0,0.5,127,80.0
989,A4,83.0,0.5,127,80.0
990,A3,83.5,0.0,127,80.0
991,D2,83.5,0.25,127,80.0
992,D2,83.5,0.5,60,80.0
993,F#2,83.5,49/100,116,80.0
994,C#4,83.5,0.5,127,80.0
995,A4,83.5,0.5,127,80.0
996,D2,83.75,0.25,127,80.0
997,D3,84.0,0.0,60,80.0
998,D2,84.0,0.25,127,80.0
999,D4,84.0,0.25,60,80.0
1000,D2,84.0,1.0,60,80.0
1001,C2,84.0,6/25,110,80.0
1002,C#3,84.0,49/100,116,80.0
1003,G3,84.0,0.75,127,80.0
1004,C4,84.0,0.75,127,80.0
1005,A3,84.0,0.75,127,80.0
1006,G4,84.0,0.75,127,80.0
1007,D3,84.25,0.0,60,80.0
1008,D2,84.25,0.25,127,80.0
1009,D4,84.25,0.25,60,80.0
1010,C2,84.25,37/50,106,80.0
1011,D3,84.5,0.0,60,80.0
1012,D2,84.5,0.5,127,80.0
1013,D4,84.5,0.5,60,80.0
1014,F#2,84.5,49/100,100,80.0
1015,G3,84.75,0.75,127,80.0
1016,B3,84.75,0.75,127,80.0
1017,A3,84.75,0.75,127,80.0
1018,G4,84.75,0.75,127,80.0
1019,D2,85.0,99/100,127,80.0
1020,F#2,85.0,49/100,108,80.0
1021,D3,85.5,0.0,60,80.0
1022,D2,85.5,0.25,127,80.0
1023,A3,85.5,0.25,60,80.0
1024,F#2,85.5,49/100,116,80.0
1025,F3,85.5,0.75,127,80.0
1026,B-3,85.5,0.75,127,80.0
1027,A3,85.5,0.75,127,80.0
1028,F4,85.5,0.75,127,80.0
1029,D3,85.75,0.0,60,80.0
1030,D2,85.75,0.25,127,80.0
1031,A3,85.75,0.25,60,80.0
1032,D3,86.0,0.0,60,80.0
1033,D2,86.0,0.25,127,80.0
1034,A3,86.0,0.5,60,80.0
1035,C2,86.0,6/25,110,80.0
1036,F#2,86.0,49/100,116,80.0
1037,A3,86.25,0.0,127,80.0
1038,D2,86.25,0.25,127,80.0
1039,C2,86.25,37/50,106,80.0
1040,F3,86.25,0.75,127,80.0
1041,F4,86.25,0.75,127,80.0
1042,D2,86.5,0.5,127,80.0
1043,D2,86.5,1.5,60,80.0
1044,F#2,86.5,49/100,100,80.0
1045,D3,87.0,0.0,60,80.0
1046,F3,87.0,0.25,127,80.0
1047,D2,87.0,0.25,127,80.0
1048,B-3,87.0,0.25,60,80.0
1049,D2,87.0,99/100,127,80.0
1050,F#2,87.0,49/100,108,80.0
1051,D3,87.25,0.0,60,80.0
1052,E3,87.25,0.25,127,80.0
1053,D2,87.25,0.25,127,80.0
1054,B-3,87.25,0.25,60,80.0
1055,D3,87.5,0.0,60,80.0
1056,D3,87.5,0.5,127,80.0
1057,D2,87.5,0.5,127,80.0
1058,B-3,87.5,0.5,60,80.0
1059,F#2,87.5,49/100,116,80.0
1060,C2,88.0,6/25,110,80.0
1061,F#2,88.0,49/100,116,80.0
1062,C2,88.25,37/50,106,80.0
1063,D3,88.5,0.0,127,80.0
1064,B-3,88.5,0.25,127,80.0
1065,D3,88.5,0.25,127,80.0
1066,F#2,88.5,49/100,100,80.0
1067,D3,88.75,0.0,127,80.0
1068,B-3,88.75,0.25,127,80.0
1069,D3,88.75,0.25,127,80.0
1070,D3,89.0,0.0,127,80.0
1071,B-3,89.0,0.5,127,80.0
1072,D3,89.0,0.5,127,80.0
1073,D2,89.0,99/100,127,80.0
1074,F#2,89.0,49/100,108,80.0
1075,D2,89.5,1.5,127,80.0
1076,D2,89.5,0.5,127,80.0
1077,F#2,89.5,49/100,116,80.0
1078,D3,90.0,0.0,127,80.0
1079,B3,90.0,0.25,127,80.0
1080,D2,90.0,0.25,127,80.0
1081,C2,90.0,6/25,110,80.0
1082,F#2,90.0,49/100,116,80.0
1083,D3,90.25,0.0,127,80.0
1084,B3,90.25,0.25,127,80.0
1085,D2,90.25,0.25,127,80.0
1086,C2,90.25,37/50,106,80.0
1087,D3,90.5,0.0,127,80.0
1088,B3,90.5,0.5,127,80.0
1089,D2,90.5,0.5,127,80.0
1090,F#2,90.5,49/100,100,80.0
1091,D2,91.0,99/100,127,80.0
1092,F#2,91.0,49/100,108,80.0
1093,D3,91.5,0.0,127,80.0
1094,B3,91.5,0.25,127,80.0
1095,D3,91.5,0.25,127,80.0
1096,F#2,91.5,49/100,116,80.0
1097,D3,91.75,0.0,127,80.0
1098,B3,91.75,0.25,127,80.0
1099,D3,91.75,0.25,127,80.0
1100,D3,92.0,0.0,127,80.0
1101,B3,92.0,0.5,127,80.0
1102,D3,92.0,0.25,127,80.0
1103,C2,92.0,6/25,110,80.0
1104,F#2,92.0,49/100,116,80.0
1105,D2,92.25,0.25,127,80.0
1106,C2,92.25,37/50,106,80.0
1107,D2,92.5,1.5,127,80.0
1108,D2,92.5,0.5,127,80.0
1109,F#2,92.5,49/100,100,80.0
1110,D3,93.0,0.0,127,80.0
1111,C4,93.0,0.25,127,80.0
1112,D2,93.0,0.25,127,80.0
1113,D2,93.0,99/100,127,80.0
1114,F#2,93.0,49/100,108,80.0
1115,D3,93.25,0.0,127,80.0
1116,C4,93.25,0.25,127,80.0
1117,D2,93.25,0.25,127,80.0
1118,D3,93.5,0.0,127,80.0
1119,C4,93.5,0.5,127,80.0
1120,D2,93.5,0.5,127,80.0
1121,F#2,93.5,49/100,116,80.0
1122,C2,94.0,6/25,110,80.0
1123,F#2,94.0,49/100,116,80.0
1124,C2,94.25,37/50,106,80.0
1125,D3,94.5,0.0,127,80.0
1126,C4,94.5,0.25,127,80.0
1127,D3,94.5,0.25,127,80.0
1128,F#2,94.5,49/100,100,80.0
1129,D3,94.75,0.0,127,80.0
1130,C4,94.75,0.25,127,80.0
1131,D3,94.75,0.25,127,80.0
1132,D3,95.0,0.0,127,80.0
1133,C4,95.0,0.5,127,80.0
1134,D3,95.0,0.5,127,80.0
1135,D2,95.0,49/100,118,80.0
1136,F#2,95.0,49/100,118,80.0
1137,D2,95.5,0.5,127,80.0
1138,D2,95.5,0.5,127,80.0
1139,D2,95.5,6/25,116,80.0
1140,F#2,95.5,49/100,116,80.0
1141,D2,95.75,6/25,116,80.0
1142,D3,96.0,0.0,127,80.0
1143,D4,96.0,0.25,127,80.0
1144,D2,96.0,1.0,127,80.0
1145,D2,96.0,0.25,127,80.0
1146,C2,96.0,6/25,110,80.0
1147,C#3,96.0,49/100,116,80.0
1148,D3,96.25,0.0,127,80.0
1149,D4,96.25,0.25,127,80.0
1150,D2,96.25,0.25,127,80.0
1151,C2,96.25,37/50,106,80.0
1152,D3,96.5,0.0,127,80.0
1153,D4,96.5,0.5,127,80.0
1154,D2,96.5,0.5,127,80.0
1155,F#2,96.5,49/100,100,80.0
1156,F#5,97.0,6/25,86,80.0
1157,D2,97.0,99/100,127,80.0
1158,F#2,97.0,49/100,108,80.0
1159,F#5,97.25,49/100,98,80.0
1160,D3,97.5,0.0,127,80.0
1161,A3,97.5,0.25,127,80.0
1162,D2,97.5,0.25,127,80.0
1163,F#2,97.5,49/100,116,80.0
1164,D3,97.75,0.0,127,80.0
1165,A3,97.75,0.25,127,80.0
1166,D2,97.75,0.25,127,80.0
1167,A5,97.75,37/50,98,80.0
1168,D3,98.0,0.0,127,80.0
1169,A3,98.0,0.5,127,80.0
1170,D2,98.0,0.25,127,80.0
1171,C2,98.0,6/25,110,80.0
1172,F#2,98.0,49/100,116,80.0
1173,D2,98.25,0.25,127,80.0
1174,C2,98.25,37/50,106,80.0
1175,D2,98.5,1.5,127,80.0
1176,D2,98.5,0.5,127,80.0
1177,F#5,98.5,49/100,92,80.0
1178,F#2,98.5,49/100,100,80.0
1179,D3,99.0,0.0,127,80.0
1180,B-3,99.0,0.25,127,80.0
1181,D2,99.0,0.25,127,80.0
1182,E5,99.0,37/50,76,80.0
1183,D2,99.0,99/100,127,80.0
1184,F#2,99.0,49/100,108,80.0
1185,D3,99.25,0.0,127,80.0
1186,B-3,99.25,0.25,127,80.0
1187,D2,99.25,0.25,127,80.0
1188,D3,99.5,0.0,127,80.0
1189,B-3,99.5,0.5,127,80.0
1190,D2,99.5,0.5,127,80.0
1191,F#2,99.5,49/100,116,80.0
1192,F#5,99.75,6/25,98,80.0
1193,E5,100.0,6/25,78,80.0
1194,C2,100.0,6/25,110,80.0
1195,F#2,100.0,49/100,116,80.0
1196,D5,100.25,49/100,115,80.0
1197,C2,100.25,37/50,106,80.0
1198,D3,100.5,0.0,127,80.0
1199,B-3,100.5,0.25,127,80.0
1200,D3,100.5,0.25,127,80.0
1201,F#2,100.5,49/100,100,80.0
1202,D3,100.75,0.0,127,80.0
1203,B-3,100.75,0.25,127,80.0
1204,D3,100.75,0.25,127,80.0
1205,E5,100.75,31/25,80,80.0
1206,D3,101.0,0.0,127,80.0
1207,B-3,101.0,0.5,127,80.0
1208,D3,101.0,0.25,127,80.0
1209,D2,101.0,99/100,127,80.0
1210,F#2,101.0,49/100,108,80.0
1211,D2,101.25,0.25,127,80.0
1212,D2,101.5,1.5,127,80.0
1213,D2,101.5,0.5,127,80.0
1214,F#2,101.5,49/100,116,80.0
1215,D3,102.0,0.0,127,80.0
1216,B3,102.0,0.25,127,80.0
1217,D2,102.0,0.25,127,80.0
1218,C2,102.0,6/25,110,80.0
1219,F#2,102.0,49/100,116,80.0
1220,D3,102.25,0.0,127,80.0
1221,B3,102.25,0.25,127,80.0
1222,D2,102.25,0.25,127,80.0
1223,C2,102.25,37/50,106,80.0
1224,D3,102.5,0.0,127,80.0
1225,B3,102.5,0.5,127,80.0
1226,D2,102.5,0.5,127,80.0
1227,B4,102.5,31/25,98,80.0
1228,F#2,102.5,49/100,100,80.0
1229,D2,103.0,99/100,127,80.0
1230,F#2,103.0,49/100,108,80.0
1231,D3,103.5,0.0,127,80.0
1232,B3,103.5,0.25,127,80.0
1233,D3,103.5,0.25,127,80.0
1234,F#2,103.5,49/100,116,80.0
1235,D3,103.75,0.0,127,80.0
1236,B3,103.75,0.25,127,80.0
1237,D3,103.75,0.25,127,80.0
1238,D5,103.75,6/25,127,80.0
1239,D3,104.0,0.0,127,80.0
1240,B3,104.0,0.5,127,80.0
1241,D3,104.0,0.5,127,80.0
1242,D5,104.0,49/100,121,80.0
1243,C2,104.0,6/25,110,80.0
1244,F#2,104.0,49/100,116,80.0
1245,C2,104.25,37/50,106,80.0
1246,D2,104.5,1.5,127,80.0
1247,D2,104.5,0.5,127,80.0
1248,B4,104.5,49/100,121,80.0
1249,F#2,104.5,49/100,100,80.0
1250,D3,105.0,0.0,127,80.0
1251,C4,105.0,0.25,127,80.0
1252,D2,105.0,0.25,127,80.0
1253,E5,105.0,49/100,98,80.0
1254,D2,105.0,99/100,127,80.0
1255,F#2,105.0,49/100,108,80.0
1256,D3,105.25,0.0,127,80.0
1257,C4,105.25,0.25,127,80.0
1258,D2,105.25,0.25,127,80.0
1259,D3,105.5,0.0,127,80.0
1260,C4,105.5,0.5,127,80.0
1261,D2,105.5,0.5,127,80.0
1262,D5,105.5,49/100,121,80.0
1263,F#2,105.5,49/100,116,80.0
1264,C2,106.0,6/25,110,80.0
1265,F#2,106.0,49/100,116,80.0
1266,A4,106.25,0.25,127,80.0
1267,C2,106.25,37/50,106,80.0
1268,D3,106.5,0.0,127,80.0
1269,C4,106.5,0.25,127,80.0
1270,D3,106.5,0.25,127,80.0
1271,G#4,106.5,0.25,127,80.0
1272,F#2,106.5,49/100,100,80.0
1273,D3,106.75,0.0,127,80.0
1274,C4,106.75,0.25,127,80.0
1275,D3,106.75,0.25,127,80.0
1276,A4,106.75,0.25,127,80.0
1277,D3,107.0,0.0,127,80.0
1278,C4,107.0,0.5,127,80.0
1279,D3,107.0,0.5,127,80.0
1280,B4,107.0,0.25,127,80.0
1281,D2,107.0,99/100,127,80.0
1282,F#2,107.0,49/100,108,80.0
1283,A4,107.25,0.25,127,80.0
1284,D2,107.5,0.5,127,80.0
1285,D2,107.5,0.5,127,80.0
1286,G#4,107.5,0.25,127,80.0
1287,F#2,107.5,49/100,116,80.0
1288,A4,107.75,0.25,127,80.0
1289,D3,108.0,0.0,127,80.0
1290,D4,108.0,0.25,127,80.0
1291,D2,108.0,1.0,127,80.0
1292,D2,108.0,0.25,127,80.0
1293,F#4,108.0,4.0,127,80.0
1294,C2,108.0,6/25,110,80.0
1295,F#2,108.0,49/100,116,80.0
1296,D3,108.25,0.0,127,80.0
1297,D4,108.25,0.25,127,80.0
1298,D2,108.25,0.25,127,80.0
1299,C2,108.25,37/50,106,80.0
1300,D3,108.5,0.0,127,80.0
1301,D4,108.5,0.5,127,80.0
1302,D2,108.5,0.5,127,80.0
1303,F#2,108.5,49/100,100,80.0
1304,F#5,108.75,6/25,74,80.0
1305,F#5,109.0,6/25,70,80.0
1306,D2,109.0,99/100,127,80.0
1307,F#2,109.0,49/100,108,80.0
1308,F#5,109.25,49/100,74,80.0
1309,D3,109.5,0.0,127,80.0
1310,A3,109.5,0.25,127,80.0
1311,D2,109.5,0.25,127,80.0
1312,F#2,109.5,49/100,116,80.0
1313,D3,109.75,0.0,127,80.0
1314,A3,109.75,0.25,127,80.0
1315,D2,109.75,0.25,127,80.0
1316,A5,109.75,37/50,98,80.0
1317,D3,110.0,0.0,127,80.0
1318,A3,110.0,0.5,127,80.0
1319,D2,110.0,0.25,127,80.0
1320,C2,110.0,6/25,110,80.0
1321,F#2,110.0,49/100,116,80.0
1322,D2,110.25,0.25,127,80.0
1323,C2,110.25,37/50,106,80.0
1324,D2,110.5,1.5,127,80.0
1325,D2,110.5,0.5,127,80.0
1326,F#5,110.5,49/100,80,80.0
1327,F#2,110.5,49/100,100,80.0
1328,D3,111.0,0.0,127,80.0
1329,B-3,111.0,0.25,127,80.0
1330,D2,111.0,0.25,127,80.0
1331,E5,111.0,49/100,78,80.0
1332,D2,111.0,99/100,127,80.0
1333,F#2,111.0,49/100,108,80.0
1334,D3,111.25,0.0,127,80.0
1335,B-3,111.25,0.25,127,80.0
1336,D2,111.25,0.25,127,80.0
1337,D3,111.5,0.0,127,80.0
1338,B-3,111.5,0.5,127,80.0
1339,D2,111.5,0.5,127,80.0
1340,F#5,111.5,6/25,72,80.0
1341,F#2,111.5,49/100,116,80.0
1342,D5,111.75,0.25,98,80.0
1343,D5,112.0,6/25,98,80.0
1344,C2,112.0,6/25,110,80.0
1345,F#2,112.0,49/100,116,80.0
1346,D5,112.25,6/25,92,80.0
1347,C2,112.25,37/50,106,80.0
1348,D3,112.5,0.0,127,80.0
1349,B-3,112.5,0.25,127,80.0
1350,D3,112.5,0.25,127,80.0
1351,E5,112.5,49/100,80,80.0
1352,F#2,112.5,49/100,100,80.0
1353,D3,112.75,0.0,127,80.0
1354,B-3,112.75,0.25,127,80.0
1355,D3,112.75,0.25,127,80.0
1356,D3,113.0,0.0,127,80.0
1357,B-3,113.0,0.5,127,80.0
1358,D3,113.0,0.25,127,80.0
1359,D2,113.0,99/100,127,80.0
1360,F#2,113.0,49/100,108,80.0
1361,D2,113.25,0.25,127,80.0
1362,D2,113.5,1.5,127,80.0
1363,D2,113.5,0.5,127,80.0
1364,F#2,113.5,49/100,116,80.0
1365,D3,114.0,0.0,127,80.0
1366,B3,114.0,0.25,127,80.0
1367,D2,114.0,0.25,127,80.0
1368,B4,114.0,49/100,86,80.0
1369,C2,114.0,6/25,110,80.0
1370,F#2,114.0,49/100,116,80.0
1371,D3,114.25,0.0,127,80.0
1372,B3,114.25,0.25,127,80.0
1373,D2,114.25,0.25,127,80.0
1374,C2,114.25,37/50,106,80.0
1375,D3,114.5,0.0,127,80.0
1376,B3,114.5,0.5,127,80.0
1377,D2,114.5,0.5,127,80.0
1378,B4,114.5,49/100,98,80.0
1379,F#2,114.5,49/100,100,80.0
1380,D5,115.0,49/100,92,80.0
1381,D2,115.0,99/100,127,80.0
1382,F#2,115.0,49/100,108,80.0
1383,D3,115.5,0.0,127,80.0
1384,B3,115.5,0.25,127,80.0
1385,D3,115.5,0.25,127,80.0
1386,D5,115.5,49/100,98,80.0
1387,F#2,115.5,49/100,116,80.0
1388,D3,115.75,0.0,127,80.0
1389,B3,115.75,0.25,127,80.0
1390,D3,115.75,0.25,127,80.0
1391,D3,116.0,0.0,127,80.0
1392,B3,116.0,0.5,127,80.0
1393,D3,116.0,0.5,127,80.0
1394,B4,116.0,99/100,98,80.0
1395,C2,116.0,6/25,110,80.0
1396,F#2,116.0,49/100,116,80.0
1397,C2,116.25,37/50,106,80.0
1398,D2,116.5,1.5,127,80.0
1399,D2,116.5,0.5,127,80.0
1400,F#2,116.5,49/100,100,80.0
1401,D3,117.0,0.0,127,80.0
1402,C4,117.0,0.25,127,80.0
1403,D2,117.0,0.25,127,80.0
1404,E5,117.0,6/25,70,80.0
1405,D2,117.0,99/100,127,80.0
1406,F#2,117.0,49/100,108,80.0
1407,D3,117.25,0.0,127,80.0
1408,C4,117.25,0.25,127,80.0
1409,D2,117.25,0.25,127,80.0
1410,D5,117.25,37/50,121,80.0
1411,D3,117.5,0.0,127,80.0
1412,C4,117.5,0.5,127,80.0
1413,D2,117.5,0.5,127,80.0
1414,F#2,117.5,49/100,116,80.0
1415,C2,118.0,6/25,110,80.0
1416,F#2,118.0,49/100,116,80.0
1417,A4,118.25,0.25,127,80.0
1418,C2,118.25,37/50,106,80.0
1419,D3,118.5,0.0,127,80.0
1420,C4,118.5,0.25,127,80.0
1421,D3,118.5,0.25,127,80.0
1422,G#4,118.5,0.25,127,80.0
1423,F#2,118.5,49/100,100,80.0
1424,D3,118.75,0.0,127,80.0
1425,C4,118.75,0.25,127,80.0
1426,D3,118.75,0.25,127,80.0
1427,A4,118.75,0.25,127,80.0
1428,D3,119.0,0.0,127,80.0
1429,C4,119.0,0.5,127,80.0
1430,D3,119.0,0.5,127,80.0
1431,B4,119.0,0.25,127,80.0
1432,D2,119.0,99/100,127,80.0
1433,F#2,119.0,49/100,108,80.0
1434,A4,119.25,0.25,127,80.0
1435,D2,119.5,0.5,127,80.0
1436,D2,119.5,0.5,127,80.0
1437,G#4,119.5,0.25,127,80.0
1438,F#2,119.5,49/100,116,80.0
1439,A4,119.75,0.25,127,80.0
1440,D3,120.0,0.0,127,80.0
1441,D4,120.0,0.25,127,80.0
1442,D2,120.0,1.0,127,80.0
1443,D2,120.0,0.25,127,80.0
1444,F#4,120.0,4.0,127,80.0
1445,C2,120.0,6/25,110,80.0
1446,F#2,120.0,49/100,116,80.0
1447,D3,120.25,0.0,127,80.0
1448,D4,120.25,0.25,127,80.0
1449,D2,120.25,0.25,127,80.0
1450,C2,120.25,37/50,106,80.0
1451,D3,120.5,0.0,127,80.0
1452,D4,120.5,0.5,127,80.0
1453,D2,120.5,0.5,127,80.0
1454,F#4,120.5,49/100,115,80.0
1455,F#2,120.5,49/100,100,80.0
1456,F#5,121.0,49/100,121,80.0
1457,D2,121.0,99/100,127,80.0
1458,F#2,121.0,49/100,108,80.0
1459,D3,121.5,0.0,127,80.0
1460,A3,121.5,0.25,127,80.0
1461,D2,121.5,0.25,127,80.0
1462,E5,121.5,199/100,98,80.0
1463,F#2,121.5,49/100,116,80.0
1464,D3,121.75,0.0,127,80.0
1465,A3,121.75,0.25,127,80.0
1466,D2,121.75,0.25,127,80.0
1467,D3,122.0,0.0,127,80.0
1468,A3,122.0,0.5,127,80.0
1469,D2,122.0,0.25,127,80.0
1470,C2,122.0,6/25,110,80.0
1471,F#2,122.0,49/100,116,80.0
1472,D2,122.25,0.25,127,80.0
1473,C2,122.25,37/50,106,80.0
1474,D2,122.5,1.5,127,80.0
1475,D2,122.5,0.5,127,80.0
1476,F#2,122.5,49/100,100,80.0
1477,D3,123.0,0.0,127,80.0
1478,B-3,123.0,0.25,127,80.0
1479,D2,123.0,0.25,127,80.0
1480,D2,123.0,99/100,127,80.0
1481,F#2,123.0,49/100,108,80.0
1482,D3,123.25,0.0,127,80.0
1483,B-3,123.25,0.25,127,80.0
1484,D2,123.25,0.25,127,80.0
1485,D3,123.5,0.0,127,80.0
1486,B-3,123.5,0.5,127,80.0
1487,D2,123.5,0.5,127,80.0
1488,D5,123.5,0.5,127,80.0
1489,F#2,123.5,49/100,116,80.0
1490,D5,124.0,99/100,127,80.0
1491,C2,124.0,6/25,110,80.0
1492,F#2,124.0,49/100,116,80.0
1493,C2,124.25,37/50,106,80.0
1494,D3,124.5,0.0,127,80.0
1495,B-3,124.5,0.25,127,80.0
1496,D3,124.5,0.25,127,80.0
1497,F#2,124.5,49/100,100,80.0
1498,D3,124.75,0.0,127,80.0
1499,B-3,124.75,0.25,127,80.0
1500,D3,124.75,0.25,127,80.0
1501,D3,125.0,0.0,127,80.0
1502,B-3,125.0,0.5,127,80.0
1503,D3,125.0,0.25,127,80.0
1504,D2,125.0,99/100,127,80.0
1505,F#2,125.0,49/100,108,80.0
1506,D2,125.25,0.25,127,80.0
1507,D2,125.5,1.5,127,80.0
1508,D2,125.5,0.5,127,80.0
1509,F#2,125.5,49/100,116,80.0
1510,D3,126.0,0.0,127,80.0
1511,B3,126.0,0.25,127,80.0
1512,D2,126.0,0.25,127,80.0
1513,C2,126.0,6/25,110,80.0
1514,F#2,126.0,49/100,116,80.0
1515,D3,126.25,0.0,127,80.0
1516,B3,126.25,0.25,127,80.0
1517,D2,126.25,0.25,127,80.0
1518,C2,126.25,37/50,106,80.0
1519,D3,126.5,0.0,127,80.0
1520,B3,126.5,0.5,127,80.0
1521,D2,126.5,0.5,127,80.0
1522,F#2,126.5,49/100,100,80.0
1523,D2,127.0,99/100,127,80.0
1524,F#2,127.0,49/100,108,80.0
1525,D3,127.5,0.0,127,80.0
1526,B3,127.5,0.25,127,80.0
1527,D3,127.5,0.25,127,80.0
1528,F#2,127.5,49/100,116,80.0
1529,D3,127.75,0.0,127,80.0
1530,B3,127.75,0.25,127,80.0
1531,D3,127.75,0.25,127,80.0
1532,D3,128.0,0.0,127,80.0
1533,B3,128.0,0.5,127,80.0
1534,D3,128.0,0.5,127,80.0
1535,C2,128.0,6/25,110,80.0
1536,F#2,128.0,49/100,116,80.0
1537,C2,128.25,37/50,106,80.0
1538,D2,128.5,1.5,127,80.0
1539,D2,128.5,0.5,127,80.0
1540,F#2,128.5,49/100,100,80.0
1541,D3,129.0,0.0,127,80.0
1542,C4,129.0,0.25,127,80.0
1543,D2,129.0,0.25,127,80.0
1544,D2,129.0,99/100,127,80.0
1545,F#2,129.0,49/100,108,80.0
1546,D3,129.25,0.0,127,80.0
1547,C4,129.25,0.25,127,80.0
1548,D2,129.25,0.25,127,80.0
1549,D3,129.5,0.0,127,80.0
1550,C4,129.5,0.5,127,80.0
1551,D2,129.5,0.5,127,80.0
1552,F#2,129.5,49/100,116,80.0
1553,C2,130.0,6/25,110,80.0
1554,F#2,130.0,49/100,116,80.0
1555,A4,130.25,0.25,127,80.0
1556,C2,130.25,37/50,106,80.0
1557,D3,130.5,0.0,127,80.0
1558,C4,130.5,0.25,127,80.0
1559,D3,130.5,0.25,127,80.0
1560,G#4,130.5,0.25,127,80.0
1561,F#2,130.5,49/100,100,80.0
1562,D3,130.75,0.0,127,80.0
1563,C4,130.75,0.25,127,80.0
1564,D3,130.75,0.25,127,80.0
1565,A4,130.75,0.25,127,80.0
1566,D3,131.0,0.0,127,80.0
1567,C4,131.0,0.5,127,80.0
1568,D3,131.0,0.5,127,80.0
1569,B4,131.0,0.25,127,80.0
1570,D2,131.0,49/100,118,80.0
1571,F#2,131.0,49/100,118,80.0
1572,A4,131.25,0.25,127,80.0
1573,D2,131.5,0.5,127,80.0
1574,D2,131.5,0.5,127,80.0
1575,G#4,131.5,0.25,127,80.0
1576,D2,131.5,6/25,116,80.0
1577,F#2,131.5,49/100,116,80.0
1578,A4,131.75,0.25,127,80.0
1579,D2,131.75,6/25,116,80.0
1580,D3,132.0,0.0,127,80.0
1581,D4,132.0,0.25,127,80.0
1582,D2,132.0,1.0,127,80.0
1583,D2,132.0,0.25,127,80.0
1584,F#4,132.0,4.0,127,80.0
1585,C2,132.0,6/25,110,80.0
1586,C#3,132.0,49/100,116,80.0
1587,D3,132.25,0.0,127,80.0
1588,D4,132.25,0.25,127,80.0
1589,D2,132.25,0.25,127,80.0
1590,C2,132.25,37/50,106,80.0
1591,D3,132.5,0.0,127,80.0
1592,D4,132.5,0.5,127,80.0
1593,D2,132.5,0.5,127,80.0
1594,F#4,132.5,49/100,109,80.0
1595,F#2,132.5,49/100,100,80.0
1596,F#5,133.0,49/100,121,80.0
1597,D2,133.0,99/100,127,80.0
1598,F#2,133.0,49/100,108,80.0
1599,D3,133.5,0.0,127,80.0
1600,A3,133.5,0.25,127,80.0
1601,D2,133.5,0.25,127,80.0
1602,E5,133.5,87/50,78,80.0
1603,F#2,133.5,49/100,116,80.0
1604,D3,133.75,0.0,127,80.0
1605,A3,133.75,0.25,127,80.0
1606,D2,133.75,0.25,127,80.0
1607,D3,134.0,0.0,127,80.0
1608,A3,134.0,0.5,127,80.0
1609,D2,134.0,0.25,127,80.0
1610,C2,134.0,6/25,110,80.0
1611,F#2,134.0,49/100,116,80.0
1612,D2,134.25,0.25,127,80.0
1613,C2,134.25,37/50,106,80.0
1614,D2,134.5,1.5,127,80.0
1615,D2,134.5,0.5,127,80.0
1616,F#2,134.5,49/100,100,80.0
1617,D3,135.0,0.0,127,80.0
1618,B-3,135.0,0.25,127,80.0
1619,D2,135.0,0.25,127,80.0
1620,D2,135.0,99/100,127,80.0
1621,F#2,135.0,49/100,108,80.0
1622,D3,135.25,0.0,127,80.0
1623,B-3,135.25,0.25,127,80.0
1624,D2,135.25,0.25,127,80.0
1625,F#5,135.25,37/50,104,80.0
1626,D3,135.5,0.0,127,80.0
1627,B-3,135.5,0.5,127,80.0
1628,D2,135.5,0.5,127,80.0
1629,F#2,135.5,49/100,116,80.0
1630,D5,136.0,199/100,109,80.0
1631,C2,136.0,6/25,110,80.0
1632,F#2,136.0,49/100,116,80.0
1633,C2,136.25,37/50,106,80.0
1634,D3,136.5,0.0,127,80.0
1635,B-3,136.5,0.25,127,80.0
1636,D3,136.5,0.25,127,80.0
1637,F#2,136.5,49/100,100,80.0
1638,D3,136.75,0.0,127,80.0
1639,B-3,136.75,0.25,127,80.0
1640,D3,136.75,0.25,127,80.0
1641,D3,137.0,0.0,127,80.0
1642,B-3,137.0,0.5,127,80.0
1643,D3,137.0,0.25,127,80.0
1644,D2,137.0,99/100,127,80.0
1645,F#2,137.0,49/100,108,80.0
1646,D2,137.25,0.25,127,80.0
1647,D2,137.5,1.5,127,80.0
1648,D2,137.5,0.5,127,80.0
1649,F#2,137.5,49/100,116,80.0
1650,D3,138.0,0.0,127,80.0
1651,B3,138.0,0.25,127,80.0
1652,D2,138.0,0.25,127,80.0
1653,C2,138.0,6/25,110,80.0
1654,F#2,138.0,49/100,116,80.0
1655,D3,138.25,0.0,127,80.0
1656,B3,138.25,0.25,127,80.0
1657,D2,138.25,0.25,127,80.0
1658,C2,138.25,37/50,106,80.0
1659,D3,138.5,0.0,127,80.0
1660,B3,138.5,0.5,127,80.0
1661,D2,138.5,0.5,127,80.0
1662,F#2,138.5,49/100,100,80.0
1663,D2,139.0,99/100,127,80.0
1664,F#2,139.0,49/100,108,80.0
1665,D3,139.5,0.0,127,80.0
1666,B3,139.5,0.25,127,80.0
1667,D3,139.5,0.25,127,80.0
1668,F#2,139.5,49/100,116,80.0
1669,D3,139.75,0.0,127,80.0
1670,B3,139.75,0.25,127,80.0
1671,D3,139.75,0.25,127,80.0
1672,D3,140.0,0.0,127,80.0
1673,B3,140.0,0.5,127,80.0
1674,D3,140.0,0.5,127,80.0
1675,C2,140.0,6/25,110,80.0
1676,F#2,140.0,49/100,116,80.0
1677,C2,140.25,37/50,106,80.0
1678,D2,140.5,1.5,127,80.0
1679,D2,140.5,0.5,127,80.0
1680,F#2,140.5,49/100,100,80.0
1681,D3,141.0,0.0,127,80.0
1682,C4,141.0,0.25,127,80.0
1683,D2,141.0,0.25,127,80.0
1684,D2,141.0,99/100,127,80.0
1685,F#2,141.0,49/100,108,80.0
1686,D3,141.25,0.0,127,80.0
1687,C4,141.25,0.25,127,80.0
1688,D2,141.25,0.25,127,80.0
1689,D3,141.5,0.0,127,80.0
1690,C4,141.5,0.5,127,80.0
1691,D2,141.5,0.5,127,80.0
1692,F#2,141.5,49/100,116,80.0
1693,C2,142.0,6/25,110,80.0
1694,F#2,142.0,49/100,116,80.0
1695,C2,142.25,37/50,106,80.0
1696,D3,142.5,0.0,127,80.0
1697,C4,142.5,0.25,127,80.0
1698,D3,142.5,0.25,127,80.0
1699,F#2,142.5,49/100,100,80.0
1700,D3,142.75,0.0,127,80.0
1701,C4,142.75,0.25,127,80.0
1702,D3,142.75,0.25,127,80.0
1703,D3,143.0,0.0,127,80.0
1704,C4,143.0,0.5,127,80.0
1705,D3,143.0,0.5,127,80.0
1706,D2,143.0,99/100,127,80.0
1707,F#2,143.0,49/100,108,80.0
1708,D2,143.5,0.5,127,80.0
1709,D2,143.5,0.5,60,80.0
1710,F#2,143.5,49/100,116,80.0
1711,D3,144.0,0.0,60,80.0
1712,D3,144.0,0.25,127,80.0
1713,D4,144.0,0.25,60,80.0
1714,D2,144.0,1.0,60,80.0
1715,C2,144.0,6/25,110,80.0
1716,F#2,144.0,49/100,116,80.0
1717,D4,144.0,0.75,127,80.0
1718,G4,144.0,0.75,127,80.0
1719,A3,144.0,0.75,127,80.0
1720,D5,144.0,0.75,127,80.0
1721,D3,144.25,0.0,60,80.0
1722,D3,144.25,0.25,127,80.0
1723,D4,144.25,0.25,60,80.0
1724,C2,144.25,37/50,106,80.0
1725,D3,144.5,0.0,60,80.0
1726,D3,144.5,0.5,127,80.0
1727,D4,144.5,0.5,60,80.0
1728,F#2,144.5,49/100,100,80.0
1729,D4,144.75,0.75,127,80.0
1730,F#4,144.75,0.75,127,80.0
1731,A3,144.75,0.75,127,80.0
1732,D5,144.75,0.75,127,80.0
1733,D2,145.0,99/100,127,80.0
1734,F#2,145.0,49/100,108,80.0
1735,D3,145.5,0.0,60,80.0
1736,D3,145.5,0.25,127,80.0
1737,A3,145.5,0.25,60,80.0
1738,F#2,145.5,49/100,116,80.0
1739,C4,145.5,0.75,127,80.0
1740,F4,145.5,0.75,127,80.0
1741,A3,145.5,0.75,127,80.0
1742,C5,145.5,0.75,127,80.0
1743,D3,145.75,0.0,60,80.0
1744,D3,145.75,0.25,127,80.0
1745,A3,145.75,0.25,60,80.0
1746,D3,146.0,0.0,60,80.0
1747,D3,146.0,0.25,127,80.0
1748,A3,146.0,0.5,60,80.0
1749,C2,146.0,6/25,110,80.0
1750,F#2,146.0,49/100,116,80.0
1751,D2,146.25,0.25,127,80.0
1752,C2,146.25,37/50,106,80.0
1753,C4,146.25,0.75,127,80.0
1754,E4,146.25,0.75,127,80.0
1755,A3,146.25,0.75,127,80.0
1756,C5,146.25,0.75,127,80.0
1757,D2,146.5,0.5,127,80.0
1758,D2,146.5,1.5,60,80.0
1759,F#2,146.5,49/100,100,80.0
1760,A3,147.0,0.0,127,80.0
1761,D3,147.0,0.0,60,80.0
1762,D2,147.0,0.25,127,80.0
1763,B-3,147.0,0.25,60,80.0
1764,D2,147.0,99/100,127,80.0
1765,F#2,147.0,49/100,108,80.0
1766,D4,147.0,0.5,127,80.0
1767,A4,147.0,0.5,127,80.0
1768,D3,147.25,0.0,60,80.0
1769,D2,147.25,0.25,127,80.0
1770,B-3,147.25,0.25,60,80.0
1771,A3,147.5,0.0,127,80.0
1772,D3,147.5,0.0,60,80.0
1773,D2,147.5,0.5,127,80.0
1774,B-3,147.5,0.5,60,80.0
1775,F#2,147.5,49/100,116,80.0
1776,C#4,147.5,0.5,127,80.0
1777,A4,147.5,0.5,127,80.0
1778,C2,148.0,6/25,110,80.0
1779,F#2,148.0,49/100,116,80.0
1780,G3,148.0,0.75,127,80.0
1781,C4,148.0,0.75,127,80.0
1782,A3,148.0,0.75,127,80.0
1783,G4,148.0,0.75,127,80.0
1784,C2,148.25,37/50,106,80.0
1785,D3,148.5,0.0,60,80.0
1786,D3,148.5,0.25,127,80.0
1787,B-3,148.5,0.25,60,80.0
1788,F#2,148.5,49/100,100,80.0
1789,D3,148.75,0.0,60,80.0
1790,D3,148.75,0.25,127,80.0
1791,B-3,148.75,0.25,60,80.0
1792,G3,148.75,0.75,127,80.0
1793,B3,148.75,0.75,127,80.0
1794,A3,148.75,0.75,127,80.0
1795,G4,148.75,0.75,127,80.0
1796,D3,149.0,0.0,60,80.0
1797,D3,149.0,0.5,127,80.0
1798,B-3,149.0,0.5,60,80.0
1799,D2,149.0,99/100,127,80.0
1800,F#2,149.0,49/100,108,80.0
1801,D2,149.5,0.5,127,80.0
1802,D2,149.5,1.5,60,80.0
1803,F#2,149.5,49/100,116,80.0
1804,F3,149.5,0.75,127,80.0
1805,B-3,149.5,0.75,127,80.0
1806,A3,149.5,0.75,127,80.0
1807,F4,149.5,0.75,127,80.0
1808,D3,150.0,0.0,60,80.0
1809,D2,150.0,0.25,127,80.0
1810,B3,150.0,0.25,60,80.0
1811,C2,150.0,6/25,110,80.0
1812,F#2,150.0,49/100,116,80.0
1813,A3,150.25,0.0,127,80.0
1814,D3,150.25,0.0,60,80.0
1815,D2,150.25,0.25,127,80.0
1816,B3,150.25,0.25,60,80.0
1817,C2,150.25,37/50,106,80.0
1818,F3,150.25,0.75,127,80.0
1819,F4,150.25,0.75,127,80.0
1820,D3,150.5,0.0,60,80.0
1821,D2,150.5,0.5,127,80.0
1822,B3,150.5,0.5,60,80.0
1823,F#2,150.5,49/100,100,80.0
1824,F3,151.0,0.25,127,80.0
1825,D2,151.0,99/100,127,80.0
1826,F#2,151.0,49/100,108,80.0
1827,E3,151.25,0.25,127,80.0
1828,D3,151.5,0.0,60,80.0
1829,D3,151.5,0.5,127,80.0
1830,D3,151.5,0.25,127,80.0
1831,B3,151.5,0.25,60,80.0
1832,F#2,151.5,49/100,116,80.0
1833,D3,151.75,0.0,60,80.0
1834,D3,151.75,0.25,127,80.0
1835,B3,151.75,0.25,60,80.0
1836,D3,152.0,0.0,60,80.0
1837,D3,152.0,0.25,127,80.0
1838,B3,152.0,0.5,60,80.0
1839,C2,152.0,6/25,110,80.0
1840,F#2,152.0,49/100,116,80.0
1841,D4,152.0,0.75,127,80.0
1842,G4,152.0,0.75,127,80.0
1843,A3,152.0,0.75,127,80.0
1844,D5,152.0,0.75,127,80.0
1845,D2,152.25,0.25,127,80.0
1846,C2,152.25,37/50,106,80.0
1847,D2,152.5,0.5,127,80.0
1848,D2,152.5,1.5,60,80.0
1849,F#2,152.5,49/100,100,80.0
1850,D4,152.75,0.75,127,80.0
1851,F#4,152.75,0.75,127,80.0
1852,A3,152.75,0.75,127,80.0
1853,D5,152.75,0.75,127,80.0
1854,D3,153.0,0.0,60,80.0
1855,D2,153.0,0.25,127,80.0
1856,C4,153.0,0.25,60,80.0
1857,D2,153.0,99/100,127,80.0
1858,F#2,153.0,49/100,108,80.0
1859,D3,153.25,0.0,60,80.0
1860,D2,153.25,0.25,127,80.0
1861,C4,153.25,0.25,60,80.0
1862,D3,153.5,0.0,60,80.0
1863,D2,153.5,0.5,127,80.0
1864,C4,153.5,0.5,60,80.0
1865,F#2,153.5,49/100,116,80.0
1866,C4,153.5,0.75,127,80.0
1867,F4,153.5,0.75,127,80.0
1868,A3,153.5,0.75,127,80.0
1869,C5,153.5,0.75,127,80.0
1870,C2,154.0,6/25,110,80.0
1871,F#2,154.0,49/100,116,80.0
1872,C2,154.25,37/50,106,80.0
1873,C4,154.25,0.75,127,80.0
1874,E4,154.25,0.75,127,80.0
1875,A3,154.25,0.75,127,80.0
1876,C5,154.25,0.75,127,80.0
1877,D3,154.5,0.0,60,80.0
1878,D3,154.5,0.25,127,80.0
1879,C4,154.5,0.25,60,80.0
1880,F#2,154.5,49/100,100,80.0
1881,D3,154.75,0.0,60,80.0
1882,D3,154.75,0.25,127,80.0
1883,C4,154.75,0.25,60,80.0
1884,A3,155.0,0.0,127,80.0
1885,D3,155.0,0.0,60,80.0
1886,D3,155.0,0.5,127,80.0
1887,C4,155.0,0.5,60,80.0
1888,D2,155.0,99/100,127,80.0
1889,F#2,155.0,49/100,108,80.0
1890,D4,155.0,0.5,127,80.0
1891,A4,155.0,0.5,127,80.0
1892,A3,155.5,0.0,127,80.0
1893,A2,155.5,0.5,127,80.0
1894,D2,155.5,0.5,60,80.0
1895,F#2,155.5,49/100,116,80.0
1896,C#4,155.5,0.5,127,80.0
1897,A4,155.5,0.5,127,80.0
1898,D3,156.0,0.0,60,80.0
1899,D2,156.0,1.5,127,80.0
1900,A2,156.0,1.5,127,80.0
1901,D4,156.0,0.25,60,80.0
1902,D2,156.0,1.0,60,80.0
1903,C2,156.0,6/25,110,80.0
1904,C#3,156.0,49/100,116,80.0
1905,G3,156.0,0.75,127,80.0
1906,C4,156.0,0.75,127,80.0
1907,A3,156.0,0.75,127,80.0
1908,G4,156.0,0.75,127,80.0
1909,D3,156.25,0.0,60,80.0
1910,D4,156.25,0.25,60,80.0
1911,C2,156.25,37/50,106,80.0
1912,D3,156.5,0.0,60,80.0
1913,D4,156.5,0.5,60,80.0
1914,F#2,156.5,49/100,100,80.0
1915,G3,156.75,0.75,127,80.0
1916,B3,156.75,0.75,127,80.0
1917,A3,156.75,0.75,127,80.0
1918,G4,156.75,0.75,127,80.0
1919,D2,157.0,99/100,127,80.0
1920,F#2,157.0,49/100,108,80.0
1921,D3,157.5,0.0,60,80.0
1922,D3,157.5,0.25,127,80.0
1923,A3,157.5,0.25,60,80.0
1924,F#2,157.5,49/100,116,80.0
1925,F3,157.5,0.75,127,80.0
1926,B-3,157.5,0.75,127,80.0
1927,A3,157.5,0.75,127,80.0
1928,F4,157.5,0.75,127,80.0
1929,D3,157.75,0.0,60,80.0
1930,D3,157.75,0.25,127,80.0
1931,A3,157.75,0.25,60,80.0
1932,D3,158.0,0.0,60,80.0
1933,D3,158.0,0.25,127,80.0
1934,A3,158.0,0.5,60,80.0
1935,C2,158.0,6/25,110,80.0
1936,F#2,158.0,49/100,116,80.0
1937,A3,158.25,0.0,127,80.0
1938,D2,158.25,0.25,127,80.0
1939,C2,158.25,37/50,106,80.0
1940,F3,158.25,0.75,127,80.0
1941,F4,158.25,0.75,127,80.0
1942,D2,158.5,0.5,127,80.0
1943,D2,158.5,1.5,60,80.0
1944,F#2,158.5,49/100,100,80.0
1945,D3,159.0,0.0,60,80.0
1946,F3,159.0,0.25,127,80.0
1947,D2,159.0,0.25,127,80.0
1948,B-3,159.0,0.25,60,80.0
1949,D2,159.0,99/100,127,80.0
1950,F#2,159.0,49/100,108,80.0
1951,D3,159.25,0.0,60,80.0
1952,E3,159.25,0.25,127,80.0
1953,D2,159.25,0.25,127,80.0
1954,B-3,159.25,0.25,60,80.0
1955,D3,159.5,0.0,60,80.0
1956,D3,159.5,0.5,127,80.0
1957,D2,159.5,0.5,127,80.0
1958,B-3,159.5,0.5,60,80.0
1959,F#2,159.5,49/100,116,80.0
1960,C2,160.0,6/25,110,80.0
1961,F#2,160.0,49/100,116,80.0
1962,C2,160.25,37/50,106,80.0
1963,D3,160.5,0.0,127,80.0
1964,B-3,160.5,0.25,127,80.0
1965,D3,160.5,0.25,127,80.0
1966,F#2,160.5,49/100,100,80.0
1967,D3,160.75,0.0,127,80.0
1968,B-3,160.75,0.25,127,80.0
1969,D3,160.75,0.25,127,80.0
1970,D3,161.0,0.0,127,80.0
1971,B-3,161.0,0.5,127,80.0
1972,D3,161.0,0.25,127,80.0
1973,D2,161.0,99/100,127,80.0
1974,F#2,161.0,49/100,108,80.0
1975,D2,161.25,0.25,127,80.0
1976,D2,161.5,1.5,127,80.0
1977,D2,161.5,0.5,127,80.0
1978,D5,161.5,49/100,121,80.0
1979,F#2,161.5,49/100,116,80.0
1980,D3,162.0,0.0,127,80.0
1981,B3,162.0,0.25,127,80.0
1982,D2,162.0,0.25,127,80.0
1983,D5,162.0,199/100,121,80.0
1984,C2,162.0,6/25,110,80.0
1985,F#2,162.0,49/100,116,80.0
1986,D3,162.25,0.0,127,80.0
1987,B3,162.25,0.25,127,80.0
1988,D2,162.25,0.25,127,80.0
1989,C2,162.25,37/50,106,80.0
1990,D3,162.5,0.0,127,80.0
1991,B3,162.5,0.5,127,80.0
1992,D2,162.5,0.5,127,80.0
1993,F#2,162.5,49/100,100,80.0
1994,D2,163.0,99/100,127,80.0
1995,F#2,163.0,49/100,108,80.0
1996,D3,163.5,0.0,127,80.0
1997,B3,163.5,0.25,127,80.0
1998,D3,163.5,0.25,127,80.0
1999,F#2,163.5,49/100,116,80.0
2000,D3,163.75,0.0,127,80.0
2001,B3,163.75,0.25,127,80.0
2002,D3,163.75,0.25,127,80.0
2003,D3,164.0,0.0,127,80.0
2004,B3,164.0,0.5,127,80.0
2005,D3,164.0,0.5,127,80.0
2006,D5,164.0,399/100,121,80.0
2007,C2,164.0,6/25,110,80.0
2008,F#2,164.0,49/100,116,80.0
2009,C2,164.25,37/50,106,80.0
2010,D2,164.5,1.5,127,80.0
2011,D2,164.5,0.5,127,80.0
2012,F#2,164.5,49/100,100,80.0
2013,D3,165.0,0.0,127,80.0
2014,C4,165.0,0.25,127,80.0
2015,D2,165.0,0.25,127,80.0
2016,D2,165.0,99/100,127,80.0
2017,F#2,165.0,49/100,108,80.0
2018,D3,165.25,0.0,127,80.0
2019,C4,165.25,0.25,127,80.0
2020,D2,165.25,0.25,127,80.0
2021,D3,165.5,0.0,127,80.0
2022,C4,165.5,0.5,127,80.0
2023,D2,165.5,0.5,127,80.0
2024,F#2,165.5,49/100,116,80.0
2025,C2,166.0,6/25,110,80.0
2026,F#2,166.0,49/100,116,80.0
2027,C2,166.25,37/50,106,80.0
2028,D3,166.5,0.0,127,80.0
2029,C4,166.5,0.25,127,80.0
2030,D3,166.5,0.25,127,80.0
2031,F#2,166.5,49/100,100,80.0
2032,D3,166.75,0.0,127,80.0
2033,C4,166.75,0.25,127,80.0
2034,D3,166.75,0.25,127,80.0
2035,D3,167.0,0.0,127,80.0
2036,C4,167.0,0.5,127,80.0
2037,D3,167.0,0.5,127,80.0
2038,D2,167.0,99/100,127,80.0
2039,F#2,167.0,49/100,108,80.0
2040,D2,167.5,0.5,127,80.0
2041,F#2,167.5,49/100,116,80.0
2042,E3,168.0,0.75,127,80.0
2043,C2,168.0,99/100,127,80.0
2044,C#3,168.0,49/100,116,80.0
2045,D4,168.0,0.75,127,80.0
2046,G4,168.0,0.75,127,80.0
2047,A3,168.0,0.75,127,80.0
2048,D5,168.0,0.75,127,80.0
2049,D4,168.0,0.75,127,80.0
2050,G4,168.0,0.75,127,80.0
2051,A3,168.0,0.75,127,80.0
2052,D5,168.0,0.75,127,80.0
2053,F#2,168.5,49/100,122,80.0
2054,D3,168.75,0.75,127,80.0
2055,D4,168.75,0.75,127,80.0
2056,F#4,168.75,0.75,127,80.0
2057,A3,168.75,0.75,127,80.0
2058,D5,168.75,0.75,127,80.0
2059,D4,168.75,0.75,127,80.0
2060,F#4,168.75,0.75,127,80.0
2061,A3,168.75,0.75,127,80.0
2062,D5,168.75,0.75,127,80.0
2063,D2,169.0,99/100,122,80.0
2064,F#2,169.0,49/100,110,80.0
2065,C3,169.5,0.75,127,80.0
2066,F#2,169.5,49/100,108,80.0
2067,C4,169.5,0.75,127,80.0
2068,F4,169.5,0.75,127,80.0
2069,A3,169.5,0.75,127,80.0
2070,C5,169.5,0.75,127,80.0
2071,C4,169.5,0.75,127,80.0
2072,F4,169.5,0.75,127,80.0
2073,A3,169.5,0.75,127,80.0
2074,C5,169.5,0.75,127,80.0
2075,C2,170.0,6/25,127,80.0
2076,F#2,170.0,49/100,116,80.0
2077,A2,170.25,0.75,127,80.0
2078,C2,170.25,37/50,108,80.0
2079,C4,170.25,0.75,127,80.0
2080,E4,170.25,0.75,127,80.0
2081,A3,170.25,0.75,127,80.0
2082,C5,170.25,0.75,127,80.0
2083,C4,170.25,0.75,127,80.0
2084,E4,170.25,0.75,127,80.0
2085,A3,170.25,0.75,127,80.0
2086,C5,170.25,0.75,127,80.0
2087,F#2,170.5,49/100,116,80.0
2088,A3,171.0,0.0,127,80.0
2089,A3,171.0,0.0,127,80.0
2090,D2,171.0,0.5,127,80.0
2091,D2,171.0,99/100,127,80.0
2092,F#2,171.0,49/100,127,80.0
2093,D4,171.0,0.5,127,80.0
2094,A4,171.0,0.5,127,80.0
2095,D4,171.0,0.5,127,80.0
2096,A4,171.0,0.5,127,80.0
2097,A3,171.5,0.0,127,80.0
2098,A3,171.5,0.0,127,80.0
2099,A2,171.5,0.5,127,80.0
2100,F#2,171.5,49/100,127,80.0
2101,C#4,171.5,0.5,127,80.0
2102,A4,171.5,0.5,127,80.0
2103,C#4,171.5,0.5,127,80.0
2104,A4,171.5,0.5,127,80.0
2105,G2,172.0,0.75,127,80.0
2106,C2,172.0,99/100,122,80.0
2107,F#2,172.0,49/100,116,80.0
2108,G3,172.0,0.75,127,80.0
2109,C4,172.0,0.75,127,80.0
2110,A3,172.0,0.75,127,80.0
2111,G4,172.0,0.75,127,80.0
2112,G3,172.0,0.75,127,80.0
2113,C4,172.0,0.75,127,80.0
2114,A3,172.0,0.75,127,80.0
2115,G4,172.0,0.75,127,80.0
2116,F#2,172.5,49/100,122,80.0
2117,G2,172.75,0.75,127,80.0
2118,G3,172.75,0.75,127,80.0
2119,B3,172.75,0.75,127,80.0
2120,A3,172.75,0.75,127,80.0
2121,G4,172.75,0.75,127,80.0
2122,G3,172.75,0.75,127,80.0
2123,B3,172.75,0.75,127,80.0
2124,A3,172.75,0.75,127,80.0
2125,G4,172.75,0.75,127,80.0
2126,D2,173.0,99/100,127,80.0
2127,F#2,173.0,49/100,127,80.0
2128,F2,173.5,0.75,127,80.0
2129,F#2,173.5,49/100,127,80.0
2130,F3,173.5,0.75,127,80.0
2131,B-3,173.5,0.75,127,80.0
2132,A3,173.5,0.75,127,80.0
2133,F4,173.5,0.75,127,80.0
2134,F3,173.5,0.75,127,80.0
2135,B-3,173.5,0.75,127,80.0
2136,A3,173.5,0.75,127,80.0
2137,F4,173.5,0.75,127,80.0
2138,C2,174.0,99/100,127,80.0
2139,F#2,174.0,49/100,127,80.0
2140,A3,174.25,0.0,127,80.0
2141,A3,174.25,0.0,127,80.0
2142,F2,174.25,0.75,127,80.0
2143,F3,174.25,0.75,127,80.0
2144,F4,174.25,0.75,127,80.0
2145,F3,174.25,0.75,127,80.0
2146,F4,174.25,0.75,127,80.0
2147,F#2,174.5,49/100,127,80.0
2148,F3,175.0,0.25,127,80.0
2149,F2,175.0,0.25,127,80.0
2150,F3,175.0,0.25,127,80.0
2151,D2,175.0,6/25,127,80.0
2152,E3,175.25,0.25,127,80.0
2153,E2,175.25,0.25,127,80.0
2154,E3,175.25,0.25,127,80.0
2155,D2,175.25,6/25,127,80.0
2156,D3,175.5,0.25,127,80.0
2157,D2,175.5,0.25,127,80.0
2158,D3,175.5,0.25,127,80.0
2159,D2,175.5,6/25,127,80.0
2160,A2,175.75,0.25,127,80.0
2161,A1,175.75,0.25,127,80.0
2162,A2,175.75,0.25,127,80.0
2163,D2,175.75,6/25,127,80.0
2164,B2,176.0,0.25,127,80.0
2165,B1,176.0,0.25,127,80.0
2166,B2,176.0,0.25,127,80.0
2167,D2,176.0,6/25,127,80.0
2168,D3,176.25,0.25,127,80.0
2169,D2,176.25,0.25,127,80.0
2170,D3,176.25,0.25,127,80.0
2171,D2,176.25,6/25,127,80.0
2172,A1,176.5,0.5,127,80.0
2173,C2,176.5,99/100,127,80.0
2174,F#2,176.5,49/100,116,80.0
2175,A2,176.5,0.5,127,80.0
2176,E3,176.5,0.5,127,80.0
2177,A2,176.5,0.5,127,80.0
2178,E3,176.5,0.5,127,80.0
2179,F#2,177.0,49/100,122,80.0
2180,D2,177.5,49/100,122,80.0
2181,F#2,177.5,49/100,122,80.0
2182,A1,178.0,0.5,127,80.0
2183,A2,178.0,0.5,127,80.0
2184,F#3,178.0,0.5,127,80.0
2185,A2,178.0,0.5,127,80.0
2186,F#3,178.0,0.5,127,80.0
2187,C2,178.0,49/100,114,80.0
2188,F#2,178.0,49/100,114,80.0
2189,F#2,178.5,49/100,116,80.0
2190,A1,179.0,0.5,127,80.0
2191,A2,179.0,0.5,127,80.0
2192,E3,179.0,0.5,127,80.0
2193,A2,179.0,0.5,127,80.0
2194,E3,179.0,0.5,127,80.0
2195,C2,179.0,49/100,94,80.0
2196,F#2,179.0,49/100,94,80.0
2197,D2,179.5,49/100,118,80.0
2198,F#2,179.5,49/100,118,80.0
2199,A2,180.0,1.0,127,80.0
2200,A3,180.0,1.0,127,80.0
2201,C#4,180.0,1.0,127,80.0
2202,A3,180.0,1.0,127,80.0
2203,C#4,180.0,1.0,127,80.0
2204,C2,180.0,49/100,112,80.0
2205,F#2,180.0,49/100,112,80.0
2206,F#2,180.5,49/100,127,80.0
2207,A1,181.0,0.5,127,80.0
2208,A2,181.0,0.5,127,80.0
2209,E3,181.0,0.5,127,80.0
2210,A2,181.0,0.5,127,80.0
2211,E3,181.0,0.5,127,80.0
2212,C2,181.0,49/100,122,80.0
2213,F#2,181.0,49/100,122,80.0
2214,C6,181.5,199/100,98,80.0
2215,D2,181.5,99/100,122,80.0
2216,F#2,181.5,49/100,122,80.0
2217,F#2,182.0,49/100,127,80.0
2218,F#2,182.5,49/100,127,80.0
2219,C2,182.75,6/25,116,80.0
2220,C2,183.0,49/100,118,80.0
2221,F#2,183.0,49/100,118,80.0
2222,B5,183.5,0.5,86,80.0
2223,D2,183.5,6/25,122,80.0
2224,F#2,183.5,49/100,127,80.0
2225,C2,183.75,6/25,116,80.0
2226,B5,184.0,149/100,86,80.0
2227,C2,184.0,49/100,127,80.0
2228,F#2,184.0,49/100,127,80.0
2229,A1,184.5,0.5,127,80.0
2230,C2,184.5,99/100,127,80.0
2231,F#2,184.5,49/100,127,80.0
2232,A2,184.5,0.5,127,80.0
2233,E3,184.5,0.5,127,80.0
2234,A2,184.5,0.5,127,80.0
2235,E3,184.5,0.5,127,80.0
2236,F#2,185.0,49/100,127,80.0
2237,A5,185.5,99/100,86,80.0
2238,D2,185.5,49/100,127,80.0
2239,F#2,185.5,49/100,127,80.0
2240,A1,186.0,0.5,127,80.0
2241,A2,186.0,0.5,127,80.0
2242,F#3,186.0,0.5,127,80.0
2243,A2,186.0,0.5,127,80.0
2244,F#3,186.0,0.5,127,80.0
2245,C2,186.0,49/100,124,80.0
2246,F#2,186.0,49/100,124,80.0
2247,F#2,186.5,49/100,127,80.0
2248,A1,187.0,0.5,127,80.0
2249,A2,187.0,0.5,127,80.0
2250,E3,187.0,0.5,127,80.0
2251,A2,187.0,0.5,127,80.0
2252,E3,187.0,0.5,127,80.0
2253,C2,187.0,49/100,127,80.0
2254,F#2,187.0,49/100,127,80.0
2255,D2,187.5,49/100,127,80.0
2256,F#2,187.5,49/100,127,80.0
2257,A2,188.0,1.0,127,80.0
2258,A3,188.0,1.0,127,80.0
2259,C#4,188.0,1.0,127,80.0
2260,A3,188.0,1.0,127,80.0
2261,C#4,188.0,1.0,127,80.0
2262,C2,188.0,49/100,127,80.0
2263,F#2,188.0,49/100,127,80.0
2264,F#2,188.5,49/100,127,80.0
2265,A1,189.0,0.5,127,80.0
2266,A2,189.0,0.5,127,80.0
2267,E3,189.0,0.5,127,80.0
2268,A2,189.0,0.5,127,80.0
2269,E3,189.0,0.5,127,80.0
2270,C2,189.0,49/100,124,80.0
2271,F#2,189.0,49/100,124,80.0
2272,D2,189.5,99/100,116,80.0
2273,F#2,189.5,49/100,127,80.0
2274,C#5,190.0,6/25,92,80.0
2275,F#2,190.0,49/100,127,80.0
2276,C#5,190.25,37/50,92,80.0
2277,F#2,190.5,49/100,127,80.0
2278,D2,190.75,6/25,116,80.0
2279,F3,191.0,0.25,127,80.0
2280,F2,191.0,0.25,127,80.0
2281,F3,191.0,0.25,127,80.0
2282,C2,191.0,49/100,122,80.0
2283,F#2,191.0,49/100,122,80.0
2284,E3,191.25,0.25,127,80.0
2285,E2,191.25,0.25,127,80.0
2286,E3,191.25,0.25,127,80.0
2287,D3,191.5,0.25,127,80.0
2288,D2,191.5,0.25,127,80.0
2289,D3,191.5,0.25,127,80.0
2290,D5,191.5,49/100,76,80.0
2291,D2,191.5,0.5,127,80.0
2292,F#2,191.5,49/100,127,80.0
2293,A2,191.75,0.25,127,80.0
2294,A1,191.75,0.25,127,80.0
2295,A2,191.75,0.25,127,80.0
2296,B2,192.0,0.25,127,80.0
2297,B1,192.0,0.25,127,80.0
2298,B2,192.0,0.25,127,80.0
2299,E5,192.0,49/100,76,80.0
2300,F#2,192.0,49/100,127,80.0
2301,D2,192.0,6/25,127,80.0
2302,D3,192.25,0.25,127,80.0
2303,D2,192.25,0.25,127,80.0
2304,D3,192.25,0.25,127,80.0
2305,C2,192.25,6/25,127,80.0
2306,A1,192.5,0.5,127,80.0
2307,C2,192.5,99/100,127,80.0
2308,F#2,192.5,49/100,116,80.0
2309,A2,192.5,0.5,127,80.0
2310,E3,192.5,0.5,127,80.0
2311,A2,192.5,0.5,127,80.0
2312,E3,192.5,0.5,127,80.0
2313,C#5,193.0,6/25,80,80.0
2314,F#2,193.0,49/100,122,80.0
2315,B4,193.25,6/25,78,80.0
2316,A4,193.5,99/100,86,80.0
2317,D2,193.5,49/100,122,80.0
2318,F#2,193.5,49/100,122,80.0
2319,A1,194.0,0.5,127,80.0
2320,A2,194.0,0.5,127,80.0
2321,F#3,194.0,0.5,127,80.0
2322,A2,194.0,0.5,127,80.0
2323,F#3,194.0,0.5,127,80.0
2324,C2,194.0,49/100,114,80.0
2325,F#2,194.0,49/100,114,80.0
2326,F#2,194.5,49/100,116,80.0
2327,A1,195.0,0.5,127,80.0
2328,A2,195.0,0.5,127,80.0
2329,E3,195.0,0.5,127,80.0
2330,A2,195.0,0.5,127,80.0
2331,E3,195.0,0.5,127,80.0
2332,C2,195.0,49/100,94,80.0
2333,F#2,195.0,49/100,94,80.0
2334,D2,195.5,49/100,118,80.0
2335,F#2,195.5,49/100,118,80.0
2336,A2,196.0,1.0,127,80.0
2337,A3,196.0,1.0,127,80.0
2338,C#4,196.0,1.0,127,80.0
2339,A3,196.0,1.0,127,80.0
2340,C#4,196.0,1.0,127,80.0
2341,C2,196.0,49/100,112,80.0
2342,F#2,196.0,49/100,112,80.0
2343,F#2,196.5,49/100,127,80.0
2344,A1,197.0,0.5,127,80.0
2345,A2,197.0,0.5,127,80.0
2346,E3,197.0,0.5,127,80.0
2347,A2,197.0,0.5,127,80.0
2348,E3,197.0,0.5,127,80.0
2349,C2,197.0,49/100,122,80.0
2350,F#2,197.0,49/100,122,80.0
2351,D2,197.5,99/100,122,80.0
2352,F#2,197.5,49/100,122,80.0
2353,F#2,198.0,49/100,127,80.0
2354,F#2,198.5,49/100,127,80.0
2355,C2,198.75,6/25,116,80.0
2356,C2,199.0,49/100,118,80.0
2357,F#2,199.0,49/100,118,80.0
2358,D2,199.5,6/25,122,80.0
2359,F#2,199.5,49/100,127,80.0
2360,C2,199.75,6/25,116,80.0
2361,C2,200.0,49/100,127,80.0
2362,F#2,200.0,49/100,127,80.0
2363,A1,200.5,0.5,127,80.0
2364,C2,200.5,99/100,127,80.0
2365,C#3,200.5,49/100,127,80.0
2366,A2,200.5,0.5,127,80.0
2367,E3,200.5,0.5,127,80.0
2368,A2,200.5,0.5,127,80.0
2369,E3,200.5,0.5,127,80.0
2370,F#2,201.0,49/100,127,80.0
2371,C6,201.5,37/50,76,80.0
2372,D2,201.5,49/100,127,80.0
2373,F#2,201.5,49/100,127,80.0
2374,A1,202.0,0.5,127,80.0
2375,A2,202.0,0.5,127,80.0
2376,F#3,202.0,0.5,127,80.0
2377,A2,202.0,0.5,127,80.0
2378,F#3,202.0,0.5,127,80.0
2379,C2,202.0,49/100,124,80.0
2380,F#2,202.0,49/100,124,80.0
2381,B5,202.25,49/100,86,80.0
2382,F#2,202.5,49/100,127,80.0
2383,A5,202.75,37/50,86,80.0
2384,A1,203.0,0.5,127,80.0
2385,A2,203.0,0.5,127,80.0
2386,E3,203.0,0.5,127,80.0
2387,A2,203.0,0.5,127,80.0
2388,E3,203.0,0.5,127,80.0
2389,C2,203.0,49/100,127,80.0
2390,F#2,203.0,49/100,127,80.0
2391,D2,203.5,49/100,127,80.0
2392,F#2,203.5,49/100,127,80.0
2393,A2,204.0,1.0,127,80.0
2394,A3,204.0,1.0,127,80.0
2395,C#4,204.0,1.0,127,80.0
2396,A3,204.0,1.0,127,80.0
2397,C#4,204.0,1.0,127,80.0
2398,C2,204.0,49/100,127,80.0
2399,F#2,204.0,49/100,127,80.0
2400,F#2,204.5,49/100,127,80.0
2401,A1,205.0,0.5,127,80.0
2402,A2,205.0,0.5,127,80.0
2403,E3,205.0,0.5,127,80.0
2404,A2,205.0,0.5,127,80.0
2405,E3,205.0,0.5,127,80.0
2406,C2,205.0,49/100,124,80.0
2407,F#2,205.0,49/100,124,80.0
2408,D2,205.5,99/100,116,80.0
2409,F#2,205.5,49/100,127,80.0
2410,F#2,206.0,49/100,127,80.0
2411,F#2,206.5,49/100,127,80.0
2412,D2,206.75,6/25,116,80.0
2413,F3,207.0,0.25,127,80.0
2414,F2,207.0,0.25,127,80.0
2415,F3,207.0,0.25,127,80.0
2416,C5,207.0,6/25,80,80.0
2417,C2,207.0,49/100,122,80.0
2418,F#2,207.0,49/100,122,80.0
2419,E3,207.25,0.25,127,80.0
2420,E2,207.25,0.25,127,80.0
2421,E3,207.25,0.25,127,80.0
2422,B4,207.25,6/25,86,80.0
2423,D3,207.5,0.25,127,80.0
2424,D2,207.5,0.25,127,80.0
2425,D3,207.5,0.25,127,80.0
2426,C5,207.5,0.5,104,80.0
2427,D2,207.5,0.5,127,80.0
2428,F#2,207.5,49/100,127,80.0
2429,A2,207.75,0.25,127,80.0
2430,A1,207.75,0.25,127,80.0
2431,A2,207.75,0.25,127,80.0
2432,B2,208.0,0.25,127,80.0
2433,B1,208.0,0.25,127,80.0
2434,B2,208.0,0.25,127,80.0
2435,C5,208.0,49/100,104,80.0
2436,F#2,208.0,49/100,127,80.0
2437,D2,208.0,6/25,127,80.0
2438,D3,208.25,0.25,127,80.0
2439,D2,208.25,0.25,127,80.0
2440,D3,208.25,0.25,127,80.0
2441,C2,208.25,6/25,127,80.0
2442,A1,208.5,0.5,127,80.0
2443,C2,208.5,99/100,127,80.0
2444,C#3,208.5,49/100,116,80.0
2445,A2,208.5,0.5,127,80.0
2446,E3,208.5,0.5,127,80.0
2447,A2,208.5,0.5,127,80.0
2448,E3,208.5,0.5,127,80.0
2449,C5,209.0,49/100,92,80.0
2450,F#2,209.0,49/100,122,80.0
2451,C5,209.5,49/100,86,80.0
2452,D2,209.5,49/100,122,80.0
2453,F#2,209.5,49/100,122,80.0
2454,A1,210.0,0.5,127,80.0
2455,E5,210.0,49/100,62,80.0
2456,A2,210.0,0.5,127,80.0
2457,F#3,210.0,0.5,127,80.0
2458,A2,210.0,0.5,127,80.0
2459,F#3,210.0,0.5,127,80.0
2460,C2,210.0,49/100,114,80.0
2461,F#2,210.0,49/100,114,80.0
2462,C5,210.5,49/100,92,80.0
2463,F#2,210.5,49/100,116,80.0
2464,A1,211.0,0.5,127,80.0
2465,B4,211.0,99/100,98,80.0
2466,A2,211.0,0.5,127,80.0
2467,E3,211.0,0.5,127,80.0
2468,A2,211.0,0.5,127,80.0
2469,E3,211.0,0.5,127,80.0
2470,C2,211.0,49/100,94,80.0
2471,F#2,211.0,49/100,94,80.0
2472,D2,211.5,49/100,118,80.0
2473,F#2,211.5,49/100,118,80.0
2474,A2,212.0,1.0,127,80.0
2475,A4,212.0,149/100,104,80.0
2476,A3,212.0,1.0,127,80.0
2477,C#4,212.0,1.0,127,80.0
2478,A3,212.0,1.0,127,80.0
2479,C#4,212.0,1.0,127,80.0
2480,C2,212.0,49/100,112,80.0
2481,F#2,212.0,49/100,112,80.0
2482,F#2,212.5,49/100,127,80.0
2483,A1,213.0,0.5,127,80.0
2484,A2,213.0,0.5,127,80.0
2485,E3,213.0,0.5,127,80.0
2486,A2,213.0,0.5,127,80.0
2487,E3,213.0,0.5,127,80.0
2488,C2,213.0,49/100,122,80.0
2489,F#2,213.0,49/100,122,80.0
2490,D2,213.5,99/100,122,80.0
2491,F#2,213.5,49/100,122,80.0
2492,F#2,214.0,49/100,127,80.0
2493,F#2,214.5,49/100,127,80.0
2494,C2,214.75,6/25,116,80.0
2495,C2,215.0,49/100,118,80.0
2496,F#2,215.0,49/100,118,80.0
2497,D2,215.5,6/25,122,80.0
2498,F#2,215.5,49/100,127,80.0
2499,C2,215.75,6/25,116,80.0
2500,C2,216.0,49/100,127,80.0
2501,F#2,216.0,49/100,127,80.0
2502,A1,216.5,0.5,127,80.0
2503,C2,216.5,99/100,127,80.0
2504,C#3,216.5,49/100,127,80.0
2505,A2,216.5,0.5,127,80.0
2506,E3,216.5,0.5,127,80.0
2507,A2,216.5,0.5,127,80.0
2508,E3,216.5,0.5,127,80.0
2509,F#2,217.0,49/100,127,80.0
2510,D2,217.5,49/100,127,80.0
2511,F#2,217.5,49/100,127,80.0
2512,A1,218.0,0.5,127,80.0
2513,A2,218.0,0.5,127,80.0
2514,F#3,218.0,0.5,127,80.0
2515,A2,218.0,0.5,127,80.0
2516,F#3,218.0,0.5,127,80.0
2517,C2,218.0,49/100,124,80.0
2518,F#2,218.0,49/100,124,80.0
2519,F#2,218.5,49/100,127,80.0
2520,A1,219.0,0.5,127,80.0
2521,A2,219.0,0.5,127,80.0
2522,E3,219.0,0.5,127,80.0
2523,A2,219.0,0.5,127,80.0
2524,E3,219.0,0.5,127,80.0
2525,C2,219.0,49/100,127,80.0
2526,F#2,219.0,49/100,127,80.0
2527,D2,219.5,49/100,127,80.0
2528,F#2,219.5,49/100,127,80.0
2529,A2,220.0,1.0,127,80.0
2530,A3,220.0,1.0,127,80.0
2531,C#4,220.0,1.0,127,80.0
2532,A3,220.0,1.0,127,80.0
2533,C#4,220.0,1.0,127,80.0
2534,C2,220.0,49/100,127,80.0
2535,F#2,220.0,49/100,127,80.0
2536,F#2,220.5,49/100,127,80.0
2537,A1,221.0,0.5,127,80.0
2538,A2,221.0,0.5,127,80.0
2539,E3,221.0,0.5,127,80.0
2540,A2,221.0,0.5,127,80.0
2541,E3,221.0,0.5,127,80.0
2542,C2,221.0,49/100,124,80.0
2543,F#2,221.0,49/100,124,80.0
2544,G5,221.5,99/100,92,80.0
2545,D2,221.5,99/100,116,80.0
2546,F#2,221.5,49/100,127,80.0
2547,F#2,222.0,49/100,127,80.0
2548,F#2,222.5,49/100,127,80.0
2549,D2,222.75,6/25,116,80.0
2550,F3,223.0,0.25,127,80.0
2551,F2,223.0,0.25,127,80.0
2552,F3,223.0,0.25,127,80.0
2553,C2,223.0,49/100,122,80.0
2554,F#2,223.0,49/100,122,80.0
2555,E3,223.25,0.25,127,80.0
2556,E2,223.25,0.25,127,80.0
2557,E3,223.25,0.25,127,80.0
2558,D3,223.5,0.25,127,80.0
2559,D2,223.5,0.25,127,80.0
2560,D3,223.5,0.25,127,80.0
2561,D2,223.5,0.5,127,80.0
2562,F#2,223.5,49/100,127,80.0
2563,A2,223.75,0.25,127,80.0
2564,A1,223.75,0.25,127,80.0
2565,A2,223.75,0.25,127,80.0
2566,B2,224.0,0.25,127,80.0
2567,B1,224.0,0.25,127,80.0
2568,B2,224.0,0.25,127,80.0
2569,F#2,224.0,49/100,127,80.0
2570,D2,224.0,6/25,127,80.0
2571,D3,224.25,0.25,127,80.0
2572,D2,224.25,0.25,127,80.0
2573,D3,224.25,0.25,127,80.0
2574,C2,224.25,6/25,127,80.0
2575,A1,224.5,0.5,127,80.0
2576,C2,224.5,99/100,127,80.0
2577,C#3,224.5,49/100,116,80.0
2578,A2,224.5,0.5,127,80.0
2579,E3,224.5,0.5,127,80.0
2580,A2,224.5,0.5,127,80.0
2581,E3,224.5,0.5,127,80.0
2582,F#2,225.0,49/100,122,80.0
2583,D2,225.5,49/100,122,80.0
2584,F#2,225.5,49/100,122,80.0
2585,A1,226.0,0.5,127,80.0
2586,C6,226.0,49/100,76,80.0
2587,A2,226.0,0.5,127,80.0
2588,F#3,226.0,0.5,127,80.0
2589,A2,226.0,0.5,127,80.0
2590,F#3,226.0,0.5,127,80.0
2591,C2,226.0,49/100,114,80.0
2592,F#2,226.0,49/100,114,80.0
2593,C6,226.5,49/100,76,80.0
2594,F#2,226.5,49/100,116,80.0
2595,A1,227.0,0.5,127,80.0
2596,B5,227.0,1.0,92,80.0
2597,A2,227.0,0.5,127,80.0
2598,E3,227.0,0.5,127,80.0
2599,A2,227.0,0.5,127,80.0
2600,E3,227.0,0.5,127,80.0
2601,C2,227.0,49/100,94,80.0
2602,F#2,227.0,49/100,94,80.0
2603,D2,227.5,49/100,118,80.0
2604,F#2,227.5,49/100,118,80.0
2605,A2,228.0,1.0,127,80.0
2606,B5,228.0,99/100,92,80.0
2607,A3,228.0,1.0,127,80.0
2608,C#4,228.0,1.0,127,80.0
2609,A3,228.0,1.0,127,80.0
2610,C#4,228.0,1.0,127,80.0
2611,C2,228.0,49/100,112,80.0
2612,F#2,228.0,49/100,112,80.0
2613,F#2,228.5,49/100,127,80.0
2614,A1,229.0,0.5,127,80.0
2615,C6,229.0,6/25,76,80.0
2616,A2,229.0,0.5,127,80.0
2617,E3,229.0,0.5,127,80.0
2618,A2,229.0,0.5,127,80.0
2619,E3,229.0,0.5,127,80.0
2620,C2,229.0,49/100,122,80.0
2621,F#2,229.0,49/100,122,80.0
2622,A5,229.25,6/25,86,80.0
2623,A5,229.5,99/100,78,80.0
2624,D2,229.5,99/100,122,80.0
2625,F#2,229.5,49/100,122,80.0
2626,F#2,230.0,49/100,127,80.0
2627,A5,230.5,99/100,86,80.0
2628,F#2,230.5,49/100,127,80.0
2629,C2,230.75,6/25,116,80.0
2630,C2,231.0,49/100,118,80.0
2631,F#2,231.0,49/100,118,80.0
2632,F#2,231.5,49/100,127,80.0
2633,C2,231.667,167/1000,122,80.0
2634,C2,231.833,167/1000,116,80.0
2635,C2,232.0,49/100,127,80.0
2636,D2,232.0,49/100,127,80.0
2637,F#2,232.0,49/100,127,80.0
2638,A1,232.5,0.5,127,80.0
2639,C#5,232.5,49/100,92,80.0
2640,C2,232.5,99/100,127,80.0
2641,C#3,232.5,49/100,127,80.0
2642,A2,232.5,0.5,127,80.0
2643,E3,232.5,0.5,127,80.0
2644,A2,232.5,0.5,127,80.0
2645,E3,232.5,0.5,127,80.0
2646,E5,233.0,49/100,80,80.0
2647,F#2,233.0,49/100,127,80.0
2648,C5,233.5,6/25,98,80.0
2649,D2,233.5,49/100,127,80.0
2650,F#2,233.5,49/100,127,80.0
2651,B4,233.75,6/25,98,80.0
2652,A1,234.0,0.5,127,80.0
2653,A4,234.0,149/100,109,80.0
2654,A2,234.0,0.5,127,80.0
2655,F#3,234.0,0.5,127,80.0
2656,A2,234.0,0.5,127,80.0
2657,F#3,234.0,0.5,127,80.0
2658,C2,234.0,49/100,124,80.0
2659,F#2,234.0,49/100,124,80.0
2660,F#2,234.5,49/100,127,80.0
2661,A1,235.0,0.5,127,80.0
2662,A2,235.0,0.5,127,80.0
2663,E3,235.0,0.5,127,80.0
2664,A2,235.0,0.5,127,80.0
2665,E3,235.0,0.5,127,80.0
2666,C2,235.0,49/100,127,80.0
2667,F#2,235.0,49/100,127,80.0
2668,D2,235.5,49/100,127,80.0
2669,F#2,235.5,49/100,127,80.0
2670,A2,236.0,1.0,127,80.0
2671,A3,236.0,1.0,127,80.0
2672,C#4,236.0,1.0,127,80.0
2673,A3,236.0,1.0,127,80.0
2674,C#4,236.0,1.0,127,80.0
2675,C2,236.0,49/100,127,80.0
2676,F#2,236.0,49/100,127,80.0
2677,F#2,236.5,49/100,127,80.0
2678,A1,237.0,0.5,127,80.0
2679,A2,237.0,0.5,127,80.0
2680,E3,237.0,0.5,127,80.0
2681,A2,237.0,0.5,127,80.0
2682,E3,237.0,0.5,127,80.0
2683,C2,237.0,49/100,124,80.0
2684,F#2,237.0,49/100,124,80.0
2685,D2,237.5,99/100,116,80.0
2686,F#2,237.5,49/100,127,80.0
2687,F#2,238.0,49/100,127,80.0
2688,F#2,238.5,49/100,127,80.0
2689,D2,238.75,6/25,116,80.0
2690,F3,239.0,0.25,127,80.0
2691,F2,239.0,0.25,127,80.0
2692,F3,239.0,0.25,127,80.0
2693,C2,239.0,49/100,122,80.0
2694,F#2,239.0,49/100,122,80.0
2695,E3,239.25,0.25,127,80.0
2696,E2,239.25,0.25,127,80.0
2697,E3,239.25,0.25,127,80.0
2698,D3,239.5,0.25,127,80.0
2699,D2,239.5,0.25,127,80.0
2700,D3,239.5,0.25,127,80.0
2701,D2,239.5,0.5,127,80.0
2702,F#2,239.5,49/100,127,80.0
2703,A2,239.75,0.25,127,80.0
2704,A1,239.75,0.25,127,80.0
2705,A2,239.75,0.25,127,80.0
2706,B2,240.0,0.25,127,80.0
2707,B1,240.0,0.25,127,80.0
2708,B2,240.0,0.25,127,80.0
2709,F#2,240.0,49/100,127,80.0
2710,D2,240.0,6/25,127,80.0
2711,D3,240.25,0.25,127,80.0
2712,D2,240.25,0.25,127,80.0
2713,D3,240.25,0.25,127,80.0
2714,C2,240.25,6/25,127,80.0
2715,A1,240.5,0.5,127,80.0
2716,C2,240.5,99/100,116,80.0
2717,F#2,240.5,49/100,106,80.0
2718,A2,240.5,0.5,127,80.0
2719,E3,240.5,0.5,127,80.0
2720,A2,240.5,0.5,127,80.0
2721,E3,240.5,0.5,127,80.0
2722,F#2,241.0,49/100,98,80.0
2723,D2,241.5,49/100,114,80.0
2724,F#2,241.5,49/100,114,80.0
2725,A1,242.0,0.5,127,80.0
2726,B5,242.0,37/50,78,80.0
2727,A2,242.0,0.5,127,80.0
2728,F#3,242.0,0.5,127,80.0
2729,A2,242.0,0.5,127,80.0
2730,F#3,242.0,0.5,127,80.0
2731,C2,242.0,49/100,111,80.0
2732,F#2,242.0,49/100,111,80.0
2733,F#2,242.5,49/100,104,80.0
2734,A5,242.75,6/25,86,80.0
2735,A1,243.0,0.5,127,80.0
2736,A5,243.0,49/100,98,80.0
2737,A2,243.0,0.5,127,80.0
2738,E3,243.0,0.5,127,80.0
2739,A2,243.0,0.5,127,80.0
2740,E3,243.0,0.5,127,80.0
2741,C2,243.0,49/100,105,80.0
2742,F#2,243.0,49/100,105,80.0
2743,D2,243.5,49/100,109,80.0
2744,F#2,243.5,49/100,109,80.0
2745,A2,244.0,1.0,127,80.0
2746,A3,244.0,1.0,127,80.0
2747,C#4,244.0,1.0,127,80.0
2748,A3,244.0,1.0,127,80.0
2749,C#4,244.0,1.0,127,80.0
2750,C2,244.0,49/100,116,80.0
2751,F#2,244.0,49/100,116,80.0
2752,F#2,244.5,49/100,99,80.0
2753,E3,244.5,49/100,99,80.0
2754,A1,245.0,0.5,127,80.0
2755,A2,245.0,0.5,127,80.0
2756,E3,245.0,0.5,127,80.0
2757,A2,245.0,0.5,127,80.0
2758,E3,245.0,0.5,127,80.0
2759,C2,245.0,49/100,101,80.0
2760,F#2,245.0,49/100,101,80.0
2761,D2,245.5,99/100,127,80.0
2762,F#2,245.5,49/100,100,80.0
2763,F#2,246.0,49/100,100,80.0
2764,F#2,246.5,49/100,92,80.0
2765,C2,246.75,6/25,106,80.0
2766,C2,247.0,49/100,106,80.0
2767,F#2,247.0,49/100,106,80.0
2768,F#2,247.5,49/100,106,80.0
2769,C2,247.75,6/25,102,80.0
2770,B4,248.0,49/100,78,80.0
2771,C2,248.0,49/100,112,80.0
2772,F#2,248.0,49/100,112,80.0
2773,A1,248.5,0.5,127,80.0
2774,C#5,248.5,49/100,98,80.0
2775,C2,248.5,99/100,90,80.0
2776,C#3,248.5,49/100,127,80.0
2777,A2,248.5,0.5,127,80.0
2778,E3,248.5,0.5,127,80.0
2779,A2,248.5,0.5,127,80.0
2780,E3,248.5,0.5,127,80.0
2781,E5,249.0,49/100,74,80.0
2782,F#2,249.0,49/100,116,80.0
2783,C5,249.5,6/25,80,80.0
2784,D2,249.5,49/100,118,80.0
2785,F#2,249.5,49/100,118,80.0
2786,B4,249.75,6/25,98,80.0
2787,A1,250.0,0.5,127,80.0
2788,A4,250.0,199/100,98,80.0
2789,A2,250.0,0.5,127,80.0
2790,F#3,250.0,0.5,127,80.0
2791,A2,250.0,0.5,127,80.0
2792,F#3,250.0,0.5,127,80.0
2793,C2,250.0,49/100,119,80.0
2794,F#2,250.0,49/100,119,80.0
2795,F#2,250.5,49/100,110,80.0
2796,A1,251.0,0.5,127,80.0
2797,A2,251.0,0.5,127,80.0
2798,E3,251.0,0.5,127,80.0
2799,A2,251.0,0.5,127,80.0
2800,E3,251.0,0.5,127,80.0
2801,C2,251.0,49/100,113,80.0
2802,F#2,251.0,49/100,113,80.0
2803,D2,251.5,49/100,122,80.0
2804,F#2,251.5,49/100,122,80.0
2805,A2,252.0,1.0,127,80.0
2806,C#5,252.0,49/100,109,80.0
2807,A3,252.0,1.0,127,80.0
2808,C#4,252.0,1.0,127,80.0
2809,A3,252.0,1.0,127,80.0
2810,C#4,252.0,1.0,127,80.0
2811,C2,252.0,49/100,94,80.0
2812,F#2,252.0,49/100,94,80.0
2813,E5,252.5,49/100,74,80.0
2814,F#2,252.5,49/100,108,80.0
2815,A1,253.0,0.5,127,80.0
2816,C5,253.0,6/25,98,80.0
2817,A2,253.0,0.5,127,80.0
2818,E3,253.0,0.5,127,80.0
2819,A2,253.0,0.5,127,80.0
2820,E3,253.0,0.5,127,80.0
2821,C2,253.0,49/100,112,80.0
2822,F#2,253.0,49/100,112,80.0
2823,B4,253.25,6/25,92,80.0
2824,A4,253.5,99/100,115,80.0
2825,D2,253.5,99/100,116,80.0
2826,F#2,253.5,49/100,116,80.0
2827,F#2,254.0,49/100,127,80.0
2828,F#2,254.5,99/100,127,80.0
2829,D2,254.75,6/25,127,80.0
2830,F3,255.0,0.25,127,80.0
2831,F3,255.0,0.25,127,80.0
2832,D2,255.0,49/100,116,80.0
2833,E3,255.25,0.25,127,80.0
2834,E3,255.25,0.25,127,80.0
2835,D3,255.5,0.25,127,80.0
2836,D3,255.5,0.25,127,80.0
2837,D2,255.5,49/100,127,80.0
2838,A2,255.75,0.25,127,80.0
2839,A2,255.75,0.25,127,80.0
2840,B2,256.0,0.25,127,80.0
2841,B2,256.0,0.25,127,80.0
2842,D2,256.0,6/25,122,80.0
2843,D3,256.25,0.25,127,80.0
2844,D3,256.25,0.25,127,80.0
2845,D2,256.25,6/25,127,80.0
2846,E3,256.5,0.75,127,80.0
2847,D4,256.5,0.75,127,80.0
2848,G4,256.5,0.75,127,80.0
2849,A3,256.5,0.75,127,80.0
2850,D5,256.5,0.75,127,80.0
2851,D4,256.5,0.75,127,80.0
2852,G4,256.5,0.75,127,80.0
2853,A3,256.5,0.75,127,80.0
2854,D5,256.5,0.75,127,80.0
2855,C2,256.5,99/100,122,80.0
2856,C#3,256.5,99/100,122,80.0
2857,D3,257.25,0.75,127,80.0
2858,D4,257.25,0.75,127,80.0
2859,F#4,257.25,0.75,127,80.0
2860,A3,257.25,0.75,127,80.0
2861,D5,257.25,0.75,127,80.0
2862,D4,257.25,0.75,127,80.0
2863,F#4,257.25,0.75,127,80.0
2864,A3,257.25,0.75,127,80.0
2865,D5,257.25,0.75,127,80.0
2866,D2,257.5,99/100,110,80.0
2867,F#2,257.5,49/100,98,80.0
2868,C3,258.0,0.75,127,80.0
2869,F#2,258.0,49/100,110,80.0
2870,C4,258.0,0.75,127,80.0
2871,F4,258.0,0.75,127,80.0
2872,A3,258.0,0.75,127,80.0
2873,C5,258.0,0.75,127,80.0
2874,C4,258.0,0.75,127,80.0
2875,F4,258.0,0.75,127,80.0
2876,A3,258.0,0.75,127,80.0
2877,C5,258.0,0.75,127,80.0
2878,C2,258.5,99/100,110,80.0
2879,F#2,258.5,49/100,110,80.0
2880,A2,258.75,0.75,127,80.0
2881,C4,258.75,0.75,127,80.0
2882,E4,258.75,0.75,127,80.0
2883,A3,258.75,0.75,127,80.0
2884,C5,258.75,0.75,127,80.0
2885,C4,258.75,0.75,127,80.0
2886,E4,258.75,0.75,127,80.0
2887,A3,258.75,0.75,127,80.0
2888,C5,258.75,0.75,127,80.0
2889,F#2,259.0,49/100,116,80.0
2890,A3,259.5,0.0,127,80.0
2891,A3,259.5,0.0,127,80.0
2892,D2,259.5,0.5,127,80.0
2893,D2,259.5,0.5,108,80.0
2894,F#2,259.5,49/100,108,80.0
2895,D4,259.5,0.5,127,80.0
2896,A4,259.5,0.5,127,80.0
2897,D4,259.5,0.5,127,80.0
2898,A4,259.5,0.5,127,80.0
2899,A3,260.0,0.0,127,80.0
2900,A3,260.0,0.0,127,80.0
2901,A2,260.0,0.5,127,80.0
2902,F#2,260.0,49/100,122,80.0
2903,D2,260.0,49/100,108,80.0
2904,C#4,260.0,0.5,127,80.0
2905,A4,260.0,0.5,127,80.0
2906,C#4,260.0,0.5,127,80.0
2907,A4,260.0,0.5,127,80.0
2908,G2,260.5,0.75,127,80.0
2909,C2,260.5,99/100,116,80.0
2910,F#2,260.5,49/100,102,80.0
2911,G3,260.5,0.75,127,80.0
2912,C4,260.5,0.75,127,80.0
2913,A3,260.5,0.75,127,80.0
2914,G4,260.5,0.75,127,80.0
2915,G3,260.5,0.75,127,80.0
2916,C4,260.5,0.75,127,80.0
2917,A3,260.5,0.75,127,80.0
2918,G4,260.5,0.75,127,80.0
2919,F#2,261.0,49/100,127,80.0
2920,G2,261.25,0.75,127,80.0
2921,G3,261.25,0.75,127,80.0
2922,B3,261.25,0.75,127,80.0
2923,A3,261.25,0.75,127,80.0
2924,G4,261.25,0.75,127,80.0
2925,G3,261.25,0.75,127,80.0
2926,B3,261.25,0.75,127,80.0
2927,A3,261.25,0.75,127,80.0
2928,G4,261.25,0.75,127,80.0
2929,D2,261.5,99/100,122,80.0
2930,F#2,261.5,49/100,122,80.0
2931,F2,262.0,0.75,127,80.0
2932,F#2,262.0,49/100,122,80.0
2933,F3,262.0,0.75,127,80.0
2934,B-3,262.0,0.75,127,80.0
2935,A3,262.0,0.75,127,80.0
2936,F4,262.0,0.75,127,80.0
2937,F3,262.0,0.75,127,80.0
2938,B-3,262.0,0.75,127,80.0
2939,A3,262.0,0.75,127,80.0
2940,F4,262.0,0.75,127,80.0
2941,C2,262.5,99/100,108,80.0
2942,F#2,262.5,49/100,116,80.0
2943,A3,262.75,0.0,127,80.0
2944,A3,262.75,0.0,127,80.0
2945,F2,262.75,0.75,127,80.0
2946,F3,262.75,0.75,127,80.0
2947,F4,262.75,0.75,127,80.0
2948,F3,262.75,0.75,127,80.0
2949,F4,262.75,0.75,127,80.0
2950,F#2,263.0,49/100,108,80.0
2951,F3,263.5,0.25,127,80.0
2952,F2,263.5,0.25,127,80.0
2953,F3,263.5,0.25,127,80.0
2954,D2,263.5,0.5,98,80.0
2955,F#2,263.5,49/100,116,80.0
2956,E3,263.75,0.25,127,80.0
2957,E2,263.75,0.25,127,80.0
2958,E3,263.75,0.25,127,80.0
2959,D3,264.0,0.5,127,80.0
2960,D2,264.0,0.5,127,80.0
2961,D3,264.0,0.5,127,80.0
2962,F#2,264.0,49/100,116,80.0
2963,D2,264.0,49/100,98,80.0
2964,E3,264.5,0.75,127,80.0
2965,C2,264.5,99/100,100,80.0
2966,F#2,264.5,49/100,122,80.0
2967,D4,264.5,0.75,127,80.0
2968,G4,264.5,0.75,127,80.0
2969,A3,264.5,0.75,127,80.0
2970,D5,264.5,0.75,127,80.0
2971,D4,264.5,0.75,127,80.0
2972,G4,264.5,0.75,127,80.0
2973,A3,264.5,0.75,127,80.0
2974,D5,264.5,0.75,127,80.0
2975,F#2,265.0,49/100,104,80.0
2976,D3,265.25,0.75,127,80.0
2977,D4,265.25,0.75,127,80.0
2978,F#4,265.25,0.75,127,80.0
2979,A3,265.25,0.75,127,80.0
2980,D5,265.25,0.75,127,80.0
2981,D4,265.25,0.75,127,80.0
2982,F#4,265.25,0.75,127,80.0
2983,A3,265.25,0.75,127,80.0
2984,D5,265.25,0.75,127,80.0
2985,D2,265.5,99/100,106,80.0
2986,F#2,265.5,49/100,110,80.0
2987,C3,266.0,0.75,127,80.0
2988,F#2,266.0,49/100,122,80.0
2989,C4,266.0,0.75,127,80.0
2990,F4,266.0,0.75,127,80.0
2991,A3,266.0,0.75,127,80.0
2992,C5,266.0,0.75,127,80.0
2993,C4,266.0,0.75,127,80.0
2994,F4,266.0,0.75,127,80.0
2995,A3,266.0,0.75,127,80.0
2996,C5,266.0,0.75,127,80.0
2997,C2,266.5,99/100,106,80.0
2998,F#2,266.5,49/100,127,80.0
2999,A2,266.75,0.75,127,80.0
3000,C4,266.75,0.75,127,80.0
3001,E4,266.75,0.75,127,80.0
3002,A3,266.75,0.75,127,80.0
3003,C5,266.75,0.75,127,80.0
3004,C4,266.75,0.75,127,80.0
3005,E4,266.75,0.75,127,80.0
3006,A3,266.75,0.75,127,80.0
3007,C5,266.75,0.75,127,80.0
3008,F#2,267.0,49/100,116,80.0
3009,A3,267.5,0.0,127,80.0
3010,A3,267.5,0.0,127,80.0
3011,D2,267.5,0.5,127,80.0
3012,D2,267.5,0.5,110,80.0
3013,F#2,267.5,49/100,127,80.0
3014,D4,267.5,0.5,127,80.0
3015,A4,267.5,0.5,127,80.0
3016,D4,267.5,0.5,127,80.0
3017,A4,267.5,0.5,127,80.0
3018,A3,268.0,0.0,127,80.0
3019,A3,268.0,0.0,127,80.0
3020,A2,268.0,0.5,127,80.0
3021,F#2,268.0,49/100,127,80.0
3022,D2,268.0,49/100,110,80.0
3023,C#4,268.0,0.5,127,80.0
3024,A4,268.0,0.5,127,80.0
3025,C#4,268.0,0.5,127,80.0
3026,A4,268.0,0.5,127,80.0
3027,G2,268.5,0.75,127,80.0
3028,C2,268.5,99/100,116,80.0
3029,F#2,268.5,49/100,96,80.0
3030,G3,268.5,0.75,127,80.0
3031,C4,268.5,0.75,127,80.0
3032,A3,268.5,0.75,127,80.0
3033,G4,268.5,0.75,127,80.0
3034,G3,268.5,0.75,127,80.0
3035,C4,268.5,0.75,127,80.0
3036,A3,268.5,0.75,127,80.0
3037,G4,268.5,0.75,127,80.0
3038,F#2,269.0,49/100,110,80.0
3039,G2,269.25,0.75,127,80.0
3040,G3,269.25,0.75,127,80.0
3041,B3,269.25,0.75,127,80.0
3042,A3,269.25,0.75,127,80.0
3043,G4,269.25,0.75,127,80.0
3044,G3,269.25,0.75,127,80.0
3045,B3,269.25,0.75,127,80.0
3046,A3,269.25,0.75,127,80.0
3047,G4,269.25,0.75,127,80.0
3048,D2,269.5,99/100,122,80.0
3049,F#2,269.5,49/100,122,80.0
3050,F2,270.0,0.75,127,80.0
3051,F#2,270.0,49/100,116,80.0
3052,F3,270.0,0.75,127,80.0
3053,B-3,270.0,0.75,127,80.0
3054,A3,270.0,0.75,127,80.0
3055,F4,270.0,0.75,127,80.0
3056,F3,270.0,0.75,127,80.0
3057,B-3,270.0,0.75,127,80.0
3058,A3,270.0,0.75,127,80.0
3059,F4,270.0,0.75,127,80.0
3060,C2,270.5,49/100,127,80.0
3061,F#2,270.5,49/100,127,80.0
3062,A3,270.75,0.0,127,80.0
3063,A3,270.75,0.0,127,80.0
3064,F2,270.75,0.75,127,80.0
3065,F3,270.75,0.75,127,80.0
3066,F4,270.75,0.75,127,80.0
3067,F3,270.75,0.75,127,80.0
3068,F4,270.75,0.75,127,80.0
3069,C2,271.0,49/100,122,80.0
3070,C#3,271.0,49/100,122,80.0
3071,F3,271.5,0.25,127,80.0
3072,F2,271.5,0.25,127,80.0
3073,F3,271.5,0.25,127,80.0
3074,D2,271.5,49/100,122,80.0
3075,C#3,271.5,49/100,122,80.0
3076,E3,271.75,0.25,127,80.0
3077,E2,271.75,0.25,127,80.0
3078,E3,271.75,0.25,127,80.0
3079,D3,272.0,0.5,127,80.0
3080,D2,272.0,0.5,127,80.0
3081,D3,272.0,0.5,127,80.0
3082,A5,272.0,49/100,92,80.0
3083,D2,272.0,49/100,127,80.0
3084,C#3,272.0,49/100,127,80.0
3085,D4,272.5,0.0,127,80.0
3086,G1,272.5,2.0,127,80.0
3087,G3,272.5,3.5,127,80.0
3088,G4,272.5,3.5,127,80.0
3089,C2,272.5,99/100,127,80.0
3090,C#3,272.5,49/100,116,80.0
3091,G2,272.5,1.0,127,80.0
3092,D3,272.5,1.0,127,80.0
3093,G3,272.5,1.0,127,80.0
3094,G4,272.5,1.0,127,80.0
3095,F#2,273.0,49/100,127,80.0
3096,D4,273.5,0.0,127,80.0
3097,D2,273.5,99/100,127,80.0
3098,F#2,273.5,49/100,116,80.0
3099,G2,273.5,0.75,127,80.0
3100,D3,273.5,0.75,127,80.0
3101,G3,273.5,0.75,127,80.0
3102,G4,273.5,0.75,127,80.0
3103,F#2,274.0,49/100,108,80.0
3104,D4,274.25,0.0,127,80.0
3105,G2,274.25,0.25,127,80.0
3106,D3,274.25,0.25,127,80.0
3107,G3,274.25,0.25,127,80.0
3108,G4,274.25,0.25,127,80.0
3109,D4,274.5,0.0,127,80.0
3110,G1,274.5,0.5,127,80.0
3111,B-4,274.5,0.656,80,80.0
3112,G2,274.5,0.25,127,80.0
3113,D3,274.5,0.25,127,80.0
3114,G3,274.5,0.25,127,80.0
3115,G4,274.5,0.25,127,80.0
3116,C2,274.5,49/100,122,80.0
3117,F#2,274.5,49/100,122,80.0
3118,D4,274.75,0.0,127,80.0
3119,G2,274.75,0.25,127,80.0
3120,D3,274.75,0.25,127,80.0
3121,G3,274.75,0.25,127,80.0
3122,G4,274.75,0.25,127,80.0
3123,D4,275.0,0.0,127,80.0
3124,G1,275.0,1.0,127,80.0
3125,G2,275.0,1.0,127,80.0
3126,D3,275.0,1.0,127,80.0
3127,G3,275.0,1.0,127,80.0
3128,G4,275.0,1.0,127,80.0
3129,C2,275.0,49/100,122,80.0
3130,F#2,275.0,49/100,122,80.0
3131,A4,275.167,0.656,86,80.0
3132,D2,275.5,0.5,127,80.0
3133,F#2,275.5,49/100,116,80.0
3134,G4,275.833,167/1000,109,80.0
3135,D4,276.0,0.0,127,80.0
3136,G1,276.0,0.5,127,80.0
3137,G3,276.0,0.5,127,80.0
3138,G4,276.0,0.5,127,80.0
3139,G4,276.0,49/100,109,80.0
3140,F#2,276.0,49/100,127,80.0
3141,D2,276.0,49/100,127,80.0
3142,G2,276.0,1.0,127,80.0
3143,D3,276.0,1.0,127,80.0
3144,G3,276.0,1.0,127,80.0
3145,G4,276.0,1.0,127,80.0
3146,G1,276.5,0.5,127,80.0
3147,A3,276.5,0.25,127,80.0
3148,A4,276.5,0.25,127,80.0
3149,C2,276.5,99/100,127,80.0
3150,F#2,276.5,49/100,127,80.0
3151,B-3,276.75,0.25,127,80.0
3152,B-4,276.75,0.25,127,80.0
3153,D4,277.0,0.0,127,80.0
3154,G1,277.0,0.5,127,80.0
3155,A3,277.0,0.5,127,80.0
3156,A4,277.0,0.5,127,80.0
3157,F#2,277.0,49/100,116,80.0
3158,G2,277.0,1.0,127,80.0
3159,D3,277.0,1.0,127,80.0
3160,G3,277.0,1.0,127,80.0
3161,G4,277.0,1.0,127,80.0
3162,G1,277.5,1.0,127,80.0
3163,G3,277.5,0.5,127,80.0
3164,G4,277.5,0.5,127,80.0
3165,D2,277.5,99/100,127,80.0
3166,F#2,277.5,49/100,108,80.0
3167,D4,278.0,0.0,127,80.0
3168,A3,278.0,0.5,127,80.0
3169,A4,278.0,0.5,127,80.0
3170,F#2,278.0,49/100,108,80.0
3171,G2,278.0,1.5,127,80.0
3172,D3,278.0,1.5,127,80.0
3173,G3,278.0,1.5,127,80.0
3174,G4,278.0,1.5,127,80.0
3175,G2,278.5,0.5,127,80.0
3176,B-3,278.5,0.5,127,80.0
3177,B-4,278.5,0.5,127,80.0
3178,C2,278.5,49/100,118,80.0
3179,F#2,278.5,49/100,118,80.0
3180,G2,279.0,1.0,127,80.0
3181,D4,279.0,0.5,127,80.0
3182,D5,279.0,0.5,127,80.0
3183,C2,279.0,49/100,122,80.0
3184,F#2,279.0,49/100,122,80.0
3185,D4,279.5,0.0,127,80.0
3186,E4,279.5,0.25,127,80.0
3187,E5,279.5,0.25,127,80.0
3188,A4,279.5,0.5,104,80.0
3189,G2,279.5,0.25,127,80.0
3190,D3,279.5,0.25,127,80.0
3191,G3,279.5,0.25,127,80.0
3192,G4,279.5,0.25,127,80.0
3193,D2,279.5,49/100,118,80.0
3194,F#2,279.5,49/100,118,80.0
3195,D4,279.75,0.0,127,80.0
3196,D4,279.75,0.25,127,80.0
3197,D5,279.75,0.25,127,80.0
3198,G2,279.75,0.25,127,80.0
3199,D3,279.75,0.25,127,80.0
3200,G3,279.75,0.25,127,80.0
3201,G4,279.75,0.25,127,80.0
3202,D4,280.0,0.0,127,80.0
3203,G2,280.0,0.5,127,80.0
3204,C#4,280.0,0.25,127,80.0
3205,C#5,280.0,0.25,127,80.0
3206,A4,280.0,6/25,104,80.0
3207,G2,280.0,0.5,127,80.0
3208,D3,280.0,0.5,127,80.0
3209,G3,280.0,0.5,127,80.0
3210,G4,280.0,0.5,127,80.0
3211,C2,280.0,49/100,124,80.0
3212,F#2,280.0,49/100,124,80.0
3213,D4,280.25,0.25,127,80.0
3214,D5,280.25,0.25,127,80.0
3215,B-4,280.25,49/100,104,80.0
3216,E4,280.5,0.0,127,80.0
3217,A1,280.5,1.0,127,80.0
3218,E4,280.5,3.0,127,80.0
3219,E5,280.5,3.0,127,80.0
3220,C2,280.5,99/100,127,80.0
3221,C#3,280.5,49/100,127,80.0
3222,A2,280.5,1.0,127,80.0
3223,E3,280.5,1.0,127,80.0
3224,A3,280.5,1.0,127,80.0
3225,A4,280.5,1.0,127,80.0
3226,A4,280.75,87/50,109,80.0
3227,F#2,281.0,49/100,122,80.0
3228,E4,281.5,0.0,127,80.0
3229,A2,281.5,1.0,127,80.0
3230,D2,281.5,99/100,127,80.0
3231,F#2,281.5,49/100,106,80.0
3232,A2,281.5,0.75,127,80.0
3233,E3,281.5,0.75,127,80.0
3234,A3,281.5,0.75,127,80.0
3235,A4,281.5,0.75,127,80.0
3236,F#2,282.0,49/100,127,80.0
3237,E4,282.25,0.0,127,80.0
3238,A2,282.25,0.25,127,80.0
3239,E3,282.25,0.25,127,80.0
3240,A3,282.25,0.25,127,80.0
3241,A4,282.25,0.25,127,80.0
3242,E4,282.5,0.0,127,80.0
3243,A1,282.5,0.5,127,80.0
3244,A2,282.5,0.25,127,80.0
3245,E3,282.5,0.25,127,80.0
3246,A3,282.5,0.25,127,80.0
3247,A4,282.5,0.25,127,80.0
3248,C2,282.5,49/100,127,80.0
3249,F#2,282.5,49/100,127,80.0
3250,E4,282.75,0.0,127,80.0
3251,A2,282.75,0.25,127,80.0
3252,E3,282.75,0.25,127,80.0
3253,A3,282.75,0.25,127,80.0
3254,A4,282.75,0.25,127,80.0
3255,E4,283.0,0.0,127,80.0
3256,A1,283.0,0.5,127,80.0
3257,A2,283.0,1.0,127,80.0
3258,E3,283.0,1.0,127,80.0
3259,A3,283.0,1.0,127,80.0
3260,A4,283.0,1.0,127,80.0
3261,C2,283.0,49/100,116,80.0
3262,F#2,283.0,49/100,116,80.0
3263,A2,283.5,0.5,127,80.0
3264,D4,283.5,0.25,127,80.0
3265,D5,283.5,0.25,127,80.0
3266,D2,283.5,49/100,127,80.0
3267,F#2,283.5,49/100,127,80.0
3268,C#4,283.75,0.25,127,80.0
3269,C#5,283.75,0.25,127,80.0
3270,E4,284.0,0.0,127,80.0
3271,A1,284.0,1.0,127,80.0
3272,D4,284.0,0.25,127,80.0
3273,D5,284.0,0.25,127,80.0
3274,C2,284.0,99/100,127,80.0
3275,C#3,284.0,49/100,122,80.0
3276,A2,284.0,1.0,127,80.0
3277,E3,284.0,1.0,127,80.0
3278,A3,284.0,1.0,127,80.0
3279,A4,284.0,1.0,127,80.0
3280,C#4,284.25,2.25,127,80.0
3281,C#5,284.25,2.25,127,80.0
3282,F#2,284.5,49/100,127,80.0
3283,E4,285.0,0.0,127,80.0
3284,A1,285.0,0.5,127,80.0
3285,A2,285.0,0.5,127,80.0
3286,E3,285.0,0.5,127,80.0
3287,A3,285.0,0.5,127,80.0
3288,A4,285.0,0.5,127,80.0
3289,C2,285.0,49/100,127,80.0
3290,F#2,285.0,49/100,127,80.0
3291,E4,285.5,0.0,127,80.0
3292,A2,285.5,1.0,127,80.0
3293,D2,285.5,99/100,127,80.0
3294,F#2,285.5,49/100,127,80.0
3295,A2,285.5,2.0,127,80.0
3296,E3,285.5,2.0,127,80.0
3297,A3,285.5,2.0,127,80.0
3298,A4,285.5,2.0,127,80.0
3299,F#2,286.0,49/100,127,80.0
3300,A2,286.5,0.5,127,80.0
3301,B-3,286.5,0.25,127,80.0
3302,B-4,286.5,0.25,127,80.0
3303,C2,286.5,49/100,127,80.0
3304,G3,286.5,49/100,127,80.0
3305,A3,286.75,0.25,127,80.0
3306,A4,286.75,0.25,127,80.0
3307,A2,287.0,0.5,127,80.0
3308,A3,287.0,0.25,127,80.0
3309,A4,287.0,0.25,127,80.0
3310,C2,287.0,49/100,127,80.0
3311,G3,287.0,49/100,127,80.0
3312,E4,287.5,0.0,127,80.0
3313,A2,287.5,0.5,127,80.0
3314,A3,287.5,0.5,127,80.0
3315,A4,287.5,0.5,127,80.0
3316,A2,287.5,0.5,127,80.0
3317,E3,287.5,0.5,127,80.0
3318,A3,287.5,0.5,127,80.0
3319,A4,287.5,0.5,127,80.0
3320,D2,287.5,49/100,127,80.0
3321,G3,287.5,49/100,127,80.0
3322,E4,288.0,0.0,127,80.0
3323,A2,288.0,0.5,127,80.0
3324,A3,288.0,0.25,127,80.0
3325,A4,288.0,0.25,127,80.0
3326,D2,288.0,6/25,127,80.0
3327,G3,288.0,49/100,127,80.0
3328,A2,288.0,0.25,127,80.0
3329,E3,288.0,0.25,127,80.0
3330,A3,288.0,0.25,127,80.0
3331,A4,288.0,0.25,127,80.0
3332,E4,288.25,0.0,127,80.0
3333,A3,288.25,0.25,127,80.0
3334,A4,288.25,0.25,127,80.0
3335,D2,288.25,6/25,127,80.0
3336,A2,288.25,0.25,127,80.0
3337,E3,288.25,0.25,127,80.0
3338,A3,288.25,0.25,127,80.0
3339,A4,288.25,0.25,127,80.0
3340,D4,288.5,0.0,127,80.0
3341,G1,288.5,1.0,127,80.0
3342,G3,288.5,3.0,127,80.0
3343,G4,288.5,3.0,127,80.0
3344,G2,288.5,1.0,127,80.0
3345,D3,288.5,1.0,127,80.0
3346,G3,288.5,1.0,127,80.0
3347,G4,288.5,1.0,127,80.0
3348,C2,288.5,99/100,127,80.0
3349,C#3,288.5,99/100,127,80.0
3350,D4,289.5,0.0,127,80.0
3351,G1,289.5,1.0,127,80.0
3352,D2,289.5,99/100,127,80.0
3353,G3,289.5,49/100,127,80.0
3354,G2,289.5,0.75,127,80.0
3355,D3,289.5,0.75,127,80.0
3356,G3,289.5,0.75,127,80.0
3357,G4,289.5,0.75,127,80.0
3358,F#2,290.0,49/100,108,80.0
3359,D4,290.25,0.0,127,80.0
3360,G2,290.25,0.25,127,80.0
3361,D3,290.25,0.25,127,80.0
3362,G3,290.25,0.25,127,80.0
3363,G4,290.25,0.25,127,80.0
3364,D4,290.5,0.0,127,80.0
3365,G1,290.5,0.5,127,80.0
3366,G2,290.5,0.25,127,80.0
3367,D3,290.5,0.25,127,80.0
3368,G3,290.5,0.25,127,80.0
3369,G4,290.5,0.25,127,80.0
3370,C2,290.5,49/100,112,80.0
3371,F#2,290.5,49/100,112,80.0
3372,D4,290.75,0.0,127,80.0
3373,G2,290.75,0.25,127,80.0
3374,D3,290.75,0.25,127,80.0
3375,G3,290.75,0.25,127,80.0
3376,G4,290.75,0.25,127,80.0
3377,D4,291.0,0.0,127,80.0
3378,G1,291.0,1.0,127,80.0
3379,B-4,291.0,99/100,98,80.0
3380,G2,291.0,1.0,127,80.0
3381,D3,291.0,1.0,127,80.0
3382,G3,291.0,1.0,127,80.0
3383,G4,291.0,1.0,127,80.0
3384,C2,291.0,49/100,122,80.0
3385,F#2,291.0,49/100,122,80.0
3386,D2,291.5,49/100,122,80.0
3387,F#2,291.5,49/100,122,80.0
3388,D4,292.0,0.0,127,80.0
3389,G1,292.0,1.0,127,80.0
3390,A4,292.0,49/100,115,80.0
3391,C2,292.0,99/100,127,80.0
3392,F#2,292.0,49/100,116,80.0
3393,G2,292.0,1.0,127,80.0
3394,D3,292.0,1.0,127,80.0
3395,G3,292.0,1.0,127,80.0
3396,G4,292.0,1.0,127,80.0
3397,A3,292.5,0.25,127,80.0
3398,A4,292.5,0.25,127,80.0
3399,G4,292.5,99/100,104,80.0
3400,F#2,292.5,49/100,127,80.0
3401,B-3,292.75,0.5,127,80.0
3402,B-4,292.75,0.5,127,80.0
3403,D4,293.0,0.0,127,80.0
3404,G1,293.0,0.5,127,80.0
3405,G2,293.0,1.0,127,80.0
3406,D3,293.0,1.0,127,80.0
3407,G3,293.0,1.0,127,80.0
3408,G4,293.0,1.0,127,80.0
3409,C2,293.0,49/100,127,80.0
3410,F#2,293.0,49/100,127,80.0
3411,C#4,293.25,0.25,127,80.0
3412,C#5,293.25,0.25,127,80.0
3413,G1,293.5,1.0,127,80.0
3414,D4,293.5,0.5,127,80.0
3415,D5,293.5,0.5,127,80.0
3416,D2,293.5,99/100,127,80.0
3417,F#2,293.5,49/100,108,80.0
3418,D4,294.0,0.0,127,80.0
3419,E4,294.0,0.5,127,80.0
3420,E5,294.0,0.5,127,80.0
3421,F#2,294.0,49/100,116,80.0
3422,G2,294.0,1.5,127,80.0
3423,D3,294.0,1.5,127,80.0
3424,G3,294.0,1.5,127,80.0
3425,G4,294.0,1.5,127,80.0
3426,G1,294.5,0.5,127,80.0
3427,C#4,294.5,0.25,127,80.0
3428,C#5,294.5,0.25,127,80.0
3429,C2,294.5,49/100,127,80.0
3430,F#2,294.5,49/100,127,80.0
3431,D4,294.75,0.25,127,80.0
3432,D5,294.75,0.25,127,80.0
3433,G1,295.0,1.0,127,80.0
3434,E4,295.0,0.25,127,80.0
3435,E5,295.0,0.25,127,80.0
3436,C2,295.0,49/100,127,80.0
3437,F#2,295.0,49/100,127,80.0
3438,F4,295.25,0.25,127,80.0
3439,F5,295.25,0.25,127,80.0
3440,D4,295.5,0.0,127,80.0
3441,D4,295.5,0.25,127,80.0
3442,D5,295.5,0.25,127,80.0
3443,D2,295.5,0.5,127,80.0
3444,G3,295.5,49/100,127,80.0
3445,G2,295.5,0.25,127,80.0
3446,D3,295.5,0.25,127,80.0
3447,G3,295.5,0.25,127,80.0
3448,G4,295.5,0.25,127,80.0
3449,D4,295.75,0.0,127,80.0
3450,C#4,295.75,0.25,127,80.0
3451,C#5,295.75,0.25,127,80.0
3452,G2,295.75,0.25,127,80.0
3453,D3,295.75,0.25,127,80.0
3454,G3,295.75,0.25,127,80.0
3455,G4,295.75,0.25,127,80.0
3456,A4,295.833,167/1000,109,80.0
3457,D4,296.0,0.0,127,80.0
3458,G1,296.0,0.5,127,80.0
3459,E4,296.0,1.5,127,80.0
3460,E5,296.0,1.5,127,80.0
3461,A4,296.0,0.156,109,80.0
3462,G3,296.0,49/100,127,80.0
3463,D2,296.0,49/100,127,80.0
3464,G2,296.0,0.5,127,80.0
3465,D3,296.0,0.5,127,80.0
3466,G3,296.0,0.5,127,80.0
3467,G4,296.0,0.5,127,80.0
3468,B-4,296.167,323/1000,104,80.0
3469,E4,296.5,0.0,127,80.0
3470,A1,296.5,1.0,127,80.0
3471,B-4,296.5,49/100,98,80.0
3472,C2,296.5,99/100,127,80.0
3473,C#3,296.5,49/100,116,80.0
3474,A2,296.5,1.0,127,80.0
3475,E3,296.5,1.0,127,80.0
3476,A3,296.5,1.0,127,80.0
3477,A4,296.5,1.0,127,80.0
3478,G4,297.0,149/100,109,80.0
3479,F#2,297.0,49/100,122,80.0
3480,E4,297.5,0.0,127,80.0
3481,A2,297.5,1.0,127,80.0
3482,D4,297.5,0.25,127,80.0
3483,D5,297.5,0.25,127,80.0
3484,D2,297.5,99/100,127,80.0
3485,F#2,297.5,49/100,108,80.0
3486,A2,297.5,0.75,127,80.0
3487,E3,297.5,0.75,127,80.0
3488,A3,297.5,0.75,127,80.0
3489,A4,297.5,0.75,127,80.0
3490,C#4,297.75,0.25,127,80.0
3491,C#5,297.75,0.25,127,80.0
3492,A3,298.0,0.25,127,80.0
3493,A4,298.0,0.25,127,80.0
3494,F#2,298.0,49/100,116,80.0
3495,E4,298.25,0.0,127,80.0
3496,E4,298.25,1.5,127,80.0
3497,E5,298.25,1.5,127,80.0
3498,A2,298.25,0.25,127,80.0
3499,E3,298.25,0.25,127,80.0
3500,A3,298.25,0.25,127,80.0
3501,A4,298.25,0.25,127,80.0
3502,E4,298.5,0.0,127,80.0
3503,A2,298.5,0.25,127,80.0
3504,A2,298.5,0.25,127,80.0
3505,E3,298.5,0.25,127,80.0
3506,A3,298.5,0.25,127,80.0
3507,A4,298.5,0.25,127,80.0
3508,C2,298.5,49/100,122,80.0
3509,F#2,298.5,49/100,122,80.0
3510,E4,298.75,0.0,127,80.0
3511,A2,298.75,0.25,127,80.0
3512,A2,298.75,0.25,127,80.0
3513,E3,298.75,0.25,127,80.0
3514,A3,298.75,0.25,127,80.0
3515,A4,298.75,0.25,127,80.0
3516,E4,299.0,0.0,127,80.0
3517,A2,299.0,0.25,127,80.0
3518,A2,299.0,1.0,127,80.0
3519,E3,299.0,1.0,127,80.0
3520,A3,299.0,1.0,127,80.0
3521,A4,299.0,1.0,127,80.0
3522,C2,299.0,49/100,127,80.0
3523,F#2,299.0,49/100,127,80.0
3524,A2,299.25,0.25,127,80.0
3525,A2,299.5,0.5,127,80.0
3526,D2,299.5,49/100,122,80.0
3527,F#2,299.5,49/100,122,80.0
3528,F4,299.75,0.25,127,80.0
3529,F5,299.75,0.25,127,80.0
3530,E4,300.0,0.0,127,80.0
3531,A2,300.0,1.0,127,80.0
3532,D4,300.0,0.25,127,80.0
3533,D5,300.0,0.25,127,80.0
3534,C2,300.0,99/100,127,80.0
3535,F#2,300.0,49/100,127,80.0
3536,A2,300.0,1.0,127,80.0
3537,E3,300.0,1.0,127,80.0
3538,A3,300.0,1.0,127,80.0
3539,A4,300.0,1.0,127,80.0
3540,B-3,300.25,0.25,127,80.0
3541,B-4,300.25,0.25,127,80.0
3542,A3,300.5,1.0,127,80.0
3543,A4,300.5,1.0,127,80.0
3544,F#2,300.5,49/100,110,80.0
3545,E4,301.0,0.0,127,80.0
3546,A2,301.0,0.5,127,80.0
3547,A2,301.0,0.5,127,80.0
3548,E3,301.0,0.5,127,80.0
3549,A3,301.0,0.5,127,80.0
3550,A4,301.0,0.5,127,80.0
3551,C2,301.0,49/100,127,80.0
3552,F#2,301.0,49/100,127,80.0
3553,E4,301.5,0.0,127,80.0
3554,A2,301.5,0.5,127,80.0
3555,B-3,301.5,0.25,127,80.0
3556,B-4,301.5,0.25,127,80.0
3557,A2,301.5,2.0,127,80.0
3558,E3,301.5,2.0,127,80.0
3559,A3,301.5,2.0,127,80.0
3560,A4,301.5,2.0,127,80.0
3561,D2,301.5,49/100,127,80.0
3562,G3,301.5,49/100,127,80.0
3563,G3,301.75,0.25,127,80.0
3564,G4,301.75,0.25,127,80.0
3565,A2,302.0,1.0,127,80.0
3566,A3,302.0,1.0,127,80.0
3567,A4,302.0,1.0,127,80.0
3568,D2,302.0,49/100,127,80.0
3569,G3,302.0,49/100,127,80.0
3570,C2,302.5,323/1000,127,80.0
3571,G3,302.5,99/100,127,80.0
3572,D2,302.833,0.156,127,80.0
3573,A2,303.0,0.5,127,80.0
3574,G3,303.0,0.25,127,80.0
3575,G4,303.0,0.25,127,80.0
3576,D2,303.0,0.156,127,80.0
3577,D2,303.167,0.156,127,80.0
3578,F3,303.25,0.75,127,80.0
3579,F4,303.25,0.75,127,80.0
3580,D2,303.333,0.156,127,80.0
3581,E4,303.5,0.0,127,80.0
3582,A2,303.5,0.5,127,80.0
3583,D3,303.5,0.156,127,80.0
3584,F#2,303.5,0.5,122,80.0
3585,A2,303.5,0.5,127,80.0
3586,E3,303.5,0.5,127,80.0
3587,A3,303.5,0.5,127,80.0
3588,A4,303.5,0.5,127,80.0
3589,D3,303.667,0.156,127,80.0
3590,D3,303.833,0.156,127,80.0
3591,E4,304.0,0.0,127,80.0
3592,A2,304.0,0.5,127,80.0
3593,F3,304.0,0.25,127,80.0
3594,F4,304.0,0.25,127,80.0
3595,B2,304.0,0.156,127,80.0
3596,F#2,304.0,49/100,122,80.0
3597,A2,304.0,0.25,127,80.0
3598,E3,304.0,0.25,127,80.0
3599,A3,304.0,0.25,127,80.0
3600,A4,304.0,0.25,127,80.0
3601,B2,304.167,0.156,127,80.0
3602,E4,304.25,0.0,127,80.0
3603,F3,304.25,0.25,127,80.0
3604,F4,304.25,0.25,127,80.0
3605,A2,304.25,0.25,127,80.0
3606,E3,304.25,0.25,127,80.0
3607,A3,304.25,0.25,127,80.0
3608,A4,304.25,0.25,127,80.0
3609,B2,304.333,0.156,127,80.0
3610,D4,304.5,0.0,127,80.0
3611,G1,304.5,1.0,127,80.0
3612,G3,304.5,3.0,127,80.0
3613,G4,304.5,3.0,127,80.0
3614,G2,304.5,1.0,127,80.0
3615,D3,304.5,1.0,127,80.0
3616,G3,304.5,1.0,127,80.0
3617,G4,304.5,1.0,127,80.0
3618,C2,304.5,99/100,115,80.0
3619,C#3,304.5,99/100,115,80.0
3620,D4,305.5,0.0,127,80.0
3621,G1,305.5,0.75,127,80.0
3622,D2,305.5,99/100,127,80.0
3623,F#2,305.5,49/100,127,80.0
3624,G2,305.5,0.75,127,80.0
3625,D3,305.5,0.75,127,80.0
3626,G3,305.5,0.75,127,80.0
3627,G4,305.5,0.75,127,80.0
3628,F#2,306.0,49/100,116,80.0
3629,D4,306.25,0.0,127,80.0
3630,G1,306.25,0.25,127,80.0
3631,G2,306.25,0.25,127,80.0
3632,D3,306.25,0.25,127,80.0
3633,G3,306.25,0.25,127,80.0
3634,G4,306.25,0.25,127,80.0
3635,D4,306.5,0.0,127,80.0
3636,G2,306.5,0.5,127,80.0
3637,B-4,306.5,49/100,98,80.0
3638,G2,306.5,0.25,127,80.0
3639,D3,306.5,0.25,127,80.0
3640,G3,306.5,0.25,127,80.0
3641,G4,306.5,0.25,127,80.0
3642,C2,306.5,49/100,113,80.0
3643,F#2,306.5,49/100,113,80.0
3644,D4,306.75,0.0,127,80.0
3645,G2,306.75,0.25,127,80.0
3646,D3,306.75,0.25,127,80.0
3647,G3,306.75,0.25,127,80.0
3648,G4,306.75,0.25,127,80.0
3649,D4,307.0,0.0,127,80.0
3650,G2,307.0,1.0,127,80.0
3651,G4,307.0,99/100,109,80.0
3652,G2,307.0,1.0,127,80.0
3653,D3,307.0,1.0,127,80.0
3654,G3,307.0,1.0,127,80.0
3655,G4,307.0,1.0,127,80.0
3656,C2,307.0,49/100,113,80.0
3657,F#2,307.0,49/100,113,80.0
3658,D2,307.5,49/100,118,80.0
3659,F#2,307.5,49/100,118,80.0
3660,D4,308.0,0.0,127,80.0
3661,G1,308.0,1.0,127,80.0
3662,A3,308.0,0.25,127,80.0
3663,A4,308.0,0.25,127,80.0
3664,G4,308.0,149/100,109,80.0
3665,C2,308.0,99/100,100,80.0
3666,F#2,308.0,49/100,108,80.0
3667,G2,308.0,1.0,127,80.0
3668,D3,308.0,1.0,127,80.0
3669,G3,308.0,1.0,127,80.0
3670,G4,308.0,1.0,127,80.0
3671,B-3,308.25,0.25,127,80.0
3672,B-4,308.25,0.25,127,80.0
3673,A3,308.5,0.5,127,80.0
3674,A4,308.5,0.5,127,80.0
3675,F#2,308.5,49/100,108,80.0
3676,D4,309.0,0.0,127,80.0
3677,G1,309.0,0.5,127,80.0
3678,G3,309.0,0.5,127,80.0
3679,G4,309.0,0.5,127,80.0
3680,G2,309.0,1.0,127,80.0
3681,D3,309.0,1.0,127,80.0
3682,G3,309.0,1.0,127,80.0
3683,G4,309.0,1.0,127,80.0
3684,C2,309.0,49/100,110,80.0
3685,F#2,309.0,49/100,110,80.0
3686,G1,309.5,0.5,127,80.0
3687,A3,309.5,0.5,127,80.0
3688,A4,309.5,0.5,127,80.0
3689,D2,309.5,99/100,127,80.0
3690,F#2,309.5,49/100,110,80.0
3691,D4,310.0,0.0,127,80.0
3692,G1,310.0,0.5,127,80.0
3693,B-3,310.0,0.5,127,80.0
3694,B-4,310.0,0.5,127,80.0
3695,F#2,310.0,49/100,116,80.0
3696,G2,310.0,1.5,127,80.0
3697,D3,310.0,1.5,127,80.0
3698,G3,310.0,1.5,127,80.0
3699,G4,310.0,1.5,127,80.0
3700,G1,310.5,0.5,127,80.0
3701,G3,310.5,0.5,127,80.0
3702,G4,310.5,0.5,127,80.0
3703,C2,310.5,49/100,116,80.0
3704,F#2,310.5,49/100,116,80.0
3705,G1,311.0,0.5,127,80.0
3706,A3,311.0,0.5,127,80.0
3707,A4,311.0,0.5,127,80.0
3708,C2,311.0,49/100,108,80.0
3709,F#2,311.0,49/100,108,80.0
3710,D4,311.5,0.0,127,80.0
3711,G1,311.5,0.5,127,80.0
3712,B-3,311.5,0.25,127,80.0
3713,B-4,311.5,0.25,127,80.0
3714,G2,311.5,0.25,127,80.0
3715,D3,311.5,0.25,127,80.0
3716,G3,311.5,0.25,127,80.0
3717,G4,311.5,0.25,127,80.0
3718,D2,311.5,49/100,118,80.0
3719,F#2,311.5,49/100,118,80.0
3720,D4,311.75,0.0,127,80.0
3721,C#4,311.75,0.25,127,80.0
3722,C#5,311.75,0.25,127,80.0
3723,G2,311.75,0.25,127,80.0
3724,D3,311.75,0.25,127,80.0
3725,G3,311.75,0.25,127,80.0
3726,G4,311.75,0.25,127,80.0
3727,A4,311.833,167/1000,104,80.0
3728,D4,312.0,0.0,127,80.0
3729,G1,312.0,0.5,127,80.0
3730,D4,312.0,0.25,127,80.0
3731,D5,312.0,0.25,127,80.0
3732,A4,312.0,0.156,104,80.0
3733,G2,312.0,0.5,127,80.0
3734,D3,312.0,0.5,127,80.0
3735,G3,312.0,0.5,127,80.0
3736,G4,312.0,0.5,127,80.0
3737,D2,312.0,49/100,122,80.0
3738,F#2,312.0,49/100,122,80.0
3739,B-4,312.167,323/1000,98,80.0
3740,E4,312.25,0.25,127,80.0
3741,E5,312.25,0.25,127,80.0
3742,E4,312.5,0.0,127,80.0
3743,A2,312.5,0.25,127,80.0
3744,C#4,312.5,0.25,127,80.0
3745,C#5,312.5,0.25,127,80.0
3746,B4,312.5,49/100,98,80.0
3747,A2,312.5,1.0,127,80.0
3748,E3,312.5,1.0,127,80.0
3749,A3,312.5,1.0,127,80.0
3750,A4,312.5,1.0,127,80.0
3751,C2,312.5,99/100,116,80.0
3752,C#3,312.5,99/100,116,80.0
3753,A2,312.75,0.75,127,80.0
3754,D4,312.75,0.25,127,80.0
3755,D5,312.75,0.25,127,80.0
3756,E4,313.0,0.25,127,80.0
3757,E5,313.0,0.25,127,80.0
3758,A4,313.0,149/100,121,80.0
3759,F4,313.25,0.25,127,80.0
3760,F5,313.25,0.25,127,80.0
3761,E4,313.5,0.0,127,80.0
3762,A1,313.5,1.0,127,80.0
3763,E4,313.5,0.25,127,80.0
3764,E5,313.5,0.25,127,80.0
3765,D2,313.5,99/100,127,80.0
3766,F#2,313.5,49/100,116,80.0
3767,A2,313.5,0.75,127,80.0
3768,E3,313.5,0.75,127,80.0
3769,A3,313.5,0.75,127,80.0
3770,A4,313.5,0.75,127,80.0
3771,D4,313.75,0.25,127,80.0
3772,D5,313.75,0.25,127,80.0
3773,E4,314.0,0.25,127,80.0
3774,E5,314.0,0.25,127,80.0
3775,F#2,314.0,49/100,110,80.0
3776,E4,314.25,0.0,127,80.0
3777,D4,314.25,0.25,127,80.0
3778,D5,314.25,0.25,127,80.0
3779,A2,314.25,0.25,127,80.0
3780,E3,314.25,0.25,127,80.0
3781,A3,314.25,0.25,127,80.0
3782,A4,314.25,0.25,127,80.0
3783,E4,314.5,0.0,127,80.0
3784,A1,314.5,0.5,127,80.0
3785,C#4,314.5,1.0,127,80.0
3786,C#5,314.5,1.0,127,80.0
3787,A2,314.5,0.25,127,80.0
3788,E3,314.5,0.25,127,80.0
3789,A3,314.5,0.25,127,80.0
3790,A4,314.5,0.25,127,80.0
3791,C2,314.5,49/100,106,80.0
3792,F#2,314.5,49/100,106,80.0
3793,E4,314.75,0.0,127,80.0
3794,A2,314.75,0.25,127,80.0
3795,E3,314.75,0.25,127,80.0
3796,A3,314.75,0.25,127,80.0
3797,A4,314.75,0.25,127,80.0
3798,E4,315.0,0.0,127,80.0
3799,G2,315.0,0.25,127,80.0
3800,A2,315.0,1.0,127,80.0
3801,E3,315.0,1.0,127,80.0
3802,A3,315.0,1.0,127,80.0
3803,A4,315.0,1.0,127,80.0
3804,C2,315.0,49/100,122,80.0
3805,F#2,315.0,49/100,122,80.0
3806,A2,315.25,0.75,127,80.0
3807,D4,315.5,0.25,127,80.0
3808,D5,315.5,0.25,127,80.0
3809,D2,315.5,0.5,127,80.0
3810,F#2,315.5,49/100,122,80.0
3811,C#4,315.75,0.25,127,80.0
3812,C#5,315.75,0.25,127,80.0
3813,E4,316.0,0.0,127,80.0
3814,G2,316.0,0.25,127,80.0
3815,B-3,316.0,0.25,127,80.0
3816,B-4,316.0,0.25,127,80.0
3817,F#2,316.0,49/100,127,80.0
3818,D2,316.0,49/100,127,80.0
3819,A2,316.0,1.0,127,80.0
3820,E3,316.0,1.0,127,80.0
3821,A3,316.0,1.0,127,80.0
3822,A4,316.0,1.0,127,80.0
3823,A2,316.25,0.25,127,80.0
3824,A3,316.25,0.75,127,80.0
3825,A4,316.25,0.75,127,80.0
3826,A2,316.5,0.5,127,80.0
3827,F#2,316.5,49/100,122,80.0
3828,E4,317.0,0.0,127,80.0
3829,A2,317.0,0.25,127,80.0
3830,B-3,317.0,0.25,127,80.0
3831,B-4,317.0,0.25,127,80.0
3832,A2,317.0,0.5,127,80.0
3833,E3,317.0,0.5,127,80.0
3834,A3,317.0,0.5,127,80.0
3835,A4,317.0,0.5,127,80.0
3836,C2,317.0,49/100,118,80.0
3837,F#2,317.0,49/100,118,80.0
3838,A2,317.25,0.25,127,80.0
3839,G3,317.25,0.75,127,80.0
3840,G4,317.25,0.75,127,80.0
3841,E4,317.5,0.0,127,80.0
3842,A2,317.5,0.5,127,80.0
3843,A2,317.5,2.0,127,80.0
3844,E3,317.5,2.0,127,80.0
3845,A3,317.5,2.0,127,80.0
3846,A4,317.5,2.0,127,80.0
3847,D2,317.5,49/100,118,80.0
3848,F#2,317.5,49/100,118,80.0
3849,A2,318.0,0.5,127,80.0
3850,A3,318.0,0.25,127,80.0
3851,A4,318.0,0.25,127,80.0
3852,D2,318.0,49/100,124,80.0
3853,F#2,318.0,49/100,124,80.0
3854,F#3,318.25,0.75,127,80.0
3855,F#4,318.25,0.75,127,80.0
3856,A2,318.5,0.25,127,80.0
3857,C2,318.5,49/100,124,80.0
3858,F#2,318.5,49/100,124,80.0
3859,A2,318.75,0.25,127,80.0
3860,A2,319.0,0.5,127,80.0
3861,G3,319.0,0.25,127,80.0
3862,G4,319.0,0.25,127,80.0
3863,C2,319.0,49/100,124,80.0
3864,F#2,319.0,49/100,124,80.0
3865,E3,319.25,0.75,127,80.0
3866,E4,319.25,0.75,127,80.0
3867,E4,319.5,0.0,127,80.0
3868,A2,319.5,0.5,127,80.0
3869,D2,319.5,49/100,127,80.0
3870,F#2,319.5,0.5,127,80.0
3871,A2,319.5,0.5,127,80.0
3872,E3,319.5,0.5,127,80.0
3873,A3,319.5,0.5,127,80.0
3874,A4,319.5,0.5,127,80.0
3875,E4,320.0,0.0,127,80.0
3876,A2,320.0,0.5,127,80.0
3877,D3,320.0,0.25,127,80.0
3878,D4,320.0,0.25,127,80.0
3879,D2,320.0,6/25,127,80.0
3880,F#2,320.0,49/100,127,80.0
3881,A2,320.0,0.25,127,80.0
3882,E3,320.0,0.25,127,80.0
3883,A3,320.0,0.25,127,80.0
3884,A4,320.0,0.25,127,80.0
3885,E4,320.25,0.0,127,80.0
3886,F#3,320.25,0.25,127,80.0
3887,F#4,320.25,0.25,127,80.0
3888,D2,320.25,6/25,127,80.0
3889,A2,320.25,0.25,127,80.0
3890,E3,320.25,0.25,127,80.0
3891,A3,320.25,0.25,127,80.0
3892,A4,320.25,0.25,127,80.0
3893,D4,320.5,0.0,127,80.0
3894,G1,320.5,2.0,127,80.0
3895,G3,320.5,3.0,127,80.0
3896,G4,320.5,3.0,127,80.0
3897,C2,320.5,99/100,127,80.0
3898,C#3,320.5,49/100,116,80.0
3899,G2,320.5,1.0,127,80.0
3900,D3,320.5,1.0,127,80.0
3901,G3,320.5,1.0,127,80.0
3902,G4,320.5,1.0,127,80.0
3903,F#2,321.0,49/100,122,80.0
3904,D4,321.5,0.0,127,80.0
3905,D2,321.5,99/100,127,80.0
3906,F#2,321.5,49/100,108,80.0
3907,G2,321.5,0.75,127,80.0
3908,D3,321.5,0.75,127,80.0
3909,G3,321.5,0.75,127,80.0
3910,G4,321.5,0.75,127,80.0
3911,F#2,322.0,49/100,127,80.0
3912,D4,322.25,0.0,127,80.0
3913,G2,322.25,0.25,127,80.0
3914,D3,322.25,0.25,127,80.0
3915,G3,322.25,0.25,127,80.0
3916,G4,322.25,0.25,127,80.0
3917,D4,322.5,0.0,127,80.0
3918,G1,322.5,0.5,127,80.0
3919,G2,322.5,0.25,127,80.0
3920,D3,322.5,0.25,127,80.0
3921,G3,322.5,0.25,127,80.0
3922,G4,322.5,0.25,127,80.0
3923,C2,322.5,49/100,127,80.0
3924,F#2,322.5,49/100,127,80.0
3925,D4,322.75,0.0,127,80.0
3926,G2,322.75,0.25,127,80.0
3927,D3,322.75,0.25,127,80.0
3928,G3,322.75,0.25,127,80.0
3929,G4,322.75,0.25,127,80.0
3930,D4,323.0,0.0,127,80.0
3931,G1,323.0,1.0,127,80.0
3932,G2,323.0,1.0,127,80.0
3933,D3,323.0,1.0,127,80.0
3934,G3,323.0,1.0,127,80.0
3935,G4,323.0,1.0,127,80.0
3936,C2,323.0,49/100,122,80.0
3937,F#2,323.0,49/100,122,80.0
3938,B-4,323.167,0.656,121,80.0
3939,D2,323.5,49/100,122,80.0
3940,F#2,323.5,49/100,122,80.0
3941,A4,323.833,167/1000,109,80.0
3942,D4,324.0,0.0,127,80.0
3943,G1,324.0,1.5,127,80.0
3944,A4,324.0,49/100,109,80.0
3945,C2,324.0,99/100,127,80.0
3946,F#2,324.0,49/100,122,80.0
3947,G2,324.0,1.0,127,80.0
3948,D3,324.0,1.0,127,80.0
3949,G3,324.0,1.0,127,80.0
3950,G4,324.0,1.0,127,80.0
3951,A3,324.5,0.25,127,80.0
3952,A4,324.5,0.25,127,80.0
3953,F#2,324.5,49/100,127,80.0
3954,B-3,324.75,0.25,127,80.0
3955,B-4,324.75,0.25,127,80.0
3956,D4,325.0,0.0,127,80.0
3957,A3,325.0,0.25,127,80.0
3958,A4,325.0,0.25,127,80.0
3959,G4,325.0,149/100,98,80.0
3960,G2,325.0,1.0,127,80.0
3961,D3,325.0,1.0,127,80.0
3962,G3,325.0,1.0,127,80.0
3963,G4,325.0,1.0,127,80.0
3964,C2,325.0,49/100,118,80.0
3965,F#2,325.0,49/100,118,80.0
3966,G3,325.25,1.25,127,80.0
3967,G4,325.25,1.25,127,80.0
3968,G1,325.5,1.0,127,80.0
3969,D2,325.5,99/100,127,80.0
3970,F#2,325.5,49/100,122,80.0
3971,D4,326.0,0.0,127,80.0
3972,F#2,326.0,49/100,116,80.0
3973,G2,326.0,1.5,127,80.0
3974,D3,326.0,1.5,127,80.0
3975,G3,326.0,1.5,127,80.0
3976,G4,326.0,1.5,127,80.0
3977,G1,326.5,0.5,127,80.0
3978,F4,326.5,0.25,127,80.0
3979,F5,326.5,0.25,127,80.0
3980,C2,326.5,49/100,127,80.0
3981,F#2,326.5,49/100,127,80.0
3982,E4,326.75,0.25,127,80.0
3983,E5,326.75,0.25,127,80.0
3984,G1,327.0,1.0,127,80.0
3985,D4,327.0,0.25,127,80.0
3986,D5,327.0,0.25,127,80.0
3987,C2,327.0,49/100,116,80.0
3988,F#2,327.0,49/100,116,80.0
3989,D4,327.5,0.0,127,80.0
3990,C#4,327.5,0.25,127,80.0
3991,C#5,327.5,0.25,127,80.0
3992,D4,327.5,49/100,80,80.0
3993,G2,327.5,0.25,127,80.0
3994,D3,327.5,0.25,127,80.0
3995,G3,327.5,0.25,127,80.0
3996,G4,327.5,0.25,127,80.0
3997,D2,327.5,49/100,124,80.0
3998,F#2,327.5,49/100,124,80.0
3999,D4,327.75,0.0,127,80.0
4000,D4,327.75,0.25,127,80.0
4001,D5,327.75,0.25,127,80.0
4002,G2,327.75,0.25,127,80.0
4003,D3,327.75,0.25,127,80.0
4004,G3,327.75,0.25,127,80.0
4005,G4,327.75,0.25,127,80.0
4006,D4,328.0,0.0,127,80.0
4007,G1,328.0,0.5,127,80.0
4008,E4,328.0,0.75,127,80.0
4009,E5,328.0,0.75,127,80.0
4010,B-4,328.0,99/100,115,80.0
4011,G2,328.0,0.5,127,80.0
4012,D3,328.0,0.5,127,80.0
4013,G3,328.0,0.5,127,80.0
4014,G4,328.0,0.5,127,80.0
4015,D2,328.0,49/100,127,80.0
4016,F#2,328.0,49/100,127,80.0
4017,E4,328.5,0.0,127,80.0
4018,A1,328.5,0.5,127,80.0
4019,C2,328.5,99/100,127,80.0
4020,C#3,328.5,49/100,108,80.0
4021,A2,328.5,1.0,127,80.0
4022,E3,328.5,1.0,127,80.0
4023,A3,328.5,1.0,127,80.0
4024,A4,328.5,1.0,127,80.0
4025,D4,328.75,0.25,127,80.0
4026,D5,328.75,0.25,127,80.0
4027,A1,329.0,0.5,127,80.0
4028,C#4,329.0,0.25,127,80.0
4029,C#5,329.0,0.25,127,80.0
4030,A4,329.0,6/25,127,80.0
4031,F#2,329.0,49/100,122,80.0
4032,D4,329.25,0.25,127,80.0
4033,D5,329.25,0.25,127,80.0
4034,B-4,329.25,6/25,115,80.0
4035,E4,329.5,0.0,127,80.0
4036,A2,329.5,1.0,127,80.0
4037,C#4,329.5,1.0,127,80.0
4038,C#5,329.5,1.0,127,80.0
4039,A4,329.5,199/100,109,80.0
4040,D2,329.5,99/100,127,80.0
4041,F#2,329.5,49/100,116,80.0
4042,A2,329.5,0.75,127,80.0
4043,E3,329.5,0.75,127,80.0
4044,A3,329.5,0.75,127,80.0
4045,A4,329.5,0.75,127,80.0
4046,F#2,330.0,49/100,127,80.0
4047,E4,330.25,0.0,127,80.0
4048,A2,330.25,0.25,127,80.0
4049,E3,330.25,0.25,127,80.0
4050,A3,330.25,0.25,127,80.0
4051,A4,330.25,0.25,127,80.0
4052,E4,330.5,0.0,127,80.0
4053,A2,330.5,0.25,127,80.0
4054,B-3,330.5,0.25,127,80.0
4055,B-4,330.5,0.25,127,80.0
4056,A2,330.5,0.25,127,80.0
4057,E3,330.5,0.25,127,80.0
4058,A3,330.5,0.25,127,80.0
4059,A4,330.5,0.25,127,80.0
4060,C2,330.5,49/100,122,80.0
4061,F#2,330.5,49/100,122,80.0
4062,E4,330.75,0.0,127,80.0
4063,A2,330.75,0.25,127,80.0
4064,C#4,330.75,0.25,127,80.0
4065,C#5,330.75,0.25,127,80.0
4066,A2,330.75,0.25,127,80.0
4067,E3,330.75,0.25,127,80.0
4068,A3,330.75,0.25,127,80.0
4069,A4,330.75,0.25,127,80.0
4070,E4,331.0,0.0,127,80.0
4071,A2,331.0,0.25,127,80.0
4072,B-3,331.0,0.25,127,80.0
4073,B-4,331.0,0.25,127,80.0
4074,A2,331.0,1.0,127,80.0
4075,E3,331.0,1.0,127,80.0
4076,A3,331.0,1.0,127,80.0
4077,A4,331.0,1.0,127,80.0
4078,C2,331.0,49/100,122,80.0
4079,F#2,331.0,49/100,122,80.0
4080,A2,331.25,0.25,127,80.0
4081,A3,331.25,0.75,127,80.0
4082,A4,331.25,0.75,127,80.0
4083,A2,331.5,0.5,127,80.0
4084,D2,331.5,49/100,122,80.0
4085,F#2,331.5,49/100,122,80.0
4086,E4,332.0,0.0,127,80.0
4087,A1,332.0,0.75,127,80.0
4088,A3,332.0,1.5,127,80.0
4089,A4,332.0,1.5,127,80.0
4090,A2,332.0,1.0,127,80.0
4091,E3,332.0,1.0,127,80.0
4092,A3,332.0,1.0,127,80.0
4093,A4,332.0,1.0,127,80.0
4094,D2,332.0,49/100,122,80.0
4095,F#2,332.0,49/100,122,80.0
4096,F#2,332.5,49/100,108,80.0
4097,A2,332.75,0.25,127,80.0
4098,E4,333.0,0.0,127,80.0
4099,A2,333.0,0.5,127,80.0
4100,A2,333.0,0.5,127,80.0
4101,E3,333.0,0.5,127,80.0
4102,A3,333.0,0.5,127,80.0
4103,A4,333.0,0.5,127,80.0
4104,C2,333.0,49/100,124,80.0
4105,F#2,333.0,49/100,124,80.0
4106,E4,333.5,0.0,127,80.0
4107,A2,333.5,0.5,127,80.0
4108,E4,333.5,0.25,127,80.0
4109,E5,333.5,0.25,127,80.0
4110,A2,333.5,2.0,127,80.0
4111,E3,333.5,2.0,127,80.0
4112,A3,333.5,2.0,127,80.0
4113,A4,333.5,2.0,127,80.0
4114,D2,333.5,49/100,127,80.0
4115,F#2,333.5,49/100,127,80.0
4116,F4,333.75,0.25,127,80.0
4117,F5,333.75,0.25,127,80.0
4118,A2,334.0,0.5,127,80.0
4119,D4,334.0,0.25,127,80.0
4120,D5,334.0,0.25,127,80.0
4121,D2,334.0,49/100,127,80.0
4122,F#2,334.0,49/100,127,80.0
4123,E4,334.25,0.25,127,80.0
4124,E5,334.25,0.25,127,80.0
4125,A2,334.5,0.5,127,80.0
4126,C#4,334.5,0.25,127,80.0
4127,C#5,334.5,0.25,127,80.0
4128,C2,334.5,323/1000,127,80.0
4129,F#2,334.5,99/100,127,80.0
4130,D4,334.75,0.25,127,80.0
4131,D5,334.75,0.25,127,80.0
4132,D2,334.833,0.156,122,80.0
4133,A2,335.0,0.5,127,80.0
4134,B-3,335.0,0.25,127,80.0
4135,B-4,335.0,0.25,127,80.0
4136,D2,335.0,0.156,127,80.0
4137,D2,335.167,0.156,127,80.0
4138,C#4,335.25,0.25,127,80.0
4139,C#5,335.25,0.25,127,80.0
4140,D2,335.333,0.156,127,80.0
4141,E4,335.5,0.0,127,80.0
4142,A2,335.5,0.5,127,80.0
4143,A3,335.5,0.5,127,80.0
4144,A4,335.5,0.5,127,80.0
4145,D2,335.5,0.156,127,80.0
4146,F#2,335.5,0.5,127,80.0
4147,A2,335.5,0.5,127,80.0
4148,E3,335.5,0.5,127,80.0
4149,A3,335.5,0.5,127,80.0
4150,A4,335.5,0.5,127,80.0
4151,D2,335.667,0.156,127,80.0
4152,D2,335.833,0.156,127,80.0
4153,E4,336.0,0.0,127,80.0
4154,A2,336.0,0.5,127,80.0
4155,A3,336.0,0.25,127,80.0
4156,A4,336.0,0.25,127,80.0
4157,D2,336.0,0.156,127,80.0
4158,F#2,336.0,49/100,127,80.0
4159,A2,336.0,0.25,127,80.0
4160,E3,336.0,0.25,127,80.0
4161,A3,336.0,0.25,127,80.0
4162,A4,336.0,0.25,127,80.0
4163,D2,336.167,0.156,127,80.0
4164,E4,336.25,0.0,127,80.0
4165,A3,336.25,0.25,127,80.0
4166,A4,336.25,0.25,127,80.0
4167,A2,336.25,0.25,127,80.0
4168,E3,336.25,0.25,127,80.0
4169,A3,336.25,0.25,127,80.0
4170,A4,336.25,0.25,127,80.0
4171,D2,336.333,0.156,127,80.0
4172,D4,336.5,0.0,127,80.0
4173,G1,336.5,1.0,127,80.0
4174,G3,336.5,1.5,127,80.0
4175,G4,336.5,1.5,127,80.0
4176,G2,336.5,1.0,127,80.0
4177,D3,336.5,1.0,127,80.0
4178,G3,336.5,1.0,127,80.0
4179,G4,336.5,1.0,127,80.0
4180,C2,336.5,99/100,122,80.0
4181,C#3,336.5,99/100,122,80.0
4182,B-5,337.0,6/25,98,80.0
4183,A5,337.25,6/25,78,80.0
4184,D4,337.5,0.0,127,80.0
4185,G2,337.5,1.0,127,80.0
4186,B-5,337.5,6/25,68,80.0
4187,D2,337.5,99/100,127,80.0
4188,F#2,337.5,49/100,116,80.0
4189,G2,337.5,0.75,127,80.0
4190,D3,337.5,0.75,127,80.0
4191,G3,337.5,0.75,127,80.0
4192,G4,337.5,0.75,127,80.0
4193,A5,337.75,6/25,92,80.0
4194,F4,338.0,0.25,127,80.0
4195,F5,338.0,0.25,127,80.0
4196,G5,338.0,49/100,92,80.0
4197,F#2,338.0,49/100,110,80.0
4198,D4,338.25,0.0,127,80.0
4199,E4,338.25,0.25,127,80.0
4200,E5,338.25,0.25,127,80.0
4201,G2,338.25,0.25,127,80.0
4202,D3,338.25,0.25,127,80.0
4203,G3,338.25,0.25,127,80.0
4204,G4,338.25,0.25,127,80.0
4205,D4,338.5,0.0,127,80.0
4206,G1,338.5,0.5,127,80.0
4207,F4,338.5,0.25,127,80.0
4208,F5,338.5,0.25,127,80.0
4209,G2,338.5,0.25,127,80.0
4210,D3,338.5,0.25,127,80.0
4211,G3,338.5,0.25,127,80.0
4212,G4,338.5,0.25,127,80.0
4213,C2,338.5,49/100,122,80.0
4214,F#2,338.5,49/100,122,80.0
4215,D4,338.75,0.0,127,80.0
4216,E4,338.75,0.25,127,80.0
4217,E5,338.75,0.25,127,80.0
4218,G2,338.75,0.25,127,80.0
4219,D3,338.75,0.25,127,80.0
4220,G3,338.75,0.25,127,80.0
4221,G4,338.75,0.25,127,80.0
4222,D4,339.0,0.0,127,80.0
4223,G1,339.0,0.25,127,80.0
4224,D4,339.0,1.0,127,80.0
4225,D5,339.0,1.0,127,80.0
4226,G2,339.0,1.0,127,80.0
4227,D3,339.0,1.0,127,80.0
4228,G3,339.0,1.0,127,80.0
4229,G4,339.0,1.0,127,80.0
4230,C2,339.0,49/100,122,80.0
4231,F#2,339.0,49/100,122,80.0
4232,G1,339.25,0.25,127,80.0
4233,G1,339.5,0.5,127,80.0
4234,D2,339.5,49/100,127,80.0
4235,F#2,339.5,49/100,127,80.0
4236,D4,340.0,0.0,127,80.0
4237,G1,340.0,1.0,127,80.0
4238,C#4,340.0,0.25,127,80.0
4239,C#5,340.0,0.25,127,80.0
4240,C2,340.0,99/100,67,80.0
4241,F#2,340.0,49/100,122,80.0
4242,G2,340.0,1.0,127,80.0
4243,D3,340.0,1.0,127,80.0
4244,G3,340.0,1.0,127,80.0
4245,G4,340.0,1.0,127,80.0
4246,D4,340.25,0.75,127,80.0
4247,D5,340.25,0.75,127,80.0
4248,F#2,340.5,49/100,116,80.0
4249,D4,341.0,0.0,127,80.0
4250,G1,341.0,0.5,127,80.0
4251,E4,341.0,0.25,127,80.0
4252,E5,341.0,0.25,127,80.0
4253,B-5,341.0,6/25,68,80.0
4254,G2,341.0,1.0,127,80.0
4255,D3,341.0,1.0,127,80.0
4256,G3,341.0,1.0,127,80.0
4257,G4,341.0,1.0,127,80.0
4258,C2,341.0,49/100,124,80.0
4259,F#2,341.0,49/100,124,80.0
4260,F4,341.25,0.75,127,80.0
4261,F5,341.25,0.75,127,80.0
4262,A5,341.25,6/25,98,80.0
4263,G2,341.5,1.0,127,80.0
4264,B-5,341.5,6/25,68,80.0
4265,D2,341.5,99/100,127,80.0
4266,F#2,341.5,49/100,127,80.0
4267,A5,341.75,6/25,92,80.0
4268,D4,342.0,0.0,127,80.0
4269,E4,342.0,0.25,127,80.0
4270,E5,342.0,0.25,127,80.0
4271,G5,342.0,49/100,92,80.0
4272,F#2,342.0,49/100,127,80.0
4273,G2,342.0,1.5,127,80.0
4274,D3,342.0,1.5,127,80.0
4275,G3,342.0,1.5,127,80.0
4276,G4,342.0,1.5,127,80.0
4277,F4,342.25,1.25,127,80.0
4278,F5,342.25,1.25,127,80.0
4279,G1,342.5,0.5,127,80.0
4280,C2,342.5,49/100,106,80.0
4281,F#2,342.5,49/100,106,80.0
4282,G1,343.0,1.0,127,80.0
4283,G5,343.0,49/100,86,80.0
4284,C2,343.0,49/100,118,80.0
4285,F#2,343.0,49/100,118,80.0
4286,D4,343.5,0.0,127,80.0
4287,E4,343.5,0.25,127,80.0
4288,E5,343.5,0.25,127,80.0
4289,G5,343.5,49/100,98,80.0
4290,D2,343.5,0.5,127,80.0
4291,F#2,343.5,49/100,116,80.0
4292,G2,343.5,0.25,127,80.0
4293,D3,343.5,0.25,127,80.0
4294,G3,343.5,0.25,127,80.0
4295,G4,343.5,0.25,127,80.0
4296,D4,343.75,0.0,127,80.0
4297,D4,343.75,0.25,127,80.0
4298,D5,343.75,0.25,127,80.0
4299,G2,343.75,0.25,127,80.0
4300,D3,343.75,0.25,127,80.0
4301,G3,343.75,0.25,127,80.0
4302,G4,343.75,0.25,127,80.0
4303,D4,344.0,0.0,127,80.0
4304,G1,344.0,0.5,127,80.0
4305,E4,344.0,1.5,127,80.0
4306,E5,344.0,1.5,127,80.0
4307,G5,344.0,49/100,98,80.0
4308,F#2,344.0,49/100,122,80.0
4309,D2,344.0,49/100,127,80.0
4310,G2,344.0,0.5,127,80.0
4311,D3,344.0,0.5,127,80.0
4312,G3,344.0,0.5,127,80.0
4313,G4,344.0,0.5,127,80.0
4314,E4,344.5,0.0,127,80.0
4315,A1,344.5,1.0,127,80.0
4316,A5,344.5,3.5,109,80.0
4317,C2,344.5,99/100,127,80.0
4318,C#3,344.5,49/100,127,80.0
4319,A2,344.5,1.0,127,80.0
4320,E3,344.5,1.0,127,80.0
4321,A3,344.5,1.0,127,80.0
4322,A4,344.5,1.0,127,80.0
4323,F#2,345.0,49/100,106,80.0
4324,E4,345.5,0.0,127,80.0
4325,E3,345.5,1.0,127,80.0
4326,C#4,345.5,1.0,127,80.0
4327,C#5,345.5,1.0,127,80.0
4328,D2,345.5,99/100,127,80.0
4329,F#2,345.5,49/100,106,80.0
4330,A2,345.5,0.75,127,80.0
4331,E3,345.5,0.75,127,80.0
4332,A3,345.5,0.75,127,80.0
4333,A4,345.5,0.75,127,80.0
4334,F#2,346.0,49/100,122,80.0
4335,E4,346.25,0.0,127,80.0
4336,A2,346.25,0.25,127,80.0
4337,E3,346.25,0.25,127,80.0
4338,A3,346.25,0.25,127,80.0
4339,A4,346.25,0.25,127,80.0
4340,E4,346.5,0.0,127,80.0
4341,A1,346.5,0.5,127,80.0
4342,A3,346.5,0.75,127,80.0
4343,A4,346.5,0.75,127,80.0
4344,A2,346.5,0.25,127,80.0
4345,E3,346.5,0.25,127,80.0
4346,A3,346.5,0.25,127,80.0
4347,A4,346.5,0.25,127,80.0
4348,C2,346.5,49/100,122,80.0
4349,F#2,346.5,49/100,122,80.0
4350,E4,346.75,0.0,127,80.0
4351,A2,346.75,0.25,127,80.0
4352,E3,346.75,0.25,127,80.0
4353,A3,346.75,0.25,127,80.0
4354,A4,346.75,0.25,127,80.0
4355,E4,347.0,0.0,127,80.0
4356,A1,347.0,1.0,127,80.0
4357,A2,347.0,1.0,127,80.0
4358,E3,347.0,1.0,127,80.0
4359,A3,347.0,1.0,127,80.0
4360,A4,347.0,1.0,127,80.0
4361,C2,347.0,49/100,122,80.0
4362,F#2,347.0,49/100,122,80.0
4363,B-3,347.25,0.25,127,80.0
4364,B-4,347.25,0.25,127,80.0
4365,A3,347.5,0.5,127,80.0
4366,A4,347.5,0.5,127,80.0
4367,D2,347.5,49/100,122,80.0
4368,F#2,347.5,49/100,122,80.0
4369,E4,348.0,0.0,127,80.0
4370,E3,348.0,3.5,127,80.0
4371,A3,348.0,4.0,127,80.0
4372,A4,348.0,4.0,127,80.0
4373,A5,348.0,4.0,109,80.0
4374,A2,348.0,1.0,127,80.0
4375,E3,348.0,1.0,127,80.0
4376,A3,348.0,1.0,127,80.0
4377,A4,348.0,1.0,127,80.0
4378,D2,348.0,49/100,127,80.0
4379,F#2,348.0,49/100,127,80.0
4380,C2,348.5,49/100,127,80.0
4381,F#2,348.5,99/100,127,80.0
4382,E4,349.0,0.0,127,80.0
4383,D2,349.0,6/25,127,80.0
4384,A2,349.0,0.5,127,80.0
4385,E3,349.0,0.5,127,80.0
4386,A3,349.0,0.5,127,80.0
4387,A4,349.0,0.5,127,80.0
4388,D2,349.25,49/100,127,80.0
4389,E4,349.5,0.0,127,80.0
4390,F#2,349.5,99/100,127,80.0
4391,A2,349.5,2.0,127,80.0
4392,E3,349.5,2.0,127,80.0
4393,A3,349.5,2.0,127,80.0
4394,A4,349.5,2.0,127,80.0
4395,D2,349.75,6/25,127,80.0
4396,D2,350.0,49/100,127,80.0
4397,D2,350.5,37/50,127,80.0
4398,F#2,350.5,99/100,127,80.0
4399,D2,351.25,6/25,127,80.0
4400,E4,351.5,0.0,127,80.0
4401,A2,351.5,0.5,127,80.0
4402,E3,351.5,0.5,127,80.0
4403,A3,351.5,0.5,127,80.0
4404,A4,351.5,0.5,127,80.0
4405,D2,351.5,0.5,127,80.0
4406,F#2,351.5,0.5,127,80.0
4407,E4,352.0,0.0,127,80.0
4408,A3,352.0,0.5,127,80.0
4409,A4,352.0,0.5,127,80.0
4410,A5,352.0,49/100,109,80.0
4411,A2,352.0,0.25,127,80.0
4412,E3,352.0,0.25,127,80.0
4413,A3,352.0,0.25,127,80.0
4414,A4,352.0,0.25,127,80.0
4415,D2,352.0,49/100,127,80.0
4416,F#2,352.0,49/100,127,80.0
4417,E4,352.25,0.0,127,80.0
4418,A2,352.25,0.25,127,80.0
4419,E3,352.25,0.25,127,80.0
4420,A3,352.25,0.25,127,80.0
4421,A4,352.25,0.25,127,80.0
4422,D3,352.5,0.0,127,80.0
4423,D4,352.5,0.25,127,80.0
4424,D2,352.5,0.25,127,80.0
4425,A5,352.5,299/100,109,80.0
4426,C2,352.5,6/25,122,80.0
4427,C#3,352.5,49/100,116,80.0
4428,D3,352.75,0.0,127,80.0
4429,D4,352.75,0.25,127,80.0
4430,D2,352.75,0.25,127,80.0
4431,C2,352.75,37/50,127,80.0
4432,D3,353.0,0.0,127,80.0
4433,D4,353.0,0.5,127,80.0
4434,D2,353.0,0.5,127,80.0
4435,F#2,353.0,49/100,104,80.0
4436,D2,353.5,99/100,127,80.0
4437,F#2,353.5,49/100,108,80.0
4438,D3,354.0,0.0,127,80.0
4439,A3,354.0,0.25,127,80.0
4440,D3,354.0,0.25,127,80.0
4441,F#2,354.0,49/100,110,80.0
4442,D3,354.25,0.0,127,80.0
4443,A3,354.25,0.25,127,80.0
4444,D3,354.25,0.25,127,80.0
4445,D3,354.5,0.0,127,80.0
4446,A3,354.5,0.5,127,80.0
4447,D3,354.5,0.25,127,80.0
4448,C2,354.5,6/25,110,80.0
4449,F#2,354.5,49/100,116,80.0
4450,D2,354.75,0.25,127,80.0
4451,C2,354.75,37/50,106,80.0
4452,D2,355.0,1.0,127,80.0
4453,D2,355.0,0.5,127,80.0
4454,F#2,355.0,49/100,100,80.0
4455,D3,355.5,0.0,127,80.0
4456,B-3,355.5,0.25,127,80.0
4457,D2,355.5,0.25,127,80.0
4458,A5,355.5,49/100,98,80.0
4459,D2,355.5,0.5,127,80.0
4460,F#2,355.5,49/100,108,80.0
4461,D3,355.75,0.0,127,80.0
4462,B-3,355.75,0.25,127,80.0
4463,D2,355.75,0.25,127,80.0
4464,D3,356.0,0.0,127,80.0
4465,B-3,356.0,0.5,127,80.0
4466,D2,356.0,0.5,127,80.0
4467,D2,356.0,0.5,127,80.0
4468,G5,356.0,6/25,78,80.0
4469,F#2,356.0,49/100,116,80.0
4470,D2,356.0,49/100,127,80.0
4471,A5,356.25,6/25,86,80.0
4472,G5,356.5,199/100,98,80.0
4473,C2,356.5,6/25,110,80.0
4474,F#2,356.5,49/100,116,80.0
4475,C2,356.75,37/50,106,80.0
4476,D3,357.0,0.0,127,80.0
4477,B-3,357.0,0.25,127,80.0
4478,D3,357.0,0.25,127,80.0
4479,F#2,357.0,49/100,100,80.0
4480,D3,357.25,0.0,127,80.0
4481,B-3,357.25,0.25,127,80.0
4482,D3,357.25,0.25,127,80.0
4483,D3,357.5,0.0,127,80.0
4484,B-3,357.5,0.5,127,80.0
4485,D3,357.5,0.5,127,80.0
4486,D2,357.5,99/100,127,80.0
4487,F#2,357.5,49/100,108,80.0
4488,D2,358.0,1.5,127,80.0
4489,D2,358.0,0.5,127,80.0
4490,F#2,358.0,49/100,116,80.0
4491,D3,358.5,0.0,127,80.0
4492,B3,358.5,0.25,127,80.0
4493,D2,358.5,0.25,127,80.0
4494,G5,358.5,49/100,109,80.0
4495,C2,358.5,6/25,110,80.0
4496,F#2,358.5,49/100,116,80.0
4497,D3,358.75,0.0,127,80.0
4498,B3,358.75,0.25,127,80.0
4499,D2,358.75,0.25,127,80.0
4500,C2,358.75,37/50,106,80.0
4501,D3,359.0,0.0,127,80.0
4502,B3,359.0,0.5,127,80.0
4503,D2,359.0,0.5,127,80.0
4504,F5,359.0,6/25,104,80.0
4505,F#2,359.0,49/100,100,80.0
4506,G5,359.25,6/25,98,80.0
4507,F5,359.5,0.5,109,80.0
4508,D2,359.5,0.5,127,80.0
4509,F#2,359.5,49/100,108,80.0
4510,D3,360.0,0.0,127,80.0
4511,B3,360.0,0.25,127,80.0
4512,D3,360.0,0.25,127,80.0
4513,F5,360.0,49/100,109,80.0
4514,F#2,360.0,49/100,116,80.0
4515,D2,360.0,49/100,127,80.0
4516,D3,360.25,0.0,127,80.0
4517,B3,360.25,0.25,127,80.0
4518,D3,360.25,0.25,127,80.0
4519,D3,360.5,0.0,127,80.0
4520,B3,360.5,0.5,127,80.0
4521,D3,360.5,0.25,127,80.0
4522,F5,360.5,199/100,115,80.0
4523,C2,360.5,6/25,110,80.0
4524,F#2,360.5,49/100,116,80.0
4525,D2,360.75,0.25,127,80.0
4526,C2,360.75,37/50,106,80.0
4527,D2,361.0,1.5,127,80.0
4528,D2,361.0,0.5,127,80.0
4529,F#2,361.0,49/100,100,80.0
4530,D3,361.5,0.0,127,80.0
4531,C4,361.5,0.25,127,80.0
4532,D2,361.5,0.25,127,80.0
4533,D2,361.5,99/100,127,80.0
4534,F#2,361.5,49/100,108,80.0
4535,D3,361.75,0.0,127,80.0
4536,C4,361.75,0.25,127,80.0
4537,D2,361.75,0.25,127,80.0
4538,D3,362.0,0.0,127,80.0
4539,C4,362.0,0.5,127,80.0
4540,D2,362.0,0.5,127,80.0
4541,F#2,362.0,49/100,116,80.0
4542,C2,362.5,6/25,110,80.0
4543,F#2,362.5,49/100,116,80.0
4544,A4,362.75,0.25,127,80.0
4545,C2,362.75,37/50,106,80.0
4546,D3,363.0,0.0,127,80.0
4547,C4,363.0,0.25,127,80.0
4548,D3,363.0,0.25,127,80.0
4549,G#4,363.0,0.25,127,80.0
4550,F#2,363.0,49/100,100,80.0
4551,D3,363.25,0.0,127,80.0
4552,C4,363.25,0.25,127,80.0
4553,D3,363.25,0.25,127,80.0
4554,A4,363.25,0.25,127,80.0
4555,D3,363.5,0.0,127,80.0
4556,C4,363.5,0.5,127,80.0
4557,D3,363.5,0.5,127,80.0
4558,B4,363.5,0.25,127,80.0
4559,D2,363.5,0.5,127,80.0
4560,F#2,363.5,49/100,108,80.0
4561,A4,363.75,0.25,127,80.0
4562,D2,364.0,1.5,127,80.0
4563,D2,364.0,0.5,127,80.0
4564,G#4,364.0,0.25,127,80.0
4565,F#2,364.0,49/100,116,80.0
4566,D2,364.0,49/100,127,80.0
4567,A4,364.25,0.25,127,80.0
4568,D3,364.5,0.0,127,80.0
4569,D4,364.5,0.25,127,80.0
4570,D2,364.5,0.25,127,80.0
4571,F#4,364.5,3.5,127,80.0
4572,C2,364.5,6/25,110,80.0
4573,F#2,364.5,49/100,116,80.0
4574,D3,364.75,0.0,127,80.0
4575,D4,364.75,0.25,127,80.0
4576,D2,364.75,0.25,127,80.0
4577,C2,364.75,37/50,106,80.0
4578,D3,365.0,0.0,127,80.0
4579,D4,365.0,0.5,127,80.0
4580,D2,365.0,0.5,127,80.0
4581,F#2,365.0,49/100,100,80.0
4582,D2,365.5,99/100,127,80.0
4583,F#2,365.5,49/100,108,80.0
4584,D3,366.0,0.0,127,80.0
4585,A3,366.0,0.25,127,80.0
4586,D3,366.0,0.25,127,80.0
4587,F#2,366.0,49/100,116,80.0
4588,D3,366.25,0.0,127,80.0
4589,A3,366.25,0.25,127,80.0
4590,D3,366.25,0.25,127,80.0
4591,D3,366.5,0.0,127,80.0
4592,A3,366.5,0.5,127,80.0
4593,D3,366.5,0.25,127,80.0
4594,C2,366.5,6/25,110,80.0
4595,F#2,366.5,49/100,116,80.0
4596,D2,366.75,0.25,127,80.0
4597,C2,366.75,37/50,106,80.0
4598,D2,367.0,1.0,127,80.0
4599,D2,367.0,0.5,127,80.0
4600,F#2,367.0,49/100,100,80.0
4601,D3,367.5,0.0,127,80.0
4602,B-3,367.5,0.25,127,80.0
4603,D2,367.5,0.25,127,80.0
4604,D2,367.5,0.5,127,80.0
4605,F#2,367.5,49/100,108,80.0
4606,D3,367.75,0.0,127,80.0
4607,B-3,367.75,0.25,127,80.0
4608,D2,367.75,0.25,127,80.0
4609,D3,368.0,0.0,127,80.0
4610,B-3,368.0,0.5,127,80.0
4611,D2,368.0,0.5,127,80.0
4612,D2,368.0,0.5,127,80.0
4613,F#4,368.0,0.5,127,80.0
4614,F#2,368.0,49/100,116,80.0
4615,D2,368.0,49/100,127,80.0
4616,C2,368.5,6/25,110,80.0
4617,F#2,368.5,49/100,116,80.0
4618,C2,368.75,37/50,106,80.0
4619,D3,369.0,0.0,127,80.0
4620,B-3,369.0,0.25,127,80.0
4621,D3,369.0,0.25,127,80.0
4622,F#2,369.0,49/100,100,80.0
4623,D3,369.25,0.0,127,80.0
4624,B-3,369.25,0.25,127,80.0
4625,D3,369.25,0.25,127,80.0
4626,D3,369.5,0.0,127,80.0
4627,B-3,369.5,0.5,127,80.0
4628,D3,369.5,0.5,127,80.0
4629,D2,369.5,99/100,127,80.0
4630,F#2,369.5,49/100,108,80.0
4631,D2,370.0,1.5,127,80.0
4632,D2,370.0,0.5,127,80.0
4633,F#2,370.0,49/100,116,80.0
4634,D3,370.5,0.0,127,80.0
4635,B3,370.5,0.25,127,80.0
4636,D2,370.5,0.25,127,80.0
4637,C2,370.5,6/25,110,80.0
4638,F#2,370.5,49/100,116,80.0
4639,D3,370.75,0.0,127,80.0
4640,B3,370.75,0.25,127,80.0
4641,D2,370.75,0.25,127,80.0
4642,C2,370.75,37/50,106,80.0
4643,D3,371.0,0.0,127,80.0
4644,B3,371.0,0.5,127,80.0
4645,D2,371.0,0.5,127,80.0
4646,F#2,371.0,49/100,100,80.0
4647,D2,371.5,0.5,127,80.0
4648,F#2,371.5,49/100,108,80.0
4649,D3,372.0,0.0,127,80.0
4650,B3,372.0,0.25,127,80.0
4651,D3,372.0,0.25,127,80.0
4652,F#2,372.0,49/100,116,80.0
4653,D2,372.0,49/100,127,80.0
4654,D3,372.25,0.0,127,80.0
4655,B3,372.25,0.25,127,80.0
4656,D3,372.25,0.25,127,80.0
4657,D3,372.5,0.0,127,80.0
4658,B3,372.5,0.5,127,80.0
4659,D3,372.5,0.25,127,80.0
4660,C2,372.5,6/25,110,80.0
4661,F#2,372.5,49/100,116,80.0
4662,D2,372.75,0.25,127,80.0
4663,C2,372.75,37/50,106,80.0
4664,D2,373.0,1.5,127,80.0
4665,D2,373.0,0.5,127,80.0
4666,F#2,373.0,49/100,100,80.0
4667,D3,373.5,0.0,127,80.0
4668,C4,373.5,0.25,127,80.0
4669,D2,373.5,0.25,127,80.0
4670,D2,373.5,99/100,127,80.0
4671,F#2,373.5,49/100,108,80.0
4672,D3,373.75,0.0,127,80.0
4673,C4,373.75,0.25,127,80.0
4674,D2,373.75,0.25,127,80.0
4675,D3,374.0,0.0,127,80.0
4676,C4,374.0,0.5,127,80.0
4677,D2,374.0,0.5,127,80.0
4678,F#2,374.0,49/100,116,80.0
4679,C2,374.5,6/25,110,80.0
4680,F#2,374.5,49/100,116,80.0
4681,C2,374.75,37/50,106,80.0
4682,D3,375.0,0.0,127,80.0
4683,C4,375.0,0.25,127,80.0
4684,D3,375.0,0.25,127,80.0
4685,F#2,375.0,49/100,100,80.0
4686,D3,375.25,0.0,127,80.0
4687,C4,375.25,0.25,127,80.0
4688,D3,375.25,0.25,127,80.0
4689,D3,375.5,0.0,127,80.0
4690,C4,375.5,0.5,127,80.0
4691,D3,375.5,0.5,127,80.0
4692,D2,375.5,0.5,127,80.0
4693,F#2,375.5,49/100,108,80.0
4694,D2,376.0,1.5,127,80.0
4695,D2,376.0,0.5,127,80.0
4696,F#2,376.0,49/100,116,80.0
4697,D2,376.0,49/100,127,80.0
4698,D3,376.5,0.0,127,80.0
4699,D4,376.5,0.25,127,80.0
4700,D2,376.5,0.25,127,80.0
4701,C2,376.5,6/25,110,80.0
4702,F#2,376.5,49/100,116,80.0
4703,D3,376.75,0.0,127,80.0
4704,D4,376.75,0.25,127,80.0
4705,D2,376.75,0.25,127,80.0
4706,C2,376.75,37/50,106,80.0
4707,D3,377.0,0.0,127,80.0
4708,D4,377.0,0.5,127,80.0
4709,D2,377.0,0.5,127,80.0
4710,F#5,377.0,49/100,70,80.0
4711,F#2,377.0,49/100,100,80.0
4712,F#5,377.5,49/100,70,80.0
4713,D2,377.5,99/100,127,80.0
4714,F#2,377.5,49/100,108,80.0
4715,D3,378.0,0.0,127,80.0
4716,A3,378.0,0.25,127,80.0
4717,D2,378.0,0.25,127,80.0
4718,F#5,378.0,6/25,66,80.0
4719,F#2,378.0,49/100,116,80.0
4720,D3,378.25,0.0,127,80.0
4721,A3,378.25,0.25,127,80.0
4722,D2,378.25,0.25,127,80.0
4723,A5,378.25,37/50,98,80.0
4724,D3,378.5,0.0,127,80.0
4725,A3,378.5,0.5,127,80.0
4726,D2,378.5,0.5,127,80.0
4727,C2,378.5,6/25,110,80.0
4728,F#2,378.5,49/100,116,80.0
4729,C2,378.75,37/50,106,80.0
4730,D2,379.0,1.0,127,80.0
4731,D2,379.0,0.5,127,80.0
4732,F#5,379.0,49/100,72,80.0
4733,F#2,379.0,49/100,100,80.0
4734,D3,379.5,0.0,127,80.0
4735,B-3,379.5,0.25,127,80.0
4736,D2,379.5,0.25,127,80.0
4737,E5,379.5,49/100,76,80.0
4738,D2,379.5,0.5,127,80.0
4739,F#2,379.5,49/100,108,80.0
4740,D3,379.75,0.0,127,80.0
4741,B-3,379.75,0.25,127,80.0
4742,D2,379.75,0.25,127,80.0
4743,D3,380.0,0.0,127,80.0
4744,B-3,380.0,0.5,127,80.0
4745,D2,380.0,0.5,127,80.0
4746,D2,380.0,0.5,127,80.0
4747,F#5,380.0,6/25,98,80.0
4748,F#2,380.0,49/100,116,80.0
4749,D2,380.0,49/100,127,80.0
4750,E5,380.25,49/100,78,80.0
4751,C2,380.5,6/25,110,80.0
4752,F#2,380.5,49/100,116,80.0
4753,D5,380.75,6/25,92,80.0
4754,C2,380.75,37/50,106,80.0
4755,D3,381.0,0.0,127,80.0
4756,B-3,381.0,0.25,127,80.0
4757,D3,381.0,0.25,127,80.0
4758,E5,381.0,49/100,78,80.0
4759,F#2,381.0,49/100,100,80.0
4760,D3,381.25,0.0,127,80.0
4761,B-3,381.25,0.25,127,80.0
4762,D3,381.25,0.25,127,80.0
4763,D3,381.5,0.0,127,80.0
4764,B-3,381.5,0.5,127,80.0
4765,D3,381.5,0.5,127,80.0
4766,D2,381.5,99/100,127,80.0
4767,F#2,381.5,49/100,108,80.0
4768,D2,382.0,1.5,127,80.0
4769,D2,382.0,0.5,127,80.0
4770,F#2,382.0,49/100,116,80.0
4771,D3,382.5,0.0,127,80.0
4772,B3,382.5,0.25,127,80.0
4773,D2,382.5,0.25,127,80.0
4774,B4,382.5,49/100,104,80.0
4775,C2,382.5,6/25,110,80.0
4776,F#2,382.5,49/100,116,80.0
4777,D3,382.75,0.0,127,80.0
4778,B3,382.75,0.25,127,80.0
4779,D2,382.75,0.25,127,80.0
4780,C2,382.75,37/50,106,80.0
4781,D3,383.0,0.0,127,80.0
4782,B3,383.0,0.5,127,80.0
4783,D2,383.0,0.5,127,80.0
4784,B4,383.0,99/100,98,80.0
4785,F#2,383.0,49/100,100,80.0
4786,D2,383.5,0.5,127,80.0
4787,F#2,383.5,49/100,108,80.0
4788,D3,384.0,0.0,127,80.0
4789,B3,384.0,0.25,127,80.0
4790,D3,384.0,0.25,127,80.0
4791,D5,384.0,49/100,115,80.0
4792,F#2,384.0,49/100,116,80.0
4793,D2,384.0,49/100,127,80.0
4794,D3,384.25,0.0,127,80.0
4795,B3,384.25,0.25,127,80.0
4796,D3,384.25,0.25,127,80.0
4797,D3,384.5,0.0,127,80.0
4798,B3,384.5,0.5,127,80.0
4799,D3,384.5,0.25,127,80.0
4800,D5,384.5,49/100,109,80.0
4801,C2,384.5,6/25,110,80.0
4802,F#2,384.5,49/100,116,80.0
4803,D2,384.75,0.25,127,80.0
4804,C2,384.75,37/50,106,80.0
4805,D2,385.0,1.5,127,80.0
4806,D2,385.0,0.5,127,80.0
4807,B4,385.0,49/100,104,80.0
4808,F#2,385.0,49/100,100,80.0
4809,D3,385.5,0.0,127,80.0
4810,C4,385.5,0.25,127,80.0
4811,D2,385.5,0.25,127,80.0
4812,D2,385.5,99/100,127,80.0
4813,F#2,385.5,49/100,108,80.0
4814,D3,385.75,0.0,127,80.0
4815,C4,385.75,0.25,127,80.0
4816,D2,385.75,0.25,127,80.0
4817,E5,385.75,6/25,74,80.0
4818,D3,386.0,0.0,127,80.0
4819,C4,386.0,0.5,127,80.0
4820,D2,386.0,0.5,127,80.0
4821,D5,386.0,49/100,104,80.0
4822,F#2,386.0,49/100,116,80.0
4823,C2,386.5,6/25,110,80.0
4824,F#2,386.5,49/100,116,80.0
4825,A4,386.75,0.25,127,80.0
4826,C2,386.75,37/50,106,80.0
4827,D3,387.0,0.0,127,80.0
4828,C4,387.0,0.25,127,80.0
4829,D3,387.0,0.25,127,80.0
4830,G#4,387.0,0.25,127,80.0
4831,F#2,387.0,49/100,100,80.0
4832,D3,387.25,0.0,127,80.0
4833,C4,387.25,0.25,127,80.0
4834,D3,387.25,0.25,127,80.0
4835,A4,387.25,0.25,127,80.0
4836,D3,387.5,0.0,127,80.0
4837,C4,387.5,0.5,127,80.0
4838,D3,387.5,0.5,127,80.0
4839,B4,387.5,0.25,127,80.0
4840,D2,387.5,0.5,127,80.0
4841,F#2,387.5,49/100,108,80.0
4842,A4,387.75,0.25,127,80.0
4843,D2,388.0,1.5,127,80.0
4844,D2,388.0,0.5,127,80.0
4845,G#4,388.0,0.25,127,80.0
4846,F#2,388.0,49/100,116,80.0
4847,D2,388.0,49/100,127,80.0
4848,A4,388.25,0.25,127,80.0
4849,D3,388.5,0.0,127,80.0
4850,D4,388.5,0.25,127,80.0
4851,D2,388.5,0.25,127,80.0
4852,F#4,388.5,3.5,127,80.0
4853,C2,388.5,6/25,110,80.0
4854,F#2,388.5,49/100,116,80.0
4855,D3,388.75,0.0,127,80.0
4856,D4,388.75,0.25,127,80.0
4857,D2,388.75,0.25,127,80.0
4858,C2,388.75,37/50,106,80.0
4859,D3,389.0,0.0,127,80.0
4860,D4,389.0,0.5,127,80.0
4861,D2,389.0,0.5,127,80.0
4862,F#5,389.0,49/100,76,80.0
4863,F#2,389.0,49/100,100,80.0
4864,F#5,389.5,6/25,92,80.0
4865,D2,389.5,99/100,127,80.0
4866,F#2,389.5,49/100,108,80.0
4867,F#5,389.75,49/100,80,80.0
4868,D3,390.0,0.0,127,80.0
4869,A3,390.0,0.25,127,80.0
4870,D2,390.0,0.25,127,80.0
4871,F#2,390.0,49/100,116,80.0
4872,D3,390.25,0.0,127,80.0
4873,A3,390.25,0.25,127,80.0
4874,D2,390.25,0.25,127,80.0
4875,A5,390.25,37/50,98,80.0
4876,D3,390.5,0.0,127,80.0
4877,A3,390.5,0.5,127,80.0
4878,D2,390.5,0.5,127,80.0
4879,C2,390.5,6/25,110,80.0
4880,F#2,390.5,49/100,116,80.0
4881,C2,390.75,37/50,106,80.0
4882,D2,391.0,1.0,127,80.0
4883,D2,391.0,0.5,127,80.0
4884,F#5,391.0,49/100,98,80.0
4885,F#2,391.0,49/100,100,80.0
4886,D3,391.5,0.0,127,80.0
4887,B-3,391.5,0.25,127,80.0
4888,D2,391.5,0.25,127,80.0
4889,E5,391.5,6/25,78,80.0
4890,D2,391.5,0.5,127,80.0
4891,F#2,391.5,49/100,108,80.0
4892,D3,391.75,0.0,127,80.0
4893,B-3,391.75,0.25,127,80.0
4894,D2,391.75,0.25,127,80.0
4895,F#5,391.75,0.25,98,80.0
4896,D3,392.0,0.0,127,80.0
4897,B-3,392.0,0.5,127,80.0
4898,D2,392.0,0.5,127,80.0
4899,D2,392.0,0.5,127,80.0
4900,F#4,392.0,0.5,127,80.0
4901,F#5,392.0,49/100,98,80.0
4902,F#2,392.0,49/100,116,80.0
4903,D2,392.0,49/100,127,80.0
4904,E5,392.5,6/25,80,80.0
4905,C2,392.5,6/25,110,80.0
4906,F#2,392.5,49/100,116,80.0
4907,D5,392.75,49/100,98,80.0
4908,C2,392.75,37/50,106,80.0
4909,D3,393.0,0.0,127,80.0
4910,B-3,393.0,0.25,127,80.0
4911,D3,393.0,0.25,127,80.0
4912,F#2,393.0,49/100,100,80.0
4913,D3,393.25,0.0,127,80.0
4914,B-3,393.25,0.25,127,80.0
4915,D3,393.25,0.25,127,80.0
4916,E5,393.25,37/50,78,80.0
4917,D3,393.5,0.0,127,80.0
4918,B-3,393.5,0.5,127,80.0
4919,D3,393.5,0.5,127,80.0
4920,D2,393.5,99/100,127,80.0
4921,F#2,393.5,49/100,108,80.0
4922,D2,394.0,1.5,127,80.0
4923,D2,394.0,0.5,127,80.0
4924,F#2,394.0,49/100,116,80.0
4925,D3,394.5,0.0,127,80.0
4926,B3,394.5,0.25,127,80.0
4927,D2,394.5,0.25,127,80.0
4928,C2,394.5,6/25,110,80.0
4929,F#2,394.5,49/100,116,80.0
4930,D3,394.75,0.0,127,80.0
4931,B3,394.75,0.25,127,80.0
4932,D2,394.75,0.25,127,80.0
4933,C2,394.75,37/50,106,80.0
4934,D3,395.0,0.0,127,80.0
4935,B3,395.0,0.5,127,80.0
4936,D2,395.0,0.5,127,80.0
4937,A4,395.0,49/100,98,80.0
4938,F#2,395.0,49/100,100,80.0
4939,B4,395.5,49/100,98,80.0
4940,D2,395.5,0.5,127,80.0
4941,F#2,395.5,49/100,108,80.0
4942,D3,396.0,0.0,127,80.0
4943,B3,396.0,0.25,127,80.0
4944,D3,396.0,0.25,127,80.0
4945,D5,396.0,49/100,98,80.0
4946,F#2,396.0,49/100,116,80.0
4947,D2,396.0,49/100,127,80.0
4948,D3,396.25,0.0,127,80.0
4949,B3,396.25,0.25,127,80.0
4950,D3,396.25,0.25,127,80.0
4951,D3,396.5,0.0,127,80.0
4952,B3,396.5,0.5,127,80.0
4953,D3,396.5,0.25,127,80.0
4954,E5,396.5,49/100,74,80.0
4955,C2,396.5,6/25,110,80.0
4956,F#2,396.5,49/100,116,80.0
4957,D2,396.75,0.25,127,80.0
4958,C2,396.75,37/50,106,80.0
4959,D2,397.0,1.5,127,80.0
4960,D2,397.0,0.5,127,80.0
4961,B4,397.0,49/100,104,80.0
4962,F#2,397.0,49/100,100,80.0
4963,D3,397.5,0.0,127,80.0
4964,C4,397.5,0.25,127,80.0
4965,D2,397.5,0.25,127,80.0
4966,E5,397.5,6/25,76,80.0
4967,D2,397.5,99/100,127,80.0
4968,F#2,397.5,49/100,108,80.0
4969,D3,397.75,0.0,127,80.0
4970,C4,397.75,0.25,127,80.0
4971,D2,397.75,0.25,127,80.0
4972,D5,397.75,37/50,109,80.0
4973,D3,398.0,0.0,127,80.0
4974,C4,398.0,0.5,127,80.0
4975,D2,398.0,0.5,127,80.0
4976,F#2,398.0,49/100,116,80.0
4977,C2,398.5,6/25,110,80.0
4978,F#2,398.5,49/100,116,80.0
4979,A4,398.75,0.25,127,80.0
4980,C2,398.75,37/50,106,80.0
4981,D3,399.0,0.0,127,80.0
4982,C4,399.0,0.25,127,80.0
4983,D3,399.0,0.25,127,80.0
4984,G#4,399.0,0.25,127,80.0
4985,F#2,399.0,49/100,100,80.0
4986,D3,399.25,0.0,127,80.0
4987,C4,399.25,0.25,127,80.0
4988,D3,399.25,0.25,127,80.0
4989,A4,399.25,0.25,127,80.0
4990,D3,399.5,0.0,127,80.0
4991,C4,399.5,0.5,127,80.0
4992,D3,399.5,0.5,127,80.0
4993,B4,399.5,0.25,127,80.0
4994,D2,399.5,0.5,127,80.0
4995,F#2,399.5,49/100,108,80.0
4996,A4,399.75,0.25,127,80.0
4997,D2,400.0,1.5,127,80.0
4998,D2,400.0,0.5,127,80.0
4999,G#4,400.0,0.25,127,80.0
5000,F#2,400.0,49/100,116,80.0
5001,D2,400.0,49/100,127,80.0
5002,A4,400.25,0.25,127,80.0
5003,D3,400.5,0.0,127,80.0
5004,D4,400.5,0.25,127,80.0
5005,D2,400.5,0.25,127,80.0
5006,F#4,400.5,3.5,127,80.0
5007,C2,400.5,6/25,110,80.0
5008,C#3,400.5,49/100,116,80.0
5009,D3,400.75,0.0,127,80.0
5010,D4,400.75,0.25,127,80.0
5011,D2,400.75,0.25,127,80.0
5012,C2,400.75,37/50,106,80.0
5013,D3,401.0,0.0,127,80.0
5014,D4,401.0,0.5,127,80.0
5015,D2,401.0,0.5,127,80.0
5016,F#2,401.0,49/100,100,80.0
5017,F#5,401.5,6/25,70,80.0
5018,D2,401.5,99/100,127,80.0
5019,F#2,401.5,49/100,108,80.0
5020,F#5,401.75,49/100,72,80.0
5021,D3,402.0,0.0,127,80.0
5022,A3,402.0,0.25,127,80.0
5023,D2,402.0,0.25,127,80.0
5024,F#2,402.0,49/100,116,80.0
5025,D3,402.25,0.0,127,80.0
5026,A3,402.25,0.25,127,80.0
5027,D2,402.25,0.25,127,80.0
5028,A5,402.25,37/50,92,80.0
5029,D3,402.5,0.0,127,80.0
5030,A3,402.5,0.5,127,80.0
5031,D2,402.5,0.5,127,80.0
5032,C2,402.5,6/25,110,80.0
5033,F#2,402.5,49/100,116,80.0
5034,C2,402.75,37/50,106,80.0
5035,D2,403.0,1.0,127,80.0
5036,D2,403.0,0.5,127,80.0
5037,F#5,403.0,49/100,74,80.0
5038,F#2,403.0,49/100,100,80.0
5039,D3,403.5,0.0,127,80.0
5040,B-3,403.5,0.25,127,80.0
5041,D2,403.5,0.25,127,80.0
5042,D2,403.5,0.5,127,80.0
5043,F#2,403.5,49/100,108,80.0
5044,D3,403.75,0.0,127,80.0
5045,B-3,403.75,0.25,127,80.0
5046,D2,403.75,0.25,127,80.0
5047,E5,403.833,167/1000,76,80.0
5048,D3,404.0,0.0,127,80.0
5049,B-3,404.0,0.5,127,80.0
5050,D2,404.0,0.5,127,80.0
5051,D2,404.0,0.5,127,80.0
5052,F#4,404.0,0.5,127,80.0
5053,E5,404.0,0.156,76,80.0
5054,F#2,404.0,49/100,116,80.0
5055,D2,404.0,49/100,127,80.0
5056,F#5,404.167,323/1000,76,80.0
5057,E5,404.5,323/1000,78,80.0
5058,C2,404.5,6/25,110,80.0
5059,F#2,404.5,49/100,116,80.0
5060,C2,404.75,37/50,106,80.0
5061,D5,404.833,323/1000,104,80.0
5062,D3,405.0,0.0,127,80.0
5063,B-3,405.0,0.25,127,80.0
5064,D3,405.0,0.25,127,80.0
5065,F#2,405.0,49/100,100,80.0
5066,E5,405.167,1323/1000,104,80.0
5067,D3,405.25,0.0,127,80.0
5068,B-3,405.25,0.25,127,80.0
5069,D3,405.25,0.25,127,80.0
5070,D3,405.5,0.0,127,80.0
5071,B-3,405.5,0.5,127,80.0
5072,D3,405.5,0.5,127,80.0
5073,D2,405.5,99/100,127,80.0
5074,F#2,405.5,49/100,108,80.0
5075,D2,406.0,1.5,127,80.0
5076,D2,406.0,0.5,127,80.0
5077,F#2,406.0,49/100,116,80.0
5078,D3,406.5,0.0,127,80.0
5079,B3,406.5,0.25,127,80.0
5080,D2,406.5,0.25,127,80.0
5081,B4,406.5,49/100,121,80.0
5082,C2,406.5,6/25,110,80.0
5083,F#2,406.5,49/100,116,80.0
5084,D3,406.75,0.0,127,80.0
5085,B3,406.75,0.25,127,80.0
5086,D2,406.75,0.25,127,80.0
5087,C2,406.75,37/50,106,80.0
5088,D3,407.0,0.0,127,80.0
5089,B3,407.0,0.5,127,80.0
5090,D2,407.0,0.5,127,80.0
5091,B4,407.0,49/100,92,80.0
5092,F#2,407.0,49/100,100,80.0
5093,D5,407.5,49/100,92,80.0
5094,D2,407.5,0.5,127,80.0
5095,F#2,407.5,49/100,108,80.0
5096,D3,408.0,0.0,127,80.0
5097,B3,408.0,0.25,127,80.0
5098,D3,408.0,0.25,127,80.0
5099,D5,408.0,49/100,92,80.0
5100,F#2,408.0,49/100,116,80.0
5101,D2,408.0,49/100,127,80.0
5102,D3,408.25,0.0,127,80.0
5103,B3,408.25,0.25,127,80.0
5104,D3,408.25,0.25,127,80.0
5105,D3,408.5,0.0,127,80.0
5106,B3,408.5,0.5,127,80.0
5107,D3,408.5,0.25,127,80.0
5108,D5,408.5,6/25,98,80.0
5109,C2,408.5,6/25,110,80.0
5110,F#2,408.5,49/100,116,80.0
5111,D2,408.75,0.25,127,80.0
5112,B4,408.75,37/50,104,80.0
5113,C2,408.75,37/50,106,80.0
5114,D2,409.0,1.5,127,80.0
5115,D2,409.0,0.5,127,80.0
5116,F#2,409.0,49/100,100,80.0
5117,D3,409.5,0.0,127,80.0
5118,C4,409.5,0.25,127,80.0
5119,D2,409.5,0.25,127,80.0
5120,E5,409.5,6/25,78,80.0
5121,D2,409.5,99/100,127,80.0
5122,F#2,409.5,49/100,108,80.0
5123,D3,409.75,0.0,127,80.0
5124,C4,409.75,0.25,127,80.0
5125,D2,409.75,0.25,127,80.0
5126,D5,409.75,37/50,104,80.0
5127,D3,410.0,0.0,127,80.0
5128,C4,410.0,0.5,127,80.0
5129,D2,410.0,0.5,127,80.0
5130,F#2,410.0,49/100,116,80.0
5131,C2,410.5,6/25,110,80.0
5132,F#2,410.5,49/100,116,80.0
5133,A4,410.75,0.25,127,80.0
5134,C2,410.75,37/50,106,80.0
5135,D3,411.0,0.0,127,80.0
5136,C4,411.0,0.25,127,80.0
5137,D3,411.0,0.25,127,80.0
5138,G#4,411.0,0.25,127,80.0
5139,F#2,411.0,49/100,100,80.0
5140,D3,411.25,0.0,127,80.0
5141,C4,411.25,0.25,127,80.0
5142,D3,411.25,0.25,127,80.0
5143,A4,411.25,0.25,127,80.0
5144,D3,411.5,0.0,127,80.0
5145,C4,411.5,0.5,127,80.0
5146,D3,411.5,0.5,127,80.0
5147,B4,411.5,0.25,127,80.0
5148,D2,411.5,0.5,127,80.0
5149,F#2,411.5,49/100,108,80.0
5150,A4,411.75,0.25,127,80.0
5151,D2,412.0,1.5,127,80.0
5152,D2,412.0,0.5,127,80.0
5153,G#4,412.0,0.25,127,80.0
5154,F#2,412.0,49/100,116,80.0
5155,D2,412.0,49/100,127,80.0
5156,A4,412.25,0.25,127,80.0
5157,D3,412.5,0.0,127,80.0
5158,D4,412.5,0.25,127,80.0
5159,D2,412.5,0.25,127,80.0
5160,F#4,412.5,3.5,127,80.0
5161,C2,412.5,6/25,110,80.0
5162,F#2,412.5,49/100,116,80.0
5163,D3,412.75,0.0,127,80.0
5164,D4,412.75,0.25,127,80.0
5165,D2,412.75,0.25,127,80.0
5166,C2,412.75,37/50,106,80.0
5167,D3,413.0,0.0,127,80.0
5168,D4,413.0,0.5,127,80.0
5169,D2,413.0,0.5,127,80.0
5170,F#2,413.0,49/100,100,80.0
5171,F#5,413.5,6/25,98,80.0
5172,D2,413.5,99/100,127,80.0
5173,F#2,413.5,49/100,108,80.0
5174,F#5,413.75,49/100,68,80.0
5175,D3,414.0,0.0,127,80.0
5176,A3,414.0,0.25,127,80.0
5177,D2,414.0,0.25,127,80.0
5178,F#2,414.0,49/100,116,80.0
5179,D3,414.25,0.0,127,80.0
5180,A3,414.25,0.25,127,80.0
5181,D2,414.25,0.25,127,80.0
5182,A5,414.25,99/100,98,80.0
5183,D3,414.5,0.0,127,80.0
5184,A3,414.5,0.5,127,80.0
5185,D2,414.5,0.5,127,80.0
5186,C2,414.5,6/25,110,80.0
5187,F#2,414.5,49/100,116,80.0
5188,C2,414.75,37/50,106,80.0
5189,D2,415.0,1.0,127,80.0
5190,D2,415.0,0.5,127,80.0
5191,F#2,415.0,49/100,100,80.0
5192,F#5,415.25,6/25,109,80.0
5193,D3,415.5,0.0,127,80.0
5194,B-3,415.5,0.25,127,80.0
5195,D2,415.5,0.25,127,80.0
5196,E5,415.5,49/100,86,80.0
5197,D2,415.5,0.5,127,80.0
5198,F#2,415.5,49/100,108,80.0
5199,D3,415.75,0.0,127,80.0
5200,B-3,415.75,0.25,127,80.0
5201,D2,415.75,0.25,127,80.0
5202,D3,416.0,0.0,127,80.0
5203,B-3,416.0,0.5,127,80.0
5204,D2,416.0,0.5,127,80.0
5205,D2,416.0,0.5,127,80.0
5206,F#4,416.0,0.5,127,80.0
5207,F#5,416.0,99/100,74,80.0
5208,F#2,416.0,49/100,116,80.0
5209,D2,416.0,49/100,127,80.0
5210,C2,416.5,6/25,110,80.0
5211,F#2,416.5,49/100,116,80.0
5212,C2,416.75,37/50,106,80.0
5213,D3,417.0,0.0,127,80.0
5214,B-3,417.0,0.25,127,80.0
5215,D3,417.0,0.25,127,80.0
5216,E5,417.0,6/25,86,80.0
5217,F#2,417.0,49/100,100,80.0
5218,D3,417.25,0.0,127,80.0
5219,B-3,417.25,0.25,127,80.0
5220,D3,417.25,0.25,127,80.0
5221,D5,417.25,49/100,109,80.0
5222,D3,417.5,0.0,127,80.0
5223,B-3,417.5,0.5,127,80.0
5224,D3,417.5,0.5,127,80.0
5225,D2,417.5,99/100,127,80.0
5226,F#2,417.5,49/100,108,80.0
5227,D5,417.75,37/50,121,80.0
5228,D2,418.0,1.5,127,80.0
5229,D2,418.0,0.5,127,80.0
5230,F#2,418.0,49/100,116,80.0
5231,D3,418.5,0.0,127,80.0
5232,B3,418.5,0.25,127,80.0
5233,D2,418.5,0.25,127,80.0
5234,C2,418.5,6/25,110,80.0
5235,F#2,418.5,49/100,116,80.0
5236,D3,418.75,0.0,127,80.0
5237,B3,418.75,0.25,127,80.0
5238,D2,418.75,0.25,127,80.0
5239,C2,418.75,37/50,106,80.0
5240,D3,419.0,0.0,127,80.0
5241,B3,419.0,0.5,127,80.0
5242,D2,419.0,0.5,127,80.0
5243,F#2,419.0,49/100,100,80.0
5244,B4,419.5,0.5,115,80.0
5245,D2,419.5,0.5,127,80.0
5246,F#2,419.5,49/100,108,80.0
5247,D3,420.0,0.0,127,80.0
5248,B3,420.0,0.25,127,80.0
5249,D3,420.0,0.25,127,80.0
5250,B4,420.0,6/25,115,80.0
5251,F#2,420.0,49/100,116,80.0
5252,D2,420.0,49/100,127,80.0
5253,D3,420.25,0.0,127,80.0
5254,B3,420.25,0.25,127,80.0
5255,D3,420.25,0.25,127,80.0
5256,D5,420.25,49/100,115,80.0
5257,D3,420.5,0.0,127,80.0
5258,B3,420.5,0.5,127,80.0
5259,D3,420.5,0.25,127,80.0
5260,C2,420.5,6/25,110,80.0
5261,F#2,420.5,49/100,116,80.0
5262,D2,420.75,0.25,127,80.0
5263,D5,420.75,49/100,121,80.0
5264,C2,420.75,37/50,106,80.0
5265,D2,421.0,1.5,127,80.0
5266,D2,421.0,0.5,127,80.0
5267,F#2,421.0,49/100,100,80.0
5268,B4,421.25,49/100,121,80.0
5269,D3,421.5,0.0,127,80.0
5270,C4,421.5,0.25,127,80.0
5271,D2,421.5,0.25,127,80.0
5272,D2,421.5,99/100,127,80.0
5273,F#2,421.5,49/100,108,80.0
5274,D3,421.75,0.0,127,80.0
5275,C4,421.75,0.25,127,80.0
5276,D2,421.75,0.25,127,80.0
5277,E5,421.75,2.25,109,80.0
5278,D3,422.0,0.0,127,80.0
5279,C4,422.0,0.5,127,80.0
5280,D2,422.0,0.5,127,80.0
5281,F#2,422.0,49/100,116,80.0
5282,C2,422.5,6/25,110,80.0
5283,F#2,422.5,49/100,116,80.0
5284,C2,422.75,37/50,106,80.0
5285,D3,423.0,0.0,127,80.0
5286,C4,423.0,0.25,127,80.0
5287,D3,423.0,0.25,127,80.0
5288,F#2,423.0,49/100,100,80.0
5289,D3,423.25,0.0,127,80.0
5290,C4,423.25,0.25,127,80.0
5291,D3,423.25,0.25,127,80.0
5292,D3,423.5,0.0,127,80.0
5293,C4,423.5,0.5,127,80.0
5294,D3,423.5,0.5,127,80.0
5295,D2,423.5,0.5,127,80.0
5296,F#2,423.5,49/100,108,80.0
5297,D2,424.0,0.5,127,80.0
5298,D2,424.0,0.5,127,80.0
5299,D2,424.0,1.5,60,80.0
5300,E5,424.0,249/100,109,80.0
5301,F#2,424.0,49/100,116,80.0
5302,D2,424.0,49/100,127,80.0
5303,D3,424.5,0.0,60,80.0
5304,D2,424.5,0.25,127,80.0
5305,D4,424.5,0.25,60,80.0
5306,C2,424.5,6/25,110,80.0
5307,F#2,424.5,49/100,116,80.0
5308,D4,424.5,0.75,127,80.0
5309,G4,424.5,0.75,127,80.0
5310,A3,424.5,0.75,127,80.0
5311,D5,424.5,0.75,127,80.0
5312,D3,424.75,0.0,60,80.0
5313,D2,424.75,0.25,127,80.0
5314,D4,424.75,0.25,60,80.0
5315,C2,424.75,37/50,106,80.0
5316,D3,425.0,0.0,60,80.0
5317,D2,425.0,1.0,127,80.0
5318,D4,425.0,0.5,60,80.0
5319,F#2,425.0,49/100,100,80.0
5320,D4,425.25,0.75,127,80.0
5321,F#4,425.25,0.75,127,80.0
5322,A3,425.25,0.75,127,80.0
5323,D5,425.25,0.75,127,80.0
5324,D2,425.5,99/100,127,80.0
5325,F#2,425.5,49/100,108,80.0
5326,D3,426.0,0.0,60,80.0
5327,D3,426.0,0.25,127,80.0
5328,A3,426.0,0.25,60,80.0
5329,F#2,426.0,49/100,116,80.0
5330,C4,426.0,0.75,127,80.0
5331,F4,426.0,0.75,127,80.0
5332,A3,426.0,0.75,127,80.0
5333,C5,426.0,0.75,127,80.0
5334,D3,426.25,0.0,60,80.0
5335,D3,426.25,0.25,127,80.0
5336,A3,426.25,0.25,60,80.0
5337,D3,426.5,0.0,60,80.0
5338,D3,426.5,0.25,127,80.0
5339,A3,426.5,0.5,60,80.0
5340,C2,426.5,6/25,110,80.0
5341,F#2,426.5,49/100,116,80.0
5342,A2,426.75,0.25,127,80.0
5343,C2,426.75,37/50,106,80.0
5344,C4,426.75,0.75,127,80.0
5345,E4,426.75,0.75,127,80.0
5346,A3,426.75,0.75,127,80.0
5347,C5,426.75,0.75,127,80.0
5348,D2,427.0,1.0,127,80.0
5349,D2,427.0,1.0,60,80.0
5350,F#2,427.0,49/100,100,80.0
5351,A3,427.5,0.0,127,80.0
5352,D3,427.5,0.0,60,80.0
5353,B-3,427.5,0.25,60,80.0
5354,D2,427.5,0.5,127,80.0
5355,F#2,427.5,49/100,108,80.0
5356,D4,427.5,0.5,127,80.0
5357,A4,427.5,0.5,127,80.0
5358,D3,427.75,0.0,60,80.0
5359,B-3,427.75,0.25,60,80.0
5360,A3,428.0,0.0,127,80.0
5361,D3,428.0,0.0,60,80.0
5362,D2,428.0,0.5,127,80.0
5363,B-3,428.0,0.5,60,80.0
5364,D2,428.0,0.5,60,80.0
5365,F#2,428.0,49/100,116,80.0
5366,D2,428.0,49/100,127,80.0
5367,C#4,428.0,0.5,127,80.0
5368,A4,428.0,0.5,127,80.0
5369,C2,428.5,6/25,110,80.0
5370,F#2,428.5,49/100,116,80.0
5371,G3,428.5,0.75,127,80.0
5372,C4,428.5,0.75,127,80.0
5373,A3,428.5,0.75,127,80.0
5374,G4,428.5,0.75,127,80.0
5375,C2,428.75,37/50,106,80.0
5376,D3,429.0,0.0,60,80.0
5377,D2,429.0,0.25,127,80.0
5378,B-3,429.0,0.25,60,80.0
5379,F#2,429.0,49/100,100,80.0
5380,D3,429.25,0.0,60,80.0
5381,D2,429.25,0.25,127,80.0
5382,B-3,429.25,0.25,60,80.0
5383,G3,429.25,0.75,127,80.0
5384,B3,429.25,0.75,127,80.0
5385,A3,429.25,0.75,127,80.0
5386,G4,429.25,0.75,127,80.0
5387,D3,429.5,0.0,60,80.0
5388,D3,429.5,0.5,127,80.0
5389,B-3,429.5,0.5,60,80.0
5390,D2,429.5,99/100,127,80.0
5391,F#2,429.5,49/100,108,80.0
5392,D2,430.0,1.5,60,80.0
5393,F#2,430.0,49/100,116,80.0
5394,F3,430.0,0.75,127,80.0
5395,B-3,430.0,0.75,127,80.0
5396,A3,430.0,0.75,127,80.0
5397,F4,430.0,0.75,127,80.0
5398,D3,430.5,0.0,60,80.0
5399,B3,430.5,0.25,60,80.0
5400,C2,430.5,6/25,110,80.0
5401,F#2,430.5,49/100,116,80.0
5402,A3,430.75,0.0,127,80.0
5403,D3,430.75,0.0,60,80.0
5404,B3,430.75,0.25,60,80.0
5405,C2,430.75,37/50,106,80.0
5406,F3,430.75,0.75,127,80.0
5407,F4,430.75,0.75,127,80.0
5408,D3,431.0,0.0,60,80.0
5409,B3,431.0,0.5,60,80.0
5410,F#2,431.0,49/100,100,80.0
5411,F3,431.5,0.25,127,80.0
5412,D2,431.5,0.5,127,80.0
5413,F#2,431.5,49/100,108,80.0
5414,E3,431.75,0.25,127,80.0
5415,D3,432.0,0.0,60,80.0
5416,D3,432.0,0.5,127,80.0
5417,D3,432.0,0.25,127,80.0
5418,B3,432.0,0.25,60,80.0
5419,F#2,432.0,49/100,116,80.0
5420,D2,432.0,49/100,127,80.0
5421,D3,432.25,0.0,60,80.0
5422,D3,432.25,0.25,127,80.0
5423,B3,432.25,0.25,60,80.0
5424,D3,432.5,0.0,60,80.0
5425,D3,432.5,0.25,127,80.0
5426,B3,432.5,0.5,60,80.0
5427,C2,432.5,6/25,110,80.0
5428,F#2,432.5,49/100,116,80.0
5429,D4,432.5,0.75,127,80.0
5430,G4,432.5,0.75,127,80.0
5431,A3,432.5,0.75,127,80.0
5432,D5,432.5,0.75,127,80.0
5433,A2,432.75,0.25,127,80.0
5434,C2,432.75,37/50,106,80.0
5435,D2,433.0,2.0,127,80.0
5436,D2,433.0,1.5,60,80.0
5437,F#2,433.0,49/100,100,80.0
5438,D4,433.25,0.75,127,80.0
5439,F#4,433.25,0.75,127,80.0
5440,A3,433.25,0.75,127,80.0
5441,D5,433.25,0.75,127,80.0
5442,D3,433.5,0.0,60,80.0
5443,C4,433.5,0.25,60,80.0
5444,D2,433.5,99/100,127,80.0
5445,F#2,433.5,49/100,108,80.0
5446,D3,433.75,0.0,60,80.0
5447,C4,433.75,0.25,60,80.0
5448,D3,434.0,0.0,60,80.0
5449,C4,434.0,0.5,60,80.0
5450,F#2,434.0,49/100,116,80.0
5451,C4,434.0,0.75,127,80.0
5452,F4,434.0,0.75,127,80.0
5453,A3,434.0,0.75,127,80.0
5454,C5,434.0,0.75,127,80.0
5455,C2,434.5,6/25,110,80.0
5456,F#2,434.5,49/100,116,80.0
5457,C2,434.75,37/50,106,80.0
5458,C4,434.75,0.75,127,80.0
5459,E4,434.75,0.75,127,80.0
5460,A3,434.75,0.75,127,80.0
5461,C5,434.75,0.75,127,80.0
5462,D3,435.0,0.0,60,80.0
5463,D3,435.0,0.25,127,80.0
5464,C4,435.0,0.25,60,80.0
5465,F#2,435.0,49/100,100,80.0
5466,D3,435.25,0.0,60,80.0
5467,D3,435.25,0.25,127,80.0
5468,C4,435.25,0.25,60,80.0
5469,A3,435.5,0.0,127,80.0
5470,D3,435.5,0.0,60,80.0
5471,D3,435.5,0.5,127,80.0
5472,C4,435.5,0.5,60,80.0
5473,D2,435.5,0.5,127,80.0
5474,F#2,435.5,49/100,108,80.0
5475,D4,435.5,0.5,127,80.0
5476,A4,435.5,0.5,127,80.0
5477,A3,436.0,0.0,127,80.0
5478,D2,436.0,0.75,127,80.0
5479,D2,436.0,1.5,60,80.0
5480,F#2,436.0,49/100,116,80.0
5481,D2,436.0,49/100,127,80.0
5482,C#4,436.0,0.5,127,80.0
5483,A4,436.0,0.5,127,80.0
5484,D3,436.5,0.0,60,80.0
5485,D4,436.5,0.25,60,80.0
5486,C2,436.5,6/25,110,80.0
5487,C#3,436.5,49/100,116,80.0
5488,G3,436.5,0.75,127,80.0
5489,C4,436.5,0.75,127,80.0
5490,A3,436.5,0.75,127,80.0
5491,G4,436.5,0.75,127,80.0
5492,D3,436.75,0.0,60,80.0
5493,A2,436.75,0.25,127,80.0
5494,D4,436.75,0.25,60,80.0
5495,C2,436.75,37/50,106,80.0
5496,D3,437.0,0.0,60,80.0
5497,D3,437.0,1.0,127,80.0
5498,D4,437.0,0.5,60,80.0
5499,F#2,437.0,49/100,100,80.0
5500,G3,437.25,0.75,127,80.0
5501,B3,437.25,0.75,127,80.0
5502,A3,437.25,0.75,127,80.0
5503,G4,437.25,0.75,127,80.0
5504,D2,437.5,99/100,127,80.0
5505,F#2,437.5,49/100,108,80.0
5506,D3,438.0,0.0,60,80.0
5507,D3,438.0,0.25,127,80.0
5508,A3,438.0,0.25,60,80.0
5509,F#2,438.0,49/100,116,80.0
5510,F3,438.0,0.75,127,80.0
5511,B-3,438.0,0.75,127,80.0
5512,A3,438.0,0.75,127,80.0
5513,F4,438.0,0.75,127,80.0
5514,D3,438.25,0.0,60,80.0
5515,D3,438.25,0.25,127,80.0
5516,A3,438.25,0.25,60,80.0
5517,D3,438.5,0.0,60,80.0
5518,A3,438.5,0.5,60,80.0
5519,C2,438.5,6/25,110,80.0
5520,F#2,438.5,49/100,116,80.0
5521,A3,438.75,0.0,127,80.0
5522,C2,438.75,37/50,106,80.0
5523,F3,438.75,0.75,127,80.0
5524,F4,438.75,0.75,127,80.0
5525,D2,439.0,1.0,60,80.0
5526,F#2,439.0,49/100,100,80.0
5527,D3,439.5,0.0,60,80.0
5528,F3,439.5,0.25,127,80.0
5529,B-3,439.5,0.25,60,80.0
5530,D2,439.5,0.5,127,80.0
5531,F#2,439.5,49/100,108,80.0
5532,D3,439.75,0.0,60,80.0
5533,E3,439.75,0.25,127,80.0
5534,B-3,439.75,0.25,60,80.0
5535,D3,440.0,0.0,60,80.0
5536,D3,440.0,0.5,127,80.0
5537,B-3,440.0,0.5,60,80.0
5538,D2,440.0,0.5,60,80.0
5539,F#2,440.0,49/100,116,80.0
5540,D2,440.0,49/100,127,80.0
5541,C2,440.5,6/25,110,80.0
5542,F#2,440.5,49/100,116,80.0
5543,C2,440.75,37/50,106,80.0
5544,D3,441.0,0.0,127,80.0
5545,B-3,441.0,0.25,127,80.0
5546,D3,441.0,0.25,127,80.0
5547,F#2,441.0,49/100,100,80.0
5548,D3,441.25,0.0,127,80.0
5549,B-3,441.25,0.25,127,80.0
5550,D3,441.25,0.25,127,80.0
5551,D3,441.5,0.0,127,80.0
5552,B-3,441.5,0.5,127,80.0
5553,D3,441.5,0.5,127,80.0
5554,D2,441.5,99/100,127,80.0
5555,F#2,441.5,49/100,108,80.0
5556,D2,442.0,1.5,127,80.0
5557,D2,442.0,0.5,127,80.0
5558,F#2,442.0,49/100,116,80.0
5559,D3,442.5,0.0,127,80.0
5560,B3,442.5,0.25,127,80.0
5561,D2,442.5,0.25,127,80.0
5562,C2,442.5,6/25,110,80.0
5563,F#2,442.5,49/100,116,80.0
5564,D3,442.75,0.0,127,80.0
5565,B3,442.75,0.25,127,80.0
5566,D2,442.75,0.25,127,80.0
5567,C2,442.75,37/50,106,80.0
5568,D3,443.0,0.0,127,80.0
5569,B3,443.0,0.5,127,80.0
5570,D2,443.0,0.5,127,80.0
5571,F#2,443.0,49/100,100,80.0
5572,D2,443.5,0.5,127,80.0
5573,F#2,443.5,49/100,108,80.0
5574,D3,444.0,0.0,127,80.0
5575,B3,444.0,0.25,127,80.0
5576,D3,444.0,0.25,127,80.0
5577,F#2,444.0,49/100,116,80.0
5578,D2,444.0,49/100,127,80.0
5579,D3,444.25,0.0,127,80.0
5580,B3,444.25,0.25,127,80.0
5581,D3,444.25,0.25,127,80.0
5582,D3,444.5,0.0,127,80.0
5583,B3,444.5,0.5,127,80.0
5584,D3,444.5,0.25,127,80.0
5585,C2,444.5,6/25,110,80.0
5586,F#2,444.5,49/100,116,80.0
5587,D2,444.75,0.25,127,80.0
5588,C2,444.75,37/50,106,80.0
5589,D2,445.0,1.5,127,80.0
5590,D2,445.0,0.5,127,80.0
5591,F#2,445.0,49/100,100,80.0
5592,D3,445.5,0.0,127,80.0
5593,C4,445.5,0.25,127,80.0
5594,D2,445.5,0.25,127,80.0
5595,D2,445.5,99/100,127,80.0
5596,F#2,445.5,49/100,108,80.0
5597,D3,445.75,0.0,127,80.0
5598,C4,445.75,0.25,127,80.0
5599,D2,445.75,0.25,127,80.0
5600,D3,446.0,0.0,127,80.0
5601,C4,446.0,0.5,127,80.0
5602,D2,446.0,0.5,127,80.0
5603,F#2,446.0,49/100,116,80.0
5604,C2,446.5,6/25,110,80.0
5605,F#2,446.5,49/100,116,80.0
5606,C2,446.75,37/50,106,80.0
5607,D3,447.0,0.0,127,80.0
5608,C4,447.0,0.25,127,80.0
5609,D3,447.0,0.25,127,80.0
5610,F#2,447.0,49/100,100,80.0
5611,D3,447.25,0.0,127,80.0
5612,C4,447.25,0.25,127,80.0
5613,D3,447.25,0.25,127,80.0
5614,D3,447.5,0.0,127,80.0
5615,C4,447.5,0.5,127,80.0
5616,D3,447.5,0.5,127,80.0
5617,D2,447.5,49/100,118,80.0
5618,F#2,447.5,49/100,118,80.0
5619,D2,448.0,1.5,127,80.0
5620,D2,448.0,0.5,127,80.0
5621,D2,448.0,6/25,116,80.0
5622,F#2,448.0,49/100,116,80.0
5623,D2,448.25,6/25,116,80.0
5624,D3,448.5,0.0,127,80.0
5625,D4,448.5,0.25,127,80.0
5626,D2,448.5,0.25,127,80.0
5627,C2,448.5,6/25,110,80.0
5628,C#3,448.5,49/100,116,80.0
5629,D3,448.75,0.0,127,80.0
5630,D4,448.75,0.25,127,80.0
5631,D2,448.75,0.25,127,80.0
5632,C2,448.75,37/50,106,80.0
5633,D3,449.0,0.0,127,80.0
5634,D4,449.0,0.5,127,80.0
5635,D2,449.0,0.5,127,80.0
5636,F#2,449.0,49/100,100,80.0
5637,F#5,449.5,6/25,86,80.0
5638,D2,449.5,99/100,127,80.0
5639,F#2,449.5,49/100,108,80.0
5640,F#5,449.75,49/100,98,80.0
5641,D3,450.0,0.0,127,80.0
5642,A3,450.0,0.25,127,80.0
5643,D2,450.0,0.25,127,80.0
5644,F#2,450.0,49/100,116,80.0
5645,D3,450.25,0.0,127,80.0
5646,A3,450.25,0.25,127,80.0
5647,D2,450.25,0.25,127,80.0
5648,A5,450.25,37/50,98,80.0
5649,D3,450.5,0.0,127,80.0
5650,A3,450.5,0.5,127,80.0
5651,D2,450.5,0.5,127,80.0
5652,C2,450.5,6/25,110,80.0
5653,F#2,450.5,49/100,116,80.0
5654,C2,450.75,37/50,106,80.0
5655,D2,451.0,1.0,127,80.0
5656,D2,451.0,0.5,127,80.0
5657,F#5,451.0,49/100,92,80.0
5658,F#2,451.0,49/100,100,80.0
5659,D3,451.5,0.0,127,80.0
5660,B-3,451.5,0.25,127,80.0
5661,D2,451.5,0.25,127,80.0
5662,E5,451.5,0.5,76,80.0
5663,D2,451.5,0.5,127,80.0
5664,F#2,451.5,49/100,108,80.0
5665,D3,451.75,0.0,127,80.0
5666,B-3,451.75,0.25,127,80.0
5667,D2,451.75,0.25,127,80.0
5668,D3,452.0,0.0,127,80.0
5669,B-3,452.0,0.5,127,80.0
5670,D2,452.0,0.5,127,80.0
5671,D2,452.0,0.5,127,80.0
5672,E5,452.0,6/25,76,80.0
5673,F#2,452.0,49/100,116,80.0
5674,D2,452.0,49/100,127,80.0
5675,F#5,452.25,6/25,98,80.0
5676,E5,452.5,6/25,78,80.0
5677,C2,452.5,6/25,110,80.0
5678,F#2,452.5,49/100,116,80.0
5679,D5,452.75,49/100,115,80.0
5680,C2,452.75,37/50,106,80.0
5681,D3,453.0,0.0,127,80.0
5682,B-3,453.0,0.25,127,80.0
5683,D3,453.0,0.25,127,80.0
5684,F#2,453.0,49/100,100,80.0
5685,D3,453.25,0.0,127,80.0
5686,B-3,453.25,0.25,127,80.0
5687,D3,453.25,0.25,127,80.0
5688,E5,453.25,31/25,80,80.0
5689,D3,453.5,0.0,127,80.0
5690,B-3,453.5,0.5,127,80.0
5691,D3,453.5,0.5,127,80.0
5692,D2,453.5,99/100,127,80.0
5693,F#2,453.5,49/100,108,80.0
5694,D2,454.0,1.5,127,80.0
5695,D2,454.0,0.5,127,80.0
5696,F#2,454.0,49/100,116,80.0
5697,D3,454.5,0.0,127,80.0
5698,B3,454.5,0.25,127,80.0
5699,D2,454.5,0.25,127,80.0
5700,C2,454.5,6/25,110,80.0
5701,F#2,454.5,49/100,116,80.0
5702,D3,454.75,0.0,127,80.0
5703,B3,454.75,0.25,127,80.0
5704,D2,454.75,0.25,127,80.0
5705,C2,454.75,37/50,106,80.0
5706,D3,455.0,0.0,127,80.0
5707,B3,455.0,0.5,127,80.0
5708,D2,455.0,0.5,127,80.0
5709,B4,455.0,1.0,98,80.0
5710,F#2,455.0,49/100,100,80.0
5711,D2,455.5,0.5,127,80.0
5712,F#2,455.5,49/100,108,80.0
5713,D3,456.0,0.0,127,80.0
5714,B3,456.0,0.25,127,80.0
5715,D3,456.0,0.25,127,80.0
5716,B4,456.0,6/25,98,80.0
5717,F#2,456.0,49/100,116,80.0
5718,D2,456.0,49/100,127,80.0
5719,D3,456.25,0.0,127,80.0
5720,B3,456.25,0.25,127,80.0
5721,D3,456.25,0.25,127,80.0
5722,D5,456.25,6/25,127,80.0
5723,D3,456.5,0.0,127,80.0
5724,B3,456.5,0.5,127,80.0
5725,D3,456.5,0.25,127,80.0
5726,D5,456.5,49/100,121,80.0
5727,C2,456.5,6/25,110,80.0
5728,F#2,456.5,49/100,116,80.0
5729,D2,456.75,0.25,127,80.0
5730,C2,456.75,37/50,106,80.0
5731,D2,457.0,1.5,127,80.0
5732,D2,457.0,0.5,127,80.0
5733,B4,457.0,49/100,121,80.0
5734,F#2,457.0,49/100,100,80.0
5735,D3,457.5,0.0,127,80.0
5736,C4,457.5,0.25,127,80.0
5737,D2,457.5,0.25,127,80.0
5738,E5,457.5,49/100,98,80.0
5739,D2,457.5,99/100,127,80.0
5740,F#2,457.5,49/100,108,80.0
5741,D3,457.75,0.0,127,80.0
5742,C4,457.75,0.25,127,80.0
5743,D2,457.75,0.25,127,80.0
5744,D3,458.0,0.0,127,80.0
5745,C4,458.0,0.5,127,80.0
5746,D2,458.0,0.5,127,80.0
5747,D5,458.0,49/100,121,80.0
5748,F#2,458.0,49/100,116,80.0
5749,C2,458.5,6/25,110,80.0
5750,F#2,458.5,49/100,116,80.0
5751,A4,458.75,0.25,127,80.0
5752,C2,458.75,37/50,106,80.0
5753,D3,459.0,0.0,127,80.0
5754,C4,459.0,0.25,127,80.0
5755,D3,459.0,0.25,127,80.0
5756,G#4,459.0,0.25,127,80.0
5757,F#2,459.0,49/100,100,80.0
5758,D3,459.25,0.0,127,80.0
5759,C4,459.25,0.25,127,80.0
5760,D3,459.25,0.25,127,80.0
5761,A4,459.25,0.25,127,80.0
5762,D3,459.5,0.0,127,80.0
5763,C4,459.5,0.5,127,80.0
5764,D3,459.5,0.5,127,80.0
5765,B4,459.5,0.25,127,80.0
5766,D2,459.5,0.5,127,80.0
5767,F#2,459.5,49/100,108,80.0
5768,A4,459.75,0.25,127,80.0
5769,D2,460.0,1.5,127,80.0
5770,D2,460.0,0.5,127,80.0
5771,G#4,460.0,0.25,127,80.0
5772,F#2,460.0,49/100,116,80.0
5773,D2,460.0,49/100,127,80.0
5774,A4,460.25,0.25,127,80.0
5775,D3,460.5,0.0,127,80.0
5776,D4,460.5,0.25,127,80.0
5777,D2,460.5,0.25,127,80.0
5778,F#4,460.5,3.5,127,80.0
5779,C2,460.5,6/25,110,80.0
5780,F#2,460.5,49/100,116,80.0
5781,D3,460.75,0.0,127,80.0
5782,D4,460.75,0.25,127,80.0
5783,D2,460.75,0.25,127,80.0
5784,C2,460.75,37/50,106,80.0
5785,D3,461.0,0.0,127,80.0
5786,D4,461.0,0.5,127,80.0
5787,D2,461.0,0.5,127,80.0
5788,F#2,461.0,49/100,100,80.0
5789,F#5,461.25,6/25,74,80.0
5790,F#5,461.5,6/25,70,80.0
5791,D2,461.5,99/100,127,80.0
5792,F#2,461.5,49/100,108,80.0
5793,F#5,461.75,49/100,74,80.0
5794,D3,462.0,0.0,127,80.0
5795,A3,462.0,0.25,127,80.0
5796,D2,462.0,0.25,127,80.0
5797,F#2,462.0,49/100,116,80.0
5798,D3,462.25,0.0,127,80.0
5799,A3,462.25,0.25,127,80.0
5800,D2,462.25,0.25,127,80.0
5801,A5,462.25,37/50,98,80.0
5802,D3,462.5,0.0,127,80.0
5803,A3,462.5,0.5,127,80.0
5804,D2,462.5,0.5,127,80.0
5805,C2,462.5,6/25,110,80.0
5806,F#2,462.5,49/100,116,80.0
5807,C2,462.75,37/50,106,80.0
5808,D2,463.0,1.0,127,80.0
5809,D2,463.0,0.5,127,80.0
5810,F#5,463.0,49/100,80,80.0
5811,F#2,463.0,49/100,100,80.0
5812,D3,463.5,0.0,127,80.0
5813,B-3,463.5,0.25,127,80.0
5814,D2,463.5,0.25,127,80.0
5815,E5,463.5,49/100,78,80.0
5816,D2,463.5,0.5,127,80.0
5817,F#2,463.5,49/100,108,80.0
5818,D3,463.75,0.0,127,80.0
5819,B-3,463.75,0.25,127,80.0
5820,D2,463.75,0.25,127,80.0
5821,D3,464.0,0.0,127,80.0
5822,B-3,464.0,0.5,127,80.0
5823,D2,464.0,0.5,127,80.0
5824,D2,464.0,0.5,127,80.0
5825,F#4,464.0,0.5,127,80.0
5826,F#5,464.0,6/25,72,80.0
5827,F#2,464.0,49/100,116,80.0
5828,D2,464.0,49/100,127,80.0
5829,D5,464.25,49/100,98,80.0
5830,C2,464.5,6/25,110,80.0
5831,F#2,464.5,49/100,116,80.0
5832,D5,464.75,6/25,92,80.0
5833,C2,464.75,37/50,106,80.0
5834,D3,465.0,0.0,127,80.0
5835,B-3,465.0,0.25,127,80.0
5836,D3,465.0,0.25,127,80.0
5837,E5,465.0,49/100,80,80.0
5838,F#2,465.0,49/100,100,80.0
5839,D3,465.25,0.0,127,80.0
5840,B-3,465.25,0.25,127,80.0
5841,D3,465.25,0.25,127,80.0
5842,D3,465.5,0.0,127,80.0
5843,B-3,465.5,0.5,127,80.0
5844,D3,465.5,0.5,127,80.0
5845,D2,465.5,99/100,127,80.0
5846,F#2,465.5,49/100,108,80.0
5847,D2,466.0,1.5,127,80.0
5848,D2,466.0,0.5,127,80.0
5849,F#2,466.0,49/100,116,80.0
5850,D3,466.5,0.0,127,80.0
5851,B3,466.5,0.25,127,80.0
5852,D2,466.5,0.25,127,80.0
5853,B4,466.5,49/100,86,80.0
5854,C2,466.5,6/25,110,80.0
5855,F#2,466.5,49/100,116,80.0
5856,D3,466.75,0.0,127,80.0
5857,B3,466.75,0.25,127,80.0
5858,D2,466.75,0.25,127,80.0
5859,C2,466.75,37/50,106,80.0
5860,D3,467.0,0.0,127,80.0
5861,B3,467.0,0.5,127,80.0
5862,D2,467.0,0.5,127,80.0
5863,B4,467.0,49/100,98,80.0
5864,F#2,467.0,49/100,100,80.0
5865,D5,467.5,49/100,92,80.0
5866,D2,467.5,0.5,127,80.0
5867,F#2,467.5,49/100,108,80.0
5868,D3,468.0,0.0,127,80.0
5869,B3,468.0,0.25,127,80.0
5870,D3,468.0,0.25,127,80.0
5871,D5,468.0,49/100,98,80.0
5872,F#2,468.0,49/100,116,80.0
5873,D2,468.0,49/100,127,80.0
5874,D3,468.25,0.0,127,80.0
5875,B3,468.25,0.25,127,80.0
5876,D3,468.25,0.25,127,80.0
5877,D3,468.5,0.0,127,80.0
5878,B3,468.5,0.5,127,80.0
5879,D3,468.5,0.25,127,80.0
5880,B4,468.5,99/100,98,80.0
5881,C2,468.5,6/25,110,80.0
5882,F#2,468.5,49/100,116,80.0
5883,D2,468.75,0.25,127,80.0
5884,C2,468.75,37/50,106,80.0
5885,D2,469.0,1.5,127,80.0
5886,D2,469.0,0.5,127,80.0
5887,F#2,469.0,49/100,100,80.0
5888,D3,469.5,0.0,127,80.0
5889,C4,469.5,0.25,127,80.0
5890,D2,469.5,0.25,127,80.0
5891,E5,469.5,6/25,70,80.0
5892,D2,469.5,99/100,127,80.0
5893,F#2,469.5,49/100,108,80.0
5894,D3,469.75,0.0,127,80.0
5895,C4,469.75,0.25,127,80.0
5896,D2,469.75,0.25,127,80.0
5897,D5,469.75,37/50,121,80.0
5898,D3,470.0,0.0,127,80.0
5899,C4,470.0,0.5,127,80.0
5900,D2,470.0,0.5,127,80.0
5901,F#2,470.0,49/100,116,80.0
5902,C2,470.5,6/25,110,80.0
5903,F#2,470.5,49/100,116,80.0
5904,A4,470.75,0.25,127,80.0
5905,C2,470.75,37/50,106,80.0
5906,D3,471.0,0.0,127,80.0
5907,C4,471.0,0.25,127,80.0
5908,D3,471.0,0.25,127,80.0
5909,G#4,471.0,0.25,127,80.0
5910,F#2,471.0,49/100,100,80.0
5911,D3,471.25,0.0,127,80.0
5912,C4,471.25,0.25,127,80.0
5913,D3,471.25,0.25,127,80.0
5914,A4,471.25,0.25,127,80.0
5915,D3,471.5,0.0,127,80.0
5916,C4,471.5,0.5,127,80.0
5917,D3,471.5,0.5,127,80.0
5918,B4,471.5,0.25,127,80.0
5919,D2,471.5,0.5,127,80.0
5920,F#2,471.5,49/100,108,80.0
5921,A4,471.75,0.25,127,80.0
5922,D2,472.0,1.5,127,80.0
5923,D2,472.0,0.5,127,80.0
5924,G#4,472.0,0.25,127,80.0
5925,F#2,472.0,49/100,116,80.0
5926,D2,472.0,49/100,127,80.0
5927,A4,472.25,0.25,127,80.0
5928,D3,472.5,0.0,127,80.0
5929,D4,472.5,0.25,127,80.0
5930,D2,472.5,0.25,127,80.0
5931,F#4,472.5,3.5,127,80.0
5932,C2,472.5,6/25,110,80.0
5933,F#2,472.5,49/100,116,80.0
5934,D3,472.75,0.0,127,80.0
5935,D4,472.75,0.25,127,80.0
5936,D2,472.75,0.25,127,80.0
5937,C2,472.75,37/50,106,80.0
5938,D3,473.0,0.0,127,80.0
5939,D4,473.0,0.5,127,80.0
5940,D2,473.0,0.5,127,80.0
5941,F#4,473.0,49/100,115,80.0
5942,F#2,473.0,49/100,100,80.0
5943,F#5,473.5,49/100,121,80.0
5944,D2,473.5,99/100,127,80.0
5945,F#2,473.5,49/100,108,80.0
5946,D3,474.0,0.0,127,80.0
5947,A3,474.0,0.25,127,80.0
5948,D2,474.0,0.25,127,80.0
5949,E5,474.0,199/100,98,80.0
5950,F#2,474.0,49/100,116,80.0
5951,D3,474.25,0.0,127,80.0
5952,A3,474.25,0.25,127,80.0
5953,D2,474.25,0.25,127,80.0
5954,D3,474.5,0.0,127,80.0
5955,A3,474.5,0.5,127,80.0
5956,D2,474.5,0.5,127,80.0
5957,C2,474.5,6/25,110,80.0
5958,F#2,474.5,49/100,116,80.0
5959,C2,474.75,37/50,106,80.0
5960,D2,475.0,1.0,127,80.0
5961,D2,475.0,0.5,127,80.0
5962,F#2,475.0,49/100,100,80.0
5963,D3,475.5,0.0,127,80.0
5964,B-3,475.5,0.25,127,80.0
5965,D2,475.5,0.25,127,80.0
5966,D2,475.5,0.5,127,80.0
5967,F#2,475.5,49/100,108,80.0
5968,D3,475.75,0.0,127,80.0
5969,B-3,475.75,0.25,127,80.0
5970,D2,475.75,0.25,127,80.0
5971,D3,476.0,0.0,127,80.0
5972,B-3,476.0,0.5,127,80.0
5973,D2,476.0,0.5,127,80.0
5974,D2,476.0,0.5,127,80.0
5975,F#4,476.0,0.5,127,80.0
5976,D5,476.0,149/100,127,80.0
5977,F#2,476.0,49/100,116,80.0
5978,D2,476.0,49/100,127,80.0
5979,C2,476.5,6/25,110,80.0
5980,F#2,476.5,49/100,116,80.0
5981,C2,476.75,37/50,106,80.0
5982,D3,477.0,0.0,127,80.0
5983,B-3,477.0,0.25,127,80.0
5984,D3,477.0,0.25,127,80.0
5985,F#2,477.0,49/100,100,80.0
5986,D3,477.25,0.0,127,80.0
5987,B-3,477.25,0.25,127,80.0
5988,D3,477.25,0.25,127,80.0
5989,D3,477.5,0.0,127,80.0
5990,B-3,477.5,0.5,127,80.0
5991,D3,477.5,0.5,127,80.0
5992,D2,477.5,99/100,127,80.0
5993,F#2,477.5,49/100,108,80.0
5994,D2,478.0,1.5,127,80.0
5995,D2,478.0,0.5,127,80.0
5996,F#2,478.0,49/100,116,80.0
5997,D3,478.5,0.0,127,80.0
5998,B3,478.5,0.25,127,80.0
5999,D2,478.5,0.25,127,80.0
6000,C2,478.5,6/25,110,80.0
6001,F#2,478.5,49/100,116,80.0
6002,D3,478.75,0.0,127,80.0
6003,B3,478.75,0.25,127,80.0
6004,D2,478.75,0.25,127,80.0
6005,C2,478.75,37/50,106,80.0
6006,D3,479.0,0.0,127,80.0
6007,B3,479.0,0.5,127,80.0
6008,D2,479.0,0.5,127,80.0
6009,F#2,479.0,49/100,100,80.0
6010,D2,479.5,0.5,127,80.0
6011,F#2,479.5,49/100,108,80.0
6012,D3,480.0,0.0,127,80.0
6013,B3,480.0,0.25,127,80.0
6014,D3,480.0,0.25,127,80.0
6015,F#2,480.0,49/100,116,80.0
6016,D2,480.0,49/100,127,80.0
6017,D3,480.25,0.0,127,80.0
6018,B3,480.25,0.25,127,80.0
6019,D3,480.25,0.25,127,80.0
6020,D3,480.5,0.0,127,80.0
6021,B3,480.5,0.5,127,80.0
6022,D3,480.5,0.25,127,80.0
6023,C2,480.5,6/25,110,80.0
6024,F#2,480.5,49/100,116,80.0
6025,D2,480.75,0.25,127,80.0
6026,C2,480.75,37/50,106,80.0
6027,D2,481.0,1.5,127,80.0
6028,D2,481.0,0.5,127,80.0
6029,F#2,481.0,49/100,100,80.0
6030,D3,481.5,0.0,127,80.0
6031,C4,481.5,0.25,127,80.0
6032,D2,481.5,0.25,127,80.0
6033,D2,481.5,99/100,127,80.0
6034,F#2,481.5,49/100,108,80.0
6035,D3,481.75,0.0,127,80.0
6036,C4,481.75,0.25,127,80.0
6037,D2,481.75,0.25,127,80.0
6038,D3,482.0,0.0,127,80.0
6039,C4,482.0,0.5,127,80.0
6040,D2,482.0,0.5,127,80.0
6041,F#2,482.0,49/100,116,80.0
6042,C2,482.5,6/25,110,80.0
6043,F#2,482.5,49/100,116,80.0
6044,A4,482.75,0.25,127,80.0
6045,C2,482.75,37/50,106,80.0
6046,D3,483.0,0.0,127,80.0
6047,C4,483.0,0.25,127,80.0
6048,D3,483.0,0.25,127,80.0
6049,G#4,483.0,0.25,127,80.0
6050,F#2,483.0,49/100,100,80.0
6051,D3,483.25,0.0,127,80.0
6052,C4,483.25,0.25,127,80.0
6053,D3,483.25,0.25,127,80.0
6054,A4,483.25,0.25,127,80.0
6055,D3,483.5,0.0,127,80.0
6056,C4,483.5,0.5,127,80.0
6057,D3,483.5,0.5,127,80.0
6058,B4,483.5,0.25,127,80.0
6059,D2,483.5,49/100,118,80.0
6060,F#2,483.5,49/100,118,80.0
6061,A4,483.75,0.25,127,80.0
6062,D2,484.0,1.5,127,80.0
6063,D2,484.0,0.5,127,80.0
6064,G#4,484.0,0.25,127,80.0
6065,D2,484.0,6/25,116,80.0
6066,F#2,484.0,49/100,116,80.0
6067,A4,484.25,0.25,127,80.0
6068,D2,484.25,6/25,116,80.0
6069,D3,484.5,0.0,127,80.0
6070,D4,484.5,0.25,127,80.0
6071,D2,484.5,0.25,127,80.0
6072,F#4,484.5,3.5,127,80.0
6073,C2,484.5,6/25,110,80.0
6074,C#3,484.5,49/100,116,80.0
6075,D3,484.75,0.0,127,80.0
6076,D4,484.75,0.25,127,80.0
6077,D2,484.75,0.25,127,80.0
6078,C2,484.75,37/50,106,80.0
6079,D3,485.0,0.0,127,80.0
6080,D4,485.0,0.5,127,80.0
6081,D2,485.0,0.5,127,80.0
6082,F#4,485.0,49/100,109,80.0
6083,F#2,485.0,49/100,100,80.0
6084,F#5,485.5,49/100,121,80.0
6085,D2,485.5,99/100,127,80.0
6086,F#2,485.5,49/100,108,80.0
6087,D3,486.0,0.0,127,80.0
6088,A3,486.0,0.25,127,80.0
6089,D2,486.0,0.25,127,80.0
6090,E5,486.0,87/50,78,80.0
6091,F#2,486.0,49/100,116,80.0
6092,D3,486.25,0.0,127,80.0
6093,A3,486.25,0.25,127,80.0
6094,D2,486.25,0.25,127,80.0
6095,D3,486.5,0.0,127,80.0
6096,A3,486.5,0.5,127,80.0
6097,D2,486.5,0.5,127,80.0
6098,C2,486.5,6/25,110,80.0
6099,F#2,486.5,49/100,116,80.0
6100,C2,486.75,37/50,106,80.0
6101,D2,487.0,1.0,127,80.0
6102,D2,487.0,0.5,127,80.0
6103,F#2,487.0,49/100,100,80.0
6104,D3,487.5,0.0,127,80.0
6105,B-3,487.5,0.25,127,80.0
6106,D2,487.5,0.25,127,80.0
6107,D2,487.5,0.5,127,80.0
6108,F#2,487.5,49/100,108,80.0
6109,D3,487.75,0.0,127,80.0
6110,B-3,487.75,0.25,127,80.0
6111,D2,487.75,0.25,127,80.0
6112,F#5,487.75,0.25,104,80.0
6113,D3,488.0,0.0,127,80.0
6114,B-3,488.0,0.5,127,80.0
6115,D2,488.0,0.5,127,80.0
6116,D2,488.0,0.5,127,80.0
6117,F#4,488.0,0.5,127,80.0
6118,F#5,488.0,49/100,104,80.0
6119,F#2,488.0,49/100,116,80.0
6120,D2,488.0,49/100,127,80.0
6121,D5,488.5,199/100,109,80.0
6122,C2,488.5,6/25,110,80.0
6123,F#2,488.5,49/100,116,80.0
6124,C2,488.75,37/50,106,80.0
6125,D3,489.0,0.0,127,80.0
6126,B-3,489.0,0.25,127,80.0
6127,D3,489.0,0.25,127,80.0
6128,F#2,489.0,49/100,100,80.0
6129,D3,489.25,0.0,127,80.0
6130,B-3,489.25,0.25,127,80.0
6131,D3,489.25,0.25,127,80.0
6132,D3,489.5,0.0,127,80.0
6133,B-3,489.5,0.5,127,80.0
6134,D3,489.5,0.5,127,80.0
6135,D2,489.5,99/100,127,80.0
6136,F#2,489.5,49/100,108,80.0
6137,D2,490.0,1.5,127,80.0
6138,D2,490.0,0.5,127,80.0
6139,F#2,490.0,49/100,116,80.0
6140,D3,490.5,0.0,127,80.0
6141,B3,490.5,0.25,127,80.0
6142,D2,490.5,0.25,127,80.0
6143,C2,490.5,6/25,110,80.0
6144,F#2,490.5,49/100,116,80.0
6145,D3,490.75,0.0,127,80.0
6146,B3,490.75,0.25,127,80.0
6147,D2,490.75,0.25,127,80.0
6148,C2,490.75,37/50,106,80.0
6149,D3,491.0,0.0,127,80.0
6150,B3,491.0,0.5,127,80.0
6151,D2,491.0,0.5,127,80.0
6152,F#2,491.0,49/100,100,80.0
6153,D2,491.5,0.5,127,80.0
6154,F#2,491.5,49/100,108,80.0
6155,D3,492.0,0.0,127,80.0
6156,B3,492.0,0.25,127,80.0
6157,D3,492.0,0.25,127,80.0
6158,F#2,492.0,49/100,116,80.0
6159,D2,492.0,49/100,127,80.0
6160,D3,492.25,0.0,127,80.0
6161,B3,492.25,0.25,127,80.0
6162,D3,492.25,0.25,127,80.0
6163,D3,492.5,0.0,127,80.0
6164,B3,492.5,0.5,127,80.0
6165,D3,492.5,0.25,127,80.0
6166,C2,492.5,6/25,110,80.0
6167,F#2,492.5,49/100,116,80.0
6168,D2,492.75,0.25,127,80.0
6169,C2,492.75,37/50,106,80.0
6170,D2,493.0,1.5,127,80.0
6171,D2,493.0,0.5,127,80.0
6172,F#2,493.0,49/100,100,80.0
6173,D3,493.5,0.0,127,80.0
6174,C4,493.5,0.25,127,80.0
6175,D2,493.5,0.25,127,80.0
6176,D2,493.5,99/100,127,80.0
6177,F#2,493.5,49/100,108,80.0
6178,D3,493.75,0.0,127,80.0
6179,C4,493.75,0.25,127,80.0
6180,D2,493.75,0.25,127,80.0
6181,D3,494.0,0.0,127,80.0
6182,C4,494.0,0.5,127,80.0
6183,D2,494.0,0.5,127,80.0
6184,F#2,494.0,49/100,116,80.0
6185,C2,494.5,6/25,110,80.0
6186,F#2,494.5,49/100,116,80.0
6187,C2,494.75,37/50,106,80.0
6188,D3,495.0,0.0,127,80.0
6189,C4,495.0,0.25,127,80.0
6190,D3,495.0,0.25,127,80.0
6191,F#2,495.0,49/100,100,80.0
6192,D3,495.25,0.0,127,80.0
6193,C4,495.25,0.25,127,80.0
6194,D3,495.25,0.25,127,80.0
6195,D3,495.5,0.0,127,80.0
6196,C4,495.5,0.5,127,80.0
6197,D3,495.5,0.5,127,80.0
6198,D2,495.5,0.5,127,80.0
6199,F#2,495.5,49/100,108,80.0
6200,D2,496.0,0.5,127,80.0
6201,D2,496.0,1.5,60,80.0
6202,F#2,496.0,49/100,116,80.0
6203,D2,496.0,49/100,127,80.0
6204,D3,496.5,0.0,60,80.0
6205,D2,496.5,0.25,127,80.0
6206,D4,496.5,0.25,60,80.0
6207,C2,496.5,6/25,110,80.0
6208,F#2,496.5,49/100,116,80.0
6209,D4,496.5,0.75,127,80.0
6210,G4,496.5,0.75,127,80.0
6211,A3,496.5,0.75,127,80.0
6212,D5,496.5,0.75,127,80.0
6213,D3,496.75,0.0,60,80.0
6214,E3,496.75,0.25,127,80.0
6215,D4,496.75,0.25,60,80.0
6216,C2,496.75,37/50,106,80.0
6217,D3,497.0,0.0,60,80.0
6218,D3,497.0,1.0,127,80.0
6219,D4,497.0,0.5,60,80.0
6220,F#2,497.0,49/100,100,80.0
6221,D4,497.25,0.75,127,80.0
6222,F#4,497.25,0.75,127,80.0
6223,A3,497.25,0.75,127,80.0
6224,D5,497.25,0.75,127,80.0
6225,D2,497.5,99/100,127,80.0
6226,F#2,497.5,49/100,108,80.0
6227,D3,498.0,0.0,60,80.0
6228,D3,498.0,0.25,127,80.0
6229,A3,498.0,0.25,60,80.0
6230,F#2,498.0,49/100,116,80.0
6231,C4,498.0,0.75,127,80.0
6232,F4,498.0,0.75,127,80.0
6233,A3,498.0,0.75,127,80.0
6234,C5,498.0,0.75,127,80.0
6235,D3,498.25,0.0,60,80.0
6236,D3,498.25,0.25,127,80.0
6237,A3,498.25,0.25,60,80.0
6238,D3,498.5,0.0,60,80.0
6239,D3,498.5,0.25,127,80.0
6240,A3,498.5,0.5,60,80.0
6241,C2,498.5,6/25,110,80.0
6242,F#2,498.5,49/100,116,80.0
6243,A2,498.75,0.25,127,80.0
6244,C2,498.75,37/50,106,80.0
6245,C4,498.75,0.75,127,80.0
6246,E4,498.75,0.75,127,80.0
6247,A3,498.75,0.75,127,80.0
6248,C5,498.75,0.75,127,80.0
6249,D2,499.0,0.75,127,80.0
6250,D2,499.0,1.0,60,80.0
6251,F#2,499.0,49/100,100,80.0
6252,A3,499.5,0.0,127,80.0
6253,D3,499.5,0.0,60,80.0
6254,B-3,499.5,0.25,60,80.0
6255,D2,499.5,0.5,127,80.0
6256,F#2,499.5,49/100,108,80.0
6257,D4,499.5,0.5,127,80.0
6258,A4,499.5,0.5,127,80.0
6259,D3,499.75,0.0,60,80.0
6260,A2,499.75,0.25,127,80.0
6261,B-3,499.75,0.25,60,80.0
6262,A3,500.0,0.0,127,80.0
6263,D3,500.0,0.0,60,80.0
6264,D3,500.0,0.25,127,80.0
6265,B-3,500.0,0.5,60,80.0
6266,D2,500.0,0.5,60,80.0
6267,F#2,500.0,49/100,116,80.0
6268,D2,500.0,49/100,127,80.0
6269,C#4,500.0,0.5,127,80.0
6270,A4,500.0,0.5,127,80.0
6271,C2,500.5,6/25,110,80.0
6272,F#2,500.5,49/100,116,80.0
6273,G3,500.5,0.75,127,80.0
6274,C4,500.5,0.75,127,80.0
6275,A3,500.5,0.75,127,80.0
6276,G4,500.5,0.75,127,80.0
6277,C2,500.75,37/50,106,80.0
6278,D3,501.0,0.0,60,80.0
6279,D3,501.0,0.25,127,80.0
6280,B-3,501.0,0.25,60,80.0
6281,F#2,501.0,49/100,100,80.0
6282,D3,501.25,0.0,60,80.0
6283,D3,501.25,0.25,127,80.0
6284,B-3,501.25,0.25,60,80.0
6285,G3,501.25,0.75,127,80.0
6286,B3,501.25,0.75,127,80.0
6287,A3,501.25,0.75,127,80.0
6288,G4,501.25,0.75,127,80.0
6289,D3,501.5,0.0,60,80.0
6290,D3,501.5,0.5,127,80.0
6291,B-3,501.5,0.5,60,80.0
6292,D2,501.5,99/100,127,80.0
6293,F#2,501.5,49/100,108,80.0
6294,D2,502.0,0.75,127,80.0
6295,D2,502.0,1.5,60,80.0
6296,F#2,502.0,49/100,116,80.0
6297,F3,502.0,0.75,127,80.0
6298,B-3,502.0,0.75,127,80.0
6299,A3,502.0,0.75,127,80.0
6300,F4,502.0,0.75,127,80.0
6301,D3,502.5,0.0,60,80.0
6302,B3,502.5,0.25,60,80.0
6303,C2,502.5,6/25,110,80.0
6304,F#2,502.5,49/100,116,80.0
6305,A3,502.75,0.0,127,80.0
6306,D3,502.75,0.0,60,80.0
6307,D2,502.75,0.75,127,80.0
6308,B3,502.75,0.25,60,80.0
6309,C2,502.75,37/50,106,80.0
6310,F3,502.75,0.75,127,80.0
6311,F4,502.75,0.75,127,80.0
6312,D3,503.0,0.0,60,80.0
6313,B3,503.0,0.5,60,80.0
6314,F#2,503.0,49/100,100,80.0
6315,F3,503.5,0.25,127,80.0
6316,D2,503.5,0.5,127,80.0
6317,F#2,503.5,49/100,108,80.0
6318,E3,503.75,0.25,127,80.0
6319,D3,504.0,0.0,60,80.0
6320,D3,504.0,0.5,127,80.0
6321,D3,504.0,0.25,127,80.0
6322,B3,504.0,0.25,60,80.0
6323,F#2,504.0,49/100,116,80.0
6324,D2,504.0,49/100,127,80.0
6325,D3,504.25,0.0,60,80.0
6326,D3,504.25,0.25,127,80.0
6327,B3,504.25,0.25,60,80.0
6328,D3,504.5,0.0,60,80.0
6329,D3,504.5,0.25,127,80.0
6330,B3,504.5,0.5,60,80.0
6331,C2,504.5,6/25,110,80.0
6332,F#2,504.5,49/100,116,80.0
6333,D4,504.5,0.75,127,80.0
6334,G4,504.5,0.75,127,80.0
6335,A3,504.5,0.75,127,80.0
6336,D5,504.5,0.75,127,80.0
6337,D2,504.75,0.25,127,80.0
6338,C2,504.75,37/50,106,80.0
6339,D2,505.0,0.75,127,80.0
6340,D2,505.0,1.5,60,80.0
6341,F#2,505.0,49/100,100,80.0
6342,D4,505.25,0.75,127,80.0
6343,F#4,505.25,0.75,127,80.0
6344,A3,505.25,0.75,127,80.0
6345,D5,505.25,0.75,127,80.0
6346,D3,505.5,0.0,60,80.0
6347,C4,505.5,0.25,60,80.0
6348,D2,505.5,99/100,127,80.0
6349,F#2,505.5,49/100,108,80.0
6350,D3,505.75,0.0,60,80.0
6351,D2,505.75,1.25,127,80.0
6352,C4,505.75,0.25,60,80.0
6353,D3,506.0,0.0,60,80.0
6354,C4,506.0,0.5,60,80.0
6355,F#2,506.0,49/100,116,80.0
6356,C4,506.0,0.75,127,80.0
6357,F4,506.0,0.75,127,80.0
6358,A3,506.0,0.75,127,80.0
6359,C5,506.0,0.75,127,80.0
6360,C2,506.5,6/25,110,80.0
6361,F#2,506.5,49/100,116,80.0
6362,C2,506.75,37/50,106,80.0
6363,C4,506.75,0.75,127,80.0
6364,E4,506.75,0.75,127,80.0
6365,A3,506.75,0.75,127,80.0
6366,C5,506.75,0.75,127,80.0
6367,D3,507.0,0.0,60,80.0
6368,D3,507.0,0.25,127,80.0
6369,C4,507.0,0.25,60,80.0
6370,F#2,507.0,49/100,100,80.0
6371,D3,507.25,0.0,60,80.0
6372,D3,507.25,0.25,127,80.0
6373,C4,507.25,0.25,60,80.0
6374,A3,507.5,0.0,127,80.0
6375,D3,507.5,0.0,60,80.0
6376,D3,507.5,0.5,127,80.0
6377,C4,507.5,0.5,60,80.0
6378,D2,507.5,0.5,127,80.0
6379,F#2,507.5,49/100,108,80.0
6380,D4,507.5,0.5,127,80.0
6381,A4,507.5,0.5,127,80.0
6382,A3,508.0,0.0,127,80.0
6383,D2,508.0,0.5,127,80.0
6384,D2,508.0,1.5,60,80.0
6385,F#2,508.0,49/100,116,80.0
6386,D2,508.0,49/100,127,80.0
6387,C#4,508.0,0.5,127,80.0
6388,A4,508.0,0.5,127,80.0
6389,D3,508.5,0.0,60,80.0
6390,D2,508.5,0.25,127,80.0
6391,D4,508.5,0.25,60,80.0
6392,C2,508.5,6/25,110,80.0
6393,C#3,508.5,49/100,116,80.0
6394,G3,508.5,0.75,127,80.0
6395,C4,508.5,0.75,127,80.0
6396,A3,508.5,0.75,127,80.0
6397,G4,508.5,0.75,127,80.0
6398,D3,508.75,0.0,60,80.0
6399,D2,508.75,0.25,127,80.0
6400,D4,508.75,0.25,60,80.0
6401,C2,508.75,37/50,106,80.0
6402,D3,509.0,0.0,60,80.0
6403,D2,509.0,0.5,127,80.0
6404,D4,509.0,0.5,60,80.0
6405,F#2,509.0,49/100,100,80.0
6406,G3,509.25,0.75,127,80.0
6407,B3,509.25,0.75,127,80.0
6408,A3,509.25,0.75,127,80.0
6409,G4,509.25,0.75,127,80.0
6410,D2,509.5,99/100,127,80.0
6411,F#2,509.5,49/100,108,80.0
6412,D3,510.0,0.0,60,80.0
6413,D3,510.0,0.25,127,80.0
6414,A3,510.0,0.25,60,80.0
6415,F#2,510.0,49/100,116,80.0
6416,F3,510.0,0.75,127,80.0
6417,B-3,510.0,0.75,127,80.0
6418,A3,510.0,0.75,127,80.0
6419,F4,510.0,0.75,127,80.0
6420,D3,510.25,0.0,60,80.0
6421,D3,510.25,0.25,127,80.0
6422,A3,510.25,0.25,60,80.0
6423,D3,510.5,0.0,60,80.0
6424,D3,510.5,0.25,127,80.0
6425,A3,510.5,0.5,60,80.0
6426,C2,510.5,6/25,110,80.0
6427,F#2,510.5,49/100,116,80.0
6428,A3,510.75,0.0,127,80.0
6429,D2,510.75,0.25,127,80.0
6430,C2,510.75,37/50,106,80.0
6431,F3,510.75,0.75,127,80.0
6432,F4,510.75,0.75,127,80.0
6433,D2,511.0,1.0,127,80.0
6434,D2,511.0,1.0,60,80.0
6435,F#2,511.0,49/100,100,80.0
6436,D3,511.5,0.0,60,80.0
6437,F3,511.5,0.25,127,80.0
6438,B-3,511.5,0.25,60,80.0
6439,D2,511.5,0.5,127,80.0
6440,F#2,511.5,49/100,108,80.0
6441,D3,511.75,0.0,60,80.0
6442,E3,511.75,0.25,127,80.0
6443,B-3,511.75,0.25,60,80.0
6444,D3,512.0,0.0,60,80.0
6445,D3,512.0,0.5,127,80.0
6446,D2,512.0,0.5,127,80.0
6447,B-3,512.0,0.5,60,80.0
6448,D2,512.0,0.5,60,80.0
6449,F#2,512.0,49/100,116,80.0
6450,D2,512.0,49/100,127,80.0
6451,C2,512.5,6/25,110,80.0
6452,F#2,512.5,49/100,116,80.0
6453,C2,512.75,37/50,106,80.0
6454,D3,513.0,0.0,127,80.0
6455,B-3,513.0,0.25,127,80.0
6456,D3,513.0,0.25,127,80.0
6457,F#2,513.0,49/100,100,80.0
6458,D3,513.25,0.0,127,80.0
6459,B-3,513.25,0.25,127,80.0
6460,D3,513.25,0.25,127,80.0
6461,D3,513.5,0.0,127,80.0
6462,B-3,513.5,0.5,127,80.0
6463,D3,513.5,0.5,127,80.0
6464,D2,513.5,99/100,127,80.0
6465,F#2,513.5,49/100,108,80.0
6466,D2,514.0,1.5,127,80.0
6467,D2,514.0,0.5,127,80.0
6468,D5,514.0,49/100,121,80.0
6469,F#2,514.0,49/100,116,80.0
6470,D3,514.5,0.0,127,80.0
6471,B3,514.5,0.25,127,80.0
6472,D2,514.5,0.25,127,80.0
6473,D5,514.5,1.5,121,80.0
6474,C2,514.5,6/25,110,80.0
6475,F#2,514.5,49/100,116,80.0
6476,D3,514.75,0.0,127,80.0
6477,B3,514.75,0.25,127,80.0
6478,D2,514.75,0.25,127,80.0
6479,C2,514.75,37/50,106,80.0
6480,D3,515.0,0.0,127,80.0
6481,B3,515.0,0.5,127,80.0
6482,D2,515.0,0.5,127,80.0
6483,F#2,515.0,49/100,100,80.0
6484,D2,515.5,0.5,127,80.0
6485,F#2,515.5,49/100,108,80.0
6486,D3,516.0,0.0,127,80.0
6487,B3,516.0,0.25,127,80.0
6488,D3,516.0,0.25,127,80.0
6489,D5,516.0,49/100,121,80.0
6490,F#2,516.0,49/100,116,80.0
6491,D2,516.0,49/100,127,80.0
6492,D3,516.25,0.0,127,80.0
6493,B3,516.25,0.25,127,80.0
6494,D3,516.25,0.25,127,80.0
6495,D3,516.5,0.0,127,80.0
6496,B3,516.5,0.5,127,80.0
6497,D3,516.5,0.5,127,80.0
6498,D5,516.5,3.5,121,80.0
6499,C2,516.5,6/25,110,80.0
6500,F#2,516.5,49/100,116,80.0
6501,C2,516.75,37/50,106,80.0
6502,D2,517.0,1.5,127,80.0
6503,D2,517.0,0.5,127,80.0
6504,F#2,517.0,49/100,100,80.0
6505,D3,517.5,0.0,127,80.0
6506,C4,517.5,0.25,127,80.0
6507,D2,517.5,0.25,127,80.0
6508,D2,517.5,99/100,127,80.0
6509,F#2,517.5,49/100,108,80.0
6510,D3,517.75,0.0,127,80.0
6511,C4,517.75,0.25,127,80.0
6512,D2,517.75,0.25,127,80.0
6513,D3,518.0,0.0,127,80.0
6514,C4,518.0,0.5,127,80.0
6515,D2,518.0,0.5,127,80.0
6516,F#2,518.0,49/100,116,80.0
6517,C2,518.5,6/25,110,80.0
6518,F#2,518.5,49/100,116,80.0
6519,C2,518.75,37/50,106,80.0
6520,D3,519.0,0.0,127,80.0
6521,C4,519.0,0.25,127,80.0
6522,D3,519.0,0.25,127,80.0
6523,F#2,519.0,49/100,100,80.0
6524,D3,519.25,0.0,127,80.0
6525,C4,519.25,0.25,127,80.0
6526,D3,519.25,0.25,127,80.0
6527,D3,519.5,0.0,127,80.0
6528,C4,519.5,0.5,127,80.0
6529,D3,519.5,0.5,127,80.0
6530,D2,519.5,0.5,127,80.0
6531,F#2,519.5,49/100,108,80.0
6532,D2,520.0,0.5,127,80.0
6533,D5,520.0,49/100,121,80.0
6534,F#2,520.0,49/100,116,80.0
6535,D2,520.0,49/100,127,80.0
6536,E3,520.5,0.75,127,80.0
6537,D5,520.5,3.5,74,80.0
6538,C2,520.5,6/25,127,80.0
6539,C#3,520.5,99/100,127,80.0
6540,D4,520.5,0.75,127,80.0
6541,G4,520.5,0.75,127,80.0
6542,A3,520.5,0.75,127,80.0
6543,D5,520.5,0.75,127,80.0
6544,D4,520.5,0.75,127,80.0
6545,G4,520.5,0.75,127,80.0
6546,A3,520.5,0.75,127,80.0
6547,D5,520.5,0.75,127,80.0
6548,C2,520.75,37/50,127,80.0
6549,D3,521.25,0.75,127,80.0
6550,D4,521.25,0.75,127,80.0
6551,F#4,521.25,0.75,127,80.0
6552,A3,521.25,0.75,127,80.0
6553,D5,521.25,0.75,127,80.0
6554,D4,521.25,0.75,127,80.0
6555,F#4,521.25,0.75,127,80.0
6556,A3,521.25,0.75,127,80.0
6557,D5,521.25,0.75,127,80.0
6558,D2,521.5,99/100,127,80.0
6559,F#2,521.5,49/100,110,80.0
6560,C3,522.0,0.75,127,80.0
6561,F#2,522.0,49/100,127,80.0
6562,C4,522.0,0.75,127,80.0
6563,F4,522.0,0.75,127,80.0
6564,A3,522.0,0.75,127,80.0
6565,C5,522.0,0.75,127,80.0
6566,C4,522.0,0.75,127,80.0
6567,F4,522.0,0.75,127,80.0
6568,A3,522.0,0.75,127,80.0
6569,C5,522.0,0.75,127,80.0
6570,C2,522.5,6/25,127,80.0
6571,F#2,522.5,49/100,127,80.0
6572,A2,522.75,0.75,127,80.0
6573,C2,522.75,37/50,127,80.0
6574,C4,522.75,0.75,127,80.0
6575,E4,522.75,0.75,127,80.0
6576,A3,522.75,0.75,127,80.0
6577,C5,522.75,0.75,127,80.0
6578,C4,522.75,0.75,127,80.0
6579,E4,522.75,0.75,127,80.0
6580,A3,522.75,0.75,127,80.0
6581,C5,522.75,0.75,127,80.0
6582,F#2,523.0,49/100,106,80.0
6583,A3,523.5,0.0,127,80.0
6584,A3,523.5,0.0,127,80.0
6585,D2,523.5,0.5,127,80.0
6586,D2,523.5,0.5,127,80.0
6587,F#2,523.5,49/100,110,80.0
6588,D4,523.5,0.5,127,80.0
6589,A4,523.5,0.5,127,80.0
6590,D4,523.5,0.5,127,80.0
6591,A4,523.5,0.5,127,80.0
6592,A3,524.0,0.0,127,80.0
6593,A3,524.0,0.0,127,80.0
6594,A2,524.0,0.5,127,80.0
6595,D5,524.0,49/100,74,80.0
6596,F#2,524.0,49/100,127,80.0
6597,D2,524.0,49/100,127,80.0
6598,C#4,524.0,0.5,127,80.0
6599,A4,524.0,0.5,127,80.0
6600,C#4,524.0,0.5,127,80.0
6601,A4,524.0,0.5,127,80.0
6602,G2,524.5,0.75,127,80.0
6603,D5,524.5,3.5,86,80.0
6604,C2,524.5,6/25,127,80.0
6605,F#2,524.5,49/100,127,80.0
6606,G3,524.5,0.75,127,80.0
6607,C4,524.5,0.75,127,80.0
6608,A3,524.5,0.75,127,80.0
6609,G4,524.5,0.75,127,80.0
6610,G3,524.5,0.75,127,80.0
6611,C4,524.5,0.75,127,80.0
6612,A3,524.5,0.75,127,80.0
6613,G4,524.5,0.75,127,80.0
6614,C2,524.75,37/50,127,80.0
6615,F#2,525.0,49/100,110,80.0
6616,G2,525.25,0.75,127,80.0
6617,G3,525.25,0.75,127,80.0
6618,B3,525.25,0.75,127,80.0
6619,A3,525.25,0.75,127,80.0
6620,G4,525.25,0.75,127,80.0
6621,G3,525.25,0.75,127,80.0
6622,B3,525.25,0.75,127,80.0
6623,A3,525.25,0.75,127,80.0
6624,G4,525.25,0.75,127,80.0
6625,D2,525.5,99/100,127,80.0
6626,F#2,525.5,49/100,127,80.0
6627,F2,526.0,0.75,127,80.0
6628,F#2,526.0,49/100,127,80.0
6629,F3,526.0,0.75,127,80.0
6630,B-3,526.0,0.75,127,80.0
6631,A3,526.0,0.75,127,80.0
6632,F4,526.0,0.75,127,80.0
6633,F3,526.0,0.75,127,80.0
6634,B-3,526.0,0.75,127,80.0
6635,A3,526.0,0.75,127,80.0
6636,F4,526.0,0.75,127,80.0
6637,C2,526.5,6/25,127,80.0
6638,F#2,526.5,49/100,127,80.0
6639,A3,526.75,0.0,127,80.0
6640,A3,526.75,0.0,127,80.0
6641,F2,526.75,0.75,127,80.0
6642,C2,526.75,37/50,127,80.0
6643,F3,526.75,0.75,127,80.0
6644,F4,526.75,0.75,127,80.0
6645,F3,526.75,0.75,127,80.0
6646,F4,526.75,0.75,127,80.0
6647,F#2,527.0,49/100,127,80.0
6648,F3,527.5,0.25,127,80.0
6649,F2,527.5,0.25,127,80.0
6650,F3,527.5,0.25,127,80.0
6651,D2,527.5,0.5,127,80.0
6652,F#2,527.5,49/100,122,80.0
6653,E3,527.75,0.25,127,80.0
6654,E2,527.75,0.25,127,80.0
6655,E3,527.75,0.25,127,80.0
6656,D3,528.0,0.5,127,80.0
6657,D2,528.0,0.5,127,80.0
6658,D3,528.0,0.5,127,80.0
6659,D5,528.0,49/100,86,80.0
6660,F#2,528.0,49/100,127,80.0
6661,D2,528.0,49/100,127,80.0
6662,E3,528.5,0.75,127,80.0
6663,C2,528.5,6/25,127,80.0
6664,C#3,528.5,49/100,116,80.0
6665,D4,528.5,0.75,127,80.0
6666,G4,528.5,0.75,127,80.0
6667,A3,528.5,0.75,127,80.0
6668,D5,528.5,0.75,127,80.0
6669,D4,528.5,0.75,127,80.0
6670,G4,528.5,0.75,127,80.0
6671,A3,528.5,0.75,127,80.0
6672,D5,528.5,0.75,127,80.0
6673,C2,528.75,37/50,127,80.0
6674,F#2,529.0,49/100,127,80.0
6675,D3,529.25,0.75,127,80.0
6676,D4,529.25,0.75,127,80.0
6677,F#4,529.25,0.75,127,80.0
6678,A3,529.25,0.75,127,80.0
6679,D5,529.25,0.75,127,80.0
6680,D4,529.25,0.75,127,80.0
6681,F#4,529.25,0.75,127,80.0
6682,A3,529.25,0.75,127,80.0
6683,D5,529.25,0.75,127,80.0
6684,D2,529.5,99/100,127,80.0
6685,F#2,529.5,49/100,116,80.0
6686,C3,530.0,0.75,127,80.0
6687,F#2,530.0,49/100,127,80.0
6688,C4,530.0,0.75,127,80.0
6689,F4,530.0,0.75,127,80.0
6690,A3,530.0,0.75,127,80.0
6691,C5,530.0,0.75,127,80.0
6692,C4,530.0,0.75,127,80.0
6693,F4,530.0,0.75,127,80.0
6694,A3,530.0,0.75,127,80.0
6695,C5,530.0,0.75,127,80.0
6696,C2,530.5,6/25,127,80.0
6697,F#2,530.5,49/100,127,80.0
6698,A2,530.75,0.75,127,80.0
6699,C2,530.75,37/50,127,80.0
6700,C4,530.75,0.75,127,80.0
6701,E4,530.75,0.75,127,80.0
6702,A3,530.75,0.75,127,80.0
6703,C5,530.75,0.75,127,80.0
6704,C4,530.75,0.75,127,80.0
6705,E4,530.75,0.75,127,80.0
6706,A3,530.75,0.75,127,80.0
6707,C5,530.75,0.75,127,80.0
6708,F#2,531.0,49/100,127,80.0
6709,A3,531.5,0.0,127,80.0
6710,A3,531.5,0.0,127,80.0
6711,D2,531.5,0.5,127,80.0
6712,D2,531.5,0.5,127,80.0
6713,F#2,531.5,49/100,127,80.0
6714,D4,531.5,0.5,127,80.0
6715,A4,531.5,0.5,127,80.0
6716,D4,531.5,0.5,127,80.0
6717,A4,531.5,0.5,127,80.0
6718,A3,532.0,0.0,127,80.0
6719,A3,532.0,0.0,127,80.0
6720,A2,532.0,0.5,127,80.0
6721,F#2,532.0,49/100,127,80.0
6722,D2,532.0,49/100,127,80.0
6723,C#4,532.0,0.5,127,80.0
6724,A4,532.0,0.5,127,80.0
6725,C#4,532.0,0.5,127,80.0
6726,A4,532.0,0.5,127,80.0
6727,G2,532.5,0.75,127,80.0
6728,C2,532.5,6/25,127,80.0
6729,F#2,532.5,49/100,127,80.0
6730,G3,532.5,0.75,127,80.0
6731,C4,532.5,0.75,127,80.0
6732,A3,532.5,0.75,127,80.0
6733,G4,532.5,0.75,127,80.0
6734,G3,532.5,0.75,127,80.0
6735,C4,532.5,0.75,127,80.0
6736,A3,532.5,0.75,127,80.0
6737,G4,532.5,0.75,127,80.0
6738,C2,532.75,37/50,127,80.0
6739,F#2,533.0,49/100,127,80.0
6740,G2,533.25,0.75,127,80.0
6741,G3,533.25,0.75,127,80.0
6742,B3,533.25,0.75,127,80.0
6743,A3,533.25,0.75,127,80.0
6744,G4,533.25,0.75,127,80.0
6745,G3,533.25,0.75,127,80.0
6746,B3,533.25,0.75,127,80.0
6747,A3,533.25,0.75,127,80.0
6748,G4,533.25,0.75,127,80.0
6749,D2,533.5,99/100,127,80.0
6750,F#2,533.5,49/100,127,80.0
6751,F2,534.0,0.75,127,80.0
6752,F#2,534.0,49/100,127,80.0
6753,F3,534.0,0.75,127,80.0
6754,B-3,534.0,0.75,127,80.0
6755,A3,534.0,0.75,127,80.0
6756,F4,534.0,0.75,127,80.0
6757,F3,534.0,0.75,127,80.0
6758,B-3,534.0,0.75,127,80.0
6759,A3,534.0,0.75,127,80.0
6760,F4,534.0,0.75,127,80.0
6761,C2,534.5,49/100,127,80.0
6762,F#2,534.5,99/100,127,80.0
6763,A3,534.75,0.0,127,80.0
6764,A3,534.75,0.0,127,80.0
6765,F2,534.75,0.75,127,80.0
6766,F3,534.75,0.75,127,80.0
6767,F4,534.75,0.75,127,80.0
6768,F3,534.75,0.75,127,80.0
6769,F4,534.75,0.75,127,80.0
6770,D2,535.0,6/25,122,80.0
6771,D2,535.25,6/25,127,80.0
6772,F3,535.5,0.25,127,80.0
6773,F2,535.5,0.25,127,80.0
6774,F3,535.5,0.25,127,80.0
6775,D2,535.5,49/100,127,80.0
6776,E3,535.75,0.25,127,80.0
6777,E2,535.75,0.25,127,80.0
6778,E3,535.75,0.25,127,80.0
6779,D3,536.0,0.5,127,80.0
6780,D2,536.0,0.5,127,80.0
6781,D3,536.0,0.5,127,80.0
6782,C2,536.0,49/100,127,80.0
6783,C#3,536.0,49/100,127,80.0
6784,D4,536.5,0.0,127,80.0
6785,G1,536.5,1.0,127,80.0
6786,A2,536.5,3.5,127,80.0
6787,A3,536.5,3.5,127,80.0
6788,C2,536.5,49/100,127,80.0
6789,C#3,536.5,99/100,127,80.0
6790,G2,536.5,1.0,127,80.0
6791,D3,536.5,1.0,127,80.0
6792,G3,536.5,1.0,127,80.0
6793,G4,536.5,1.0,127,80.0
6794,C2,537.0,49/100,127,80.0
6795,D4,537.5,0.0,127,80.0
6796,G1,537.5,1.0,127,80.0
6797,D2,537.5,99/100,127,80.0
6798,F#2,537.5,49/100,110,80.0
6799,G2,537.5,0.75,127,80.0
6800,D3,537.5,0.75,127,80.0
6801,G3,537.5,0.75,127,80.0
6802,G4,537.5,0.75,127,80.0
6803,F#2,538.0,49/100,127,80.0
6804,D4,538.25,0.0,127,80.0
6805,G2,538.25,0.25,127,80.0
6806,D3,538.25,0.25,127,80.0
6807,G3,538.25,0.25,127,80.0
6808,G4,538.25,0.25,127,80.0
6809,D4,538.5,0.0,127,80.0
6810,G1,538.5,0.5,127,80.0
6811,B-5,538.5,49/100,104,80.0
6812,G2,538.5,0.25,127,80.0
6813,D3,538.5,0.25,127,80.0
6814,G3,538.5,0.25,127,80.0
6815,G4,538.5,0.25,127,80.0
6816,C2,538.5,49/100,127,80.0
6817,F#2,538.5,49/100,127,80.0
6818,D4,538.75,0.0,127,80.0
6819,G2,538.75,0.25,127,80.0
6820,D3,538.75,0.25,127,80.0
6821,G3,538.75,0.25,127,80.0
6822,G4,538.75,0.25,127,80.0
6823,D4,539.0,0.0,127,80.0
6824,G1,539.0,1.0,127,80.0
6825,G2,539.0,1.0,127,80.0
6826,D3,539.0,1.0,127,80.0
6827,G3,539.0,1.0,127,80.0
6828,G4,539.0,1.0,127,80.0
6829,C2,539.0,49/100,127,80.0
6830,F#2,539.0,49/100,127,80.0
6831,D2,539.5,49/100,127,80.0
6832,F#2,539.5,49/100,127,80.0
6833,D4,540.0,0.0,127,80.0
6834,G1,540.0,1.0,127,80.0
6835,A2,540.0,3.5,127,80.0
6836,A3,540.0,3.5,127,80.0
6837,B-5,540.0,6/25,109,80.0
6838,C2,540.0,99/100,127,80.0
6839,F#2,540.0,49/100,127,80.0
6840,G2,540.0,1.0,127,80.0
6841,D3,540.0,1.0,127,80.0
6842,G3,540.0,1.0,127,80.0
6843,G4,540.0,1.0,127,80.0
6844,A5,540.25,6/25,109,80.0
6845,B-5,540.5,6/25,104,80.0
6846,F#2,540.5,49/100,116,80.0
6847,A5,540.75,6/25,104,80.0
6848,D4,541.0,0.0,127,80.0
6849,G1,541.0,0.25,127,80.0
6850,G2,541.0,1.0,127,80.0
6851,D3,541.0,1.0,127,80.0
6852,G3,541.0,1.0,127,80.0
6853,G4,541.0,1.0,127,80.0
6854,C2,541.0,49/100,122,80.0
6855,F#2,541.0,49/100,122,80.0
6856,G1,541.25,0.25,127,80.0
6857,G1,541.5,1.0,127,80.0
6858,D2,541.5,99/100,127,80.0
6859,F#2,541.5,49/100,116,80.0
6860,D4,542.0,0.0,127,80.0
6861,F#2,542.0,49/100,127,80.0
6862,G2,542.0,1.5,127,80.0
6863,D3,542.0,1.5,127,80.0
6864,G3,542.0,1.5,127,80.0
6865,G4,542.0,1.5,127,80.0
6866,G1,542.5,0.5,127,80.0
6867,C2,542.5,49/100,127,80.0
6868,F#2,542.5,49/100,127,80.0
6869,G1,543.0,1.0,127,80.0
6870,B-5,543.0,6/25,98,80.0
6871,C2,543.0,49/100,127,80.0
6872,F#2,543.0,49/100,127,80.0
6873,A5,543.25,6/25,115,80.0
6874,D4,543.5,0.0,127,80.0
6875,B2,543.5,0.5,127,80.0
6876,B3,543.5,0.5,127,80.0
6877,B-5,543.5,6/25,86,80.0
6878,G2,543.5,0.25,127,80.0
6879,D3,543.5,0.25,127,80.0
6880,G3,543.5,0.25,127,80.0
6881,G4,543.5,0.25,127,80.0
6882,D2,543.5,49/100,127,80.0
6883,G3,543.5,49/100,127,80.0
6884,D4,543.75,0.0,127,80.0
6885,A5,543.75,6/25,98,80.0
6886,G2,543.75,0.25,127,80.0
6887,D3,543.75,0.25,127,80.0
6888,G3,543.75,0.25,127,80.0
6889,G4,543.75,0.25,127,80.0
6890,D4,544.0,0.0,127,80.0
6891,G1,544.0,0.5,127,80.0
6892,C3,544.0,0.5,127,80.0
6893,C4,544.0,0.5,127,80.0
6894,G5,544.0,6/25,86,80.0
6895,D2,544.0,6/25,127,80.0
6896,G3,544.0,49/100,127,80.0
6897,G2,544.0,0.5,127,80.0
6898,D3,544.0,0.5,127,80.0
6899,G3,544.0,0.5,127,80.0
6900,G4,544.0,0.5,127,80.0
6901,A5,544.25,37/50,104,80.0
6902,D2,544.25,6/25,127,80.0
6903,E4,544.5,0.0,127,80.0
6904,A1,544.5,0.5,127,80.0
6905,B2,544.5,1.5,127,80.0
6906,B3,544.5,1.5,127,80.0
6907,C2,544.5,99/100,127,80.0
6908,C#3,544.5,49/100,122,80.0
6909,A2,544.5,1.0,127,80.0
6910,E3,544.5,1.0,127,80.0
6911,A3,544.5,1.0,127,80.0
6912,A4,544.5,1.0,127,80.0
6913,A1,545.0,0.5,127,80.0
6914,A5,545.0,49/100,98,80.0
6915,F#2,545.0,49/100,116,80.0
6916,E4,545.5,0.0,127,80.0
6917,A1,545.5,1.0,127,80.0
6918,D2,545.5,99/100,127,80.0
6919,F#2,545.5,49/100,116,80.0
6920,A2,545.5,0.75,127,80.0
6921,E3,545.5,0.75,127,80.0
6922,A3,545.5,0.75,127,80.0
6923,A4,545.5,0.75,127,80.0
6924,B-2,546.0,0.25,127,80.0
6925,B-3,546.0,0.25,127,80.0
6926,F#2,546.0,49/100,127,80.0
6927,E4,546.25,0.0,127,80.0
6928,C#3,546.25,0.25,127,80.0
6929,C#4,546.25,0.25,127,80.0
6930,A2,546.25,0.25,127,80.0
6931,E3,546.25,0.25,127,80.0
6932,A3,546.25,0.25,127,80.0
6933,A4,546.25,0.25,127,80.0
6934,E4,546.5,0.0,127,80.0
6935,A1,546.5,0.5,127,80.0
6936,D3,546.5,0.25,127,80.0
6937,D4,546.5,0.25,127,80.0
6938,A2,546.5,0.25,127,80.0
6939,E3,546.5,0.25,127,80.0
6940,A3,546.5,0.25,127,80.0
6941,A4,546.5,0.25,127,80.0
6942,C2,546.5,49/100,127,80.0
6943,F#2,546.5,49/100,127,80.0
6944,E4,546.75,0.0,127,80.0
6945,E3,546.75,0.75,127,80.0
6946,E4,546.75,0.75,127,80.0
6947,A2,546.75,0.25,127,80.0
6948,E3,546.75,0.25,127,80.0
6949,A3,546.75,0.25,127,80.0
6950,A4,546.75,0.25,127,80.0
6951,E4,547.0,0.0,127,80.0
6952,A1,547.0,1.0,127,80.0
6953,A2,547.0,1.0,127,80.0
6954,E3,547.0,1.0,127,80.0
6955,A3,547.0,1.0,127,80.0
6956,A4,547.0,1.0,127,80.0
6957,C2,547.0,49/100,122,80.0
6958,F#2,547.0,49/100,122,80.0
6959,D3,547.5,0.25,127,80.0
6960,D4,547.5,0.25,127,80.0
6961,D2,547.5,0.5,127,80.0
6962,F#2,547.5,49/100,127,80.0
6963,C#3,547.75,0.25,127,80.0
6964,C#4,547.75,0.25,127,80.0
6965,E4,548.0,0.0,127,80.0
6966,A1,548.0,1.0,127,80.0
6967,D3,548.0,0.25,127,80.0
6968,D4,548.0,0.25,127,80.0
6969,F#2,548.0,49/100,127,80.0
6970,D2,548.0,49/100,127,80.0
6971,A2,548.0,1.0,127,80.0
6972,E3,548.0,1.0,127,80.0
6973,A3,548.0,1.0,127,80.0
6974,A4,548.0,1.0,127,80.0
6975,E3,548.25,0.25,127,80.0
6976,E4,548.25,0.25,127,80.0
6977,F#3,548.5,0.25,127,80.0
6978,F#4,548.5,0.25,127,80.0
6979,C2,548.5,49/100,124,80.0
6980,F#2,548.5,49/100,124,80.0
6981,G3,548.75,0.25,127,80.0
6982,G4,548.75,0.25,127,80.0
6983,E4,549.0,0.0,127,80.0
6984,A1,549.0,0.25,127,80.0
6985,A3,549.0,1.0,127,80.0
6986,A4,549.0,1.0,127,80.0
6987,A2,549.0,0.5,127,80.0
6988,E3,549.0,0.5,127,80.0
6989,A3,549.0,0.5,127,80.0
6990,A4,549.0,0.5,127,80.0
6991,C2,549.0,49/100,127,80.0
6992,F#2,549.0,49/100,127,80.0
6993,A1,549.25,0.25,127,80.0
6994,E4,549.5,0.0,127,80.0
6995,A1,549.5,1.0,127,80.0
6996,A2,549.5,2.0,127,80.0
6997,E3,549.5,2.0,127,80.0
6998,A3,549.5,2.0,127,80.0
6999,A4,549.5,2.0,127,80.0
7000,D2,549.5,49/100,127,80.0
7001,G3,549.5,49/100,127,80.0
7002,B-3,550.0,0.25,127,80.0
7003,B-4,550.0,0.25,127,80.0
7004,D2,550.0,49/100,127,80.0
7005,G3,550.0,49/100,127,80.0
7006,G3,550.25,0.25,127,80.0
7007,G4,550.25,0.25,127,80.0
7008,A1,550.5,0.5,127,80.0
7009,A3,550.5,1.0,127,80.0
7010,A4,550.5,1.0,127,80.0
7011,C2,550.5,6/25,127,80.0
7012,F#2,550.5,99/100,122,80.0
7013,D2,550.75,6/25,127,80.0
7014,A1,551.0,0.5,127,80.0
7015,D2,551.0,49/100,122,80.0
7016,E4,551.5,0.0,127,80.0
7017,A1,551.5,0.5,127,80.0
7018,C#4,551.5,0.25,127,80.0
7019,C#5,551.5,0.25,127,80.0
7020,D2,551.5,49/100,127,80.0
7021,F#2,551.5,0.5,127,80.0
7022,A2,551.5,0.5,127,80.0
7023,E3,551.5,0.5,127,80.0
7024,A3,551.5,0.5,127,80.0
7025,A4,551.5,0.5,127,80.0
7026,D4,551.75,0.25,127,80.0
7027,D5,551.75,0.25,127,80.0
7028,E4,552.0,0.0,127,80.0
7029,A1,552.0,0.5,127,80.0
7030,E4,552.0,0.5,127,80.0
7031,E5,552.0,0.5,127,80.0
7032,D2,552.0,6/25,127,80.0
7033,F#2,552.0,49/100,127,80.0
7034,A2,552.0,0.25,127,80.0
7035,E3,552.0,0.25,127,80.0
7036,A3,552.0,0.25,127,80.0
7037,A4,552.0,0.25,127,80.0
7038,E4,552.25,0.0,127,80.0
7039,D2,552.25,6/25,127,80.0
7040,A2,552.25,0.25,127,80.0
7041,E3,552.25,0.25,127,80.0
7042,A3,552.25,0.25,127,80.0
7043,A4,552.25,0.25,127,80.0
7044,D4,552.5,0.0,127,80.0
7045,G1,552.5,1.0,127,80.0
7046,D4,552.5,2.0,127,80.0
7047,D5,552.5,2.0,127,80.0
7048,G2,552.5,1.0,127,80.0
7049,D3,552.5,1.0,127,80.0
7050,G3,552.5,1.0,127,80.0
7051,G4,552.5,1.0,127,80.0
7052,C2,552.5,99/100,127,80.0
7053,C#3,552.5,99/100,127,80.0
7054,D4,553.5,0.0,127,80.0
7055,G1,553.5,1.0,127,80.0
7056,D2,553.5,99/100,127,80.0
7057,F#2,553.5,49/100,122,80.0
7058,G2,553.5,0.75,127,80.0
7059,D3,553.5,0.75,127,80.0
7060,G3,553.5,0.75,127,80.0
7061,G4,553.5,0.75,127,80.0
7062,B-5,554.0,6/25,80,80.0
7063,F#2,554.0,49/100,122,80.0
7064,D4,554.25,0.0,127,80.0
7065,A5,554.25,6/25,104,80.0
7066,G2,554.25,0.25,127,80.0
7067,D3,554.25,0.25,127,80.0
7068,G3,554.25,0.25,127,80.0
7069,G4,554.25,0.25,127,80.0
7070,D4,554.5,0.0,127,80.0
7071,G1,554.5,0.5,127,80.0
7072,B-5,554.5,6/25,98,80.0
7073,G2,554.5,0.25,127,80.0
7074,D3,554.5,0.25,127,80.0
7075,G3,554.5,0.25,127,80.0
7076,G4,554.5,0.25,127,80.0
7077,C2,554.5,49/100,127,80.0
7078,F#2,554.5,49/100,127,80.0
7079,D4,554.75,0.0,127,80.0
7080,A5,554.75,6/25,98,80.0
7081,G2,554.75,0.25,127,80.0
7082,D3,554.75,0.25,127,80.0
7083,G3,554.75,0.25,127,80.0
7084,G4,554.75,0.25,127,80.0
7085,D4,555.0,0.0,127,80.0
7086,G1,555.0,1.0,127,80.0
7087,G5,555.0,49/100,109,80.0
7088,G2,555.0,1.0,127,80.0
7089,D3,555.0,1.0,127,80.0
7090,G3,555.0,1.0,127,80.0
7091,G4,555.0,1.0,127,80.0
7092,C2,555.0,49/100,127,80.0
7093,F#2,555.0,49/100,127,80.0
7094,C3,555.5,0.25,127,80.0
7095,C4,555.5,0.25,127,80.0
7096,D2,555.5,49/100,127,80.0
7097,F#2,555.5,49/100,127,80.0
7098,B2,555.75,0.25,127,80.0
7099,B3,555.75,0.25,127,80.0
7100,D4,556.0,0.0,127,80.0
7101,G1,556.0,1.0,127,80.0
7102,C3,556.0,0.25,127,80.0
7103,C4,556.0,0.25,127,80.0
7104,C2,556.0,99/100,127,80.0
7105,C#3,556.0,49/100,127,80.0
7106,G2,556.0,1.0,127,80.0
7107,D3,556.0,1.0,127,80.0
7108,G3,556.0,1.0,127,80.0
7109,G4,556.0,1.0,127,80.0
7110,B2,556.25,0.25,127,80.0
7111,B3,556.25,0.25,127,80.0
7112,A2,556.5,1.0,127,80.0
7113,A3,556.5,1.0,127,80.0
7114,F#2,556.5,49/100,127,80.0
7115,D4,557.0,0.0,127,80.0
7116,G1,557.0,0.25,127,80.0
7117,G2,557.0,1.0,127,80.0
7118,D3,557.0,1.0,127,80.0
7119,G3,557.0,1.0,127,80.0
7120,G4,557.0,1.0,127,80.0
7121,C2,557.0,49/100,127,80.0
7122,F#2,557.0,49/100,127,80.0
7123,G1,557.25,0.25,127,80.0
7124,G1,557.5,1.0,127,80.0
7125,A2,557.5,0.25,127,80.0
7126,A3,557.5,0.25,127,80.0
7127,D2,557.5,99/100,127,80.0
7128,F#2,557.5,49/100,127,80.0
7129,B2,557.75,0.25,127,80.0
7130,B3,557.75,0.25,127,80.0
7131,D4,558.0,0.0,127,80.0
7132,C3,558.0,0.5,127,80.0
7133,C4,558.0,0.5,127,80.0
7134,B-5,558.0,6/25,78,80.0
7135,F#2,558.0,49/100,127,80.0
7136,G2,558.0,1.5,127,80.0
7137,D3,558.0,1.5,127,80.0
7138,G3,558.0,1.5,127,80.0
7139,G4,558.0,1.5,127,80.0
7140,A5,558.25,6/25,98,80.0
7141,G1,558.5,0.5,127,80.0
7142,C#3,558.5,0.25,127,80.0
7143,C#4,558.5,0.25,127,80.0
7144,B-5,558.5,6/25,86,80.0
7145,C2,558.5,49/100,127,80.0
7146,F#2,558.5,49/100,127,80.0
7147,D3,558.75,0.25,127,80.0
7148,D4,558.75,0.25,127,80.0
7149,A5,558.75,6/25,104,80.0
7150,G1,559.0,1.0,127,80.0
7151,E3,559.0,0.75,127,80.0
7152,E4,559.0,0.75,127,80.0
7153,G5,559.0,49/100,86,80.0
7154,C2,559.0,49/100,127,80.0
7155,F#2,559.0,49/100,127,80.0
7156,D4,559.5,0.0,127,80.0
7157,G2,559.5,0.25,127,80.0
7158,D3,559.5,0.25,127,80.0
7159,G3,559.5,0.25,127,80.0
7160,G4,559.5,0.25,127,80.0
7161,D2,559.5,49/100,127,80.0
7162,G3,559.5,49/100,127,80.0
7163,D4,559.75,0.0,127,80.0
7164,D3,559.75,0.25,127,80.0
7165,D4,559.75,0.25,127,80.0
7166,G2,559.75,0.25,127,80.0
7167,D3,559.75,0.25,127,80.0
7168,G3,559.75,0.25,127,80.0
7169,G4,559.75,0.25,127,80.0
7170,D4,560.0,0.0,127,80.0
7171,G1,560.0,0.5,127,80.0
7172,C#3,560.0,0.25,127,80.0
7173,C#4,560.0,0.25,127,80.0
7174,G5,560.0,49/100,98,80.0
7175,G2,560.0,0.5,127,80.0
7176,D3,560.0,0.5,127,80.0
7177,G3,560.0,0.5,127,80.0
7178,G4,560.0,0.5,127,80.0
7179,D2,560.0,49/100,127,80.0
7180,G3,560.0,49/100,127,80.0
7181,D3,560.25,0.25,127,80.0
7182,D4,560.25,0.25,127,80.0
7183,E4,560.5,0.0,127,80.0
7184,A1,560.5,0.5,127,80.0
7185,E3,560.5,2.0,127,80.0
7186,E4,560.5,2.0,127,80.0
7187,G5,560.5,49/100,104,80.0
7188,A2,560.5,1.0,127,80.0
7189,E3,560.5,1.0,127,80.0
7190,A3,560.5,1.0,127,80.0
7191,A4,560.5,1.0,127,80.0
7192,C2,560.5,49/100,127,80.0
7193,C#3,560.5,49/100,127,80.0
7194,A1,561.0,0.5,127,80.0
7195,A5,561.0,149/100,115,80.0
7196,C2,561.0,49/100,127,80.0
7197,F#2,561.0,49/100,127,80.0
7198,E4,561.5,0.0,127,80.0
7199,A1,561.5,1.0,127,80.0
7200,D2,561.5,99/100,127,80.0
7201,F#2,561.5,49/100,127,80.0
7202,A2,561.5,0.75,127,80.0
7203,E3,561.5,0.75,127,80.0
7204,A3,561.5,0.75,127,80.0
7205,A4,561.5,0.75,127,80.0
7206,G3,562.0,49/100,127,80.0
7207,E4,562.25,0.0,127,80.0
7208,A2,562.25,0.25,127,80.0
7209,E3,562.25,0.25,127,80.0
7210,A3,562.25,0.25,127,80.0
7211,A4,562.25,0.25,127,80.0
7212,E4,562.5,0.0,127,80.0
7213,A1,562.5,0.5,127,80.0
7214,F#3,562.5,0.25,127,80.0
7215,F#4,562.5,0.25,127,80.0
7216,A5,562.5,1.5,115,80.0
7217,A2,562.5,0.25,127,80.0
7218,E3,562.5,0.25,127,80.0
7219,A3,562.5,0.25,127,80.0
7220,A4,562.5,0.25,127,80.0
7221,C2,562.5,49/100,124,80.0
7222,G3,562.5,49/100,124,80.0
7223,E4,562.75,0.0,127,80.0
7224,G3,562.75,0.25,127,80.0
7225,G4,562.75,0.25,127,80.0
7226,A2,562.75,0.25,127,80.0
7227,E3,562.75,0.25,127,80.0
7228,A3,562.75,0.25,127,80.0
7229,A4,562.75,0.25,127,80.0
7230,E4,563.0,0.0,127,80.0
7231,A1,563.0,1.0,127,80.0
7232,E3,563.0,0.5,127,80.0
7233,E4,563.0,0.5,127,80.0
7234,A2,563.0,1.0,127,80.0
7235,E3,563.0,1.0,127,80.0
7236,A3,563.0,1.0,127,80.0
7237,A4,563.0,1.0,127,80.0
7238,C2,563.0,49/100,127,80.0
7239,G3,563.0,49/100,127,80.0
7240,F#3,563.5,0.25,127,80.0
7241,F#4,563.5,0.25,127,80.0
7242,D2,563.5,0.5,127,80.0
7243,G3,563.5,0.156,127,80.0
7244,G3,563.667,0.156,127,80.0
7245,G3,563.75,0.25,127,80.0
7246,G4,563.75,0.25,127,80.0
7247,G3,563.833,0.156,127,80.0
7248,E4,564.0,0.0,127,80.0
7249,A1,564.0,1.0,127,80.0
7250,A3,564.0,0.25,127,80.0
7251,A4,564.0,0.25,127,80.0
7252,A5,564.0,49/100,115,80.0
7253,G3,564.0,0.156,127,80.0
7254,D2,564.0,49/100,127,80.0
7255,A2,564.0,1.0,127,80.0
7256,E3,564.0,1.0,127,80.0
7257,A3,564.0,1.0,127,80.0
7258,A4,564.0,1.0,127,80.0
7259,G3,564.167,0.156,127,80.0
7260,B-3,564.25,0.25,127,80.0
7261,B-4,564.25,0.25,127,80.0
7262,G3,564.333,0.156,127,80.0
7263,G3,564.5,0.25,127,80.0
7264,G4,564.5,0.25,127,80.0
7265,G5,564.5,149/100,109,80.0
7266,C2,564.5,49/100,127,80.0
7267,G3,564.5,0.156,127,80.0
7268,G3,564.667,0.156,127,80.0
7269,A3,564.75,1.25,127,80.0
7270,A4,564.75,1.25,127,80.0
7271,G3,564.833,0.156,127,80.0
7272,E4,565.0,0.0,127,80.0
7273,A1,565.0,0.25,127,80.0
7274,C2,565.0,49/100,127,80.0
7275,G3,565.0,0.156,127,80.0
7276,A2,565.0,0.5,127,80.0
7277,E3,565.0,0.5,127,80.0
7278,A3,565.0,0.5,127,80.0
7279,A4,565.0,0.5,127,80.0
7280,G3,565.167,0.156,127,80.0
7281,A1,565.25,0.25,127,80.0
7282,G3,565.333,0.156,127,80.0
7283,E4,565.5,0.0,127,80.0
7284,A1,565.5,1.0,127,80.0
7285,D2,565.5,6/25,127,80.0
7286,G3,565.5,0.156,127,80.0
7287,A2,565.5,2.0,127,80.0
7288,E3,565.5,2.0,127,80.0
7289,A3,565.5,2.0,127,80.0
7290,A4,565.5,2.0,127,80.0
7291,G3,565.667,0.156,127,80.0
7292,C2,565.75,49/100,127,80.0
7293,G3,565.833,0.156,127,80.0
7294,G3,566.0,0.25,127,80.0
7295,G4,566.0,0.25,127,80.0
7296,B-5,566.0,49/100,98,80.0
7297,G3,566.0,0.156,127,80.0
7298,G3,566.167,0.156,127,80.0
7299,F3,566.25,0.25,127,80.0
7300,F4,566.25,0.25,127,80.0
7301,D2,566.25,6/25,127,80.0
7302,G3,566.333,0.156,127,80.0
7303,A1,566.5,0.5,127,80.0
7304,E3,566.5,0.5,127,80.0
7305,E4,566.5,0.5,127,80.0
7306,B-5,566.5,49/100,72,80.0
7307,C2,566.5,37/50,127,80.0
7308,G3,566.5,0.156,127,80.0
7309,G3,566.667,0.156,127,80.0
7310,G3,566.833,0.156,127,80.0
7311,A1,567.0,0.5,127,80.0
7312,F3,567.0,0.25,127,80.0
7313,F4,567.0,0.25,127,80.0
7314,G5,567.0,49/100,104,80.0
7315,G3,567.0,0.156,127,80.0
7316,G3,567.167,0.156,127,80.0
7317,G3,567.25,0.25,127,80.0
7318,G4,567.25,0.25,127,80.0
7319,C2,567.25,6/25,127,80.0
7320,G3,567.333,0.156,127,80.0
7321,E4,567.5,0.0,127,80.0
7322,A1,567.5,0.5,127,80.0
7323,A3,567.5,0.5,127,80.0
7324,A4,567.5,0.5,127,80.0
7325,D2,567.5,49/100,127,80.0
7326,G3,567.5,0.156,127,80.0
7327,A2,567.5,0.5,127,80.0
7328,E3,567.5,0.5,127,80.0
7329,A3,567.5,0.5,127,80.0
7330,A4,567.5,0.5,127,80.0
7331,G3,567.667,0.156,127,80.0
7332,G3,567.833,0.156,127,80.0
7333,E4,568.0,0.0,127,80.0
7334,A1,568.0,0.5,127,80.0
7335,A3,568.0,0.5,127,80.0
7336,A4,568.0,0.5,127,80.0
7337,A2,568.0,0.25,127,80.0
7338,E3,568.0,0.25,127,80.0
7339,A3,568.0,0.25,127,80.0
7340,A4,568.0,0.25,127,80.0
7341,C2,568.0,49/100,127,80.0
7342,C#3,568.0,49/100,127,80.0
7343,E4,568.25,0.0,127,80.0
7344,A2,568.25,0.25,127,80.0
7345,E3,568.25,0.25,127,80.0
7346,A3,568.25,0.25,127,80.0
7347,A4,568.25,0.25,127,80.0
7348,D4,568.5,0.0,127,80.0
7349,G1,568.5,1.0,127,80.0
7350,A2,568.5,1.5,127,80.0
7351,A3,568.5,1.5,127,80.0
7352,C2,568.5,99/100,127,80.0
7353,C#3,568.5,49/100,127,80.0
7354,G2,568.5,1.0,127,80.0
7355,D3,568.5,1.0,127,80.0
7356,G3,568.5,1.0,127,80.0
7357,G4,568.5,1.0,127,80.0
7358,F#2,569.0,49/100,110,80.0
7359,D4,569.5,0.0,127,80.0
7360,G1,569.5,1.0,127,80.0
7361,D2,569.5,99/100,127,80.0
7362,F#2,569.5,49/100,116,80.0
7363,G2,569.5,0.75,127,80.0
7364,D3,569.5,0.75,127,80.0
7365,G3,569.5,0.75,127,80.0
7366,G4,569.5,0.75,127,80.0
7367,B2,570.0,1.0,127,80.0
7368,B3,570.0,1.0,127,80.0
7369,F#2,570.0,49/100,110,80.0
7370,D4,570.25,0.0,127,80.0
7371,G2,570.25,0.25,127,80.0
7372,D3,570.25,0.25,127,80.0
7373,G3,570.25,0.25,127,80.0
7374,G4,570.25,0.25,127,80.0
7375,D4,570.5,0.0,127,80.0
7376,G1,570.5,0.5,127,80.0
7377,G2,570.5,0.25,127,80.0
7378,D3,570.5,0.25,127,80.0
7379,G3,570.5,0.25,127,80.0
7380,G4,570.5,0.25,127,80.0
7381,C2,570.5,49/100,127,80.0
7382,F#2,570.5,49/100,127,80.0
7383,D4,570.75,0.0,127,80.0
7384,G2,570.75,0.25,127,80.0
7385,D3,570.75,0.25,127,80.0
7386,G3,570.75,0.25,127,80.0
7387,G4,570.75,0.25,127,80.0
7388,D4,571.0,0.0,127,80.0
7389,G1,571.0,1.0,127,80.0
7390,C3,571.0,0.5,127,80.0
7391,C4,571.0,0.5,127,80.0
7392,G2,571.0,1.0,127,80.0
7393,D3,571.0,1.0,127,80.0
7394,G3,571.0,1.0,127,80.0
7395,G4,571.0,1.0,127,80.0
7396,C2,571.0,49/100,118,80.0
7397,F#2,571.0,49/100,118,80.0
7398,E3,571.5,0.5,127,80.0
7399,E4,571.5,0.5,127,80.0
7400,D2,571.5,49/100,122,80.0
7401,F#2,571.5,49/100,122,80.0
7402,D4,572.0,0.0,127,80.0
7403,G1,572.0,1.0,127,80.0
7404,E3,572.0,0.5,127,80.0
7405,E4,572.0,0.5,127,80.0
7406,C2,572.0,99/100,116,80.0
7407,F#2,572.0,49/100,116,80.0
7408,G2,572.0,1.0,127,80.0
7409,D3,572.0,1.0,127,80.0
7410,G3,572.0,1.0,127,80.0
7411,G4,572.0,1.0,127,80.0
7412,D3,572.5,1.0,127,80.0
7413,D4,572.5,1.0,127,80.0
7414,F#2,572.5,49/100,110,80.0
7415,D4,573.0,0.0,127,80.0
7416,G1,573.0,0.25,127,80.0
7417,G2,573.0,1.0,127,80.0
7418,D3,573.0,1.0,127,80.0
7419,G3,573.0,1.0,127,80.0
7420,G4,573.0,1.0,127,80.0
7421,C2,573.0,49/100,112,80.0
7422,F#2,573.0,49/100,112,80.0
7423,G1,573.25,0.25,127,80.0
7424,G1,573.5,1.0,127,80.0
7425,E3,573.5,1.0,127,80.0
7426,E4,573.5,1.0,127,80.0
7427,D2,573.5,99/100,127,80.0
7428,F#2,573.5,49/100,116,80.0
7429,D4,574.0,0.0,127,80.0
7430,F#2,574.0,49/100,108,80.0
7431,G2,574.0,1.5,127,80.0
7432,D3,574.0,1.5,127,80.0
7433,G3,574.0,1.5,127,80.0
7434,G4,574.0,1.5,127,80.0
7435,G1,574.5,0.5,127,80.0
7436,F3,574.5,0.5,127,80.0
7437,F4,574.5,0.5,127,80.0
7438,C2,574.5,49/100,124,80.0
7439,F#2,574.5,49/100,124,80.0
7440,G1,575.0,1.0,127,80.0
7441,G3,575.0,0.5,127,80.0
7442,G4,575.0,0.5,127,80.0
7443,C2,575.0,49/100,127,80.0
7444,F#2,575.0,49/100,127,80.0
7445,D4,575.5,0.0,127,80.0
7446,A3,575.5,0.5,127,80.0
7447,A4,575.5,0.5,127,80.0
7448,G2,575.5,0.25,127,80.0
7449,D3,575.5,0.25,127,80.0
7450,G3,575.5,0.25,127,80.0
7451,G4,575.5,0.25,127,80.0
7452,D2,575.5,49/100,113,80.0
7453,F#2,575.5,49/100,113,80.0
7454,D4,575.75,0.0,127,80.0
7455,G2,575.75,0.25,127,80.0
7456,D3,575.75,0.25,127,80.0
7457,G3,575.75,0.25,127,80.0
7458,G4,575.75,0.25,127,80.0
7459,D4,576.0,0.0,127,80.0
7460,G1,576.0,0.5,127,80.0
7461,B-3,576.0,0.5,127,80.0
7462,B-4,576.0,0.5,127,80.0
7463,G2,576.0,0.5,127,80.0
7464,D3,576.0,0.5,127,80.0
7465,G3,576.0,0.5,127,80.0
7466,G4,576.0,0.5,127,80.0
7467,C2,576.0,49/100,127,80.0
7468,F#2,576.0,49/100,127,80.0
7469,E4,576.5,0.0,127,80.0
7470,A1,576.5,0.5,127,80.0
7471,C#4,576.5,3.0,127,80.0
7472,C#5,576.5,3.0,127,80.0
7473,C2,576.5,99/100,127,80.0
7474,C#3,576.5,49/100,116,80.0
7475,A2,576.5,1.0,127,80.0
7476,E3,576.5,1.0,127,80.0
7477,A3,576.5,1.0,127,80.0
7478,A4,576.5,1.0,127,80.0
7479,A1,577.0,0.5,127,80.0
7480,F#2,577.0,49/100,116,80.0
7481,E4,577.5,0.0,127,80.0
7482,A1,577.5,1.0,127,80.0
7483,D2,577.5,99/100,127,80.0
7484,F#2,577.5,49/100,122,80.0
7485,A2,577.5,0.75,127,80.0
7486,E3,577.5,0.75,127,80.0
7487,A3,577.5,0.75,127,80.0
7488,A4,577.5,0.75,127,80.0
7489,F#2,578.0,49/100,127,80.0
7490,E4,578.25,0.0,127,80.0
7491,A2,578.25,0.25,127,80.0
7492,E3,578.25,0.25,127,80.0
7493,A3,578.25,0.25,127,80.0
7494,A4,578.25,0.25,127,80.0
7495,E4,578.5,0.0,127,80.0
7496,A1,578.5,0.5,127,80.0
7497,A2,578.5,0.25,127,80.0
7498,E3,578.5,0.25,127,80.0
7499,A3,578.5,0.25,127,80.0
7500,A4,578.5,0.25,127,80.0
7501,C2,578.5,49/100,127,80.0
7502,F#2,578.5,49/100,127,80.0
7503,E4,578.75,0.0,127,80.0
7504,A2,578.75,0.25,127,80.0
7505,E3,578.75,0.25,127,80.0
7506,A3,578.75,0.25,127,80.0
7507,A4,578.75,0.25,127,80.0
7508,E4,579.0,0.0,127,80.0
7509,A1,579.0,1.0,127,80.0
7510,A2,579.0,1.0,127,80.0
7511,E3,579.0,1.0,127,80.0
7512,A3,579.0,1.0,127,80.0
7513,A4,579.0,1.0,127,80.0
7514,C2,579.0,49/100,127,80.0
7515,F#2,579.0,49/100,127,80.0
7516,C#4,579.5,0.25,127,80.0
7517,C#5,579.5,0.25,127,80.0
7518,D2,579.5,49/100,124,80.0
7519,G3,579.5,49/100,124,80.0
7520,D4,579.75,0.25,127,80.0
7521,D5,579.75,0.25,127,80.0
7522,E4,580.0,0.0,127,80.0
7523,A1,580.0,1.0,127,80.0
7524,C#4,580.0,0.25,127,80.0
7525,C#5,580.0,0.25,127,80.0
7526,A2,580.0,1.0,127,80.0
7527,E3,580.0,1.0,127,80.0
7528,A3,580.0,1.0,127,80.0
7529,A4,580.0,1.0,127,80.0
7530,D2,580.0,49/100,127,80.0
7531,G3,580.0,49/100,127,80.0
7532,B3,580.25,0.25,127,80.0
7533,B4,580.25,0.25,127,80.0
7534,C#4,580.5,3.5,127,80.0
7535,C#5,580.5,3.5,127,80.0
7536,C2,580.5,323/1000,127,80.0
7537,C#3,580.5,99/100,122,80.0
7538,D2,580.833,0.156,127,80.0
7539,E4,581.0,0.0,127,80.0
7540,A1,581.0,0.25,127,80.0
7541,D2,581.0,0.156,127,80.0
7542,A2,581.0,0.5,127,80.0
7543,E3,581.0,0.5,127,80.0
7544,A3,581.0,0.5,127,80.0
7545,A4,581.0,0.5,127,80.0
7546,D2,581.167,0.156,127,80.0
7547,A1,581.25,0.25,127,80.0
7548,D2,581.333,0.156,127,80.0
7549,E4,581.5,0.0,127,80.0
7550,A1,581.5,1.0,127,80.0
7551,D2,581.5,0.156,127,80.0
7552,F#2,581.5,99/100,127,80.0
7553,A2,581.5,2.0,127,80.0
7554,E3,581.5,2.0,127,80.0
7555,A3,581.5,2.0,127,80.0
7556,A4,581.5,2.0,127,80.0
7557,D2,581.667,0.156,127,80.0
7558,D2,581.833,0.156,127,80.0
7559,D2,582.0,0.156,127,80.0
7560,D2,582.167,0.156,127,80.0
7561,D2,582.333,0.156,127,80.0
7562,A1,582.5,0.5,127,80.0
7563,D3,582.5,0.156,127,80.0
7564,F#2,582.5,99/100,127,80.0
7565,D3,582.667,0.156,127,80.0
7566,D3,582.833,0.156,127,80.0
7567,A1,583.0,0.5,127,80.0
7568,D3,583.0,0.156,127,80.0
7569,D3,583.167,0.156,127,80.0
7570,D3,583.333,0.156,127,80.0
7571,E4,583.5,0.0,127,80.0
7572,A1,583.5,0.5,127,80.0
7573,F#2,583.5,0.5,127,80.0
7574,B2,583.5,0.156,127,80.0
7575,A2,583.5,0.5,127,80.0
7576,E3,583.5,0.5,127,80.0
7577,A3,583.5,0.5,127,80.0
7578,A4,583.5,0.5,127,80.0
7579,B2,583.667,0.156,127,80.0
7580,B2,583.833,0.156,127,80.0
7581,E4,584.0,0.0,127,80.0
7582,A1,584.0,0.5,127,80.0
7583,C#4,584.0,0.5,127,80.0
7584,C#5,584.0,0.5,127,80.0
7585,B2,584.0,0.156,127,80.0
7586,F#2,584.0,49/100,127,80.0
7587,A2,584.0,0.25,127,80.0
7588,E3,584.0,0.25,127,80.0
7589,A3,584.0,0.25,127,80.0
7590,A4,584.0,0.25,127,80.0
7591,B2,584.167,0.156,127,80.0
7592,E4,584.25,0.0,127,80.0
7593,A2,584.25,0.25,127,80.0
7594,E3,584.25,0.25,127,80.0
7595,A3,584.25,0.25,127,80.0
7596,A4,584.25,0.25,127,80.0
7597,B2,584.333,0.156,127,80.0
7598,D4,584.5,0.0,127,80.0
7599,G1,584.5,1.0,127,80.0
7600,A2,584.5,1.5,127,80.0
7601,A3,584.5,1.5,127,80.0
7602,C2,584.5,99/100,127,80.0
7603,C#3,584.5,49/100,127,80.0
7604,G2,584.5,1.0,127,80.0
7605,D3,584.5,1.0,127,80.0
7606,G3,584.5,1.0,127,80.0
7607,G4,584.5,1.0,127,80.0
7608,F#2,585.0,49/100,110,80.0
7609,D4,585.5,0.0,127,80.0
7610,G1,585.5,1.0,127,80.0
7611,D2,585.5,99/100,127,80.0
7612,F#2,585.5,49/100,116,80.0
7613,G2,585.5,0.75,127,80.0
7614,D3,585.5,0.75,127,80.0
7615,G3,585.5,0.75,127,80.0
7616,G4,585.5,0.75,127,80.0
7617,B2,586.0,1.0,127,80.0
7618,B3,586.0,1.0,127,80.0
7619,F#2,586.0,49/100,110,80.0
7620,D4,586.25,0.0,127,80.0
7621,G2,586.25,0.25,127,80.0
7622,D3,586.25,0.25,127,80.0
7623,G3,586.25,0.25,127,80.0
7624,G4,586.25,0.25,127,80.0
7625,D4,586.5,0.0,127,80.0
7626,G1,586.5,0.5,127,80.0
7627,G2,586.5,0.25,127,80.0
7628,D3,586.5,0.25,127,80.0
7629,G3,586.5,0.25,127,80.0
7630,G4,586.5,0.25,127,80.0
7631,C2,586.5,49/100,127,80.0
7632,F#2,586.5,49/100,127,80.0
7633,D4,586.75,0.0,127,80.0
7634,G2,586.75,0.25,127,80.0
7635,D3,586.75,0.25,127,80.0
7636,G3,586.75,0.25,127,80.0
7637,G4,586.75,0.25,127,80.0
7638,D4,587.0,0.0,127,80.0
7639,G1,587.0,1.0,127,80.0
7640,C3,587.0,0.5,127,80.0
7641,C4,587.0,0.5,127,80.0
7642,G2,587.0,1.0,127,80.0
7643,D3,587.0,1.0,127,80.0
7644,G3,587.0,1.0,127,80.0
7645,G4,587.0,1.0,127,80.0
7646,C2,587.0,49/100,118,80.0
7647,F#2,587.0,49/100,118,80.0
7648,E3,587.5,0.5,127,80.0
7649,E4,587.5,0.5,127,80.0
7650,D2,587.5,49/100,122,80.0
7651,F#2,587.5,49/100,122,80.0
7652,D4,588.0,0.0,127,80.0
7653,G1,588.0,1.0,127,80.0
7654,E3,588.0,0.5,127,80.0
7655,E4,588.0,0.5,127,80.0
7656,C2,588.0,99/100,116,80.0
7657,F#2,588.0,49/100,116,80.0
7658,G2,588.0,1.0,127,80.0
7659,D3,588.0,1.0,127,80.0
7660,G3,588.0,1.0,127,80.0
7661,G4,588.0,1.0,127,80.0
7662,D3,588.5,1.0,127,80.0
7663,D4,588.5,1.0,127,80.0
7664,F#2,588.5,49/100,110,80.0
7665,D4,589.0,0.0,127,80.0
7666,G1,589.0,0.25,127,80.0
7667,G2,589.0,1.0,127,80.0
7668,D3,589.0,1.0,127,80.0
7669,G3,589.0,1.0,127,80.0
7670,G4,589.0,1.0,127,80.0
7671,C2,589.0,49/100,112,80.0
7672,F#2,589.0,49/100,112,80.0
7673,G1,589.25,0.25,127,80.0
7674,G1,589.5,1.0,127,80.0
7675,E3,589.5,1.0,127,80.0
7676,E4,589.5,1.0,127,80.0
7677,D2,589.5,99/100,127,80.0
7678,F#2,589.5,49/100,116,80.0
7679,D4,590.0,0.0,127,80.0
7680,F#2,590.0,49/100,108,80.0
7681,G2,590.0,1.5,127,80.0
7682,D3,590.0,1.5,127,80.0
7683,G3,590.0,1.5,127,80.0
7684,G4,590.0,1.5,127,80.0
7685,G1,590.5,0.5,127,80.0
7686,F3,590.5,0.5,127,80.0
7687,F4,590.5,0.5,127,80.0
7688,C2,590.5,49/100,124,80.0
7689,F#2,590.5,49/100,124,80.0
7690,G1,591.0,1.0,127,80.0
7691,G3,591.0,0.5,127,80.0
7692,G4,591.0,0.5,127,80.0
7693,C2,591.0,49/100,127,80.0
7694,F#2,591.0,49/100,127,80.0
7695,D4,591.5,0.0,127,80.0
7696,A3,591.5,0.5,127,80.0
7697,A4,591.5,0.5,127,80.0
7698,G2,591.5,0.25,127,80.0
7699,D3,591.5,0.25,127,80.0
7700,G3,591.5,0.25,127,80.0
7701,G4,591.5,0.25,127,80.0
7702,D2,591.5,49/100,113,80.0
7703,F#2,591.5,49/100,113,80.0
7704,D4,591.75,0.0,127,80.0
7705,G2,591.75,0.25,127,80.0
7706,D3,591.75,0.25,127,80.0
7707,G3,591.75,0.25,127,80.0
7708,G4,591.75,0.25,127,80.0
7709,D4,592.0,0.0,127,80.0
7710,G1,592.0,0.5,127,80.0
7711,B-3,592.0,0.5,127,80.0
7712,B-4,592.0,0.5,127,80.0
7713,G2,592.0,0.5,127,80.0
7714,D3,592.0,0.5,127,80.0
7715,G3,592.0,0.5,127,80.0
7716,G4,592.0,0.5,127,80.0
7717,C2,592.0,49/100,127,80.0
7718,F#2,592.0,49/100,127,80.0
7719,E4,592.5,0.0,127,80.0
7720,A1,592.5,0.5,127,80.0
7721,C#4,592.5,3.0,127,80.0
7722,C#5,592.5,3.0,127,80.0
7723,C2,592.5,99/100,127,80.0
7724,C#3,592.5,49/100,116,80.0
7725,A2,592.5,1.0,127,80.0
7726,E3,592.5,1.0,127,80.0
7727,A3,592.5,1.0,127,80.0
7728,A4,592.5,1.0,127,80.0
7729,A1,593.0,0.5,127,80.0
7730,F#2,593.0,49/100,116,80.0
7731,E4,593.5,0.0,127,80.0
7732,A1,593.5,1.0,127,80.0
7733,D2,593.5,99/100,127,80.0
7734,F#2,593.5,49/100,122,80.0
7735,A2,593.5,0.75,127,80.0
7736,E3,593.5,0.75,127,80.0
7737,A3,593.5,0.75,127,80.0
7738,A4,593.5,0.75,127,80.0
7739,F#2,594.0,49/100,127,80.0
7740,E4,594.25,0.0,127,80.0
7741,A2,594.25,0.25,127,80.0
7742,E3,594.25,0.25,127,80.0
7743,A3,594.25,0.25,127,80.0
7744,A4,594.25,0.25,127,80.0
7745,E4,594.5,0.0,127,80.0
7746,A1,594.5,0.5,127,80.0
7747,A2,594.5,0.25,127,80.0
7748,E3,594.5,0.25,127,80.0
7749,A3,594.5,0.25,127,80.0
7750,A4,594.5,0.25,127,80.0
7751,C2,594.5,49/100,127,80.0
7752,F#2,594.5,49/100,127,80.0
7753,E4,594.75,0.0,127,80.0
7754,A2,594.75,0.25,127,80.0
7755,E3,594.75,0.25,127,80.0
7756,A3,594.75,0.25,127,80.0
7757,A4,594.75,0.25,127,80.0
7758,E4,595.0,0.0,127,80.0
7759,A1,595.0,1.0,127,80.0
7760,A2,595.0,1.0,127,80.0
7761,E3,595.0,1.0,127,80.0
7762,A3,595.0,1.0,127,80.0
7763,A4,595.0,1.0,127,80.0
7764,C2,595.0,49/100,127,80.0
7765,F#2,595.0,49/100,127,80.0
7766,C#4,595.5,0.25,127,80.0
7767,C#5,595.5,0.25,127,80.0
7768,D2,595.5,49/100,124,80.0
7769,G3,595.5,49/100,124,80.0
7770,D4,595.75,0.25,127,80.0
7771,D5,595.75,0.25,127,80.0
7772,E4,596.0,0.0,127,80.0
7773,A1,596.0,1.0,127,80.0
7774,C#4,596.0,0.25,127,80.0
7775,C#5,596.0,0.25,127,80.0
7776,A2,596.0,1.0,127,80.0
7777,E3,596.0,1.0,127,80.0
7778,A3,596.0,1.0,127,80.0
7779,A4,596.0,1.0,127,80.0
7780,D2,596.0,49/100,127,80.0
7781,G3,596.0,49/100,127,80.0
7782,B3,596.25,0.25,127,80.0
7783,B4,596.25,0.25,127,80.0
7784,C#4,596.5,3.5,127,80.0
7785,C#5,596.5,3.5,127,80.0
7786,C2,596.5,323/1000,127,80.0
7787,C#3,596.5,99/100,122,80.0
7788,D2,596.833,0.156,127,80.0
7789,E4,597.0,0.0,127,80.0
7790,A1,597.0,0.25,127,80.0
7791,D2,597.0,0.156,127,80.0
7792,A2,597.0,0.5,127,80.0
7793,E3,597.0,0.5,127,80.0
7794,A3,597.0,0.5,127,80.0
7795,A4,597.0,0.5,127,80.0
7796,D2,597.167,0.156,127,80.0
7797,A1,597.25,0.25,127,80.0
7798,D2,597.333,0.156,127,80.0
7799,E4,597.5,0.0,127,80.0
7800,A1,597.5,1.0,127,80.0
7801,D2,597.5,0.156,127,80.0
7802,F#2,597.5,99/100,127,80.0
7803,A2,597.5,2.0,127,80.0
7804,E3,597.5,2.0,127,80.0
7805,A3,597.5,2.0,127,80.0
7806,A4,597.5,2.0,127,80.0
7807,D2,597.667,0.156,127,80.0
7808,D2,597.833,0.156,127,80.0
7809,D2,598.0,0.156,127,80.0
7810,D2,598.167,0.156,127,80.0
7811,D2,598.333,0.156,127,80.0
7812,A1,598.5,0.5,127,80.0
7813,D3,598.5,0.156,127,80.0
7814,F#2,598.5,99/100,127,80.0
7815,D3,598.667,0.156,127,80.0
7816,D3,598.833,0.156,127,80.0
7817,A1,599.0,0.5,127,80.0
7818,D3,599.0,0.156,127,80.0
7819,D3,599.167,0.156,127,80.0
7820,D3,599.333,0.156,127,80.0
7821,E4,599.5,0.0,127,80.0
7822,A1,599.5,0.5,127,80.0
7823,F#2,599.5,0.5,127,80.0
7824,B2,599.5,0.156,127,80.0
7825,A2,599.5,0.5,127,80.0
7826,E3,599.5,0.5,127,80.0
7827,A3,599.5,0.5,127,80.0
7828,A4,599.5,0.5,127,80.0
7829,B2,599.667,0.156,127,80.0
7830,B2,599.833,0.156,127,80.0
7831,E4,600.0,0.0,127,80.0
7832,A1,600.0,0.5,127,80.0
7833,C#4,600.0,0.5,127,80.0
7834,C#5,600.0,0.5,127,80.0
7835,B2,600.0,0.156,127,80.0
7836,F#2,600.0,49/100,127,80.0
7837,A2,600.0,0.25,127,80.0
7838,E3,600.0,0.25,127,80.0
7839,A3,600.0,0.25,127,80.0
7840,A4,600.0,0.25,127,80.0
7841,B2,600.167,0.156,127,80.0
7842,E4,600.25,0.0,127,80.0
7843,A2,600.25,0.25,127,80.0
7844,E3,600.25,0.25,127,80.0
7845,A3,600.25,0.25,127,80.0
7846,A4,600.25,0.25,127,80.0
7847,B2,600.333,0.156,127,80.0
7848,D4,600.5,0.0,127,80.0
7849,G1,600.5,1.0,127,80.0
7850,A2,600.5,1.5,127,80.0
7851,A3,600.5,1.5,127,80.0
7852,C2,600.5,99/100,127,80.0
7853,C#3,600.5,49/100,127,80.0
7854,G2,600.5,1.0,127,80.0
7855,D3,600.5,1.0,127,80.0
7856,G3,600.5,1.0,127,80.0
7857,G4,600.5,1.0,127,80.0
7858,F#2,601.0,49/100,110,80.0
7859,D4,601.5,0.0,127,80.0
7860,G1,601.5,1.0,127,80.0
7861,D2,601.5,99/100,127,80.0
7862,F#2,601.5,49/100,116,80.0
7863,G2,601.5,0.75,127,80.0
7864,D3,601.5,0.75,127,80.0
7865,G3,601.5,0.75,127,80.0
7866,G4,601.5,0.75,127,80.0
7867,B2,602.0,1.0,127,80.0
7868,B3,602.0,1.0,127,80.0
7869,F#2,602.0,49/100,110,80.0
7870,D4,602.25,0.0,127,80.0
7871,G2,602.25,0.25,127,80.0
7872,D3,602.25,0.25,127,80.0
7873,G3,602.25,0.25,127,80.0
7874,G4,602.25,0.25,127,80.0
7875,D4,602.5,0.0,127,80.0
7876,G1,602.5,0.5,127,80.0
7877,G2,602.5,0.25,127,80.0
7878,D3,602.5,0.25,127,80.0
7879,G3,602.5,0.25,127,80.0
7880,G4,602.5,0.25,127,80.0
7881,C2,602.5,49/100,127,80.0
7882,F#2,602.5,49/100,127,80.0
7883,D4,602.75,0.0,127,80.0
7884,G2,602.75,0.25,127,80.0
7885,D3,602.75,0.25,127,80.0
7886,G3,602.75,0.25,127,80.0
7887,G4,602.75,0.25,127,80.0
7888,D4,603.0,0.0,127,80.0
7889,G1,603.0,1.0,127,80.0
7890,C3,603.0,0.5,127,80.0
7891,C4,603.0,0.5,127,80.0
7892,G2,603.0,1.0,127,80.0
7893,D3,603.0,1.0,127,80.0
7894,G3,603.0,1.0,127,80.0
7895,G4,603.0,1.0,127,80.0
7896,C2,603.0,49/100,118,80.0
7897,F#2,603.0,49/100,118,80.0
7898,E3,603.5,0.5,127,80.0
7899,E4,603.5,0.5,127,80.0
7900,D2,603.5,49/100,122,80.0
7901,F#2,603.5,49/100,122,80.0
7902,D4,604.0,0.0,127,80.0
7903,G1,604.0,1.0,127,80.0
7904,E3,604.0,0.5,127,80.0
7905,E4,604.0,0.5,127,80.0
7906,C2,604.0,99/100,116,80.0
7907,F#2,604.0,49/100,116,80.0
7908,G2,604.0,1.0,127,80.0
7909,D3,604.0,1.0,127,80.0
7910,G3,604.0,1.0,127,80.0
7911,G4,604.0,1.0,127,80.0
7912,D3,604.5,1.0,127,80.0
7913,D4,604.5,1.0,127,80.0
7914,F#2,604.5,49/100,110,80.0
7915,D4,605.0,0.0,127,80.0
7916,G1,605.0,0.25,127,80.0
7917,G2,605.0,1.0,127,80.0
7918,D3,605.0,1.0,127,80.0
7919,G3,605.0,1.0,127,80.0
7920,G4,605.0,1.0,127,80.0
7921,C2,605.0,49/100,112,80.0
7922,F#2,605.0,49/100,112,80.0
7923,G1,605.25,0.25,127,80.0
7924,G1,605.5,1.0,127,80.0
7925,E3,605.5,1.0,127,80.0
7926,E4,605.5,1.0,127,80.0
7927,D2,605.5,99/100,127,80.0
7928,F#2,605.5,49/100,116,80.0
7929,D4,606.0,0.0,127,80.0
7930,F#2,606.0,49/100,108,80.0
7931,G2,606.0,1.5,127,80.0
7932,D3,606.0,1.5,127,80.0
7933,G3,606.0,1.5,127,80.0
7934,G4,606.0,1.5,127,80.0
7935,G1,606.5,0.5,127,80.0
7936,F3,606.5,0.5,127,80.0
7937,F4,606.5,0.5,127,80.0
7938,C2,606.5,49/100,124,80.0
7939,F#2,606.5,49/100,124,80.0
7940,G1,607.0,1.0,127,80.0
7941,G3,607.0,0.5,127,80.0
7942,G4,607.0,0.5,127,80.0
7943,C2,607.0,49/100,127,80.0
7944,F#2,607.0,49/100,127,80.0
7945,D4,607.5,0.0,127,80.0
7946,A3,607.5,0.5,127,80.0
7947,A4,607.5,0.5,127,80.0
7948,G2,607.5,0.25,127,80.0
7949,D3,607.5,0.25,127,80.0
7950,G3,607.5,0.25,127,80.0
7951,G4,607.5,0.25,127,80.0
7952,D2,607.5,49/100,113,80.0
7953,F#2,607.5,49/100,113,80.0
7954,D4,607.75,0.0,127,80.0
7955,G2,607.75,0.25,127,80.0
7956,D3,607.75,0.25,127,80.0
7957,G3,607.75,0.25,127,80.0
7958,G4,607.75,0.25,127,80.0
7959,D4,608.0,0.0,127,80.0
7960,G1,608.0,0.5,127,80.0
7961,B-3,608.0,0.5,127,80.0
7962,B-4,608.0,0.5,127,80.0
7963,G2,608.0,0.5,127,80.0
7964,D3,608.0,0.5,127,80.0
7965,G3,608.0,0.5,127,80.0
7966,G4,608.0,0.5,127,80.0
7967,C2,608.0,49/100,127,80.0
7968,F#2,608.0,49/100,127,80.0
7969,E4,608.5,0.0,127,80.0
7970,A1,608.5,0.5,127,80.0
7971,C#4,608.5,3.0,127,80.0
7972,C#5,608.5,3.0,127,80.0
7973,C2,608.5,99/100,127,80.0
7974,C#3,608.5,49/100,116,80.0
7975,A2,608.5,1.0,127,80.0
7976,E3,608.5,1.0,127,80.0
7977,A3,608.5,1.0,127,80.0
7978,A4,608.5,1.0,127,80.0
7979,A1,609.0,0.5,127,80.0
7980,F#2,609.0,49/100,116,80.0
7981,E4,609.5,0.0,127,80.0
7982,A1,609.5,1.0,127,80.0
7983,D2,609.5,99/100,127,80.0
7984,F#2,609.5,49/100,122,80.0
7985,A2,609.5,0.75,127,80.0
7986,E3,609.5,0.75,127,80.0
7987,A3,609.5,0.75,127,80.0
7988,A4,609.5,0.75,127,80.0
7989,F#2,610.0,49/100,127,80.0
7990,E4,610.25,0.0,127,80.0
7991,A2,610.25,0.25,127,80.0
7992,E3,610.25,0.25,127,80.0
7993,A3,610.25,0.25,127,80.0
7994,A4,610.25,0.25,127,80.0
7995,E4,610.5,0.0,127,80.0
7996,A1,610.5,0.5,127,80.0
7997,A2,610.5,0.25,127,80.0
7998,E3,610.5,0.25,127,80.0
7999,A3,610.5,0.25,127,80.0
8000,A4,610.5,0.25,127,80.0
8001,C2,610.5,49/100,127,80.0
8002,F#2,610.5,49/100,127,80.0
8003,E4,610.75,0.0,127,80.0
8004,A2,610.75,0.25,127,80.0
8005,E3,610.75,0.25,127,80.0
8006,A3,610.75,0.25,127,80.0
8007,A4,610.75,0.25,127,80.0
8008,E4,611.0,0.0,127,80.0
8009,A1,611.0,1.0,127,80.0
8010,A2,611.0,1.0,127,80.0
8011,E3,611.0,1.0,127,80.0
8012,A3,611.0,1.0,127,80.0
8013,A4,611.0,1.0,127,80.0
8014,C2,611.0,49/100,127,80.0
8015,F#2,611.0,49/100,127,80.0
8016,C#4,611.5,0.25,127,80.0
8017,C#5,611.5,0.25,127,80.0
8018,D2,611.5,49/100,124,80.0
8019,G3,611.5,49/100,124,80.0
8020,D4,611.75,0.25,127,80.0
8021,D5,611.75,0.25,127,80.0
8022,E4,612.0,0.0,127,80.0
8023,A1,612.0,1.0,127,80.0
8024,C#4,612.0,0.25,127,80.0
8025,C#5,612.0,0.25,127,80.0
8026,A2,612.0,1.0,127,80.0
8027,E3,612.0,1.0,127,80.0
8028,A3,612.0,1.0,127,80.0
8029,A4,612.0,1.0,127,80.0
8030,D2,612.0,49/100,127,80.0
8031,G3,612.0,49/100,127,80.0
8032,B3,612.25,0.25,127,80.0
8033,B4,612.25,0.25,127,80.0
8034,C#4,612.5,3.5,127,80.0
8035,C#5,612.5,3.5,127,80.0
8036,C2,612.5,323/1000,127,80.0
8037,C#3,612.5,99/100,122,80.0
8038,D2,612.833,0.156,127,80.0
8039,E4,613.0,0.0,127,80.0
8040,A1,613.0,0.25,127,80.0
8041,D2,613.0,0.156,127,80.0
8042,A2,613.0,0.5,127,80.0
8043,E3,613.0,0.5,127,80.0
8044,A3,613.0,0.5,127,80.0
8045,A4,613.0,0.5,127,80.0
8046,D2,613.167,0.156,127,80.0
8047,A1,613.25,0.25,127,80.0
8048,D2,613.333,0.156,127,80.0
8049,E4,613.5,0.0,127,80.0
8050,A1,613.5,1.0,127,80.0
8051,D2,613.5,0.156,127,80.0
8052,F#2,613.5,99/100,127,80.0
8053,A2,613.5,2.0,127,80.0
8054,E3,613.5,2.0,127,80.0
8055,A3,613.5,2.0,127,80.0
8056,A4,613.5,2.0,127,80.0
8057,D2,613.667,0.156,127,80.0
8058,D2,613.833,0.156,127,80.0
8059,D2,614.0,0.156,127,80.0
8060,D2,614.167,0.156,127,80.0
8061,D2,614.333,0.156,127,80.0
8062,A1,614.5,0.5,127,80.0
8063,D3,614.5,0.156,127,80.0
8064,F#2,614.5,99/100,127,80.0
8065,D3,614.667,0.156,127,80.0
8066,D3,614.833,0.156,127,80.0
8067,A1,615.0,0.5,127,80.0
8068,D3,615.0,0.156,127,80.0
8069,D3,615.167,0.156,127,80.0
8070,D3,615.333,0.156,127,80.0
8071,E4,615.5,0.0,127,80.0
8072,A1,615.5,0.5,127,80.0
8073,F#2,615.5,0.5,127,80.0
8074,B2,615.5,0.156,127,80.0
8075,A2,615.5,0.5,127,80.0
8076,E3,615.5,0.5,127,80.0
8077,A3,615.5,0.5,127,80.0
8078,A4,615.5,0.5,127,80.0
8079,B2,615.667,0.156,127,80.0
8080,B2,615.833,0.156,127,80.0
8081,E4,616.0,0.0,127,80.0
8082,A1,616.0,0.5,127,80.0
8083,C#4,616.0,0.5,127,80.0
8084,C#5,616.0,0.5,127,80.0
8085,B2,616.0,0.156,127,80.0
8086,F#2,616.0,49/100,127,80.0
8087,A2,616.0,0.25,127,80.0
8088,E3,616.0,0.25,127,80.0
8089,A3,616.0,0.25,127,80.0
8090,A4,616.0,0.25,127,80.0
8091,B2,616.167,0.156,127,80.0
8092,E4,616.25,0.0,127,80.0
8093,A2,616.25,0.25,127,80.0
8094,E3,616.25,0.25,127,80.0
8095,A3,616.25,0.25,127,80.0
8096,A4,616.25,0.25,127,80.0
8097,B2,616.333,0.156,127,80.0
8098,D4,616.5,0.0,127,80.0
8099,G1,616.5,1.0,127,80.0
8100,A2,616.5,1.5,127,80.0
8101,A3,616.5,1.5,127,80.0
8102,C2,616.5,99/100,127,80.0
8103,C#3,616.5,49/100,127,80.0
8104,G2,616.5,1.0,127,80.0
8105,D3,616.5,1.0,127,80.0
8106,G3,616.5,1.0,127,80.0
8107,G4,616.5,1.0,127,80.0
8108,F#2,617.0,49/100,110,80.0
8109,D4,617.5,0.0,127,80.0
8110,G1,617.5,1.0,127,80.0
8111,D2,617.5,99/100,127,80.0
8112,F#2,617.5,49/100,116,80.0
8113,G2,617.5,0.75,127,80.0
8114,D3,617.5,0.75,127,80.0
8115,G3,617.5,0.75,127,80.0
8116,G4,617.5,0.75,127,80.0
8117,B2,618.0,1.0,127,80.0
8118,B3,618.0,1.0,127,80.0
8119,F#2,618.0,49/100,110,80.0
8120,D4,618.25,0.0,127,80.0
8121,G2,618.25,0.25,127,80.0
8122,D3,618.25,0.25,127,80.0
8123,G3,618.25,0.25,127,80.0
8124,G4,618.25,0.25,127,80.0
8125,D4,618.5,0.0,127,80.0
8126,G1,618.5,0.5,127,80.0
8127,G2,618.5,0.25,127,80.0
8128,D3,618.5,0.25,127,80.0
8129,G3,618.5,0.25,127,80.0
8130,G4,618.5,0.25,127,80.0
8131,C2,618.5,49/100,127,80.0
8132,F#2,618.5,49/100,127,80.0
8133,D4,618.75,0.0,127,80.0
8134,G2,618.75,0.25,127,80.0
8135,D3,618.75,0.25,127,80.0
8136,G3,618.75,0.25,127,80.0
8137,G4,618.75,0.25,127,80.0
8138,D4,619.0,0.0,127,80.0
8139,G1,619.0,1.0,127,80.0
8140,C3,619.0,0.5,127,80.0
8141,C4,619.0,0.5,127,80.0
8142,G2,619.0,1.0,127,80.0
8143,D3,619.0,1.0,127,80.0
8144,G3,619.0,1.0,127,80.0
8145,G4,619.0,1.0,127,80.0
8146,C2,619.0,49/100,118,80.0
8147,F#2,619.0,49/100,118,80.0
8148,E3,619.5,0.5,127,80.0
8149,E4,619.5,0.5,127,80.0
8150,D2,619.5,49/100,122,80.0
8151,F#2,619.5,49/100,122,80.0
8152,D4,620.0,0.0,127,80.0
8153,G1,620.0,1.0,127,80.0
8154,E3,620.0,0.5,127,80.0
8155,E4,620.0,0.5,127,80.0
8156,C2,620.0,99/100,116,80.0
8157,F#2,620.0,49/100,116,80.0
8158,G2,620.0,1.0,127,80.0
8159,D3,620.0,1.0,127,80.0
8160,G3,620.0,1.0,127,80.0
8161,G4,620.0,1.0,127,80.0
8162,D3,620.5,1.0,127,80.0
8163,D4,620.5,1.0,127,80.0
8164,F#2,620.5,49/100,110,80.0
8165,D4,621.0,0.0,127,80.0
8166,G1,621.0,0.25,127,80.0
8167,G2,621.0,1.0,127,80.0
8168,D3,621.0,1.0,127,80.0
8169,G3,621.0,1.0,127,80.0
8170,G4,621.0,1.0,127,80.0
8171,C2,621.0,49/100,112,80.0
8172,F#2,621.0,49/100,112,80.0
8173,G1,621.25,0.25,127,80.0
8174,G1,621.5,1.0,127,80.0
8175,E3,621.5,1.0,127,80.0
8176,E4,621.5,1.0,127,80.0
8177,D2,621.5,99/100,127,80.0
8178,F#2,621.5,49/100,116,80.0
8179,D4,622.0,0.0,127,80.0
8180,F#2,622.0,49/100,108,80.0
8181,G2,622.0,1.5,127,80.0
8182,D3,622.0,1.5,127,80.0
8183,G3,622.0,1.5,127,80.0
8184,G4,622.0,1.5,127,80.0
8185,G1,622.5,0.5,127,80.0
8186,F3,622.5,0.5,127,80.0
8187,F4,622.5,0.5,127,80.0
8188,C2,622.5,49/100,124,80.0
8189,F#2,622.5,49/100,124,80.0
8190,G1,623.0,1.0,127,80.0
8191,G3,623.0,0.5,127,80.0
8192,G4,623.0,0.5,127,80.0
8193,C2,623.0,49/100,127,80.0
8194,F#2,623.0,49/100,127,80.0
8195,D4,623.5,0.0,127,80.0
8196,A3,623.5,0.5,127,80.0
8197,A4,623.5,0.5,127,80.0
8198,G2,623.5,0.25,127,80.0
8199,D3,623.5,0.25,127,80.0
8200,G3,623.5,0.25,127,80.0
8201,G4,623.5,0.25,127,80.0
8202,D2,623.5,49/100,113,80.0
8203,F#2,623.5,49/100,113,80.0
8204,D4,623.75,0.0,127,80.0
8205,G2,623.75,0.25,127,80.0
8206,D3,623.75,0.25,127,80.0
8207,G3,623.75,0.25,127,80.0
8208,G4,623.75,0.25,127,80.0
8209,D4,624.0,0.0,127,80.0
8210,G1,624.0,0.5,127,80.0
8211,B-3,624.0,0.5,127,80.0
8212,B-4,624.0,0.5,127,80.0
8213,G2,624.0,0.5,127,80.0
8214,D3,624.0,0.5,127,80.0
8215,G3,624.0,0.5,127,80.0
8216,G4,624.0,0.5,127,80.0
8217,C2,624.0,49/100,127,80.0
8218,F#2,624.0,49/100,127,80.0
8219,E4,624.5,0.0,127,80.0
8220,A1,624.5,0.5,127,80.0
8221,C#4,624.5,3.0,127,80.0
8222,C#5,624.5,3.0,127,80.0
8223,C2,624.5,99/100,127,80.0
8224,C#3,624.5,49/100,116,80.0
8225,A2,624.5,1.0,127,80.0
8226,E3,624.5,1.0,127,80.0
8227,A3,624.5,1.0,127,80.0
8228,A4,624.5,1.0,127,80.0
8229,A1,625.0,0.5,127,80.0
8230,F#2,625.0,49/100,116,80.0
8231,E4,625.5,0.0,127,80.0
8232,A1,625.5,1.0,127,80.0
8233,D2,625.5,99/100,127,80.0
8234,F#2,625.5,49/100,122,80.0
8235,A2,625.5,0.75,127,80.0
8236,E3,625.5,0.75,127,80.0
8237,A3,625.5,0.75,127,80.0
8238,A4,625.5,0.75,127,80.0
8239,F#2,626.0,49/100,127,80.0
8240,E4,626.25,0.0,127,80.0
8241,A2,626.25,0.25,127,80.0
8242,E3,626.25,0.25,127,80.0
8243,A3,626.25,0.25,127,80.0
8244,A4,626.25,0.25,127,80.0
8245,E4,626.5,0.0,127,80.0
8246,A1,626.5,0.5,127,80.0
8247,A2,626.5,0.25,127,80.0
8248,E3,626.5,0.25,127,80.0
8249,A3,626.5,0.25,127,80.0
8250,A4,626.5,0.25,127,80.0
8251,C2,626.5,49/100,127,80.0
8252,F#2,626.5,49/100,127,80.0
8253,E4,626.75,0.0,127,80.0
8254,A2,626.75,0.25,127,80.0
8255,E3,626.75,0.25,127,80.0
8256,A3,626.75,0.25,127,80.0
8257,A4,626.75,0.25,127,80.0
8258,E4,627.0,0.0,127,80.0
8259,A1,627.0,1.0,127,80.0
8260,A2,627.0,1.0,127,80.0
8261,E3,627.0,1.0,127,80.0
8262,A3,627.0,1.0,127,80.0
8263,A4,627.0,1.0,127,80.0
8264,C2,627.0,49/100,127,80.0
8265,F#2,627.0,49/100,127,80.0
8266,C#4,627.5,0.25,127,80.0
8267,C#5,627.5,0.25,127,80.0
8268,D2,627.5,49/100,124,80.0
8269,G3,627.5,49/100,124,80.0
8270,D4,627.75,0.25,127,80.0
8271,D5,627.75,0.25,127,80.0
8272,E4,628.0,0.0,127,80.0
8273,A1,628.0,1.0,127,80.0
8274,C#4,628.0,0.25,127,80.0
8275,C#5,628.0,0.25,127,80.0
8276,A2,628.0,1.0,127,80.0
8277,E3,628.0,1.0,127,80.0
8278,A3,628.0,1.0,127,80.0
8279,A4,628.0,1.0,127,80.0
8280,D2,628.0,49/100,127,80.0
8281,G3,628.0,49/100,127,80.0
8282,B3,628.25,0.25,127,80.0
8283,B4,628.25,0.25,127,80.0
8284,C#4,628.5,3.5,127,80.0
8285,C#5,628.5,3.5,127,80.0
8286,C2,628.5,323/1000,127,80.0
8287,C#3,628.5,99/100,122,80.0
8288,D2,628.833,0.156,127,80.0
8289,E4,629.0,0.0,127,80.0
8290,A1,629.0,0.25,127,80.0
8291,D2,629.0,0.156,127,80.0
8292,A2,629.0,0.5,127,80.0
8293,E3,629.0,0.5,127,80.0
8294,A3,629.0,0.5,127,80.0
8295,A4,629.0,0.5,127,80.0
8296,D2,629.167,0.156,127,80.0
8297,A1,629.25,0.25,127,80.0
8298,D2,629.333,0.156,127,80.0
8299,E4,629.5,0.0,127,80.0
8300,A1,629.5,1.0,127,80.0
8301,D2,629.5,0.156,127,80.0
8302,F#2,629.5,99/100,127,80.0
8303,A2,629.5,2.0,127,80.0
8304,E3,629.5,2.0,127,80.0
8305,A3,629.5,2.0,127,80.0
8306,A4,629.5,2.0,127,80.0
8307,D2,629.667,0.156,127,80.0
8308,D2,629.833,0.156,127,80.0
8309,D2,630.0,0.156,127,80.0
8310,D2,630.167,0.156,127,80.0
8311,D2,630.333,0.156,127,80.0
8312,A1,630.5,0.5,127,80.0
8313,D3,630.5,0.156,127,80.0
8314,F#2,630.5,99/100,127,80.0
8315,D3,630.667,0.156,127,80.0
8316,D3,630.833,0.156,127,80.0
8317,A1,631.0,0.5,127,80.0
8318,D3,631.0,0.156,127,80.0
8319,D3,631.167,0.156,127,80.0
8320,D3,631.333,0.156,127,80.0
8321,E4,631.5,0.0,127,80.0
8322,A1,631.5,0.5,127,80.0
8323,F#2,631.5,0.5,127,80.0
8324,B2,631.5,0.156,127,80.0
8325,A2,631.5,0.5,127,80.0
8326,E3,631.5,0.5,127,80.0
8327,A3,631.5,0.5,127,80.0
8328,A4,631.5,0.5,127,80.0
8329,B2,631.667,0.156,127,80.0
8330,B2,631.833,0.156,127,80.0
8331,E4,632.0,0.0,127,80.0
8332,A1,632.0,0.5,127,80.0
8333,C#4,632.0,0.5,127,80.0
8334,C#5,632.0,0.5,127,80.0
8335,B2,632.0,0.156,127,80.0
8336,F#2,632.0,49/100,127,80.0
8337,A2,632.0,0.25,127,80.0
8338,E3,632.0,0.25,127,80.0
8339,A3,632.0,0.25,127,80.0
8340,A4,632.0,0.25,127,80.0
8341,B2,632.167,0.156,127,80.0
8342,E4,632.25,0.0,127,80.0
8343,A2,632.25,0.25,127,80.0
8344,E3,632.25,0.25,127,80.0
8345,A3,632.25,0.25,127,80.0
8346,A4,632.25,0.25,127,80.0
8347,B2,632.333,0.156,127,80.0
8348,D4,632.5,0.0,127,80.0
8349,G1,632.5,1.0,127,80.0
8350,A2,632.5,1.5,127,80.0
8351,A3,632.5,1.5,127,80.0
8352,C2,632.5,99/100,127,80.0
8353,C#3,632.5,49/100,127,80.0
8354,G2,632.5,1.0,127,80.0
8355,D3,632.5,1.0,127,80.0
8356,G3,632.5,1.0,127,80.0
8357,G4,632.5,1.0,127,80.0
8358,F#2,633.0,49/100,110,80.0
8359,D4,633.5,0.0,127,80.0
8360,G1,633.5,1.0,127,80.0
8361,D2,633.5,99/100,127,80.0
8362,F#2,633.5,49/100,116,80.0
8363,G2,633.5,0.75,127,80.0
8364,D3,633.5,0.75,127,80.0
8365,G3,633.5,0.75,127,80.0
8366,G4,633.5,0.75,127,80.0
8367,B2,634.0,1.0,127,80.0
8368,B3,634.0,1.0,127,80.0
8369,F#2,634.0,49/100,110,80.0
8370,D4,634.25,0.0,127,80.0
8371,G2,634.25,0.25,127,80.0
8372,D3,634.25,0.25,127,80.0
8373,G3,634.25,0.25,127,80.0
8374,G4,634.25,0.25,127,80.0
8375,D4,634.5,0.0,127,80.0
8376,G1,634.5,0.5,127,80.0
8377,G2,634.5,0.25,127,80.0
8378,D3,634.5,0.25,127,80.0
8379,G3,634.5,0.25,127,80.0
8380,G4,634.5,0.25,127,80.0
8381,C2,634.5,49/100,127,80.0
8382,F#2,634.5,49/100,127,80.0
8383,D4,634.75,0.0,127,80.0
8384,G2,634.75,0.25,127,80.0
8385,D3,634.75,0.25,127,80.0
8386,G3,634.75,0.25,127,80.0
8387,G4,634.75,0.25,127,80.0
8388,D4,635.0,0.0,127,80.0
8389,G1,635.0,1.0,127,80.0
8390,C3,635.0,0.5,127,80.0
8391,C4,635.0,0.5,127,80.0
8392,G2,635.0,1.0,127,80.0
8393,D3,635.0,1.0,127,80.0
8394,G3,635.0,1.0,127,80.0
8395,G4,635.0,1.0,127,80.0
8396,C2,635.0,49/100,118,80.0
8397,F#2,635.0,49/100,118,80.0
8398,E3,635.5,0.5,127,80.0
8399,E4,635.5,0.5,127,80.0
8400,D2,635.5,49/100,122,80.0
8401,F#2,635.5,49/100,122,80.0
8402,D4,636.0,0.0,127,80.0
8403,G1,636.0,1.0,127,80.0
8404,E3,636.0,0.5,127,80.0
8405,E4,636.0,0.5,127,80.0
8406,C2,636.0,99/100,116,80.0
8407,F#2,636.0,49/100,116,80.0
8408,G2,636.0,1.0,127,80.0
8409,D3,636.0,1.0,127,80.0
8410,G3,636.0,1.0,127,80.0
8411,G4,636.0,1.0,127,80.0
8412,D3,636.5,1.0,127,80.0
8413,D4,636.5,1.0,127,80.0
8414,F#2,636.5,49/100,110,80.0
8415,D4,637.0,0.0,127,80.0
8416,G1,637.0,0.25,127,80.0
8417,G2,637.0,1.0,127,80.0
8418,D3,637.0,1.0,127,80.0
8419,G3,637.0,1.0,127,80.0
8420,G4,637.0,1.0,127,80.0
8421,C2,637.0,49/100,112,80.0
8422,F#2,637.0,49/100,112,80.0
8423,G1,637.25,0.25,127,80.0
8424,G1,637.5,1.0,127,80.0
8425,E3,637.5,1.0,127,80.0
8426,E4,637.5,1.0,127,80.0
8427,D2,637.5,99/100,127,80.0
8428,F#2,637.5,49/100,116,80.0
8429,D4,638.0,0.0,127,80.0
8430,F#2,638.0,49/100,108,80.0
8431,G2,638.0,1.5,127,80.0
8432,D3,638.0,1.5,127,80.0
8433,G3,638.0,1.5,127,80.0
8434,G4,638.0,1.5,127,80.0
8435,G1,638.5,0.5,127,80.0
8436,F3,638.5,0.5,127,80.0
8437,F4,638.5,0.5,127,80.0
8438,C2,638.5,49/100,124,80.0
8439,F#2,638.5,49/100,124,80.0
8440,G1,639.0,1.0,127,80.0
8441,G3,639.0,0.5,127,80.0
8442,G4,639.0,0.5,127,80.0
8443,C2,639.0,49/100,127,80.0
8444,F#2,639.0,49/100,127,80.0
8445,D4,639.5,0.0,127,80.0
8446,A3,639.5,0.5,127,80.0
8447,A4,639.5,0.5,127,80.0
8448,G2,639.5,0.25,127,80.0
8449,D3,639.5,0.25,127,80.0
8450,G3,639.5,0.25,127,80.0
8451,G4,639.5,0.25,127,80.0
8452,D2,639.5,49/100,113,80.0
8453,F#2,639.5,49/100,113,80.0
8454,D4,639.75,0.0,127,80.0
8455,G2,639.75,0.25,127,80.0
8456,D3,639.75,0.25,127,80.0
8457,G3,639.75,0.25,127,80.0
8458,G4,639.75,0.25,127,80.0
8459,D4,640.0,0.0,127,80.0
8460,G1,640.0,0.5,127,80.0
8461,B-3,640.0,0.5,127,80.0
8462,B-4,640.0,0.5,127,80.0
8463,G2,640.0,0.5,127,80.0
8464,D3,640.0,0.5,127,80.0
8465,G3,640.0,0.5,127,80.0
8466,G4,640.0,0.5,127,80.0
8467,C2,640.0,49/100,127,80.0
8468,F#2,640.0,49/100,127,80.0
8469,E4,640.5,0.0,127,80.0
8470,A1,640.5,0.5,127,80.0
8471,C#4,640.5,3.0,127,80.0
8472,C#5,640.5,3.0,127,80.0
8473,C2,640.5,99/100,127,80.0
8474,C#3,640.5,49/100,116,80.0
8475,A2,640.5,1.0,127,80.0
8476,E3,640.5,1.0,127,80.0
8477,A3,640.5,1.0,127,80.0
8478,A4,640.5,1.0,127,80.0
8479,A1,641.0,0.5,127,80.0
8480,F#2,641.0,49/100,116,80.0
8481,E4,641.5,0.0,127,80.0
8482,A1,641.5,1.0,127,80.0
8483,D2,641.5,99/100,127,80.0
8484,F#2,641.5,49/100,122,80.0
8485,A2,641.5,0.75,127,80.0
8486,E3,641.5,0.75,127,80.0
8487,A3,641.5,0.75,127,80.0
8488,A4,641.5,0.75,127,80.0
8489,F#2,642.0,49/100,127,80.0
8490,E4,642.25,0.0,127,80.0
8491,A2,642.25,0.25,127,80.0
8492,E3,642.25,0.25,127,80.0
8493,A3,642.25,0.25,127,80.0
8494,A4,642.25,0.25,127,80.0
8495,E4,642.5,0.0,127,80.0
8496,A1,642.5,0.5,127,80.0
8497,A2,642.5,0.25,127,80.0
8498,E3,642.5,0.25,127,80.0
8499,A3,642.5,0.25,127,80.0
8500,A4,642.5,0.25,127,80.0
8501,C2,642.5,49/100,127,80.0
8502,F#2,642.5,49/100,127,80.0
8503,E4,642.75,0.0,127,80.0
8504,A2,642.75,0.25,127,80.0
8505,E3,642.75,0.25,127,80.0
8506,A3,642.75,0.25,127,80.0
8507,A4,642.75,0.25,127,80.0
8508,E4,643.0,0.0,127,80.0
8509,A1,643.0,1.0,127,80.0
8510,A2,643.0,1.0,127,80.0
8511,E3,643.0,1.0,127,80.0
8512,A3,643.0,1.0,127,80.0
8513,A4,643.0,1.0,127,80.0
8514,C2,643.0,49/100,127,80.0
8515,F#2,643.0,49/100,127,80.0
8516,C#4,643.5,0.25,127,80.0
8517,C#5,643.5,0.25,127,80.0
8518,D2,643.5,49/100,124,80.0
8519,G3,643.5,49/100,124,80.0
8520,D4,643.75,0.25,127,80.0
8521,D5,643.75,0.25,127,80.0
8522,E4,644.0,0.0,127,80.0
8523,A1,644.0,1.0,127,80.0
8524,C#4,644.0,0.25,127,80.0
8525,C#5,644.0,0.25,127,80.0
8526,A2,644.0,1.0,127,80.0
8527,E3,644.0,1.0,127,80.0
8528,A3,644.0,1.0,127,80.0
8529,A4,644.0,1.0,127,80.0
8530,D2,644.0,49/100,127,80.0
8531,G3,644.0,49/100,127,80.0
8532,B3,644.25,0.25,127,80.0
8533,B4,644.25,0.25,127,80.0
8534,C#4,644.5,3.5,127,80.0
8535,C#5,644.5,3.5,127,80.0
8536,C2,644.5,323/1000,127,80.0
8537,C#3,644.5,99/100,122,80.0
8538,D2,644.833,0.156,127,80.0
8539,E4,645.0,0.0,127,80.0
8540,A1,645.0,0.25,127,80.0
8541,D2,645.0,0.156,127,80.0
8542,A2,645.0,0.5,127,80.0
8543,E3,645.0,0.5,127,80.0
8544,A3,645.0,0.5,127,80.0
8545,A4,645.0,0.5,127,80.0
8546,D2,645.167,0.156,127,80.0
8547,A1,645.25,0.25,127,80.0
8548,D2,645.333,0.156,127,80.0
8549,E4,645.5,0.0,127,80.0
8550,A1,645.5,1.0,127,80.0
8551,D2,645.5,0.156,127,80.0
8552,F#2,645.5,99/100,127,80.0
8553,A2,645.5,2.0,127,80.0
8554,E3,645.5,2.0,127,80.0
8555,A3,645.5,2.0,127,80.0
8556,A4,645.5,2.0,127,80.0
8557,D2,645.667,0.156,127,80.0
8558,D2,645.833,0.156,127,80.0
8559,D2,646.0,0.156,127,80.0
8560,D2,646.167,0.156,127,80.0
8561,D2,646.333,0.156,127,80.0
8562,A1,646.5,0.5,127,80.0
8563,D3,646.5,0.156,127,80.0
8564,F#2,646.5,99/100,127,80.0
8565,D3,646.667,0.156,127,80.0
8566,D3,646.833,0.156,127,80.0
8567,A1,647.0,0.5,127,80.0
8568,D3,647.0,0.156,127,80.0
8569,D3,647.167,0.156,127,80.0
8570,D3,647.333,0.156,127,80.0
8571,E4,647.5,0.0,127,80.0
8572,A1,647.5,0.5,127,80.0
8573,F#2,647.5,0.5,127,80.0
8574,B2,647.5,0.156,127,80.0
8575,A2,647.5,0.5,127,80.0
8576,E3,647.5,0.5,127,80.0
8577,A3,647.5,0.5,127,80.0
8578,A4,647.5,0.5,127,80.0
8579,B2,647.667,0.156,127,80.0
8580,B2,647.833,0.156,127,80.0
8581,E4,648.0,0.0,127,80.0
8582,A1,648.0,0.5,127,80.0
8583,C#4,648.0,0.5,127,80.0
8584,C#5,648.0,0.5,127,80.0
8585,B2,648.0,0.156,127,80.0
8586,F#2,648.0,49/100,127,80.0
8587,A2,648.0,0.25,127,80.0
8588,E3,648.0,0.25,127,80.0
8589,A3,648.0,0.25,127,80.0
8590,A4,648.0,0.25,127,80.0
8591,B2,648.167,0.156,127,80.0
8592,E4,648.25,0.0,127,80.0
8593,A2,648.25,0.25,127,80.0
8594,E3,648.25,0.25,127,80.0
8595,A3,648.25,0.25,127,80.0
8596,A4,648.25,0.25,127,80.0
8597,B2,648.333,0.156,127,80.0
