,note_name,start_time,duration,velocity,tempo
0,G4,3.0,0.25,73,137.0
1,E-4,3.0,0.25,73,137.0
2,B-4,3.0,0.25,73,137.0
3,E-5,3.0,0.25,73,137.0
4,E-3,3.0,0.25,73,137.0
5,E-2,3.0,0.25,73,137.0
6,B-4,3.25,0.25,73,137.0
7,G4,3.25,0.25,73,137.0
8,E-5,3.25,0.25,73,137.0
9,E-4,3.25,0.25,73,137.0
10,E-2,3.25,0.25,73,137.0
11,E-3,3.25,0.25,73,137.0
12,E-5,3.5,0.5,73,137.0
13,E-4,3.5,0.5,73,137.0
14,B-4,3.5,0.5,73,137.0
15,G4,3.5,0.5,73,137.0
16,E-3,3.5,0.5,73,137.0
17,E-2,3.5,0.5,73,137.0
18,F4,4.0,0.25,73,137.0
19,C5,4.0,0.25,73,137.0
20,F5,4.0,0.25,73,137.0
21,A4,4.0,0.25,73,137.0
22,F3,4.0,0.25,73,137.0
23,F2,4.0,0.25,73,137.0
24,C5,4.5,0.25,73,137.0
25,A4,4.5,0.25,73,137.0
26,F4,4.5,0.25,73,137.0
27,F5,4.5,0.25,73,137.0
28,F3,4.5,0.25,73,137.0
29,F2,4.5,0.25,73,137.0
30,F4,5.0,0.25,73,137.0
31,F#4,5.25,0.25,73,137.0
32,G4,5.5,0.25,73,137.0
33,G#4,5.75,0.25,73,137.0
34,A4,6.0,0.25,73,137.0
35,B-4,6.25,0.25,73,137.0
36,B4,6.5,0.25,73,137.0
37,C5,6.75,0.25,73,137.0
38,C#5,7.0,0.25,73,137.0
39,D5,7.25,0.25,73,137.0
40,E-5,7.5,0.5,73,137.0
41,B-4,7.5,0.5,73,137.0
42,G4,7.5,0.5,73,137.0
43,E-4,7.5,0.5,73,137.0
44,E-3,7.5,0.5,73,137.0
45,E-2,7.5,0.5,73,137.0
46,F5,8.0,0.25,73,137.0
47,A4,8.0,0.25,73,137.0
48,F4,8.0,0.25,73,137.0
49,C5,8.0,0.25,73,137.0
50,F2,8.0,0.25,73,137.0
51,F3,8.0,0.25,73,137.0
52,F5,8.5,0.25,73,137.0
53,C5,8.5,0.25,73,137.0
54,F4,8.5,0.25,73,137.0
55,A4,8.5,0.25,73,137.0
56,F2,8.5,0.25,73,137.0
57,F3,8.5,0.25,73,137.0
58,F4,9.0,0.25,73,137.0
59,F#4,9.25,0.25,73,137.0
60,G4,9.5,0.25,73,137.0
61,G#4,9.75,0.25,73,137.0
62,A4,10.0,0.25,73,137.0
63,B-4,10.25,0.25,73,137.0
64,B4,10.5,0.25,73,137.0
65,C5,10.75,0.25,73,137.0
66,C#5,11.0,0.25,73,137.0
67,D5,11.25,0.25,73,137.0
68,E-4,11.5,0.5,73,137.0
69,E-5,11.5,0.5,73,137.0
70,B-4,11.5,0.5,73,137.0
71,G4,11.5,0.5,73,137.0
72,E-3,11.5,0.5,73,137.0
73,E-2,11.5,0.5,73,137.0
74,F4,12.0,0.25,73,137.0
75,F5,12.0,0.25,73,137.0
76,A4,12.0,0.25,73,137.0
77,C5,12.0,0.25,73,137.0
78,F3,12.0,0.25,73,137.0
79,F2,12.0,0.25,73,137.0
80,F4,12.5,0.25,73,137.0
81,A4,12.5,0.25,73,137.0
82,C5,12.5,0.25,73,137.0
83,F5,12.5,0.25,73,137.0
84,F2,12.5,0.25,73,137.0
85,F3,12.5,0.25,73,137.0
86,F4,13.0,83/500,73,137.0
87,A4,13.166,41/250,73,137.0
88,C5,13.332,41/250,73,137.0
89,F5,13.5,31/250,73,137.0
90,A5,13.666,41/250,73,137.0
91,C6,13.832,21/125,73,137.0
92,F6,14.0,83/500,73,137.0
93,C6,14.166,31/250,73,137.0
94,A5,14.332,41/250,73,137.0
95,F5,14.5,103/500,73,137.0
96,C5,14.666,83/500,73,137.0
97,A4,14.832,31/250,73,137.0
98,C5,15.0,83/500,73,137.0
99,E-3,15.0,1.0,73,137.0
100,E-2,15.0,1.0,73,137.0
101,F5,15.166,83/500,73,137.0
102,C5,15.332,83/500,73,137.0
103,A4,15.5,83/500,73,137.0
104,F4,15.666,83/250,73,137.0
105,G#4,16.0,0.5,73,137.0
106,F4,16.0,0.5,73,137.0
107,C#4,16.0,0.5,73,137.0
108,C#5,16.0,0.5,73,137.0
109,C#3,16.0,0.5,73,137.0
110,C#2,16.0,0.5,73,137.0
111,C#5,16.5,0.5,73,137.0
112,C#3,16.5,0.5,73,137.0
113,G#5,17.0,0.5,73,137.0
114,F5,17.0,0.5,73,137.0
115,C#6,17.0,0.5,73,137.0
116,F3,17.0,0.5,73,137.0
117,G#3,17.0,0.5,73,137.0
118,C#4,17.0,0.5,73,137.0
119,C#3,17.5,0.5,73,137.0
120,C#4,17.5,0.5,73,137.0
121,C#5,17.5,0.5,73,137.0
122,E-4,18.0,0.5,73,137.0
123,G4,18.0,0.5,73,137.0
124,B-4,18.0,0.5,73,137.0
125,E-5,18.0,0.5,73,137.0
126,E-3,18.0,0.5,73,137.0
127,E-2,18.0,0.5,73,137.0
128,E-3,18.5,0.5,73,137.0
129,E-5,19.0,0.25,73,137.0
130,E-4,19.0,0.25,73,137.0
131,F5,19.25,0.25,73,137.0
132,B-3,19.25,0.25,73,137.0
133,G5,19.5,0.25,73,137.0
134,G3,19.5,0.25,73,137.0
135,A5,19.75,0.25,73,137.0
136,E-3,19.75,0.25,73,137.0
137,B-5,20.0,0.75,73,137.0
138,F5,20.0,0.75,73,137.0
139,F3,20.0,0.5,73,137.0
140,F2,20.0,0.5,73,137.0
141,A3,20.5,0.5,73,137.0
142,C4,20.5,0.5,73,137.0
143,F4,20.5,0.5,73,137.0
144,A5,20.75,0.75,73,137.0
145,F5,20.75,0.75,73,137.0
146,F3,21.0,0.5,73,137.0
147,F5,21.5,1.5,73,137.0
148,C5,21.5,1.5,73,137.0
149,A4,21.5,1.5,73,137.0
150,F4,21.5,0.5,73,137.0
151,A3,21.5,0.5,73,137.0
152,C4,21.5,0.5,73,137.0
153,F3,22.0,0.5,73,137.0
154,F4,22.5,0.5,73,137.0
155,A3,22.5,0.5,73,137.0
156,C4,22.5,0.5,73,137.0
157,C5,23.0,0.25,73,137.0
158,F3,23.0,0.25,73,137.0
159,D5,23.25,0.25,73,137.0
160,F3,23.25,0.25,73,137.0
161,F5,23.5,0.25,73,137.0
162,F4,23.5,0.5,73,137.0
163,A3,23.5,0.5,73,137.0
164,C4,23.5,0.5,73,137.0
165,G5,23.75,0.25,73,137.0
166,B-5,24.0,0.75,73,137.0
167,F5,24.0,0.75,73,137.0
168,E2,24.0,0.5,73,137.0
169,E3,24.0,0.5,73,137.0
170,E4,24.5,0.5,73,137.0
171,C4,24.5,0.5,73,137.0
172,A5,24.75,0.75,73,137.0
173,F5,24.75,0.75,73,137.0
174,E3,25.0,0.5,73,137.0
175,F5,25.5,1.5,73,137.0
176,G4,25.5,1.5,73,137.0
177,C5,25.5,1.5,73,137.0
178,C4,25.5,0.5,73,137.0
179,E4,25.5,0.5,73,137.0
180,E3,26.0,0.5,73,137.0
181,C4,26.5,0.5,73,137.0
182,E4,26.5,0.5,73,137.0
183,E3,27.0,0.25,73,137.0
184,D5,27.0,0.5,73,137.0
185,G5,27.0,0.5,73,137.0
186,E3,27.25,0.25,73,137.0
187,C5,27.5,0.5,73,137.0
188,F5,27.5,0.5,73,137.0
189,E4,27.5,0.5,73,137.0
190,C4,27.5,0.5,73,137.0
191,D2,28.0,0.5,73,137.0
192,D3,28.0,0.5,73,137.0
193,D4,28.5,0.5,73,137.0
194,F3,28.5,0.5,73,137.0
195,A3,28.5,0.5,73,137.0
196,D3,29.0,0.5,73,137.0
197,C5,29.5,1.5,73,137.0
198,F5,29.5,1.5,73,137.0
199,F3,29.5,0.5,73,137.0
200,A3,29.5,0.5,73,137.0
201,D4,29.5,0.5,73,137.0
202,D3,30.0,0.5,73,137.0
203,F3,30.5,0.5,73,137.0
204,A3,30.5,0.5,73,137.0
205,D4,30.5,0.5,73,137.0
206,F6,31.0,2.5,73,137.0
207,D3,31.0,0.25,73,137.0
208,D3,31.25,0.25,73,137.0
209,D4,31.5,0.5,73,137.0
210,A3,31.5,0.5,73,137.0
211,F3,31.5,0.5,73,137.0
212,C#3,32.0,0.5,73,137.0
213,C#2,32.0,0.5,73,137.0
214,C#3,32.5,0.25,73,137.0
215,F3,32.75,0.25,73,137.0
216,G#3,32.75,0.25,73,137.0
217,C#4,32.75,0.25,73,137.0
218,E-2,33.25,0.25,73,137.0
219,E-3,33.5,0.5,73,137.0
220,G#4,33.5,0.75,73,137.0
221,C#5,33.5,0.75,73,137.0
222,G#5,33.5,0.75,73,137.0
223,E-4,34.0,0.25,73,137.0
224,B-3,34.25,0.25,73,137.0
225,G4,34.25,0.75,73,137.0
226,C#5,34.25,0.75,73,137.0
227,G5,34.25,0.75,73,137.0
228,G3,34.5,0.25,73,137.0
229,E-3,34.75,0.25,73,137.0
230,B-2,35.0,0.25,73,137.0
231,F4,35.0,1.5,73,137.0
232,B-4,35.0,1.5,73,137.0
233,F5,35.0,1.5,73,137.0
234,G2,35.25,0.25,73,137.0
235,E-2,35.5,0.5,73,137.0
236,F2,36.0,0.5,73,137.0
237,F3,36.0,0.5,73,137.0
238,E-4,36.5,1.0,73,137.0
239,G4,36.5,1.0,73,137.0
240,E-5,36.5,1.0,73,137.0
241,A3,36.5,0.5,73,137.0
242,C4,36.5,0.5,73,137.0
243,F3,37.0,0.5,73,137.0
244,A4,37.5,1.0,73,137.0
245,A3,37.5,0.5,73,137.0
246,F4,37.5,281/250,73,137.0
247,F5,37.5,281/250,73,137.0
248,F3,38.0,0.5,73,137.0
249,A3,38.5,0.5,73,137.0
250,C4,38.5,0.5,73,137.0
251,C4,39.0,0.5,73,137.0
252,F3,39.0,0.5,73,137.0
253,F4,39.5,0.5,73,137.0
254,C4,39.5,0.5,73,137.0
255,A3,39.5,0.5,73,137.0
256,F4,40.0,0.5,73,137.0
257,E3,40.0,0.5,73,137.0
258,E2,40.0,0.5,73,137.0
259,E4,40.5,0.5,73,137.0
260,C4,40.5,0.5,73,137.0
261,G3,40.5,0.5,73,137.0
262,F4,41.0,0.5,73,137.0
263,E3,41.0,0.5,73,137.0
264,G4,41.5,1.0,73,137.0
265,C4,41.5,0.5,73,137.0
266,G3,41.5,0.5,73,137.0
267,E3,42.0,0.5,73,137.0
268,E4,42.5,1.0,73,137.0
269,A4,42.5,1.0,73,137.0
270,C4,42.5,0.5,73,137.0
271,G3,42.5,0.5,73,137.0
272,E3,43.0,0.5,73,137.0
273,E4,43.5,1.0,73,137.0
274,A4,43.5,1.0,73,137.0
275,C4,43.5,0.5,73,137.0
276,G3,43.5,0.5,73,137.0
277,D2,44.0,0.5,73,137.0
278,D3,44.0,0.5,73,137.0
279,G4,44.5,0.5,73,137.0
280,F3,44.5,0.5,73,137.0
281,A3,44.5,0.5,73,137.0
282,F4,45.0,0.5,73,137.0
283,D3,45.0,0.5,73,137.0
284,F4,45.5,1.5,73,137.0
285,A3,45.5,0.5,73,137.0
286,F3,45.5,0.5,73,137.0
287,D3,46.0,0.5,73,137.0
288,A3,46.5,0.5,73,137.0
289,F3,46.5,0.5,73,137.0
290,C4,47.0,249/500,73,137.0
291,D3,47.0,0.5,73,137.0
292,F4,47.498,0.5,73,137.0
293,C4,47.498,0.5,73,137.0
294,F3,47.5,0.5,73,137.0
295,A3,47.5,0.5,73,137.0
296,F4,47.998,0.5,73,137.0
297,C4,47.998,0.5,73,137.0
298,C2,48.0,0.5,73,137.0
299,C3,48.0,0.5,73,137.0
300,E4,48.498,0.5,73,137.0
301,C4,48.498,0.5,73,137.0
302,E3,48.5,0.5,73,137.0
303,G3,48.5,0.5,73,137.0
304,F4,48.998,0.5,73,137.0
305,C4,48.998,0.5,73,137.0
306,C3,49.0,0.5,73,137.0
307,G4,49.498,1/500,73,137.0
308,C4,49.498,1/500,73,137.0
309,G3,49.5,0.5,73,137.0
310,E3,49.5,0.5,73,137.0
311,C3,50.0,0.5,73,137.0
312,G4,50.498,499/500,73,137.0
313,C4,50.498,499/500,73,137.0
314,G3,50.5,0.5,73,137.0
315,E3,50.5,0.5,73,137.0
316,C3,51.0,0.5,73,137.0
317,A4,51.496,1.0,73,137.0
318,E4,51.496,1.0,73,137.0
319,E3,51.5,0.5,73,137.0
320,G3,51.5,0.5,73,137.0
321,B-2,52.0,0.5,73,137.0
322,B-1,52.0,0.5,73,137.0
323,A4,52.496,0.75,73,137.0
324,E4,52.496,0.75,73,137.0
325,F3,52.5,0.5,73,137.0
326,B-3,52.5,0.5,73,137.0
327,B-2,53.0,0.5,73,137.0
328,G4,53.248,94/125,73,137.0
329,C4,53.248,0.5,73,137.0
330,B-3,53.5,0.5,73,137.0
331,F3,53.5,0.5,73,137.0
332,F4,53.998,0.5,73,137.0
333,C4,53.998,0.5,73,137.0
334,B-2,54.0,0.5,73,137.0
335,B-4,54.498,0.75,73,137.0
336,F3,54.5,0.5,73,137.0
337,B-3,54.5,0.5,73,137.0
338,B-2,55.0,0.5,73,137.0
339,D4,55.248,0.75,73,137.0
340,F4,55.248,0.75,73,137.0
341,F3,55.5,0.5,73,137.0
342,B-3,55.5,0.5,73,137.0
343,D4,55.998,1.0,73,137.0
344,F4,55.998,1.0,73,137.0
345,C#3,56.0,0.5,73,137.0
346,C#2,56.0,0.5,73,137.0
347,C#3,56.5,0.25,73,137.0
348,C#4,56.75,0.25,73,137.0
349,G#3,56.75,0.25,73,137.0
350,F3,56.75,0.25,73,137.0
351,D4,56.998,0.5,73,137.0
352,F4,56.998,0.5,73,137.0
353,E-2,57.25,0.25,73,137.0
354,D4,57.498,0.5,73,137.0
355,F4,57.498,0.5,73,137.0
356,E-3,57.5,0.5,73,137.0
357,D4,57.998,0.5,73,137.0
358,F4,57.998,0.5,73,137.0
359,E-4,58.0,0.25,73,137.0
360,B-3,58.25,0.25,73,137.0
361,F4,58.498,0.75,73,137.0
362,G#4,58.498,0.75,73,137.0
363,C#4,58.498,0.75,73,137.0
364,G3,58.5,0.25,73,137.0
365,E-3,58.75,0.25,73,137.0
366,B-2,59.0,0.25,73,137.0
367,F4,59.248,0.75,73,137.0
368,G#4,59.248,0.75,73,137.0
369,C#4,59.248,0.75,73,137.0
370,G2,59.25,0.25,73,137.0
371,E-2,59.5,0.5,73,137.0
372,E-4,59.998,0.25,73,137.0
373,G4,59.998,0.25,73,137.0
374,F3,60.0,0.5,73,137.0
375,F2,60.0,0.5,73,137.0
376,A3,60.5,0.25,73,137.0
377,C4,60.75,0.25,73,137.0
378,F4,60.998,0.5,73,137.0
379,F4,61.0,0.5,73,137.0
380,E-4,61.498,0.5,73,137.0
381,E-2,61.5,0.25,73,137.0
382,E-3,61.75,0.5,73,137.0
383,F4,61.998,0.5,73,137.0
384,E-3,62.25,0.25,73,137.0
385,C5,62.498,0.25,73,137.0
386,A4,62.498,0.25,73,137.0
387,F5,62.498,0.25,73,137.0
388,G3,62.5,0.25,73,137.0
389,B-3,62.75,0.25,73,137.0
390,C5,62.998,0.25,73,137.0
391,A4,62.998,0.25,73,137.0
392,F5,62.998,0.25,73,137.0
393,E-4,63.0,0.25,73,137.0
394,B-3,63.25,0.25,73,137.0
395,C5,63.498,0.25,73,137.0
396,A4,63.498,0.25,73,137.0
397,F5,63.498,0.25,73,137.0
398,G3,63.5,0.25,73,137.0
399,E-3,63.75,0.25,73,137.0
400,B-2,64.0,187/500,73,137.0
401,B-1,64.0,187/500,73,137.0
402,E-4,64.248,0.5,73,137.0
403,B-4,64.248,0.5,73,137.0
404,G4,64.248,0.5,73,137.0
405,E-5,64.248,0.5,73,137.0
406,E-4,64.748,0.5,73,137.0
407,B-4,64.748,0.5,73,137.0
408,G4,64.748,0.5,73,137.0
409,E-5,64.748,0.5,73,137.0
410,B-2,64.75,187/500,73,137.0
411,B-1,64.75,187/500,73,137.0
412,E-4,65.248,0.25,73,137.0
413,B-4,65.248,0.25,73,137.0
414,G4,65.248,0.25,73,137.0
415,E-5,65.248,0.25,73,137.0
416,E-4,65.498,1.0,73,137.0
417,B-4,65.498,1.0,73,137.0
418,G4,65.498,1.0,73,137.0
419,E-5,65.498,1.0,73,137.0
420,C3,65.5,1.0,73,137.0
421,C2,65.5,1.0,73,137.0
422,B-5,66.498,187/500,73,137.0
423,B-4,66.498,187/500,73,137.0
424,C4,66.5,0.25,73,137.0
425,F5,66.748,31/125,73,137.0
426,G3,66.75,0.25,73,137.0
427,D5,66.998,31/125,73,137.0
428,E3,67.0,0.25,73,137.0
429,B-5,67.248,187/500,73,137.0
430,B-4,67.248,187/500,73,137.0
431,C3,67.25,0.25,73,137.0
432,F5,67.498,31/125,73,137.0
433,C2,67.5,0.5,73,137.0
434,D5,67.748,31/125,73,137.0
435,C6,67.998,1.5,73,137.0
436,C5,67.998,1.5,73,137.0
437,F1,68.0,0.5,73,137.0
438,F2,68.0,0.5,73,137.0
439,F2,68.5,0.25,73,137.0
440,C3,68.75,0.25,73,137.0
441,F3,69.0,0.25,73,137.0
442,C3,69.25,0.25,73,137.0
443,G5,69.498,1.0,73,137.0
444,C5,69.498,1.0,73,137.0
445,C6,69.498,1.0,73,137.0
446,E5,69.498,1.0,73,137.0
447,F2,69.5,0.25,73,137.0
448,C3,69.75,0.25,73,137.0
449,A3,70.0,0.25,73,137.0
450,C3,70.25,0.25,73,137.0
451,F6,70.498,1.5,73,137.0
452,C6,70.498,1.5,73,137.0
453,A5,70.498,1.5,73,137.0
454,F5,70.498,1.5,73,137.0
455,F2,70.5,0.25,73,137.0
456,C3,70.75,0.25,73,137.0
457,F3,71.0,0.25,73,137.0
458,C3,71.25,0.25,73,137.0
459,F2,71.5,0.5,73,137.0
460,C5,71.998,0.5,73,137.0
461,C4,71.998,0.5,73,137.0
462,E1,72.0,0.5,73,137.0
463,E2,72.0,0.5,73,137.0
464,F5,72.498,0.5,73,137.0
465,A4,72.498,0.5,73,137.0
466,F4,72.498,0.5,73,137.0
467,E2,72.5,0.25,73,137.0
468,C3,72.75,0.25,73,137.0
469,F5,72.998,0.5,73,137.0
470,A4,72.998,0.5,73,137.0
471,F4,72.998,0.5,73,137.0
472,E3,73.0,0.25,73,137.0
473,C3,73.25,0.25,73,137.0
474,E5,73.498,0.5,73,137.0
475,E4,73.498,0.5,73,137.0
476,E2,73.5,0.25,73,137.0
477,C3,73.75,0.25,73,137.0
478,F5,73.998,0.5,73,137.0
479,F4,73.998,0.5,73,137.0
480,G3,74.0,0.25,73,137.0
481,C3,74.25,0.25,73,137.0
482,G5,74.498,1.0,73,137.0
483,C5,74.498,1.0,73,137.0
484,G4,74.498,1.0,73,137.0
485,E2,74.5,0.25,73,137.0
486,C3,74.75,0.25,73,137.0
487,E3,75.0,0.25,73,137.0
488,C3,75.25,0.25,73,137.0
489,A5,75.498,1.0,73,137.0
490,A4,75.498,1.0,73,137.0
491,C5,75.498,1.0,73,137.0
492,E5,75.498,1.0,73,137.0
493,E2,75.5,0.5,73,137.0
494,D1,76.0,0.5,73,137.0
495,D2,76.0,0.5,73,137.0
496,A5,76.498,0.75,73,137.0
497,A4,76.498,0.75,73,137.0
498,C5,76.498,0.75,73,137.0
499,E5,76.498,0.75,73,137.0
500,D2,76.5,0.25,73,137.0
501,A2,76.75,0.25,73,137.0
502,D3,77.0,0.25,73,137.0
503,G5,77.248,0.75,73,137.0
504,G4,77.248,0.75,73,137.0
505,A2,77.25,0.25,73,137.0
506,D2,77.5,0.25,73,137.0
507,A2,77.75,0.25,73,137.0
508,F5,77.998,0.5,73,137.0
509,F4,77.998,0.5,73,137.0
510,F3,78.0,0.25,73,137.0
511,A2,78.25,0.25,73,137.0
512,D2,78.5,0.25,73,137.0
513,A2,78.75,0.25,73,137.0
514,D3,79.0,0.25,73,137.0
515,A2,79.25,0.25,73,137.0
516,D2,79.5,0.5,73,137.0
517,F5,79.998,1.5,73,137.0
518,F4,79.998,1.5,73,137.0
519,C2,80.0,0.5,73,137.0
520,C3,80.0,0.5,73,137.0
521,C3,80.5,0.25,73,137.0
522,G3,80.75,0.25,73,137.0
523,C4,81.0,0.25,73,137.0
524,G3,81.25,0.25,73,137.0
525,C5,81.498,0.5,73,137.0
526,C4,81.498,0.5,73,137.0
527,C3,81.5,0.25,73,137.0
528,G3,81.75,0.25,73,137.0
529,F5,81.998,0.5,73,137.0
530,F4,81.998,0.5,73,137.0
531,D4,82.0,0.25,73,137.0
532,G3,82.25,0.25,73,137.0
533,F5,82.498,0.5,73,137.0
534,F4,82.498,0.5,73,137.0
535,C3,82.5,0.25,73,137.0
536,G3,82.75,0.25,73,137.0
537,E5,82.998,0.5,73,137.0
538,E4,82.998,0.5,73,137.0
539,E4,83.0,0.25,73,137.0
540,G3,83.25,0.25,73,137.0
541,F5,83.498,0.5,73,137.0
542,F4,83.498,0.5,73,137.0
543,C3,83.5,0.5,73,137.0
544,C6,83.998,1.0,73,137.0
545,C5,83.998,1.0,73,137.0
546,B-1,84.0,0.5,73,137.0
547,B-2,84.0,0.5,73,137.0
548,B-2,84.5,0.25,73,137.0
549,A5,84.748,0.75,73,137.0
550,A4,84.748,0.75,73,137.0
551,F3,84.75,0.25,73,137.0
552,B-3,85.0,0.25,73,137.0
553,F3,85.25,0.25,73,137.0
554,A5,85.498,0.5,73,137.0
555,A4,85.498,0.5,73,137.0
556,B-2,85.5,0.25,73,137.0
557,F3,85.75,0.25,73,137.0
558,A5,85.998,0.75,73,137.0
559,A4,85.998,0.75,73,137.0
560,D4,86.0,0.25,73,137.0
561,F3,86.25,0.25,73,137.0
562,B-2,86.5,0.25,73,137.0
563,G5,86.748,0.75,73,137.0
564,G4,86.748,0.75,73,137.0
565,F3,86.75,0.25,73,137.0
566,B-3,87.0,0.25,73,137.0
567,F3,87.25,0.25,73,137.0
568,F5,87.498,0.5,73,137.0
569,F4,87.498,0.5,73,137.0
570,B-2,87.5,0.5,73,137.0
571,B-4,87.998,0.75,73,137.0
572,B-5,87.998,0.75,73,137.0
573,C#3,88.0,0.5,73,137.0
574,C#2,88.0,0.5,73,137.0
575,C#3,88.5,0.25,73,137.0
576,F5,88.748,0.75,73,137.0
577,F4,88.748,0.75,73,137.0
578,B-4,88.748,0.75,73,137.0
579,C#4,88.75,0.25,73,137.0
580,F3,88.75,0.25,73,137.0
581,G#3,88.75,0.25,73,137.0
582,E-2,89.25,0.25,73,137.0
583,F5,89.498,1.0,73,137.0
584,F4,89.498,1.0,73,137.0
585,B-4,89.498,1.0,73,137.0
586,E-3,89.5,0.5,73,137.0
587,E-4,90.0,0.25,73,137.0
588,B-3,90.25,0.25,73,137.0
589,F5,90.498,0.5,73,137.0
590,F4,90.498,0.5,73,137.0
591,B-4,90.498,0.5,73,137.0
592,G3,90.5,0.25,73,137.0
593,E-3,90.75,0.25,73,137.0
594,F5,90.998,0.5,73,137.0
595,F4,90.998,0.5,73,137.0
596,B-4,90.998,0.5,73,137.0
597,B-2,91.0,0.25,73,137.0
598,G2,91.25,0.25,73,137.0
599,F5,91.498,0.5,73,137.0
600,F4,91.498,0.5,73,137.0
601,B-4,91.498,0.5,73,137.0
602,E-2,91.5,0.5,73,137.0
603,B-5,91.998,0.75,73,137.0
604,B-4,91.998,0.75,73,137.0
605,F2,92.0,0.5,73,137.0
606,F3,92.0,0.5,73,137.0
607,A3,92.5,0.25,73,137.0
608,B-5,92.748,0.75,73,137.0
609,B-4,92.748,0.75,73,137.0
610,C4,92.75,0.25,73,137.0
611,F4,93.0,0.5,73,137.0
612,B-5,93.498,1.0,73,137.0
613,B-4,93.498,1.0,73,137.0
614,E-2,93.5,0.25,73,137.0
615,E-3,93.75,0.5,73,137.0
616,E-3,94.25,0.25,73,137.0
617,E-5,94.498,0.5,73,137.0
618,A4,94.498,0.5,73,137.0
619,A5,94.498,0.5,73,137.0
620,G3,94.5,0.25,73,137.0
621,B-3,94.75,0.25,73,137.0
622,B-5,94.998,0.5,73,137.0
623,B-4,94.998,0.5,73,137.0
624,E-4,95.0,0.25,73,137.0
625,B-3,95.25,0.25,73,137.0
626,E-5,95.498,0.5,73,137.0
627,A4,95.498,0.5,73,137.0
628,A5,95.498,0.5,73,137.0
629,G3,95.5,0.25,73,137.0
630,E-3,95.75,0.25,73,137.0
631,F6,95.998,0.5,73,137.0
632,F5,95.998,0.5,73,137.0
633,A5,95.998,0.5,73,137.0
634,C6,95.998,0.5,73,137.0
635,E-3,96.0,187/500,73,137.0
636,E-2,96.0,187/500,73,137.0
637,F6,96.498,0.5,73,137.0
638,F5,96.498,0.5,73,137.0
639,A5,96.498,0.5,73,137.0
640,C6,96.498,0.5,73,137.0
641,E3,96.75,187/500,73,137.0
642,E2,96.75,187/500,73,137.0
643,F6,96.998,0.75,73,137.0
644,F5,96.998,0.75,73,137.0
645,A5,96.998,0.75,73,137.0
646,C6,96.998,0.75,73,137.0
647,F3,97.5,0.75,73,137.0
648,F2,97.5,0.75,73,137.0
649,E-6,97.748,0.5,73,137.0
650,E-5,97.748,0.5,73,137.0
651,G5,97.748,0.5,73,137.0
652,B-5,97.748,0.5,73,137.0
653,E-6,98.248,0.5,73,137.0
654,E-5,98.248,0.5,73,137.0
655,G5,98.248,0.5,73,137.0
656,B-5,98.248,0.5,73,137.0
657,F3,98.25,0.25,73,137.0
658,F4,98.5,0.5,73,137.0
659,C4,98.5,0.5,73,137.0
660,A3,98.5,0.5,73,137.0
661,E-6,98.748,0.25,73,137.0
662,E-5,98.748,0.25,73,137.0
663,G5,98.748,0.25,73,137.0
664,B-5,98.748,0.25,73,137.0
665,E-6,98.998,1.0,73,137.0
666,E-5,98.998,1.0,73,137.0
667,G5,98.998,1.0,73,137.0
668,B-5,98.998,1.0,73,137.0
669,B-2,99.0,0.5,73,137.0
670,B-3,99.0,0.5,73,137.0
671,A2,99.5,0.5,73,137.0
672,A3,99.5,0.5,73,137.0
673,G5,99.998,0.75,73,137.0
674,E-5,99.998,0.75,73,137.0
675,E-6,99.998,0.75,73,137.0
676,B-5,99.998,0.75,73,137.0
677,G3,100.0,0.75,73,137.0
678,G2,100.0,0.75,73,137.0
679,G#5,100.748,0.75,73,137.0
680,E5,100.748,0.75,73,137.0
681,E6,100.748,0.75,73,137.0
682,G3,100.75,0.75,73,137.0
683,C6,101.498,203/125,73,137.0
684,A5,101.498,1.5,73,137.0
685,F5,101.498,1.5,73,137.0
686,F6,101.498,1.5,73,137.0
687,G3,101.5,249/500,73,137.0
688,B-3,102.0,0.75,73,137.0
689,G3,102.75,0.75,73,137.0
690,D4,102.998,0.5,73,137.0
691,E4,103.498,0.5,73,137.0
692,G3,103.5,0.5,73,137.0
693,D4,103.998,1.5,73,137.0
694,F4,103.998,1.5,73,137.0
695,C2,104.0,0.75,73,137.0
696,C3,104.0,0.75,73,137.0
697,C3,104.75,0.75,73,137.0
698,D4,105.498,0.5,73,137.0
699,F4,105.498,0.5,73,137.0
700,C3,105.5,249/500,73,137.0
701,D4,105.998,1.0,73,137.0
702,F4,105.998,1.0,73,137.0
703,E3,106.0,0.75,73,137.0
704,B-3,106.0,0.75,73,137.0
705,G3,106.0,0.75,73,137.0
706,C3,106.75,0.75,73,137.0
707,B-4,106.998,1.0,73,137.0
708,C3,107.5,0.5,73,137.0
709,E4,107.998,0.5,73,137.0
710,C4,107.998,0.5,73,137.0
711,G4,107.998,0.5,73,137.0
712,F2,108.0,0.75,73,137.0
713,F3,108.0,0.75,73,137.0
714,C4,108.498,0.25,73,137.0
715,E4,108.748,0.25,73,137.0
716,F3,108.75,0.75,73,137.0
717,G4,108.998,0.25,73,137.0
718,C5,109.248,0.25,73,137.0
719,E5,109.498,0.25,73,137.0
720,F3,109.5,249/500,73,137.0
721,G5,109.748,0.25,73,137.0
722,C6,109.998,0.25,73,137.0
723,A3,110.0,0.75,73,137.0
724,G4,110.498,0.5,73,137.0
725,F3,110.75,0.75,73,137.0
726,F4,110.998,0.5,73,137.0
727,E4,111.498,0.5,73,137.0
728,F3,111.5,0.5,73,137.0
729,C4,111.998,1.0,73,137.0
730,E4,111.998,1.0,73,137.0
731,A3,111.998,1.0,73,137.0
732,D2,112.0,0.75,73,137.0
733,D3,112.0,0.75,73,137.0
734,D3,112.75,0.75,73,137.0
735,C4,112.998,1.0,73,137.0
736,D3,113.5,249/500,73,137.0
737,C4,113.998,0.75,73,137.0
738,F3,114.0,0.75,73,137.0
739,C4,114.0,0.75,73,137.0
740,A3,114.0,0.75,73,137.0
741,A3,114.748,0.75,73,137.0
742,D3,114.75,0.75,73,137.0
743,A3,115.498,0.5,73,137.0
744,D3,115.5,0.5,73,137.0
745,G3,115.998,0.75,73,137.0
746,G1,116.0,0.75,73,137.0
747,G2,116.0,0.75,73,137.0
748,G4,116.748,0.75,57,137.0
749,A3,116.748,0.25,73,137.0
750,G2,116.75,0.75,73,137.0
751,E4,117.498,0.5,57,137.0
752,G2,117.5,249/500,73,137.0
753,F4,117.998,1.0,57,137.0
754,F3,118.0,2.0,73,137.0
755,B-2,118.0,2.0,73,137.0
756,D3,118.0,2.0,73,137.0
757,G3,118.998,0.5,73,137.0
758,A3,119.498,0.5,73,137.0
759,G3,119.998,1.5,73,137.0
760,B-3,119.998,1.5,73,137.0
761,A1,120.0,0.75,73,137.0
762,A2,120.0,0.75,73,137.0
763,A2,120.75,0.75,73,137.0
764,G3,121.498,0.5,73,137.0
765,B-3,121.498,0.5,73,137.0
766,A2,121.5,249/500,73,137.0
767,G3,121.998,0.75,73,137.0
768,B-3,121.998,0.75,73,137.0
769,C3,122.0,2.0,73,137.0
770,G3,122.0,2.0,73,137.0
771,E3,122.0,2.0,73,137.0
772,G3,122.748,0.75,73,137.0
773,B-3,122.748,0.75,73,137.0
774,G3,123.498,0.5,73,137.0
775,B-3,123.498,0.5,73,137.0
776,A3,123.998,1.5,73,137.0
777,C4,123.998,1.5,73,137.0
778,B-1,124.0,0.75,73,137.0
779,B-2,124.0,0.75,73,137.0
780,B-2,124.75,0.75,73,137.0
781,A3,125.498,0.5,73,137.0
782,C4,125.498,0.5,73,137.0
783,B-2,125.5,249/500,73,137.0
784,A3,125.998,0.75,73,137.0
785,C4,125.998,0.75,73,137.0
786,F3,126.0,2.0,73,137.0
787,G#3,126.0,2.0,73,137.0
788,C#3,126.0,2.0,73,137.0
789,D4,126.748,0.75,73,137.0
790,C4,127.498,0.5,73,137.0
791,E4,127.498,0.5,73,137.0
792,A3,127.498,0.5,73,137.0
793,B-3,127.998,1.5,73,137.0
794,C#4,127.998,1.5,73,137.0
795,F4,127.998,1.5,73,137.0
796,C2,128.0,0.5,56,137.0
797,C3,128.0,0.5,56,137.0
798,C2,128.5,0.5,58,137.0
799,C3,128.5,0.5,58,137.0
800,C2,129.0,0.5,62,137.0
801,C3,129.0,0.5,62,137.0
802,B-3,129.498,0.5,73,137.0
803,C#4,129.498,0.5,73,137.0
804,F4,129.498,0.5,73,137.0
805,C2,129.5,0.5,67,137.0
806,C3,129.5,0.5,67,137.0
807,B-3,129.998,0.75,73,137.0
808,C#4,129.998,0.75,73,137.0
809,F4,129.998,0.75,73,137.0
810,C2,130.0,0.5,72,137.0
811,C3,130.0,0.5,72,137.0
812,C2,130.5,0.5,72,137.0
813,C3,130.5,0.5,72,137.0
814,B-3,130.748,0.75,73,137.0
815,C#4,130.748,0.75,73,137.0
816,F4,130.748,0.75,73,137.0
817,C2,131.0,0.5,74,137.0
818,C3,131.0,0.5,74,137.0
819,B-3,131.498,0.5,73,137.0
820,C#4,131.498,0.5,73,137.0
821,F4,131.498,0.5,73,137.0
822,F3,131.5,0.5,73,137.0
823,F2,131.5,0.5,73,137.0
824,E-4,131.998,1.0,73,137.0
825,G4,131.998,1.0,73,137.0
826,F3,132.5,0.5,73,137.0
827,F2,132.5,0.5,73,137.0
828,C4,132.998,1.0,73,137.0
829,F4,132.998,1.0,73,137.0
830,F2,133.0,249/500,73,137.0
831,F3,133.0,249/500,73,137.0
832,F2,133.5,0.5,73,137.0
833,F3,133.5,0.5,73,137.0
834,E-4,133.998,0.75,73,137.0
835,C4,133.998,0.75,73,137.0
836,C2,134.5,0.75,73,137.0
837,C3,134.5,0.75,73,137.0
838,C4,134.748,0.75,73,137.0
839,F4,134.748,0.75,73,137.0
840,E2,135.25,0.75,73,137.0
841,E3,135.25,0.75,73,137.0
842,C4,135.498,0.5,73,137.0
843,F4,135.498,0.5,73,137.0
844,F2,136.0,0.5,73,137.0
845,F3,136.0,0.5,73,137.0
846,C4,136.498,0.5,73,137.0
847,F4,136.498,0.5,73,137.0
848,F4,136.998,0.5,73,137.0
849,B-4,136.998,0.5,73,137.0
850,F2,137.25,0.25,73,137.0
851,F4,137.498,0.5,73,137.0
852,B-4,137.498,0.5,73,137.0
853,F1,137.5,0.25,73,137.0
854,F4,137.998,0.25,73,137.0
855,B-4,137.998,0.25,73,137.0
856,F4,138.248,0.25,73,137.0
857,B-4,138.248,0.25,73,137.0
858,G4,138.498,0.75,73,137.0
859,C5,138.498,0.75,73,137.0
860,E4,139.248,0.75,73,137.0
861,B-4,139.248,0.75,73,137.0
862,A2,139.5,1.0,72,137.0
863,A1,139.5,1.0,72,137.0
864,F4,139.998,0.5,73,137.0
865,A4,139.998,0.5,73,137.0
866,C4,139.998,0.5,73,137.0
867,B-2,140.5,0.5,73,137.0
868,B-1,140.5,0.5,73,137.0
869,F4,140.998,0.5,73,137.0
870,A4,140.998,0.5,73,137.0
871,C4,140.998,0.5,73,137.0
872,F3,141.0,0.5,73,137.0
873,B-3,141.0,0.5,73,137.0
874,F3,141.498,0.25,73,137.0
875,B-2,141.5,0.25,73,137.0
876,B-2,141.75,0.25,73,137.0
877,B-3,142.0,0.5,73,137.0
878,F3,142.0,0.5,73,137.0
879,B-2,142.5,0.5,73,137.0
880,F5,142.998,0.5,73,137.0
881,F4,142.998,0.5,73,137.0
882,B-3,143.0,0.5,73,137.0
883,F3,143.0,0.5,73,137.0
884,F5,143.498,0.5,73,137.0
885,F4,143.498,0.5,73,137.0
886,B-2,143.5,0.25,73,137.0
887,B-2,143.75,0.25,73,137.0
888,G5,143.998,0.25,73,137.0
889,G4,143.998,0.25,73,137.0
890,B-3,144.0,0.5,73,137.0
891,F3,144.0,0.5,73,137.0
892,A5,144.248,0.5,73,137.0
893,A4,144.248,0.5,73,137.0
894,B-1,144.5,0.5,73,137.0
895,B-2,144.5,0.5,73,137.0
896,A5,144.748,0.25,73,137.0
897,D5,144.748,0.25,73,137.0
898,A4,144.748,0.25,73,137.0
899,A5,144.998,0.5,73,137.0
900,D5,144.998,0.5,73,137.0
901,A4,144.998,0.5,73,137.0
902,F3,145.0,0.5,73,137.0
903,B-3,145.0,0.5,73,137.0
904,D4,145.498,0.25,73,137.0
905,B-2,145.5,0.25,73,137.0
906,F4,145.748,0.25,73,137.0
907,B-2,145.75,0.25,73,137.0
908,A4,145.998,0.5,73,137.0
909,F3,146.0,0.5,73,137.0
910,B-3,146.0,0.5,73,137.0
911,F4,146.498,0.25,73,137.0
912,B-2,146.5,0.5,73,137.0
913,A4,146.748,0.25,73,137.0
914,D5,146.998,0.5,73,137.0
915,F3,147.0,0.5,73,137.0
916,B-3,147.0,0.5,73,137.0
917,A4,147.498,0.25,73,137.0
918,B-2,147.5,0.25,73,137.0
919,D5,147.748,0.25,73,137.0
920,B-2,147.75,0.25,73,137.0
921,F5,147.998,0.5,73,137.0
922,F3,148.0,0.5,73,137.0
923,B-3,148.0,0.5,73,137.0
924,D5,148.498,0.25,73,137.0
925,A1,148.5,0.5,73,137.0
926,A2,148.5,0.5,73,137.0
927,F5,148.748,0.25,73,137.0
928,A5,148.998,0.25,73,137.0
929,E3,149.0,0.5,73,137.0
930,A3,149.0,0.5,73,137.0
931,F5,149.248,0.25,73,137.0
932,D5,149.498,0.25,73,137.0
933,A2,149.5,0.25,73,137.0
934,A4,149.748,0.25,73,137.0
935,A2,149.75,0.25,73,137.0
936,F4,149.998,0.25,73,137.0
937,E3,150.0,0.5,73,137.0
938,A3,150.0,0.5,73,137.0
939,D4,150.248,0.25,73,137.0
940,B-3,150.498,0.5,73,137.0
941,A2,150.5,0.5,73,137.0
942,F5,150.998,0.5,73,137.0
943,F4,150.998,0.5,73,137.0
944,E3,151.0,0.5,73,137.0
945,A3,151.0,0.5,73,137.0
946,F5,151.498,0.5,73,137.0
947,F4,151.498,0.5,73,137.0
948,A2,151.5,0.25,73,137.0
949,A2,151.75,0.25,73,137.0
950,G5,151.998,0.25,73,137.0
951,G4,151.998,0.25,73,137.0
952,E3,152.0,0.5,73,137.0
953,A3,152.0,0.5,73,137.0
954,A5,152.248,0.5,73,137.0
955,A4,152.248,0.5,73,137.0
956,A2,152.5,0.5,73,137.0
957,A1,152.5,0.5,73,137.0
958,A5,152.748,0.25,73,137.0
959,C5,152.748,0.25,73,137.0
960,E5,152.748,0.25,73,137.0
961,A4,152.748,0.25,73,137.0
962,A3,153.0,0.5,73,137.0
963,E3,153.0,0.5,73,137.0
964,A2,153.5,0.25,73,137.0
965,A2,153.75,0.25,73,137.0
966,A5,153.998,1.0,73,137.0
967,C5,153.998,1.0,73,137.0
968,E5,153.998,1.0,73,137.0
969,A4,153.998,1.0,73,137.0
970,A3,154.0,0.5,73,137.0
971,E3,154.0,0.5,73,137.0
972,A2,154.5,0.5,73,137.0
973,B-5,154.998,0.5,73,137.0
974,B-4,154.998,0.5,73,137.0
975,A3,155.0,0.5,73,137.0
976,E3,155.0,0.5,73,137.0
977,A5,155.498,1.5,73,137.0
978,C5,155.498,1.5,73,137.0
979,E5,155.498,1.5,73,137.0
980,A4,155.498,1.5,73,137.0
981,A2,155.5,0.25,73,137.0
982,A3,155.75,0.25,73,137.0
983,A2,156.0,0.25,73,137.0
984,A3,156.25,0.25,73,137.0
985,G1,156.5,0.5,73,137.0
986,G2,156.5,0.5,73,137.0
987,B-5,156.998,0.5,73,137.0
988,B-4,156.998,0.5,73,137.0
989,D3,157.0,0.5,73,137.0
990,G3,157.0,0.5,73,137.0
991,A5,157.498,0.5,73,137.0
992,C5,157.498,0.5,73,137.0
993,E5,157.498,0.5,73,137.0
994,A4,157.498,0.5,73,137.0
995,G2,157.5,0.25,73,137.0
996,G2,157.75,0.25,73,137.0
997,D3,158.0,0.5,73,137.0
998,G3,158.0,0.5,73,137.0
999,A5,158.498,0.5,73,137.0
1000,C5,158.498,0.5,73,137.0
1001,E5,158.498,0.5,73,137.0
1002,A4,158.498,0.5,73,137.0
1003,G2,158.5,0.5,73,137.0
1004,A4,158.998,0.25,73,137.0
1005,D3,159.0,0.5,73,137.0
1006,G3,159.0,0.5,73,137.0
1007,C5,159.248,0.25,73,137.0
1008,E5,159.498,0.25,73,137.0
1009,G2,159.5,0.25,73,137.0
1010,A5,159.748,0.25,73,137.0
1011,G2,159.75,0.25,73,137.0
1012,C6,159.998,0.25,73,137.0
1013,D3,160.0,0.5,73,137.0
1014,G3,160.0,0.5,73,137.0
1015,E6,160.248,0.25,73,137.0
1016,A6,160.498,0.25,73,137.0
1017,A2,160.5,0.5,73,137.0
1018,A1,160.5,0.5,73,137.0
1019,E6,160.748,0.25,73,137.0
1020,C6,160.998,0.25,73,137.0
1021,A3,161.0,0.5,73,137.0
1022,E3,161.0,0.5,73,137.0
1023,A5,161.248,0.25,73,137.0
1024,E5,161.498,0.25,73,137.0
1025,A2,161.5,0.25,73,137.0
1026,C5,161.748,0.25,73,137.0
1027,A2,161.75,0.25,73,137.0
1028,A4,161.998,0.5,73,137.0
1029,A3,162.0,0.5,73,137.0
1030,E3,162.0,0.5,73,137.0
1031,B-5,162.498,1.0,73,137.0
1032,B-4,162.498,1.0,73,137.0
1033,C#3,162.5,0.5,73,137.0
1034,C#2,162.5,0.5,73,137.0
1035,C#4,163.0,0.5,73,137.0
1036,A3,163.0,0.5,73,137.0
1037,A5,163.498,1.0,73,137.0
1038,A4,163.498,1.0,73,137.0
1039,C#3,163.5,0.5,73,137.0
1040,C#4,164.0,0.5,73,137.0
1041,A3,164.0,0.5,73,137.0
1042,G5,164.498,0.75,73,137.0
1043,G4,164.498,0.75,73,137.0
1044,D2,164.5,0.5,73,137.0
1045,D3,164.5,0.5,73,137.0
1046,A3,165.0,0.5,73,137.0
1047,F5,165.248,0.75,73,137.0
1048,F4,165.248,0.75,73,137.0
1049,D3,165.5,0.25,73,137.0
1050,D3,165.75,0.25,73,137.0
1051,B-4,165.998,0.5,73,137.0
1052,B-5,165.998,0.5,73,137.0
1053,A3,166.0,0.5,73,137.0
1054,D4,166.0,0.5,73,137.0
1055,D3,166.5,0.5,73,137.0
1056,A3,167.0,0.5,73,137.0
1057,D4,167.0,0.5,73,137.0
1058,B-4,167.498,1.0,73,137.0
1059,B-5,167.498,1.0,73,137.0
1060,D3,167.5,0.25,73,137.0
1061,D3,167.75,0.25,73,137.0
1062,A3,168.0,0.5,73,137.0
1063,C#5,168.498,437/500,73,137.0
1064,A5,168.498,1.0,73,137.0
1065,A4,168.498,1.0,73,137.0
1066,D2,168.5,0.5,73,137.0
1067,D3,169.0,0.5,73,137.0
1068,C5,169.498,0.75,73,137.0
1069,C6,169.498,0.75,73,137.0
1070,A5,169.498,0.5,73,137.0
1071,E5,169.498,0.5,73,137.0
1072,C#2,169.5,0.5,73,137.0
1073,C#3,170.0,0.5,73,137.0
1074,A5,170.248,0.75,73,137.0
1075,A4,170.248,0.75,73,137.0
1076,C2,170.5,0.5,73,137.0
1077,G5,170.998,0.5,73,137.0
1078,G4,170.998,0.5,73,137.0
1079,C3,171.0,0.5,73,137.0
1080,F4,171.498,0.5,73,137.0
1081,F5,171.498,0.5,73,137.0
1082,F1,171.5,0.5,73,137.0
1083,D4,171.998,0.25,73,137.0
1084,F2,172.0,0.5,73,137.0
1085,F4,172.248,0.25,73,137.0
1086,A4,172.498,0.25,73,137.0
1087,B-1,172.5,0.5,73,137.0
1088,B-2,172.5,0.5,73,137.0
1089,D5,172.748,0.25,73,137.0
1090,F5,172.998,0.25,73,137.0
1091,F3,173.0,0.5,73,137.0
1092,B-3,173.0,0.5,73,137.0
1093,A5,173.248,0.25,73,137.0
1094,D6,173.498,0.25,73,137.0
1095,B-2,173.5,0.25,73,137.0
1096,A5,173.748,0.25,73,137.0
1097,B-2,173.75,0.25,73,137.0
1098,F5,173.998,0.25,73,137.0
1099,F3,174.0,0.5,73,137.0
1100,B-3,174.0,0.5,73,137.0
1101,D5,174.248,0.25,73,137.0
1102,A4,174.498,0.25,73,137.0
1103,B-2,174.5,0.5,73,137.0
1104,F4,174.748,0.25,73,137.0
1105,D4,174.998,0.5,73,137.0
1106,F3,175.0,0.5,73,137.0
1107,B-3,175.0,0.5,73,137.0
1108,D6,175.498,0.5,73,137.0
1109,B-2,175.5,0.25,73,137.0
1110,B-2,175.75,0.25,73,137.0
1111,D5,175.998,0.5,73,137.0
1112,F3,176.0,0.5,73,137.0
1113,B-3,176.0,0.5,73,137.0
1114,C#6,176.498,0.5,73,137.0
1115,C3,176.5,0.5,73,137.0
1116,C2,176.5,0.5,73,137.0
1117,C#5,176.998,0.5,73,137.0
1118,C4,177.0,0.5,73,137.0
1119,G3,177.0,0.5,73,137.0
1120,F5,177.498,0.5,73,137.0
1121,F4,177.498,0.5,73,137.0
1122,C3,177.5,0.25,73,137.0
1123,C3,177.75,0.25,73,137.0
1124,F5,177.998,0.5,73,137.0
1125,F4,177.998,0.5,73,137.0
1126,C4,178.0,0.5,73,137.0
1127,G3,178.0,0.5,73,137.0
1128,G5,178.498,0.25,73,137.0
1129,G4,178.498,0.25,73,137.0
1130,C3,178.5,0.5,73,137.0
1131,A5,178.748,0.5,73,137.0
1132,A4,178.748,0.5,73,137.0
1133,C4,179.0,0.5,73,137.0
1134,G3,179.0,0.5,73,137.0
1135,A5,179.248,0.25,73,137.0
1136,A4,179.248,0.25,73,137.0
1137,D5,179.248,0.25,73,137.0
1138,C3,179.5,0.25,73,137.0
1139,C3,179.75,0.25,73,137.0
1140,A5,179.998,0.5,73,137.0
1141,A4,179.998,0.5,73,137.0
1142,D5,179.998,0.5,73,137.0
1143,C4,180.0,0.5,73,137.0
1144,G3,180.0,0.5,73,137.0
1145,D4,180.498,0.25,73,137.0
1146,A1,180.5,0.5,73,137.0
1147,A2,180.5,0.5,73,137.0
1148,F4,180.748,0.25,73,137.0
1149,A4,180.998,0.5,73,137.0
1150,A3,181.0,0.5,73,137.0
1151,E3,181.0,0.5,73,137.0
1152,F4,181.498,0.25,73,137.0
1153,A2,181.5,0.25,73,137.0
1154,A4,181.748,0.25,73,137.0
1155,A2,181.75,0.25,73,137.0
1156,D5,181.998,0.5,73,137.0
1157,E3,182.0,0.5,73,137.0
1158,A3,182.0,0.5,73,137.0
1159,A4,182.498,0.25,73,137.0
1160,C#3,182.5,0.5,73,137.0
1161,C#2,182.5,0.5,73,137.0
1162,D5,182.748,0.25,73,137.0
1163,F5,182.998,0.5,73,137.0
1164,C#4,183.0,0.5,73,137.0
1165,A3,183.0,0.5,73,137.0
1166,D5,183.498,0.25,73,137.0
1167,C#3,183.5,0.5,73,137.0
1168,F5,183.748,0.25,73,137.0
1169,E5,183.998,0.25,73,137.0
1170,A3,184.0,0.5,73,137.0
1171,C#4,184.0,0.5,73,137.0
1172,C5,184.248,0.25,73,137.0
1173,A4,184.498,0.25,73,137.0
1174,D3,184.5,0.5,73,137.0
1175,D2,184.5,0.5,73,137.0
1176,E4,184.748,0.25,73,137.0
1177,C4,184.998,0.25,73,137.0
1178,D4,185.0,0.5,73,137.0
1179,A3,185.0,0.5,73,137.0
1180,E4,185.248,0.25,73,137.0
1181,A4,185.498,0.5,73,137.0
1182,D3,185.5,0.25,73,137.0
1183,D3,185.75,0.25,73,137.0
1184,F5,185.998,0.5,73,137.0
1185,F4,185.998,0.5,73,137.0
1186,D4,186.0,0.5,73,137.0
1187,A3,186.0,0.5,73,137.0
1188,F5,186.498,0.5,73,137.0
1189,F4,186.498,0.5,73,137.0
1190,C2,186.5,0.25,73,137.0
1191,C3,186.75,0.25,73,137.0
1192,G5,186.998,0.25,73,137.0
1193,G4,186.998,0.25,73,137.0
1194,E3,187.0,0.25,73,137.0
1195,A5,187.248,0.5,73,137.0
1196,A4,187.248,0.5,73,137.0
1197,G3,187.25,0.25,73,137.0
1198,C4,187.5,0.25,73,137.0
1199,A5,187.748,0.25,73,137.0
1200,A4,187.748,0.25,73,137.0
1201,C5,187.748,0.25,73,137.0
1202,E5,187.748,0.25,73,137.0
1203,G3,187.75,0.25,73,137.0
1204,E3,188.0,0.25,73,137.0
1205,C3,188.25,0.25,73,137.0
1206,B-2,188.5,0.5,73,137.0
1207,B-1,188.5,0.5,73,137.0
1208,A5,188.998,1.0,73,137.0
1209,A4,188.998,1.0,73,137.0
1210,C5,188.998,1.0,73,137.0
1211,E5,188.998,1.0,73,137.0
1212,B-3,189.0,0.5,73,137.0
1213,F3,189.0,0.5,73,137.0
1214,B-2,189.5,0.5,73,137.0
1215,D6,189.998,0.5,73,137.0
1216,D5,189.998,0.5,73,137.0
1217,B-3,190.0,0.5,73,137.0
1218,F3,190.0,0.5,73,137.0
1219,A5,190.498,1.0,73,137.0
1220,C5,190.498,1.0,73,137.0
1221,E5,190.498,1.0,73,137.0
1222,C6,190.498,1.0,73,137.0
1223,C2,190.5,0.5,73,137.0
1224,C3,190.5,0.5,73,137.0
1225,G3,191.0,0.5,73,137.0
1226,C4,191.0,0.5,73,137.0
1227,A5,191.498,0.5,73,137.0
1228,A4,191.498,0.5,73,137.0
1229,C3,191.5,0.5,73,137.0
1230,E6,191.998,0.5,73,137.0
1231,E5,191.998,0.5,73,137.0
1232,G3,192.0,0.5,73,137.0
1233,C4,192.0,0.5,73,137.0
1234,F6,192.498,0.5,73,137.0
1235,A5,192.498,0.5,73,137.0
1236,F5,192.498,0.5,73,137.0
1237,A2,192.5,0.5,73,137.0
1238,A1,192.5,0.5,73,137.0
1239,E3,193.0,0.5,73,137.0
1240,A3,193.0,0.5,73,137.0
1241,A2,193.5,0.5,73,137.0
1242,E3,194.0,0.5,73,137.0
1243,A3,194.0,0.5,73,137.0
1244,D2,194.5,0.5,73,137.0
1245,D3,194.5,0.5,73,137.0
1246,F6,194.998,2.0,73,137.0
1247,A5,194.998,2.0,73,137.0
1248,F5,194.998,2.0,73,137.0
1249,D4,195.0,0.5,73,137.0
1250,A3,195.0,0.5,73,137.0
1251,D3,195.5,0.5,73,137.0
1252,A3,196.0,0.5,73,137.0
1253,D4,196.0,0.5,73,137.0
1254,G2,196.5,0.5,73,137.0
1255,G1,196.5,0.5,73,137.0
1256,D3,197.0,0.5,73,137.0
1257,G3,197.0,0.5,73,137.0
1258,F5,197.498,0.5,73,137.0
1259,F4,197.498,0.5,73,137.0
1260,G2,197.5,0.5,73,137.0
1261,C6,197.998,78/125,73,137.0
1262,C5,197.998,78/125,73,137.0
1263,D3,198.0,0.5,73,137.0
1264,G3,198.0,0.5,73,137.0
1265,F5,198.498,0.5,73,137.0
1266,F4,198.498,0.5,73,137.0
1267,G4,198.5,0.25,73,137.0
1268,D4,198.75,0.25,73,137.0
1269,F5,198.998,0.5,73,137.0
1270,F4,198.998,0.5,73,137.0
1271,B-3,199.0,0.25,73,137.0
1272,G3,199.25,0.25,73,137.0
1273,F6,199.498,0.5,58,137.0
1274,F5,199.498,0.5,58,137.0
1275,D3,199.5,0.25,73,137.0
1276,B-2,199.75,0.25,73,137.0
1277,C7,199.998,78/125,58,137.0
1278,C6,199.998,78/125,58,137.0
1279,G2,200.0,0.5,73,137.0
1280,F6,200.498,0.5,58,137.0
1281,F5,200.498,0.5,58,137.0
1282,C3,200.5,0.5,73,137.0
1283,C2,200.5,0.5,73,137.0
1284,F6,200.998,0.5,58,137.0
1285,F5,200.998,0.5,58,137.0
1286,F5,201.498,0.5,73,137.0
1287,F4,201.498,0.5,73,137.0
1288,F6,201.998,0.5,73,137.0
1289,F5,201.998,0.5,73,137.0
1290,C6,202.498,0.5,73,137.0
1291,C5,202.498,0.5,73,137.0
1292,C2,202.5,0.75,73,137.0
1293,C3,202.5,0.75,73,137.0
1294,C6,202.998,0.5,73,137.0
1295,C5,202.998,0.5,73,137.0
1296,C2,203.25,0.75,73,137.0
1297,C3,203.25,0.75,73,137.0
1298,B-5,203.498,0.5,73,137.0
1299,B-4,203.498,0.5,73,137.0
1300,A5,203.998,0.5,73,137.0
1301,A4,203.998,0.5,73,137.0
1302,C2,204.0,0.5,73,137.0
1303,C3,204.0,0.5,73,137.0
1304,A4,204.498,2.5,73,137.0
1305,F5,204.498,2.5,73,137.0
1306,F4,204.498,2.5,73,137.0
1307,F2,205.5,0.75,73,137.0
1308,F1,205.5,0.75,73,137.0
1309,F5,206.998,0.75,73,137.0
1310,A4,206.998,0.75,73,137.0
1311,D5,206.998,0.75,73,137.0
1312,A5,206.998,0.75,73,137.0
1313,D5,207.748,0.75,73,137.0
1314,B-4,207.748,0.75,73,137.0
1315,G5,207.748,0.75,73,137.0
1316,D5,208.498,0.5,73,137.0
1317,B-4,208.498,0.5,73,137.0
1318,G5,208.498,0.5,73,137.0
1319,D5,208.998,0.75,73,137.0
1320,B-4,208.998,0.75,73,137.0
1321,G5,208.998,0.75,73,137.0
1322,F5,209.748,0.75,73,137.0
1323,F4,209.748,0.75,73,137.0
1324,D5,209.748,0.75,73,137.0
1325,B-4,209.748,0.75,73,137.0
1326,F5,210.498,0.5,73,137.0
1327,F4,210.498,0.5,73,137.0
1328,D5,210.498,0.5,73,137.0
1329,B-4,210.498,0.5,73,137.0
1330,F5,210.998,1.0,73,137.0
1331,F4,210.998,1.0,73,137.0
1332,D5,210.998,1.0,73,137.0
1333,B-4,210.998,1.0,73,137.0
1334,C5,211.998,1.0,73,137.0
1335,E4,211.998,1.0,73,137.0
1336,G4,211.998,1.0,73,137.0
1337,E5,211.998,1.0,73,137.0
1338,D5,212.998,0.75,73,137.0
1339,D4,212.998,0.75,73,137.0
1340,E5,213.748,0.75,73,137.0
1341,E4,213.748,0.75,73,137.0
1342,F5,214.498,0.5,73,137.0
1343,F4,214.498,0.5,73,137.0
1344,F5,215.998,1.0,73,137.0
1345,F4,215.998,1.0,73,137.0
