,note_name,start_time,duration,velocity,tempo
0,G5,2.0,1.5,100,99.0
1,G4,2.0,1.5,100,99.0
2,B-4,2.0,1.5,100,99.0
3,C#5,2.0,1.5,100,99.0
4,D2,2.0,2.0,80,99.0
5,D1,2.0,2.0,80,99.0
6,A5,3.5,0.25,100,99.0
7,C#5,3.5,0.25,100,99.0
8,C5,3.75,0.25,100,99.0
9,G5,3.75,0.25,100,99.0
10,B-4,4.0,1.0,100,99.0
11,F5,4.0,1.0,100,99.0
12,D2,4.0,2.0,80,99.0
13,D1,4.0,2.0,80,99.0
14,G5,5.0,1.0,100,99.0
15,C5,5.0,1.0,100,99.0
16,D3,6.0,0.25,80,99.0
17,B-4,6.0,1.0,100,99.0
18,F5,6.0,1.0,100,99.0
19,D3,6.25,31/125,80,99.0
20,D2,6.5,0.5,80,99.0
21,D1,7.0,1.0,80,99.0
22,E-5,7.0,1.0,100,99.0
23,A4,7.0,1.0,100,99.0
24,D1,8.0,2.0,80,99.0
25,D5,8.0,1.0,100,99.0
26,F4,8.0,1.0,100,99.0
27,E-5,9.0,1.0,100,99.0
28,A4,9.0,1.0,100,99.0
29,D3,10.0,0.25,80,99.0
30,G4,10.0,1.0,100,99.0
31,D5,10.0,1.0,100,99.0
32,D3,10.25,31/125,80,99.0
33,D2,10.5,0.5,80,99.0
34,D1,11.0,1.0,80,99.0
35,G4,11.0,1.0,100,99.0
36,A4,11.0,1.0,100,99.0
37,D5,11.0,1.0,100,99.0
38,D4,11.0,1.0,100,99.0
39,D1,12.0,2.0,80,99.0
40,A4,12.0,1.0,100,99.0
41,E-4,12.0,1.0,100,99.0
42,C4,12.0,1.0,100,99.0
43,C5,12.0,1.0,100,99.0
44,E-4,13.0,1.0,100,99.0
45,A4,13.0,1.0,100,99.0
46,D5,13.0,1.0,100,99.0
47,G3,14.0,0.25,100,99.0
48,F3,14.0,0.25,100,99.0
49,D4,14.0,0.25,100,99.0
50,A3,14.0,0.25,100,99.0
51,D3,14.0,0.25,80,99.0
52,D2,14.0,0.25,80,99.0
53,A3,14.25,0.5,100,99.0
54,G3,14.25,0.5,100,99.0
55,F3,14.25,0.5,100,99.0
56,D4,14.25,0.5,100,99.0
57,D3,14.25,0.5,80,99.0
58,D2,14.25,0.5,80,99.0
59,F3,14.75,0.25,100,99.0
60,A3,14.75,0.25,100,99.0
61,D4,14.75,0.25,100,99.0
62,G3,14.75,0.25,100,99.0
63,D3,14.75,0.25,80,99.0
64,D2,14.75,0.25,80,99.0
65,F3,15.0,0.25,100,99.0
66,A3,15.0,0.25,100,99.0
67,D4,15.0,0.25,100,99.0
68,G3,15.0,0.25,100,99.0
69,D2,15.0,0.25,80,99.0
70,D3,15.0,0.25,80,99.0
71,D4,15.25,249/500,100,99.0
72,F3,15.25,249/500,100,99.0
73,G3,15.25,249/500,100,99.0
74,A3,15.25,249/500,100,99.0
75,D2,15.25,249/500,80,99.0
76,D3,15.25,249/500,80,99.0
77,A3,15.748,63/250,100,99.0
78,G3,15.748,63/250,100,99.0
79,C#4,15.748,63/250,100,99.0
80,A1,15.748,63/250,80,99.0
81,A2,15.748,63/250,80,99.0
82,A3,16.248,31/125,100,99.0
83,G3,16.248,31/125,100,99.0
84,C#4,16.248,31/125,100,99.0
85,A1,16.248,31/125,80,99.0
86,A2,16.248,31/125,80,99.0
87,C#4,16.496,0.25,100,99.0
88,A3,16.496,0.25,100,99.0
89,G3,16.496,0.25,100,99.0
90,A1,16.496,0.25,80,99.0
91,A2,16.496,0.25,80,99.0
92,C#4,16.746,0.5,100,99.0
93,G3,16.746,0.5,100,99.0
94,A3,16.746,0.5,100,99.0
95,A1,16.746,0.5,80,99.0
96,A2,16.746,0.5,80,99.0
97,D4,17.246,0.5,100,99.0
98,D5,17.246,0.5,100,99.0
99,F5,17.746,0.5,100,99.0
100,F4,17.746,0.5,100,99.0
101,D5,18.246,0.5,100,99.0
102,G4,18.246,0.5,100,99.0
103,B-4,18.246,0.5,100,99.0
104,G5,18.246,0.5,100,99.0
105,B-0,18.248,281/500,80,99.0
106,B-1,18.248,281/500,80,99.0
107,B-2,18.748,0.25,80,99.0
108,A4,18.748,0.25,100,99.0
109,A5,18.748,0.25,100,99.0
110,G4,18.998,0.5,100,99.0
111,G5,18.998,0.5,100,99.0
112,F3,18.998,0.5,80,99.0
113,D3,18.998,0.5,80,99.0
114,B-3,18.998,0.5,80,99.0
115,F5,19.498,0.5,100,99.0
116,F4,19.498,0.5,100,99.0
117,B-0,19.498,0.5,80,99.0
118,B-1,19.498,0.5,80,99.0
119,G4,19.998,0.25,100,99.0
120,E5,19.998,0.25,100,99.0
121,G5,19.998,0.25,100,99.0
122,C5,19.998,0.25,100,99.0
123,C2,19.998,0.25,80,99.0
124,C1,19.998,0.25,80,99.0
125,G4,20.248,1.0,100,99.0
126,E5,20.248,1.0,100,99.0
127,G5,20.248,1.0,100,99.0
128,C5,20.248,1.0,100,99.0
129,C2,20.248,0.5,80,99.0
130,C1,20.248,0.5,80,99.0
131,C4,20.748,31/250,80,99.0
132,G3,20.872,31/250,80,99.0
133,E3,20.998,31/250,80,99.0
134,C3,21.122,31/250,80,99.0
135,G2,21.248,31/250,80,99.0
136,D5,21.248,0.5,100,99.0
137,D4,21.248,0.5,100,99.0
138,E2,21.372,31/250,80,99.0
139,C2,21.498,31/250,80,99.0
140,G1,21.622,31/250,80,99.0
141,E1,21.748,31/250,80,99.0
142,F5,21.748,0.5,100,99.0
143,F4,21.748,0.5,100,99.0
144,C1,21.872,47/125,80,99.0
145,C5,22.248,0.5,100,99.0
146,D5,22.248,0.5,100,99.0
147,G4,22.248,0.5,100,99.0
148,G5,22.248,0.5,100,99.0
149,D2,22.248,281/500,80,99.0
150,D1,22.248,281/500,80,99.0
151,D3,22.748,0.25,80,99.0
152,E5,22.748,0.25,100,99.0
153,E6,22.748,0.25,100,99.0
154,E5,22.998,0.5,100,99.0
155,E6,22.998,0.5,100,99.0
156,D4,22.998,0.5,80,99.0
157,F3,22.998,0.5,80,99.0
158,A3,22.998,0.5,80,99.0
159,C6,23.498,0.5,100,99.0
160,C5,23.498,0.5,100,99.0
161,D2,23.498,0.5,80,99.0
162,D1,23.498,0.5,80,99.0
163,A4,23.998,0.25,100,99.0
164,C5,23.998,0.25,100,99.0
165,A5,23.998,0.25,100,99.0
166,F5,23.998,0.25,100,99.0
167,F1,23.998,0.25,80,99.0
168,F2,23.998,0.25,80,99.0
169,F1,24.248,0.5,80,99.0
170,F2,24.248,0.5,80,99.0
171,E-4,24.748,31/250,80,99.0
172,C4,24.872,31/250,80,99.0
173,A3,24.998,31/250,80,99.0
174,F3,25.122,31/250,80,99.0
175,C3,25.248,31/250,80,99.0
176,A2,25.372,31/250,80,99.0
177,F2,25.498,31/250,80,99.0
178,C2,25.622,63/500,80,99.0
179,A1,25.748,249/500,80,99.0
180,A4,26.248,2.0,100,99.0
181,C5,26.248,2.0,100,99.0
182,A5,26.248,2.0,100,99.0
183,F5,26.248,2.0,100,99.0
184,B-1,26.248,0.5,80,99.0
185,B-0,26.248,0.5,80,99.0
186,B-2,26.748,0.5,80,99.0
187,B-1,26.748,0.5,80,99.0
188,F3,27.248,0.25,80,99.0
189,D3,27.248,0.25,80,99.0
190,B-2,27.248,0.25,80,99.0
191,A0,28.248,0.5,80,99.0
192,A1,28.248,0.5,80,99.0
193,B-4,28.748,0.5,100,99.0
194,B-5,28.748,0.5,100,99.0
195,F5,28.748,0.5,100,99.0
196,D5,28.748,0.5,100,99.0
197,A1,28.748,0.5,80,99.0
198,A2,28.748,0.5,80,99.0
199,A5,29.248,0.5,100,99.0
200,A4,29.248,0.5,100,99.0
201,F3,29.248,0.25,80,99.0
202,A2,29.248,0.25,80,99.0
203,C#3,29.248,0.25,80,99.0
204,F4,29.748,0.5,100,99.0
205,F5,29.748,0.5,100,99.0
206,F5,30.248,0.5,100,99.0
207,C5,30.248,0.5,100,99.0
208,A4,30.248,0.5,100,99.0
209,A5,30.248,0.5,100,99.0
210,E1,30.248,0.25,80,99.0
211,E2,30.248,0.25,80,99.0
212,F4,30.748,0.25,80,99.0
213,B-5,30.748,0.5,100,99.0
214,B-4,30.748,0.5,100,99.0
215,C#4,30.998,0.25,80,99.0
216,A3,31.248,0.25,80,99.0
217,A4,31.248,0.5,100,99.0
218,A5,31.248,0.5,100,99.0
219,F3,31.498,0.25,80,99.0
220,C#3,31.748,0.25,80,99.0
221,F4,31.748,0.5,100,99.0
222,F5,31.748,0.5,100,99.0
223,F2,31.998,0.25,80,99.0
224,F1,31.998,0.25,80,99.0
225,G#4,32.248,1.75,100,99.0
226,G#5,32.248,1.75,100,99.0
227,F5,32.248,1.75,100,99.0
228,C5,32.248,1.75,100,99.0
229,F1,32.914,333/500,80,99.0
230,F2,32.914,333/500,80,99.0
231,G2,33.582,167/250,80,99.0
232,G1,33.582,167/250,80,99.0
233,F5,33.998,0.25,100,99.0
234,A5,33.998,0.25,100,99.0
235,C5,33.998,0.25,100,99.0
236,A4,33.998,0.25,100,99.0
237,A1,34.248,0.25,80,99.0
238,A2,34.248,0.25,80,99.0
239,A2,34.498,0.25,80,99.0
240,F5,34.498,0.25,100,99.0
241,A5,34.498,0.25,100,99.0
242,C5,34.498,0.25,100,99.0
243,A4,34.498,0.25,100,99.0
244,E3,34.748,0.25,80,99.0
245,A3,34.748,0.25,80,99.0
246,A2,34.998,0.25,80,99.0
247,A5,35.164,333/500,100,99.0
248,F5,35.164,333/500,100,99.0
249,C5,35.164,333/500,100,99.0
250,A4,35.164,333/500,100,99.0
251,A2,35.248,0.25,80,99.0
252,A2,35.498,0.25,80,99.0
253,E3,35.748,0.25,80,99.0
254,B3,35.748,0.25,80,99.0
255,B4,35.83,167/250,100,99.0
256,B5,35.83,167/250,100,99.0
257,F5,35.83,167/250,100,99.0
258,A2,35.998,0.25,80,99.0
259,A2,36.248,0.25,80,99.0
260,G5,36.498,0.75,100,99.0
261,A2,36.498,0.25,80,99.0
262,C6,36.498,1.0,100,99.0
263,E5,36.498,1.0,100,99.0
264,C5,36.498,1.0,100,99.0
265,C4,36.748,0.25,80,99.0
266,E3,36.748,0.25,80,99.0
267,A2,36.998,0.25,80,99.0
268,G5,37.248,31/250,100,99.0
269,A2,37.248,0.25,80,99.0
270,F5,37.372,63/500,100,99.0
271,E5,37.498,1.0,100,99.0
272,E3,37.498,0.25,80,99.0
273,A3,37.498,0.25,80,99.0
274,A1,37.748,0.25,80,99.0
275,A2,37.748,0.25,80,99.0
276,G1,37.998,0.25,80,99.0
277,G2,37.998,0.25,80,99.0
278,F1,38.248,0.25,80,99.0
279,F2,38.248,0.25,80,99.0
280,C5,38.498,0.25,100,99.0
281,F2,38.498,0.25,80,99.0
282,C5,38.748,0.25,100,99.0
283,E3,38.748,0.25,80,99.0
284,C3,38.748,0.25,80,99.0
285,D5,38.998,0.25,100,99.0
286,F2,38.998,0.25,80,99.0
287,C5,39.248,0.25,100,99.0
288,F2,39.248,0.25,80,99.0
289,F2,39.498,0.25,80,99.0
290,C5,39.498,0.25,100,99.0
291,C6,39.498,0.25,100,99.0
292,D6,39.748,0.75,100,99.0
293,A5,39.748,0.75,100,99.0
294,D5,39.748,0.75,100,99.0
295,F5,39.748,0.75,100,99.0
296,C3,39.748,0.25,80,99.0
297,F3,39.748,0.25,80,99.0
298,F2,39.998,0.25,80,99.0
299,F2,40.248,0.25,80,99.0
300,F2,40.498,0.25,80,99.0
301,C5,40.498,0.75,100,99.0
302,A5,40.498,0.75,100,99.0
303,C6,40.498,0.75,100,99.0
304,F5,40.498,0.75,100,99.0
305,C3,40.748,0.25,80,99.0
306,A3,40.748,0.25,80,99.0
307,F2,40.998,0.25,80,99.0
308,F5,41.248,31/250,100,99.0
309,F2,41.248,0.25,80,99.0
310,G5,41.374,31/250,100,99.0
311,A5,41.498,1.0,100,99.0
312,F3,41.498,0.25,80,99.0
313,C3,41.498,0.25,80,99.0
314,F2,41.748,0.25,80,99.0
315,F2,41.998,0.25,80,99.0
316,A2,42.248,0.25,80,99.0
317,A1,42.248,0.25,80,99.0
318,D6,42.498,0.25,100,99.0
319,A2,42.498,0.25,80,99.0
320,C6,42.748,0.25,100,99.0
321,E3,42.748,0.25,80,99.0
322,G3,42.748,0.25,80,99.0
323,C6,42.998,0.25,100,99.0
324,A2,42.998,0.25,80,99.0
325,A5,43.248,249/500,100,99.0
326,A2,43.248,0.25,80,99.0
327,A2,43.498,0.25,80,99.0
328,A4,43.748,31/125,100,99.0
329,A5,43.748,31/125,100,99.0
330,A3,43.748,0.25,80,99.0
331,E3,43.748,0.25,80,99.0
332,A2,43.998,0.25,80,99.0
333,B5,43.998,31/125,100,99.0
334,B4,43.998,31/125,100,99.0
335,A2,44.248,0.25,80,99.0
336,C6,44.248,0.25,100,99.0
337,C5,44.248,0.25,100,99.0
338,A2,44.498,0.25,80,99.0
339,B4,44.498,0.75,100,99.0
340,B5,44.498,0.75,100,99.0
341,E5,44.498,0.75,100,99.0
342,G5,44.498,0.75,100,99.0
343,C4,44.748,0.25,80,99.0
344,E3,44.748,0.25,80,99.0
345,A2,44.998,0.25,80,99.0
346,B5,45.248,31/250,100,99.0
347,A2,45.248,0.25,80,99.0
348,A5,45.372,63/500,100,99.0
349,B4,45.498,0.25,100,99.0
350,E5,45.498,0.25,100,99.0
351,G5,45.498,0.25,100,99.0
352,E3,45.498,0.25,80,99.0
353,A3,45.498,0.25,80,99.0
354,B4,45.748,31/125,100,99.0
355,A2,45.748,0.25,80,99.0
356,B4,45.996,0.25,100,99.0
357,F2,45.998,0.5,80,99.0
358,F1,45.998,0.5,80,99.0
359,B4,46.246,0.25,100,99.0
360,F2,46.498,0.25,80,99.0
361,E5,46.498,0.25,100,99.0
362,B4,46.498,0.25,100,99.0
363,B4,46.748,0.25,100,99.0
364,C3,46.748,0.25,80,99.0
365,E3,46.748,0.25,80,99.0
366,F2,46.998,0.25,80,99.0
367,B4,46.998,0.25,100,99.0
368,E5,46.998,0.25,100,99.0
369,G5,46.998,0.25,100,99.0
370,B4,47.248,0.25,100,99.0
371,F2,47.248,0.25,80,99.0
372,B4,47.498,0.25,100,99.0
373,F2,47.498,0.25,80,99.0
374,G5,47.748,0.25,100,99.0
375,E5,47.748,0.25,100,99.0
376,B4,47.748,0.25,100,99.0
377,F3,47.748,0.25,80,99.0
378,C3,47.748,0.25,80,99.0
379,B4,47.998,0.25,100,99.0
380,F2,47.998,0.25,80,99.0
381,F2,48.248,0.25,80,99.0
382,F4,48.248,1.0,100,99.0
383,C5,48.248,1.0,100,99.0
384,A4,48.248,1.0,100,99.0
385,F5,48.248,1.0,100,99.0
386,F2,48.498,0.25,80,99.0
387,A3,48.748,0.25,80,99.0
388,C3,48.748,0.25,80,99.0
389,F2,48.998,0.25,80,99.0
390,F5,49.248,31/250,100,99.0
391,G2,49.248,0.25,80,99.0
392,G5,49.374,31/250,100,99.0
393,D3,49.498,0.25,80,99.0
394,A4,49.498,1.0,100,99.0
395,F5,49.498,1.0,100,99.0
396,C5,49.498,1.0,100,99.0
397,A5,49.498,1.0,100,99.0
398,B3,49.748,0.5,80,99.0
399,A1,50.248,0.25,80,99.0
400,E2,50.498,0.25,80,99.0
401,F5,50.498,0.25,100,99.0
402,A5,50.498,0.25,100,99.0
403,D6,50.498,0.25,100,99.0
404,D5,50.498,0.25,100,99.0
405,C3,50.748,0.5,80,99.0
406,C6,50.748,0.25,100,99.0
407,C5,50.748,0.25,100,99.0
408,B5,50.998,0.25,100,99.0
409,B4,50.998,0.25,100,99.0
410,A2,51.248,0.25,80,99.0
411,A4,51.248,0.25,100,99.0
412,A5,51.248,0.25,100,99.0
413,E3,51.498,0.5,80,99.0
414,G5,51.498,0.25,100,99.0
415,G4,51.498,0.25,100,99.0
416,A5,51.748,0.25,100,99.0
417,A4,51.748,0.25,100,99.0
418,C3,51.998,0.25,80,99.0
419,B4,51.998,0.25,100,99.0
420,B5,51.998,0.25,100,99.0
421,A3,52.248,0.25,80,99.0
422,C5,52.248,0.25,100,99.0
423,C6,52.248,0.25,100,99.0
424,E3,52.498,0.25,80,99.0
425,C3,52.748,0.25,80,99.0
426,A2,52.998,0.25,80,99.0
427,E5,52.998,1.0,85,99.0
428,A4,52.998,1.0,85,99.0
429,C5,52.998,1.0,85,99.0
430,E2,53.248,0.25,80,99.0
431,C2,53.498,0.25,80,99.0
432,D5,53.748,0.75,85,99.0
433,A1,53.748,0.25,80,99.0
434,A2,53.998,0.25,80,99.0
435,B-1,54.248,0.25,80,99.0
436,F2,54.498,0.25,80,99.0
437,F5,54.498,0.75,85,99.0
438,A4,54.498,0.75,85,99.0
439,C5,54.498,0.75,85,99.0
440,D3,54.748,0.5,80,99.0
441,E5,55.248,0.75,85,99.0
442,B-2,55.248,0.25,80,99.0
443,F3,55.498,0.5,80,99.0
444,D5,55.998,0.5,85,99.0
445,D3,55.998,0.25,80,99.0
446,B-3,56.248,0.25,80,99.0
447,F3,56.498,0.25,80,99.0
448,C5,56.498,1.5,85,99.0
449,F4,56.498,1.5,85,99.0
450,D3,56.748,0.25,80,99.0
451,B-2,56.998,0.25,80,99.0
452,F2,57.248,0.25,80,99.0
453,D2,57.498,0.25,80,99.0
454,B-1,57.748,0.25,80,99.0
455,B-2,57.998,0.25,80,99.0
456,F4,57.998,0.5,85,99.0
457,B-4,57.998,0.5,85,99.0
458,A1,58.248,0.25,80,99.0
459,E2,58.498,0.25,80,99.0
460,C3,58.748,0.5,80,99.0
461,F4,58.998,0.5,85,99.0
462,B-4,58.998,0.5,85,99.0
463,A2,59.248,0.25,80,99.0
464,E5,59.498,0.75,85,99.0
465,E3,59.498,0.5,80,99.0
466,C3,59.998,0.25,80,99.0
467,F5,60.248,0.75,85,99.0
468,A3,60.248,0.25,80,99.0
469,E3,60.498,0.25,80,99.0
470,C3,60.748,0.25,80,99.0
471,A2,60.998,0.25,80,99.0
472,C5,60.998,1.5,85,99.0
473,A4,60.998,1.5,85,99.0
474,G5,60.998,1.5,85,99.0
475,E2,61.248,0.25,80,99.0
476,C2,61.498,0.25,80,99.0
477,A1,61.748,0.25,80,99.0
478,A2,61.998,0.25,80,99.0
479,B-1,62.248,0.25,80,99.0
480,F2,62.498,0.25,80,99.0
481,E5,62.498,0.5,85,99.0
482,C5,62.498,0.5,85,99.0
483,A5,62.498,0.5,85,99.0
484,D3,62.748,0.5,80,99.0
485,B-2,63.248,0.25,80,99.0
486,F3,63.498,0.5,80,99.0
487,E5,63.498,0.5,85,99.0
488,C5,63.498,0.5,85,99.0
489,A5,63.498,0.5,85,99.0
490,D3,63.998,0.25,80,99.0
491,C5,63.998,1.0,85,99.0
492,E5,63.998,1.0,85,99.0
493,B-2,64.248,2.0,80,99.0
494,B-1,64.248,2.0,80,99.0
495,E5,64.998,0.25,85,99.0
496,F5,65.248,0.25,85,99.0
497,E4,65.498,2.0,85,99.0
498,E5,65.498,2.0,85,99.0
499,B-4,65.498,2.0,85,99.0
500,G4,65.498,2.0,85,99.0
501,A2,66.248,0.25,80,99.0
502,A1,66.248,0.25,80,99.0
503,A2,66.498,0.25,80,99.0
504,E3,66.748,0.25,80,99.0
505,A3,66.748,0.25,80,99.0
506,A2,66.998,0.25,80,99.0
507,A2,67.248,0.25,80,99.0
508,B-6,67.498,31/250,100,99.0
509,A2,67.498,0.25,80,99.0
510,F6,67.622,63/500,100,99.0
511,D6,67.748,63/500,100,99.0
512,C4,67.748,0.25,80,99.0
513,A3,67.748,0.25,80,99.0
514,B-5,67.874,63/500,100,99.0
515,F5,67.998,31/250,100,99.0
516,E3,67.998,0.25,80,99.0
517,D5,68.122,63/500,100,99.0
518,B-4,68.248,31/250,100,99.0
519,A2,68.248,0.25,80,99.0
520,F4,68.372,63/500,100,99.0
521,D4,68.498,63/500,100,99.0
522,A2,68.498,0.25,80,99.0
523,B-3,68.624,31/250,100,99.0
524,F3,68.748,31/250,100,99.0
525,A3,68.748,0.25,80,99.0
526,E3,68.748,0.25,80,99.0
527,D3,68.874,31/250,100,99.0
528,B-2,68.998,249/500,100,99.0
529,A2,68.998,0.25,80,99.0
530,A2,69.248,0.25,80,99.0
531,A2,69.498,0.25,80,99.0
532,A3,69.748,0.25,80,99.0
533,C4,69.748,0.25,80,99.0
534,E3,69.998,0.25,80,99.0
535,E5,69.998,1.0,100,99.0
536,C5,69.998,1.0,100,99.0
537,A4,69.998,1.0,100,99.0
538,B-2,70.248,0.25,80,99.0
539,B-1,70.248,0.25,80,99.0
540,B-2,70.498,0.25,80,99.0
541,D5,70.748,0.75,100,99.0
542,B-3,70.748,0.25,80,99.0
543,F3,70.748,0.25,80,99.0
544,B-2,70.998,0.25,80,99.0
545,B-2,71.248,0.25,80,99.0
546,B-2,71.498,0.25,80,99.0
547,C5,71.498,0.75,100,99.0
548,F5,71.498,0.75,100,99.0
549,A4,71.498,0.75,100,99.0
550,B-3,71.748,0.25,80,99.0
551,D4,71.748,0.25,80,99.0
552,F3,71.998,0.25,80,99.0
553,E5,72.248,0.75,100,99.0
554,B-2,72.248,0.25,80,99.0
555,B-2,72.498,0.25,80,99.0
556,F3,72.748,0.25,80,99.0
557,B-3,72.748,0.25,80,99.0
558,D5,72.998,0.5,100,99.0
559,B-2,72.998,0.25,80,99.0
560,B-2,73.248,0.25,80,99.0
561,B-2,73.498,0.25,80,99.0
562,C5,73.498,1.5,100,99.0
563,F4,73.498,1.5,100,99.0
564,B-3,73.748,0.25,80,99.0
565,D4,73.748,0.25,80,99.0
566,F3,73.998,0.25,80,99.0
567,A2,74.248,0.25,80,99.0
568,A1,74.248,0.25,80,99.0
569,A2,74.498,0.25,80,99.0
570,A3,74.748,0.25,80,99.0
571,E3,74.748,0.25,80,99.0
572,A2,74.998,0.25,80,99.0
573,F4,74.998,0.5,100,99.0
574,B-4,74.998,0.5,100,99.0
575,A2,75.248,0.25,80,99.0
576,A2,75.498,0.25,80,99.0
577,A3,75.748,0.25,80,99.0
578,C4,75.748,0.25,80,99.0
579,E3,75.998,0.25,80,99.0
580,F4,75.998,0.5,100,99.0
581,B-4,75.998,0.5,100,99.0
582,A2,76.248,0.25,80,99.0
583,A2,76.498,0.25,80,99.0
584,F5,76.498,0.75,100,99.0
585,D5,76.498,0.75,100,99.0
586,B-4,76.498,0.75,100,99.0
587,E3,76.748,0.25,80,99.0
588,A3,76.748,0.25,80,99.0
589,A2,76.998,0.25,80,99.0
590,A2,77.248,0.25,80,99.0
591,B-4,77.248,0.75,100,99.0
592,F4,77.248,0.75,100,99.0
593,D5,77.248,0.75,100,99.0
594,A2,77.498,0.25,80,99.0
595,A3,77.748,0.25,80,99.0
596,C4,77.748,0.25,80,99.0
597,E3,77.998,0.25,80,99.0
598,E5,77.998,2.0,100,99.0
599,C5,77.998,2.0,100,99.0
600,E4,77.998,2.0,100,99.0
601,A4,77.998,2.0,100,99.0
602,B-2,78.248,0.25,80,99.0
603,B-1,78.248,0.25,80,99.0
604,B-2,78.498,0.25,80,99.0
605,F3,78.748,0.25,80,99.0
606,B-3,78.748,0.25,80,99.0
607,B-2,78.998,0.25,80,99.0
608,B-2,79.248,0.25,80,99.0
609,B-2,79.498,0.25,80,99.0
610,D4,79.748,0.25,80,99.0
611,B-3,79.748,0.25,80,99.0
612,F3,79.998,0.25,80,99.0
613,B-2,80.248,0.25,80,99.0
614,B-2,80.498,0.25,80,99.0
615,C5,80.498,0.75,100,99.0
616,F4,80.498,0.75,100,99.0
617,F5,80.498,0.75,100,99.0
618,A4,80.498,0.75,100,99.0
619,B-3,80.748,0.25,80,99.0
620,F3,80.748,0.25,80,99.0
621,B-2,80.998,0.25,80,99.0
622,G5,81.248,0.75,100,99.0
623,A4,81.248,0.75,100,99.0
624,C5,81.248,0.75,100,99.0
625,D5,81.998,0.75,100,99.0
626,F5,81.998,0.75,100,99.0
627,B-5,81.998,0.75,100,99.0
628,B-4,81.998,0.75,100,99.0
629,F2,82.248,0.25,80,99.0
630,C3,82.498,0.25,80,99.0
631,C6,82.748,31/250,100,99.0
632,F3,82.748,0.25,80,99.0
633,B-5,82.874,31/250,100,99.0
634,G3,82.998,0.25,80,99.0
635,D5,82.998,1.0,100,99.0
636,F5,82.998,1.0,100,99.0
637,A5,82.998,1.0,100,99.0
638,A3,83.248,0.25,80,99.0
639,G3,83.498,0.25,80,99.0
640,F3,83.748,0.25,80,99.0
641,C3,83.998,0.25,80,99.0
642,D5,83.998,0.5,100,99.0
643,F5,83.998,0.5,100,99.0
644,A5,83.998,0.5,100,99.0
645,G2,84.248,0.25,80,99.0
646,D3,84.498,0.25,80,99.0
647,G3,84.748,0.25,80,99.0
648,B3,84.998,0.25,80,99.0
649,G3,84.998,0.5,100,99.0
650,G4,84.998,0.5,100,99.0
651,G#2,85.248,0.25,80,99.0
652,E3,85.498,0.25,80,99.0
653,C5,85.498,0.5,100,99.0
654,C4,85.498,0.5,100,99.0
655,G#3,85.748,0.25,80,99.0
656,B3,85.998,0.25,80,99.0
657,E4,85.998,1.0,100,99.0
658,E5,85.998,1.0,100,99.0
659,A4,85.998,1.0,100,99.0
660,C5,85.998,1.0,100,99.0
661,A2,86.248,0.25,80,99.0
662,E3,86.498,0.25,80,99.0
663,A3,86.748,0.25,80,99.0
664,B3,86.998,0.25,80,99.0
665,G4,86.998,0.5,100,99.0
666,C4,86.998,0.5,100,99.0
667,C4,87.248,0.25,80,99.0
668,B3,87.498,0.25,80,99.0
669,C4,87.498,0.5,100,99.0
670,C5,87.498,0.5,100,99.0
671,A3,87.748,0.25,80,99.0
672,E3,87.998,0.25,80,99.0
673,E4,87.998,1.0,100,99.0
674,E5,87.998,1.0,100,99.0
675,B4,87.998,1.0,100,99.0
676,G4,87.998,1.0,100,99.0
677,C3,88.248,0.25,80,99.0
678,C4,88.498,0.25,80,99.0
679,B-3,88.748,0.25,80,99.0
680,G3,88.998,0.25,80,99.0
681,G5,88.998,0.5,100,99.0
682,G4,88.998,0.5,100,99.0
683,E3,89.248,0.25,80,99.0
684,C3,89.498,0.25,80,99.0
685,B4,89.498,0.5,100,99.0
686,B5,89.498,0.5,100,99.0
687,G2,89.748,0.25,80,99.0
688,C2,89.998,0.25,80,99.0
689,C4,89.998,1.0,100,99.0
690,E4,89.998,1.0,100,99.0
691,C5,89.998,1.0,100,99.0
692,F2,90.248,0.5,80,99.0
693,F1,90.248,0.5,80,99.0
694,F4,90.748,21/125,80,99.0
695,C4,90.914,21/125,80,99.0
696,E4,90.998,0.5,100,99.0
697,G4,90.998,0.5,100,99.0
698,C5,90.998,0.5,100,99.0
699,A3,91.082,21/125,80,99.0
700,F3,91.248,21/125,80,99.0
701,C3,91.414,21/125,80,99.0
702,D5,91.498,0.5,100,99.0
703,D4,91.498,0.5,100,99.0
704,A2,91.582,21/125,80,99.0
705,F2,91.748,0.5,80,99.0
706,G4,91.998,0.5,100,99.0
707,E4,91.998,0.5,100,99.0
708,G2,92.248,0.5,80,99.0
709,G1,92.248,0.5,80,99.0
710,G4,92.748,21/125,80,99.0
711,D4,92.914,21/125,80,99.0
712,G4,92.998,0.5,100,99.0
713,G3,92.998,0.5,100,99.0
714,B3,93.082,21/125,80,99.0
715,G3,93.248,21/125,80,99.0
716,D3,93.414,21/125,80,99.0
717,C4,93.498,0.5,100,99.0
718,C5,93.498,0.5,100,99.0
719,B2,93.582,21/125,80,99.0
720,G2,93.748,0.5,80,99.0
721,E4,93.998,1.0,100,99.0
722,E5,93.998,1.0,100,99.0
723,A4,93.998,1.0,100,99.0
724,C5,93.998,1.0,100,99.0
725,A2,94.248,2.0,80,99.0
726,A1,94.248,2.0,80,99.0
727,G4,94.998,0.5,100,99.0
728,G5,94.998,0.5,100,99.0
729,F4,95.498,0.5,100,99.0
730,F5,95.498,0.5,100,99.0
731,E4,95.998,1.0,100,99.0
732,E5,95.998,1.0,100,99.0
733,B4,95.998,1.0,100,99.0
734,A2,96.248,0.25,80,99.0
735,A1,96.248,0.25,80,99.0
736,A2,96.498,0.25,80,99.0
737,A1,96.498,0.25,80,99.0
738,A2,96.748,0.25,80,99.0
739,A1,96.748,0.25,80,99.0
740,B5,96.998,0.5,100,99.0
741,B4,96.998,0.5,100,99.0
742,A2,96.998,0.25,80,99.0
743,A1,96.998,0.25,80,99.0
744,A2,97.248,0.25,80,99.0
745,A1,97.248,0.25,80,99.0
746,D6,97.498,0.5,100,99.0
747,D5,97.498,0.5,100,99.0
748,A2,97.498,0.25,80,99.0
749,A1,97.498,0.25,80,99.0
750,A2,97.748,0.25,80,99.0
751,A1,97.748,0.25,80,99.0
752,G4,97.998,0.75,100,99.0
753,E5,97.998,0.75,100,99.0
754,C#5,97.998,0.75,100,99.0
755,G5,97.998,0.75,100,99.0
756,A2,97.998,0.25,80,99.0
757,A1,97.998,0.25,80,99.0
758,A1,98.248,0.5,80,99.0
759,A0,98.248,0.5,80,99.0
760,F#4,98.748,0.25,100,99.0
761,F#5,98.748,0.25,100,99.0
762,G4,98.998,0.25,100,99.0
763,G5,98.998,0.25,100,99.0
764,D3,98.998,0.25,80,99.0
765,A2,98.998,0.25,80,99.0
766,F#5,99.248,0.25,100,99.0
767,F#4,99.248,0.25,100,99.0
768,A2,99.248,0.25,80,99.0
769,D3,99.248,0.25,80,99.0
770,G4,99.498,0.25,100,99.0
771,G5,99.498,0.25,100,99.0
772,A2,99.498,0.25,80,99.0
773,D3,99.498,0.25,80,99.0
774,F#5,99.748,0.25,100,99.0
775,F#4,99.748,0.25,100,99.0
776,G5,99.998,0.25,100,99.0
777,G4,99.998,0.25,100,99.0
778,C#2,99.998,0.25,80,99.0
779,A1,99.998,0.25,80,99.0
780,F#4,100.248,0.25,100,99.0
781,F#5,100.248,0.25,100,99.0
782,C#2,100.248,0.25,80,99.0
783,A1,100.248,0.25,80,99.0
784,A1,100.498,0.25,80,99.0
785,G4,100.498,0.25,100,99.0
786,G5,100.498,0.25,100,99.0
787,A0,100.748,0.25,80,99.0
788,F#5,100.748,0.25,100,99.0
789,F#4,100.748,0.25,100,99.0
790,G4,100.998,0.25,100,99.0
791,G5,100.998,0.25,100,99.0
792,F#5,101.248,0.25,100,99.0
793,F#4,101.248,0.25,100,99.0
794,G4,101.498,0.25,100,99.0
795,G5,101.498,0.25,100,99.0
796,F#5,101.748,0.25,100,99.0
797,F#4,101.748,0.25,100,99.0
798,A4,101.998,0.75,100,99.0
799,A5,101.998,0.75,100,99.0
800,E5,101.998,0.75,100,99.0
801,C#5,101.998,0.75,100,99.0
802,B-2,102.248,0.5,80,99.0
803,B-1,102.248,0.5,80,99.0
804,A4,102.748,0.25,100,99.0
805,E4,102.748,0.25,100,99.0
806,A3,102.748,0.25,100,99.0
807,C#4,102.748,0.25,100,99.0
808,B-3,102.748,0.25,80,99.0
809,F3,102.748,0.25,80,99.0
810,D3,102.748,0.25,80,99.0
811,B-2,102.998,0.25,80,99.0
812,A4,102.998,0.25,100,99.0
813,E4,102.998,0.25,100,99.0
814,C#4,102.998,0.25,100,99.0
815,A3,102.998,0.25,100,99.0
816,B-2,103.248,0.25,80,99.0
817,C#4,103.248,0.25,100,99.0
818,A3,103.248,0.25,100,99.0
819,E4,103.248,0.25,100,99.0
820,A4,103.248,0.25,100,99.0
821,B-2,103.498,0.25,80,99.0
822,E3,103.748,0.25,100,99.0
823,A2,103.748,0.25,100,99.0
824,C#3,103.748,0.25,100,99.0
825,D3,103.748,0.25,80,99.0
826,F3,103.748,0.25,80,99.0
827,B-3,103.748,0.25,80,99.0
828,B-2,103.998,0.25,80,99.0
829,A2,103.998,0.25,100,99.0
830,C#3,103.998,0.25,100,99.0
831,E3,103.998,0.25,100,99.0
832,E3,104.248,0.25,100,99.0
833,C#3,104.248,0.25,100,99.0
834,A2,104.248,0.25,100,99.0
835,C3,104.248,0.5,80,99.0
836,C2,104.248,0.5,80,99.0
837,E3,104.498,0.25,100,99.0
838,C#3,104.498,0.25,100,99.0
839,A2,104.498,0.25,100,99.0
840,G3,104.748,0.25,80,99.0
841,E3,104.748,0.25,80,99.0
842,C4,104.748,0.25,80,99.0
843,C3,104.998,0.25,80,99.0
844,D5,104.998,0.5,100,99.0
845,D4,104.998,0.5,100,99.0
846,C3,105.248,0.25,80,99.0
847,C3,105.498,0.25,80,99.0
848,F5,105.498,0.5,100,99.0
849,F4,105.498,0.5,100,99.0
850,E3,105.748,0.25,80,99.0
851,G3,105.748,0.25,80,99.0
852,C4,105.748,0.25,80,99.0
853,C3,105.998,0.25,80,99.0
854,D5,105.998,0.5,100,99.0
855,G5,105.998,0.5,100,99.0
856,B-4,105.998,0.5,100,99.0
857,G4,105.998,0.5,100,99.0
858,D3,106.248,0.5,80,99.0
859,D2,106.248,0.5,80,99.0
860,A5,106.498,0.25,100,99.0
861,A4,106.498,0.25,100,99.0
862,G4,106.748,0.5,100,99.0
863,G5,106.748,0.5,100,99.0
864,A3,106.748,0.25,80,99.0
865,F3,106.748,0.25,80,99.0
866,D4,106.748,0.25,80,99.0
867,D3,106.998,0.25,80,99.0
868,D3,107.248,0.25,80,99.0
869,F4,107.248,0.5,100,99.0
870,F5,107.248,0.5,100,99.0
871,D3,107.498,0.25,80,99.0
872,E5,107.748,0.25,100,99.0
873,C5,107.748,0.25,100,99.0
874,G5,107.748,0.25,100,99.0
875,G4,107.748,0.25,100,99.0
876,F3,107.748,0.25,80,99.0
877,A3,107.748,0.25,80,99.0
878,D4,107.748,0.25,80,99.0
879,D3,107.998,0.25,80,99.0
880,E5,107.998,1.0,100,99.0
881,C5,107.998,1.0,100,99.0
882,G5,107.998,1.0,100,99.0
883,G4,107.998,1.0,100,99.0
884,F3,108.248,0.5,80,99.0
885,F2,108.248,0.5,80,99.0
886,C4,108.748,0.25,80,99.0
887,A3,108.748,0.25,80,99.0
888,F4,108.748,0.25,80,99.0
889,F3,108.998,0.25,80,99.0
890,D5,108.998,0.5,100,99.0
891,D4,108.998,0.5,100,99.0
892,F3,109.248,0.25,80,99.0
893,F3,109.498,0.25,80,99.0
894,F4,109.498,0.5,100,99.0
895,F5,109.498,0.5,100,99.0
896,A3,109.748,0.25,80,99.0
897,C4,109.748,0.25,80,99.0
898,E-4,109.748,0.25,80,99.0
899,F3,109.998,0.25,80,99.0
900,C5,109.998,0.5,100,99.0
901,D5,109.998,0.5,100,99.0
902,G4,109.998,0.5,100,99.0
903,G5,109.998,0.5,100,99.0
904,B-2,110.248,0.5,80,99.0
905,B-1,110.248,0.5,80,99.0
906,E6,110.498,0.25,100,99.0
907,E5,110.498,0.25,100,99.0
908,E6,110.748,0.5,100,99.0
909,E5,110.748,0.5,100,99.0
910,F3,110.748,0.25,80,99.0
911,D3,110.748,0.25,80,99.0
912,B-3,110.748,0.25,80,99.0
913,B-2,110.998,0.25,80,99.0
914,B-2,111.248,0.25,80,99.0
915,C6,111.248,0.5,100,99.0
916,C5,111.248,0.5,100,99.0
917,B-2,111.498,0.25,80,99.0
918,C5,111.748,0.25,100,99.0
919,A4,111.748,0.25,100,99.0
920,A5,111.748,0.25,100,99.0
921,F5,111.748,0.25,100,99.0
922,D3,111.748,0.25,80,99.0
923,F3,111.748,0.25,80,99.0
924,B-3,111.748,0.25,80,99.0
925,B-2,111.998,0.25,80,99.0
926,C2,112.248,0.5,80,99.0
927,C3,112.248,0.5,80,99.0
928,E4,112.748,0.5,80,99.0
929,G3,112.748,0.5,80,99.0
930,C4,112.748,0.5,80,99.0
931,C5,112.998,1.0,100,99.0
932,A4,112.998,1.0,100,99.0
933,A5,112.998,1.0,100,99.0
934,F5,112.998,1.0,100,99.0
935,C#3,113.248,0.5,80,99.0
936,C#2,113.248,0.5,80,99.0
937,F4,113.748,0.5,80,99.0
938,G#3,113.748,0.5,80,99.0
939,C#4,113.748,0.5,80,99.0
940,A4,113.998,0.5,100,99.0
941,A5,113.998,0.5,100,99.0
942,D2,114.248,0.5,80,99.0
943,D3,114.248,0.5,80,99.0
944,C6,114.498,0.5,100,99.0
945,C5,114.498,0.5,100,99.0
946,F3,114.748,0.25,80,99.0
947,D4,114.748,0.25,80,99.0
948,A3,114.748,0.25,80,99.0
949,D3,114.998,0.25,80,99.0
950,G5,114.998,1.0,100,99.0
951,D5,114.998,1.0,100,99.0
952,B-4,114.998,1.0,100,99.0
953,G4,114.998,1.0,100,99.0
954,D3,115.248,0.25,80,99.0
955,D3,115.498,0.25,80,99.0
956,A3,115.748,0.25,80,99.0
957,D4,115.748,0.25,80,99.0
958,F3,115.748,0.25,80,99.0
959,D3,115.998,0.25,80,99.0
960,A4,115.998,0.5,100,99.0
961,A5,115.998,0.5,100,99.0
962,F2,116.248,0.25,80,99.0
963,F1,116.248,0.25,80,99.0
964,C6,116.498,0.5,100,99.0
965,C5,116.498,0.5,100,99.0
966,E-3,116.498,0.25,80,99.0
967,A3,116.498,0.25,80,99.0
968,C4,116.498,0.25,80,99.0
969,C4,116.748,0.25,80,99.0
970,A3,116.748,0.25,80,99.0
971,E-3,116.748,0.25,80,99.0
972,G4,116.998,0.5,100,99.0
973,C5,116.998,0.5,100,99.0
974,E5,116.998,0.5,100,99.0
975,G5,116.998,0.5,100,99.0
976,E-3,117.248,83/500,80,99.0
977,C3,117.414,83/500,80,99.0
978,C6,117.498,0.5,100,99.0
979,C5,117.498,0.5,100,99.0
980,A2,117.58,21/125,80,99.0
981,F2,117.748,83/500,80,99.0
982,C2,117.914,83/500,80,99.0
983,G#4,117.998,1.0,100,99.0
984,C#5,117.998,1.0,100,99.0
985,F5,117.998,1.0,100,99.0
986,F4,117.998,1.0,100,99.0
987,A1,118.08,21/125,80,99.0
988,B-1,118.248,0.25,80,99.0
989,B-0,118.248,0.25,80,99.0
990,B-1,118.498,31/125,80,99.0
991,B-2,118.748,31/125,80,99.0
992,F2,118.748,31/125,80,99.0
993,B-2,118.998,31/125,80,99.0
994,A4,118.998,2.0,100,99.0
995,E4,118.998,2.0,100,99.0
996,E5,118.998,2.0,100,99.0
997,B-3,119.248,31/250,80,99.0
998,F3,119.372,63/500,80,99.0
999,D3,119.498,63/500,80,99.0
1000,B-2,119.622,63/500,80,99.0
1001,F2,119.748,63/500,80,99.0
1002,D2,119.874,31/250,80,99.0
1003,B-1,119.998,0.25,80,99.0
1004,C1,120.248,0.25,80,99.0
1005,C2,120.248,0.25,80,99.0
1006,C2,120.498,31/125,80,99.0
1007,G2,120.748,31/125,80,99.0
1008,C3,120.748,31/125,80,99.0
1009,C3,120.998,31/125,80,99.0
1010,C5,120.998,1.0,100,99.0
1011,A4,120.998,1.0,100,99.0
1012,F4,120.998,1.0,100,99.0
1013,C4,121.248,31/250,80,99.0
1014,G3,121.372,63/500,80,99.0
1015,E3,121.498,63/500,80,99.0
1016,C3,121.622,63/500,80,99.0
1017,G2,121.748,63/500,80,99.0
1018,E2,121.872,63/500,80,99.0
1019,C2,121.998,0.25,80,99.0
1020,D5,121.998,0.5,100,99.0
1021,D4,121.998,0.5,100,99.0
1022,D1,122.248,0.25,80,99.0
1023,D2,122.248,0.25,80,99.0
1024,D2,122.498,31/125,80,99.0
1025,F5,122.498,0.5,100,99.0
1026,F4,122.498,0.5,100,99.0
1027,A2,122.748,31/125,80,99.0
1028,D3,122.748,31/125,80,99.0
1029,D3,122.998,31/125,80,99.0
1030,D5,122.998,0.5,100,99.0
1031,G4,122.998,0.5,100,99.0
1032,B-4,122.998,0.5,100,99.0
1033,G5,122.998,0.5,100,99.0
1034,D4,123.248,31/250,80,99.0
1035,A3,123.372,63/500,80,99.0
1036,F3,123.498,63/500,80,99.0
1037,A5,123.498,0.25,100,99.0
1038,A4,123.498,0.25,100,99.0
1039,D3,123.622,63/500,80,99.0
1040,A2,123.748,0.25,80,99.0
1041,G4,123.748,0.5,100,99.0
1042,G5,123.748,0.5,100,99.0
1043,G1,123.998,0.25,80,99.0
1044,G2,123.998,0.25,80,99.0
1045,F5,124.248,0.5,100,99.0
1046,F4,124.248,0.5,100,99.0
1047,G1,124.248,0.25,80,99.0
1048,G2,124.248,0.25,80,99.0
1049,G2,124.498,31/125,80,99.0
1050,C5,124.748,0.25,100,99.0
1051,G5,124.748,0.25,100,99.0
1052,G4,124.748,0.25,100,99.0
1053,E5,124.748,0.25,100,99.0
1054,D3,124.748,31/125,80,99.0
1055,G3,124.748,31/125,80,99.0
1056,G3,124.998,31/125,80,99.0
1057,G4,125.248,31/250,80,99.0
1058,D4,125.372,63/500,80,99.0
1059,B3,125.498,63/500,80,99.0
1060,G3,125.624,63/500,80,99.0
1061,D3,125.748,63/500,80,99.0
1062,B2,125.874,63/500,80,99.0
1063,G2,125.998,0.25,80,99.0
1064,C5,125.998,1.0,100,99.0
1065,G5,125.998,1.0,100,99.0
1066,G4,125.998,1.0,100,99.0
1067,E5,125.998,1.0,100,99.0
1068,B-0,126.246,0.5,80,99.0
1069,B-1,126.246,0.5,80,99.0
1070,B-1,126.746,0.5,80,99.0
1071,B-2,126.746,0.5,80,99.0
1072,D4,126.998,0.5,100,99.0
1073,D5,126.998,0.5,100,99.0
1074,F3,127.246,0.25,80,99.0
1075,B-2,127.246,0.25,80,99.0
1076,D3,127.246,0.25,80,99.0
1077,F5,127.498,0.5,100,99.0
1078,F4,127.498,0.5,100,99.0
1079,D5,127.998,0.5,100,99.0
1080,B-4,127.998,0.5,100,99.0
1081,G4,127.998,0.5,100,99.0
1082,G5,127.998,0.5,100,99.0
1083,A0,128.246,1/500,80,99.0
1084,A1,128.246,1/500,80,99.0
1085,A0,128.248,249/500,80,99.0
1086,A1,128.248,249/500,80,99.0
1087,F5,128.498,0.25,100,99.0
1088,F6,128.498,0.25,100,99.0
1089,A1,128.746,0.5,80,99.0
1090,A2,128.746,0.5,80,99.0
1091,E6,128.748,0.5,100,99.0
1092,E5,128.748,0.5,100,99.0
1093,F3,129.246,0.25,80,99.0
1094,C#3,129.246,0.25,80,99.0
1095,A2,129.246,0.25,80,99.0
1096,C5,129.248,0.5,100,99.0
1097,C6,129.248,0.5,100,99.0
1098,D5,129.748,0.25,100,99.0
1099,F5,129.748,0.25,100,99.0
1100,B5,129.748,0.25,100,99.0
1101,D6,129.748,0.25,100,99.0
1102,E1,130.246,0.25,80,99.0
1103,E2,130.246,0.25,80,99.0
1104,F4,130.746,0.25,80,99.0
1105,C#4,130.996,0.25,80,99.0
1106,A3,131.246,0.25,80,99.0
1107,F3,131.496,0.25,80,99.0
1108,C#3,131.746,0.25,80,99.0
1109,F2,131.996,0.25,80,99.0
1110,F1,131.996,0.25,80,99.0
1111,D5,131.998,2.0,100,99.0
1112,F5,131.998,2.0,100,99.0
1113,B5,131.998,2.0,100,99.0
1114,D6,131.998,2.0,100,99.0
1115,F1,132.914,333/500,80,99.0
1116,F2,132.914,333/500,80,99.0
1117,G2,133.58,167/250,80,99.0
1118,G1,133.58,167/250,80,99.0
1119,A2,134.246,0.25,80,99.0
1120,A1,134.246,0.25,80,99.0
1121,A2,134.496,0.25,80,99.0
1122,F5,134.498,0.5,100,99.0
1123,D5,134.498,0.5,100,99.0
1124,B-4,134.498,0.5,100,99.0
1125,B-5,134.498,0.5,100,99.0
1126,A3,134.746,0.25,80,99.0
1127,E3,134.746,0.25,80,99.0
1128,A2,134.996,0.25,80,99.0
1129,A5,134.998,0.5,100,99.0
1130,A4,134.998,0.5,100,99.0
1131,A2,135.246,0.25,80,99.0
1132,A2,135.496,0.25,80,99.0
1133,F5,135.498,0.5,100,99.0
1134,F4,135.498,0.5,100,99.0
1135,E3,135.746,0.25,80,99.0
1136,B3,135.746,0.25,80,99.0
1137,A2,135.996,0.25,80,99.0
1138,A5,135.998,0.5,100,99.0
1139,F5,135.998,0.5,100,99.0
1140,C5,135.998,0.5,100,99.0
1141,A4,135.998,0.5,100,99.0
1142,A2,136.246,1/500,80,99.0
1143,A2,136.248,31/125,80,99.0
1144,A2,136.496,0.25,80,99.0
1145,B-4,136.498,0.5,100,99.0
1146,B-5,136.498,0.5,100,99.0
1147,E3,136.746,0.25,80,99.0
1148,C4,136.746,0.25,80,99.0
1149,A2,136.996,0.25,80,99.0
1150,A5,136.998,0.5,100,99.0
1151,A4,136.998,0.5,100,99.0
1152,A2,137.246,0.25,80,99.0
1153,A3,137.496,0.25,80,99.0
1154,E3,137.496,0.25,80,99.0
1155,F4,137.498,0.5,100,99.0
1156,F5,137.498,0.5,100,99.0
1157,A2,137.746,0.25,80,99.0
1158,A1,137.746,0.25,80,99.0
1159,G1,137.996,0.25,80,99.0
1160,G2,137.996,0.25,80,99.0
1161,F5,137.998,1.75,100,99.0
1162,G#5,137.998,1.75,100,99.0
1163,C5,137.998,1.75,100,99.0
1164,G#4,137.998,1.75,100,99.0
1165,F1,138.246,0.25,80,99.0
1166,F2,138.246,0.25,80,99.0
1167,F2,138.496,0.25,80,99.0
1168,C3,138.746,0.25,80,99.0
1169,E3,138.746,0.25,80,99.0
1170,F2,138.996,0.25,80,99.0
1171,F2,139.246,0.25,80,99.0
1172,F2,139.496,0.25,80,99.0
1173,F3,139.746,0.25,80,99.0
1174,C3,139.746,0.25,80,99.0
1175,F5,139.748,0.25,100,99.0
1176,A4,139.748,0.25,100,99.0
1177,A5,139.748,0.25,100,99.0
1178,C5,139.748,0.25,100,99.0
1179,F2,139.996,0.25,80,99.0
1180,F2,140.246,1/500,80,99.0
1181,F2,140.248,31/125,80,99.0
1182,F5,140.248,0.25,100,99.0
1183,A4,140.248,0.25,100,99.0
1184,A5,140.248,0.25,100,99.0
1185,C5,140.248,0.25,100,99.0
1186,F2,140.496,0.25,80,99.0
1187,A3,140.746,0.25,80,99.0
1188,C3,140.746,0.25,80,99.0
1189,C5,140.914,333/500,100,99.0
1190,A4,140.914,333/500,100,99.0
1191,A5,140.914,333/500,100,99.0
1192,F5,140.914,333/500,100,99.0
1193,F2,140.996,0.25,80,99.0
1194,F2,141.246,0.25,80,99.0
1195,C3,141.496,0.25,80,99.0
1196,F3,141.496,0.25,80,99.0
1197,B5,141.58,167/250,100,99.0
1198,F5,141.58,167/250,100,99.0
1199,B4,141.58,167/250,100,99.0
1200,F2,141.746,0.25,80,99.0
1201,F2,141.996,63/250,80,99.0
1202,G5,142.248,0.75,100,99.0
1203,E5,142.248,1.0,100,99.0
1204,C6,142.248,1.0,100,99.0
1205,C5,142.248,1.0,100,99.0
1206,A2,142.248,31/125,80,99.0
1207,A1,142.248,31/125,80,99.0
1208,A2,142.496,0.25,80,99.0
1209,E3,142.746,0.25,80,99.0
1210,G3,142.746,0.25,80,99.0
1211,A2,142.996,0.25,80,99.0
1212,G5,142.998,31/250,100,99.0
1213,F5,143.122,63/500,100,99.0
1214,A2,143.246,0.25,80,99.0
1215,E5,143.248,1.0,100,99.0
1216,A2,143.496,0.25,80,99.0
1217,A3,143.746,0.25,80,99.0
1218,E3,143.746,0.25,80,99.0
1219,A2,143.996,0.25,80,99.0
1220,A2,144.246,1/500,80,99.0
1221,C5,144.248,0.25,100,99.0
1222,A2,144.248,31/125,80,99.0
1223,A2,144.496,0.25,80,99.0
1224,C5,144.498,0.25,100,99.0
1225,C4,144.746,0.25,80,99.0
1226,E3,144.746,0.25,80,99.0
1227,D5,144.748,0.25,100,99.0
1228,A2,144.996,0.25,80,99.0
1229,C5,144.998,0.25,100,99.0
1230,A2,145.246,0.25,80,99.0
1231,C5,145.248,0.25,100,99.0
1232,C6,145.248,0.25,100,99.0
1233,E3,145.496,0.25,80,99.0
1234,A3,145.496,0.25,80,99.0
1235,F5,145.498,0.75,100,99.0
1236,A5,145.498,0.75,100,99.0
1237,D6,145.498,0.75,100,99.0
1238,D5,145.498,0.75,100,99.0
1239,A2,145.746,0.25,80,99.0
1240,F1,145.996,0.5,80,99.0
1241,F2,145.996,0.5,80,99.0
1242,F5,146.248,0.75,100,99.0
1243,A5,146.248,0.75,100,99.0
1244,C5,146.248,0.75,100,99.0
1245,C6,146.248,0.75,100,99.0
1246,F2,146.496,0.25,80,99.0
1247,E3,146.746,0.25,80,99.0
1248,C3,146.746,0.25,80,99.0
1249,F2,146.996,0.25,80,99.0
1250,F5,146.998,31/250,100,99.0
1251,G5,147.122,31/250,100,99.0
1252,F2,147.246,0.25,80,99.0
1253,A5,147.248,1.0,100,99.0
1254,F2,147.496,0.25,80,99.0
1255,C3,147.746,0.25,80,99.0
1256,F3,147.746,0.25,80,99.0
1257,F2,147.996,0.25,80,99.0
1258,F2,148.246,1/500,80,99.0
1259,D6,148.248,0.25,100,99.0
1260,F2,148.248,31/125,80,99.0
1261,F2,148.496,0.25,80,99.0
1262,C6,148.498,0.25,100,99.0
1263,A3,148.746,0.25,80,99.0
1264,C3,148.746,0.25,80,99.0
1265,C6,148.748,0.25,100,99.0
1266,F2,148.996,0.25,80,99.0
1267,A5,148.998,0.25,100,99.0
1268,G2,149.246,0.25,80,99.0
1269,D6,149.248,31/125,100,99.0
1270,D5,149.248,31/125,100,99.0
1271,D3,149.496,0.25,80,99.0
1272,D6,149.498,31/125,100,99.0
1273,D5,149.498,31/125,100,99.0
1274,B3,149.746,63/250,80,99.0
1275,D5,149.748,0.25,100,99.0
1276,D6,149.748,0.25,100,99.0
1277,C6,149.998,0.25,100,99.0
1278,C5,149.998,0.25,100,99.0
1279,A2,149.998,0.5,80,99.0
1280,A1,149.998,0.5,80,99.0
1281,G5,150.248,0.0,100,99.0
1282,E5,150.248,0.0,100,99.0
1283,C6,150.248,0.25,100,99.0
1284,C5,150.248,0.25,100,99.0
1285,A1,150.498,0.25,80,99.0
1286,A6,150.498,0.25,100,99.0
1287,A5,150.498,0.25,100,99.0
1288,A0,150.748,0.25,80,99.0
1289,A6,150.748,0.25,100,99.0
1290,A5,150.748,0.25,100,99.0
1291,A6,150.998,0.25,100,99.0
1292,A5,150.998,0.25,100,99.0
1293,A5,151.248,0.25,100,99.0
1294,A6,151.248,0.25,100,99.0
1295,F6,151.998,0.25,100,99.0
1296,F5,151.998,0.25,100,99.0
1297,F6,152.248,0.25,100,99.0
1298,F5,152.248,0.25,100,99.0
1299,E6,152.498,0.25,100,99.0
1300,E5,152.498,0.25,100,99.0
1301,F5,152.748,0.25,100,99.0
1302,F6,152.748,0.25,100,99.0
1303,E5,152.998,0.25,100,99.0
1304,E6,152.998,0.25,100,99.0
1305,F5,153.248,0.25,100,99.0
1306,F6,153.248,0.25,100,99.0
1307,E6,153.498,0.5,100,99.0
1308,E5,153.498,0.5,100,99.0
1309,C6,153.998,0.5,100,99.0
1310,C5,153.998,0.5,100,99.0
1311,A5,154.498,0.25,100,99.0
1312,A6,154.498,0.25,100,99.0
1313,A6,154.748,0.25,100,99.0
1314,A5,154.748,0.25,100,99.0
1315,A6,154.998,0.25,100,99.0
1316,A5,154.998,0.25,100,99.0
1317,A5,155.248,0.25,100,99.0
1318,A6,155.248,0.25,100,99.0
1319,F6,155.998,0.25,100,99.0
1320,F5,155.998,0.25,100,99.0
1321,F6,156.248,0.25,100,99.0
1322,F5,156.248,0.25,100,99.0
1323,E6,156.498,0.25,100,99.0
1324,E5,156.498,0.25,100,99.0
1325,F6,156.748,0.25,100,99.0
1326,F5,156.748,0.25,100,99.0
1327,E6,156.998,0.25,100,99.0
1328,E5,156.998,0.25,100,99.0
1329,F6,157.248,0.25,100,99.0
1330,F5,157.248,0.25,100,99.0
1331,E6,157.498,0.5,100,99.0
1332,A5,157.498,0.5,100,99.0
1333,A6,157.498,0.5,100,99.0
1334,C6,157.498,0.5,100,99.0
