,note_name,start_time,duration,velocity,tempo
0,G6,0.01,0.766,67,126.0
1,C5,0.01,1.019,67,126.0
2,D6,0.776,0.745,62,126.0
3,G5,1.029,0.99,63,126.0
4,G6,1.522,0.468,62,126.0
5,B6,2.021,0.739,65,126.0
6,C6,2.021,0.99,65,126.0
7,A6,2.761,0.743,62,126.0
8,G5,3.012,0.987,63,126.0
9,G6,3.505,0.494,62,126.0
10,G6,4.004,0.771,67,126.0
11,G4,4.004,1.024,67,126.0
12,D6,4.776,0.745,62,126.0
13,D5,5.029,0.99,63,126.0
14,G6,5.522,0.468,62,126.0
15,B6,6.021,0.739,65,126.0
16,G5,6.021,0.99,65,126.0
17,A6,6.761,0.743,62,126.0
18,D5,7.012,0.987,63,126.0
19,G6,7.505,0.494,62,126.0
20,G6,8.004,0.771,67,126.0
21,D4,8.004,1.024,67,126.0
22,D6,8.776,0.745,62,126.0
23,A4,9.029,0.99,63,126.0
24,B6,9.522,0.468,62,126.0
25,C7,10.021,0.739,65,126.0
26,D5,10.021,0.99,65,126.0
27,B6,10.761,0.743,62,126.0
28,A4,11.012,0.987,63,126.0
29,G6,11.505,0.465,62,126.0
30,A6,12.004,0.771,67,126.0
31,E4,12.004,1.024,67,126.0
32,G6,12.776,0.745,62,126.0
33,B4,13.029,0.99,63,126.0
34,F#6,13.522,0.468,62,126.0
35,G6,14.021,0.468,65,126.0
36,E5,14.021,0.99,65,126.0
37,F#6,14.519,0.463,62,126.0
38,G6,15.012,0.235,63,126.0
39,B4,15.012,0.987,63,126.0
40,F#6,15.263,0.227,62,126.0
41,D6,15.505,0.227,62,126.0
42,A5,15.747,0.237,62,126.0
43,G5,16.004,0.771,67,126.0
44,C4,16.004,1.024,67,126.0
45,D5,16.776,0.745,62,126.0
46,G4,17.029,0.99,63,126.0
47,G5,17.522,0.468,62,126.0
48,B5,18.021,0.739,65,126.0
49,C5,18.021,0.99,65,126.0
50,A5,18.761,0.743,62,126.0
51,G4,19.012,0.987,63,126.0
52,G5,19.505,0.494,62,126.0
53,G5,20.004,0.771,67,126.0
54,G3,20.004,1.024,67,126.0
55,D5,20.776,0.745,62,126.0
56,D4,21.029,0.99,63,126.0
57,D6,21.522,0.468,62,126.0
58,G5,22.021,0.99,65,126.0
59,G4,22.021,1.979,65,126.0
60,D5,23.012,0.987,63,126.0
61,D5,24.004,1.024,90,126.0
62,F#5,24.004,1.024,90,126.0
63,D6,24.004,1.024,90,126.0
64,D1,24.004,3.995,84,126.0
65,D2,24.004,3.995,84,126.0
66,D3,25.029,0.236,89,126.0
67,F#3,25.281,0.226,88,126.0
68,A3,25.522,0.227,88,126.0
69,D4,25.765,0.24,88,126.0
70,F#4,26.021,0.241,91,126.0
71,A4,26.277,0.226,88,126.0
72,D5,26.519,0.227,88,126.0
73,F#5,26.761,0.25,88,126.0
74,D5,27.012,0.987,86,126.0
75,F#5,27.012,0.987,86,126.0
76,D6,27.012,0.987,86,126.0
77,F#4,28.004,0.425,92,126.0
78,F#5,28.004,0.425,92,126.0
79,G4,29.029,0.391,88,126.0
80,G5,29.029,0.391,88,126.0
81,D5,30.021,0.497,90,126.0
82,D6,30.021,0.497,90,126.0
83,G4,30.519,0.192,87,126.0
84,G5,30.519,0.192,87,126.0
85,G4,31.012,0.388,88,126.0
86,G5,31.012,0.388,88,126.0
87,G4,32.004,1.518,92,126.0
88,D5,32.004,1.518,92,126.0
89,C1,32.004,0.528,88,126.0
90,C2,32.004,0.528,88,126.0
91,G2,32.533,0.466,88,126.0
92,C3,33.029,0.463,89,126.0
93,E3,33.522,0.468,88,126.0
94,G4,33.522,1.488,87,126.0
95,G5,33.522,1.488,87,126.0
96,G3,34.021,0.468,91,126.0
97,C4,34.519,0.463,88,126.0
98,G4,35.012,0.987,88,126.0
99,G5,35.012,0.987,88,126.0
100,E4,35.012,0.987,88,126.0
101,G2,36.004,0.499,93,126.0
102,D5,36.004,1.518,92,126.0
103,F#5,36.004,1.518,92,126.0
104,D3,36.533,0.466,88,126.0
105,G3,37.029,0.463,89,126.0
106,B3,37.522,0.468,88,126.0
107,B4,37.522,1.488,87,126.0
108,D5,37.522,1.488,87,126.0
109,G3,38.021,0.468,91,126.0
110,D3,38.519,0.463,88,126.0
111,D5,39.012,0.987,88,126.0
112,D6,39.012,0.987,88,126.0
113,G2,39.012,0.987,88,126.0
114,D2,40.004,0.499,92,126.0
115,D6,40.004,1.518,90,126.0
116,G6,40.004,1.518,90,126.0
117,D7,40.004,1.518,90,126.0
118,A2,40.533,0.466,88,126.0
119,D3,41.029,0.463,89,126.0
120,F#3,41.522,0.468,88,126.0
121,G5,41.522,1.488,87,126.0
122,G6,41.522,1.488,87,126.0
123,A3,42.021,0.468,91,126.0
124,D4,42.519,1.48,88,126.0
125,A5,43.012,0.987,88,126.0
126,A6,43.012,0.987,88,126.0
127,E2,44.004,0.499,92,126.0
128,G5,44.004,1.518,92,126.0
129,G6,44.004,1.518,92,126.0
130,B2,44.533,0.466,88,126.0
131,E3,45.029,0.463,89,126.0
132,B6,45.522,0.227,88,126.0
133,G3,45.522,0.468,88,126.0
134,C7,45.765,0.24,88,126.0
135,B6,46.021,0.241,91,126.0
136,E2,46.021,0.468,90,126.0
137,A6,46.277,0.226,88,126.0
138,G6,46.519,0.227,88,126.0
139,B2,46.519,0.985,88,126.0
140,D6,46.761,0.235,88,126.0
141,G5,47.012,0.987,89,126.0
142,E3,47.505,0.465,88,126.0
143,D4,48.004,0.499,93,126.0
144,G2,48.004,0.499,93,126.0
145,D4,48.533,0.242,88,126.0
146,D3,48.533,0.466,88,126.0
147,D4,48.776,0.504,88,126.0
148,G3,49.029,0.463,89,126.0
149,D4,49.281,0.24,88,126.0
150,D4,49.522,0.468,88,126.0
151,B3,49.522,0.468,88,126.0
152,D4,50.021,0.468,91,126.0
153,G3,50.021,0.468,91,126.0
154,C4,50.519,0.463,88,126.0
155,D3,50.519,0.463,88,126.0
156,B3,51.012,0.463,89,126.0
157,G2,51.012,0.463,89,126.0
158,C4,51.505,0.465,88,126.0
159,D3,51.505,0.465,88,126.0
160,D4,52.004,0.499,92,126.0
161,D2,52.004,0.499,92,126.0
162,D4,52.533,0.242,88,126.0
163,A2,52.533,0.466,88,126.0
164,D4,52.776,0.504,88,126.0
165,D3,53.029,0.463,89,126.0
166,D4,53.281,0.24,88,126.0
167,D4,53.522,0.468,88,126.0
168,G3,53.522,0.468,88,126.0
169,D4,54.021,0.468,90,126.0
170,D2,54.021,0.468,90,126.0
171,C4,54.519,0.463,88,126.0
172,A2,54.519,0.463,88,126.0
173,B3,55.012,0.463,89,126.0
174,D3,55.012,0.463,89,126.0
175,C4,55.505,0.465,88,126.0
176,A2,55.505,0.465,88,126.0
177,G3,56.004,2.484,88,126.0
178,E2,56.004,0.499,92,126.0
179,B2,56.533,0.466,88,126.0
180,E3,57.029,0.463,89,126.0
181,B2,57.522,0.468,88,126.0
182,G3,58.021,1.979,91,126.0
183,B2,58.519,0.463,88,126.0
184,E3,59.012,0.463,89,126.0
185,B2,59.505,0.465,88,126.0
186,B3,59.838,0.162,85,126.0
187,D4,59.921,0.079,85,126.0
188,B3,60.0,0.503,85,126.0
189,D4,60.0,0.503,85,126.0
190,B4,60.004,0.499,96,126.0
191,E2,60.004,0.499,96,126.0
192,A4,60.533,0.466,88,126.0
193,B2,60.533,0.466,88,126.0
194,G4,61.029,0.99,89,126.0
195,E3,61.029,0.463,89,126.0
196,B2,61.522,0.468,88,126.0
197,B3,61.854,0.634,83,126.0
198,D4,61.938,0.551,83,126.0
199,B4,62.021,0.468,94,126.0
200,E2,62.021,0.468,94,126.0
201,A4,62.519,0.463,88,126.0
202,B2,62.519,0.463,88,126.0
203,G4,63.012,0.987,89,126.0
204,E3,63.012,0.463,89,126.0
205,B2,63.505,0.465,88,126.0
206,D4,64.004,0.499,93,126.0
207,G2,64.004,0.499,93,126.0
208,D4,64.533,0.242,88,126.0
209,D3,64.533,0.466,88,126.0
210,D4,64.776,0.504,88,126.0
211,G3,65.029,0.463,89,126.0
212,D4,65.281,0.24,88,126.0
213,D4,65.522,0.468,88,126.0
214,B3,65.522,0.468,88,126.0
215,D4,66.021,0.468,91,126.0
216,G3,66.021,0.468,91,126.0
217,C4,66.519,0.463,88,126.0
218,D3,66.519,0.463,88,126.0
219,B3,67.012,0.463,89,126.0
220,G2,67.012,0.463,89,126.0
221,C4,67.505,0.465,88,126.0
222,C#2,67.505,0.465,88,126.0
223,D4,68.004,0.499,92,126.0
224,D2,68.004,0.499,92,126.0
225,D4,68.533,0.242,88,126.0
226,A2,68.533,0.466,88,126.0
227,D4,68.776,0.504,88,126.0
228,D3,69.029,0.463,89,126.0
229,D4,69.281,0.24,88,126.0
230,D4,69.522,0.468,88,126.0
231,G3,69.522,0.468,88,126.0
232,D4,70.021,0.468,90,126.0
233,D2,70.021,0.468,90,126.0
234,C4,70.519,0.463,88,126.0
235,A2,70.519,0.463,88,126.0
236,B3,71.012,0.463,89,126.0
237,D3,71.012,0.463,89,126.0
238,A3,71.505,0.465,87,126.0
239,A4,71.505,0.465,87,126.0
240,A2,71.505,0.465,87,126.0
241,G3,72.004,2.484,80,126.0
242,G4,72.004,3.995,94,126.0
243,E2,72.004,0.499,92,126.0
244,B2,72.533,0.466,88,126.0
245,E3,73.029,0.463,89,126.0
246,B2,73.522,0.468,88,126.0
247,G3,74.021,1.979,91,126.0
248,B2,74.519,0.463,88,126.0
249,E3,75.012,0.463,89,126.0
250,B2,75.505,0.465,88,126.0
251,D4,76.004,0.425,92,126.0
252,B4,76.004,0.425,92,126.0
253,E2,76.004,0.425,92,126.0
254,D4,77.029,0.391,88,126.0
255,A4,77.029,0.391,88,126.0
256,E2,77.029,0.391,88,126.0
257,D4,78.021,0.391,90,126.0
258,G4,78.021,0.391,90,126.0
259,E2,78.021,0.391,90,126.0
260,F#4,79.012,0.388,87,126.0
261,E1,79.012,0.388,87,126.0
262,E2,79.012,0.388,87,126.0
263,E4,80.004,1.518,92,126.0
264,G4,80.004,1.518,92,126.0
265,C1,80.004,0.528,88,126.0
266,C2,80.004,0.528,88,126.0
267,G2,80.533,0.466,88,126.0
268,C3,81.029,0.463,89,126.0
269,E3,81.522,0.468,88,126.0
270,G4,81.522,1.488,87,126.0
271,B4,81.522,1.488,87,126.0
272,C3,82.021,0.468,91,126.0
273,G2,82.519,0.463,88,126.0
274,D4,83.012,0.987,88,126.0
275,G4,83.012,0.987,88,126.0
276,C3,83.012,0.987,88,126.0
277,D4,84.004,0.499,92,126.0
278,F#4,84.004,0.499,92,126.0
279,D2,84.004,0.499,92,126.0
280,A2,84.533,0.466,88,126.0
281,D4,84.533,0.988,87,126.0
282,G4,84.533,0.988,87,126.0
283,D3,85.029,0.463,89,126.0
284,A2,85.522,0.468,88,126.0
285,D4,85.522,1.488,85,126.0
286,G4,85.522,1.488,85,126.0
287,B4,85.522,1.488,85,126.0
288,F#3,86.021,0.468,91,126.0
289,A2,86.519,0.463,88,126.0
290,F#4,87.012,0.987,89,126.0
291,D3,87.012,0.987,89,126.0
292,B3,88.004,2.484,80,126.0
293,G2,88.004,0.499,93,126.0
294,D4,88.004,3.995,87,126.0
295,G4,88.004,3.995,87,126.0
296,D3,88.533,0.466,88,126.0
297,G3,89.029,0.463,89,126.0
298,A3,89.522,0.468,88,126.0
299,B3,90.021,1.979,91,126.0
300,A3,90.519,0.463,88,126.0
301,G3,91.012,0.463,89,126.0
302,D3,91.505,0.494,88,126.0
303,G2,92.004,0.425,88,126.0
304,D3,92.004,0.425,88,126.0
305,G3,92.004,0.425,88,126.0
306,G2,93.029,0.391,84,126.0
307,D3,93.029,0.391,84,126.0
308,G3,93.029,0.391,84,126.0
309,C5,94.021,0.468,91,126.0
310,G2,94.021,0.391,86,126.0
311,D3,94.021,0.391,86,126.0
312,G3,94.021,0.391,86,126.0
313,D5,94.519,0.463,88,126.0
314,E5,95.012,0.463,89,126.0
315,G2,95.012,0.388,84,126.0
316,D3,95.012,0.388,84,126.0
317,G3,95.012,0.388,84,126.0
318,F#5,95.505,0.465,88,126.0
319,G5,96.004,0.499,66,126.0
320,E2,96.004,0.499,66,126.0
321,E5,96.533,0.466,62,126.0
322,B2,96.533,0.466,62,126.0
323,G5,97.029,0.463,63,126.0
324,E3,97.029,0.463,63,126.0
325,A5,97.522,0.468,62,126.0
326,G3,97.522,0.468,62,126.0
327,B5,98.021,0.468,65,126.0
328,G2,98.021,0.468,65,126.0
329,A5,98.519,0.463,62,126.0
330,D3,98.519,0.463,62,126.0
331,G5,99.012,0.463,63,126.0
332,G3,99.012,0.463,63,126.0
333,E5,99.505,0.465,62,126.0
334,D3,99.505,0.465,62,126.0
335,G5,100.004,0.499,67,126.0
336,A2,100.004,0.499,67,126.0
337,E5,100.533,0.466,62,126.0
338,E3,100.533,0.466,62,126.0
339,G5,101.029,0.463,63,126.0
340,A3,101.029,0.99,63,126.0
341,A5,101.522,0.468,62,126.0
342,B2,102.021,0.468,65,126.0
343,E-5,102.021,1.979,62,126.0
344,F#5,102.021,1.979,62,126.0
345,B5,102.021,1.979,62,126.0
346,F#3,102.519,0.463,62,126.0
347,B3,103.012,0.987,63,126.0
348,G5,104.004,0.499,66,126.0
349,E2,104.004,0.499,66,126.0
350,E5,104.533,0.466,62,126.0
351,B2,104.533,0.466,62,126.0
352,G5,105.029,0.463,63,126.0
353,E3,105.029,0.463,63,126.0
354,A5,105.522,0.468,62,126.0
355,B2,105.522,0.468,62,126.0
356,E5,105.854,0.634,57,126.0
357,G5,105.938,0.58,57,126.0
358,B5,106.021,0.468,68,126.0
359,G2,106.021,0.468,68,126.0
360,A5,106.519,0.463,62,126.0
361,D3,106.519,0.463,62,126.0
362,G5,107.012,0.987,63,126.0
363,G3,107.012,0.463,63,126.0
364,D3,107.505,0.465,62,126.0
365,B4,107.838,0.162,59,126.0
366,E5,107.921,0.079,59,126.0
367,B4,108.0,0.503,59,126.0
368,E5,108.0,0.503,59,126.0
369,B5,108.004,0.499,69,126.0
370,C2,108.004,0.499,69,126.0
371,A4,108.533,0.466,61,126.0
372,A5,108.533,0.466,61,126.0
373,G2,108.533,0.466,61,126.0
374,C3,109.029,0.463,63,126.0
375,G4,109.029,0.99,62,126.0
376,G5,109.029,0.99,62,126.0
377,E3,109.522,0.468,62,126.0
378,B4,109.854,0.634,57,126.0
379,D5,109.938,0.551,57,126.0
380,B5,110.021,0.468,68,126.0
381,G2,110.021,0.468,68,126.0
382,A4,110.519,0.463,61,126.0
383,A5,110.519,0.463,61,126.0
384,D3,110.519,0.463,61,126.0
385,G4,111.012,0.987,62,126.0
386,G5,111.012,0.987,62,126.0
387,G3,111.012,0.987,62,126.0
388,G4,112.004,1.024,77,126.0
389,G5,112.004,1.024,77,126.0
390,C2,112.004,0.528,78,126.0
391,G2,112.004,0.528,78,126.0
392,C3,112.533,0.466,75,126.0
393,G4,113.029,0.463,75,126.0
394,G5,113.029,0.463,75,126.0
395,G3,113.029,0.463,75,126.0
396,C4,113.522,0.468,75,126.0
397,B4,113.522,1.488,74,126.0
398,B5,113.522,1.488,74,126.0
399,E4,114.021,0.468,78,126.0
400,G3,114.519,0.463,75,126.0
401,G4,115.012,0.987,75,126.0
402,G5,115.012,0.987,75,126.0
403,C3,115.012,0.987,75,126.0
404,F#4,116.004,0.499,79,126.0
405,F#5,116.004,0.499,79,126.0
406,D2,116.004,0.499,79,126.0
407,A2,116.533,0.466,75,126.0
408,G4,116.533,0.988,74,126.0
409,G5,116.533,0.988,74,126.0
410,D3,117.029,0.463,76,126.0
411,F#3,117.522,0.468,75,126.0
412,B4,117.522,1.488,72,126.0
413,E5,117.522,1.488,72,126.0
414,B5,117.522,1.488,72,126.0
415,A3,118.021,0.468,78,126.0
416,D4,118.519,1.48,75,126.0
417,F#4,119.012,0.987,75,126.0
418,F#5,119.012,0.987,75,126.0
419,G2,120.004,0.499,80,126.0
420,G4,120.004,3.995,72,126.0
421,B4,120.004,3.995,72,126.0
422,G5,120.004,3.995,72,126.0
423,D3,120.533,0.466,75,126.0
424,G3,121.029,0.463,76,126.0
425,A3,121.522,0.468,75,126.0
426,B3,122.021,0.468,78,126.0
427,A3,122.519,0.463,75,126.0
428,G3,123.012,0.463,76,126.0
429,D3,123.505,0.465,75,126.0
430,G2,124.004,0.499,80,126.0
431,D3,124.533,0.466,75,126.0
432,G3,125.029,0.463,76,126.0
433,B3,125.522,0.497,75,126.0
434,G4,126.021,0.391,76,126.0
435,G3,126.021,0.391,76,126.0
436,B3,126.021,0.391,76,126.0
437,D4,126.021,0.391,76,126.0
438,G1,127.012,0.388,74,126.0
439,G2,127.012,0.388,74,126.0
440,G4,128.004,0.771,90,126.0
441,G5,128.004,0.771,90,126.0
442,C1,128.004,0.771,90,126.0
443,C2,128.004,0.771,90,126.0
444,D4,128.776,0.745,87,126.0
445,D5,128.776,0.745,87,126.0
446,G2,128.776,0.745,87,126.0
447,G4,129.522,0.497,86,126.0
448,G5,129.522,0.497,86,126.0
449,C2,129.522,0.497,86,126.0
450,C3,129.522,0.497,86,126.0
451,B4,130.021,0.739,90,126.0
452,B5,130.021,0.739,90,126.0
453,E3,130.021,0.739,90,126.0
454,G2,130.761,1.209,88,126.0
455,A4,130.761,0.743,87,126.0
456,A5,130.761,0.743,87,126.0
457,G4,131.505,0.494,87,126.0
458,G5,131.505,0.494,87,126.0
459,G4,132.004,0.771,91,126.0
460,G5,132.004,0.771,91,126.0
461,G1,132.004,0.771,91,126.0
462,D2,132.004,0.771,91,126.0
463,D4,132.776,0.745,87,126.0
464,D5,132.776,0.745,87,126.0
465,G2,132.776,0.745,87,126.0
466,G4,133.522,0.468,87,126.0
467,G5,133.522,0.468,87,126.0
468,D3,133.522,0.468,87,126.0
469,B4,134.021,0.739,90,126.0
470,B5,134.021,0.739,90,126.0
471,G3,134.021,0.739,90,126.0
472,A4,134.761,0.743,87,126.0
473,A5,134.761,0.743,87,126.0
474,D3,134.761,0.743,87,126.0
475,G4,135.505,0.465,87,126.0
476,G5,135.505,0.465,87,126.0
477,G2,135.505,0.465,87,126.0
478,G4,136.004,0.771,92,126.0
479,G5,136.004,0.771,92,126.0
480,D2,136.004,0.771,92,126.0
481,D4,136.776,0.745,87,126.0
482,D5,136.776,0.745,87,126.0
483,A2,136.776,0.745,87,126.0
484,B4,137.522,0.468,87,126.0
485,B5,137.522,0.468,87,126.0
486,D3,137.522,0.468,87,126.0
487,C5,138.021,0.739,90,126.0
488,C6,138.021,0.739,90,126.0
489,F#3,138.021,0.739,90,126.0
490,B4,138.761,0.743,87,126.0
491,B5,138.761,0.743,87,126.0
492,A2,138.761,0.743,87,126.0
493,G4,139.505,0.465,87,126.0
494,G5,139.505,0.465,87,126.0
495,D3,139.505,0.465,87,126.0
496,A4,140.004,0.771,92,126.0
497,A5,140.004,0.771,92,126.0
498,E2,140.004,0.771,92,126.0
499,G4,140.776,0.745,87,126.0
500,G5,140.776,0.745,87,126.0
501,B2,140.776,0.745,87,126.0
502,F#4,141.522,0.468,87,126.0
503,F#5,141.522,0.468,87,126.0
504,E3,141.522,0.468,87,126.0
505,G3,142.021,0.468,91,126.0
506,G4,142.021,0.99,90,126.0
507,G5,142.021,0.99,90,126.0
508,B2,142.519,0.463,88,126.0
509,G5,143.012,0.235,89,126.0
510,E2,143.012,0.987,88,126.0
511,F#5,143.263,0.227,88,126.0
512,D5,143.505,0.227,88,126.0
513,A4,143.747,0.237,88,126.0
514,G4,144.004,0.771,92,126.0
515,G5,144.004,0.771,92,126.0
516,C2,144.004,0.771,92,126.0
517,D4,144.776,0.745,87,126.0
518,D5,144.776,0.745,87,126.0
519,C3,144.776,0.745,87,126.0
520,G4,145.522,0.468,87,126.0
521,G5,145.522,0.468,87,126.0
522,G3,145.522,0.468,87,126.0
523,B4,146.021,0.739,90,126.0
524,B5,146.021,0.739,90,126.0
525,C4,146.021,0.739,90,126.0
526,G3,146.761,1.238,88,126.0
527,A4,146.761,0.743,87,126.0
528,A5,146.761,0.743,87,126.0
529,G4,147.505,0.494,87,126.0
530,G5,147.505,0.494,87,126.0
531,G4,148.004,0.771,92,126.0
532,G5,148.004,0.771,92,126.0
533,G2,148.004,0.771,92,126.0
534,D4,148.776,0.745,87,126.0
535,D5,148.776,0.745,87,126.0
536,D3,148.776,0.745,87,126.0
537,B4,149.522,0.468,87,126.0
538,B5,149.522,0.468,87,126.0
539,G3,149.522,0.468,87,126.0
540,B3,150.021,0.468,91,126.0
541,G4,150.021,0.99,90,126.0
542,G5,150.021,0.99,90,126.0
543,D3,150.519,0.463,88,126.0
544,D4,151.012,0.987,88,126.0
545,D5,151.012,0.987,88,126.0
546,G2,151.012,0.987,88,126.0
547,D2,152.004,0.499,92,126.0
548,D5,152.004,3.995,85,126.0
549,G5,152.004,3.995,85,126.0
550,D6,152.004,3.995,85,126.0
551,A2,152.533,0.466,88,126.0
552,D3,153.029,0.463,89,126.0
553,F#3,153.522,0.468,88,126.0
554,A3,154.021,0.468,91,126.0
555,D4,154.519,0.463,88,126.0
556,A3,155.012,0.463,89,126.0
557,F#3,155.505,0.465,88,126.0
558,F#4,156.004,0.425,91,126.0
559,F#5,156.004,0.425,91,126.0
560,E2,156.004,0.425,91,126.0
561,E3,156.004,0.425,91,126.0
562,G4,157.029,0.391,87,126.0
563,G5,157.029,0.391,87,126.0
564,E2,157.029,0.391,87,126.0
565,E3,157.029,0.391,87,126.0
566,D5,158.021,0.497,90,126.0
567,D6,158.021,0.497,90,126.0
568,E2,158.021,0.391,90,126.0
569,E3,158.021,0.391,90,126.0
570,G4,158.519,0.192,87,126.0
571,G5,158.519,0.192,87,126.0
572,G4,159.012,0.388,86,126.0
573,G5,159.012,0.388,86,126.0
574,E1,159.012,0.388,86,126.0
575,E2,159.012,0.388,86,126.0
576,G4,160.004,0.528,90,126.0
577,G5,160.004,0.528,90,126.0
578,C1,160.004,0.528,90,126.0
579,C2,160.004,0.528,90,126.0
580,E4,160.533,0.466,87,126.0
581,E5,160.533,0.466,87,126.0
582,G2,160.533,0.466,87,126.0
583,G4,161.029,0.463,88,126.0
584,G5,161.029,0.463,88,126.0
585,C3,161.029,0.463,88,126.0
586,A4,161.522,0.468,87,126.0
587,A5,161.522,0.468,87,126.0
588,G2,161.522,0.468,87,126.0
589,B4,162.021,0.468,90,126.0
590,B5,162.021,0.468,90,126.0
591,D2,162.021,0.468,90,126.0
592,A4,162.519,0.463,87,126.0
593,A5,162.519,0.463,87,126.0
594,A2,162.519,0.463,87,126.0
595,D3,163.012,0.987,89,126.0
596,G4,163.012,0.492,88,126.0
597,G5,163.012,0.492,88,126.0
598,E4,163.505,0.494,87,126.0
599,E5,163.505,0.494,87,126.0
600,E2,164.004,1.024,92,126.0
601,G4,164.004,0.528,92,126.0
602,G5,164.004,0.528,92,126.0
603,E4,164.533,0.495,87,126.0
604,E5,164.533,0.495,87,126.0
605,D5,165.029,0.99,87,126.0
606,D6,165.029,0.99,87,126.0
607,F#1,165.029,0.99,87,126.0
608,F#2,165.029,0.99,87,126.0
609,G4,166.021,0.99,90,126.0
610,G5,166.021,0.99,90,126.0
611,G1,166.021,0.497,88,126.0
612,G2,166.021,0.497,88,126.0
613,D3,166.519,0.463,88,126.0
614,G3,167.012,0.463,89,126.0
615,B3,167.505,0.465,88,126.0
616,G4,168.004,0.528,92,126.0
617,G5,168.004,0.528,92,126.0
618,C2,168.004,0.528,92,126.0
619,C3,168.004,0.528,92,126.0
620,E4,168.533,0.466,87,126.0
621,E5,168.533,0.466,87,126.0
622,G3,168.533,0.466,87,126.0
623,G4,169.029,0.463,88,126.0
624,G5,169.029,0.463,88,126.0
625,C4,169.029,0.463,88,126.0
626,A4,169.522,0.468,87,126.0
627,A5,169.522,0.468,87,126.0
628,G3,169.522,0.468,87,126.0
629,B4,170.021,0.468,90,126.0
630,B5,170.021,0.468,90,126.0
631,D2,170.021,0.468,90,126.0
632,B4,170.519,0.463,87,126.0
633,B5,170.519,0.463,87,126.0
634,A2,170.519,0.463,87,126.0
635,A4,171.012,0.463,88,126.0
636,A5,171.012,0.463,88,126.0
637,D3,171.012,0.463,88,126.0
638,G4,171.505,0.465,87,126.0
639,G5,171.505,0.465,87,126.0
640,A2,171.505,0.465,87,126.0
641,G2,172.004,0.499,93,126.0
642,G4,172.004,1.518,91,126.0
643,D5,172.004,1.518,91,126.0
644,G5,172.004,1.518,91,126.0
645,D3,172.533,0.466,88,126.0
646,G3,173.029,0.463,89,126.0
647,G4,173.522,0.227,88,126.0
648,B3,173.522,0.468,88,126.0
649,A4,173.765,0.24,88,126.0
650,B4,174.021,0.241,91,126.0
651,G2,174.021,0.468,91,126.0
652,G4,174.277,0.226,88,126.0
653,A4,174.519,0.227,88,126.0
654,D3,174.519,0.463,88,126.0
655,G4,174.761,0.235,88,126.0
656,D5,175.012,0.235,89,126.0
657,G2,175.012,0.987,89,126.0
658,C5,175.263,0.227,88,126.0
659,B4,175.505,0.227,88,126.0
660,A4,175.747,0.237,88,126.0
661,G4,176.004,0.499,92,126.0
662,G5,176.004,0.499,92,126.0
663,C2,176.004,0.499,92,126.0
664,E4,176.533,0.466,87,126.0
665,E5,176.533,0.466,87,126.0
666,C3,176.533,0.466,87,126.0
667,G4,177.029,0.463,88,126.0
668,G5,177.029,0.463,88,126.0
669,G3,177.029,0.463,88,126.0
670,A4,177.522,0.468,87,126.0
671,A5,177.522,0.468,87,126.0
672,C4,177.522,0.468,87,126.0
673,B4,178.021,0.468,90,126.0
674,B5,178.021,0.468,90,126.0
675,D2,178.021,0.468,90,126.0
676,A4,178.519,0.463,87,126.0
677,A5,178.519,0.463,87,126.0
678,A2,178.519,0.463,87,126.0
679,D3,179.012,0.987,89,126.0
680,G4,179.012,0.492,88,126.0
681,G5,179.012,0.492,88,126.0
682,E4,179.505,0.494,87,126.0
683,E5,179.505,0.494,87,126.0
684,E2,180.004,1.024,92,126.0
685,G4,180.004,0.528,92,126.0
686,G5,180.004,0.528,92,126.0
687,E4,180.533,0.495,87,126.0
688,E5,180.533,0.495,87,126.0
689,D5,181.029,0.99,87,126.0
690,D6,181.029,0.99,87,126.0
691,F#1,181.029,0.99,87,126.0
692,F#2,181.029,0.99,87,126.0
693,G4,182.021,0.99,90,126.0
694,G5,182.021,0.99,90,126.0
695,G1,182.021,0.497,88,126.0
696,G2,182.021,0.497,88,126.0
697,D3,182.519,0.463,88,126.0
698,G3,183.012,0.463,89,126.0
699,B3,183.505,0.465,88,126.0
700,G4,184.004,0.528,92,126.0
701,G5,184.004,0.528,92,126.0
702,C2,184.004,0.528,92,126.0
703,C3,184.004,0.528,92,126.0
704,E4,184.533,0.466,87,126.0
705,E5,184.533,0.466,87,126.0
706,G3,184.533,0.466,87,126.0
707,C4,185.029,0.99,89,126.0
708,G4,185.029,0.492,88,126.0
709,G5,185.029,0.492,88,126.0
710,A4,185.522,0.497,87,126.0
711,A5,185.522,0.497,87,126.0
712,B4,186.021,0.497,90,126.0
713,B5,186.021,0.497,90,126.0
714,D2,186.021,0.497,90,126.0
715,D3,186.021,0.497,90,126.0
716,B4,186.519,0.463,87,126.0
717,B5,186.519,0.463,87,126.0
718,A2,186.519,0.463,87,126.0
719,D3,187.012,0.987,89,126.0
720,A4,187.012,0.492,88,126.0
721,A5,187.012,0.492,88,126.0
722,G4,187.505,0.494,87,126.0
723,G5,187.505,0.494,87,126.0
724,E2,188.004,0.499,92,126.0
725,G4,188.004,3.995,86,126.0
726,B4,188.004,3.995,86,126.0
727,G5,188.004,3.995,86,126.0
728,B2,188.533,0.466,88,126.0
729,E3,189.029,0.463,89,126.0
730,B2,189.522,0.468,88,126.0
731,G3,190.021,0.468,91,126.0
732,B2,190.519,0.463,88,126.0
733,E2,191.012,0.492,88,126.0
734,E3,191.012,0.492,88,126.0
735,D2,191.505,0.494,86,126.0
736,D3,191.505,0.494,86,126.0
737,G4,192.004,0.771,92,126.0
738,G5,192.004,0.771,92,126.0
739,C2,192.004,0.771,92,126.0
740,C3,192.004,0.771,92,126.0
741,D4,192.776,0.745,87,126.0
742,D5,192.776,0.745,87,126.0
743,G3,192.776,0.745,87,126.0
744,G4,193.522,0.468,87,126.0
745,G5,193.522,0.468,87,126.0
746,C4,193.522,0.468,87,126.0
747,B4,194.021,0.739,90,126.0
748,B5,194.021,0.739,90,126.0
749,C3,194.021,0.739,90,126.0
750,A4,194.761,0.743,87,126.0
751,A5,194.761,0.743,87,126.0
752,G3,194.761,0.743,87,126.0
753,G4,195.505,0.494,87,126.0
754,G5,195.505,0.494,87,126.0
755,G4,196.004,0.771,92,126.0
756,G5,196.004,0.771,92,126.0
757,G1,196.004,1.518,90,126.0
758,G2,196.004,1.518,90,126.0
759,D4,196.776,0.745,87,126.0
760,D5,196.776,0.745,87,126.0
761,B4,197.522,0.468,87,126.0
762,B5,197.522,0.468,87,126.0
763,G3,197.522,0.468,87,126.0
764,D3,198.021,0.468,91,126.0
765,G4,198.021,0.99,90,126.0
766,G5,198.021,0.99,90,126.0
767,D4,199.012,0.987,88,126.0
768,D5,199.012,0.987,88,126.0
769,D2,200.004,3.007,87,126.0
770,D5,200.004,1.024,90,126.0
771,G5,200.004,1.024,90,126.0
772,D6,200.004,1.024,90,126.0
773,D4,201.029,0.236,89,126.0
774,F#4,201.281,0.226,88,126.0
775,A4,201.522,0.227,88,126.0
776,D5,201.765,0.24,88,126.0
777,F#5,202.021,0.241,91,126.0
778,A5,202.277,0.226,88,126.0
779,D6,202.519,0.227,88,126.0
780,F#6,202.761,0.235,88,126.0
781,D6,203.012,0.987,88,126.0
782,D7,203.012,0.987,88,126.0
783,D2,203.012,0.388,88,126.0
784,D3,203.012,0.388,88,126.0
785,F#5,204.004,0.425,92,126.0
786,F#6,204.004,0.425,92,126.0
787,G5,205.029,0.391,88,126.0
788,G6,205.029,0.391,88,126.0
789,D6,206.021,0.391,90,126.0
790,D7,206.021,0.391,90,126.0
791,G5,207.012,0.388,88,126.0
792,G6,207.012,0.388,88,126.0
793,G1,208.004,0.425,90,126.0
