,note_name,start_time,duration,velocity,tempo
0,E-2,0.0,4/5,127,122.0
1,B-5,0.0,3.0,127,122.0
2,B-4,0.0,0.75,127,122.0
3,F#4,0.0,0.75,127,122.0
4,E-4,0.0,0.75,127,122.0
5,B-3,0.0,0.75,127,122.0
6,E-3,0.0,0.75,127,122.0
7,F#3,0.0,0.5,127,122.0
8,B1,0.0,0.5,127,122.0
9,F#3,0.5,0.5,127,122.0
10,E-2,1.0,4/5,127,122.0
11,B-4,1.0,0.75,127,122.0
12,F#4,1.0,0.75,127,122.0
13,E-4,1.0,0.75,127,122.0
14,B-3,1.0,0.75,127,122.0
15,E-3,1.0,0.75,127,122.0
16,F#3,1.0,0.5,127,122.0
17,D2,1.0,0.5,127,122.0
18,F#3,1.5,0.25,127,122.0
19,B1,1.5,0.25,127,122.0
20,F#3,1.75,0.25,127,122.0
21,B1,1.75,0.25,127,122.0
22,E-2,2.0,3/5,127,122.0
23,B-4,2.0,319/500,127,122.0
24,F#4,2.0,319/500,127,122.0
25,E-4,2.0,319/500,127,122.0
26,B-3,2.0,319/500,127,122.0
27,E-3,2.0,319/500,127,122.0
28,F#3,2.5,0.5,127,122.0
29,B1,2.5,0.5,127,122.0
30,E-2,2.75,0.5,127,122.0
31,B-4,2.75,0.5,127,122.0
32,F#4,2.75,0.5,127,122.0
33,E-4,2.75,0.5,127,122.0
34,B-3,2.75,0.5,127,122.0
35,E-3,2.75,0.5,127,122.0
36,B-5,3.0,0.25,127,122.0
37,F#3,3.0,0.5,127,122.0
38,D2,3.0,0.5,127,122.0
39,B1,3.25,0.25,127,122.0
40,B5,3.25,0.25,127,122.0
41,B-4,3.25,0.25,127,122.0
42,F#4,3.25,0.25,127,122.0
43,E-4,3.25,0.25,127,122.0
44,B3,3.25,0.25,127,122.0
45,E-3,3.25,0.25,127,122.0
46,E-2,3.5,0.5,127,122.0
47,B-5,3.5,0.5,127,122.0
48,B-4,3.5,0.5,127,122.0
49,F#4,3.5,0.5,127,122.0
50,E-4,3.5,0.5,127,122.0
51,B-3,3.5,0.5,127,122.0
52,E-3,3.5,0.5,127,122.0
53,F#3,3.5,0.5,127,122.0
54,B1,3.5,0.5,127,122.0
55,G#2,4.0,0.375,127,122.0
56,G#5,4.0,3.0,127,122.0
57,E-4,4.0,0.75,127,122.0
58,C4,4.0,0.75,127,122.0
59,G#3,4.0,0.75,127,122.0
60,E-3,4.0,0.75,127,122.0
61,G#2,4.0,0.75,127,122.0
62,F#3,4.0,0.5,127,122.0
63,B1,4.0,0.5,127,122.0
64,G#1,4.5,0.125,127,122.0
65,F#3,4.5,0.5,127,122.0
66,G#1,5.0,4/5,127,122.0
67,E-4,5.0,0.75,127,122.0
68,C4,5.0,0.75,127,122.0
69,G#3,5.0,0.75,127,122.0
70,E-3,5.0,0.75,127,122.0
71,G#2,5.0,0.75,127,122.0
72,F#3,5.0,0.5,127,122.0
73,D2,5.0,0.5,127,122.0
74,F#3,5.5,0.25,127,122.0
75,B1,5.5,0.25,127,122.0
76,F#3,5.75,0.25,127,122.0
77,B1,5.75,0.25,127,122.0
78,G#1,6.0,3/5,127,122.0
79,E-4,6.0,319/500,127,122.0
80,C4,6.0,319/500,127,122.0
81,G#3,6.0,319/500,127,122.0
82,E-3,6.0,319/500,127,122.0
83,G#2,6.0,319/500,127,122.0
84,F#3,6.5,0.5,127,122.0
85,B1,6.5,0.5,127,122.0
86,G#1,6.75,0.5,127,122.0
87,E-4,6.75,0.5,127,122.0
88,C4,6.75,0.5,127,122.0
89,G#3,6.75,0.5,127,122.0
90,E-3,6.75,0.5,127,122.0
91,G#2,6.75,0.5,127,122.0
92,G#5,7.0,0.25,127,122.0
93,F#3,7.0,0.5,127,122.0
94,D2,7.0,0.5,127,122.0
95,G#1,7.25,0.25,127,122.0
96,B-5,7.25,0.25,127,122.0
97,E-4,7.25,0.25,127,122.0
98,C4,7.25,0.25,127,122.0
99,G#3,7.25,0.25,127,122.0
100,E-3,7.25,0.25,127,122.0
101,E2,7.25,0.25,127,122.0
102,B-1,7.5,0.5,127,122.0
103,G#5,7.5,0.5,127,122.0
104,E-4,7.5,0.5,127,122.0
105,C4,7.5,0.5,127,122.0
106,G#3,7.5,0.5,127,122.0
107,E-3,7.5,0.5,127,122.0
108,G#2,7.5,0.5,127,122.0
109,F#3,7.5,0.5,127,122.0
110,B1,7.5,0.5,127,122.0
111,B2,8.0,0.375,127,122.0
112,B5,8.0,3.0,127,122.0
113,F#4,8.0,0.75,127,122.0
114,E-4,8.0,0.75,127,122.0
115,B3,8.0,0.75,127,122.0
116,F#3,8.0,0.75,127,122.0
117,B2,8.0,0.75,127,122.0
118,F#3,8.0,0.5,127,122.0
119,B1,8.0,0.5,127,122.0
120,B1,8.5,0.125,127,122.0
121,F#3,8.5,0.5,127,122.0
122,B1,9.0,4/5,127,122.0
123,F#4,9.0,0.75,127,122.0
124,E-4,9.0,0.75,127,122.0
125,B3,9.0,0.75,127,122.0
126,F#3,9.0,0.75,127,122.0
127,B2,9.0,0.75,127,122.0
128,F#3,9.0,0.5,127,122.0
129,D2,9.0,0.5,127,122.0
130,F#3,9.5,0.25,127,122.0
131,B1,9.5,0.25,127,122.0
132,F#3,9.75,0.25,127,122.0
133,B1,9.75,0.25,127,122.0
134,B1,10.0,3/5,127,122.0
135,F#4,10.0,319/500,127,122.0
136,E-4,10.0,319/500,127,122.0
137,B3,10.0,319/500,127,122.0
138,F#3,10.0,319/500,127,122.0
139,B2,10.0,319/500,127,122.0
140,F#3,10.5,0.5,127,122.0
141,B1,10.5,0.5,127,122.0
142,B1,10.75,0.5,127,122.0
143,F#4,10.75,0.5,127,122.0
144,E-4,10.75,0.5,127,122.0
145,B3,10.75,0.5,127,122.0
146,F#3,10.75,0.5,127,122.0
147,B2,10.75,0.5,127,122.0
148,B5,11.0,0.25,127,122.0
149,F#3,11.0,0.5,127,122.0
150,D2,11.0,0.5,127,122.0
151,C#2,11.25,0.25,127,122.0
152,C#6,11.25,0.25,127,122.0
153,F#4,11.25,0.25,127,122.0
154,E-4,11.25,0.25,127,122.0
155,B3,11.25,0.25,127,122.0
156,F#3,11.25,0.25,127,122.0
157,B2,11.25,0.25,127,122.0
158,B1,11.5,0.5,127,122.0
159,B5,11.5,0.5,127,122.0
160,F#4,11.5,0.5,127,122.0
161,E-4,11.5,0.5,127,122.0
162,B3,11.5,0.5,127,122.0
163,F#3,11.5,0.5,127,122.0
164,B2,11.5,0.5,127,122.0
165,F#3,11.5,0.5,127,122.0
166,B1,11.5,0.5,127,122.0
167,E-2,12.0,0.5,127,122.0
168,B-5,12.0,3.0,127,122.0
169,B-4,12.0,1.0,127,122.0
170,F#4,12.0,1.0,127,122.0
171,E-4,12.0,1.0,127,122.0
172,B-3,12.0,0.5,127,122.0
173,E-3,12.0,0.5,127,122.0
174,F#3,12.0,0.5,127,122.0
175,B1,12.0,0.5,127,122.0
176,B-3,12.5,0.5,127,122.0
177,E-3,12.5,1.0,127,122.0
178,E-2,12.5,0.5,127,122.0
179,E-5,12.5,0.5,127,122.0
180,F#3,12.5,0.5,127,122.0
181,E-4,13.0,0.75,127,122.0
182,E-3,13.0,0.5,127,122.0
183,E-6,13.0,0.5,127,122.0
184,B-4,13.0,0.5,127,122.0
185,F#4,13.0,0.5,127,122.0
186,B-3,13.0,0.5,127,122.0
187,F#3,13.0,0.5,127,122.0
188,D2,13.0,0.5,127,122.0
189,B-3,13.5,0.25,127,122.0
190,E-3,13.5,0.75,127,122.0
191,E-2,13.5,0.25,127,122.0
192,E-5,13.5,0.25,127,122.0
193,F#3,13.5,0.25,127,122.0
194,B1,13.5,0.25,127,122.0
195,E-4,13.75,0.75,127,122.0
196,E-3,13.75,0.5,127,122.0
197,E-6,13.75,0.5,127,122.0
198,B-4,13.75,0.5,127,122.0
199,F#4,13.75,0.5,127,122.0
200,B-3,13.75,0.5,127,122.0
201,F#3,13.75,0.25,127,122.0
202,B1,13.75,0.25,127,122.0
203,B-3,14.25,0.25,127,122.0
204,E-3,14.25,1.25,127,122.0
205,E-2,14.25,0.25,127,122.0
206,E-5,14.25,0.25,127,122.0
207,B-2,14.5,0.5,127,122.0
208,B-5,14.5,1.5,127,122.0
209,E-4,14.5,0.5,127,122.0
210,B-3,14.5,0.5,127,122.0
211,F#3,14.5,0.5,127,122.0
212,B1,14.5,0.5,127,122.0
213,G#2,15.0,0.5,127,122.0
214,G#5,15.0,0.5,127,122.0
215,E-4,15.0,0.5,127,122.0
216,G#3,15.0,0.5,127,122.0
217,F#3,15.0,0.5,127,122.0
218,D2,15.0,0.5,127,122.0
219,F#2,15.5,0.5,127,122.0
220,F#5,15.5,0.5,127,122.0
221,F#3,15.5,0.5,127,122.0
222,D2,15.5,0.25,127,122.0
223,B-3,15.5,0.5,127,122.0
224,F#3,15.5,0.5,127,122.0
225,D2,15.75,0.25,127,122.0
226,E-2,16.0,4/5,127,122.0
227,B-5,16.0,3.0,127,122.0
228,B-4,16.0,0.75,127,122.0
229,F#4,16.0,0.75,127,122.0
230,E-4,16.0,0.75,127,122.0
231,B-3,16.0,0.75,127,122.0
232,E-3,16.0,0.75,127,122.0
233,F#3,16.0,0.5,127,122.0
234,B1,16.0,0.5,127,122.0
235,F#3,16.5,0.5,127,122.0
236,E-2,17.0,4/5,127,122.0
237,B-4,17.0,0.75,127,122.0
238,F#4,17.0,0.75,127,122.0
239,E-4,17.0,0.75,127,122.0
240,B-3,17.0,0.75,127,122.0
241,E-3,17.0,0.75,127,122.0
242,F#3,17.0,0.5,127,122.0
243,D2,17.0,0.5,127,122.0
244,F#3,17.5,0.25,127,122.0
245,B1,17.5,0.25,127,122.0
246,F#3,17.75,0.25,127,122.0
247,B1,17.75,0.25,127,122.0
248,E-2,18.0,3/5,127,122.0
249,B-4,18.0,319/500,127,122.0
250,F#4,18.0,319/500,127,122.0
251,E-4,18.0,319/500,127,122.0
252,B-3,18.0,319/500,127,122.0
253,E-3,18.0,319/500,127,122.0
254,F#3,18.5,0.5,127,122.0
255,B1,18.5,0.5,127,122.0
256,E-2,18.75,0.5,127,122.0
257,B-4,18.75,0.5,127,122.0
258,F#4,18.75,0.5,127,122.0
259,E-4,18.75,0.5,127,122.0
260,B-3,18.75,0.5,127,122.0
261,E-3,18.75,0.5,127,122.0
262,B-5,19.0,0.25,127,122.0
263,F#3,19.0,0.5,127,122.0
264,D2,19.0,0.5,127,122.0
265,B1,19.25,0.25,127,122.0
266,B5,19.25,0.25,127,122.0
267,B-4,19.25,0.25,127,122.0
268,F#4,19.25,0.25,127,122.0
269,E-4,19.25,0.25,127,122.0
270,B3,19.25,0.25,127,122.0
271,E-3,19.25,0.25,127,122.0
272,E-2,19.5,0.5,127,122.0
273,B-5,19.5,0.5,127,122.0
274,B-4,19.5,0.5,127,122.0
275,F#4,19.5,0.5,127,122.0
276,E-4,19.5,0.5,127,122.0
277,B-3,19.5,0.5,127,122.0
278,E-3,19.5,0.5,127,122.0
279,F#3,19.5,0.5,127,122.0
280,B1,19.5,0.5,127,122.0
281,G#2,20.0,0.375,127,122.0
282,G#5,20.0,3.0,127,122.0
283,E-4,20.0,0.75,127,122.0
284,C4,20.0,0.75,127,122.0
285,G#3,20.0,0.75,127,122.0
286,E-3,20.0,0.75,127,122.0
287,G#2,20.0,0.75,127,122.0
288,F#3,20.0,0.5,127,122.0
289,B1,20.0,0.5,127,122.0
290,G#1,20.5,0.125,127,122.0
291,F#3,20.5,0.5,127,122.0
292,G#1,21.0,4/5,127,122.0
293,E-4,21.0,0.75,127,122.0
294,C4,21.0,0.75,127,122.0
295,G#3,21.0,0.75,127,122.0
296,E-3,21.0,0.75,127,122.0
297,G#2,21.0,0.75,127,122.0
298,F#3,21.0,0.5,127,122.0
299,D2,21.0,0.5,127,122.0
300,F#3,21.5,0.25,127,122.0
301,B1,21.5,0.25,127,122.0
302,F#3,21.75,0.25,127,122.0
303,B1,21.75,0.25,127,122.0
304,G#1,22.0,3/5,127,122.0
305,E-4,22.0,319/500,127,122.0
306,C4,22.0,319/500,127,122.0
307,G#3,22.0,319/500,127,122.0
308,E-3,22.0,319/500,127,122.0
309,G#2,22.0,319/500,127,122.0
310,F#3,22.5,0.5,127,122.0
311,B1,22.5,0.5,127,122.0
312,G#1,22.75,0.5,127,122.0
313,E-4,22.75,0.5,127,122.0
314,C4,22.75,0.5,127,122.0
315,G#3,22.75,0.5,127,122.0
316,E-3,22.75,0.5,127,122.0
317,G#2,22.75,0.5,127,122.0
318,G#5,23.0,0.25,127,122.0
319,F#3,23.0,0.5,127,122.0
320,D2,23.0,0.5,127,122.0
321,G#1,23.25,0.25,127,122.0
322,B-5,23.25,0.25,127,122.0
323,E-4,23.25,0.25,127,122.0
324,C4,23.25,0.25,127,122.0
325,G#3,23.25,0.25,127,122.0
326,E-3,23.25,0.25,127,122.0
327,E2,23.25,0.25,127,122.0
328,B-1,23.5,0.5,127,122.0
329,G#5,23.5,0.5,127,122.0
330,E-4,23.5,0.5,127,122.0
331,C4,23.5,0.5,127,122.0
332,G#3,23.5,0.5,127,122.0
333,E-3,23.5,0.5,127,122.0
334,G#2,23.5,0.5,127,122.0
335,F#3,23.5,0.5,127,122.0
336,B1,23.5,0.5,127,122.0
337,B2,24.0,0.375,127,122.0
338,B5,24.0,3.0,127,122.0
339,F#4,24.0,0.75,127,122.0
340,E-4,24.0,0.75,127,122.0
341,B3,24.0,0.75,127,122.0
342,F#3,24.0,0.75,127,122.0
343,B2,24.0,0.75,127,122.0
344,F#3,24.0,0.5,127,122.0
345,B1,24.0,0.5,127,122.0
346,B1,24.5,0.125,127,122.0
347,F#3,24.5,0.5,127,122.0
348,B1,25.0,4/5,127,122.0
349,F#4,25.0,0.75,127,122.0
350,E-4,25.0,0.75,127,122.0
351,B3,25.0,0.75,127,122.0
352,F#3,25.0,0.75,127,122.0
353,B2,25.0,0.75,127,122.0
354,F#3,25.0,0.5,127,122.0
355,D2,25.0,0.5,127,122.0
356,F#3,25.5,0.25,127,122.0
357,B1,25.5,0.25,127,122.0
358,F#3,25.75,0.25,127,122.0
359,B1,25.75,0.25,127,122.0
360,B1,26.0,3/5,127,122.0
361,F#4,26.0,319/500,127,122.0
362,E-4,26.0,319/500,127,122.0
363,B3,26.0,319/500,127,122.0
364,F#3,26.0,319/500,127,122.0
365,B2,26.0,319/500,127,122.0
366,F#3,26.5,0.5,127,122.0
367,B1,26.5,0.5,127,122.0
368,B1,26.75,0.5,127,122.0
369,F#4,26.75,0.5,127,122.0
370,E-4,26.75,0.5,127,122.0
371,B3,26.75,0.5,127,122.0
372,F#3,26.75,0.5,127,122.0
373,B2,26.75,0.5,127,122.0
374,B5,27.0,0.25,127,122.0
375,F#3,27.0,0.5,127,122.0
376,D2,27.0,0.5,127,122.0
377,C#2,27.25,0.25,127,122.0
378,C#6,27.25,0.25,127,122.0
379,F#4,27.25,0.25,127,122.0
380,E-4,27.25,0.25,127,122.0
381,B3,27.25,0.25,127,122.0
382,F#3,27.25,0.25,127,122.0
383,B2,27.25,0.25,127,122.0
384,B1,27.5,0.5,127,122.0
385,B5,27.5,0.5,127,122.0
386,F#4,27.5,0.5,127,122.0
387,E-4,27.5,0.5,127,122.0
388,B3,27.5,0.5,127,122.0
389,F#3,27.5,0.5,127,122.0
390,B2,27.5,0.5,127,122.0
391,F#3,27.5,0.5,127,122.0
392,B1,27.5,0.5,127,122.0
393,E-2,28.0,0.5,127,122.0
394,B-5,28.0,3.0,127,122.0
395,B-4,28.0,1.0,127,122.0
396,F#4,28.0,1.0,127,122.0
397,E-4,28.0,1.0,127,122.0
398,B-3,28.0,0.5,127,122.0
399,E-3,28.0,0.5,127,122.0
400,F#3,28.0,0.5,127,122.0
401,B1,28.0,0.5,127,122.0
402,B-3,28.5,0.5,127,122.0
403,E-3,28.5,1.0,127,122.0
404,E-2,28.5,0.5,127,122.0
405,E-5,28.5,0.5,127,122.0
406,F#3,28.5,0.5,127,122.0
407,E-4,29.0,0.75,127,122.0
408,E-3,29.0,0.5,127,122.0
409,E-6,29.0,0.5,127,122.0
410,B-4,29.0,0.5,127,122.0
411,F#4,29.0,0.5,127,122.0
412,B-3,29.0,0.5,127,122.0
413,F#3,29.0,0.5,127,122.0
414,D2,29.0,0.5,127,122.0
415,B-3,29.5,0.25,127,122.0
416,E-3,29.5,0.75,127,122.0
417,E-2,29.5,0.25,127,122.0
418,E-5,29.5,0.25,127,122.0
419,F#3,29.5,0.25,127,122.0
420,B1,29.5,0.25,127,122.0
421,E-4,29.75,0.75,127,122.0
422,E-3,29.75,0.5,127,122.0
423,E-6,29.75,0.5,127,122.0
424,B-4,29.75,0.5,127,122.0
425,F#4,29.75,0.5,127,122.0
426,B-3,29.75,0.5,127,122.0
427,F#3,29.75,0.25,127,122.0
428,B1,29.75,0.25,127,122.0
429,B-3,30.25,0.25,127,122.0
430,E-3,30.25,1.25,127,122.0
431,E-2,30.25,0.25,127,122.0
432,E-5,30.25,0.25,127,122.0
433,B-2,30.5,0.5,127,122.0
434,B-5,30.5,1.5,127,122.0
435,E-4,30.5,0.5,127,122.0
436,B-3,30.5,0.5,127,122.0
437,F#3,30.5,0.5,127,122.0
438,B1,30.5,0.5,127,122.0
439,G#2,31.0,0.5,127,122.0
440,G#5,31.0,0.5,127,122.0
441,E-4,31.0,0.5,127,122.0
442,G#3,31.0,0.5,127,122.0
443,F#3,31.0,0.5,127,122.0
444,D2,31.0,0.5,127,122.0
445,F#2,31.5,0.5,127,122.0
446,F#5,31.5,0.5,127,122.0
447,F#3,31.5,0.5,127,122.0
448,D2,31.5,0.25,127,122.0
449,B-3,31.5,0.5,127,122.0
450,F#3,31.5,0.5,127,122.0
451,D2,31.75,0.25,127,122.0
452,E-4,31.75,0.25,127,122.0
453,E-2,32.0,4/5,127,122.0
454,B-4,32.0,0.5,127,122.0
455,B-4,32.0,0.75,127,122.0
456,F#4,32.0,0.75,127,122.0
457,E-4,32.0,0.75,127,122.0
458,B-3,32.0,0.75,127,122.0
459,E-3,32.0,0.75,127,122.0
460,E-3,32.0,0.5,127,122.0
461,F#3,32.0,0.5,127,122.0
462,B1,32.0,0.5,127,122.0
463,F#3,32.5,0.5,127,122.0
464,B-4,32.5,0.5,127,122.0
465,E-2,33.0,4/5,127,122.0
466,B-4,33.0,0.5,127,122.0
467,B-4,33.0,0.75,127,122.0
468,F#4,33.0,0.75,127,122.0
469,E-4,33.0,0.75,127,122.0
470,B-3,33.0,0.75,127,122.0
471,E-3,33.0,0.75,127,122.0
472,F#3,33.0,0.5,127,122.0
473,D2,33.0,0.5,127,122.0
474,B-4,33.5,0.5,127,122.0
475,F#3,33.5,0.25,127,122.0
476,B1,33.5,0.25,127,122.0
477,F#3,33.75,0.25,127,122.0
478,B1,33.75,0.25,127,122.0
479,E-2,34.0,3/5,127,122.0
480,B-4,34.0,0.5,127,122.0
481,B-4,34.0,319/500,127,122.0
482,F#4,34.0,319/500,127,122.0
483,E-4,34.0,319/500,127,122.0
484,B-3,34.0,319/500,127,122.0
485,E-3,34.0,319/500,127,122.0
486,B-4,34.5,0.25,127,122.0
487,F#3,34.5,0.5,127,122.0
488,B1,34.5,0.5,127,122.0
489,E-2,34.75,0.5,127,122.0
490,B-4,34.75,0.75,127,122.0
491,B-4,34.75,0.5,127,122.0
492,F#4,34.75,0.5,127,122.0
493,E-4,34.75,0.5,127,122.0
494,B-3,34.75,0.5,127,122.0
495,E-3,34.75,0.5,127,122.0
496,F#3,35.0,0.5,127,122.0
497,D2,35.0,0.5,127,122.0
498,B1,35.25,0.25,127,122.0
499,B-4,35.25,0.25,127,122.0
500,F#4,35.25,0.25,127,122.0
501,E-4,35.25,0.25,127,122.0
502,B3,35.25,0.25,127,122.0
503,E-3,35.25,0.25,127,122.0
504,E-2,35.5,0.5,127,122.0
505,E-4,35.5,0.5,127,122.0
506,B-4,35.5,0.5,127,122.0
507,F#4,35.5,0.5,127,122.0
508,E-4,35.5,0.5,127,122.0
509,B-3,35.5,0.5,127,122.0
510,E-3,35.5,0.5,127,122.0
511,F#3,35.5,0.5,127,122.0
512,B1,35.5,0.5,127,122.0
513,G#2,36.0,4/5,127,122.0
514,F#4,36.0,0.25,127,122.0
515,E-4,36.0,0.75,127,122.0
516,C4,36.0,0.75,127,122.0
517,G#3,36.0,0.75,127,122.0
518,E-3,36.0,0.75,127,122.0
519,G#2,36.0,0.75,127,122.0
520,F#3,36.0,0.5,127,122.0
521,B1,36.0,0.5,127,122.0
522,G#4,36.25,0.5,127,122.0
523,F#3,36.5,0.5,127,122.0
524,G#4,36.75,0.75,127,122.0
525,G#2,37.0,4/5,127,122.0
526,E-4,37.0,0.75,127,122.0
527,C4,37.0,0.75,127,122.0
528,G#3,37.0,0.75,127,122.0
529,E-3,37.0,0.75,127,122.0
530,G#2,37.0,0.75,127,122.0
531,F#3,37.0,0.5,127,122.0
532,D2,37.0,0.5,127,122.0
533,E-4,37.5,0.5,127,122.0
534,F#3,37.5,0.25,127,122.0
535,B1,37.5,0.25,127,122.0
536,F#3,37.75,0.25,127,122.0
537,B1,37.75,0.25,127,122.0
538,G#2,38.0,3/5,127,122.0
539,F#4,38.0,0.5,127,122.0
540,E-4,38.0,319/500,127,122.0
541,C4,38.0,319/500,127,122.0
542,G#3,38.0,319/500,127,122.0
543,E-3,38.0,319/500,127,122.0
544,G#2,38.0,319/500,127,122.0
545,F#4,38.5,0.25,127,122.0
546,F#3,38.5,0.5,127,122.0
547,B1,38.5,0.5,127,122.0
548,G#2,38.75,0.5,127,122.0
549,G#4,38.75,0.75,127,122.0
550,E-4,38.75,0.5,127,122.0
551,C4,38.75,0.5,127,122.0
552,G#3,38.75,0.5,127,122.0
553,E-3,38.75,0.5,127,122.0
554,G#2,38.75,0.5,127,122.0
555,F#3,39.0,0.5,127,122.0
556,D2,39.0,0.5,127,122.0
557,G#2,39.25,0.25,127,122.0
558,E-4,39.25,0.25,127,122.0
559,C4,39.25,0.25,127,122.0
560,G#3,39.25,0.25,127,122.0
561,E-3,39.25,0.25,127,122.0
562,E2,39.25,0.25,127,122.0
563,B-2,39.5,0.5,127,122.0
564,E-4,39.5,0.5,127,122.0
565,E-4,39.5,0.5,127,122.0
566,C4,39.5,0.5,127,122.0
567,G#3,39.5,0.5,127,122.0
568,E-3,39.5,0.5,127,122.0
569,G#2,39.5,0.5,127,122.0
570,F#3,39.5,0.5,127,122.0
571,B1,39.5,0.5,127,122.0
572,B2,40.0,4/5,127,122.0
573,B-4,40.0,0.25,127,122.0
574,F#4,40.0,0.75,127,122.0
575,E-4,40.0,0.75,127,122.0
576,B3,40.0,0.75,127,122.0
577,F#3,40.0,0.75,127,122.0
578,B2,40.0,0.75,127,122.0
579,F#3,40.0,0.5,127,122.0
580,B1,40.0,0.5,127,122.0
581,B-4,40.25,0.5,127,122.0
582,F#3,40.5,0.5,127,122.0
583,B-4,40.75,0.5,127,122.0
584,B2,41.0,4/5,127,122.0
585,F#4,41.0,0.75,127,122.0
586,E-4,41.0,0.75,127,122.0
587,B3,41.0,0.75,127,122.0
588,F#3,41.0,0.75,127,122.0
589,B2,41.0,0.75,127,122.0
590,F#3,41.0,0.5,127,122.0
591,D2,41.0,0.5,127,122.0
592,B-4,41.25,0.5,127,122.0
593,F#3,41.5,0.25,127,122.0
594,B1,41.5,0.25,127,122.0
595,B-4,41.75,0.75,127,122.0
596,F#3,41.75,0.25,127,122.0
597,B1,41.75,0.25,127,122.0
598,B2,42.0,3/5,127,122.0
599,F#4,42.0,319/500,127,122.0
600,E-4,42.0,319/500,127,122.0
601,B3,42.0,319/500,127,122.0
602,F#3,42.0,319/500,127,122.0
603,B2,42.0,319/500,127,122.0
604,B-4,42.5,0.25,127,122.0
605,F#3,42.5,0.5,127,122.0
606,B1,42.5,0.5,127,122.0
607,B2,42.75,0.5,127,122.0
608,B-4,42.75,0.75,127,122.0
609,F#4,42.75,0.5,127,122.0
610,E-4,42.75,0.5,127,122.0
611,B3,42.75,0.5,127,122.0
612,F#3,42.75,0.5,127,122.0
613,B2,42.75,0.5,127,122.0
614,F#3,43.0,0.5,127,122.0
615,D2,43.0,0.5,127,122.0
616,B2,43.25,0.25,127,122.0
617,F#4,43.25,0.25,127,122.0
618,E-4,43.25,0.25,127,122.0
619,B3,43.25,0.25,127,122.0
620,F#3,43.25,0.25,127,122.0
621,B2,43.25,0.25,127,122.0
622,C#3,43.5,0.5,127,122.0
623,G#4,43.5,0.5,127,122.0
624,F#4,43.5,0.5,127,122.0
625,E-4,43.5,0.5,127,122.0
626,B3,43.5,0.5,127,122.0
627,F#3,43.5,0.5,127,122.0
628,B2,43.5,0.5,127,122.0
629,F#3,43.5,0.5,127,122.0
630,B1,43.5,0.5,127,122.0
631,E-2,44.0,4/5,127,122.0
632,F#4,44.0,1.0,127,122.0
633,B-4,44.0,0.75,127,122.0
634,F#4,44.0,0.75,127,122.0
635,E-4,44.0,0.75,127,122.0
636,B-3,44.0,0.75,127,122.0
637,E-3,44.0,0.75,127,122.0
638,F#3,44.0,0.5,127,122.0
639,B1,44.0,0.5,127,122.0
640,F#3,44.5,0.5,127,122.0
641,E-2,45.0,4/5,127,122.0
642,B-4,45.0,0.75,127,122.0
643,F#4,45.0,0.75,127,122.0
644,E-4,45.0,0.75,127,122.0
645,B-3,45.0,0.75,127,122.0
646,E-3,45.0,0.75,127,122.0
647,F#3,45.0,0.5,127,122.0
648,D2,45.0,0.5,127,122.0
649,F#3,45.5,0.25,127,122.0
650,B1,45.5,0.25,127,122.0
651,F#3,45.75,0.25,127,122.0
652,B1,45.75,0.25,127,122.0
653,E-2,46.0,3/5,127,122.0
654,B-4,46.0,319/500,127,122.0
655,F#4,46.0,319/500,127,122.0
656,E-4,46.0,319/500,127,122.0
657,B-3,46.0,319/500,127,122.0
658,E-3,46.0,319/500,127,122.0
659,F#3,46.5,0.5,127,122.0
660,B1,46.5,0.5,127,122.0
661,E-2,46.75,0.5,127,122.0
662,B-4,46.75,0.5,127,122.0
663,F#4,46.75,0.5,127,122.0
664,E-4,46.75,0.5,127,122.0
665,B-3,46.75,0.5,127,122.0
666,E-3,46.75,0.5,127,122.0
667,F#3,47.0,0.5,127,122.0
668,D2,47.0,0.5,127,122.0
669,E-2,47.25,0.25,127,122.0
670,B-4,47.25,0.25,127,122.0
671,F#4,47.25,0.25,127,122.0
672,E-4,47.25,0.25,127,122.0
673,B3,47.25,0.25,127,122.0
674,E-3,47.25,0.25,127,122.0
675,C#2,47.5,0.5,127,122.0
676,E-4,47.5,0.25,127,122.0
677,B-4,47.5,0.5,127,122.0
678,F#4,47.5,0.5,127,122.0
679,E-4,47.5,0.5,127,122.0
680,B-3,47.5,0.5,127,122.0
681,E-3,47.5,0.5,127,122.0
682,F#3,47.5,0.5,127,122.0
683,B1,47.5,0.5,127,122.0
684,B-4,47.75,0.25,127,122.0
685,E-2,48.0,4/5,127,122.0
686,B-4,48.0,0.5,127,122.0
687,B-4,48.0,0.75,127,122.0
688,F#4,48.0,0.75,127,122.0
689,E-4,48.0,0.75,127,122.0
690,B-3,48.0,0.75,127,122.0
691,E-3,48.0,0.75,127,122.0
692,F#3,48.0,0.5,127,122.0
693,B1,48.0,0.5,127,122.0
694,F#3,48.5,0.5,127,122.0
695,B-4,48.5,0.5,127,122.0
696,E-2,49.0,4/5,127,122.0
697,B-4,49.0,0.5,127,122.0
698,B-4,49.0,0.75,127,122.0
699,F#4,49.0,0.75,127,122.0
700,E-4,49.0,0.75,127,122.0
701,B-3,49.0,0.75,127,122.0
702,E-3,49.0,0.75,127,122.0
703,F#3,49.0,0.5,127,122.0
704,D2,49.0,0.5,127,122.0
705,B-4,49.5,0.5,127,122.0
706,F#3,49.5,0.25,127,122.0
707,B1,49.5,0.25,127,122.0
708,F#3,49.75,0.25,127,122.0
709,B1,49.75,0.25,127,122.0
710,E-2,50.0,3/5,127,122.0
711,B-4,50.0,0.5,127,122.0
712,B-4,50.0,319/500,127,122.0
713,F#4,50.0,319/500,127,122.0
714,E-4,50.0,319/500,127,122.0
715,B-3,50.0,319/500,127,122.0
716,E-3,50.0,319/500,127,122.0
717,B-4,50.5,0.25,127,122.0
718,F#3,50.5,0.5,127,122.0
719,B1,50.5,0.5,127,122.0
720,E-2,50.75,0.5,127,122.0
721,B-4,50.75,0.75,127,122.0
722,B-4,50.75,0.5,127,122.0
723,F#4,50.75,0.5,127,122.0
724,E-4,50.75,0.5,127,122.0
725,B-3,50.75,0.5,127,122.0
726,E-3,50.75,0.5,127,122.0
727,F#3,51.0,0.5,127,122.0
728,D2,51.0,0.5,127,122.0
729,B1,51.25,0.25,127,122.0
730,B-4,51.25,0.25,127,122.0
731,F#4,51.25,0.25,127,122.0
732,E-4,51.25,0.25,127,122.0
733,B3,51.25,0.25,127,122.0
734,E-3,51.25,0.25,127,122.0
735,E-2,51.5,0.5,127,122.0
736,E-4,51.5,0.5,127,122.0
737,B-4,51.5,0.5,127,122.0
738,F#4,51.5,0.5,127,122.0
739,E-4,51.5,0.5,127,122.0
740,B-3,51.5,0.5,127,122.0
741,E-3,51.5,0.5,127,122.0
742,F#3,51.5,0.5,127,122.0
743,B1,51.5,0.5,127,122.0
744,G#2,52.0,4/5,127,122.0
745,F#4,52.0,0.5,127,122.0
746,E-4,52.0,0.75,127,122.0
747,C4,52.0,0.75,127,122.0
748,G#3,52.0,0.75,127,122.0
749,E-3,52.0,0.75,127,122.0
750,G#2,52.0,0.75,127,122.0
751,F#3,52.0,0.5,127,122.0
752,B1,52.0,0.5,127,122.0
753,F#3,52.5,0.5,127,122.0
754,G#4,52.5,0.25,127,122.0
755,G#4,52.75,0.75,127,122.0
756,G#2,53.0,4/5,127,122.0
757,E-4,53.0,0.75,127,122.0
758,C4,53.0,0.75,127,122.0
759,G#3,53.0,0.75,127,122.0
760,E-3,53.0,0.75,127,122.0
761,G#2,53.0,0.75,127,122.0
762,F#3,53.0,0.5,127,122.0
763,D2,53.0,0.5,127,122.0
764,E-4,53.5,0.5,127,122.0
765,F#3,53.5,0.25,127,122.0
766,B1,53.5,0.25,127,122.0
767,F#3,53.75,0.25,127,122.0
768,B1,53.75,0.25,127,122.0
769,G#2,54.0,3/5,127,122.0
770,G#4,54.0,0.5,127,122.0
771,E-4,54.0,319/500,127,122.0
772,C4,54.0,319/500,127,122.0
773,G#3,54.0,319/500,127,122.0
774,E-3,54.0,319/500,127,122.0
775,G#2,54.0,319/500,127,122.0
776,G#4,54.5,0.25,127,122.0
777,F#3,54.5,0.5,127,122.0
778,B1,54.5,0.5,127,122.0
779,G#2,54.75,0.5,127,122.0
780,G#4,54.75,0.75,127,122.0
781,E-4,54.75,0.5,127,122.0
782,C4,54.75,0.5,127,122.0
783,G#3,54.75,0.5,127,122.0
784,E-3,54.75,0.5,127,122.0
785,G#2,54.75,0.5,127,122.0
786,F#3,55.0,0.5,127,122.0
787,D2,55.0,0.5,127,122.0
788,G#2,55.25,0.25,127,122.0
789,E-4,55.25,0.25,127,122.0
790,C4,55.25,0.25,127,122.0
791,G#3,55.25,0.25,127,122.0
792,E-3,55.25,0.25,127,122.0
793,E2,55.25,0.25,127,122.0
794,B-2,55.5,0.5,127,122.0
795,E-4,55.5,0.5,127,122.0
796,E-4,55.5,0.5,127,122.0
797,C4,55.5,0.5,127,122.0
798,G#3,55.5,0.5,127,122.0
799,E-3,55.5,0.5,127,122.0
800,G#2,55.5,0.5,127,122.0
801,F#3,55.5,0.5,127,122.0
802,B1,55.5,0.5,127,122.0
803,B2,56.0,4/5,127,122.0
804,B-4,56.0,0.5,127,122.0
805,F#4,56.0,0.75,127,122.0
806,E-4,56.0,0.75,127,122.0
807,B3,56.0,0.75,127,122.0
808,F#3,56.0,0.75,127,122.0
809,B2,56.0,0.75,127,122.0
810,F#3,56.0,0.5,127,122.0
811,B1,56.0,0.5,127,122.0
812,F#3,56.5,0.5,127,122.0
813,B-4,56.5,0.25,127,122.0
814,B-4,56.75,0.75,127,122.0
815,B2,57.0,4/5,127,122.0
816,F#4,57.0,0.75,127,122.0
817,E-4,57.0,0.75,127,122.0
818,B3,57.0,0.75,127,122.0
819,F#3,57.0,0.75,127,122.0
820,B2,57.0,0.75,127,122.0
821,F#3,57.0,0.5,127,122.0
822,D2,57.0,0.5,127,122.0
823,B-4,57.5,0.5,127,122.0
824,F#3,57.5,0.25,127,122.0
825,B1,57.5,0.25,127,122.0
826,F#3,57.75,0.25,127,122.0
827,B1,57.75,0.25,127,122.0
828,B2,58.0,3/5,127,122.0
829,B-4,58.0,0.5,127,122.0
830,F#4,58.0,319/500,127,122.0
831,E-4,58.0,319/500,127,122.0
832,B3,58.0,319/500,127,122.0
833,F#3,58.0,319/500,127,122.0
834,B2,58.0,319/500,127,122.0
835,B-4,58.5,0.5,127,122.0
836,F#3,58.5,0.5,127,122.0
837,B1,58.5,0.5,127,122.0
838,B2,58.75,0.5,127,122.0
839,F#4,58.75,0.5,127,122.0
840,E-4,58.75,0.5,127,122.0
841,B3,58.75,0.5,127,122.0
842,F#3,58.75,0.5,127,122.0
843,B2,58.75,0.5,127,122.0
844,B-4,59.0,0.25,127,122.0
845,F#3,59.0,0.5,127,122.0
846,D2,59.0,0.5,127,122.0
847,B2,59.25,0.25,127,122.0
848,G#4,59.25,0.5,127,122.0
849,F#4,59.25,0.25,127,122.0
850,E-4,59.25,0.25,127,122.0
851,B3,59.25,0.25,127,122.0
852,F#3,59.25,0.25,127,122.0
853,B2,59.25,0.25,127,122.0
854,C#3,59.5,0.5,127,122.0
855,F#4,59.5,0.5,127,122.0
856,E-4,59.5,0.5,127,122.0
857,B3,59.5,0.5,127,122.0
858,F#3,59.5,0.5,127,122.0
859,B2,59.5,0.5,127,122.0
860,F#3,59.5,0.5,127,122.0
861,B1,59.5,0.5,127,122.0
862,F#4,59.75,0.25,127,122.0
863,E-2,60.0,4/5,127,122.0
864,F#4,60.0,0.5,127,122.0
865,B-4,60.0,0.75,127,122.0
866,F#4,60.0,0.75,127,122.0
867,E-4,60.0,0.75,127,122.0
868,B-3,60.0,0.75,127,122.0
869,E-3,60.0,0.75,127,122.0
870,F#3,60.0,0.5,127,122.0
871,B1,60.0,0.5,127,122.0
872,F#3,60.5,0.5,127,122.0
873,E-2,61.0,4/5,127,122.0
874,B-4,61.0,0.75,127,122.0
875,F#4,61.0,0.75,127,122.0
876,E-4,61.0,0.75,127,122.0
877,B-3,61.0,0.75,127,122.0
878,E-3,61.0,0.75,127,122.0
879,F#3,61.0,0.5,127,122.0
880,D2,61.0,0.5,127,122.0
881,F#3,61.5,0.25,127,122.0
882,B1,61.5,0.25,127,122.0
883,F#3,61.75,0.25,127,122.0
884,B1,61.75,0.25,127,122.0
885,E-2,62.0,3/5,127,122.0
886,B-4,62.0,319/500,127,122.0
887,F#4,62.0,319/500,127,122.0
888,E-4,62.0,319/500,127,122.0
889,B-3,62.0,319/500,127,122.0
890,E-3,62.0,319/500,127,122.0
891,F#3,62.5,0.5,127,122.0
892,B1,62.5,0.5,127,122.0
893,E-2,62.75,0.5,127,122.0
894,B-4,62.75,0.5,127,122.0
895,F#4,62.75,0.5,127,122.0
896,E-4,62.75,0.5,127,122.0
897,B-3,62.75,0.5,127,122.0
898,E-3,62.75,0.5,127,122.0
899,F#3,63.0,0.5,127,122.0
900,D2,63.0,0.5,127,122.0
901,E-2,63.25,0.25,127,122.0
902,B-4,63.25,0.25,127,122.0
903,F#4,63.25,0.25,127,122.0
904,E-4,63.25,0.25,127,122.0
905,B3,63.25,0.25,127,122.0
906,E-3,63.25,0.25,127,122.0
907,C#2,63.5,0.5,127,122.0
908,B-4,63.5,0.5,127,122.0
909,F#4,63.5,0.5,127,122.0
910,E-4,63.5,0.5,127,122.0
911,B-3,63.5,0.5,127,122.0
912,E-3,63.5,0.5,127,122.0
913,F#3,63.5,0.5,127,122.0
914,B1,63.5,0.5,127,122.0
915,E-2,64.0,4/5,127,122.0
916,B-4,64.0,0.5,127,122.0
917,B-4,64.0,0.75,127,122.0
918,F#4,64.0,0.75,127,122.0
919,E-4,64.0,0.75,127,122.0
920,B-3,64.0,0.75,127,122.0
921,E-3,64.0,0.75,127,122.0
922,F#3,64.0,0.5,127,122.0
923,B1,64.0,0.5,127,122.0
924,F#3,64.5,0.5,127,122.0
925,B-4,64.5,0.5,127,122.0
926,E-2,65.0,4/5,127,122.0
927,B-4,65.0,0.5,127,122.0
928,B-4,65.0,0.75,127,122.0
929,F#4,65.0,0.75,127,122.0
930,E-4,65.0,0.75,127,122.0
931,B-3,65.0,0.75,127,122.0
932,E-3,65.0,0.75,127,122.0
933,F#3,65.0,0.5,127,122.0
934,D2,65.0,0.5,127,122.0
935,B-4,65.5,0.5,127,122.0
936,F#3,65.5,0.25,127,122.0
937,B1,65.5,0.25,127,122.0
938,F#3,65.75,0.25,127,122.0
939,B1,65.75,0.25,127,122.0
940,E-2,66.0,3/5,127,122.0
941,B-4,66.0,0.5,127,122.0
942,B-4,66.0,319/500,127,122.0
943,F#4,66.0,319/500,127,122.0
944,E-4,66.0,319/500,127,122.0
945,B-3,66.0,319/500,127,122.0
946,E-3,66.0,319/500,127,122.0
947,B-4,66.5,0.25,127,122.0
948,F#3,66.5,0.5,127,122.0
949,B1,66.5,0.5,127,122.0
950,E-2,66.75,0.5,127,122.0
951,B-4,66.75,0.75,127,122.0
952,B-4,66.75,0.5,127,122.0
953,F#4,66.75,0.5,127,122.0
954,E-4,66.75,0.5,127,122.0
955,B-3,66.75,0.5,127,122.0
956,E-3,66.75,0.5,127,122.0
957,F#3,67.0,0.5,127,122.0
958,D2,67.0,0.5,127,122.0
959,B1,67.25,0.25,127,122.0
960,B-4,67.25,0.25,127,122.0
961,F#4,67.25,0.25,127,122.0
962,E-4,67.25,0.25,127,122.0
963,B3,67.25,0.25,127,122.0
964,E-3,67.25,0.25,127,122.0
965,E-2,67.5,0.5,127,122.0
966,E-4,67.5,0.5,127,122.0
967,B-4,67.5,0.5,127,122.0
968,F#4,67.5,0.5,127,122.0
969,E-4,67.5,0.5,127,122.0
970,B-3,67.5,0.5,127,122.0
971,E-3,67.5,0.5,127,122.0
972,F#3,67.5,0.5,127,122.0
973,B1,67.5,0.5,127,122.0
974,G#2,68.0,4/5,127,122.0
975,F#4,68.0,0.5,127,122.0
976,E-4,68.0,0.75,127,122.0
977,C4,68.0,0.75,127,122.0
978,G#3,68.0,0.75,127,122.0
979,E-3,68.0,0.75,127,122.0
980,G#2,68.0,0.75,127,122.0
981,F#3,68.0,0.5,127,122.0
982,B1,68.0,0.5,127,122.0
983,F#3,68.5,0.5,127,122.0
984,F#4,68.5,0.25,127,122.0
985,G#4,68.75,0.75,127,122.0
986,G#2,69.0,4/5,127,122.0
987,E-4,69.0,0.75,127,122.0
988,C4,69.0,0.75,127,122.0
989,G#3,69.0,0.75,127,122.0
990,E-3,69.0,0.75,127,122.0
991,G#2,69.0,0.75,127,122.0
992,F#3,69.0,0.5,127,122.0
993,D2,69.0,0.5,127,122.0
994,E-4,69.5,0.5,127,122.0
995,F#3,69.5,0.25,127,122.0
996,B1,69.5,0.25,127,122.0
997,F#3,69.75,0.25,127,122.0
998,B1,69.75,0.25,127,122.0
999,G#2,70.0,3/5,127,122.0
1000,F#4,70.0,0.5,127,122.0
1001,E-4,70.0,319/500,127,122.0
1002,C4,70.0,319/500,127,122.0
1003,G#3,70.0,319/500,127,122.0
1004,E-3,70.0,319/500,127,122.0
1005,G#2,70.0,319/500,127,122.0
1006,F#4,70.5,0.25,127,122.0
1007,F#3,70.5,0.5,127,122.0
1008,B1,70.5,0.5,127,122.0
1009,G#2,70.75,0.5,127,122.0
1010,G#4,70.75,0.75,127,122.0
1011,E-4,70.75,0.5,127,122.0
1012,C4,70.75,0.5,127,122.0
1013,G#3,70.75,0.5,127,122.0
1014,E-3,70.75,0.5,127,122.0
1015,G#2,70.75,0.5,127,122.0
1016,F#3,71.0,0.5,127,122.0
1017,D2,71.0,0.5,127,122.0
1018,G#2,71.25,0.25,127,122.0
1019,E-4,71.25,0.25,127,122.0
1020,C4,71.25,0.25,127,122.0
1021,G#3,71.25,0.25,127,122.0
1022,E-3,71.25,0.25,127,122.0
1023,E2,71.25,0.25,127,122.0
1024,B-2,71.5,0.5,127,122.0
1025,E-4,71.5,0.5,127,122.0
1026,E-4,71.5,0.5,127,122.0
1027,C4,71.5,0.5,127,122.0
1028,G#3,71.5,0.5,127,122.0
1029,E-3,71.5,0.5,127,122.0
1030,G#2,71.5,0.5,127,122.0
1031,F#3,71.5,0.5,127,122.0
1032,B1,71.5,0.5,127,122.0
1033,B2,72.0,4/5,127,122.0
1034,B-4,72.0,0.5,127,122.0
1035,F#4,72.0,0.75,127,122.0
1036,E-4,72.0,0.75,127,122.0
1037,B3,72.0,0.75,127,122.0
1038,F#3,72.0,0.75,127,122.0
1039,B2,72.0,0.75,127,122.0
1040,F#3,72.0,0.5,127,122.0
1041,B1,72.0,0.5,127,122.0
1042,F#3,72.5,0.5,127,122.0
1043,B-4,72.5,0.5,127,122.0
1044,B2,73.0,4/5,127,122.0
1045,B-4,73.0,0.5,127,122.0
1046,F#4,73.0,0.75,127,122.0
1047,E-4,73.0,0.75,127,122.0
1048,B3,73.0,0.75,127,122.0
1049,F#3,73.0,0.75,127,122.0
1050,B2,73.0,0.75,127,122.0
1051,F#3,73.0,0.5,127,122.0
1052,D2,73.0,0.5,127,122.0
1053,B-4,73.5,0.25,127,122.0
1054,F#3,73.5,0.25,127,122.0
1055,B1,73.5,0.25,127,122.0
1056,B-4,73.75,0.75,127,122.0
1057,F#3,73.75,0.25,127,122.0
1058,B1,73.75,0.25,127,122.0
1059,B2,74.0,3/5,127,122.0
1060,F#4,74.0,319/500,127,122.0
1061,E-4,74.0,319/500,127,122.0
1062,B3,74.0,319/500,127,122.0
1063,F#3,74.0,319/500,127,122.0
1064,B2,74.0,319/500,127,122.0
1065,E-4,74.5,0.5,127,122.0
1066,F#3,74.5,0.5,127,122.0
1067,B1,74.5,0.5,127,122.0
1068,B2,74.75,0.5,127,122.0
1069,F#4,74.75,0.5,127,122.0
1070,E-4,74.75,0.5,127,122.0
1071,B3,74.75,0.5,127,122.0
1072,F#3,74.75,0.5,127,122.0
1073,B2,74.75,0.5,127,122.0
1074,B-4,75.0,0.25,127,122.0
1075,F#3,75.0,0.5,127,122.0
1076,D2,75.0,0.5,127,122.0
1077,B2,75.25,0.25,127,122.0
1078,G#4,75.25,0.5,127,122.0
1079,F#4,75.25,0.25,127,122.0
1080,E-4,75.25,0.25,127,122.0
1081,B3,75.25,0.25,127,122.0
1082,F#3,75.25,0.25,127,122.0
1083,B2,75.25,0.25,127,122.0
1084,C#3,75.5,0.5,127,122.0
1085,F#4,75.5,0.5,127,122.0
1086,E-4,75.5,0.5,127,122.0
1087,B3,75.5,0.5,127,122.0
1088,F#3,75.5,0.5,127,122.0
1089,B2,75.5,0.5,127,122.0
1090,F#3,75.5,0.5,127,122.0
1091,B1,75.5,0.5,127,122.0
1092,F#4,75.75,0.25,127,122.0
1093,E-2,76.0,4/5,127,122.0
1094,F#4,76.0,1.0,127,122.0
1095,B-4,76.0,0.75,127,122.0
1096,F#4,76.0,0.75,127,122.0
1097,E-4,76.0,0.75,127,122.0
1098,B-3,76.0,0.75,127,122.0
1099,E-3,76.0,0.75,127,122.0
1100,F#3,76.0,0.5,127,122.0
1101,B1,76.0,0.5,127,122.0
1102,F#3,76.5,0.5,127,122.0
1103,E-2,77.0,4/5,127,122.0
1104,B-4,77.0,0.75,127,122.0
1105,F#4,77.0,0.75,127,122.0
1106,E-4,77.0,0.75,127,122.0
1107,B-3,77.0,0.75,127,122.0
1108,E-3,77.0,0.75,127,122.0
1109,F#3,77.0,0.5,127,122.0
1110,D2,77.0,0.5,127,122.0
1111,F#3,77.5,0.25,127,122.0
1112,B1,77.5,0.25,127,122.0
1113,F#3,77.75,0.25,127,122.0
1114,B1,77.75,0.25,127,122.0
1115,E-2,78.0,3/5,127,122.0
1116,B-4,78.0,319/500,127,122.0
1117,F#4,78.0,319/500,127,122.0
1118,E-4,78.0,319/500,127,122.0
1119,B-3,78.0,319/500,127,122.0
1120,E-3,78.0,319/500,127,122.0
1121,F#3,78.5,0.5,127,122.0
1122,B1,78.5,0.5,127,122.0
1123,E-2,78.75,0.5,127,122.0
1124,B-4,78.75,0.5,127,122.0
1125,F#4,78.75,0.5,127,122.0
1126,E-4,78.75,0.5,127,122.0
1127,B-3,78.75,0.5,127,122.0
1128,E-3,78.75,0.5,127,122.0
1129,F#3,79.0,0.5,127,122.0
1130,D2,79.0,0.5,127,122.0
1131,E-2,79.25,0.25,127,122.0
1132,B-4,79.25,0.25,127,122.0
1133,F#4,79.25,0.25,127,122.0
1134,E-4,79.25,0.25,127,122.0
1135,B3,79.25,0.25,127,122.0
1136,E-3,79.25,0.25,127,122.0
1137,C#2,79.5,0.5,127,122.0
1138,B-4,79.5,0.5,127,122.0
1139,F#4,79.5,0.5,127,122.0
1140,E-4,79.5,0.5,127,122.0
1141,B-3,79.5,0.5,127,122.0
1142,E-3,79.5,0.5,127,122.0
1143,F#3,79.5,0.5,127,122.0
1144,B1,79.5,0.5,127,122.0
1145,E-2,80.0,4/5,127,122.0
1146,B-4,80.0,0.5,127,122.0
1147,B-4,80.0,0.75,127,122.0
1148,F#4,80.0,0.75,127,122.0
1149,E-4,80.0,0.75,127,122.0
1150,B-3,80.0,0.75,127,122.0
1151,E-3,80.0,0.75,127,122.0
1152,F#3,80.0,0.5,127,122.0
1153,B1,80.0,0.5,127,122.0
1154,F#3,80.5,0.5,127,122.0
1155,B-4,80.5,0.5,127,122.0
1156,E-2,81.0,4/5,127,122.0
1157,B-4,81.0,0.5,127,122.0
1158,B-4,81.0,0.75,127,122.0
1159,F#4,81.0,0.75,127,122.0
1160,E-4,81.0,0.75,127,122.0
1161,B-3,81.0,0.75,127,122.0
1162,E-3,81.0,0.75,127,122.0
1163,F#3,81.0,0.5,127,122.0
1164,D2,81.0,0.5,127,122.0
1165,B-4,81.5,0.5,127,122.0
1166,F#3,81.5,0.25,127,122.0
1167,B1,81.5,0.25,127,122.0
1168,F#3,81.75,0.25,127,122.0
1169,B1,81.75,0.25,127,122.0
1170,E-2,82.0,3/5,127,122.0
1171,B-4,82.0,0.5,127,122.0
1172,B-4,82.0,319/500,127,122.0
1173,F#4,82.0,319/500,127,122.0
1174,E-4,82.0,319/500,127,122.0
1175,B-3,82.0,319/500,127,122.0
1176,E-3,82.0,319/500,127,122.0
1177,B-4,82.5,0.25,127,122.0
1178,F#3,82.5,0.5,127,122.0
1179,B1,82.5,0.5,127,122.0
1180,E-2,82.75,0.5,127,122.0
1181,B-4,82.75,0.75,127,122.0
1182,B-4,82.75,0.5,127,122.0
1183,F#4,82.75,0.5,127,122.0
1184,E-4,82.75,0.5,127,122.0
1185,B-3,82.75,0.5,127,122.0
1186,E-3,82.75,0.5,127,122.0
1187,F#3,83.0,0.5,127,122.0
1188,D2,83.0,0.5,127,122.0
1189,B1,83.25,0.25,127,122.0
1190,B-4,83.25,0.25,127,122.0
1191,F#4,83.25,0.25,127,122.0
1192,E-4,83.25,0.25,127,122.0
1193,B3,83.25,0.25,127,122.0
1194,E-3,83.25,0.25,127,122.0
1195,E-2,83.5,0.5,127,122.0
1196,G#4,83.5,0.5,127,122.0
1197,B-4,83.5,0.5,127,122.0
1198,F#4,83.5,0.5,127,122.0
1199,E-4,83.5,0.5,127,122.0
1200,B-3,83.5,0.5,127,122.0
1201,E-3,83.5,0.5,127,122.0
1202,F#3,83.5,0.5,127,122.0
1203,B1,83.5,0.5,127,122.0
1204,G#2,84.0,4/5,127,122.0
1205,G#4,84.0,0.25,127,122.0
1206,E-4,84.0,0.75,127,122.0
1207,C4,84.0,0.75,127,122.0
1208,G#3,84.0,0.75,127,122.0
1209,E-3,84.0,0.75,127,122.0
1210,G#2,84.0,0.75,127,122.0
1211,F#3,84.0,0.5,127,122.0
1212,B1,84.0,0.5,127,122.0
1213,G#4,84.25,0.5,127,122.0
1214,F#3,84.5,0.5,127,122.0
1215,G#4,84.75,0.5,127,122.0
1216,G#2,85.0,4/5,127,122.0
1217,E-4,85.0,0.75,127,122.0
1218,C4,85.0,0.75,127,122.0
1219,G#3,85.0,0.75,127,122.0
1220,E-3,85.0,0.75,127,122.0
1221,G#2,85.0,0.75,127,122.0
1222,F#3,85.0,0.5,127,122.0
1223,D2,85.0,0.5,127,122.0
1224,B-4,85.25,0.75,127,122.0
1225,F#3,85.5,0.25,127,122.0
1226,B1,85.5,0.25,127,122.0
1227,F#3,85.75,0.25,127,122.0
1228,B1,85.75,0.25,127,122.0
1229,G#2,86.0,3/5,127,122.0
1230,F#4,86.0,0.5,127,122.0
1231,E-4,86.0,319/500,127,122.0
1232,C4,86.0,319/500,127,122.0
1233,G#3,86.0,319/500,127,122.0
1234,E-3,86.0,319/500,127,122.0
1235,G#2,86.0,319/500,127,122.0
1236,E-4,86.5,0.25,127,122.0
1237,F#3,86.5,0.5,127,122.0
1238,B1,86.5,0.5,127,122.0
1239,G#2,86.75,0.5,127,122.0
1240,E-4,86.75,0.5,127,122.0
1241,E-4,86.75,0.5,127,122.0
1242,C4,86.75,0.5,127,122.0
1243,G#3,86.75,0.5,127,122.0
1244,E-3,86.75,0.5,127,122.0
1245,G#2,86.75,0.5,127,122.0
1246,F#3,87.0,0.5,127,122.0
1247,D2,87.0,0.5,127,122.0
1248,G#2,87.25,0.25,127,122.0
1249,B-4,87.25,0.75,127,122.0
1250,E-4,87.25,0.25,127,122.0
1251,C4,87.25,0.25,127,122.0
1252,G#3,87.25,0.25,127,122.0
1253,E-3,87.25,0.25,127,122.0
1254,E2,87.25,0.25,127,122.0
1255,B-2,87.5,0.5,127,122.0
1256,E-4,87.5,0.5,127,122.0
1257,C4,87.5,0.5,127,122.0
1258,G#3,87.5,0.5,127,122.0
1259,E-3,87.5,0.5,127,122.0
1260,G#2,87.5,0.5,127,122.0
1261,F#3,87.5,0.5,127,122.0
1262,B1,87.5,0.5,127,122.0
1263,B2,88.0,4/5,127,122.0
1264,G#4,88.0,0.25,127,122.0
1265,F#4,88.0,0.75,127,122.0
1266,E-4,88.0,0.75,127,122.0
1267,B3,88.0,0.75,127,122.0
1268,F#3,88.0,0.75,127,122.0
1269,B2,88.0,0.75,127,122.0
1270,F#3,88.0,0.5,127,122.0
1271,B1,88.0,0.5,127,122.0
1272,G#4,88.25,0.5,127,122.0
1273,F#3,88.5,0.5,127,122.0
1274,G#4,88.75,0.5,127,122.0
1275,B2,89.0,4/5,127,122.0
1276,F#4,89.0,0.75,127,122.0
1277,E-4,89.0,0.75,127,122.0
1278,B3,89.0,0.75,127,122.0
1279,F#3,89.0,0.75,127,122.0
1280,B2,89.0,0.75,127,122.0
1281,F#3,89.0,0.5,127,122.0
1282,D2,89.0,0.5,127,122.0
1283,G#4,89.25,0.75,127,122.0
1284,F#3,89.5,0.25,127,122.0
1285,B1,89.5,0.25,127,122.0
1286,F#3,89.75,0.25,127,122.0
1287,B1,89.75,0.25,127,122.0
1288,B2,90.0,3/5,127,122.0
1289,G#4,90.0,0.5,127,122.0
1290,F#4,90.0,319/500,127,122.0
1291,E-4,90.0,319/500,127,122.0
1292,B3,90.0,319/500,127,122.0
1293,F#3,90.0,319/500,127,122.0
1294,B2,90.0,319/500,127,122.0
1295,G#4,90.5,0.25,127,122.0
1296,F#3,90.5,0.5,127,122.0
1297,B1,90.5,0.5,127,122.0
1298,B2,90.75,0.5,127,122.0
1299,G#4,90.75,0.75,127,122.0
1300,F#4,90.75,0.5,127,122.0
1301,E-4,90.75,0.5,127,122.0
1302,B3,90.75,0.5,127,122.0
1303,F#3,90.75,0.5,127,122.0
1304,B2,90.75,0.5,127,122.0
1305,F#3,91.0,0.5,127,122.0
1306,D2,91.0,0.5,127,122.0
1307,B2,91.25,0.25,127,122.0
1308,F#4,91.25,0.25,127,122.0
1309,E-4,91.25,0.25,127,122.0
1310,B3,91.25,0.25,127,122.0
1311,F#3,91.25,0.25,127,122.0
1312,B2,91.25,0.25,127,122.0
1313,C#3,91.5,0.5,127,122.0
1314,B-4,91.5,0.5,127,122.0
1315,F#4,91.5,0.5,127,122.0
1316,E-4,91.5,0.5,127,122.0
1317,B3,91.5,0.5,127,122.0
1318,F#3,91.5,0.5,127,122.0
1319,B2,91.5,0.5,127,122.0
1320,F#3,91.5,0.5,127,122.0
1321,B1,91.5,0.5,127,122.0
1322,E-2,92.0,0.5,127,122.0
1323,F#4,92.0,1.0,127,122.0
1324,B-4,92.0,1.0,127,122.0
1325,F#4,92.0,1.0,127,122.0
1326,E-4,92.0,1.0,127,122.0
1327,B-3,92.0,0.5,127,122.0
1328,E-3,92.0,0.5,127,122.0
1329,F#3,92.0,0.5,127,122.0
1330,B1,92.0,0.5,127,122.0
1331,B-3,92.5,0.5,127,122.0
1332,E-3,92.5,1.0,127,122.0
1333,E-2,92.5,0.5,127,122.0
1334,F#3,92.5,0.5,127,122.0
1335,E-4,93.0,0.75,127,122.0
1336,E-3,93.0,0.5,127,122.0
1337,B-4,93.0,0.5,127,122.0
1338,F#4,93.0,0.5,127,122.0
1339,B-3,93.0,0.5,127,122.0
1340,F#3,93.0,0.5,127,122.0
1341,D2,93.0,0.5,127,122.0
1342,B-3,93.5,0.25,127,122.0
1343,E-3,93.5,0.75,127,122.0
1344,E-2,93.5,0.25,127,122.0
1345,F#3,93.5,0.25,127,122.0
1346,B1,93.5,0.25,127,122.0
1347,E-4,93.75,0.75,127,122.0
1348,E-3,93.75,0.5,127,122.0
1349,B-4,93.75,0.5,127,122.0
1350,F#4,93.75,0.5,127,122.0
1351,B-3,93.75,0.5,127,122.0
1352,F#3,93.75,0.25,127,122.0
1353,B1,93.75,0.25,127,122.0
1354,B-3,94.25,0.25,127,122.0
1355,E-3,94.25,1.25,127,122.0
1356,E-2,94.25,0.25,127,122.0
1357,B-2,94.5,0.5,127,122.0
1358,E-4,94.5,0.5,127,122.0
1359,B-3,94.5,0.5,127,122.0
1360,F#3,94.5,0.5,127,122.0
1361,B1,94.5,0.5,127,122.0
1362,G#2,95.0,0.5,127,122.0
1363,E-4,95.0,0.5,127,122.0
1364,G#3,95.0,0.5,127,122.0
1365,F#3,95.0,0.5,127,122.0
1366,D2,95.0,0.5,127,122.0
1367,F#2,95.5,0.5,127,122.0
1368,B-3,95.5,0.5,127,122.0
1369,F#3,95.5,0.5,127,122.0
1370,F#3,95.5,0.5,127,122.0
1371,B1,95.5,0.5,127,122.0
1372,F#1,96.0,0.375,127,122.0
1373,F#5,96.0,4.0,127,122.0
1374,E-3,96.0,1.0,127,122.0
1375,F#4,96.0,1.0,127,122.0
1376,C#4,96.0,0.75,127,122.0
1377,B-3,96.0,0.75,127,122.0
1378,F#3,96.0,0.75,127,122.0
1379,C#3,96.0,0.75,127,122.0
1380,F#2,96.0,0.75,127,122.0
1381,F#3,96.0,0.25,127,122.0
1382,B1,96.0,0.25,127,122.0
1383,F#3,96.25,0.25,127,122.0
1384,F#2,96.5,0.25,127,122.0
1385,F#3,96.5,0.25,127,122.0
1386,F#3,96.75,0.25,127,122.0
1387,F#1,97.0,0.375,127,122.0
1388,E-3,97.0,1.0,127,122.0
1389,E-4,97.0,1.0,127,122.0
1390,C#4,97.0,0.75,127,122.0
1391,B-3,97.0,0.75,127,122.0
1392,F#3,97.0,0.75,127,122.0
1393,C#3,97.0,0.75,127,122.0
1394,F#2,97.0,0.75,127,122.0
1395,F#3,97.0,0.25,127,122.0
1396,D2,97.0,0.25,127,122.0
1397,B1,97.0,0.25,127,122.0
1398,F#3,97.25,0.25,127,122.0
1399,F#1,97.5,0.25,127,122.0
1400,F#3,97.5,0.25,127,122.0
1401,F#1,97.75,0.75,127,122.0
1402,F#3,97.75,0.25,127,122.0
1403,E-3,98.0,1.0,127,122.0
1404,C#4,98.0,0.5,127,122.0
1405,C#4,98.0,319/500,127,122.0
1406,B-3,98.0,319/500,127,122.0
1407,F#3,98.0,319/500,127,122.0
1408,C#3,98.0,319/500,127,122.0
1409,F#2,98.0,319/500,127,122.0
1410,F#3,98.0,0.25,127,122.0
1411,B1,98.0,0.25,127,122.0
1412,F#3,98.25,0.25,127,122.0
1413,F#1,98.5,1.0,127,122.0
1414,F#3,98.5,0.25,127,122.0
1415,E-4,98.5,1.0,127,122.0
1416,F#3,98.75,0.25,127,122.0
1417,C#4,98.75,0.5,127,122.0
1418,B-3,98.75,0.5,127,122.0
1419,F#3,98.75,0.5,127,122.0
1420,C#3,98.75,0.5,127,122.0
1421,F#2,98.75,0.5,127,122.0
1422,E-3,99.0,1.0,127,122.0
1423,F#3,99.0,0.25,127,122.0
1424,D2,99.0,0.25,127,122.0
1425,B1,99.0,0.25,127,122.0
1426,F#3,99.25,0.25,127,122.0
1427,C#4,99.25,0.25,127,122.0
1428,B-3,99.25,0.25,127,122.0
1429,F#3,99.25,0.25,127,122.0
1430,C#3,99.25,0.25,127,122.0
1431,E2,99.25,0.25,127,122.0
1432,G1,99.5,0.5,127,122.0
1433,F#3,99.5,0.25,127,122.0
1434,G#4,99.5,0.5,127,122.0
1435,C#4,99.5,0.5,127,122.0
1436,B-3,99.5,0.5,127,122.0
1437,F#3,99.5,0.5,127,122.0
1438,C#3,99.5,0.5,127,122.0
1439,F#2,99.5,0.5,127,122.0
1440,F#3,99.75,0.25,127,122.0
1441,G#1,100.0,0.375,127,122.0
1442,F#5,100.0,4.0,127,122.0
1443,E-3,100.0,1.0,127,122.0
1444,G#4,100.0,0.5,127,122.0
1445,E-4,100.0,0.75,127,122.0
1446,C4,100.0,0.75,127,122.0
1447,G#3,100.0,0.75,127,122.0
1448,E-3,100.0,0.75,127,122.0
1449,G#2,100.0,0.75,127,122.0
1450,F#3,100.0,0.25,127,122.0
1451,B1,100.0,0.25,127,122.0
1452,F#3,100.25,0.25,127,122.0
1453,G#2,100.5,0.25,127,122.0
1454,F#3,100.5,0.25,127,122.0
1455,E-4,100.5,2.0,127,122.0
1456,F#3,100.75,0.25,127,122.0
1457,G#1,101.0,0.375,127,122.0
1458,E-3,101.0,1.0,127,122.0
1459,E-4,101.0,0.75,127,122.0
1460,C4,101.0,0.75,127,122.0
1461,G#3,101.0,0.75,127,122.0
1462,E-3,101.0,0.75,127,122.0
1463,G#2,101.0,0.75,127,122.0
1464,F#3,101.0,0.25,127,122.0
1465,D2,101.0,0.25,127,122.0
1466,B1,101.0,0.25,127,122.0
1467,F#3,101.25,0.25,127,122.0
1468,G#1,101.5,0.25,127,122.0
1469,F#3,101.5,0.25,127,122.0
1470,G#1,101.75,0.75,127,122.0
1471,F#3,101.75,0.25,127,122.0
1472,E-3,102.0,1.0,127,122.0
1473,E-4,102.0,319/500,127,122.0
1474,C4,102.0,319/500,127,122.0
1475,G#3,102.0,319/500,127,122.0
1476,E-3,102.0,319/500,127,122.0
1477,G#2,102.0,319/500,127,122.0
1478,F#3,102.0,0.25,127,122.0
1479,B1,102.0,0.25,127,122.0
1480,F#3,102.25,0.25,127,122.0
1481,G#1,102.5,1.0,127,122.0
1482,F#3,102.5,0.25,127,122.0
1483,C#4,102.5,1.5,127,122.0
1484,F#3,102.75,0.25,127,122.0
1485,E-4,102.75,0.5,127,122.0
1486,C4,102.75,0.5,127,122.0
1487,G#3,102.75,0.5,127,122.0
1488,E-3,102.75,0.5,127,122.0
1489,G#2,102.75,0.5,127,122.0
1490,E-3,103.0,1.0,127,122.0
1491,F#3,103.0,0.25,127,122.0
1492,D2,103.0,0.25,127,122.0
1493,B1,103.0,0.25,127,122.0
1494,F#3,103.25,0.25,127,122.0
1495,E-4,103.25,0.25,127,122.0
1496,C4,103.25,0.25,127,122.0
1497,G#3,103.25,0.25,127,122.0
1498,E-3,103.25,0.25,127,122.0
1499,E2,103.25,0.25,127,122.0
1500,B-1,103.5,0.5,127,122.0
1501,F#3,103.5,0.25,127,122.0
1502,E-4,103.5,0.5,127,122.0
1503,C4,103.5,0.5,127,122.0
1504,G#3,103.5,0.5,127,122.0
1505,E-3,103.5,0.5,127,122.0
1506,G#2,103.5,0.5,127,122.0
1507,F#3,103.75,0.25,127,122.0
1508,B1,104.0,0.375,127,122.0
1509,F#5,104.0,4.0,127,122.0
1510,E-3,104.0,1.0,127,122.0
1511,B-4,104.0,0.5,127,122.0
1512,F#4,104.0,0.75,127,122.0
1513,E-4,104.0,0.75,127,122.0
1514,B3,104.0,0.75,127,122.0
1515,F#3,104.0,0.75,127,122.0
1516,B2,104.0,0.75,127,122.0
1517,F#3,104.0,0.25,127,122.0
1518,B1,104.0,0.25,127,122.0
1519,F#3,104.25,0.25,127,122.0
1520,B2,104.5,0.25,127,122.0
1521,F#3,104.5,0.25,127,122.0
1522,G#4,104.5,3.5,127,122.0
1523,F#3,104.75,0.25,127,122.0
1524,B1,105.0,0.375,127,122.0
1525,E-3,105.0,1.0,127,122.0
1526,F#4,105.0,0.75,127,122.0
1527,E-4,105.0,0.75,127,122.0
1528,B3,105.0,0.75,127,122.0
1529,F#3,105.0,0.75,127,122.0
1530,B2,105.0,0.75,127,122.0
1531,F#3,105.0,0.25,127,122.0
1532,D2,105.0,0.25,127,122.0
1533,B1,105.0,0.25,127,122.0
1534,F#3,105.25,0.25,127,122.0
1535,B1,105.5,0.25,127,122.0
1536,F#3,105.5,0.25,127,122.0
1537,B1,105.75,0.75,127,122.0
1538,F#3,105.75,0.25,127,122.0
1539,E-3,106.0,1.0,127,122.0
1540,F#4,106.0,319/500,127,122.0
1541,E-4,106.0,319/500,127,122.0
1542,B3,106.0,319/500,127,122.0
1543,F#3,106.0,319/500,127,122.0
1544,B2,106.0,319/500,127,122.0
1545,F#3,106.0,0.25,127,122.0
1546,B1,106.0,0.25,127,122.0
1547,F#3,106.25,0.25,127,122.0
1548,C#2,106.5,1.0,127,122.0
1549,F#3,106.5,0.25,127,122.0
1550,F#3,106.75,0.25,127,122.0
1551,F#4,106.75,0.5,127,122.0
1552,E-4,106.75,0.5,127,122.0
1553,B3,106.75,0.5,127,122.0
1554,F#3,106.75,0.5,127,122.0
1555,B2,106.75,0.5,127,122.0
1556,E-3,107.0,1.0,127,122.0
1557,F#3,107.0,0.25,127,122.0
1558,D2,107.0,0.25,127,122.0
1559,B1,107.0,0.25,127,122.0
1560,F#3,107.25,0.25,127,122.0
1561,F#4,107.25,0.25,127,122.0
1562,E-4,107.25,0.25,127,122.0
1563,B3,107.25,0.25,127,122.0
1564,F#3,107.25,0.25,127,122.0
1565,B2,107.25,0.25,127,122.0
1566,B1,107.5,0.5,127,122.0
1567,F#3,107.5,0.25,127,122.0
1568,F#4,107.5,0.5,127,122.0
1569,E-4,107.5,0.5,127,122.0
1570,B3,107.5,0.5,127,122.0
1571,F#3,107.5,0.5,127,122.0
1572,B2,107.5,0.5,127,122.0
1573,F#3,107.75,0.25,127,122.0
1574,E-2,108.0,0.5,127,122.0
1575,F#5,108.0,4.0,127,122.0
1576,E-3,108.0,1.0,127,122.0
1577,F#4,108.0,1.5,127,122.0
1578,B-4,108.0,1.0,127,122.0
1579,F#4,108.0,1.0,127,122.0
1580,E-4,108.0,1.0,127,122.0
1581,B-3,108.0,0.5,127,122.0
1582,E-3,108.0,0.5,127,122.0
1583,F#3,108.0,0.25,127,122.0
1584,D2,108.0,0.25,127,122.0
1585,F#3,108.25,0.25,127,122.0
1586,B-3,108.5,0.5,127,122.0
1587,E-3,108.5,1.0,127,122.0
1588,B-1,108.5,0.5,127,122.0
1589,F#3,108.5,0.25,127,122.0
1590,B1,108.5,0.25,127,122.0
1591,F#3,108.75,0.25,127,122.0
1592,E-4,109.0,0.75,127,122.0
1593,E-3,109.0,0.5,127,122.0
1594,E-3,109.0,1.0,127,122.0
1595,B-4,109.0,0.5,127,122.0
1596,F#4,109.0,0.5,127,122.0
1597,B-3,109.0,0.5,127,122.0
1598,F#3,109.0,0.25,127,122.0
1599,D2,109.0,0.25,127,122.0
1600,F#3,109.25,0.25,127,122.0
1601,B-3,109.5,0.25,127,122.0
1602,E-3,109.5,0.75,127,122.0
1603,E-2,109.5,0.25,127,122.0
1604,F#3,109.5,0.25,127,122.0
1605,B1,109.5,0.25,127,122.0
1606,E-4,109.75,0.75,127,122.0
1607,E-3,109.75,0.5,127,122.0
1608,B-4,109.75,0.5,127,122.0
1609,F#4,109.75,0.5,127,122.0
1610,B-3,109.75,0.5,127,122.0
1611,F#3,109.75,0.25,127,122.0
1612,D2,109.75,0.25,127,122.0
1613,E-3,110.0,1.0,127,122.0
1614,F#3,110.0,0.25,127,122.0
1615,B-3,110.25,0.25,127,122.0
1616,E-3,110.25,1.25,127,122.0
1617,E-2,110.25,0.25,127,122.0
1618,F#3,110.25,0.25,127,122.0
1619,B1,110.25,0.25,127,122.0
1620,B-2,110.5,0.5,127,122.0
1621,E-4,110.5,0.5,127,122.0
1622,B-3,110.5,0.5,127,122.0
1623,F#3,110.5,0.25,127,122.0
1624,B1,110.5,0.25,127,122.0
1625,F#3,110.75,0.25,127,122.0
1626,G#2,111.0,0.5,127,122.0
1627,E-3,111.0,1.0,127,122.0
1628,E-4,111.0,0.5,127,122.0
1629,G#3,111.0,0.5,127,122.0
1630,F#3,111.0,0.25,127,122.0
1631,D2,111.0,0.25,127,122.0
1632,B1,111.0,0.25,127,122.0
1633,F#3,111.25,0.25,127,122.0
1634,F#2,111.5,0.5,127,122.0
1635,B-3,111.5,0.5,127,122.0
1636,F#3,111.5,0.5,127,122.0
1637,F#3,111.5,0.25,127,122.0
1638,D2,111.5,0.25,127,122.0
1639,B1,111.5,0.25,127,122.0
1640,F#3,111.75,0.25,127,122.0
1641,F#1,112.0,0.375,127,122.0
1642,F#5,112.0,4.0,127,122.0
1643,E-3,112.0,1.0,127,122.0
1644,F#4,112.0,1.0,127,122.0
1645,C#4,112.0,0.75,127,122.0
1646,B-3,112.0,0.75,127,122.0
1647,F#3,112.0,0.75,127,122.0
1648,C#3,112.0,0.75,127,122.0
1649,F#2,112.0,0.75,127,122.0
1650,F#3,112.0,0.25,127,122.0
1651,B1,112.0,0.25,127,122.0
1652,F#3,112.25,0.25,127,122.0
1653,F#2,112.5,0.25,127,122.0
1654,F#3,112.5,0.25,127,122.0
1655,F#3,112.75,0.25,127,122.0
1656,F#1,113.0,0.375,127,122.0
1657,E-3,113.0,1.0,127,122.0
1658,E-4,113.0,1.0,127,122.0
1659,C#4,113.0,0.75,127,122.0
1660,B-3,113.0,0.75,127,122.0
1661,F#3,113.0,0.75,127,122.0
1662,C#3,113.0,0.75,127,122.0
1663,F#2,113.0,0.75,127,122.0
1664,F#3,113.0,0.25,127,122.0
1665,D2,113.0,0.25,127,122.0
1666,B1,113.0,0.25,127,122.0
1667,F#3,113.25,0.25,127,122.0
1668,F#1,113.5,0.25,127,122.0
1669,F#3,113.5,0.25,127,122.0
1670,F#1,113.75,0.75,127,122.0
1671,F#3,113.75,0.25,127,122.0
1672,E-3,114.0,1.0,127,122.0
1673,C#4,114.0,0.5,127,122.0
1674,C#4,114.0,319/500,127,122.0
1675,B-3,114.0,319/500,127,122.0
1676,F#3,114.0,319/500,127,122.0
1677,C#3,114.0,319/500,127,122.0
1678,F#2,114.0,319/500,127,122.0
1679,F#3,114.0,0.25,127,122.0
1680,B1,114.0,0.25,127,122.0
1681,F#3,114.25,0.25,127,122.0
1682,F#1,114.5,1.0,127,122.0
1683,F#3,114.5,0.25,127,122.0
1684,E-4,114.5,1.0,127,122.0
1685,F#3,114.75,0.25,127,122.0
1686,C#4,114.75,0.5,127,122.0
1687,B-3,114.75,0.5,127,122.0
1688,F#3,114.75,0.5,127,122.0
1689,C#3,114.75,0.5,127,122.0
1690,F#2,114.75,0.5,127,122.0
1691,E-3,115.0,1.0,127,122.0
1692,F#3,115.0,0.25,127,122.0
1693,D2,115.0,0.25,127,122.0
1694,B1,115.0,0.25,127,122.0
1695,F#3,115.25,0.25,127,122.0
1696,C#4,115.25,0.25,127,122.0
1697,B-3,115.25,0.25,127,122.0
1698,F#3,115.25,0.25,127,122.0
1699,C#3,115.25,0.25,127,122.0
1700,E2,115.25,0.25,127,122.0
1701,G1,115.5,0.5,127,122.0
1702,F#3,115.5,0.25,127,122.0
1703,G#4,115.5,0.5,127,122.0
1704,C#4,115.5,0.5,127,122.0
1705,B-3,115.5,0.5,127,122.0
1706,F#3,115.5,0.5,127,122.0
1707,C#3,115.5,0.5,127,122.0
1708,F#2,115.5,0.5,127,122.0
1709,F#3,115.75,0.25,127,122.0
1710,G#1,116.0,0.375,127,122.0
1711,F#5,116.0,4.0,127,122.0
1712,E-3,116.0,1.0,127,122.0
1713,G#4,116.0,0.5,127,122.0
1714,E-4,116.0,0.75,127,122.0
1715,C4,116.0,0.75,127,122.0
1716,G#3,116.0,0.75,127,122.0
1717,E-3,116.0,0.75,127,122.0
1718,G#2,116.0,0.75,127,122.0
1719,F#3,116.0,0.25,127,122.0
1720,B1,116.0,0.25,127,122.0
1721,F#3,116.25,0.25,127,122.0
1722,G#2,116.5,0.25,127,122.0
1723,F#3,116.5,0.25,127,122.0
1724,E-4,116.5,2.0,127,122.0
1725,F#3,116.75,0.25,127,122.0
1726,G#1,117.0,0.375,127,122.0
1727,E-3,117.0,1.0,127,122.0
1728,E-4,117.0,0.75,127,122.0
1729,C4,117.0,0.75,127,122.0
1730,G#3,117.0,0.75,127,122.0
1731,E-3,117.0,0.75,127,122.0
1732,G#2,117.0,0.75,127,122.0
1733,F#3,117.0,0.25,127,122.0
1734,D2,117.0,0.25,127,122.0
1735,B1,117.0,0.25,127,122.0
1736,F#3,117.25,0.25,127,122.0
1737,G#1,117.5,0.25,127,122.0
1738,F#3,117.5,0.25,127,122.0
1739,G#1,117.75,0.75,127,122.0
1740,F#3,117.75,0.25,127,122.0
1741,E-3,118.0,1.0,127,122.0
1742,E-4,118.0,319/500,127,122.0
1743,C4,118.0,319/500,127,122.0
1744,G#3,118.0,319/500,127,122.0
1745,E-3,118.0,319/500,127,122.0
1746,G#2,118.0,319/500,127,122.0
1747,F#3,118.0,0.25,127,122.0
1748,B1,118.0,0.25,127,122.0
1749,F#3,118.25,0.25,127,122.0
1750,G#1,118.5,1.0,127,122.0
1751,F#3,118.5,0.25,127,122.0
1752,C#4,118.5,1.5,127,122.0
1753,F#3,118.75,0.25,127,122.0
1754,E-4,118.75,0.5,127,122.0
1755,C4,118.75,0.5,127,122.0
1756,G#3,118.75,0.5,127,122.0
1757,E-3,118.75,0.5,127,122.0
1758,G#2,118.75,0.5,127,122.0
1759,E-3,119.0,1.0,127,122.0
1760,F#3,119.0,0.25,127,122.0
1761,D2,119.0,0.25,127,122.0
1762,B1,119.0,0.25,127,122.0
1763,F#3,119.25,0.25,127,122.0
1764,E-4,119.25,0.25,127,122.0
1765,C4,119.25,0.25,127,122.0
1766,G#3,119.25,0.25,127,122.0
1767,E-3,119.25,0.25,127,122.0
1768,E2,119.25,0.25,127,122.0
1769,B-1,119.5,0.5,127,122.0
1770,F#3,119.5,0.25,127,122.0
1771,E-4,119.5,0.5,127,122.0
1772,C4,119.5,0.5,127,122.0
1773,G#3,119.5,0.5,127,122.0
1774,E-3,119.5,0.5,127,122.0
1775,G#2,119.5,0.5,127,122.0
1776,F#3,119.75,0.25,127,122.0
1777,B1,120.0,0.375,127,122.0
1778,F#5,120.0,4.0,127,122.0
1779,E-3,120.0,1.0,127,122.0
1780,B-4,120.0,0.5,127,122.0
1781,F#4,120.0,0.75,127,122.0
1782,E-4,120.0,0.75,127,122.0
1783,B3,120.0,0.75,127,122.0
1784,F#3,120.0,0.75,127,122.0
1785,B2,120.0,0.75,127,122.0
1786,F#3,120.0,0.25,127,122.0
1787,B1,120.0,0.25,127,122.0
1788,F#3,120.25,0.25,127,122.0
1789,B2,120.5,0.25,127,122.0
1790,F#3,120.5,0.25,127,122.0
1791,G#4,120.5,3.5,127,122.0
1792,F#3,120.75,0.25,127,122.0
1793,B1,121.0,0.375,127,122.0
1794,E-3,121.0,1.0,127,122.0
1795,F#4,121.0,0.75,127,122.0
1796,E-4,121.0,0.75,127,122.0
1797,B3,121.0,0.75,127,122.0
1798,F#3,121.0,0.75,127,122.0
1799,B2,121.0,0.75,127,122.0
1800,F#3,121.0,0.25,127,122.0
1801,D2,121.0,0.25,127,122.0
1802,B1,121.0,0.25,127,122.0
1803,F#3,121.25,0.25,127,122.0
1804,B1,121.5,0.25,127,122.0
1805,F#3,121.5,0.25,127,122.0
1806,B1,121.75,0.75,127,122.0
1807,F#3,121.75,0.25,127,122.0
1808,E-3,122.0,1.0,127,122.0
1809,F#4,122.0,319/500,127,122.0
1810,E-4,122.0,319/500,127,122.0
1811,B3,122.0,319/500,127,122.0
1812,F#3,122.0,319/500,127,122.0
1813,B2,122.0,319/500,127,122.0
1814,F#3,122.0,0.25,127,122.0
1815,B1,122.0,0.25,127,122.0
1816,F#3,122.25,0.25,127,122.0
1817,C#2,122.5,1.0,127,122.0
1818,F#3,122.5,0.25,127,122.0
1819,F#3,122.75,0.25,127,122.0
1820,F#4,122.75,0.5,127,122.0
1821,E-4,122.75,0.5,127,122.0
1822,B3,122.75,0.5,127,122.0
1823,F#3,122.75,0.5,127,122.0
1824,B2,122.75,0.5,127,122.0
1825,E-3,123.0,1.0,127,122.0
1826,F#3,123.0,0.25,127,122.0
1827,D2,123.0,0.25,127,122.0
1828,B1,123.0,0.25,127,122.0
1829,F#3,123.25,0.25,127,122.0
1830,F#4,123.25,0.25,127,122.0
1831,E-4,123.25,0.25,127,122.0
1832,B3,123.25,0.25,127,122.0
1833,F#3,123.25,0.25,127,122.0
1834,B2,123.25,0.25,127,122.0
1835,B1,123.5,0.5,127,122.0
1836,F#3,123.5,0.25,127,122.0
1837,F#4,123.5,0.5,127,122.0
1838,E-4,123.5,0.5,127,122.0
1839,B3,123.5,0.5,127,122.0
1840,F#3,123.5,0.5,127,122.0
1841,B2,123.5,0.5,127,122.0
1842,F#3,123.75,0.25,127,122.0
1843,E-2,124.0,0.5,127,122.0
1844,F#5,124.0,4.0,127,122.0
1845,E-3,124.0,1.0,127,122.0
1846,F#4,124.0,1.5,127,122.0
1847,B-4,124.0,1.0,127,122.0
1848,F#4,124.0,1.0,127,122.0
1849,E-4,124.0,1.0,127,122.0
1850,B-3,124.0,0.5,127,122.0
1851,E-3,124.0,0.5,127,122.0
1852,F#3,124.0,0.25,127,122.0
1853,D2,124.0,0.25,127,122.0
1854,F#3,124.25,0.25,127,122.0
1855,B-3,124.5,0.5,127,122.0
1856,E-3,124.5,1.0,127,122.0
1857,B-1,124.5,0.5,127,122.0
1858,F#3,124.5,0.25,127,122.0
1859,B1,124.5,0.25,127,122.0
1860,F#3,124.75,0.25,127,122.0
1861,E-4,125.0,0.75,127,122.0
1862,E-3,125.0,0.5,127,122.0
1863,E-3,125.0,1.0,127,122.0
1864,B-4,125.0,0.5,127,122.0
1865,F#4,125.0,0.5,127,122.0
1866,B-3,125.0,0.5,127,122.0
1867,F#3,125.0,0.25,127,122.0
1868,D2,125.0,0.25,127,122.0
1869,F#3,125.25,0.25,127,122.0
1870,B-3,125.5,0.25,127,122.0
1871,E-3,125.5,0.75,127,122.0
1872,E-2,125.5,0.25,127,122.0
1873,F#3,125.5,0.25,127,122.0
1874,B1,125.5,0.25,127,122.0
1875,E-4,125.75,0.75,127,122.0
1876,E-3,125.75,0.5,127,122.0
1877,B-4,125.75,0.5,127,122.0
1878,F#4,125.75,0.5,127,122.0
1879,B-3,125.75,0.5,127,122.0
1880,F#3,125.75,0.25,127,122.0
1881,D2,125.75,0.25,127,122.0
1882,E-3,126.0,1.0,127,122.0
1883,F#3,126.0,0.25,127,122.0
1884,B-3,126.25,0.25,127,122.0
1885,E-3,126.25,1.25,127,122.0
1886,E-2,126.25,0.25,127,122.0
1887,F#3,126.25,0.25,127,122.0
1888,B1,126.25,0.25,127,122.0
1889,B-2,126.5,0.5,127,122.0
1890,E-4,126.5,0.5,127,122.0
1891,B-3,126.5,0.5,127,122.0
1892,F#3,126.5,0.25,127,122.0
1893,B1,126.5,0.25,127,122.0
1894,F#3,126.75,0.25,127,122.0
1895,G#2,127.0,0.5,127,122.0
1896,E-3,127.0,1.0,127,122.0
1897,E-4,127.0,0.5,127,122.0
1898,G#3,127.0,0.5,127,122.0
1899,F#3,127.0,0.25,127,122.0
1900,D2,127.0,0.25,127,122.0
1901,B1,127.0,0.25,127,122.0
1902,F#3,127.25,0.25,127,122.0
1903,F#2,127.5,0.5,127,122.0
1904,B-3,127.5,0.5,127,122.0
1905,F#3,127.5,0.5,127,122.0
1906,F#3,127.5,0.25,127,122.0
1907,D2,127.5,0.25,127,122.0
1908,B1,127.5,0.25,127,122.0
1909,F#3,127.75,0.25,127,122.0
1910,F#1,128.0,0.375,127,122.0
1911,F#5,128.0,4.0,127,122.0
1912,E-3,128.0,1.0,127,122.0
1913,B-4,128.0,1.0,127,122.0
1914,C#4,128.0,0.75,127,122.0
1915,B-3,128.0,0.75,127,122.0
1916,F#3,128.0,0.75,127,122.0
1917,C#3,128.0,0.75,127,122.0
1918,F#2,128.0,0.75,127,122.0
1919,F#3,128.0,0.25,127,122.0
1920,B1,128.0,0.25,127,122.0
1921,F#3,128.25,0.25,127,122.0
1922,F#2,128.5,0.25,127,122.0
1923,F#3,128.5,0.25,127,122.0
1924,F#3,128.75,0.25,127,122.0
1925,F#1,129.0,0.375,127,122.0
1926,E-3,129.0,1.0,127,122.0
1927,F#4,129.0,1.0,127,122.0
1928,C#4,129.0,0.75,127,122.0
1929,B-3,129.0,0.75,127,122.0
1930,F#3,129.0,0.75,127,122.0
1931,C#3,129.0,0.75,127,122.0
1932,F#2,129.0,0.75,127,122.0
1933,F#3,129.0,0.25,127,122.0
1934,D2,129.0,0.25,127,122.0
1935,B1,129.0,0.25,127,122.0
1936,F#3,129.25,0.25,127,122.0
1937,F#1,129.5,0.25,127,122.0
1938,F#3,129.5,0.25,127,122.0
1939,F#1,129.75,0.75,127,122.0
1940,F#3,129.75,0.25,127,122.0
1941,E-3,130.0,1.0,127,122.0
1942,E-4,130.0,0.5,127,122.0
1943,C#4,130.0,319/500,127,122.0
1944,B-3,130.0,319/500,127,122.0
1945,F#3,130.0,319/500,127,122.0
1946,C#3,130.0,319/500,127,122.0
1947,F#2,130.0,319/500,127,122.0
1948,F#3,130.0,0.25,127,122.0
1949,B1,130.0,0.25,127,122.0
1950,F#3,130.25,0.25,127,122.0
1951,F#1,130.5,1.0,127,122.0
1952,F#3,130.5,0.25,127,122.0
1953,F#4,130.5,1.0,127,122.0
1954,F#3,130.75,0.25,127,122.0
1955,C#4,130.75,0.5,127,122.0
1956,B-3,130.75,0.5,127,122.0
1957,F#3,130.75,0.5,127,122.0
1958,C#3,130.75,0.5,127,122.0
1959,F#2,130.75,0.5,127,122.0
1960,E-3,131.0,1.0,127,122.0
1961,F#3,131.0,0.25,127,122.0
1962,D2,131.0,0.25,127,122.0
1963,B1,131.0,0.25,127,122.0
1964,F#3,131.25,0.25,127,122.0
1965,C#4,131.25,0.25,127,122.0
1966,B-3,131.25,0.25,127,122.0
1967,F#3,131.25,0.25,127,122.0
1968,C#3,131.25,0.25,127,122.0
1969,E2,131.25,0.25,127,122.0
1970,G1,131.5,0.5,127,122.0
1971,F#3,131.5,0.25,127,122.0
1972,B-4,131.5,0.5,127,122.0
1973,C#4,131.5,0.5,127,122.0
1974,B-3,131.5,0.5,127,122.0
1975,F#3,131.5,0.5,127,122.0
1976,C#3,131.5,0.5,127,122.0
1977,F#2,131.5,0.5,127,122.0
1978,F#3,131.75,0.25,127,122.0
1979,G#1,132.0,0.375,127,122.0
1980,F#5,132.0,4.0,127,122.0
1981,E-3,132.0,1.0,127,122.0
1982,B-4,132.0,0.5,127,122.0
1983,E-4,132.0,0.75,127,122.0
1984,C4,132.0,0.75,127,122.0
1985,G#3,132.0,0.75,127,122.0
1986,E-3,132.0,0.75,127,122.0
1987,G#2,132.0,0.75,127,122.0
1988,F#3,132.0,0.25,127,122.0
1989,B1,132.0,0.25,127,122.0
1990,F#3,132.25,0.25,127,122.0
1991,G#2,132.5,0.25,127,122.0
1992,F#3,132.5,0.25,127,122.0
1993,F#4,132.5,2.0,127,122.0
1994,F#3,132.75,0.25,127,122.0
1995,G#1,133.0,0.375,127,122.0
1996,E-3,133.0,1.0,127,122.0
1997,E-4,133.0,0.75,127,122.0
1998,C4,133.0,0.75,127,122.0
1999,G#3,133.0,0.75,127,122.0
2000,E-3,133.0,0.75,127,122.0
2001,G#2,133.0,0.75,127,122.0
2002,F#3,133.0,0.25,127,122.0
2003,D2,133.0,0.25,127,122.0
2004,B1,133.0,0.25,127,122.0
2005,F#3,133.25,0.25,127,122.0
2006,G#1,133.5,0.25,127,122.0
2007,F#3,133.5,0.25,127,122.0
2008,G#1,133.75,0.75,127,122.0
2009,F#3,133.75,0.25,127,122.0
2010,E-3,134.0,1.0,127,122.0
2011,E-4,134.0,319/500,127,122.0
2012,C4,134.0,319/500,127,122.0
2013,G#3,134.0,319/500,127,122.0
2014,E-3,134.0,319/500,127,122.0
2015,G#2,134.0,319/500,127,122.0
2016,F#3,134.0,0.25,127,122.0
2017,B1,134.0,0.25,127,122.0
2018,F#3,134.25,0.25,127,122.0
2019,G#1,134.5,1.0,127,122.0
2020,F#3,134.5,0.25,127,122.0
2021,E-4,134.5,0.5,127,122.0
2022,F#3,134.75,0.25,127,122.0
2023,E-4,134.75,0.5,127,122.0
2024,C4,134.75,0.5,127,122.0
2025,G#3,134.75,0.5,127,122.0
2026,E-3,134.75,0.5,127,122.0
2027,G#2,134.75,0.5,127,122.0
2028,E-3,135.0,1.0,127,122.0
2029,F#4,135.0,1.0,127,122.0
2030,F#3,135.0,0.25,127,122.0
2031,D2,135.0,0.25,127,122.0
2032,B1,135.0,0.25,127,122.0
2033,F#3,135.25,0.25,127,122.0
2034,E-4,135.25,0.25,127,122.0
2035,C4,135.25,0.25,127,122.0
2036,G#3,135.25,0.25,127,122.0
2037,E-3,135.25,0.25,127,122.0
2038,E2,135.25,0.25,127,122.0
2039,B-1,135.5,0.5,127,122.0
2040,F#3,135.5,0.25,127,122.0
2041,E-4,135.5,0.5,127,122.0
2042,C4,135.5,0.5,127,122.0
2043,G#3,135.5,0.5,127,122.0
2044,E-3,135.5,0.5,127,122.0
2045,G#2,135.5,0.5,127,122.0
2046,F#3,135.75,0.25,127,122.0
2047,B1,136.0,0.375,127,122.0
2048,F#5,136.0,4.0,127,122.0
2049,E-3,136.0,1.0,127,122.0
2050,B-4,136.0,0.5,127,122.0
2051,F#4,136.0,0.75,127,122.0
2052,E-4,136.0,0.75,127,122.0
2053,B3,136.0,0.75,127,122.0
2054,F#3,136.0,0.75,127,122.0
2055,B2,136.0,0.75,127,122.0
2056,F#3,136.0,0.25,127,122.0
2057,B1,136.0,0.25,127,122.0
2058,F#3,136.25,0.25,127,122.0
2059,B2,136.5,0.25,127,122.0
2060,F#3,136.5,0.25,127,122.0
2061,G#4,136.5,3.5,127,122.0
2062,F#3,136.75,0.25,127,122.0
2063,B1,137.0,0.375,127,122.0
2064,E-3,137.0,1.0,127,122.0
2065,F#4,137.0,0.75,127,122.0
2066,E-4,137.0,0.75,127,122.0
2067,B3,137.0,0.75,127,122.0
2068,F#3,137.0,0.75,127,122.0
2069,B2,137.0,0.75,127,122.0
2070,F#3,137.0,0.25,127,122.0
2071,D2,137.0,0.25,127,122.0
2072,B1,137.0,0.25,127,122.0
2073,F#3,137.25,0.25,127,122.0
2074,B1,137.5,0.25,127,122.0
2075,F#3,137.5,0.25,127,122.0
2076,B1,137.75,0.75,127,122.0
2077,F#3,137.75,0.25,127,122.0
2078,E-3,138.0,1.0,127,122.0
2079,F#4,138.0,319/500,127,122.0
2080,E-4,138.0,319/500,127,122.0
2081,B3,138.0,319/500,127,122.0
2082,F#3,138.0,319/500,127,122.0
2083,B2,138.0,319/500,127,122.0
2084,F#3,138.0,0.25,127,122.0
2085,B1,138.0,0.25,127,122.0
2086,F#3,138.25,0.25,127,122.0
2087,C#2,138.5,1.0,127,122.0
2088,F#3,138.5,0.25,127,122.0
2089,F#3,138.75,0.25,127,122.0
2090,F#4,138.75,0.5,127,122.0
2091,E-4,138.75,0.5,127,122.0
2092,B3,138.75,0.5,127,122.0
2093,F#3,138.75,0.5,127,122.0
2094,B2,138.75,0.5,127,122.0
2095,E-3,139.0,1.0,127,122.0
2096,F#3,139.0,0.25,127,122.0
2097,D2,139.0,0.25,127,122.0
2098,B1,139.0,0.25,127,122.0
2099,F#3,139.25,0.25,127,122.0
2100,F#4,139.25,0.25,127,122.0
2101,E-4,139.25,0.25,127,122.0
2102,B3,139.25,0.25,127,122.0
2103,F#3,139.25,0.25,127,122.0
2104,B2,139.25,0.25,127,122.0
2105,B1,139.5,0.5,127,122.0
2106,F#3,139.5,0.25,127,122.0
2107,F#4,139.5,0.5,127,122.0
2108,E-4,139.5,0.5,127,122.0
2109,B3,139.5,0.5,127,122.0
2110,F#3,139.5,0.5,127,122.0
2111,B2,139.5,0.5,127,122.0
2112,F#3,139.75,0.25,127,122.0
2113,E-2,140.0,0.5,127,122.0
2114,F#5,140.0,4.0,127,122.0
2115,E-3,140.0,1.0,127,122.0
2116,F#4,140.0,1.5,127,122.0
2117,B-4,140.0,1.0,127,122.0
2118,F#4,140.0,1.0,127,122.0
2119,E-4,140.0,1.0,127,122.0
2120,B-3,140.0,0.5,127,122.0
2121,E-3,140.0,0.5,127,122.0
2122,F#3,140.0,0.25,127,122.0
2123,D2,140.0,0.25,127,122.0
2124,F#3,140.25,0.25,127,122.0
2125,B-3,140.5,0.5,127,122.0
2126,E-3,140.5,1.0,127,122.0
2127,B-1,140.5,0.5,127,122.0
2128,F#3,140.5,0.25,127,122.0
2129,B1,140.5,0.25,127,122.0
2130,F#3,140.75,0.25,127,122.0
2131,E-4,141.0,0.75,127,122.0
2132,E-3,141.0,0.5,127,122.0
2133,E-3,141.0,1.0,127,122.0
2134,B-4,141.0,0.5,127,122.0
2135,F#4,141.0,0.5,127,122.0
2136,B-3,141.0,0.5,127,122.0
2137,F#3,141.0,0.25,127,122.0
2138,D2,141.0,0.25,127,122.0
2139,F#3,141.25,0.25,127,122.0
2140,B-3,141.5,0.25,127,122.0
2141,E-3,141.5,0.75,127,122.0
2142,E-2,141.5,0.25,127,122.0
2143,F#3,141.5,0.25,127,122.0
2144,B1,141.5,0.25,127,122.0
2145,E-4,141.75,0.75,127,122.0
2146,E-3,141.75,0.5,127,122.0
2147,B-4,141.75,0.5,127,122.0
2148,F#4,141.75,0.5,127,122.0
2149,B-3,141.75,0.5,127,122.0
2150,F#3,141.75,0.25,127,122.0
2151,D2,141.75,0.25,127,122.0
2152,E-3,142.0,1.0,127,122.0
2153,F#3,142.0,0.25,127,122.0
2154,B-3,142.25,0.25,127,122.0
2155,E-3,142.25,1.25,127,122.0
2156,E-2,142.25,0.25,127,122.0
2157,F#3,142.25,0.25,127,122.0
2158,B1,142.25,0.25,127,122.0
2159,B-2,142.5,0.5,127,122.0
2160,E-4,142.5,0.5,127,122.0
2161,B-3,142.5,0.5,127,122.0
2162,F#3,142.5,0.25,127,122.0
2163,B1,142.5,0.25,127,122.0
2164,F#3,142.75,0.25,127,122.0
2165,G#2,143.0,0.5,127,122.0
2166,E-3,143.0,1.0,127,122.0
2167,E-4,143.0,0.5,127,122.0
2168,G#3,143.0,0.5,127,122.0
2169,F#3,143.0,0.25,127,122.0
2170,D2,143.0,0.25,127,122.0
2171,B1,143.0,0.25,127,122.0
2172,F#3,143.25,0.25,127,122.0
2173,F#2,143.5,0.5,127,122.0
2174,B-3,143.5,0.5,127,122.0
2175,F#3,143.5,0.5,127,122.0
2176,F#3,143.5,0.25,127,122.0
2177,D2,143.5,0.25,127,122.0
2178,B1,143.5,0.25,127,122.0
2179,F#3,143.75,0.25,127,122.0
2180,F#1,144.0,0.375,127,122.0
2181,F#5,144.0,4.0,127,122.0
2182,E-3,144.0,1.0,127,122.0
2183,B-4,144.0,1.0,127,122.0
2184,C#4,144.0,0.75,127,122.0
2185,B-3,144.0,0.75,127,122.0
2186,F#3,144.0,0.75,127,122.0
2187,C#3,144.0,0.75,127,122.0
2188,F#2,144.0,0.75,127,122.0
2189,F#3,144.0,0.25,127,122.0
2190,B1,144.0,0.25,127,122.0
2191,F#3,144.25,0.25,127,122.0
2192,F#2,144.5,0.25,127,122.0
2193,F#3,144.5,0.25,127,122.0
2194,F#3,144.75,0.25,127,122.0
2195,F#1,145.0,0.375,127,122.0
2196,E-3,145.0,1.0,127,122.0
2197,F#4,145.0,1.0,127,122.0
2198,C#4,145.0,0.75,127,122.0
2199,B-3,145.0,0.75,127,122.0
2200,F#3,145.0,0.75,127,122.0
2201,C#3,145.0,0.75,127,122.0
2202,F#2,145.0,0.75,127,122.0
2203,F#3,145.0,0.25,127,122.0
2204,D2,145.0,0.25,127,122.0
2205,B1,145.0,0.25,127,122.0
2206,F#3,145.25,0.25,127,122.0
2207,F#1,145.5,0.25,127,122.0
2208,F#3,145.5,0.25,127,122.0
2209,F#1,145.75,0.75,127,122.0
2210,F#3,145.75,0.25,127,122.0
2211,E-3,146.0,1.0,127,122.0
2212,E-4,146.0,0.5,127,122.0
2213,C#4,146.0,319/500,127,122.0
2214,B-3,146.0,319/500,127,122.0
2215,F#3,146.0,319/500,127,122.0
2216,C#3,146.0,319/500,127,122.0
2217,F#2,146.0,319/500,127,122.0
2218,F#3,146.0,0.25,127,122.0
2219,B1,146.0,0.25,127,122.0
2220,F#3,146.25,0.25,127,122.0
2221,F#1,146.5,1.0,127,122.0
2222,F#3,146.5,0.25,127,122.0
2223,F#4,146.5,1.0,127,122.0
2224,F#3,146.75,0.25,127,122.0
2225,C#4,146.75,0.5,127,122.0
2226,B-3,146.75,0.5,127,122.0
2227,F#3,146.75,0.5,127,122.0
2228,C#3,146.75,0.5,127,122.0
2229,F#2,146.75,0.5,127,122.0
2230,E-3,147.0,1.0,127,122.0
2231,F#3,147.0,0.25,127,122.0
2232,D2,147.0,0.25,127,122.0
2233,B1,147.0,0.25,127,122.0
2234,F#3,147.25,0.25,127,122.0
2235,C#4,147.25,0.25,127,122.0
2236,B-3,147.25,0.25,127,122.0
2237,F#3,147.25,0.25,127,122.0
2238,C#3,147.25,0.25,127,122.0
2239,E2,147.25,0.25,127,122.0
2240,G1,147.5,0.5,127,122.0
2241,F#3,147.5,0.25,127,122.0
2242,B-4,147.5,0.5,127,122.0
2243,C#4,147.5,0.5,127,122.0
2244,B-3,147.5,0.5,127,122.0
2245,F#3,147.5,0.5,127,122.0
2246,C#3,147.5,0.5,127,122.0
2247,F#2,147.5,0.5,127,122.0
2248,F#3,147.75,0.25,127,122.0
2249,G#1,148.0,0.375,127,122.0
2250,F#5,148.0,4.0,127,122.0
2251,E-3,148.0,1.0,127,122.0
2252,B-4,148.0,0.5,127,122.0
2253,E-4,148.0,0.75,127,122.0
2254,C4,148.0,0.75,127,122.0
2255,G#3,148.0,0.75,127,122.0
2256,E-3,148.0,0.75,127,122.0
2257,G#2,148.0,0.75,127,122.0
2258,F#3,148.0,0.25,127,122.0
2259,B1,148.0,0.25,127,122.0
2260,F#3,148.25,0.25,127,122.0
2261,G#2,148.5,0.25,127,122.0
2262,F#3,148.5,0.25,127,122.0
2263,F#4,148.5,2.0,127,122.0
2264,F#3,148.75,0.25,127,122.0
2265,G#1,149.0,0.375,127,122.0
2266,E-3,149.0,1.0,127,122.0
2267,E-4,149.0,0.75,127,122.0
2268,C4,149.0,0.75,127,122.0
2269,G#3,149.0,0.75,127,122.0
2270,E-3,149.0,0.75,127,122.0
2271,G#2,149.0,0.75,127,122.0
2272,F#3,149.0,0.25,127,122.0
2273,D2,149.0,0.25,127,122.0
2274,B1,149.0,0.25,127,122.0
2275,F#3,149.25,0.25,127,122.0
2276,G#1,149.5,0.25,127,122.0
2277,F#3,149.5,0.25,127,122.0
2278,G#1,149.75,0.75,127,122.0
2279,F#3,149.75,0.25,127,122.0
2280,E-3,150.0,1.0,127,122.0
2281,E-4,150.0,319/500,127,122.0
2282,C4,150.0,319/500,127,122.0
2283,G#3,150.0,319/500,127,122.0
2284,E-3,150.0,319/500,127,122.0
2285,G#2,150.0,319/500,127,122.0
2286,F#3,150.0,0.25,127,122.0
2287,B1,150.0,0.25,127,122.0
2288,F#3,150.25,0.25,127,122.0
2289,G#1,150.5,1.0,127,122.0
2290,F#3,150.5,0.25,127,122.0
2291,E-4,150.5,0.5,127,122.0
2292,F#3,150.75,0.25,127,122.0
2293,E-4,150.75,0.5,127,122.0
2294,C4,150.75,0.5,127,122.0
2295,G#3,150.75,0.5,127,122.0
2296,E-3,150.75,0.5,127,122.0
2297,G#2,150.75,0.5,127,122.0
2298,E-3,151.0,1.0,127,122.0
2299,F#4,151.0,1.0,127,122.0
2300,F#3,151.0,0.25,127,122.0
2301,D2,151.0,0.25,127,122.0
2302,B1,151.0,0.25,127,122.0
2303,F#3,151.25,0.25,127,122.0
2304,E-4,151.25,0.25,127,122.0
2305,C4,151.25,0.25,127,122.0
2306,G#3,151.25,0.25,127,122.0
2307,E-3,151.25,0.25,127,122.0
2308,E2,151.25,0.25,127,122.0
2309,B-1,151.5,0.5,127,122.0
2310,F#3,151.5,0.25,127,122.0
2311,E-4,151.5,0.5,127,122.0
2312,C4,151.5,0.5,127,122.0
2313,G#3,151.5,0.5,127,122.0
2314,E-3,151.5,0.5,127,122.0
2315,G#2,151.5,0.5,127,122.0
2316,F#3,151.75,0.25,127,122.0
2317,B1,152.0,0.375,127,122.0
2318,F#5,152.0,4.0,127,122.0
2319,E-3,152.0,1.0,127,122.0
2320,B-4,152.0,0.5,127,122.0
2321,F#4,152.0,0.75,127,122.0
2322,E-4,152.0,0.75,127,122.0
2323,B3,152.0,0.75,127,122.0
2324,F#3,152.0,0.75,127,122.0
2325,B2,152.0,0.75,127,122.0
2326,F#3,152.0,0.25,127,122.0
2327,B1,152.0,0.25,127,122.0
2328,F#3,152.25,0.25,127,122.0
2329,B2,152.5,0.25,127,122.0
2330,F#3,152.5,0.25,127,122.0
2331,G#4,152.5,3.5,127,122.0
2332,F#3,152.75,0.25,127,122.0
2333,B1,153.0,0.375,127,122.0
2334,E-3,153.0,1.0,127,122.0
2335,F#4,153.0,0.75,127,122.0
2336,E-4,153.0,0.75,127,122.0
2337,B3,153.0,0.75,127,122.0
2338,F#3,153.0,0.75,127,122.0
2339,B2,153.0,0.75,127,122.0
2340,F#3,153.0,0.25,127,122.0
2341,D2,153.0,0.25,127,122.0
2342,B1,153.0,0.25,127,122.0
2343,F#3,153.25,0.25,127,122.0
2344,B1,153.5,0.25,127,122.0
2345,F#3,153.5,0.25,127,122.0
2346,B1,153.75,0.75,127,122.0
2347,F#3,153.75,0.25,127,122.0
2348,E-3,154.0,1.0,127,122.0
2349,F#4,154.0,319/500,127,122.0
2350,E-4,154.0,319/500,127,122.0
2351,B3,154.0,319/500,127,122.0
2352,F#3,154.0,319/500,127,122.0
2353,B2,154.0,319/500,127,122.0
2354,F#3,154.0,0.25,127,122.0
2355,B1,154.0,0.25,127,122.0
2356,F#3,154.25,0.25,127,122.0
2357,C#2,154.5,1.0,127,122.0
2358,F#3,154.5,0.25,127,122.0
2359,F#3,154.75,0.25,127,122.0
2360,F#4,154.75,0.5,127,122.0
2361,E-4,154.75,0.5,127,122.0
2362,B3,154.75,0.5,127,122.0
2363,F#3,154.75,0.5,127,122.0
2364,B2,154.75,0.5,127,122.0
2365,E-3,155.0,1.0,127,122.0
2366,F#3,155.0,0.25,127,122.0
2367,D2,155.0,0.25,127,122.0
2368,B1,155.0,0.25,127,122.0
2369,F#3,155.25,0.25,127,122.0
2370,F#4,155.25,0.25,127,122.0
2371,E-4,155.25,0.25,127,122.0
2372,B3,155.25,0.25,127,122.0
2373,F#3,155.25,0.25,127,122.0
2374,B2,155.25,0.25,127,122.0
2375,B1,155.5,0.5,127,122.0
2376,F#3,155.5,0.25,127,122.0
2377,F#4,155.5,0.5,127,122.0
2378,E-4,155.5,0.5,127,122.0
2379,B3,155.5,0.5,127,122.0
2380,F#3,155.5,0.5,127,122.0
2381,B2,155.5,0.5,127,122.0
2382,F#3,155.75,0.25,127,122.0
2383,E-2,156.0,0.5,127,122.0
2384,F#5,156.0,4.0,127,122.0
2385,E-3,156.0,1.0,127,122.0
2386,F#4,156.0,1.5,127,122.0
2387,B-4,156.0,1.0,127,122.0
2388,F#4,156.0,1.0,127,122.0
2389,E-4,156.0,1.0,127,122.0
2390,B-3,156.0,0.5,127,122.0
2391,E-3,156.0,0.5,127,122.0
2392,F#3,156.0,0.25,127,122.0
2393,D2,156.0,0.25,127,122.0
2394,F#3,156.25,0.25,127,122.0
2395,B-3,156.5,0.5,127,122.0
2396,E-3,156.5,1.0,127,122.0
2397,B-1,156.5,0.5,127,122.0
2398,F#3,156.5,0.25,127,122.0
2399,B1,156.5,0.25,127,122.0
2400,F#3,156.75,0.25,127,122.0
2401,E-4,157.0,0.75,127,122.0
2402,E-3,157.0,0.5,127,122.0
2403,E-3,157.0,1.0,127,122.0
2404,B-4,157.0,0.5,127,122.0
2405,F#4,157.0,0.5,127,122.0
2406,B-3,157.0,0.5,127,122.0
2407,F#3,157.0,0.25,127,122.0
2408,D2,157.0,0.25,127,122.0
2409,F#3,157.25,0.25,127,122.0
2410,B-3,157.5,0.25,127,122.0
2411,E-3,157.5,0.75,127,122.0
2412,E-2,157.5,0.25,127,122.0
2413,F#3,157.5,0.25,127,122.0
2414,B1,157.5,0.25,127,122.0
2415,E-4,157.75,0.75,127,122.0
2416,E-3,157.75,0.5,127,122.0
2417,B-4,157.75,0.5,127,122.0
2418,F#4,157.75,0.5,127,122.0
2419,B-3,157.75,0.5,127,122.0
2420,F#3,157.75,0.25,127,122.0
2421,D2,157.75,0.25,127,122.0
2422,E-3,158.0,1.0,127,122.0
2423,F#3,158.0,0.25,127,122.0
2424,B-3,158.25,0.25,127,122.0
2425,E-3,158.25,1.25,127,122.0
2426,E-2,158.25,0.25,127,122.0
2427,F#3,158.25,0.25,127,122.0
2428,B1,158.25,0.25,127,122.0
2429,B-2,158.5,0.5,127,122.0
2430,E-4,158.5,0.5,127,122.0
2431,B-3,158.5,0.5,127,122.0
2432,F#3,158.5,0.25,127,122.0
2433,B1,158.5,0.25,127,122.0
2434,F#3,158.75,0.25,127,122.0
2435,G#2,159.0,0.5,127,122.0
2436,E-3,159.0,1.0,127,122.0
2437,E-4,159.0,0.5,127,122.0
2438,G#3,159.0,0.5,127,122.0
2439,F#3,159.0,0.25,127,122.0
2440,D2,159.0,0.25,127,122.0
2441,B1,159.0,0.25,127,122.0
2442,F#3,159.25,0.25,127,122.0
2443,F#2,159.5,0.5,127,122.0
2444,B-3,159.5,0.5,127,122.0
2445,F#3,159.5,0.5,127,122.0
2446,F#3,159.5,0.25,127,122.0
2447,D2,159.5,0.25,127,122.0
2448,B1,159.5,0.25,127,122.0
2449,F#3,159.75,0.25,127,122.0
2450,E-2,160.0,4/5,127,122.0
2451,E-5,160.0,4.0,127,122.0
2452,B-4,160.0,0.5,127,122.0
2453,B-4,160.0,0.75,127,122.0
2454,F#4,160.0,0.75,127,122.0
2455,E-4,160.0,0.75,127,122.0
2456,B-3,160.0,0.75,127,122.0
2457,E-3,160.0,0.75,127,122.0
2458,E-3,160.0,0.5,127,122.0
2459,F#3,160.0,0.5,127,122.0
2460,B1,160.0,0.5,127,122.0
2461,F#3,160.5,0.5,127,122.0
2462,B-4,160.5,0.5,127,122.0
2463,E-2,161.0,4/5,127,122.0
2464,B-4,161.0,0.5,127,122.0
2465,B-4,161.0,0.75,127,122.0
2466,F#4,161.0,0.75,127,122.0
2467,E-4,161.0,0.75,127,122.0
2468,B-3,161.0,0.75,127,122.0
2469,E-3,161.0,0.75,127,122.0
2470,F#3,161.0,0.5,127,122.0
2471,D2,161.0,0.5,127,122.0
2472,B-4,161.5,0.5,127,122.0
2473,F#3,161.5,0.25,127,122.0
2474,B1,161.5,0.25,127,122.0
2475,F#3,161.75,0.25,127,122.0
2476,B1,161.75,0.25,127,122.0
2477,E-2,162.0,3/5,127,122.0
2478,B-4,162.0,0.5,127,122.0
2479,B-4,162.0,319/500,127,122.0
2480,F#4,162.0,319/500,127,122.0
2481,E-4,162.0,319/500,127,122.0
2482,B-3,162.0,319/500,127,122.0
2483,E-3,162.0,319/500,127,122.0
2484,B-4,162.5,0.25,127,122.0
2485,F#3,162.5,0.5,127,122.0
2486,B1,162.5,0.5,127,122.0
2487,E-2,162.75,0.5,127,122.0
2488,B-4,162.75,0.75,127,122.0
2489,B-4,162.75,0.5,127,122.0
2490,F#4,162.75,0.5,127,122.0
2491,E-4,162.75,0.5,127,122.0
2492,B-3,162.75,0.5,127,122.0
2493,E-3,162.75,0.5,127,122.0
2494,F#3,163.0,0.5,127,122.0
2495,D2,163.0,0.5,127,122.0
2496,B1,163.25,0.25,127,122.0
2497,B-4,163.25,0.25,127,122.0
2498,F#4,163.25,0.25,127,122.0
2499,E-4,163.25,0.25,127,122.0
2500,B3,163.25,0.25,127,122.0
2501,E-3,163.25,0.25,127,122.0
2502,E-2,163.5,0.5,127,122.0
2503,E-4,163.5,0.5,127,122.0
2504,B-4,163.5,0.5,127,122.0
2505,F#4,163.5,0.5,127,122.0
2506,E-4,163.5,0.5,127,122.0
2507,B-3,163.5,0.5,127,122.0
2508,E-3,163.5,0.5,127,122.0
2509,F#3,163.5,0.5,127,122.0
2510,B1,163.5,0.5,127,122.0
2511,G#2,164.0,4/5,127,122.0
2512,E-5,164.0,4.0,127,122.0
2513,F#4,164.0,0.25,127,122.0
2514,E-4,164.0,0.75,127,122.0
2515,C4,164.0,0.75,127,122.0
2516,G#3,164.0,0.75,127,122.0
2517,E-3,164.0,0.75,127,122.0
2518,G#2,164.0,0.75,127,122.0
2519,F#3,164.0,0.5,127,122.0
2520,B1,164.0,0.5,127,122.0
2521,G#4,164.25,0.5,127,122.0
2522,F#3,164.5,0.5,127,122.0
2523,G#4,164.75,0.75,127,122.0
2524,G#2,165.0,4/5,127,122.0
2525,E-4,165.0,0.75,127,122.0
2526,C4,165.0,0.75,127,122.0
2527,G#3,165.0,0.75,127,122.0
2528,E-3,165.0,0.75,127,122.0
2529,G#2,165.0,0.75,127,122.0
2530,F#3,165.0,0.5,127,122.0
2531,D2,165.0,0.5,127,122.0
2532,E-4,165.5,0.5,127,122.0
2533,F#3,165.5,0.25,127,122.0
2534,B1,165.5,0.25,127,122.0
2535,F#3,165.75,0.25,127,122.0
2536,B1,165.75,0.25,127,122.0
2537,G#2,166.0,3/5,127,122.0
2538,F#4,166.0,0.5,127,122.0
2539,E-4,166.0,319/500,127,122.0
2540,C4,166.0,319/500,127,122.0
2541,G#3,166.0,319/500,127,122.0
2542,E-3,166.0,319/500,127,122.0
2543,G#2,166.0,319/500,127,122.0
2544,F#4,166.5,0.25,127,122.0
2545,F#3,166.5,0.5,127,122.0
2546,B1,166.5,0.5,127,122.0
2547,G#2,166.75,0.5,127,122.0
2548,G#4,166.75,0.75,127,122.0
2549,E-4,166.75,0.5,127,122.0
2550,C4,166.75,0.5,127,122.0
2551,G#3,166.75,0.5,127,122.0
2552,E-3,166.75,0.5,127,122.0
2553,G#2,166.75,0.5,127,122.0
2554,F#3,167.0,0.5,127,122.0
2555,D2,167.0,0.5,127,122.0
2556,G#2,167.25,0.25,127,122.0
2557,E-4,167.25,0.25,127,122.0
2558,C4,167.25,0.25,127,122.0
2559,G#3,167.25,0.25,127,122.0
2560,E-3,167.25,0.25,127,122.0
2561,E2,167.25,0.25,127,122.0
2562,B-2,167.5,0.5,127,122.0
2563,E-4,167.5,0.5,127,122.0
2564,E-4,167.5,0.5,127,122.0
2565,C4,167.5,0.5,127,122.0
2566,G#3,167.5,0.5,127,122.0
2567,E-3,167.5,0.5,127,122.0
2568,G#2,167.5,0.5,127,122.0
2569,F#3,167.5,0.5,127,122.0
2570,B1,167.5,0.5,127,122.0
2571,B2,168.0,4/5,127,122.0
2572,E-5,168.0,4.0,127,122.0
2573,B-4,168.0,0.25,127,122.0
2574,F#4,168.0,0.75,127,122.0
2575,E-4,168.0,0.75,127,122.0
2576,B3,168.0,0.75,127,122.0
2577,F#3,168.0,0.75,127,122.0
2578,B2,168.0,0.75,127,122.0
2579,F#3,168.0,0.5,127,122.0
2580,B1,168.0,0.5,127,122.0
2581,B-4,168.25,0.5,127,122.0
2582,F#3,168.5,0.5,127,122.0
2583,B-4,168.75,0.5,127,122.0
2584,B2,169.0,4/5,127,122.0
2585,F#4,169.0,0.75,127,122.0
2586,E-4,169.0,0.75,127,122.0
2587,B3,169.0,0.75,127,122.0
2588,F#3,169.0,0.75,127,122.0
2589,B2,169.0,0.75,127,122.0
2590,F#3,169.0,0.5,127,122.0
2591,D2,169.0,0.5,127,122.0
2592,B-4,169.25,0.5,127,122.0
2593,F#3,169.5,0.25,127,122.0
2594,B1,169.5,0.25,127,122.0
2595,B-4,169.75,0.75,127,122.0
2596,F#3,169.75,0.25,127,122.0
2597,B1,169.75,0.25,127,122.0
2598,B2,170.0,3/5,127,122.0
2599,F#4,170.0,319/500,127,122.0
2600,E-4,170.0,319/500,127,122.0
2601,B3,170.0,319/500,127,122.0
2602,F#3,170.0,319/500,127,122.0
2603,B2,170.0,319/500,127,122.0
2604,B-4,170.5,0.25,127,122.0
2605,F#3,170.5,0.5,127,122.0
2606,B1,170.5,0.5,127,122.0
2607,B2,170.75,0.5,127,122.0
2608,B-4,170.75,0.75,127,122.0
2609,F#4,170.75,0.5,127,122.0
2610,E-4,170.75,0.5,127,122.0
2611,B3,170.75,0.5,127,122.0
2612,F#3,170.75,0.5,127,122.0
2613,B2,170.75,0.5,127,122.0
2614,F#3,171.0,0.5,127,122.0
2615,D2,171.0,0.5,127,122.0
2616,B2,171.25,0.25,127,122.0
2617,F#4,171.25,0.25,127,122.0
2618,E-4,171.25,0.25,127,122.0
2619,B3,171.25,0.25,127,122.0
2620,F#3,171.25,0.25,127,122.0
2621,B2,171.25,0.25,127,122.0
2622,C#3,171.5,0.5,127,122.0
2623,G#4,171.5,0.5,127,122.0
2624,F#4,171.5,0.5,127,122.0
2625,E-4,171.5,0.5,127,122.0
2626,B3,171.5,0.5,127,122.0
2627,F#3,171.5,0.5,127,122.0
2628,B2,171.5,0.5,127,122.0
2629,F#3,171.5,0.5,127,122.0
2630,B1,171.5,0.5,127,122.0
2631,E-2,172.0,4/5,127,122.0
2632,E-5,172.0,4.0,127,122.0
2633,F#4,172.0,1.0,127,122.0
2634,B-4,172.0,0.75,127,122.0
2635,F#4,172.0,0.75,127,122.0
2636,E-4,172.0,0.75,127,122.0
2637,B-3,172.0,0.75,127,122.0
2638,E-3,172.0,0.75,127,122.0
2639,F#3,172.0,0.5,127,122.0
2640,B1,172.0,0.5,127,122.0
2641,F#3,172.5,0.5,127,122.0
2642,E-2,173.0,4/5,127,122.0
2643,B-4,173.0,0.75,127,122.0
2644,F#4,173.0,0.75,127,122.0
2645,E-4,173.0,0.75,127,122.0
2646,B-3,173.0,0.75,127,122.0
2647,E-3,173.0,0.75,127,122.0
2648,F#3,173.0,0.5,127,122.0
2649,D2,173.0,0.5,127,122.0
2650,F#3,173.5,0.25,127,122.0
2651,B1,173.5,0.25,127,122.0
2652,F#3,173.75,0.25,127,122.0
2653,B1,173.75,0.25,127,122.0
2654,E-2,174.0,3/5,127,122.0
2655,B-4,174.0,319/500,127,122.0
2656,F#4,174.0,319/500,127,122.0
2657,E-4,174.0,319/500,127,122.0
2658,B-3,174.0,319/500,127,122.0
2659,E-3,174.0,319/500,127,122.0
2660,F#3,174.5,0.5,127,122.0
2661,B1,174.5,0.5,127,122.0
2662,E-2,174.75,0.5,127,122.0
2663,B-4,174.75,0.5,127,122.0
2664,F#4,174.75,0.5,127,122.0
2665,E-4,174.75,0.5,127,122.0
2666,B-3,174.75,0.5,127,122.0
2667,E-3,174.75,0.5,127,122.0
2668,F#3,175.0,0.5,127,122.0
2669,D2,175.0,0.5,127,122.0
2670,E-2,175.25,0.25,127,122.0
2671,B-4,175.25,0.25,127,122.0
2672,F#4,175.25,0.25,127,122.0
2673,E-4,175.25,0.25,127,122.0
2674,B3,175.25,0.25,127,122.0
2675,E-3,175.25,0.25,127,122.0
2676,C#2,175.5,0.5,127,122.0
2677,E-4,175.5,0.25,127,122.0
2678,B-4,175.5,0.5,127,122.0
2679,F#4,175.5,0.5,127,122.0
2680,E-4,175.5,0.5,127,122.0
2681,B-3,175.5,0.5,127,122.0
2682,E-3,175.5,0.5,127,122.0
2683,F#3,175.5,0.5,127,122.0
2684,B1,175.5,0.5,127,122.0
2685,B-4,175.75,0.25,127,122.0
2686,E-2,176.0,4/5,127,122.0
2687,E-5,176.0,4.0,127,122.0
2688,B-4,176.0,0.5,127,122.0
2689,B-4,176.0,0.75,127,122.0
2690,F#4,176.0,0.75,127,122.0
2691,E-4,176.0,0.75,127,122.0
2692,B-3,176.0,0.75,127,122.0
2693,E-3,176.0,0.75,127,122.0
2694,F#3,176.0,0.5,127,122.0
2695,B1,176.0,0.5,127,122.0
2696,F#3,176.5,0.5,127,122.0
2697,B-4,176.5,0.5,127,122.0
2698,E-2,177.0,4/5,127,122.0
2699,B-4,177.0,0.5,127,122.0
2700,B-4,177.0,0.75,127,122.0
2701,F#4,177.0,0.75,127,122.0
2702,E-4,177.0,0.75,127,122.0
2703,B-3,177.0,0.75,127,122.0
2704,E-3,177.0,0.75,127,122.0
2705,F#3,177.0,0.5,127,122.0
2706,D2,177.0,0.5,127,122.0
2707,B-4,177.5,0.5,127,122.0
2708,F#3,177.5,0.25,127,122.0
2709,B1,177.5,0.25,127,122.0
2710,F#3,177.75,0.25,127,122.0
2711,B1,177.75,0.25,127,122.0
2712,E-2,178.0,3/5,127,122.0
2713,B-4,178.0,0.5,127,122.0
2714,B-4,178.0,319/500,127,122.0
2715,F#4,178.0,319/500,127,122.0
2716,E-4,178.0,319/500,127,122.0
2717,B-3,178.0,319/500,127,122.0
2718,E-3,178.0,319/500,127,122.0
2719,B-4,178.5,0.25,127,122.0
2720,F#3,178.5,0.5,127,122.0
2721,B1,178.5,0.5,127,122.0
2722,E-2,178.75,0.5,127,122.0
2723,B-4,178.75,0.75,127,122.0
2724,B-4,178.75,0.5,127,122.0
2725,F#4,178.75,0.5,127,122.0
2726,E-4,178.75,0.5,127,122.0
2727,B-3,178.75,0.5,127,122.0
2728,E-3,178.75,0.5,127,122.0
2729,F#3,179.0,0.5,127,122.0
2730,D2,179.0,0.5,127,122.0
2731,B1,179.25,0.25,127,122.0
2732,B-4,179.25,0.25,127,122.0
2733,F#4,179.25,0.25,127,122.0
2734,E-4,179.25,0.25,127,122.0
2735,B3,179.25,0.25,127,122.0
2736,E-3,179.25,0.25,127,122.0
2737,E-2,179.5,0.5,127,122.0
2738,E-4,179.5,0.5,127,122.0
2739,B-4,179.5,0.5,127,122.0
2740,F#4,179.5,0.5,127,122.0
2741,E-4,179.5,0.5,127,122.0
2742,B-3,179.5,0.5,127,122.0
2743,E-3,179.5,0.5,127,122.0
2744,F#3,179.5,0.5,127,122.0
2745,B1,179.5,0.5,127,122.0
2746,G#2,180.0,4/5,127,122.0
2747,E-5,180.0,4.0,127,122.0
2748,F#4,180.0,0.5,127,122.0
2749,E-4,180.0,0.75,127,122.0
2750,C4,180.0,0.75,127,122.0
2751,G#3,180.0,0.75,127,122.0
2752,E-3,180.0,0.75,127,122.0
2753,G#2,180.0,0.75,127,122.0
2754,F#3,180.0,0.5,127,122.0
2755,B1,180.0,0.5,127,122.0
2756,F#3,180.5,0.5,127,122.0
2757,G#4,180.5,0.25,127,122.0
2758,G#4,180.75,0.75,127,122.0
2759,G#2,181.0,4/5,127,122.0
2760,E-4,181.0,0.75,127,122.0
2761,C4,181.0,0.75,127,122.0
2762,G#3,181.0,0.75,127,122.0
2763,E-3,181.0,0.75,127,122.0
2764,G#2,181.0,0.75,127,122.0
2765,F#3,181.0,0.5,127,122.0
2766,D2,181.0,0.5,127,122.0
2767,E-4,181.5,0.5,127,122.0
2768,F#3,181.5,0.25,127,122.0
2769,B1,181.5,0.25,127,122.0
2770,F#3,181.75,0.25,127,122.0
2771,B1,181.75,0.25,127,122.0
2772,G#2,182.0,3/5,127,122.0
2773,G#4,182.0,0.5,127,122.0
2774,E-4,182.0,319/500,127,122.0
2775,C4,182.0,319/500,127,122.0
2776,G#3,182.0,319/500,127,122.0
2777,E-3,182.0,319/500,127,122.0
2778,G#2,182.0,319/500,127,122.0
2779,G#4,182.5,0.25,127,122.0
2780,F#3,182.5,0.5,127,122.0
2781,B1,182.5,0.5,127,122.0
2782,G#2,182.75,0.5,127,122.0
2783,G#4,182.75,0.75,127,122.0
2784,E-4,182.75,0.5,127,122.0
2785,C4,182.75,0.5,127,122.0
2786,G#3,182.75,0.5,127,122.0
2787,E-3,182.75,0.5,127,122.0
2788,G#2,182.75,0.5,127,122.0
2789,F#3,183.0,0.5,127,122.0
2790,D2,183.0,0.5,127,122.0
2791,G#2,183.25,0.25,127,122.0
2792,E-4,183.25,0.25,127,122.0
2793,C4,183.25,0.25,127,122.0
2794,G#3,183.25,0.25,127,122.0
2795,E-3,183.25,0.25,127,122.0
2796,E2,183.25,0.25,127,122.0
2797,B-2,183.5,0.5,127,122.0
2798,E-4,183.5,0.5,127,122.0
2799,E-4,183.5,0.5,127,122.0
2800,C4,183.5,0.5,127,122.0
2801,G#3,183.5,0.5,127,122.0
2802,E-3,183.5,0.5,127,122.0
2803,G#2,183.5,0.5,127,122.0
2804,F#3,183.5,0.5,127,122.0
2805,B1,183.5,0.5,127,122.0
2806,B2,184.0,4/5,127,122.0
2807,E-5,184.0,4.0,127,122.0
2808,B-4,184.0,0.5,127,122.0
2809,F#4,184.0,0.75,127,122.0
2810,E-4,184.0,0.75,127,122.0
2811,B3,184.0,0.75,127,122.0
2812,F#3,184.0,0.75,127,122.0
2813,B2,184.0,0.75,127,122.0
2814,F#3,184.0,0.5,127,122.0
2815,B1,184.0,0.5,127,122.0
2816,F#3,184.5,0.5,127,122.0
2817,B-4,184.5,0.25,127,122.0
2818,B-4,184.75,0.75,127,122.0
2819,B2,185.0,4/5,127,122.0
2820,F#4,185.0,0.75,127,122.0
2821,E-4,185.0,0.75,127,122.0
2822,B3,185.0,0.75,127,122.0
2823,F#3,185.0,0.75,127,122.0
2824,B2,185.0,0.75,127,122.0
2825,F#3,185.0,0.5,127,122.0
2826,D2,185.0,0.5,127,122.0
2827,B-4,185.5,0.5,127,122.0
2828,F#3,185.5,0.25,127,122.0
2829,B1,185.5,0.25,127,122.0
2830,F#3,185.75,0.25,127,122.0
2831,B1,185.75,0.25,127,122.0
2832,B2,186.0,3/5,127,122.0
2833,B-4,186.0,0.5,127,122.0
2834,F#4,186.0,319/500,127,122.0
2835,E-4,186.0,319/500,127,122.0
2836,B3,186.0,319/500,127,122.0
2837,F#3,186.0,319/500,127,122.0
2838,B2,186.0,319/500,127,122.0
2839,B-4,186.5,0.5,127,122.0
2840,F#3,186.5,0.5,127,122.0
2841,B1,186.5,0.5,127,122.0
2842,B2,186.75,0.5,127,122.0
2843,F#4,186.75,0.5,127,122.0
2844,E-4,186.75,0.5,127,122.0
2845,B3,186.75,0.5,127,122.0
2846,F#3,186.75,0.5,127,122.0
2847,B2,186.75,0.5,127,122.0
2848,B-4,187.0,0.25,127,122.0
2849,F#3,187.0,0.5,127,122.0
2850,D2,187.0,0.5,127,122.0
2851,B2,187.25,0.25,127,122.0
2852,G#4,187.25,0.5,127,122.0
2853,F#4,187.25,0.25,127,122.0
2854,E-4,187.25,0.25,127,122.0
2855,B3,187.25,0.25,127,122.0
2856,F#3,187.25,0.25,127,122.0
2857,B2,187.25,0.25,127,122.0
2858,C#3,187.5,0.5,127,122.0
2859,F#4,187.5,0.5,127,122.0
2860,E-4,187.5,0.5,127,122.0
2861,B3,187.5,0.5,127,122.0
2862,F#3,187.5,0.5,127,122.0
2863,B2,187.5,0.5,127,122.0
2864,F#3,187.5,0.5,127,122.0
2865,B1,187.5,0.5,127,122.0
2866,F#4,187.75,0.25,127,122.0
2867,E-2,188.0,4/5,127,122.0
2868,E-5,188.0,4.0,127,122.0
2869,F#4,188.0,0.5,127,122.0
2870,B-4,188.0,0.75,127,122.0
2871,F#4,188.0,0.75,127,122.0
2872,E-4,188.0,0.75,127,122.0
2873,B-3,188.0,0.75,127,122.0
2874,E-3,188.0,0.75,127,122.0
2875,F#3,188.0,0.5,127,122.0
2876,B1,188.0,0.5,127,122.0
2877,F#3,188.5,0.5,127,122.0
2878,E-2,189.0,4/5,127,122.0
2879,B-4,189.0,0.75,127,122.0
2880,F#4,189.0,0.75,127,122.0
2881,E-4,189.0,0.75,127,122.0
2882,B-3,189.0,0.75,127,122.0
2883,E-3,189.0,0.75,127,122.0
2884,F#3,189.0,0.5,127,122.0
2885,D2,189.0,0.5,127,122.0
2886,F#3,189.5,0.25,127,122.0
2887,B1,189.5,0.25,127,122.0
2888,F#3,189.75,0.25,127,122.0
2889,B1,189.75,0.25,127,122.0
2890,E-2,190.0,3/5,127,122.0
2891,B-4,190.0,319/500,127,122.0
2892,F#4,190.0,319/500,127,122.0
2893,E-4,190.0,319/500,127,122.0
2894,B-3,190.0,319/500,127,122.0
2895,E-3,190.0,319/500,127,122.0
2896,F#3,190.5,0.5,127,122.0
2897,B1,190.5,0.5,127,122.0
2898,E-2,190.75,0.5,127,122.0
2899,B-4,190.75,0.5,127,122.0
2900,F#4,190.75,0.5,127,122.0
2901,E-4,190.75,0.5,127,122.0
2902,B-3,190.75,0.5,127,122.0
2903,E-3,190.75,0.5,127,122.0
2904,F#3,191.0,0.5,127,122.0
2905,D2,191.0,0.5,127,122.0
2906,E-2,191.25,0.25,127,122.0
2907,B-4,191.25,0.25,127,122.0
2908,F#4,191.25,0.25,127,122.0
2909,E-4,191.25,0.25,127,122.0
2910,B3,191.25,0.25,127,122.0
2911,E-3,191.25,0.25,127,122.0
2912,C#2,191.5,0.5,127,122.0
2913,B-4,191.5,0.5,127,122.0
2914,F#4,191.5,0.5,127,122.0
2915,E-4,191.5,0.5,127,122.0
2916,B-3,191.5,0.5,127,122.0
2917,E-3,191.5,0.5,127,122.0
2918,F#3,191.5,0.5,127,122.0
2919,B1,191.5,0.5,127,122.0
2920,E-2,192.0,4/5,127,122.0
2921,E-5,192.0,4.0,127,122.0
2922,B-4,192.0,0.5,127,122.0
2923,B-4,192.0,0.75,127,122.0
2924,F#4,192.0,0.75,127,122.0
2925,E-4,192.0,0.75,127,122.0
2926,B-3,192.0,0.75,127,122.0
2927,E-3,192.0,0.75,127,122.0
2928,F#3,192.0,0.5,127,122.0
2929,B1,192.0,0.5,127,122.0
2930,F#3,192.5,0.5,127,122.0
2931,B-4,192.5,0.5,127,122.0
2932,E-2,193.0,4/5,127,122.0
2933,B-4,193.0,0.5,127,122.0
2934,B-4,193.0,0.75,127,122.0
2935,F#4,193.0,0.75,127,122.0
2936,E-4,193.0,0.75,127,122.0
2937,B-3,193.0,0.75,127,122.0
2938,E-3,193.0,0.75,127,122.0
2939,F#3,193.0,0.5,127,122.0
2940,D2,193.0,0.5,127,122.0
2941,B-4,193.5,0.5,127,122.0
2942,F#3,193.5,0.25,127,122.0
2943,B1,193.5,0.25,127,122.0
2944,F#3,193.75,0.25,127,122.0
2945,B1,193.75,0.25,127,122.0
2946,E-2,194.0,3/5,127,122.0
2947,B-4,194.0,0.5,127,122.0
2948,B-4,194.0,319/500,127,122.0
2949,F#4,194.0,319/500,127,122.0
2950,E-4,194.0,319/500,127,122.0
2951,B-3,194.0,319/500,127,122.0
2952,E-3,194.0,319/500,127,122.0
2953,B-4,194.5,0.25,127,122.0
2954,F#3,194.5,0.5,127,122.0
2955,B1,194.5,0.5,127,122.0
2956,E-2,194.75,0.5,127,122.0
2957,B-4,194.75,0.75,127,122.0
2958,B-4,194.75,0.5,127,122.0
2959,F#4,194.75,0.5,127,122.0
2960,E-4,194.75,0.5,127,122.0
2961,B-3,194.75,0.5,127,122.0
2962,E-3,194.75,0.5,127,122.0
2963,F#3,195.0,0.5,127,122.0
2964,D2,195.0,0.5,127,122.0
2965,B1,195.25,0.25,127,122.0
2966,B-4,195.25,0.25,127,122.0
2967,F#4,195.25,0.25,127,122.0
2968,E-4,195.25,0.25,127,122.0
2969,B3,195.25,0.25,127,122.0
2970,E-3,195.25,0.25,127,122.0
2971,E-2,195.5,0.5,127,122.0
2972,E-4,195.5,0.5,127,122.0
2973,B-4,195.5,0.5,127,122.0
2974,F#4,195.5,0.5,127,122.0
2975,E-4,195.5,0.5,127,122.0
2976,B-3,195.5,0.5,127,122.0
2977,E-3,195.5,0.5,127,122.0
2978,F#3,195.5,0.5,127,122.0
2979,B1,195.5,0.5,127,122.0
2980,G#2,196.0,4/5,127,122.0
2981,E-5,196.0,4.0,127,122.0
2982,F#4,196.0,0.5,127,122.0
2983,E-4,196.0,0.75,127,122.0
2984,C4,196.0,0.75,127,122.0
2985,G#3,196.0,0.75,127,122.0
2986,E-3,196.0,0.75,127,122.0
2987,G#2,196.0,0.75,127,122.0
2988,F#3,196.0,0.5,127,122.0
2989,B1,196.0,0.5,127,122.0
2990,F#3,196.5,0.5,127,122.0
2991,F#4,196.5,0.25,127,122.0
2992,G#4,196.75,0.75,127,122.0
2993,G#2,197.0,4/5,127,122.0
2994,E-4,197.0,0.75,127,122.0
2995,C4,197.0,0.75,127,122.0
2996,G#3,197.0,0.75,127,122.0
2997,E-3,197.0,0.75,127,122.0
2998,G#2,197.0,0.75,127,122.0
2999,F#3,197.0,0.5,127,122.0
3000,D2,197.0,0.5,127,122.0
3001,E-4,197.5,0.5,127,122.0
3002,F#3,197.5,0.25,127,122.0
3003,B1,197.5,0.25,127,122.0
3004,F#3,197.75,0.25,127,122.0
3005,B1,197.75,0.25,127,122.0
3006,G#2,198.0,3/5,127,122.0
3007,F#4,198.0,0.5,127,122.0
3008,E-4,198.0,319/500,127,122.0
3009,C4,198.0,319/500,127,122.0
3010,G#3,198.0,319/500,127,122.0
3011,E-3,198.0,319/500,127,122.0
3012,G#2,198.0,319/500,127,122.0
3013,F#4,198.5,0.25,127,122.0
3014,F#3,198.5,0.5,127,122.0
3015,B1,198.5,0.5,127,122.0
3016,G#2,198.75,0.5,127,122.0
3017,G#4,198.75,0.75,127,122.0
3018,E-4,198.75,0.5,127,122.0
3019,C4,198.75,0.5,127,122.0
3020,G#3,198.75,0.5,127,122.0
3021,E-3,198.75,0.5,127,122.0
3022,G#2,198.75,0.5,127,122.0
3023,F#3,199.0,0.5,127,122.0
3024,D2,199.0,0.5,127,122.0
3025,G#2,199.25,0.25,127,122.0
3026,E-4,199.25,0.25,127,122.0
3027,C4,199.25,0.25,127,122.0
3028,G#3,199.25,0.25,127,122.0
3029,E-3,199.25,0.25,127,122.0
3030,E2,199.25,0.25,127,122.0
3031,B-2,199.5,0.5,127,122.0
3032,E-4,199.5,0.5,127,122.0
3033,E-4,199.5,0.5,127,122.0
3034,C4,199.5,0.5,127,122.0
3035,G#3,199.5,0.5,127,122.0
3036,E-3,199.5,0.5,127,122.0
3037,G#2,199.5,0.5,127,122.0
3038,F#3,199.5,0.5,127,122.0
3039,B1,199.5,0.5,127,122.0
3040,B2,200.0,4/5,127,122.0
3041,E-5,200.0,4.0,127,122.0
3042,B-4,200.0,0.5,127,122.0
3043,F#4,200.0,0.75,127,122.0
3044,E-4,200.0,0.75,127,122.0
3045,B3,200.0,0.75,127,122.0
3046,F#3,200.0,0.75,127,122.0
3047,B2,200.0,0.75,127,122.0
3048,F#3,200.0,0.5,127,122.0
3049,B1,200.0,0.5,127,122.0
3050,F#3,200.5,0.5,127,122.0
3051,B-4,200.5,0.5,127,122.0
3052,B2,201.0,4/5,127,122.0
3053,B-4,201.0,0.5,127,122.0
3054,F#4,201.0,0.75,127,122.0
3055,E-4,201.0,0.75,127,122.0
3056,B3,201.0,0.75,127,122.0
3057,F#3,201.0,0.75,127,122.0
3058,B2,201.0,0.75,127,122.0
3059,F#3,201.0,0.5,127,122.0
3060,D2,201.0,0.5,127,122.0
3061,B-4,201.5,0.25,127,122.0
3062,F#3,201.5,0.25,127,122.0
3063,B1,201.5,0.25,127,122.0
3064,B-4,201.75,0.75,127,122.0
3065,F#3,201.75,0.25,127,122.0
3066,B1,201.75,0.25,127,122.0
3067,B2,202.0,3/5,127,122.0
3068,F#4,202.0,319/500,127,122.0
3069,E-4,202.0,319/500,127,122.0
3070,B3,202.0,319/500,127,122.0
3071,F#3,202.0,319/500,127,122.0
3072,B2,202.0,319/500,127,122.0
3073,E-4,202.5,0.5,127,122.0
3074,F#3,202.5,0.5,127,122.0
3075,B1,202.5,0.5,127,122.0
3076,B2,202.75,0.5,127,122.0
3077,F#4,202.75,0.5,127,122.0
3078,E-4,202.75,0.5,127,122.0
3079,B3,202.75,0.5,127,122.0
3080,F#3,202.75,0.5,127,122.0
3081,B2,202.75,0.5,127,122.0
3082,B-4,203.0,0.25,127,122.0
3083,F#3,203.0,0.5,127,122.0
3084,D2,203.0,0.5,127,122.0
3085,B2,203.25,0.25,127,122.0
3086,G#4,203.25,0.5,127,122.0
3087,F#4,203.25,0.25,127,122.0
3088,E-4,203.25,0.25,127,122.0
3089,B3,203.25,0.25,127,122.0
3090,F#3,203.25,0.25,127,122.0
3091,B2,203.25,0.25,127,122.0
3092,C#3,203.5,0.5,127,122.0
3093,F#4,203.5,0.5,127,122.0
3094,E-4,203.5,0.5,127,122.0
3095,B3,203.5,0.5,127,122.0
3096,F#3,203.5,0.5,127,122.0
3097,B2,203.5,0.5,127,122.0
3098,F#3,203.5,0.5,127,122.0
3099,B1,203.5,0.5,127,122.0
3100,F#4,203.75,0.25,127,122.0
3101,E-2,204.0,4/5,127,122.0
3102,E-5,204.0,4.0,127,122.0
3103,F#4,204.0,1.0,127,122.0
3104,B-4,204.0,0.75,127,122.0
3105,F#4,204.0,0.75,127,122.0
3106,E-4,204.0,0.75,127,122.0
3107,B-3,204.0,0.75,127,122.0
3108,E-3,204.0,0.75,127,122.0
3109,F#3,204.0,0.5,127,122.0
3110,B1,204.0,0.5,127,122.0
3111,F#3,204.5,0.5,127,122.0
3112,E-2,205.0,4/5,127,122.0
3113,B-4,205.0,0.75,127,122.0
3114,F#4,205.0,0.75,127,122.0
3115,E-4,205.0,0.75,127,122.0
3116,B-3,205.0,0.75,127,122.0
3117,E-3,205.0,0.75,127,122.0
3118,F#3,205.0,0.5,127,122.0
3119,D2,205.0,0.5,127,122.0
3120,F#3,205.5,0.25,127,122.0
3121,B1,205.5,0.25,127,122.0
3122,F#3,205.75,0.25,127,122.0
3123,B1,205.75,0.25,127,122.0
3124,E-2,206.0,3/5,127,122.0
3125,B-4,206.0,319/500,127,122.0
3126,F#4,206.0,319/500,127,122.0
3127,E-4,206.0,319/500,127,122.0
3128,B-3,206.0,319/500,127,122.0
3129,E-3,206.0,319/500,127,122.0
3130,F#3,206.5,0.5,127,122.0
3131,B1,206.5,0.5,127,122.0
3132,E-2,206.75,0.5,127,122.0
3133,B-4,206.75,0.5,127,122.0
3134,F#4,206.75,0.5,127,122.0
3135,E-4,206.75,0.5,127,122.0
3136,B-3,206.75,0.5,127,122.0
3137,E-3,206.75,0.5,127,122.0
3138,F#3,207.0,0.5,127,122.0
3139,D2,207.0,0.5,127,122.0
3140,E-2,207.25,0.25,127,122.0
3141,B-4,207.25,0.25,127,122.0
3142,F#4,207.25,0.25,127,122.0
3143,E-4,207.25,0.25,127,122.0
3144,B3,207.25,0.25,127,122.0
3145,E-3,207.25,0.25,127,122.0
3146,C#2,207.5,0.5,127,122.0
3147,B-4,207.5,0.5,127,122.0
3148,F#4,207.5,0.5,127,122.0
3149,E-4,207.5,0.5,127,122.0
3150,B-3,207.5,0.5,127,122.0
3151,E-3,207.5,0.5,127,122.0
3152,F#3,207.5,0.5,127,122.0
3153,B1,207.5,0.5,127,122.0
3154,E-2,208.0,4/5,127,122.0
3155,E-5,208.0,4.0,127,122.0
3156,B-4,208.0,0.5,127,122.0
3157,B-4,208.0,0.75,127,122.0
3158,F#4,208.0,0.75,127,122.0
3159,E-4,208.0,0.75,127,122.0
3160,B-3,208.0,0.75,127,122.0
3161,E-3,208.0,0.75,127,122.0
3162,F#3,208.0,0.5,127,122.0
3163,B1,208.0,0.5,127,122.0
3164,F#3,208.5,0.5,127,122.0
3165,B-4,208.5,0.5,127,122.0
3166,E-2,209.0,4/5,127,122.0
3167,B-4,209.0,0.5,127,122.0
3168,B-4,209.0,0.75,127,122.0
3169,F#4,209.0,0.75,127,122.0
3170,E-4,209.0,0.75,127,122.0
3171,B-3,209.0,0.75,127,122.0
3172,E-3,209.0,0.75,127,122.0
3173,F#3,209.0,0.5,127,122.0
3174,D2,209.0,0.5,127,122.0
3175,B-4,209.5,0.5,127,122.0
3176,F#3,209.5,0.25,127,122.0
3177,B1,209.5,0.25,127,122.0
3178,F#3,209.75,0.25,127,122.0
3179,B1,209.75,0.25,127,122.0
3180,E-2,210.0,3/5,127,122.0
3181,B-4,210.0,0.5,127,122.0
3182,B-4,210.0,319/500,127,122.0
3183,F#4,210.0,319/500,127,122.0
3184,E-4,210.0,319/500,127,122.0
3185,B-3,210.0,319/500,127,122.0
3186,E-3,210.0,319/500,127,122.0
3187,B-4,210.5,0.25,127,122.0
3188,F#3,210.5,0.5,127,122.0
3189,B1,210.5,0.5,127,122.0
3190,E-2,210.75,0.5,127,122.0
3191,B-4,210.75,0.75,127,122.0
3192,B-4,210.75,0.5,127,122.0
3193,F#4,210.75,0.5,127,122.0
3194,E-4,210.75,0.5,127,122.0
3195,B-3,210.75,0.5,127,122.0
3196,E-3,210.75,0.5,127,122.0
3197,F#3,211.0,0.5,127,122.0
3198,D2,211.0,0.5,127,122.0
3199,B1,211.25,0.25,127,122.0
3200,B-4,211.25,0.25,127,122.0
3201,F#4,211.25,0.25,127,122.0
3202,E-4,211.25,0.25,127,122.0
3203,B3,211.25,0.25,127,122.0
3204,E-3,211.25,0.25,127,122.0
3205,E-2,211.5,0.5,127,122.0
3206,G#4,211.5,0.5,127,122.0
3207,B-4,211.5,0.5,127,122.0
3208,F#4,211.5,0.5,127,122.0
3209,E-4,211.5,0.5,127,122.0
3210,B-3,211.5,0.5,127,122.0
3211,E-3,211.5,0.5,127,122.0
3212,F#3,211.5,0.5,127,122.0
3213,B1,211.5,0.5,127,122.0
3214,G#2,212.0,4/5,127,122.0
3215,E-5,212.0,4.0,127,122.0
3216,G#4,212.0,0.25,127,122.0
3217,E-4,212.0,0.75,127,122.0
3218,C4,212.0,0.75,127,122.0
3219,G#3,212.0,0.75,127,122.0
3220,E-3,212.0,0.75,127,122.0
3221,G#2,212.0,0.75,127,122.0
3222,F#3,212.0,0.5,127,122.0
3223,B1,212.0,0.5,127,122.0
3224,G#4,212.25,0.5,127,122.0
3225,F#3,212.5,0.5,127,122.0
3226,G#4,212.75,0.5,127,122.0
3227,G#2,213.0,4/5,127,122.0
3228,E-4,213.0,0.75,127,122.0
3229,C4,213.0,0.75,127,122.0
3230,G#3,213.0,0.75,127,122.0
3231,E-3,213.0,0.75,127,122.0
3232,G#2,213.0,0.75,127,122.0
3233,F#3,213.0,0.5,127,122.0
3234,D2,213.0,0.5,127,122.0
3235,B-4,213.25,0.75,127,122.0
3236,F#3,213.5,0.25,127,122.0
3237,B1,213.5,0.25,127,122.0
3238,F#3,213.75,0.25,127,122.0
3239,B1,213.75,0.25,127,122.0
3240,G#2,214.0,3/5,127,122.0
3241,F#4,214.0,0.5,127,122.0
3242,E-4,214.0,319/500,127,122.0
3243,C4,214.0,319/500,127,122.0
3244,G#3,214.0,319/500,127,122.0
3245,E-3,214.0,319/500,127,122.0
3246,G#2,214.0,319/500,127,122.0
3247,E-4,214.5,0.25,127,122.0
3248,F#3,214.5,0.5,127,122.0
3249,B1,214.5,0.5,127,122.0
3250,G#2,214.75,0.5,127,122.0
3251,E-4,214.75,0.5,127,122.0
3252,E-4,214.75,0.5,127,122.0
3253,C4,214.75,0.5,127,122.0
3254,G#3,214.75,0.5,127,122.0
3255,E-3,214.75,0.5,127,122.0
3256,G#2,214.75,0.5,127,122.0
3257,F#3,215.0,0.5,127,122.0
3258,D2,215.0,0.5,127,122.0
3259,G#2,215.25,0.25,127,122.0
3260,B-4,215.25,0.75,127,122.0
3261,E-4,215.25,0.25,127,122.0
3262,C4,215.25,0.25,127,122.0
3263,G#3,215.25,0.25,127,122.0
3264,E-3,215.25,0.25,127,122.0
3265,E2,215.25,0.25,127,122.0
3266,B-2,215.5,0.5,127,122.0
3267,E-4,215.5,0.5,127,122.0
3268,C4,215.5,0.5,127,122.0
3269,G#3,215.5,0.5,127,122.0
3270,E-3,215.5,0.5,127,122.0
3271,G#2,215.5,0.5,127,122.0
3272,F#3,215.5,0.5,127,122.0
3273,B1,215.5,0.5,127,122.0
3274,B2,216.0,4/5,127,122.0
3275,E-5,216.0,4.0,127,122.0
3276,G#4,216.0,0.25,127,122.0
3277,F#4,216.0,0.75,127,122.0
3278,E-4,216.0,0.75,127,122.0
3279,B3,216.0,0.75,127,122.0
3280,F#3,216.0,0.75,127,122.0
3281,B2,216.0,0.75,127,122.0
3282,F#3,216.0,0.5,127,122.0
3283,B1,216.0,0.5,127,122.0
3284,G#4,216.25,0.5,127,122.0
3285,F#3,216.5,0.5,127,122.0
3286,G#4,216.75,0.5,127,122.0
3287,B2,217.0,4/5,127,122.0
3288,F#4,217.0,0.75,127,122.0
3289,E-4,217.0,0.75,127,122.0
3290,B3,217.0,0.75,127,122.0
3291,F#3,217.0,0.75,127,122.0
3292,B2,217.0,0.75,127,122.0
3293,F#3,217.0,0.5,127,122.0
3294,D2,217.0,0.5,127,122.0
3295,G#4,217.25,0.75,127,122.0
3296,F#3,217.5,0.25,127,122.0
3297,B1,217.5,0.25,127,122.0
3298,F#3,217.75,0.25,127,122.0
3299,B1,217.75,0.25,127,122.0
3300,B2,218.0,3/5,127,122.0
3301,G#4,218.0,0.5,127,122.0
3302,F#4,218.0,319/500,127,122.0
3303,E-4,218.0,319/500,127,122.0
3304,B3,218.0,319/500,127,122.0
3305,F#3,218.0,319/500,127,122.0
3306,B2,218.0,319/500,127,122.0
3307,G#4,218.5,0.25,127,122.0
3308,F#3,218.5,0.5,127,122.0
3309,B1,218.5,0.5,127,122.0
3310,B2,218.75,0.5,127,122.0
3311,G#4,218.75,0.75,127,122.0
3312,F#4,218.75,0.5,127,122.0
3313,E-4,218.75,0.5,127,122.0
3314,B3,218.75,0.5,127,122.0
3315,F#3,218.75,0.5,127,122.0
3316,B2,218.75,0.5,127,122.0
3317,F#3,219.0,0.5,127,122.0
3318,D2,219.0,0.5,127,122.0
3319,B2,219.25,0.25,127,122.0
3320,F#4,219.25,0.25,127,122.0
3321,E-4,219.25,0.25,127,122.0
3322,B3,219.25,0.25,127,122.0
3323,F#3,219.25,0.25,127,122.0
3324,B2,219.25,0.25,127,122.0
3325,C#3,219.5,0.5,127,122.0
3326,B-4,219.5,0.5,127,122.0
3327,F#4,219.5,0.5,127,122.0
3328,E-4,219.5,0.5,127,122.0
3329,B3,219.5,0.5,127,122.0
3330,F#3,219.5,0.5,127,122.0
3331,B2,219.5,0.5,127,122.0
3332,F#3,219.5,0.5,127,122.0
3333,B1,219.5,0.5,127,122.0
3334,E-2,220.0,0.5,127,122.0
3335,E-5,220.0,4.0,127,122.0
3336,F#4,220.0,1.0,127,122.0
3337,B-4,220.0,1.0,127,122.0
3338,F#4,220.0,1.0,127,122.0
3339,E-4,220.0,1.0,127,122.0
3340,B-3,220.0,0.5,127,122.0
3341,E-3,220.0,0.5,127,122.0
3342,F#3,220.0,0.5,127,122.0
3343,B1,220.0,0.5,127,122.0
3344,B-3,220.5,0.5,127,122.0
3345,E-3,220.5,1.0,127,122.0
3346,E-2,220.5,0.5,127,122.0
3347,F#3,220.5,0.5,127,122.0
3348,E-4,221.0,0.75,127,122.0
3349,E-3,221.0,0.5,127,122.0
3350,B-4,221.0,0.5,127,122.0
3351,F#4,221.0,0.5,127,122.0
3352,B-3,221.0,0.5,127,122.0
3353,F#3,221.0,0.5,127,122.0
3354,D2,221.0,0.5,127,122.0
3355,B-3,221.5,0.25,127,122.0
3356,E-3,221.5,0.75,127,122.0
3357,E-2,221.5,0.25,127,122.0
3358,F#3,221.5,0.25,127,122.0
3359,B1,221.5,0.25,127,122.0
3360,E-4,221.75,0.75,127,122.0
3361,E-3,221.75,0.5,127,122.0
3362,B-4,221.75,0.5,127,122.0
3363,F#4,221.75,0.5,127,122.0
3364,B-3,221.75,0.5,127,122.0
3365,F#3,221.75,0.25,127,122.0
3366,B1,221.75,0.25,127,122.0
3367,B-3,222.25,0.25,127,122.0
3368,E-3,222.25,1.25,127,122.0
3369,E-2,222.25,0.25,127,122.0
3370,B-2,222.5,0.5,127,122.0
3371,E-4,222.5,0.5,127,122.0
3372,B-3,222.5,0.5,127,122.0
3373,F#3,222.5,0.5,127,122.0
3374,B1,222.5,0.5,127,122.0
3375,G#2,223.0,0.5,127,122.0
3376,E-4,223.0,0.5,127,122.0
3377,G#3,223.0,0.5,127,122.0
3378,F#3,223.0,0.5,127,122.0
3379,D2,223.0,0.5,127,122.0
3380,F#2,223.5,0.5,127,122.0
3381,B-3,223.5,0.5,127,122.0
3382,F#3,223.5,0.5,127,122.0
3383,F#3,223.5,0.5,127,122.0
3384,B1,223.5,0.5,127,122.0
3385,F#1,224.0,0.375,127,122.0
3386,F#5,224.0,4.0,127,122.0
3387,E-3,224.0,1.0,127,122.0
3388,F#4,224.0,1.0,127,122.0
3389,C#4,224.0,0.75,127,122.0
3390,B-3,224.0,0.75,127,122.0
3391,F#3,224.0,0.75,127,122.0
3392,C#3,224.0,0.75,127,122.0
3393,F#2,224.0,0.75,127,122.0
3394,F#3,224.0,0.25,127,122.0
3395,B1,224.0,0.25,127,122.0
3396,F#3,224.25,0.25,127,122.0
3397,F#2,224.5,0.25,127,122.0
3398,F#3,224.5,0.25,127,122.0
3399,F#3,224.75,0.25,127,122.0
3400,F#1,225.0,0.375,127,122.0
3401,E-3,225.0,1.0,127,122.0
3402,E-4,225.0,1.0,127,122.0
3403,C#4,225.0,0.75,127,122.0
3404,B-3,225.0,0.75,127,122.0
3405,F#3,225.0,0.75,127,122.0
3406,C#3,225.0,0.75,127,122.0
3407,F#2,225.0,0.75,127,122.0
3408,F#3,225.0,0.25,127,122.0
3409,D2,225.0,0.25,127,122.0
3410,B1,225.0,0.25,127,122.0
3411,F#3,225.25,0.25,127,122.0
3412,F#1,225.5,0.25,127,122.0
3413,F#3,225.5,0.25,127,122.0
3414,F#1,225.75,0.75,127,122.0
3415,F#3,225.75,0.25,127,122.0
3416,E-3,226.0,1.0,127,122.0
3417,C#4,226.0,0.5,127,122.0
3418,C#4,226.0,319/500,127,122.0
3419,B-3,226.0,319/500,127,122.0
3420,F#3,226.0,319/500,127,122.0
3421,C#3,226.0,319/500,127,122.0
3422,F#2,226.0,319/500,127,122.0
3423,F#3,226.0,0.25,127,122.0
3424,B1,226.0,0.25,127,122.0
3425,F#3,226.25,0.25,127,122.0
3426,F#1,226.5,1.0,127,122.0
3427,F#3,226.5,0.25,127,122.0
3428,E-4,226.5,1.0,127,122.0
3429,F#3,226.75,0.25,127,122.0
3430,C#4,226.75,0.5,127,122.0
3431,B-3,226.75,0.5,127,122.0
3432,F#3,226.75,0.5,127,122.0
3433,C#3,226.75,0.5,127,122.0
3434,F#2,226.75,0.5,127,122.0
3435,E-3,227.0,1.0,127,122.0
3436,F#3,227.0,0.25,127,122.0
3437,D2,227.0,0.25,127,122.0
3438,B1,227.0,0.25,127,122.0
3439,F#3,227.25,0.25,127,122.0
3440,C#4,227.25,0.25,127,122.0
3441,B-3,227.25,0.25,127,122.0
3442,F#3,227.25,0.25,127,122.0
3443,C#3,227.25,0.25,127,122.0
3444,E2,227.25,0.25,127,122.0
3445,G1,227.5,0.5,127,122.0
3446,F#3,227.5,0.25,127,122.0
3447,G#4,227.5,0.5,127,122.0
3448,C#4,227.5,0.5,127,122.0
3449,B-3,227.5,0.5,127,122.0
3450,F#3,227.5,0.5,127,122.0
3451,C#3,227.5,0.5,127,122.0
3452,F#2,227.5,0.5,127,122.0
3453,F#3,227.75,0.25,127,122.0
3454,G#1,228.0,0.375,127,122.0
3455,F#5,228.0,4.0,127,122.0
3456,E-3,228.0,1.0,127,122.0
3457,G#4,228.0,0.5,127,122.0
3458,E-4,228.0,0.75,127,122.0
3459,C4,228.0,0.75,127,122.0
3460,G#3,228.0,0.75,127,122.0
3461,E-3,228.0,0.75,127,122.0
3462,G#2,228.0,0.75,127,122.0
3463,F#3,228.0,0.25,127,122.0
3464,B1,228.0,0.25,127,122.0
3465,F#3,228.25,0.25,127,122.0
3466,G#2,228.5,0.25,127,122.0
3467,F#3,228.5,0.25,127,122.0
3468,E-4,228.5,2.0,127,122.0
3469,F#3,228.75,0.25,127,122.0
3470,G#1,229.0,0.375,127,122.0
3471,E-3,229.0,1.0,127,122.0
3472,E-4,229.0,0.75,127,122.0
3473,C4,229.0,0.75,127,122.0
3474,G#3,229.0,0.75,127,122.0
3475,E-3,229.0,0.75,127,122.0
3476,G#2,229.0,0.75,127,122.0
3477,F#3,229.0,0.25,127,122.0
3478,D2,229.0,0.25,127,122.0
3479,B1,229.0,0.25,127,122.0
3480,F#3,229.25,0.25,127,122.0
3481,G#1,229.5,0.25,127,122.0
3482,F#3,229.5,0.25,127,122.0
3483,G#1,229.75,0.75,127,122.0
3484,F#3,229.75,0.25,127,122.0
3485,E-3,230.0,1.0,127,122.0
3486,E-4,230.0,319/500,127,122.0
3487,C4,230.0,319/500,127,122.0
3488,G#3,230.0,319/500,127,122.0
3489,E-3,230.0,319/500,127,122.0
3490,G#2,230.0,319/500,127,122.0
3491,F#3,230.0,0.25,127,122.0
3492,B1,230.0,0.25,127,122.0
3493,F#3,230.25,0.25,127,122.0
3494,G#1,230.5,1.0,127,122.0
3495,F#3,230.5,0.25,127,122.0
3496,C#4,230.5,1.5,127,122.0
3497,F#3,230.75,0.25,127,122.0
3498,E-4,230.75,0.5,127,122.0
3499,C4,230.75,0.5,127,122.0
3500,G#3,230.75,0.5,127,122.0
3501,E-3,230.75,0.5,127,122.0
3502,G#2,230.75,0.5,127,122.0
3503,E-3,231.0,1.0,127,122.0
3504,F#3,231.0,0.25,127,122.0
3505,D2,231.0,0.25,127,122.0
3506,B1,231.0,0.25,127,122.0
3507,F#3,231.25,0.25,127,122.0
3508,E-4,231.25,0.25,127,122.0
3509,C4,231.25,0.25,127,122.0
3510,G#3,231.25,0.25,127,122.0
3511,E-3,231.25,0.25,127,122.0
3512,E2,231.25,0.25,127,122.0
3513,B-1,231.5,0.5,127,122.0
3514,F#3,231.5,0.25,127,122.0
3515,E-4,231.5,0.5,127,122.0
3516,C4,231.5,0.5,127,122.0
3517,G#3,231.5,0.5,127,122.0
3518,E-3,231.5,0.5,127,122.0
3519,G#2,231.5,0.5,127,122.0
3520,F#3,231.75,0.25,127,122.0
3521,B1,232.0,0.375,127,122.0
3522,F#5,232.0,4.0,127,122.0
3523,E-3,232.0,1.0,127,122.0
3524,B-4,232.0,0.5,127,122.0
3525,F#4,232.0,0.75,127,122.0
3526,E-4,232.0,0.75,127,122.0
3527,B3,232.0,0.75,127,122.0
3528,F#3,232.0,0.75,127,122.0
3529,B2,232.0,0.75,127,122.0
3530,F#3,232.0,0.25,127,122.0
3531,B1,232.0,0.25,127,122.0
3532,F#3,232.25,0.25,127,122.0
3533,B2,232.5,0.25,127,122.0
3534,F#3,232.5,0.25,127,122.0
3535,G#4,232.5,3.5,127,122.0
3536,F#3,232.75,0.25,127,122.0
3537,B1,233.0,0.375,127,122.0
3538,E-3,233.0,1.0,127,122.0
3539,F#4,233.0,0.75,127,122.0
3540,E-4,233.0,0.75,127,122.0
3541,B3,233.0,0.75,127,122.0
3542,F#3,233.0,0.75,127,122.0
3543,B2,233.0,0.75,127,122.0
3544,F#3,233.0,0.25,127,122.0
3545,D2,233.0,0.25,127,122.0
3546,B1,233.0,0.25,127,122.0
3547,F#3,233.25,0.25,127,122.0
3548,B1,233.5,0.25,127,122.0
3549,F#3,233.5,0.25,127,122.0
3550,B1,233.75,0.75,127,122.0
3551,F#3,233.75,0.25,127,122.0
3552,E-3,234.0,1.0,127,122.0
3553,F#4,234.0,319/500,127,122.0
3554,E-4,234.0,319/500,127,122.0
3555,B3,234.0,319/500,127,122.0
3556,F#3,234.0,319/500,127,122.0
3557,B2,234.0,319/500,127,122.0
3558,F#3,234.0,0.25,127,122.0
3559,B1,234.0,0.25,127,122.0
3560,F#3,234.25,0.25,127,122.0
3561,C#2,234.5,1.0,127,122.0
3562,F#3,234.5,0.25,127,122.0
3563,F#3,234.75,0.25,127,122.0
3564,F#4,234.75,0.5,127,122.0
3565,E-4,234.75,0.5,127,122.0
3566,B3,234.75,0.5,127,122.0
3567,F#3,234.75,0.5,127,122.0
3568,B2,234.75,0.5,127,122.0
3569,E-3,235.0,1.0,127,122.0
3570,F#3,235.0,0.25,127,122.0
3571,D2,235.0,0.25,127,122.0
3572,B1,235.0,0.25,127,122.0
3573,F#3,235.25,0.25,127,122.0
3574,F#4,235.25,0.25,127,122.0
3575,E-4,235.25,0.25,127,122.0
3576,B3,235.25,0.25,127,122.0
3577,F#3,235.25,0.25,127,122.0
3578,B2,235.25,0.25,127,122.0
3579,B1,235.5,0.5,127,122.0
3580,F#3,235.5,0.25,127,122.0
3581,F#4,235.5,0.5,127,122.0
3582,E-4,235.5,0.5,127,122.0
3583,B3,235.5,0.5,127,122.0
3584,F#3,235.5,0.5,127,122.0
3585,B2,235.5,0.5,127,122.0
3586,F#3,235.75,0.25,127,122.0
3587,E-2,236.0,0.5,127,122.0
3588,F#5,236.0,4.0,127,122.0
3589,E-3,236.0,1.0,127,122.0
3590,F#4,236.0,1.5,127,122.0
3591,B-4,236.0,1.0,127,122.0
3592,F#4,236.0,1.0,127,122.0
3593,E-4,236.0,1.0,127,122.0
3594,B-3,236.0,0.5,127,122.0
3595,E-3,236.0,0.5,127,122.0
3596,F#3,236.0,0.25,127,122.0
3597,D2,236.0,0.25,127,122.0
3598,F#3,236.25,0.25,127,122.0
3599,B-3,236.5,0.5,127,122.0
3600,E-3,236.5,1.0,127,122.0
3601,B-1,236.5,0.5,127,122.0
3602,F#3,236.5,0.25,127,122.0
3603,B1,236.5,0.25,127,122.0
3604,F#3,236.75,0.25,127,122.0
3605,E-4,237.0,0.75,127,122.0
3606,E-3,237.0,0.5,127,122.0
3607,E-3,237.0,1.0,127,122.0
3608,B-4,237.0,0.5,127,122.0
3609,F#4,237.0,0.5,127,122.0
3610,B-3,237.0,0.5,127,122.0
3611,F#3,237.0,0.25,127,122.0
3612,D2,237.0,0.25,127,122.0
3613,F#3,237.25,0.25,127,122.0
3614,B-3,237.5,0.25,127,122.0
3615,E-3,237.5,0.75,127,122.0
3616,E-2,237.5,0.25,127,122.0
3617,F#3,237.5,0.25,127,122.0
3618,B1,237.5,0.25,127,122.0
3619,E-4,237.75,0.75,127,122.0
3620,E-3,237.75,0.5,127,122.0
3621,B-4,237.75,0.5,127,122.0
3622,F#4,237.75,0.5,127,122.0
3623,B-3,237.75,0.5,127,122.0
3624,F#3,237.75,0.25,127,122.0
3625,D2,237.75,0.25,127,122.0
3626,E-3,238.0,1.0,127,122.0
3627,F#3,238.0,0.25,127,122.0
3628,B-3,238.25,0.25,127,122.0
3629,E-3,238.25,1.25,127,122.0
3630,E-2,238.25,0.25,127,122.0
3631,F#3,238.25,0.25,127,122.0
3632,B1,238.25,0.25,127,122.0
3633,B-2,238.5,0.5,127,122.0
3634,E-4,238.5,0.5,127,122.0
3635,B-3,238.5,0.5,127,122.0
3636,F#3,238.5,0.25,127,122.0
3637,B1,238.5,0.25,127,122.0
3638,F#3,238.75,0.25,127,122.0
3639,G#2,239.0,0.5,127,122.0
3640,E-3,239.0,1.0,127,122.0
3641,E-4,239.0,0.5,127,122.0
3642,G#3,239.0,0.5,127,122.0
3643,F#3,239.0,0.25,127,122.0
3644,D2,239.0,0.25,127,122.0
3645,B1,239.0,0.25,127,122.0
3646,F#3,239.25,0.25,127,122.0
3647,F#2,239.5,0.5,127,122.0
3648,B-3,239.5,0.5,127,122.0
3649,F#3,239.5,0.5,127,122.0
3650,F#3,239.5,0.25,127,122.0
3651,D2,239.5,0.25,127,122.0
3652,B1,239.5,0.25,127,122.0
3653,F#3,239.75,0.25,127,122.0
3654,F#1,240.0,0.375,127,122.0
3655,F#5,240.0,4.0,127,122.0
3656,E-3,240.0,1.0,127,122.0
3657,F#4,240.0,1.0,127,122.0
3658,C#4,240.0,0.75,127,122.0
3659,B-3,240.0,0.75,127,122.0
3660,F#3,240.0,0.75,127,122.0
3661,C#3,240.0,0.75,127,122.0
3662,F#2,240.0,0.75,127,122.0
3663,F#3,240.0,0.25,127,122.0
3664,B1,240.0,0.25,127,122.0
3665,F#3,240.25,0.25,127,122.0
3666,F#2,240.5,0.25,127,122.0
3667,F#3,240.5,0.25,127,122.0
3668,F#3,240.75,0.25,127,122.0
3669,F#1,241.0,0.375,127,122.0
3670,E-3,241.0,1.0,127,122.0
3671,E-4,241.0,1.0,127,122.0
3672,C#4,241.0,0.75,127,122.0
3673,B-3,241.0,0.75,127,122.0
3674,F#3,241.0,0.75,127,122.0
3675,C#3,241.0,0.75,127,122.0
3676,F#2,241.0,0.75,127,122.0
3677,F#3,241.0,0.25,127,122.0
3678,D2,241.0,0.25,127,122.0
3679,B1,241.0,0.25,127,122.0
3680,F#3,241.25,0.25,127,122.0
3681,F#1,241.5,0.25,127,122.0
3682,F#3,241.5,0.25,127,122.0
3683,F#1,241.75,0.75,127,122.0
3684,F#3,241.75,0.25,127,122.0
3685,E-3,242.0,1.0,127,122.0
3686,C#4,242.0,0.5,127,122.0
3687,C#4,242.0,319/500,127,122.0
3688,B-3,242.0,319/500,127,122.0
3689,F#3,242.0,319/500,127,122.0
3690,C#3,242.0,319/500,127,122.0
3691,F#2,242.0,319/500,127,122.0
3692,F#3,242.0,0.25,127,122.0
3693,B1,242.0,0.25,127,122.0
3694,F#3,242.25,0.25,127,122.0
3695,F#1,242.5,1.0,127,122.0
3696,F#3,242.5,0.25,127,122.0
3697,E-4,242.5,1.0,127,122.0
3698,F#3,242.75,0.25,127,122.0
3699,C#4,242.75,0.5,127,122.0
3700,B-3,242.75,0.5,127,122.0
3701,F#3,242.75,0.5,127,122.0
3702,C#3,242.75,0.5,127,122.0
3703,F#2,242.75,0.5,127,122.0
3704,E-3,243.0,1.0,127,122.0
3705,F#3,243.0,0.25,127,122.0
3706,D2,243.0,0.25,127,122.0
3707,B1,243.0,0.25,127,122.0
3708,F#3,243.25,0.25,127,122.0
3709,C#4,243.25,0.25,127,122.0
3710,B-3,243.25,0.25,127,122.0
3711,F#3,243.25,0.25,127,122.0
3712,C#3,243.25,0.25,127,122.0
3713,E2,243.25,0.25,127,122.0
3714,G1,243.5,0.5,127,122.0
3715,F#3,243.5,0.25,127,122.0
3716,G#4,243.5,0.5,127,122.0
3717,C#4,243.5,0.5,127,122.0
3718,B-3,243.5,0.5,127,122.0
3719,F#3,243.5,0.5,127,122.0
3720,C#3,243.5,0.5,127,122.0
3721,F#2,243.5,0.5,127,122.0
3722,F#3,243.75,0.25,127,122.0
3723,G#1,244.0,0.375,127,122.0
3724,F#5,244.0,4.0,127,122.0
3725,E-3,244.0,1.0,127,122.0
3726,G#4,244.0,0.5,127,122.0
3727,E-4,244.0,0.75,127,122.0
3728,C4,244.0,0.75,127,122.0
3729,G#3,244.0,0.75,127,122.0
3730,E-3,244.0,0.75,127,122.0
3731,G#2,244.0,0.75,127,122.0
3732,F#3,244.0,0.25,127,122.0
3733,B1,244.0,0.25,127,122.0
3734,F#3,244.25,0.25,127,122.0
3735,G#2,244.5,0.25,127,122.0
3736,F#3,244.5,0.25,127,122.0
3737,E-4,244.5,2.0,127,122.0
3738,F#3,244.75,0.25,127,122.0
3739,G#1,245.0,0.375,127,122.0
3740,E-3,245.0,1.0,127,122.0
3741,E-4,245.0,0.75,127,122.0
3742,C4,245.0,0.75,127,122.0
3743,G#3,245.0,0.75,127,122.0
3744,E-3,245.0,0.75,127,122.0
3745,G#2,245.0,0.75,127,122.0
3746,F#3,245.0,0.25,127,122.0
3747,D2,245.0,0.25,127,122.0
3748,B1,245.0,0.25,127,122.0
3749,F#3,245.25,0.25,127,122.0
3750,G#1,245.5,0.25,127,122.0
3751,F#3,245.5,0.25,127,122.0
3752,G#1,245.75,0.75,127,122.0
3753,F#3,245.75,0.25,127,122.0
3754,E-3,246.0,1.0,127,122.0
3755,E-4,246.0,319/500,127,122.0
3756,C4,246.0,319/500,127,122.0
3757,G#3,246.0,319/500,127,122.0
3758,E-3,246.0,319/500,127,122.0
3759,G#2,246.0,319/500,127,122.0
3760,F#3,246.0,0.25,127,122.0
3761,B1,246.0,0.25,127,122.0
3762,F#3,246.25,0.25,127,122.0
3763,G#1,246.5,1.0,127,122.0
3764,F#3,246.5,0.25,127,122.0
3765,C#4,246.5,1.5,127,122.0
3766,F#3,246.75,0.25,127,122.0
3767,E-4,246.75,0.5,127,122.0
3768,C4,246.75,0.5,127,122.0
3769,G#3,246.75,0.5,127,122.0
3770,E-3,246.75,0.5,127,122.0
3771,G#2,246.75,0.5,127,122.0
3772,E-3,247.0,1.0,127,122.0
3773,F#3,247.0,0.25,127,122.0
3774,D2,247.0,0.25,127,122.0
3775,B1,247.0,0.25,127,122.0
3776,F#3,247.25,0.25,127,122.0
3777,E-4,247.25,0.25,127,122.0
3778,C4,247.25,0.25,127,122.0
3779,G#3,247.25,0.25,127,122.0
3780,E-3,247.25,0.25,127,122.0
3781,E2,247.25,0.25,127,122.0
3782,B-1,247.5,0.5,127,122.0
3783,F#3,247.5,0.25,127,122.0
3784,E-4,247.5,0.5,127,122.0
3785,C4,247.5,0.5,127,122.0
3786,G#3,247.5,0.5,127,122.0
3787,E-3,247.5,0.5,127,122.0
3788,G#2,247.5,0.5,127,122.0
3789,F#3,247.75,0.25,127,122.0
3790,B1,248.0,0.375,127,122.0
3791,F#5,248.0,4.0,127,122.0
3792,E-3,248.0,1.0,127,122.0
3793,B-4,248.0,0.5,127,122.0
3794,F#4,248.0,0.75,127,122.0
3795,E-4,248.0,0.75,127,122.0
3796,B3,248.0,0.75,127,122.0
3797,F#3,248.0,0.75,127,122.0
3798,B2,248.0,0.75,127,122.0
3799,F#3,248.0,0.25,127,122.0
3800,B1,248.0,0.25,127,122.0
3801,F#3,248.25,0.25,127,122.0
3802,B2,248.5,0.25,127,122.0
3803,F#3,248.5,0.25,127,122.0
3804,G#4,248.5,3.5,127,122.0
3805,F#3,248.75,0.25,127,122.0
3806,B1,249.0,0.375,127,122.0
3807,E-3,249.0,1.0,127,122.0
3808,F#4,249.0,0.75,127,122.0
3809,E-4,249.0,0.75,127,122.0
3810,B3,249.0,0.75,127,122.0
3811,F#3,249.0,0.75,127,122.0
3812,B2,249.0,0.75,127,122.0
3813,F#3,249.0,0.25,127,122.0
3814,D2,249.0,0.25,127,122.0
3815,B1,249.0,0.25,127,122.0
3816,F#3,249.25,0.25,127,122.0
3817,B1,249.5,0.25,127,122.0
3818,F#3,249.5,0.25,127,122.0
3819,B1,249.75,0.75,127,122.0
3820,F#3,249.75,0.25,127,122.0
3821,E-3,250.0,1.0,127,122.0
3822,F#4,250.0,319/500,127,122.0
3823,E-4,250.0,319/500,127,122.0
3824,B3,250.0,319/500,127,122.0
3825,F#3,250.0,319/500,127,122.0
3826,B2,250.0,319/500,127,122.0
3827,F#3,250.0,0.25,127,122.0
3828,B1,250.0,0.25,127,122.0
3829,F#3,250.25,0.25,127,122.0
3830,C#2,250.5,1.0,127,122.0
3831,F#3,250.5,0.25,127,122.0
3832,F#3,250.75,0.25,127,122.0
3833,F#4,250.75,0.5,127,122.0
3834,E-4,250.75,0.5,127,122.0
3835,B3,250.75,0.5,127,122.0
3836,F#3,250.75,0.5,127,122.0
3837,B2,250.75,0.5,127,122.0
3838,E-3,251.0,1.0,127,122.0
3839,F#3,251.0,0.25,127,122.0
3840,D2,251.0,0.25,127,122.0
3841,B1,251.0,0.25,127,122.0
3842,F#3,251.25,0.25,127,122.0
3843,F#4,251.25,0.25,127,122.0
3844,E-4,251.25,0.25,127,122.0
3845,B3,251.25,0.25,127,122.0
3846,F#3,251.25,0.25,127,122.0
3847,B2,251.25,0.25,127,122.0
3848,B1,251.5,0.5,127,122.0
3849,F#3,251.5,0.25,127,122.0
3850,F#4,251.5,0.5,127,122.0
3851,E-4,251.5,0.5,127,122.0
3852,B3,251.5,0.5,127,122.0
3853,F#3,251.5,0.5,127,122.0
3854,B2,251.5,0.5,127,122.0
3855,F#3,251.75,0.25,127,122.0
3856,E-2,252.0,0.5,127,122.0
3857,F#5,252.0,4.0,127,122.0
3858,E-3,252.0,1.0,127,122.0
3859,F#4,252.0,1.5,127,122.0
3860,B-4,252.0,1.0,127,122.0
3861,F#4,252.0,1.0,127,122.0
3862,E-4,252.0,1.0,127,122.0
3863,B-3,252.0,0.5,127,122.0
3864,E-3,252.0,0.5,127,122.0
3865,F#3,252.0,0.25,127,122.0
3866,D2,252.0,0.25,127,122.0
3867,F#3,252.25,0.25,127,122.0
3868,B-3,252.5,0.5,127,122.0
3869,E-3,252.5,1.0,127,122.0
3870,B-1,252.5,0.5,127,122.0
3871,F#3,252.5,0.25,127,122.0
3872,B1,252.5,0.25,127,122.0
3873,F#3,252.75,0.25,127,122.0
3874,E-4,253.0,0.75,127,122.0
3875,E-3,253.0,0.5,127,122.0
3876,E-3,253.0,1.0,127,122.0
3877,B-4,253.0,0.5,127,122.0
3878,F#4,253.0,0.5,127,122.0
3879,B-3,253.0,0.5,127,122.0
3880,F#3,253.0,0.25,127,122.0
3881,D2,253.0,0.25,127,122.0
3882,F#3,253.25,0.25,127,122.0
3883,B-3,253.5,0.25,127,122.0
3884,E-3,253.5,0.75,127,122.0
3885,E-2,253.5,0.25,127,122.0
3886,F#3,253.5,0.25,127,122.0
3887,B1,253.5,0.25,127,122.0
3888,E-4,253.75,0.75,127,122.0
3889,E-3,253.75,0.5,127,122.0
3890,B-4,253.75,0.5,127,122.0
3891,F#4,253.75,0.5,127,122.0
3892,B-3,253.75,0.5,127,122.0
3893,F#3,253.75,0.25,127,122.0
3894,D2,253.75,0.25,127,122.0
3895,E-3,254.0,1.0,127,122.0
3896,F#3,254.0,0.25,127,122.0
3897,B-3,254.25,0.25,127,122.0
3898,E-3,254.25,1.25,127,122.0
3899,E-2,254.25,0.25,127,122.0
3900,F#3,254.25,0.25,127,122.0
3901,B1,254.25,0.25,127,122.0
3902,B-2,254.5,0.5,127,122.0
3903,E-4,254.5,0.5,127,122.0
3904,B-3,254.5,0.5,127,122.0
3905,F#3,254.5,0.25,127,122.0
3906,B1,254.5,0.25,127,122.0
3907,F#3,254.75,0.25,127,122.0
3908,G#2,255.0,0.5,127,122.0
3909,E-3,255.0,1.0,127,122.0
3910,E-4,255.0,0.5,127,122.0
3911,G#3,255.0,0.5,127,122.0
3912,F#3,255.0,0.25,127,122.0
3913,D2,255.0,0.25,127,122.0
3914,B1,255.0,0.25,127,122.0
3915,F#3,255.25,0.25,127,122.0
3916,F#2,255.5,0.5,127,122.0
3917,B-3,255.5,0.5,127,122.0
3918,F#3,255.5,0.5,127,122.0
3919,F#3,255.5,0.25,127,122.0
3920,D2,255.5,0.25,127,122.0
3921,B1,255.5,0.25,127,122.0
3922,F#3,255.75,0.25,127,122.0
3923,F#1,256.0,0.375,127,122.0
3924,F#5,256.0,4.0,127,122.0
3925,E-3,256.0,1.0,127,122.0
3926,B-4,256.0,1.0,127,122.0
3927,C#4,256.0,0.75,127,122.0
3928,B-3,256.0,0.75,127,122.0
3929,F#3,256.0,0.75,127,122.0
3930,C#3,256.0,0.75,127,122.0
3931,F#2,256.0,0.75,127,122.0
3932,F#3,256.0,0.25,127,122.0
3933,B1,256.0,0.25,127,122.0
3934,F#3,256.25,0.25,127,122.0
3935,F#2,256.5,0.25,127,122.0
3936,F#3,256.5,0.25,127,122.0
3937,F#3,256.75,0.25,127,122.0
3938,F#1,257.0,0.375,127,122.0
3939,E-3,257.0,1.0,127,122.0
3940,F#4,257.0,1.0,127,122.0
3941,C#4,257.0,0.75,127,122.0
3942,B-3,257.0,0.75,127,122.0
3943,F#3,257.0,0.75,127,122.0
3944,C#3,257.0,0.75,127,122.0
3945,F#2,257.0,0.75,127,122.0
3946,F#3,257.0,0.25,127,122.0
3947,D2,257.0,0.25,127,122.0
3948,B1,257.0,0.25,127,122.0
3949,F#3,257.25,0.25,127,122.0
3950,F#1,257.5,0.25,127,122.0
3951,F#3,257.5,0.25,127,122.0
3952,F#1,257.75,0.75,127,122.0
3953,F#3,257.75,0.25,127,122.0
3954,E-3,258.0,1.0,127,122.0
3955,E-4,258.0,0.5,127,122.0
3956,C#4,258.0,319/500,127,122.0
3957,B-3,258.0,319/500,127,122.0
3958,F#3,258.0,319/500,127,122.0
3959,C#3,258.0,319/500,127,122.0
3960,F#2,258.0,319/500,127,122.0
3961,F#3,258.0,0.25,127,122.0
3962,B1,258.0,0.25,127,122.0
3963,F#3,258.25,0.25,127,122.0
3964,F#1,258.5,1.0,127,122.0
3965,F#3,258.5,0.25,127,122.0
3966,F#4,258.5,1.0,127,122.0
3967,F#3,258.75,0.25,127,122.0
3968,C#4,258.75,0.5,127,122.0
3969,B-3,258.75,0.5,127,122.0
3970,F#3,258.75,0.5,127,122.0
3971,C#3,258.75,0.5,127,122.0
3972,F#2,258.75,0.5,127,122.0
3973,E-3,259.0,1.0,127,122.0
3974,F#3,259.0,0.25,127,122.0
3975,D2,259.0,0.25,127,122.0
3976,B1,259.0,0.25,127,122.0
3977,F#3,259.25,0.25,127,122.0
3978,C#4,259.25,0.25,127,122.0
3979,B-3,259.25,0.25,127,122.0
3980,F#3,259.25,0.25,127,122.0
3981,C#3,259.25,0.25,127,122.0
3982,E2,259.25,0.25,127,122.0
3983,G1,259.5,0.5,127,122.0
3984,F#3,259.5,0.25,127,122.0
3985,B-4,259.5,0.5,127,122.0
3986,C#4,259.5,0.5,127,122.0
3987,B-3,259.5,0.5,127,122.0
3988,F#3,259.5,0.5,127,122.0
3989,C#3,259.5,0.5,127,122.0
3990,F#2,259.5,0.5,127,122.0
3991,F#3,259.75,0.25,127,122.0
3992,G#1,260.0,0.375,127,122.0
3993,F#5,260.0,4.0,127,122.0
3994,E-3,260.0,1.0,127,122.0
3995,B-4,260.0,0.5,127,122.0
3996,E-4,260.0,0.75,127,122.0
3997,C4,260.0,0.75,127,122.0
3998,G#3,260.0,0.75,127,122.0
3999,E-3,260.0,0.75,127,122.0
4000,G#2,260.0,0.75,127,122.0
4001,F#3,260.0,0.25,127,122.0
4002,B1,260.0,0.25,127,122.0
4003,F#3,260.25,0.25,127,122.0
4004,G#2,260.5,0.25,127,122.0
4005,F#3,260.5,0.25,127,122.0
4006,F#4,260.5,2.0,127,122.0
4007,F#3,260.75,0.25,127,122.0
4008,G#1,261.0,0.375,127,122.0
4009,E-3,261.0,1.0,127,122.0
4010,E-4,261.0,0.75,127,122.0
4011,C4,261.0,0.75,127,122.0
4012,G#3,261.0,0.75,127,122.0
4013,E-3,261.0,0.75,127,122.0
4014,G#2,261.0,0.75,127,122.0
4015,F#3,261.0,0.25,127,122.0
4016,D2,261.0,0.25,127,122.0
4017,B1,261.0,0.25,127,122.0
4018,F#3,261.25,0.25,127,122.0
4019,G#1,261.5,0.25,127,122.0
4020,F#3,261.5,0.25,127,122.0
4021,G#1,261.75,0.75,127,122.0
4022,F#3,261.75,0.25,127,122.0
4023,E-3,262.0,1.0,127,122.0
4024,E-4,262.0,319/500,127,122.0
4025,C4,262.0,319/500,127,122.0
4026,G#3,262.0,319/500,127,122.0
4027,E-3,262.0,319/500,127,122.0
4028,G#2,262.0,319/500,127,122.0
4029,F#3,262.0,0.25,127,122.0
4030,B1,262.0,0.25,127,122.0
4031,F#3,262.25,0.25,127,122.0
4032,G#1,262.5,1.0,127,122.0
4033,F#3,262.5,0.25,127,122.0
4034,E-4,262.5,0.5,127,122.0
4035,F#3,262.75,0.25,127,122.0
4036,E-4,262.75,0.5,127,122.0
4037,C4,262.75,0.5,127,122.0
4038,G#3,262.75,0.5,127,122.0
4039,E-3,262.75,0.5,127,122.0
4040,G#2,262.75,0.5,127,122.0
4041,E-3,263.0,1.0,127,122.0
4042,F#4,263.0,1.0,127,122.0
4043,F#3,263.0,0.25,127,122.0
4044,D2,263.0,0.25,127,122.0
4045,B1,263.0,0.25,127,122.0
4046,F#3,263.25,0.25,127,122.0
4047,E-4,263.25,0.25,127,122.0
4048,C4,263.25,0.25,127,122.0
4049,G#3,263.25,0.25,127,122.0
4050,E-3,263.25,0.25,127,122.0
4051,E2,263.25,0.25,127,122.0
4052,B-1,263.5,0.5,127,122.0
4053,F#3,263.5,0.25,127,122.0
4054,E-4,263.5,0.5,127,122.0
4055,C4,263.5,0.5,127,122.0
4056,G#3,263.5,0.5,127,122.0
4057,E-3,263.5,0.5,127,122.0
4058,G#2,263.5,0.5,127,122.0
4059,F#3,263.75,0.25,127,122.0
4060,B1,264.0,0.375,127,122.0
4061,F#5,264.0,4.0,127,122.0
4062,E-3,264.0,1.0,127,122.0
4063,B-4,264.0,0.5,127,122.0
4064,F#4,264.0,0.75,127,122.0
4065,E-4,264.0,0.75,127,122.0
4066,B3,264.0,0.75,127,122.0
4067,F#3,264.0,0.75,127,122.0
4068,B2,264.0,0.75,127,122.0
4069,F#3,264.0,0.25,127,122.0
4070,B1,264.0,0.25,127,122.0
4071,F#3,264.25,0.25,127,122.0
4072,B2,264.5,0.25,127,122.0
4073,F#3,264.5,0.25,127,122.0
4074,G#4,264.5,3.5,127,122.0
4075,F#3,264.75,0.25,127,122.0
4076,B1,265.0,0.375,127,122.0
4077,E-3,265.0,1.0,127,122.0
4078,F#4,265.0,0.75,127,122.0
4079,E-4,265.0,0.75,127,122.0
4080,B3,265.0,0.75,127,122.0
4081,F#3,265.0,0.75,127,122.0
4082,B2,265.0,0.75,127,122.0
4083,F#3,265.0,0.25,127,122.0
4084,D2,265.0,0.25,127,122.0
4085,B1,265.0,0.25,127,122.0
4086,F#3,265.25,0.25,127,122.0
4087,B1,265.5,0.25,127,122.0
4088,F#3,265.5,0.25,127,122.0
4089,B1,265.75,0.75,127,122.0
4090,F#3,265.75,0.25,127,122.0
4091,E-3,266.0,1.0,127,122.0
4092,F#4,266.0,319/500,127,122.0
4093,E-4,266.0,319/500,127,122.0
4094,B3,266.0,319/500,127,122.0
4095,F#3,266.0,319/500,127,122.0
4096,B2,266.0,319/500,127,122.0
4097,F#3,266.0,0.25,127,122.0
4098,B1,266.0,0.25,127,122.0
4099,F#3,266.25,0.25,127,122.0
4100,C#2,266.5,1.0,127,122.0
4101,F#3,266.5,0.25,127,122.0
4102,F#3,266.75,0.25,127,122.0
4103,F#4,266.75,0.5,127,122.0
4104,E-4,266.75,0.5,127,122.0
4105,B3,266.75,0.5,127,122.0
4106,F#3,266.75,0.5,127,122.0
4107,B2,266.75,0.5,127,122.0
4108,E-3,267.0,1.0,127,122.0
4109,F#3,267.0,0.25,127,122.0
4110,D2,267.0,0.25,127,122.0
4111,B1,267.0,0.25,127,122.0
4112,F#3,267.25,0.25,127,122.0
4113,F#4,267.25,0.25,127,122.0
4114,E-4,267.25,0.25,127,122.0
4115,B3,267.25,0.25,127,122.0
4116,F#3,267.25,0.25,127,122.0
4117,B2,267.25,0.25,127,122.0
4118,B1,267.5,0.5,127,122.0
4119,F#3,267.5,0.25,127,122.0
4120,F#4,267.5,0.5,127,122.0
4121,E-4,267.5,0.5,127,122.0
4122,B3,267.5,0.5,127,122.0
4123,F#3,267.5,0.5,127,122.0
4124,B2,267.5,0.5,127,122.0
4125,F#3,267.75,0.25,127,122.0
4126,E-2,268.0,0.5,127,122.0
4127,F#5,268.0,4.0,127,122.0
4128,E-3,268.0,1.0,127,122.0
4129,F#4,268.0,1.5,127,122.0
4130,B-4,268.0,1.0,127,122.0
4131,F#4,268.0,1.0,127,122.0
4132,E-4,268.0,1.0,127,122.0
4133,B-3,268.0,0.5,127,122.0
4134,E-3,268.0,0.5,127,122.0
4135,F#3,268.0,0.25,127,122.0
4136,D2,268.0,0.25,127,122.0
4137,F#3,268.25,0.25,127,122.0
4138,B-3,268.5,0.5,127,122.0
4139,E-3,268.5,1.0,127,122.0
4140,B-1,268.5,0.5,127,122.0
4141,F#3,268.5,0.25,127,122.0
4142,B1,268.5,0.25,127,122.0
4143,F#3,268.75,0.25,127,122.0
4144,E-4,269.0,0.75,127,122.0
4145,E-3,269.0,0.5,127,122.0
4146,E-3,269.0,1.0,127,122.0
4147,B-4,269.0,0.5,127,122.0
4148,F#4,269.0,0.5,127,122.0
4149,B-3,269.0,0.5,127,122.0
4150,F#3,269.0,0.25,127,122.0
4151,D2,269.0,0.25,127,122.0
4152,F#3,269.25,0.25,127,122.0
4153,B-3,269.5,0.25,127,122.0
4154,E-3,269.5,0.75,127,122.0
4155,E-2,269.5,0.25,127,122.0
4156,F#3,269.5,0.25,127,122.0
4157,B1,269.5,0.25,127,122.0
4158,E-4,269.75,0.75,127,122.0
4159,E-3,269.75,0.5,127,122.0
4160,B-4,269.75,0.5,127,122.0
4161,F#4,269.75,0.5,127,122.0
4162,B-3,269.75,0.5,127,122.0
4163,F#3,269.75,0.25,127,122.0
4164,D2,269.75,0.25,127,122.0
4165,E-3,270.0,1.0,127,122.0
4166,F#3,270.0,0.25,127,122.0
4167,B-3,270.25,0.25,127,122.0
4168,E-3,270.25,1.25,127,122.0
4169,E-2,270.25,0.25,127,122.0
4170,F#3,270.25,0.25,127,122.0
4171,B1,270.25,0.25,127,122.0
4172,B-2,270.5,0.5,127,122.0
4173,E-4,270.5,0.5,127,122.0
4174,B-3,270.5,0.5,127,122.0
4175,F#3,270.5,0.25,127,122.0
4176,B1,270.5,0.25,127,122.0
4177,F#3,270.75,0.25,127,122.0
4178,G#2,271.0,0.5,127,122.0
4179,E-3,271.0,1.0,127,122.0
4180,E-4,271.0,0.5,127,122.0
4181,G#3,271.0,0.5,127,122.0
4182,F#3,271.0,0.25,127,122.0
4183,D2,271.0,0.25,127,122.0
4184,B1,271.0,0.25,127,122.0
4185,F#3,271.25,0.25,127,122.0
4186,F#2,271.5,0.5,127,122.0
4187,B-3,271.5,0.5,127,122.0
4188,F#3,271.5,0.5,127,122.0
4189,F#3,271.5,0.25,127,122.0
4190,D2,271.5,0.25,127,122.0
4191,B1,271.5,0.25,127,122.0
4192,F#3,271.75,0.25,127,122.0
4193,F#1,272.0,0.375,127,122.0
4194,F#5,272.0,4.0,127,122.0
4195,E-3,272.0,1.0,127,122.0
4196,B-4,272.0,1.0,127,122.0
4197,C#4,272.0,0.75,127,122.0
4198,B-3,272.0,0.75,127,122.0
4199,F#3,272.0,0.75,127,122.0
4200,C#3,272.0,0.75,127,122.0
4201,F#2,272.0,0.75,127,122.0
4202,F#3,272.0,0.25,127,122.0
4203,B1,272.0,0.25,127,122.0
4204,F#3,272.25,0.25,127,122.0
4205,F#2,272.5,0.25,127,122.0
4206,F#3,272.5,0.25,127,122.0
4207,F#3,272.75,0.25,127,122.0
4208,F#1,273.0,0.375,127,122.0
4209,E-3,273.0,1.0,127,122.0
4210,F#4,273.0,1.0,127,122.0
4211,C#4,273.0,0.75,127,122.0
4212,B-3,273.0,0.75,127,122.0
4213,F#3,273.0,0.75,127,122.0
4214,C#3,273.0,0.75,127,122.0
4215,F#2,273.0,0.75,127,122.0
4216,F#3,273.0,0.25,127,122.0
4217,D2,273.0,0.25,127,122.0
4218,B1,273.0,0.25,127,122.0
4219,F#3,273.25,0.25,127,122.0
4220,F#1,273.5,0.25,127,122.0
4221,F#3,273.5,0.25,127,122.0
4222,F#1,273.75,0.75,127,122.0
4223,F#3,273.75,0.25,127,122.0
4224,E-3,274.0,1.0,127,122.0
4225,E-4,274.0,0.5,127,122.0
4226,C#4,274.0,319/500,127,122.0
4227,B-3,274.0,319/500,127,122.0
4228,F#3,274.0,319/500,127,122.0
4229,C#3,274.0,319/500,127,122.0
4230,F#2,274.0,319/500,127,122.0
4231,F#3,274.0,0.25,127,122.0
4232,B1,274.0,0.25,127,122.0
4233,F#3,274.25,0.25,127,122.0
4234,F#1,274.5,1.0,127,122.0
4235,F#3,274.5,0.25,127,122.0
4236,F#4,274.5,1.0,127,122.0
4237,F#3,274.75,0.25,127,122.0
4238,C#4,274.75,0.5,127,122.0
4239,B-3,274.75,0.5,127,122.0
4240,F#3,274.75,0.5,127,122.0
4241,C#3,274.75,0.5,127,122.0
4242,F#2,274.75,0.5,127,122.0
4243,E-3,275.0,1.0,127,122.0
4244,F#3,275.0,0.25,127,122.0
4245,D2,275.0,0.25,127,122.0
4246,B1,275.0,0.25,127,122.0
4247,F#3,275.25,0.25,127,122.0
4248,C#4,275.25,0.25,127,122.0
4249,B-3,275.25,0.25,127,122.0
4250,F#3,275.25,0.25,127,122.0
4251,C#3,275.25,0.25,127,122.0
4252,E2,275.25,0.25,127,122.0
4253,G1,275.5,0.5,127,122.0
4254,F#3,275.5,0.25,127,122.0
4255,B-4,275.5,0.5,127,122.0
4256,C#4,275.5,0.5,127,122.0
4257,B-3,275.5,0.5,127,122.0
4258,F#3,275.5,0.5,127,122.0
4259,C#3,275.5,0.5,127,122.0
4260,F#2,275.5,0.5,127,122.0
4261,F#3,275.75,0.25,127,122.0
4262,G#1,276.0,0.375,127,122.0
4263,F#5,276.0,4.0,127,122.0
4264,E-3,276.0,1.0,127,122.0
4265,B-4,276.0,0.5,127,122.0
4266,E-4,276.0,0.75,127,122.0
4267,C4,276.0,0.75,127,122.0
4268,G#3,276.0,0.75,127,122.0
4269,E-3,276.0,0.75,127,122.0
4270,G#2,276.0,0.75,127,122.0
4271,F#3,276.0,0.25,127,122.0
4272,B1,276.0,0.25,127,122.0
4273,F#3,276.25,0.25,127,122.0
4274,G#2,276.5,0.25,127,122.0
4275,F#3,276.5,0.25,127,122.0
4276,F#4,276.5,2.0,127,122.0
4277,F#3,276.75,0.25,127,122.0
4278,G#1,277.0,0.375,127,122.0
4279,E-3,277.0,1.0,127,122.0
4280,E-4,277.0,0.75,127,122.0
4281,C4,277.0,0.75,127,122.0
4282,G#3,277.0,0.75,127,122.0
4283,E-3,277.0,0.75,127,122.0
4284,G#2,277.0,0.75,127,122.0
4285,F#3,277.0,0.25,127,122.0
4286,D2,277.0,0.25,127,122.0
4287,B1,277.0,0.25,127,122.0
4288,F#3,277.25,0.25,127,122.0
4289,G#1,277.5,0.25,127,122.0
4290,F#3,277.5,0.25,127,122.0
4291,G#1,277.75,0.75,127,122.0
4292,F#3,277.75,0.25,127,122.0
4293,E-3,278.0,1.0,127,122.0
4294,E-4,278.0,319/500,127,122.0
4295,C4,278.0,319/500,127,122.0
4296,G#3,278.0,319/500,127,122.0
4297,E-3,278.0,319/500,127,122.0
4298,G#2,278.0,319/500,127,122.0
4299,F#3,278.0,0.25,127,122.0
4300,B1,278.0,0.25,127,122.0
4301,F#3,278.25,0.25,127,122.0
4302,G#1,278.5,1.0,127,122.0
4303,F#3,278.5,0.25,127,122.0
4304,E-4,278.5,0.5,127,122.0
4305,F#3,278.75,0.25,127,122.0
4306,E-4,278.75,0.5,127,122.0
4307,C4,278.75,0.5,127,122.0
4308,G#3,278.75,0.5,127,122.0
4309,E-3,278.75,0.5,127,122.0
4310,G#2,278.75,0.5,127,122.0
4311,E-3,279.0,1.0,127,122.0
4312,F#4,279.0,1.0,127,122.0
4313,F#3,279.0,0.25,127,122.0
4314,D2,279.0,0.25,127,122.0
4315,B1,279.0,0.25,127,122.0
4316,F#3,279.25,0.25,127,122.0
4317,E-4,279.25,0.25,127,122.0
4318,C4,279.25,0.25,127,122.0
4319,G#3,279.25,0.25,127,122.0
4320,E-3,279.25,0.25,127,122.0
4321,E2,279.25,0.25,127,122.0
4322,B-1,279.5,0.5,127,122.0
4323,F#3,279.5,0.25,127,122.0
4324,E-4,279.5,0.5,127,122.0
4325,C4,279.5,0.5,127,122.0
4326,G#3,279.5,0.5,127,122.0
4327,E-3,279.5,0.5,127,122.0
4328,G#2,279.5,0.5,127,122.0
4329,F#3,279.75,0.25,127,122.0
4330,B1,280.0,0.375,127,122.0
4331,F#5,280.0,4.0,127,122.0
4332,E-3,280.0,1.0,127,122.0
4333,B-4,280.0,0.5,127,122.0
4334,F#4,280.0,0.75,127,122.0
4335,E-4,280.0,0.75,127,122.0
4336,B3,280.0,0.75,127,122.0
4337,F#3,280.0,0.75,127,122.0
4338,B2,280.0,0.75,127,122.0
4339,F#3,280.0,0.25,127,122.0
4340,B1,280.0,0.25,127,122.0
4341,F#3,280.25,0.25,127,122.0
4342,B2,280.5,0.25,127,122.0
4343,F#3,280.5,0.25,127,122.0
4344,G#4,280.5,3.5,127,122.0
4345,F#3,280.75,0.25,127,122.0
4346,B1,281.0,0.375,127,122.0
4347,E-3,281.0,1.0,127,122.0
4348,F#4,281.0,0.75,127,122.0
4349,E-4,281.0,0.75,127,122.0
4350,B3,281.0,0.75,127,122.0
4351,F#3,281.0,0.75,127,122.0
4352,B2,281.0,0.75,127,122.0
4353,F#3,281.0,0.25,127,122.0
4354,D2,281.0,0.25,127,122.0
4355,B1,281.0,0.25,127,122.0
4356,F#3,281.25,0.25,127,122.0
4357,B1,281.5,0.25,127,122.0
4358,F#3,281.5,0.25,127,122.0
4359,B1,281.75,0.75,127,122.0
4360,F#3,281.75,0.25,127,122.0
4361,E-3,282.0,1.0,127,122.0
4362,F#4,282.0,319/500,127,122.0
4363,E-4,282.0,319/500,127,122.0
4364,B3,282.0,319/500,127,122.0
4365,F#3,282.0,319/500,127,122.0
4366,B2,282.0,319/500,127,122.0
4367,F#3,282.0,0.25,127,122.0
4368,B1,282.0,0.25,127,122.0
4369,F#3,282.25,0.25,127,122.0
4370,C#2,282.5,1.0,127,122.0
4371,F#3,282.5,0.25,127,122.0
4372,F#3,282.75,0.25,127,122.0
4373,F#4,282.75,0.5,127,122.0
4374,E-4,282.75,0.5,127,122.0
4375,B3,282.75,0.5,127,122.0
4376,F#3,282.75,0.5,127,122.0
4377,B2,282.75,0.5,127,122.0
4378,E-3,283.0,1.0,127,122.0
4379,F#3,283.0,0.25,127,122.0
4380,D2,283.0,0.25,127,122.0
4381,B1,283.0,0.25,127,122.0
4382,F#3,283.25,0.25,127,122.0
4383,F#4,283.25,0.25,127,122.0
4384,E-4,283.25,0.25,127,122.0
4385,B3,283.25,0.25,127,122.0
4386,F#3,283.25,0.25,127,122.0
4387,B2,283.25,0.25,127,122.0
4388,B1,283.5,0.5,127,122.0
4389,F#3,283.5,0.25,127,122.0
4390,F#4,283.5,0.5,127,122.0
4391,E-4,283.5,0.5,127,122.0
4392,B3,283.5,0.5,127,122.0
4393,F#3,283.5,0.5,127,122.0
4394,B2,283.5,0.5,127,122.0
4395,F#3,283.75,0.25,127,122.0
4396,E-2,284.0,0.5,127,122.0
4397,F#5,284.0,4.0,127,122.0
4398,E-3,284.0,1.0,127,122.0
4399,F#4,284.0,1.5,127,122.0
4400,B-4,284.0,1.0,127,122.0
4401,F#4,284.0,1.0,127,122.0
4402,E-4,284.0,1.0,127,122.0
4403,B-3,284.0,0.5,127,122.0
4404,E-3,284.0,0.5,127,122.0
4405,F#3,284.0,0.25,127,122.0
4406,D2,284.0,0.25,127,122.0
4407,F#3,284.25,0.25,127,122.0
4408,B-3,284.5,0.5,127,122.0
4409,E-3,284.5,1.0,127,122.0
4410,B-1,284.5,0.5,127,122.0
4411,F#3,284.5,0.25,127,122.0
4412,B1,284.5,0.25,127,122.0
4413,F#3,284.75,0.25,127,122.0
4414,E-4,285.0,0.75,127,122.0
4415,E-3,285.0,0.5,127,122.0
4416,E-3,285.0,1.0,127,122.0
4417,B-4,285.0,0.5,127,122.0
4418,F#4,285.0,0.5,127,122.0
4419,B-3,285.0,0.5,127,122.0
4420,F#3,285.0,0.25,127,122.0
4421,D2,285.0,0.25,127,122.0
4422,F#3,285.25,0.25,127,122.0
4423,B-3,285.5,0.25,127,122.0
4424,E-3,285.5,0.75,127,122.0
4425,E-2,285.5,0.25,127,122.0
4426,F#3,285.5,0.25,127,122.0
4427,B1,285.5,0.25,127,122.0
4428,E-4,285.75,0.75,127,122.0
4429,E-3,285.75,0.5,127,122.0
4430,B-4,285.75,0.5,127,122.0
4431,F#4,285.75,0.5,127,122.0
4432,B-3,285.75,0.5,127,122.0
4433,F#3,285.75,0.25,127,122.0
4434,D2,285.75,0.25,127,122.0
4435,E-3,286.0,1.0,127,122.0
4436,F#3,286.0,0.25,127,122.0
4437,B-3,286.25,0.25,127,122.0
4438,E-3,286.25,1.25,127,122.0
4439,E-2,286.25,0.25,127,122.0
4440,F#3,286.25,0.25,127,122.0
4441,B1,286.25,0.25,127,122.0
4442,B-2,286.5,0.5,127,122.0
4443,E-4,286.5,0.5,127,122.0
4444,B-3,286.5,0.5,127,122.0
4445,F#3,286.5,0.25,127,122.0
4446,B1,286.5,0.25,127,122.0
4447,F#3,286.75,0.25,127,122.0
4448,G#2,287.0,0.5,127,122.0
4449,E-3,287.0,1.0,127,122.0
4450,E-4,287.0,0.5,127,122.0
4451,G#3,287.0,0.5,127,122.0
4452,F#3,287.0,0.25,127,122.0
4453,D2,287.0,0.25,127,122.0
4454,B1,287.0,0.25,127,122.0
4455,F#3,287.25,0.25,127,122.0
4456,F#2,287.5,0.5,127,122.0
4457,B-3,287.5,0.5,127,122.0
4458,F#3,287.5,0.5,127,122.0
4459,F#3,287.5,0.25,127,122.0
4460,D2,287.5,0.25,127,122.0
4461,B1,287.5,0.25,127,122.0
4462,F#3,287.75,0.25,127,122.0
4463,E-2,288.0,4/5,127,122.0
4464,B-5,288.0,3.0,127,122.0
4465,B-4,288.0,0.75,127,122.0
4466,F#4,288.0,0.75,127,122.0
4467,E-4,288.0,0.75,127,122.0
4468,B-3,288.0,0.75,127,122.0
4469,E-3,288.0,0.75,127,122.0
4470,E-3,288.0,0.5,127,122.0
4471,F#3,288.0,0.5,127,122.0
4472,B1,288.0,0.5,127,122.0
4473,F#3,288.5,0.5,127,122.0
4474,E-2,289.0,4/5,127,122.0
4475,B-4,289.0,0.75,127,122.0
4476,F#4,289.0,0.75,127,122.0
4477,E-4,289.0,0.75,127,122.0
4478,B-3,289.0,0.75,127,122.0
4479,E-3,289.0,0.75,127,122.0
4480,F#3,289.0,0.5,127,122.0
4481,D2,289.0,0.5,127,122.0
4482,F#3,289.5,0.25,127,122.0
4483,B1,289.5,0.25,127,122.0
4484,F#3,289.75,0.25,127,122.0
4485,B1,289.75,0.25,127,122.0
4486,E-2,290.0,3/5,127,122.0
4487,B-4,290.0,319/500,127,122.0
4488,F#4,290.0,319/500,127,122.0
4489,E-4,290.0,319/500,127,122.0
4490,B-3,290.0,319/500,127,122.0
4491,E-3,290.0,319/500,127,122.0
4492,F#3,290.5,0.5,127,122.0
4493,B1,290.5,0.5,127,122.0
4494,E-2,290.75,0.5,127,122.0
4495,B-4,290.75,0.5,127,122.0
4496,F#4,290.75,0.5,127,122.0
4497,E-4,290.75,0.5,127,122.0
4498,B-3,290.75,0.5,127,122.0
4499,E-3,290.75,0.5,127,122.0
4500,B-5,291.0,0.25,127,122.0
4501,F#3,291.0,0.5,127,122.0
4502,D2,291.0,0.5,127,122.0
4503,B1,291.25,0.25,127,122.0
4504,B5,291.25,0.25,127,122.0
4505,B-4,291.25,0.25,127,122.0
4506,F#4,291.25,0.25,127,122.0
4507,E-4,291.25,0.25,127,122.0
4508,B3,291.25,0.25,127,122.0
4509,E-3,291.25,0.25,127,122.0
4510,E-2,291.5,0.5,127,122.0
4511,B-5,291.5,0.5,127,122.0
4512,B-4,291.5,0.5,127,122.0
4513,F#4,291.5,0.5,127,122.0
4514,E-4,291.5,0.5,127,122.0
4515,B-3,291.5,0.5,127,122.0
4516,E-3,291.5,0.5,127,122.0
4517,F#3,291.5,0.5,127,122.0
4518,B1,291.5,0.5,127,122.0
4519,G#2,292.0,4/5,127,122.0
4520,G#5,292.0,3.0,127,122.0
4521,E-4,292.0,0.75,127,122.0
4522,C4,292.0,0.75,127,122.0
4523,G#3,292.0,0.75,127,122.0
4524,E-3,292.0,0.75,127,122.0
4525,G#2,292.0,0.75,127,122.0
4526,F#3,292.0,0.5,127,122.0
4527,B1,292.0,0.5,127,122.0
4528,F#3,292.5,0.5,127,122.0
4529,G#2,293.0,4/5,127,122.0
4530,E-4,293.0,0.75,127,122.0
4531,C4,293.0,0.75,127,122.0
4532,G#3,293.0,0.75,127,122.0
4533,E-3,293.0,0.75,127,122.0
4534,G#2,293.0,0.75,127,122.0
4535,F#3,293.0,0.5,127,122.0
4536,D2,293.0,0.5,127,122.0
4537,F#3,293.5,0.25,127,122.0
4538,B1,293.5,0.25,127,122.0
4539,F#3,293.75,0.25,127,122.0
4540,B1,293.75,0.25,127,122.0
4541,G#2,294.0,3/5,127,122.0
4542,E-4,294.0,319/500,127,122.0
4543,C4,294.0,319/500,127,122.0
4544,G#3,294.0,319/500,127,122.0
4545,E-3,294.0,319/500,127,122.0
4546,G#2,294.0,319/500,127,122.0
4547,F#3,294.5,0.5,127,122.0
4548,B1,294.5,0.5,127,122.0
4549,G#2,294.75,0.5,127,122.0
4550,E-4,294.75,0.5,127,122.0
4551,C4,294.75,0.5,127,122.0
4552,G#3,294.75,0.5,127,122.0
4553,E-3,294.75,0.5,127,122.0
4554,G#2,294.75,0.5,127,122.0
4555,G#5,295.0,0.25,127,122.0
4556,F#3,295.0,0.5,127,122.0
4557,D2,295.0,0.5,127,122.0
4558,G#2,295.25,0.25,127,122.0
4559,B-5,295.25,0.25,127,122.0
4560,E-4,295.25,0.25,127,122.0
4561,C4,295.25,0.25,127,122.0
4562,G#3,295.25,0.25,127,122.0
4563,E-3,295.25,0.25,127,122.0
4564,E2,295.25,0.25,127,122.0
4565,B-2,295.5,0.5,127,122.0
4566,G#5,295.5,0.5,127,122.0
4567,E-4,295.5,0.5,127,122.0
4568,C4,295.5,0.5,127,122.0
4569,G#3,295.5,0.5,127,122.0
4570,E-3,295.5,0.5,127,122.0
4571,G#2,295.5,0.5,127,122.0
4572,F#3,295.5,0.5,127,122.0
4573,B1,295.5,0.5,127,122.0
4574,B2,296.0,4/5,127,122.0
4575,B5,296.0,3.0,127,122.0
4576,F#4,296.0,0.75,127,122.0
4577,E-4,296.0,0.75,127,122.0
4578,B3,296.0,0.75,127,122.0
4579,F#3,296.0,0.75,127,122.0
4580,B2,296.0,0.75,127,122.0
4581,F#3,296.0,0.5,127,122.0
4582,B1,296.0,0.5,127,122.0
4583,F#3,296.5,0.5,127,122.0
4584,B2,297.0,4/5,127,122.0
4585,F#4,297.0,0.75,127,122.0
4586,E-4,297.0,0.75,127,122.0
4587,B3,297.0,0.75,127,122.0
4588,F#3,297.0,0.75,127,122.0
4589,B2,297.0,0.75,127,122.0
4590,F#3,297.0,0.5,127,122.0
4591,D2,297.0,0.5,127,122.0
4592,F#3,297.5,0.25,127,122.0
4593,B1,297.5,0.25,127,122.0
4594,F#3,297.75,0.25,127,122.0
4595,B1,297.75,0.25,127,122.0
4596,B2,298.0,3/5,127,122.0
4597,F#4,298.0,319/500,127,122.0
4598,E-4,298.0,319/500,127,122.0
4599,B3,298.0,319/500,127,122.0
4600,F#3,298.0,319/500,127,122.0
4601,B2,298.0,319/500,127,122.0
4602,F#3,298.5,0.5,127,122.0
4603,B1,298.5,0.5,127,122.0
4604,B2,298.75,0.5,127,122.0
4605,F#4,298.75,0.5,127,122.0
4606,E-4,298.75,0.5,127,122.0
4607,B3,298.75,0.5,127,122.0
4608,F#3,298.75,0.5,127,122.0
4609,B2,298.75,0.5,127,122.0
4610,B5,299.0,0.25,127,122.0
4611,F#3,299.0,0.5,127,122.0
4612,D2,299.0,0.5,127,122.0
4613,B2,299.25,0.25,127,122.0
4614,C#6,299.25,0.25,127,122.0
4615,F#4,299.25,0.25,127,122.0
4616,E-4,299.25,0.25,127,122.0
4617,B3,299.25,0.25,127,122.0
4618,F#3,299.25,0.25,127,122.0
4619,B2,299.25,0.25,127,122.0
4620,C#3,299.5,0.5,127,122.0
4621,B5,299.5,0.5,127,122.0
4622,F#4,299.5,0.5,127,122.0
4623,E-4,299.5,0.5,127,122.0
4624,B3,299.5,0.5,127,122.0
4625,F#3,299.5,0.5,127,122.0
4626,B2,299.5,0.5,127,122.0
4627,F#3,299.5,0.5,127,122.0
4628,B1,299.5,0.5,127,122.0
4629,E-2,300.0,0.5,127,122.0
4630,B-5,300.0,3.0,127,122.0
4631,B-4,300.0,1.0,127,122.0
4632,F#4,300.0,1.0,127,122.0
4633,E-4,300.0,1.0,127,122.0
4634,B-3,300.0,0.5,127,122.0
4635,E-3,300.0,0.5,127,122.0
4636,F#3,300.0,0.5,127,122.0
4637,B1,300.0,0.5,127,122.0
4638,B-3,300.5,0.5,127,122.0
4639,E-3,300.5,1.0,127,122.0
4640,B-1,300.5,0.5,127,122.0
4641,E-5,300.5,0.5,127,122.0
4642,F#3,300.5,0.5,127,122.0
4643,E-4,301.0,0.75,127,122.0
4644,E-3,301.0,0.5,127,122.0
4645,E-6,301.0,0.5,127,122.0
4646,B-4,301.0,0.5,127,122.0
4647,F#4,301.0,0.5,127,122.0
4648,B-3,301.0,0.5,127,122.0
4649,F#3,301.0,0.5,127,122.0
4650,D2,301.0,0.5,127,122.0
4651,B-3,301.5,0.25,127,122.0
4652,E-3,301.5,0.75,127,122.0
4653,E-2,301.5,0.25,127,122.0
4654,E-5,301.5,0.25,127,122.0
4655,F#3,301.5,0.25,127,122.0
4656,B1,301.5,0.25,127,122.0
4657,E-4,301.75,0.75,127,122.0
4658,E-3,301.75,0.5,127,122.0
4659,E-6,301.75,0.5,127,122.0
4660,B-4,301.75,0.5,127,122.0
4661,F#4,301.75,0.5,127,122.0
4662,B-3,301.75,0.5,127,122.0
4663,F#3,301.75,0.25,127,122.0
4664,B1,301.75,0.25,127,122.0
4665,B-3,302.25,0.25,127,122.0
4666,E-3,302.25,1.25,127,122.0
4667,E-2,302.25,0.25,127,122.0
4668,E-5,302.25,0.25,127,122.0
4669,B-2,302.5,0.5,127,122.0
4670,B-5,302.5,1.5,127,122.0
4671,E-4,302.5,0.5,127,122.0
4672,B-3,302.5,0.5,127,122.0
4673,F#3,302.5,0.5,127,122.0
4674,B1,302.5,0.5,127,122.0
4675,G#2,303.0,0.5,127,122.0
4676,G#5,303.0,0.5,127,122.0
4677,E-4,303.0,0.5,127,122.0
4678,G#3,303.0,0.5,127,122.0
4679,F#3,303.0,0.5,127,122.0
4680,D2,303.0,0.5,127,122.0
4681,F#2,303.5,0.5,127,122.0
4682,F#5,303.5,0.5,127,122.0
4683,B-3,303.5,0.5,127,122.0
4684,F#3,303.5,0.5,127,122.0
4685,F#3,303.5,0.5,127,122.0
4686,B1,303.5,0.5,127,122.0
4687,E-2,304.0,4/5,127,122.0
4688,B-5,304.0,3.0,127,122.0
4689,B-4,304.0,0.75,127,122.0
4690,F#4,304.0,0.75,127,122.0
4691,E-4,304.0,0.75,127,122.0
4692,B-3,304.0,0.75,127,122.0
4693,E-3,304.0,0.75,127,122.0
4694,F#3,304.0,0.5,127,122.0
4695,B1,304.0,0.5,127,122.0
4696,F#3,304.5,0.5,127,122.0
4697,E-2,305.0,4/5,127,122.0
4698,B-4,305.0,0.75,127,122.0
4699,F#4,305.0,0.75,127,122.0
4700,E-4,305.0,0.75,127,122.0
4701,B-3,305.0,0.75,127,122.0
4702,E-3,305.0,0.75,127,122.0
4703,F#3,305.0,0.5,127,122.0
4704,D2,305.0,0.5,127,122.0
4705,F#3,305.5,0.25,127,122.0
4706,B1,305.5,0.25,127,122.0
4707,F#3,305.75,0.25,127,122.0
4708,B1,305.75,0.25,127,122.0
4709,E-2,306.0,3/5,127,122.0
4710,B-4,306.0,319/500,127,122.0
4711,F#4,306.0,319/500,127,122.0
4712,E-4,306.0,319/500,127,122.0
4713,B-3,306.0,319/500,127,122.0
4714,E-3,306.0,319/500,127,122.0
4715,F#3,306.5,0.5,127,122.0
4716,B1,306.5,0.5,127,122.0
4717,E-2,306.75,0.5,127,122.0
4718,B-4,306.75,0.5,127,122.0
4719,F#4,306.75,0.5,127,122.0
4720,E-4,306.75,0.5,127,122.0
4721,B-3,306.75,0.5,127,122.0
4722,E-3,306.75,0.5,127,122.0
4723,B-5,307.0,0.25,127,122.0
4724,F#3,307.0,0.5,127,122.0
4725,D2,307.0,0.5,127,122.0
4726,B1,307.25,0.25,127,122.0
4727,B5,307.25,0.25,127,122.0
4728,B-4,307.25,0.25,127,122.0
4729,F#4,307.25,0.25,127,122.0
4730,E-4,307.25,0.25,127,122.0
4731,B3,307.25,0.25,127,122.0
4732,E-3,307.25,0.25,127,122.0
4733,E-2,307.5,0.5,127,122.0
4734,B-5,307.5,0.5,127,122.0
4735,B-4,307.5,0.5,127,122.0
4736,F#4,307.5,0.5,127,122.0
4737,E-4,307.5,0.5,127,122.0
4738,B-3,307.5,0.5,127,122.0
4739,E-3,307.5,0.5,127,122.0
4740,F#3,307.5,0.5,127,122.0
4741,B1,307.5,0.5,127,122.0
4742,G#2,308.0,4/5,127,122.0
4743,G#5,308.0,3.0,127,122.0
4744,E-4,308.0,0.75,127,122.0
4745,C4,308.0,0.75,127,122.0
4746,G#3,308.0,0.75,127,122.0
4747,E-3,308.0,0.75,127,122.0
4748,G#2,308.0,0.75,127,122.0
4749,F#3,308.0,0.5,127,122.0
4750,B1,308.0,0.5,127,122.0
4751,F#3,308.5,0.5,127,122.0
4752,G#2,309.0,4/5,127,122.0
4753,E-4,309.0,0.75,127,122.0
4754,C4,309.0,0.75,127,122.0
4755,G#3,309.0,0.75,127,122.0
4756,E-3,309.0,0.75,127,122.0
4757,G#2,309.0,0.75,127,122.0
4758,F#3,309.0,0.5,127,122.0
4759,D2,309.0,0.5,127,122.0
4760,F#3,309.5,0.25,127,122.0
4761,B1,309.5,0.25,127,122.0
4762,F#3,309.75,0.25,127,122.0
4763,B1,309.75,0.25,127,122.0
4764,G#2,310.0,3/5,127,122.0
4765,E-4,310.0,319/500,127,122.0
4766,C4,310.0,319/500,127,122.0
4767,G#3,310.0,319/500,127,122.0
4768,E-3,310.0,319/500,127,122.0
4769,G#2,310.0,319/500,127,122.0
4770,F#3,310.5,0.5,127,122.0
4771,B1,310.5,0.5,127,122.0
4772,G#2,310.75,0.5,127,122.0
4773,E-4,310.75,0.5,127,122.0
4774,C4,310.75,0.5,127,122.0
4775,G#3,310.75,0.5,127,122.0
4776,E-3,310.75,0.5,127,122.0
4777,G#2,310.75,0.5,127,122.0
4778,G#5,311.0,0.25,127,122.0
4779,F#3,311.0,0.5,127,122.0
4780,D2,311.0,0.5,127,122.0
4781,G#2,311.25,0.25,127,122.0
4782,B-5,311.25,0.25,127,122.0
4783,E-4,311.25,0.25,127,122.0
4784,C4,311.25,0.25,127,122.0
4785,G#3,311.25,0.25,127,122.0
4786,E-3,311.25,0.25,127,122.0
4787,E2,311.25,0.25,127,122.0
4788,B-2,311.5,0.5,127,122.0
4789,G#5,311.5,0.5,127,122.0
4790,E-4,311.5,0.5,127,122.0
4791,C4,311.5,0.5,127,122.0
4792,G#3,311.5,0.5,127,122.0
4793,E-3,311.5,0.5,127,122.0
4794,G#2,311.5,0.5,127,122.0
4795,F#3,311.5,0.5,127,122.0
4796,B1,311.5,0.5,127,122.0
4797,B2,312.0,4/5,127,122.0
4798,B5,312.0,3.0,127,122.0
4799,F#4,312.0,0.75,127,122.0
4800,E-4,312.0,0.75,127,122.0
4801,B3,312.0,0.75,127,122.0
4802,F#3,312.0,0.75,127,122.0
4803,B2,312.0,0.75,127,122.0
4804,F#3,312.0,0.5,127,122.0
4805,B1,312.0,0.5,127,122.0
4806,F#3,312.5,0.5,127,122.0
4807,B2,313.0,4/5,127,122.0
4808,F#4,313.0,0.75,127,122.0
4809,E-4,313.0,0.75,127,122.0
4810,B3,313.0,0.75,127,122.0
4811,F#3,313.0,0.75,127,122.0
4812,B2,313.0,0.75,127,122.0
4813,F#3,313.0,0.5,127,122.0
4814,D2,313.0,0.5,127,122.0
4815,F#3,313.5,0.25,127,122.0
4816,B1,313.5,0.25,127,122.0
4817,F#3,313.75,0.25,127,122.0
4818,B1,313.75,0.25,127,122.0
4819,B2,314.0,3/5,127,122.0
4820,F#4,314.0,319/500,127,122.0
4821,E-4,314.0,319/500,127,122.0
4822,B3,314.0,319/500,127,122.0
4823,F#3,314.0,319/500,127,122.0
4824,B2,314.0,319/500,127,122.0
4825,F#3,314.5,0.5,127,122.0
4826,B1,314.5,0.5,127,122.0
4827,B2,314.75,0.5,127,122.0
4828,F#4,314.75,0.5,127,122.0
4829,E-4,314.75,0.5,127,122.0
4830,B3,314.75,0.5,127,122.0
4831,F#3,314.75,0.5,127,122.0
4832,B2,314.75,0.5,127,122.0
4833,B5,315.0,0.25,127,122.0
4834,F#3,315.0,0.5,127,122.0
4835,D2,315.0,0.5,127,122.0
4836,B2,315.25,0.25,127,122.0
4837,C#6,315.25,0.25,127,122.0
4838,F#4,315.25,0.25,127,122.0
4839,E-4,315.25,0.25,127,122.0
4840,B3,315.25,0.25,127,122.0
4841,F#3,315.25,0.25,127,122.0
4842,B2,315.25,0.25,127,122.0
4843,C#3,315.5,0.5,127,122.0
4844,B5,315.5,0.5,127,122.0
4845,F#4,315.5,0.5,127,122.0
4846,E-4,315.5,0.5,127,122.0
4847,B3,315.5,0.5,127,122.0
4848,F#3,315.5,0.5,127,122.0
4849,B2,315.5,0.5,127,122.0
4850,F#3,315.5,0.5,127,122.0
4851,B1,315.5,0.5,127,122.0
4852,E-2,316.0,0.5,127,122.0
4853,B-5,316.0,3.0,127,122.0
4854,B-4,316.0,1.0,127,122.0
4855,F#4,316.0,1.0,127,122.0
4856,E-4,316.0,1.0,127,122.0
4857,B-3,316.0,0.5,127,122.0
4858,E-3,316.0,0.5,127,122.0
4859,F#3,316.0,0.5,127,122.0
4860,B1,316.0,0.5,127,122.0
4861,B-3,316.5,0.5,127,122.0
4862,E-3,316.5,1.0,127,122.0
4863,B-1,316.5,0.5,127,122.0
4864,E-5,316.5,0.5,127,122.0
4865,F#3,316.5,0.5,127,122.0
4866,E-4,317.0,0.75,127,122.0
4867,E-3,317.0,0.5,127,122.0
4868,E-6,317.0,0.5,127,122.0
4869,B-4,317.0,0.5,127,122.0
4870,F#4,317.0,0.5,127,122.0
4871,B-3,317.0,0.5,127,122.0
4872,F#3,317.0,0.5,127,122.0
4873,D2,317.0,0.5,127,122.0
4874,B-3,317.5,0.25,127,122.0
4875,E-3,317.5,0.75,127,122.0
4876,E-2,317.5,0.25,127,122.0
4877,E-5,317.5,0.25,127,122.0
4878,F#3,317.5,0.25,127,122.0
4879,B1,317.5,0.25,127,122.0
4880,E-4,317.75,0.75,127,122.0
4881,E-3,317.75,0.5,127,122.0
4882,E-6,317.75,0.5,127,122.0
4883,B-4,317.75,0.5,127,122.0
4884,F#4,317.75,0.5,127,122.0
4885,B-3,317.75,0.5,127,122.0
4886,F#3,317.75,0.25,127,122.0
4887,B1,317.75,0.25,127,122.0
4888,B-3,318.25,0.25,127,122.0
4889,E-3,318.25,1.25,127,122.0
4890,E-2,318.25,0.25,127,122.0
4891,E-5,318.25,0.25,127,122.0
4892,B-2,318.5,0.5,127,122.0
4893,B-5,318.5,1.5,127,122.0
4894,E-4,318.5,0.5,127,122.0
4895,B-3,318.5,0.5,127,122.0
4896,F#3,318.5,0.5,127,122.0
4897,B1,318.5,0.5,127,122.0
4898,G#2,319.0,0.5,127,122.0
4899,G#5,319.0,0.5,127,122.0
4900,E-4,319.0,0.5,127,122.0
4901,G#3,319.0,0.5,127,122.0
4902,F#3,319.0,0.5,127,122.0
4903,D2,319.0,0.5,127,122.0
4904,F#2,319.5,0.5,127,122.0
4905,F#5,319.5,0.5,127,122.0
4906,B-3,319.5,0.5,127,122.0
4907,F#3,319.5,0.5,127,122.0
4908,F#3,319.5,0.5,127,122.0
4909,B1,319.5,0.5,127,122.0
4910,F#1,320.0,0.375,127,122.0
4911,F#6,320.0,4.0,127,122.0
4912,E-3,320.0,1.0,127,122.0
4913,F#4,320.0,1.0,127,122.0
4914,C#4,320.0,0.75,127,122.0
4915,B-3,320.0,0.75,127,122.0
4916,F#3,320.0,0.75,127,122.0
4917,C#3,320.0,0.75,127,122.0
4918,F#2,320.0,0.75,127,122.0
4919,F#3,320.0,0.25,127,122.0
4920,B1,320.0,0.25,127,122.0
4921,F#3,320.25,0.25,127,122.0
4922,F#2,320.5,0.25,127,122.0
4923,F#3,320.5,0.25,127,122.0
4924,F#3,320.75,0.25,127,122.0
4925,F#1,321.0,0.375,127,122.0
4926,E-3,321.0,1.0,127,122.0
4927,E-4,321.0,1.0,127,122.0
4928,C#4,321.0,0.75,127,122.0
4929,B-3,321.0,0.75,127,122.0
4930,F#3,321.0,0.75,127,122.0
4931,C#3,321.0,0.75,127,122.0
4932,F#2,321.0,0.75,127,122.0
4933,F#3,321.0,0.25,127,122.0
4934,D2,321.0,0.25,127,122.0
4935,B1,321.0,0.25,127,122.0
4936,F#3,321.25,0.25,127,122.0
4937,F#1,321.5,0.25,127,122.0
4938,F#3,321.5,0.25,127,122.0
4939,F#1,321.75,0.75,127,122.0
4940,F#3,321.75,0.25,127,122.0
4941,E-3,322.0,1.0,127,122.0
4942,C#4,322.0,0.5,127,122.0
4943,C#4,322.0,319/500,127,122.0
4944,B-3,322.0,319/500,127,122.0
4945,F#3,322.0,319/500,127,122.0
4946,C#3,322.0,319/500,127,122.0
4947,F#2,322.0,319/500,127,122.0
4948,F#3,322.0,0.25,127,122.0
4949,B1,322.0,0.25,127,122.0
4950,F#3,322.25,0.25,127,122.0
4951,F#1,322.5,1.0,127,122.0
4952,F#3,322.5,0.25,127,122.0
4953,E-4,322.5,1.0,127,122.0
4954,F#3,322.75,0.25,127,122.0
4955,C#4,322.75,0.5,127,122.0
4956,B-3,322.75,0.5,127,122.0
4957,F#3,322.75,0.5,127,122.0
4958,C#3,322.75,0.5,127,122.0
4959,F#2,322.75,0.5,127,122.0
4960,E-3,323.0,1.0,127,122.0
4961,F#3,323.0,0.25,127,122.0
4962,D2,323.0,0.25,127,122.0
4963,B1,323.0,0.25,127,122.0
4964,F#3,323.25,0.25,127,122.0
4965,C#4,323.25,0.25,127,122.0
4966,B-3,323.25,0.25,127,122.0
4967,F#3,323.25,0.25,127,122.0
4968,C#3,323.25,0.25,127,122.0
4969,E2,323.25,0.25,127,122.0
4970,G1,323.5,0.5,127,122.0
4971,F#3,323.5,0.25,127,122.0
4972,G#4,323.5,0.5,127,122.0
4973,C#4,323.5,0.5,127,122.0
4974,B-3,323.5,0.5,127,122.0
4975,F#3,323.5,0.5,127,122.0
4976,C#3,323.5,0.5,127,122.0
4977,F#2,323.5,0.5,127,122.0
4978,F#3,323.75,0.25,127,122.0
4979,G#1,324.0,0.375,127,122.0
4980,F#6,324.0,4.0,127,122.0
4981,E-3,324.0,1.0,127,122.0
4982,G#4,324.0,0.5,127,122.0
4983,E-4,324.0,0.75,127,122.0
4984,C4,324.0,0.75,127,122.0
4985,G#3,324.0,0.75,127,122.0
4986,E-3,324.0,0.75,127,122.0
4987,G#2,324.0,0.75,127,122.0
4988,F#3,324.0,0.25,127,122.0
4989,B1,324.0,0.25,127,122.0
4990,F#3,324.25,0.25,127,122.0
4991,G#2,324.5,0.25,127,122.0
4992,F#3,324.5,0.25,127,122.0
4993,E-4,324.5,2.0,127,122.0
4994,F#3,324.75,0.25,127,122.0
4995,G#1,325.0,0.375,127,122.0
4996,E-3,325.0,1.0,127,122.0
4997,E-4,325.0,0.75,127,122.0
4998,C4,325.0,0.75,127,122.0
4999,G#3,325.0,0.75,127,122.0
5000,E-3,325.0,0.75,127,122.0
5001,G#2,325.0,0.75,127,122.0
5002,F#3,325.0,0.25,127,122.0
5003,D2,325.0,0.25,127,122.0
5004,B1,325.0,0.25,127,122.0
5005,F#3,325.25,0.25,127,122.0
5006,G#1,325.5,0.25,127,122.0
5007,F#3,325.5,0.25,127,122.0
5008,G#1,325.75,0.75,127,122.0
5009,F#3,325.75,0.25,127,122.0
5010,E-3,326.0,1.0,127,122.0
5011,E-4,326.0,319/500,127,122.0
5012,C4,326.0,319/500,127,122.0
5013,G#3,326.0,319/500,127,122.0
5014,E-3,326.0,319/500,127,122.0
5015,G#2,326.0,319/500,127,122.0
5016,F#3,326.0,0.25,127,122.0
5017,B1,326.0,0.25,127,122.0
5018,F#3,326.25,0.25,127,122.0
5019,G#1,326.5,1.0,127,122.0
5020,F#3,326.5,0.25,127,122.0
5021,C#4,326.5,1.5,127,122.0
5022,F#3,326.75,0.25,127,122.0
5023,E-4,326.75,0.5,127,122.0
5024,C4,326.75,0.5,127,122.0
5025,G#3,326.75,0.5,127,122.0
5026,E-3,326.75,0.5,127,122.0
5027,G#2,326.75,0.5,127,122.0
5028,E-3,327.0,1.0,127,122.0
5029,F#3,327.0,0.25,127,122.0
5030,D2,327.0,0.25,127,122.0
5031,B1,327.0,0.25,127,122.0
5032,F#3,327.25,0.25,127,122.0
5033,E-4,327.25,0.25,127,122.0
5034,C4,327.25,0.25,127,122.0
5035,G#3,327.25,0.25,127,122.0
5036,E-3,327.25,0.25,127,122.0
5037,E2,327.25,0.25,127,122.0
5038,B-1,327.5,0.5,127,122.0
5039,F#3,327.5,0.25,127,122.0
5040,E-4,327.5,0.5,127,122.0
5041,C4,327.5,0.5,127,122.0
5042,G#3,327.5,0.5,127,122.0
5043,E-3,327.5,0.5,127,122.0
5044,G#2,327.5,0.5,127,122.0
5045,F#3,327.75,0.25,127,122.0
5046,B1,328.0,0.375,127,122.0
5047,F#6,328.0,4.0,127,122.0
5048,E-3,328.0,1.0,127,122.0
5049,B-4,328.0,0.5,127,122.0
5050,F#4,328.0,0.75,127,122.0
5051,E-4,328.0,0.75,127,122.0
5052,B3,328.0,0.75,127,122.0
5053,F#3,328.0,0.75,127,122.0
5054,B2,328.0,0.75,127,122.0
5055,F#3,328.0,0.25,127,122.0
5056,B1,328.0,0.25,127,122.0
5057,F#3,328.25,0.25,127,122.0
5058,B2,328.5,0.25,127,122.0
5059,F#3,328.5,0.25,127,122.0
5060,G#4,328.5,3.5,127,122.0
5061,F#3,328.75,0.25,127,122.0
5062,B1,329.0,0.375,127,122.0
5063,E-3,329.0,1.0,127,122.0
5064,F#4,329.0,0.75,127,122.0
5065,E-4,329.0,0.75,127,122.0
5066,B3,329.0,0.75,127,122.0
5067,F#3,329.0,0.75,127,122.0
5068,B2,329.0,0.75,127,122.0
5069,F#3,329.0,0.25,127,122.0
5070,D2,329.0,0.25,127,122.0
5071,B1,329.0,0.25,127,122.0
5072,F#3,329.25,0.25,127,122.0
5073,B1,329.5,0.25,127,122.0
5074,F#3,329.5,0.25,127,122.0
5075,B1,329.75,0.75,127,122.0
5076,F#3,329.75,0.25,127,122.0
5077,E-3,330.0,1.0,127,122.0
5078,F#4,330.0,319/500,127,122.0
5079,E-4,330.0,319/500,127,122.0
5080,B3,330.0,319/500,127,122.0
5081,F#3,330.0,319/500,127,122.0
5082,B2,330.0,319/500,127,122.0
5083,F#3,330.0,0.25,127,122.0
5084,B1,330.0,0.25,127,122.0
5085,F#3,330.25,0.25,127,122.0
5086,C#2,330.5,1.0,127,122.0
5087,F#3,330.5,0.25,127,122.0
5088,F#3,330.75,0.25,127,122.0
5089,F#4,330.75,0.5,127,122.0
5090,E-4,330.75,0.5,127,122.0
5091,B3,330.75,0.5,127,122.0
5092,F#3,330.75,0.5,127,122.0
5093,B2,330.75,0.5,127,122.0
5094,E-3,331.0,1.0,127,122.0
5095,F#3,331.0,0.25,127,122.0
5096,D2,331.0,0.25,127,122.0
5097,B1,331.0,0.25,127,122.0
5098,F#3,331.25,0.25,127,122.0
5099,F#4,331.25,0.25,127,122.0
5100,E-4,331.25,0.25,127,122.0
5101,B3,331.25,0.25,127,122.0
5102,F#3,331.25,0.25,127,122.0
5103,B2,331.25,0.25,127,122.0
5104,B1,331.5,0.5,127,122.0
5105,F#3,331.5,0.25,127,122.0
5106,F#4,331.5,0.5,127,122.0
5107,E-4,331.5,0.5,127,122.0
5108,B3,331.5,0.5,127,122.0
5109,F#3,331.5,0.5,127,122.0
5110,B2,331.5,0.5,127,122.0
5111,F#3,331.75,0.25,127,122.0
5112,E-2,332.0,0.5,127,122.0
5113,F#6,332.0,4.0,127,122.0
5114,E-3,332.0,1.0,127,122.0
5115,F#4,332.0,1.5,127,122.0
5116,B-4,332.0,1.0,127,122.0
5117,F#4,332.0,1.0,127,122.0
5118,E-4,332.0,1.0,127,122.0
5119,B-3,332.0,0.5,127,122.0
5120,E-3,332.0,0.5,127,122.0
5121,F#3,332.0,0.25,127,122.0
5122,D2,332.0,0.25,127,122.0
5123,F#3,332.25,0.25,127,122.0
5124,B-3,332.5,0.5,127,122.0
5125,E-3,332.5,1.0,127,122.0
5126,B-1,332.5,0.5,127,122.0
5127,F#3,332.5,0.25,127,122.0
5128,B1,332.5,0.25,127,122.0
5129,F#3,332.75,0.25,127,122.0
5130,E-4,333.0,0.75,127,122.0
5131,E-3,333.0,0.5,127,122.0
5132,E-3,333.0,1.0,127,122.0
5133,B-4,333.0,0.5,127,122.0
5134,F#4,333.0,0.5,127,122.0
5135,B-3,333.0,0.5,127,122.0
5136,F#3,333.0,0.25,127,122.0
5137,D2,333.0,0.25,127,122.0
5138,F#3,333.25,0.25,127,122.0
5139,B-3,333.5,0.25,127,122.0
5140,E-3,333.5,0.75,127,122.0
5141,E-2,333.5,0.25,127,122.0
5142,F#3,333.5,0.25,127,122.0
5143,B1,333.5,0.25,127,122.0
5144,E-4,333.75,0.75,127,122.0
5145,E-3,333.75,0.5,127,122.0
5146,B-4,333.75,0.5,127,122.0
5147,F#4,333.75,0.5,127,122.0
5148,B-3,333.75,0.5,127,122.0
5149,F#3,333.75,0.25,127,122.0
5150,D2,333.75,0.25,127,122.0
5151,E-3,334.0,1.0,127,122.0
5152,F#3,334.0,0.25,127,122.0
5153,B-3,334.25,0.25,127,122.0
5154,E-3,334.25,1.25,127,122.0
5155,E-2,334.25,0.25,127,122.0
5156,F#3,334.25,0.25,127,122.0
5157,B1,334.25,0.25,127,122.0
5158,B-2,334.5,0.5,127,122.0
5159,E-4,334.5,0.5,127,122.0
5160,B-3,334.5,0.5,127,122.0
5161,F#3,334.5,0.25,127,122.0
5162,B1,334.5,0.25,127,122.0
5163,F#3,334.75,0.25,127,122.0
5164,G#2,335.0,0.5,127,122.0
5165,E-3,335.0,1.0,127,122.0
5166,E-4,335.0,0.5,127,122.0
5167,G#3,335.0,0.5,127,122.0
5168,F#3,335.0,0.25,127,122.0
5169,D2,335.0,0.25,127,122.0
5170,B1,335.0,0.25,127,122.0
5171,F#3,335.25,0.25,127,122.0
5172,F#2,335.5,0.5,127,122.0
5173,B-3,335.5,0.5,127,122.0
5174,F#3,335.5,0.5,127,122.0
5175,F#3,335.5,0.25,127,122.0
5176,D2,335.5,0.25,127,122.0
5177,B1,335.5,0.25,127,122.0
5178,F#3,335.75,0.25,127,122.0
5179,F#1,336.0,0.375,127,122.0
5180,F#6,336.0,4.0,127,122.0
5181,E-3,336.0,1.0,127,122.0
5182,F#4,336.0,1.0,127,122.0
5183,C#4,336.0,0.75,127,122.0
5184,B-3,336.0,0.75,127,122.0
5185,F#3,336.0,0.75,127,122.0
5186,C#3,336.0,0.75,127,122.0
5187,F#2,336.0,0.75,127,122.0
5188,F#3,336.0,0.25,127,122.0
5189,B1,336.0,0.25,127,122.0
5190,F#3,336.25,0.25,127,122.0
5191,F#2,336.5,0.25,127,122.0
5192,F#3,336.5,0.25,127,122.0
5193,F#3,336.75,0.25,127,122.0
5194,F#1,337.0,0.375,127,122.0
5195,E-3,337.0,1.0,127,122.0
5196,E-4,337.0,1.0,127,122.0
5197,C#4,337.0,0.75,127,122.0
5198,B-3,337.0,0.75,127,122.0
5199,F#3,337.0,0.75,127,122.0
5200,C#3,337.0,0.75,127,122.0
5201,F#2,337.0,0.75,127,122.0
5202,F#3,337.0,0.25,127,122.0
5203,D2,337.0,0.25,127,122.0
5204,B1,337.0,0.25,127,122.0
5205,F#3,337.25,0.25,127,122.0
5206,F#1,337.5,0.25,127,122.0
5207,F#3,337.5,0.25,127,122.0
5208,F#1,337.75,0.75,127,122.0
5209,F#3,337.75,0.25,127,122.0
5210,E-3,338.0,1.0,127,122.0
5211,C#4,338.0,0.5,127,122.0
5212,C#4,338.0,319/500,127,122.0
5213,B-3,338.0,319/500,127,122.0
5214,F#3,338.0,319/500,127,122.0
5215,C#3,338.0,319/500,127,122.0
5216,F#2,338.0,319/500,127,122.0
5217,F#3,338.0,0.25,127,122.0
5218,B1,338.0,0.25,127,122.0
5219,F#3,338.25,0.25,127,122.0
5220,F#1,338.5,1.0,127,122.0
5221,F#3,338.5,0.25,127,122.0
5222,E-4,338.5,1.0,127,122.0
5223,F#3,338.75,0.25,127,122.0
5224,C#4,338.75,0.5,127,122.0
5225,B-3,338.75,0.5,127,122.0
5226,F#3,338.75,0.5,127,122.0
5227,C#3,338.75,0.5,127,122.0
5228,F#2,338.75,0.5,127,122.0
5229,E-3,339.0,1.0,127,122.0
5230,F#3,339.0,0.25,127,122.0
5231,D2,339.0,0.25,127,122.0
5232,B1,339.0,0.25,127,122.0
5233,F#3,339.25,0.25,127,122.0
5234,C#4,339.25,0.25,127,122.0
5235,B-3,339.25,0.25,127,122.0
5236,F#3,339.25,0.25,127,122.0
5237,C#3,339.25,0.25,127,122.0
5238,E2,339.25,0.25,127,122.0
5239,G1,339.5,0.5,127,122.0
5240,F#3,339.5,0.25,127,122.0
5241,G#4,339.5,0.5,127,122.0
5242,C#4,339.5,0.5,127,122.0
5243,B-3,339.5,0.5,127,122.0
5244,F#3,339.5,0.5,127,122.0
5245,C#3,339.5,0.5,127,122.0
5246,F#2,339.5,0.5,127,122.0
5247,F#3,339.75,0.25,127,122.0
5248,G#1,340.0,0.375,127,122.0
5249,F#6,340.0,4.0,127,122.0
5250,E-3,340.0,1.0,127,122.0
5251,G#4,340.0,0.5,127,122.0
5252,E-4,340.0,0.75,127,122.0
5253,C4,340.0,0.75,127,122.0
5254,G#3,340.0,0.75,127,122.0
5255,E-3,340.0,0.75,127,122.0
5256,G#2,340.0,0.75,127,122.0
5257,F#3,340.0,0.25,127,122.0
5258,B1,340.0,0.25,127,122.0
5259,F#3,340.25,0.25,127,122.0
5260,G#2,340.5,0.25,127,122.0
5261,F#3,340.5,0.25,127,122.0
5262,E-4,340.5,2.0,127,122.0
5263,F#3,340.75,0.25,127,122.0
5264,G#1,341.0,0.375,127,122.0
5265,E-3,341.0,1.0,127,122.0
5266,E-4,341.0,0.75,127,122.0
5267,C4,341.0,0.75,127,122.0
5268,G#3,341.0,0.75,127,122.0
5269,E-3,341.0,0.75,127,122.0
5270,G#2,341.0,0.75,127,122.0
5271,F#3,341.0,0.25,127,122.0
5272,D2,341.0,0.25,127,122.0
5273,B1,341.0,0.25,127,122.0
5274,F#3,341.25,0.25,127,122.0
5275,G#1,341.5,0.25,127,122.0
5276,F#3,341.5,0.25,127,122.0
5277,G#1,341.75,0.75,127,122.0
5278,F#3,341.75,0.25,127,122.0
5279,E-3,342.0,1.0,127,122.0
5280,E-4,342.0,319/500,127,122.0
5281,C4,342.0,319/500,127,122.0
5282,G#3,342.0,319/500,127,122.0
5283,E-3,342.0,319/500,127,122.0
5284,G#2,342.0,319/500,127,122.0
5285,F#3,342.0,0.25,127,122.0
5286,B1,342.0,0.25,127,122.0
5287,F#3,342.25,0.25,127,122.0
5288,G#1,342.5,1.0,127,122.0
5289,F#3,342.5,0.25,127,122.0
5290,C#4,342.5,1.5,127,122.0
5291,F#3,342.75,0.25,127,122.0
5292,E-4,342.75,0.5,127,122.0
5293,C4,342.75,0.5,127,122.0
5294,G#3,342.75,0.5,127,122.0
5295,E-3,342.75,0.5,127,122.0
5296,G#2,342.75,0.5,127,122.0
5297,E-3,343.0,1.0,127,122.0
5298,F#3,343.0,0.25,127,122.0
5299,D2,343.0,0.25,127,122.0
5300,B1,343.0,0.25,127,122.0
5301,F#3,343.25,0.25,127,122.0
5302,E-4,343.25,0.25,127,122.0
5303,C4,343.25,0.25,127,122.0
5304,G#3,343.25,0.25,127,122.0
5305,E-3,343.25,0.25,127,122.0
5306,E2,343.25,0.25,127,122.0
5307,B-1,343.5,0.5,127,122.0
5308,F#3,343.5,0.25,127,122.0
5309,E-4,343.5,0.5,127,122.0
5310,C4,343.5,0.5,127,122.0
5311,G#3,343.5,0.5,127,122.0
5312,E-3,343.5,0.5,127,122.0
5313,G#2,343.5,0.5,127,122.0
5314,F#3,343.75,0.25,127,122.0
5315,B1,344.0,0.375,127,122.0
5316,F#6,344.0,4.0,127,122.0
5317,E-3,344.0,1.0,127,122.0
5318,B-4,344.0,0.5,127,122.0
5319,F#4,344.0,0.75,127,122.0
5320,E-4,344.0,0.75,127,122.0
5321,B3,344.0,0.75,127,122.0
5322,F#3,344.0,0.75,127,122.0
5323,B2,344.0,0.75,127,122.0
5324,F#3,344.0,0.25,127,122.0
5325,B1,344.0,0.25,127,122.0
5326,F#3,344.25,0.25,127,122.0
5327,B2,344.5,0.25,127,122.0
5328,F#3,344.5,0.25,127,122.0
5329,G#4,344.5,3.5,127,122.0
5330,F#3,344.75,0.25,127,122.0
5331,B1,345.0,0.375,127,122.0
5332,E-3,345.0,1.0,127,122.0
5333,F#4,345.0,0.75,127,122.0
5334,E-4,345.0,0.75,127,122.0
5335,B3,345.0,0.75,127,122.0
5336,F#3,345.0,0.75,127,122.0
5337,B2,345.0,0.75,127,122.0
5338,F#3,345.0,0.25,127,122.0
5339,D2,345.0,0.25,127,122.0
5340,B1,345.0,0.25,127,122.0
5341,F#3,345.25,0.25,127,122.0
5342,B1,345.5,0.25,127,122.0
5343,F#3,345.5,0.25,127,122.0
5344,B1,345.75,0.75,127,122.0
5345,F#3,345.75,0.25,127,122.0
5346,E-3,346.0,1.0,127,122.0
5347,F#4,346.0,319/500,127,122.0
5348,E-4,346.0,319/500,127,122.0
5349,B3,346.0,319/500,127,122.0
5350,F#3,346.0,319/500,127,122.0
5351,B2,346.0,319/500,127,122.0
5352,F#3,346.0,0.25,127,122.0
5353,B1,346.0,0.25,127,122.0
5354,F#3,346.25,0.25,127,122.0
5355,C#2,346.5,1.0,127,122.0
5356,F#3,346.5,0.25,127,122.0
5357,F#3,346.75,0.25,127,122.0
5358,F#4,346.75,0.5,127,122.0
5359,E-4,346.75,0.5,127,122.0
5360,B3,346.75,0.5,127,122.0
5361,F#3,346.75,0.5,127,122.0
5362,B2,346.75,0.5,127,122.0
5363,E-3,347.0,1.0,127,122.0
5364,F#3,347.0,0.25,127,122.0
5365,D2,347.0,0.25,127,122.0
5366,B1,347.0,0.25,127,122.0
5367,F#3,347.25,0.25,127,122.0
5368,F#4,347.25,0.25,127,122.0
5369,E-4,347.25,0.25,127,122.0
5370,B3,347.25,0.25,127,122.0
5371,F#3,347.25,0.25,127,122.0
5372,B2,347.25,0.25,127,122.0
5373,B1,347.5,0.5,127,122.0
5374,F#3,347.5,0.25,127,122.0
5375,F#4,347.5,0.5,127,122.0
5376,E-4,347.5,0.5,127,122.0
5377,B3,347.5,0.5,127,122.0
5378,F#3,347.5,0.5,127,122.0
5379,B2,347.5,0.5,127,122.0
5380,F#3,347.75,0.25,127,122.0
5381,E-2,348.0,0.5,127,122.0
5382,F#6,348.0,4.0,127,122.0
5383,E-3,348.0,1.0,127,122.0
5384,F#4,348.0,1.5,127,122.0
5385,B-4,348.0,1.0,127,122.0
5386,F#4,348.0,1.0,127,122.0
5387,E-4,348.0,1.0,127,122.0
5388,B-3,348.0,0.5,127,122.0
5389,E-3,348.0,0.5,127,122.0
5390,F#3,348.0,0.25,127,122.0
5391,D2,348.0,0.25,127,122.0
5392,F#3,348.25,0.25,127,122.0
5393,B-3,348.5,0.5,127,122.0
5394,E-3,348.5,1.0,127,122.0
5395,B-1,348.5,0.5,127,122.0
5396,F#3,348.5,0.25,127,122.0
5397,B1,348.5,0.25,127,122.0
5398,F#3,348.75,0.25,127,122.0
5399,E-4,349.0,0.75,127,122.0
5400,E-3,349.0,0.5,127,122.0
5401,E-3,349.0,1.0,127,122.0
5402,B-4,349.0,0.5,127,122.0
5403,F#4,349.0,0.5,127,122.0
5404,B-3,349.0,0.5,127,122.0
5405,F#3,349.0,0.25,127,122.0
5406,D2,349.0,0.25,127,122.0
5407,F#3,349.25,0.25,127,122.0
5408,B-3,349.5,0.25,127,122.0
5409,E-3,349.5,0.75,127,122.0
5410,E-2,349.5,0.25,127,122.0
5411,F#3,349.5,0.25,127,122.0
5412,B1,349.5,0.25,127,122.0
5413,E-4,349.75,0.75,127,122.0
5414,E-3,349.75,0.5,127,122.0
5415,B-4,349.75,0.5,127,122.0
5416,F#4,349.75,0.5,127,122.0
5417,B-3,349.75,0.5,127,122.0
5418,F#3,349.75,0.25,127,122.0
5419,D2,349.75,0.25,127,122.0
5420,E-3,350.0,1.0,127,122.0
5421,F#3,350.0,0.25,127,122.0
5422,B-3,350.25,0.25,127,122.0
5423,E-3,350.25,1.25,127,122.0
5424,E-2,350.25,0.25,127,122.0
5425,F#3,350.25,0.25,127,122.0
5426,B1,350.25,0.25,127,122.0
5427,B-2,350.5,0.5,127,122.0
5428,E-4,350.5,0.5,127,122.0
5429,B-3,350.5,0.5,127,122.0
5430,F#3,350.5,0.25,127,122.0
5431,B1,350.5,0.25,127,122.0
5432,F#3,350.75,0.25,127,122.0
5433,G#2,351.0,0.5,127,122.0
5434,E-3,351.0,1.0,127,122.0
5435,E-4,351.0,0.5,127,122.0
5436,G#3,351.0,0.5,127,122.0
5437,F#3,351.0,0.25,127,122.0
5438,D2,351.0,0.25,127,122.0
5439,B1,351.0,0.25,127,122.0
5440,F#3,351.25,0.25,127,122.0
5441,F#2,351.5,0.5,127,122.0
5442,B-3,351.5,0.5,127,122.0
5443,F#3,351.5,0.5,127,122.0
5444,F#3,351.5,0.25,127,122.0
5445,D2,351.5,0.25,127,122.0
5446,B1,351.5,0.25,127,122.0
5447,F#3,351.75,0.25,127,122.0
5448,F#1,352.0,0.375,127,122.0
5449,F#6,352.0,4.0,127,122.0
5450,E-3,352.0,1.0,127,122.0
5451,B-4,352.0,1.0,127,122.0
5452,C#4,352.0,0.75,127,122.0
5453,B-3,352.0,0.75,127,122.0
5454,F#3,352.0,0.75,127,122.0
5455,C#3,352.0,0.75,127,122.0
5456,F#2,352.0,0.75,127,122.0
5457,F#3,352.0,0.25,127,122.0
5458,B1,352.0,0.25,127,122.0
5459,F#3,352.25,0.25,127,122.0
5460,F#2,352.5,0.25,127,122.0
5461,F#3,352.5,0.25,127,122.0
5462,F#3,352.75,0.25,127,122.0
5463,F#1,353.0,0.375,127,122.0
5464,E-3,353.0,1.0,127,122.0
5465,F#4,353.0,1.0,127,122.0
5466,C#4,353.0,0.75,127,122.0
5467,B-3,353.0,0.75,127,122.0
5468,F#3,353.0,0.75,127,122.0
5469,C#3,353.0,0.75,127,122.0
5470,F#2,353.0,0.75,127,122.0
5471,F#3,353.0,0.25,127,122.0
5472,D2,353.0,0.25,127,122.0
5473,B1,353.0,0.25,127,122.0
5474,F#3,353.25,0.25,127,122.0
5475,F#1,353.5,0.25,127,122.0
5476,F#3,353.5,0.25,127,122.0
5477,F#1,353.75,0.75,127,122.0
5478,F#3,353.75,0.25,127,122.0
5479,E-3,354.0,1.0,127,122.0
5480,E-4,354.0,0.5,127,122.0
5481,C#4,354.0,319/500,127,122.0
5482,B-3,354.0,319/500,127,122.0
5483,F#3,354.0,319/500,127,122.0
5484,C#3,354.0,319/500,127,122.0
5485,F#2,354.0,319/500,127,122.0
5486,F#3,354.0,0.25,127,122.0
5487,B1,354.0,0.25,127,122.0
5488,F#3,354.25,0.25,127,122.0
5489,F#1,354.5,1.0,127,122.0
5490,F#3,354.5,0.25,127,122.0
5491,F#4,354.5,1.0,127,122.0
5492,F#3,354.75,0.25,127,122.0
5493,C#4,354.75,0.5,127,122.0
5494,B-3,354.75,0.5,127,122.0
5495,F#3,354.75,0.5,127,122.0
5496,C#3,354.75,0.5,127,122.0
5497,F#2,354.75,0.5,127,122.0
5498,E-3,355.0,1.0,127,122.0
5499,F#3,355.0,0.25,127,122.0
5500,D2,355.0,0.25,127,122.0
5501,B1,355.0,0.25,127,122.0
5502,F#3,355.25,0.25,127,122.0
5503,C#4,355.25,0.25,127,122.0
5504,B-3,355.25,0.25,127,122.0
5505,F#3,355.25,0.25,127,122.0
5506,C#3,355.25,0.25,127,122.0
5507,E2,355.25,0.25,127,122.0
5508,G1,355.5,0.5,127,122.0
5509,F#3,355.5,0.25,127,122.0
5510,B-4,355.5,0.5,127,122.0
5511,C#4,355.5,0.5,127,122.0
5512,B-3,355.5,0.5,127,122.0
5513,F#3,355.5,0.5,127,122.0
5514,C#3,355.5,0.5,127,122.0
5515,F#2,355.5,0.5,127,122.0
5516,F#3,355.75,0.25,127,122.0
5517,G#1,356.0,0.375,127,122.0
5518,F#6,356.0,4.0,127,122.0
5519,E-3,356.0,1.0,127,122.0
5520,B-4,356.0,0.5,127,122.0
5521,E-4,356.0,0.75,127,122.0
5522,C4,356.0,0.75,127,122.0
5523,G#3,356.0,0.75,127,122.0
5524,E-3,356.0,0.75,127,122.0
5525,G#2,356.0,0.75,127,122.0
5526,F#3,356.0,0.25,127,122.0
5527,B1,356.0,0.25,127,122.0
5528,F#3,356.25,0.25,127,122.0
5529,G#2,356.5,0.25,127,122.0
5530,F#3,356.5,0.25,127,122.0
5531,F#4,356.5,2.0,127,122.0
5532,F#3,356.75,0.25,127,122.0
5533,G#1,357.0,0.375,127,122.0
5534,E-3,357.0,1.0,127,122.0
5535,E-4,357.0,0.75,127,122.0
5536,C4,357.0,0.75,127,122.0
5537,G#3,357.0,0.75,127,122.0
5538,E-3,357.0,0.75,127,122.0
5539,G#2,357.0,0.75,127,122.0
5540,F#3,357.0,0.25,127,122.0
5541,D2,357.0,0.25,127,122.0
5542,B1,357.0,0.25,127,122.0
5543,F#3,357.25,0.25,127,122.0
5544,G#1,357.5,0.25,127,122.0
5545,F#3,357.5,0.25,127,122.0
5546,G#1,357.75,0.75,127,122.0
5547,F#3,357.75,0.25,127,122.0
5548,E-3,358.0,1.0,127,122.0
5549,E-4,358.0,319/500,127,122.0
5550,C4,358.0,319/500,127,122.0
5551,G#3,358.0,319/500,127,122.0
5552,E-3,358.0,319/500,127,122.0
5553,G#2,358.0,319/500,127,122.0
5554,F#3,358.0,0.25,127,122.0
5555,B1,358.0,0.25,127,122.0
5556,F#3,358.25,0.25,127,122.0
5557,G#1,358.5,1.0,127,122.0
5558,F#3,358.5,0.25,127,122.0
5559,E-4,358.5,0.5,127,122.0
5560,F#3,358.75,0.25,127,122.0
5561,E-4,358.75,0.5,127,122.0
5562,C4,358.75,0.5,127,122.0
5563,G#3,358.75,0.5,127,122.0
5564,E-3,358.75,0.5,127,122.0
5565,G#2,358.75,0.5,127,122.0
5566,E-3,359.0,1.0,127,122.0
5567,F#4,359.0,1.0,127,122.0
5568,F#3,359.0,0.25,127,122.0
5569,D2,359.0,0.25,127,122.0
5570,B1,359.0,0.25,127,122.0
5571,F#3,359.25,0.25,127,122.0
5572,E-4,359.25,0.25,127,122.0
5573,C4,359.25,0.25,127,122.0
5574,G#3,359.25,0.25,127,122.0
5575,E-3,359.25,0.25,127,122.0
5576,E2,359.25,0.25,127,122.0
5577,B-1,359.5,0.5,127,122.0
5578,F#3,359.5,0.25,127,122.0
5579,E-4,359.5,0.5,127,122.0
5580,C4,359.5,0.5,127,122.0
5581,G#3,359.5,0.5,127,122.0
5582,E-3,359.5,0.5,127,122.0
5583,G#2,359.5,0.5,127,122.0
5584,F#3,359.75,0.25,127,122.0
5585,B1,360.0,0.375,127,122.0
5586,F#6,360.0,4.0,127,122.0
5587,E-3,360.0,1.0,127,122.0
5588,B-4,360.0,0.5,127,122.0
5589,F#4,360.0,0.75,127,122.0
5590,E-4,360.0,0.75,127,122.0
5591,B3,360.0,0.75,127,122.0
5592,F#3,360.0,0.75,127,122.0
5593,B2,360.0,0.75,127,122.0
5594,F#3,360.0,0.25,127,122.0
5595,B1,360.0,0.25,127,122.0
5596,F#3,360.25,0.25,127,122.0
5597,B2,360.5,0.25,127,122.0
5598,F#3,360.5,0.25,127,122.0
5599,G#4,360.5,3.5,127,122.0
5600,F#3,360.75,0.25,127,122.0
5601,B1,361.0,0.375,127,122.0
5602,E-3,361.0,1.0,127,122.0
5603,F#4,361.0,0.75,127,122.0
5604,E-4,361.0,0.75,127,122.0
5605,B3,361.0,0.75,127,122.0
5606,F#3,361.0,0.75,127,122.0
5607,B2,361.0,0.75,127,122.0
5608,F#3,361.0,0.25,127,122.0
5609,D2,361.0,0.25,127,122.0
5610,B1,361.0,0.25,127,122.0
5611,F#3,361.25,0.25,127,122.0
5612,B1,361.5,0.25,127,122.0
5613,F#3,361.5,0.25,127,122.0
5614,B1,361.75,0.75,127,122.0
5615,F#3,361.75,0.25,127,122.0
5616,E-3,362.0,1.0,127,122.0
5617,F#4,362.0,319/500,127,122.0
5618,E-4,362.0,319/500,127,122.0
5619,B3,362.0,319/500,127,122.0
5620,F#3,362.0,319/500,127,122.0
5621,B2,362.0,319/500,127,122.0
5622,F#3,362.0,0.25,127,122.0
5623,B1,362.0,0.25,127,122.0
5624,F#3,362.25,0.25,127,122.0
5625,C#2,362.5,1.0,127,122.0
5626,F#3,362.5,0.25,127,122.0
5627,F#3,362.75,0.25,127,122.0
5628,F#4,362.75,0.5,127,122.0
5629,E-4,362.75,0.5,127,122.0
5630,B3,362.75,0.5,127,122.0
5631,F#3,362.75,0.5,127,122.0
5632,B2,362.75,0.5,127,122.0
5633,E-3,363.0,1.0,127,122.0
5634,F#3,363.0,0.25,127,122.0
5635,D2,363.0,0.25,127,122.0
5636,B1,363.0,0.25,127,122.0
5637,F#3,363.25,0.25,127,122.0
5638,F#4,363.25,0.25,127,122.0
5639,E-4,363.25,0.25,127,122.0
5640,B3,363.25,0.25,127,122.0
5641,F#3,363.25,0.25,127,122.0
5642,B2,363.25,0.25,127,122.0
5643,B1,363.5,0.5,127,122.0
5644,F#3,363.5,0.25,127,122.0
5645,F#4,363.5,0.5,127,122.0
5646,E-4,363.5,0.5,127,122.0
5647,B3,363.5,0.5,127,122.0
5648,F#3,363.5,0.5,127,122.0
5649,B2,363.5,0.5,127,122.0
5650,F#3,363.75,0.25,127,122.0
5651,E-2,364.0,0.5,127,122.0
5652,F#6,364.0,4.0,127,122.0
5653,E-3,364.0,1.0,127,122.0
5654,F#4,364.0,1.5,127,122.0
5655,B-4,364.0,1.0,127,122.0
5656,F#4,364.0,1.0,127,122.0
5657,E-4,364.0,1.0,127,122.0
5658,B-3,364.0,0.5,127,122.0
5659,E-3,364.0,0.5,127,122.0
5660,F#3,364.0,0.25,127,122.0
5661,D2,364.0,0.25,127,122.0
5662,F#3,364.25,0.25,127,122.0
5663,B-3,364.5,0.5,127,122.0
5664,E-3,364.5,1.0,127,122.0
5665,B-1,364.5,0.5,127,122.0
5666,F#3,364.5,0.25,127,122.0
5667,B1,364.5,0.25,127,122.0
5668,F#3,364.75,0.25,127,122.0
5669,E-4,365.0,0.75,127,122.0
5670,E-3,365.0,0.5,127,122.0
5671,E-3,365.0,1.0,127,122.0
5672,B-4,365.0,0.5,127,122.0
5673,F#4,365.0,0.5,127,122.0
5674,B-3,365.0,0.5,127,122.0
5675,F#3,365.0,0.25,127,122.0
5676,D2,365.0,0.25,127,122.0
5677,F#3,365.25,0.25,127,122.0
5678,B-3,365.5,0.25,127,122.0
5679,E-3,365.5,0.75,127,122.0
5680,E-2,365.5,0.25,127,122.0
5681,F#3,365.5,0.25,127,122.0
5682,B1,365.5,0.25,127,122.0
5683,E-4,365.75,0.75,127,122.0
5684,E-3,365.75,0.5,127,122.0
5685,B-4,365.75,0.5,127,122.0
5686,F#4,365.75,0.5,127,122.0
5687,B-3,365.75,0.5,127,122.0
5688,F#3,365.75,0.25,127,122.0
5689,D2,365.75,0.25,127,122.0
5690,E-3,366.0,1.0,127,122.0
5691,F#3,366.0,0.25,127,122.0
5692,B-3,366.25,0.25,127,122.0
5693,E-3,366.25,1.25,127,122.0
5694,E-2,366.25,0.25,127,122.0
5695,F#3,366.25,0.25,127,122.0
5696,B1,366.25,0.25,127,122.0
5697,B-2,366.5,0.5,127,122.0
5698,E-4,366.5,0.5,127,122.0
5699,B-3,366.5,0.5,127,122.0
5700,F#3,366.5,0.25,127,122.0
5701,B1,366.5,0.25,127,122.0
5702,F#3,366.75,0.25,127,122.0
5703,G#2,367.0,0.5,127,122.0
5704,E-3,367.0,1.0,127,122.0
5705,E-4,367.0,0.5,127,122.0
5706,G#3,367.0,0.5,127,122.0
5707,F#3,367.0,0.25,127,122.0
5708,D2,367.0,0.25,127,122.0
5709,B1,367.0,0.25,127,122.0
5710,F#3,367.25,0.25,127,122.0
5711,F#2,367.5,0.5,127,122.0
5712,B-3,367.5,0.5,127,122.0
5713,F#3,367.5,0.5,127,122.0
5714,F#3,367.5,0.25,127,122.0
5715,D2,367.5,0.25,127,122.0
5716,B1,367.5,0.25,127,122.0
5717,F#3,367.75,0.25,127,122.0
5718,F#1,368.0,0.375,127,122.0
5719,F#6,368.0,4.0,127,122.0
5720,E-3,368.0,1.0,127,122.0
5721,B-4,368.0,1.0,127,122.0
5722,C#4,368.0,0.75,127,122.0
5723,B-3,368.0,0.75,127,122.0
5724,F#3,368.0,0.75,127,122.0
5725,C#3,368.0,0.75,127,122.0
5726,F#2,368.0,0.75,127,122.0
5727,F#3,368.0,0.25,127,122.0
5728,B1,368.0,0.25,127,122.0
5729,F#3,368.25,0.25,127,122.0
5730,F#2,368.5,0.25,127,122.0
5731,F#3,368.5,0.25,127,122.0
5732,F#3,368.75,0.25,127,122.0
5733,F#1,369.0,0.375,127,122.0
5734,E-3,369.0,1.0,127,122.0
5735,F#4,369.0,1.0,127,122.0
5736,C#4,369.0,0.75,127,122.0
5737,B-3,369.0,0.75,127,122.0
5738,F#3,369.0,0.75,127,122.0
5739,C#3,369.0,0.75,127,122.0
5740,F#2,369.0,0.75,127,122.0
5741,F#3,369.0,0.25,127,122.0
5742,D2,369.0,0.25,127,122.0
5743,B1,369.0,0.25,127,122.0
5744,F#3,369.25,0.25,127,122.0
5745,F#1,369.5,0.25,127,122.0
5746,F#3,369.5,0.25,127,122.0
5747,F#1,369.75,0.75,127,122.0
5748,F#3,369.75,0.25,127,122.0
5749,E-3,370.0,1.0,127,122.0
5750,E-4,370.0,0.5,127,122.0
5751,C#4,370.0,319/500,127,122.0
5752,B-3,370.0,319/500,127,122.0
5753,F#3,370.0,319/500,127,122.0
5754,C#3,370.0,319/500,127,122.0
5755,F#2,370.0,319/500,127,122.0
5756,F#3,370.0,0.25,127,122.0
5757,B1,370.0,0.25,127,122.0
5758,F#3,370.25,0.25,127,122.0
5759,F#1,370.5,1.0,127,122.0
5760,F#3,370.5,0.25,127,122.0
5761,F#4,370.5,1.0,127,122.0
5762,F#3,370.75,0.25,127,122.0
5763,C#4,370.75,0.5,127,122.0
5764,B-3,370.75,0.5,127,122.0
5765,F#3,370.75,0.5,127,122.0
5766,C#3,370.75,0.5,127,122.0
5767,F#2,370.75,0.5,127,122.0
5768,E-3,371.0,1.0,127,122.0
5769,F#3,371.0,0.25,127,122.0
5770,D2,371.0,0.25,127,122.0
5771,B1,371.0,0.25,127,122.0
5772,F#3,371.25,0.25,127,122.0
5773,C#4,371.25,0.25,127,122.0
5774,B-3,371.25,0.25,127,122.0
5775,F#3,371.25,0.25,127,122.0
5776,C#3,371.25,0.25,127,122.0
5777,E2,371.25,0.25,127,122.0
5778,G1,371.5,0.5,127,122.0
5779,F#3,371.5,0.25,127,122.0
5780,B-4,371.5,0.5,127,122.0
5781,C#4,371.5,0.5,127,122.0
5782,B-3,371.5,0.5,127,122.0
5783,F#3,371.5,0.5,127,122.0
5784,C#3,371.5,0.5,127,122.0
5785,F#2,371.5,0.5,127,122.0
5786,F#3,371.75,0.25,127,122.0
5787,G#1,372.0,0.375,127,122.0
5788,F#6,372.0,4.0,127,122.0
5789,E-3,372.0,1.0,127,122.0
5790,B-4,372.0,0.5,127,122.0
5791,E-4,372.0,0.75,127,122.0
5792,C4,372.0,0.75,127,122.0
5793,G#3,372.0,0.75,127,122.0
5794,E-3,372.0,0.75,127,122.0
5795,G#2,372.0,0.75,127,122.0
5796,F#3,372.0,0.25,127,122.0
5797,B1,372.0,0.25,127,122.0
5798,F#3,372.25,0.25,127,122.0
5799,G#2,372.5,0.25,127,122.0
5800,F#3,372.5,0.25,127,122.0
5801,F#4,372.5,2.0,127,122.0
5802,F#3,372.75,0.25,127,122.0
5803,G#1,373.0,0.375,127,122.0
5804,E-3,373.0,1.0,127,122.0
5805,E-4,373.0,0.75,127,122.0
5806,C4,373.0,0.75,127,122.0
5807,G#3,373.0,0.75,127,122.0
5808,E-3,373.0,0.75,127,122.0
5809,G#2,373.0,0.75,127,122.0
5810,F#3,373.0,0.25,127,122.0
5811,D2,373.0,0.25,127,122.0
5812,B1,373.0,0.25,127,122.0
5813,F#3,373.25,0.25,127,122.0
5814,G#1,373.5,0.25,127,122.0
5815,F#3,373.5,0.25,127,122.0
5816,G#1,373.75,0.75,127,122.0
5817,F#3,373.75,0.25,127,122.0
5818,E-3,374.0,1.0,127,122.0
5819,E-4,374.0,319/500,127,122.0
5820,C4,374.0,319/500,127,122.0
5821,G#3,374.0,319/500,127,122.0
5822,E-3,374.0,319/500,127,122.0
5823,G#2,374.0,319/500,127,122.0
5824,F#3,374.0,0.25,127,122.0
5825,B1,374.0,0.25,127,122.0
5826,F#3,374.25,0.25,127,122.0
5827,G#1,374.5,1.0,127,122.0
5828,F#3,374.5,0.25,127,122.0
5829,E-4,374.5,0.5,127,122.0
5830,F#3,374.75,0.25,127,122.0
5831,E-4,374.75,0.5,127,122.0
5832,C4,374.75,0.5,127,122.0
5833,G#3,374.75,0.5,127,122.0
5834,E-3,374.75,0.5,127,122.0
5835,G#2,374.75,0.5,127,122.0
5836,E-3,375.0,1.0,127,122.0
5837,F#4,375.0,1.0,127,122.0
5838,F#3,375.0,0.25,127,122.0
5839,D2,375.0,0.25,127,122.0
5840,B1,375.0,0.25,127,122.0
5841,F#3,375.25,0.25,127,122.0
5842,E-4,375.25,0.25,127,122.0
5843,C4,375.25,0.25,127,122.0
5844,G#3,375.25,0.25,127,122.0
5845,E-3,375.25,0.25,127,122.0
5846,E2,375.25,0.25,127,122.0
5847,B-1,375.5,0.5,127,122.0
5848,F#3,375.5,0.25,127,122.0
5849,E-4,375.5,0.5,127,122.0
5850,C4,375.5,0.5,127,122.0
5851,G#3,375.5,0.5,127,122.0
5852,E-3,375.5,0.5,127,122.0
5853,G#2,375.5,0.5,127,122.0
5854,F#3,375.75,0.25,127,122.0
5855,B1,376.0,0.375,127,122.0
5856,F#6,376.0,4.0,127,122.0
5857,E-3,376.0,1.0,127,122.0
5858,B-4,376.0,0.5,127,122.0
5859,F#4,376.0,0.75,127,122.0
5860,E-4,376.0,0.75,127,122.0
5861,B3,376.0,0.75,127,122.0
5862,F#3,376.0,0.75,127,122.0
5863,B2,376.0,0.75,127,122.0
5864,F#3,376.0,0.25,127,122.0
5865,B1,376.0,0.25,127,122.0
5866,F#3,376.25,0.25,127,122.0
5867,B2,376.5,0.25,127,122.0
5868,F#3,376.5,0.25,127,122.0
5869,G#4,376.5,3.5,127,122.0
5870,F#3,376.75,0.25,127,122.0
5871,B1,377.0,0.375,127,122.0
5872,E-3,377.0,1.0,127,122.0
5873,F#4,377.0,0.75,127,122.0
5874,E-4,377.0,0.75,127,122.0
5875,B3,377.0,0.75,127,122.0
5876,F#3,377.0,0.75,127,122.0
5877,B2,377.0,0.75,127,122.0
5878,F#3,377.0,0.25,127,122.0
5879,D2,377.0,0.25,127,122.0
5880,B1,377.0,0.25,127,122.0
5881,F#3,377.25,0.25,127,122.0
5882,B1,377.5,0.25,127,122.0
5883,F#3,377.5,0.25,127,122.0
5884,B1,377.75,0.75,127,122.0
5885,F#3,377.75,0.25,127,122.0
5886,E-3,378.0,1.0,127,122.0
5887,F#4,378.0,319/500,127,122.0
5888,E-4,378.0,319/500,127,122.0
5889,B3,378.0,319/500,127,122.0
5890,F#3,378.0,319/500,127,122.0
5891,B2,378.0,319/500,127,122.0
5892,F#3,378.0,0.25,127,122.0
5893,B1,378.0,0.25,127,122.0
5894,F#3,378.25,0.25,127,122.0
5895,C#2,378.5,1.0,127,122.0
5896,F#3,378.5,0.25,127,122.0
5897,F#3,378.75,0.25,127,122.0
5898,F#4,378.75,0.5,127,122.0
5899,E-4,378.75,0.5,127,122.0
5900,B3,378.75,0.5,127,122.0
5901,F#3,378.75,0.5,127,122.0
5902,B2,378.75,0.5,127,122.0
5903,E-3,379.0,1.0,127,122.0
5904,F#3,379.0,0.25,127,122.0
5905,D2,379.0,0.25,127,122.0
5906,B1,379.0,0.25,127,122.0
5907,F#3,379.25,0.25,127,122.0
5908,F#4,379.25,0.25,127,122.0
5909,E-4,379.25,0.25,127,122.0
5910,B3,379.25,0.25,127,122.0
5911,F#3,379.25,0.25,127,122.0
5912,B2,379.25,0.25,127,122.0
5913,B1,379.5,0.5,127,122.0
5914,F#3,379.5,0.25,127,122.0
5915,F#4,379.5,0.5,127,122.0
5916,E-4,379.5,0.5,127,122.0
5917,B3,379.5,0.5,127,122.0
5918,F#3,379.5,0.5,127,122.0
5919,B2,379.5,0.5,127,122.0
5920,F#3,379.75,0.25,127,122.0
5921,E-2,380.0,0.5,127,122.0
5922,F#6,380.0,4.0,127,122.0
5923,E-3,380.0,1.0,127,122.0
5924,F#4,380.0,1.5,127,122.0
5925,B-4,380.0,1.0,127,122.0
5926,F#4,380.0,1.0,127,122.0
5927,E-4,380.0,1.0,127,122.0
5928,B-3,380.0,0.5,127,122.0
5929,E-3,380.0,0.5,127,122.0
5930,F#3,380.0,0.25,127,122.0
5931,D2,380.0,0.25,127,122.0
5932,F#3,380.25,0.25,127,122.0
5933,B-3,380.5,0.5,127,122.0
5934,E-3,380.5,1.0,127,122.0
5935,B-1,380.5,0.5,127,122.0
5936,F#3,380.5,0.25,127,122.0
5937,B1,380.5,0.25,127,122.0
5938,F#3,380.75,0.25,127,122.0
5939,E-4,381.0,0.75,127,122.0
5940,E-3,381.0,0.5,127,122.0
5941,E-3,381.0,1.0,127,122.0
5942,B-4,381.0,0.5,127,122.0
5943,F#4,381.0,0.5,127,122.0
5944,B-3,381.0,0.5,127,122.0
5945,F#3,381.0,0.25,127,122.0
5946,D2,381.0,0.25,127,122.0
5947,F#3,381.25,0.25,127,122.0
5948,B-3,381.5,0.25,127,122.0
5949,E-3,381.5,0.75,127,122.0
5950,E-2,381.5,0.25,127,122.0
5951,F#3,381.5,0.25,127,122.0
5952,B1,381.5,0.25,127,122.0
5953,E-4,381.75,0.75,127,122.0
5954,E-3,381.75,0.5,127,122.0
5955,B-4,381.75,0.5,127,122.0
5956,F#4,381.75,0.5,127,122.0
5957,B-3,381.75,0.5,127,122.0
5958,F#3,381.75,0.25,127,122.0
5959,D2,381.75,0.25,127,122.0
5960,E-3,382.0,1.0,127,122.0
5961,F#3,382.0,0.25,127,122.0
5962,B-3,382.25,0.25,127,122.0
5963,E-3,382.25,1.25,127,122.0
5964,E-2,382.25,0.25,127,122.0
5965,F#3,382.25,0.25,127,122.0
5966,B1,382.25,0.25,127,122.0
5967,B-2,382.5,0.5,127,122.0
5968,E-4,382.5,0.5,127,122.0
5969,B-3,382.5,0.5,127,122.0
5970,F#3,382.5,0.25,127,122.0
5971,B1,382.5,0.25,127,122.0
5972,F#3,382.75,0.25,127,122.0
5973,G#2,383.0,0.5,127,122.0
5974,E-3,383.0,1.0,127,122.0
5975,E-4,383.0,0.5,127,122.0
5976,G#3,383.0,0.5,127,122.0
5977,F#3,383.0,0.25,127,122.0
5978,D2,383.0,0.25,127,122.0
5979,B1,383.0,0.25,127,122.0
5980,F#3,383.25,0.25,127,122.0
5981,F#2,383.5,0.5,127,122.0
5982,B-3,383.5,0.5,127,122.0
5983,F#3,383.5,0.5,127,122.0
5984,F#3,383.5,0.25,127,122.0
5985,D2,383.5,0.25,127,122.0
5986,B1,383.5,0.25,127,122.0
5987,F#3,383.75,0.25,127,122.0
