,note_name,start_time,duration,velocity,tempo
0,C3,0.0,4.0,100,132.0
1,D4,0.0,0.5,100,132.0
2,E-4,0.5,0.5,100,132.0
3,C4,1.5,0.5,100,132.0
4,D4,2.0,0.5,100,132.0
5,E-4,2.5,0.5,100,132.0
6,E-3,4.0,4.0,100,132.0
7,F4,4.0,0.5,100,132.0
8,G4,4.5,0.5,100,132.0
9,E-4,5.5,0.5,100,132.0
10,F4,6.0,0.5,100,132.0
11,G4,6.5,0.5,100,132.0
12,G4,8.0,0.5,100,132.0
13,F3,8.0,4.0,100,132.0
14,G#4,8.5,0.5,100,132.0
15,F4,9.5,0.5,100,132.0
16,G4,10.0,0.5,100,132.0
17,G#4,10.5,0.5,100,132.0
18,G#3,12.0,2.0,100,132.0
19,B-4,12.0,0.5,100,132.0
20,F5,12.5,0.5,100,132.0
21,B-4,13.5,0.5,100,132.0
22,E-5,14.0,0.5,100,132.0
23,B-3,14.0,1.5,100,132.0
24,G5,14.5,0.5,100,132.0
25,C3,16.0,4.0,100,132.0
26,D4,16.0,0.5,100,132.0
27,E-4,16.5,0.5,100,132.0
28,C4,17.5,0.5,100,132.0
29,D4,18.0,0.5,100,132.0
30,E-4,18.5,0.5,100,132.0
31,E-3,20.0,4.0,100,132.0
32,F4,20.0,0.5,100,132.0
33,G4,20.5,0.5,100,132.0
34,E-4,21.5,0.5,100,132.0
35,F4,22.0,0.5,100,132.0
36,G4,22.5,0.5,100,132.0
37,F3,24.0,4.0,100,132.0
38,G4,24.0,0.5,100,132.0
39,G#4,24.5,0.5,100,132.0
40,F4,25.5,0.5,100,132.0
41,G4,26.0,0.5,100,132.0
42,G#4,26.5,0.5,100,132.0
43,G#3,28.0,2.0,100,132.0
44,B-4,28.0,0.5,100,132.0
45,F5,28.5,0.5,100,132.0
46,B-4,29.5,0.5,100,132.0
47,B-3,30.0,1.5,100,132.0
48,E-5,30.0,0.5,100,132.0
49,G5,30.5,0.5,100,132.0
50,E-4,32.0,0.25,100,132.0
51,C3,32.0,4.0,100,132.0
52,D4,32.0,0.5,100,132.0
53,C2,32.0,0.5,100,132.0
54,C2,32.0,0.5,100,132.0
55,B2,32.0,0.5,100,132.0
56,F4,32.5,0.25,100,132.0
57,E-4,32.5,0.5,100,132.0
58,C2,32.5,0.5,100,132.0
59,C2,32.5,0.5,100,132.0
60,B2,32.5,0.5,100,132.0
61,G4,33.0,0.375,100,132.0
62,C2,33.0,0.5,100,132.0
63,C2,33.0,0.5,100,132.0
64,B2,33.0,0.5,100,132.0
65,C4,33.5,0.5,100,132.0
66,G4,34.0,0.25,100,132.0
67,D4,34.0,0.5,100,132.0
68,C2,34.0,0.5,100,132.0
69,B2,34.0,0.5,100,132.0
70,C2,34.0,0.5,100,132.0
71,B-4,34.5,0.25,100,132.0
72,E-4,34.5,0.5,100,132.0
73,C2,34.5,0.5,100,132.0
74,B2,34.5,0.5,100,132.0
75,C2,34.5,0.5,100,132.0
76,C3,35.5,0.5,100,132.0
77,C2,35.5,0.5,100,132.0
78,D3,35.5,0.5,100,132.0
79,C5,36.0,0.25,100,132.0
80,F4,36.0,0.5,100,132.0
81,E-3,36.0,4.0,100,132.0
82,E-2,36.0,0.5,100,132.0
83,B2,36.0,0.5,100,132.0
84,C2,36.0,0.5,100,132.0
85,B-4,36.5,0.25,100,132.0
86,G4,36.5,0.5,100,132.0
87,E-2,36.5,2.0,100,132.0
88,B2,36.5,0.5,100,132.0
89,C2,36.5,0.5,100,132.0
90,G4,37.0,0.25,100,132.0
91,B2,37.0,0.5,100,132.0
92,C2,37.0,0.5,100,132.0
93,F4,37.5,0.25,100,132.0
94,E-4,37.5,0.5,100,132.0
95,G4,38.0,0.25,100,132.0
96,F4,38.0,0.5,100,132.0
97,B2,38.0,0.5,100,132.0
98,C2,38.0,0.5,100,132.0
99,B-4,38.5,0.25,100,132.0
100,G4,38.5,0.5,100,132.0
101,C2,38.5,0.5,100,132.0
102,B2,38.5,0.5,100,132.0
103,G4,39.5,0.25,100,132.0
104,E-2,39.5,0.5,100,132.0
105,C2,39.5,0.5,100,132.0
106,D3,39.5,0.5,100,132.0
107,E-4,40.0,0.25,100,132.0
108,F3,40.0,4.0,100,132.0
109,G4,40.0,0.5,100,132.0
110,F2,40.0,0.5,100,132.0
111,B2,40.0,0.5,100,132.0
112,C2,40.0,0.5,100,132.0
113,F4,40.5,0.25,100,132.0
114,G#4,40.5,0.5,100,132.0
115,F2,40.5,0.5,100,132.0
116,B2,40.5,0.5,100,132.0
117,C2,40.5,0.5,100,132.0
118,G4,41.0,0.5,100,132.0
119,F2,41.0,2.5,100,132.0
120,B2,41.0,0.5,100,132.0
121,C2,41.0,0.5,100,132.0
122,F4,41.5,0.5,100,132.0
123,G4,42.0,0.25,100,132.0
124,G4,42.0,0.5,100,132.0
125,C2,42.0,0.5,100,132.0
126,B2,42.0,0.5,100,132.0
127,B-4,42.5,0.25,100,132.0
128,G#4,42.5,0.5,100,132.0
129,B2,42.5,0.5,100,132.0
130,C2,42.5,0.5,100,132.0
131,F3,43.5,0.5,100,132.0
132,C2,43.5,0.5,100,132.0
133,D3,43.5,0.5,100,132.0
134,C5,44.0,0.25,100,132.0
135,G#3,44.0,2.0,100,132.0
136,B-4,44.0,0.5,100,132.0
137,G#2,44.0,0.5,100,132.0
138,B2,44.0,0.5,100,132.0
139,C2,44.0,0.5,100,132.0
140,B-4,44.5,0.25,100,132.0
141,F5,44.5,0.5,100,132.0
142,G#2,44.5,0.5,100,132.0
143,B2,44.5,0.5,100,132.0
144,C2,44.5,0.5,100,132.0
145,G4,45.0,0.25,100,132.0
146,G#2,45.0,0.5,100,132.0
147,C2,45.0,0.5,100,132.0
148,B2,45.0,0.5,100,132.0
149,F4,45.5,0.25,100,132.0
150,B-4,45.5,0.5,100,132.0
151,G4,46.0,0.25,100,132.0
152,B-3,46.0,1.5,100,132.0
153,E-5,46.0,0.5,100,132.0
154,B-2,46.0,0.5,100,132.0
155,B2,46.0,0.5,100,132.0
156,C2,46.0,0.5,100,132.0
157,B-4,46.5,0.25,100,132.0
158,G5,46.5,0.5,100,132.0
159,B-2,46.5,0.5,100,132.0
160,B2,46.5,0.5,100,132.0
161,C2,46.5,0.5,100,132.0
162,B-2,47.0,1.0,100,132.0
163,G4,47.5,0.25,100,132.0
164,D3,47.5,0.5,100,132.0
165,C2,47.5,0.5,100,132.0
166,E-4,48.0,0.25,100,132.0
167,D4,48.0,0.5,100,132.0
168,C3,48.0,4.0,100,132.0
169,C2,48.0,0.5,100,132.0
170,B2,48.0,0.5,100,132.0
171,C2,48.0,0.5,100,132.0
172,F4,48.5,0.25,100,132.0
173,E-4,48.5,0.5,100,132.0
174,C2,48.5,0.5,100,132.0
175,C2,48.5,0.5,100,132.0
176,B2,48.5,0.5,100,132.0
177,G4,49.0,0.375,100,132.0
178,C2,49.0,0.5,100,132.0
179,C2,49.0,0.5,100,132.0
180,B2,49.0,0.5,100,132.0
181,C4,49.5,0.5,100,132.0
182,G4,50.0,0.25,100,132.0
183,D4,50.0,0.5,100,132.0
184,C2,50.0,0.5,100,132.0
185,B2,50.0,0.5,100,132.0
186,C2,50.0,0.5,100,132.0
187,B-4,50.5,0.25,100,132.0
188,E-4,50.5,0.5,100,132.0
189,C2,50.5,0.5,100,132.0
190,B2,50.5,0.5,100,132.0
191,C2,50.5,0.5,100,132.0
192,C3,51.5,0.5,100,132.0
193,D3,51.5,0.5,100,132.0
194,C2,51.5,0.5,100,132.0
195,C5,52.0,0.25,100,132.0
196,F4,52.0,0.5,100,132.0
197,E-3,52.0,4.0,100,132.0
198,E-2,52.0,0.5,100,132.0
199,C2,52.0,0.5,100,132.0
200,B2,52.0,0.5,100,132.0
201,B-4,52.5,0.25,100,132.0
202,G4,52.5,0.5,100,132.0
203,E-2,52.5,2.0,100,132.0
204,C2,52.5,0.5,100,132.0
205,B2,52.5,0.5,100,132.0
206,G4,53.0,0.25,100,132.0
207,C2,53.0,0.5,100,132.0
208,B2,53.0,0.5,100,132.0
209,F4,53.5,0.25,100,132.0
210,E-4,53.5,0.5,100,132.0
211,G4,54.0,0.25,100,132.0
212,F4,54.0,0.5,100,132.0
213,C2,54.0,0.5,100,132.0
214,B2,54.0,0.5,100,132.0
215,B-4,54.5,0.25,100,132.0
216,G4,54.5,0.5,100,132.0
217,B2,54.5,0.5,100,132.0
218,C2,54.5,0.5,100,132.0
219,G4,55.5,0.25,100,132.0
220,E-2,55.5,0.5,100,132.0
221,C2,55.5,0.5,100,132.0
222,D3,55.5,0.5,100,132.0
223,E-4,56.0,0.25,100,132.0
224,F3,56.0,4.0,100,132.0
225,G4,56.0,0.5,100,132.0
226,F2,56.0,0.5,100,132.0
227,C2,56.0,0.5,100,132.0
228,B2,56.0,0.5,100,132.0
229,F4,56.5,0.25,100,132.0
230,G#4,56.5,0.5,100,132.0
231,F2,56.5,0.5,100,132.0
232,C2,56.5,0.5,100,132.0
233,B2,56.5,0.5,100,132.0
234,G4,57.0,0.5,100,132.0
235,F2,57.0,2.5,100,132.0
236,C2,57.0,0.5,100,132.0
237,B2,57.0,0.5,100,132.0
238,F4,57.5,0.5,100,132.0
239,G4,58.0,0.25,100,132.0
240,G4,58.0,0.5,100,132.0
241,B2,58.0,0.5,100,132.0
242,C2,58.0,0.5,100,132.0
243,B-4,58.5,0.25,100,132.0
244,G#4,58.5,0.5,100,132.0
245,B2,58.5,0.5,100,132.0
246,C2,58.5,0.5,100,132.0
247,F3,59.5,0.5,100,132.0
248,C2,59.5,0.5,100,132.0
249,D3,59.5,0.5,100,132.0
250,C5,60.0,0.25,100,132.0
251,B-4,60.0,0.5,100,132.0
252,G#3,60.0,2.0,100,132.0
253,G#2,60.0,0.5,100,132.0
254,C2,60.0,0.5,100,132.0
255,B2,60.0,0.5,100,132.0
256,B-4,60.5,0.25,100,132.0
257,F5,60.5,0.5,100,132.0
258,G#2,60.5,0.5,100,132.0
259,C2,60.5,0.5,100,132.0
260,B2,60.5,0.5,100,132.0
261,G4,61.0,0.25,100,132.0
262,G#2,61.0,0.5,100,132.0
263,B2,61.0,0.5,100,132.0
264,C2,61.0,0.5,100,132.0
265,F4,61.5,0.25,100,132.0
266,B-4,61.5,0.5,100,132.0
267,G4,62.0,0.25,100,132.0
268,B-3,62.0,1.5,100,132.0
269,E-5,62.0,0.5,100,132.0
270,B-2,62.0,0.5,100,132.0
271,B2,62.0,0.5,100,132.0
272,C2,62.0,0.5,100,132.0
273,B-4,62.5,0.25,100,132.0
274,G5,62.5,0.5,100,132.0
275,B-2,62.5,0.5,100,132.0
276,B2,62.5,0.5,100,132.0
277,C2,62.5,0.5,100,132.0
278,B-2,63.0,1.0,100,132.0
279,G4,63.5,0.25,100,132.0
280,D3,63.5,0.5,100,132.0
281,C2,63.5,0.5,100,132.0
282,E-4,64.0,0.25,100,132.0
283,D4,64.0,0.5,100,132.0
284,C3,64.0,4.0,100,132.0
285,C2,64.0,0.5,100,132.0
286,C#3,64.0,0.5,100,132.0
287,C2,64.0,0.5,100,132.0
288,B2,64.0,0.5,100,132.0
289,F4,64.5,0.25,100,132.0
290,E-4,64.5,0.5,100,132.0
291,C2,64.5,0.5,100,132.0
292,B2,64.5,0.5,100,132.0
293,C2,64.5,0.5,100,132.0
294,G4,65.0,0.375,100,132.0
295,C2,65.0,0.5,100,132.0
296,B2,65.0,0.5,100,132.0
297,C2,65.0,0.5,100,132.0
298,C4,65.5,0.5,100,132.0
299,G4,66.0,0.25,100,132.0
300,D4,66.0,0.5,100,132.0
301,C2,66.0,0.5,100,132.0
302,C2,66.0,0.5,100,132.0
303,B2,66.0,0.5,100,132.0
304,B-4,66.5,0.25,100,132.0
305,E-4,66.5,0.5,100,132.0
306,C2,66.5,0.5,100,132.0
307,B2,66.5,0.5,100,132.0
308,C2,66.5,0.5,100,132.0
309,C3,67.5,0.5,100,132.0
310,D3,67.5,0.5,100,132.0
311,C2,67.5,0.5,100,132.0
312,C5,68.0,0.25,100,132.0
313,F4,68.0,0.5,100,132.0
314,E-3,68.0,4.0,100,132.0
315,E-2,68.0,0.5,100,132.0
316,C2,68.0,0.5,100,132.0
317,B2,68.0,0.5,100,132.0
318,B-4,68.5,0.25,100,132.0
319,G4,68.5,0.5,100,132.0
320,E-2,68.5,2.0,100,132.0
321,B2,68.5,0.5,100,132.0
322,C2,68.5,0.5,100,132.0
323,G4,69.0,0.25,100,132.0
324,C2,69.0,0.5,100,132.0
325,B2,69.0,0.5,100,132.0
326,F4,69.5,0.25,100,132.0
327,E-4,69.5,0.5,100,132.0
328,G4,70.0,0.25,100,132.0
329,F4,70.0,0.5,100,132.0
330,C2,70.0,0.5,100,132.0
331,B2,70.0,0.5,100,132.0
332,B-4,70.5,0.25,100,132.0
333,G4,70.5,0.5,100,132.0
334,C2,70.5,0.5,100,132.0
335,B2,70.5,0.5,100,132.0
336,G4,71.5,0.25,100,132.0
337,E-2,71.5,0.5,100,132.0
338,D3,71.5,0.5,100,132.0
339,C2,71.5,0.5,100,132.0
340,E-4,72.0,0.25,100,132.0
341,F3,72.0,4.0,100,132.0
342,G4,72.0,0.5,100,132.0
343,F2,72.0,0.5,100,132.0
344,C2,72.0,0.5,100,132.0
345,B2,72.0,0.5,100,132.0
346,F4,72.5,0.25,100,132.0
347,G#4,72.5,0.5,100,132.0
348,F2,72.5,0.5,100,132.0
349,C2,72.5,0.5,100,132.0
350,B2,72.5,0.5,100,132.0
351,G4,73.0,0.5,100,132.0
352,F2,73.0,2.5,100,132.0
353,C2,73.0,0.5,100,132.0
354,B2,73.0,0.5,100,132.0
355,F4,73.5,0.5,100,132.0
356,G4,74.0,0.25,100,132.0
357,G4,74.0,0.5,100,132.0
358,B2,74.0,0.5,100,132.0
359,C2,74.0,0.5,100,132.0
360,B-4,74.5,0.25,100,132.0
361,G#4,74.5,0.5,100,132.0
362,B2,74.5,0.5,100,132.0
363,C2,74.5,0.5,100,132.0
364,F3,75.5,0.5,100,132.0
365,D3,75.5,0.5,100,132.0
366,C2,75.5,0.5,100,132.0
367,C5,76.0,0.25,100,132.0
368,G#3,76.0,2.0,100,132.0
369,B-4,76.0,0.5,100,132.0
370,G#2,76.0,0.5,100,132.0
371,C2,76.0,0.5,100,132.0
372,B2,76.0,0.5,100,132.0
373,B-4,76.5,0.25,100,132.0
374,F5,76.5,0.5,100,132.0
375,G#2,76.5,0.5,100,132.0
376,C2,76.5,0.5,100,132.0
377,B2,76.5,0.5,100,132.0
378,G4,77.0,0.25,100,132.0
379,G#2,77.0,0.5,100,132.0
380,B2,77.0,0.5,100,132.0
381,C2,77.0,0.5,100,132.0
382,F4,77.5,0.25,100,132.0
383,B-4,77.5,0.5,100,132.0
384,G4,78.0,0.25,100,132.0
385,E-5,78.0,0.5,100,132.0
386,B-3,78.0,1.5,100,132.0
387,B-2,78.0,0.5,100,132.0
388,C2,78.0,0.5,100,132.0
389,B2,78.0,0.5,100,132.0
390,B-4,78.5,0.25,100,132.0
391,G5,78.5,0.5,100,132.0
392,B-2,78.5,0.5,100,132.0
393,C2,78.5,0.5,100,132.0
394,B2,78.5,0.5,100,132.0
395,B-2,79.0,1.0,100,132.0
396,G4,79.5,0.25,100,132.0
397,C2,79.5,0.5,100,132.0
398,D3,79.5,0.5,100,132.0
399,E-4,80.0,0.25,100,132.0
400,D4,80.0,0.5,100,132.0
401,C3,80.0,4.0,100,132.0
402,C2,80.0,0.5,100,132.0
403,C2,80.0,0.5,100,132.0
404,B2,80.0,0.5,100,132.0
405,F4,80.5,0.25,100,132.0
406,E-4,80.5,0.5,100,132.0
407,C2,80.5,0.5,100,132.0
408,B2,80.5,0.5,100,132.0
409,C2,80.5,0.5,100,132.0
410,G4,81.0,0.375,100,132.0
411,C2,81.0,0.5,100,132.0
412,B2,81.0,0.5,100,132.0
413,C2,81.0,0.5,100,132.0
414,C4,81.5,0.5,100,132.0
415,G4,82.0,0.25,100,132.0
416,D4,82.0,0.5,100,132.0
417,C2,82.0,0.5,100,132.0
418,C2,82.0,0.5,100,132.0
419,B2,82.0,0.5,100,132.0
420,B-4,82.5,0.25,100,132.0
421,E-4,82.5,0.5,100,132.0
422,C2,82.5,0.5,100,132.0
423,B2,82.5,0.5,100,132.0
424,C2,82.5,0.5,100,132.0
425,C3,83.5,0.5,100,132.0
426,C2,83.5,0.5,100,132.0
427,D3,83.5,0.5,100,132.0
428,C5,84.0,0.25,100,132.0
429,F4,84.0,0.5,100,132.0
430,E-3,84.0,4.0,100,132.0
431,E-2,84.0,0.5,100,132.0
432,B2,84.0,0.5,100,132.0
433,C2,84.0,0.5,100,132.0
434,B-4,84.5,0.25,100,132.0
435,G4,84.5,0.5,100,132.0
436,E-2,84.5,2.0,100,132.0
437,C2,84.5,0.5,100,132.0
438,B2,84.5,0.5,100,132.0
439,G4,85.0,0.25,100,132.0
440,B2,85.0,0.5,100,132.0
441,C2,85.0,0.5,100,132.0
442,F4,85.5,0.25,100,132.0
443,E-4,85.5,0.5,100,132.0
444,G4,86.0,0.25,100,132.0
445,F4,86.0,0.5,100,132.0
446,B2,86.0,0.5,100,132.0
447,C2,86.0,0.5,100,132.0
448,B-4,86.5,0.25,100,132.0
449,G4,86.5,0.5,100,132.0
450,B2,86.5,0.5,100,132.0
451,C2,86.5,0.5,100,132.0
452,G4,87.5,0.25,100,132.0
453,E-2,87.5,0.5,100,132.0
454,D3,87.5,0.5,100,132.0
455,C2,87.5,0.5,100,132.0
456,E-4,88.0,0.25,100,132.0
457,G4,88.0,0.5,100,132.0
458,F3,88.0,4.0,100,132.0
459,F2,88.0,0.5,100,132.0
460,B2,88.0,0.5,100,132.0
461,C2,88.0,0.5,100,132.0
462,F4,88.5,0.25,100,132.0
463,G#4,88.5,0.5,100,132.0
464,F2,88.5,0.5,100,132.0
465,B2,88.5,0.5,100,132.0
466,C2,88.5,0.5,100,132.0
467,G4,89.0,0.5,100,132.0
468,F2,89.0,2.5,100,132.0
469,B2,89.0,0.5,100,132.0
470,C2,89.0,0.5,100,132.0
471,F4,89.5,0.5,100,132.0
472,G4,90.0,0.25,100,132.0
473,G4,90.0,0.5,100,132.0
474,C2,90.0,0.5,100,132.0
475,B2,90.0,0.5,100,132.0
476,B-4,90.5,0.25,100,132.0
477,G#4,90.5,0.5,100,132.0
478,B2,90.5,0.5,100,132.0
479,C2,90.5,0.5,100,132.0
480,F3,91.5,0.5,100,132.0
481,D3,91.5,0.5,100,132.0
482,C2,91.5,0.5,100,132.0
483,C5,92.0,0.25,100,132.0
484,B-4,92.0,0.5,100,132.0
485,G#3,92.0,2.0,100,132.0
486,G#2,92.0,0.5,100,132.0
487,B2,92.0,0.5,100,132.0
488,C2,92.0,0.5,100,132.0
489,B-4,92.5,0.25,100,132.0
490,F5,92.5,0.5,100,132.0
491,G#2,92.5,0.5,100,132.0
492,B2,92.5,0.5,100,132.0
493,C2,92.5,0.5,100,132.0
494,G4,93.0,0.25,100,132.0
495,G#2,93.0,0.5,100,132.0
496,C2,93.0,0.5,100,132.0
497,B2,93.0,0.5,100,132.0
498,F4,93.5,0.25,100,132.0
499,B-4,93.5,0.5,100,132.0
500,G4,94.0,0.25,100,132.0
501,B-3,94.0,1.5,100,132.0
502,E-5,94.0,0.5,100,132.0
503,B-2,94.0,0.5,100,132.0
504,C2,94.0,0.5,100,132.0
505,B2,94.0,0.5,100,132.0
506,B-4,94.5,0.25,100,132.0
507,G5,94.5,0.5,100,132.0
508,B-2,94.5,0.5,100,132.0
509,C2,94.5,0.5,100,132.0
510,B2,94.5,0.5,100,132.0
511,B-2,95.0,1.0,100,132.0
512,G4,95.5,0.25,100,132.0
513,D3,95.5,0.5,100,132.0
514,C2,95.5,0.5,100,132.0
515,C2,96.0,0.5,100,132.0
516,C#3,96.0,0.5,100,132.0
