,note_name,start_time,duration,velocity,tempo
0,E-5,0.0,0.25,100,82.0
1,G#2,0.0,4.0,100,82.0
2,F#2,0.0,0.125,100,82.0
3,C2,0.0,0.5,100,82.0
4,F5,0.25,0.75,100,82.0
5,F#2,0.5,13/250,100,82.0
6,F#2,0.562,13/250,100,82.0
7,F#2,0.625,13/250,100,82.0
8,F#2,0.688,13/250,100,82.0
9,F#2,0.75,13/250,100,82.0
10,C2,0.75,0.25,100,82.0
11,F#2,0.812,13/250,100,82.0
12,F#2,0.875,13/250,100,82.0
13,F#2,0.938,13/250,100,82.0
14,C#2,1.0,0.25,100,82.0
15,B-4,1.5,0.25,100,82.0
16,F#2,1.5,0.125,100,82.0
17,C2,1.5,0.5,100,82.0
18,C5,1.75,0.75,100,82.0
19,F#2,1.75,0.125,100,82.0
20,F#2,2.0,0.125,100,82.0
21,F#2,2.25,0.125,100,82.0
22,C2,2.5,0.5,100,82.0
23,F#2,2.5,0.125,100,82.0
24,F#2,2.75,0.125,100,82.0
25,F4,3.0,0.25,100,82.0
26,C#2,3.0,0.25,100,82.0
27,F#2,3.0,0.125,100,82.0
28,G4,3.25,0.75,100,82.0
29,C2,3.25,0.5,100,82.0
30,F#2,3.25,0.125,100,82.0
31,F#2,3.5,0.125,100,82.0
32,F#2,3.75,0.125,100,82.0
33,G#2,4.0,2.5,100,82.0
34,F#2,4.0,0.125,100,82.0
35,F#2,4.25,0.125,100,82.0
36,C2,4.5,0.5,100,82.0
37,F#2,4.5,0.125,100,82.0
38,F#2,4.75,0.125,100,82.0
39,C#2,5.0,0.25,100,82.0
40,F#2,5.0,0.125,100,82.0
41,F#2,5.25,0.125,100,82.0
42,F#2,5.5,0.125,100,82.0
43,C#2,5.75,0.25,100,82.0
44,F#2,5.75,0.125,100,82.0
45,E-4,6.0,0.25,100,82.0
46,F#2,6.0,0.125,100,82.0
47,F4,6.25,0.25,100,82.0
48,F#2,6.25,0.125,100,82.0
49,G4,6.5,0.25,100,82.0
50,E-2,6.5,1.5,100,82.0
51,C2,6.5,0.5,100,82.0
52,F#2,6.5,0.125,100,82.0
53,G#4,6.75,0.25,100,82.0
54,F#2,6.75,0.125,100,82.0
55,G4,7.0,0.25,100,82.0
56,C#2,7.0,0.25,100,82.0
57,F#2,7.0,0.125,100,82.0
58,C2,7.25,0.25,100,82.0
59,F#2,7.25,0.125,100,82.0
60,F4,7.5,0.25,100,82.0
61,F#2,7.5,13/250,100,82.0
62,F#2,7.562,13/250,100,82.0
63,F#2,7.625,13/250,100,82.0
64,F#2,7.688,13/250,100,82.0
65,F#2,7.75,13/250,100,82.0
66,F#2,7.812,13/250,100,82.0
67,F#2,7.875,13/250,100,82.0
68,F#2,7.938,13/250,100,82.0
69,B-4,8.0,0.5,100,82.0
70,G#2,8.0,3.5,100,82.0
71,C2,8.0,0.25,100,82.0
72,F#2,8.0,0.125,100,82.0
73,F#2,8.25,0.125,100,82.0
74,F#2,8.5,0.125,100,82.0
75,F#2,8.75,13/250,100,82.0
76,C2,8.75,0.25,100,82.0
77,F#2,8.812,13/250,100,82.0
78,F#2,8.875,13/250,100,82.0
79,F#2,8.938,13/250,100,82.0
80,C#2,9.0,0.25,100,82.0
81,F#2,9.0,0.125,100,82.0
82,F#2,9.25,0.125,100,82.0
83,C2,9.5,0.25,100,82.0
84,F#2,9.5,0.125,100,82.0
85,F#2,9.75,0.125,100,82.0
86,F#2,10.0,0.125,100,82.0
87,F#2,10.25,0.125,100,82.0
88,C2,10.25,0.25,100,82.0
89,F#2,10.5,0.125,100,82.0
90,C2,10.5,0.25,100,82.0
91,F#2,10.75,0.125,100,82.0
92,F#2,11.0,0.125,100,82.0
93,C#2,11.0,0.25,100,82.0
94,F#2,11.25,0.125,100,82.0
95,G#3,11.5,0.25,100,82.0
96,F#2,11.5,0.125,100,82.0
97,E-2,11.75,0.25,100,82.0
98,C#2,11.75,0.25,100,82.0
99,F#2,11.75,13/250,100,82.0
100,F#2,11.812,13/250,100,82.0
101,F#2,11.875,13/250,100,82.0
102,F#2,11.938,13/250,100,82.0
103,E-2,12.0,4.0,100,82.0
104,F#2,12.0,0.125,100,82.0
105,F#2,12.25,0.125,100,82.0
106,F#2,12.5,0.125,100,82.0
107,C2,12.5,0.25,100,82.0
108,F#2,12.75,0.125,100,82.0
109,C#2,13.0,0.25,100,82.0
110,F#2,13.0,0.125,100,82.0
111,C2,13.25,0.25,100,82.0
112,F#2,13.25,0.125,100,82.0
113,F#2,13.5,0.125,100,82.0
114,F#2,13.75,0.125,100,82.0
115,F#2,14.25,0.125,100,82.0
116,C2,14.25,0.25,100,82.0
117,F#2,14.5,0.125,100,82.0
118,C2,14.5,0.25,100,82.0
119,F#2,14.75,0.125,100,82.0
120,E-4,15.0,0.25,100,82.0
121,F#2,15.0,0.125,100,82.0
122,C#2,15.0,0.25,100,82.0
123,F4,15.25,0.25,100,82.0
124,F#2,15.25,0.125,100,82.0
125,C2,15.25,0.25,100,82.0
126,G4,15.5,0.25,100,82.0
127,F#2,15.5,0.125,100,82.0
128,B-4,15.75,0.25,100,82.0
129,F#2,15.75,0.125,100,82.0
130,C2,15.75,0.25,100,82.0
131,E-5,16.0,0.25,100,82.0
132,G#2,16.0,4.0,100,82.0
133,C2,16.0,0.5,100,82.0
134,F#2,16.0,0.125,100,82.0
135,F#2,16.0,0.125,100,82.0
136,F5,16.25,0.75,100,82.0
137,F#2,16.5,13/250,100,82.0
138,F#2,16.562,13/250,100,82.0
139,F#2,16.625,13/250,100,82.0
140,F#2,16.688,13/250,100,82.0
141,F#2,16.75,13/250,100,82.0
142,C2,16.75,0.25,100,82.0
143,F#2,16.812,13/250,100,82.0
144,F#2,16.875,13/250,100,82.0
145,F#2,16.938,13/250,100,82.0
146,C#2,17.0,0.25,100,82.0
147,B-4,17.5,0.25,100,82.0
148,F#2,17.5,0.125,100,82.0
149,C2,17.5,0.5,100,82.0
150,C5,17.75,0.75,100,82.0
151,F#2,17.75,0.125,100,82.0
152,F#2,18.0,0.125,100,82.0
153,F#2,18.25,0.125,100,82.0
154,C2,18.5,0.5,100,82.0
155,F#2,18.5,0.125,100,82.0
156,F#2,18.75,0.125,100,82.0
157,F4,19.0,0.25,100,82.0
158,C#2,19.0,0.25,100,82.0
159,F#2,19.0,0.125,100,82.0
160,G4,19.25,0.75,100,82.0
161,C2,19.25,0.5,100,82.0
162,F#2,19.25,0.125,100,82.0
163,F#2,19.5,0.125,100,82.0
164,F#2,19.75,0.125,100,82.0
165,G#2,20.0,2.5,100,82.0
166,F#2,20.0,0.125,100,82.0
167,F#2,20.25,0.125,100,82.0
168,C2,20.5,0.5,100,82.0
169,F#2,20.5,0.125,100,82.0
170,F#2,20.75,0.125,100,82.0
171,C#2,21.0,0.25,100,82.0
172,F#2,21.0,0.125,100,82.0
173,F#2,21.25,0.125,100,82.0
174,F#2,21.5,0.125,100,82.0
175,C#2,21.75,0.25,100,82.0
176,F#2,21.75,0.125,100,82.0
177,E-4,22.0,0.25,100,82.0
178,F#2,22.0,0.125,100,82.0
179,F4,22.25,0.25,100,82.0
180,F#2,22.25,0.125,100,82.0
181,G4,22.5,0.25,100,82.0
182,E-2,22.5,1.5,100,82.0
183,C2,22.5,0.5,100,82.0
184,F#2,22.5,0.125,100,82.0
185,G#4,22.75,0.25,100,82.0
186,F#2,22.75,0.125,100,82.0
187,G4,23.0,0.25,100,82.0
188,C#2,23.0,0.25,100,82.0
189,F#2,23.0,0.125,100,82.0
190,C2,23.25,0.25,100,82.0
191,F#2,23.25,0.125,100,82.0
192,F4,23.5,0.25,100,82.0
193,F#2,23.5,13/250,100,82.0
194,F#2,23.562,13/250,100,82.0
195,F#2,23.625,13/250,100,82.0
196,F#2,23.688,13/250,100,82.0
197,F#2,23.75,13/250,100,82.0
198,F#2,23.812,13/250,100,82.0
199,F#2,23.875,13/250,100,82.0
200,F#2,23.938,13/250,100,82.0
201,B-4,24.0,0.5,100,82.0
202,G#2,24.0,3.5,100,82.0
203,C2,24.0,0.25,100,82.0
204,F#2,24.0,0.125,100,82.0
205,F#2,24.25,0.125,100,82.0
206,F#2,24.5,0.125,100,82.0
207,F#2,24.75,13/250,100,82.0
208,C2,24.75,0.25,100,82.0
209,F#2,24.812,13/250,100,82.0
210,F#2,24.875,13/250,100,82.0
211,F#2,24.938,13/250,100,82.0
212,C#2,25.0,0.25,100,82.0
213,F#2,25.0,0.125,100,82.0
214,F#2,25.25,0.125,100,82.0
215,C2,25.5,0.25,100,82.0
216,F#2,25.5,0.125,100,82.0
217,F#2,25.75,0.125,100,82.0
218,F#2,26.0,0.125,100,82.0
219,F#2,26.25,0.125,100,82.0
220,C2,26.25,0.25,100,82.0
221,F#2,26.5,0.125,100,82.0
222,C2,26.5,0.25,100,82.0
223,F#2,26.75,0.125,100,82.0
224,F#2,27.0,0.125,100,82.0
225,C#2,27.0,0.25,100,82.0
226,F#2,27.25,0.125,100,82.0
227,G#3,27.5,0.25,100,82.0
228,F#2,27.5,0.125,100,82.0
229,E-2,27.75,0.25,100,82.0
230,C#2,27.75,0.25,100,82.0
231,F#2,27.75,13/250,100,82.0
232,F#2,27.812,13/250,100,82.0
233,F#2,27.875,13/250,100,82.0
234,F#2,27.938,13/250,100,82.0
235,E-2,28.0,4.0,100,82.0
236,F#2,28.0,0.125,100,82.0
237,F#2,28.25,0.125,100,82.0
238,F#2,28.5,0.125,100,82.0
239,C2,28.5,0.25,100,82.0
240,F#2,28.75,0.125,100,82.0
241,C#2,29.0,0.25,100,82.0
242,F#2,29.0,0.125,100,82.0
243,C2,29.25,0.25,100,82.0
244,F#2,29.25,0.125,100,82.0
245,F#2,29.5,0.125,100,82.0
246,F#2,29.75,0.125,100,82.0
247,F#2,30.25,0.125,100,82.0
248,C2,30.25,0.25,100,82.0
249,F#2,30.5,0.125,100,82.0
250,C2,30.5,0.25,100,82.0
251,F#2,30.75,0.125,100,82.0
252,E-4,31.0,0.25,100,82.0
253,F#2,31.0,0.125,100,82.0
254,C#2,31.0,0.25,100,82.0
255,F4,31.25,0.25,100,82.0
256,F#2,31.25,0.125,100,82.0
257,C2,31.25,0.25,100,82.0
258,G4,31.5,0.25,100,82.0
259,F#2,31.5,0.125,100,82.0
260,B-4,31.75,0.25,100,82.0
261,F#2,31.75,0.125,100,82.0
262,C2,31.75,0.25,100,82.0
263,E-5,32.0,0.25,100,82.0
264,G#2,32.0,4.0,100,82.0
265,C2,32.0,0.5,100,82.0
266,F#2,32.0,0.125,100,82.0
267,F#2,32.0,0.125,100,82.0
268,F5,32.25,0.75,100,82.0
269,F#2,32.5,13/250,100,82.0
270,F#2,32.562,13/250,100,82.0
271,F#2,32.625,13/250,100,82.0
272,F#2,32.688,13/250,100,82.0
273,F#2,32.75,13/250,100,82.0
274,C2,32.75,0.25,100,82.0
275,F#2,32.812,13/250,100,82.0
276,F#2,32.875,13/250,100,82.0
277,F#2,32.938,13/250,100,82.0
278,C#2,33.0,0.25,100,82.0
279,B-4,33.5,0.25,100,82.0
280,F#2,33.5,0.125,100,82.0
281,C2,33.5,0.5,100,82.0
282,C5,33.75,0.75,100,82.0
283,F#2,33.75,0.125,100,82.0
284,F#2,34.0,0.125,100,82.0
285,F#2,34.25,0.125,100,82.0
286,C2,34.5,0.5,100,82.0
287,F#2,34.5,0.125,100,82.0
288,F#2,34.75,0.125,100,82.0
289,F4,35.0,0.25,100,82.0
290,C#2,35.0,0.25,100,82.0
291,F#2,35.0,0.125,100,82.0
292,G4,35.25,0.75,100,82.0
293,C2,35.25,0.5,100,82.0
294,F#2,35.25,0.125,100,82.0
295,F#2,35.5,0.125,100,82.0
296,F#2,35.75,0.125,100,82.0
297,G#2,36.0,2.5,100,82.0
298,F#2,36.0,0.125,100,82.0
299,F#2,36.25,0.125,100,82.0
300,C2,36.5,0.5,100,82.0
301,F#2,36.5,0.125,100,82.0
302,F#2,36.75,0.125,100,82.0
303,C#2,37.0,0.25,100,82.0
304,F#2,37.0,0.125,100,82.0
305,F#2,37.25,0.125,100,82.0
306,F#2,37.5,0.125,100,82.0
307,C#2,37.75,0.25,100,82.0
308,F#2,37.75,0.125,100,82.0
309,E-4,38.0,0.25,100,82.0
310,F#2,38.0,0.125,100,82.0
311,F4,38.25,0.25,100,82.0
312,F#2,38.25,0.125,100,82.0
313,G4,38.5,0.25,100,82.0
314,E-2,38.5,1.5,100,82.0
315,C2,38.5,0.5,100,82.0
316,F#2,38.5,0.125,100,82.0
317,G#4,38.75,0.25,100,82.0
318,F#2,38.75,0.125,100,82.0
319,G4,39.0,0.25,100,82.0
320,C#2,39.0,0.25,100,82.0
321,F#2,39.0,0.125,100,82.0
322,C2,39.25,0.25,100,82.0
323,F#2,39.25,0.125,100,82.0
324,F4,39.5,0.25,100,82.0
325,F#2,39.5,13/250,100,82.0
326,F#2,39.562,13/250,100,82.0
327,F#2,39.625,13/250,100,82.0
328,F#2,39.688,13/250,100,82.0
329,F#2,39.75,13/250,100,82.0
330,F#2,39.812,13/250,100,82.0
331,F#2,39.875,13/250,100,82.0
332,F#2,39.938,13/250,100,82.0
333,B-4,40.0,0.5,100,82.0
334,G#2,40.0,3.5,100,82.0
335,C2,40.0,0.25,100,82.0
336,F#2,40.0,0.125,100,82.0
337,F#2,40.25,0.125,100,82.0
338,F#2,40.5,0.125,100,82.0
339,F#2,40.75,13/250,100,82.0
340,C2,40.75,0.25,100,82.0
341,F#2,40.812,13/250,100,82.0
342,F#2,40.875,13/250,100,82.0
343,F#2,40.938,13/250,100,82.0
344,C#2,41.0,0.25,100,82.0
345,F#2,41.0,0.125,100,82.0
346,F#2,41.25,0.125,100,82.0
347,C2,41.5,0.25,100,82.0
348,F#2,41.5,0.125,100,82.0
349,F#2,41.75,0.125,100,82.0
350,F#2,42.0,0.125,100,82.0
351,F#2,42.25,0.125,100,82.0
352,C2,42.25,0.25,100,82.0
353,F#2,42.5,0.125,100,82.0
354,C2,42.5,0.25,100,82.0
355,F#2,42.75,0.125,100,82.0
356,F#2,43.0,0.125,100,82.0
357,C#2,43.0,0.25,100,82.0
358,F#2,43.25,0.125,100,82.0
359,G#3,43.5,0.25,100,82.0
360,F#2,43.5,0.125,100,82.0
361,E-2,43.75,0.25,100,82.0
362,C#2,43.75,0.25,100,82.0
363,F#2,43.75,13/250,100,82.0
364,F#2,43.812,13/250,100,82.0
365,F#2,43.875,13/250,100,82.0
366,F#2,43.938,13/250,100,82.0
367,E-2,44.0,4.0,100,82.0
368,F#2,44.0,0.125,100,82.0
369,F#2,44.25,0.125,100,82.0
370,F#2,44.5,0.125,100,82.0
371,C2,44.5,0.25,100,82.0
372,F#2,44.75,0.125,100,82.0
373,C#2,45.0,0.25,100,82.0
374,F#2,45.0,0.125,100,82.0
375,C2,45.25,0.25,100,82.0
376,F#2,45.25,0.125,100,82.0
377,F#2,45.5,0.125,100,82.0
378,F#2,45.75,0.125,100,82.0
379,F#2,46.25,0.125,100,82.0
380,C2,46.25,0.25,100,82.0
381,F#2,46.5,0.125,100,82.0
382,C2,46.5,0.25,100,82.0
383,F#2,46.75,0.125,100,82.0
384,E-4,47.0,0.25,100,82.0
385,F#2,47.0,0.125,100,82.0
386,C#2,47.0,0.25,100,82.0
387,F4,47.25,0.25,100,82.0
388,F#2,47.25,0.125,100,82.0
389,C2,47.25,0.25,100,82.0
390,G4,47.5,0.25,100,82.0
391,F#2,47.5,0.125,100,82.0
392,B-4,47.75,0.25,100,82.0
393,F#2,47.75,0.125,100,82.0
394,C2,47.75,0.25,100,82.0
395,E-5,48.0,0.25,100,82.0
396,G#2,48.0,4.0,100,82.0
397,C2,48.0,0.5,100,82.0
398,F#2,48.0,0.125,100,82.0
399,F#2,48.0,0.125,100,82.0
400,F5,48.25,0.75,100,82.0
401,F#2,48.5,13/250,100,82.0
402,F#2,48.562,13/250,100,82.0
403,F#2,48.625,13/250,100,82.0
404,F#2,48.688,13/250,100,82.0
405,F#2,48.75,13/250,100,82.0
406,C2,48.75,0.25,100,82.0
407,F#2,48.812,13/250,100,82.0
408,F#2,48.875,13/250,100,82.0
409,F#2,48.938,13/250,100,82.0
410,C#2,49.0,0.25,100,82.0
411,B-4,49.5,0.25,100,82.0
412,F#2,49.5,0.125,100,82.0
413,C2,49.5,0.5,100,82.0
414,C5,49.75,0.75,100,82.0
415,F#2,49.75,0.125,100,82.0
416,F#2,50.0,0.125,100,82.0
417,F#2,50.25,0.125,100,82.0
418,C2,50.5,0.5,100,82.0
419,F#2,50.5,0.125,100,82.0
420,F#2,50.75,0.125,100,82.0
421,F4,51.0,0.25,100,82.0
422,C#2,51.0,0.25,100,82.0
423,F#2,51.0,0.125,100,82.0
424,G4,51.25,0.75,100,82.0
425,C2,51.25,0.5,100,82.0
426,F#2,51.25,0.125,100,82.0
427,F#2,51.5,0.125,100,82.0
428,F#2,51.75,0.125,100,82.0
429,G#2,52.0,2.5,100,82.0
430,F#2,52.0,0.125,100,82.0
431,F#2,52.25,0.125,100,82.0
432,C2,52.5,0.5,100,82.0
433,F#2,52.5,0.125,100,82.0
434,F#2,52.75,0.125,100,82.0
435,C#2,53.0,0.25,100,82.0
436,F#2,53.0,0.125,100,82.0
437,F#2,53.25,0.125,100,82.0
438,F#2,53.5,0.125,100,82.0
439,C#2,53.75,0.25,100,82.0
440,F#2,53.75,0.125,100,82.0
441,E-4,54.0,0.25,100,82.0
442,F#2,54.0,0.125,100,82.0
443,F4,54.25,0.25,100,82.0
444,F#2,54.25,0.125,100,82.0
445,G4,54.5,0.25,100,82.0
446,E-2,54.5,1.5,100,82.0
447,C2,54.5,0.5,100,82.0
448,F#2,54.5,0.125,100,82.0
449,G#4,54.75,0.25,100,82.0
450,F#2,54.75,0.125,100,82.0
451,G4,55.0,0.25,100,82.0
452,C#2,55.0,0.25,100,82.0
453,F#2,55.0,0.125,100,82.0
454,C2,55.25,0.25,100,82.0
455,F#2,55.25,0.125,100,82.0
456,F4,55.5,0.25,100,82.0
457,F#2,55.5,13/250,100,82.0
458,F#2,55.562,13/250,100,82.0
459,F#2,55.625,13/250,100,82.0
460,F#2,55.688,13/250,100,82.0
461,F#2,55.75,13/250,100,82.0
462,F#2,55.812,13/250,100,82.0
463,F#2,55.875,13/250,100,82.0
464,F#2,55.938,13/250,100,82.0
465,B-4,56.0,0.5,100,82.0
466,G#2,56.0,3.5,100,82.0
467,C2,56.0,0.25,100,82.0
468,F#2,56.0,0.125,100,82.0
469,F#2,56.25,0.125,100,82.0
470,F#2,56.5,0.125,100,82.0
471,F#2,56.75,13/250,100,82.0
472,C2,56.75,0.25,100,82.0
473,F#2,56.812,13/250,100,82.0
474,F#2,56.875,13/250,100,82.0
475,F#2,56.938,13/250,100,82.0
476,C#2,57.0,0.25,100,82.0
477,F#2,57.0,0.125,100,82.0
478,F#2,57.25,0.125,100,82.0
479,C2,57.5,0.25,100,82.0
480,F#2,57.5,0.125,100,82.0
481,F#2,57.75,0.125,100,82.0
482,F#2,58.0,0.125,100,82.0
483,F#2,58.25,0.125,100,82.0
484,C2,58.25,0.25,100,82.0
485,F#2,58.5,0.125,100,82.0
486,C2,58.5,0.25,100,82.0
487,F#2,58.75,0.125,100,82.0
488,F#2,59.0,0.125,100,82.0
489,C#2,59.0,0.25,100,82.0
490,F#2,59.25,0.125,100,82.0
491,G#3,59.5,0.25,100,82.0
492,F#2,59.5,0.125,100,82.0
493,E-2,59.75,0.25,100,82.0
494,C#2,59.75,0.25,100,82.0
495,F#2,59.75,13/250,100,82.0
496,F#2,59.812,13/250,100,82.0
497,F#2,59.875,13/250,100,82.0
498,F#2,59.938,13/250,100,82.0
499,E-2,60.0,4.0,100,82.0
500,F#2,60.0,0.125,100,82.0
501,F#2,60.25,0.125,100,82.0
502,F#2,60.5,0.125,100,82.0
503,C2,60.5,0.25,100,82.0
504,F#2,60.75,0.125,100,82.0
505,C#2,61.0,0.25,100,82.0
506,F#2,61.0,0.125,100,82.0
507,C2,61.25,0.25,100,82.0
508,F#2,61.25,0.125,100,82.0
509,F#2,61.5,0.125,100,82.0
510,F#2,61.75,0.125,100,82.0
511,F#2,62.25,0.125,100,82.0
512,C2,62.25,0.25,100,82.0
513,F#2,62.5,0.125,100,82.0
514,C2,62.5,0.25,100,82.0
515,F#2,62.75,0.125,100,82.0
516,E-4,63.0,0.25,100,82.0
517,F#2,63.0,0.125,100,82.0
518,C#2,63.0,0.25,100,82.0
519,F4,63.25,0.25,100,82.0
520,F#2,63.25,0.125,100,82.0
521,C2,63.25,0.25,100,82.0
522,G4,63.5,0.25,100,82.0
523,F#2,63.5,0.125,100,82.0
524,B-4,63.75,0.25,100,82.0
525,F#2,63.75,0.125,100,82.0
526,C2,63.75,0.25,100,82.0
527,C2,64.0,0.125,100,82.0
528,C#3,64.0,0.125,100,82.0
