,note_name,start_time,duration,velocity,tempo
0,G#3,352.0,0.5,76,120
1,G#4,352.0,0.5,76,120
2,B3,352.75,0.5,76,120
3,B4,352.75,0.5,76,120
4,C#4,353.5,0.5,76,120
5,C#5,353.5,0.5,76,120
6,E-4,354.25,0.5,76,120
7,E-5,354.25,0.5,76,120
8,G#4,355.0,0.5,76,120
9,G#5,355.0,0.5,76,120
10,G#5,359.5,0.5,76,120
11,G#3,360.0,0.5,76,120
12,G#4,360.0,0.5,76,120
13,B3,360.75,0.5,76,120
14,B4,360.75,0.5,76,120
15,C#4,361.5,0.5,76,120
16,C#5,361.5,0.5,76,120
17,E-4,362.25,0.5,76,120
18,E-5,362.25,0.5,76,120
19,G#4,363.0,0.5,76,120
20,G#5,363.0,0.5,76,120
21,G#3,368.0,0.5,76,120
22,G#4,368.0,0.5,76,120
23,B3,368.75,0.5,76,120
24,B4,368.75,0.5,76,120
25,F#4,369.5,0.5,76,120
26,F#5,369.5,0.5,76,120
27,F#4,370.25,0.5,76,120
28,F#5,370.25,0.5,76,120
29,G#4,371.0,0.5,76,120
30,G#5,371.0,0.5,76,120
31,G#4,375.5,0.5,76,120
32,G#5,375.5,0.5,76,120
33,G#3,376.0,0.5,76,120
34,G#4,376.0,0.5,76,120
35,B3,376.75,0.5,76,120
36,B4,376.75,0.5,76,120
37,C#4,377.5,0.5,76,120
38,C#5,377.5,0.5,76,120
39,E-4,378.25,0.5,76,120
40,E-5,378.25,0.5,76,120
41,G#4,379.0,0.5,76,120
42,G#5,379.0,0.5,76,120
43,G#3,384.0,0.5,76,120
44,G#4,384.0,0.5,76,120
45,B3,384.75,0.5,76,120
46,B4,384.75,0.5,76,120
47,C#4,385.5,0.5,76,120
48,C#5,385.5,0.5,76,120
49,E-4,386.25,0.5,76,120
50,E-5,386.25,0.5,76,120
51,G#4,387.0,0.5,76,120
52,G#5,387.0,0.5,76,120
53,G#5,391.5,0.5,76,120
54,G#3,392.0,0.5,76,120
55,G#4,392.0,0.5,76,120
56,B3,392.75,0.5,76,120
57,B4,392.75,0.5,76,120
58,C#4,393.5,0.5,76,120
59,C#5,393.5,0.5,76,120
60,E-4,394.25,0.5,76,120
61,E-5,394.25,0.5,76,120
62,G#4,395.0,0.5,76,120
63,G#5,395.0,0.5,76,120
64,G#3,400.0,0.5,76,120
65,G#4,400.0,0.5,76,120
66,B3,400.75,0.5,76,120
67,B4,400.75,0.5,76,120
68,F#4,401.5,0.5,76,120
69,F#5,401.5,0.5,76,120
70,F#4,402.25,0.5,76,120
71,F#5,402.25,0.5,76,120
72,G#4,403.0,0.5,76,120
73,G#5,403.0,0.5,76,120
74,G#4,407.5,0.5,76,120
75,G#5,407.5,0.5,76,120
76,G#3,408.0,0.5,76,120
77,G#4,408.0,0.5,76,120
78,B3,408.75,0.5,76,120
79,B4,408.75,0.5,76,120
80,C#4,409.5,0.5,76,120
81,C#5,409.5,0.5,76,120
82,E-4,410.25,0.5,76,120
83,E-5,410.25,0.5,76,120
84,G#4,411.0,0.5,76,120
85,G#5,411.0,0.5,76,120
86,G#3,496.0,0.5,76,120
87,G#4,496.0,0.5,76,120
88,B3,496.75,0.5,76,120
89,B4,496.75,0.5,76,120
90,C#4,497.5,0.5,76,120
91,C#5,497.5,0.5,76,120
92,E-4,498.25,0.5,76,120
93,E-5,498.25,0.5,76,120
94,G#4,499.0,0.5,76,120
95,G#5,499.0,0.5,76,120
96,G#5,503.5,0.5,76,120
97,G#3,504.0,0.5,76,120
98,G#4,504.0,0.5,76,120
99,B3,504.75,0.5,76,120
100,B4,504.75,0.5,76,120
101,C#4,505.5,0.5,76,120
102,C#5,505.5,0.5,76,120
103,E-4,506.25,0.5,76,120
104,E-5,506.25,0.5,76,120
105,G#4,507.0,0.5,76,120
106,G#5,507.0,0.5,76,120
107,G#3,512.0,0.5,76,120
108,G#4,512.0,0.5,76,120
109,B3,512.75,0.5,76,120
110,B4,512.75,0.5,76,120
111,F#4,513.5,0.5,76,120
112,F#5,513.5,0.5,76,120
113,F#4,514.25,0.5,76,120
114,F#5,514.25,0.5,76,120
115,G#4,515.0,0.5,76,120
116,G#5,515.0,0.5,76,120
117,G#4,519.5,0.5,76,120
118,G#5,519.5,0.5,76,120
119,G#3,520.0,0.5,76,120
120,G#4,520.0,0.5,76,120
121,B3,520.75,0.5,76,120
122,B4,520.75,0.5,76,120
123,C#4,521.5,0.5,76,120
124,C#5,521.5,0.5,76,120
125,E-4,522.25,0.5,76,120
126,E-5,522.25,0.5,76,120
127,G#4,523.0,0.5,76,120
128,G#5,523.0,0.5,76,120
129,G#3,528.0,0.5,76,120
130,G#4,528.0,0.5,76,120
131,B3,528.75,0.5,76,120
132,B4,528.75,0.5,76,120
133,C#4,529.5,0.5,76,120
134,C#5,529.5,0.5,76,120
135,E-4,530.25,0.5,76,120
136,E-5,530.25,0.5,76,120
137,G#4,531.0,0.5,76,120
138,G#5,531.0,0.5,76,120
139,G#5,535.5,0.5,76,120
140,G#3,536.0,0.5,76,120
141,G#4,536.0,0.5,76,120
142,B3,536.75,0.5,76,120
143,B4,536.75,0.5,76,120
144,C#4,537.5,0.5,76,120
145,C#5,537.5,0.5,76,120
146,E-4,538.25,0.5,76,120
147,E-5,538.25,0.5,76,120
148,G#4,539.0,0.5,76,120
149,G#5,539.0,0.5,76,120
150,G#3,544.0,0.5,76,120
151,G#4,544.0,0.5,76,120
152,B3,544.75,0.5,76,120
153,B4,544.75,0.5,76,120
154,F#4,545.5,0.5,76,120
155,F#5,545.5,0.5,76,120
156,F#4,546.25,0.5,76,120
157,F#5,546.25,0.5,76,120
158,G#4,547.0,0.5,76,120
159,G#5,547.0,0.5,76,120
160,G#4,551.5,0.5,76,120
161,G#5,551.5,0.5,76,120
162,G#3,552.0,0.5,76,120
163,G#4,552.0,0.5,76,120
164,B3,552.75,0.5,76,120
165,B4,552.75,0.5,76,120
166,C#4,553.5,0.5,76,120
167,C#5,553.5,0.5,76,120
168,E-4,554.25,0.5,76,120
169,E-5,554.25,0.5,76,120
170,G#4,555.0,0.5,76,120
171,G#5,555.0,0.5,76,120
172,G#3,560.0,0.5,76,120
173,G#4,560.0,0.5,76,120
174,B3,560.75,0.5,76,120
175,B4,560.75,0.5,76,120
176,C#4,561.5,0.5,76,120
177,C#5,561.5,0.5,76,120
178,E-4,562.25,0.5,76,120
179,E-5,562.25,0.5,76,120
180,G#4,563.0,0.5,76,120
181,G#5,563.0,0.5,76,120
182,G#5,567.5,0.5,76,120
183,G#3,568.0,0.5,76,120
184,G#4,568.0,0.5,76,120
185,B3,568.75,0.5,76,120
186,B4,568.75,0.5,76,120
187,C#4,569.5,0.5,76,120
188,C#5,569.5,0.5,76,120
189,E-4,570.25,0.5,76,120
190,E-5,570.25,0.5,76,120
191,G#4,571.0,0.5,76,120
192,G#5,571.0,0.5,76,120
193,G#3,576.0,0.5,76,120
194,G#4,576.0,0.5,76,120
195,B3,576.75,0.5,76,120
196,B4,576.75,0.5,76,120
197,F#4,577.5,0.5,76,120
198,F#5,577.5,0.5,76,120
199,F#4,578.25,0.5,76,120
200,F#5,578.25,0.5,76,120
201,G#4,579.0,0.5,76,120
202,G#5,579.0,0.5,76,120
203,G#4,583.5,0.5,76,120
204,G#5,583.5,0.5,76,120
205,G#3,584.0,0.5,76,120
206,G#4,584.0,0.5,76,120
207,B3,584.75,0.5,76,120
208,B4,584.75,0.5,76,120
209,C#4,585.5,0.5,76,120
210,C#5,585.5,0.5,76,120
211,E-4,586.25,0.5,76,120
212,E-5,586.25,0.5,76,120
213,G#4,587.0,0.5,76,120
214,G#5,587.0,0.5,76,120
215,G#3,592.0,0.5,76,120
216,G#4,592.0,0.5,76,120
217,B3,592.75,0.5,76,120
218,B4,592.75,0.5,76,120
219,C#4,593.5,0.5,76,120
220,C#5,593.5,0.5,76,120
221,E-4,594.25,0.5,76,120
222,E-5,594.25,0.5,76,120
223,G#4,595.0,0.5,76,120
224,G#5,595.0,0.5,76,120
225,G#5,599.5,0.5,76,120
226,G#3,600.0,0.5,76,120
227,G#4,600.0,0.5,76,120
228,B3,600.75,0.5,76,120
229,B4,600.75,0.5,76,120
230,C#4,601.5,0.5,76,120
231,C#5,601.5,0.5,76,120
232,E-4,602.25,0.5,76,120
233,E-5,602.25,0.5,76,120
234,G#4,603.0,0.5,76,120
235,G#5,603.0,0.5,76,120
236,G#3,608.0,0.5,76,120
237,G#4,608.0,0.5,76,120
238,B3,608.75,0.5,76,120
239,B4,608.75,0.5,76,120
240,F#4,609.5,0.5,76,120
241,F#5,609.5,0.5,76,120
242,F#4,610.25,0.5,76,120
243,F#5,610.25,0.5,76,120
244,G#4,611.0,0.5,76,120
245,G#5,611.0,0.5,76,120
246,G#4,615.5,0.5,76,120
247,G#5,615.5,0.5,76,120
248,G#3,616.0,0.5,76,120
249,G#4,616.0,0.5,76,120
250,B3,616.75,0.5,76,120
251,B4,616.75,0.5,76,120
252,C#4,617.5,0.5,76,120
253,C#5,617.5,0.5,76,120
254,E-4,618.25,0.5,76,120
255,E-5,618.25,0.5,76,120
256,G#4,619.0,0.5,76,120
257,G#5,619.0,0.5,76,120
