,note_name,start_time,duration,velocity,tempo
0,E-2,0.0,4.0,95,145.0
1,F#5,0.0,0.25,95,145.0
2,E-5,0.0,0.25,95,145.0
3,B-4,0.0,0.25,95,145.0
4,C#5,0.0,0.25,95,145.0
5,F#5,1.0,0.25,95,145.0
6,C#5,1.0,0.25,95,145.0
7,E-5,1.0,0.25,95,145.0
8,B-4,1.0,0.25,95,145.0
9,C#5,2.0,0.25,95,145.0
10,E-5,2.0,0.25,95,145.0
11,F#5,2.0,0.25,95,145.0
12,B-4,2.0,0.25,95,145.0
13,E-5,3.0,0.25,95,145.0
14,B-4,3.0,0.25,95,145.0
15,F#5,3.0,0.25,95,145.0
16,C#5,3.0,0.25,95,145.0
17,E-2,4.0,4.0,95,145.0
18,E-5,4.0,0.25,95,145.0
19,F#5,4.0,0.25,95,145.0
20,B-4,4.0,0.25,95,145.0
21,C#5,4.0,0.25,95,145.0
22,C#5,5.0,0.25,95,145.0
23,F#5,5.0,0.25,95,145.0
24,B-4,5.0,0.25,95,145.0
25,E-5,5.0,0.25,95,145.0
26,C#5,6.0,0.25,95,145.0
27,E-5,6.0,0.25,95,145.0
28,B-4,6.0,0.25,95,145.0
29,F#5,6.0,0.25,95,145.0
30,B-4,7.0,0.25,95,145.0
31,C#5,7.0,0.25,95,145.0
32,F#5,7.0,0.25,95,145.0
33,E-5,7.0,0.25,95,145.0
34,C#2,8.0,4.0,95,145.0
35,E-5,8.0,0.25,95,145.0
36,F5,8.0,0.25,95,145.0
37,C#5,8.0,0.25,95,145.0
38,B-4,8.0,0.25,95,145.0
39,E-5,9.0,0.25,95,145.0
40,F5,9.0,0.25,95,145.0
41,B-4,9.0,0.25,95,145.0
42,C#5,9.0,0.25,95,145.0
43,B-4,10.0,0.25,95,145.0
44,F5,10.0,0.25,95,145.0
45,E-5,10.0,0.25,95,145.0
46,C#5,10.0,0.25,95,145.0
47,E-5,11.0,0.25,95,145.0
48,F5,11.0,0.25,95,145.0
49,C#5,11.0,0.25,95,145.0
50,B-4,11.0,0.25,95,145.0
51,C#2,12.0,4.0,95,145.0
52,B-4,12.0,0.25,95,145.0
53,E-5,12.0,0.25,95,145.0
54,F5,12.0,0.25,95,145.0
55,C#5,12.0,0.25,95,145.0
56,B-4,13.0,0.25,95,145.0
57,C#5,13.0,0.25,95,145.0
58,F5,13.0,0.25,95,145.0
59,E-5,13.0,0.25,95,145.0
60,B-4,14.0,0.25,95,145.0
61,C#5,14.0,0.25,95,145.0
62,E-5,14.0,0.25,95,145.0
63,F5,14.0,0.25,95,145.0
64,E-5,15.0,0.25,95,145.0
65,B-4,15.0,0.25,95,145.0
66,C#5,15.0,0.25,95,145.0
67,F5,15.0,0.25,95,145.0
68,B-1,16.0,4.0,95,145.0
69,B-4,16.0,0.25,95,145.0
70,C#5,16.0,0.25,95,145.0
71,F5,16.0,0.25,95,145.0
72,C#5,17.0,0.25,95,145.0
73,F5,17.0,0.25,95,145.0
74,B-4,17.0,0.25,95,145.0
75,B-4,18.0,0.25,95,145.0
76,C#5,18.0,0.25,95,145.0
77,F5,18.0,0.25,95,145.0
78,C#5,19.0,0.25,95,145.0
79,B-4,19.0,0.25,95,145.0
80,F5,19.0,0.25,95,145.0
81,B-1,20.0,4.0,95,145.0
82,F5,20.0,0.25,95,145.0
83,B-4,20.0,0.25,95,145.0
84,C#5,20.0,0.25,95,145.0
85,C#5,21.0,0.25,95,145.0
86,B-4,21.0,0.25,95,145.0
87,F5,21.0,0.25,95,145.0
88,C#5,22.0,0.25,95,145.0
89,F5,22.0,0.25,95,145.0
90,B-4,22.0,0.25,95,145.0
91,F5,23.0,0.25,95,145.0
92,B-4,23.0,0.25,95,145.0
93,C#5,23.0,0.25,95,145.0
94,F2,24.0,4.0,95,145.0
95,A5,24.0,0.25,95,145.0
96,F5,24.0,0.25,95,145.0
97,E-5,24.0,0.25,95,145.0
98,C5,24.0,0.25,95,145.0
99,E-5,25.0,0.25,95,145.0
100,A5,25.0,0.25,95,145.0
101,F5,25.0,0.25,95,145.0
102,C5,25.0,0.25,95,145.0
103,C5,26.0,0.25,95,145.0
104,E-5,26.0,0.25,95,145.0
105,A5,26.0,0.25,95,145.0
106,F5,26.0,0.25,95,145.0
107,F5,27.0,0.25,95,145.0
108,A5,27.0,0.25,95,145.0
109,C5,27.0,0.25,95,145.0
110,E-5,27.0,0.25,95,145.0
111,F2,28.0,4.0,95,145.0
112,F5,28.0,0.25,95,145.0
113,C5,28.0,0.25,95,145.0
114,E-5,28.0,0.25,95,145.0
115,A5,28.0,0.25,95,145.0
116,E-5,29.0,0.25,95,145.0
117,F5,29.0,0.25,95,145.0
118,C5,29.0,0.25,95,145.0
119,A5,29.0,0.25,95,145.0
120,E-5,30.0,0.25,95,145.0
121,C5,30.0,0.25,95,145.0
122,A5,30.0,0.25,95,145.0
123,F5,30.0,0.25,95,145.0
124,F5,31.0,0.25,95,145.0
125,C5,31.0,0.25,95,145.0
126,A5,31.0,0.25,95,145.0
127,E-5,31.0,0.25,95,145.0
128,E-2,32.0,4.0,95,145.0
129,F#5,32.0,0.25,95,145.0
130,B-5,32.0,0.25,95,145.0
131,E-5,32.0,0.25,95,145.0
132,B-4,32.0,0.25,95,145.0
133,C#5,32.0,0.25,95,145.0
134,B-4,33.0,0.25,95,145.0
135,F#5,33.0,0.25,95,145.0
136,C#5,33.0,0.25,95,145.0
137,E-5,33.0,0.25,95,145.0
138,B-5,33.0,0.25,95,145.0
139,B-5,34.0,0.25,95,145.0
140,B-4,34.0,0.25,95,145.0
141,F#5,34.0,0.25,95,145.0
142,C#5,34.0,0.25,95,145.0
143,E-5,34.0,0.25,95,145.0
144,B-5,35.0,0.25,95,145.0
145,F#5,35.0,0.25,95,145.0
146,C#5,35.0,0.25,95,145.0
147,E-5,35.0,0.25,95,145.0
148,B-4,35.0,0.25,95,145.0
149,E-2,36.0,4.0,95,145.0
150,E-5,36.0,0.25,95,145.0
151,C#5,36.0,0.25,95,145.0
152,F#5,36.0,0.25,95,145.0
153,B-5,36.0,0.25,95,145.0
154,B-4,36.0,0.25,95,145.0
155,C#5,37.0,0.25,95,145.0
156,B-5,37.0,0.25,95,145.0
157,E-5,37.0,0.25,95,145.0
158,B-4,37.0,0.25,95,145.0
159,F#5,37.0,0.25,95,145.0
160,C#5,38.0,0.25,95,145.0
161,F#5,38.0,0.25,95,145.0
162,E-5,38.0,0.25,95,145.0
163,B-5,38.0,0.25,95,145.0
164,B-4,38.0,0.25,95,145.0
165,B-4,39.0,0.25,95,145.0
166,B-5,39.0,0.25,95,145.0
167,C#5,39.0,0.25,95,145.0
168,E-5,39.0,0.25,95,145.0
169,F#5,39.0,0.25,95,145.0
170,C#2,40.0,4.0,95,145.0
171,F5,40.0,0.25,95,145.0
172,B-4,40.0,0.25,95,145.0
173,C#5,40.0,0.25,95,145.0
174,E-5,40.0,0.25,95,145.0
175,F5,41.0,0.25,95,145.0
176,C#5,41.0,0.25,95,145.0
177,E-5,41.0,0.25,95,145.0
178,B-4,41.0,0.25,95,145.0
179,C#5,42.0,0.25,95,145.0
180,B-4,42.0,0.25,95,145.0
181,E-5,42.0,0.25,95,145.0
182,F5,42.0,0.25,95,145.0
183,E-5,43.0,0.25,95,145.0
184,F5,43.0,0.25,95,145.0
185,C#5,43.0,0.25,95,145.0
186,B-4,43.0,0.25,95,145.0
187,C#2,44.0,4.0,95,145.0
188,B-4,44.0,0.25,95,145.0
189,C#5,44.0,0.25,95,145.0
190,E-5,44.0,0.25,95,145.0
191,F5,44.0,0.25,95,145.0
192,C#5,45.0,0.25,95,145.0
193,E-5,45.0,0.25,95,145.0
194,F5,45.0,0.25,95,145.0
195,B-4,45.0,0.25,95,145.0
196,B-4,46.0,0.25,95,145.0
197,E-5,46.0,0.25,95,145.0
198,F5,46.0,0.25,95,145.0
199,C#5,46.0,0.25,95,145.0
200,B-4,47.0,0.25,95,145.0
201,C#5,47.0,0.25,95,145.0
202,F5,47.0,0.25,95,145.0
203,E-5,47.0,0.25,95,145.0
204,B-1,48.0,4.0,95,145.0
205,F5,48.0,0.25,95,145.0
206,B-4,48.0,0.25,95,145.0
207,C#5,48.0,0.25,95,145.0
208,F5,49.0,0.25,95,145.0
209,B-4,49.0,0.25,95,145.0
210,C#5,49.0,0.25,95,145.0
211,C#5,50.0,0.25,95,145.0
212,F5,50.0,0.25,95,145.0
213,B-4,50.0,0.25,95,145.0
214,C#5,51.0,0.25,95,145.0
215,F5,51.0,0.25,95,145.0
216,B-4,51.0,0.25,95,145.0
217,B-1,52.0,4.0,95,145.0
218,F5,52.0,0.25,95,145.0
219,C#5,52.0,0.25,95,145.0
220,B-4,52.0,0.25,95,145.0
221,C#5,53.0,0.25,95,145.0
222,F5,53.0,0.25,95,145.0
223,B-4,53.0,0.25,95,145.0
224,B-4,54.0,0.25,95,145.0
225,F5,54.0,0.25,95,145.0
226,C#5,54.0,0.25,95,145.0
227,C#5,55.0,0.25,95,145.0
228,F5,55.0,0.25,95,145.0
229,B-4,55.0,0.25,95,145.0
230,F2,56.0,4.0,95,145.0
231,C5,56.0,0.25,95,145.0
232,A5,56.0,0.25,95,145.0
233,F5,56.0,0.25,95,145.0
234,E-5,56.0,0.25,95,145.0
235,F5,57.0,0.25,95,145.0
236,A5,57.0,0.25,95,145.0
237,E-5,57.0,0.25,95,145.0
238,C5,57.0,0.25,95,145.0
239,C5,58.0,0.25,95,145.0
240,A5,58.0,0.25,95,145.0
241,E-5,58.0,0.25,95,145.0
242,F5,58.0,0.25,95,145.0
243,F5,59.0,0.25,95,145.0
244,A5,59.0,0.25,95,145.0
245,C5,59.0,0.25,95,145.0
246,E-5,59.0,0.25,95,145.0
247,F2,60.0,4.0,95,145.0
248,C5,60.0,0.25,95,145.0
249,F5,60.0,0.25,95,145.0
250,A5,60.0,0.25,95,145.0
251,E-5,60.0,0.25,95,145.0
252,F5,61.0,0.25,95,145.0
253,E-5,61.0,0.25,95,145.0
254,C5,61.0,0.25,95,145.0
255,A5,61.0,0.25,95,145.0
256,A5,62.0,0.25,95,145.0
257,F5,62.0,0.25,95,145.0
258,E-5,62.0,0.25,95,145.0
259,C5,62.0,0.25,95,145.0
260,F5,63.0,0.25,95,145.0
261,A5,63.0,0.25,95,145.0
262,C5,63.0,0.25,95,145.0
263,E-5,63.0,0.25,95,145.0
264,A5,64.0,0.25,95,145.0
265,E-5,64.0,0.25,95,145.0
266,F5,64.0,0.25,95,145.0
267,C5,64.0,0.25,95,145.0
268,C5,65.0,0.25,95,145.0
269,A5,65.0,0.25,95,145.0
270,E-5,65.0,0.25,95,145.0
271,F5,65.0,0.25,95,145.0
272,E-5,66.0,0.25,95,145.0
273,C5,66.0,0.25,95,145.0
274,A5,66.0,0.25,95,145.0
275,F5,66.0,0.25,95,145.0
276,A5,67.0,0.25,95,145.0
277,C5,67.0,0.25,95,145.0
278,E-5,67.0,0.25,95,145.0
279,F5,67.0,0.25,95,145.0
280,F5,68.0,0.25,95,145.0
281,C5,68.0,0.25,95,145.0
282,E-5,68.0,0.25,95,145.0
283,A5,68.0,0.25,95,145.0
284,E-5,69.0,0.25,95,145.0
285,F5,69.0,0.25,95,145.0
286,C5,69.0,0.25,95,145.0
287,A5,69.0,0.25,95,145.0
288,C5,70.0,0.25,95,145.0
289,E-5,70.0,0.25,95,145.0
290,A5,70.0,0.25,95,145.0
291,F5,70.0,0.25,95,145.0
292,D3,71.0,0.25,95,145.0
293,C5,71.0,0.25,95,145.0
294,E-5,71.0,0.25,95,145.0
295,A5,71.0,0.25,95,145.0
296,F5,71.0,0.25,95,145.0
297,E-2,72.0,4.0,95,145.0
298,E-3,72.0,0.25,76,145.0
299,C2,72.0,0.25,76,145.0
300,F#2,73.0,0.25,95,145.0
301,C#4,73.0,0.25,95,145.0
302,F#3,73.0,0.25,95,145.0
303,B-3,73.0,0.25,95,145.0
304,D2,74.0,0.25,92,145.0
305,E-3,74.0,0.25,92,145.0
306,F#3,74.0,0.25,95,145.0
307,B-3,74.0,0.25,95,145.0
308,E-4,74.0,0.25,95,145.0
309,F4,74.75,0.25,95,145.0
310,F#2,75.0,0.25,95,145.0
311,C#4,75.5,0.25,95,145.0
312,B-3,75.5,0.25,95,145.0
313,F#3,75.5,0.25,95,145.0
314,E-2,76.0,4.0,95,145.0
315,B1,76.0,0.25,76,145.0
316,E-3,76.0,0.25,76,145.0
317,F#2,77.0,0.25,95,145.0
318,E-3,78.0,0.25,92,145.0
319,D2,78.0,0.25,92,145.0
320,F#2,79.0,0.25,95,145.0
321,C#2,80.0,4.0,95,145.0
322,E-3,80.0,0.25,76,145.0
323,C2,80.0,0.25,76,145.0
324,B-3,80.0,0.25,95,145.0
325,C#3,80.0,0.25,95,145.0
326,F3,80.0,0.25,95,145.0
327,F#2,81.0,0.25,95,145.0
328,F3,81.0,0.25,95,145.0
329,C#3,81.0,0.25,95,145.0
330,G#3,81.0,0.25,95,145.0
331,D2,82.0,0.25,92,145.0
332,E-3,82.0,0.25,92,145.0
333,C#3,82.5,0.25,95,145.0
334,F3,82.5,0.25,95,145.0
335,B-3,82.5,0.25,95,145.0
336,F#2,83.0,0.25,95,145.0
337,G#3,83.5,0.25,95,145.0
338,F3,83.5,0.25,95,145.0
339,C#3,83.5,0.25,95,145.0
340,C#2,84.0,4.0,95,145.0
341,E-3,84.0,0.25,76,145.0
342,B1,84.0,0.25,76,145.0
343,F#2,85.0,0.25,95,145.0
344,C3,85.0,0.25,95,145.0
345,B2,85.75,0.25,95,145.0
346,E-3,86.0,0.25,92,145.0
347,D2,86.0,0.25,92,145.0
348,B-3,86.0,0.25,95,145.0
349,F3,86.0,0.25,95,145.0
350,C#3,86.0,0.25,95,145.0
351,F#2,87.0,0.25,95,145.0
352,G#3,87.0,0.25,95,145.0
353,F3,87.0,0.25,95,145.0
354,C#3,87.0,0.25,95,145.0
355,B-1,88.0,4.0,95,145.0
356,E-3,88.0,0.25,76,145.0
357,C2,88.0,0.25,76,145.0
358,F3,88.0,0.25,95,145.0
359,B-2,88.0,0.25,95,145.0
360,C#3,88.0,0.25,95,145.0
361,F#2,89.0,0.25,95,145.0
362,C#3,89.0,0.25,95,145.0
363,F3,89.0,0.25,95,145.0
364,B-2,89.0,0.25,95,145.0
365,E-3,90.0,0.25,92,145.0
366,D2,90.0,0.25,92,145.0
367,C#3,90.0,0.25,95,145.0
368,B-2,90.0,0.25,95,145.0
369,F3,90.0,0.25,95,145.0
370,C#3,90.75,0.25,95,145.0
371,B-2,90.75,0.25,95,145.0
372,F3,90.75,0.25,95,145.0
373,F#2,91.0,0.25,95,145.0
374,F3,91.5,0.25,95,145.0
375,C#3,91.5,0.25,95,145.0
376,B-2,91.5,0.25,95,145.0
377,B-1,92.0,4.0,95,145.0
378,E-3,92.0,0.25,76,145.0
379,B1,92.0,0.25,76,145.0
380,F#2,93.0,0.25,95,145.0
381,E-3,94.0,0.25,92,145.0
382,D2,94.0,0.25,92,145.0
383,B-3,94.0,0.25,95,145.0
384,B-2,94.0,0.25,95,145.0
385,C3,94.635,0.25,95,145.0
386,C4,94.635,0.25,95,145.0
387,F#2,95.0,0.25,95,145.0
388,B-2,95.0,0.25,95,145.0
389,B-3,95.0,0.25,95,145.0
390,F2,96.0,4.0,95,145.0
391,E-3,96.0,0.25,76,145.0
392,C2,96.0,0.25,76,145.0
393,C3,96.0,0.25,95,145.0
394,F3,96.0,0.25,95,145.0
395,A3,96.0,0.25,95,145.0
396,F#2,97.0,0.25,95,145.0
397,A3,97.0,0.25,95,145.0
398,F3,97.0,0.25,95,145.0
399,C3,97.0,0.25,95,145.0
400,D2,98.0,0.25,92,145.0
401,E-3,98.0,0.25,92,145.0
402,C3,98.5,0.25,95,145.0
403,A3,98.5,0.25,95,145.0
404,F3,98.5,0.25,95,145.0
405,F#2,99.0,0.25,95,145.0
406,A3,99.5,0.25,95,145.0
407,F3,99.5,0.25,95,145.0
408,C3,99.5,0.25,95,145.0
409,F2,100.0,4.0,95,145.0
410,B1,100.0,0.25,76,145.0
411,E-3,100.0,0.25,76,145.0
412,C3,101.0,0.25,95,145.0
413,F#2,101.0,0.25,95,145.0
414,B2,101.75,0.25,95,145.0
415,B-3,102.0,0.25,95,145.0
416,D2,102.0,0.25,92,145.0
417,E-3,102.0,0.25,92,145.0
418,F#2,103.0,0.25,95,145.0
419,C4,103.0,0.25,95,145.0
420,E-2,104.0,4.0,95,145.0
421,E-3,104.0,0.25,76,145.0
422,C2,104.0,0.25,76,145.0
423,B-3,104.0,0.25,95,145.0
424,F#3,104.0,0.25,95,145.0
425,F#2,105.0,0.25,95,145.0
426,F#3,105.0,0.25,95,145.0
427,B-3,105.0,0.25,95,145.0
428,E-3,106.0,0.25,92,145.0
429,D2,106.0,0.25,92,145.0
430,F#3,106.0,0.25,95,145.0
431,B-3,106.0,0.25,95,145.0
432,B-3,106.75,0.25,95,145.0
433,F#3,106.75,0.25,95,145.0
434,F#2,107.0,0.25,95,145.0
435,F#3,107.5,0.25,95,145.0
436,B-3,107.5,0.25,95,145.0
437,E-2,108.0,4.0,95,145.0
438,E-3,108.0,0.25,76,145.0
439,B1,108.0,0.25,76,145.0
440,F#2,109.0,0.25,95,145.0
441,C#4,110.0,0.25,95,145.0
442,D2,110.0,0.25,92,145.0
443,E-3,110.0,0.25,92,145.0
444,E-4,110.75,0.25,95,145.0
445,F#2,111.0,0.25,95,145.0
446,F4,111.0,0.25,95,145.0
447,C#2,112.0,4.0,95,145.0
448,C2,112.0,0.25,76,145.0
449,E-3,112.0,0.25,76,145.0
450,B-3,112.0,0.25,95,145.0
451,C#3,112.0,0.25,95,145.0
452,F3,112.0,0.25,95,145.0
453,F#2,113.0,0.25,95,145.0
454,C#3,113.0,0.25,95,145.0
455,F3,113.0,0.25,95,145.0
456,G#3,113.0,0.25,95,145.0
457,D2,114.0,0.25,92,145.0
458,E-3,114.0,0.25,92,145.0
459,C#3,114.5,0.25,95,145.0
460,B-3,114.5,0.25,95,145.0
461,F3,114.5,0.25,95,145.0
462,F#2,115.0,0.25,95,145.0
463,C#3,115.5,0.25,95,145.0
464,F3,115.5,0.25,95,145.0
465,G#3,115.5,0.25,95,145.0
466,C#2,116.0,4.0,95,145.0
467,E-3,116.0,0.25,76,145.0
468,B1,116.0,0.25,76,145.0
469,F#2,117.0,0.25,95,145.0
470,C3,117.0,0.25,95,145.0
471,B2,117.75,0.25,95,145.0
472,D2,118.0,0.25,92,145.0
473,E-3,118.0,0.25,92,145.0
474,C#3,118.0,0.25,95,145.0
475,F3,118.0,0.25,95,145.0
476,B-3,118.0,0.25,95,145.0
477,F#2,119.0,0.25,95,145.0
478,C#3,119.0,0.25,95,145.0
479,F3,119.0,0.25,95,145.0
480,G#3,119.0,0.25,95,145.0
481,C2,120.0,0.25,95,145.0
482,B-1,120.0,4.0,95,145.0
483,F3,120.0,0.25,95,145.0
484,C#3,120.0,0.25,95,145.0
485,B-2,120.0,0.25,95,145.0
486,C2,121.0,0.25,95,145.0
487,C#3,121.0,0.25,95,145.0
488,F3,121.0,0.25,95,145.0
489,B-2,121.0,0.25,95,145.0
490,C2,122.0,0.25,95,145.0
491,F3,122.0,0.25,95,145.0
492,C#3,122.0,0.25,95,145.0
493,B-2,122.0,0.25,95,145.0
494,C2,123.0,0.25,95,145.0
495,C#3,123.0,0.25,95,145.0
496,B-2,123.0,0.25,95,145.0
497,F3,123.0,0.25,95,145.0
498,C2,124.0,0.25,95,145.0
499,B-1,124.0,4.0,95,145.0
500,F3,124.0,0.25,95,145.0
501,B-2,124.0,0.25,95,145.0
502,C#3,124.0,0.25,95,145.0
503,C2,125.0,0.25,95,145.0
504,C#3,125.0,0.25,95,145.0
505,B-2,125.0,0.25,95,145.0
506,F3,125.0,0.25,95,145.0
507,C2,126.0,0.25,95,145.0
508,C#3,126.0,0.25,95,145.0
509,B-2,126.0,0.25,95,145.0
510,F3,126.0,0.25,95,145.0
511,C2,127.0,0.25,95,145.0
512,F3,127.0,0.25,95,145.0
513,C#3,127.0,0.25,95,145.0
514,B-2,127.0,0.25,95,145.0
515,F3,127.75,0.25,95,145.0
516,C3,127.75,0.25,95,145.0
517,A3,127.75,0.25,95,145.0
518,C2,128.0,0.25,95,145.0
519,F2,128.0,4.0,95,145.0
520,C3,128.0,0.25,95,145.0
521,A3,128.0,0.25,95,145.0
522,F3,128.0,0.25,95,145.0
523,C2,129.0,0.25,95,145.0
524,A3,129.0,0.25,95,145.0
525,C3,129.0,0.25,95,145.0
526,F3,129.0,0.25,95,145.0
527,C2,130.0,0.25,95,145.0
528,F3,130.0,0.25,95,145.0
529,C3,130.0,0.25,95,145.0
530,A3,130.0,0.25,95,145.0
531,C2,131.0,0.25,95,145.0
532,A3,131.0,0.25,95,145.0
533,F3,131.0,0.25,95,145.0
534,C3,131.0,0.25,95,145.0
535,C2,132.0,0.25,95,145.0
536,F2,132.0,4.0,95,145.0
537,F3,132.0,0.25,95,145.0
538,A3,132.0,0.25,95,145.0
539,C3,132.0,0.25,95,145.0
540,C2,133.0,0.25,95,145.0
541,C3,133.0,0.25,95,145.0
542,F3,133.0,0.25,95,145.0
543,A3,133.0,0.25,95,145.0
544,C2,134.0,0.25,95,145.0
545,A3,134.0,0.25,95,145.0
546,C3,134.0,0.25,95,145.0
547,F3,134.0,0.25,95,145.0
548,C2,135.0,0.25,95,145.0
549,B-3,135.0,0.25,95,145.0
550,A3,135.0,0.25,95,145.0
551,C3,135.0,0.25,95,145.0
552,F3,135.0,0.25,95,145.0
553,C4,135.75,0.25,95,145.0
554,E-2,136.0,4.0,95,145.0
555,E-3,136.0,0.25,76,145.0
556,C2,136.0,0.25,76,145.0
557,F#2,137.0,0.25,95,145.0
558,C#4,137.0,0.25,95,145.0
559,B-3,137.0,0.25,95,145.0
560,F#3,137.0,0.25,95,145.0
561,D2,138.0,0.25,92,145.0
562,E-3,138.0,0.25,92,145.0
563,B-3,138.0,0.25,95,145.0
564,F#3,138.0,0.25,95,145.0
565,E-4,138.0,0.25,95,145.0
566,F4,138.75,0.25,95,145.0
567,F#2,139.0,0.25,95,145.0
568,F#3,139.5,0.25,95,145.0
569,C#4,139.5,0.25,95,145.0
570,B-3,139.5,0.25,95,145.0
571,E-2,140.0,4.0,95,145.0
572,B1,140.0,0.25,76,145.0
573,E-3,140.0,0.25,76,145.0
574,F#2,141.0,0.25,95,145.0
575,D2,142.0,0.25,92,145.0
576,E-3,142.0,0.25,92,145.0
577,F#2,143.0,0.25,95,145.0
578,C#2,144.0,4.0,95,145.0
579,C2,144.0,0.25,76,145.0
580,E-3,144.0,0.25,76,145.0
581,F3,144.0,0.25,95,145.0
582,C#3,144.0,0.25,95,145.0
583,B-3,144.0,0.25,95,145.0
584,F#2,145.0,0.25,95,145.0
585,C#3,145.0,0.25,95,145.0
586,G#3,145.0,0.25,95,145.0
587,F3,145.0,0.25,95,145.0
588,D2,146.0,0.25,92,145.0
589,E-3,146.0,0.25,92,145.0
590,C#3,146.5,0.25,95,145.0
591,B-3,146.5,0.25,95,145.0
592,F3,146.5,0.25,95,145.0
593,F#2,147.0,0.25,95,145.0
594,C#3,147.5,0.25,95,145.0
595,F3,147.5,0.25,95,145.0
596,G#3,147.5,0.25,95,145.0
597,C#2,148.0,4.0,95,145.0
598,E-3,148.0,0.25,76,145.0
599,B1,148.0,0.25,76,145.0
600,C3,149.0,0.25,95,145.0
601,F#2,149.0,0.25,95,145.0
602,B2,149.75,0.25,95,145.0
603,D2,150.0,0.25,92,145.0
604,E-3,150.0,0.25,92,145.0
605,C#3,150.0,0.25,95,145.0
606,B-3,150.0,0.25,95,145.0
607,F3,150.0,0.25,95,145.0
608,F#2,151.0,0.25,95,145.0
609,C#3,151.0,0.25,95,145.0
610,F3,151.0,0.25,95,145.0
611,G#3,151.0,0.25,95,145.0
612,B-1,152.0,4.0,95,145.0
613,E-3,152.0,0.25,76,145.0
614,C2,152.0,0.25,76,145.0
615,C#3,152.0,0.25,95,145.0
616,B-2,152.0,0.25,95,145.0
617,F3,152.0,0.25,95,145.0
618,F#2,153.0,0.25,95,145.0
619,C#3,153.0,0.25,95,145.0
620,F3,153.0,0.25,95,145.0
621,B-2,153.0,0.25,95,145.0
622,D2,154.0,0.25,92,145.0
623,E-3,154.0,0.25,92,145.0
624,B-2,154.0,0.25,95,145.0
625,C#3,154.0,0.25,95,145.0
626,F3,154.0,0.25,95,145.0
627,B-2,154.75,0.25,95,145.0
628,F3,154.75,0.25,95,145.0
629,C#3,154.75,0.25,95,145.0
630,F#2,155.0,0.25,95,145.0
631,F3,155.5,0.25,95,145.0
632,C#3,155.5,0.25,95,145.0
633,B-2,155.5,0.25,95,145.0
634,B-1,156.0,4.0,95,145.0
635,B1,156.0,0.25,76,145.0
636,E-3,156.0,0.25,76,145.0
637,F#2,157.0,0.25,95,145.0
638,D2,158.0,0.25,92,145.0
639,E-3,158.0,0.25,92,145.0
640,B-2,158.0,0.25,95,145.0
641,B-3,158.0,0.25,95,145.0
642,C3,158.635,0.25,95,145.0
643,C4,158.635,0.25,95,145.0
644,F#2,159.0,0.25,95,145.0
645,B-2,159.0,0.25,95,145.0
646,B-3,159.0,0.25,95,145.0
647,F2,160.0,4.0,95,145.0
648,C2,160.0,0.25,76,145.0
649,E-3,160.0,0.25,76,145.0
650,A3,160.0,0.25,95,145.0
651,C3,160.0,0.25,95,145.0
652,F3,160.0,0.25,95,145.0
653,F#2,161.0,0.25,95,145.0
654,A3,161.0,0.25,95,145.0
655,F3,161.0,0.25,95,145.0
656,C3,161.0,0.25,95,145.0
657,E-3,162.0,0.25,92,145.0
658,D2,162.0,0.25,92,145.0
659,F3,162.5,0.25,95,145.0
660,A3,162.5,0.25,95,145.0
661,C3,162.5,0.25,95,145.0
662,F#2,163.0,0.25,95,145.0
663,C3,163.5,0.25,95,145.0
664,F3,163.5,0.25,95,145.0
665,A3,163.5,0.25,95,145.0
666,F2,164.0,4.0,95,145.0
667,E-3,164.0,0.25,76,145.0
668,B1,164.0,0.25,76,145.0
669,F#2,165.0,0.25,95,145.0
670,C3,165.0,0.25,95,145.0
671,B2,165.75,0.25,95,145.0
672,B-3,166.0,0.25,95,145.0
673,E-3,166.0,0.25,92,145.0
674,D2,166.0,0.25,92,145.0
675,F#2,167.0,0.25,95,145.0
676,C4,167.0,0.25,95,145.0
677,E-2,168.0,4.0,95,145.0
678,E-3,168.0,0.25,76,145.0
679,C2,168.0,0.25,76,145.0
680,B-3,168.0,0.25,95,145.0
681,F#3,168.0,0.25,95,145.0
682,F#2,169.0,0.25,95,145.0
683,F#3,169.0,0.25,95,145.0
684,B-3,169.0,0.25,95,145.0
685,D2,170.0,0.25,92,145.0
686,E-3,170.0,0.25,92,145.0
687,B-3,170.0,0.25,95,145.0
688,F#3,170.0,0.25,95,145.0
689,B-3,170.75,0.25,95,145.0
690,F#3,170.75,0.25,95,145.0
691,F#2,171.0,0.25,95,145.0
692,B-3,171.5,0.25,95,145.0
693,F#3,171.5,0.25,95,145.0
694,E-2,172.0,4.0,95,145.0
695,E-3,172.0,0.25,76,145.0
696,B1,172.0,0.25,76,145.0
697,F#2,173.0,0.25,95,145.0
698,C#4,174.0,0.25,95,145.0
699,D2,174.0,0.25,92,145.0
700,E-3,174.0,0.25,92,145.0
701,E-4,174.75,0.25,95,145.0
702,F#2,175.0,0.25,95,145.0
703,F4,175.0,0.25,95,145.0
704,C#2,176.0,4.0,95,145.0
705,C2,176.0,0.25,76,145.0
706,E-3,176.0,0.25,76,145.0
707,C#3,176.0,0.25,95,145.0
708,B-3,176.0,0.25,95,145.0
709,F3,176.0,0.25,95,145.0
710,F#2,177.0,0.25,95,145.0
711,F3,177.0,0.25,95,145.0
712,G#3,177.0,0.25,95,145.0
713,C#3,177.0,0.25,95,145.0
714,E-3,178.0,0.25,92,145.0
715,D2,178.0,0.25,92,145.0
716,B-3,178.5,0.25,95,145.0
717,F3,178.5,0.25,95,145.0
718,C#3,178.5,0.25,95,145.0
719,F#2,179.0,0.25,95,145.0
720,G#3,179.5,0.25,95,145.0
721,F3,179.5,0.25,95,145.0
722,C#3,179.5,0.25,95,145.0
723,C#2,180.0,4.0,95,145.0
724,B1,180.0,0.25,76,145.0
725,E-3,180.0,0.25,76,145.0
726,C3,181.0,0.25,95,145.0
727,F#2,181.0,0.25,95,145.0
728,B2,181.75,0.25,95,145.0
729,D2,182.0,0.25,92,145.0
730,E-3,182.0,0.25,92,145.0
731,C#3,182.0,0.25,95,145.0
732,F3,182.0,0.25,95,145.0
733,B-3,182.0,0.25,95,145.0
734,F#2,183.0,0.25,95,145.0
735,C#3,183.0,0.25,95,145.0
736,F3,183.0,0.25,95,145.0
737,G#3,183.0,0.25,95,145.0
738,C2,184.0,0.25,95,145.0
739,B-1,184.0,4.0,95,145.0
740,F3,184.0,0.25,95,145.0
741,C#3,184.0,0.25,95,145.0
742,B-2,184.0,0.25,95,145.0
743,C2,185.0,0.25,95,145.0
744,F3,185.0,0.25,95,145.0
745,C#3,185.0,0.25,95,145.0
746,B-2,185.0,0.25,95,145.0
747,C2,186.0,0.25,95,145.0
748,F3,186.0,0.25,95,145.0
749,B-2,186.0,0.25,95,145.0
750,C#3,186.0,0.25,95,145.0
751,C2,187.0,0.25,95,145.0
752,C#3,187.0,0.25,95,145.0
753,F3,187.0,0.25,95,145.0
754,B-2,187.0,0.25,95,145.0
755,C2,188.0,0.25,95,145.0
756,B-1,188.0,4.0,95,145.0
757,F3,188.0,0.25,95,145.0
758,C#3,188.0,0.25,95,145.0
759,B-2,188.0,0.25,95,145.0
760,C2,189.0,0.25,95,145.0
761,C#3,189.0,0.25,95,145.0
762,F3,189.0,0.25,95,145.0
763,B-2,189.0,0.25,95,145.0
764,C2,190.0,0.25,95,145.0
765,C#3,190.0,0.25,95,145.0
766,B-2,190.0,0.25,95,145.0
767,F3,190.0,0.25,95,145.0
768,C2,191.0,0.25,95,145.0
769,C#3,191.0,0.25,95,145.0
770,B-2,191.0,0.25,95,145.0
771,F3,191.0,0.25,95,145.0
772,F3,191.75,0.25,95,145.0
773,C3,191.75,0.25,95,145.0
774,A3,191.75,0.25,95,145.0
775,C2,192.0,0.25,95,145.0
776,F2,192.0,4.0,95,145.0
777,C3,192.0,0.25,95,145.0
778,F3,192.0,0.25,95,145.0
779,A3,192.0,0.25,95,145.0
780,C2,193.0,0.25,95,145.0
781,F3,193.0,0.25,95,145.0
782,A3,193.0,0.25,95,145.0
783,C3,193.0,0.25,95,145.0
784,C2,194.0,0.25,95,145.0
785,A3,194.0,0.25,95,145.0
786,C3,194.0,0.25,95,145.0
787,F3,194.0,0.25,95,145.0
788,C2,195.0,0.25,95,145.0
789,A3,195.0,0.25,95,145.0
790,F3,195.0,0.25,95,145.0
791,C3,195.0,0.25,95,145.0
792,C2,196.0,0.25,95,145.0
793,F2,196.0,4.0,95,145.0
794,F3,196.0,0.25,95,145.0
795,A3,196.0,0.25,95,145.0
796,C3,196.0,0.25,95,145.0
797,C2,197.0,0.25,95,145.0
798,C3,197.0,0.25,95,145.0
799,A3,197.0,0.25,95,145.0
800,F3,197.0,0.25,95,145.0
801,C2,198.0,0.25,95,145.0
802,A3,198.0,0.25,95,145.0
803,F3,198.0,0.25,95,145.0
804,C3,198.0,0.25,95,145.0
805,C2,199.0,0.25,95,145.0
806,A3,199.0,0.25,95,145.0
807,B-3,199.0,0.25,95,145.0
808,F3,199.0,0.25,95,145.0
809,C3,199.0,0.25,95,145.0
810,C4,199.75,0.25,95,145.0
