,note_name,start_time,duration,velocity,tempo
0,C#2,0.0,0.75,100,126.0
1,F#4,0.0,0.75,100,126.0
2,C#4,0.0,0.75,100,126.0
3,B-2,0.0,0.5,100,126.0
4,C2,0.0,0.5,100,126.0
5,B1,0.75,0.75,100,126.0
6,B3,0.75,0.75,100,126.0
7,E4,0.75,0.75,100,126.0
8,B-2,0.75,0.5,100,126.0
9,C2,0.75,0.5,100,126.0
10,A1,1.5,2.5,100,126.0
11,A3,1.5,2.5,100,126.0
12,G#4,1.5,2.5,100,126.0
13,C#3,1.5,0.5,100,126.0
14,B-2,1.5,0.5,100,126.0
15,C2,1.5,0.5,100,126.0
16,A1,4.0,4.0,100,126.0
17,B1,8.0,0.75,100,126.0
18,A3,8.0,4.0,100,126.0
19,G#4,8.0,4.0,100,126.0
20,B-2,8.0,0.5,100,126.0
21,C2,8.0,0.5,100,126.0
22,B1,8.75,0.75,100,126.0
23,B-2,8.75,0.5,100,126.0
24,C2,8.75,0.5,100,126.0
25,C#2,9.5,2.5,100,126.0
26,C#3,9.5,0.5,100,126.0
27,B-2,9.5,0.5,100,126.0
28,C2,9.5,0.5,100,126.0
29,C#2,12.0,4.0,100,126.0
30,B3,12.0,0.75,100,126.0
31,B4,12.0,0.75,100,126.0
32,B3,12.75,0.75,100,126.0
33,E-5,12.75,0.75,100,126.0
34,C#4,13.5,2.5,100,126.0
35,E5,13.5,2.5,100,126.0
36,C#2,16.0,0.75,100,126.0
37,B-2,16.0,0.5,100,126.0
38,C2,16.0,0.5,100,126.0
39,B1,16.75,0.75,100,126.0
40,B-2,16.75,0.5,100,126.0
41,C2,16.75,0.5,100,126.0
42,A1,17.5,2.5,100,126.0
43,C#3,17.5,0.5,100,126.0
44,B-2,17.5,0.5,100,126.0
45,C2,17.5,0.5,100,126.0
46,A1,20.0,4.0,100,126.0
47,C#4,20.0,4.0,100,126.0
48,E5,20.0,4.0,100,126.0
49,B1,24.0,0.75,100,126.0
50,C#4,24.0,0.75,100,126.0
51,F#4,24.0,0.75,100,126.0
52,B-2,24.0,0.5,100,126.0
53,C2,24.0,0.5,100,126.0
54,B1,24.75,0.75,100,126.0
55,B3,24.75,0.75,100,126.0
56,E4,24.75,0.75,100,126.0
57,B-2,24.75,0.5,100,126.0
58,C2,24.75,0.5,100,126.0
59,C#2,25.5,2.5,100,126.0
60,A3,25.5,2.5,100,126.0
61,G#4,25.5,2.5,100,126.0
62,C#3,25.5,0.5,100,126.0
63,B-2,25.5,0.5,100,126.0
64,C2,25.5,0.5,100,126.0
65,C#2,28.0,4.0,100,126.0
66,C#2,32.0,0.75,100,126.0
67,A3,32.0,4.0,100,126.0
68,G#4,32.0,4.0,100,126.0
69,B-2,32.0,0.5,100,126.0
70,C2,32.0,0.5,100,126.0
71,B1,32.75,0.75,100,126.0
72,B-2,32.75,0.5,100,126.0
73,C2,32.75,0.5,100,126.0
74,A1,33.5,2.5,100,126.0
75,C#3,33.5,0.5,100,126.0
76,B-2,33.5,0.5,100,126.0
77,C2,33.5,0.5,100,126.0
78,A1,36.0,4.0,100,126.0
79,B3,36.0,0.75,100,126.0
80,B4,36.0,0.75,100,126.0
81,B3,36.75,0.75,100,126.0
82,E-5,36.75,0.75,100,126.0
83,C#4,37.5,2.5,100,126.0
84,E5,37.5,2.5,100,126.0
85,B1,40.0,0.75,100,126.0
86,B-2,40.0,0.5,100,126.0
87,C2,40.0,0.5,100,126.0
88,B1,40.75,0.75,100,126.0
89,B-2,40.75,0.5,100,126.0
90,C2,40.75,0.5,100,126.0
91,C#2,41.5,2.5,100,126.0
92,C#3,41.5,0.5,100,126.0
93,B-2,41.5,0.5,100,126.0
94,C2,41.5,0.5,100,126.0
95,C#2,44.0,4.0,100,126.0
96,C#4,44.0,4.0,100,126.0
97,E5,44.0,4.0,100,126.0
98,C#2,48.0,4.0,100,126.0
99,F#5,48.0,0.75,100,126.0
100,C#4,48.0,0.75,100,126.0
101,B-2,48.0,0.5,100,126.0
102,C2,48.0,0.5,100,126.0
103,E5,48.75,0.75,100,126.0
104,B3,48.75,0.75,100,126.0
105,B-2,48.75,0.5,100,126.0
106,C2,48.75,0.5,100,126.0
107,G#5,49.5,2.5,100,126.0
108,A3,49.5,2.5,100,126.0
109,C#3,49.5,0.5,100,126.0
110,B-2,49.5,0.5,100,126.0
111,C2,49.5,0.5,100,126.0
112,C#2,52.0,4.0,100,126.0
113,C#2,56.0,4.0,100,126.0
114,G#5,56.0,4.0,100,126.0
115,A3,56.0,4.0,100,126.0
116,C#2,60.0,4.0,100,126.0
117,B3,60.0,0.75,100,126.0
118,B4,60.0,0.75,100,126.0
119,B3,60.75,0.75,100,126.0
120,E-5,60.75,0.75,100,126.0
121,C#4,61.5,2.5,100,126.0
122,E5,61.5,2.5,100,126.0
123,C2,64.0,0.5,100,126.0
124,E-2,65.0,0.5,100,126.0
125,C2,65.0,0.5,100,126.0
126,C#2,65.75,0.25,100,126.0
127,C2,66.0,0.5,100,126.0
128,C#2,66.5,0.5,100,126.0
129,E-2,67.0,0.5,100,126.0
130,C2,67.0,0.5,100,126.0
131,C#2,68.0,0.25,100,126.0
132,C2,68.0,0.5,100,126.0
133,C#4,68.0,4.0,100,126.0
134,E5,68.0,4.0,100,126.0
135,C#2,68.5,0.5,100,126.0
136,E-2,69.0,0.5,100,126.0
137,C2,69.0,0.5,100,126.0
138,B1,70.0,0.5,100,126.0
139,C2,70.0,0.5,100,126.0
140,B1,71.0,0.5,100,126.0
141,E-2,71.0,0.5,100,126.0
142,C2,71.0,0.5,100,126.0
143,C#4,72.0,4.0,100,126.0
144,F#5,72.0,0.75,100,126.0
145,C2,72.0,0.5,100,126.0
146,E5,72.75,0.75,100,126.0
147,E-2,73.0,0.5,100,126.0
148,C2,73.0,0.5,100,126.0
149,G#5,73.5,2.5,100,126.0
150,C#2,73.75,0.25,100,126.0
151,C2,74.0,0.5,100,126.0
152,C#2,74.5,0.5,100,126.0
153,E-2,75.0,0.5,100,126.0
154,C2,75.0,0.5,100,126.0
155,C#4,76.0,4.0,100,126.0
156,G#5,76.0,4.0,100,126.0
157,C#2,76.0,0.25,100,126.0
158,C2,76.0,0.5,100,126.0
159,C#2,76.5,0.5,100,126.0
160,E-2,77.0,0.5,100,126.0
161,C2,77.0,0.5,100,126.0
162,A1,78.0,1.0,100,126.0
163,C2,78.0,0.5,100,126.0
164,B1,79.0,1.0,100,126.0
165,E-2,79.0,0.5,100,126.0
166,C2,79.0,0.5,100,126.0
167,C#4,80.0,4.0,100,126.0
168,G#5,80.0,4.0,100,126.0
169,C2,80.0,0.5,100,126.0
170,E-2,81.0,0.5,100,126.0
171,C2,81.0,0.5,100,126.0
172,C#2,81.75,0.25,100,126.0
173,C2,82.0,0.5,100,126.0
174,C#2,82.5,0.5,100,126.0
175,E-2,83.0,0.5,100,126.0
176,C2,83.0,0.5,100,126.0
177,C#4,84.0,4.0,100,126.0
178,G#5,84.0,4.0,100,126.0
179,C#2,84.0,0.25,100,126.0
180,C2,84.0,0.5,100,126.0
181,C#2,84.5,0.5,100,126.0
182,E-2,85.0,0.5,100,126.0
183,C2,85.0,0.5,100,126.0
184,B1,86.0,1.0,100,126.0
185,C2,86.0,0.5,100,126.0
186,B1,87.0,1.0,100,126.0
187,E-2,87.0,0.5,100,126.0
188,C2,87.0,0.5,100,126.0
189,C2,88.0,0.5,100,126.0
190,E-2,89.0,0.5,100,126.0
191,C2,89.0,0.5,100,126.0
192,C#2,89.75,0.25,100,126.0
193,C2,90.0,0.5,100,126.0
194,C#2,90.5,0.5,100,126.0
195,E-2,91.0,0.5,100,126.0
196,C2,91.0,0.5,100,126.0
197,E-2,93.0,0.5,100,126.0
198,E-2,95.0,0.5,100,126.0
199,C#3,96.0,0.5,100,126.0
200,C2,96.0,0.5,100,126.0
201,C#4,116.0,0.75,100,126.0
202,C#3,116.0,0.75,100,126.0
203,F#4,116.75,0.75,100,126.0
204,F#3,116.75,0.75,100,126.0
205,E4,117.5,0.75,100,126.0
206,E3,117.5,0.75,100,126.0
207,E-4,118.25,0.75,100,126.0
208,E-3,118.25,0.75,100,126.0
209,C#4,119.0,0.5,100,126.0
210,C#3,119.0,0.5,100,126.0
211,B3,119.5,0.5,100,126.0
212,B2,119.5,0.5,100,126.0
