,note_name,start_time,duration,velocity,tempo
0,G2,0.0,0.25,100,142.0
1,D4,0.5,0.25,100,142.0
2,G2,1.0,0.25,100,142.0
3,D4,1.5,0.25,100,142.0
4,G2,2.0,0.25,100,142.0
5,D4,2.5,0.25,100,142.0
6,G3,3.0,0.25,100,142.0
7,G2,3.0,0.25,100,142.0
8,A3,3.5,0.25,100,142.0
9,A2,4.0,0.25,100,142.0
10,F#4,4.5,0.25,100,142.0
11,A2,5.0,0.25,100,142.0
12,F#4,5.5,0.25,100,142.0
13,A2,6.0,0.25,100,142.0
14,F#4,6.5,0.25,100,142.0
15,A2,7.0,0.25,100,142.0
16,C#4,7.5,0.25,100,142.0
17,B2,8.0,0.25,100,142.0
18,D4,8.5,0.25,100,142.0
19,B2,9.0,0.25,100,142.0
20,D4,9.5,0.25,100,142.0
21,B2,10.0,0.25,100,142.0
22,D4,10.5,0.25,100,142.0
23,B2,11.0,0.25,100,142.0
24,C#4,11.5,0.25,100,142.0
25,D3,12.0,0.25,100,142.0
26,A3,12.5,0.25,100,142.0
27,D3,13.0,0.25,100,142.0
28,A3,13.5,0.25,100,142.0
29,D3,14.0,0.25,100,142.0
30,A3,14.5,0.25,100,142.0
31,D3,15.0,0.25,100,142.0
32,F#3,15.5,0.25,100,142.0
33,F#4,16.0,0.5,100,142.0
34,G2,16.0,0.25,100,142.0
35,D4,16.5,0.25,100,142.0
36,D4,17.0,0.5,100,142.0
37,G2,17.0,0.25,100,142.0
38,D4,17.5,0.25,100,142.0
39,A4,18.0,0.5,100,142.0
40,G2,18.0,0.25,100,142.0
41,D4,18.5,0.25,100,142.0
42,E4,19.0,0.5,100,142.0
43,G3,19.0,0.25,100,142.0
44,G2,19.0,0.25,100,142.0
45,F#4,19.5,0.5,100,142.0
46,A3,19.5,0.25,100,142.0
47,E4,20.0,0.75,100,142.0
48,A2,20.0,0.25,100,142.0
49,F#4,20.5,0.25,100,142.0
50,A2,21.0,0.25,100,142.0
51,F#4,21.5,0.25,100,142.0
52,A2,22.0,0.25,100,142.0
53,F#4,22.5,0.25,100,142.0
54,G4,23.0,0.5,100,142.0
55,A2,23.0,0.25,100,142.0
56,C#4,23.5,0.25,100,142.0
57,F#4,24.0,0.5,100,142.0
58,B2,24.0,0.25,100,142.0
59,D4,24.5,0.25,100,142.0
60,G4,25.0,0.5,100,142.0
61,B2,25.0,0.25,100,142.0
62,D4,25.5,0.25,100,142.0
63,F#4,26.0,0.5,100,142.0
64,B2,26.0,0.25,100,142.0
65,D4,26.5,0.25,100,142.0
66,E4,27.0,0.5,100,142.0
67,B2,27.0,0.25,100,142.0
68,F#4,27.5,0.5,100,142.0
69,C#4,27.5,0.25,100,142.0
70,D4,28.0,0.75,100,142.0
71,D3,28.0,0.25,100,142.0
72,A3,28.5,0.25,100,142.0
73,D3,29.0,0.25,100,142.0
74,A3,29.5,0.25,100,142.0
75,D3,30.0,0.25,100,142.0
76,A3,30.5,0.25,100,142.0
77,E4,31.0,0.5,100,142.0
78,D3,31.0,0.25,100,142.0
79,F#3,31.5,0.25,100,142.0
80,F#4,32.0,0.5,100,142.0
81,G2,32.0,0.25,100,142.0
82,B3,32.0,0.5,100,142.0
83,D4,32.0,0.5,100,142.0
84,G3,32.0,0.5,100,142.0
85,D4,32.5,0.25,100,142.0
86,B3,32.75,0.5,100,142.0
87,D4,32.75,0.5,100,142.0
88,G3,32.75,0.5,100,142.0
89,D4,33.0,0.5,100,142.0
90,G2,33.0,0.25,100,142.0
91,D4,33.5,0.25,100,142.0
92,B3,33.5,0.5,100,142.0
93,D4,33.5,0.5,100,142.0
94,G3,33.5,0.5,100,142.0
95,A4,34.0,0.5,100,142.0
96,G2,34.0,0.25,100,142.0
97,D4,34.5,0.25,100,142.0
98,E4,35.0,0.5,100,142.0
99,B3,35.0,0.5,100,142.0
100,D4,35.0,0.5,100,142.0
101,G3,35.0,0.5,100,142.0
102,G3,35.0,0.25,100,142.0
103,G2,35.0,0.25,100,142.0
104,F#4,35.5,0.5,100,142.0
105,A3,35.5,0.25,100,142.0
106,E4,36.0,0.75,100,142.0
107,A2,36.0,0.25,100,142.0
108,C#4,36.0,0.5,100,142.0
109,E4,36.0,0.5,100,142.0
110,A3,36.0,0.5,100,142.0
111,F#4,36.5,0.25,100,142.0
112,C#4,36.75,0.5,100,142.0
113,A3,36.75,0.5,100,142.0
114,E4,36.75,0.5,100,142.0
115,A2,37.0,0.25,100,142.0
116,F#4,37.5,0.25,100,142.0
117,C#4,37.5,0.5,100,142.0
118,E4,37.5,0.5,100,142.0
119,A3,37.5,0.5,100,142.0
120,A2,38.0,0.25,100,142.0
121,F#4,38.5,0.25,100,142.0
122,G4,39.0,0.5,100,142.0
123,A2,39.0,0.25,100,142.0
124,C#4,39.0,0.5,100,142.0
125,A3,39.0,0.5,100,142.0
126,E4,39.0,0.5,100,142.0
127,C#4,39.5,0.25,100,142.0
128,F#4,40.0,0.5,100,142.0
129,B2,40.0,0.25,100,142.0
130,D4,40.0,0.5,100,142.0
131,B3,40.0,0.5,100,142.0
132,F#4,40.0,0.5,100,142.0
133,D4,40.5,0.25,100,142.0
134,D4,40.75,0.5,100,142.0
135,F#4,40.75,0.5,100,142.0
136,B3,40.75,0.5,100,142.0
137,G4,41.0,0.5,100,142.0
138,B2,41.0,0.25,100,142.0
139,D4,41.5,0.25,100,142.0
140,D4,41.5,0.5,100,142.0
141,B3,41.5,0.5,100,142.0
142,F#4,41.5,0.5,100,142.0
143,F#4,42.0,0.5,100,142.0
144,B2,42.0,0.25,100,142.0
145,D4,42.5,0.25,100,142.0
146,E4,43.0,0.5,100,142.0
147,B2,43.0,0.25,100,142.0
148,D4,43.0,0.5,100,142.0
149,F#4,43.0,0.5,100,142.0
150,B3,43.0,0.5,100,142.0
151,F#4,43.5,0.5,100,142.0
152,C#4,43.5,0.25,100,142.0
153,D4,44.0,0.75,100,142.0
154,D4,48.0,0.25,100,142.0
155,C2,48.0,51/100,100,142.0
156,D5,48.0,0.5,100,142.0
157,B3,48.0,0.5,100,142.0
158,D4,48.0,0.5,100,142.0
159,G3,48.0,0.5,100,142.0
160,F#4,48.5,0.25,100,142.0
161,C2,48.75,51/100,100,142.0
162,D5,48.75,0.5,100,142.0
163,B3,48.75,0.5,100,142.0
164,D4,48.75,0.5,100,142.0
165,G3,48.75,0.5,100,142.0
166,F#4,49.0,0.25,100,142.0
167,F#4,49.5,0.25,100,142.0
168,C2,49.5,51/100,100,142.0
169,D5,49.5,0.5,100,142.0
170,B3,49.5,0.5,100,142.0
171,D4,49.5,0.5,100,142.0
172,G3,49.5,0.5,100,142.0
173,D4,50.0,0.25,100,142.0
174,F#4,50.5,0.25,100,142.0
175,C2,51.0,51/100,100,142.0
176,D5,51.0,0.5,100,142.0
177,B3,51.0,0.5,100,142.0
178,D4,51.0,0.5,100,142.0
179,G3,51.0,0.5,100,142.0
180,G4,51.5,0.25,100,142.0
181,E4,52.0,0.25,100,142.0
182,C2,52.0,51/100,100,142.0
183,F#5,52.0,0.5,100,142.0
184,C#4,52.0,0.5,100,142.0
185,E4,52.0,0.5,100,142.0
186,A3,52.0,0.5,100,142.0
187,F#4,52.5,0.25,100,142.0
188,C2,52.75,51/100,100,142.0
189,F#5,52.75,0.5,100,142.0
190,C#4,52.75,0.5,100,142.0
191,A3,52.75,0.5,100,142.0
192,E4,52.75,0.5,100,142.0
193,D4,53.0,0.25,100,142.0
194,D4,53.5,0.25,100,142.0
195,C2,53.5,51/100,100,142.0
196,F#5,53.5,0.5,100,142.0
197,C#4,53.5,0.5,100,142.0
198,E4,53.5,0.5,100,142.0
199,A3,53.5,0.5,100,142.0
200,E4,54.0,0.25,100,142.0
201,F#4,54.5,0.25,100,142.0
202,E4,55.0,0.25,100,142.0
203,C2,55.0,51/100,100,142.0
204,F#5,55.0,0.5,100,142.0
205,C#4,55.0,0.5,100,142.0
206,A3,55.0,0.5,100,142.0
207,E4,55.0,0.5,100,142.0
208,D4,55.5,0.25,100,142.0
209,F#4,56.0,0.25,100,142.0
210,C2,56.0,51/100,100,142.0
211,D5,56.0,0.5,100,142.0
212,D4,56.0,0.5,100,142.0
213,B3,56.0,0.5,100,142.0
214,F#4,56.0,0.5,100,142.0
215,D4,56.5,0.25,100,142.0
216,C2,56.75,51/100,100,142.0
217,D5,56.75,0.5,100,142.0
218,D4,56.75,0.5,100,142.0
219,F#4,56.75,0.5,100,142.0
220,B3,56.75,0.5,100,142.0
221,G4,57.0,0.25,100,142.0
222,D4,57.5,0.25,100,142.0
223,C2,57.5,51/100,100,142.0
224,D5,57.5,0.5,100,142.0
225,D4,57.5,0.5,100,142.0
226,B3,57.5,0.5,100,142.0
227,F#4,57.5,0.5,100,142.0
228,F#4,58.0,0.25,100,142.0
229,D4,58.5,0.25,100,142.0
230,C2,59.0,51/100,100,142.0
231,D5,59.0,0.5,100,142.0
232,D4,59.0,0.5,100,142.0
233,F#4,59.0,0.5,100,142.0
234,B3,59.0,0.5,100,142.0
235,G4,59.5,0.25,100,142.0
236,A3,60.0,0.25,100,142.0
237,C2,60.0,51/100,100,142.0
238,F#4,60.0,0.5,100,142.0
239,D4,60.0,0.5,100,142.0
240,A3,60.0,0.5,100,142.0
241,A4,60.0,0.5,100,142.0
242,D4,60.5,0.25,100,142.0
243,C2,60.75,51/100,100,142.0
244,F#4,60.75,0.5,100,142.0
245,D4,60.75,0.5,100,142.0
246,A3,60.75,0.5,100,142.0
247,A4,60.75,0.5,100,142.0
248,F#4,61.0,0.25,100,142.0
249,G4,61.5,0.25,100,142.0
250,C2,61.5,51/100,100,142.0
251,F#4,61.5,0.5,100,142.0
252,D4,61.5,0.5,100,142.0
253,A3,61.5,0.5,100,142.0
254,A4,61.5,0.5,100,142.0
255,A4,62.0,0.25,100,142.0
256,G4,62.5,0.25,100,142.0
257,C2,63.0,51/100,100,142.0
258,F#4,63.0,0.5,100,142.0
259,D4,63.0,0.5,100,142.0
260,A3,63.0,0.5,100,142.0
261,A4,63.0,0.5,100,142.0
262,D3,63.5,0.25,100,142.0
263,D4,64.0,0.25,100,142.0
264,D5,64.0,0.5,100,142.0
265,B3,64.0,0.5,100,142.0
266,D4,64.0,0.5,100,142.0
267,G3,64.0,0.5,100,142.0
268,E-2,64.0,51/100,100,142.0
269,C2,64.0,51/100,100,142.0
270,F#4,64.5,0.25,100,142.0
271,C2,64.75,51/100,100,142.0
272,D5,64.75,0.5,100,142.0
273,B3,64.75,0.5,100,142.0
274,D4,64.75,0.5,100,142.0
275,G3,64.75,0.5,100,142.0
276,F#4,65.0,0.25,100,142.0
277,E-2,65.0,51/100,100,142.0
278,F#4,65.5,0.25,100,142.0
279,C2,65.5,51/100,100,142.0
280,D5,65.5,0.5,100,142.0
281,B3,65.5,0.5,100,142.0
282,D4,65.5,0.5,100,142.0
283,G3,65.5,0.5,100,142.0
284,D4,66.0,0.25,100,142.0
285,E-2,66.0,51/100,100,142.0
286,F#4,66.5,0.25,100,142.0
287,D5,67.0,0.5,100,142.0
288,B3,67.0,0.5,100,142.0
289,D4,67.0,0.5,100,142.0
290,G3,67.0,0.5,100,142.0
291,E-2,67.0,51/100,100,142.0
292,C2,67.0,51/100,100,142.0
293,G4,67.5,0.25,100,142.0
294,E4,68.0,0.25,100,142.0
295,F#5,68.0,0.5,100,142.0
296,C#4,68.0,0.5,100,142.0
297,E4,68.0,0.5,100,142.0
298,A3,68.0,0.5,100,142.0
299,E-2,68.0,51/100,100,142.0
300,C2,68.0,51/100,100,142.0
301,F#4,68.5,0.25,100,142.0
302,C2,68.75,51/100,100,142.0
303,F#5,68.75,0.5,100,142.0
304,C#4,68.75,0.5,100,142.0
305,A3,68.75,0.5,100,142.0
306,E4,68.75,0.5,100,142.0
307,D4,69.0,0.25,100,142.0
308,E-2,69.0,51/100,100,142.0
309,D4,69.5,0.25,100,142.0
310,C2,69.5,51/100,100,142.0
311,F#5,69.5,0.5,100,142.0
312,C#4,69.5,0.5,100,142.0
313,E4,69.5,0.5,100,142.0
314,A3,69.5,0.5,100,142.0
315,E4,70.0,0.25,100,142.0
316,E-2,70.0,51/100,100,142.0
317,F#4,70.5,0.25,100,142.0
318,E4,71.0,0.25,100,142.0
319,F#5,71.0,0.5,100,142.0
320,C#4,71.0,0.5,100,142.0
321,A3,71.0,0.5,100,142.0
322,E4,71.0,0.5,100,142.0
323,E-2,71.0,51/100,100,142.0
324,C2,71.0,51/100,100,142.0
325,D4,71.5,0.25,100,142.0
326,F#4,72.0,0.25,100,142.0
327,D5,72.0,0.5,100,142.0
328,D4,72.0,0.5,100,142.0
329,B3,72.0,0.5,100,142.0
330,F#4,72.0,0.5,100,142.0
331,E-2,72.0,51/100,100,142.0
332,C2,72.0,51/100,100,142.0
333,D4,72.5,0.25,100,142.0
334,C2,72.75,51/100,100,142.0
335,D5,72.75,0.5,100,142.0
336,D4,72.75,0.5,100,142.0
337,F#4,72.75,0.5,100,142.0
338,B3,72.75,0.5,100,142.0
339,G4,73.0,0.25,100,142.0
340,E-2,73.0,51/100,100,142.0
341,D4,73.5,0.25,100,142.0
342,C2,73.5,51/100,100,142.0
343,D5,73.5,0.5,100,142.0
344,D4,73.5,0.5,100,142.0
345,B3,73.5,0.5,100,142.0
346,F#4,73.5,0.5,100,142.0
347,F#4,74.0,0.25,100,142.0
348,E-2,74.0,51/100,100,142.0
349,D4,74.5,0.25,100,142.0
350,D5,75.0,0.5,100,142.0
351,D4,75.0,0.5,100,142.0
352,F#4,75.0,0.5,100,142.0
353,B3,75.0,0.5,100,142.0
354,E-2,75.0,51/100,100,142.0
355,C2,75.0,51/100,100,142.0
356,G4,75.5,0.25,100,142.0
357,A3,76.0,0.25,100,142.0
358,F#4,76.0,0.5,100,142.0
359,D4,76.0,0.5,100,142.0
360,A3,76.0,0.5,100,142.0
361,A4,76.0,0.5,100,142.0
362,E-2,76.0,51/100,100,142.0
363,C2,76.0,51/100,100,142.0
364,D4,76.5,0.25,100,142.0
365,C2,76.75,51/100,100,142.0
366,F#4,76.75,0.5,100,142.0
367,D4,76.75,0.5,100,142.0
368,A3,76.75,0.5,100,142.0
369,A4,76.75,0.5,100,142.0
370,F#4,77.0,0.25,100,142.0
371,E-2,77.0,51/100,100,142.0
372,G4,77.5,0.25,100,142.0
373,C2,77.5,51/100,100,142.0
374,F#4,77.5,0.5,100,142.0
375,D4,77.5,0.5,100,142.0
376,A3,77.5,0.5,100,142.0
377,A4,77.5,0.5,100,142.0
378,A4,78.0,0.25,100,142.0
379,E-2,78.0,51/100,100,142.0
380,G4,78.5,0.25,100,142.0
381,F#4,79.0,0.5,100,142.0
382,D4,79.0,0.5,100,142.0
383,A3,79.0,0.5,100,142.0
384,A4,79.0,0.5,100,142.0
385,E-2,79.0,51/100,100,142.0
386,C2,79.0,51/100,100,142.0
387,D3,79.5,0.25,100,142.0
388,D4,80.0,0.5,100,142.0
389,G2,80.0,0.25,100,142.0
390,D4,80.5,0.25,100,142.0
391,D5,81.0,1.0,100,142.0
392,D4,81.0,0.5,100,142.0
393,G2,81.0,0.25,100,142.0
394,D4,81.5,0.25,100,142.0
395,A5,82.0,1.0,100,142.0
396,D4,82.0,0.5,100,142.0
397,G2,82.0,0.25,100,142.0
398,D4,82.5,0.25,100,142.0
399,F#5,83.0,0.5,100,142.0
400,F#4,83.0,0.5,100,142.0
401,G3,83.0,0.25,100,142.0
402,G2,83.0,0.25,100,142.0
403,E5,83.5,0.5,100,142.0
404,G4,83.5,0.5,100,142.0
405,A3,83.5,0.25,100,142.0
406,E5,84.0,3.0,100,142.0
407,E4,84.0,3.0,100,142.0
408,A2,84.0,0.25,100,142.0
409,F#4,84.5,0.25,100,142.0
410,A2,85.0,0.25,100,142.0
411,F#4,85.5,0.25,100,142.0
412,A2,86.0,0.25,100,142.0
413,F#4,86.5,0.25,100,142.0
414,A2,87.0,0.25,100,142.0
415,D4,87.5,0.5,100,142.0
416,C#4,87.5,0.25,100,142.0
417,F#5,88.0,0.5,100,142.0
418,F#4,88.0,0.5,100,142.0
419,B2,88.0,0.25,100,142.0
420,G5,88.5,1.0,100,142.0
421,D4,88.5,0.25,100,142.0
422,G4,89.0,0.5,100,142.0
423,B2,89.0,0.25,100,142.0
424,F#5,89.5,1.0,100,142.0
425,D4,89.5,0.25,100,142.0
426,F#4,90.0,0.5,100,142.0
427,B2,90.0,0.25,100,142.0
428,E5,90.5,1.0,100,142.0
429,D4,90.5,0.25,100,142.0
430,D4,91.0,0.5,100,142.0
431,B2,91.0,0.25,100,142.0
432,D5,91.5,0.5,100,142.0
433,G4,91.5,0.5,100,142.0
434,C#4,91.5,0.25,100,142.0
435,D5,92.0,2.0,100,142.0
436,F#4,92.0,0.5,100,142.0
437,D3,92.0,0.25,100,142.0
438,A3,92.5,0.25,100,142.0
439,F#4,93.0,0.5,100,142.0
440,D3,93.0,0.25,100,142.0
441,G4,93.5,0.5,100,142.0
442,A3,93.5,0.25,100,142.0
443,A4,94.0,0.5,100,142.0
444,D3,94.0,0.25,100,142.0
445,G4,94.5,0.5,100,142.0
446,A3,94.5,0.25,100,142.0
447,D4,95.0,0.75,100,142.0
448,D3,95.0,0.25,100,142.0
449,F#3,95.5,0.25,100,142.0
450,F#4,96.0,0.5,100,142.0
451,G2,96.0,0.25,100,142.0
452,D4,96.5,0.25,100,142.0
453,D5,97.0,1.0,100,142.0
454,F#4,97.0,0.5,100,142.0
455,G2,97.0,0.25,100,142.0
456,D4,97.5,0.25,100,142.0
457,A5,98.0,1.0,100,142.0
458,F#4,98.0,0.5,100,142.0
459,G2,98.0,0.25,100,142.0
460,D4,98.5,0.25,100,142.0
461,F#5,99.0,0.5,100,142.0
462,A4,99.0,0.5,100,142.0
463,G3,99.0,0.25,100,142.0
464,G2,99.0,0.25,100,142.0
465,E5,99.5,0.5,100,142.0
466,D4,99.5,0.5,100,142.0
467,A3,99.5,0.25,100,142.0
468,E5,100.0,2.0,100,142.0
469,E4,100.0,1.5,100,142.0
470,A2,100.0,0.25,100,142.0
471,F#4,100.5,0.25,100,142.0
472,A2,101.0,0.25,100,142.0
473,A4,101.5,0.5,100,142.0
474,F#4,101.5,0.25,100,142.0
475,A2,102.0,0.25,100,142.0
476,A4,102.5,0.5,100,142.0
477,F#4,102.5,0.25,100,142.0
478,G4,103.0,0.5,100,142.0
479,A2,103.0,0.25,100,142.0
480,E4,103.5,0.5,100,142.0
481,C#4,103.5,0.25,100,142.0
482,F#5,104.0,0.5,100,142.0
483,F#4,104.0,0.5,100,142.0
484,B2,104.0,0.25,100,142.0
485,G5,104.5,1.0,100,142.0
486,G4,104.5,0.5,100,142.0
487,D4,104.5,0.25,100,142.0
488,F#4,105.0,0.5,100,142.0
489,B2,105.0,0.25,100,142.0
490,F#5,105.5,1.5,100,142.0
491,G4,105.5,0.5,100,142.0
492,D4,105.5,0.25,100,142.0
493,F#4,106.0,0.5,100,142.0
494,B2,106.0,0.25,100,142.0
495,D4,106.5,0.25,100,142.0
496,D5,107.0,0.5,100,142.0
497,D4,107.0,0.5,100,142.0
498,B2,107.0,0.25,100,142.0
499,F#5,107.5,0.5,100,142.0
500,C#4,107.5,0.25,100,142.0
501,F#5,108.0,0.5,100,142.0
502,F#4,108.0,0.5,100,142.0
503,D3,108.0,0.25,100,142.0
504,G5,108.5,1.0,100,142.0
505,G4,108.5,0.5,100,142.0
506,A3,108.5,0.25,100,142.0
507,F#4,109.0,0.5,100,142.0
508,D3,109.0,0.25,100,142.0
509,F#5,109.5,1.0,100,142.0
510,G4,109.5,0.5,100,142.0
511,A3,109.5,0.25,100,142.0
512,A4,110.0,0.5,100,142.0
513,D3,110.0,0.25,100,142.0
514,E5,110.5,0.5,100,142.0
515,A3,110.5,0.25,100,142.0
516,D5,111.0,1.0,100,142.0
517,D4,111.0,0.5,100,142.0
518,D3,111.0,0.25,100,142.0
519,F#3,111.5,0.25,100,142.0
520,D5,112.0,0.5,100,142.0
521,D4,112.0,0.5,100,142.0
522,G2,112.0,0.25,100,142.0
523,D4,112.5,0.25,100,142.0
524,D5,113.0,1.0,100,142.0
525,D4,113.0,0.5,100,142.0
526,G2,113.0,0.25,100,142.0
527,D4,113.5,0.25,100,142.0
528,A5,114.0,1.0,100,142.0
529,D4,114.0,0.5,100,142.0
530,G2,114.0,0.25,100,142.0
531,D4,114.5,0.25,100,142.0
532,F#5,115.0,0.5,100,142.0
533,F#4,115.0,0.5,100,142.0
534,G3,115.0,0.25,100,142.0
535,G2,115.0,0.25,100,142.0
536,E5,115.5,0.5,100,142.0
537,G4,115.5,0.5,100,142.0
538,A3,115.5,0.25,100,142.0
539,E5,116.0,2.0,100,142.0
540,E4,116.0,3.0,100,142.0
541,A2,116.0,0.25,100,142.0
542,F#4,116.5,0.25,100,142.0
543,A2,117.0,0.25,100,142.0
544,F#4,117.5,0.25,100,142.0
545,A2,118.0,0.25,100,142.0
546,F#4,118.5,0.25,100,142.0
547,A2,119.0,0.25,100,142.0
548,D4,119.5,0.5,100,142.0
549,C#4,119.5,0.25,100,142.0
550,F#5,120.0,0.5,100,142.0
551,F#4,120.0,0.5,100,142.0
552,B2,120.0,0.25,100,142.0
553,G5,120.5,1.0,100,142.0
554,D4,120.5,0.25,100,142.0
555,G4,121.0,0.5,100,142.0
556,B2,121.0,0.25,100,142.0
557,F#5,121.5,1.0,100,142.0
558,D4,121.5,0.25,100,142.0
559,F#4,122.0,0.5,100,142.0
560,B2,122.0,0.25,100,142.0
561,E5,122.5,1.0,100,142.0
562,D4,122.5,0.25,100,142.0
563,D4,123.0,0.5,100,142.0
564,B2,123.0,0.25,100,142.0
565,D5,123.5,0.5,100,142.0
566,G4,123.5,0.5,100,142.0
567,C#4,123.5,0.25,100,142.0
568,D5,124.0,3.5,100,142.0
569,F#4,124.0,0.5,100,142.0
570,D3,124.0,0.25,100,142.0
571,A3,124.5,0.25,100,142.0
572,F#4,125.0,0.5,100,142.0
573,D3,125.0,0.25,100,142.0
574,G4,125.5,0.5,100,142.0
575,A3,125.5,0.25,100,142.0
576,A4,126.0,0.5,100,142.0
577,D3,126.0,0.25,100,142.0
578,G4,126.5,0.5,100,142.0
579,A3,126.5,0.25,100,142.0
580,D4,127.0,0.75,100,142.0
581,D3,127.0,0.25,100,142.0
582,F#3,127.5,0.25,100,142.0
583,F#4,128.0,0.5,100,142.0
584,G2,128.0,0.25,100,142.0
585,D4,128.5,0.25,100,142.0
586,D5,129.0,1.0,100,142.0
587,F#4,129.0,0.5,100,142.0
588,G2,129.0,0.25,100,142.0
589,D4,129.5,0.25,100,142.0
590,A5,130.0,1.0,100,142.0
591,F#4,130.0,0.5,100,142.0
592,G2,130.0,0.25,100,142.0
593,D4,130.5,0.25,100,142.0
594,F#5,131.0,0.5,100,142.0
595,A4,131.0,0.5,100,142.0
596,G3,131.0,0.25,100,142.0
597,G2,131.0,0.25,100,142.0
598,E5,131.5,0.5,100,142.0
599,D4,131.5,0.5,100,142.0
600,A3,131.5,0.25,100,142.0
601,E5,132.0,2.0,100,142.0
602,E4,132.0,1.5,100,142.0
603,A2,132.0,0.25,100,142.0
604,F#4,132.5,0.25,100,142.0
605,A2,133.0,0.25,100,142.0
606,A4,133.5,0.5,100,142.0
607,F#4,133.5,0.25,100,142.0
608,A2,134.0,0.25,100,142.0
609,A4,134.5,0.5,100,142.0
610,F#4,134.5,0.25,100,142.0
611,G4,135.0,0.5,100,142.0
612,A2,135.0,0.25,100,142.0
613,E4,135.5,0.5,100,142.0
614,C#4,135.5,0.25,100,142.0
615,F#5,136.0,0.5,100,142.0
616,F#4,136.0,0.5,100,142.0
617,B2,136.0,0.25,100,142.0
618,G5,136.5,1.0,100,142.0
619,G4,136.5,0.5,100,142.0
620,D4,136.5,0.25,100,142.0
621,F#4,137.0,0.5,100,142.0
622,B2,137.0,0.25,100,142.0
623,F#5,137.5,1.5,100,142.0
624,G4,137.5,0.5,100,142.0
625,D4,137.5,0.25,100,142.0
626,F#4,138.0,0.5,100,142.0
627,B2,138.0,0.25,100,142.0
628,D4,138.5,0.25,100,142.0
629,D5,139.0,0.5,100,142.0
630,D4,139.0,0.5,100,142.0
631,B2,139.0,0.25,100,142.0
632,F#5,139.5,0.5,100,142.0
633,C#4,139.5,0.25,100,142.0
634,F#5,140.0,0.5,100,142.0
635,F#4,140.0,0.5,100,142.0
636,D3,140.0,0.25,100,142.0
637,G5,140.5,1.0,100,142.0
638,G4,140.5,0.5,100,142.0
639,A3,140.5,0.25,100,142.0
640,F#4,141.0,0.5,100,142.0
641,D3,141.0,0.25,100,142.0
642,F#5,141.5,1.0,100,142.0
643,G4,141.5,0.5,100,142.0
644,A3,141.5,0.25,100,142.0
645,A4,142.0,0.5,100,142.0
646,D3,142.0,0.25,100,142.0
647,E5,142.5,0.5,100,142.0
648,A3,142.5,0.25,100,142.0
649,D5,143.0,0.75,100,142.0
650,D4,143.0,0.5,100,142.0
651,D3,143.0,0.25,100,142.0
652,F#3,143.5,0.25,100,142.0
653,D5,144.0,0.75,100,142.0
654,D4,144.0,0.75,100,142.0
655,D4,144.0,0.5,100,142.0
656,G2,144.0,0.25,100,142.0
657,D4,144.5,0.25,100,142.0
658,D5,145.0,0.75,100,142.0
659,D4,145.0,0.75,100,142.0
660,D4,145.0,0.5,100,142.0
661,G2,145.0,0.25,100,142.0
662,D4,145.5,0.25,100,142.0
663,D5,146.0,0.75,100,142.0
664,D4,146.0,0.75,100,142.0
665,D4,146.0,0.5,100,142.0
666,G2,146.0,0.25,100,142.0
667,D4,146.5,0.25,100,142.0
668,A4,147.0,0.75,100,142.0
669,A3,147.0,0.75,100,142.0
670,F#4,147.0,0.5,100,142.0
671,G2,147.0,0.25,100,142.0
672,G3,147.0,0.25,100,142.0
673,G4,147.5,0.5,100,142.0
674,A3,147.5,0.25,100,142.0
675,E5,148.0,0.75,100,142.0
676,E4,148.0,0.75,100,142.0
677,E4,148.0,3.0,100,142.0
678,A2,148.0,0.25,100,142.0
679,F#4,148.5,0.25,100,142.0
680,E5,149.0,0.75,100,142.0
681,E4,149.0,0.75,100,142.0
682,A2,149.0,0.25,100,142.0
683,F#4,149.5,0.25,100,142.0
684,E5,150.0,0.75,100,142.0
685,E4,150.0,0.75,100,142.0
686,A2,150.0,0.25,100,142.0
687,F#4,150.5,0.25,100,142.0
688,D5,151.0,19/25,100,142.0
689,D4,151.0,19/25,100,142.0
690,A2,151.0,0.25,100,142.0
691,D4,151.5,0.5,100,142.0
692,C#4,151.5,0.25,100,142.0
693,D5,152.0,19/25,100,142.0
694,D4,152.0,19/25,100,142.0
695,F#4,152.0,0.5,100,142.0
696,B2,152.0,0.25,100,142.0
697,D4,152.5,0.25,100,142.0
698,D5,153.0,19/25,100,142.0
699,D4,153.0,19/25,100,142.0
700,G4,153.0,0.5,100,142.0
701,B2,153.0,0.25,100,142.0
702,D4,153.5,0.25,100,142.0
703,D5,154.0,19/25,100,142.0
704,D4,154.0,19/25,100,142.0
705,F#4,154.0,0.5,100,142.0
706,B2,154.0,0.25,100,142.0
707,D4,154.5,0.25,100,142.0
708,A5,155.0,19/25,100,142.0
709,A4,155.0,19/25,100,142.0
710,D4,155.0,0.5,100,142.0
711,B2,155.0,0.25,100,142.0
712,G4,155.5,0.5,100,142.0
713,C#4,155.5,0.25,100,142.0
714,E5,156.0,19/25,100,142.0
715,E4,156.0,19/25,100,142.0
716,F#4,156.0,0.5,100,142.0
717,D3,156.0,0.25,100,142.0
718,A3,156.5,0.25,100,142.0
719,E5,157.0,19/25,100,142.0
720,E4,157.0,19/25,100,142.0
721,F#4,157.0,0.5,100,142.0
722,D3,157.0,0.25,100,142.0
723,G4,157.5,0.5,100,142.0
724,A3,157.5,0.25,100,142.0
725,E5,158.0,19/25,100,142.0
726,E4,158.0,19/25,100,142.0
727,A4,158.0,0.5,100,142.0
728,D3,158.0,0.25,100,142.0
729,G4,158.5,0.5,100,142.0
730,A3,158.5,0.25,100,142.0
731,D5,159.0,19/25,100,142.0
732,D4,159.0,19/25,100,142.0
733,D4,159.0,0.75,100,142.0
734,D3,159.0,0.25,100,142.0
735,F#3,159.5,0.25,100,142.0
736,F#4,160.0,0.5,100,142.0
737,G2,160.0,0.25,100,142.0
738,D4,160.5,0.25,100,142.0
739,D5,161.0,1.0,100,142.0
740,F#4,161.0,0.5,100,142.0
741,G2,161.0,0.25,100,142.0
742,D4,161.5,0.25,100,142.0
743,A5,162.0,1.0,100,142.0
744,F#4,162.0,0.5,100,142.0
745,G2,162.0,0.25,100,142.0
746,D4,162.5,0.25,100,142.0
747,F#5,163.0,0.5,100,142.0
748,A4,163.0,0.5,100,142.0
749,G3,163.0,0.25,100,142.0
750,G2,163.0,0.25,100,142.0
751,E5,163.5,0.5,100,142.0
752,D4,163.5,0.5,100,142.0
753,A3,163.5,0.25,100,142.0
754,E5,164.0,2.0,100,142.0
755,E4,164.0,1.5,100,142.0
756,A2,164.0,0.25,100,142.0
757,F#4,164.5,0.25,100,142.0
758,A2,165.0,0.25,100,142.0
759,A4,165.5,0.5,100,142.0
760,F#4,165.5,0.25,100,142.0
761,A2,166.0,0.25,100,142.0
762,A4,166.5,0.5,100,142.0
763,F#4,166.5,0.25,100,142.0
764,G4,167.0,0.5,100,142.0
765,A2,167.0,0.25,100,142.0
766,E4,167.5,0.5,100,142.0
767,C#4,167.5,0.25,100,142.0
768,F#5,168.0,0.5,100,142.0
769,F#4,168.0,0.5,100,142.0
770,B2,168.0,0.25,100,142.0
771,G5,168.5,1.0,100,142.0
772,G4,168.5,0.5,100,142.0
773,D4,168.5,0.25,100,142.0
774,F#4,169.0,0.5,100,142.0
775,B2,169.0,0.25,100,142.0
776,F#5,169.5,1.5,100,142.0
777,G4,169.5,0.5,100,142.0
778,D4,169.5,0.25,100,142.0
779,F#4,170.0,0.5,100,142.0
780,B2,170.0,0.25,100,142.0
781,D4,170.5,0.25,100,142.0
782,D5,171.0,0.5,100,142.0
783,D4,171.0,0.5,100,142.0
784,B2,171.0,0.25,100,142.0
785,F#5,171.5,0.5,100,142.0
786,C#4,171.5,0.25,100,142.0
787,F#5,172.0,0.5,100,142.0
788,G5,172.5,1.0,100,142.0
789,F#5,173.5,1.0,100,142.0
790,E5,174.5,0.5,100,142.0
791,D5,175.0,1.0,100,142.0
792,F#4,176.0,0.25,100,142.0
793,G2,176.0,0.25,100,142.0
794,C2,176.0,0.25,100,142.0
795,B-2,176.0,0.25,100,142.0
796,F#4,176.5,0.25,100,142.0
797,G2,176.5,0.25,100,142.0
798,F#4,177.0,0.25,100,142.0
799,G2,177.0,0.25,100,142.0
800,C2,177.0,0.25,100,142.0
801,B-2,177.0,0.25,100,142.0
802,F#4,177.5,0.25,100,142.0
803,G2,177.5,0.25,100,142.0
804,F#4,178.0,0.25,100,142.0
805,G2,178.0,0.25,100,142.0
806,E-2,178.0,0.25,100,142.0
807,D4,178.5,0.25,100,142.0
808,G2,178.5,0.25,100,142.0
809,F#4,179.0,0.25,100,142.0
810,G2,179.0,0.25,100,142.0
811,C2,179.0,0.25,100,142.0
812,B-2,179.0,0.25,100,142.0
813,G4,179.5,0.25,100,142.0
814,G2,179.5,0.25,100,142.0
815,F#4,180.0,0.25,100,142.0
816,A2,180.0,0.25,100,142.0
817,F#4,180.5,0.25,100,142.0
818,A2,180.5,0.25,100,142.0
819,F#4,181.0,0.25,100,142.0
820,A2,181.0,0.25,100,142.0
821,C2,181.0,0.25,100,142.0
822,B-2,181.0,0.25,100,142.0
823,F#4,181.5,0.25,100,142.0
824,A2,181.5,0.25,100,142.0
825,F#4,182.0,0.25,100,142.0
826,A2,182.0,0.25,100,142.0
827,E-2,182.0,0.25,100,142.0
828,D4,182.5,0.25,100,142.0
829,A2,182.5,0.25,100,142.0
830,F#4,183.0,0.25,100,142.0
831,A2,183.0,0.25,100,142.0
832,B-2,183.0,0.25,100,142.0
833,G4,183.5,0.25,100,142.0
834,A2,183.5,0.25,100,142.0
835,F#4,184.0,0.25,100,142.0
836,B2,184.0,0.25,100,142.0
837,C2,184.0,0.25,100,142.0
838,B-2,184.0,0.25,100,142.0
839,F#4,184.5,0.25,100,142.0
840,B2,184.5,0.25,100,142.0
841,F#4,185.0,0.25,100,142.0
842,B2,185.0,0.25,100,142.0
843,C2,185.0,0.25,100,142.0
844,B-2,185.0,0.25,100,142.0
845,F#4,185.5,0.25,100,142.0
846,B2,185.5,0.25,100,142.0
847,F#4,186.0,0.25,100,142.0
848,B2,186.0,0.25,100,142.0
849,E-2,186.0,0.25,100,142.0
850,D4,186.5,0.25,100,142.0
851,B2,186.5,0.25,100,142.0
852,F#4,187.0,0.25,100,142.0
853,B2,187.0,0.25,100,142.0
854,C2,187.0,0.25,100,142.0
855,B-2,187.0,0.25,100,142.0
856,G4,187.5,0.25,100,142.0
857,B2,187.5,0.25,100,142.0
858,F#4,188.0,0.25,100,142.0
859,D3,188.0,0.25,100,142.0
860,F#4,188.5,0.25,100,142.0
861,D3,188.5,0.25,100,142.0
862,F#4,189.0,0.25,100,142.0
863,D3,189.0,0.25,100,142.0
864,C2,189.0,0.25,100,142.0
865,B-2,189.0,0.25,100,142.0
866,F#4,189.5,0.25,100,142.0
867,D3,189.5,0.25,100,142.0
868,F#4,190.0,0.25,100,142.0
869,D3,190.0,0.25,100,142.0
870,E-2,190.0,0.25,100,142.0
871,G4,190.5,0.25,100,142.0
872,D3,190.5,0.25,100,142.0
873,A4,191.0,0.25,100,142.0
874,D3,191.0,0.25,100,142.0
875,B-2,191.0,0.25,100,142.0
876,D4,191.5,0.25,100,142.0
877,D3,191.5,0.25,100,142.0
878,G2,192.0,0.25,100,142.0
879,F#4,192.0,0.25,100,142.0
880,D5,192.0,0.25,100,142.0
881,C2,192.0,0.25,100,142.0
882,B-2,192.0,0.25,100,142.0
883,F#4,192.5,0.25,100,142.0
884,G2,192.5,0.25,100,142.0
885,F#4,193.0,0.25,100,142.0
886,G2,193.0,0.25,100,142.0
887,C2,193.0,0.25,100,142.0
888,B-2,193.0,0.25,100,142.0
889,F#4,193.5,0.25,100,142.0
890,G2,193.5,0.25,100,142.0
891,F#4,194.0,0.25,100,142.0
892,G2,194.0,0.25,100,142.0
893,E-2,194.0,0.25,100,142.0
894,D4,194.5,0.25,100,142.0
895,G2,194.5,0.25,100,142.0
896,F#4,195.0,0.25,100,142.0
897,G2,195.0,0.25,100,142.0
898,C2,195.0,0.25,100,142.0
899,B-2,195.0,0.25,100,142.0
900,G4,195.5,0.25,100,142.0
901,G2,195.5,0.25,100,142.0
902,F#4,196.0,0.25,100,142.0
903,A2,196.0,0.25,100,142.0
904,F#4,196.5,0.25,100,142.0
905,A2,196.5,0.25,100,142.0
906,F#4,197.0,0.25,100,142.0
907,A2,197.0,0.25,100,142.0
908,C2,197.0,0.25,100,142.0
909,B-2,197.0,0.25,100,142.0
910,F#4,197.5,0.25,100,142.0
911,A2,197.5,0.25,100,142.0
912,F#4,198.0,0.25,100,142.0
913,A2,198.0,0.25,100,142.0
914,E-2,198.0,0.25,100,142.0
915,D4,198.5,0.25,100,142.0
916,A2,198.5,0.25,100,142.0
917,F#4,199.0,0.25,100,142.0
918,A2,199.0,0.25,100,142.0
919,B-2,199.0,0.25,100,142.0
920,G4,199.5,0.25,100,142.0
921,A2,199.5,0.25,100,142.0
922,F#4,200.0,0.25,100,142.0
923,B2,200.0,0.25,100,142.0
924,C2,200.0,0.25,100,142.0
925,B-2,200.0,0.25,100,142.0
926,F#4,200.5,0.25,100,142.0
927,B2,200.5,0.25,100,142.0
928,F#4,201.0,0.25,100,142.0
929,B2,201.0,0.25,100,142.0
930,C2,201.0,0.25,100,142.0
931,B-2,201.0,0.25,100,142.0
932,F#4,201.5,0.25,100,142.0
933,B2,201.5,0.25,100,142.0
934,F#4,202.0,0.25,100,142.0
935,B2,202.0,0.25,100,142.0
936,E-2,202.0,0.25,100,142.0
937,D4,202.5,0.25,100,142.0
938,B2,202.5,0.25,100,142.0
939,F#4,203.0,0.25,100,142.0
940,B2,203.0,0.25,100,142.0
941,C2,203.0,0.25,100,142.0
942,B-2,203.0,0.25,100,142.0
943,G4,203.5,0.25,100,142.0
944,B2,203.5,0.25,100,142.0
945,F#4,204.0,0.25,100,142.0
946,D3,204.0,0.25,100,142.0
947,G4,204.5,0.25,100,142.0
948,D3,204.5,0.25,100,142.0
949,A4,205.0,0.25,100,142.0
950,D3,205.0,0.25,100,142.0
951,C2,205.0,0.25,100,142.0
952,B-2,205.0,0.25,100,142.0
953,G4,205.5,0.25,100,142.0
954,D3,205.5,0.25,100,142.0
955,F#4,206.0,0.25,100,142.0
956,D3,206.0,0.25,100,142.0
957,E-2,206.0,0.25,100,142.0
958,E4,206.5,0.25,100,142.0
959,D3,206.5,0.25,100,142.0
960,F#4,207.0,0.25,100,142.0
961,D3,207.0,0.25,100,142.0
962,B-2,207.0,0.25,100,142.0
963,D4,207.5,0.25,100,142.0
964,D3,207.5,0.25,100,142.0
965,F#4,208.0,0.25,100,142.0
966,G2,208.0,0.25,100,142.0
967,C2,208.0,0.25,100,142.0
968,B-2,208.0,0.25,100,142.0
969,F#4,208.5,0.25,100,142.0
970,G2,208.5,0.25,100,142.0
971,F#4,209.0,0.25,100,142.0
972,G2,209.0,0.25,100,142.0
973,C2,209.0,0.25,100,142.0
974,B-2,209.0,0.25,100,142.0
975,F#4,209.5,0.25,100,142.0
976,G2,209.5,0.25,100,142.0
977,F#4,210.0,0.25,100,142.0
978,G2,210.0,0.25,100,142.0
979,E-2,210.0,0.25,100,142.0
980,D4,210.5,0.25,100,142.0
981,G2,210.5,0.25,100,142.0
982,F#4,211.0,0.25,100,142.0
983,G2,211.0,0.25,100,142.0
984,C#3,211.0,0.5,100,142.0
985,C2,211.0,0.25,100,142.0
986,B-2,211.0,0.25,100,142.0
987,F#2,211.0,0.25,100,142.0
988,F#2,211.25,0.25,100,142.0
989,G4,211.5,0.25,100,142.0
990,G2,211.5,0.25,100,142.0
991,F#2,211.5,0.25,100,142.0
992,F#2,211.75,0.25,100,142.0
993,F#4,212.0,0.25,100,142.0
994,A2,212.0,0.25,100,142.0
995,F#2,212.0,0.25,100,142.0
996,C2,212.0,0.25,100,142.0
997,F#2,212.25,0.25,100,142.0
998,F#4,212.5,0.25,100,142.0
999,A2,212.5,0.25,100,142.0
1000,F#2,212.5,0.25,100,142.0
1001,F#2,212.75,0.25,100,142.0
1002,F#4,213.0,0.25,100,142.0
1003,A2,213.0,0.25,100,142.0
1004,F#2,213.0,0.25,100,142.0
1005,B-2,213.0,0.25,100,142.0
1006,C2,213.0,0.25,100,142.0
1007,F#2,213.25,0.25,100,142.0
1008,F#4,213.5,0.25,100,142.0
1009,A2,213.5,0.25,100,142.0
1010,F#2,213.5,0.25,100,142.0
1011,F#2,213.75,0.25,100,142.0
1012,F#4,214.0,0.25,100,142.0
1013,A2,214.0,0.25,100,142.0
1014,F#2,214.0,0.25,100,142.0
1015,E-2,214.0,0.25,100,142.0
1016,C2,214.0,0.25,100,142.0
1017,F#2,214.25,0.25,100,142.0
1018,D4,214.5,0.25,100,142.0
1019,A2,214.5,0.25,100,142.0
1020,F#2,214.5,0.25,100,142.0
1021,F#2,214.75,0.25,100,142.0
1022,C2,214.75,0.25,100,142.0
1023,F#4,215.0,0.25,100,142.0
1024,A2,215.0,0.25,100,142.0
1025,B-2,215.0,0.25,100,142.0
1026,F#2,215.0,0.25,100,142.0
1027,F#2,215.25,0.25,100,142.0
1028,G4,215.5,0.25,100,142.0
1029,A2,215.5,0.25,100,142.0
1030,C2,215.5,0.25,100,142.0
1031,F#2,215.5,0.25,100,142.0
1032,F#2,215.75,0.25,100,142.0
1033,F#4,216.0,0.25,100,142.0
1034,B2,216.0,0.25,100,142.0
1035,C2,216.0,0.25,100,142.0
1036,B-2,216.0,0.25,100,142.0
1037,F#2,216.0,0.25,100,142.0
1038,F#2,216.25,0.25,100,142.0
1039,F#4,216.5,0.25,100,142.0
1040,B2,216.5,0.25,100,142.0
1041,F#2,216.5,0.25,100,142.0
1042,F#2,216.75,0.25,100,142.0
1043,F#4,217.0,0.25,100,142.0
1044,B2,217.0,0.25,100,142.0
1045,C2,217.0,0.25,100,142.0
1046,B-2,217.0,0.25,100,142.0
1047,F#2,217.0,0.25,100,142.0
1048,F#2,217.25,0.25,100,142.0
1049,F#4,217.5,0.25,100,142.0
1050,B2,217.5,0.25,100,142.0
1051,F#2,217.5,0.25,100,142.0
1052,F#2,217.75,0.25,100,142.0
1053,F#4,218.0,0.25,100,142.0
1054,B2,218.0,0.25,100,142.0
1055,E-2,218.0,0.25,100,142.0
1056,C2,218.0,0.25,100,142.0
1057,F#2,218.0,0.25,100,142.0
1058,F#2,218.25,0.25,100,142.0
1059,D4,218.5,0.25,100,142.0
1060,B2,218.5,0.25,100,142.0
1061,F#2,218.5,0.25,100,142.0
1062,C2,218.75,0.25,100,142.0
1063,F#2,218.75,0.25,100,142.0
1064,F#4,219.0,0.25,100,142.0
1065,B2,219.0,0.25,100,142.0
1066,B-2,219.0,0.25,100,142.0
1067,F#2,219.0,0.25,100,142.0
1068,F#2,219.25,0.25,100,142.0
1069,G4,219.5,0.25,100,142.0
1070,B2,219.5,0.25,100,142.0
1071,C2,219.5,0.25,100,142.0
1072,F#2,219.5,0.25,100,142.0
1073,F#2,219.75,0.25,100,142.0
1074,F#4,220.0,0.25,100,142.0
1075,D3,220.0,0.25,100,142.0
1076,C2,220.0,0.25,100,142.0
1077,F#2,220.0,0.25,100,142.0
1078,F#2,220.25,0.25,100,142.0
1079,F#4,220.5,0.25,100,142.0
1080,D3,220.5,0.25,100,142.0
1081,F#2,220.5,0.25,100,142.0
1082,F#2,220.75,0.25,100,142.0
1083,F#4,221.0,0.25,100,142.0
1084,D3,221.0,0.25,100,142.0
1085,B-2,221.0,0.25,100,142.0
1086,C2,221.0,0.25,100,142.0
1087,F#2,221.0,0.25,100,142.0
1088,F#2,221.25,0.25,100,142.0
1089,F#4,221.5,0.25,100,142.0
1090,D3,221.5,0.25,100,142.0
1091,F#2,221.5,0.25,100,142.0
1092,F#2,221.75,0.25,100,142.0
1093,F#4,222.0,0.25,100,142.0
1094,D3,222.0,0.25,100,142.0
1095,E-2,222.0,0.25,100,142.0
1096,C2,222.0,0.25,100,142.0
1097,F#2,222.0,0.25,100,142.0
1098,F#2,222.25,0.25,100,142.0
1099,G4,222.5,0.25,100,142.0
1100,D3,222.5,0.25,100,142.0
1101,F#2,222.5,0.25,100,142.0
1102,C2,222.75,0.25,100,142.0
1103,F#2,222.75,0.25,100,142.0
1104,A4,223.0,0.25,100,142.0
1105,D3,223.0,0.25,100,142.0
1106,B-2,223.0,0.25,100,142.0
1107,F#2,223.0,0.25,100,142.0
1108,F#2,223.25,0.25,100,142.0
1109,D4,223.5,0.25,100,142.0
1110,D3,223.5,0.25,100,142.0
1111,C2,223.5,0.25,100,142.0
1112,F#2,223.5,0.25,100,142.0
1113,F#2,223.75,0.25,100,142.0
1114,G2,224.0,0.25,100,142.0
1115,F#4,224.0,0.25,100,142.0
1116,D5,224.0,0.25,100,142.0
1117,C2,224.0,0.25,100,142.0
1118,F#2,224.0,0.25,100,142.0
1119,F#2,224.25,0.25,100,142.0
1120,F#4,224.5,0.25,100,142.0
1121,G2,224.5,0.25,100,142.0
1122,F#2,224.5,0.25,100,142.0
1123,F#2,224.75,0.25,100,142.0
1124,F#4,225.0,0.25,100,142.0
1125,G2,225.0,0.25,100,142.0
1126,C2,225.0,0.25,100,142.0
1127,F#2,225.0,0.25,100,142.0
1128,B-2,225.0,0.25,100,142.0
1129,F#2,225.25,0.25,100,142.0
1130,F#4,225.5,0.25,100,142.0
1131,G2,225.5,0.25,100,142.0
1132,F#2,225.5,0.25,100,142.0
1133,F#2,225.75,0.25,100,142.0
1134,F#4,226.0,0.25,100,142.0
1135,G2,226.0,0.25,100,142.0
1136,C2,226.0,0.25,100,142.0
1137,F#2,226.0,0.25,100,142.0
1138,E-2,226.0,0.25,100,142.0
1139,F#2,226.25,0.25,100,142.0
1140,D4,226.5,0.25,100,142.0
1141,G2,226.5,0.25,100,142.0
1142,F#2,226.5,0.25,100,142.0
1143,C2,226.75,0.25,100,142.0
1144,F#2,226.75,0.25,100,142.0
1145,F#4,227.0,0.25,100,142.0
1146,G2,227.0,0.25,100,142.0
1147,F#2,227.0,0.25,100,142.0
1148,B-2,227.0,0.25,100,142.0
1149,F#2,227.25,0.25,100,142.0
1150,G4,227.5,0.25,100,142.0
1151,G2,227.5,0.25,100,142.0
1152,C2,227.5,0.25,100,142.0
1153,F#2,227.5,0.25,100,142.0
1154,F#2,227.75,0.25,100,142.0
1155,F#4,228.0,0.25,100,142.0
1156,A2,228.0,0.25,100,142.0
1157,C2,228.0,0.25,100,142.0
1158,F#2,228.0,0.25,100,142.0
1159,B-2,228.0,0.25,100,142.0
1160,F#2,228.25,0.25,100,142.0
1161,F#4,228.5,0.25,100,142.0
1162,A2,228.5,0.25,100,142.0
1163,F#2,228.5,0.25,100,142.0
1164,F#2,228.75,0.25,100,142.0
1165,F#4,229.0,0.25,100,142.0
1166,A2,229.0,0.25,100,142.0
1167,C2,229.0,0.25,100,142.0
1168,F#2,229.0,0.25,100,142.0
1169,B-2,229.0,0.25,100,142.0
1170,F#2,229.25,0.25,100,142.0
1171,F#4,229.5,0.25,100,142.0
1172,A2,229.5,0.25,100,142.0
1173,F#2,229.5,0.25,100,142.0
1174,F#2,229.75,0.25,100,142.0
1175,F#4,230.0,0.25,100,142.0
1176,A2,230.0,0.25,100,142.0
1177,C2,230.0,0.25,100,142.0
1178,F#2,230.0,0.25,100,142.0
1179,E-2,230.0,0.25,100,142.0
1180,F#2,230.25,0.25,100,142.0
1181,D4,230.5,0.25,100,142.0
1182,A2,230.5,0.25,100,142.0
1183,F#2,230.5,0.25,100,142.0
1184,C2,230.75,0.25,100,142.0
1185,F#2,230.75,0.25,100,142.0
1186,F#4,231.0,0.25,100,142.0
1187,A2,231.0,0.25,100,142.0
1188,F#2,231.0,0.25,100,142.0
1189,B-2,231.0,0.25,100,142.0
1190,F#2,231.25,0.25,100,142.0
1191,G4,231.5,0.25,100,142.0
1192,A2,231.5,0.25,100,142.0
1193,C2,231.5,0.25,100,142.0
1194,F#2,231.5,0.25,100,142.0
1195,F#2,231.75,0.25,100,142.0
1196,F#4,232.0,0.25,100,142.0
1197,B2,232.0,0.25,100,142.0
1198,C2,232.0,0.25,100,142.0
1199,F#2,232.0,0.25,100,142.0
1200,F#2,232.25,0.25,100,142.0
1201,F#4,232.5,0.25,100,142.0
1202,B2,232.5,0.25,100,142.0
1203,F#2,232.5,0.25,100,142.0
1204,F#2,232.75,0.25,100,142.0
1205,F#4,233.0,0.25,100,142.0
1206,B2,233.0,0.25,100,142.0
1207,C2,233.0,0.25,100,142.0
1208,F#2,233.0,0.25,100,142.0
1209,B-2,233.0,0.25,100,142.0
1210,F#2,233.25,0.25,100,142.0
1211,F#4,233.5,0.25,100,142.0
1212,B2,233.5,0.25,100,142.0
1213,F#2,233.5,0.25,100,142.0
1214,F#2,233.75,0.25,100,142.0
1215,F#4,234.0,0.25,100,142.0
1216,B2,234.0,0.25,100,142.0
1217,C2,234.0,0.25,100,142.0
1218,F#2,234.0,0.25,100,142.0
1219,E-2,234.0,0.25,100,142.0
1220,F#2,234.25,0.25,100,142.0
1221,D4,234.5,0.25,100,142.0
1222,B2,234.5,0.25,100,142.0
1223,F#2,234.5,0.25,100,142.0
1224,C2,234.75,0.25,100,142.0
1225,F#2,234.75,0.25,100,142.0
1226,F#4,235.0,0.25,100,142.0
1227,B2,235.0,0.25,100,142.0
1228,F#2,235.0,0.25,100,142.0
1229,B-2,235.0,0.25,100,142.0
1230,F#2,235.25,0.25,100,142.0
1231,G4,235.5,0.25,100,142.0
1232,B2,235.5,0.25,100,142.0
1233,C2,235.5,0.25,100,142.0
1234,F#2,235.5,0.25,100,142.0
1235,F#2,235.75,0.25,100,142.0
1236,F#4,236.0,0.25,100,142.0
1237,D3,236.0,0.25,100,142.0
1238,C2,236.0,0.25,100,142.0
1239,F#2,236.0,0.25,100,142.0
1240,F#2,236.25,0.25,100,142.0
1241,G4,236.5,0.25,100,142.0
1242,D3,236.5,0.25,100,142.0
1243,F#2,236.5,0.25,100,142.0
1244,F#2,236.75,0.25,100,142.0
1245,A4,237.0,0.25,100,142.0
1246,D3,237.0,0.25,100,142.0
1247,C2,237.0,0.25,100,142.0
1248,F#2,237.0,0.25,100,142.0
1249,B-2,237.0,0.25,100,142.0
1250,F#2,237.25,0.25,100,142.0
1251,G4,237.5,0.25,100,142.0
1252,D3,237.5,0.25,100,142.0
1253,F#2,237.5,0.25,100,142.0
1254,F#2,237.75,0.25,100,142.0
1255,F#4,238.0,0.25,100,142.0
1256,D3,238.0,0.25,100,142.0
1257,C2,238.0,0.25,100,142.0
1258,F#2,238.0,0.25,100,142.0
1259,E-2,238.0,0.25,100,142.0
1260,F#2,238.25,0.25,100,142.0
1261,E4,238.5,0.25,100,142.0
1262,D3,238.5,0.25,100,142.0
1263,F#2,238.5,0.25,100,142.0
1264,C2,238.75,0.25,100,142.0
1265,F#2,238.75,0.25,100,142.0
1266,F#4,239.0,0.25,100,142.0
1267,D3,239.0,0.25,100,142.0
1268,F#2,239.0,0.25,100,142.0
1269,B-2,239.0,0.25,100,142.0
1270,F#2,239.25,0.25,100,142.0
1271,D4,239.5,0.25,100,142.0
1272,D3,239.5,0.25,100,142.0
1273,C2,239.5,0.25,100,142.0
1274,F#2,239.5,0.25,100,142.0
1275,F#2,239.75,0.25,100,142.0
1276,C#3,240.0,0.25,100,142.0
1277,C2,240.0,0.25,100,142.0
