,note_name,start_time,duration,velocity,tempo
0,C2,0.0,0.5,98,80.0
1,B5,0.25,0.125,98,80.0
2,E2,0.25,0.25,98,80.0
3,F#5,0.25,0.75,98,80.0
4,B4,0.25,0.75,98,80.0
5,F#4,0.25,0.75,98,80.0
6,E5,0.25,0.75,98,80.0
7,B5,0.5,0.125,98,80.0
8,E2,0.5,0.25,98,80.0
9,G#5,0.625,0.125,98,80.0
10,E-5,0.75,0.125,98,80.0
11,E2,0.75,0.25,98,80.0
12,B4,0.875,0.125,98,80.0
13,F#2,1.0,0.5,98,80.0
14,C2,1.0,0.5,98,80.0
15,B5,1.25,0.125,98,80.0
16,E2,1.25,0.25,98,80.0
17,B4,1.25,0.75,98,80.0
18,F#4,1.25,0.75,98,80.0
19,F#5,1.25,0.75,98,80.0
20,E5,1.25,0.75,98,80.0
21,B5,1.5,0.125,98,80.0
22,E2,1.5,0.25,98,80.0
23,G#5,1.625,0.125,98,80.0
24,E-5,1.75,0.125,98,80.0
25,E2,1.75,0.25,98,80.0
26,B4,1.875,0.125,98,80.0
27,C2,2.0,0.5,98,80.0
28,B5,2.25,0.125,98,80.0
29,E2,2.25,0.25,98,80.0
30,B4,2.25,0.75,98,80.0
31,F#4,2.25,0.75,98,80.0
32,F#5,2.25,0.75,98,80.0
33,E5,2.25,0.75,98,80.0
34,B5,2.5,0.125,98,80.0
35,E2,2.5,0.25,98,80.0
36,G#5,2.625,0.125,98,80.0
37,E-5,2.75,0.125,98,80.0
38,E2,2.75,0.25,98,80.0
39,B4,2.875,0.125,98,80.0
40,F#2,3.0,0.5,98,80.0
41,C2,3.0,0.5,98,80.0
42,B5,3.25,0.125,98,80.0
43,E2,3.25,0.25,98,80.0
44,B4,3.25,0.75,98,80.0
45,F#4,3.25,0.75,98,80.0
46,F#5,3.25,0.75,98,80.0
47,E5,3.25,0.75,98,80.0
48,B5,3.5,0.125,98,80.0
49,E2,3.5,0.25,98,80.0
50,G#5,3.625,0.125,98,80.0
51,E-5,3.75,0.125,98,80.0
52,E2,3.75,0.25,98,80.0
53,B4,3.875,0.125,98,80.0
54,C2,4.0,0.5,98,80.0
55,B5,4.25,0.125,98,80.0
56,E2,4.25,0.25,98,80.0
57,B4,4.25,0.75,98,80.0
58,F#4,4.25,0.75,98,80.0
59,F#5,4.25,0.75,98,80.0
60,E5,4.25,0.75,98,80.0
61,B5,4.5,0.125,98,80.0
62,E2,4.5,0.25,98,80.0
63,G#5,4.625,0.125,98,80.0
64,E-5,4.75,0.125,98,80.0
65,E2,4.75,0.25,98,80.0
66,B4,4.875,0.125,98,80.0
67,F#2,5.0,0.5,98,80.0
68,C2,5.0,0.5,98,80.0
69,B5,5.25,0.125,98,80.0
70,E2,5.25,0.25,98,80.0
71,B4,5.25,0.75,98,80.0
72,E5,5.25,0.75,98,80.0
73,F#5,5.25,0.75,98,80.0
74,F#4,5.25,0.75,98,80.0
75,B5,5.5,0.125,98,80.0
76,E2,5.5,0.25,98,80.0
77,G#5,5.625,0.125,98,80.0
78,E-5,5.75,0.125,98,80.0
79,E2,5.75,0.25,98,80.0
80,B4,5.875,0.125,98,80.0
81,C2,6.0,0.5,98,80.0
82,B5,6.25,0.125,98,80.0
83,E-2,6.25,0.25,98,80.0
84,F#5,6.25,0.75,98,80.0
85,E-5,6.25,0.75,98,80.0
86,E-4,6.25,0.75,98,80.0
87,B4,6.25,0.75,98,80.0
88,E-6,6.375,0.125,98,80.0
89,F#6,6.5,0.125,98,80.0
90,E-2,6.5,0.25,98,80.0
91,E-6,6.625,0.125,98,80.0
92,B5,6.75,0.125,98,80.0
93,E-2,6.75,0.25,98,80.0
94,B-5,6.875,0.125,98,80.0
95,F#2,7.0,0.5,98,80.0
96,C2,7.0,0.5,98,80.0
97,B5,7.25,0.125,98,80.0
98,E-2,7.25,0.25,98,80.0
99,F#5,7.25,0.75,98,80.0
100,E-5,7.25,0.75,98,80.0
101,E-4,7.25,0.75,98,80.0
102,B4,7.25,0.75,98,80.0
103,E-6,7.375,0.125,98,80.0
104,F#6,7.5,0.125,98,80.0
105,E-2,7.5,0.25,98,80.0
106,E-6,7.625,0.125,98,80.0
107,B5,7.75,0.125,98,80.0
108,E-2,7.75,0.25,98,80.0
109,B-5,7.875,0.125,98,80.0
110,C2,8.0,0.5,98,80.0
111,B5,8.25,0.125,98,80.0
112,G#2,8.25,0.25,98,80.0
113,G#4,8.25,0.75,98,80.0
114,B4,8.25,0.75,98,80.0
115,E-5,8.25,0.75,98,80.0
116,F#5,8.25,0.75,98,80.0
117,B5,8.5,0.125,98,80.0
118,G#2,8.5,0.25,98,80.0
119,G#5,8.625,0.125,98,80.0
120,E-5,8.75,0.125,98,80.0
121,G#2,8.75,0.25,98,80.0
122,B4,8.875,0.125,98,80.0
123,F#2,9.0,0.5,98,80.0
124,C2,9.0,0.5,98,80.0
125,B5,9.25,0.125,98,80.0
126,G#2,9.25,0.25,98,80.0
127,G#4,9.25,0.75,98,80.0
128,B4,9.25,0.75,98,80.0
129,E-5,9.25,0.75,98,80.0
130,F#5,9.25,0.75,98,80.0
131,B5,9.5,0.125,98,80.0
132,G#2,9.5,0.25,98,80.0
133,G#5,9.625,0.125,98,80.0
134,E-5,9.75,0.125,98,80.0
135,G#2,9.75,0.25,98,80.0
136,B4,9.875,0.125,98,80.0
137,C2,10.0,0.5,98,80.0
138,B5,10.25,0.125,98,80.0
139,G#2,10.25,0.25,98,80.0
140,G#4,10.25,0.75,98,80.0
141,B4,10.25,0.75,98,80.0
142,E-5,10.25,0.75,98,80.0
143,F#5,10.25,0.75,98,80.0
144,B5,10.5,0.125,98,80.0
145,G#2,10.5,0.25,98,80.0
146,G#5,10.625,0.125,98,80.0
147,E-5,10.75,0.125,98,80.0
148,G#2,10.75,0.25,98,80.0
149,B4,10.875,0.125,98,80.0
150,F#2,11.0,0.5,98,80.0
151,C2,11.0,0.5,98,80.0
152,B5,11.25,0.125,98,80.0
153,G#2,11.25,0.25,98,80.0
154,G#4,11.25,0.75,98,80.0
155,B4,11.25,0.75,98,80.0
156,E-5,11.25,0.75,98,80.0
157,F#5,11.25,0.75,98,80.0
158,B5,11.5,0.125,98,80.0
159,G#2,11.5,0.25,98,80.0
160,G#5,11.625,0.125,98,80.0
161,E-5,11.75,0.125,98,80.0
162,G#2,11.75,0.25,98,80.0
163,B4,11.875,0.125,98,80.0
164,C2,12.0,0.5,98,80.0
165,B5,12.25,0.125,98,80.0
166,G#2,12.25,0.25,98,80.0
167,G#4,12.25,0.75,98,80.0
168,B4,12.25,0.75,98,80.0
169,F#5,12.25,0.75,98,80.0
170,E-5,12.25,0.75,98,80.0
171,B5,12.5,0.125,98,80.0
172,G#2,12.5,0.25,98,80.0
173,G#5,12.625,0.125,98,80.0
174,E-5,12.75,0.125,98,80.0
175,G#2,12.75,0.25,98,80.0
176,B4,12.875,0.125,98,80.0
177,F#2,13.0,0.5,98,80.0
178,C2,13.0,0.5,98,80.0
179,B5,13.25,0.125,98,80.0
180,G#2,13.25,0.25,98,80.0
181,G#4,13.25,0.75,98,80.0
182,E-5,13.25,0.75,98,80.0
183,F#5,13.25,0.75,98,80.0
184,B4,13.25,0.75,98,80.0
185,B5,13.5,0.125,98,80.0
186,G#2,13.5,0.25,98,80.0
187,G#5,13.625,0.125,98,80.0
188,E-5,13.75,0.125,98,80.0
189,G#2,13.75,0.25,98,80.0
190,B4,13.875,0.125,98,80.0
191,C2,14.0,0.5,98,80.0
192,B5,14.25,0.125,98,80.0
193,F#2,14.25,0.25,98,80.0
194,F#4,14.25,0.75,98,80.0
195,B4,14.25,0.75,98,80.0
196,E-5,14.25,0.75,98,80.0
197,F#5,14.25,0.75,98,80.0
198,E-6,14.375,0.125,98,80.0
199,F#6,14.5,0.125,98,80.0
200,F#2,14.5,0.25,98,80.0
201,E-6,14.625,0.125,98,80.0
202,B5,14.75,0.125,98,80.0
203,F#2,14.75,0.25,98,80.0
204,B-5,14.875,0.125,98,80.0
205,F#2,15.0,0.5,98,80.0
206,C2,15.0,0.5,98,80.0
207,B5,15.25,0.125,98,80.0
208,F#2,15.25,0.25,98,80.0
209,E-5,15.25,0.75,98,80.0
210,B4,15.25,0.75,98,80.0
211,F#4,15.25,0.75,98,80.0
212,F#5,15.25,0.75,98,80.0
213,E-6,15.375,0.125,98,80.0
214,F#6,15.5,0.125,98,80.0
215,F#2,15.5,0.25,98,80.0
216,E-6,15.625,0.125,98,80.0
217,B5,15.75,0.125,98,80.0
218,F#2,15.75,0.25,98,80.0
219,B-5,15.875,0.125,98,80.0
220,C2,16.0,0.5,98,80.0
221,B5,16.25,0.125,98,80.0
222,E2,16.25,0.25,98,80.0
223,F#5,16.25,0.75,98,80.0
224,B4,16.25,0.75,98,80.0
225,F#4,16.25,0.75,98,80.0
226,E5,16.25,0.75,98,80.0
227,B5,16.5,0.125,98,80.0
228,E2,16.5,0.25,98,80.0
229,G#5,16.625,0.125,98,80.0
230,E-5,16.75,0.125,98,80.0
231,E2,16.75,0.25,98,80.0
232,B4,16.875,0.125,98,80.0
233,F#2,17.0,0.5,98,80.0
234,C2,17.0,0.5,98,80.0
235,B5,17.25,0.125,98,80.0
236,E2,17.25,0.25,98,80.0
237,B4,17.25,0.75,98,80.0
238,F#4,17.25,0.75,98,80.0
239,F#5,17.25,0.75,98,80.0
240,E5,17.25,0.75,98,80.0
241,B5,17.5,0.125,98,80.0
242,E2,17.5,0.25,98,80.0
243,G#5,17.625,0.125,98,80.0
244,E-5,17.75,0.125,98,80.0
245,E2,17.75,0.25,98,80.0
246,B4,17.875,0.125,98,80.0
247,C2,18.0,0.5,98,80.0
248,B5,18.25,0.125,98,80.0
249,E2,18.25,0.25,98,80.0
250,B4,18.25,0.75,98,80.0
251,F#4,18.25,0.75,98,80.0
252,F#5,18.25,0.75,98,80.0
253,E5,18.25,0.75,98,80.0
254,B5,18.5,0.125,98,80.0
255,E2,18.5,0.25,98,80.0
256,G#5,18.625,0.125,98,80.0
257,E-5,18.75,0.125,98,80.0
258,E2,18.75,0.25,98,80.0
259,B4,18.875,0.125,98,80.0
260,F#2,19.0,0.5,98,80.0
261,C2,19.0,0.5,98,80.0
262,B5,19.25,0.125,98,80.0
263,E2,19.25,0.25,98,80.0
264,B4,19.25,0.75,98,80.0
265,F#4,19.25,0.75,98,80.0
266,F#5,19.25,0.75,98,80.0
267,E5,19.25,0.75,98,80.0
268,B5,19.5,0.125,98,80.0
269,E2,19.5,0.25,98,80.0
270,G#5,19.625,0.125,98,80.0
271,E-5,19.75,0.125,98,80.0
272,E2,19.75,0.25,98,80.0
273,B4,19.875,0.125,98,80.0
274,C2,20.0,0.5,98,80.0
275,B5,20.25,0.125,98,80.0
276,E2,20.25,0.25,98,80.0
277,B4,20.25,0.75,98,80.0
278,F#4,20.25,0.75,98,80.0
279,F#5,20.25,0.75,98,80.0
280,E5,20.25,0.75,98,80.0
281,B5,20.5,0.125,98,80.0
282,E2,20.5,0.25,98,80.0
283,G#5,20.625,0.125,98,80.0
284,E-5,20.75,0.125,98,80.0
285,E2,20.75,0.25,98,80.0
286,B4,20.875,0.125,98,80.0
287,F#2,21.0,0.5,98,80.0
288,C2,21.0,0.5,98,80.0
289,B5,21.25,0.125,98,80.0
290,E2,21.25,0.25,98,80.0
291,B4,21.25,0.75,98,80.0
292,E5,21.25,0.75,98,80.0
293,F#5,21.25,0.75,98,80.0
294,F#4,21.25,0.75,98,80.0
295,B5,21.5,0.125,98,80.0
296,E2,21.5,0.25,98,80.0
297,G#5,21.625,0.125,98,80.0
298,E-5,21.75,0.125,98,80.0
299,E2,21.75,0.25,98,80.0
300,B4,21.875,0.125,98,80.0
301,C2,22.0,0.5,98,80.0
302,B5,22.25,0.125,98,80.0
303,E-2,22.25,0.25,98,80.0
304,F#5,22.25,0.75,98,80.0
305,E-5,22.25,0.75,98,80.0
306,E-4,22.25,0.75,98,80.0
307,B4,22.25,0.75,98,80.0
308,E-6,22.375,0.125,98,80.0
309,F#6,22.5,0.125,98,80.0
310,E-2,22.5,0.25,98,80.0
311,E-6,22.625,0.125,98,80.0
312,B5,22.75,0.125,98,80.0
313,E-2,22.75,0.25,98,80.0
314,B-5,22.875,0.125,98,80.0
315,F#2,23.0,0.5,98,80.0
316,C2,23.0,0.5,98,80.0
317,B5,23.25,0.125,98,80.0
318,E-2,23.25,0.25,98,80.0
319,F#5,23.25,0.75,98,80.0
320,E-5,23.25,0.75,98,80.0
321,E-4,23.25,0.75,98,80.0
322,B4,23.25,0.75,98,80.0
323,E-6,23.375,0.125,98,80.0
324,F#6,23.5,0.125,98,80.0
325,E-2,23.5,0.25,98,80.0
326,E-6,23.625,0.125,98,80.0
327,B5,23.75,0.125,98,80.0
328,E-2,23.75,0.25,98,80.0
329,B-5,23.875,0.125,98,80.0
330,C2,24.0,0.5,98,80.0
331,B5,24.25,0.125,98,80.0
332,G#2,24.25,0.25,98,80.0
333,G#4,24.25,0.75,98,80.0
334,B4,24.25,0.75,98,80.0
335,E-5,24.25,0.75,98,80.0
336,F#5,24.25,0.75,98,80.0
337,B5,24.5,0.125,98,80.0
338,G#2,24.5,0.25,98,80.0
339,G#5,24.625,0.125,98,80.0
340,E-5,24.75,0.125,98,80.0
341,G#2,24.75,0.25,98,80.0
342,B4,24.875,0.125,98,80.0
343,F#2,25.0,0.5,98,80.0
344,C2,25.0,0.5,98,80.0
345,B5,25.25,0.125,98,80.0
346,G#2,25.25,0.25,98,80.0
347,G#4,25.25,0.75,98,80.0
348,B4,25.25,0.75,98,80.0
349,E-5,25.25,0.75,98,80.0
350,F#5,25.25,0.75,98,80.0
351,B5,25.5,0.125,98,80.0
352,G#2,25.5,0.25,98,80.0
353,G#5,25.625,0.125,98,80.0
354,E-5,25.75,0.125,98,80.0
355,G#2,25.75,0.25,98,80.0
356,B4,25.875,0.125,98,80.0
357,C2,26.0,0.5,98,80.0
358,B5,26.25,0.125,98,80.0
359,G#2,26.25,0.25,98,80.0
360,G#4,26.25,0.75,98,80.0
361,B4,26.25,0.75,98,80.0
362,E-5,26.25,0.75,98,80.0
363,F#5,26.25,0.75,98,80.0
364,B5,26.5,0.125,98,80.0
365,G#2,26.5,0.25,98,80.0
366,G#5,26.625,0.125,98,80.0
367,E-5,26.75,0.125,98,80.0
368,G#2,26.75,0.25,98,80.0
369,B4,26.875,0.125,98,80.0
370,F#2,27.0,0.5,98,80.0
371,C2,27.0,0.5,98,80.0
372,B5,27.25,0.125,98,80.0
373,G#2,27.25,0.25,98,80.0
374,G#4,27.25,0.75,98,80.0
375,B4,27.25,0.75,98,80.0
376,E-5,27.25,0.75,98,80.0
377,F#5,27.25,0.75,98,80.0
378,B5,27.5,0.125,98,80.0
379,G#2,27.5,0.25,98,80.0
380,G#5,27.625,0.125,98,80.0
381,E-5,27.75,0.125,98,80.0
382,G#2,27.75,0.25,98,80.0
383,B4,27.875,0.125,98,80.0
384,C2,28.0,0.5,98,80.0
385,B5,28.25,0.125,98,80.0
386,G#2,28.25,0.25,98,80.0
387,G#4,28.25,0.75,98,80.0
388,B4,28.25,0.75,98,80.0
389,F#5,28.25,0.75,98,80.0
390,E-5,28.25,0.75,98,80.0
391,B5,28.5,0.125,98,80.0
392,G#2,28.5,0.25,98,80.0
393,G#5,28.625,0.125,98,80.0
394,E-5,28.75,0.125,98,80.0
395,G#2,28.75,0.25,98,80.0
396,B4,28.875,0.125,98,80.0
397,F#2,29.0,0.5,98,80.0
398,B5,29.25,0.125,98,80.0
399,G#2,29.25,0.25,98,80.0
400,G#4,29.25,0.75,98,80.0
401,E-5,29.25,0.75,98,80.0
402,F#5,29.25,0.75,98,80.0
403,B4,29.25,0.75,98,80.0
404,B5,29.5,0.125,98,80.0
405,G#2,29.5,0.25,98,80.0
406,G#5,29.625,0.125,98,80.0
407,E-5,29.75,0.125,98,80.0
408,G#2,29.75,0.25,98,80.0
409,B4,29.875,0.125,98,80.0
410,B5,30.25,0.125,98,80.0
411,F#2,30.25,0.25,98,80.0
412,F#4,30.25,0.75,98,80.0
413,B4,30.25,0.75,98,80.0
414,E-5,30.25,0.75,98,80.0
415,F#5,30.25,0.75,98,80.0
416,E-6,30.375,0.125,98,80.0
417,F#6,30.5,0.125,98,80.0
418,F#2,30.5,0.25,98,80.0
419,E-6,30.625,0.125,98,80.0
420,B5,30.75,0.125,98,80.0
421,F#2,30.75,0.25,98,80.0
422,B-5,30.875,0.125,98,80.0
423,F#2,31.0,0.5,98,80.0
424,B5,31.25,0.125,98,80.0
425,F#2,31.25,0.25,98,80.0
426,E-5,31.25,0.75,98,80.0
427,B4,31.25,0.75,98,80.0
428,F#4,31.25,0.75,98,80.0
429,F#5,31.25,0.75,98,80.0
430,E-6,31.375,0.125,98,80.0
431,F#6,31.5,0.125,98,80.0
432,F#2,31.5,0.25,98,80.0
433,E-6,31.625,0.125,98,80.0
434,B5,31.75,0.125,98,80.0
435,F#2,31.75,0.25,98,80.0
436,B-5,31.875,0.125,98,80.0
437,C2,32.0,0.5,98,80.0
438,B5,32.25,0.125,98,80.0
439,E2,32.25,0.25,98,80.0
440,F#5,32.25,0.75,98,80.0
441,B4,32.25,0.75,98,80.0
442,F#4,32.25,0.75,98,80.0
443,E5,32.25,0.75,98,80.0
444,B5,32.5,0.125,98,80.0
445,E2,32.5,0.25,98,80.0
446,G#5,32.625,0.125,98,80.0
447,E-5,32.75,0.125,98,80.0
448,E2,32.75,0.25,98,80.0
449,B4,32.875,0.125,98,80.0
450,E-2,33.0,0.5,98,80.0
451,C2,33.0,0.5,98,80.0
452,B5,33.25,0.125,98,80.0
453,E2,33.25,0.25,98,80.0
454,B4,33.25,0.75,98,80.0
455,F#4,33.25,0.75,98,80.0
456,F#5,33.25,0.75,98,80.0
457,E5,33.25,0.75,98,80.0
458,B5,33.5,0.125,98,80.0
459,E2,33.5,0.25,98,80.0
460,G#5,33.625,0.125,98,80.0
461,E-5,33.75,0.125,98,80.0
462,E2,33.75,0.25,98,80.0
463,B4,33.875,0.125,98,80.0
464,C2,34.0,0.5,98,80.0
465,B5,34.25,0.125,98,80.0
466,E2,34.25,0.25,98,80.0
467,B4,34.25,0.75,98,80.0
468,F#4,34.25,0.75,98,80.0
469,F#5,34.25,0.75,98,80.0
470,E5,34.25,0.75,98,80.0
471,B5,34.5,0.125,98,80.0
472,E2,34.5,0.25,98,80.0
473,G#5,34.625,0.125,98,80.0
474,E-5,34.75,0.125,98,80.0
475,E2,34.75,0.25,98,80.0
476,B4,34.875,0.125,98,80.0
477,C2,35.0,0.5,98,80.0
478,E-2,35.0,0.5,98,80.0
479,B5,35.25,0.125,98,80.0
480,E2,35.25,0.25,98,80.0
481,B4,35.25,0.75,98,80.0
482,F#4,35.25,0.75,98,80.0
483,F#5,35.25,0.75,98,80.0
484,E5,35.25,0.75,98,80.0
485,B5,35.5,0.125,98,80.0
486,E2,35.5,0.25,98,80.0
487,G#5,35.625,0.125,98,80.0
488,E-5,35.75,0.125,98,80.0
489,E2,35.75,0.25,98,80.0
490,B4,35.875,0.125,98,80.0
491,C2,36.0,0.5,98,80.0
492,B5,36.25,0.125,98,80.0
493,E2,36.25,0.25,98,80.0
494,B4,36.25,0.75,98,80.0
495,F#4,36.25,0.75,98,80.0
496,F#5,36.25,0.75,98,80.0
497,E5,36.25,0.75,98,80.0
498,B5,36.5,0.125,98,80.0
499,E2,36.5,0.25,98,80.0
500,G#5,36.625,0.125,98,80.0
501,E-5,36.75,0.125,98,80.0
502,E2,36.75,0.25,98,80.0
503,B4,36.875,0.125,98,80.0
504,E-2,37.0,0.5,98,80.0
505,C2,37.0,0.5,98,80.0
506,B5,37.25,0.125,98,80.0
507,E2,37.25,0.25,98,80.0
508,B4,37.25,0.75,98,80.0
509,E5,37.25,0.75,98,80.0
510,F#5,37.25,0.75,98,80.0
511,F#4,37.25,0.75,98,80.0
512,B5,37.5,0.125,98,80.0
513,E2,37.5,0.25,98,80.0
514,G#5,37.625,0.125,98,80.0
515,E-5,37.75,0.125,98,80.0
516,E2,37.75,0.25,98,80.0
517,B4,37.875,0.125,98,80.0
518,C2,38.0,0.5,98,80.0
519,B5,38.25,0.125,98,80.0
520,E-2,38.25,0.25,98,80.0
521,F#5,38.25,0.75,98,80.0
522,E-5,38.25,0.75,98,80.0
523,E-4,38.25,0.75,98,80.0
524,B4,38.25,0.75,98,80.0
525,E-6,38.375,0.125,98,80.0
526,F#6,38.5,0.125,98,80.0
527,E-2,38.5,0.25,98,80.0
528,E-6,38.625,0.125,98,80.0
529,B5,38.75,0.125,98,80.0
530,E-2,38.75,0.25,98,80.0
531,B-5,38.875,0.125,98,80.0
532,C2,39.0,0.5,98,80.0
533,E-2,39.0,0.5,98,80.0
534,B5,39.25,0.125,98,80.0
535,E-2,39.25,0.25,98,80.0
536,F#5,39.25,0.75,98,80.0
537,E-5,39.25,0.75,98,80.0
538,E-4,39.25,0.75,98,80.0
539,B4,39.25,0.75,98,80.0
540,E-6,39.375,0.125,98,80.0
541,F#6,39.5,0.125,98,80.0
542,E-2,39.5,0.25,98,80.0
543,E-6,39.625,0.125,98,80.0
544,B5,39.75,0.125,98,80.0
545,E-2,39.75,0.25,98,80.0
546,B-5,39.875,0.125,98,80.0
547,C2,40.0,0.5,98,80.0
548,B5,40.25,0.125,98,80.0
549,G#2,40.25,0.25,98,80.0
550,G#4,40.25,0.75,98,80.0
551,B4,40.25,0.75,98,80.0
552,E-5,40.25,0.75,98,80.0
553,F#5,40.25,0.75,98,80.0
554,B5,40.5,0.125,98,80.0
555,G#2,40.5,0.25,98,80.0
556,G#5,40.625,0.125,98,80.0
557,E-5,40.75,0.125,98,80.0
558,G#2,40.75,0.25,98,80.0
559,B4,40.875,0.125,98,80.0
560,E-2,41.0,0.5,98,80.0
561,C2,41.0,0.5,98,80.0
562,B5,41.25,0.125,98,80.0
563,G#2,41.25,0.25,98,80.0
564,G#4,41.25,0.75,98,80.0
565,B4,41.25,0.75,98,80.0
566,E-5,41.25,0.75,98,80.0
567,F#5,41.25,0.75,98,80.0
568,B5,41.5,0.125,98,80.0
569,G#2,41.5,0.25,98,80.0
570,G#5,41.625,0.125,98,80.0
571,E-5,41.75,0.125,98,80.0
572,G#2,41.75,0.25,98,80.0
573,B4,41.875,0.125,98,80.0
574,C2,42.0,0.5,98,80.0
575,B5,42.25,0.125,98,80.0
576,G#2,42.25,0.25,98,80.0
577,G#4,42.25,0.75,98,80.0
578,B4,42.25,0.75,98,80.0
579,E-5,42.25,0.75,98,80.0
580,F#5,42.25,0.75,98,80.0
581,B5,42.5,0.125,98,80.0
582,G#2,42.5,0.25,98,80.0
583,G#5,42.625,0.125,98,80.0
584,E-5,42.75,0.125,98,80.0
585,G#2,42.75,0.25,98,80.0
586,B4,42.875,0.125,98,80.0
587,C2,43.0,0.5,98,80.0
588,E-2,43.0,0.5,98,80.0
589,B5,43.25,0.125,98,80.0
590,G#2,43.25,0.25,98,80.0
591,G#4,43.25,0.75,98,80.0
592,B4,43.25,0.75,98,80.0
593,E-5,43.25,0.75,98,80.0
594,F#5,43.25,0.75,98,80.0
595,B5,43.5,0.125,98,80.0
596,G#2,43.5,0.25,98,80.0
597,G#5,43.625,0.125,98,80.0
598,E-5,43.75,0.125,98,80.0
599,G#2,43.75,0.25,98,80.0
600,B4,43.875,0.125,98,80.0
601,C2,44.0,0.5,98,80.0
602,B5,44.25,0.125,98,80.0
603,G#2,44.25,0.25,98,80.0
604,G#4,44.25,0.75,98,80.0
605,B4,44.25,0.75,98,80.0
606,F#5,44.25,0.75,98,80.0
607,E-5,44.25,0.75,98,80.0
608,B5,44.5,0.125,98,80.0
609,G#2,44.5,0.25,98,80.0
610,G#5,44.625,0.125,98,80.0
611,E-5,44.75,0.125,98,80.0
612,G#2,44.75,0.25,98,80.0
613,B4,44.875,0.125,98,80.0
614,E-2,45.0,0.5,98,80.0
615,C2,45.0,0.5,98,80.0
616,B5,45.25,0.125,98,80.0
617,G#2,45.25,0.25,98,80.0
618,G#4,45.25,0.75,98,80.0
619,E-5,45.25,0.75,98,80.0
620,F#5,45.25,0.75,98,80.0
621,B4,45.25,0.75,98,80.0
622,B5,45.5,0.125,98,80.0
623,G#2,45.5,0.25,98,80.0
624,G#5,45.625,0.125,98,80.0
625,E-5,45.75,0.125,98,80.0
626,G#2,45.75,0.25,98,80.0
627,B4,45.875,0.125,98,80.0
628,C2,46.0,0.5,98,80.0
629,B5,46.25,0.125,98,80.0
630,F#2,46.25,0.25,98,80.0
631,F#4,46.25,0.75,98,80.0
632,B4,46.25,0.75,98,80.0
633,E-5,46.25,0.75,98,80.0
634,F#5,46.25,0.75,98,80.0
635,E-6,46.375,0.125,98,80.0
636,F#6,46.5,0.125,98,80.0
637,F#2,46.5,0.25,98,80.0
638,E-6,46.625,0.125,98,80.0
639,B5,46.75,0.125,98,80.0
640,F#2,46.75,0.25,98,80.0
641,B-5,46.875,0.125,98,80.0
642,C2,47.0,0.5,98,80.0
643,E-2,47.0,0.5,98,80.0
644,B5,47.25,0.125,98,80.0
645,F#2,47.25,0.25,98,80.0
646,E-5,47.25,0.75,98,80.0
647,B4,47.25,0.75,98,80.0
648,F#4,47.25,0.75,98,80.0
649,F#5,47.25,0.75,98,80.0
650,E-6,47.375,0.125,98,80.0
651,F#6,47.5,0.125,98,80.0
652,F#2,47.5,0.25,98,80.0
653,E-6,47.625,0.125,98,80.0
654,B5,47.75,0.125,98,80.0
655,F#2,47.75,0.25,98,80.0
656,B-5,47.875,0.125,98,80.0
657,C2,48.0,0.5,98,80.0
658,B5,48.25,0.125,98,80.0
659,E2,48.25,0.25,98,80.0
660,F#5,48.25,0.75,98,80.0
661,B4,48.25,0.75,98,80.0
662,F#4,48.25,0.75,98,80.0
663,E5,48.25,0.75,98,80.0
664,B5,48.5,0.125,98,80.0
665,E2,48.5,0.25,98,80.0
666,G#5,48.625,0.125,98,80.0
667,E-5,48.75,0.125,98,80.0
668,E2,48.75,0.25,98,80.0
669,B4,48.875,0.125,98,80.0
670,E-2,49.0,0.5,98,80.0
671,C2,49.0,0.5,98,80.0
672,B5,49.25,0.125,98,80.0
673,E2,49.25,0.25,98,80.0
674,B4,49.25,0.75,98,80.0
675,F#4,49.25,0.75,98,80.0
676,F#5,49.25,0.75,98,80.0
677,E5,49.25,0.75,98,80.0
678,B5,49.5,0.125,98,80.0
679,E2,49.5,0.25,98,80.0
680,G#5,49.625,0.125,98,80.0
681,E-5,49.75,0.125,98,80.0
682,E2,49.75,0.25,98,80.0
683,B4,49.875,0.125,98,80.0
684,C2,50.0,0.5,98,80.0
685,B5,50.25,0.125,98,80.0
686,E2,50.25,0.25,98,80.0
687,B4,50.25,0.75,98,80.0
688,F#4,50.25,0.75,98,80.0
689,F#5,50.25,0.75,98,80.0
690,E5,50.25,0.75,98,80.0
691,B5,50.5,0.125,98,80.0
692,E2,50.5,0.25,98,80.0
693,G#5,50.625,0.125,98,80.0
694,E-5,50.75,0.125,98,80.0
695,E2,50.75,0.25,98,80.0
696,B4,50.875,0.125,98,80.0
697,C2,51.0,0.5,98,80.0
698,E-2,51.0,0.5,98,80.0
699,B5,51.25,0.125,98,80.0
700,E2,51.25,0.25,98,80.0
701,B4,51.25,0.75,98,80.0
702,F#4,51.25,0.75,98,80.0
703,F#5,51.25,0.75,98,80.0
704,E5,51.25,0.75,98,80.0
705,B5,51.5,0.125,98,80.0
706,E2,51.5,0.25,98,80.0
707,G#5,51.625,0.125,98,80.0
708,E-5,51.75,0.125,98,80.0
709,E2,51.75,0.25,98,80.0
710,B4,51.875,0.125,98,80.0
711,C2,52.0,0.5,98,80.0
712,B5,52.25,0.125,98,80.0
713,E2,52.25,0.25,98,80.0
714,B4,52.25,0.75,98,80.0
715,F#4,52.25,0.75,98,80.0
716,F#5,52.25,0.75,98,80.0
717,E5,52.25,0.75,98,80.0
718,B5,52.5,0.125,98,80.0
719,E2,52.5,0.25,98,80.0
720,G#5,52.625,0.125,98,80.0
721,E-5,52.75,0.125,98,80.0
722,E2,52.75,0.25,98,80.0
723,B4,52.875,0.125,98,80.0
724,E-2,53.0,0.5,98,80.0
725,C2,53.0,0.5,98,80.0
726,B5,53.25,0.125,98,80.0
727,E2,53.25,0.25,98,80.0
728,B4,53.25,0.75,98,80.0
729,E5,53.25,0.75,98,80.0
730,F#5,53.25,0.75,98,80.0
731,F#4,53.25,0.75,98,80.0
732,B5,53.5,0.125,98,80.0
733,E2,53.5,0.25,98,80.0
734,G#5,53.625,0.125,98,80.0
735,E-5,53.75,0.125,98,80.0
736,E2,53.75,0.25,98,80.0
737,B4,53.875,0.125,98,80.0
738,C2,54.0,0.5,98,80.0
739,B5,54.25,0.125,98,80.0
740,E-2,54.25,0.25,98,80.0
741,F#5,54.25,0.75,98,80.0
742,E-5,54.25,0.75,98,80.0
743,E-4,54.25,0.75,98,80.0
744,B4,54.25,0.75,98,80.0
745,E-6,54.375,0.125,98,80.0
746,F#6,54.5,0.125,98,80.0
747,E-2,54.5,0.25,98,80.0
748,E-6,54.625,0.125,98,80.0
749,B5,54.75,0.125,98,80.0
750,E-2,54.75,0.25,98,80.0
751,B-5,54.875,0.125,98,80.0
752,C2,55.0,0.5,98,80.0
753,E-2,55.0,0.5,98,80.0
754,B5,55.25,0.125,98,80.0
755,E-2,55.25,0.25,98,80.0
756,F#5,55.25,0.75,98,80.0
757,E-5,55.25,0.75,98,80.0
758,E-4,55.25,0.75,98,80.0
759,B4,55.25,0.75,98,80.0
760,E-6,55.375,0.125,98,80.0
761,F#6,55.5,0.125,98,80.0
762,E-2,55.5,0.25,98,80.0
763,E-6,55.625,0.125,98,80.0
764,B5,55.75,0.125,98,80.0
765,E-2,55.75,0.25,98,80.0
766,B-5,55.875,0.125,98,80.0
767,C2,56.0,0.5,98,80.0
768,B5,56.25,0.125,98,80.0
769,G#2,56.25,0.25,98,80.0
770,G#4,56.25,0.75,98,80.0
771,B4,56.25,0.75,98,80.0
772,E-5,56.25,0.75,98,80.0
773,F#5,56.25,0.75,98,80.0
774,B5,56.5,0.125,98,80.0
775,G#2,56.5,0.25,98,80.0
776,G#5,56.625,0.125,98,80.0
777,E-5,56.75,0.125,98,80.0
778,G#2,56.75,0.25,98,80.0
779,B4,56.875,0.125,98,80.0
780,E-2,57.0,0.5,98,80.0
781,C2,57.0,0.5,98,80.0
782,B5,57.25,0.125,98,80.0
783,G#2,57.25,0.25,98,80.0
784,G#4,57.25,0.75,98,80.0
785,B4,57.25,0.75,98,80.0
786,E-5,57.25,0.75,98,80.0
787,F#5,57.25,0.75,98,80.0
788,B5,57.5,0.125,98,80.0
789,G#2,57.5,0.25,98,80.0
790,G#5,57.625,0.125,98,80.0
791,E-5,57.75,0.125,98,80.0
792,G#2,57.75,0.25,98,80.0
793,B4,57.875,0.125,98,80.0
794,C2,58.0,0.5,98,80.0
795,B5,58.25,0.125,98,80.0
796,G#2,58.25,0.25,98,80.0
797,G#4,58.25,0.75,98,80.0
798,B4,58.25,0.75,98,80.0
799,E-5,58.25,0.75,98,80.0
800,F#5,58.25,0.75,98,80.0
801,B5,58.5,0.125,98,80.0
802,G#2,58.5,0.25,98,80.0
803,G#5,58.625,0.125,98,80.0
804,E-5,58.75,0.125,98,80.0
805,G#2,58.75,0.25,98,80.0
806,B4,58.875,0.125,98,80.0
807,C2,59.0,0.5,98,80.0
808,E-2,59.0,0.5,98,80.0
809,B5,59.25,0.125,98,80.0
810,G#2,59.25,0.25,98,80.0
811,G#4,59.25,0.75,98,80.0
812,B4,59.25,0.75,98,80.0
813,E-5,59.25,0.75,98,80.0
814,F#5,59.25,0.75,98,80.0
815,B5,59.5,0.125,98,80.0
816,G#2,59.5,0.25,98,80.0
817,G#5,59.625,0.125,98,80.0
818,E-5,59.75,0.125,98,80.0
819,G#2,59.75,0.25,98,80.0
820,B4,59.875,0.125,98,80.0
821,C2,60.0,0.5,98,80.0
822,B5,60.25,0.125,98,80.0
823,G#2,60.25,0.25,98,80.0
824,G#4,60.25,0.75,98,80.0
825,B4,60.25,0.75,98,80.0
826,F#5,60.25,0.75,98,80.0
827,E-5,60.25,0.75,98,80.0
828,B5,60.5,0.125,98,80.0
829,G#2,60.5,0.25,98,80.0
830,G#5,60.625,0.125,98,80.0
831,E-5,60.75,0.125,98,80.0
832,G#2,60.75,0.25,98,80.0
833,B4,60.875,0.125,98,80.0
834,E-2,61.0,0.5,98,80.0
835,C2,61.0,0.5,98,80.0
836,B5,61.25,0.125,98,80.0
837,G#2,61.25,0.25,98,80.0
838,G#4,61.25,0.75,98,80.0
839,E-5,61.25,0.75,98,80.0
840,F#5,61.25,0.75,98,80.0
841,B4,61.25,0.75,98,80.0
842,B5,61.5,0.125,98,80.0
843,G#2,61.5,0.25,98,80.0
844,G#5,61.625,0.125,98,80.0
845,E-5,61.75,0.125,98,80.0
846,G#2,61.75,0.25,98,80.0
847,B4,61.875,0.125,98,80.0
848,C2,62.0,0.5,98,80.0
849,B5,62.25,0.125,98,80.0
850,F#2,62.25,0.25,98,80.0
851,F#4,62.25,0.75,98,80.0
852,B4,62.25,0.75,98,80.0
853,E-5,62.25,0.75,98,80.0
854,F#5,62.25,0.75,98,80.0
855,E-6,62.375,0.125,98,80.0
856,F#6,62.5,0.125,98,80.0
857,F#2,62.5,0.25,98,80.0
858,E-6,62.625,0.125,98,80.0
859,B5,62.75,0.125,98,80.0
860,F#2,62.75,0.25,98,80.0
861,B-5,62.875,0.125,98,80.0
862,C2,63.0,0.5,98,80.0
863,E-2,63.0,0.5,98,80.0
864,B5,63.25,0.125,98,80.0
865,F#2,63.25,0.25,98,80.0
866,E-5,63.25,0.75,98,80.0
867,B4,63.25,0.75,98,80.0
868,F#4,63.25,0.75,98,80.0
869,F#5,63.25,0.75,98,80.0
870,E-6,63.375,0.125,98,80.0
871,F#6,63.5,0.125,98,80.0
872,F#2,63.5,0.25,98,80.0
873,E-6,63.625,0.125,98,80.0
874,B5,63.75,0.125,98,80.0
875,F#2,63.75,0.25,98,80.0
876,B-5,63.875,0.125,98,80.0
877,C#3,64.0,0.75,98,80.0
878,C2,64.0,0.75,98,80.0
