,note_name,start_time,duration,velocity,tempo
0,E-4,2.5,0.25,80,174.0
1,F#4,3.0,0.25,80,174.0
2,G#4,3.5,0.25,80,174.0
3,A4,4.0,0.75,80,174.0
4,C2,4.0,1.0,80,174.0
5,F#2,4.5,0.25,80,174.0
6,E-4,5.0,0.75,80,174.0
7,D2,5.0,1.0,80,174.0
8,C2,5.0,1.0,80,174.0
9,F#2,5.5,0.25,80,174.0
10,E-4,6.0,0.25,78,174.0
11,E-2,6.0,2.0,80,174.0
12,E-4,6.5,0.25,78,174.0
13,C2,6.5,0.5,80,174.0
14,F#2,6.5,0.25,80,174.0
15,E-4,7.0,0.25,78,174.0
16,C2,7.0,1.0,80,174.0
17,D2,7.0,1.0,80,174.0
18,E-4,7.5,0.25,78,174.0
19,F#2,7.5,0.25,80,174.0
20,E-4,8.0,0.25,78,174.0
21,E-2,8.0,3.0,80,174.0
22,C2,8.0,1.0,80,174.0
23,E-4,8.5,0.25,78,174.0
24,F#2,8.5,0.25,80,174.0
25,E-4,9.0,0.25,78,174.0
26,D2,9.0,1.0,80,174.0
27,C2,9.0,1.0,80,174.0
28,E-4,9.5,0.25,78,174.0
29,F#2,9.5,0.25,80,174.0
30,E-4,10.0,0.25,78,174.0
31,E-3,10.5,0.25,80,174.0
32,F#2,10.5,0.25,80,174.0
33,C2,10.5,0.5,80,174.0
34,F#3,11.0,0.25,80,174.0
35,F#2,11.0,1.0,80,174.0
36,D2,11.0,1.0,80,174.0
37,C2,11.0,1.0,80,174.0
38,G#3,11.5,0.25,80,174.0
39,F#2,11.5,0.25,80,174.0
40,A3,12.0,0.75,80,174.0
41,A2,12.0,1.0,80,174.0
42,C2,12.0,1.0,80,174.0
43,F#2,12.5,0.25,80,174.0
44,E-3,13.0,0.75,80,174.0
45,E-2,13.0,3.0,80,174.0
46,C2,13.0,1.0,80,174.0
47,D2,13.0,1.0,80,174.0
48,F#2,13.5,0.25,80,174.0
49,E-4,14.0,0.25,78,174.0
50,E-4,14.5,0.25,78,174.0
51,F#2,14.5,0.25,80,174.0
52,C2,14.5,0.5,80,174.0
53,E-4,15.0,0.25,78,174.0
54,C2,15.0,1.0,80,174.0
55,D2,15.0,1.0,80,174.0
56,E-4,15.5,0.25,78,174.0
57,F#2,15.5,0.25,80,174.0
58,E-4,16.0,0.25,78,174.0
59,E-2,16.0,4.0,80,174.0
60,C2,16.0,1.0,80,174.0
61,E-4,16.5,0.25,78,174.0
62,F#2,16.5,0.25,80,174.0
63,E-4,17.0,0.25,78,174.0
64,D2,17.0,1.0,80,174.0
65,C2,17.0,1.0,80,174.0
66,E-4,17.5,0.25,78,174.0
67,F#2,17.5,0.25,80,174.0
68,E-4,18.0,0.25,78,174.0
69,E-4,18.5,0.25,80,174.0
70,F#2,18.5,0.25,80,174.0
71,C2,18.5,0.5,80,174.0
72,F#4,19.0,0.25,80,174.0
73,D2,19.0,1.0,80,174.0
74,C2,19.0,1.0,80,174.0
75,G#4,19.5,0.25,80,174.0
76,F#2,19.5,0.25,80,174.0
77,A4,20.0,0.75,80,174.0
78,E-2,20.0,2.0,80,174.0
79,C2,20.0,1.0,80,174.0
80,F#2,20.5,0.25,80,174.0
81,E-4,21.0,0.75,80,174.0
82,D2,21.0,1.0,80,174.0
83,C2,21.0,1.0,80,174.0
84,F#2,21.5,0.25,80,174.0
85,E-4,22.0,0.25,78,174.0
86,E-2,22.0,2.0,80,174.0
87,E-4,22.5,0.25,78,174.0
88,F#2,22.5,0.25,80,174.0
89,C2,22.5,0.5,80,174.0
90,E-4,23.0,0.25,78,174.0
91,D2,23.0,1.0,80,174.0
92,C2,23.0,1.0,80,174.0
93,E-4,23.5,0.25,78,174.0
94,F#2,23.5,0.25,80,174.0
95,E-4,24.0,0.25,78,174.0
96,E-2,24.0,3.0,80,174.0
97,C2,24.0,1.0,80,174.0
98,E-4,24.5,0.25,78,174.0
99,F#2,24.5,0.25,80,174.0
100,E-4,25.0,0.25,78,174.0
101,C2,25.0,1.0,80,174.0
102,D2,25.0,1.0,80,174.0
103,E-4,25.5,0.25,78,174.0
104,F#2,25.5,0.25,80,174.0
105,E-4,26.0,0.25,78,174.0
106,E-3,26.5,0.25,80,174.0
107,F#2,26.5,0.25,80,174.0
108,C2,26.5,0.5,80,174.0
109,F#3,27.0,0.25,80,174.0
110,F#2,27.0,1.0,80,174.0
111,D2,27.0,1.0,80,174.0
112,C2,27.0,1.0,80,174.0
113,G#3,27.5,0.25,80,174.0
114,F#2,27.5,0.25,80,174.0
115,A3,28.0,0.75,80,174.0
116,A2,28.0,1.0,80,174.0
117,C2,28.0,1.0,80,174.0
118,F#2,28.5,0.25,80,174.0
119,E-3,29.0,0.75,80,174.0
120,E-2,29.0,3.0,80,174.0
121,C2,29.0,1.0,80,174.0
122,D2,29.0,1.0,80,174.0
123,F#2,29.5,0.25,80,174.0
124,E-4,30.0,0.25,78,174.0
125,D2,30.0,0.25,80,174.0
126,E-4,30.5,0.25,78,174.0
127,C2,30.5,0.5,80,174.0
128,D2,30.5,0.25,80,174.0
129,F#2,30.5,0.25,80,174.0
130,E-4,31.0,0.25,78,174.0
131,D2,31.0,0.25,80,174.0
132,C2,31.0,1.0,80,174.0
133,E-4,31.5,0.25,78,174.0
134,D2,31.5,0.25,80,174.0
135,F#2,31.5,0.25,80,174.0
136,C2,32.0,1.0,80,174.0
137,A4,33.0,1.0,80,174.0
138,G#4,34.0,0.25,80,174.0
139,F#4,34.5,0.25,80,174.0
140,E-4,35.0,0.5,80,174.0
141,C#4,35.5,0.25,80,174.0
142,A4,36.0,0.75,80,174.0
143,C2,36.0,1.0,80,174.0
144,F#2,36.5,0.25,80,174.0
145,E-4,37.0,0.75,80,174.0
146,C2,37.0,1.0,80,174.0
147,D2,37.0,1.0,80,174.0
148,F#2,37.5,0.25,80,174.0
149,E-4,38.0,0.25,78,174.0
150,E-2,38.0,2.0,80,174.0
151,E-4,38.5,0.25,78,174.0
152,C2,38.5,0.5,80,174.0
153,F#2,38.5,0.25,80,174.0
154,E-4,39.0,0.25,78,174.0
155,D2,39.0,1.0,80,174.0
156,C2,39.0,1.0,80,174.0
157,E-4,39.5,0.25,78,174.0
158,F#2,39.5,0.25,80,174.0
159,E-4,40.0,0.25,78,174.0
160,E-2,40.0,3.0,80,174.0
161,C2,40.0,1.0,80,174.0
162,E-4,40.5,0.25,78,174.0
163,F#2,40.5,0.25,80,174.0
164,E-4,41.0,0.25,78,174.0
165,D2,41.0,1.0,80,174.0
166,C2,41.0,1.0,80,174.0
167,E-4,41.5,0.25,78,174.0
168,F#2,41.5,0.25,80,174.0
169,E-4,42.0,0.25,78,174.0
170,E-3,42.5,0.25,80,174.0
171,C2,42.5,0.5,80,174.0
172,F#2,42.5,0.25,80,174.0
173,F#3,43.0,0.25,80,174.0
174,F#2,43.0,1.0,80,174.0
175,D2,43.0,1.0,80,174.0
176,C2,43.0,1.0,80,174.0
177,G#3,43.5,0.25,80,174.0
178,F#2,43.5,0.25,80,174.0
179,A3,44.0,0.75,80,174.0
180,A2,44.0,1.0,80,174.0
181,C2,44.0,1.0,80,174.0
182,F#2,44.5,0.25,80,174.0
183,E-3,45.0,0.75,80,174.0
184,E-2,45.0,3.0,80,174.0
185,C2,45.0,1.0,80,174.0
186,D2,45.0,1.0,80,174.0
187,F#2,45.5,0.25,80,174.0
188,E-4,46.0,0.25,64,174.0
189,E-4,46.5,0.25,64,174.0
190,C2,46.5,0.5,80,174.0
191,F#2,46.5,0.25,80,174.0
192,E-4,47.0,0.25,64,174.0
193,C2,47.0,1.0,80,174.0
194,D2,47.0,1.0,80,174.0
195,E-4,47.5,0.25,64,174.0
196,F#2,47.5,0.25,80,174.0
197,E-4,48.0,0.25,64,174.0
198,E-2,48.0,4.0,80,174.0
199,C2,48.0,1.0,80,174.0
200,E-4,48.5,0.25,64,174.0
201,F#2,48.5,0.25,80,174.0
202,E-4,49.0,0.25,64,174.0
203,D2,49.0,1.0,80,174.0
204,C2,49.0,1.0,80,174.0
205,E-4,49.5,0.25,64,174.0
206,F#2,49.5,0.25,80,174.0
207,E-4,50.0,0.25,64,174.0
208,E-4,50.5,0.25,80,174.0
209,C2,50.5,0.5,80,174.0
210,F#2,50.5,0.25,80,174.0
211,F#4,51.0,0.25,80,174.0
212,C2,51.0,1.0,80,174.0
213,D2,51.0,1.0,80,174.0
214,G#4,51.5,0.25,80,174.0
215,F#2,51.5,0.25,80,174.0
216,A4,52.0,0.75,80,174.0
217,E-2,52.0,2.0,80,174.0
218,C2,52.0,1.0,80,174.0
219,F#2,52.5,0.25,80,174.0
220,E-4,53.0,0.75,80,174.0
221,D2,53.0,1.0,80,174.0
222,C2,53.0,1.0,80,174.0
223,F#2,53.5,0.25,80,174.0
224,E-4,54.0,0.25,64,174.0
225,E-2,54.0,2.0,80,174.0
226,E-4,54.5,0.25,64,174.0
227,C2,54.5,0.5,80,174.0
228,F#2,54.5,0.25,80,174.0
229,E-4,55.0,0.25,64,174.0
230,C2,55.0,1.0,80,174.0
231,D2,55.0,1.0,80,174.0
232,E-4,55.5,0.25,64,174.0
233,F#2,55.5,0.25,80,174.0
234,E-4,56.0,0.25,64,174.0
235,E-2,56.0,3.0,80,174.0
236,C2,56.0,1.0,80,174.0
237,E-4,56.5,0.25,64,174.0
238,F#2,56.5,0.25,80,174.0
239,E-4,57.0,0.25,64,174.0
240,D2,57.0,1.0,80,174.0
241,C2,57.0,1.0,80,174.0
242,E-4,57.5,0.25,64,174.0
243,F#2,57.5,0.25,80,174.0
244,E-4,58.0,0.25,64,174.0
245,E-3,58.5,0.25,80,174.0
246,C2,58.5,0.5,80,174.0
247,F#2,58.5,0.25,80,174.0
248,F#3,59.0,0.25,80,174.0
249,F#2,59.0,1.0,80,174.0
250,C2,59.0,1.0,80,174.0
251,D2,59.0,1.0,80,174.0
252,G#3,59.5,0.25,80,174.0
253,F#2,59.5,0.25,80,174.0
254,A3,60.0,0.75,80,174.0
255,A2,60.0,1.0,80,174.0
256,C2,60.0,1.0,80,174.0
257,F#2,60.5,0.25,80,174.0
258,E-3,61.0,0.75,80,174.0
259,E-2,61.0,3.0,80,174.0
260,C2,61.0,1.0,80,174.0
261,D2,61.0,1.0,80,174.0
262,F#2,61.5,0.25,80,174.0
263,E-4,62.0,0.25,64,174.0
264,D2,62.0,0.25,80,174.0
265,E-4,62.5,0.25,64,174.0
266,C2,62.5,0.5,80,174.0
267,F#2,62.5,0.25,80,174.0
268,D2,62.5,0.25,80,174.0
269,E-4,63.0,0.25,64,174.0
270,D2,63.0,0.25,80,174.0
271,C2,63.0,1.0,80,174.0
272,E-4,63.5,0.25,64,174.0
273,D2,63.5,0.25,80,174.0
274,F#2,63.5,0.25,80,174.0
275,C#3,64.0,1.0,80,174.0
276,C2,64.0,1.0,80,174.0
