,note_name,start_time,duration,velocity,tempo
0,F2,0.0,4.0,100,174.0
1,B-2,0.0,0.25,100,174.0
2,C2,0.0,0.25,100,174.0
3,C2,0.5,0.25,100,174.0
4,F4,1.0,0.5,100,174.0
5,C2,1.0,0.25,100,174.0
6,D2,1.5,0.5,100,174.0
7,G#4,2.0,0.5,100,174.0
8,C2,2.0,0.25,100,174.0
9,C2,2.5,0.25,100,174.0
10,E-5,3.0,0.5,100,174.0
11,C2,3.0,0.25,100,174.0
12,D2,3.0,0.5,100,174.0
13,C5,3.5,0.5,100,174.0
14,C2,3.5,0.25,100,174.0
15,C5,4.0,1.0,100,174.0
16,C#3,4.0,4.0,100,174.0
17,D2,4.0,0.5,100,174.0
18,B-2,4.0,0.25,100,174.0
19,C2,4.5,0.25,100,174.0
20,G#4,5.0,0.5,100,174.0
21,C2,5.0,0.25,100,174.0
22,D2,5.5,0.5,100,174.0
23,G4,6.0,0.5,100,174.0
24,C2,6.0,0.25,100,174.0
25,C2,6.5,0.25,100,174.0
26,F4,7.0,0.5,100,174.0
27,D2,7.0,0.5,100,174.0
28,B-4,7.5,0.5,100,174.0
29,C2,7.5,0.25,100,174.0
30,B-4,8.0,1.0,100,174.0
31,E-2,8.0,4.0,100,174.0
32,B-2,8.0,0.25,100,174.0
33,D2,8.0,0.5,100,174.0
34,C2,8.5,0.25,100,174.0
35,G#4,9.0,0.5,100,174.0
36,C2,9.0,0.25,100,174.0
37,D2,9.5,0.5,100,174.0
38,B-4,10.0,0.5,100,174.0
39,C2,10.0,0.25,100,174.0
40,C2,10.5,0.25,100,174.0
41,C5,11.0,0.5,100,174.0
42,D2,11.0,0.5,100,174.0
43,F4,11.5,0.5,100,174.0
44,C2,11.5,0.25,100,174.0
45,F4,12.0,1.5,100,174.0
46,B-2,12.0,4.0,100,174.0
47,B-2,12.0,0.25,100,174.0
48,C2,12.0,0.25,100,174.0
49,D2,12.0,0.25,100,174.0
50,C2,12.5,0.25,100,174.0
51,C2,13.0,0.25,100,174.0
52,C2,13.5,0.25,100,174.0
53,E-5,14.0,0.25,100,174.0
54,D2,14.0,0.25,100,174.0
55,E-5,14.5,0.25,100,174.0
56,C2,14.5,0.25,100,174.0
57,F5,15.0,0.5,100,174.0
58,C2,15.0,0.25,100,174.0
59,C2,15.5,0.25,100,174.0
60,F2,16.0,4.0,100,174.0
61,D2,16.0,0.5,100,174.0
62,B-2,16.0,0.25,100,174.0
63,C2,16.0,0.25,100,174.0
64,C2,16.5,0.25,100,174.0
65,F4,17.0,0.5,100,174.0
66,C2,17.0,0.25,100,174.0
67,D2,17.5,0.5,100,174.0
68,G#4,18.0,0.5,100,174.0
69,C2,18.0,0.25,100,174.0
70,C2,18.5,0.25,100,174.0
71,E-5,19.0,0.5,100,174.0
72,C2,19.0,0.25,100,174.0
73,D2,19.0,0.5,100,174.0
74,C5,19.5,0.5,100,174.0
75,C2,19.5,0.25,100,174.0
76,C5,20.0,1.0,100,174.0
77,C#3,20.0,4.0,100,174.0
78,D2,20.0,0.5,100,174.0
79,B-2,20.0,0.25,100,174.0
80,C2,20.5,0.25,100,174.0
81,G#4,21.0,0.5,100,174.0
82,C2,21.0,0.25,100,174.0
83,D2,21.5,0.5,100,174.0
84,G4,22.0,0.5,100,174.0
85,C2,22.0,0.25,100,174.0
86,C2,22.5,0.25,100,174.0
87,F4,23.0,0.5,100,174.0
88,D2,23.0,0.5,100,174.0
89,B-4,23.5,0.5,100,174.0
90,C2,23.5,0.25,100,174.0
91,B-4,24.0,1.0,100,174.0
92,E-2,24.0,4.0,100,174.0
93,B-2,24.0,0.25,100,174.0
94,D2,24.0,0.5,100,174.0
95,C2,24.5,0.25,100,174.0
96,G#4,25.0,0.5,100,174.0
97,C2,25.0,0.25,100,174.0
98,D2,25.5,0.5,100,174.0
99,G4,26.0,0.5,100,174.0
100,C2,26.0,0.25,100,174.0
101,C2,26.5,0.25,100,174.0
102,E-4,27.0,0.5,100,174.0
103,D2,27.0,0.5,100,174.0
104,F4,27.5,0.5,100,174.0
105,C2,27.5,0.25,100,174.0
106,F4,28.0,1.5,100,174.0
107,B-2,28.0,4.0,100,174.0
108,B-2,28.0,0.25,100,174.0
109,C2,28.0,0.25,100,174.0
110,D2,28.0,0.25,100,174.0
111,C2,28.5,0.25,100,174.0
112,C2,29.0,0.25,100,174.0
113,C2,29.5,0.25,100,174.0
114,E-5,30.0,0.25,100,174.0
115,D2,30.0,0.25,100,174.0
116,E-5,30.5,0.25,100,174.0
117,C2,30.5,0.25,100,174.0
118,F5,31.0,0.5,100,174.0
119,C2,31.0,0.25,100,174.0
120,C2,31.5,0.25,100,174.0
121,F2,32.0,4.0,100,174.0
122,B-2,32.0,0.25,100,174.0
123,C2,32.0,0.25,100,174.0
124,C2,32.5,0.25,100,174.0
125,F4,33.0,0.5,100,174.0
126,C2,33.0,0.25,100,174.0
127,D2,33.5,0.5,100,174.0
128,G#4,34.0,0.5,100,174.0
129,C2,34.0,0.25,100,174.0
130,C2,34.5,0.25,100,174.0
131,E-5,35.0,0.5,100,174.0
132,C2,35.0,0.25,100,174.0
133,D2,35.0,0.5,100,174.0
134,C5,35.5,0.5,100,174.0
135,C2,35.5,0.25,100,174.0
136,C5,36.0,1.0,100,174.0
137,C#3,36.0,4.0,100,174.0
138,D2,36.0,0.5,100,174.0
139,B-2,36.0,0.25,100,174.0
140,C2,36.5,0.25,100,174.0
141,G#4,37.0,0.5,100,174.0
142,C2,37.0,0.25,100,174.0
143,D2,37.5,0.5,100,174.0
144,G4,38.0,0.5,100,174.0
145,C2,38.0,0.25,100,174.0
146,C2,38.5,0.25,100,174.0
147,F4,39.0,0.5,100,174.0
148,D2,39.0,0.5,100,174.0
149,B-4,39.5,0.5,100,174.0
150,C2,39.5,0.25,100,174.0
151,B-4,40.0,1.0,100,174.0
152,E-2,40.0,4.0,100,174.0
153,B-2,40.0,0.25,100,174.0
154,D2,40.0,0.5,100,174.0
155,C2,40.5,0.25,100,174.0
156,G#4,41.0,0.5,100,174.0
157,C2,41.0,0.25,100,174.0
158,D2,41.5,0.5,100,174.0
159,B-4,42.0,0.5,100,174.0
160,C2,42.0,0.25,100,174.0
161,C2,42.5,0.25,100,174.0
162,C5,43.0,0.5,100,174.0
163,D2,43.0,0.5,100,174.0
164,F4,43.5,0.5,100,174.0
165,C2,43.5,0.25,100,174.0
166,F4,44.0,2.0,100,174.0
167,B-2,44.0,4.0,100,174.0
168,B-2,44.0,0.25,100,174.0
169,C2,44.0,0.25,100,174.0
170,D2,44.0,0.25,100,174.0
171,C2,44.5,0.25,100,174.0
172,C2,45.0,0.25,100,174.0
173,C2,45.5,0.25,100,174.0
174,E-5,46.0,0.25,100,174.0
175,D2,46.0,0.25,100,174.0
176,E-5,46.5,0.25,100,174.0
177,C2,46.5,0.25,100,174.0
178,F5,47.0,0.5,100,174.0
179,C2,47.0,0.25,100,174.0
180,C2,47.5,0.25,100,174.0
181,F2,48.0,4.0,100,174.0
182,D2,48.0,0.5,100,174.0
183,C2,48.0,0.25,100,174.0
184,B-2,48.0,0.25,100,174.0
185,C2,48.5,0.25,100,174.0
186,F4,49.0,0.5,100,174.0
187,C2,49.0,0.25,100,174.0
188,D2,49.5,0.5,100,174.0
189,G#4,50.0,0.5,100,174.0
190,C2,50.0,0.25,100,174.0
191,C2,50.5,0.25,100,174.0
192,E-5,51.0,0.5,100,174.0
193,D2,51.0,0.5,100,174.0
194,C2,51.0,0.25,100,174.0
195,C5,51.5,0.5,100,174.0
196,C2,51.5,0.25,100,174.0
197,C5,52.0,1.0,100,174.0
198,C#3,52.0,4.0,100,174.0
199,D2,52.0,0.5,100,174.0
200,B-2,52.0,0.25,100,174.0
201,C2,52.5,0.25,100,174.0
202,G#4,53.0,0.5,100,174.0
203,C2,53.0,0.25,100,174.0
204,D2,53.5,0.5,100,174.0
205,G4,54.0,0.5,100,174.0
206,C2,54.0,0.25,100,174.0
207,C2,54.5,0.25,100,174.0
208,F4,55.0,0.5,100,174.0
209,D2,55.0,0.5,100,174.0
210,B-4,55.5,0.5,100,174.0
211,C2,55.5,0.25,100,174.0
212,B-4,56.0,1.0,100,174.0
213,E-2,56.0,4.0,100,174.0
214,D2,56.0,0.5,100,174.0
215,B-2,56.0,0.25,100,174.0
216,C2,56.5,0.25,100,174.0
217,G#4,57.0,0.5,100,174.0
218,C2,57.0,0.25,100,174.0
219,D2,57.5,0.5,100,174.0
220,G4,58.0,0.5,100,174.0
221,C2,58.0,0.25,100,174.0
222,C2,58.5,0.25,100,174.0
223,E-4,59.0,0.5,100,174.0
224,D2,59.0,0.5,100,174.0
225,F4,59.5,0.5,100,174.0
226,C2,59.5,0.25,100,174.0
227,F4,60.0,4.0,100,174.0
228,B-2,60.0,4.0,100,174.0
229,B-2,60.0,0.25,100,174.0
230,D2,60.0,0.25,100,174.0
231,D2,60.25,0.25,100,174.0
232,D2,60.5,0.25,100,174.0
233,D2,60.75,0.25,100,174.0
234,D2,61.0,0.25,99,174.0
235,D2,61.25,0.25,94,174.0
236,D2,61.5,0.25,90,174.0
237,D2,61.75,0.25,86,174.0
238,D2,62.0,0.25,81,174.0
239,D2,62.25,0.25,77,174.0
240,D2,62.5,0.25,73,174.0
241,D2,62.75,0.25,68,174.0
242,D2,63.0,0.25,64,174.0
243,D2,63.25,0.25,60,174.0
244,D2,63.5,0.25,51,174.0
245,D2,63.75,0.25,44,174.0
246,F2,64.0,1.0,103,174.0
247,B-2,64.0,0.25,102,174.0
248,C#3,64.0,0.25,102,174.0
249,C2,64.0,0.25,102,174.0
250,C2,64.5,0.25,100,174.0
251,C2,65.0,0.25,100,174.0
252,F3,65.5,0.5,103,174.0
253,D2,65.5,0.5,100,174.0
254,G3,66.0,0.5,103,174.0
255,C2,66.0,0.25,100,174.0
256,F3,66.5,0.5,103,174.0
257,C2,66.5,0.25,100,174.0
258,E-3,67.0,0.5,103,174.0
259,C2,67.0,0.25,100,174.0
260,D2,67.0,0.5,100,174.0
261,F3,67.5,0.5,103,174.0
262,C2,67.5,0.25,100,174.0
263,F2,68.0,1.0,103,174.0
264,D2,68.0,0.5,100,174.0
265,B-2,68.0,0.25,100,174.0
266,C2,68.5,0.25,100,174.0
267,G3,69.0,1.0,103,174.0
268,C2,69.0,0.25,100,174.0
269,D2,69.5,0.5,100,174.0
270,G#3,70.0,2.0,103,174.0
271,C2,70.0,0.25,100,174.0
272,C2,70.5,0.25,100,174.0
273,D2,71.0,0.5,100,174.0
274,C2,71.5,0.25,100,174.0
275,F2,72.0,1.0,103,174.0
276,B-2,72.0,0.25,100,174.0
277,D2,72.0,0.5,100,174.0
278,C2,72.5,0.25,100,174.0
279,C2,73.0,0.25,100,174.0
280,F3,73.5,0.5,103,174.0
281,D2,73.5,0.5,100,174.0
282,G3,74.0,0.5,103,174.0
283,C2,74.0,0.25,100,174.0
284,F3,74.5,0.5,103,174.0
285,C2,74.5,0.25,100,174.0
286,E-3,75.0,0.5,103,174.0
287,D2,75.0,0.5,100,174.0
288,F3,75.5,0.5,103,174.0
289,C2,75.5,0.25,100,174.0
290,C#4,76.0,1.0,103,174.0
291,C#3,76.0,1.0,103,174.0
292,B-2,76.0,0.25,100,174.0
293,C2,76.0,0.25,100,174.0
294,D2,76.0,0.25,100,174.0
295,C2,76.5,0.25,100,174.0
296,C4,77.0,0.5,103,174.0
297,C3,77.0,0.5,103,174.0
298,C2,77.0,0.25,100,174.0
299,B-3,77.5,0.5,103,174.0
300,B-2,77.5,0.5,103,174.0
301,C2,77.5,0.25,100,174.0
302,C4,78.0,1.0,103,174.0
303,C3,78.0,1.0,103,174.0
304,D2,78.0,0.25,100,174.0
305,C2,78.5,0.25,100,174.0
306,G#3,79.0,1.0,103,174.0
307,G#2,79.0,1.0,103,174.0
308,C2,79.0,0.25,100,174.0
309,C2,79.5,0.25,100,174.0
310,F2,80.0,1.0,103,174.0
311,D2,80.0,0.5,100,174.0
312,B-2,80.0,0.25,100,174.0
313,C2,80.0,0.25,100,174.0
314,C2,80.5,0.25,100,174.0
315,C2,81.0,0.25,100,174.0
316,F3,81.5,0.5,103,174.0
317,D2,81.5,0.5,100,174.0
318,G3,82.0,0.5,103,174.0
319,C2,82.0,0.25,100,174.0
320,F3,82.5,0.5,103,174.0
321,C2,82.5,0.25,100,174.0
322,E-3,83.0,0.5,103,174.0
323,C2,83.0,0.25,100,174.0
324,D2,83.0,0.5,100,174.0
325,F3,83.5,0.5,103,174.0
326,C2,83.5,0.25,100,174.0
327,F2,84.0,1.0,103,174.0
328,D2,84.0,0.5,100,174.0
329,B-2,84.0,0.25,100,174.0
330,C2,84.5,0.25,100,174.0
331,G3,85.0,1.0,103,174.0
332,C2,85.0,0.25,100,174.0
333,D2,85.5,0.5,100,174.0
334,G#3,86.0,2.0,103,174.0
335,C2,86.0,0.25,100,174.0
336,C2,86.5,0.25,100,174.0
337,D2,87.0,0.5,100,174.0
338,C2,87.5,0.25,100,174.0
339,F2,88.0,1.0,103,174.0
340,D2,88.0,0.5,100,174.0
341,B-2,88.0,0.25,100,174.0
342,C2,88.5,0.25,100,174.0
343,C2,89.0,0.25,100,174.0
344,F3,89.5,0.5,103,174.0
345,D2,89.5,0.5,100,174.0
346,G3,90.0,0.5,103,174.0
347,C2,90.0,0.25,100,174.0
348,F3,90.5,0.5,103,174.0
349,C2,90.5,0.25,100,174.0
350,E-3,91.0,0.5,103,174.0
351,D2,91.0,0.5,100,174.0
352,F3,91.5,0.5,103,174.0
353,C2,91.5,0.25,100,174.0
354,F2,92.0,1.0,103,174.0
355,B-2,92.0,0.25,100,174.0
356,C2,92.0,0.25,100,174.0
357,D2,92.0,0.25,100,174.0
358,C2,92.5,0.25,100,174.0
359,C#4,93.0,1.0,103,174.0
360,C#3,93.0,1.0,103,174.0
361,C2,93.0,0.25,100,174.0
362,C2,93.5,0.25,100,174.0
363,C4,94.0,1.0,103,174.0
364,C3,94.0,1.0,103,174.0
365,D2,94.0,0.25,100,174.0
366,C2,94.5,0.25,100,174.0
367,G#3,95.0,1.0,103,174.0
368,G#2,95.0,1.0,103,174.0
369,C2,95.0,0.25,100,174.0
370,C2,95.5,0.25,100,174.0
371,F2,96.0,1.0,103,174.0
372,B-2,96.0,0.25,100,174.0
373,C2,96.0,0.25,100,174.0
374,C2,96.5,0.25,100,174.0
375,C2,97.0,0.25,100,174.0
376,F3,97.5,0.5,103,174.0
377,D2,97.5,0.5,100,174.0
378,G3,98.0,0.5,103,174.0
379,C2,98.0,0.25,100,174.0
380,F3,98.5,0.5,103,174.0
381,C2,98.5,0.25,100,174.0
382,E-3,99.0,0.5,103,174.0
383,D2,99.0,0.5,100,174.0
384,C2,99.0,0.25,100,174.0
385,F3,99.5,0.5,103,174.0
386,C2,99.5,0.25,100,174.0
387,F2,100.0,1.0,103,174.0
388,D2,100.0,0.5,100,174.0
389,B-2,100.0,0.25,100,174.0
390,C2,100.5,0.25,100,174.0
391,G3,101.0,1.0,103,174.0
392,C2,101.0,0.25,100,174.0
393,D2,101.5,0.5,100,174.0
394,G#3,102.0,2.0,103,174.0
395,C2,102.0,0.25,100,174.0
396,C2,102.5,0.25,100,174.0
397,D2,103.0,0.5,100,174.0
398,C2,103.5,0.25,100,174.0
399,F2,104.0,1.0,103,174.0
400,D2,104.0,0.5,100,174.0
401,B-2,104.0,0.25,100,174.0
402,C2,104.5,0.25,100,174.0
403,C2,105.0,0.25,100,174.0
404,F3,105.5,0.5,103,174.0
405,D2,105.5,0.5,100,174.0
406,G3,106.0,0.5,103,174.0
407,C2,106.0,0.25,100,174.0
408,F3,106.5,0.5,103,174.0
409,C2,106.5,0.25,100,174.0
410,E-3,107.0,0.5,103,174.0
411,D2,107.0,0.5,100,174.0
412,F3,107.5,0.5,103,174.0
413,C2,107.5,0.25,100,174.0
414,C#4,108.0,1.0,103,174.0
415,C#3,108.0,1.0,103,174.0
416,D2,108.0,0.25,100,174.0
417,C2,108.0,0.25,100,174.0
418,B-2,108.0,0.25,100,174.0
419,C2,108.5,0.25,100,174.0
420,C4,109.0,0.5,103,174.0
421,C3,109.0,0.5,103,174.0
422,C2,109.0,0.25,100,174.0
423,B-3,109.5,0.5,103,174.0
424,B-2,109.5,0.5,103,174.0
425,C2,109.5,0.25,100,174.0
426,C4,110.0,1.0,103,174.0
427,C3,110.0,1.0,103,174.0
428,D2,110.0,0.25,100,174.0
429,C2,110.5,0.25,100,174.0
430,G#3,111.0,1.0,103,174.0
431,G#2,111.0,1.0,103,174.0
432,C2,111.0,0.25,100,174.0
433,C2,111.5,0.25,100,174.0
434,F2,112.0,1.0,103,174.0
435,D2,112.0,0.5,100,174.0
436,C2,112.0,0.25,100,174.0
437,B-2,112.0,0.25,100,174.0
438,C2,112.5,0.25,100,174.0
439,C2,113.0,0.25,100,174.0
440,F3,113.5,0.5,103,174.0
441,D2,113.5,0.5,100,174.0
442,G3,114.0,0.5,103,174.0
443,C2,114.0,0.25,100,174.0
444,F3,114.5,0.5,103,174.0
445,C2,114.5,0.25,100,174.0
446,E-3,115.0,0.5,103,174.0
447,C2,115.0,0.25,100,174.0
448,D2,115.0,0.5,100,174.0
449,F3,115.5,0.5,103,174.0
450,C2,115.5,0.25,100,174.0
451,F2,116.0,1.0,103,174.0
452,D2,116.0,0.5,100,174.0
453,B-2,116.0,0.25,100,174.0
454,C2,116.5,0.25,100,174.0
455,G3,117.0,1.0,103,174.0
456,C2,117.0,0.25,100,174.0
457,D2,117.5,0.5,100,174.0
458,G#3,118.0,2.0,103,174.0
459,C2,118.0,0.25,100,174.0
460,C2,118.5,0.25,100,174.0
461,D2,119.0,0.5,100,174.0
462,C2,119.5,0.25,100,174.0
463,F2,120.0,0.25,103,174.0
464,B-2,120.0,0.25,102,174.0
465,C2,120.0,0.25,102,174.0
466,F2,120.5,0.25,103,174.0
467,C2,120.5,0.25,100,174.0
468,F2,121.0,0.25,103,174.0
469,C2,121.0,0.25,100,174.0
470,F2,121.5,0.25,103,174.0
471,D2,121.5,0.5,100,174.0
472,F2,122.0,0.25,103,174.0
473,C2,122.0,0.25,100,174.0
474,F2,122.5,0.25,103,174.0
475,C2,122.5,0.25,100,174.0
476,F2,123.0,0.25,103,174.0
477,D2,123.0,0.5,100,174.0
478,C2,123.0,0.25,100,174.0
479,F2,123.5,0.25,103,174.0
480,C2,123.5,0.25,100,174.0
481,G#2,124.0,0.25,103,174.0
482,B-2,124.0,0.25,100,174.0
483,D2,124.0,0.5,100,174.0
484,G#2,124.5,0.25,103,174.0
485,C2,124.5,0.25,100,174.0
486,B-2,125.0,0.25,103,174.0
487,C2,125.0,0.25,100,174.0
488,E-2,125.5,0.25,103,174.0
489,D2,125.5,0.5,100,174.0
490,E-2,126.0,0.25,103,174.0
491,C2,126.0,0.25,100,174.0
492,E-2,126.5,0.25,103,174.0
493,C2,126.5,0.25,100,174.0
494,E-2,127.0,0.25,103,174.0
495,D2,127.0,0.5,100,174.0
496,E-2,127.5,0.25,103,174.0
497,C2,127.5,0.25,100,174.0
498,C2,128.0,0.25,103,174.0
499,C#3,128.0,0.25,103,174.0
