,note_name,start_time,duration,velocity,tempo
0,C4,0.0,1.0,100,100.0
1,F#2,0.0,0.5,100,100.0
2,F2,0.0,4.0,100,100.0
3,C4,0.0,4.0,100,100.0
4,F3,0.0,4.0,100,100.0
5,A4,1.0,0.25,100,100.0
6,F#2,1.0,0.5,100,100.0
7,G4,1.25,0.5,100,100.0
8,C4,1.75,0.75,100,100.0
9,F#2,2.0,0.5,100,100.0
10,F#2,3.0,0.5,100,100.0
11,C4,4.0,1.0,100,100.0
12,F#2,4.0,0.5,100,100.0
13,E2,4.0,1.5,100,100.0
14,G3,4.0,1.5,100,100.0
15,E3,4.0,1.5,100,100.0
16,A4,5.0,0.25,100,100.0
17,F#2,5.0,0.5,100,100.0
18,G4,5.25,0.25,100,100.0
19,G2,5.5,2.5,100,100.0
20,G3,5.5,2.5,100,100.0
21,D4,5.5,2.5,100,100.0
22,D4,5.75,0.5,100,100.0
23,F#2,6.0,0.5,100,100.0
24,D4,7.0,0.5,100,100.0
25,F#2,7.0,0.5,100,100.0
26,C4,7.5,0.5,100,100.0
27,C4,8.0,1.0,100,100.0
28,F#2,8.0,0.5,100,100.0
29,E2,8.0,1.5,100,100.0
30,B3,8.0,1.5,100,100.0
31,E3,8.0,1.5,100,100.0
32,A4,9.0,0.25,100,100.0
33,F#2,9.0,0.5,100,100.0
34,G4,9.25,0.5,100,100.0
35,A2,9.5,2.5,100,100.0
36,A3,9.5,2.0,100,100.0
37,C4,9.5,2.0,100,100.0
38,C4,9.75,0.75,100,100.0
39,F#2,10.0,0.5,100,100.0
40,F#2,11.0,0.5,100,100.0
41,E4,11.5,0.25,100,100.0
42,D2,11.5,0.5,100,100.0
43,D3,11.5,0.5,100,100.0
44,C4,11.5,0.5,100,100.0
45,E4,12.0,0.25,100,100.0
46,F#2,12.0,0.5,100,100.0
47,D2,12.0,4.0,100,100.0
48,D3,12.0,4.0,100,100.0
49,C4,12.0,4.0,100,100.0
50,C4,12.375,0.25,100,100.0
51,D4,12.75,0.25,100,100.0
52,E-2,12.875,0.125,100,100.0
53,E4,13.0,0.25,100,100.0
54,F#2,13.0,0.5,100,100.0
55,C4,13.375,0.25,100,100.0
56,D4,13.75,0.25,100,100.0
57,E-2,13.875,0.125,100,100.0
58,E4,14.0,0.25,100,100.0
59,F#2,14.0,0.5,100,100.0
60,C4,14.375,0.25,100,100.0
61,D4,14.75,0.25,100,100.0
62,E-2,14.875,0.125,100,100.0
63,E4,15.0,0.25,100,100.0
64,F#2,15.0,0.5,100,100.0
65,C4,15.375,0.25,100,100.0
66,D4,15.75,0.25,100,100.0
67,E-2,15.875,0.125,100,100.0
68,C4,16.0,1.0,100,100.0
69,F2,16.0,4.0,100,100.0
70,C4,16.0,4.0,100,100.0
71,F3,16.0,4.0,100,100.0
72,C2,16.0,0.5,100,100.0
73,F#2,16.0,0.5,100,100.0
74,A4,17.0,0.25,100,100.0
75,D2,17.0,0.5,100,100.0
76,F#2,17.0,0.5,100,100.0
77,G4,17.25,0.5,100,100.0
78,C4,17.75,0.75,100,100.0
79,F#2,18.0,0.5,100,100.0
80,D2,19.0,0.5,100,100.0
81,F#2,19.0,0.5,100,100.0
82,E4,19.5,0.25,100,100.0
83,C4,20.0,1.0,100,100.0
84,F#2,20.0,0.5,100,100.0
85,E2,20.0,1.5,100,100.0
86,G3,20.0,1.5,100,100.0
87,E3,20.0,1.5,100,100.0
88,A4,21.0,0.25,100,100.0
89,D2,21.0,0.5,100,100.0
90,F#2,21.0,0.5,100,100.0
91,G4,21.25,0.25,100,100.0
92,G2,21.5,2.5,100,100.0
93,G3,21.5,2.5,100,100.0
94,D4,21.5,2.5,100,100.0
95,D4,21.75,0.5,100,100.0
96,F#2,22.0,0.5,100,100.0
97,E4,23.0,0.5,100,100.0
98,D2,23.0,0.5,100,100.0
99,F#2,23.0,0.5,100,100.0
100,G4,23.5,0.5,100,100.0
101,G4,24.0,1.0,100,100.0
102,F#2,24.0,0.5,100,100.0
103,E2,24.0,1.5,100,100.0
104,E3,24.0,1.5,100,100.0
105,B3,24.0,1.5,100,100.0
106,A4,25.0,0.25,100,100.0
107,D2,25.0,0.5,100,100.0
108,F#2,25.0,0.5,100,100.0
109,G4,25.25,0.5,100,100.0
110,A2,25.5,2.0,100,100.0
111,A3,25.5,2.0,100,100.0
112,C4,25.5,2.0,100,100.0
113,C4,25.75,0.75,100,100.0
114,F#2,26.0,0.5,100,100.0
115,D2,27.0,0.5,100,100.0
116,F#2,27.0,0.5,100,100.0
117,E4,27.5,0.25,100,100.0
118,D2,27.5,0.5,100,100.0
119,D3,27.5,0.5,100,100.0
120,C4,27.5,0.5,100,100.0
121,E4,28.0,0.25,100,100.0
122,F#2,28.0,0.5,100,100.0
123,C4,28.375,0.25,100,100.0
124,D4,28.75,0.25,100,100.0
125,E-2,28.875,0.125,100,100.0
126,E4,29.0,0.25,100,100.0
127,F#2,29.0,0.5,100,100.0
128,C4,29.375,0.25,100,100.0
129,D4,29.75,0.25,100,100.0
130,E-2,29.875,0.125,100,100.0
131,E4,30.0,0.25,100,100.0
132,F#2,30.0,0.5,100,100.0
133,C4,30.375,0.25,100,100.0
134,D4,30.75,0.25,100,100.0
135,E-2,30.875,0.125,100,100.0
136,E4,31.0,0.25,100,100.0
137,F#2,31.0,0.5,100,100.0
138,C4,31.375,0.25,100,100.0
139,D4,31.75,0.25,100,100.0
140,E-2,31.875,0.125,100,100.0
141,C4,32.0,1.0,100,100.0
142,F2,32.0,3.0,100,100.0
143,D2,32.0,4.0,100,100.0
144,D3,32.0,4.0,100,100.0
145,C4,32.0,4.0,100,100.0
146,F3,32.0,3.0,100,100.0
147,C4,32.0,3.0,100,100.0
148,C2,32.0,0.5,100,100.0
149,F#2,32.0,0.5,100,100.0
150,A4,33.0,0.25,100,100.0
151,C2,33.0,0.5,100,100.0
152,F#2,33.0,0.5,100,100.0
153,G4,33.25,0.5,100,100.0
154,C4,33.75,0.75,100,100.0
155,F#2,34.0,0.5,100,100.0
156,C2,34.0,0.5,100,100.0
157,C2,35.0,0.5,100,100.0
158,B-2,35.0,0.5,100,100.0
159,C4,36.0,1.0,100,100.0
160,E2,36.0,1.5,100,100.0
161,E3,36.0,1.5,100,100.0
162,B3,36.0,1.5,100,100.0
163,C2,36.0,0.5,100,100.0
164,F#2,36.0,0.5,100,100.0
165,A4,37.0,0.25,100,100.0
166,C2,37.0,0.5,100,100.0
167,F#2,37.0,0.5,100,100.0
168,G4,37.25,0.25,100,100.0
169,G2,37.5,1.5,100,100.0
170,G3,37.5,1.5,100,100.0
171,D4,37.5,1.5,100,100.0
172,D4,37.75,0.5,100,100.0
173,F#2,38.0,0.5,100,100.0
174,C2,38.0,0.5,100,100.0
175,D4,39.0,0.5,100,100.0
176,C2,39.0,0.5,100,100.0
177,B-2,39.0,0.5,100,100.0
178,C4,39.5,0.5,100,100.0
179,C4,40.0,1.0,100,100.0
180,E2,40.0,1.5,100,100.0
181,E3,40.0,1.5,100,100.0
182,B3,40.0,1.5,100,100.0
183,C2,40.0,0.5,100,100.0
184,F#2,40.0,0.5,100,100.0
185,A4,41.0,0.25,100,100.0
186,C2,41.0,0.5,100,100.0
187,F#2,41.0,0.5,100,100.0
188,G4,41.25,0.5,100,100.0
189,A2,41.5,2.5,100,100.0
190,A3,41.5,2.5,100,100.0
191,E4,41.5,2.5,100,100.0
192,C4,41.75,0.75,100,100.0
193,C2,42.0,0.5,100,100.0
194,F#2,42.0,0.5,100,100.0
195,F#2,43.0,0.5,100,100.0
196,C2,43.0,0.5,100,100.0
197,E4,43.5,0.25,100,100.0
198,E4,44.0,0.25,100,100.0
199,D2,44.0,4.0,100,100.0
200,D3,44.0,4.0,100,100.0
201,A3,44.0,4.0,100,100.0
202,C2,44.0,0.5,100,100.0
203,F#2,44.0,0.5,100,100.0
204,C4,44.375,0.25,100,100.0
205,D4,44.75,0.25,100,100.0
206,E4,45.0,0.25,100,100.0
207,C2,45.0,0.5,100,100.0
208,F#2,45.0,0.5,100,100.0
209,C4,45.375,0.25,100,100.0
210,D4,45.75,0.25,100,100.0
211,E4,46.0,0.25,100,100.0
212,C2,46.0,0.5,100,100.0
213,F#2,46.0,0.5,100,100.0
214,C4,46.375,0.25,100,100.0
215,D4,46.75,0.25,100,100.0
216,E4,47.0,0.25,100,100.0
217,F#2,47.0,0.5,100,100.0
218,C2,47.0,0.5,100,100.0
219,C4,47.375,0.25,100,100.0
220,D4,47.75,0.25,100,100.0
221,C4,48.0,1.0,100,100.0
222,F2,48.0,3.0,100,100.0
223,F3,48.0,3.0,100,100.0
224,C4,48.0,3.0,100,100.0
225,C2,48.0,0.5,100,100.0
226,F#2,48.0,0.5,100,100.0
227,A4,49.0,0.25,100,100.0
228,C2,49.0,0.5,100,100.0
229,F#2,49.0,0.5,100,100.0
230,G4,49.25,0.5,100,100.0
231,C4,49.75,0.75,100,100.0
232,F#2,50.0,0.5,100,100.0
233,C2,50.0,0.5,100,100.0
234,C2,51.0,0.5,100,100.0
235,B-2,51.0,0.5,100,100.0
236,E4,51.5,0.25,100,100.0
237,C4,52.0,1.0,100,100.0
238,E2,52.0,1.5,100,100.0
239,E3,52.0,1.5,100,100.0
240,B3,52.0,1.5,100,100.0
241,C2,52.0,0.5,100,100.0
242,F#2,52.0,0.5,100,100.0
243,A4,53.0,0.25,100,100.0
244,C2,53.0,0.5,100,100.0
245,F#2,53.0,0.5,100,100.0
246,G4,53.25,0.25,100,100.0
247,G2,53.5,1.5,100,100.0
248,G3,53.5,1.5,100,100.0
249,D4,53.5,1.5,100,100.0
250,D4,53.75,0.5,100,100.0
251,F#2,54.0,0.5,100,100.0
252,C2,54.0,0.5,100,100.0
253,E4,55.0,0.5,100,100.0
254,C2,55.0,0.5,100,100.0
255,B-2,55.0,0.5,100,100.0
256,G4,55.5,0.5,100,100.0
257,G4,56.0,1.0,100,100.0
258,E2,56.0,1.5,100,100.0
259,E3,56.0,1.5,100,100.0
260,B3,56.0,1.5,100,100.0
261,C2,56.0,0.5,100,100.0
262,F#2,56.0,0.5,100,100.0
263,A4,57.0,0.25,100,100.0
264,C2,57.0,0.5,100,100.0
265,F#2,57.0,0.5,100,100.0
266,G4,57.25,0.5,100,100.0
267,A2,57.5,2.5,100,100.0
268,A3,57.5,2.5,100,100.0
269,E4,57.5,2.5,100,100.0
270,C4,57.75,0.75,100,100.0
271,C2,58.0,0.5,100,100.0
272,F#2,58.0,0.5,100,100.0
273,F#2,59.0,0.5,100,100.0
274,C2,59.0,0.5,100,100.0
275,E4,59.5,0.25,100,100.0
276,E4,60.0,0.25,100,100.0
277,D2,60.0,4.0,100,100.0
278,D3,60.0,4.0,100,100.0
279,A3,60.0,4.0,100,100.0
280,C2,60.0,0.5,100,100.0
281,F#2,60.0,0.5,100,100.0
282,C4,60.375,0.25,100,100.0
283,D4,60.75,0.25,100,100.0
284,E4,61.0,0.25,100,100.0
285,F#2,61.0,0.5,100,100.0
286,C2,61.0,0.5,100,100.0
287,C4,61.375,0.25,100,100.0
288,D4,61.75,0.25,100,100.0
289,E4,62.0,0.25,100,100.0
290,F#2,62.0,0.5,100,100.0
291,C2,62.0,0.5,100,100.0
292,C4,62.375,0.25,100,100.0
293,D4,62.75,0.25,100,100.0
294,E4,63.0,0.25,100,100.0
295,F#2,63.0,0.5,100,100.0
296,C2,63.0,0.5,100,100.0
297,C4,63.375,0.25,100,100.0
298,D4,63.75,0.25,100,100.0
299,C4,64.0,1.0,100,100.0
300,F2,64.0,3.0,100,100.0
301,F3,64.0,3.0,100,100.0
302,C4,64.0,3.0,100,100.0
303,F#2,64.0,0.5,100,100.0
304,C2,64.0,0.5,100,100.0
305,A4,65.0,0.25,100,100.0
306,E-2,65.0,0.5,100,100.0
307,F#2,65.0,0.5,100,100.0
308,C2,65.0,0.5,100,100.0
309,G4,65.25,0.5,100,100.0
310,C4,65.75,0.75,100,100.0
311,F#2,66.0,0.5,100,100.0
312,C2,66.0,0.5,100,100.0
313,E-2,67.0,0.5,100,100.0
314,B-2,67.0,0.5,100,100.0
315,C2,67.0,0.5,100,100.0
316,C4,68.0,1.0,100,100.0
317,E2,68.0,1.5,100,100.0
318,E3,68.0,1.5,100,100.0
319,B3,68.0,1.5,100,100.0
320,F#2,68.0,0.5,100,100.0
321,C2,68.0,0.5,100,100.0
322,A4,69.0,0.25,100,100.0
323,E-2,69.0,0.5,100,100.0
324,F#2,69.0,0.5,100,100.0
325,C2,69.0,0.5,100,100.0
326,G4,69.25,0.25,100,100.0
327,G2,69.5,1.5,100,100.0
328,G3,69.5,1.5,100,100.0
329,D4,69.5,1.5,100,100.0
330,D4,69.75,0.5,100,100.0
331,F#2,70.0,0.5,100,100.0
332,C2,70.0,0.5,100,100.0
333,D4,71.0,0.5,100,100.0
334,E-2,71.0,0.5,100,100.0
335,B-2,71.0,0.5,100,100.0
336,C2,71.0,0.5,100,100.0
337,C4,71.5,0.5,100,100.0
338,C4,72.0,1.0,100,100.0
339,E2,72.0,1.5,100,100.0
340,E3,72.0,1.5,100,100.0
341,B3,72.0,1.5,100,100.0
342,F#2,72.0,0.5,100,100.0
343,C2,72.0,0.5,100,100.0
344,A4,73.0,0.25,100,100.0
345,E-2,73.0,0.5,100,100.0
346,F#2,73.0,0.5,100,100.0
347,C2,73.0,0.5,100,100.0
348,G4,73.25,0.5,100,100.0
349,A2,73.5,2.5,100,100.0
350,A3,73.5,2.5,100,100.0
351,E4,73.5,2.5,100,100.0
352,C4,73.75,0.75,100,100.0
353,F#2,74.0,0.5,100,100.0
354,C2,74.0,0.5,100,100.0
355,E-2,75.0,0.5,100,100.0
356,F#2,75.0,0.5,100,100.0
357,C2,75.0,0.5,100,100.0
358,E4,75.5,0.25,100,100.0
359,E4,76.0,0.25,100,100.0
360,D2,76.0,4.0,100,100.0
361,D3,76.0,4.0,100,100.0
362,A3,76.0,4.0,100,100.0
363,F#2,76.0,0.5,100,100.0
364,C2,76.0,0.5,100,100.0
365,C4,76.375,0.25,100,100.0
366,D4,76.75,0.25,100,100.0
367,E4,77.0,0.25,100,100.0
368,E-2,77.0,0.5,100,100.0
369,F#2,77.0,0.5,100,100.0
370,C2,77.0,0.5,100,100.0
371,C4,77.375,0.25,100,100.0
372,D4,77.75,0.25,100,100.0
373,E4,78.0,0.25,100,100.0
374,F#2,78.0,0.5,100,100.0
375,C2,78.0,0.5,100,100.0
376,C4,78.375,0.25,100,100.0
377,D4,78.75,0.25,100,100.0
378,E4,79.0,0.25,100,100.0
379,E-2,79.0,0.5,100,100.0
380,F#2,79.0,0.5,100,100.0
381,C2,79.0,0.5,100,100.0
382,C4,79.375,0.25,100,100.0
383,D4,79.75,0.25,100,100.0
384,C4,80.0,1.0,100,100.0
385,F2,80.0,3.0,100,100.0
386,F3,80.0,3.0,100,100.0
387,C4,80.0,3.0,100,100.0
388,F#2,80.0,0.5,100,100.0
389,C2,80.0,0.5,100,100.0
390,A4,81.0,0.25,100,100.0
391,E-2,81.0,0.5,100,100.0
392,F#2,81.0,0.5,100,100.0
393,C2,81.0,0.5,100,100.0
394,G4,81.25,0.5,100,100.0
395,C4,81.75,0.75,100,100.0
396,F#2,82.0,0.5,100,100.0
397,C2,82.0,0.5,100,100.0
398,E-2,83.0,0.5,100,100.0
399,B-2,83.0,0.5,100,100.0
400,C2,83.0,0.5,100,100.0
401,E4,83.5,0.25,100,100.0
402,C4,84.0,1.0,100,100.0
403,E2,84.0,1.5,100,100.0
404,E3,84.0,1.5,100,100.0
405,B3,84.0,1.5,100,100.0
406,F#2,84.0,0.5,100,100.0
407,C2,84.0,0.5,100,100.0
408,A4,85.0,0.25,100,100.0
409,E-2,85.0,0.5,100,100.0
410,F#2,85.0,0.5,100,100.0
411,C2,85.0,0.5,100,100.0
412,G4,85.25,0.25,100,100.0
413,G2,85.5,1.5,100,100.0
414,G3,85.5,1.5,100,100.0
415,D4,85.5,1.5,100,100.0
416,D4,85.75,0.5,100,100.0
417,F#2,86.0,0.5,100,100.0
418,C2,86.0,0.5,100,100.0
419,E4,87.0,0.5,100,100.0
420,E-2,87.0,0.5,100,100.0
421,B-2,87.0,0.5,100,100.0
422,C2,87.0,0.5,100,100.0
423,G4,87.5,0.5,100,100.0
424,G4,88.0,1.0,100,100.0
425,E2,88.0,1.5,100,100.0
426,E3,88.0,1.5,100,100.0
427,B3,88.0,1.5,100,100.0
428,F#2,88.0,0.5,100,100.0
429,C2,88.0,0.5,100,100.0
430,A4,89.0,0.25,100,100.0
431,E-2,89.0,0.5,100,100.0
432,F#2,89.0,0.5,100,100.0
433,C2,89.0,0.5,100,100.0
434,G4,89.25,0.5,100,100.0
435,A2,89.5,2.5,100,100.0
436,A3,89.5,2.5,100,100.0
437,E4,89.5,2.5,100,100.0
438,C4,89.75,0.75,100,100.0
439,F#2,90.0,0.5,100,100.0
440,C2,90.0,0.5,100,100.0
441,E-2,91.0,0.5,100,100.0
442,F#2,91.0,0.5,100,100.0
443,C2,91.0,0.5,100,100.0
444,E4,91.5,0.25,100,100.0
445,E4,92.0,0.25,100,100.0
446,D2,92.0,4.0,100,100.0
447,D3,92.0,4.0,100,100.0
448,A3,92.0,4.0,100,100.0
449,F#2,92.0,0.5,100,100.0
450,C2,92.0,0.5,100,100.0
451,C4,92.375,0.25,100,100.0
452,D4,92.75,0.25,100,100.0
453,E4,93.0,0.25,100,100.0
454,E-2,93.0,0.5,100,100.0
455,F#2,93.0,0.5,100,100.0
456,C2,93.0,0.5,100,100.0
457,C4,93.375,0.25,100,100.0
458,D4,93.75,0.25,100,100.0
459,E4,94.0,0.25,100,100.0
460,F#2,94.0,0.5,100,100.0
461,C2,94.0,0.5,100,100.0
462,C4,94.375,0.25,100,100.0
463,D4,94.75,0.25,100,100.0
464,E4,95.0,0.25,100,100.0
465,E-2,95.0,0.5,100,100.0
466,F#2,95.0,0.5,100,100.0
467,C2,95.0,0.5,100,100.0
468,C4,95.375,0.25,100,100.0
469,D4,95.75,0.25,100,100.0
470,C#3,96.0,0.5,100,100.0
471,C2,96.0,0.5,100,100.0
