,note_name,start_time,duration,velocity,tempo
0,D5,0.0,2083/1000,100,144.0
1,E-4,0.0,4.0,100,144.0
2,B-4,0.0,4.0,100,144.0
3,E-2,0.0,4.0,100,144.0
4,E-4,0.0,4.0,70,144.0
5,G4,0.0,4.0,70,144.0
6,B-4,0.0,4.0,70,144.0
7,E-5,3.0,1.0,100,144.0
8,D5,4.0,2.0,100,144.0
9,C5,7.0,0.5,100,144.0
10,C5,7.5,0.5,100,144.0
11,C5,8.0,1.0,100,144.0
12,E-4,8.0,4.0,100,144.0
13,B-4,8.0,4.0,100,144.0
14,E-2,8.0,4.0,100,144.0
15,E-4,8.0,4.0,70,144.0
16,G4,8.0,4.0,70,144.0
17,B-4,8.0,4.0,70,144.0
18,D5,12.0,0.5,100,144.0
19,G4,12.0,4.0,100,144.0
20,D5,12.0,4.0,100,144.0
21,G2,12.0,4.0,100,144.0
22,G4,12.0,4.0,70,144.0
23,B-4,12.0,4.0,70,144.0
24,D5,12.0,4.0,70,144.0
25,C5,12.5,0.5,100,144.0
26,B-4,13.0,0.5,100,144.0
27,B-4,13.5,0.5,100,144.0
28,D5,14.0,0.5,100,144.0
29,C5,14.5,0.5,100,144.0
30,B-4,15.0,1.0,100,144.0
31,D5,16.0,2083/1000,100,144.0
32,F4,16.0,4.0,100,144.0
33,C5,16.0,4.0,100,144.0
34,F2,16.0,4.0,100,144.0
35,F4,16.0,4.0,70,144.0
36,A4,16.0,4.0,70,144.0
37,C5,16.0,4.0,70,144.0
38,D5,20.0,0.5,100,144.0
39,E-4,20.0,4.0,100,144.0
40,B-4,20.0,4.0,100,144.0
41,E-2,20.0,4.0,100,144.0
42,E-4,20.0,4.0,70,144.0
43,G4,20.0,4.0,70,144.0
44,B-4,20.0,4.0,70,144.0
45,E-5,20.5,0.5,100,144.0
46,D5,21.0,3.0,100,144.0
47,C5,24.0,2.5,100,144.0
48,B-4,27.5,0.5,100,144.0
49,D5,28.0,1.5,100,144.0
50,E-4,28.0,4.0,100,144.0
51,B-4,28.0,4.0,100,144.0
52,E-2,28.0,4.0,100,144.0
53,E-4,28.0,4.0,70,144.0
54,G4,28.0,4.0,70,144.0
55,B-4,28.0,4.0,70,144.0
56,D5,30.0,0.5,100,144.0
57,C5,30.5,1.0,100,144.0
58,D5,31.5,0.5,100,144.0
59,D5,32.0,1.0,100,144.0
60,C2,32.0,1.0,100,144.0
61,G4,32.0,4.0,100,144.0
62,D5,32.0,4.0,100,144.0
63,G2,32.0,4.0,100,144.0
64,G4,32.0,4.0,70,144.0
65,B-4,32.0,4.0,70,144.0
66,D5,32.0,4.0,70,144.0
67,G#2,33.0,1.0,100,144.0
68,G#2,35.0,1.0,100,144.0
69,B-4,35.5,0.5,100,144.0
70,D5,36.0,0.5,100,144.0
71,C2,36.0,1.0,100,144.0
72,F4,36.0,4.0,100,144.0
73,C5,36.0,4.0,100,144.0
74,F2,36.0,4.0,100,144.0
75,F4,36.0,4.0,70,144.0
76,A4,36.0,4.0,70,144.0
77,C5,36.0,4.0,70,144.0
78,D5,37.0,0.5,100,144.0
79,G#2,37.0,1.0,100,144.0
80,D5,37.5,0.5,100,144.0
81,C5,38.0,0.5,100,144.0
82,C5,38.5,0.5,100,144.0
83,B-4,39.0,0.5,100,144.0
84,G#2,39.0,1.0,100,144.0
85,C5,39.5,0.5,100,144.0
86,C5,40.0,1.5,100,144.0
87,C2,40.0,1.0,100,144.0
88,E-4,40.0,4.0,100,144.0
89,B-4,40.0,4.0,100,144.0
90,E-2,40.0,4.0,100,144.0
91,E-4,40.0,4.0,70,144.0
92,G4,40.0,4.0,70,144.0
93,B-4,40.0,4.0,70,144.0
94,G#2,41.0,1.0,100,144.0
95,G#2,43.0,1.0,100,144.0
96,D5,43.5,0.5,100,144.0
97,F5,44.0,0.5,100,144.0
98,C2,44.0,1.0,100,144.0
99,G5,44.5,1.5,100,144.0
100,G#2,45.0,1.0,100,144.0
101,D5,46.0,0.5,100,144.0
102,C5,46.5,1.0,100,144.0
103,G#2,47.0,1.0,100,144.0
104,B-4,47.5,0.5,100,144.0
105,B-4,48.0,2.0,100,144.0
106,C2,48.0,1.0,100,144.0
107,E-4,48.0,4.0,100,144.0
108,B-4,48.0,4.0,100,144.0
109,E-2,48.0,4.0,100,144.0
110,E-4,48.0,4.0,70,144.0
111,G4,48.0,4.0,70,144.0
112,B-4,48.0,4.0,70,144.0
113,G#2,49.0,1.0,100,144.0
114,G#2,51.0,1.0,100,144.0
115,C2,52.0,1.0,100,144.0
116,G4,52.0,4.0,100,144.0
117,D5,52.0,4.0,100,144.0
118,G2,52.0,4.0,100,144.0
119,G4,52.0,4.0,70,144.0
120,B-4,52.0,4.0,70,144.0
121,D5,52.0,4.0,70,144.0
122,G#2,53.0,1.0,100,144.0
123,G#2,55.0,1.0,100,144.0
124,C2,56.0,1.0,100,144.0
125,F4,56.0,4.0,100,144.0
126,C5,56.0,4.0,100,144.0
127,F2,56.0,4.0,100,144.0
128,F4,56.0,4.0,70,144.0
129,A4,56.0,4.0,70,144.0
130,C5,56.0,4.0,70,144.0
131,G#2,57.0,1.0,100,144.0
132,G#2,59.0,1.0,100,144.0
133,C2,60.0,1.0,100,144.0
134,E-4,60.0,4.0,100,144.0
135,B-4,60.0,4.0,100,144.0
136,E-2,60.0,4.0,100,144.0
137,E-4,60.0,4.0,70,144.0
138,G4,60.0,4.0,70,144.0
139,B-4,60.0,4.0,70,144.0
140,G#2,61.0,1.0,100,144.0
141,G#2,63.0,1.0,100,144.0
142,E-2,64.0,4.0,100,144.0
143,C2,64.0,1.0,100,144.0
144,C#3,64.0,1.0,100,144.0
145,G#2,65.0,1.0,100,144.0
146,E-2,65.0,1.0,100,144.0
147,C2,65.5,0.5,100,144.0
148,A5,66.5,0.5,100,144.0
149,A5,67.0,1.0,100,144.0
150,G#2,67.0,1.0,100,144.0
151,E-2,67.0,1.0,100,144.0
152,E-2,68.0,4.0,100,144.0
153,B-5,68.0,1.0,100,144.0
154,C2,68.0,1.0,100,144.0
155,E-4,68.0,4.0,100,144.0
156,B-4,68.0,4.0,100,144.0
157,E-2,68.0,4.0,100,144.0
158,E-4,68.0,4.0,70,144.0
159,G4,68.0,4.0,70,144.0
160,B-4,68.0,4.0,70,144.0
161,E-5,69.0,1.0,100,144.0
162,G#2,69.0,0.5,100,144.0
163,E-2,69.0,1.0,100,144.0
164,C2,69.5,0.5,100,144.0
165,E-5,70.0,2.0,100,144.0
166,G#2,71.0,1.0,100,144.0
167,E-2,71.0,1.0,100,144.0
168,C2,72.0,4.0,100,144.0
169,E-5,72.0,0.5,100,144.0
170,C2,72.0,1.0,100,144.0
171,G4,72.0,4.0,100,144.0
172,D5,72.0,4.0,100,144.0
173,G2,72.0,4.0,100,144.0
174,G4,72.0,4.0,70,144.0
175,B-4,72.0,4.0,70,144.0
176,D5,72.0,4.0,70,144.0
177,G#2,73.0,1.0,100,144.0
178,E-2,73.0,1.0,100,144.0
179,C2,73.5,0.5,100,144.0
180,D5,74.5,0.5,100,144.0
181,E-5,75.0,1.0,100,144.0
182,E-2,75.0,1.0,100,144.0
183,G#2,75.0,1.0,100,144.0
184,D2,76.0,4.0,100,144.0
185,D5,76.0,0.75,100,144.0
186,C2,76.0,1.0,100,144.0
187,F4,76.0,4.0,100,144.0
188,C5,76.0,4.0,100,144.0
189,F2,76.0,4.0,100,144.0
190,F4,76.0,4.0,70,144.0
191,A4,76.0,4.0,70,144.0
192,C5,76.0,4.0,70,144.0
193,D5,77.0,0.75,100,144.0
194,G#2,77.0,0.5,100,144.0
195,E-2,77.0,1.0,100,144.0
196,C2,77.5,0.5,100,144.0
197,D5,78.0,2.0,100,144.0
198,G#2,79.0,1.0,100,144.0
199,E-2,79.0,1.0,100,144.0
200,E-2,80.0,4.0,100,144.0
201,D5,80.0,1.0,100,144.0
202,C2,80.0,1.0,100,144.0
203,E-4,80.0,4.0,100,144.0
204,B-4,80.0,4.0,100,144.0
205,E-2,80.0,4.0,100,144.0
206,E-4,80.0,4.0,70,144.0
207,G4,80.0,4.0,70,144.0
208,B-4,80.0,4.0,70,144.0
209,G#2,81.0,1.0,100,144.0
210,E-2,81.0,1.0,100,144.0
211,C2,81.5,0.5,100,144.0
212,B-5,82.5,0.5,100,144.0
213,B-5,83.0,1.0,100,144.0
214,G#2,83.0,1.0,100,144.0
215,E-2,83.0,1.0,100,144.0
216,E-2,84.0,4.0,100,144.0
217,C6,84.0,1.0,100,144.0
218,C2,84.0,1.0,100,144.0
219,A5,85.0,1.0,100,144.0
220,G#2,85.0,0.5,100,144.0
221,E-2,85.0,1.0,100,144.0
222,C2,85.5,0.5,100,144.0
223,A5,86.0,1.0,100,144.0
224,B-5,87.0,0.5,100,144.0
225,G#2,87.0,1.0,100,144.0
226,E-2,87.0,1.0,100,144.0
227,A5,87.5,0.5,100,144.0
228,G2,88.0,4.0,100,144.0
229,A5,88.0,2.0,100,144.0
230,C2,88.0,1.0,100,144.0
231,E-4,88.0,4.0,100,144.0
232,B-4,88.0,4.0,100,144.0
233,E-2,88.0,4.0,100,144.0
234,E-4,88.0,4.0,70,144.0
235,G4,88.0,4.0,70,144.0
236,B-4,88.0,4.0,70,144.0
237,G#2,89.0,1.0,100,144.0
238,E-2,89.0,1.0,100,144.0
239,C2,89.5,0.5,100,144.0
240,G#2,91.0,1.0,100,144.0
241,E-2,91.0,1.0,100,144.0
242,F2,92.0,4.0,100,144.0
243,C2,92.0,1.0,100,144.0
244,C4,92.0,4.0,100,144.0
245,G4,92.0,4.0,100,144.0
246,C2,92.0,4.0,100,144.0
247,C4,92.0,4.0,70,144.0
248,E-4,92.0,4.0,70,144.0
249,G4,92.0,4.0,70,144.0
250,G#2,93.0,0.5,100,144.0
251,E-2,93.0,1.0,100,144.0
252,C2,93.5,0.5,100,144.0
253,A5,95.0,1.0,100,144.0
254,G#2,95.0,1.0,100,144.0
255,E-2,95.0,1.0,100,144.0
256,E-2,96.0,4.0,100,144.0
257,B-5,96.0,2.0,100,144.0
258,D4,96.0,4.0,100,144.0
259,A4,96.0,4.0,100,144.0
260,D2,96.0,4.0,100,144.0
261,A4,96.0,4.0,70,144.0
262,F4,96.0,4.0,70,144.0
263,D4,96.0,4.0,70,144.0
264,C2,96.0,1.0,100,144.0
265,F#2,96.0,1.0,100,144.0
266,G#2,97.0,1.0,100,144.0
267,E-2,97.0,1.0,100,144.0
268,F#2,97.0,1.0,100,144.0
269,C2,97.5,0.5,100,144.0
270,F#2,98.0,1.0,100,144.0
271,B-5,99.0,1.0,100,144.0
272,G#2,99.0,1.0,100,144.0
273,E-2,99.0,1.0,100,144.0
274,F#2,99.0,1.0,100,144.0
275,E-2,100.0,4.0,100,144.0
276,B-5,100.0,1.0,100,144.0
277,E-4,100.0,4.0,100,144.0
278,B-4,100.0,4.0,100,144.0
279,E-2,100.0,4.0,100,144.0
280,E-4,100.0,4.0,70,144.0
281,G4,100.0,4.0,70,144.0
282,B-4,100.0,4.0,70,144.0
283,C2,100.0,1.0,100,144.0
284,F#2,100.0,1.0,100,144.0
285,A5,101.0,1.0,100,144.0
286,G#2,101.0,0.5,100,144.0
287,E-2,101.0,1.0,100,144.0
288,F#2,101.0,1.0,100,144.0
289,C2,101.5,0.5,100,144.0
290,G5,102.0,1.0,100,144.0
291,F#2,102.0,1.0,100,144.0
292,F5,103.0,1.0,100,144.0
293,F#2,103.0,1.0,100,144.0
294,E-2,103.0,1.0,100,144.0
295,G#2,103.0,1.0,100,144.0
296,C2,104.0,4.0,100,144.0
297,D5,104.0,2.5,100,144.0
298,C2,104.0,1.0,100,144.0
299,F#2,104.0,1.0,100,144.0
300,G#2,105.0,1.0,100,144.0
301,E-2,105.0,1.0,100,144.0
302,F#2,105.0,1.0,100,144.0
303,C2,105.5,0.5,100,144.0
304,F#2,106.0,1.0,100,144.0
305,B-5,107.0,1.0,100,144.0
306,G#2,107.0,1.0,100,144.0
307,E-2,107.0,1.0,100,144.0
308,F#2,107.0,1.0,100,144.0
309,D2,108.0,4.0,100,144.0
310,B-5,108.0,1.0,100,144.0
311,E-4,108.0,4.0,100,144.0
312,B-4,108.0,4.0,100,144.0
313,E-2,108.0,4.0,100,144.0
314,E-4,108.0,4.0,70,144.0
315,G4,108.0,4.0,70,144.0
316,B-4,108.0,4.0,70,144.0
317,F#2,108.0,1.0,100,144.0
318,C2,108.0,1.0,100,144.0
319,C6,109.0,1.0,100,144.0
320,G#2,109.0,0.5,100,144.0
321,F#2,109.0,1.0,100,144.0
322,E-2,109.0,1.0,100,144.0
323,C2,109.5,0.5,100,144.0
324,D6,110.0,1.0,100,144.0
325,F#2,110.0,1.0,100,144.0
326,A5,111.0,0.5,100,144.0
327,G#2,111.0,1.0,100,144.0
328,E-2,111.0,1.0,100,144.0
329,F#2,111.0,1.0,100,144.0
330,B-5,111.5,0.5,100,144.0
331,E-2,112.0,4.0,100,144.0
332,B-5,112.0,2.0,100,144.0
333,G4,112.0,4.0,100,144.0
334,D5,112.0,4.0,100,144.0
335,G2,112.0,4.0,100,144.0
336,G4,112.0,4.0,70,144.0
337,B-4,112.0,4.0,70,144.0
338,D5,112.0,4.0,70,144.0
339,C2,112.0,1.0,100,144.0
340,F#2,112.0,1.0,100,144.0
341,F#2,113.0,1.0,100,144.0
342,E-2,113.0,1.0,100,144.0
343,G#2,113.0,1.0,100,144.0
344,C2,113.5,0.5,100,144.0
345,F#2,114.0,1.0,100,144.0
346,B-5,115.0,1.0,100,144.0
347,F#2,115.0,1.0,100,144.0
348,E-2,115.0,1.0,100,144.0
349,G#2,115.0,1.0,100,144.0
350,E-2,116.0,4.0,100,144.0
351,B-5,116.0,1.0,100,144.0
352,F4,116.0,4.0,100,144.0
353,C5,116.0,4.0,100,144.0
354,F2,116.0,4.0,100,144.0
355,F4,116.0,4.0,70,144.0
356,A4,116.0,4.0,70,144.0
357,C5,116.0,4.0,70,144.0
358,F#2,116.0,1.0,100,144.0
359,C2,116.0,1.0,100,144.0
360,A5,117.0,1.0,100,144.0
361,G#2,117.0,0.5,100,144.0
362,F#2,117.0,1.0,100,144.0
363,E-2,117.0,1.0,100,144.0
364,C2,117.5,0.5,100,144.0
365,G5,118.0,1.0,100,144.0
366,F#2,118.0,1.0,100,144.0
367,F5,119.0,1.0,100,144.0
368,F#2,119.0,1.0,100,144.0
369,E-2,119.0,1.0,100,144.0
370,G#2,119.0,1.0,100,144.0
371,G2,120.0,4.0,100,144.0
372,G5,120.0,2.0,100,144.0
373,D2,120.0,0.5,100,144.0
374,E-4,120.0,4.0,100,144.0
375,B-4,120.0,4.0,100,144.0
376,E-2,120.0,4.0,100,144.0
377,E-4,120.0,4.0,70,144.0
378,G4,120.0,4.0,70,144.0
379,B-4,120.0,4.0,70,144.0
380,F#2,120.0,1.0,100,144.0
381,C2,120.0,1.0,100,144.0
382,D2,120.5,0.5,100,144.0
383,D2,121.0,0.5,100,144.0
384,F#2,121.0,1.0,100,144.0
385,G#2,121.0,1.0,100,144.0
386,E-2,121.0,1.0,100,144.0
387,C2,121.5,0.5,100,144.0
388,D2,121.5,0.5,100,144.0
389,A5,122.0,2.0,100,144.0
390,F#2,122.0,1.0,100,144.0
391,D2,122.0,0.5,100,144.0
392,D2,122.5,0.5,100,144.0
393,D2,123.0,0.5,100,144.0
394,F#2,123.0,1.0,100,144.0
395,G#2,123.0,1.0,100,144.0
396,E-2,123.0,1.0,100,144.0
397,D2,123.5,0.5,100,144.0
398,E-2,124.0,4.0,100,144.0
399,B-5,124.0,2.0,100,144.0
400,C#3,124.0,1.0,100,144.0
401,C2,124.0,1.0,100,144.0
402,E-6,126.0,1.0,100,144.0
403,C2,127.0,1.0,100,144.0
404,D6,127.5,0.5,100,144.0
405,E-2,128.0,4.0,100,144.0
406,D6,128.0,0.5,100,144.0
407,E-4,128.0,4.0,100,144.0
408,B-4,128.0,4.0,100,144.0
409,E-2,128.0,4.0,100,144.0
410,E-4,128.0,4.0,70,144.0
411,G4,128.0,4.0,70,144.0
412,B-4,128.0,4.0,70,144.0
413,C2,128.0,1.0,100,144.0
414,C#3,128.0,1.0,100,144.0
415,G#2,128.5,0.25,100,144.0
416,G#2,128.75,0.25,100,144.0
417,G#2,129.0,0.25,100,144.0
418,G#2,129.25,0.25,100,144.0
419,G#2,129.5,0.25,100,144.0
420,G#2,130.0,0.25,100,144.0
421,E-2,130.0,1.0,100,144.0
422,G#2,130.75,0.25,100,144.0
423,C2,131.0,1.0,100,144.0
424,G#2,131.0,0.25,100,144.0
425,G#2,131.25,0.25,100,144.0
426,G#2,131.5,0.25,100,144.0
427,E-2,132.0,4.0,100,144.0
428,G#2,132.0,0.25,100,144.0
429,C4,132.0,4.0,100,144.0
430,G4,132.0,4.0,100,144.0
431,C2,132.0,4.0,100,144.0
432,G4,132.0,4.0,70,144.0
433,E-4,132.0,4.0,70,144.0
434,C4,132.0,4.0,70,144.0
435,G#2,132.5,0.25,100,144.0
436,G#2,132.75,0.25,100,144.0
437,C2,133.0,1.0,100,144.0
438,G#2,133.0,0.25,100,144.0
439,G#2,133.25,0.25,100,144.0
440,G#2,133.5,0.25,100,144.0
441,E-2,134.0,1.0,100,144.0
442,G#2,134.0,0.25,100,144.0
443,G#2,134.75,0.25,100,144.0
444,G#2,135.0,0.25,100,144.0
445,G#2,135.25,0.25,100,144.0
446,G#2,135.5,0.25,100,144.0
447,G2,136.0,4.0,100,144.0
448,G#2,136.0,0.25,100,144.0
449,C2,136.0,1.0,100,144.0
450,D2,136.0,4.0,100,144.0
451,A4,136.0,4.0,100,144.0
452,D4,136.0,4.0,100,144.0
453,F4,136.0,4.0,70,144.0
454,D4,136.0,4.0,70,144.0
455,A4,136.0,4.0,70,144.0
456,G#2,136.5,0.25,100,144.0
457,G#2,136.75,0.25,100,144.0
458,G#2,137.0,0.25,100,144.0
459,G#2,137.25,0.25,100,144.0
460,G#2,137.5,0.25,100,144.0
461,E-2,138.0,1.0,100,144.0
462,G#2,138.0,0.25,100,144.0
463,G#2,138.75,0.25,100,144.0
464,C2,139.0,1.0,100,144.0
465,G#2,139.0,0.25,100,144.0
466,G#2,139.25,0.25,100,144.0
467,G#2,139.5,0.25,100,144.0
468,F2,140.0,4.0,100,144.0
469,G#2,140.0,0.25,100,144.0
470,E-4,140.0,4.0,100,144.0
471,B-4,140.0,4.0,100,144.0
472,E-2,140.0,4.0,100,144.0
473,E-4,140.0,4.0,70,144.0
474,G4,140.0,4.0,70,144.0
475,B-4,140.0,4.0,70,144.0
476,G#2,140.5,0.25,100,144.0
477,C2,140.5,0.5,100,144.0
478,G#2,140.75,0.25,100,144.0
479,G#2,141.0,0.25,100,144.0
480,C2,141.0,1.0,100,144.0
481,G#2,141.25,0.25,100,144.0
482,G#2,141.5,0.25,100,144.0
483,E-2,142.0,1.0,100,144.0
484,G#2,142.0,0.25,100,144.0
485,G#2,142.75,0.25,100,144.0
486,C2,143.0,1.0,100,144.0
487,G#2,143.0,0.25,100,144.0
488,G#2,143.25,0.25,100,144.0
489,G#2,143.5,0.25,100,144.0
490,E-2,144.0,4.0,100,144.0
491,C2,144.0,1.0,100,144.0
492,G#2,144.0,0.25,100,144.0
493,G#2,144.5,0.25,100,144.0
494,G#2,144.75,0.25,100,144.0
495,G#2,145.0,0.25,100,144.0
496,G#2,145.25,0.25,100,144.0
497,G#2,145.5,0.25,100,144.0
498,E-2,146.0,1.0,100,144.0
499,G#2,146.0,0.25,100,144.0
500,G#2,146.75,0.25,100,144.0
501,C2,147.0,1.0,100,144.0
502,G#2,147.0,0.25,100,144.0
503,G#2,147.25,0.25,100,144.0
504,G#2,147.5,0.25,100,144.0
505,E-2,148.0,4.0,100,144.0
506,G#2,148.0,0.25,100,144.0
507,E-4,148.0,4.0,100,144.0
508,B-4,148.0,4.0,100,144.0
509,E-2,148.0,4.0,100,144.0
510,E-4,148.0,4.0,70,144.0
511,G4,148.0,4.0,70,144.0
512,B-4,148.0,4.0,70,144.0
513,G#2,148.5,0.25,100,144.0
514,G#2,148.75,0.25,100,144.0
515,C2,149.0,1.0,100,144.0
516,G#2,149.0,0.25,100,144.0
517,G#2,149.25,0.25,100,144.0
518,G#2,149.5,0.25,100,144.0
519,E-2,150.0,1.0,100,144.0
520,G#2,150.0,0.25,100,144.0
521,G#2,150.75,0.25,100,144.0
522,G#2,151.0,0.25,100,144.0
523,G#2,151.25,0.25,100,144.0
524,G#2,151.5,0.25,100,144.0
525,G2,152.0,4.0,100,144.0
526,C2,152.0,1.0,100,144.0
527,G#2,152.0,0.25,100,144.0
528,G2,152.0,4.0,100,144.0
529,D5,152.0,4.0,100,144.0
530,G4,152.0,4.0,100,144.0
531,G4,152.0,4.0,70,144.0
532,B-4,152.0,4.0,70,144.0
533,D5,152.0,4.0,70,144.0
534,G#2,152.5,0.25,100,144.0
535,G#2,152.75,0.25,100,144.0
536,G#2,153.0,0.25,100,144.0
537,G#2,153.25,0.25,100,144.0
538,G#2,153.5,0.25,100,144.0
539,E-2,154.0,1.0,100,144.0
540,G#2,154.0,0.25,100,144.0
541,G#2,154.75,0.25,100,144.0
542,C2,155.0,1.0,100,144.0
543,G#2,155.0,0.25,100,144.0
544,G#2,155.25,0.25,100,144.0
545,G#2,155.5,0.25,100,144.0
546,E-2,156.0,4.0,100,144.0
547,F2,156.0,4.0,100,144.0
548,G#2,156.0,0.25,100,144.0
549,C2,156.5,0.5,100,144.0
550,G#2,156.5,0.25,100,144.0
551,G#2,156.75,0.25,100,144.0
552,C2,157.0,1.0,100,144.0
553,G#2,157.0,0.25,100,144.0
554,G#2,157.25,0.25,100,144.0
555,G#2,157.5,0.25,100,144.0
556,E-2,158.0,1.0,100,144.0
557,G#2,158.0,0.25,100,144.0
558,G#2,158.75,0.25,100,144.0
559,C2,159.0,1.0,100,144.0
560,G#2,159.0,0.25,100,144.0
561,G#2,159.25,0.25,100,144.0
562,G#2,159.5,0.25,100,144.0
563,E-2,160.0,4.0,100,144.0
564,C2,160.0,1.0,100,144.0
565,G#2,160.0,0.25,100,144.0
566,E-4,160.0,4.0,70,144.0
567,G4,160.0,4.0,70,144.0
568,B-4,160.0,4.0,70,144.0
569,G#2,160.5,0.25,100,144.0
570,F5,160.75,0.25,100,144.0
571,G#2,160.75,0.25,100,144.0
572,B-5,161.0,0.5,100,144.0
573,G#2,161.0,0.25,100,144.0
574,G#2,161.25,0.25,100,144.0
575,F5,161.5,1.0,100,144.0
576,G#2,161.5,0.25,100,144.0
577,E-2,162.0,1.0,100,144.0
578,G#2,162.0,0.25,100,144.0
579,G#2,162.75,0.25,100,144.0
580,B-4,163.0,0.5,100,144.0
581,C2,163.0,1.0,100,144.0
582,G#2,163.0,0.25,100,144.0
583,G#2,163.25,0.25,100,144.0
584,F4,163.5,0.5,100,144.0
585,G#2,163.5,0.25,100,144.0
586,B-4,164.0,0.5,100,144.0
587,E-2,164.0,4.0,100,144.0
588,G#2,164.0,0.25,100,144.0
589,G#2,164.5,0.25,100,144.0
590,F4,164.75,0.25,100,144.0
591,G#2,164.75,0.25,100,144.0
592,B-4,165.0,0.5,100,144.0
593,C2,165.0,1.0,100,144.0
594,G#2,165.0,0.25,100,144.0
595,G#2,165.25,0.25,100,144.0
596,F4,165.5,0.5,100,144.0
597,G#2,165.5,0.25,100,144.0
598,E-2,166.0,1.0,100,144.0
599,G#2,166.0,0.25,100,144.0
600,F4,166.75,0.25,100,144.0
601,G#2,166.75,0.25,100,144.0
602,B-4,167.0,0.5,100,144.0
603,G#2,167.0,0.25,100,144.0
604,G#2,167.25,0.25,100,144.0
605,F4,167.5,0.5,100,144.0
606,G#2,167.5,0.25,100,144.0
607,B-4,168.0,0.5,100,144.0
608,G2,168.0,4.0,100,144.0
609,C2,168.0,1.0,100,144.0
610,G#2,168.0,0.25,100,144.0
611,E-4,168.0,4.0,70,144.0
612,G4,168.0,4.0,70,144.0
613,B-4,168.0,4.0,70,144.0
614,G#2,168.5,0.25,100,144.0
615,F4,168.75,0.25,100,144.0
616,G#2,168.75,0.25,100,144.0
617,B-4,169.0,0.5,100,144.0
618,G#2,169.0,0.25,100,144.0
619,G#2,169.25,0.25,100,144.0
620,F4,169.5,0.5,100,144.0
621,G#2,169.5,0.25,100,144.0
622,E-2,170.0,1.0,100,144.0
623,G#2,170.0,0.25,100,144.0
624,F4,170.75,0.25,100,144.0
625,G#2,170.75,0.25,100,144.0
626,B-4,171.0,0.5,100,144.0
627,C2,171.0,1.0,100,144.0
628,G#2,171.0,0.25,100,144.0
629,G#2,171.25,0.25,100,144.0
630,F4,171.5,0.5,100,144.0
631,G#2,171.5,0.25,100,144.0
632,B-4,172.0,0.5,100,144.0
633,F2,172.0,4.0,100,144.0
634,G#2,172.0,0.25,100,144.0
635,G4,172.0,4.0,70,144.0
636,B-4,172.0,4.0,70,144.0
637,D5,172.0,4.0,70,144.0
638,C2,172.5,0.5,100,144.0
639,G#2,172.5,0.25,100,144.0
640,F4,172.75,0.25,100,144.0
641,G#2,172.75,0.25,100,144.0
642,A4,173.0,0.5,100,144.0
643,G#2,173.0,0.25,100,144.0
644,C2,173.0,1.0,100,144.0
645,G#2,173.25,0.25,100,144.0
646,F4,173.5,0.5,100,144.0
647,G#2,173.5,0.25,100,144.0
648,A4,174.0,0.5,100,144.0
649,G#2,174.0,0.25,100,144.0
650,E-2,174.0,1.0,100,144.0
651,F4,174.75,0.25,100,144.0
652,G#2,174.75,0.25,100,144.0
653,B-4,175.0,0.5,100,144.0
654,G#2,175.0,0.25,100,144.0
655,C2,175.0,1.0,100,144.0
656,G#2,175.25,0.25,100,144.0
657,F4,175.5,0.5,100,144.0
658,G#2,175.5,0.25,100,144.0
659,B-4,176.0,0.5,100,144.0
660,E-2,176.0,4.0,100,144.0
661,C2,176.0,1.0,100,144.0
662,G#2,176.0,0.25,100,144.0
663,F4,176.0,4.0,70,144.0
664,A4,176.0,4.0,70,144.0
665,C5,176.0,4.0,70,144.0
666,G#2,176.5,0.25,100,144.0
667,F4,176.75,0.25,100,144.0
668,G#2,176.75,0.25,100,144.0
669,B-4,177.0,0.5,100,144.0
670,G#2,177.0,0.25,100,144.0
671,G#2,177.25,0.25,100,144.0
672,F4,177.5,0.5,100,144.0
673,G#2,177.5,0.25,100,144.0
674,G#2,178.0,0.25,100,144.0
675,E-2,178.0,1.0,100,144.0
676,F4,178.75,0.25,100,144.0
677,G#2,178.75,0.25,100,144.0
678,B-4,179.0,0.5,100,144.0
679,G#2,179.0,0.25,100,144.0
680,C2,179.0,1.0,100,144.0
681,G#2,179.25,0.25,100,144.0
682,F4,179.5,0.5,100,144.0
683,G#2,179.5,0.25,100,144.0
684,B-4,180.0,0.5,100,144.0
685,E-2,180.0,4.0,100,144.0
686,G#2,180.0,0.25,100,144.0
687,E-4,180.0,4.0,70,144.0
688,G4,180.0,4.0,70,144.0
689,B-4,180.0,4.0,70,144.0
690,G#2,180.5,0.25,100,144.0
691,F4,180.75,0.25,100,144.0
692,G#2,180.75,0.25,100,144.0
693,B-4,181.0,0.5,100,144.0
694,C2,181.0,1.0,100,144.0
695,G#2,181.0,0.25,100,144.0
696,G#2,181.25,0.25,100,144.0
697,F4,181.5,0.5,100,144.0
698,G#2,181.5,0.25,100,144.0
699,E-2,182.0,1.0,100,144.0
700,G#2,182.0,0.25,100,144.0
701,F4,182.75,0.25,100,144.0
702,G#2,182.75,0.25,100,144.0
703,B-4,183.0,0.5,100,144.0
704,G#2,183.0,0.25,100,144.0
705,G#2,183.25,0.25,100,144.0
706,F4,183.5,0.5,100,144.0
707,G#2,183.5,0.25,100,144.0
708,B-4,184.0,0.5,100,144.0
709,G2,184.0,4.0,100,144.0
710,C2,184.0,1.0,100,144.0
711,G#2,184.0,0.25,100,144.0
712,G#2,184.5,0.25,100,144.0
713,F4,184.75,0.25,100,144.0
714,G#2,184.75,0.25,100,144.0
715,B-4,185.0,0.5,100,144.0
716,G#2,185.0,0.25,100,144.0
717,G#2,185.25,0.25,100,144.0
718,F4,185.5,0.5,100,144.0
719,G#2,185.5,0.25,100,144.0
720,G#2,186.0,0.25,100,144.0
721,E-2,186.0,1.0,100,144.0
722,F4,186.75,0.25,100,144.0
723,G#2,186.75,0.25,100,144.0
724,B-4,187.0,0.5,100,144.0
725,B-5,187.0,1.0,100,144.0
726,G#2,187.0,0.25,100,144.0
727,C2,187.0,1.0,100,144.0
728,G#2,187.25,0.25,100,144.0
729,F4,187.5,0.5,100,144.0
730,G#2,187.5,0.25,100,144.0
731,B-4,188.0,0.5,100,144.0
732,F2,188.0,4.0,100,144.0
733,B-5,188.0,1.0,100,144.0
734,G#2,188.0,0.25,100,144.0
735,E-4,188.0,4.0,70,144.0
736,G4,188.0,4.0,70,144.0
737,B-4,188.0,4.0,70,144.0
738,G#2,188.5,0.25,100,144.0
739,C2,188.5,0.5,100,144.0
740,F4,188.75,0.25,100,144.0
741,G#2,188.75,0.25,100,144.0
742,A4,189.0,0.5,100,144.0
743,C6,189.0,1.0,100,144.0
744,G#2,189.0,0.25,100,144.0
745,C2,189.0,1.0,100,144.0
746,G#2,189.25,0.25,100,144.0
747,F4,189.5,0.5,100,144.0
748,G#2,189.5,0.25,100,144.0
749,A4,190.0,0.5,100,144.0
750,D6,190.0,1.0,100,144.0
751,G#2,190.0,0.25,100,144.0
752,E-2,190.0,1.0,100,144.0
753,F4,190.75,0.25,100,144.0
754,G#2,190.75,0.25,100,144.0
755,B-4,191.0,0.5,100,144.0
756,A5,191.0,0.5,100,144.0
757,G#2,191.0,0.25,100,144.0
758,C2,191.0,1.0,100,144.0
759,G#2,191.25,0.25,100,144.0
760,F4,191.5,0.5,100,144.0
761,B-5,191.5,0.5,100,144.0
762,G#2,191.5,0.25,100,144.0
763,B-5,192.0,2.0,100,144.0
764,G#2,192.0,0.25,100,144.0
765,G4,192.0,4.0,70,144.0
766,B-4,192.0,4.0,70,144.0
767,D5,192.0,4.0,70,144.0
768,C2,192.0,1.0,100,144.0
769,C#3,192.0,1.0,100,144.0
770,F5,192.75,0.25,100,144.0
771,B-5,193.0,0.5,100,144.0
772,F5,193.5,1.0,100,144.0
773,B-4,195.0,0.5,100,144.0
774,F4,195.5,0.5,100,144.0
775,B-4,196.0,0.5,100,144.0
776,F4,196.0,4.0,70,144.0
777,A4,196.0,4.0,70,144.0
778,C5,196.0,4.0,70,144.0
779,F4,196.75,0.25,100,144.0
780,B-4,197.0,0.5,100,144.0
781,F4,197.5,0.5,100,144.0
782,F4,198.75,0.25,100,144.0
783,B-4,199.0,0.5,100,144.0
784,F4,199.5,0.5,100,144.0
785,B-4,200.0,0.5,100,144.0
786,E-4,200.0,4.0,70,144.0
787,G4,200.0,4.0,70,144.0
788,B-4,200.0,4.0,70,144.0
789,F4,200.75,0.25,100,144.0
790,B-4,201.0,0.5,100,144.0
791,F4,201.5,0.5,100,144.0
792,F4,202.75,0.25,100,144.0
793,B-4,203.0,0.5,100,144.0
794,F4,203.5,0.5,100,144.0
795,B-4,204.0,0.5,100,144.0
796,F4,204.75,0.25,100,144.0
797,A4,205.0,0.5,100,144.0
798,F4,205.5,0.5,100,144.0
799,A4,206.0,0.5,100,144.0
800,F4,206.75,0.25,100,144.0
801,B-4,207.0,0.5,100,144.0
802,F4,207.5,0.5,100,144.0
803,B-4,208.0,0.5,100,144.0
804,E-4,208.0,4.0,70,144.0
805,G4,208.0,4.0,70,144.0
806,B-4,208.0,4.0,70,144.0
807,F4,208.75,0.25,100,144.0
808,B-4,209.0,0.5,100,144.0
809,F4,209.5,0.5,100,144.0
810,F4,210.75,0.25,100,144.0
811,B-4,211.0,0.5,100,144.0
812,F4,211.5,0.5,100,144.0
813,B-4,212.0,0.5,100,144.0
814,G4,212.0,4.0,70,144.0
815,B-4,212.0,4.0,70,144.0
816,D5,212.0,4.0,70,144.0
817,F4,212.75,0.25,100,144.0
818,B-4,213.0,0.5,100,144.0
819,F4,213.5,0.5,100,144.0
820,F4,214.75,0.25,100,144.0
821,B-4,215.0,0.5,100,144.0
822,F4,215.5,0.5,100,144.0
823,B-4,216.0,0.5,100,144.0
824,F4,216.0,4.0,70,144.0
825,A4,216.0,4.0,70,144.0
826,C5,216.0,4.0,70,144.0
827,F4,216.75,0.25,100,144.0
828,B-4,217.0,0.5,100,144.0
829,F4,217.5,0.5,100,144.0
830,F4,218.75,0.25,100,144.0
831,B-4,219.0,0.5,100,144.0
832,F4,219.5,0.5,100,144.0
833,B-4,220.0,0.5,100,144.0
834,E-4,220.0,4.0,70,144.0
835,G4,220.0,4.0,70,144.0
836,B-4,220.0,4.0,70,144.0
837,F4,220.75,0.25,100,144.0
838,A4,221.0,0.5,100,144.0
839,F4,221.5,0.5,100,144.0
840,A4,222.0,0.5,100,144.0
841,F4,222.75,0.25,100,144.0
842,B-4,223.0,0.5,100,144.0
843,F4,223.5,0.5,100,144.0
844,E-4,228.0,4.0,70,144.0
845,G4,228.0,4.0,70,144.0
846,B-4,228.0,4.0,70,144.0
847,G4,232.0,4.0,70,144.0
848,B-4,232.0,4.0,70,144.0
849,D5,232.0,4.0,70,144.0
850,F4,236.0,4.0,70,144.0
851,A4,236.0,4.0,70,144.0
852,C5,236.0,4.0,70,144.0
