,note_name,start_time,duration,velocity,tempo
0,E4,0.0,0.75,95,83.0
1,E-3,0.0,0.062,95,83.0
2,G5,0.0,2.0,127,83.0
3,G4,0.0,2.0,127,83.0
4,E-3,0.062,0.062,95,83.0
5,E-3,0.125,0.062,95,83.0
6,E-3,0.188,0.062,95,83.0
7,E-3,0.25,0.062,95,83.0
8,E-3,0.312,0.062,95,83.0
9,E-3,0.375,0.062,95,83.0
10,E-3,0.438,0.062,95,83.0
11,E-3,0.5,0.062,95,83.0
12,E-3,0.562,0.062,95,83.0
13,E-3,0.625,0.062,95,83.0
14,E-3,0.688,0.062,95,83.0
15,E-3,0.75,0.062,95,83.0
16,E-3,0.812,0.062,95,83.0
17,E-3,0.875,0.062,95,83.0
18,E-3,0.938,0.062,95,83.0
19,E4,1.0,0.75,95,83.0
20,E4,2.0,0.75,95,83.0
21,F4,2.0,1.5,127,83.0
22,F5,2.0,1.5,127,83.0
23,E4,3.0,0.75,95,83.0
24,E5,3.5,0.5,127,83.0
25,E4,3.5,0.5,127,83.0
26,E4,4.0,0.75,95,83.0
27,E4,5.0,0.75,95,83.0
28,E4,6.0,0.75,95,83.0
29,E4,7.0,0.75,95,83.0
30,E4,8.0,0.75,95,83.0
31,E-3,8.0,0.062,95,83.0
32,E5,8.0,4.0,127,83.0
33,E4,8.0,4.0,127,83.0
34,E-3,8.062,0.062,95,83.0
35,E-3,8.125,0.062,95,83.0
36,E-3,8.188,0.062,95,83.0
37,E-3,8.25,0.062,95,83.0
38,E-3,8.312,0.062,95,83.0
39,E-3,8.375,0.062,95,83.0
40,E-3,8.438,0.062,95,83.0
41,E-3,8.5,0.062,95,83.0
42,E-3,8.562,0.062,95,83.0
43,E-3,8.625,0.062,95,83.0
44,E-3,8.688,0.062,95,83.0
45,E-3,8.75,0.062,95,83.0
46,E-3,8.812,0.062,95,83.0
47,E-3,8.875,0.062,95,83.0
48,E-3,8.938,0.062,95,83.0
49,E4,9.0,0.75,95,83.0
50,E4,10.0,0.75,95,83.0
51,E4,11.0,0.75,95,83.0
52,B1,12.0,0.25,95,83.0
53,E4,12.0,0.75,95,83.0
54,B4,12.0,0.5,95,83.0
55,B5,12.0,0.5,95,83.0
56,C5,12.5,1.5,127,83.0
57,C6,12.5,1.5,127,83.0
58,B1,12.68,0.25,95,83.0
59,B1,13.0,0.25,95,83.0
60,E4,13.0,0.75,95,83.0
61,B1,13.602,0.25,95,83.0
62,D2,14.0,0.25,95,83.0
63,E4,14.0,0.75,95,83.0
64,F4,14.0,1.5,127,83.0
65,F5,14.0,1.5,127,83.0
66,B1,14.292,0.25,95,83.0
67,B1,15.0,0.25,95,83.0
68,D4,15.0,0.75,95,83.0
69,E5,15.5,0.5,127,83.0
70,E4,15.5,0.5,127,83.0
71,F1,16.0,0.5,127,83.0
72,E4,16.0,0.75,95,83.0
73,C#3,16.0,0.25,95,83.0
74,F#3,16.0,0.25,73,83.0
75,B1,16.0,0.25,73,83.0
76,F#3,16.25,0.25,19,83.0
77,F#3,16.5,0.25,73,83.0
78,F#2,16.5,0.25,73,83.0
79,F1,16.75,0.25,127,83.0
80,B1,16.75,0.25,73,83.0
81,F#3,16.75,0.25,73,83.0
82,F1,17.0,0.25,127,83.0
83,E4,17.0,0.75,95,83.0
84,F#3,17.0,0.25,91,83.0
85,D2,17.0,0.25,91,83.0
86,B1,17.0,0.25,91,83.0
87,F#3,17.25,0.25,19,83.0
88,A1,17.5,1.0,127,83.0
89,F#2,17.5,0.25,73,83.0
90,F#3,17.5,0.25,73,83.0
91,F#3,17.75,0.25,19,83.0
92,E4,18.0,0.75,95,83.0
93,B1,18.0,0.25,73,83.0
94,F#3,18.0,0.25,73,83.0
95,F#3,18.25,0.25,19,83.0
96,D1,18.5,0.5,127,83.0
97,F#3,18.5,0.25,73,83.0
98,F#2,18.5,0.25,73,83.0
99,F#3,18.75,0.25,19,83.0
100,D1,19.0,1.0,127,83.0
101,E4,19.0,0.75,95,83.0
102,B1,19.0,0.25,91,83.0
103,F#3,19.0,0.25,91,83.0
104,D2,19.0,0.25,91,83.0
105,F#3,19.25,0.25,19,83.0
106,F#2,19.5,0.25,73,83.0
107,F#3,19.5,0.25,73,83.0
108,F#3,19.75,0.25,19,83.0
109,E4,20.0,0.75,95,83.0
110,F#3,20.0,0.25,73,83.0
111,B1,20.0,0.25,73,83.0
112,E5,20.0,4.0,127,83.0
113,E4,20.0,4.0,127,83.0
114,F#3,20.25,0.25,19,83.0
115,A1,20.5,0.25,127,83.0
116,F#2,20.5,0.25,73,83.0
117,F#3,20.5,0.25,73,83.0
118,F#3,20.75,0.25,19,83.0
119,A1,21.0,1.0,127,83.0
120,E4,21.0,0.75,95,83.0
121,F#3,21.0,0.25,91,83.0
122,D2,21.0,0.25,91,83.0
123,B1,21.0,0.25,91,83.0
124,F#3,21.25,0.25,19,83.0
125,F#2,21.5,0.25,73,83.0
126,F#3,21.5,0.25,73,83.0
127,F#3,21.75,0.25,19,83.0
128,E4,22.0,0.75,95,83.0
129,B1,22.0,0.25,73,83.0
130,F#3,22.0,0.25,73,83.0
131,F#3,22.25,0.25,19,83.0
132,A1,22.5,0.25,127,83.0
133,F#2,22.5,0.25,73,83.0
134,F#3,22.5,0.25,73,83.0
135,F#3,22.75,0.25,19,83.0
136,A1,23.0,0.75,127,83.0
137,D4,23.0,0.75,95,83.0
138,D2,23.0,0.25,91,83.0
139,F#3,23.0,0.25,91,83.0
140,B1,23.0,0.25,91,83.0
141,F#3,23.25,0.25,19,83.0
142,F#3,23.5,0.25,73,83.0
143,F#2,23.5,0.25,73,83.0
144,F#3,23.75,0.25,19,83.0
145,F1,24.0,0.5,127,83.0
146,E4,24.0,0.75,95,83.0
147,F#3,24.0,0.25,73,83.0
148,B1,24.0,0.25,73,83.0
149,F#3,24.25,0.25,19,83.0
150,F#3,24.5,0.25,73,83.0
151,F#2,24.5,0.25,73,83.0
152,F1,24.75,0.25,127,83.0
153,F#3,24.75,0.25,73,83.0
154,B1,24.75,0.25,73,83.0
155,F1,25.0,0.25,127,83.0
156,E4,25.0,0.75,95,83.0
157,F#3,25.0,0.25,91,83.0
158,D2,25.0,0.25,91,83.0
159,B1,25.0,0.25,91,83.0
160,F#3,25.25,0.25,19,83.0
161,A1,25.5,1.0,127,83.0
162,F#2,25.5,0.25,73,83.0
163,F#3,25.5,0.25,73,83.0
164,F#3,25.75,0.25,19,83.0
165,E4,26.0,0.75,95,83.0
166,B1,26.0,0.25,73,83.0
167,F#3,26.0,0.25,73,83.0
168,F#3,26.25,0.25,19,83.0
169,D1,26.5,0.5,127,83.0
170,F#3,26.5,0.25,73,83.0
171,F#2,26.5,0.25,73,83.0
172,F#3,26.75,0.25,19,83.0
173,D1,27.0,1.0,127,83.0
174,E4,27.0,0.75,95,83.0
175,F#3,27.0,0.25,91,83.0
176,B1,27.0,0.25,91,83.0
177,D2,27.0,0.25,91,83.0
178,F#3,27.25,0.25,19,83.0
179,F#3,27.5,0.25,73,83.0
180,F#2,27.5,0.25,73,83.0
181,F#3,27.75,0.25,19,83.0
182,E4,28.0,0.75,95,83.0
183,B1,28.0,0.25,73,83.0
184,F#3,28.0,0.25,73,83.0
185,F#3,28.25,0.25,19,83.0
186,A1,28.5,0.25,127,83.0
187,F#3,28.5,0.25,73,83.0
188,F#2,28.5,0.25,73,83.0
189,F#3,28.75,0.25,19,83.0
190,A1,29.0,1.0,127,83.0
191,E4,29.0,0.75,95,83.0
192,F#3,29.0,0.25,91,83.0
193,B1,29.0,0.25,91,83.0
194,D2,29.0,0.25,91,83.0
195,F#3,29.25,0.25,19,83.0
196,F#3,29.5,0.25,73,83.0
197,F#2,29.5,0.25,73,83.0
198,F#3,29.75,0.25,19,83.0
199,A3,30.0,0.75,95,83.0
200,B1,30.0,0.25,73,83.0
201,F#3,30.0,0.25,73,83.0
202,F#3,30.25,0.25,19,83.0
203,A1,30.5,0.25,127,83.0
204,F#2,30.5,0.25,73,83.0
205,F#3,30.5,0.25,73,83.0
206,F#3,30.75,0.25,19,83.0
207,A1,31.0,0.75,127,83.0
208,G3,31.0,0.75,95,83.0
209,D2,31.0,0.25,91,83.0
210,F#3,31.0,0.25,91,83.0
211,B1,31.0,0.25,91,83.0
212,F#3,31.25,0.25,19,83.0
213,F#3,31.5,0.25,73,83.0
214,F#2,31.5,0.25,73,83.0
215,F#3,31.75,0.25,57,83.0
216,D2,31.75,0.25,57,83.0
217,F1,32.0,0.5,127,83.0
218,E4,32.0,0.75,95,83.0
219,F#3,32.0,0.25,73,83.0
220,B1,32.0,0.25,73,83.0
221,F#3,32.25,0.25,19,83.0
222,F#3,32.5,0.25,73,83.0
223,F#2,32.5,0.25,73,83.0
224,F1,32.75,0.25,127,83.0
225,F#3,32.75,0.25,73,83.0
226,B1,32.75,0.25,73,83.0
227,F1,33.0,0.25,127,83.0
228,E4,33.0,0.75,95,83.0
229,D2,33.0,0.25,91,83.0
230,F#3,33.0,0.25,91,83.0
231,B1,33.0,0.25,91,83.0
232,F#3,33.25,0.25,19,83.0
233,A1,33.5,1.0,127,83.0
234,F#2,33.5,0.25,73,83.0
235,F#3,33.5,0.25,73,83.0
236,F#3,33.75,0.25,19,83.0
237,E4,34.0,0.75,95,83.0
238,F#3,34.0,0.25,73,83.0
239,B1,34.0,0.25,73,83.0
240,F#3,34.25,0.25,19,83.0
241,D1,34.5,0.5,127,83.0
242,F#3,34.5,0.25,73,83.0
243,F#2,34.5,0.25,73,83.0
244,F#3,34.75,0.25,19,83.0
245,D1,35.0,1.0,127,83.0
246,E4,35.0,0.75,95,83.0
247,F#3,35.0,0.25,91,83.0
248,D2,35.0,0.25,91,83.0
249,B1,35.0,0.25,91,83.0
250,F#3,35.25,0.25,19,83.0
251,F#2,35.5,0.25,73,83.0
252,F#3,35.5,0.25,73,83.0
253,F#3,35.75,0.25,19,83.0
254,E4,36.0,0.75,95,83.0
255,B1,36.0,0.25,73,83.0
256,F#3,36.0,0.25,73,83.0
257,F#3,36.25,0.25,19,83.0
258,A1,36.5,0.25,127,83.0
259,F#3,36.5,0.25,73,83.0
260,F#2,36.5,0.25,73,83.0
261,F#3,36.75,0.25,19,83.0
262,A1,37.0,1.0,127,83.0
263,E4,37.0,0.75,95,83.0
264,F#3,37.0,0.25,91,83.0
265,D2,37.0,0.25,91,83.0
266,B1,37.0,0.25,91,83.0
267,F#3,37.25,0.25,19,83.0
268,F#2,37.5,0.25,73,83.0
269,F#3,37.5,0.25,73,83.0
270,F#3,37.75,0.25,19,83.0
271,E4,38.0,0.75,95,83.0
272,B1,38.0,0.25,73,83.0
273,F#3,38.0,0.25,73,83.0
274,F#3,38.25,0.25,19,83.0
275,A1,38.5,0.25,127,83.0
276,F#2,38.5,0.25,73,83.0
277,F#3,38.5,0.25,73,83.0
278,F#3,38.75,0.25,19,83.0
279,A1,39.0,0.75,127,83.0
280,D4,39.0,0.75,95,83.0
281,B1,39.0,0.25,91,83.0
282,F#3,39.0,0.25,91,83.0
283,D2,39.0,0.25,91,83.0
284,F#3,39.25,0.25,19,83.0
285,F#2,39.5,0.25,73,83.0
286,F#3,39.5,0.25,73,83.0
287,F#3,39.75,0.25,19,83.0
288,F1,40.0,0.5,127,83.0
289,E4,40.0,0.75,95,83.0
290,B1,40.0,0.25,73,83.0
291,F#3,40.0,0.25,73,83.0
292,F#3,40.25,0.25,19,83.0
293,F#2,40.5,0.25,73,83.0
294,F#3,40.5,0.25,73,83.0
295,F1,40.75,0.25,127,83.0
296,F#3,40.75,0.25,73,83.0
297,B1,40.75,0.25,73,83.0
298,F1,41.0,0.25,127,83.0
299,E4,41.0,0.75,95,83.0
300,F#3,41.0,0.25,91,83.0
301,B1,41.0,0.25,91,83.0
302,D2,41.0,0.25,91,83.0
303,F#3,41.25,0.25,19,83.0
304,A1,41.5,1.0,127,83.0
305,F#2,41.5,0.25,73,83.0
306,F#3,41.5,0.25,73,83.0
307,F#3,41.75,0.25,19,83.0
308,G4,42.0,0.75,95,83.0
309,F#3,42.0,0.25,73,83.0
310,B1,42.0,0.25,73,83.0
311,F#3,42.25,0.25,19,83.0
312,D1,42.5,0.5,127,83.0
313,F#2,42.5,0.25,73,83.0
314,F#3,42.5,0.25,73,83.0
315,F#3,42.75,0.25,19,83.0
316,D1,43.0,1.0,127,83.0
317,G4,43.0,0.75,95,83.0
318,B1,43.0,0.25,91,83.0
319,F#3,43.0,0.25,91,83.0
320,D2,43.0,0.25,91,83.0
321,F#3,43.25,0.25,19,83.0
322,F#3,43.5,0.25,73,83.0
323,F#2,43.5,0.25,73,83.0
324,F#3,43.75,0.25,19,83.0
325,A3,44.0,0.75,95,83.0
326,B1,44.0,0.25,73,83.0
327,F#3,44.0,0.25,73,83.0
328,F#3,44.25,0.25,19,83.0
329,A1,44.5,0.25,127,83.0
330,F#2,44.5,0.25,73,83.0
331,F#3,44.5,0.25,73,83.0
332,F#3,44.75,0.25,19,83.0
333,A1,45.0,1.0,127,83.0
334,A3,45.0,0.75,95,83.0
335,F#3,45.0,0.25,91,83.0
336,D2,45.0,0.25,91,83.0
337,B1,45.0,0.25,91,83.0
338,F#3,45.25,0.25,19,83.0
339,F#3,45.5,0.25,73,83.0
340,F#2,45.5,0.25,73,83.0
341,F#3,45.75,0.25,19,83.0
342,B1,46.0,0.25,127,83.0
343,A3,46.0,0.75,95,83.0
344,A1,46.5,0.25,127,83.0
345,A1,47.0,0.75,127,83.0
346,G3,47.0,0.75,95,83.0
347,F1,48.0,1.5,127,83.0
348,E5,48.0,0.75,95,83.0
349,C#3,48.0,0.25,95,83.0
350,B1,48.0,0.25,73,83.0
351,F#3,48.0,0.25,73,83.0
352,A4,48.0,1.0,95,83.0
353,F4,48.0,1.0,95,83.0
354,E5,48.0,1.0,95,83.0
355,C5,48.0,1.0,95,83.0
356,F#3,48.25,0.25,19,83.0
357,F#3,48.5,0.25,73,83.0
358,F#2,48.5,0.25,73,83.0
359,F#3,48.75,0.25,19,83.0
360,E5,49.0,0.75,95,83.0
361,F#3,49.0,0.25,91,83.0
362,B1,49.0,0.25,91,83.0
363,D2,49.0,0.25,91,83.0
364,F#3,49.25,0.25,19,83.0
365,A1,49.5,1.0,127,83.0
366,F#3,49.5,0.25,73,83.0
367,F#2,49.5,0.25,73,83.0
368,E5,49.5,1.0,95,83.0
369,A4,49.5,1.0,95,83.0
370,G5,49.5,1.0,95,83.0
371,C5,49.5,1.0,95,83.0
372,F#3,49.75,0.25,19,83.0
373,E5,50.0,0.75,95,83.0
374,F#3,50.0,0.25,73,83.0
375,B1,50.0,0.25,73,83.0
376,F#3,50.25,0.25,19,83.0
377,D1,50.5,1.5,127,83.0
378,F#2,50.5,0.25,73,83.0
379,F#3,50.5,0.25,73,83.0
380,F4,50.5,1.25,95,83.0
381,A4,50.5,1.25,95,83.0
382,C5,50.5,1.25,95,83.0
383,D4,50.5,1.25,95,83.0
384,F#3,50.75,0.25,19,83.0
385,E5,51.0,0.75,95,83.0
386,B1,51.0,0.25,91,83.0
387,D2,51.0,0.25,91,83.0
388,F#3,51.0,0.25,91,83.0
389,F#3,51.25,0.25,19,83.0
390,F#3,51.5,0.25,73,83.0
391,F#2,51.5,0.25,73,83.0
392,F#3,51.75,0.25,19,83.0
393,D1,52.0,0.5,127,83.0
394,E5,52.0,0.75,95,83.0
395,B1,52.0,0.25,73,83.0
396,F#3,52.0,0.25,73,83.0
397,F#3,52.25,0.25,19,83.0
398,A1,52.5,0.25,127,83.0
399,F#2,52.5,0.25,73,83.0
400,F#3,52.5,0.25,73,83.0
401,A4,52.5,0.5,95,83.0
402,E5,52.5,0.5,95,83.0
403,C5,52.5,0.5,95,83.0
404,G5,52.5,0.5,95,83.0
405,F#3,52.75,0.25,19,83.0
406,A1,53.0,1.25,127,83.0
407,E5,53.0,0.75,95,83.0
408,D2,53.0,0.25,91,83.0
409,F#3,53.0,0.25,91,83.0
410,B1,53.0,0.25,91,83.0
411,A4,53.0,1.0,95,83.0
412,G5,53.0,1.0,95,83.0
413,C5,53.0,1.0,95,83.0
414,E5,53.0,1.0,95,83.0
415,F#3,53.25,0.25,19,83.0
416,F#3,53.5,0.25,73,83.0
417,F#2,53.5,0.25,73,83.0
418,F#3,53.75,0.25,19,83.0
419,E5,54.0,0.75,95,83.0
420,B1,54.0,0.25,73,83.0
421,F#3,54.0,0.25,73,83.0
422,F#3,54.25,0.25,19,83.0
423,A1,54.5,0.25,127,83.0
424,F#3,54.5,0.25,73,83.0
425,F#2,54.5,0.25,73,83.0
426,E5,54.5,0.5,95,83.0
427,G5,54.5,0.5,95,83.0
428,A4,54.5,0.5,95,83.0
429,C5,54.5,0.5,95,83.0
430,F#3,54.75,0.25,19,83.0
431,A1,55.0,1.0,127,83.0
432,D5,55.0,0.75,95,83.0
433,D2,55.0,0.25,91,83.0
434,F#3,55.0,0.25,91,83.0
435,B1,55.0,0.25,91,83.0
436,A4,55.0,1.0,95,83.0
437,C5,55.0,1.0,95,83.0
438,E5,55.0,1.0,95,83.0
439,G5,55.0,1.0,95,83.0
440,F#3,55.25,0.25,19,83.0
441,F#2,55.5,0.25,73,83.0
442,F#3,55.5,0.25,73,83.0
443,F#3,55.75,0.25,19,83.0
444,F1,56.0,1.5,127,83.0
445,E5,56.0,0.75,95,83.0
446,B1,56.0,0.25,73,83.0
447,F#3,56.0,0.25,73,83.0
448,C5,56.0,1.0,95,83.0
449,E5,56.0,1.0,95,83.0
450,F4,56.0,1.0,95,83.0
451,A4,56.0,1.0,95,83.0
452,F#3,56.25,0.25,19,83.0
453,F#3,56.5,0.25,73,83.0
454,F#2,56.5,0.25,73,83.0
455,F#3,56.75,0.25,19,83.0
456,E5,57.0,0.75,95,83.0
457,F#3,57.0,0.25,91,83.0
458,D2,57.0,0.25,91,83.0
459,B1,57.0,0.25,91,83.0
460,F#3,57.25,0.25,19,83.0
461,A1,57.5,1.0,127,83.0
462,F#2,57.5,0.25,73,83.0
463,F#3,57.5,0.25,73,83.0
464,C5,57.5,1.0,95,83.0
465,E5,57.5,1.0,95,83.0
466,A4,57.5,1.0,95,83.0
467,G5,57.5,1.0,95,83.0
468,F#3,57.75,0.25,19,83.0
469,E5,58.0,0.75,95,83.0
470,B1,58.0,0.25,73,83.0
471,F#3,58.0,0.25,73,83.0
472,F#3,58.25,0.25,19,83.0
473,D1,58.5,1.5,127,83.0
474,F#3,58.5,0.25,73,83.0
475,F#2,58.5,0.25,73,83.0
476,D4,58.5,1.25,95,83.0
477,F4,58.5,1.25,95,83.0
478,A4,58.5,1.25,95,83.0
479,C5,58.5,1.25,95,83.0
480,F#3,58.75,0.25,19,83.0
481,E5,59.0,0.75,95,83.0
482,F#3,59.0,0.25,91,83.0
483,D2,59.0,0.25,91,83.0
484,B1,59.0,0.25,91,83.0
485,F#3,59.25,0.25,19,83.0
486,F#2,59.5,0.25,73,83.0
487,F#3,59.5,0.25,73,83.0
488,F#3,59.75,0.25,19,83.0
489,D1,60.0,0.5,127,83.0
490,E5,60.0,0.75,95,83.0
491,B1,60.0,0.25,73,83.0
492,F#3,60.0,0.25,73,83.0
493,F#3,60.25,0.25,19,83.0
494,A1,60.5,0.25,127,83.0
495,F#2,60.5,0.25,73,83.0
496,F#3,60.5,0.25,73,83.0
497,G5,60.5,0.5,95,83.0
498,E5,60.5,0.5,95,83.0
499,A4,60.5,0.5,95,83.0
500,C5,60.5,0.5,95,83.0
501,F#3,60.75,0.25,19,83.0
502,A1,61.0,1.25,127,83.0
503,E5,61.0,0.75,95,83.0
504,D2,61.0,0.25,91,83.0
505,B1,61.0,0.25,91,83.0
506,F#3,61.0,0.25,91,83.0
507,C5,61.0,1.0,95,83.0
508,E5,61.0,1.0,95,83.0
509,G5,61.0,1.0,95,83.0
510,A4,61.0,1.0,95,83.0
511,F#3,61.25,0.25,19,83.0
512,F#3,61.5,0.25,73,83.0
513,F#2,61.5,0.25,73,83.0
514,F#3,61.75,0.25,19,83.0
515,A4,62.0,0.75,95,83.0
516,F#3,62.0,0.25,73,83.0
517,B1,62.0,0.25,73,83.0
518,F#3,62.25,0.25,19,83.0
519,A1,62.5,0.25,127,83.0
520,F#3,62.5,0.25,73,83.0
521,F#2,62.5,0.25,73,83.0
522,A4,62.5,0.5,95,83.0
523,C5,62.5,0.5,95,83.0
524,E5,62.5,0.5,95,83.0
525,G5,62.5,0.5,95,83.0
526,F#3,62.75,0.25,19,83.0
527,A1,63.0,1.0,127,83.0
528,G4,63.0,0.75,95,83.0
529,D2,63.0,0.25,91,83.0
530,B1,63.0,0.25,91,83.0
531,F#3,63.0,0.25,91,83.0
532,E5,63.0,1.0,95,83.0
533,C5,63.0,1.0,95,83.0
534,A4,63.0,1.0,95,83.0
535,G5,63.0,1.0,95,83.0
536,F#3,63.25,0.25,19,83.0
537,F#3,63.5,0.25,73,83.0
538,F#2,63.5,0.25,73,83.0
539,F#3,63.75,0.25,57,83.0
540,D2,63.75,0.25,57,83.0
541,F1,64.0,1.5,127,83.0
542,E5,64.0,0.75,95,83.0
543,B1,64.0,0.25,73,83.0
544,F#3,64.0,0.25,73,83.0
545,C5,64.0,1.0,95,83.0
546,A4,64.0,1.0,95,83.0
547,F4,64.0,1.0,95,83.0
548,E5,64.0,1.0,95,83.0
549,F#3,64.25,0.25,19,83.0
550,F#3,64.5,0.25,73,83.0
551,F#2,64.5,0.25,73,83.0
552,F#3,64.75,0.25,19,83.0
553,E5,65.0,0.75,95,83.0
554,D2,65.0,0.25,91,83.0
555,F#3,65.0,0.25,91,83.0
556,B1,65.0,0.25,91,83.0
557,F#3,65.25,0.25,19,83.0
558,A1,65.5,1.0,127,83.0
559,F#3,65.5,0.25,73,83.0
560,F#2,65.5,0.25,73,83.0
561,G5,65.5,1.0,95,83.0
562,E5,65.5,1.0,95,83.0
563,A4,65.5,1.0,95,83.0
564,C5,65.5,1.0,95,83.0
565,F#3,65.75,0.25,19,83.0
566,E5,66.0,0.75,95,83.0
567,F#3,66.0,0.25,73,83.0
568,B1,66.0,0.25,73,83.0
569,F#3,66.25,0.25,19,83.0
570,D1,66.5,1.5,127,83.0
571,F#3,66.5,0.25,73,83.0
572,F#2,66.5,0.25,73,83.0
573,A4,66.5,1.25,95,83.0
574,D4,66.5,1.25,95,83.0
575,C5,66.5,1.25,95,83.0
576,F4,66.5,1.25,95,83.0
577,F#3,66.75,0.25,19,83.0
578,E5,67.0,0.75,95,83.0
579,B1,67.0,0.25,91,83.0
580,D2,67.0,0.25,91,83.0
581,F#3,67.0,0.25,91,83.0
582,F#3,67.25,0.25,19,83.0
583,F#2,67.5,0.25,73,83.0
584,F#3,67.5,0.25,73,83.0
585,F#3,67.75,0.25,19,83.0
586,D1,68.0,0.5,127,83.0
587,E5,68.0,0.75,95,83.0
588,F#3,68.0,0.25,73,83.0
589,B1,68.0,0.25,73,83.0
590,F#3,68.25,0.25,19,83.0
591,A1,68.5,0.25,127,83.0
592,F#2,68.5,0.25,73,83.0
593,F#3,68.5,0.25,73,83.0
594,G5,68.5,0.5,95,83.0
595,A4,68.5,0.5,95,83.0
596,E5,68.5,0.5,95,83.0
597,C5,68.5,0.5,95,83.0
598,F#3,68.75,0.25,19,83.0
599,A1,69.0,1.25,127,83.0
600,E5,69.0,0.75,95,83.0
601,D2,69.0,0.25,91,83.0
602,F#3,69.0,0.25,91,83.0
603,B1,69.0,0.25,91,83.0
604,G5,69.0,1.0,95,83.0
605,C5,69.0,1.0,95,83.0
606,E5,69.0,1.0,95,83.0
607,A4,69.0,1.0,95,83.0
608,F#3,69.25,0.25,19,83.0
609,F#2,69.5,0.25,73,83.0
610,F#3,69.5,0.25,73,83.0
611,F#3,69.75,0.25,19,83.0
612,E5,70.0,0.75,95,83.0
613,B1,70.0,0.25,73,83.0
614,F#3,70.0,0.25,73,83.0
615,F#3,70.25,0.25,19,83.0
616,A1,70.5,0.25,127,83.0
617,F#2,70.5,0.25,73,83.0
618,F#3,70.5,0.25,73,83.0
619,A4,70.5,0.5,95,83.0
620,G5,70.5,0.5,95,83.0
621,E5,70.5,0.5,95,83.0
622,C5,70.5,0.5,95,83.0
623,F#3,70.75,0.25,19,83.0
624,A1,71.0,1.0,127,83.0
625,D5,71.0,0.75,95,83.0
626,F#3,71.0,0.25,91,83.0
627,D2,71.0,0.25,91,83.0
628,B1,71.0,0.25,91,83.0
629,G5,71.0,1.0,95,83.0
630,A4,71.0,1.0,95,83.0
631,C5,71.0,1.0,95,83.0
632,E5,71.0,1.0,95,83.0
633,F#3,71.25,0.25,19,83.0
634,F#3,71.5,0.25,73,83.0
635,F#2,71.5,0.25,73,83.0
636,F#3,71.75,0.25,19,83.0
637,F1,72.0,1.5,127,83.0
638,E5,72.0,0.75,95,83.0
639,F#3,72.0,0.25,73,83.0
640,B1,72.0,0.25,73,83.0
641,F4,72.0,1.0,95,83.0
642,E5,72.0,1.0,95,83.0
643,A4,72.0,1.0,95,83.0
644,C5,72.0,1.0,95,83.0
645,F#3,72.25,0.25,19,83.0
646,F#2,72.5,0.25,73,83.0
647,F#3,72.5,0.25,73,83.0
648,F#3,72.75,0.25,19,83.0
649,E5,73.0,0.75,95,83.0
650,D2,73.0,0.25,91,83.0
651,F#3,73.0,0.25,91,83.0
652,B1,73.0,0.25,91,83.0
653,F#3,73.25,0.25,19,83.0
654,A1,73.5,1.0,127,83.0
655,F#3,73.5,0.25,73,83.0
656,F#2,73.5,0.25,73,83.0
657,G5,73.5,1.0,95,83.0
658,C5,73.5,1.0,95,83.0
659,A4,73.5,1.0,95,83.0
660,E5,73.5,1.0,95,83.0
661,F#3,73.75,0.25,19,83.0
662,G5,74.0,0.75,95,83.0
663,F#3,74.0,0.25,73,83.0
664,B1,74.0,0.25,73,83.0
665,F#3,74.25,0.25,19,83.0
666,D1,74.5,1.5,127,83.0
667,F#2,74.5,0.25,73,83.0
668,F#3,74.5,0.25,73,83.0
669,F4,74.5,1.25,95,83.0
670,A4,74.5,1.25,95,83.0
671,C5,74.5,1.25,95,83.0
672,D4,74.5,1.25,95,83.0
673,F#3,74.75,0.25,19,83.0
674,G5,75.0,0.75,95,83.0
675,B1,75.0,0.25,91,83.0
676,F#3,75.0,0.25,91,83.0
677,D2,75.0,0.25,91,83.0
678,F#3,75.25,0.25,19,83.0
679,F#2,75.5,0.25,73,83.0
680,F#3,75.5,0.25,73,83.0
681,F#3,75.75,0.25,19,83.0
682,D1,76.0,0.5,127,83.0
683,A4,76.0,0.75,95,83.0
684,B1,76.0,0.25,73,83.0
685,F#3,76.0,0.25,73,83.0
686,F#3,76.25,0.25,19,83.0
687,A1,76.5,0.25,127,83.0
688,F#2,76.5,0.25,73,83.0
689,F#3,76.5,0.25,73,83.0
690,E5,76.5,0.5,95,83.0
691,C5,76.5,0.5,95,83.0
692,A4,76.5,0.5,95,83.0
693,G5,76.5,0.5,95,83.0
694,F#3,76.75,0.25,19,83.0
695,A1,77.0,1.25,127,83.0
696,A4,77.0,0.75,95,83.0
697,F#3,77.0,0.25,91,83.0
698,D2,77.0,0.25,91,83.0
699,B1,77.0,0.25,91,83.0
700,A4,77.0,1.0,95,83.0
701,G5,77.0,1.0,95,83.0
702,C5,77.0,1.0,95,83.0
703,E5,77.0,1.0,95,83.0
704,F#3,77.25,0.25,19,83.0
705,F#3,77.5,0.25,73,83.0
706,F#2,77.5,0.25,73,83.0
707,F#3,77.75,0.25,19,83.0
708,A4,78.0,0.75,95,83.0
709,B1,78.0,0.25,73,83.0
710,F#3,78.0,0.25,73,83.0
711,F#3,78.25,0.25,19,83.0
712,A1,78.5,0.25,127,83.0
713,F#3,78.5,0.25,73,83.0
714,F#2,78.5,0.25,73,83.0
715,G5,78.5,0.5,95,83.0
716,E5,78.5,0.5,95,83.0
717,C5,78.5,0.5,95,83.0
718,A4,78.5,0.5,95,83.0
719,F#3,78.75,0.25,19,83.0
720,A1,79.0,1.0,127,83.0
721,G4,79.0,0.75,95,83.0
722,F#3,79.0,0.25,91,83.0
723,B1,79.0,0.25,91,83.0
724,D2,79.0,0.25,91,83.0
725,E5,79.0,1.0,95,83.0
726,G5,79.0,1.0,95,83.0
727,A4,79.0,1.0,95,83.0
728,C5,79.0,1.0,95,83.0
729,F#3,79.25,0.25,19,83.0
730,F#3,79.5,0.25,73,83.0
731,F#2,79.5,0.25,73,83.0
732,F#3,79.75,0.25,57,83.0
733,D2,79.75,0.25,57,83.0
734,F1,80.0,1.5,127,83.0
735,C#3,80.0,0.25,95,83.0
736,F4,80.0,1.0,95,83.0
737,A4,80.0,1.0,95,83.0
738,C5,80.0,1.0,95,83.0
739,E5,80.0,1.0,95,83.0
740,G5,80.5,0.25,127,83.0
741,E5,80.75,0.25,127,83.0
742,G5,81.0,0.25,127,83.0
743,E5,81.25,0.25,127,83.0
744,A1,81.5,1.0,127,83.0
745,G5,81.5,0.25,127,83.0
746,A4,81.5,1.0,95,83.0
747,C5,81.5,1.0,95,83.0
748,E5,81.5,1.0,95,83.0
749,G5,81.5,1.0,95,83.0
750,E5,81.75,0.25,127,83.0
751,G5,82.0,0.25,127,83.0
752,E5,82.25,0.25,127,83.0
753,D1,82.5,1.5,127,83.0
754,G5,82.5,0.25,127,83.0
755,A4,82.5,1.25,95,83.0
756,D4,82.5,1.25,95,83.0
757,F4,82.5,1.25,95,83.0
758,C5,82.5,1.25,95,83.0
759,E5,82.75,0.25,127,83.0
760,G5,83.0,0.25,127,83.0
761,E5,83.25,0.25,127,83.0
762,G5,83.5,0.25,127,83.0
763,E5,83.75,0.25,127,83.0
764,D1,84.0,0.5,127,83.0
765,C5,84.0,0.25,127,83.0
766,A1,84.5,0.25,127,83.0
767,C5,84.5,0.25,127,83.0
768,G5,84.5,0.5,95,83.0
769,C5,84.5,0.5,95,83.0
770,A4,84.5,0.5,95,83.0
771,E5,84.5,0.5,95,83.0
772,A1,85.0,1.25,127,83.0
773,C5,85.0,0.25,127,83.0
774,A4,85.0,1.0,95,83.0
775,C5,85.0,1.0,95,83.0
776,G5,85.0,1.0,95,83.0
777,E5,85.0,1.0,95,83.0
778,C5,85.5,0.25,127,83.0
779,D5,86.0,0.25,127,83.0
780,D5,86.25,0.25,95,83.0
781,A1,86.5,0.25,127,83.0
782,D5,86.5,0.25,127,83.0
783,A4,86.5,0.5,95,83.0
784,E5,86.5,0.5,95,83.0
785,C5,86.5,0.5,95,83.0
786,G5,86.5,0.5,95,83.0
787,D5,86.75,0.25,95,83.0
788,A1,87.0,1.0,127,83.0
789,D5,87.0,0.25,127,83.0
790,E5,87.0,1.0,95,83.0
791,C5,87.0,1.0,95,83.0
792,A4,87.0,1.0,95,83.0
793,G5,87.0,1.0,95,83.0
794,D5,87.25,0.25,95,83.0
795,D5,87.5,0.25,127,83.0
796,D5,87.75,0.25,95,83.0
797,F1,88.0,1.5,127,83.0
798,C5,88.0,1.0,95,83.0
799,E5,88.0,1.0,95,83.0
800,A4,88.0,1.0,95,83.0
801,F4,88.0,1.0,95,83.0
802,G5,88.5,0.25,127,83.0
803,E5,88.75,0.25,127,83.0
804,G5,89.0,0.25,127,83.0
805,E5,89.25,0.25,127,83.0
806,A1,89.5,1.0,127,83.0
807,G5,89.5,0.25,127,83.0
808,G5,89.5,1.0,95,83.0
809,E5,89.5,1.0,95,83.0
810,C5,89.5,1.0,95,83.0
811,A4,89.5,1.0,95,83.0
812,E5,89.75,0.25,127,83.0
813,G5,90.0,0.25,127,83.0
814,E5,90.25,0.25,127,83.0
815,D1,90.5,1.5,127,83.0
816,G5,90.5,0.25,127,83.0
817,C5,90.5,1.25,95,83.0
818,A4,90.5,1.25,95,83.0
819,F4,90.5,1.25,95,83.0
820,D4,90.5,1.25,95,83.0
821,E5,90.75,0.25,127,83.0
822,G5,91.0,0.25,127,83.0
823,E5,91.25,0.25,127,83.0
824,G5,91.5,0.25,127,83.0
825,E5,91.75,0.25,127,83.0
826,D1,92.0,0.5,127,83.0
827,E5,92.0,0.25,127,83.0
828,A1,92.5,0.25,127,83.0
829,E5,92.5,0.25,127,83.0
830,A4,92.5,0.5,95,83.0
831,C5,92.5,0.5,95,83.0
832,E5,92.5,0.5,95,83.0
833,G5,92.5,0.5,95,83.0
834,A1,93.0,1.25,127,83.0
835,E5,93.0,0.25,127,83.0
836,G5,93.0,1.0,95,83.0
837,E5,93.0,1.0,95,83.0
838,C5,93.0,1.0,95,83.0
839,A4,93.0,1.0,95,83.0
840,E5,93.5,0.25,127,83.0
841,G5,94.0,0.25,127,83.0
842,G5,94.25,0.25,127,83.0
843,A1,94.5,0.25,127,83.0
844,G5,94.5,0.25,127,83.0
845,A4,94.5,0.5,95,83.0
846,C5,94.5,0.5,95,83.0
847,E5,94.5,0.5,95,83.0
848,G5,94.5,0.5,95,83.0
849,G5,94.75,0.25,127,83.0
850,A1,95.0,1.0,127,83.0
851,G5,95.0,0.25,127,83.0
852,G5,95.0,1.0,95,83.0
853,E5,95.0,1.0,95,83.0
854,C5,95.0,1.0,95,83.0
855,A4,95.0,1.0,95,83.0
856,G5,95.25,0.25,127,83.0
857,G5,95.5,0.25,127,83.0
858,G5,95.75,0.25,127,83.0
859,F1,96.0,1.5,127,83.0
860,E5,96.0,1.0,95,83.0
861,F4,96.0,1.0,95,83.0
862,A4,96.0,1.0,95,83.0
863,C5,96.0,1.0,95,83.0
864,G5,96.5,0.25,127,83.0
865,E5,96.75,0.25,127,83.0
866,G5,97.0,0.25,127,83.0
867,E5,97.25,0.25,127,83.0
868,A1,97.5,1.0,127,83.0
869,G5,97.5,0.25,127,83.0
870,G5,97.5,1.0,95,83.0
871,E5,97.5,1.0,95,83.0
872,C5,97.5,1.0,95,83.0
873,A4,97.5,1.0,95,83.0
874,E5,97.75,0.25,127,83.0
875,G5,98.0,0.25,127,83.0
876,E5,98.25,0.25,127,83.0
877,D1,98.5,1.5,127,83.0
878,G5,98.5,0.25,127,83.0
879,D4,98.5,1.25,95,83.0
880,F4,98.5,1.25,95,83.0
881,A4,98.5,1.25,95,83.0
882,C5,98.5,1.25,95,83.0
883,E5,98.75,0.25,127,83.0
884,G5,99.0,0.25,127,83.0
885,E5,99.25,0.25,127,83.0
886,G5,99.5,0.25,127,83.0
887,E5,99.75,0.25,127,83.0
888,D1,100.0,0.5,127,83.0
889,C5,100.0,0.25,127,83.0
890,A1,100.5,0.25,127,83.0
891,C5,100.5,0.25,127,83.0
892,G5,100.5,0.5,95,83.0
893,E5,100.5,0.5,95,83.0
894,C5,100.5,0.5,95,83.0
895,A4,100.5,0.5,95,83.0
896,A1,101.0,1.25,127,83.0
897,C5,101.0,0.25,127,83.0
898,A4,101.0,1.0,95,83.0
899,G5,101.0,1.0,95,83.0
900,E5,101.0,1.0,95,83.0
901,C5,101.0,1.0,95,83.0
902,C5,101.5,0.25,127,83.0
903,D5,102.0,0.25,127,83.0
904,D5,102.25,0.25,95,83.0
905,A1,102.5,0.25,127,83.0
906,D5,102.5,0.25,127,83.0
907,A4,102.5,0.5,95,83.0
908,C5,102.5,0.5,95,83.0
909,G5,102.5,0.5,95,83.0
910,E5,102.5,0.5,95,83.0
911,D5,102.75,0.25,95,83.0
912,A1,103.0,1.0,127,83.0
913,D5,103.0,0.25,127,83.0
914,E5,103.0,1.0,95,83.0
915,A4,103.0,1.0,95,83.0
916,C5,103.0,1.0,95,83.0
917,G5,103.0,1.0,95,83.0
918,D5,103.25,0.25,95,83.0
919,D5,103.5,0.25,127,83.0
920,D5,103.75,0.25,95,83.0
921,F1,104.0,1.5,127,83.0
922,F4,104.0,1.0,95,83.0
923,E5,104.0,1.0,95,83.0
924,C5,104.0,1.0,95,83.0
925,A4,104.0,1.0,95,83.0
926,G5,104.5,0.25,127,83.0
927,E5,104.75,0.25,127,83.0
928,G5,105.0,0.25,127,83.0
929,E5,105.25,0.25,127,83.0
930,A1,105.5,1.0,127,83.0
931,G5,105.5,0.25,127,83.0
932,G5,105.5,1.0,95,83.0
933,E5,105.5,1.0,95,83.0
934,C5,105.5,1.0,95,83.0
935,A4,105.5,1.0,95,83.0
936,E5,105.75,0.25,127,83.0
937,G5,106.0,0.25,127,83.0
938,E5,106.25,0.25,127,83.0
939,D1,106.5,1.5,127,83.0
940,G5,106.5,0.25,127,83.0
941,F4,106.5,1.25,95,83.0
942,A4,106.5,1.25,95,83.0
943,D4,106.5,1.25,95,83.0
944,C5,106.5,1.25,95,83.0
945,E5,106.75,0.25,127,83.0
946,G5,107.0,0.25,127,83.0
947,E5,107.25,0.25,127,83.0
948,G5,107.5,0.25,127,83.0
949,E5,107.75,0.25,127,83.0
950,D1,108.0,0.5,127,83.0
951,E5,108.0,0.25,127,83.0
952,A1,108.5,0.25,127,83.0
953,E5,108.5,0.25,127,83.0
954,C5,108.5,0.5,95,83.0
955,G5,108.5,0.5,95,83.0
956,A4,108.5,0.5,95,83.0
957,E5,108.5,0.5,95,83.0
958,A1,109.0,1.25,127,83.0
959,E5,109.0,0.25,127,83.0
960,G5,109.0,1.0,95,83.0
961,E5,109.0,1.0,95,83.0
962,C5,109.0,1.0,95,83.0
963,A4,109.0,1.0,95,83.0
964,E5,109.5,0.25,127,83.0
965,G5,110.0,0.25,127,83.0
966,G5,110.25,0.25,127,83.0
967,A1,110.5,0.25,127,83.0
968,G5,110.5,0.25,127,83.0
969,E5,110.5,0.5,95,83.0
970,A4,110.5,0.5,95,83.0
971,C5,110.5,0.5,95,83.0
972,G5,110.5,0.5,95,83.0
973,G5,110.75,0.25,127,83.0
974,A1,111.0,1.0,127,83.0
975,G5,111.0,0.25,127,83.0
976,C5,111.0,1.0,95,83.0
977,A4,111.0,1.0,95,83.0
978,E5,111.0,1.0,95,83.0
979,G5,111.0,1.0,95,83.0
980,G5,111.25,0.25,127,83.0
981,G5,111.5,0.25,127,83.0
982,G5,111.75,0.25,127,83.0
983,F1,112.0,1.5,127,83.0
984,E5,112.0,0.25,95,83.0
985,C#3,112.0,0.25,95,83.0
986,B1,112.0,0.25,73,83.0
987,F#3,112.0,0.25,73,83.0
988,E5,112.0,1.0,95,83.0
989,C5,112.0,1.0,95,83.0
990,F4,112.0,1.0,95,83.0
991,A4,112.0,1.0,95,83.0
992,F#3,112.25,0.25,19,83.0
993,E5,112.5,0.25,127,83.0
994,F#2,112.5,0.25,73,83.0
995,F#3,112.5,0.25,73,83.0
996,F#3,112.75,0.25,19,83.0
997,B1,113.0,0.25,91,83.0
998,F#3,113.0,0.25,91,83.0
999,D2,113.0,0.25,91,83.0
1000,F#3,113.25,0.25,19,83.0
1001,A1,113.5,1.0,127,83.0
1002,E5,113.5,0.25,127,83.0
1003,F#3,113.5,0.25,73,83.0
1004,F#2,113.5,0.25,73,83.0
1005,C5,113.5,1.0,95,83.0
1006,E5,113.5,1.0,95,83.0
1007,G5,113.5,1.0,95,83.0
1008,A4,113.5,1.0,95,83.0
1009,F#3,113.75,0.25,19,83.0
1010,D5,114.0,0.25,127,83.0
1011,F#3,114.0,0.25,73,83.0
1012,B1,114.0,0.25,73,83.0
1013,F#3,114.25,0.25,19,83.0
1014,D1,114.5,1.5,127,83.0
1015,D5,114.5,0.25,127,83.0
1016,F#2,114.5,0.25,73,83.0
1017,F#3,114.5,0.25,73,83.0
1018,C5,114.5,1.25,95,83.0
1019,F4,114.5,1.25,95,83.0
1020,D4,114.5,1.25,95,83.0
1021,A4,114.5,1.25,95,83.0
1022,F#3,114.75,0.25,19,83.0
1023,F#3,115.0,0.25,91,83.0
1024,B1,115.0,0.25,91,83.0
1025,D2,115.0,0.25,91,83.0
1026,F#3,115.25,0.25,19,83.0
1027,D5,115.25,0.25,127,83.0
1028,D5,115.5,0.25,127,83.0
1029,F#2,115.5,0.25,73,83.0
1030,F#3,115.5,0.25,73,83.0
1031,F#3,115.75,0.25,19,83.0
1032,D1,116.0,0.5,127,83.0
1033,D5,116.0,0.25,127,83.0
1034,F#3,116.0,0.25,73,83.0
1035,B1,116.0,0.25,73,83.0
1036,F#3,116.25,0.25,19,83.0
1037,A1,116.5,0.25,127,83.0
1038,D5,116.5,0.25,127,83.0
1039,F#3,116.5,0.25,73,83.0
1040,F#2,116.5,0.25,73,83.0
1041,G5,116.5,0.5,95,83.0
1042,A4,116.5,0.5,95,83.0
1043,C5,116.5,0.5,95,83.0
1044,E5,116.5,0.5,95,83.0
1045,F#3,116.75,0.25,19,83.0
1046,A1,117.0,1.25,127,83.0
1047,F#3,117.0,0.25,91,83.0
1048,D2,117.0,0.25,91,83.0
1049,B1,117.0,0.25,91,83.0
1050,C5,117.0,1.0,95,83.0
1051,A4,117.0,1.0,95,83.0
1052,E5,117.0,1.0,95,83.0
1053,G5,117.0,1.0,95,83.0
1054,F#3,117.25,0.25,19,83.0
1055,C5,117.5,0.25,127,83.0
1056,F#2,117.5,0.25,73,83.0
1057,F#3,117.5,0.25,73,83.0
1058,F#3,117.75,0.25,19,83.0
1059,D5,118.0,0.25,127,83.0
1060,B1,118.0,0.25,73,83.0
1061,F#3,118.0,0.25,73,83.0
1062,F#3,118.25,0.25,19,83.0
1063,A1,118.5,0.25,127,83.0
1064,E5,118.5,0.25,127,83.0
1065,F#3,118.5,0.25,73,83.0
1066,F#2,118.5,0.25,73,83.0
1067,G5,118.5,0.5,95,83.0
1068,C5,118.5,0.5,95,83.0
1069,E5,118.5,0.5,95,83.0
1070,A4,118.5,0.5,95,83.0
1071,F#3,118.75,0.25,19,83.0
1072,A1,119.0,1.0,127,83.0
1073,F#3,119.0,0.25,91,83.0
1074,B1,119.0,0.25,91,83.0
1075,D2,119.0,0.25,91,83.0
1076,G5,119.0,1.0,95,83.0
1077,A4,119.0,1.0,95,83.0
1078,E5,119.0,1.0,95,83.0
1079,C5,119.0,1.0,95,83.0
1080,F#3,119.25,0.25,19,83.0
1081,C5,119.25,0.25,127,83.0
1082,C5,119.5,0.25,127,83.0
1083,F#2,119.5,0.25,73,83.0
1084,F#3,119.5,0.25,73,83.0
1085,F#3,119.75,0.25,19,83.0
1086,C5,119.75,0.25,127,83.0
1087,F1,120.0,1.5,127,83.0
1088,D5,120.0,0.25,127,83.0
1089,B1,120.0,0.25,73,83.0
1090,F#3,120.0,0.25,73,83.0
1091,A4,120.0,1.0,95,83.0
1092,F4,120.0,1.0,95,83.0
1093,E5,120.0,1.0,95,83.0
1094,C5,120.0,1.0,95,83.0
1095,F#3,120.25,0.25,19,83.0
1096,E5,120.5,0.25,127,83.0
1097,F#3,120.5,0.25,73,83.0
1098,F#2,120.5,0.25,73,83.0
1099,F#3,120.75,0.25,19,83.0
1100,C5,121.0,0.25,127,83.0
1101,D2,121.0,0.25,91,83.0
1102,F#3,121.0,0.25,91,83.0
1103,B1,121.0,0.25,91,83.0
1104,F#3,121.25,0.25,19,83.0
1105,C5,121.25,0.25,127,83.0
1106,A1,121.5,1.0,127,83.0
1107,C5,121.5,0.25,127,83.0
1108,F#3,121.5,0.25,73,83.0
1109,F#2,121.5,0.25,73,83.0
1110,G5,121.5,1.0,95,83.0
1111,E5,121.5,1.0,95,83.0
1112,C5,121.5,1.0,95,83.0
1113,A4,121.5,1.0,95,83.0
1114,F#3,121.75,0.25,19,83.0
1115,C5,121.75,0.25,127,83.0
1116,D5,122.0,0.25,127,83.0
1117,F#3,122.0,0.25,73,83.0
1118,B1,122.0,0.25,73,83.0
1119,F#3,122.25,0.25,19,83.0
1120,D1,122.5,1.5,127,83.0
1121,C5,122.5,0.25,127,83.0
1122,F#3,122.5,0.25,73,83.0
1123,F#2,122.5,0.25,73,83.0
1124,D4,122.5,1.25,95,83.0
1125,A4,122.5,1.25,95,83.0
1126,F4,122.5,1.25,95,83.0
1127,C5,122.5,1.25,95,83.0
1128,F#3,122.75,0.25,19,83.0
1129,F#3,123.0,0.25,91,83.0
1130,B1,123.0,0.25,91,83.0
1131,D2,123.0,0.25,91,83.0
1132,F#3,123.25,0.25,19,83.0
1133,C5,123.5,0.25,127,83.0
1134,F#3,123.5,0.25,73,83.0
1135,F#2,123.5,0.25,73,83.0
1136,F#3,123.75,0.25,19,83.0
1137,C5,123.75,0.25,127,83.0
1138,D1,124.0,0.5,127,83.0
1139,D5,124.0,0.25,127,83.0
1140,B1,124.0,0.25,73,83.0
1141,F#3,124.0,0.25,73,83.0
1142,F#3,124.25,0.25,19,83.0
1143,A1,124.5,0.25,127,83.0
1144,E5,124.5,0.25,127,83.0
1145,F#2,124.5,0.25,73,83.0
1146,F#3,124.5,0.25,73,83.0
1147,E5,124.5,0.5,95,83.0
1148,G5,124.5,0.5,95,83.0
1149,A4,124.5,0.5,95,83.0
1150,C5,124.5,0.5,95,83.0
1151,F#3,124.75,0.25,19,83.0
1152,A1,125.0,1.25,127,83.0
1153,C5,125.0,0.25,127,83.0
1154,D2,125.0,0.25,91,83.0
1155,B1,125.0,0.25,91,83.0
1156,F#3,125.0,0.25,91,83.0
1157,A4,125.0,1.0,95,83.0
1158,E5,125.0,1.0,95,83.0
1159,C5,125.0,1.0,95,83.0
1160,G5,125.0,1.0,95,83.0
1161,F#3,125.25,0.25,19,83.0
1162,C5,125.25,0.25,127,83.0
1163,C5,125.5,0.25,127,83.0
1164,F#3,125.5,0.25,73,83.0
1165,F#2,125.5,0.25,73,83.0
1166,F#3,125.75,0.25,19,83.0
1167,C5,125.75,0.25,127,83.0
1168,D5,126.0,0.25,127,83.0
1169,B1,126.0,0.25,73,83.0
1170,F#3,126.0,0.25,73,83.0
1171,F#3,126.25,0.25,19,83.0
1172,A1,126.5,0.25,127,83.0
1173,C5,126.5,0.25,127,83.0
1174,F#2,126.5,0.25,73,83.0
1175,F#3,126.5,0.25,73,83.0
1176,G5,126.5,0.5,95,83.0
1177,E5,126.5,0.5,95,83.0
1178,C5,126.5,0.5,95,83.0
1179,A4,126.5,0.5,95,83.0
1180,F#3,126.75,0.25,19,83.0
1181,A1,127.0,1.0,127,83.0
1182,B1,127.0,0.25,91,83.0
1183,F#3,127.0,0.25,91,83.0
1184,D2,127.0,0.25,91,83.0
1185,G5,127.0,1.0,95,83.0
1186,A4,127.0,1.0,95,83.0
1187,E5,127.0,1.0,95,83.0
1188,C5,127.0,1.0,95,83.0
1189,F#3,127.25,0.25,19,83.0
1190,C5,127.25,0.25,127,83.0
1191,C5,127.5,0.25,127,83.0
1192,F#2,127.5,0.25,73,83.0
1193,F#3,127.5,0.25,73,83.0
1194,F#3,127.75,0.25,57,83.0
1195,D2,127.75,0.25,57,83.0
1196,F1,128.0,1.5,127,83.0
1197,E5,128.0,0.25,95,83.0
1198,B1,128.0,0.25,73,83.0
1199,F#3,128.0,0.25,73,83.0
1200,A4,128.0,1.0,95,83.0
1201,F4,128.0,1.0,95,83.0
1202,C5,128.0,1.0,95,83.0
1203,E5,128.0,1.0,95,83.0
1204,F#3,128.25,0.25,19,83.0
1205,E5,128.5,0.25,127,83.0
1206,F#2,128.5,0.25,73,83.0
1207,F#3,128.5,0.25,73,83.0
1208,F#3,128.75,0.25,19,83.0
1209,B1,129.0,0.25,91,83.0
1210,F#3,129.0,0.25,91,83.0
1211,D2,129.0,0.25,91,83.0
1212,F#3,129.25,0.25,19,83.0
1213,A1,129.5,1.0,127,83.0
1214,E5,129.5,0.25,127,83.0
1215,F#3,129.5,0.25,73,83.0
1216,F#2,129.5,0.25,73,83.0
1217,A4,129.5,1.0,95,83.0
1218,C5,129.5,1.0,95,83.0
1219,E5,129.5,1.0,95,83.0
1220,G5,129.5,1.0,95,83.0
1221,F#3,129.75,0.25,19,83.0
1222,D5,130.0,0.25,127,83.0
1223,F#3,130.0,0.25,73,83.0
1224,B1,130.0,0.25,73,83.0
1225,F#3,130.25,0.25,19,83.0
1226,D1,130.5,1.5,127,83.0
1227,D5,130.5,0.25,127,83.0
1228,F#2,130.5,0.25,73,83.0
1229,F#3,130.5,0.25,73,83.0
1230,D4,130.5,1.25,95,83.0
1231,C5,130.5,1.25,95,83.0
1232,A4,130.5,1.25,95,83.0
1233,F4,130.5,1.25,95,83.0
1234,F#3,130.75,0.25,19,83.0
1235,F#3,131.0,0.25,91,83.0
1236,B1,131.0,0.25,91,83.0
1237,D2,131.0,0.25,91,83.0
1238,F#3,131.25,0.25,19,83.0
1239,D5,131.25,0.25,127,83.0
1240,D5,131.5,0.25,127,83.0
1241,F#2,131.5,0.25,73,83.0
1242,F#3,131.5,0.25,73,83.0
1243,F#3,131.75,0.25,19,83.0
1244,D1,132.0,0.5,127,83.0
1245,D5,132.0,0.25,127,83.0
1246,F#3,132.0,0.25,73,83.0
1247,B1,132.0,0.25,73,83.0
1248,F#3,132.25,0.25,19,83.0
1249,A1,132.5,0.25,127,83.0
1250,D5,132.5,0.25,127,83.0
1251,F#2,132.5,0.25,73,83.0
1252,F#3,132.5,0.25,73,83.0
1253,C5,132.5,0.5,95,83.0
1254,G5,132.5,0.5,95,83.0
1255,E5,132.5,0.5,95,83.0
1256,A4,132.5,0.5,95,83.0
1257,F#3,132.75,0.25,19,83.0
1258,A1,133.0,1.25,127,83.0
1259,B1,133.0,0.25,91,83.0
1260,F#3,133.0,0.25,91,83.0
1261,D2,133.0,0.25,91,83.0
1262,E5,133.0,1.0,95,83.0
1263,G5,133.0,1.0,95,83.0
1264,C5,133.0,1.0,95,83.0
1265,A4,133.0,1.0,95,83.0
1266,F#3,133.25,0.25,19,83.0
1267,C5,133.5,0.25,127,83.0
1268,F#3,133.5,0.25,73,83.0
1269,F#2,133.5,0.25,73,83.0
1270,F#3,133.75,0.25,19,83.0
1271,D5,134.0,0.25,127,83.0
1272,B1,134.0,0.25,73,83.0
1273,F#3,134.0,0.25,73,83.0
1274,F#3,134.25,0.25,19,83.0
1275,A1,134.5,0.25,127,83.0
1276,E5,134.5,0.25,127,83.0
1277,F#3,134.5,0.25,73,83.0
1278,F#2,134.5,0.25,73,83.0
1279,C5,134.5,0.5,95,83.0
1280,A4,134.5,0.5,95,83.0
1281,G5,134.5,0.5,95,83.0
1282,E5,134.5,0.5,95,83.0
1283,F#3,134.75,0.25,19,83.0
1284,A1,135.0,1.0,127,83.0
1285,B1,135.0,0.25,91,83.0
1286,D2,135.0,0.25,91,83.0
1287,F#3,135.0,0.25,91,83.0
1288,G5,135.0,1.0,95,83.0
1289,E5,135.0,1.0,95,83.0
1290,C5,135.0,1.0,95,83.0
1291,A4,135.0,1.0,95,83.0
1292,F#3,135.25,0.25,19,83.0
1293,C5,135.25,0.25,127,83.0
1294,C5,135.5,0.25,127,83.0
1295,F#3,135.5,0.25,73,83.0
1296,F#2,135.5,0.25,73,83.0
1297,F#3,135.75,0.25,19,83.0
1298,C5,135.75,0.25,127,83.0
1299,F1,136.0,1.5,127,83.0
1300,D5,136.0,0.25,127,83.0
1301,F#3,136.0,0.25,73,83.0
1302,B1,136.0,0.25,73,83.0
1303,E5,136.0,1.0,95,83.0
1304,F4,136.0,1.0,95,83.0
1305,A4,136.0,1.0,95,83.0
1306,C5,136.0,1.0,95,83.0
1307,F#3,136.25,0.25,19,83.0
1308,E5,136.5,0.25,127,83.0
1309,F#2,136.5,0.25,73,83.0
1310,F#3,136.5,0.25,73,83.0
1311,F#3,136.75,0.25,19,83.0
1312,C5,137.0,0.25,127,83.0
1313,B1,137.0,0.25,91,83.0
1314,F#3,137.0,0.25,91,83.0
1315,D2,137.0,0.25,91,83.0
1316,F#3,137.25,0.25,19,83.0
1317,C5,137.25,0.25,127,83.0
1318,A1,137.5,1.0,127,83.0
1319,C5,137.5,0.25,127,83.0
1320,F#2,137.5,0.25,73,83.0
1321,F#3,137.5,0.25,73,83.0
1322,E5,137.5,1.0,95,83.0
1323,C5,137.5,1.0,95,83.0
1324,G5,137.5,1.0,95,83.0
1325,A4,137.5,1.0,95,83.0
1326,F#3,137.75,0.25,19,83.0
1327,C5,137.75,0.25,127,83.0
1328,D5,138.0,0.25,127,83.0
1329,F#3,138.0,0.25,73,83.0
1330,B1,138.0,0.25,73,83.0
1331,F#3,138.25,0.25,19,83.0
1332,D1,138.5,1.5,127,83.0
1333,C5,138.5,0.25,127,83.0
1334,F#3,138.5,0.25,73,83.0
1335,F#2,138.5,0.25,73,83.0
1336,D4,138.5,1.25,95,83.0
1337,F4,138.5,1.25,95,83.0
1338,C5,138.5,1.25,95,83.0
1339,A4,138.5,1.25,95,83.0
1340,F#3,138.75,0.25,19,83.0
1341,B1,139.0,0.25,91,83.0
1342,D2,139.0,0.25,91,83.0
1343,F#3,139.0,0.25,91,83.0
1344,F#3,139.25,0.25,19,83.0
1345,C5,139.5,0.25,127,83.0
1346,F#2,139.5,0.25,73,83.0
1347,F#3,139.5,0.25,73,83.0
1348,F#3,139.75,0.25,19,83.0
1349,C5,139.75,0.25,127,83.0
1350,D1,140.0,0.5,127,83.0
1351,D5,140.0,0.25,127,83.0
1352,F#3,140.0,0.25,73,83.0
1353,B1,140.0,0.25,73,83.0
1354,F#3,140.25,0.25,19,83.0
1355,A1,140.5,0.25,127,83.0
1356,E5,140.5,0.25,127,83.0
1357,F#3,140.5,0.25,73,83.0
1358,F#2,140.5,0.25,73,83.0
1359,C5,140.5,0.5,95,83.0
1360,E5,140.5,0.5,95,83.0
1361,A4,140.5,0.5,95,83.0
1362,G5,140.5,0.5,95,83.0
1363,F#3,140.75,0.25,19,83.0
1364,A1,141.0,1.25,127,83.0
1365,C5,141.0,0.25,127,83.0
1366,D2,141.0,0.25,91,83.0
1367,F#3,141.0,0.25,91,83.0
1368,B1,141.0,0.25,91,83.0
1369,E5,141.0,1.0,95,83.0
1370,C5,141.0,1.0,95,83.0
1371,A4,141.0,1.0,95,83.0
1372,G5,141.0,1.0,95,83.0
1373,F#3,141.25,0.25,19,83.0
1374,C5,141.25,0.25,127,83.0
1375,C5,141.5,0.25,127,83.0
1376,F#3,141.5,0.25,73,83.0
1377,F#2,141.5,0.25,73,83.0
1378,F#3,141.75,0.25,19,83.0
1379,C5,141.75,0.25,127,83.0
1380,B1,142.0,0.25,127,83.0
1381,D5,142.0,0.25,127,83.0
1382,D5,142.25,0.25,95,83.0
1383,A1,142.5,0.25,127,83.0
1384,E5,142.5,0.25,95,83.0
1385,A4,142.5,0.5,95,83.0
1386,E5,142.5,0.5,95,83.0
1387,G5,142.5,0.5,95,83.0
1388,C5,142.5,0.5,95,83.0
1389,A1,143.0,1.0,127,83.0
1390,D5,143.0,0.25,95,83.0
1391,C5,143.0,1.0,95,83.0
1392,E5,143.0,1.0,95,83.0
1393,G5,143.0,1.0,95,83.0
1394,A4,143.0,1.0,95,83.0
1395,C5,143.5,0.25,95,83.0
1396,F1,144.0,0.5,127,83.0
1397,E5,144.0,0.75,95,83.0
1398,C#3,144.0,0.25,95,83.0
1399,B1,144.0,0.25,73,83.0
1400,F#3,144.0,0.25,73,83.0
1401,A4,144.0,1.0,95,83.0
1402,F4,144.0,1.0,95,83.0
1403,E5,144.0,1.0,95,83.0
1404,C5,144.0,1.0,95,83.0
1405,F#3,144.25,0.25,19,83.0
1406,F#2,144.5,0.25,73,83.0
1407,F#3,144.5,0.25,73,83.0
1408,F#3,144.75,0.25,19,83.0
1409,F1,144.75,0.25,127,83.0
1410,F1,145.0,0.25,127,83.0
1411,E5,145.0,0.75,95,83.0
1412,F#3,145.0,0.25,91,83.0
1413,D2,145.0,0.25,91,83.0
1414,B1,145.0,0.25,91,83.0
1415,F#3,145.25,0.25,19,83.0
1416,A1,145.5,1.0,127,83.0
1417,F#2,145.5,0.25,73,83.0
1418,F#3,145.5,0.25,73,83.0
1419,C5,145.5,1.0,95,83.0
1420,E5,145.5,1.0,95,83.0
1421,G5,145.5,1.0,95,83.0
1422,A4,145.5,1.0,95,83.0
1423,F#3,145.75,0.25,19,83.0
1424,E5,146.0,0.75,95,83.0
1425,F#3,146.0,0.25,73,83.0
1426,B1,146.0,0.25,73,83.0
1427,F#3,146.25,0.25,19,83.0
1428,D1,146.5,0.5,127,83.0
1429,F#2,146.5,0.25,73,83.0
1430,F#3,146.5,0.25,73,83.0
1431,F4,146.5,1.25,95,83.0
1432,A4,146.5,1.25,95,83.0
1433,D4,146.5,1.25,95,83.0
1434,C5,146.5,1.25,95,83.0
1435,F#3,146.75,0.25,19,83.0
1436,D1,147.0,1.0,127,83.0
1437,E5,147.0,0.75,95,83.0
1438,D2,147.0,0.25,91,83.0
1439,F#3,147.0,0.25,91,83.0
1440,B1,147.0,0.25,91,83.0
1441,F#3,147.25,0.25,19,83.0
1442,F#2,147.5,0.25,73,83.0
1443,F#3,147.5,0.25,73,83.0
1444,F#3,147.75,0.25,19,83.0
1445,E5,148.0,0.75,95,83.0
1446,B1,148.0,0.25,73,83.0
1447,F#3,148.0,0.25,73,83.0
1448,F#3,148.25,0.25,19,83.0
1449,A1,148.5,0.25,127,83.0
1450,F#2,148.5,0.25,73,83.0
1451,F#3,148.5,0.25,73,83.0
1452,G5,148.5,0.5,95,83.0
1453,E5,148.5,0.5,95,83.0
1454,C5,148.5,0.5,95,83.0
1455,A4,148.5,0.5,95,83.0
1456,F#3,148.75,0.25,19,83.0
1457,A1,149.0,1.0,127,83.0
1458,E5,149.0,0.75,95,83.0
1459,D2,149.0,0.25,91,83.0
1460,F#3,149.0,0.25,91,83.0
1461,B1,149.0,0.25,91,83.0
1462,C5,149.0,1.0,95,83.0
1463,A4,149.0,1.0,95,83.0
1464,G5,149.0,1.0,95,83.0
1465,E5,149.0,1.0,95,83.0
1466,F#3,149.25,0.25,19,83.0
1467,F#3,149.5,0.25,73,83.0
1468,F#2,149.5,0.25,73,83.0
1469,F#3,149.75,0.25,19,83.0
1470,E5,150.0,0.75,95,83.0
1471,B1,150.0,0.25,73,83.0
1472,F#3,150.0,0.25,73,83.0
1473,F#3,150.25,0.25,19,83.0
1474,A1,150.5,0.25,127,83.0
1475,F#3,150.5,0.25,73,83.0
1476,F#2,150.5,0.25,73,83.0
1477,C5,150.5,0.5,95,83.0
1478,E5,150.5,0.5,95,83.0
1479,G5,150.5,0.5,95,83.0
1480,A4,150.5,0.5,95,83.0
1481,F#3,150.75,0.25,19,83.0
1482,A1,151.0,0.75,127,83.0
1483,D5,151.0,0.75,95,83.0
1484,F#3,151.0,0.25,91,83.0
1485,B1,151.0,0.25,91,83.0
1486,D2,151.0,0.25,91,83.0
1487,A4,151.0,1.0,95,83.0
1488,C5,151.0,1.0,95,83.0
1489,E5,151.0,1.0,95,83.0
1490,G5,151.0,1.0,95,83.0
1491,F#3,151.25,0.25,19,83.0
1492,F#3,151.5,0.25,73,83.0
1493,F#2,151.5,0.25,73,83.0
1494,F#3,151.75,0.25,19,83.0
1495,F1,152.0,0.5,127,83.0
1496,E5,152.0,0.75,95,83.0
1497,F#3,152.0,0.25,73,83.0
1498,B1,152.0,0.25,73,83.0
1499,E5,152.0,1.0,95,83.0
1500,C5,152.0,1.0,95,83.0
1501,F4,152.0,1.0,95,83.0
1502,A4,152.0,1.0,95,83.0
1503,F#3,152.25,0.25,19,83.0
1504,F#2,152.5,0.25,73,83.0
1505,F#3,152.5,0.25,73,83.0
1506,F#3,152.75,0.25,19,83.0
1507,F1,152.75,0.25,127,83.0
1508,F1,153.0,0.25,127,83.0
1509,E5,153.0,0.75,95,83.0
1510,B1,153.0,0.25,91,83.0
1511,F#3,153.0,0.25,91,83.0
1512,D2,153.0,0.25,91,83.0
1513,F#3,153.25,0.25,19,83.0
1514,A1,153.5,1.0,127,83.0
1515,F#2,153.5,0.25,73,83.0
1516,F#3,153.5,0.25,73,83.0
1517,A4,153.5,1.0,95,83.0
1518,C5,153.5,1.0,95,83.0
1519,E5,153.5,1.0,95,83.0
1520,G5,153.5,1.0,95,83.0
1521,F#3,153.75,0.25,19,83.0
1522,E5,154.0,0.75,95,83.0
1523,F#3,154.0,0.25,73,83.0
1524,B1,154.0,0.25,73,83.0
1525,F#3,154.25,0.25,19,83.0
1526,D1,154.5,0.5,127,83.0
1527,F#2,154.5,0.25,73,83.0
1528,F#3,154.5,0.25,73,83.0
1529,C5,154.5,1.25,95,83.0
1530,D4,154.5,1.25,95,83.0
1531,F4,154.5,1.25,95,83.0
1532,A4,154.5,1.25,95,83.0
1533,F#3,154.75,0.25,19,83.0
1534,D1,155.0,1.0,127,83.0
1535,E5,155.0,0.75,95,83.0
1536,F#3,155.0,0.25,91,83.0
1537,D2,155.0,0.25,91,83.0
1538,B1,155.0,0.25,91,83.0
1539,F#3,155.25,0.25,19,83.0
1540,F#3,155.5,0.25,73,83.0
1541,F#2,155.5,0.25,73,83.0
1542,F#3,155.75,0.25,19,83.0
1543,E5,156.0,0.75,95,83.0
1544,B1,156.0,0.25,73,83.0
1545,F#3,156.0,0.25,73,83.0
1546,F#3,156.25,0.25,19,83.0
1547,A1,156.5,0.25,127,83.0
1548,F#3,156.5,0.25,73,83.0
1549,F#2,156.5,0.25,73,83.0
1550,A4,156.5,0.5,95,83.0
1551,G5,156.5,0.5,95,83.0
1552,E5,156.5,0.5,95,83.0
1553,C5,156.5,0.5,95,83.0
1554,F#3,156.75,0.25,19,83.0
1555,A1,157.0,1.0,127,83.0
1556,E5,157.0,0.75,95,83.0
1557,B1,157.0,0.25,91,83.0
1558,F#3,157.0,0.25,91,83.0
1559,D2,157.0,0.25,91,83.0
1560,C5,157.0,1.0,95,83.0
1561,A4,157.0,1.0,95,83.0
1562,E5,157.0,1.0,95,83.0
1563,G5,157.0,1.0,95,83.0
1564,F#3,157.25,0.25,19,83.0
1565,F#2,157.5,0.25,73,83.0
1566,F#3,157.5,0.25,73,83.0
1567,F#3,157.75,0.25,19,83.0
1568,A4,158.0,0.75,95,83.0
1569,F#3,158.0,0.25,73,83.0
1570,B1,158.0,0.25,73,83.0
1571,F#3,158.25,0.25,19,83.0
1572,A1,158.5,0.25,127,83.0
1573,F#3,158.5,0.25,73,83.0
1574,F#2,158.5,0.25,73,83.0
1575,A4,158.5,0.5,95,83.0
1576,C5,158.5,0.5,95,83.0
1577,E5,158.5,0.5,95,83.0
1578,G5,158.5,0.5,95,83.0
1579,F#3,158.75,0.25,19,83.0
1580,A1,159.0,0.75,127,83.0
1581,G4,159.0,0.75,95,83.0
1582,B1,159.0,0.25,91,83.0
1583,F#3,159.0,0.25,91,83.0
1584,D2,159.0,0.25,91,83.0
1585,E5,159.0,1.0,95,83.0
1586,A4,159.0,1.0,95,83.0
1587,C5,159.0,1.0,95,83.0
1588,G5,159.0,1.0,95,83.0
1589,F#3,159.25,0.25,19,83.0
1590,F#2,159.5,0.25,73,83.0
1591,F#3,159.5,0.25,73,83.0
1592,F#3,159.75,0.25,57,83.0
1593,D2,159.75,0.25,57,83.0
1594,F1,160.0,0.5,127,83.0
1595,E5,160.0,0.75,95,83.0
1596,B1,160.0,0.25,73,83.0
1597,F#3,160.0,0.25,73,83.0
1598,C5,160.0,1.0,95,83.0
1599,A4,160.0,1.0,95,83.0
1600,E5,160.0,1.0,95,83.0
1601,F4,160.0,1.0,95,83.0
1602,F#3,160.25,0.25,19,83.0
1603,F#2,160.5,0.25,73,83.0
1604,F#3,160.5,0.25,73,83.0
1605,F#3,160.75,0.25,19,83.0
1606,F1,160.75,0.25,127,83.0
1607,F1,161.0,0.25,127,83.0
1608,E5,161.0,0.75,95,83.0
1609,D2,161.0,0.25,91,83.0
1610,F#3,161.0,0.25,91,83.0
1611,B1,161.0,0.25,91,83.0
1612,F#3,161.25,0.25,19,83.0
1613,A1,161.5,1.0,127,83.0
1614,F#2,161.5,0.25,73,83.0
1615,F#3,161.5,0.25,73,83.0
1616,E5,161.5,1.0,95,83.0
1617,G5,161.5,1.0,95,83.0
1618,C5,161.5,1.0,95,83.0
1619,A4,161.5,1.0,95,83.0
1620,F#3,161.75,0.25,19,83.0
1621,E5,162.0,0.75,95,83.0
1622,F#3,162.0,0.25,73,83.0
1623,B1,162.0,0.25,73,83.0
1624,F#3,162.25,0.25,19,83.0
1625,D1,162.5,0.5,127,83.0
1626,F#2,162.5,0.25,73,83.0
1627,F#3,162.5,0.25,73,83.0
1628,F4,162.5,1.25,95,83.0
1629,A4,162.5,1.25,95,83.0
1630,D4,162.5,1.25,95,83.0
1631,C5,162.5,1.25,95,83.0
1632,F#3,162.75,0.25,19,83.0
1633,D1,163.0,1.0,127,83.0
1634,E5,163.0,0.75,95,83.0
1635,F#3,163.0,0.25,91,83.0
1636,D2,163.0,0.25,91,83.0
1637,B1,163.0,0.25,91,83.0
1638,F#3,163.25,0.25,19,83.0
1639,F#3,163.5,0.25,73,83.0
1640,F#2,163.5,0.25,73,83.0
1641,F#3,163.75,0.25,19,83.0
1642,E5,164.0,0.75,95,83.0
1643,F#3,164.0,0.25,73,83.0
1644,B1,164.0,0.25,73,83.0
1645,F#3,164.25,0.25,19,83.0
1646,A1,164.5,0.25,127,83.0
1647,F#3,164.5,0.25,73,83.0
1648,F#2,164.5,0.25,73,83.0
1649,G5,164.5,0.5,95,83.0
1650,C5,164.5,0.5,95,83.0
1651,E5,164.5,0.5,95,83.0
1652,A4,164.5,0.5,95,83.0
1653,F#3,164.75,0.25,19,83.0
1654,A1,165.0,1.0,127,83.0
1655,E5,165.0,0.75,95,83.0
1656,B1,165.0,0.25,91,83.0
1657,D2,165.0,0.25,91,83.0
1658,F#3,165.0,0.25,91,83.0
1659,G5,165.0,1.0,95,83.0
1660,E5,165.0,1.0,95,83.0
1661,C5,165.0,1.0,95,83.0
1662,A4,165.0,1.0,95,83.0
1663,F#3,165.25,0.25,19,83.0
1664,F#3,165.5,0.25,73,83.0
1665,F#2,165.5,0.25,73,83.0
1666,F#3,165.75,0.25,19,83.0
1667,E5,166.0,0.75,95,83.0
1668,B1,166.0,0.25,73,83.0
1669,F#3,166.0,0.25,73,83.0
1670,F#3,166.25,0.25,19,83.0
1671,A1,166.5,0.25,127,83.0
1672,F#3,166.5,0.25,73,83.0
1673,F#2,166.5,0.25,73,83.0
1674,G5,166.5,0.5,95,83.0
1675,C5,166.5,0.5,95,83.0
1676,E5,166.5,0.5,95,83.0
1677,A4,166.5,0.5,95,83.0
1678,F#3,166.75,0.25,19,83.0
1679,A1,167.0,0.75,127,83.0
1680,D5,167.0,0.75,95,83.0
1681,B1,167.0,0.25,91,83.0
1682,F#3,167.0,0.25,91,83.0
1683,D2,167.0,0.25,91,83.0
1684,A4,167.0,1.0,95,83.0
1685,C5,167.0,1.0,95,83.0
1686,E5,167.0,1.0,95,83.0
1687,G5,167.0,1.0,95,83.0
1688,F#3,167.25,0.25,19,83.0
1689,F#2,167.5,0.25,73,83.0
1690,F#3,167.5,0.25,73,83.0
1691,F#3,167.75,0.25,19,83.0
1692,F1,168.0,0.5,127,83.0
1693,E5,168.0,0.75,95,83.0
1694,F#3,168.0,0.25,73,83.0
1695,B1,168.0,0.25,73,83.0
1696,F4,168.0,1.0,95,83.0
1697,E5,168.0,1.0,95,83.0
1698,A4,168.0,1.0,95,83.0
1699,C5,168.0,1.0,95,83.0
1700,F#3,168.25,0.25,19,83.0
1701,F#3,168.5,0.25,73,83.0
1702,F#2,168.5,0.25,73,83.0
1703,F#3,168.75,0.25,19,83.0
1704,F1,168.75,0.25,127,83.0
1705,F1,169.0,0.25,127,83.0
1706,E5,169.0,0.75,95,83.0
1707,B1,169.0,0.25,91,83.0
1708,F#3,169.0,0.25,91,83.0
1709,D2,169.0,0.25,91,83.0
1710,F#3,169.25,0.25,19,83.0
1711,A1,169.5,1.0,127,83.0
1712,F#2,169.5,0.25,73,83.0
1713,F#3,169.5,0.25,73,83.0
1714,A4,169.5,1.0,95,83.0
1715,G5,169.5,1.0,95,83.0
1716,E5,169.5,1.0,95,83.0
1717,C5,169.5,1.0,95,83.0
1718,F#3,169.75,0.25,19,83.0
1719,G5,170.0,0.75,95,83.0
1720,B1,170.0,0.25,73,83.0
1721,F#3,170.0,0.25,73,83.0
1722,F#3,170.25,0.25,19,83.0
1723,D1,170.5,0.5,127,83.0
1724,F#2,170.5,0.25,73,83.0
1725,F#3,170.5,0.25,73,83.0
1726,F4,170.5,1.25,95,83.0
1727,C5,170.5,1.25,95,83.0
1728,D4,170.5,1.25,95,83.0
1729,A4,170.5,1.25,95,83.0
1730,F#3,170.75,0.25,19,83.0
1731,D1,171.0,1.0,127,83.0
1732,G5,171.0,0.75,95,83.0
1733,D2,171.0,0.25,91,83.0
1734,F#3,171.0,0.25,91,83.0
1735,B1,171.0,0.25,91,83.0
1736,F#3,171.25,0.25,19,83.0
1737,F#3,171.5,0.25,73,83.0
1738,F#2,171.5,0.25,73,83.0
1739,F#3,171.75,0.25,19,83.0
1740,A4,172.0,0.75,95,83.0
1741,F#3,172.0,0.25,73,83.0
1742,B1,172.0,0.25,73,83.0
1743,F#3,172.25,0.25,19,83.0
1744,A1,172.5,0.25,127,83.0
1745,F#2,172.5,0.25,73,83.0
1746,F#3,172.5,0.25,73,83.0
1747,G5,172.5,0.5,95,83.0
1748,E5,172.5,0.5,95,83.0
1749,C5,172.5,0.5,95,83.0
1750,A4,172.5,0.5,95,83.0
1751,F#3,172.75,0.25,19,83.0
1752,A1,173.0,1.0,127,83.0
1753,A4,173.0,0.75,95,83.0
1754,D2,173.0,0.25,91,83.0
1755,B1,173.0,0.25,91,83.0
1756,F#3,173.0,0.25,91,83.0
1757,E5,173.0,1.0,95,83.0
1758,A4,173.0,1.0,95,83.0
1759,C5,173.0,1.0,95,83.0
1760,G5,173.0,1.0,95,83.0
1761,F#3,173.25,0.25,19,83.0
1762,F#2,173.5,0.25,73,83.0
1763,F#3,173.5,0.25,73,83.0
1764,F#3,173.75,0.25,19,83.0
1765,A4,174.0,0.75,95,83.0
1766,B1,174.0,0.25,73,83.0
1767,F#3,174.0,0.25,73,83.0
1768,F#3,174.25,0.25,19,83.0
1769,A1,174.5,0.25,127,83.0
1770,F#3,174.5,0.25,73,83.0
1771,F#2,174.5,0.25,73,83.0
1772,A4,174.5,0.5,95,83.0
1773,C5,174.5,0.5,95,83.0
1774,E5,174.5,0.5,95,83.0
1775,G5,174.5,0.5,95,83.0
1776,F#3,174.75,0.25,19,83.0
1777,A1,175.0,0.75,127,83.0
1778,G4,175.0,0.75,95,83.0
1779,D2,175.0,0.25,91,83.0
1780,F#3,175.0,0.25,91,83.0
1781,B1,175.0,0.25,91,83.0
1782,C5,175.0,1.0,95,83.0
1783,A4,175.0,1.0,95,83.0
1784,G5,175.0,1.0,95,83.0
1785,E5,175.0,1.0,95,83.0
1786,F#3,175.25,0.25,19,83.0
1787,F#3,175.5,0.25,73,83.0
1788,F#2,175.5,0.25,73,83.0
1789,F#3,175.75,0.25,57,83.0
1790,D2,175.75,0.25,57,83.0
1791,F1,176.0,0.5,127,83.0
1792,C#3,176.0,0.25,95,83.0
1793,F#3,176.0,0.25,73,83.0
1794,B1,176.0,0.25,73,83.0
1795,F4,176.0,1.0,95,83.0
1796,C5,176.0,1.0,95,83.0
1797,E5,176.0,1.0,95,83.0
1798,A4,176.0,1.0,95,83.0
1799,F#3,176.25,0.25,19,83.0
1800,F#2,176.5,0.25,73,83.0
1801,F#3,176.5,0.25,73,83.0
1802,F1,176.75,0.25,127,83.0
1803,B1,176.75,0.25,73,83.0
1804,F#3,176.75,0.25,73,83.0
1805,F1,177.0,0.25,127,83.0
1806,B1,177.0,0.25,91,83.0
1807,D2,177.0,0.25,91,83.0
1808,F#3,177.0,0.25,91,83.0
1809,F#3,177.25,0.25,19,83.0
1810,A1,177.5,1.0,127,83.0
1811,F#3,177.5,0.25,73,83.0
1812,F#2,177.5,0.25,73,83.0
1813,C5,177.5,1.0,95,83.0
1814,G5,177.5,1.0,95,83.0
1815,E5,177.5,1.0,95,83.0
1816,A4,177.5,1.0,95,83.0
1817,F#3,177.75,0.25,19,83.0
1818,B1,178.0,0.25,73,83.0
1819,F#3,178.0,0.25,73,83.0
1820,F#3,178.25,0.25,19,83.0
1821,D1,178.5,0.5,127,83.0
1822,F#2,178.5,0.25,73,83.0
1823,F#3,178.5,0.25,73,83.0
1824,A4,178.5,1.25,95,83.0
1825,D4,178.5,1.25,95,83.0
1826,F4,178.5,1.25,95,83.0
1827,C5,178.5,1.25,95,83.0
1828,F#3,178.75,0.25,19,83.0
1829,D1,179.0,1.0,127,83.0
1830,F#3,179.0,0.25,91,83.0
1831,B1,179.0,0.25,91,83.0
1832,D2,179.0,0.25,91,83.0
1833,F#3,179.25,0.25,19,83.0
1834,F#3,179.5,0.25,73,83.0
1835,F#2,179.5,0.25,73,83.0
1836,F#3,179.75,0.25,19,83.0
1837,F#3,180.0,0.25,73,83.0
1838,B1,180.0,0.25,73,83.0
1839,F#3,180.25,0.25,19,83.0
1840,A1,180.5,0.25,127,83.0
1841,F#2,180.5,0.25,73,83.0
1842,F#3,180.5,0.25,73,83.0
1843,G5,180.5,0.5,95,83.0
1844,E5,180.5,0.5,95,83.0
1845,A4,180.5,0.5,95,83.0
1846,C5,180.5,0.5,95,83.0
1847,F#3,180.75,0.25,19,83.0
1848,A1,181.0,1.0,127,83.0
1849,D2,181.0,0.25,91,83.0
1850,B1,181.0,0.25,91,83.0
1851,F#3,181.0,0.25,91,83.0
1852,C5,181.0,1.0,95,83.0
1853,E5,181.0,1.0,95,83.0
1854,A4,181.0,1.0,95,83.0
1855,G5,181.0,1.0,95,83.0
1856,F#3,181.25,0.25,19,83.0
1857,F#3,181.5,0.25,73,83.0
1858,F#2,181.5,0.25,73,83.0
1859,F#3,181.75,0.25,19,83.0
1860,B1,182.0,0.25,73,83.0
1861,F#3,182.0,0.25,73,83.0
1862,F#3,182.25,0.25,19,83.0
1863,A1,182.5,0.25,127,83.0
1864,F#3,182.5,0.25,73,83.0
1865,F#2,182.5,0.25,73,83.0
1866,A4,182.5,0.5,95,83.0
1867,E5,182.5,0.5,95,83.0
1868,G5,182.5,0.5,95,83.0
1869,C5,182.5,0.5,95,83.0
1870,F#3,182.75,0.25,19,83.0
1871,A1,183.0,0.75,127,83.0
1872,D2,183.0,0.25,91,83.0
1873,B1,183.0,0.25,91,83.0
1874,F#3,183.0,0.25,91,83.0
1875,A4,183.0,1.0,95,83.0
1876,E5,183.0,1.0,95,83.0
1877,G5,183.0,1.0,95,83.0
1878,C5,183.0,1.0,95,83.0
1879,F#3,183.25,0.25,19,83.0
1880,F#2,183.5,0.25,73,83.0
1881,F#3,183.5,0.25,73,83.0
1882,F#3,183.75,0.25,19,83.0
1883,F1,184.0,0.5,127,83.0
1884,F#3,184.0,0.25,73,83.0
1885,B1,184.0,0.25,73,83.0
1886,F4,184.0,1.0,95,83.0
1887,A4,184.0,1.0,95,83.0
1888,C5,184.0,1.0,95,83.0
1889,E5,184.0,1.0,95,83.0
1890,F#3,184.25,0.25,19,83.0
1891,F#3,184.5,0.25,73,83.0
1892,F#2,184.5,0.25,73,83.0
1893,F1,184.75,0.25,127,83.0
1894,F#3,184.75,0.25,73,83.0
1895,B1,184.75,0.25,73,83.0
1896,F1,185.0,0.25,127,83.0
1897,D2,185.0,0.25,91,83.0
1898,B1,185.0,0.25,91,83.0
1899,F#3,185.0,0.25,91,83.0
1900,F#3,185.25,0.25,19,83.0
1901,A1,185.5,1.0,127,83.0
1902,F#2,185.5,0.25,73,83.0
1903,F#3,185.5,0.25,73,83.0
1904,C5,185.5,1.0,95,83.0
1905,G5,185.5,1.0,95,83.0
1906,A4,185.5,1.0,95,83.0
1907,E5,185.5,1.0,95,83.0
1908,F#3,185.75,0.25,19,83.0
1909,F#3,186.0,0.25,73,83.0
1910,B1,186.0,0.25,73,83.0
1911,F#3,186.25,0.25,19,83.0
1912,D1,186.5,0.5,127,83.0
1913,F#2,186.5,0.25,73,83.0
1914,F#3,186.5,0.25,73,83.0
1915,C5,186.5,1.25,95,83.0
1916,D4,186.5,1.25,95,83.0
1917,F4,186.5,1.25,95,83.0
1918,A4,186.5,1.25,95,83.0
1919,F#3,186.75,0.25,19,83.0
1920,D1,187.0,1.0,127,83.0
1921,F#3,187.0,0.25,91,83.0
1922,B1,187.0,0.25,91,83.0
1923,D2,187.0,0.25,91,83.0
1924,F#3,187.25,0.25,19,83.0
1925,F#3,187.5,0.25,73,83.0
1926,F#2,187.5,0.25,73,83.0
1927,F#3,187.75,0.25,19,83.0
1928,F#3,188.0,0.25,73,83.0
1929,B1,188.0,0.25,73,83.0
1930,F#3,188.25,0.25,19,83.0
1931,A1,188.5,0.25,127,83.0
1932,F#3,188.5,0.25,73,83.0
1933,F#2,188.5,0.25,73,83.0
1934,G5,188.5,0.5,95,83.0
1935,E5,188.5,0.5,95,83.0
1936,C5,188.5,0.5,95,83.0
1937,A4,188.5,0.5,95,83.0
1938,F#3,188.75,0.25,19,83.0
1939,A1,189.0,1.0,127,83.0
1940,F#3,189.0,0.25,91,83.0
1941,D2,189.0,0.25,91,83.0
1942,B1,189.0,0.25,91,83.0
1943,G5,189.0,1.0,95,83.0
1944,C5,189.0,1.0,95,83.0
1945,A4,189.0,1.0,95,83.0
1946,E5,189.0,1.0,95,83.0
1947,F#3,189.25,0.25,19,83.0
1948,F#2,189.5,0.25,73,83.0
1949,F#3,189.5,0.25,73,83.0
1950,F#3,189.75,0.25,19,83.0
1951,B1,190.0,0.25,73,83.0
1952,F#3,190.0,0.25,73,83.0
1953,F#3,190.25,0.25,19,83.0
1954,A1,190.5,0.25,127,83.0
1955,F#2,190.5,0.25,73,83.0
1956,F#3,190.5,0.25,73,83.0
1957,G5,190.5,0.5,95,83.0
1958,E5,190.5,0.5,95,83.0
1959,C5,190.5,0.5,95,83.0
1960,A4,190.5,0.5,95,83.0
1961,F#3,190.75,0.25,19,83.0
1962,A1,191.0,0.75,127,83.0
1963,B1,191.0,0.25,91,83.0
1964,F#3,191.0,0.25,91,83.0
1965,D2,191.0,0.25,91,83.0
1966,G5,191.0,1.0,95,83.0
1967,E5,191.0,1.0,95,83.0
1968,C5,191.0,1.0,95,83.0
1969,A4,191.0,1.0,95,83.0
1970,F#3,191.25,0.25,19,83.0
1971,F#2,191.5,0.25,73,83.0
1972,F#3,191.5,0.25,73,83.0
1973,F#3,191.75,0.25,57,83.0
1974,D2,191.75,0.25,57,83.0
1975,F1,192.0,0.5,127,83.0
1976,F#3,192.0,0.25,73,83.0
1977,B1,192.0,0.25,73,83.0
1978,E5,192.0,1.0,95,83.0
1979,C5,192.0,1.0,95,83.0
1980,F4,192.0,1.0,95,83.0
1981,A4,192.0,1.0,95,83.0
1982,F#3,192.25,0.25,19,83.0
1983,F#2,192.5,0.25,73,83.0
1984,F#3,192.5,0.25,73,83.0
1985,F1,192.75,0.25,127,83.0
1986,B1,192.75,0.25,73,83.0
1987,F#3,192.75,0.25,73,83.0
1988,F1,193.0,0.25,127,83.0
1989,B1,193.0,0.25,91,83.0
1990,D2,193.0,0.25,91,83.0
1991,F#3,193.0,0.25,91,83.0
1992,F#3,193.25,0.25,19,83.0
1993,A1,193.5,1.0,127,83.0
1994,F#3,193.5,0.25,73,83.0
1995,F#2,193.5,0.25,73,83.0
1996,A4,193.5,1.0,95,83.0
1997,G5,193.5,1.0,95,83.0
1998,E5,193.5,1.0,95,83.0
1999,C5,193.5,1.0,95,83.0
2000,F#3,193.75,0.25,19,83.0
2001,B1,194.0,0.25,73,83.0
2002,F#3,194.0,0.25,73,83.0
2003,F#3,194.25,0.25,19,83.0
2004,D1,194.5,0.5,127,83.0
2005,F#2,194.5,0.25,73,83.0
2006,F#3,194.5,0.25,73,83.0
2007,F4,194.5,1.25,95,83.0
2008,D4,194.5,1.25,95,83.0
2009,C5,194.5,1.25,95,83.0
2010,A4,194.5,1.25,95,83.0
2011,F#3,194.75,0.25,19,83.0
2012,D1,195.0,1.0,127,83.0
2013,F#3,195.0,0.25,91,83.0
2014,D2,195.0,0.25,91,83.0
2015,B1,195.0,0.25,91,83.0
2016,F#3,195.25,0.25,19,83.0
2017,F#2,195.5,0.25,73,83.0
2018,F#3,195.5,0.25,73,83.0
2019,F#3,195.75,0.25,19,83.0
2020,B1,196.0,0.25,73,83.0
2021,F#3,196.0,0.25,73,83.0
2022,F#3,196.25,0.25,19,83.0
2023,A1,196.5,0.25,127,83.0
2024,F#2,196.5,0.25,73,83.0
2025,F#3,196.5,0.25,73,83.0
2026,E5,196.5,0.5,95,83.0
2027,A4,196.5,0.5,95,83.0
2028,C5,196.5,0.5,95,83.0
2029,G5,196.5,0.5,95,83.0
2030,F#3,196.75,0.25,19,83.0
2031,A1,197.0,1.0,127,83.0
2032,D2,197.0,0.25,91,83.0
2033,F#3,197.0,0.25,91,83.0
2034,B1,197.0,0.25,91,83.0
2035,C5,197.0,1.0,95,83.0
2036,A4,197.0,1.0,95,83.0
2037,E5,197.0,1.0,95,83.0
2038,G5,197.0,1.0,95,83.0
2039,F#3,197.25,0.25,19,83.0
2040,F#3,197.5,0.25,73,83.0
2041,F#2,197.5,0.25,73,83.0
2042,F#3,197.75,0.25,19,83.0
2043,F#3,198.0,0.25,73,83.0
2044,B1,198.0,0.25,73,83.0
2045,F#3,198.25,0.25,19,83.0
2046,A1,198.5,0.25,127,83.0
2047,F#2,198.5,0.25,73,83.0
2048,F#3,198.5,0.25,73,83.0
2049,C5,198.5,0.5,95,83.0
2050,G5,198.5,0.5,95,83.0
2051,E5,198.5,0.5,95,83.0
2052,A4,198.5,0.5,95,83.0
2053,F#3,198.75,0.25,19,83.0
2054,A1,199.0,0.75,127,83.0
2055,D2,199.0,0.25,91,83.0
2056,B1,199.0,0.25,91,83.0
2057,F#3,199.0,0.25,91,83.0
2058,G5,199.0,1.0,95,83.0
2059,C5,199.0,1.0,95,83.0
2060,A4,199.0,1.0,95,83.0
2061,E5,199.0,1.0,95,83.0
2062,F#3,199.25,0.25,19,83.0
2063,F#3,199.5,0.25,73,83.0
2064,F#2,199.5,0.25,73,83.0
2065,F#3,199.75,0.25,19,83.0
2066,F1,200.0,0.5,127,83.0
2067,F#3,200.0,0.25,73,83.0
2068,B1,200.0,0.25,73,83.0
2069,E5,200.0,1.0,95,83.0
2070,A4,200.0,1.0,95,83.0
2071,C5,200.0,1.0,95,83.0
2072,F4,200.0,1.0,95,83.0
2073,F#3,200.25,0.25,19,83.0
2074,F#2,200.5,0.25,73,83.0
2075,F#3,200.5,0.25,73,83.0
2076,F1,200.75,0.25,127,83.0
2077,B1,200.75,0.25,73,83.0
2078,F#3,200.75,0.25,73,83.0
2079,F1,201.0,0.25,127,83.0
2080,D2,201.0,0.25,91,83.0
2081,B1,201.0,0.25,91,83.0
2082,F#3,201.0,0.25,91,83.0
2083,F#3,201.25,0.25,19,83.0
2084,A1,201.5,1.0,127,83.0
2085,F#2,201.5,0.25,73,83.0
2086,F#3,201.5,0.25,73,83.0
2087,C5,201.5,1.0,95,83.0
2088,E5,201.5,1.0,95,83.0
2089,A4,201.5,1.0,95,83.0
2090,G5,201.5,1.0,95,83.0
2091,F#3,201.75,0.25,19,83.0
2092,F#3,202.0,0.25,73,83.0
2093,B1,202.0,0.25,73,83.0
2094,F#3,202.25,0.25,19,83.0
2095,D1,202.5,0.5,127,83.0
2096,F#3,202.5,0.25,73,83.0
2097,F#2,202.5,0.25,73,83.0
2098,C5,202.5,1.25,95,83.0
2099,A4,202.5,1.25,95,83.0
2100,D4,202.5,1.25,95,83.0
2101,F4,202.5,1.25,95,83.0
2102,F#3,202.75,0.25,19,83.0
2103,D1,203.0,1.0,127,83.0
2104,F#3,203.0,0.25,91,83.0
2105,D2,203.0,0.25,91,83.0
2106,B1,203.0,0.25,91,83.0
2107,F#3,203.25,0.25,19,83.0
2108,F#2,203.5,0.25,73,83.0
2109,F#3,203.5,0.25,73,83.0
2110,F#3,203.75,0.25,19,83.0
2111,F#3,204.0,0.25,73,83.0
2112,B1,204.0,0.25,73,83.0
2113,F#3,204.25,0.25,19,83.0
2114,A1,204.5,0.25,127,83.0
2115,F#3,204.5,0.25,73,83.0
2116,F#2,204.5,0.25,73,83.0
2117,E5,204.5,0.5,95,83.0
2118,C5,204.5,0.5,95,83.0
2119,G5,204.5,0.5,95,83.0
2120,A4,204.5,0.5,95,83.0
2121,F#3,204.75,0.25,19,83.0
2122,A1,205.0,1.0,127,83.0
2123,F#3,205.0,0.25,91,83.0
2124,D2,205.0,0.25,91,83.0
2125,B1,205.0,0.25,91,83.0
2126,G5,205.0,1.0,95,83.0
2127,E5,205.0,1.0,95,83.0
2128,A4,205.0,1.0,95,83.0
2129,C5,205.0,1.0,95,83.0
2130,F#3,205.25,0.25,19,83.0
2131,F#3,205.5,0.25,73,83.0
2132,F#2,205.5,0.25,73,83.0
2133,F#3,205.75,0.25,19,83.0
2134,F#3,206.0,0.25,73,83.0
2135,B1,206.0,0.25,73,83.0
2136,F#3,206.25,0.25,19,83.0
2137,A1,206.5,0.25,127,83.0
2138,F#2,206.5,0.25,73,83.0
2139,F#3,206.5,0.25,73,83.0
2140,C5,206.5,0.5,95,83.0
2141,A4,206.5,0.5,95,83.0
2142,E5,206.5,0.5,95,83.0
2143,G5,206.5,0.5,95,83.0
2144,F#3,206.75,0.25,19,83.0
2145,A1,207.0,0.75,127,83.0
2146,F#3,207.0,0.25,91,83.0
2147,B1,207.0,0.25,91,83.0
2148,D2,207.0,0.25,91,83.0
2149,A4,207.0,1.0,95,83.0
2150,C5,207.0,1.0,95,83.0
2151,E5,207.0,1.0,95,83.0
2152,G5,207.0,1.0,95,83.0
2153,F#3,207.25,0.25,19,83.0
2154,F#3,207.5,0.25,73,83.0
2155,F#2,207.5,0.25,73,83.0
2156,F#3,207.75,0.25,57,83.0
2157,D2,207.75,0.25,57,83.0
