,note_name,start_time,duration,velocity,tempo
0,D4,0.01,0.279,69,120.0
1,D4,0.29,0.228,64,120.0
2,D5,0.533,0.195,64,120.0
3,A4,1.029,0.284,65,120.0
4,G#4,1.765,0.24,64,120.0
5,G4,2.277,0.183,64,120.0
6,F4,2.761,0.486,64,120.0
7,D4,3.263,0.227,64,120.0
8,F4,3.505,0.227,64,120.0
9,G4,3.747,0.237,64,120.0
10,C4,4.004,0.285,69,120.0
11,C4,4.29,0.228,64,120.0
12,D5,4.533,0.195,64,120.0
13,A4,5.029,0.284,65,120.0
14,G#4,5.765,0.24,64,120.0
15,G4,6.277,0.183,64,120.0
16,F4,6.761,0.486,64,120.0
17,D4,7.263,0.227,64,120.0
18,F4,7.505,0.227,64,120.0
19,G4,7.747,0.237,64,120.0
20,B3,8.004,0.285,69,120.0
21,B3,8.29,0.228,64,120.0
22,D5,8.533,0.195,64,120.0
23,A4,9.029,0.284,65,120.0
24,G#4,9.765,0.24,64,120.0
25,G4,10.277,0.183,64,120.0
26,F4,10.761,0.486,64,120.0
27,D4,11.263,0.227,64,120.0
28,F4,11.505,0.227,64,120.0
29,G4,11.747,0.237,64,120.0
30,B-3,12.004,0.285,69,120.0
31,B-3,12.29,0.228,64,120.0
32,D5,12.533,0.195,64,120.0
33,A4,13.029,0.284,65,120.0
34,G#4,13.765,0.24,64,120.0
35,G4,14.277,0.183,64,120.0
36,F4,14.761,0.486,64,120.0
37,D4,15.263,0.227,64,120.0
38,F4,15.505,0.227,64,120.0
39,G4,15.747,0.237,64,120.0
40,D4,16.004,0.229,69,120.0
41,D3,16.004,0.229,69,120.0
42,D4,16.29,0.228,64,120.0
43,D5,16.533,0.195,64,120.0
44,D3,16.533,0.195,64,120.0
45,A4,17.029,0.251,65,120.0
46,D3,17.029,0.251,65,120.0
47,D3,17.281,0.183,64,120.0
48,G#4,17.765,0.24,64,120.0
49,D3,17.765,0.24,64,120.0
50,G4,18.277,0.183,64,120.0
51,D3,18.277,0.183,64,120.0
52,F4,18.761,0.486,64,120.0
53,D3,18.761,0.25,64,120.0
54,D3,19.012,0.25,65,120.0
55,D4,19.263,0.241,64,120.0
56,D3,19.263,0.241,64,120.0
57,F4,19.505,0.194,64,120.0
58,D3,19.505,0.194,64,120.0
59,G4,19.747,0.237,64,120.0
60,C4,20.004,0.229,69,120.0
61,C3,20.004,0.229,69,120.0
62,C4,20.29,0.228,64,120.0
63,D5,20.533,0.195,64,120.0
64,C3,20.533,0.195,64,120.0
65,A4,21.029,0.251,65,120.0
66,C3,21.029,0.251,65,120.0
67,C3,21.281,0.183,64,120.0
68,G#4,21.765,0.24,64,120.0
69,C3,21.765,0.24,64,120.0
70,G4,22.277,0.183,64,120.0
71,C3,22.277,0.183,64,120.0
72,F4,22.761,0.486,64,120.0
73,C3,22.761,0.25,64,120.0
74,C3,23.012,0.25,65,120.0
75,D4,23.263,0.241,64,120.0
76,C3,23.263,0.241,64,120.0
77,F4,23.505,0.194,64,120.0
78,C3,23.505,0.194,64,120.0
79,G4,23.747,0.237,64,120.0
80,B3,24.004,0.229,69,120.0
81,B2,24.004,0.229,69,120.0
82,B3,24.29,0.228,64,120.0
83,D5,24.533,0.195,64,120.0
84,B2,24.533,0.195,64,120.0
85,A4,25.029,0.251,65,120.0
86,B2,25.029,0.251,65,120.0
87,B2,25.281,0.183,64,120.0
88,G#4,25.765,0.24,64,120.0
89,B2,25.765,0.24,64,120.0
90,G4,26.277,0.183,64,120.0
91,B2,26.277,0.183,64,120.0
92,F4,26.761,0.486,64,120.0
93,B2,26.761,0.25,64,120.0
94,B2,27.012,0.25,65,120.0
95,D4,27.263,0.241,64,120.0
96,B2,27.263,0.241,64,120.0
97,F4,27.505,0.194,64,120.0
98,B2,27.505,0.194,64,120.0
99,G4,27.747,0.237,64,120.0
100,B-3,28.004,0.229,69,120.0
101,B-2,28.004,0.229,69,120.0
102,B-3,28.29,0.228,64,120.0
103,D5,28.533,0.195,64,120.0
104,B-2,28.533,0.195,64,120.0
105,A4,29.029,0.251,65,120.0
106,B-2,29.029,0.251,65,120.0
107,B-2,29.281,0.183,64,120.0
108,G#4,29.765,0.24,64,120.0
109,C3,29.765,0.24,64,120.0
110,G4,30.277,0.183,64,120.0
111,C3,30.277,0.183,64,120.0
112,F4,30.761,0.486,64,120.0
113,C3,30.761,0.25,64,120.0
114,C3,31.012,0.25,65,120.0
115,D4,31.263,0.241,64,120.0
116,C3,31.263,0.241,64,120.0
117,F4,31.505,0.194,64,120.0
118,C3,31.505,0.194,64,120.0
119,G4,31.747,0.237,64,120.0
120,D2,32.004,0.499,100,120.0
121,D4,32.004,0.285,98,120.0
122,D5,32.004,0.285,98,120.0
123,D4,32.29,0.242,95,120.0
124,D5,32.29,0.242,95,120.0
125,D3,32.533,0.466,96,120.0
126,D5,32.533,0.195,95,120.0
127,D6,32.533,0.195,95,120.0
128,A4,33.029,0.251,96,120.0
129,A5,33.029,0.251,96,120.0
130,D2,33.029,0.251,96,120.0
131,D2,33.281,0.226,95,120.0
132,D3,33.522,0.227,96,120.0
133,D2,33.765,0.512,95,120.0
134,G#4,33.765,0.255,95,120.0
135,G#5,33.765,0.255,95,120.0
136,G4,34.277,0.226,95,120.0
137,G5,34.277,0.226,95,120.0
138,D2,34.277,0.226,95,120.0
139,D3,34.519,0.227,96,120.0
140,D2,34.761,0.25,95,120.0
141,F4,34.761,0.501,95,120.0
142,F5,34.761,0.501,95,120.0
143,D2,35.012,0.25,96,120.0
144,D4,35.263,0.227,95,120.0
145,D5,35.263,0.227,95,120.0
146,D2,35.263,0.227,95,120.0
147,D3,35.505,0.465,96,120.0
148,F4,35.505,0.241,95,120.0
149,F5,35.505,0.241,95,120.0
150,G4,35.747,0.252,95,120.0
151,G5,35.747,0.252,95,120.0
152,C2,36.004,0.499,99,120.0
153,C4,36.004,0.285,100,120.0
154,C5,36.004,0.285,100,120.0
155,C4,36.29,0.242,95,120.0
156,C5,36.29,0.242,95,120.0
157,C3,36.533,0.466,96,120.0
158,D5,36.533,0.195,95,120.0
159,D6,36.533,0.195,95,120.0
160,A4,37.029,0.251,96,120.0
161,A5,37.029,0.251,96,120.0
162,C2,37.029,0.251,96,120.0
163,C2,37.281,0.226,94,120.0
164,C3,37.522,0.227,96,120.0
165,C2,37.765,0.512,94,120.0
166,G#4,37.765,0.255,95,120.0
167,G#5,37.765,0.255,95,120.0
168,G4,38.277,0.226,95,120.0
169,G5,38.277,0.226,95,120.0
170,C2,38.277,0.226,95,120.0
171,C3,38.519,0.227,96,120.0
172,C2,38.761,0.25,94,120.0
173,F4,38.761,0.501,95,120.0
174,F5,38.761,0.501,95,120.0
175,C2,39.012,0.25,95,120.0
176,D4,39.263,0.227,95,120.0
177,D5,39.263,0.227,95,120.0
178,C2,39.263,0.227,95,120.0
179,C3,39.505,0.465,96,120.0
180,F4,39.505,0.241,95,120.0
181,F5,39.505,0.241,95,120.0
182,G4,39.747,0.252,95,120.0
183,G5,39.747,0.252,95,120.0
184,B1,40.004,0.499,99,120.0
185,B3,40.004,0.285,100,120.0
186,B4,40.004,0.285,100,120.0
187,B3,40.29,0.242,95,120.0
188,B4,40.29,0.242,95,120.0
189,B2,40.533,0.466,96,120.0
190,D5,40.533,0.195,95,120.0
191,D6,40.533,0.195,95,120.0
192,A4,41.029,0.251,96,120.0
193,A5,41.029,0.251,96,120.0
194,B1,41.029,0.251,96,120.0
195,B1,41.281,0.226,94,120.0
196,B2,41.522,0.227,96,120.0
197,B1,41.765,0.512,94,120.0
198,G#4,41.765,0.255,95,120.0
199,G#5,41.765,0.255,95,120.0
200,G4,42.277,0.226,95,120.0
201,G5,42.277,0.226,95,120.0
202,B1,42.277,0.226,95,120.0
203,B2,42.519,0.227,96,120.0
204,B1,42.761,0.25,94,120.0
205,F4,42.761,0.501,95,120.0
206,F5,42.761,0.501,95,120.0
207,B1,43.012,0.25,95,120.0
208,D4,43.263,0.227,95,120.0
209,D5,43.263,0.227,95,120.0
210,B1,43.263,0.227,95,120.0
211,B2,43.505,0.465,96,120.0
212,F4,43.505,0.241,95,120.0
213,F5,43.505,0.241,95,120.0
214,G4,43.747,0.252,95,120.0
215,G5,43.747,0.252,95,120.0
216,B-1,44.004,0.499,99,120.0
217,B-3,44.004,0.285,100,120.0
218,B-4,44.004,0.285,100,120.0
219,B-3,44.29,0.242,95,120.0
220,B-4,44.29,0.242,95,120.0
221,B-2,44.533,0.466,96,120.0
222,D5,44.533,0.195,95,120.0
223,D6,44.533,0.195,95,120.0
224,A4,45.029,0.251,96,120.0
225,A5,45.029,0.251,96,120.0
226,B-1,45.029,0.251,96,120.0
227,B-1,45.281,0.226,94,120.0
228,B-2,45.522,0.227,96,120.0
229,C2,45.765,0.512,94,120.0
230,G#4,45.765,0.255,95,120.0
231,G#5,45.765,0.255,95,120.0
232,G4,46.277,0.226,95,120.0
233,G5,46.277,0.226,95,120.0
234,C2,46.277,0.226,95,120.0
235,C3,46.519,0.227,96,120.0
236,C2,46.761,0.25,94,120.0
237,F4,46.761,0.501,95,120.0
238,F5,46.761,0.501,95,120.0
239,C2,47.012,0.25,95,120.0
240,D4,47.263,0.227,95,120.0
241,D5,47.263,0.227,95,120.0
242,C2,47.263,0.227,95,120.0
243,C3,47.505,0.465,96,120.0
244,F4,47.505,0.241,95,120.0
245,F5,47.505,0.241,95,120.0
246,G4,47.747,0.252,95,120.0
247,G5,47.747,0.252,95,120.0
248,D2,48.004,0.499,100,120.0
249,D4,48.004,0.285,98,120.0
250,D5,48.004,0.285,98,120.0
251,D4,48.29,0.242,95,120.0
252,D5,48.29,0.242,95,120.0
253,D3,48.533,0.466,96,120.0
254,D5,48.533,0.195,95,120.0
255,D6,48.533,0.195,95,120.0
256,A4,49.029,0.251,96,120.0
257,A5,49.029,0.251,96,120.0
258,D2,49.029,0.251,96,120.0
259,D2,49.281,0.226,95,120.0
260,D3,49.522,0.227,96,120.0
261,D2,49.765,0.512,95,120.0
262,G#4,49.765,0.255,95,120.0
263,G#5,49.765,0.255,95,120.0
264,G4,50.277,0.226,95,120.0
265,G5,50.277,0.226,95,120.0
266,D2,50.277,0.226,95,120.0
267,D3,50.519,0.227,96,120.0
268,D2,50.761,0.25,95,120.0
269,F4,50.761,0.501,95,120.0
270,F5,50.761,0.501,95,120.0
271,D2,51.012,0.25,96,120.0
272,D4,51.263,0.227,95,120.0
273,D5,51.263,0.227,95,120.0
274,D2,51.263,0.227,95,120.0
275,D3,51.505,0.465,96,120.0
276,F4,51.505,0.241,95,120.0
277,F5,51.505,0.241,95,120.0
278,G4,51.747,0.252,95,120.0
279,G5,51.747,0.252,95,120.0
280,C2,52.004,0.499,99,120.0
281,C4,52.004,0.285,100,120.0
282,C5,52.004,0.285,100,120.0
283,C4,52.29,0.242,95,120.0
284,C5,52.29,0.242,95,120.0
285,C3,52.533,0.466,96,120.0
286,D5,52.533,0.195,95,120.0
287,D6,52.533,0.195,95,120.0
288,A4,53.029,0.251,96,120.0
289,A5,53.029,0.251,96,120.0
290,C2,53.029,0.251,96,120.0
291,C2,53.281,0.226,94,120.0
292,C3,53.522,0.227,96,120.0
293,C2,53.765,0.512,94,120.0
294,G#4,53.765,0.255,95,120.0
295,G#5,53.765,0.255,95,120.0
296,G4,54.277,0.226,95,120.0
297,G5,54.277,0.226,95,120.0
298,C2,54.277,0.226,95,120.0
299,C3,54.519,0.227,96,120.0
300,C2,54.761,0.25,94,120.0
301,F4,54.761,0.501,95,120.0
302,F5,54.761,0.501,95,120.0
303,C2,55.012,0.25,95,120.0
304,D4,55.263,0.227,95,120.0
305,D5,55.263,0.227,95,120.0
306,C2,55.263,0.227,95,120.0
307,C3,55.505,0.465,96,120.0
308,F4,55.505,0.241,95,120.0
309,F5,55.505,0.241,95,120.0
310,G4,55.747,0.252,95,120.0
311,G5,55.747,0.252,95,120.0
312,B1,56.004,0.499,99,120.0
313,B3,56.004,0.285,100,120.0
314,B4,56.004,0.285,100,120.0
315,B3,56.29,0.242,95,120.0
316,B4,56.29,0.242,95,120.0
317,B2,56.533,0.466,96,120.0
318,D5,56.533,0.195,95,120.0
319,D6,56.533,0.195,95,120.0
320,A4,57.029,0.251,96,120.0
321,A5,57.029,0.251,96,120.0
322,B1,57.029,0.251,96,120.0
323,B1,57.281,0.226,94,120.0
324,B2,57.522,0.227,96,120.0
325,B1,57.765,0.512,94,120.0
326,G#4,57.765,0.255,95,120.0
327,G#5,57.765,0.255,95,120.0
328,G4,58.277,0.226,95,120.0
329,G5,58.277,0.226,95,120.0
330,B1,58.277,0.226,95,120.0
331,B2,58.519,0.227,96,120.0
332,B1,58.761,0.25,94,120.0
333,F4,58.761,0.501,95,120.0
334,F5,58.761,0.501,95,120.0
335,B1,59.012,0.25,95,120.0
336,D4,59.263,0.227,95,120.0
337,D5,59.263,0.227,95,120.0
338,B1,59.263,0.227,95,120.0
339,B2,59.505,0.465,96,120.0
340,F4,59.505,0.241,95,120.0
341,F5,59.505,0.241,95,120.0
342,G4,59.747,0.252,95,120.0
343,G5,59.747,0.252,95,120.0
344,B-1,60.004,0.499,99,120.0
345,B-3,60.004,0.285,100,120.0
346,B-4,60.004,0.285,100,120.0
347,B-3,60.29,0.242,95,120.0
348,B-4,60.29,0.242,95,120.0
349,B-2,60.533,0.466,96,120.0
350,D5,60.533,0.195,95,120.0
351,D6,60.533,0.195,95,120.0
352,A4,61.029,0.251,96,120.0
353,A5,61.029,0.251,96,120.0
354,B-1,61.029,0.251,96,120.0
355,B-1,61.281,0.226,94,120.0
356,B-2,61.522,0.227,96,120.0
357,C2,61.765,0.512,94,120.0
358,G#4,61.765,0.255,95,120.0
359,G#5,61.765,0.255,95,120.0
360,G4,62.277,0.226,95,120.0
361,G5,62.277,0.226,95,120.0
362,C2,62.277,0.226,95,120.0
363,C3,62.519,0.227,96,120.0
364,C2,62.761,0.25,94,120.0
365,F4,62.761,0.501,95,120.0
366,F5,62.761,0.501,95,120.0
367,C2,63.012,0.25,95,120.0
368,D4,63.263,0.227,95,120.0
369,D5,63.263,0.227,95,120.0
370,C2,63.263,0.227,95,120.0
371,C3,63.505,0.465,96,120.0
372,F4,63.505,0.241,95,120.0
373,F5,63.505,0.241,95,120.0
374,G4,63.747,0.252,95,120.0
375,G5,63.747,0.252,95,120.0
376,F5,64.004,0.499,84,120.0
377,D2,64.004,0.499,84,120.0
378,F5,64.533,0.242,80,120.0
379,D3,64.533,0.466,80,120.0
380,F5,64.776,0.237,80,120.0
381,D2,65.029,0.251,80,120.0
382,F5,65.281,0.226,80,120.0
383,D2,65.281,0.226,80,120.0
384,D3,65.522,0.227,80,120.0
385,F5,65.765,0.512,80,120.0
386,D2,65.765,0.512,80,120.0
387,D5,66.277,0.482,80,120.0
388,D2,66.277,0.226,79,120.0
389,D3,66.519,0.227,80,120.0
390,D5,66.761,1.238,80,120.0
391,D2,66.761,0.25,79,120.0
392,D2,67.012,0.25,80,120.0
393,D2,67.263,0.227,79,120.0
394,D3,67.505,0.465,80,120.0
395,F5,68.004,0.499,84,120.0
396,C2,68.004,0.499,84,120.0
397,F5,68.533,0.242,80,120.0
398,C3,68.533,0.466,80,120.0
399,F5,68.776,0.237,80,120.0
400,C2,69.029,0.251,79,120.0
401,G5,69.281,0.226,79,120.0
402,C2,69.281,0.226,79,120.0
403,C3,69.522,0.227,80,120.0
404,G#5,69.765,0.512,79,120.0
405,C2,69.765,0.512,79,120.0
406,G5,70.277,0.075,80,120.0
407,C2,70.277,0.226,78,120.0
408,G#5,70.358,0.075,80,120.0
409,G5,70.439,0.073,80,120.0
410,F5,70.519,0.227,80,120.0
411,C3,70.519,0.227,80,120.0
412,D5,70.761,0.25,79,120.0
413,C2,70.761,0.25,79,120.0
414,F5,71.012,0.25,80,120.0
415,C2,71.012,0.25,80,120.0
416,G5,71.263,0.227,79,120.0
417,C2,71.263,0.227,79,120.0
418,C3,71.505,0.465,80,120.0
419,F5,72.004,0.499,84,120.0
420,B1,72.004,0.499,84,120.0
421,F5,72.533,0.242,80,120.0
422,B2,72.533,0.466,80,120.0
423,F5,72.776,0.237,80,120.0
424,B1,73.029,0.251,79,120.0
425,G5,73.281,0.226,79,120.0
426,B1,73.281,0.226,79,120.0
427,B2,73.522,0.227,80,120.0
428,G#5,73.765,0.24,80,120.0
429,B1,73.765,0.512,78,120.0
430,A5,74.277,0.226,79,120.0
431,B1,74.277,0.226,79,120.0
432,B2,74.519,0.227,80,120.0
433,C6,74.761,0.486,80,120.0
434,B1,74.761,0.25,78,120.0
435,B1,75.012,0.25,79,120.0
436,A5,75.263,0.736,80,120.0
437,B1,75.263,0.227,78,120.0
438,B2,75.505,0.465,80,120.0
439,D6,76.004,0.229,85,120.0
440,B-1,76.004,0.499,83,120.0
441,D6,76.533,0.195,81,120.0
442,B-2,76.533,0.466,81,120.0
443,D6,77.029,0.251,82,120.0
444,B-1,77.029,0.251,82,120.0
445,A5,77.281,0.226,83,120.0
446,B-1,77.281,0.226,83,120.0
447,D6,77.522,0.227,85,120.0
448,B-2,77.522,0.227,85,120.0
449,C6,77.765,2.234,86,120.0
450,C2,77.765,0.512,84,120.0
451,C2,78.277,0.226,86,120.0
452,C3,78.519,0.227,89,120.0
453,C2,78.761,0.25,88,120.0
454,C2,79.012,0.25,89,120.0
455,C2,79.263,0.227,90,120.0
456,C3,79.505,0.465,93,120.0
457,D2,80.004,0.285,100,120.0
458,F5,80.004,0.528,98,120.0
459,A5,80.004,0.528,98,120.0
460,D2,80.29,0.228,95,120.0
461,F5,80.533,0.195,94,120.0
462,A5,80.533,0.195,94,120.0
463,D3,80.533,0.195,94,120.0
464,F5,80.776,0.252,93,120.0
465,A5,80.776,0.252,93,120.0
466,A2,81.029,0.251,96,120.0
467,D2,81.029,0.251,96,120.0
468,F5,81.281,0.226,93,120.0
469,A5,81.281,0.226,93,120.0
470,D2,81.281,0.226,93,120.0
471,D3,81.522,0.227,96,120.0
472,G#2,81.765,0.24,96,120.0
473,F5,81.765,0.512,93,120.0
474,A5,81.765,0.512,93,120.0
475,D2,81.765,0.512,93,120.0
476,D5,82.277,0.226,95,120.0
477,G5,82.277,0.226,95,120.0
478,G2,82.277,0.226,95,120.0
479,D2,82.277,0.226,95,120.0
480,D3,82.519,0.227,96,120.0
481,F2,82.761,0.486,96,120.0
482,D2,82.761,0.25,93,120.0
483,D5,82.761,1.238,93,120.0
484,G5,82.761,1.238,93,120.0
485,D2,83.012,0.25,94,120.0
486,D2,83.263,0.227,94,120.0
487,D2,83.263,0.227,94,120.0
488,F2,83.505,0.227,96,120.0
489,D3,83.505,0.465,96,120.0
490,G2,83.747,0.237,96,120.0
491,C2,84.004,0.285,99,120.0
492,F5,84.004,0.528,100,120.0
493,A5,84.004,0.528,100,120.0
494,C2,84.29,0.228,94,120.0
495,F5,84.533,0.195,94,120.0
496,A5,84.533,0.195,94,120.0
497,D3,84.533,0.195,94,120.0
498,F5,84.776,0.252,93,120.0
499,A5,84.776,0.252,93,120.0
500,A2,85.029,0.251,96,120.0
501,C2,85.029,0.251,96,120.0
502,F5,85.281,0.226,94,120.0
503,A5,85.281,0.226,94,120.0
504,C2,85.281,0.226,94,120.0
505,D3,85.522,0.227,96,120.0
506,C2,85.765,0.512,93,120.0
507,D5,85.765,0.24,95,120.0
508,G5,85.765,0.24,95,120.0
509,G#2,85.765,0.24,95,120.0
510,F5,86.277,0.226,95,120.0
511,A5,86.277,0.226,95,120.0
512,G2,86.277,0.226,95,120.0
513,C2,86.277,0.226,95,120.0
514,D3,86.519,0.227,96,120.0
515,F2,86.761,0.486,96,120.0
516,E5,86.761,0.25,94,120.0
517,D6,86.761,0.25,94,120.0
518,C2,86.761,0.25,94,120.0
519,C2,87.012,0.235,94,120.0
520,D5,87.263,0.227,94,120.0
521,A5,87.263,0.227,94,120.0
522,D2,87.263,0.227,94,120.0
523,D2,87.263,0.227,94,120.0
524,F2,87.505,0.227,96,120.0
525,C5,87.505,0.465,95,120.0
526,G5,87.505,0.465,95,120.0
527,D3,87.505,0.465,95,120.0
528,G2,87.747,0.237,96,120.0
529,D6,88.004,0.499,101,120.0
530,B5,88.004,0.285,100,120.0
531,B1,88.004,0.285,100,120.0
532,G5,88.29,0.228,95,120.0
533,B1,88.29,0.228,95,120.0
534,A5,88.533,0.466,96,120.0
535,D5,88.533,0.195,96,120.0
536,D3,88.533,0.195,96,120.0
537,E5,88.776,0.237,96,120.0
538,G5,89.029,0.463,97,120.0
539,F5,89.029,0.251,96,120.0
540,A2,89.029,0.251,96,120.0
541,B1,89.029,0.251,96,120.0
542,D5,89.281,0.226,94,120.0
543,B1,89.281,0.226,94,120.0
544,F5,89.522,0.468,96,120.0
545,B4,89.522,0.227,96,120.0
546,D3,89.522,0.227,96,120.0
547,B1,89.765,0.512,92,120.0
548,D5,89.765,0.24,96,120.0
549,G#2,89.765,0.24,96,120.0
550,C6,90.021,0.468,99,120.0
551,D5,90.277,0.226,95,120.0
552,G2,90.277,0.226,95,120.0
553,B1,90.277,0.226,95,120.0
554,G5,90.519,0.463,96,120.0
555,B4,90.519,0.227,96,120.0
556,D3,90.519,0.227,96,120.0
557,F2,90.761,0.486,96,120.0
558,D5,90.761,0.25,94,120.0
559,B1,90.761,0.25,94,120.0
560,F5,91.012,0.463,97,120.0
561,B4,91.012,0.235,95,120.0
562,B1,91.012,0.235,95,120.0
563,G4,91.263,0.227,95,120.0
564,D2,91.263,0.227,95,120.0
565,D2,91.263,0.227,95,120.0
566,E5,91.505,0.465,96,120.0
567,D3,91.505,0.465,96,120.0
568,B4,91.505,0.227,96,120.0
569,F2,91.505,0.227,96,120.0
570,G4,91.747,0.237,96,120.0
571,G2,91.747,0.237,96,120.0
572,B-4,92.004,0.499,101,120.0
573,B-1,92.004,0.285,99,120.0
574,B-1,92.29,0.228,94,120.0
575,C5,92.533,0.195,96,120.0
576,D3,92.533,0.195,96,120.0
577,B-4,92.776,0.252,95,120.0
578,D5,92.776,0.252,95,120.0
579,A2,93.029,0.251,95,120.0
580,B-1,93.029,0.251,95,120.0
581,D5,93.281,0.226,94,120.0
582,F5,93.281,0.226,94,120.0
583,B-1,93.281,0.226,94,120.0
584,D3,93.522,0.227,96,120.0
585,G#2,93.765,0.24,96,120.0
586,C2,93.765,0.512,93,120.0
587,E5,93.765,2.234,95,120.0
588,C6,93.765,2.234,95,120.0
589,G2,94.277,0.226,94,120.0
590,C2,94.277,0.226,94,120.0
591,D3,94.519,0.227,96,120.0
592,F2,94.761,0.486,96,120.0
593,C2,94.761,0.25,93,120.0
594,C2,95.012,0.235,94,120.0
595,D2,95.263,0.227,94,120.0
596,D2,95.263,0.227,94,120.0
597,F2,95.505,0.227,96,120.0
598,D3,95.505,0.465,96,120.0
599,G2,95.747,0.237,96,120.0
600,B-1,96.004,0.499,83,120.0
601,B-2,96.533,0.466,80,120.0
602,B-1,97.029,0.251,79,120.0
603,B-1,97.281,0.226,78,120.0
604,B-2,97.522,0.227,80,120.0
605,B-1,97.765,0.512,78,120.0
606,D5,98.021,0.256,82,120.0
607,F5,98.021,0.256,82,120.0
608,B-4,98.277,0.226,79,120.0
609,D5,98.277,0.226,79,120.0
610,B-1,98.277,0.226,79,120.0
611,D5,98.519,0.227,79,120.0
612,F5,98.519,0.227,79,120.0
613,B-2,98.519,0.227,79,120.0
614,E5,98.761,0.25,79,120.0
615,G5,98.761,0.25,79,120.0
616,B-1,98.761,0.25,79,120.0
617,F5,99.012,0.25,80,120.0
618,G#5,99.012,0.25,80,120.0
619,B-1,99.012,0.25,80,120.0
620,E5,99.263,0.227,79,120.0
621,G5,99.263,0.227,79,120.0
622,B-1,99.263,0.227,79,120.0
623,B-2,99.505,0.465,80,120.0
624,D5,99.505,0.241,79,120.0
625,F5,99.505,0.241,79,120.0
626,B-4,99.747,0.252,79,120.0
627,D5,99.747,0.252,79,120.0
628,G#5,100.004,0.155,85,120.0
629,C2,100.004,0.499,83,120.0
630,G5,100.167,0.115,80,120.0
631,F5,100.29,0.114,80,120.0
632,D5,100.412,0.12,80,120.0
633,D5,100.533,0.466,79,120.0
634,F5,100.533,0.466,79,120.0
635,C3,100.533,0.466,79,120.0
636,C2,101.029,0.251,79,120.0
637,E5,101.029,2.232,80,120.0
638,G5,101.029,2.232,80,120.0
639,C2,101.281,0.226,78,120.0
640,C3,101.522,0.227,80,120.0
641,C2,101.765,0.512,78,120.0
642,C2,102.277,0.226,78,120.0
643,C3,102.519,0.227,80,120.0
644,C2,102.761,0.25,78,120.0
645,C2,103.012,0.25,79,120.0
646,G#5,103.263,0.454,80,120.0
647,C2,103.263,0.227,78,120.0
648,C3,103.505,0.465,80,120.0
649,A5,103.747,0.237,80,120.0
650,C6,104.004,0.229,85,120.0
651,D2,104.004,0.499,84,120.0
652,A5,104.533,0.228,80,120.0
653,D3,104.533,0.466,80,120.0
654,G#5,104.776,0.237,80,120.0
655,G5,105.029,0.251,80,120.0
656,D2,105.029,0.251,80,120.0
657,F5,105.281,0.226,80,120.0
658,D2,105.281,0.226,80,120.0
659,D5,105.522,0.227,80,120.0
660,D3,105.522,0.227,80,120.0
661,E5,105.765,0.24,80,120.0
662,D2,105.765,0.512,79,120.0
663,F5,106.021,0.468,83,120.0
664,D2,106.277,0.226,79,120.0
665,G5,106.519,0.463,80,120.0
666,D3,106.519,0.227,80,120.0
667,D2,106.761,0.25,79,120.0
668,A5,107.012,0.463,81,120.0
669,D2,107.012,0.25,80,120.0
670,D2,107.263,0.227,79,120.0
671,C6,107.505,0.465,80,120.0
672,D3,107.505,0.465,80,120.0
673,C#6,108.004,0.499,84,120.0
674,C#2,108.004,0.499,84,120.0
675,G#5,108.533,0.195,80,120.0
676,C#3,108.533,0.466,80,120.0
677,G#5,109.029,0.251,80,120.0
678,C#2,109.029,0.251,80,120.0
679,G5,109.281,0.226,80,120.0
680,C#2,109.281,0.226,80,120.0
681,F5,109.522,0.227,80,120.0
682,C#3,109.522,0.227,80,120.0
683,G5,109.765,2.234,80,120.0
684,E-2,109.765,0.512,79,120.0
685,E-2,110.277,0.226,79,120.0
686,E-3,110.519,0.227,80,120.0
687,E-2,110.761,0.25,79,120.0
688,E-2,111.012,0.25,80,120.0
689,E-2,111.263,0.227,79,120.0
690,E-3,111.505,0.465,80,120.0
691,D4,112.004,0.499,84,120.0
692,F4,112.004,0.499,84,120.0
693,B-1,112.004,0.499,84,120.0
694,E4,112.533,0.466,79,120.0
695,G4,112.533,0.466,79,120.0
696,B-2,112.533,0.466,79,120.0
697,B-1,113.029,0.251,79,120.0
698,F4,113.029,0.492,80,120.0
699,A4,113.029,0.492,80,120.0
700,B-1,113.281,0.226,78,120.0
701,B-2,113.522,0.227,80,120.0
702,D5,113.522,0.497,79,120.0
703,F5,113.522,0.497,79,120.0
704,B-1,113.765,0.512,78,120.0
705,C5,114.021,0.99,82,120.0
706,E5,114.021,0.99,82,120.0
707,B-1,114.277,0.226,78,120.0
708,B-2,114.519,0.227,80,120.0
709,B-1,114.761,0.25,78,120.0
710,B-1,115.012,0.25,79,120.0
711,A4,115.012,0.987,80,120.0
712,D5,115.012,0.987,80,120.0
713,B-1,115.263,0.227,78,120.0
714,B-2,115.505,0.465,80,120.0
715,C2,116.004,0.499,83,120.0
716,G4,116.004,1.024,84,120.0
717,E5,116.004,1.024,84,120.0
718,C3,116.533,0.466,80,120.0
719,C2,117.029,0.251,79,120.0
720,A4,117.029,0.99,80,120.0
721,F5,117.029,0.99,80,120.0
722,C2,117.281,0.226,78,120.0
723,C3,117.522,0.227,80,120.0
724,C2,117.765,0.512,78,120.0
725,C5,118.021,0.99,82,120.0
726,G5,118.021,0.99,82,120.0
727,C2,118.277,0.226,78,120.0
728,C3,118.519,0.227,80,120.0
729,C2,118.761,0.25,78,120.0
730,C2,119.012,0.25,79,120.0
731,A4,119.012,0.987,80,120.0
732,E5,119.012,0.987,80,120.0
733,C2,119.263,0.227,78,120.0
734,C3,119.505,0.465,80,120.0
735,D2,120.004,0.499,84,120.0
736,D5,120.004,2.016,84,120.0
737,A5,120.004,2.016,84,120.0
738,D3,120.533,0.466,80,120.0
739,D2,121.029,0.251,80,120.0
740,D2,121.281,0.226,79,120.0
741,D3,121.522,0.227,80,120.0
742,D2,121.765,0.512,79,120.0
743,A5,122.021,0.241,83,120.0
744,G#5,122.277,0.226,80,120.0
745,D2,122.277,0.226,80,120.0
746,G5,122.519,0.227,80,120.0
747,D3,122.519,0.227,80,120.0
748,F#5,122.761,0.25,80,120.0
749,D2,122.761,0.25,80,120.0
750,F5,123.012,0.25,80,120.0
751,D2,123.012,0.25,80,120.0
752,E5,123.263,0.227,80,120.0
753,D2,123.263,0.227,80,120.0
754,E-5,123.505,0.227,80,120.0
755,D3,123.505,0.465,80,120.0
756,D5,123.747,0.237,80,120.0
757,C#2,124.004,0.499,84,120.0
758,G#4,124.004,2.016,84,120.0
759,C#5,124.004,2.016,84,120.0
760,C#3,124.533,0.466,80,120.0
761,C#2,125.029,0.251,80,120.0
762,C#2,125.281,0.226,79,120.0
763,C#3,125.522,0.227,80,120.0
764,E-2,125.765,0.512,79,120.0
765,B-4,126.021,1.979,82,120.0
766,E-5,126.021,1.979,82,120.0
767,E-2,126.277,0.226,79,120.0
768,E-3,126.519,0.227,80,120.0
769,E-2,126.761,0.25,79,120.0
770,E-2,127.012,0.25,80,120.0
771,E-2,127.263,0.227,79,120.0
772,E-3,127.505,0.465,80,120.0
773,B-1,128.004,0.499,83,120.0
774,B-2,128.533,0.466,80,120.0
775,B-1,129.029,0.251,79,120.0
776,B-1,129.281,0.226,78,120.0
777,B-2,129.522,0.227,80,120.0
778,B-1,129.765,0.512,78,120.0
779,D5,130.021,0.256,82,120.0
780,F5,130.021,0.256,82,120.0
781,B-4,130.277,0.226,79,120.0
782,D5,130.277,0.226,79,120.0
783,B-1,130.277,0.226,79,120.0
784,D5,130.519,0.227,79,120.0
785,F5,130.519,0.227,79,120.0
786,B-2,130.519,0.227,79,120.0
787,E5,130.761,0.25,79,120.0
788,G5,130.761,0.25,79,120.0
789,B-1,130.761,0.25,79,120.0
790,F5,131.012,0.25,80,120.0
791,G#5,131.012,0.25,80,120.0
792,B-1,131.012,0.25,80,120.0
793,E5,131.263,0.227,79,120.0
794,G5,131.263,0.227,79,120.0
795,B-1,131.263,0.227,79,120.0
796,B-2,131.505,0.465,80,120.0
797,D5,131.505,0.241,79,120.0
798,F5,131.505,0.241,79,120.0
799,B-4,131.747,0.252,79,120.0
800,D5,131.747,0.252,79,120.0
801,G#5,132.004,0.155,85,120.0
802,C2,132.004,0.499,83,120.0
803,G5,132.167,0.115,80,120.0
804,F5,132.29,0.114,80,120.0
805,D5,132.412,0.12,80,120.0
806,D5,132.533,0.466,79,120.0
807,F5,132.533,0.466,79,120.0
808,C3,132.533,0.466,79,120.0
809,C2,133.029,0.251,79,120.0
810,E5,133.029,2.232,80,120.0
811,G5,133.029,2.232,80,120.0
812,C2,133.281,0.226,78,120.0
813,C3,133.522,0.227,80,120.0
814,C2,133.765,0.512,78,120.0
815,C2,134.277,0.226,78,120.0
816,C3,134.519,0.227,80,120.0
817,C2,134.761,0.25,78,120.0
818,C2,135.012,0.25,79,120.0
819,G#5,135.263,0.454,80,120.0
820,C2,135.263,0.227,78,120.0
821,C3,135.505,0.465,80,120.0
822,A5,135.747,0.237,80,120.0
823,C6,136.004,0.229,85,120.0
824,D2,136.004,0.499,84,120.0
825,A5,136.533,0.228,80,120.0
826,D3,136.533,0.466,80,120.0
827,G#5,136.776,0.237,80,120.0
828,G5,137.029,0.251,80,120.0
829,D2,137.029,0.251,80,120.0
830,F5,137.281,0.226,80,120.0
831,D2,137.281,0.226,80,120.0
832,D5,137.522,0.227,80,120.0
833,D3,137.522,0.227,80,120.0
834,E5,137.765,0.24,80,120.0
835,D2,137.765,0.512,79,120.0
836,F5,138.021,0.468,83,120.0
837,D2,138.277,0.226,79,120.0
838,G5,138.519,0.463,80,120.0
839,D3,138.519,0.227,80,120.0
840,D2,138.761,0.25,79,120.0
841,A5,139.012,0.463,81,120.0
842,D2,139.012,0.25,80,120.0
843,D2,139.263,0.227,79,120.0
844,C6,139.505,0.465,80,120.0
845,D3,139.505,0.465,80,120.0
846,C#6,140.004,0.499,84,120.0
847,C#2,140.004,0.499,84,120.0
848,G#5,140.533,0.195,80,120.0
849,C#3,140.533,0.466,80,120.0
850,G#5,141.029,0.251,80,120.0
851,C#2,141.029,0.251,80,120.0
852,G5,141.281,0.226,80,120.0
853,C#2,141.281,0.226,80,120.0
854,F5,141.522,0.227,80,120.0
855,C#3,141.522,0.227,80,120.0
856,G5,141.765,2.234,80,120.0
857,E-2,141.765,0.512,79,120.0
858,E-2,142.277,0.226,79,120.0
859,E-3,142.519,0.227,80,120.0
860,E-2,142.761,0.25,79,120.0
861,E-2,143.012,0.25,80,120.0
862,E-2,143.263,0.227,79,120.0
863,E-3,143.505,0.465,80,120.0
864,D4,144.004,0.499,84,120.0
865,F4,144.004,0.499,84,120.0
866,B-1,144.004,0.499,84,120.0
867,E4,144.533,0.466,79,120.0
868,G4,144.533,0.466,79,120.0
869,B-2,144.533,0.466,79,120.0
870,B-1,145.029,0.251,79,120.0
871,F4,145.029,0.492,80,120.0
872,A4,145.029,0.492,80,120.0
873,B-1,145.281,0.226,78,120.0
874,B-2,145.522,0.227,80,120.0
875,D5,145.522,0.497,79,120.0
876,F5,145.522,0.497,79,120.0
877,B-1,145.765,0.512,78,120.0
878,C5,146.021,0.99,82,120.0
879,E5,146.021,0.99,82,120.0
880,B-1,146.277,0.226,78,120.0
881,B-2,146.519,0.227,80,120.0
882,B-1,146.761,0.25,78,120.0
883,B-1,147.012,0.25,79,120.0
884,A4,147.012,0.987,80,120.0
885,D5,147.012,0.987,80,120.0
886,B-1,147.263,0.227,78,120.0
887,B-2,147.505,0.465,80,120.0
888,C2,148.004,0.499,83,120.0
889,G4,148.004,1.024,84,120.0
890,E5,148.004,1.024,84,120.0
891,C3,148.533,0.466,80,120.0
892,C2,149.029,0.251,79,120.0
893,A4,149.029,0.99,80,120.0
894,F5,149.029,0.99,80,120.0
895,C2,149.281,0.226,78,120.0
896,C3,149.522,0.227,80,120.0
897,C2,149.765,0.512,78,120.0
898,C5,150.021,0.99,82,120.0
899,G5,150.021,0.99,82,120.0
900,C2,150.277,0.226,78,120.0
901,C3,150.519,0.227,80,120.0
902,C2,150.761,0.25,78,120.0
903,C2,151.012,0.25,79,120.0
904,A4,151.012,0.987,80,120.0
905,E5,151.012,0.987,80,120.0
906,C2,151.263,0.227,78,120.0
907,C3,151.505,0.465,80,120.0
908,D2,152.004,0.499,84,120.0
909,D5,152.004,2.016,84,120.0
910,A5,152.004,2.016,84,120.0
911,D3,152.533,0.466,80,120.0
912,D2,153.029,0.251,80,120.0
913,D2,153.281,0.226,79,120.0
914,D3,153.522,0.227,80,120.0
915,D2,153.765,0.512,79,120.0
916,A5,154.021,0.241,83,120.0
917,G#5,154.277,0.226,80,120.0
918,D2,154.277,0.226,80,120.0
919,G5,154.519,0.227,80,120.0
920,D3,154.519,0.227,80,120.0
921,F#5,154.761,0.25,80,120.0
922,D2,154.761,0.25,80,120.0
923,F5,155.012,0.25,80,120.0
924,D2,155.012,0.25,80,120.0
925,E5,155.263,0.227,80,120.0
926,D2,155.263,0.227,80,120.0
927,E-5,155.505,0.227,80,120.0
928,D3,155.505,0.465,80,120.0
929,D5,155.747,0.237,80,120.0
930,C#2,156.004,0.499,84,120.0
931,G#4,156.004,2.016,84,120.0
932,C#5,156.004,2.016,84,120.0
933,C#3,156.533,0.466,80,120.0
934,C#2,157.029,0.251,80,120.0
935,C#2,157.281,0.226,79,120.0
936,C#3,157.522,0.227,80,120.0
937,E-2,157.765,0.512,79,120.0
938,B-4,158.021,1.979,82,120.0
939,E-5,158.021,1.979,82,120.0
940,E-2,158.277,0.226,79,120.0
941,E-3,158.519,0.227,80,120.0
942,E-2,158.761,0.25,79,120.0
943,E-2,159.012,0.25,80,120.0
944,E-2,159.263,0.227,79,120.0
945,E-3,159.505,0.465,80,120.0
946,B-3,160.004,3.007,64,120.0
947,B-1,160.004,0.528,67,120.0
948,B-1,160.533,0.495,62,120.0
949,B-1,161.029,0.251,63,120.0
950,B-1,161.281,0.482,62,120.0
951,B-1,161.765,0.512,62,120.0
952,B-1,162.277,0.482,62,120.0
953,B-1,162.761,0.25,62,120.0
954,F4,163.012,0.987,65,120.0
955,B-1,163.012,0.25,63,120.0
956,B-1,163.263,0.241,62,120.0
957,B-1,163.505,0.465,62,120.0
958,E4,164.004,2.016,69,120.0
959,C2,164.004,0.528,67,120.0
960,C2,164.533,0.495,62,120.0
961,C2,165.029,0.251,63,120.0
962,C2,165.281,0.482,62,120.0
963,C2,165.765,0.512,62,120.0
964,D4,166.021,1.979,67,120.0
965,C2,166.277,0.482,62,120.0
966,C2,166.761,0.25,62,120.0
967,C2,167.012,0.25,63,120.0
968,C2,167.263,0.241,62,120.0
969,C2,167.505,0.465,62,120.0
970,F4,168.004,3.996,64,120.0
971,B1,168.004,0.528,67,120.0
972,B1,168.533,0.495,62,120.0
973,B1,169.029,0.251,63,120.0
974,B1,169.281,0.482,62,120.0
975,B1,169.765,0.512,62,120.0
976,B1,170.277,0.482,62,120.0
977,B1,170.761,0.25,62,120.0
978,B1,171.012,0.25,63,120.0
979,B1,171.263,0.241,62,120.0
980,B1,171.505,0.494,62,120.0
981,F4,172.0,3.999,64,120.0
982,B1,172.004,0.528,67,120.0
983,B1,172.533,0.495,62,120.0
984,B1,173.029,0.251,63,120.0
985,B1,173.281,0.482,62,120.0
986,B1,173.765,0.512,62,120.0
987,B1,174.277,0.482,62,120.0
988,B1,174.761,0.25,62,120.0
989,B1,175.012,0.25,63,120.0
990,B1,175.263,0.241,62,120.0
991,B1,175.505,0.465,62,120.0
992,B-3,176.004,3.007,64,120.0
993,B-1,176.004,0.528,67,120.0
994,B-1,176.533,0.495,62,120.0
995,B-1,177.029,0.251,63,120.0
996,B-1,177.281,0.482,62,120.0
997,B-1,177.765,0.512,62,120.0
998,B-1,178.277,0.482,62,120.0
999,B-1,178.761,0.25,62,120.0
1000,F4,179.012,0.987,65,120.0
1001,B-1,179.012,0.25,63,120.0
1002,B-1,179.263,0.241,62,120.0
1003,B-1,179.505,0.465,62,120.0
1004,E4,180.004,2.016,69,120.0
1005,C2,180.004,0.528,67,120.0
1006,C2,180.533,0.495,62,120.0
1007,C2,181.029,0.251,63,120.0
1008,C2,181.281,0.482,62,120.0
1009,C2,181.765,0.512,62,120.0
1010,D4,182.021,1.979,67,120.0
1011,C2,182.277,0.482,62,120.0
1012,C2,182.761,0.25,62,120.0
1013,C2,183.012,0.25,63,120.0
1014,C2,183.263,0.241,62,120.0
1015,C2,183.505,0.465,62,120.0
1016,D4,184.004,3.996,64,120.0
1017,D2,184.004,0.528,68,120.0
1018,D2,184.533,0.495,63,120.0
1019,D2,185.029,0.251,64,120.0
1020,D2,185.281,0.482,63,120.0
1021,D2,185.765,0.512,63,120.0
1022,D2,186.277,0.482,63,120.0
1023,D2,186.761,0.25,63,120.0
1024,D2,187.012,0.25,64,120.0
1025,D2,187.263,0.241,63,120.0
1026,D2,187.505,0.494,63,120.0
1027,D4,188.0,3.999,64,120.0
1028,D2,188.004,0.528,68,120.0
1029,D2,188.533,0.495,63,120.0
1030,D2,189.029,0.251,64,120.0
1031,D2,189.281,0.482,63,120.0
1032,D2,189.765,0.512,63,120.0
1033,D2,190.277,0.482,63,120.0
1034,D2,190.761,0.25,63,120.0
1035,D2,191.012,0.25,64,120.0
1036,D2,191.263,0.241,63,120.0
1037,D2,191.505,0.465,63,120.0
1038,B-3,192.004,3.007,64,120.0
1039,D3,192.004,0.285,69,120.0
1040,B-1,192.004,0.528,67,120.0
1041,D3,192.29,0.228,64,120.0
1042,D4,192.533,0.195,64,120.0
1043,B-1,192.533,0.495,62,120.0
1044,A3,193.029,0.251,64,120.0
1045,B-1,193.029,0.251,64,120.0
1046,B-1,193.281,0.482,62,120.0
1047,G#3,193.765,0.24,64,120.0
1048,B-1,193.765,0.512,62,120.0
1049,G3,194.277,0.183,64,120.0
1050,B-1,194.277,0.482,62,120.0
1051,F3,194.761,0.486,64,120.0
1052,B-1,194.761,0.25,62,120.0
1053,F4,195.012,0.987,65,120.0
1054,B-1,195.012,0.25,63,120.0
1055,D3,195.263,0.241,63,120.0
1056,B-1,195.263,0.241,63,120.0
1057,F3,195.505,0.227,64,120.0
1058,B-1,195.505,0.465,62,120.0
1059,G3,195.747,0.237,64,120.0
1060,E4,196.004,2.016,69,120.0
1061,C3,196.004,0.285,69,120.0
1062,C2,196.004,0.528,67,120.0
1063,C3,196.29,0.228,64,120.0
1064,D4,196.533,0.195,64,120.0
1065,C2,196.533,0.495,62,120.0
1066,A3,197.029,0.251,64,120.0
1067,C2,197.029,0.251,64,120.0
1068,C2,197.281,0.482,62,120.0
1069,G#3,197.765,0.24,64,120.0
1070,C2,197.765,0.512,62,120.0
1071,D4,198.021,1.979,67,120.0
1072,G3,198.277,0.183,64,120.0
1073,C2,198.277,0.482,62,120.0
1074,F3,198.761,0.486,64,120.0
1075,C2,198.761,0.25,62,120.0
1076,C2,199.012,0.25,63,120.0
1077,D3,199.263,0.241,63,120.0
1078,C2,199.263,0.241,63,120.0
1079,F3,199.505,0.227,64,120.0
1080,C2,199.505,0.465,62,120.0
1081,G3,199.747,0.237,64,120.0
1082,F4,200.004,3.996,64,120.0
1083,B2,200.004,0.285,69,120.0
1084,B1,200.004,0.528,67,120.0
1085,B2,200.29,0.228,64,120.0
1086,D4,200.533,0.195,64,120.0
1087,B1,200.533,0.495,62,120.0
1088,A3,201.029,0.251,64,120.0
1089,B1,201.029,0.251,64,120.0
1090,B1,201.281,0.482,62,120.0
1091,G#3,201.765,0.24,64,120.0
1092,B1,201.765,0.512,62,120.0
1093,G3,202.277,0.183,64,120.0
1094,B1,202.277,0.482,62,120.0
1095,F3,202.761,0.486,64,120.0
1096,B1,202.761,0.25,62,120.0
1097,B1,203.012,0.25,63,120.0
1098,D3,203.263,0.241,63,120.0
1099,B1,203.263,0.241,63,120.0
1100,F3,203.505,0.227,64,120.0
1101,B1,203.505,0.494,62,120.0
1102,G3,203.747,0.237,64,120.0
1103,F4,204.0,3.999,64,120.0
1104,B2,204.004,0.285,69,120.0
1105,B1,204.004,0.528,67,120.0
1106,B2,204.29,0.228,64,120.0
1107,D4,204.533,0.195,64,120.0
1108,B1,204.533,0.495,62,120.0
1109,A3,205.029,0.251,64,120.0
1110,B1,205.029,0.251,64,120.0
1111,B1,205.281,0.482,62,120.0
1112,G#3,205.765,0.24,64,120.0
1113,B1,205.765,0.512,62,120.0
1114,G3,206.277,0.183,64,120.0
1115,B1,206.277,0.482,62,120.0
1116,F3,206.761,0.486,64,120.0
1117,B1,206.761,0.25,62,120.0
1118,B1,207.012,0.25,63,120.0
1119,D3,207.263,0.241,63,120.0
1120,B1,207.263,0.241,63,120.0
1121,F3,207.505,0.227,64,120.0
1122,B1,207.505,0.465,62,120.0
1123,G3,207.747,0.237,64,120.0
1124,B-3,208.004,3.007,64,120.0
1125,D3,208.004,0.285,64,120.0
1126,B-1,208.004,0.528,62,120.0
1127,D3,208.29,0.228,65,120.0
1128,D4,208.533,0.195,66,120.0
1129,B-1,208.533,0.495,64,120.0
1130,A3,209.029,0.251,67,120.0
1131,B-1,209.029,0.251,67,120.0
1132,B-1,209.281,0.482,67,120.0
1133,G#3,209.765,0.24,71,120.0
1134,B-1,209.765,0.512,69,120.0
1135,G3,210.277,0.183,73,120.0
1136,B-1,210.277,0.482,71,120.0
1137,F3,210.761,0.486,75,120.0
1138,B-1,210.761,0.25,73,120.0
1139,F4,211.012,0.987,76,120.0
1140,B-1,211.012,0.25,74,120.0
1141,D3,211.263,0.241,76,120.0
1142,B-1,211.263,0.241,76,120.0
1143,F3,211.505,0.227,78,120.0
1144,B-1,211.505,0.465,76,120.0
1145,G3,211.747,0.237,79,120.0
1146,E4,212.004,2.016,80,120.0
1147,C3,212.004,0.285,80,120.0
1148,C2,212.004,0.528,78,120.0
1149,C3,212.29,0.228,81,120.0
1150,D4,212.533,0.195,82,120.0
1151,C2,212.533,0.495,80,120.0
1152,A3,213.029,0.251,83,120.0
1153,C2,213.029,0.251,83,120.0
1154,C2,213.281,0.482,83,120.0
1155,G#3,213.765,0.24,87,120.0
1156,C2,213.765,0.512,85,120.0
1157,D4,214.021,1.979,88,120.0
1158,G3,214.277,0.183,89,120.0
1159,C2,214.277,0.482,87,120.0
1160,F3,214.761,0.486,91,120.0
1161,C2,214.761,0.25,89,120.0
1162,C2,215.012,0.25,90,120.0
1163,D3,215.263,0.241,92,120.0
1164,C2,215.263,0.241,92,120.0
1165,F3,215.505,0.227,94,120.0
1166,C2,215.505,0.465,92,120.0
1167,G3,215.747,0.237,95,120.0
1168,D2,216.004,0.528,100,120.0
1169,D3,216.004,0.285,100,120.0
1170,D4,216.004,0.285,100,120.0
1171,D3,216.29,0.228,96,120.0
1172,D2,216.533,0.495,95,120.0
1173,D4,216.533,0.245,119,120.0
1174,F4,216.533,0.245,119,120.0
1175,D2,217.029,0.251,96,120.0
1176,A3,217.029,0.359,120,120.0
1177,E4,217.029,0.359,120,120.0
1178,D2,217.281,0.482,95,120.0
1179,D2,217.765,0.512,95,120.0
1180,G#3,217.765,0.255,119,120.0
1181,C4,217.765,0.255,119,120.0
1182,D2,218.277,0.482,95,120.0
1183,G3,218.277,0.232,119,120.0
1184,E4,218.277,0.232,119,120.0
1185,D2,218.761,0.25,95,120.0
1186,F3,218.761,0.501,119,120.0
1187,D4,218.761,0.501,119,120.0
1188,D2,219.012,0.25,96,120.0
1189,D3,219.263,0.241,95,120.0
1190,G3,219.263,0.241,95,120.0
1191,D2,219.263,0.241,95,120.0
1192,D2,219.505,0.494,95,120.0
1193,F3,219.505,0.241,95,120.0
1194,A3,219.505,0.241,95,120.0
1195,G3,219.747,0.252,95,120.0
1196,C4,219.747,0.252,95,120.0
1197,D3,220.004,0.285,101,120.0
1198,D2,220.004,0.528,100,120.0
1199,D3,220.29,0.228,96,120.0
1200,D2,220.533,0.495,95,120.0
1201,D4,220.533,0.245,119,120.0
1202,F4,220.533,0.245,119,120.0
1203,D2,221.029,0.251,96,120.0
1204,A3,221.029,0.359,120,120.0
1205,E4,221.029,0.359,120,120.0
1206,D2,221.281,0.482,95,120.0
1207,D2,221.765,0.512,95,120.0
1208,G#3,221.765,0.255,119,120.0
1209,C4,221.765,0.255,119,120.0
1210,D2,222.277,0.482,95,120.0
1211,G3,222.277,0.232,119,120.0
1212,E4,222.277,0.232,119,120.0
1213,D2,222.761,0.25,95,120.0
1214,F3,222.761,0.501,119,120.0
1215,D4,222.761,0.501,119,120.0
1216,D2,223.012,0.25,96,120.0
1217,D3,223.263,0.241,95,120.0
1218,G3,223.263,0.241,95,120.0
1219,D2,223.263,0.241,95,120.0
1220,D2,223.505,0.465,95,120.0
1221,F3,223.505,0.241,95,120.0
1222,A3,223.505,0.241,95,120.0
1223,G3,223.747,0.252,95,120.0
1224,C4,223.747,0.252,95,120.0
1225,F3,224.004,0.499,68,120.0
1226,B-3,224.004,0.499,68,120.0
1227,B-1,224.004,0.499,68,120.0
1228,F3,224.533,0.466,62,120.0
1229,B-3,224.533,0.466,62,120.0
1230,B-2,224.533,0.466,62,120.0
1231,B-2,225.029,0.251,64,120.0
1232,B-1,225.029,0.251,64,120.0
1233,B-1,225.281,0.226,62,120.0
1234,F3,225.281,0.482,61,120.0
1235,B-3,225.281,0.482,61,120.0
1236,B-2,225.522,0.227,64,120.0
1237,F3,225.765,0.512,61,120.0
1238,B-3,225.765,0.512,61,120.0
1239,B-1,225.765,0.512,61,120.0
1240,B-1,226.277,0.226,62,120.0
1241,F3,226.277,0.482,61,120.0
1242,B-3,226.277,0.482,61,120.0
1243,B-2,226.519,0.227,64,120.0
1244,B-2,226.761,0.25,63,120.0
1245,B-1,226.761,0.25,63,120.0
1246,B-2,227.012,0.25,64,120.0
1247,B-1,227.012,0.25,64,120.0
1248,B-2,227.263,0.227,63,120.0
1249,B-1,227.263,0.227,63,120.0
1250,F3,227.505,0.465,63,120.0
1251,B-3,227.505,0.465,63,120.0
1252,B-2,227.505,0.465,63,120.0
1253,G3,228.004,0.499,68,120.0
1254,C4,228.004,0.499,68,120.0
1255,C2,228.004,0.499,68,120.0
1256,G3,228.533,0.466,62,120.0
1257,C4,228.533,0.466,62,120.0
1258,C3,228.533,0.466,62,120.0
1259,C3,229.029,0.251,64,120.0
1260,C2,229.029,0.251,64,120.0
1261,C2,229.281,0.226,62,120.0
1262,G3,229.281,0.482,61,120.0
1263,C4,229.281,0.482,61,120.0
1264,C3,229.522,0.227,64,120.0
1265,G3,229.765,0.512,61,120.0
1266,C4,229.765,0.512,61,120.0
1267,C2,229.765,0.512,61,120.0
1268,C2,230.277,0.226,62,120.0
1269,G3,230.277,0.482,61,120.0
1270,C4,230.277,0.482,61,120.0
1271,C3,230.519,0.227,64,120.0
1272,C3,230.761,0.25,63,120.0
1273,C2,230.761,0.25,63,120.0
1274,C3,231.012,0.25,64,120.0
1275,C2,231.012,0.25,64,120.0
1276,C3,231.263,0.227,63,120.0
1277,C2,231.263,0.227,63,120.0
1278,G3,231.505,0.465,63,120.0
1279,C4,231.505,0.465,63,120.0
1280,C3,231.505,0.465,63,120.0
1281,A3,232.004,0.499,68,120.0
1282,D4,232.004,0.499,68,120.0
1283,D2,232.004,0.499,68,120.0
1284,A3,232.533,0.466,62,120.0
1285,D4,232.533,0.466,62,120.0
1286,D3,232.533,0.466,62,120.0
1287,D3,233.029,0.251,64,120.0
1288,D2,233.029,0.251,64,120.0
1289,D2,233.281,0.226,63,120.0
1290,A3,233.281,0.482,63,120.0
1291,D4,233.281,0.482,63,120.0
1292,D3,233.522,0.227,64,120.0
1293,G#3,233.765,0.512,63,120.0
1294,C#4,233.765,0.512,63,120.0
1295,C#2,233.765,0.512,63,120.0
1296,C#2,234.277,0.226,63,120.0
1297,G#3,234.277,0.482,61,120.0
1298,C#4,234.277,0.482,61,120.0
1299,C#3,234.519,0.227,64,120.0
1300,C#3,234.761,0.25,64,120.0
1301,C#2,234.761,0.25,64,120.0
1302,C#3,235.012,0.25,64,120.0
1303,C#2,235.012,0.25,64,120.0
1304,C#3,235.263,0.227,64,120.0
1305,C#2,235.263,0.227,64,120.0
1306,G#3,235.505,0.465,63,120.0
1307,C#4,235.505,0.465,63,120.0
1308,C#3,235.505,0.465,63,120.0
1309,G3,236.004,0.499,68,120.0
1310,C4,236.004,0.499,68,120.0
1311,C2,236.004,0.499,68,120.0
1312,G3,236.533,0.466,62,120.0
1313,C4,236.533,0.466,62,120.0
1314,C3,236.533,0.466,62,120.0
1315,C3,237.029,0.251,64,120.0
1316,C2,237.029,0.251,64,120.0
1317,C2,237.281,0.226,62,120.0
1318,G3,237.281,0.482,63,120.0
1319,C4,237.281,0.482,63,120.0
1320,C3,237.522,0.227,64,120.0
1321,F#3,237.765,0.512,63,120.0
1322,B3,237.765,0.512,63,120.0
1323,B1,237.765,0.512,63,120.0
1324,B1,238.277,0.226,62,120.0
1325,F#3,238.277,0.482,61,120.0
1326,B3,238.277,0.482,61,120.0
1327,B2,238.519,0.227,64,120.0
1328,B2,238.761,0.25,63,120.0
1329,B1,238.761,0.25,63,120.0
1330,B2,239.012,0.25,64,120.0
1331,B1,239.012,0.25,64,120.0
1332,B2,239.263,0.227,63,120.0
1333,B1,239.263,0.227,63,120.0
1334,F#3,239.505,0.465,63,120.0
1335,B3,239.505,0.465,63,120.0
1336,B2,239.505,0.465,63,120.0
1337,F3,240.004,0.499,68,120.0
1338,B-3,240.004,0.499,68,120.0
1339,B-1,240.004,0.499,68,120.0
1340,F3,240.533,0.466,62,120.0
1341,B-3,240.533,0.466,62,120.0
1342,B-2,240.533,0.466,62,120.0
1343,B-2,241.029,0.251,64,120.0
1344,B-1,241.029,0.251,64,120.0
1345,B-1,241.281,0.226,62,120.0
1346,F3,241.281,0.482,61,120.0
1347,B-3,241.281,0.482,61,120.0
1348,B-2,241.522,0.227,64,120.0
1349,F3,241.765,0.512,61,120.0
1350,B-3,241.765,0.512,61,120.0
1351,B-1,241.765,0.512,61,120.0
1352,B-1,242.277,0.226,62,120.0
1353,F3,242.277,0.482,61,120.0
1354,B-3,242.277,0.482,61,120.0
1355,B-2,242.519,0.227,64,120.0
1356,B-2,242.761,0.25,63,120.0
1357,B-1,242.761,0.25,63,120.0
1358,B-2,243.012,0.25,64,120.0
1359,B-1,243.012,0.25,64,120.0
1360,B-2,243.263,0.227,63,120.0
1361,B-1,243.263,0.227,63,120.0
1362,F3,243.505,0.465,63,120.0
1363,B-3,243.505,0.465,63,120.0
1364,B-2,243.505,0.465,63,120.0
1365,G3,244.004,0.499,68,120.0
1366,C4,244.004,0.499,68,120.0
1367,C2,244.004,0.499,68,120.0
1368,G3,244.533,0.466,62,120.0
1369,C4,244.533,0.466,62,120.0
1370,C3,244.533,0.466,62,120.0
1371,C3,245.029,0.251,64,120.0
1372,C2,245.029,0.251,64,120.0
1373,C2,245.281,0.226,62,120.0
1374,G3,245.281,0.482,61,120.0
1375,C4,245.281,0.482,61,120.0
1376,C3,245.522,0.227,64,120.0
1377,G3,245.765,0.512,61,120.0
1378,C4,245.765,0.512,61,120.0
1379,C2,245.765,0.512,61,120.0
1380,C2,246.277,0.226,62,120.0
1381,G3,246.277,0.482,61,120.0
1382,C4,246.277,0.482,61,120.0
1383,C3,246.519,0.227,64,120.0
1384,C3,246.761,0.25,63,120.0
1385,C2,246.761,0.25,63,120.0
1386,C3,247.012,0.25,64,120.0
1387,C2,247.012,0.25,64,120.0
1388,C3,247.263,0.227,63,120.0
1389,C2,247.263,0.227,63,120.0
1390,G3,247.505,0.465,63,120.0
1391,C4,247.505,0.465,63,120.0
1392,C3,247.505,0.465,63,120.0
1393,A3,248.004,0.499,68,120.0
1394,D4,248.004,0.499,68,120.0
1395,D2,248.004,0.499,68,120.0
1396,A3,248.533,0.466,62,120.0
1397,D4,248.533,0.466,62,120.0
1398,D3,248.533,0.466,62,120.0
1399,D3,249.029,0.251,64,120.0
1400,D2,249.029,0.251,64,120.0
1401,D2,249.281,0.226,63,120.0
1402,A3,249.281,0.482,61,120.0
1403,D4,249.281,0.482,61,120.0
1404,D3,249.522,0.227,64,120.0
1405,A3,249.765,0.512,62,120.0
1406,D4,249.765,0.512,62,120.0
1407,D2,249.765,0.512,62,120.0
1408,D2,250.277,0.226,63,120.0
1409,A3,250.277,0.482,61,120.0
1410,D4,250.277,0.482,61,120.0
1411,D3,250.519,0.227,64,120.0
1412,D3,250.761,0.25,64,120.0
1413,D2,250.761,0.25,64,120.0
1414,D3,251.012,0.25,64,120.0
1415,D2,251.012,0.25,64,120.0
1416,D3,251.263,0.227,64,120.0
1417,D2,251.263,0.227,64,120.0
1418,A3,251.505,0.465,62,120.0
1419,D4,251.505,0.465,62,120.0
1420,D3,251.505,0.465,62,120.0
1421,A3,252.004,0.499,67,120.0
1422,D4,252.004,0.499,67,120.0
1423,D2,252.004,0.499,67,120.0
1424,A3,252.533,0.466,62,120.0
1425,D4,252.533,0.466,62,120.0
1426,D3,252.533,0.466,62,120.0
1427,D3,253.029,0.251,64,120.0
1428,D2,253.029,0.251,64,120.0
1429,D2,253.281,0.226,63,120.0
1430,A3,253.281,0.482,61,120.0
1431,D4,253.281,0.482,61,120.0
1432,D3,253.522,0.227,64,120.0
1433,A3,253.765,0.512,62,120.0
1434,D4,253.765,0.512,62,120.0
1435,D2,253.765,0.512,62,120.0
1436,D2,254.277,0.226,63,120.0
1437,A3,254.277,0.482,61,120.0
1438,D4,254.277,0.482,61,120.0
1439,D3,254.519,0.227,64,120.0
1440,D3,254.761,0.25,64,120.0
1441,D2,254.761,0.25,64,120.0
1442,D3,255.012,0.25,64,120.0
1443,D2,255.012,0.25,64,120.0
1444,D3,255.263,0.227,64,120.0
1445,D2,255.263,0.227,64,120.0
1446,A3,255.505,0.465,63,120.0
1447,D4,255.505,0.465,63,120.0
1448,D3,255.505,0.465,63,120.0
1449,F3,256.004,0.499,68,120.0
1450,B-3,256.004,0.499,68,120.0
1451,B-1,256.004,0.499,68,120.0
1452,F3,256.533,0.466,62,120.0
1453,B-3,256.533,0.466,62,120.0
1454,B-2,256.533,0.466,62,120.0
1455,B-2,257.029,0.251,64,120.0
1456,B-1,257.029,0.251,64,120.0
1457,B-1,257.281,0.226,62,120.0
1458,F3,257.281,0.482,61,120.0
1459,B-3,257.281,0.482,61,120.0
1460,B-2,257.522,0.227,64,120.0
1461,F3,257.765,0.512,61,120.0
1462,B-3,257.765,0.512,61,120.0
1463,B-1,257.765,0.512,61,120.0
1464,B-1,258.277,0.226,62,120.0
1465,F3,258.277,0.482,61,120.0
1466,B-3,258.277,0.482,61,120.0
1467,B-2,258.519,0.227,64,120.0
1468,B-2,258.761,0.25,63,120.0
1469,B-1,258.761,0.25,63,120.0
1470,B-2,259.012,0.25,64,120.0
1471,B-1,259.012,0.25,64,120.0
1472,B-2,259.263,0.227,63,120.0
1473,B-1,259.263,0.227,63,120.0
1474,F3,259.505,0.465,63,120.0
1475,B-3,259.505,0.465,63,120.0
1476,B-2,259.505,0.465,63,120.0
1477,G3,260.004,0.499,68,120.0
1478,C4,260.004,0.499,68,120.0
1479,C2,260.004,0.499,68,120.0
1480,G3,260.533,0.466,62,120.0
1481,C4,260.533,0.466,62,120.0
1482,C3,260.533,0.466,62,120.0
1483,C3,261.029,0.251,64,120.0
1484,C2,261.029,0.251,64,120.0
1485,C2,261.281,0.226,62,120.0
1486,G3,261.281,0.482,61,120.0
1487,C4,261.281,0.482,61,120.0
1488,C3,261.522,0.227,64,120.0
1489,G3,261.765,0.512,61,120.0
1490,C4,261.765,0.512,61,120.0
1491,C2,261.765,0.512,61,120.0
1492,C2,262.277,0.226,62,120.0
1493,G3,262.277,0.482,61,120.0
1494,C4,262.277,0.482,61,120.0
1495,C3,262.519,0.227,64,120.0
1496,C3,262.761,0.25,63,120.0
1497,C2,262.761,0.25,63,120.0
1498,C3,263.012,0.25,64,120.0
1499,C2,263.012,0.25,64,120.0
1500,C3,263.263,0.227,63,120.0
1501,C2,263.263,0.227,63,120.0
1502,G3,263.505,0.465,63,120.0
1503,C4,263.505,0.465,63,120.0
1504,C3,263.505,0.465,63,120.0
1505,A3,264.004,0.499,68,120.0
1506,D4,264.004,0.499,68,120.0
1507,D2,264.004,0.499,68,120.0
1508,A3,264.533,0.466,62,120.0
1509,D4,264.533,0.466,62,120.0
1510,D3,264.533,0.466,62,120.0
1511,D3,265.029,0.251,64,120.0
1512,D2,265.029,0.251,64,120.0
1513,D2,265.281,0.226,63,120.0
1514,A3,265.281,0.482,63,120.0
1515,D4,265.281,0.482,63,120.0
1516,D3,265.522,0.227,64,120.0
1517,G#3,265.765,0.512,63,120.0
1518,C#4,265.765,0.512,63,120.0
1519,C#2,265.765,0.512,63,120.0
1520,C#2,266.277,0.226,63,120.0
1521,G#3,266.277,0.482,61,120.0
1522,C#4,266.277,0.482,61,120.0
1523,C#3,266.519,0.227,64,120.0
1524,C#3,266.761,0.25,64,120.0
1525,C#2,266.761,0.25,64,120.0
1526,C#3,267.012,0.25,64,120.0
1527,C#2,267.012,0.25,64,120.0
1528,C#3,267.263,0.227,64,120.0
1529,C#2,267.263,0.227,64,120.0
1530,G#3,267.505,0.465,63,120.0
1531,C#4,267.505,0.465,63,120.0
1532,C#3,267.505,0.465,63,120.0
1533,G3,268.004,0.499,68,120.0
1534,C4,268.004,0.499,68,120.0
1535,C2,268.004,0.499,68,120.0
1536,G3,268.533,0.466,62,120.0
1537,C4,268.533,0.466,62,120.0
1538,C3,268.533,0.466,62,120.0
1539,C3,269.029,0.251,64,120.0
1540,C2,269.029,0.251,64,120.0
1541,C2,269.281,0.226,62,120.0
1542,G3,269.281,0.482,63,120.0
1543,C4,269.281,0.482,63,120.0
1544,C3,269.522,0.227,64,120.0
1545,F#3,269.765,0.512,63,120.0
1546,B3,269.765,0.512,63,120.0
1547,B1,269.765,0.512,63,120.0
1548,B1,270.277,0.226,62,120.0
1549,F#3,270.277,0.482,61,120.0
1550,B3,270.277,0.482,61,120.0
1551,B2,270.519,0.227,64,120.0
1552,B2,270.761,0.25,63,120.0
1553,B1,270.761,0.25,63,120.0
1554,B2,271.012,0.25,64,120.0
1555,B1,271.012,0.25,64,120.0
1556,B2,271.263,0.227,63,120.0
1557,B1,271.263,0.227,63,120.0
1558,F#3,271.505,0.465,63,120.0
1559,B3,271.505,0.465,63,120.0
1560,B2,271.505,0.465,63,120.0
1561,F3,272.004,0.499,68,120.0
1562,B-3,272.004,0.499,68,120.0
1563,B-1,272.004,0.499,68,120.0
1564,F3,272.533,0.466,62,120.0
1565,B-3,272.533,0.466,62,120.0
1566,B-2,272.533,0.466,62,120.0
1567,B-2,273.029,0.251,64,120.0
1568,B-1,273.029,0.251,64,120.0
1569,B-1,273.281,0.226,62,120.0
1570,F3,273.281,0.482,61,120.0
1571,B-3,273.281,0.482,61,120.0
1572,B-2,273.522,0.227,64,120.0
1573,F3,273.765,0.512,61,120.0
1574,B-3,273.765,0.512,61,120.0
1575,B-1,273.765,0.512,61,120.0
1576,B-1,274.277,0.226,62,120.0
1577,F3,274.277,0.482,61,120.0
1578,B-3,274.277,0.482,61,120.0
1579,B-2,274.519,0.227,64,120.0
1580,B-2,274.761,0.25,63,120.0
1581,B-1,274.761,0.25,63,120.0
1582,B-2,275.012,0.25,64,120.0
1583,B-1,275.012,0.25,64,120.0
1584,B-2,275.263,0.227,63,120.0
1585,B-1,275.263,0.227,63,120.0
1586,F3,275.505,0.465,63,120.0
1587,B-3,275.505,0.465,63,120.0
1588,B-2,275.505,0.465,63,120.0
1589,G3,276.004,0.499,68,120.0
1590,C4,276.004,0.499,68,120.0
1591,C2,276.004,0.499,68,120.0
1592,G3,276.533,0.466,62,120.0
1593,C4,276.533,0.466,62,120.0
1594,C3,276.533,0.466,62,120.0
1595,C3,277.029,0.251,64,120.0
1596,C2,277.029,0.251,64,120.0
1597,C2,277.281,0.226,62,120.0
1598,G3,277.281,0.482,61,120.0
1599,C4,277.281,0.482,61,120.0
1600,C3,277.522,0.227,64,120.0
1601,G3,277.765,0.512,61,120.0
1602,C4,277.765,0.512,61,120.0
1603,C2,277.765,0.512,61,120.0
1604,C2,278.277,0.226,62,120.0
1605,G3,278.277,0.482,61,120.0
1606,C4,278.277,0.482,61,120.0
1607,C3,278.519,0.227,64,120.0
1608,C3,278.761,0.25,63,120.0
1609,C2,278.761,0.25,63,120.0
1610,C3,279.012,0.25,64,120.0
1611,C2,279.012,0.25,64,120.0
1612,C3,279.263,0.227,63,120.0
1613,C2,279.263,0.227,63,120.0
1614,G3,279.505,0.465,63,120.0
1615,C4,279.505,0.465,63,120.0
1616,C3,279.505,0.465,63,120.0
1617,D3,280.004,0.285,69,120.0
1618,D4,280.004,0.499,68,120.0
1619,D2,280.004,0.499,68,120.0
1620,D3,280.29,0.228,64,120.0
1621,D4,280.533,0.466,64,120.0
1622,D4,280.533,0.466,64,120.0
1623,D3,280.533,0.466,64,120.0
1624,A3,281.029,0.251,64,120.0
1625,D2,281.029,0.251,64,120.0
1626,D4,281.281,0.482,64,120.0
1627,D2,281.281,0.226,63,120.0
1628,D3,281.522,0.227,64,120.0
1629,G#3,281.765,0.24,64,120.0
1630,D4,281.765,0.512,64,120.0
1631,D2,281.765,0.512,64,120.0
1632,D4,282.277,0.453,64,120.0
1633,G3,282.277,0.226,64,120.0
1634,D2,282.277,0.226,64,120.0
1635,D3,282.519,0.227,64,120.0
1636,F3,282.761,0.486,64,120.0
1637,D2,282.761,0.25,63,120.0
1638,D2,283.012,0.25,64,120.0
1639,D3,283.263,0.227,64,120.0
1640,D2,283.263,0.227,64,120.0
1641,F3,283.505,0.227,64,120.0
1642,D4,283.505,0.465,64,120.0
1643,D3,283.505,0.465,64,120.0
1644,G3,283.747,0.237,64,120.0
1645,D3,284.004,0.285,69,120.0
1646,D4,284.004,0.499,68,120.0
1647,D2,284.004,0.499,68,120.0
1648,D3,284.29,0.228,64,120.0
1649,D4,284.533,0.466,64,120.0
1650,D4,284.533,0.466,64,120.0
1651,D3,284.533,0.466,64,120.0
1652,A3,285.029,0.251,64,120.0
1653,D2,285.029,0.251,64,120.0
1654,D4,285.281,0.482,64,120.0
1655,D2,285.281,0.226,63,120.0
1656,D3,285.522,0.227,64,120.0
1657,G#3,285.765,0.24,64,120.0
1658,D4,285.765,0.512,64,120.0
1659,D2,285.765,0.512,64,120.0
1660,D4,286.277,0.453,64,120.0
1661,G3,286.277,0.226,64,120.0
1662,D2,286.277,0.226,64,120.0
1663,D3,286.519,0.227,64,120.0
1664,F3,286.761,0.486,64,120.0
1665,D2,286.761,0.25,63,120.0
1666,D2,287.012,0.25,64,120.0
1667,D3,287.263,0.227,64,120.0
1668,D2,287.263,0.227,64,120.0
1669,F3,287.505,0.227,64,120.0
1670,D4,287.505,0.465,64,120.0
1671,D3,287.505,0.465,64,120.0
1672,G3,287.747,0.237,64,120.0
1673,B-3,288.004,0.285,69,120.0
1674,B-3,288.29,0.228,64,120.0
1675,D5,288.533,0.195,64,120.0
1676,A4,289.029,0.284,65,120.0
1677,G#4,289.765,0.24,64,120.0
1678,G4,290.277,0.183,64,120.0
1679,F4,290.761,0.486,64,120.0
1680,D4,291.263,0.227,64,120.0
1681,F4,291.505,0.227,64,120.0
1682,G4,291.747,0.237,64,120.0
1683,C4,292.004,0.285,69,120.0
1684,C4,292.29,0.228,64,120.0
1685,D5,292.533,0.195,64,120.0
1686,A4,293.029,0.284,65,120.0
1687,G#4,293.765,0.24,64,120.0
1688,G4,294.277,0.183,64,120.0
1689,F4,294.761,0.486,64,120.0
1690,D4,295.263,0.227,64,120.0
1691,F4,295.505,0.227,64,120.0
1692,G4,295.747,0.237,64,120.0
1693,D4,296.004,0.285,69,120.0
1694,D4,296.29,0.228,64,120.0
1695,D5,296.533,0.195,64,120.0
1696,A4,297.029,0.284,65,120.0
1697,G#4,297.765,0.24,64,120.0
1698,G4,298.277,0.183,64,120.0
1699,F4,298.761,0.486,64,120.0
1700,D4,299.263,0.227,64,120.0
1701,F4,299.505,0.227,64,120.0
1702,G4,299.747,0.237,64,120.0
1703,D4,300.004,0.285,69,120.0
1704,D4,300.29,0.228,64,120.0
1705,D5,300.533,0.195,64,120.0
1706,A4,301.029,0.284,65,120.0
1707,G#4,301.765,0.24,64,120.0
1708,G4,302.277,0.183,64,120.0
1709,F4,302.761,0.486,64,120.0
1710,D4,303.263,0.227,64,120.0
1711,F4,303.505,0.227,64,120.0
1712,G4,303.747,0.237,64,120.0
1713,B-3,304.004,0.285,69,120.0
1714,B-3,304.29,0.228,64,120.0
1715,D5,304.533,0.195,64,120.0
1716,A4,305.029,0.284,65,120.0
1717,G#4,305.765,0.24,64,120.0
1718,G4,306.277,0.183,64,120.0
1719,F4,306.761,0.486,64,120.0
1720,D4,307.263,0.227,64,120.0
1721,F4,307.505,0.227,64,120.0
1722,G4,307.747,0.237,64,120.0
1723,C4,308.004,0.285,57,120.0
1724,C4,308.29,0.257,52,120.0
1725,D5,308.533,0.195,64,120.0
1726,A4,309.029,0.284,65,120.0
1727,G#4,309.765,0.24,64,120.0
1728,G4,310.277,0.183,64,120.0
1729,F4,310.761,0.486,64,120.0
1730,D4,311.263,0.227,64,120.0
1731,F4,311.505,0.227,64,120.0
1732,G4,311.747,0.237,64,120.0
1733,D4,312.01,0.279,69,120.0
1734,D4,312.29,0.228,64,120.0
1735,D5,312.533,0.195,64,120.0
1736,A4,313.029,0.284,65,120.0
1737,G#4,313.765,0.24,64,120.0
1738,G4,314.277,0.183,64,120.0
1739,F4,314.761,0.486,64,120.0
1740,D4,315.263,0.227,64,120.0
1741,F4,315.505,0.227,64,120.0
1742,G4,315.747,0.237,64,120.0
1743,C4,316.004,0.285,69,120.0
1744,C4,316.29,0.228,64,120.0
1745,D5,316.533,0.195,64,120.0
1746,A4,317.029,0.284,65,120.0
1747,G#4,317.765,0.24,64,120.0
1748,G4,318.277,0.183,64,120.0
1749,F4,318.761,0.486,64,120.0
1750,D4,319.263,0.227,64,120.0
1751,F4,319.505,0.227,64,120.0
1752,G4,319.747,0.237,64,120.0
1753,B3,320.004,0.285,69,120.0
1754,B3,320.29,0.228,64,120.0
1755,D5,320.533,0.195,64,120.0
1756,A4,321.029,0.284,65,120.0
1757,G#4,321.765,0.24,64,120.0
1758,G4,322.277,0.183,64,120.0
1759,F4,322.761,0.486,64,120.0
1760,D4,323.263,0.227,64,120.0
1761,F4,323.505,0.227,64,120.0
1762,G4,323.747,0.237,64,120.0
1763,B-3,324.004,0.285,69,120.0
1764,B-3,324.29,0.228,64,120.0
1765,D5,324.533,0.195,64,120.0
1766,A4,325.029,0.284,65,120.0
1767,G#4,325.765,0.24,64,120.0
1768,G4,326.277,0.183,64,120.0
1769,F4,326.761,0.486,64,120.0
1770,D4,327.263,0.227,64,120.0
1771,F4,327.505,0.227,64,120.0
1772,G4,327.747,0.237,64,120.0
1773,D4,328.004,0.229,69,120.0
1774,D3,328.004,0.229,69,120.0
1775,D4,328.29,0.228,64,120.0
1776,D5,328.533,0.195,64,120.0
1777,D3,328.533,0.195,64,120.0
1778,A4,329.029,0.251,65,120.0
1779,D3,329.029,0.251,65,120.0
1780,D3,329.281,0.183,64,120.0
1781,G#4,329.765,0.24,64,120.0
1782,D3,329.765,0.24,64,120.0
1783,G4,330.277,0.183,64,120.0
1784,D3,330.277,0.183,64,120.0
1785,F4,330.761,0.486,64,120.0
1786,D3,330.761,0.25,64,120.0
1787,D3,331.012,0.25,65,120.0
1788,D4,331.263,0.241,64,120.0
1789,D3,331.263,0.241,64,120.0
1790,F4,331.505,0.194,64,120.0
1791,D3,331.505,0.194,64,120.0
1792,G4,331.747,0.237,64,120.0
1793,C4,332.004,0.229,69,120.0
1794,C3,332.004,0.229,69,120.0
1795,C4,332.29,0.228,64,120.0
1796,D5,332.533,0.195,64,120.0
1797,C3,332.533,0.195,64,120.0
1798,A4,333.029,0.251,65,120.0
1799,C3,333.029,0.251,65,120.0
1800,C3,333.281,0.183,64,120.0
1801,G#4,333.765,0.24,64,120.0
1802,C3,333.765,0.24,64,120.0
1803,G4,334.277,0.183,64,120.0
1804,C3,334.277,0.183,64,120.0
1805,F4,334.761,0.486,64,120.0
1806,C3,334.761,0.25,64,120.0
1807,C3,335.012,0.25,65,120.0
1808,D4,335.263,0.241,64,120.0
1809,C3,335.263,0.241,64,120.0
1810,F4,335.505,0.194,64,120.0
1811,C3,335.505,0.194,64,120.0
1812,G4,335.747,0.237,64,120.0
1813,B3,336.004,0.229,69,120.0
1814,B2,336.004,0.229,69,120.0
1815,B3,336.29,0.228,64,120.0
1816,D5,336.533,0.195,64,120.0
1817,B2,336.533,0.195,64,120.0
1818,A4,337.029,0.251,65,120.0
1819,B2,337.029,0.251,65,120.0
1820,B2,337.281,0.183,64,120.0
1821,G#4,337.765,0.24,64,120.0
1822,B2,337.765,0.24,64,120.0
1823,G4,338.277,0.183,64,120.0
1824,B2,338.277,0.183,64,120.0
1825,F4,338.761,0.486,64,120.0
1826,B2,338.761,0.25,64,120.0
1827,B2,339.012,0.25,65,120.0
1828,D4,339.263,0.241,64,120.0
1829,B2,339.263,0.241,64,120.0
1830,F4,339.505,0.194,64,120.0
1831,B2,339.505,0.194,64,120.0
1832,G4,339.747,0.237,64,120.0
1833,B-3,340.004,0.229,69,120.0
1834,B-2,340.004,0.229,69,120.0
1835,B-3,340.29,0.228,64,120.0
1836,D5,340.533,0.195,64,120.0
1837,B-2,340.533,0.195,64,120.0
1838,A4,341.029,0.251,65,120.0
1839,B-2,341.029,0.251,65,120.0
1840,B-2,341.281,0.183,64,120.0
1841,G#4,341.765,0.24,64,120.0
1842,C3,341.765,0.24,64,120.0
1843,G4,342.277,0.183,64,120.0
1844,C3,342.277,0.183,64,120.0
1845,F4,342.761,0.486,64,120.0
1846,C3,342.761,0.25,64,120.0
1847,C3,343.012,0.25,65,120.0
1848,D4,343.263,0.241,64,120.0
1849,C3,343.263,0.241,64,120.0
1850,F4,343.505,0.194,64,120.0
1851,C3,343.505,0.194,64,120.0
1852,G4,343.747,0.237,64,120.0
1853,D2,344.004,0.499,100,120.0
1854,D4,344.004,0.285,98,120.0
1855,D5,344.004,0.285,98,120.0
1856,D4,344.29,0.242,95,120.0
1857,D5,344.29,0.242,95,120.0
1858,D3,344.533,0.466,96,120.0
1859,D5,344.533,0.195,95,120.0
1860,D6,344.533,0.195,95,120.0
1861,A4,345.029,0.251,96,120.0
1862,A5,345.029,0.251,96,120.0
1863,D2,345.029,0.251,96,120.0
1864,D2,345.281,0.226,95,120.0
1865,D3,345.522,0.227,96,120.0
1866,D2,345.765,0.512,95,120.0
1867,G#4,345.765,0.255,95,120.0
1868,G#5,345.765,0.255,95,120.0
1869,G4,346.277,0.226,95,120.0
1870,G5,346.277,0.226,95,120.0
1871,D2,346.277,0.226,95,120.0
1872,D3,346.519,0.227,96,120.0
1873,D2,346.761,0.25,95,120.0
1874,F4,346.761,0.501,95,120.0
1875,F5,346.761,0.501,95,120.0
1876,D2,347.012,0.25,96,120.0
1877,D4,347.263,0.227,95,120.0
1878,D5,347.263,0.227,95,120.0
1879,D2,347.263,0.227,95,120.0
1880,D3,347.505,0.465,96,120.0
1881,F4,347.505,0.241,95,120.0
1882,F5,347.505,0.241,95,120.0
1883,G4,347.747,0.252,95,120.0
1884,G5,347.747,0.252,95,120.0
1885,C2,348.004,0.499,99,120.0
1886,C4,348.004,0.285,100,120.0
1887,C5,348.004,0.285,100,120.0
1888,C4,348.29,0.242,95,120.0
1889,C5,348.29,0.242,95,120.0
1890,C3,348.533,0.466,96,120.0
1891,D5,348.533,0.195,95,120.0
1892,D6,348.533,0.195,95,120.0
1893,A4,349.029,0.251,96,120.0
1894,A5,349.029,0.251,96,120.0
1895,C2,349.029,0.251,96,120.0
1896,C2,349.281,0.226,94,120.0
1897,C3,349.522,0.227,96,120.0
1898,C2,349.765,0.512,94,120.0
1899,G#4,349.765,0.255,95,120.0
1900,G#5,349.765,0.255,95,120.0
1901,G4,350.277,0.226,95,120.0
1902,G5,350.277,0.226,95,120.0
1903,C2,350.277,0.226,95,120.0
1904,C3,350.519,0.227,96,120.0
1905,C2,350.761,0.25,94,120.0
1906,F4,350.761,0.501,95,120.0
1907,F5,350.761,0.501,95,120.0
1908,C2,351.012,0.25,95,120.0
1909,D4,351.263,0.227,95,120.0
1910,D5,351.263,0.227,95,120.0
1911,C2,351.263,0.227,95,120.0
1912,C3,351.505,0.465,96,120.0
1913,F4,351.505,0.241,95,120.0
1914,F5,351.505,0.241,95,120.0
1915,G4,351.747,0.252,95,120.0
1916,G5,351.747,0.252,95,120.0
1917,B1,352.004,0.499,99,120.0
1918,B3,352.004,0.285,100,120.0
1919,B4,352.004,0.285,100,120.0
1920,B3,352.29,0.242,95,120.0
1921,B4,352.29,0.242,95,120.0
1922,B2,352.533,0.466,96,120.0
1923,D5,352.533,0.195,95,120.0
1924,D6,352.533,0.195,95,120.0
1925,A4,353.029,0.251,96,120.0
1926,A5,353.029,0.251,96,120.0
1927,B1,353.029,0.251,96,120.0
1928,B1,353.281,0.226,94,120.0
1929,B2,353.522,0.227,96,120.0
1930,B1,353.765,0.512,94,120.0
1931,G#4,353.765,0.255,95,120.0
1932,G#5,353.765,0.255,95,120.0
1933,G4,354.277,0.226,95,120.0
1934,G5,354.277,0.226,95,120.0
1935,B1,354.277,0.226,95,120.0
1936,B2,354.519,0.227,96,120.0
1937,B1,354.761,0.25,94,120.0
1938,F4,354.761,0.501,95,120.0
1939,F5,354.761,0.501,95,120.0
1940,B1,355.012,0.25,95,120.0
1941,D4,355.263,0.227,95,120.0
1942,D5,355.263,0.227,95,120.0
1943,B1,355.263,0.227,95,120.0
1944,B2,355.505,0.465,96,120.0
1945,F4,355.505,0.241,95,120.0
1946,F5,355.505,0.241,95,120.0
1947,G4,355.747,0.252,95,120.0
1948,G5,355.747,0.252,95,120.0
1949,B-1,356.004,0.499,99,120.0
1950,B-3,356.004,0.285,100,120.0
1951,B-4,356.004,0.285,100,120.0
1952,B-3,356.29,0.242,95,120.0
1953,B-4,356.29,0.242,95,120.0
1954,B-2,356.533,0.466,96,120.0
1955,D5,356.533,0.195,95,120.0
1956,D6,356.533,0.195,95,120.0
1957,A4,357.029,0.251,96,120.0
1958,A5,357.029,0.251,96,120.0
1959,B-1,357.029,0.251,96,120.0
1960,B-1,357.281,0.226,94,120.0
1961,B-2,357.522,0.227,96,120.0
1962,C2,357.765,0.512,94,120.0
1963,G#4,357.765,0.255,95,120.0
1964,G#5,357.765,0.255,95,120.0
1965,G4,358.277,0.226,95,120.0
1966,G5,358.277,0.226,95,120.0
1967,C2,358.277,0.226,95,120.0
1968,C3,358.519,0.227,96,120.0
1969,C2,358.761,0.25,94,120.0
1970,F4,358.761,0.501,95,120.0
1971,F5,358.761,0.501,95,120.0
1972,C2,359.012,0.25,95,120.0
1973,D4,359.263,0.227,95,120.0
1974,D5,359.263,0.227,95,120.0
1975,C2,359.263,0.227,95,120.0
1976,C3,359.505,0.465,96,120.0
1977,F4,359.505,0.241,95,120.0
1978,F5,359.505,0.241,95,120.0
1979,G4,359.747,0.252,95,120.0
1980,G5,359.747,0.252,95,120.0
1981,F5,360.004,0.499,84,120.0
1982,D2,360.004,0.499,84,120.0
1983,F5,360.533,0.242,80,120.0
1984,D3,360.533,0.466,80,120.0
1985,F5,360.776,0.237,80,120.0
1986,D2,361.029,0.251,80,120.0
1987,F5,361.281,0.226,80,120.0
1988,D2,361.281,0.226,80,120.0
1989,D3,361.522,0.227,80,120.0
1990,F5,361.765,0.512,80,120.0
1991,D2,361.765,0.512,80,120.0
1992,D5,362.277,0.482,80,120.0
1993,D2,362.277,0.226,79,120.0
1994,D3,362.519,0.227,80,120.0
1995,D5,362.761,1.238,80,120.0
1996,D2,362.761,0.25,79,120.0
1997,D2,363.012,0.25,80,120.0
1998,D2,363.263,0.227,79,120.0
1999,D3,363.505,0.465,80,120.0
2000,F5,364.004,0.499,84,120.0
2001,C2,364.004,0.499,84,120.0
2002,F5,364.533,0.242,80,120.0
2003,C3,364.533,0.466,80,120.0
2004,F5,364.776,0.237,80,120.0
2005,C2,365.029,0.251,79,120.0
2006,G5,365.281,0.226,79,120.0
2007,C2,365.281,0.226,79,120.0
2008,C3,365.522,0.227,80,120.0
2009,G#5,365.765,0.512,79,120.0
2010,C2,365.765,0.512,79,120.0
2011,G5,366.277,0.075,80,120.0
2012,C2,366.277,0.226,78,120.0
2013,G#5,366.358,0.075,80,120.0
2014,G5,366.439,0.073,80,120.0
2015,F5,366.519,0.227,80,120.0
2016,C3,366.519,0.227,80,120.0
2017,D5,366.761,0.25,79,120.0
2018,C2,366.761,0.25,79,120.0
2019,F5,367.012,0.25,80,120.0
2020,C2,367.012,0.25,80,120.0
2021,G5,367.263,0.227,79,120.0
2022,C2,367.263,0.227,79,120.0
2023,C3,367.505,0.465,80,120.0
2024,F5,368.004,0.499,84,120.0
2025,B1,368.004,0.499,84,120.0
2026,F5,368.533,0.242,80,120.0
2027,B2,368.533,0.466,80,120.0
2028,F5,368.776,0.237,80,120.0
2029,B1,369.029,0.251,79,120.0
2030,G5,369.281,0.226,79,120.0
2031,B1,369.281,0.226,79,120.0
2032,B2,369.522,0.227,80,120.0
2033,G#5,369.765,0.24,80,120.0
2034,B1,369.765,0.512,78,120.0
2035,A5,370.277,0.226,79,120.0
2036,B1,370.277,0.226,79,120.0
2037,B2,370.519,0.227,80,120.0
2038,C6,370.761,0.486,80,120.0
2039,B1,370.761,0.25,78,120.0
2040,B1,371.012,0.25,79,120.0
2041,A5,371.263,0.736,80,120.0
2042,B1,371.263,0.227,78,120.0
2043,B2,371.505,0.465,80,120.0
2044,D6,372.004,0.229,85,120.0
2045,B-1,372.004,0.499,83,120.0
2046,D6,372.533,0.195,81,120.0
2047,B-2,372.533,0.466,81,120.0
2048,D6,373.029,0.251,82,120.0
2049,B-1,373.029,0.251,82,120.0
2050,A5,373.281,0.226,83,120.0
2051,B-1,373.281,0.226,83,120.0
2052,D6,373.522,0.227,85,120.0
2053,B-2,373.522,0.227,85,120.0
2054,C6,373.765,2.234,86,120.0
2055,C2,373.765,0.512,84,120.0
2056,C2,374.277,0.226,86,120.0
2057,C3,374.519,0.227,89,120.0
2058,C2,374.761,0.25,88,120.0
2059,C2,375.012,0.25,89,120.0
2060,C2,375.263,0.227,90,120.0
2061,C3,375.505,0.465,93,120.0
2062,D2,376.004,0.285,100,120.0
2063,F5,376.004,0.528,98,120.0
2064,A5,376.004,0.528,98,120.0
2065,D2,376.29,0.228,95,120.0
2066,F5,376.533,0.195,94,120.0
2067,A5,376.533,0.195,94,120.0
2068,D3,376.533,0.195,94,120.0
2069,F5,376.776,0.252,93,120.0
2070,A5,376.776,0.252,93,120.0
2071,A2,377.029,0.251,96,120.0
2072,D2,377.029,0.251,96,120.0
2073,F5,377.281,0.226,93,120.0
2074,A5,377.281,0.226,93,120.0
2075,D2,377.281,0.226,93,120.0
2076,D3,377.522,0.227,96,120.0
2077,G#2,377.765,0.24,96,120.0
2078,F5,377.765,0.512,93,120.0
2079,A5,377.765,0.512,93,120.0
2080,D2,377.765,0.512,93,120.0
2081,D5,378.277,0.226,95,120.0
2082,G5,378.277,0.226,95,120.0
2083,G2,378.277,0.226,95,120.0
2084,D2,378.277,0.226,95,120.0
2085,D3,378.519,0.227,96,120.0
2086,F2,378.761,0.486,96,120.0
2087,D2,378.761,0.25,93,120.0
2088,D5,378.761,1.238,93,120.0
2089,G5,378.761,1.238,93,120.0
2090,D2,379.012,0.25,94,120.0
2091,D2,379.263,0.227,94,120.0
2092,D2,379.263,0.227,94,120.0
2093,F2,379.505,0.227,96,120.0
2094,D3,379.505,0.465,96,120.0
2095,G2,379.747,0.237,96,120.0
2096,C2,380.004,0.285,99,120.0
2097,F5,380.004,0.528,100,120.0
2098,A5,380.004,0.528,100,120.0
2099,C2,380.29,0.228,94,120.0
2100,F5,380.533,0.195,94,120.0
2101,A5,380.533,0.195,94,120.0
2102,D3,380.533,0.195,94,120.0
2103,F5,380.776,0.252,93,120.0
2104,A5,380.776,0.252,93,120.0
2105,A2,381.029,0.251,96,120.0
2106,C2,381.029,0.251,96,120.0
2107,F5,381.281,0.226,94,120.0
2108,A5,381.281,0.226,94,120.0
2109,C2,381.281,0.226,94,120.0
2110,D3,381.522,0.227,96,120.0
2111,C2,381.765,0.512,93,120.0
2112,D5,381.765,0.24,95,120.0
2113,G5,381.765,0.24,95,120.0
2114,G#2,381.765,0.24,95,120.0
2115,F5,382.277,0.226,95,120.0
2116,A5,382.277,0.226,95,120.0
2117,G2,382.277,0.226,95,120.0
2118,C2,382.277,0.226,95,120.0
2119,D3,382.519,0.227,96,120.0
2120,F2,382.761,0.486,96,120.0
2121,E5,382.761,0.25,94,120.0
2122,D6,382.761,0.25,94,120.0
2123,C2,382.761,0.25,94,120.0
2124,C2,383.012,0.235,94,120.0
2125,D5,383.263,0.227,94,120.0
2126,A5,383.263,0.227,94,120.0
2127,D2,383.263,0.227,94,120.0
2128,D2,383.263,0.227,94,120.0
2129,F2,383.505,0.227,96,120.0
2130,C5,383.505,0.465,95,120.0
2131,G5,383.505,0.465,95,120.0
2132,D3,383.505,0.465,95,120.0
2133,G2,383.747,0.237,96,120.0
2134,D6,384.004,0.499,101,120.0
2135,B5,384.004,0.285,100,120.0
2136,B1,384.004,0.285,100,120.0
2137,G5,384.29,0.228,95,120.0
2138,B1,384.29,0.228,95,120.0
2139,A5,384.533,0.466,96,120.0
2140,D5,384.533,0.195,96,120.0
2141,D3,384.533,0.195,96,120.0
2142,E5,384.776,0.237,96,120.0
2143,G5,385.029,0.463,97,120.0
2144,F5,385.029,0.251,96,120.0
2145,A2,385.029,0.251,96,120.0
2146,B1,385.029,0.251,96,120.0
2147,D5,385.281,0.226,94,120.0
2148,B1,385.281,0.226,94,120.0
2149,F5,385.522,0.468,96,120.0
2150,B4,385.522,0.227,96,120.0
2151,D3,385.522,0.227,96,120.0
2152,B1,385.765,0.512,92,120.0
2153,D5,385.765,0.24,96,120.0
2154,G#2,385.765,0.24,96,120.0
2155,C6,386.021,0.468,99,120.0
2156,D5,386.277,0.226,95,120.0
2157,G2,386.277,0.226,95,120.0
2158,B1,386.277,0.226,95,120.0
2159,G5,386.519,0.463,96,120.0
2160,B4,386.519,0.227,96,120.0
2161,D3,386.519,0.227,96,120.0
2162,F2,386.761,0.486,96,120.0
2163,D5,386.761,0.25,94,120.0
2164,B1,386.761,0.25,94,120.0
2165,F5,387.012,0.463,97,120.0
2166,B4,387.012,0.235,95,120.0
2167,B1,387.012,0.235,95,120.0
2168,G4,387.263,0.227,95,120.0
2169,D2,387.263,0.227,95,120.0
2170,D2,387.263,0.227,95,120.0
2171,E5,387.505,0.465,96,120.0
2172,D3,387.505,0.465,96,120.0
2173,B4,387.505,0.227,96,120.0
2174,F2,387.505,0.227,96,120.0
2175,G4,387.747,0.237,96,120.0
2176,G2,387.747,0.237,96,120.0
2177,B-4,388.004,0.499,101,120.0
2178,B-1,388.004,0.285,99,120.0
2179,B-1,388.29,0.228,94,120.0
2180,C5,388.533,0.195,96,120.0
2181,D3,388.533,0.195,96,120.0
2182,B-4,388.776,0.252,95,120.0
2183,D5,388.776,0.252,95,120.0
2184,A2,389.029,0.251,95,120.0
2185,B-1,389.029,0.251,95,120.0
2186,D5,389.281,0.226,94,120.0
2187,F5,389.281,0.226,94,120.0
2188,B-1,389.281,0.226,94,120.0
2189,D3,389.522,0.227,96,120.0
2190,G#2,389.765,0.24,96,120.0
2191,C2,389.765,0.512,93,120.0
2192,E5,389.765,2.234,95,120.0
2193,C6,389.765,2.234,95,120.0
2194,G2,390.277,0.226,94,120.0
2195,C2,390.277,0.226,94,120.0
2196,D3,390.519,0.227,96,120.0
2197,F2,390.761,0.486,96,120.0
2198,C2,390.761,0.25,93,120.0
2199,C2,391.012,0.235,94,120.0
2200,D2,391.263,0.227,94,120.0
2201,D2,391.263,0.227,94,120.0
2202,F2,391.505,0.227,96,120.0
2203,D3,391.505,0.465,96,120.0
2204,G2,391.747,0.237,96,120.0
2205,B-1,392.004,0.499,83,120.0
2206,B-2,392.533,0.466,80,120.0
2207,B-1,393.029,0.251,79,120.0
2208,B-1,393.281,0.226,78,120.0
2209,B-2,393.522,0.227,80,120.0
2210,B-1,393.765,0.512,78,120.0
2211,D5,394.021,0.256,82,120.0
2212,F5,394.021,0.256,82,120.0
2213,B-4,394.277,0.226,79,120.0
2214,D5,394.277,0.226,79,120.0
2215,B-1,394.277,0.226,79,120.0
2216,D5,394.519,0.227,79,120.0
2217,F5,394.519,0.227,79,120.0
2218,B-2,394.519,0.227,79,120.0
2219,E5,394.761,0.25,79,120.0
2220,G5,394.761,0.25,79,120.0
2221,B-1,394.761,0.25,79,120.0
2222,F5,395.012,0.25,80,120.0
2223,G#5,395.012,0.25,80,120.0
2224,B-1,395.012,0.25,80,120.0
2225,E5,395.263,0.227,79,120.0
2226,G5,395.263,0.227,79,120.0
2227,B-1,395.263,0.227,79,120.0
2228,B-2,395.505,0.465,80,120.0
2229,D5,395.505,0.241,79,120.0
2230,F5,395.505,0.241,79,120.0
2231,B-4,395.747,0.252,79,120.0
2232,D5,395.747,0.252,79,120.0
2233,G#5,396.004,0.155,85,120.0
2234,C2,396.004,0.499,83,120.0
2235,G5,396.167,0.115,80,120.0
2236,F5,396.29,0.114,80,120.0
2237,D5,396.412,0.12,80,120.0
2238,D5,396.533,0.466,79,120.0
2239,F5,396.533,0.466,79,120.0
2240,C3,396.533,0.466,79,120.0
2241,C2,397.029,0.251,79,120.0
2242,E5,397.029,2.232,80,120.0
2243,G5,397.029,2.232,80,120.0
2244,C2,397.281,0.226,78,120.0
2245,C3,397.522,0.227,80,120.0
2246,C2,397.765,0.512,78,120.0
2247,C2,398.277,0.226,78,120.0
2248,C3,398.519,0.227,80,120.0
2249,C2,398.761,0.25,78,120.0
2250,C2,399.012,0.25,79,120.0
2251,G#5,399.263,0.454,80,120.0
2252,C2,399.263,0.227,78,120.0
2253,C3,399.505,0.465,80,120.0
2254,A5,399.747,0.237,80,120.0
2255,C6,400.004,0.229,85,120.0
2256,D2,400.004,0.499,84,120.0
2257,A5,400.533,0.228,80,120.0
2258,D3,400.533,0.466,80,120.0
2259,G#5,400.776,0.237,80,120.0
2260,G5,401.029,0.251,80,120.0
2261,D2,401.029,0.251,80,120.0
2262,F5,401.281,0.226,80,120.0
2263,D2,401.281,0.226,80,120.0
2264,D5,401.522,0.227,80,120.0
2265,D3,401.522,0.227,80,120.0
2266,E5,401.765,0.24,80,120.0
2267,D2,401.765,0.512,79,120.0
2268,F5,402.021,0.468,83,120.0
2269,D2,402.277,0.226,79,120.0
2270,G5,402.519,0.463,80,120.0
2271,D3,402.519,0.227,80,120.0
2272,D2,402.761,0.25,79,120.0
2273,A5,403.012,0.463,81,120.0
2274,D2,403.012,0.25,80,120.0
2275,D2,403.263,0.227,79,120.0
2276,C6,403.505,0.465,80,120.0
2277,D3,403.505,0.465,80,120.0
2278,C#6,404.004,0.499,84,120.0
2279,C#2,404.004,0.499,84,120.0
2280,G#5,404.533,0.195,80,120.0
2281,C#3,404.533,0.466,80,120.0
2282,G#5,405.029,0.251,80,120.0
2283,C#2,405.029,0.251,80,120.0
2284,G5,405.281,0.226,80,120.0
2285,C#2,405.281,0.226,80,120.0
2286,F5,405.522,0.227,80,120.0
2287,C#3,405.522,0.227,80,120.0
2288,G5,405.765,2.234,80,120.0
2289,E-2,405.765,0.512,79,120.0
2290,E-2,406.277,0.226,79,120.0
2291,E-3,406.519,0.227,80,120.0
2292,E-2,406.761,0.25,79,120.0
2293,E-2,407.012,0.25,80,120.0
2294,E-2,407.263,0.227,79,120.0
2295,E-3,407.505,0.465,80,120.0
2296,D4,408.004,0.499,84,120.0
2297,F4,408.004,0.499,84,120.0
2298,B-1,408.004,0.499,84,120.0
2299,E4,408.533,0.466,79,120.0
2300,G4,408.533,0.466,79,120.0
2301,B-2,408.533,0.466,79,120.0
2302,B-1,409.029,0.251,79,120.0
2303,F4,409.029,0.492,80,120.0
2304,A4,409.029,0.492,80,120.0
2305,B-1,409.281,0.226,78,120.0
2306,B-2,409.522,0.227,80,120.0
2307,D5,409.522,0.497,79,120.0
2308,F5,409.522,0.497,79,120.0
2309,B-1,409.765,0.512,78,120.0
2310,C5,410.021,0.99,82,120.0
2311,E5,410.021,0.99,82,120.0
2312,B-1,410.277,0.226,78,120.0
2313,B-2,410.519,0.227,80,120.0
2314,B-1,410.761,0.25,78,120.0
2315,B-1,411.012,0.25,79,120.0
2316,A4,411.012,0.987,80,120.0
2317,D5,411.012,0.987,80,120.0
2318,B-1,411.263,0.227,78,120.0
2319,B-2,411.505,0.465,80,120.0
2320,C2,412.004,0.499,83,120.0
2321,G4,412.004,1.024,84,120.0
2322,E5,412.004,1.024,84,120.0
2323,C3,412.533,0.466,80,120.0
2324,C2,413.029,0.251,79,120.0
2325,A4,413.029,0.99,80,120.0
2326,F5,413.029,0.99,80,120.0
2327,C2,413.281,0.226,78,120.0
2328,C3,413.522,0.227,80,120.0
2329,C2,413.765,0.512,78,120.0
2330,C5,414.021,0.99,82,120.0
2331,G5,414.021,0.99,82,120.0
2332,C2,414.277,0.226,78,120.0
2333,C3,414.519,0.227,80,120.0
2334,C2,414.761,0.25,78,120.0
2335,C2,415.012,0.25,79,120.0
2336,A4,415.012,0.987,80,120.0
2337,E5,415.012,0.987,80,120.0
2338,C2,415.263,0.227,78,120.0
2339,C3,415.505,0.465,80,120.0
2340,D2,416.004,0.499,84,120.0
2341,D5,416.004,2.016,84,120.0
2342,A5,416.004,2.016,84,120.0
2343,D3,416.533,0.466,80,120.0
2344,D2,417.029,0.251,80,120.0
2345,D2,417.281,0.226,79,120.0
2346,D3,417.522,0.227,80,120.0
2347,D2,417.765,0.512,79,120.0
2348,A5,418.021,0.241,83,120.0
2349,G#5,418.277,0.226,80,120.0
2350,D2,418.277,0.226,80,120.0
2351,G5,418.519,0.227,80,120.0
2352,D3,418.519,0.227,80,120.0
2353,F#5,418.761,0.25,80,120.0
2354,D2,418.761,0.25,80,120.0
2355,F5,419.012,0.25,80,120.0
2356,D2,419.012,0.25,80,120.0
2357,E5,419.263,0.227,80,120.0
2358,D2,419.263,0.227,80,120.0
2359,E-5,419.505,0.227,80,120.0
2360,D3,419.505,0.465,80,120.0
2361,D5,419.747,0.237,80,120.0
2362,C#2,420.004,0.499,84,120.0
2363,G#4,420.004,2.016,84,120.0
2364,C#5,420.004,2.016,84,120.0
2365,C#3,420.533,0.466,80,120.0
2366,C#2,421.029,0.251,80,120.0
2367,C#2,421.281,0.226,79,120.0
2368,C#3,421.522,0.227,80,120.0
2369,E-2,421.765,0.512,79,120.0
2370,B-4,422.021,1.979,82,120.0
2371,E-5,422.021,1.979,82,120.0
2372,E-2,422.277,0.226,79,120.0
2373,E-3,422.519,0.227,80,120.0
2374,E-2,422.761,0.25,79,120.0
2375,E-2,423.012,0.25,80,120.0
2376,E-2,423.263,0.227,79,120.0
2377,E-3,423.505,0.465,80,120.0
2378,B-3,424.004,3.007,64,120.0
2379,B-1,424.004,0.528,67,120.0
2380,B-1,424.533,0.495,62,120.0
2381,B-1,425.029,0.251,63,120.0
2382,B-1,425.281,0.482,62,120.0
2383,B-1,425.765,0.512,62,120.0
2384,B-1,426.277,0.482,62,120.0
2385,B-1,426.761,0.25,62,120.0
2386,F4,427.012,0.987,65,120.0
2387,B-1,427.012,0.25,63,120.0
2388,B-1,427.263,0.241,62,120.0
2389,B-1,427.505,0.465,62,120.0
2390,E4,428.004,2.016,69,120.0
2391,C2,428.004,0.528,67,120.0
2392,C2,428.533,0.495,62,120.0
2393,C2,429.029,0.251,63,120.0
2394,C2,429.281,0.482,62,120.0
2395,C2,429.765,0.512,62,120.0
2396,D4,430.021,1.979,67,120.0
2397,C2,430.277,0.482,62,120.0
2398,C2,430.761,0.25,62,120.0
2399,C2,431.012,0.25,63,120.0
2400,C2,431.263,0.241,62,120.0
2401,C2,431.505,0.465,62,120.0
2402,F4,432.004,3.996,64,120.0
2403,B1,432.004,0.528,67,120.0
2404,B1,432.533,0.495,62,120.0
2405,B1,433.029,0.251,63,120.0
2406,B1,433.281,0.482,62,120.0
2407,B1,433.765,0.512,62,120.0
2408,B1,434.277,0.482,62,120.0
2409,B1,434.761,0.25,62,120.0
2410,B1,435.012,0.25,63,120.0
2411,B1,435.263,0.241,62,120.0
2412,B1,435.505,0.494,62,120.0
2413,F4,436.0,3.999,64,120.0
2414,B1,436.004,0.528,67,120.0
2415,B1,436.533,0.495,62,120.0
2416,B1,437.029,0.251,63,120.0
2417,B1,437.281,0.482,62,120.0
2418,B1,437.765,0.512,62,120.0
2419,B1,438.277,0.482,62,120.0
2420,B1,438.761,0.25,62,120.0
2421,B1,439.012,0.25,63,120.0
2422,B1,439.263,0.241,62,120.0
2423,B1,439.505,0.465,62,120.0
2424,B-3,440.004,3.007,64,120.0
2425,B-1,440.004,0.528,67,120.0
2426,B-1,440.533,0.495,62,120.0
2427,B-1,441.029,0.251,63,120.0
2428,B-1,441.281,0.482,62,120.0
2429,B-1,441.765,0.512,62,120.0
2430,B-1,442.277,0.482,62,120.0
2431,B-1,442.761,0.25,62,120.0
2432,F4,443.012,0.987,65,120.0
2433,B-1,443.012,0.25,63,120.0
2434,B-1,443.263,0.241,62,120.0
2435,B-1,443.505,0.465,62,120.0
2436,E4,444.004,2.016,69,120.0
2437,C2,444.004,0.528,67,120.0
2438,C2,444.533,0.495,62,120.0
2439,C2,445.029,0.251,63,120.0
2440,C2,445.281,0.482,62,120.0
2441,C2,445.765,0.512,62,120.0
2442,D4,446.021,1.979,67,120.0
2443,C2,446.277,0.482,62,120.0
2444,C2,446.761,0.25,62,120.0
2445,C2,447.012,0.25,63,120.0
2446,C2,447.263,0.241,62,120.0
2447,C2,447.505,0.465,62,120.0
2448,D4,448.004,3.996,64,120.0
2449,D2,448.004,0.528,68,120.0
2450,D2,448.533,0.495,63,120.0
2451,D2,449.029,0.251,64,120.0
2452,D2,449.281,0.482,63,120.0
2453,D2,449.765,0.512,63,120.0
2454,D2,450.277,0.482,63,120.0
2455,D2,450.761,0.25,63,120.0
2456,D2,451.012,0.25,64,120.0
2457,D2,451.263,0.241,63,120.0
2458,D2,451.505,0.494,63,120.0
2459,D4,452.0,3.999,64,120.0
2460,D2,452.004,0.528,68,120.0
2461,D2,452.533,0.495,63,120.0
2462,D2,453.029,0.251,64,120.0
2463,D2,453.281,0.482,63,120.0
2464,D2,453.765,0.512,63,120.0
2465,D2,454.277,0.482,63,120.0
2466,D2,454.761,0.25,63,120.0
2467,D2,455.012,0.25,64,120.0
2468,D2,455.263,0.241,63,120.0
2469,D2,455.505,0.465,63,120.0
2470,B-3,456.004,3.007,64,120.0
2471,D3,456.004,0.285,69,120.0
2472,B-1,456.004,0.528,67,120.0
2473,D3,456.29,0.228,64,120.0
2474,D4,456.533,0.195,64,120.0
2475,B-1,456.533,0.495,62,120.0
2476,A3,457.029,0.251,64,120.0
2477,B-1,457.029,0.251,64,120.0
2478,B-1,457.281,0.482,62,120.0
2479,G#3,457.765,0.24,64,120.0
2480,B-1,457.765,0.512,62,120.0
2481,G3,458.277,0.183,64,120.0
2482,B-1,458.277,0.482,62,120.0
2483,F3,458.761,0.486,64,120.0
2484,B-1,458.761,0.25,62,120.0
2485,F4,459.012,0.987,65,120.0
2486,B-1,459.012,0.25,63,120.0
2487,D3,459.263,0.241,63,120.0
2488,B-1,459.263,0.241,63,120.0
2489,F3,459.505,0.227,64,120.0
2490,B-1,459.505,0.465,62,120.0
2491,G3,459.747,0.237,64,120.0
2492,E4,460.004,2.016,69,120.0
2493,C3,460.004,0.285,69,120.0
2494,C2,460.004,0.528,67,120.0
2495,C3,460.29,0.228,64,120.0
2496,D4,460.533,0.195,64,120.0
2497,C2,460.533,0.495,62,120.0
2498,A3,461.029,0.251,64,120.0
2499,C2,461.029,0.251,64,120.0
2500,C2,461.281,0.482,62,120.0
2501,G#3,461.765,0.24,64,120.0
2502,C2,461.765,0.512,62,120.0
2503,D4,462.021,1.979,67,120.0
2504,G3,462.277,0.183,64,120.0
2505,C2,462.277,0.482,62,120.0
2506,F3,462.761,0.486,64,120.0
2507,C2,462.761,0.25,62,120.0
2508,C2,463.012,0.25,63,120.0
2509,D3,463.263,0.241,63,120.0
2510,C2,463.263,0.241,63,120.0
2511,F3,463.505,0.227,64,120.0
2512,C2,463.505,0.465,62,120.0
2513,G3,463.747,0.237,64,120.0
2514,F4,464.004,3.996,64,120.0
2515,B2,464.004,0.285,69,120.0
2516,B1,464.004,0.528,67,120.0
2517,B2,464.29,0.228,64,120.0
2518,D4,464.533,0.195,64,120.0
2519,B1,464.533,0.495,62,120.0
2520,A3,465.029,0.251,64,120.0
2521,B1,465.029,0.251,64,120.0
2522,B1,465.281,0.482,62,120.0
2523,G#3,465.765,0.24,64,120.0
2524,B1,465.765,0.512,62,120.0
2525,G3,466.277,0.183,64,120.0
2526,B1,466.277,0.482,62,120.0
2527,F3,466.761,0.486,64,120.0
2528,B1,466.761,0.25,62,120.0
2529,B1,467.012,0.25,63,120.0
2530,D3,467.263,0.241,63,120.0
2531,B1,467.263,0.241,63,120.0
2532,F3,467.505,0.227,64,120.0
2533,B1,467.505,0.494,62,120.0
2534,G3,467.747,0.237,64,120.0
2535,F4,468.0,3.999,64,120.0
2536,B2,468.004,0.285,69,120.0
2537,B1,468.004,0.528,67,120.0
2538,B2,468.29,0.228,64,120.0
2539,D4,468.533,0.195,64,120.0
2540,B1,468.533,0.495,62,120.0
2541,A3,469.029,0.251,64,120.0
2542,B1,469.029,0.251,64,120.0
2543,B1,469.281,0.482,62,120.0
2544,G#3,469.765,0.24,64,120.0
2545,B1,469.765,0.512,62,120.0
2546,G3,470.277,0.183,64,120.0
2547,B1,470.277,0.482,62,120.0
2548,F3,470.761,0.486,64,120.0
2549,B1,470.761,0.25,62,120.0
2550,B1,471.012,0.25,63,120.0
2551,D3,471.263,0.241,63,120.0
2552,B1,471.263,0.241,63,120.0
2553,F3,471.505,0.227,64,120.0
2554,B1,471.505,0.465,62,120.0
2555,G3,471.747,0.237,64,120.0
2556,B-3,472.004,3.007,64,120.0
2557,D3,472.004,0.285,64,120.0
2558,B-1,472.004,0.528,62,120.0
2559,D3,472.29,0.228,65,120.0
2560,D4,472.533,0.195,66,120.0
2561,B-1,472.533,0.495,64,120.0
2562,A3,473.029,0.251,67,120.0
2563,B-1,473.029,0.251,67,120.0
2564,B-1,473.281,0.482,67,120.0
2565,G#3,473.765,0.24,71,120.0
2566,B-1,473.765,0.512,69,120.0
2567,G3,474.277,0.183,73,120.0
2568,B-1,474.277,0.482,71,120.0
2569,F3,474.761,0.486,75,120.0
2570,B-1,474.761,0.25,73,120.0
2571,F4,475.012,0.987,76,120.0
2572,B-1,475.012,0.25,74,120.0
2573,D3,475.263,0.241,76,120.0
2574,B-1,475.263,0.241,76,120.0
2575,F3,475.505,0.227,78,120.0
2576,B-1,475.505,0.465,76,120.0
2577,G3,475.747,0.237,79,120.0
2578,E4,476.004,2.016,80,120.0
2579,C3,476.004,0.285,80,120.0
2580,C2,476.004,0.528,78,120.0
2581,C3,476.29,0.228,81,120.0
2582,D4,476.533,0.195,82,120.0
2583,C2,476.533,0.495,80,120.0
2584,A3,477.029,0.251,83,120.0
2585,C2,477.029,0.251,83,120.0
2586,C2,477.281,0.482,83,120.0
2587,G#3,477.765,0.24,87,120.0
2588,C2,477.765,0.512,85,120.0
2589,D4,478.021,1.979,88,120.0
2590,G3,478.277,0.183,89,120.0
2591,C2,478.277,0.482,87,120.0
2592,F3,478.761,0.486,91,120.0
2593,C2,478.761,0.25,89,120.0
2594,C2,479.012,0.25,90,120.0
2595,D3,479.263,0.241,92,120.0
2596,C2,479.263,0.241,92,120.0
2597,F3,479.505,0.227,94,120.0
2598,C2,479.505,0.465,92,120.0
2599,G3,479.747,0.237,95,120.0
2600,D2,480.004,0.528,100,120.0
2601,D3,480.004,0.285,100,120.0
2602,D4,480.004,0.285,100,120.0
2603,D3,480.29,0.228,96,120.0
2604,D2,480.533,0.495,95,120.0
2605,D4,480.533,0.245,119,120.0
2606,F4,480.533,0.245,119,120.0
2607,D2,481.029,0.251,96,120.0
2608,A3,481.029,0.359,120,120.0
2609,E4,481.029,0.359,120,120.0
2610,D2,481.281,0.482,95,120.0
2611,D2,481.765,0.512,95,120.0
2612,G#3,481.765,0.255,119,120.0
2613,C4,481.765,0.255,119,120.0
2614,D2,482.277,0.482,95,120.0
2615,G3,482.277,0.232,119,120.0
2616,E4,482.277,0.232,119,120.0
2617,D2,482.761,0.25,95,120.0
2618,F3,482.761,0.501,119,120.0
2619,D4,482.761,0.501,119,120.0
2620,D2,483.012,0.25,96,120.0
2621,D3,483.263,0.241,95,120.0
2622,G3,483.263,0.241,95,120.0
2623,D2,483.263,0.241,95,120.0
2624,D2,483.505,0.494,95,120.0
2625,F3,483.505,0.241,95,120.0
2626,A3,483.505,0.241,95,120.0
2627,G3,483.747,0.252,95,120.0
2628,C4,483.747,0.252,95,120.0
2629,D3,484.004,0.285,101,120.0
2630,D2,484.004,0.528,100,120.0
2631,D3,484.29,0.228,96,120.0
2632,D2,484.533,0.495,95,120.0
2633,D4,484.533,0.245,119,120.0
2634,F4,484.533,0.245,119,120.0
2635,D2,485.029,0.251,96,120.0
2636,A3,485.029,0.359,120,120.0
2637,E4,485.029,0.359,120,120.0
2638,D2,485.281,0.482,95,120.0
2639,D2,485.765,0.512,95,120.0
2640,G#3,485.765,0.255,119,120.0
2641,C4,485.765,0.255,119,120.0
2642,D2,486.277,0.482,95,120.0
2643,G3,486.277,0.232,119,120.0
2644,E4,486.277,0.232,119,120.0
2645,D2,486.761,0.25,95,120.0
2646,F3,486.761,0.501,119,120.0
2647,D4,486.761,0.501,119,120.0
2648,D2,487.012,0.25,96,120.0
2649,D3,487.263,0.241,95,120.0
2650,G3,487.263,0.241,95,120.0
2651,D2,487.263,0.241,95,120.0
2652,D2,487.505,0.465,95,120.0
2653,F3,487.505,0.241,95,120.0
2654,A3,487.505,0.241,95,120.0
2655,G3,487.747,0.252,95,120.0
2656,C4,487.747,0.252,95,120.0
2657,F3,488.004,0.499,68,120.0
2658,B-3,488.004,0.499,68,120.0
2659,B-1,488.004,0.499,68,120.0
2660,F3,488.533,0.466,62,120.0
2661,B-3,488.533,0.466,62,120.0
2662,B-2,488.533,0.466,62,120.0
2663,B-2,489.029,0.251,64,120.0
2664,B-1,489.029,0.251,64,120.0
2665,B-1,489.281,0.226,62,120.0
2666,F3,489.281,0.482,61,120.0
2667,B-3,489.281,0.482,61,120.0
2668,B-2,489.522,0.227,64,120.0
2669,F3,489.765,0.512,61,120.0
2670,B-3,489.765,0.512,61,120.0
2671,B-1,489.765,0.512,61,120.0
2672,B-1,490.277,0.226,62,120.0
2673,F3,490.277,0.482,61,120.0
2674,B-3,490.277,0.482,61,120.0
2675,B-2,490.519,0.227,64,120.0
2676,B-2,490.761,0.25,63,120.0
2677,B-1,490.761,0.25,63,120.0
2678,B-2,491.012,0.25,64,120.0
2679,B-1,491.012,0.25,64,120.0
2680,B-2,491.263,0.227,63,120.0
2681,B-1,491.263,0.227,63,120.0
2682,F3,491.505,0.465,63,120.0
2683,B-3,491.505,0.465,63,120.0
2684,B-2,491.505,0.465,63,120.0
2685,G3,492.004,0.499,68,120.0
2686,C4,492.004,0.499,68,120.0
2687,C2,492.004,0.499,68,120.0
2688,G3,492.533,0.466,62,120.0
2689,C4,492.533,0.466,62,120.0
2690,C3,492.533,0.466,62,120.0
2691,C3,493.029,0.251,64,120.0
2692,C2,493.029,0.251,64,120.0
2693,C2,493.281,0.226,62,120.0
2694,G3,493.281,0.482,61,120.0
2695,C4,493.281,0.482,61,120.0
2696,C3,493.522,0.227,64,120.0
2697,G3,493.765,0.512,61,120.0
2698,C4,493.765,0.512,61,120.0
2699,C2,493.765,0.512,61,120.0
2700,C2,494.277,0.226,62,120.0
2701,G3,494.277,0.482,61,120.0
2702,C4,494.277,0.482,61,120.0
2703,C3,494.519,0.227,64,120.0
2704,C3,494.761,0.25,63,120.0
2705,C2,494.761,0.25,63,120.0
2706,C3,495.012,0.25,64,120.0
2707,C2,495.012,0.25,64,120.0
2708,C3,495.263,0.227,63,120.0
2709,C2,495.263,0.227,63,120.0
2710,G3,495.505,0.465,63,120.0
2711,C4,495.505,0.465,63,120.0
2712,C3,495.505,0.465,63,120.0
2713,A3,496.004,0.499,68,120.0
2714,D4,496.004,0.499,68,120.0
2715,D2,496.004,0.499,68,120.0
2716,A3,496.533,0.466,62,120.0
2717,D4,496.533,0.466,62,120.0
2718,D3,496.533,0.466,62,120.0
2719,D3,497.029,0.251,64,120.0
2720,D2,497.029,0.251,64,120.0
2721,D2,497.281,0.226,63,120.0
2722,A3,497.281,0.482,63,120.0
2723,D4,497.281,0.482,63,120.0
2724,D3,497.522,0.227,64,120.0
2725,G#3,497.765,0.512,63,120.0
2726,C#4,497.765,0.512,63,120.0
2727,C#2,497.765,0.512,63,120.0
2728,C#2,498.277,0.226,63,120.0
2729,G#3,498.277,0.482,61,120.0
2730,C#4,498.277,0.482,61,120.0
2731,C#3,498.519,0.227,64,120.0
2732,C#3,498.761,0.25,64,120.0
2733,C#2,498.761,0.25,64,120.0
2734,C#3,499.012,0.25,64,120.0
2735,C#2,499.012,0.25,64,120.0
2736,C#3,499.263,0.227,64,120.0
2737,C#2,499.263,0.227,64,120.0
2738,G#3,499.505,0.465,63,120.0
2739,C#4,499.505,0.465,63,120.0
2740,C#3,499.505,0.465,63,120.0
2741,G3,500.004,0.499,68,120.0
2742,C4,500.004,0.499,68,120.0
2743,C2,500.004,0.499,68,120.0
2744,G3,500.533,0.466,62,120.0
2745,C4,500.533,0.466,62,120.0
2746,C3,500.533,0.466,62,120.0
2747,C3,501.029,0.251,64,120.0
2748,C2,501.029,0.251,64,120.0
2749,C2,501.281,0.226,62,120.0
2750,G3,501.281,0.482,63,120.0
2751,C4,501.281,0.482,63,120.0
2752,C3,501.522,0.227,64,120.0
2753,F#3,501.765,0.512,63,120.0
2754,B3,501.765,0.512,63,120.0
2755,B1,501.765,0.512,63,120.0
2756,B1,502.277,0.226,62,120.0
2757,F#3,502.277,0.482,61,120.0
2758,B3,502.277,0.482,61,120.0
2759,B2,502.519,0.227,64,120.0
2760,B2,502.761,0.25,63,120.0
2761,B1,502.761,0.25,63,120.0
2762,B2,503.012,0.25,64,120.0
2763,B1,503.012,0.25,64,120.0
2764,B2,503.263,0.227,63,120.0
2765,B1,503.263,0.227,63,120.0
2766,F#3,503.505,0.465,63,120.0
2767,B3,503.505,0.465,63,120.0
2768,B2,503.505,0.465,63,120.0
2769,F3,504.004,0.499,68,120.0
2770,B-3,504.004,0.499,68,120.0
2771,B-1,504.004,0.499,68,120.0
2772,F3,504.533,0.466,62,120.0
2773,B-3,504.533,0.466,62,120.0
2774,B-2,504.533,0.466,62,120.0
2775,B-2,505.029,0.251,64,120.0
2776,B-1,505.029,0.251,64,120.0
2777,B-1,505.281,0.226,62,120.0
2778,F3,505.281,0.482,61,120.0
2779,B-3,505.281,0.482,61,120.0
2780,B-2,505.522,0.227,64,120.0
2781,F3,505.765,0.512,61,120.0
2782,B-3,505.765,0.512,61,120.0
2783,B-1,505.765,0.512,61,120.0
2784,B-1,506.277,0.226,62,120.0
2785,F3,506.277,0.482,61,120.0
2786,B-3,506.277,0.482,61,120.0
2787,B-2,506.519,0.227,64,120.0
2788,B-2,506.761,0.25,63,120.0
2789,B-1,506.761,0.25,63,120.0
2790,B-2,507.012,0.25,64,120.0
2791,B-1,507.012,0.25,64,120.0
2792,B-2,507.263,0.227,63,120.0
2793,B-1,507.263,0.227,63,120.0
2794,F3,507.505,0.465,63,120.0
2795,B-3,507.505,0.465,63,120.0
2796,B-2,507.505,0.465,63,120.0
2797,G3,508.004,0.499,68,120.0
2798,C4,508.004,0.499,68,120.0
2799,C2,508.004,0.499,68,120.0
2800,G3,508.533,0.466,62,120.0
2801,C4,508.533,0.466,62,120.0
2802,C3,508.533,0.466,62,120.0
2803,C3,509.029,0.251,64,120.0
2804,C2,509.029,0.251,64,120.0
2805,C2,509.281,0.226,62,120.0
2806,G3,509.281,0.482,61,120.0
2807,C4,509.281,0.482,61,120.0
2808,C3,509.522,0.227,64,120.0
2809,G3,509.765,0.512,61,120.0
2810,C4,509.765,0.512,61,120.0
2811,C2,509.765,0.512,61,120.0
2812,C2,510.277,0.226,62,120.0
2813,G3,510.277,0.482,61,120.0
2814,C4,510.277,0.482,61,120.0
2815,C3,510.519,0.227,64,120.0
2816,C3,510.761,0.25,63,120.0
2817,C2,510.761,0.25,63,120.0
2818,C3,511.012,0.25,64,120.0
2819,C2,511.012,0.25,64,120.0
2820,C3,511.263,0.227,63,120.0
2821,C2,511.263,0.227,63,120.0
2822,G3,511.505,0.465,63,120.0
2823,C4,511.505,0.465,63,120.0
2824,C3,511.505,0.465,63,120.0
2825,D3,512.004,0.285,69,120.0
2826,D4,512.004,0.499,68,120.0
2827,D2,512.004,0.499,68,120.0
2828,D3,512.29,0.228,64,120.0
2829,D4,512.533,0.466,64,120.0
2830,D4,512.533,0.466,64,120.0
2831,D3,512.533,0.466,64,120.0
2832,A3,513.029,0.251,64,120.0
2833,D2,513.029,0.251,64,120.0
2834,D4,513.281,0.482,64,120.0
2835,D2,513.281,0.226,63,120.0
2836,D3,513.522,0.227,64,120.0
2837,G#3,513.765,0.24,64,120.0
2838,D4,513.765,0.512,64,120.0
2839,D2,513.765,0.512,64,120.0
2840,D4,514.277,0.453,64,120.0
2841,G3,514.277,0.226,64,120.0
2842,D2,514.277,0.226,64,120.0
2843,D3,514.519,0.227,64,120.0
2844,F3,514.761,0.486,64,120.0
2845,D2,514.761,0.25,63,120.0
2846,D2,515.012,0.25,64,120.0
2847,D3,515.263,0.227,64,120.0
2848,D2,515.263,0.227,64,120.0
2849,F3,515.505,0.227,64,120.0
2850,D4,515.505,0.465,64,120.0
2851,D3,515.505,0.465,64,120.0
2852,G3,515.747,0.237,64,120.0
2853,D3,516.004,0.285,69,120.0
2854,D4,516.004,0.499,68,120.0
2855,D2,516.004,0.499,68,120.0
2856,D3,516.29,0.228,64,120.0
2857,D4,516.533,0.466,64,120.0
2858,D4,516.533,0.466,64,120.0
2859,D3,516.533,0.466,64,120.0
2860,A3,517.029,0.251,64,120.0
2861,D2,517.029,0.251,64,120.0
2862,D4,517.281,0.482,64,120.0
2863,D2,517.281,0.226,63,120.0
2864,D3,517.522,0.227,64,120.0
2865,G#3,517.765,0.24,64,120.0
2866,D4,517.765,0.512,64,120.0
2867,D2,517.765,0.512,64,120.0
2868,D4,518.277,0.453,64,120.0
2869,G3,518.277,0.226,64,120.0
2870,D2,518.277,0.226,64,120.0
2871,D3,518.519,0.227,64,120.0
2872,F3,518.761,0.486,64,120.0
2873,D2,518.761,0.25,63,120.0
2874,D2,519.012,0.25,64,120.0
2875,D3,519.263,0.227,64,120.0
2876,D2,519.263,0.227,64,120.0
2877,F3,519.505,0.227,64,120.0
2878,D4,519.505,0.465,64,120.0
2879,D3,519.505,0.465,64,120.0
2880,G3,519.747,0.237,64,120.0
2881,B-3,520.004,0.285,69,120.0
2882,B-3,520.29,0.228,64,120.0
2883,D5,520.533,0.195,64,120.0
2884,A4,521.029,0.284,65,120.0
2885,G#4,521.765,0.24,64,120.0
2886,G4,522.277,0.183,64,120.0
2887,F4,522.761,0.486,64,120.0
2888,D4,523.263,0.227,64,120.0
2889,F4,523.505,0.227,64,120.0
2890,G4,523.747,0.237,64,120.0
2891,C4,524.004,0.285,69,120.0
2892,C4,524.29,0.228,64,120.0
2893,D5,524.533,0.195,64,120.0
2894,A4,525.029,0.284,65,120.0
2895,G#4,525.765,0.24,64,120.0
2896,G4,526.277,0.183,64,120.0
2897,F4,526.761,0.486,64,120.0
2898,D4,527.263,0.227,64,120.0
2899,F4,527.505,0.227,64,120.0
2900,G4,527.747,0.237,64,120.0
2901,D4,528.004,0.285,69,120.0
2902,D4,528.29,0.228,64,120.0
2903,D5,528.533,0.195,64,120.0
2904,A4,529.029,0.284,65,120.0
2905,G#4,529.765,0.24,64,120.0
2906,G4,530.277,0.183,64,120.0
2907,F4,530.761,0.486,64,120.0
2908,D4,531.263,0.227,64,120.0
2909,F4,531.505,0.227,64,120.0
2910,G4,531.747,0.237,64,120.0
2911,D4,532.004,0.285,69,120.0
2912,D4,532.29,0.228,64,120.0
2913,D5,532.533,0.195,64,120.0
2914,A4,533.029,0.284,65,120.0
2915,G#4,533.765,0.24,64,120.0
2916,G4,534.277,0.183,64,120.0
2917,F4,534.761,0.486,64,120.0
2918,D4,535.263,0.227,64,120.0
2919,F4,535.505,0.227,64,120.0
2920,G4,535.747,0.237,64,120.0
2921,B-3,536.004,0.285,69,120.0
2922,B-3,536.29,0.228,64,120.0
2923,D5,536.533,0.195,64,120.0
2924,A4,537.029,0.284,65,120.0
2925,G#4,537.765,0.24,64,120.0
2926,G4,538.277,0.183,64,120.0
2927,F4,538.761,0.486,64,120.0
2928,D4,539.263,0.227,64,120.0
2929,F4,539.505,0.227,64,120.0
2930,G4,539.747,0.237,64,120.0
2931,C4,540.004,0.285,57,120.0
2932,C4,540.29,0.257,52,120.0
2933,D5,540.533,0.195,64,120.0
2934,A4,541.029,0.284,65,120.0
2935,G#4,541.765,0.24,64,120.0
2936,G4,542.277,0.183,64,120.0
2937,F4,542.761,0.486,64,120.0
2938,D4,543.263,0.227,64,120.0
2939,F4,543.505,0.227,64,120.0
2940,G4,543.747,0.237,64,120.0
